<?xml version="1.0" encoding="UTF-8" standalone="no"?>
<!DOCTYPE svg PUBLIC "-//W3C//DTD SVG 1.1//EN"
 "http://www.w3.org/Graphics/SVG/1.1/DTD/svg11.dtd">
<!-- Generated by graphviz version 3.0.0 (20220226.1711)
 -->
<!-- Title: src/include/AST.h Pages: 1 -->
<svg width="830pt" height="252pt"
 viewBox="0.00 0.00 829.96 252.00" xmlns="http://www.w3.org/2000/svg" xmlns:xlink="http://www.w3.org/1999/xlink">
<g id="graph0" class="graph" transform="scale(1 1) rotate(0) translate(4 248)">
<title>src/include/AST.h</title>
<!-- Node1 -->
<g id="node1" class="node">
<title>Node1</title>
<g id="a_node1"><a xlink:title=" ">
<polygon fill="#bfbfbf" stroke="black" points="153,-224.5 153,-243.5 247,-243.5 247,-224.5 153,-224.5"/>
<text text-anchor="middle" x="200" y="-231.5" font-family="Helvetica,sans-Serif" font-size="10.00">src/include/AST.h</text>
</a>
</g>
</g>
<!-- Node2 -->
<g id="node2" class="node">
<title>Node2</title>
<g id="a_node2"><a xlink:href="_a_s_t_8cpp.html" target="_top" xlink:title=" ">
<polygon fill="none" stroke="black" points="136.5,-112.5 136.5,-131.5 207.5,-131.5 207.5,-112.5 136.5,-112.5"/>
<text text-anchor="middle" x="172" y="-119.5" font-family="Helvetica,sans-Serif" font-size="10.00">src/AST.cpp</text>
</a>
</g>
</g>
<!-- Node1&#45;&gt;Node2 -->
<g id="edge1" class="edge">
<title>Node1&#45;&gt;Node2</title>
<path fill="none" stroke="midnightblue" d="M195.34,-214.67C189.21,-190.62 178.72,-149.39 174.19,-131.59"/>
<polygon fill="midnightblue" stroke="midnightblue" points="191.94,-215.54 197.8,-224.37 198.73,-213.81 191.94,-215.54"/>
</g>
<!-- Node3 -->
<g id="node3" class="node">
<title>Node3</title>
<g id="a_node3"><a xlink:href="_parser_8cpp.html" target="_top" xlink:title=" ">
<polygon fill="none" stroke="black" points="0,-112.5 0,-131.5 80,-131.5 80,-112.5 0,-112.5"/>
<text text-anchor="middle" x="40" y="-119.5" font-family="Helvetica,sans-Serif" font-size="10.00">src/Parser.cpp</text>
</a>
</g>
</g>
<!-- Node1&#45;&gt;Node3 -->
<g id="edge2" class="edge">
<title>Node1&#45;&gt;Node3</title>
<path fill="none" stroke="midnightblue" d="M142.93,-227.44C114.24,-221.81 80.99,-210.54 59,-188 43.89,-172.52 40.69,-145.71 40.08,-131.86"/>
<polygon fill="midnightblue" stroke="midnightblue" points="142.4,-230.9 152.86,-229.2 143.63,-224.01 142.4,-230.9"/>
</g>
<!-- Node4 -->
<g id="node4" class="node">
<title>Node4</title>
<g id="a_node4"><a xlink:href="_code_gen_8h.html" target="_top" xlink:title=" ">
<polygon fill="none" stroke="black" points="226,-112.5 226,-131.5 342,-131.5 342,-112.5 226,-112.5"/>
<text text-anchor="middle" x="284" y="-119.5" font-family="Helvetica,sans-Serif" font-size="10.00">src/include/CodeGen.h</text>
</a>
</g>
</g>
<!-- Node1&#45;&gt;Node4 -->
<g id="edge3" class="edge">
<title>Node1&#45;&gt;Node4</title>
<path fill="none" stroke="midnightblue" d="M212.77,-216.27C230.93,-192.49 263.54,-149.79 277.44,-131.59"/>
<polygon fill="midnightblue" stroke="midnightblue" points="209.88,-214.3 206.59,-224.37 215.44,-218.54 209.88,-214.3"/>
</g>
<!-- Node8 -->
<g id="node8" class="node">
<title>Node8</title>
<g id="a_node8"><a xlink:href="_context_8h.html" target="_top" xlink:title=" ">
<polygon fill="none" stroke="black" points="460.5,-168.5 460.5,-187.5 569.5,-187.5 569.5,-168.5 460.5,-168.5"/>
<text text-anchor="middle" x="515" y="-175.5" font-family="Helvetica,sans-Serif" font-size="10.00">src/include/Context.h</text>
</a>
</g>
</g>
<!-- Node1&#45;&gt;Node8 -->
<g id="edge7" class="edge">
<title>Node1&#45;&gt;Node8</title>
<path fill="none" stroke="midnightblue" d="M257.13,-223.21C316.54,-213.02 408.62,-197.24 465.17,-187.54"/>
<polygon fill="midnightblue" stroke="midnightblue" points="256.42,-219.78 247.16,-224.92 257.61,-226.68 256.42,-219.78"/>
</g>
<!-- Node13 -->
<g id="node13" class="node">
<title>Node13</title>
<g id="a_node13"><a xlink:href="_parser_8h.html" target="_top" xlink:title=" ">
<polygon fill="none" stroke="black" points="68,-168.5 68,-187.5 172,-187.5 172,-168.5 68,-168.5"/>
<text text-anchor="middle" x="120" y="-175.5" font-family="Helvetica,sans-Serif" font-size="10.00">src/include/Parser.h</text>
</a>
</g>
</g>
<!-- Node1&#45;&gt;Node13 -->
<g id="edge16" class="edge">
<title>Node1&#45;&gt;Node13</title>
<path fill="none" stroke="midnightblue" d="M178.7,-218.62C164.08,-208.76 145.17,-195.99 132.82,-187.65"/>
<polygon fill="midnightblue" stroke="midnightblue" points="176.9,-221.63 187.15,-224.32 180.82,-215.83 176.9,-221.63"/>
</g>
<!-- Node5 -->
<g id="node5" class="node">
<title>Node5</title>
<g id="a_node5"><a xlink:href="_code_gen_8cpp.html" target="_top" xlink:title=" ">
<polygon fill="none" stroke="black" points="363,-56.5 363,-75.5 455,-75.5 455,-56.5 363,-56.5"/>
<text text-anchor="middle" x="409" y="-63.5" font-family="Helvetica,sans-Serif" font-size="10.00">src/CodeGen.cpp</text>
</a>
</g>
</g>
<!-- Node4&#45;&gt;Node5 -->
<g id="edge4" class="edge">
<title>Node4&#45;&gt;Node5</title>
<path fill="none" stroke="midnightblue" d="M313.24,-108.37C336.65,-98.26 368.84,-84.35 389.29,-75.52"/>
<polygon fill="midnightblue" stroke="midnightblue" points="311.6,-105.26 303.81,-112.44 314.37,-111.69 311.6,-105.26"/>
</g>
<!-- Node6 -->
<g id="node6" class="node">
<title>Node6</title>
<g id="a_node6"><a xlink:href="_program_8hpp.html" target="_top" xlink:title=" ">
<polygon fill="none" stroke="black" points="223,-56.5 223,-75.5 345,-75.5 345,-56.5 223,-56.5"/>
<text text-anchor="middle" x="284" y="-63.5" font-family="Helvetica,sans-Serif" font-size="10.00">src/include/Program.hpp</text>
</a>
</g>
</g>
<!-- Node4&#45;&gt;Node6 -->
<g id="edge5" class="edge">
<title>Node4&#45;&gt;Node6</title>
<path fill="none" stroke="midnightblue" d="M284,-101.8C284,-92.91 284,-82.78 284,-75.75"/>
<polygon fill="midnightblue" stroke="midnightblue" points="280.5,-102.08 284,-112.08 287.5,-102.08 280.5,-102.08"/>
</g>
<!-- Node7 -->
<g id="node7" class="node">
<title>Node7</title>
<g id="a_node7"><a xlink:href="compiler__cli_8cpp.html" target="_top" xlink:title=" ">
<polygon fill="none" stroke="black" points="504,-0.5 504,-19.5 608,-19.5 608,-0.5 504,-0.5"/>
<text text-anchor="middle" x="556" y="-7.5" font-family="Helvetica,sans-Serif" font-size="10.00">src/compiler_cli.cpp</text>
</a>
</g>
</g>
<!-- Node6&#45;&gt;Node7 -->
<g id="edge6" class="edge">
<title>Node6&#45;&gt;Node7</title>
<path fill="none" stroke="midnightblue" d="M337.02,-54.47C388.43,-44.27 465.44,-28.98 513.1,-19.52"/>
<polygon fill="midnightblue" stroke="midnightblue" points="336.23,-51.06 327.1,-56.44 337.59,-57.93 336.23,-51.06"/>
</g>
<!-- Node8&#45;&gt;Node2 -->
<g id="edge8" class="edge">
<title>Node8&#45;&gt;Node2</title>
<path fill="none" stroke="midnightblue" d="M450.34,-168.14C389.88,-159.64 297.14,-146.06 217,-132 214.02,-131.48 210.93,-130.91 207.83,-130.33"/>
<polygon fill="midnightblue" stroke="midnightblue" points="450.11,-171.64 460.5,-169.56 451.08,-164.71 450.11,-171.64"/>
</g>
<!-- Node8&#45;&gt;Node4 -->
<g id="edge14" class="edge">
<title>Node8&#45;&gt;Node4</title>
<path fill="none" stroke="midnightblue" d="M468.6,-166.15C424.95,-155.95 360.49,-140.88 320.43,-131.52"/>
<polygon fill="midnightblue" stroke="midnightblue" points="467.86,-169.58 478.4,-168.44 469.46,-162.76 467.86,-169.58"/>
</g>
<!-- Node8&#45;&gt;Node6 -->
<g id="edge15" class="edge">
<title>Node8&#45;&gt;Node6</title>
<path fill="none" stroke="midnightblue" d="M542.26,-163.43C564.75,-150.46 590.64,-130.24 575,-112 571.26,-107.64 429.31,-87.22 345.08,-75.44"/>
<polygon fill="midnightblue" stroke="midnightblue" points="540.36,-160.48 533.27,-168.35 543.72,-166.62 540.36,-160.48"/>
</g>
<!-- Node8&#45;&gt;Node7 -->
<g id="edge13" class="edge">
<title>Node8&#45;&gt;Node7</title>
<path fill="none" stroke="midnightblue" d="M579.81,-176.53C657.26,-174.43 780.07,-165.7 809,-132 869.66,-61.35 698.48,-28.73 608.01,-16.75"/>
<polygon fill="midnightblue" stroke="midnightblue" points="579.58,-173.03 569.66,-176.77 579.75,-180.03 579.58,-173.03"/>
</g>
<!-- Node9 -->
<g id="node9" class="node">
<title>Node9</title>
<g id="a_node9"><a xlink:href="_context_8cpp.html" target="_top" xlink:title=" ">
<polygon fill="none" stroke="black" points="360,-112.5 360,-131.5 446,-131.5 446,-112.5 360,-112.5"/>
<text text-anchor="middle" x="403" y="-119.5" font-family="Helvetica,sans-Serif" font-size="10.00">src/Context.cpp</text>
</a>
</g>
</g>
<!-- Node8&#45;&gt;Node9 -->
<g id="edge9" class="edge">
<title>Node8&#45;&gt;Node9</title>
<path fill="none" stroke="midnightblue" d="M487.75,-163.86C466.98,-153.85 438.98,-140.35 420.95,-131.65"/>
<polygon fill="midnightblue" stroke="midnightblue" points="486.48,-167.13 497.01,-168.32 489.52,-160.83 486.48,-167.13"/>
</g>
<!-- Node10 -->
<g id="node10" class="node">
<title>Node10</title>
<g id="a_node10"><a xlink:href="_instructions_8cpp.html" target="_top" xlink:title=" ">
<polygon fill="none" stroke="black" points="464,-112.5 464,-131.5 566,-131.5 566,-112.5 464,-112.5"/>
<text text-anchor="middle" x="515" y="-119.5" font-family="Helvetica,sans-Serif" font-size="10.00">src/Instructions.cpp</text>
</a>
</g>
</g>
<!-- Node8&#45;&gt;Node10 -->
<g id="edge10" class="edge">
<title>Node8&#45;&gt;Node10</title>
<path fill="none" stroke="midnightblue" d="M515,-157.8C515,-148.91 515,-138.78 515,-131.75"/>
<polygon fill="midnightblue" stroke="midnightblue" points="511.5,-158.08 515,-168.08 518.5,-158.08 511.5,-158.08"/>
</g>
<!-- Node11 -->
<g id="node11" class="node">
<title>Node11</title>
<g id="a_node11"><a xlink:href="_layout_8cpp.html" target="_top" xlink:title=" ">
<polygon fill="none" stroke="black" points="622.5,-112.5 622.5,-131.5 703.5,-131.5 703.5,-112.5 622.5,-112.5"/>
<text text-anchor="middle" x="663" y="-119.5" font-family="Helvetica,sans-Serif" font-size="10.00">src/Layout.cpp</text>
</a>
</g>
</g>
<!-- Node8&#45;&gt;Node11 -->
<g id="edge11" class="edge">
<title>Node8&#45;&gt;Node11</title>
<path fill="none" stroke="midnightblue" d="M548.15,-164.91C575.97,-154.75 615.02,-140.51 639.66,-131.52"/>
<polygon fill="midnightblue" stroke="midnightblue" points="546.65,-161.73 538.45,-168.44 549.04,-168.3 546.65,-161.73"/>
</g>
<!-- Node12 -->
<g id="node12" class="node">
<title>Node12</title>
<g id="a_node12"><a xlink:href="_types_8cpp.html" target="_top" xlink:title=" ">
<polygon fill="none" stroke="black" points="722,-112.5 722,-131.5 800,-131.5 800,-112.5 722,-112.5"/>
<text text-anchor="middle" x="761" y="-119.5" font-family="Helvetica,sans-Serif" font-size="10.00">src/Types.cpp</text>
</a>
</g>
</g>
<!-- Node8&#45;&gt;Node12 -->
<g id="edge12" class="edge">
<title>Node8&#45;&gt;Node12</title>
<path fill="none" stroke="midnightblue" d="M563.83,-166.28C610.32,-156.08 679.36,-140.92 722.2,-131.52"/>
<polygon fill="midnightblue" stroke="midnightblue" points="563,-162.88 553.98,-168.44 564.5,-169.72 563,-162.88"/>
</g>
<!-- Node13&#45;&gt;Node2 -->
<g id="edge17" class="edge">
<title>Node13&#45;&gt;Node2</title>
<path fill="none" stroke="midnightblue" d="M135.68,-160.72C144.84,-151.2 156.05,-139.56 163.57,-131.75"/>
<polygon fill="midnightblue" stroke="midnightblue" points="133,-158.45 128.59,-168.08 138.04,-163.31 133,-158.45"/>
</g>
<!-- Node13&#45;&gt;Node3 -->
<g id="edge18" class="edge">
<title>Node13&#45;&gt;Node3</title>
<path fill="none" stroke="midnightblue" d="M98.7,-162.62C84.08,-152.76 65.17,-139.99 52.82,-131.65"/>
<polygon fill="midnightblue" stroke="midnightblue" points="96.9,-165.63 107.15,-168.32 100.82,-159.83 96.9,-165.63"/>
</g>
<!-- Node13&#45;&gt;Node6 -->
<g id="edge19" class="edge">
<title>Node13&#45;&gt;Node6</title>
<path fill="none" stroke="midnightblue" d="M117.18,-158.07C116.15,-143.78 117.29,-124.56 128,-112 151.23,-84.76 189.81,-73.48 222.78,-69.02"/>
<polygon fill="midnightblue" stroke="midnightblue" points="113.73,-158.7 118.32,-168.24 120.68,-157.92 113.73,-158.7"/>
</g>
</g>
</svg>
