<?xml version="1.0" encoding="UTF-8" standalone="no"?>
<!DOCTYPE svg PUBLIC "-//W3C//DTD SVG 1.1//EN"
 "http://www.w3.org/Graphics/SVG/1.1/DTD/svg11.dtd">
<!-- Generated by graphviz version 3.0.0 (20220226.1711)
 -->
<!-- Title: src/include/AST.h Pages: 1 -->
<svg width="808pt" height="196pt"
 viewBox="0.00 0.00 808.00 196.00" xmlns="http://www.w3.org/2000/svg" xmlns:xlink="http://www.w3.org/1999/xlink">
<g id="graph0" class="graph" transform="scale(1 1) rotate(0) translate(4 192)">
<title>src/include/AST.h</title>
<!-- Node1 -->
<g id="node1" class="node">
<title>Node1</title>
<g id="a_node1"><a xlink:title=" ">
<polygon fill="#bfbfbf" stroke="black" points="153,-168.5 153,-187.5 247,-187.5 247,-168.5 153,-168.5"/>
<text text-anchor="middle" x="200" y="-175.5" font-family="Helvetica,sans-Serif" font-size="10.00">src/include/AST.h</text>
</a>
</g>
</g>
<!-- Node2 -->
<g id="node2" class="node">
<title>Node2</title>
<g id="a_node2"><a xlink:href="_a_s_t_8cpp.html" target="_top" xlink:title=" ">
<polygon fill="none" stroke="black" points="136.5,-56.5 136.5,-75.5 207.5,-75.5 207.5,-56.5 136.5,-56.5"/>
<text text-anchor="middle" x="172" y="-63.5" font-family="Helvetica,sans-Serif" font-size="10.00">src/AST.cpp</text>
</a>
</g>
</g>
<!-- Node1&#45;&gt;Node2 -->
<g id="edge1" class="edge">
<title>Node1&#45;&gt;Node2</title>
<path fill="none" stroke="midnightblue" d="M195.34,-158.67C189.21,-134.62 178.72,-93.39 174.19,-75.59"/>
<polygon fill="midnightblue" stroke="midnightblue" points="191.94,-159.54 197.8,-168.37 198.73,-157.81 191.94,-159.54"/>
</g>
<!-- Node3 -->
<g id="node3" class="node">
<title>Node3</title>
<g id="a_node3"><a xlink:href="_parser_8cpp.html" target="_top" xlink:title=" ">
<polygon fill="none" stroke="black" points="0,-56.5 0,-75.5 80,-75.5 80,-56.5 0,-56.5"/>
<text text-anchor="middle" x="40" y="-63.5" font-family="Helvetica,sans-Serif" font-size="10.00">src/Parser.cpp</text>
</a>
</g>
</g>
<!-- Node1&#45;&gt;Node3 -->
<g id="edge2" class="edge">
<title>Node1&#45;&gt;Node3</title>
<path fill="none" stroke="midnightblue" d="M142.93,-171.44C114.24,-165.81 80.99,-154.54 59,-132 43.89,-116.52 40.69,-89.71 40.08,-75.86"/>
<polygon fill="midnightblue" stroke="midnightblue" points="142.4,-174.9 152.86,-173.2 143.63,-168.01 142.4,-174.9"/>
</g>
<!-- Node4 -->
<g id="node4" class="node">
<title>Node4</title>
<g id="a_node4"><a xlink:href="_code_gen_8h.html" target="_top" xlink:title=" ">
<polygon fill="none" stroke="black" points="226,-56.5 226,-75.5 342,-75.5 342,-56.5 226,-56.5"/>
<text text-anchor="middle" x="284" y="-63.5" font-family="Helvetica,sans-Serif" font-size="10.00">src/include/CodeGen.h</text>
</a>
</g>
</g>
<!-- Node1&#45;&gt;Node4 -->
<g id="edge3" class="edge">
<title>Node1&#45;&gt;Node4</title>
<path fill="none" stroke="midnightblue" d="M212.77,-160.27C230.93,-136.49 263.54,-93.79 277.44,-75.59"/>
<polygon fill="midnightblue" stroke="midnightblue" points="209.88,-158.3 206.59,-168.37 215.44,-162.54 209.88,-158.3"/>
</g>
<!-- Node7 -->
<g id="node7" class="node">
<title>Node7</title>
<g id="a_node7"><a xlink:href="_context_8h.html" target="_top" xlink:title=" ">
<polygon fill="none" stroke="black" points="395.5,-112.5 395.5,-131.5 504.5,-131.5 504.5,-112.5 395.5,-112.5"/>
<text text-anchor="middle" x="450" y="-119.5" font-family="Helvetica,sans-Serif" font-size="10.00">src/include/Context.h</text>
</a>
</g>
</g>
<!-- Node1&#45;&gt;Node7 -->
<g id="edge6" class="edge">
<title>Node1&#45;&gt;Node7</title>
<path fill="none" stroke="midnightblue" d="M249.62,-166.28C296.87,-156.08 367.04,-140.92 410.57,-131.52"/>
<polygon fill="midnightblue" stroke="midnightblue" points="248.65,-162.91 239.61,-168.44 250.13,-169.75 248.65,-162.91"/>
</g>
<!-- Node12 -->
<g id="node12" class="node">
<title>Node12</title>
<g id="a_node12"><a xlink:href="_parser_8h.html" target="_top" xlink:title=" ">
<polygon fill="none" stroke="black" points="68,-112.5 68,-131.5 172,-131.5 172,-112.5 68,-112.5"/>
<text text-anchor="middle" x="120" y="-119.5" font-family="Helvetica,sans-Serif" font-size="10.00">src/include/Parser.h</text>
</a>
</g>
</g>
<!-- Node1&#45;&gt;Node12 -->
<g id="edge14" class="edge">
<title>Node1&#45;&gt;Node12</title>
<path fill="none" stroke="midnightblue" d="M178.7,-162.62C164.08,-152.76 145.17,-139.99 132.82,-131.65"/>
<polygon fill="midnightblue" stroke="midnightblue" points="176.9,-165.63 187.15,-168.32 180.82,-159.83 176.9,-165.63"/>
</g>
<!-- Node5 -->
<g id="node5" class="node">
<title>Node5</title>
<g id="a_node5"><a xlink:href="_code_gen_8cpp.html" target="_top" xlink:title=" ">
<polygon fill="none" stroke="black" points="175,-0.5 175,-19.5 267,-19.5 267,-0.5 175,-0.5"/>
<text text-anchor="middle" x="221" y="-7.5" font-family="Helvetica,sans-Serif" font-size="10.00">src/CodeGen.cpp</text>
</a>
</g>
</g>
<!-- Node4&#45;&gt;Node5 -->
<g id="edge4" class="edge">
<title>Node4&#45;&gt;Node5</title>
<path fill="none" stroke="midnightblue" d="M265.96,-49.54C254.73,-39.91 240.68,-27.87 231.31,-19.83"/>
<polygon fill="midnightblue" stroke="midnightblue" points="264.01,-52.47 273.88,-56.32 268.56,-47.16 264.01,-52.47"/>
</g>
<!-- Node6 -->
<g id="node6" class="node">
<title>Node6</title>
<g id="a_node6"><a xlink:href="_program_8hpp.html" target="_top" xlink:title=" ">
<polygon fill="none" stroke="black" points="285,-0.5 285,-19.5 407,-19.5 407,-0.5 285,-0.5"/>
<text text-anchor="middle" x="346" y="-7.5" font-family="Helvetica,sans-Serif" font-size="10.00">src/include/Program.hpp</text>
</a>
</g>
</g>
<!-- Node4&#45;&gt;Node6 -->
<g id="edge5" class="edge">
<title>Node4&#45;&gt;Node6</title>
<path fill="none" stroke="midnightblue" d="M301.75,-49.54C312.81,-39.91 326.63,-27.87 335.86,-19.83"/>
<polygon fill="midnightblue" stroke="midnightblue" points="299.2,-47.12 293.96,-56.32 303.8,-52.4 299.2,-47.12"/>
</g>
<!-- Node7&#45;&gt;Node2 -->
<g id="edge7" class="edge">
<title>Node7&#45;&gt;Node2</title>
<path fill="none" stroke="midnightblue" d="M395.3,-110.54C348.07,-101.49 278.01,-87.99 217,-76 214.03,-75.42 210.95,-74.81 207.86,-74.19"/>
<polygon fill="midnightblue" stroke="midnightblue" points="394.84,-114.02 405.32,-112.46 396.15,-107.14 394.84,-114.02"/>
</g>
<!-- Node7&#45;&gt;Node4 -->
<g id="edge12" class="edge">
<title>Node7&#45;&gt;Node4</title>
<path fill="none" stroke="midnightblue" d="M414.05,-109.3C382.77,-99.13 338.18,-84.62 310.18,-75.52"/>
<polygon fill="midnightblue" stroke="midnightblue" points="413.1,-112.68 423.7,-112.44 415.27,-106.02 413.1,-112.68"/>
</g>
<!-- Node7&#45;&gt;Node6 -->
<g id="edge13" class="edge">
<title>Node7&#45;&gt;Node6</title>
<path fill="none" stroke="midnightblue" d="M463.21,-104.09C472.34,-90.18 481.18,-70.49 471,-56 456.34,-35.15 431.05,-23.91 407.04,-17.88"/>
<polygon fill="midnightblue" stroke="midnightblue" points="460.33,-102.1 457.36,-112.27 466.02,-106.17 460.33,-102.1"/>
</g>
<!-- Node8 -->
<g id="node8" class="node">
<title>Node8</title>
<g id="a_node8"><a xlink:href="_context_8cpp.html" target="_top" xlink:title=" ">
<polygon fill="none" stroke="black" points="714,-56.5 714,-75.5 800,-75.5 800,-56.5 714,-56.5"/>
<text text-anchor="middle" x="757" y="-63.5" font-family="Helvetica,sans-Serif" font-size="10.00">src/Context.cpp</text>
</a>
</g>
</g>
<!-- Node7&#45;&gt;Node8 -->
<g id="edge8" class="edge">
<title>Node7&#45;&gt;Node8</title>
<path fill="none" stroke="midnightblue" d="M508.7,-110.68C568.52,-100.15 659.92,-84.08 713.55,-74.64"/>
<polygon fill="midnightblue" stroke="midnightblue" points="507.89,-107.26 498.65,-112.44 509.1,-114.16 507.89,-107.26"/>
</g>
<!-- Node9 -->
<g id="node9" class="node">
<title>Node9</title>
<g id="a_node9"><a xlink:href="_instructions_8cpp.html" target="_top" xlink:title=" ">
<polygon fill="none" stroke="black" points="360,-56.5 360,-75.5 462,-75.5 462,-56.5 360,-56.5"/>
<text text-anchor="middle" x="411" y="-63.5" font-family="Helvetica,sans-Serif" font-size="10.00">src/Instructions.cpp</text>
</a>
</g>
</g>
<!-- Node7&#45;&gt;Node9 -->
<g id="edge9" class="edge">
<title>Node7&#45;&gt;Node9</title>
<path fill="none" stroke="midnightblue" d="M437.62,-103.86C430.86,-94.5 422.79,-83.33 417.32,-75.75"/>
<polygon fill="midnightblue" stroke="midnightblue" points="434.87,-106.03 443.56,-112.08 440.54,-101.93 434.87,-106.03"/>
</g>
<!-- Node10 -->
<g id="node10" class="node">
<title>Node10</title>
<g id="a_node10"><a xlink:href="_layout_8cpp.html" target="_top" xlink:title=" ">
<polygon fill="none" stroke="black" points="518.5,-56.5 518.5,-75.5 599.5,-75.5 599.5,-56.5 518.5,-56.5"/>
<text text-anchor="middle" x="559" y="-63.5" font-family="Helvetica,sans-Serif" font-size="10.00">src/Layout.cpp</text>
</a>
</g>
</g>
<!-- Node7&#45;&gt;Node10 -->
<g id="edge10" class="edge">
<title>Node7&#45;&gt;Node10</title>
<path fill="none" stroke="midnightblue" d="M476.52,-107.86C496.73,-97.85 523.99,-84.35 541.53,-75.65"/>
<polygon fill="midnightblue" stroke="midnightblue" points="474.92,-104.75 467.51,-112.32 478.03,-111.02 474.92,-104.75"/>
</g>
<!-- Node11 -->
<g id="node11" class="node">
<title>Node11</title>
<g id="a_node11"><a xlink:href="_types_8cpp.html" target="_top" xlink:title=" ">
<polygon fill="none" stroke="black" points="618,-56.5 618,-75.5 696,-75.5 696,-56.5 618,-56.5"/>
<text text-anchor="middle" x="657" y="-63.5" font-family="Helvetica,sans-Serif" font-size="10.00">src/Types.cpp</text>
</a>
</g>
</g>
<!-- Node7&#45;&gt;Node11 -->
<g id="edge11" class="edge">
<title>Node7&#45;&gt;Node11</title>
<path fill="none" stroke="midnightblue" d="M492.82,-109.83C531.91,-99.63 588.83,-84.78 624.35,-75.52"/>
<polygon fill="midnightblue" stroke="midnightblue" points="491.59,-106.53 482.8,-112.44 493.36,-113.31 491.59,-106.53"/>
</g>
<!-- Node12&#45;&gt;Node2 -->
<g id="edge15" class="edge">
<title>Node12&#45;&gt;Node2</title>
<path fill="none" stroke="midnightblue" d="M135.68,-104.72C144.84,-95.2 156.05,-83.56 163.57,-75.75"/>
<polygon fill="midnightblue" stroke="midnightblue" points="133,-102.45 128.59,-112.08 138.04,-107.31 133,-102.45"/>
</g>
<!-- Node12&#45;&gt;Node3 -->
<g id="edge16" class="edge">
<title>Node12&#45;&gt;Node3</title>
<path fill="none" stroke="midnightblue" d="M98.7,-106.62C84.08,-96.76 65.17,-83.99 52.82,-75.65"/>
<polygon fill="midnightblue" stroke="midnightblue" points="96.9,-109.63 107.15,-112.32 100.82,-103.83 96.9,-109.63"/>
</g>
<!-- Node12&#45;&gt;Node6 -->
<g id="edge17" class="edge">
<title>Node12&#45;&gt;Node6</title>
<path fill="none" stroke="midnightblue" d="M116.91,-101.83C115.74,-87.41 116.81,-68.14 128,-56 138.82,-44.26 226.51,-28.93 287.32,-19.53"/>
<polygon fill="midnightblue" stroke="midnightblue" points="113.48,-102.62 118.18,-112.12 120.43,-101.76 113.48,-102.62"/>
</g>
</g>
</svg>
