<?xml version="1.0" encoding="UTF-8" standalone="no"?>
<!DOCTYPE svg PUBLIC "-//W3C//DTD SVG 1.1//EN"
 "http://www.w3.org/Graphics/SVG/1.1/DTD/svg11.dtd">
<!-- Generated by graphviz version 3.0.0 (20220226.1711)
 -->
<!-- Title: src/include/AST.h Pages: 1 -->
<svg width="473pt" height="140pt"
 viewBox="0.00 0.00 473.00 140.00" xmlns="http://www.w3.org/2000/svg" xmlns:xlink="http://www.w3.org/1999/xlink">
<g id="graph0" class="graph" transform="scale(1 1) rotate(0) translate(4 136)">
<title>src/include/AST.h</title>
<!-- Node1 -->
<g id="node1" class="node">
<title>Node1</title>
<g id="a_node1"><a xlink:title=" ">
<polygon fill="#bfbfbf" stroke="black" points="129.5,-112.5 129.5,-131.5 223.5,-131.5 223.5,-112.5 129.5,-112.5"/>
<text text-anchor="middle" x="176.5" y="-119.5" font-family="Helvetica,sans-Serif" font-size="10.00">src/include/AST.h</text>
</a>
</g>
</g>
<!-- Node2 -->
<g id="node2" class="node">
<title>Node2</title>
<g id="a_node2"><a xlink:title=" ">
<polygon fill="none" stroke="#bfbfbf" points="0,-56.5 0,-75.5 29,-75.5 29,-56.5 0,-56.5"/>
<text text-anchor="middle" x="14.5" y="-63.5" font-family="Helvetica,sans-Serif" font-size="10.00">list</text>
</a>
</g>
</g>
<!-- Node1&#45;&gt;Node2 -->
<g id="edge1" class="edge">
<title>Node1&#45;&gt;Node2</title>
<path fill="none" stroke="midnightblue" d="M148.38,-112.44C122.11,-104.32 81.62,-91.51 38.57,-76.25"/>
<polygon fill="midnightblue" stroke="midnightblue" points="39.65,-72.91 29.05,-72.85 37.29,-79.51 39.65,-72.91"/>
</g>
<!-- Node3 -->
<g id="node3" class="node">
<title>Node3</title>
<g id="a_node3"><a xlink:title=" ">
<polygon fill="none" stroke="#bfbfbf" points="47,-56.5 47,-75.5 88,-75.5 88,-56.5 47,-56.5"/>
<text text-anchor="middle" x="67.5" y="-63.5" font-family="Helvetica,sans-Serif" font-size="10.00">string</text>
</a>
</g>
</g>
<!-- Node1&#45;&gt;Node3 -->
<g id="edge2" class="edge">
<title>Node1&#45;&gt;Node3</title>
<path fill="none" stroke="midnightblue" d="M158.99,-112.32C141.43,-103.62 114.17,-90.12 93.97,-80.11"/>
<polygon fill="midnightblue" stroke="midnightblue" points="95.48,-76.96 84.97,-75.65 92.38,-83.23 95.48,-76.96"/>
</g>
<!-- Node4 -->
<g id="node4" class="node">
<title>Node4</title>
<g id="a_node4"><a xlink:title=" ">
<polygon fill="none" stroke="#bfbfbf" points="106.5,-56.5 106.5,-75.5 148.5,-75.5 148.5,-56.5 106.5,-56.5"/>
<text text-anchor="middle" x="127.5" y="-63.5" font-family="Helvetica,sans-Serif" font-size="10.00">vector</text>
</a>
</g>
</g>
<!-- Node1&#45;&gt;Node4 -->
<g id="edge3" class="edge">
<title>Node1&#45;&gt;Node4</title>
<path fill="none" stroke="midnightblue" d="M168.41,-112.08C161.34,-104.3 150.91,-92.8 142.35,-83.37"/>
<polygon fill="midnightblue" stroke="midnightblue" points="144.75,-80.8 135.44,-75.75 139.57,-85.51 144.75,-80.8"/>
</g>
<!-- Node5 -->
<g id="node5" class="node">
<title>Node5</title>
<g id="a_node5"><a xlink:title=" ">
<polygon fill="none" stroke="#bfbfbf" points="90.5,-0.5 90.5,-19.5 142.5,-19.5 142.5,-0.5 90.5,-0.5"/>
<text text-anchor="middle" x="116.5" y="-7.5" font-family="Helvetica,sans-Serif" font-size="10.00">memory</text>
</a>
</g>
</g>
<!-- Node1&#45;&gt;Node5 -->
<g id="edge4" class="edge">
<title>Node1&#45;&gt;Node5</title>
<path fill="none" stroke="midnightblue" d="M175.21,-112.09C173.05,-99.09 167.86,-74.45 157.5,-56 151.38,-45.11 142.17,-34.68 134.03,-26.61"/>
<polygon fill="midnightblue" stroke="midnightblue" points="136.35,-23.99 126.69,-19.65 131.54,-29.07 136.35,-23.99"/>
</g>
<!-- Node6 -->
<g id="node6" class="node">
<title>Node6</title>
<g id="a_node6"><a xlink:title=" ">
<polygon fill="none" stroke="#bfbfbf" points="312,-56.5 312,-75.5 393,-75.5 393,-56.5 312,-56.5"/>
<text text-anchor="middle" x="352.5" y="-63.5" font-family="Helvetica,sans-Serif" font-size="10.00">llvm/IR/Value.h</text>
</a>
</g>
</g>
<!-- Node1&#45;&gt;Node6 -->
<g id="edge5" class="edge">
<title>Node1&#45;&gt;Node6</title>
<path fill="none" stroke="midnightblue" d="M204.39,-112.44C234.25,-103.28 281.81,-88.69 314.96,-78.52"/>
<polygon fill="midnightblue" stroke="midnightblue" points="316.21,-81.8 324.74,-75.52 314.16,-75.1 316.21,-81.8"/>
</g>
<!-- Node7 -->
<g id="node7" class="node">
<title>Node7</title>
<g id="a_node7"><a xlink:title=" ">
<polygon fill="none" stroke="#bfbfbf" points="161,-0.5 161,-19.5 268,-19.5 268,-0.5 161,-0.5"/>
<text text-anchor="middle" x="214.5" y="-7.5" font-family="Helvetica,sans-Serif" font-size="10.00">llvm/IR/Instructions.h</text>
</a>
</g>
</g>
<!-- Node1&#45;&gt;Node7 -->
<g id="edge6" class="edge">
<title>Node1&#45;&gt;Node7</title>
<path fill="none" stroke="midnightblue" d="M179.48,-112.37C185.64,-94.54 199.89,-53.3 208.19,-29.27"/>
<polygon fill="midnightblue" stroke="midnightblue" points="211.57,-30.19 211.53,-19.59 204.96,-27.9 211.57,-30.19"/>
</g>
<!-- Node8 -->
<g id="node8" class="node">
<title>Node8</title>
<g id="a_node8"><a xlink:href="_types_8h.html" target="_top" xlink:title=" ">
<polygon fill="none" stroke="black" points="243,-56.5 243,-75.5 294,-75.5 294,-56.5 243,-56.5"/>
<text text-anchor="middle" x="268.5" y="-63.5" font-family="Helvetica,sans-Serif" font-size="10.00">Types.h</text>
</a>
</g>
</g>
<!-- Node1&#45;&gt;Node8 -->
<g id="edge7" class="edge">
<title>Node1&#45;&gt;Node8</title>
<path fill="none" stroke="midnightblue" d="M191.28,-112.32C205.77,-103.82 228.07,-90.73 244.99,-80.8"/>
<polygon fill="midnightblue" stroke="midnightblue" points="246.9,-83.74 253.76,-75.65 243.36,-77.7 246.9,-83.74"/>
</g>
<!-- Node8&#45;&gt;Node5 -->
<g id="edge10" class="edge">
<title>Node8&#45;&gt;Node5</title>
<path fill="none" stroke="midnightblue" d="M244.42,-56.44C218.96,-47.4 178.61,-33.06 150.04,-22.92"/>
<polygon fill="midnightblue" stroke="midnightblue" points="151.07,-19.57 140.47,-19.52 148.72,-26.16 151.07,-19.57"/>
</g>
<!-- Node8&#45;&gt;Node7 -->
<g id="edge12" class="edge">
<title>Node8&#45;&gt;Node7</title>
<path fill="none" stroke="midnightblue" d="M259.58,-56.08C251.72,-48.22 240.07,-36.57 230.58,-27.08"/>
<polygon fill="midnightblue" stroke="midnightblue" points="232.8,-24.35 223.25,-19.75 227.85,-29.3 232.8,-24.35"/>
</g>
<!-- Node9 -->
<g id="node9" class="node">
<title>Node9</title>
<g id="a_node9"><a xlink:title=" ">
<polygon fill="none" stroke="#bfbfbf" points="286,-0.5 286,-19.5 321,-19.5 321,-0.5 286,-0.5"/>
<text text-anchor="middle" x="303.5" y="-7.5" font-family="Helvetica,sans-Serif" font-size="10.00">map</text>
</a>
</g>
</g>
<!-- Node8&#45;&gt;Node9 -->
<g id="edge8" class="edge">
<title>Node8&#45;&gt;Node9</title>
<path fill="none" stroke="midnightblue" d="M274.28,-56.08C279.17,-48.53 286.33,-37.49 292.33,-28.23"/>
<polygon fill="midnightblue" stroke="midnightblue" points="295.33,-30.05 297.83,-19.75 289.45,-26.24 295.33,-30.05"/>
</g>
<!-- Node10 -->
<g id="node10" class="node">
<title>Node10</title>
<g id="a_node10"><a xlink:title=" ">
<polygon fill="none" stroke="#bfbfbf" points="339.5,-0.5 339.5,-19.5 369.5,-19.5 369.5,-0.5 339.5,-0.5"/>
<text text-anchor="middle" x="354.5" y="-7.5" font-family="Helvetica,sans-Serif" font-size="10.00">set</text>
</a>
</g>
</g>
<!-- Node8&#45;&gt;Node10 -->
<g id="edge9" class="edge">
<title>Node8&#45;&gt;Node10</title>
<path fill="none" stroke="midnightblue" d="M282.32,-56.32C295.73,-47.9 316.32,-34.97 332.09,-25.07"/>
<polygon fill="midnightblue" stroke="midnightblue" points="334.11,-27.94 340.72,-19.65 330.39,-22.01 334.11,-27.94"/>
</g>
<!-- Node11 -->
<g id="node11" class="node">
<title>Node11</title>
<g id="a_node11"><a xlink:title=" ">
<polygon fill="none" stroke="#bfbfbf" points="388,-0.5 388,-19.5 465,-19.5 465,-0.5 388,-0.5"/>
<text text-anchor="middle" x="426.5" y="-7.5" font-family="Helvetica,sans-Serif" font-size="10.00">llvm/IR/Type.h</text>
</a>
</g>
</g>
<!-- Node8&#45;&gt;Node11 -->
<g id="edge11" class="edge">
<title>Node8&#45;&gt;Node11</title>
<path fill="none" stroke="midnightblue" d="M293.54,-56.44C320.12,-47.36 362.31,-32.94 392.02,-22.78"/>
<polygon fill="midnightblue" stroke="midnightblue" points="393.25,-26.06 401.58,-19.52 390.99,-19.44 393.25,-26.06"/>
</g>
</g>
</svg>
