<?xml version="1.0" encoding="UTF-8" standalone="no"?>
<!DOCTYPE svg PUBLIC "-//W3C//DTD SVG 1.1//EN"
 "http://www.w3.org/Graphics/SVG/1.1/DTD/svg11.dtd">
<!-- Generated by graphviz version 3.0.0 (20220226.1711)
 -->
<!-- Title: src/include/CodeGen.h Pages: 1 -->
<svg width="4217pt" height="263pt"
 viewBox="0.00 0.00 4216.63 263.00" xmlns="http://www.w3.org/2000/svg" xmlns:xlink="http://www.w3.org/1999/xlink">
<g id="graph0" class="graph" transform="scale(1 1) rotate(0) translate(4 259)">
<title>src/include/CodeGen.h</title>
<!-- Node1 -->
<g id="node1" class="node">
<title>Node1</title>
<g id="a_node1"><a xlink:title=" ">
<polygon fill="#bfbfbf" stroke="black" points="3285.13,-235.5 3285.13,-254.5 3401.13,-254.5 3401.13,-235.5 3285.13,-235.5"/>
<text text-anchor="middle" x="3343.13" y="-242.5" font-family="Helvetica,sans-Serif" font-size="10.00">src/include/CodeGen.h</text>
</a>
</g>
</g>
<!-- Node2 -->
<g id="node2" class="node">
<title>Node2</title>
<g id="a_node2"><a xlink:title=" ">
<polygon fill="none" stroke="#bfbfbf" points="295.63,-0.5 295.63,-19.5 330.63,-19.5 330.63,-0.5 295.63,-0.5"/>
<text text-anchor="middle" x="313.13" y="-7.5" font-family="Helvetica,sans-Serif" font-size="10.00">map</text>
</a>
</g>
</g>
<!-- Node1&#45;&gt;Node2 -->
<g id="edge1" class="edge">
<title>Node1&#45;&gt;Node2</title>
<path fill="none" stroke="midnightblue" d="M3285.12,-243.97C2870.05,-243.64 363.47,-239.94 209.13,-199 109.53,-172.58 58.52,-175.73 6.13,-87 -0.87,-75.14 -2.88,-66.42 6.13,-56 42.15,-14.31 216.62,-10.51 285.29,-10.67"/>
<polygon fill="midnightblue" stroke="midnightblue" points="285.34,-14.17 295.36,-10.72 285.38,-7.17 285.34,-14.17"/>
</g>
<!-- Node3 -->
<g id="node3" class="node">
<title>Node3</title>
<g id="a_node3"><a xlink:title=" ">
<polygon fill="none" stroke="#bfbfbf" points="3477.13,-0.5 3477.13,-19.5 3529.13,-19.5 3529.13,-0.5 3477.13,-0.5"/>
<text text-anchor="middle" x="3503.13" y="-7.5" font-family="Helvetica,sans-Serif" font-size="10.00">memory</text>
</a>
</g>
</g>
<!-- Node1&#45;&gt;Node3 -->
<g id="edge2" class="edge">
<title>Node1&#45;&gt;Node3</title>
<path fill="none" stroke="midnightblue" d="M3284.89,-243.21C2875.06,-237.41 437.74,-198.26 332.13,-87 322.64,-77.01 322.46,-65.81 332.13,-56 361.09,-26.62 3117.38,-12.8 3466.84,-11.17"/>
<polygon fill="midnightblue" stroke="midnightblue" points="3466.94,-14.67 3476.92,-11.12 3466.91,-7.67 3466.94,-14.67"/>
</g>
<!-- Node4 -->
<g id="node4" class="node">
<title>Node4</title>
<g id="a_node4"><a xlink:title=" ">
<polygon fill="none" stroke="#bfbfbf" points="3273.63,-62 3273.63,-81 3314.63,-81 3314.63,-62 3273.63,-62"/>
<text text-anchor="middle" x="3294.13" y="-69" font-family="Helvetica,sans-Serif" font-size="10.00">string</text>
</a>
</g>
</g>
<!-- Node1&#45;&gt;Node4 -->
<g id="edge3" class="edge">
<title>Node1&#45;&gt;Node4</title>
<path fill="none" stroke="midnightblue" d="M3340.63,-235.26C3333,-208.54 3309.85,-127.52 3299.38,-90.86"/>
<polygon fill="midnightblue" stroke="midnightblue" points="3302.68,-89.67 3296.56,-81.02 3295.95,-91.6 3302.68,-89.67"/>
</g>
<!-- Node5 -->
<g id="node5" class="node">
<title>Node5</title>
<g id="a_node5"><a xlink:title=" ">
<polygon fill="none" stroke="#bfbfbf" points="3333.13,-62 3333.13,-81 3375.13,-81 3375.13,-62 3333.13,-62"/>
<text text-anchor="middle" x="3354.13" y="-69" font-family="Helvetica,sans-Serif" font-size="10.00">vector</text>
</a>
</g>
</g>
<!-- Node1&#45;&gt;Node5 -->
<g id="edge4" class="edge">
<title>Node1&#45;&gt;Node5</title>
<path fill="none" stroke="midnightblue" d="M3343.69,-235.26C3345.4,-208.65 3350.56,-128.21 3352.92,-91.34"/>
<polygon fill="midnightblue" stroke="midnightblue" points="3356.44,-91.22 3353.58,-81.02 3349.45,-90.77 3356.44,-91.22"/>
</g>
<!-- Node6 -->
<g id="node6" class="node">
<title>Node6</title>
<g id="a_node6"><a xlink:title=" ">
<polygon fill="none" stroke="#bfbfbf" points="25.63,-62 25.63,-81 80.63,-81 80.63,-62 25.63,-62"/>
<text text-anchor="middle" x="53.13" y="-69" font-family="Helvetica,sans-Serif" font-size="10.00">charconv</text>
</a>
</g>
</g>
<!-- Node1&#45;&gt;Node6 -->
<g id="edge5" class="edge">
<title>Node1&#45;&gt;Node6</title>
<path fill="none" stroke="midnightblue" d="M3285.08,-244.02C2873.82,-244.05 411.9,-242.44 261.13,-199 182.88,-176.46 104.6,-116.19 70.65,-87.75"/>
<polygon fill="midnightblue" stroke="midnightblue" points="72.89,-85.06 63.01,-81.25 68.36,-90.4 72.89,-85.06"/>
</g>
<!-- Node7 -->
<g id="node7" class="node">
<title>Node7</title>
<g id="a_node7"><a xlink:title=" ">
<polygon fill="none" stroke="#bfbfbf" points="3753.63,-62 3753.63,-81 3782.63,-81 3782.63,-62 3753.63,-62"/>
<text text-anchor="middle" x="3768.13" y="-69" font-family="Helvetica,sans-Serif" font-size="10.00">list</text>
</a>
</g>
</g>
<!-- Node1&#45;&gt;Node7 -->
<g id="edge6" class="edge">
<title>Node1&#45;&gt;Node7</title>
<path fill="none" stroke="midnightblue" d="M3401.17,-243.69C3541.33,-241.58 3892.04,-227.77 3964.13,-143 4012.42,-86.22 3855.88,-75.17 3793.05,-73.02"/>
<polygon fill="midnightblue" stroke="midnightblue" points="3792.91,-69.51 3782.81,-72.72 3792.7,-76.51 3792.91,-69.51"/>
</g>
<!-- Node8 -->
<g id="node8" class="node">
<title>Node8</title>
<g id="a_node8"><a xlink:href="_context_8h.html" target="_top" xlink:title=" ">
<polygon fill="none" stroke="black" points="3468.63,-179.5 3468.63,-198.5 3527.63,-198.5 3527.63,-179.5 3468.63,-179.5"/>
<text text-anchor="middle" x="3498.13" y="-186.5" font-family="Helvetica,sans-Serif" font-size="10.00">Context.h</text>
</a>
</g>
</g>
<!-- Node1&#45;&gt;Node8 -->
<g id="edge7" class="edge">
<title>Node1&#45;&gt;Node8</title>
<path fill="none" stroke="midnightblue" d="M3367.69,-235.44C3393.65,-226.4 3434.8,-212.06 3463.93,-201.92"/>
<polygon fill="midnightblue" stroke="midnightblue" points="3465.39,-205.11 3473.68,-198.52 3463.09,-198.5 3465.39,-205.11"/>
</g>
<!-- Node38 -->
<g id="node38" class="node">
<title>Node38</title>
<g id="a_node38"><a xlink:href="_a_s_t_8h.html" target="_top" xlink:title=" ">
<polygon fill="none" stroke="black" points="3409.13,-123.5 3409.13,-142.5 3453.13,-142.5 3453.13,-123.5 3409.13,-123.5"/>
<text text-anchor="middle" x="3431.13" y="-130.5" font-family="Helvetica,sans-Serif" font-size="10.00">AST.h</text>
</a>
</g>
</g>
<!-- Node1&#45;&gt;Node38 -->
<g id="edge71" class="edge">
<title>Node1&#45;&gt;Node38</title>
<path fill="none" stroke="midnightblue" d="M3350.04,-235.37C3364.62,-217.14 3398.79,-174.43 3417.79,-150.68"/>
<polygon fill="midnightblue" stroke="midnightblue" points="3420.74,-152.59 3424.26,-142.59 3415.28,-148.21 3420.74,-152.59"/>
</g>
<!-- Node47 -->
<g id="node47" class="node">
<title>Node47</title>
<g id="a_node47"><a xlink:href="_options_8h.html" target="_top" xlink:title=" ">
<polygon fill="none" stroke="black" points="4061.63,-179.5 4061.63,-198.5 4120.63,-198.5 4120.63,-179.5 4061.63,-179.5"/>
<text text-anchor="middle" x="4091.13" y="-186.5" font-family="Helvetica,sans-Serif" font-size="10.00">Options.h</text>
</a>
</g>
</g>
<!-- Node1&#45;&gt;Node47 -->
<g id="edge72" class="edge">
<title>Node1&#45;&gt;Node47</title>
<path fill="none" stroke="midnightblue" d="M3401.35,-240.52C3515.64,-233.57 3777.37,-217.08 3997.13,-199 4014.99,-197.53 4034.74,-195.68 4051.5,-194.03"/>
<polygon fill="midnightblue" stroke="midnightblue" points="4051.91,-197.51 4061.51,-193.04 4051.22,-190.54 4051.91,-197.51"/>
</g>
<!-- Node8&#45;&gt;Node2 -->
<g id="edge10" class="edge">
<title>Node8&#45;&gt;Node2</title>
<path fill="none" stroke="midnightblue" d="M3468.59,-187.72C3134.55,-184.55 78.77,-153.66 16.13,-87 6.7,-76.96 7.15,-66.45 16.13,-56 50.75,-15.73 218.26,-11.05 285.31,-10.82"/>
<polygon fill="midnightblue" stroke="midnightblue" points="285.53,-14.32 295.53,-10.82 285.53,-7.32 285.53,-14.32"/>
</g>
<!-- Node8&#45;&gt;Node5 -->
<g id="edge8" class="edge">
<title>Node8&#45;&gt;Node5</title>
<path fill="none" stroke="midnightblue" d="M3468.67,-179.35C3447.82,-172.14 3420.12,-160.24 3400.13,-143 3383.24,-128.44 3370.14,-106.19 3362.32,-90.59"/>
<polygon fill="midnightblue" stroke="midnightblue" points="3365.42,-88.96 3357.95,-81.45 3359.1,-91.98 3365.42,-88.96"/>
</g>
<!-- Node8&#45;&gt;Node7 -->
<g id="edge9" class="edge">
<title>Node8&#45;&gt;Node7</title>
<path fill="none" stroke="midnightblue" d="M3505.33,-179.29C3517.53,-165.14 3543.72,-137.31 3572.13,-123 3639.94,-88.85 3667.5,-112.18 3739.13,-87 3740.77,-86.42 3742.44,-85.77 3744.11,-85.08"/>
<polygon fill="midnightblue" stroke="midnightblue" points="3745.8,-88.15 3753.39,-80.76 3742.85,-81.8 3745.8,-88.15"/>
</g>
<!-- Node9 -->
<g id="node9" class="node">
<title>Node9</title>
<g id="a_node9"><a xlink:title=" ">
<polygon fill="none" stroke="#bfbfbf" points="3139.13,-62 3139.13,-81 3255.13,-81 3255.13,-62 3139.13,-62"/>
<text text-anchor="middle" x="3197.13" y="-69" font-family="Helvetica,sans-Serif" font-size="10.00">llvm/IR/LLVMContext.h</text>
</a>
</g>
</g>
<!-- Node8&#45;&gt;Node9 -->
<g id="edge11" class="edge">
<title>Node8&#45;&gt;Node9</title>
<path fill="none" stroke="midnightblue" d="M3475.3,-179.43C3451.32,-170.41 3412.55,-155.79 3379.13,-143 3326.19,-122.74 3264.73,-98.86 3228.49,-84.73"/>
<polygon fill="midnightblue" stroke="midnightblue" points="3229.55,-81.39 3218.96,-81.02 3227.01,-87.91 3229.55,-81.39"/>
</g>
<!-- Node10 -->
<g id="node10" class="node">
<title>Node10</title>
<g id="a_node10"><a xlink:title=" ">
<polygon fill="none" stroke="#bfbfbf" points="3581.63,-123.5 3581.63,-142.5 3676.63,-142.5 3676.63,-123.5 3581.63,-123.5"/>
<text text-anchor="middle" x="3629.13" y="-130.5" font-family="Helvetica,sans-Serif" font-size="10.00">llvm/IR/IRBuilder.h</text>
</a>
</g>
</g>
<!-- Node8&#45;&gt;Node10 -->
<g id="edge12" class="edge">
<title>Node8&#45;&gt;Node10</title>
<path fill="none" stroke="midnightblue" d="M3518.89,-179.44C3540.45,-170.56 3574.39,-156.56 3598.92,-146.45"/>
<polygon fill="midnightblue" stroke="midnightblue" points="3600.56,-149.56 3608.47,-142.52 3597.89,-143.09 3600.56,-149.56"/>
</g>
<!-- Node11 -->
<g id="node11" class="node">
<title>Node11</title>
<g id="a_node11"><a xlink:title=" ">
<polygon fill="none" stroke="#bfbfbf" points="3695.13,-123.5 3695.13,-142.5 3783.13,-142.5 3783.13,-123.5 3695.13,-123.5"/>
<text text-anchor="middle" x="3739.13" y="-130.5" font-family="Helvetica,sans-Serif" font-size="10.00">llvm/IR/Module.h</text>
</a>
</g>
</g>
<!-- Node8&#45;&gt;Node11 -->
<g id="edge13" class="edge">
<title>Node8&#45;&gt;Node11</title>
<path fill="none" stroke="midnightblue" d="M3527.68,-181.38C3568.4,-172.25 3642.24,-155.71 3690.99,-144.79"/>
<polygon fill="midnightblue" stroke="midnightblue" points="3692,-148.15 3700.99,-142.55 3690.47,-141.32 3692,-148.15"/>
</g>
<!-- Node12 -->
<g id="node12" class="node">
<title>Node12</title>
<g id="a_node12"><a xlink:title=" ">
<polygon fill="none" stroke="#bfbfbf" points="3705.63,-0.5 3705.63,-19.5 3812.63,-19.5 3812.63,-0.5 3705.63,-0.5"/>
<text text-anchor="middle" x="3759.13" y="-7.5" font-family="Helvetica,sans-Serif" font-size="10.00">llvm/IR/Instructions.h</text>
</a>
</g>
</g>
<!-- Node8&#45;&gt;Node12 -->
<g id="edge14" class="edge">
<title>Node8&#45;&gt;Node12</title>
<path fill="none" stroke="midnightblue" d="M3527.82,-188.12C3595.56,-187.69 3758.24,-182.47 3792.13,-143 3798.88,-135.14 3812.28,-120.56 3791.13,-56 3787.71,-45.56 3780.94,-35.46 3774.51,-27.47"/>
<polygon fill="midnightblue" stroke="midnightblue" points="3777.01,-25.02 3767.83,-19.73 3771.71,-29.59 3777.01,-25.02"/>
</g>
<!-- Node13 -->
<g id="node13" class="node">
<title>Node13</title>
<g id="a_node13"><a xlink:title=" ">
<polygon fill="none" stroke="#bfbfbf" points="3839.13,-123.5 3839.13,-142.5 3955.13,-142.5 3955.13,-123.5 3839.13,-123.5"/>
<text text-anchor="middle" x="3897.13" y="-130.5" font-family="Helvetica,sans-Serif" font-size="10.00">llvm/IR/PassManager.h</text>
</a>
</g>
</g>
<!-- Node8&#45;&gt;Node13 -->
<g id="edge15" class="edge">
<title>Node8&#45;&gt;Node13</title>
<path fill="none" stroke="midnightblue" d="M3527.79,-183.99C3591.03,-175.43 3740.5,-155.2 3828.69,-143.26"/>
<polygon fill="midnightblue" stroke="midnightblue" points="3829.43,-146.69 3838.87,-141.89 3828.49,-139.76 3829.43,-146.69"/>
</g>
<!-- Node14 -->
<g id="node14" class="node">
<title>Node14</title>
<g id="a_node14"><a xlink:title=" ">
<polygon fill="none" stroke="#bfbfbf" points="99.13,-62 99.13,-81 247.13,-81 247.13,-62 99.13,-62"/>
<text text-anchor="middle" x="173.13" y="-69" font-family="Helvetica,sans-Serif" font-size="10.00">llvm/IR/LegacyPassManager.h</text>
</a>
</g>
</g>
<!-- Node8&#45;&gt;Node14 -->
<g id="edge16" class="edge">
<title>Node8&#45;&gt;Node14</title>
<path fill="none" stroke="midnightblue" d="M3468.58,-187.99C3231.73,-187.72 1617.56,-182.3 311.13,-87 293.19,-85.69 273.97,-83.91 255.75,-82.05"/>
<polygon fill="midnightblue" stroke="midnightblue" points="256.06,-78.56 245.75,-81.01 255.33,-85.52 256.06,-78.56"/>
</g>
<!-- Node15 -->
<g id="node15" class="node">
<title>Node15</title>
<g id="a_node15"><a xlink:title=" ">
<polygon fill="none" stroke="#bfbfbf" points="4075.63,-123.5 4075.63,-142.5 4208.63,-142.5 4208.63,-123.5 4075.63,-123.5"/>
<text text-anchor="middle" x="4142.13" y="-130.5" font-family="Helvetica,sans-Serif" font-size="10.00">llvm/Passes/PassBuilder.h</text>
</a>
</g>
</g>
<!-- Node8&#45;&gt;Node15 -->
<g id="edge17" class="edge">
<title>Node8&#45;&gt;Node15</title>
<path fill="none" stroke="midnightblue" d="M3527.73,-186.06C3610.68,-180.54 3852.67,-163.86 4065.31,-143.04"/>
<polygon fill="midnightblue" stroke="midnightblue" points="4065.81,-146.51 4075.42,-142.05 4065.12,-139.54 4065.81,-146.51"/>
</g>
<!-- Node16 -->
<g id="node16" class="node">
<title>Node16</title>
<g id="a_node16"><a xlink:href="_j_i_t_8h.html" target="_top" xlink:title=" ">
<polygon fill="none" stroke="black" points="1687.63,-123.5 1687.63,-142.5 1724.63,-142.5 1724.63,-123.5 1687.63,-123.5"/>
<text text-anchor="middle" x="1706.13" y="-130.5" font-family="Helvetica,sans-Serif" font-size="10.00">JIT.h</text>
</a>
</g>
</g>
<!-- Node8&#45;&gt;Node16 -->
<g id="edge18" class="edge">
<title>Node8&#45;&gt;Node16</title>
<path fill="none" stroke="midnightblue" d="M3468.52,-187.11C3254.49,-180.66 1946.46,-141.24 1734.99,-134.87"/>
<polygon fill="midnightblue" stroke="midnightblue" points="1734.81,-131.36 1724.71,-134.56 1734.6,-138.36 1734.81,-131.36"/>
</g>
<!-- Node8&#45;&gt;Node38 -->
<g id="edge47" class="edge">
<title>Node8&#45;&gt;Node38</title>
<path fill="none" stroke="midnightblue" d="M3487.37,-179.32C3477.36,-171.26 3462.24,-159.08 3450.2,-149.37"/>
<polygon fill="midnightblue" stroke="midnightblue" points="3452.07,-146.38 3442.09,-142.83 3447.68,-151.83 3452.07,-146.38"/>
</g>
<!-- Node43 -->
<g id="node43" class="node">
<title>Node43</title>
<g id="a_node43"><a xlink:href="_layout_8h.html" target="_top" xlink:title=" ">
<polygon fill="none" stroke="black" points="3471.13,-123.5 3471.13,-142.5 3525.13,-142.5 3525.13,-123.5 3471.13,-123.5"/>
<text text-anchor="middle" x="3498.13" y="-130.5" font-family="Helvetica,sans-Serif" font-size="10.00">Layout.h</text>
</a>
</g>
</g>
<!-- Node8&#45;&gt;Node43 -->
<g id="edge60" class="edge">
<title>Node8&#45;&gt;Node43</title>
<path fill="none" stroke="midnightblue" d="M3498.13,-179.08C3498.13,-172.01 3498.13,-161.86 3498.13,-152.99"/>
<polygon fill="midnightblue" stroke="midnightblue" points="3501.63,-152.75 3498.13,-142.75 3494.63,-152.75 3501.63,-152.75"/>
</g>
<!-- Node44 -->
<g id="node44" class="node">
<title>Node44</title>
<g id="a_node44"><a xlink:href="_error_8h.html" target="_top" xlink:title=" ">
<polygon fill="none" stroke="black" points="4011.13,-123.5 4011.13,-142.5 4057.13,-142.5 4057.13,-123.5 4011.13,-123.5"/>
<text text-anchor="middle" x="4034.13" y="-130.5" font-family="Helvetica,sans-Serif" font-size="10.00">Error.h</text>
</a>
</g>
</g>
<!-- Node8&#45;&gt;Node44 -->
<g id="edge68" class="edge">
<title>Node8&#45;&gt;Node44</title>
<path fill="none" stroke="midnightblue" d="M3527.88,-185.46C3601.76,-179.07 3799.56,-161.52 3964.13,-143 3976.06,-141.66 3989.12,-140.02 4000.69,-138.52"/>
<polygon fill="midnightblue" stroke="midnightblue" points="4001.36,-141.96 4010.82,-137.18 4000.45,-135.02 4001.36,-141.96"/>
</g>
<!-- Node16&#45;&gt;Node2 -->
<g id="edge40" class="edge">
<title>Node16&#45;&gt;Node2</title>
<path fill="none" stroke="midnightblue" d="M1687.53,-132.03C1527.47,-132.17 387.37,-131.61 332.13,-87 315.38,-73.48 312.08,-47.63 312,-29.87"/>
<polygon fill="midnightblue" stroke="midnightblue" points="315.5,-29.9 312.29,-19.8 308.5,-29.69 315.5,-29.9"/>
</g>
<!-- Node16&#45;&gt;Node3 -->
<g id="edge41" class="edge">
<title>Node16&#45;&gt;Node3</title>
<path fill="none" stroke="midnightblue" d="M1724.7,-132.11C1879.86,-132.98 2958.27,-137.14 3092.13,-87 3112.54,-79.36 3110.07,-64.53 3130.13,-56 3190.3,-30.41 3385.02,-17.3 3466.62,-12.82"/>
<polygon fill="midnightblue" stroke="midnightblue" points="3467.11,-16.3 3476.9,-12.27 3466.73,-9.31 3467.11,-16.3"/>
</g>
<!-- Node16&#45;&gt;Node4 -->
<g id="edge42" class="edge">
<title>Node16&#45;&gt;Node4</title>
<path fill="none" stroke="midnightblue" d="M1724.78,-131.93C1890.43,-131.29 3107.39,-125.28 3264.13,-87 3266.11,-86.52 3268.12,-85.89 3270.1,-85.17"/>
<polygon fill="midnightblue" stroke="midnightblue" points="3271.87,-88.22 3279.64,-81.02 3269.07,-81.8 3271.87,-88.22"/>
</g>
<!-- Node16&#45;&gt;Node5 -->
<g id="edge43" class="edge">
<title>Node16&#45;&gt;Node5</title>
<path fill="none" stroke="midnightblue" d="M1724.68,-131.94C1893.4,-131.35 3159.94,-125.67 3323.13,-87 3325.34,-86.48 3327.58,-85.79 3329.79,-84.99"/>
<polygon fill="midnightblue" stroke="midnightblue" points="3331.29,-88.16 3339.13,-81.02 3328.56,-81.71 3331.29,-88.16"/>
</g>
<!-- Node16&#45;&gt;Node6 -->
<g id="edge45" class="edge">
<title>Node16&#45;&gt;Node6</title>
<path fill="none" stroke="midnightblue" d="M1687.61,-131.87C1519.13,-130.65 254.38,-120.41 90.13,-87 87.05,-86.37 83.9,-85.51 80.79,-84.52"/>
<polygon fill="midnightblue" stroke="midnightblue" points="81.79,-81.15 71.19,-81.02 79.39,-87.73 81.79,-81.15"/>
</g>
<!-- Node16&#45;&gt;Node9 -->
<g id="edge33" class="edge">
<title>Node16&#45;&gt;Node9</title>
<path fill="none" stroke="midnightblue" d="M1725,-131.84C1872.01,-130.49 2835.91,-120.47 3125.13,-87 3133.41,-86.04 3142.17,-84.63 3150.6,-83.05"/>
<polygon fill="midnightblue" stroke="midnightblue" points="3151.55,-86.43 3160.69,-81.07 3150.2,-79.56 3151.55,-86.43"/>
</g>
<!-- Node16&#45;&gt;Node14 -->
<g id="edge34" class="edge">
<title>Node16&#45;&gt;Node14</title>
<path fill="none" stroke="midnightblue" d="M1687.46,-131.98C1565.21,-131.76 866.43,-128.64 299.13,-87 282.67,-85.79 265.05,-84.05 248.36,-82.19"/>
<polygon fill="midnightblue" stroke="midnightblue" points="248.44,-78.67 238.1,-81.02 247.64,-85.63 248.44,-78.67"/>
</g>
<!-- Node17 -->
<g id="node17" class="node">
<title>Node17</title>
<g id="a_node17"><a xlink:title=" ">
<polygon fill="none" stroke="#bfbfbf" points="1527.13,-62 1527.13,-81 1633.13,-81 1633.13,-62 1527.13,-62"/>
<text text-anchor="middle" x="1580.13" y="-69" font-family="Helvetica,sans-Serif" font-size="10.00">llvm/ADT/StringRef.h</text>
</a>
</g>
</g>
<!-- Node16&#45;&gt;Node17 -->
<g id="edge19" class="edge">
<title>Node16&#45;&gt;Node17</title>
<path fill="none" stroke="midnightblue" d="M1688.08,-123.48C1666.93,-113.49 1631.69,-96.85 1607.25,-85.31"/>
<polygon fill="midnightblue" stroke="midnightblue" points="1608.69,-82.11 1598.15,-81.01 1605.7,-88.44 1608.69,-82.11"/>
</g>
<!-- Node18 -->
<g id="node18" class="node">
<title>Node18</title>
<g id="a_node18"><a xlink:title=" ">
<polygon fill="none" stroke="#bfbfbf" points="1651.13,-56.5 1651.13,-86.5 1761.13,-86.5 1761.13,-56.5 1651.13,-56.5"/>
<text text-anchor="start" x="1659.13" y="-74.5" font-family="Helvetica,sans-Serif" font-size="10.00">llvm/ExecutionEngine</text>
<text text-anchor="middle" x="1706.13" y="-63.5" font-family="Helvetica,sans-Serif" font-size="10.00">/JITSymbol.h</text>
</a>
</g>
</g>
<!-- Node16&#45;&gt;Node18 -->
<g id="edge20" class="edge">
<title>Node16&#45;&gt;Node18</title>
<path fill="none" stroke="midnightblue" d="M1706.13,-123.48C1706.13,-116.47 1706.13,-106.19 1706.13,-96.7"/>
<polygon fill="midnightblue" stroke="midnightblue" points="1709.63,-96.52 1706.13,-86.52 1702.63,-96.52 1709.63,-96.52"/>
</g>
<!-- Node19 -->
<g id="node19" class="node">
<title>Node19</title>
<g id="a_node19"><a xlink:title=" ">
<polygon fill="none" stroke="#bfbfbf" points="1779.63,-56.5 1779.63,-86.5 1934.63,-86.5 1934.63,-56.5 1779.63,-56.5"/>
<text text-anchor="start" x="1787.63" y="-74.5" font-family="Helvetica,sans-Serif" font-size="10.00">llvm/ExecutionEngine</text>
<text text-anchor="middle" x="1857.13" y="-63.5" font-family="Helvetica,sans-Serif" font-size="10.00">/Orc/CompileOnDemandLayer.h</text>
</a>
</g>
</g>
<!-- Node16&#45;&gt;Node19 -->
<g id="edge21" class="edge">
<title>Node16&#45;&gt;Node19</title>
<path fill="none" stroke="midnightblue" d="M1724.65,-124.7C1746.23,-116.2 1782.66,-101.85 1811.86,-90.34"/>
<polygon fill="midnightblue" stroke="midnightblue" points="1813.43,-93.48 1821.45,-86.56 1810.87,-86.97 1813.43,-93.48"/>
</g>
<!-- Node20 -->
<g id="node20" class="node">
<title>Node20</title>
<g id="a_node20"><a xlink:title=" ">
<polygon fill="none" stroke="#bfbfbf" points="1953.13,-56.5 1953.13,-86.5 2063.13,-86.5 2063.13,-56.5 1953.13,-56.5"/>
<text text-anchor="start" x="1961.13" y="-74.5" font-family="Helvetica,sans-Serif" font-size="10.00">llvm/ExecutionEngine</text>
<text text-anchor="middle" x="2008.13" y="-63.5" font-family="Helvetica,sans-Serif" font-size="10.00">/Orc/CompileUtils.h</text>
</a>
</g>
</g>
<!-- Node16&#45;&gt;Node20 -->
<g id="edge22" class="edge">
<title>Node16&#45;&gt;Node20</title>
<path fill="none" stroke="midnightblue" d="M1724.91,-128.64C1763.6,-121.69 1855.18,-104.99 1942.98,-86.99"/>
<polygon fill="midnightblue" stroke="midnightblue" points="1943.75,-90.4 1952.84,-84.96 1942.34,-83.55 1943.75,-90.4"/>
</g>
<!-- Node21 -->
<g id="node21" class="node">
<title>Node21</title>
<g id="a_node21"><a xlink:title=" ">
<polygon fill="none" stroke="#bfbfbf" points="2081.13,-56.5 2081.13,-86.5 2191.13,-86.5 2191.13,-56.5 2081.13,-56.5"/>
<text text-anchor="start" x="2089.13" y="-74.5" font-family="Helvetica,sans-Serif" font-size="10.00">llvm/ExecutionEngine</text>
<text text-anchor="middle" x="2136.13" y="-63.5" font-family="Helvetica,sans-Serif" font-size="10.00">/Orc/Core.h</text>
</a>
</g>
</g>
<!-- Node16&#45;&gt;Node21 -->
<g id="edge23" class="edge">
<title>Node16&#45;&gt;Node21</title>
<path fill="none" stroke="midnightblue" d="M1724.89,-130.36C1777.75,-125.62 1932.51,-110.75 2071.09,-87.07"/>
<polygon fill="midnightblue" stroke="midnightblue" points="2071.79,-90.5 2081.04,-85.35 2070.59,-83.61 2071.79,-90.5"/>
</g>
<!-- Node22 -->
<g id="node22" class="node">
<title>Node22</title>
<g id="a_node22"><a xlink:title=" ">
<polygon fill="none" stroke="#bfbfbf" points="2209.63,-56.5 2209.63,-86.5 2340.63,-86.5 2340.63,-56.5 2209.63,-56.5"/>
<text text-anchor="start" x="2217.63" y="-74.5" font-family="Helvetica,sans-Serif" font-size="10.00">llvm/ExecutionEngine</text>
<text text-anchor="middle" x="2275.13" y="-63.5" font-family="Helvetica,sans-Serif" font-size="10.00">/Orc/EPCIndirectionUtils.h</text>
</a>
</g>
</g>
<!-- Node16&#45;&gt;Node22 -->
<g id="edge24" class="edge">
<title>Node16&#45;&gt;Node22</title>
<path fill="none" stroke="midnightblue" d="M1725.05,-130.96C1789.77,-127.26 2008.31,-113.6 2199.4,-87"/>
<polygon fill="midnightblue" stroke="midnightblue" points="2199.93,-90.46 2209.34,-85.61 2198.95,-83.53 2199.93,-90.46"/>
</g>
<!-- Node23 -->
<g id="node23" class="node">
<title>Node23</title>
<g id="a_node23"><a xlink:title=" ">
<polygon fill="none" stroke="#bfbfbf" points="2359.13,-56.5 2359.13,-86.5 2469.13,-86.5 2469.13,-56.5 2359.13,-56.5"/>
<text text-anchor="start" x="2367.13" y="-74.5" font-family="Helvetica,sans-Serif" font-size="10.00">llvm/ExecutionEngine</text>
<text text-anchor="middle" x="2414.13" y="-63.5" font-family="Helvetica,sans-Serif" font-size="10.00">/Orc/ExecutionUtils.h</text>
</a>
</g>
</g>
<!-- Node16&#45;&gt;Node23 -->
<g id="edge25" class="edge">
<title>Node16&#45;&gt;Node23</title>
<path fill="none" stroke="midnightblue" d="M1724.65,-131.72C1800.63,-130.34 2095.92,-122.93 2348.8,-86.87"/>
<polygon fill="midnightblue" stroke="midnightblue" points="2349.52,-90.3 2358.92,-85.41 2348.52,-83.37 2349.52,-90.3"/>
</g>
<!-- Node24 -->
<g id="node24" class="node">
<title>Node24</title>
<g id="a_node24"><a xlink:title=" ">
<polygon fill="none" stroke="#bfbfbf" points="2487.13,-56.5 2487.13,-86.5 2639.13,-86.5 2639.13,-56.5 2487.13,-56.5"/>
<text text-anchor="start" x="2495.13" y="-74.5" font-family="Helvetica,sans-Serif" font-size="10.00">llvm/ExecutionEngine</text>
<text text-anchor="middle" x="2563.13" y="-63.5" font-family="Helvetica,sans-Serif" font-size="10.00">/Orc/ExecutorProcessControl.h</text>
</a>
</g>
</g>
<!-- Node16&#45;&gt;Node24 -->
<g id="edge26" class="edge">
<title>Node16&#45;&gt;Node24</title>
<path fill="none" stroke="midnightblue" d="M1724.72,-131.68C1809.81,-130.03 2170.8,-121.35 2476.78,-87.07"/>
<polygon fill="midnightblue" stroke="midnightblue" points="2477.19,-90.55 2486.73,-85.94 2476.4,-83.59 2477.19,-90.55"/>
</g>
<!-- Node25 -->
<g id="node25" class="node">
<title>Node25</title>
<g id="a_node25"><a xlink:title=" ">
<polygon fill="none" stroke="#bfbfbf" points="2657.63,-56.5 2657.63,-86.5 2772.63,-86.5 2772.63,-56.5 2657.63,-56.5"/>
<text text-anchor="start" x="2665.63" y="-74.5" font-family="Helvetica,sans-Serif" font-size="10.00">llvm/ExecutionEngine</text>
<text text-anchor="middle" x="2715.13" y="-63.5" font-family="Helvetica,sans-Serif" font-size="10.00">/Orc/IRCompileLayer.h</text>
</a>
</g>
</g>
<!-- Node16&#45;&gt;Node25 -->
<g id="edge27" class="edge">
<title>Node16&#45;&gt;Node25</title>
<path fill="none" stroke="midnightblue" d="M1724.82,-132.25C1821.11,-133.32 2270.81,-135.41 2647.49,-86.91"/>
<polygon fill="midnightblue" stroke="midnightblue" points="2648.03,-90.37 2657.49,-85.61 2647.12,-83.43 2648.03,-90.37"/>
</g>
<!-- Node26 -->
<g id="node26" class="node">
<title>Node26</title>
<g id="a_node26"><a xlink:title=" ">
<polygon fill="none" stroke="#bfbfbf" points="2791.13,-56.5 2791.13,-86.5 2913.13,-86.5 2913.13,-56.5 2791.13,-56.5"/>
<text text-anchor="start" x="2799.13" y="-74.5" font-family="Helvetica,sans-Serif" font-size="10.00">llvm/ExecutionEngine</text>
<text text-anchor="middle" x="2852.13" y="-63.5" font-family="Helvetica,sans-Serif" font-size="10.00">/Orc/IRTransformLayer.h</text>
</a>
</g>
</g>
<!-- Node16&#45;&gt;Node26 -->
<g id="edge28" class="edge">
<title>Node16&#45;&gt;Node26</title>
<path fill="none" stroke="midnightblue" d="M1724.97,-131.62C1850.27,-129.06 2564.89,-113.44 2781.13,-87 2781.23,-86.99 2781.33,-86.98 2781.43,-86.96"/>
<polygon fill="midnightblue" stroke="midnightblue" points="2781.62,-90.47 2791.04,-85.62 2780.65,-83.54 2781.62,-90.47"/>
</g>
<!-- Node27 -->
<g id="node27" class="node">
<title>Node27</title>
<g id="a_node27"><a xlink:title=" ">
<polygon fill="none" stroke="#bfbfbf" points="2931.13,-56.5 2931.13,-86.5 3083.13,-86.5 3083.13,-56.5 2931.13,-56.5"/>
<text text-anchor="start" x="2939.13" y="-74.5" font-family="Helvetica,sans-Serif" font-size="10.00">llvm/ExecutionEngine</text>
<text text-anchor="middle" x="3007.13" y="-63.5" font-family="Helvetica,sans-Serif" font-size="10.00">/Orc/JITTargetMachineBuilder.h</text>
</a>
</g>
</g>
<!-- Node16&#45;&gt;Node27 -->
<g id="edge29" class="edge">
<title>Node16&#45;&gt;Node27</title>
<path fill="none" stroke="midnightblue" d="M1724.77,-132.23C1836.46,-133.43 2428.54,-137.11 2920.59,-87.06"/>
<polygon fill="midnightblue" stroke="midnightblue" points="2921.15,-90.52 2930.74,-86.02 2920.43,-83.56 2921.15,-90.52"/>
</g>
<!-- Node28 -->
<g id="node28" class="node">
<title>Node28</title>
<g id="a_node28"><a xlink:title=" ">
<polygon fill="none" stroke="#bfbfbf" points="341.63,-56.5 341.63,-86.5 502.63,-86.5 502.63,-56.5 341.63,-56.5"/>
<text text-anchor="start" x="349.63" y="-74.5" font-family="Helvetica,sans-Serif" font-size="10.00">llvm/ExecutionEngine</text>
<text text-anchor="middle" x="422.13" y="-63.5" font-family="Helvetica,sans-Serif" font-size="10.00">/Orc/RTDyldObjectLinkingLayer.h</text>
</a>
</g>
</g>
<!-- Node16&#45;&gt;Node28 -->
<g id="edge30" class="edge">
<title>Node16&#45;&gt;Node28</title>
<path fill="none" stroke="midnightblue" d="M1687.48,-132.15C1576.94,-132.86 996.48,-134.15 512.99,-86.99"/>
<polygon fill="midnightblue" stroke="midnightblue" points="513.32,-83.51 503.02,-86.01 512.63,-90.47 513.32,-83.51"/>
</g>
<!-- Node29 -->
<g id="node29" class="node">
<title>Node29</title>
<g id="a_node29"><a xlink:title=" ">
<polygon fill="none" stroke="#bfbfbf" points="521.13,-56.5 521.13,-86.5 655.13,-86.5 655.13,-56.5 521.13,-56.5"/>
<text text-anchor="start" x="529.13" y="-74.5" font-family="Helvetica,sans-Serif" font-size="10.00">llvm/ExecutionEngine</text>
<text text-anchor="middle" x="588.13" y="-63.5" font-family="Helvetica,sans-Serif" font-size="10.00">/SectionMemoryManager.h</text>
</a>
</g>
</g>
<!-- Node16&#45;&gt;Node29 -->
<g id="edge31" class="edge">
<title>Node16&#45;&gt;Node29</title>
<path fill="none" stroke="midnightblue" d="M1687.55,-132.2C1585.63,-133.11 1084.18,-134.9 665.37,-87.02"/>
<polygon fill="midnightblue" stroke="midnightblue" points="665.52,-83.51 655.19,-85.84 664.72,-90.47 665.52,-83.51"/>
</g>
<!-- Node30 -->
<g id="node30" class="node">
<title>Node30</title>
<g id="a_node30"><a xlink:title=" ">
<polygon fill="none" stroke="#bfbfbf" points="673.13,-62 673.13,-81 779.13,-81 779.13,-62 673.13,-62"/>
<text text-anchor="middle" x="726.13" y="-69" font-family="Helvetica,sans-Serif" font-size="10.00">llvm/IR/DataLayout.h</text>
</a>
</g>
</g>
<!-- Node16&#45;&gt;Node30 -->
<g id="edge32" class="edge">
<title>Node16&#45;&gt;Node30</title>
<path fill="none" stroke="midnightblue" d="M1687.54,-131.55C1573.84,-128.71 971.04,-112.66 788.13,-87 781.44,-86.06 774.4,-84.74 767.58,-83.28"/>
<polygon fill="midnightblue" stroke="midnightblue" points="768.31,-79.86 757.78,-81.06 766.76,-86.69 768.31,-79.86"/>
</g>
<!-- Node31 -->
<g id="node31" class="node">
<title>Node31</title>
<g id="a_node31"><a xlink:title=" ">
<polygon fill="none" stroke="#bfbfbf" points="797.63,-56.5 797.63,-86.5 938.63,-86.5 938.63,-56.5 797.63,-56.5"/>
<text text-anchor="start" x="805.63" y="-74.5" font-family="Helvetica,sans-Serif" font-size="10.00">llvm/Transforms/InstCombine</text>
<text text-anchor="middle" x="868.13" y="-63.5" font-family="Helvetica,sans-Serif" font-size="10.00">/InstCombine.h</text>
</a>
</g>
</g>
<!-- Node16&#45;&gt;Node31 -->
<g id="edge35" class="edge">
<title>Node16&#45;&gt;Node31</title>
<path fill="none" stroke="midnightblue" d="M1687.56,-131.74C1603.39,-130.36 1249.09,-122.72 948.91,-87.12"/>
<polygon fill="midnightblue" stroke="midnightblue" points="949.05,-83.61 938.7,-85.89 948.21,-90.56 949.05,-83.61"/>
</g>
<!-- Node32 -->
<g id="node32" class="node">
<title>Node32</title>
<g id="a_node32"><a xlink:title=" ">
<polygon fill="none" stroke="#bfbfbf" points="956.63,-62 956.63,-81 1079.63,-81 1079.63,-62 956.63,-62"/>
<text text-anchor="middle" x="1018.13" y="-69" font-family="Helvetica,sans-Serif" font-size="10.00">llvm/Transforms/Scalar.h</text>
</a>
</g>
</g>
<!-- Node16&#45;&gt;Node32 -->
<g id="edge36" class="edge">
<title>Node16&#45;&gt;Node32</title>
<path fill="none" stroke="midnightblue" d="M1687.58,-131.54C1612.43,-129.49 1323.33,-119.78 1088.13,-87 1080.52,-85.94 1072.5,-84.55 1064.72,-83.04"/>
<polygon fill="midnightblue" stroke="midnightblue" points="1065.16,-79.56 1054.66,-81.01 1063.78,-86.42 1065.16,-79.56"/>
</g>
<!-- Node33 -->
<g id="node33" class="node">
<title>Node33</title>
<g id="a_node33"><a xlink:title=" ">
<polygon fill="none" stroke="#bfbfbf" points="1097.63,-56.5 1097.63,-86.5 1212.63,-86.5 1212.63,-56.5 1097.63,-56.5"/>
<text text-anchor="start" x="1105.63" y="-74.5" font-family="Helvetica,sans-Serif" font-size="10.00">llvm/Transforms/Scalar</text>
<text text-anchor="middle" x="1155.13" y="-63.5" font-family="Helvetica,sans-Serif" font-size="10.00">/GVN.h</text>
</a>
</g>
</g>
<!-- Node16&#45;&gt;Node33 -->
<g id="edge37" class="edge">
<title>Node16&#45;&gt;Node33</title>
<path fill="none" stroke="midnightblue" d="M1687.57,-131.08C1624.13,-127.77 1410,-115.22 1222.81,-86.97"/>
<polygon fill="midnightblue" stroke="midnightblue" points="1223.21,-83.49 1212.79,-85.44 1222.15,-90.41 1223.21,-83.49"/>
</g>
<!-- Node34 -->
<g id="node34" class="node">
<title>Node34</title>
<g id="a_node34"><a xlink:title=" ">
<polygon fill="none" stroke="#bfbfbf" points="1231.13,-62 1231.13,-81 1287.13,-81 1287.13,-62 1231.13,-62"/>
<text text-anchor="middle" x="1259.13" y="-69" font-family="Helvetica,sans-Serif" font-size="10.00">algorithm</text>
</a>
</g>
</g>
<!-- Node16&#45;&gt;Node34 -->
<g id="edge38" class="edge">
<title>Node16&#45;&gt;Node34</title>
<path fill="none" stroke="midnightblue" d="M1687.44,-131.69C1628.85,-130.37 1443.88,-123.38 1296.13,-87 1293.3,-86.3 1290.4,-85.44 1287.53,-84.49"/>
<polygon fill="midnightblue" stroke="midnightblue" points="1288.61,-81.16 1278.02,-81.01 1286.21,-87.73 1288.61,-81.16"/>
</g>
<!-- Node35 -->
<g id="node35" class="node">
<title>Node35</title>
<g id="a_node35"><a xlink:title=" ">
<polygon fill="none" stroke="#bfbfbf" points="1305.13,-62 1305.13,-81 1369.13,-81 1369.13,-62 1305.13,-62"/>
<text text-anchor="middle" x="1337.13" y="-69" font-family="Helvetica,sans-Serif" font-size="10.00">string_view</text>
</a>
</g>
</g>
<!-- Node16&#45;&gt;Node35 -->
<g id="edge39" class="edge">
<title>Node16&#45;&gt;Node35</title>
<path fill="none" stroke="midnightblue" d="M1687.39,-130.77C1636.85,-127.17 1493.75,-115.07 1378.13,-87 1374.9,-86.22 1371.57,-85.27 1368.27,-84.25"/>
<polygon fill="midnightblue" stroke="midnightblue" points="1369.18,-80.86 1358.58,-81.01 1366.96,-87.5 1369.18,-80.86"/>
</g>
<!-- Node36 -->
<g id="node36" class="node">
<title>Node36</title>
<g id="a_node36"><a xlink:title=" ">
<polygon fill="none" stroke="#bfbfbf" points="1387.63,-62 1387.63,-81 1436.63,-81 1436.63,-62 1387.63,-62"/>
<text text-anchor="middle" x="1412.13" y="-69" font-family="Helvetica,sans-Serif" font-size="10.00">fstream</text>
</a>
</g>
</g>
<!-- Node16&#45;&gt;Node36 -->
<g id="edge44" class="edge">
<title>Node16&#45;&gt;Node36</title>
<path fill="none" stroke="midnightblue" d="M1687.51,-130.27C1644.36,-125.95 1534.44,-113.09 1446.13,-87 1443.98,-86.36 1441.78,-85.63 1439.59,-84.84"/>
<polygon fill="midnightblue" stroke="midnightblue" points="1440.78,-81.55 1430.2,-81.12 1438.2,-88.06 1440.78,-81.55"/>
</g>
<!-- Node37 -->
<g id="node37" class="node">
<title>Node37</title>
<g id="a_node37"><a xlink:title=" ">
<polygon fill="none" stroke="#bfbfbf" points="1455.13,-62 1455.13,-81 1509.13,-81 1509.13,-62 1455.13,-62"/>
<text text-anchor="middle" x="1482.13" y="-69" font-family="Helvetica,sans-Serif" font-size="10.00">iostream</text>
</a>
</g>
</g>
<!-- Node16&#45;&gt;Node37 -->
<g id="edge46" class="edge">
<title>Node16&#45;&gt;Node37</title>
<path fill="none" stroke="midnightblue" d="M1687.47,-128.49C1653.4,-121.87 1579.04,-106.44 1518.13,-87 1515.86,-86.27 1513.52,-85.47 1511.19,-84.63"/>
<polygon fill="midnightblue" stroke="midnightblue" points="1512.33,-81.32 1501.74,-81.01 1509.83,-87.86 1512.33,-81.32"/>
</g>
<!-- Node38&#45;&gt;Node3 -->
<g id="edge51" class="edge">
<title>Node38&#45;&gt;Node3</title>
<path fill="none" stroke="midnightblue" d="M3445.15,-123.38C3457,-115.38 3473.53,-102.4 3483.13,-87 3494.05,-69.48 3499.05,-46.13 3501.31,-29.95"/>
<polygon fill="midnightblue" stroke="midnightblue" points="3504.83,-29.97 3502.52,-19.63 3497.88,-29.16 3504.83,-29.97"/>
</g>
<!-- Node38&#45;&gt;Node4 -->
<g id="edge49" class="edge">
<title>Node38&#45;&gt;Node4</title>
<path fill="none" stroke="midnightblue" d="M3409.67,-123.36C3387.97,-114.53 3353.52,-100.27 3324.13,-87 3322.97,-86.48 3321.79,-85.94 3320.61,-85.39"/>
<polygon fill="midnightblue" stroke="midnightblue" points="3322.04,-82.2 3311.51,-81.09 3319.05,-88.53 3322.04,-82.2"/>
</g>
<!-- Node38&#45;&gt;Node5 -->
<g id="edge50" class="edge">
<title>Node38&#45;&gt;Node5</title>
<path fill="none" stroke="midnightblue" d="M3420.1,-123.48C3407.86,-114.02 3387.9,-98.6 3373.14,-87.19"/>
<polygon fill="midnightblue" stroke="midnightblue" points="3375.19,-84.35 3365.14,-81.01 3370.91,-89.89 3375.19,-84.35"/>
</g>
<!-- Node38&#45;&gt;Node7 -->
<g id="edge48" class="edge">
<title>Node38&#45;&gt;Node7</title>
<path fill="none" stroke="midnightblue" d="M3453.38,-125.1C3456.3,-124.32 3459.28,-123.6 3462.13,-123 3583.65,-97.62 3620.4,-123.27 3739.13,-87 3740.8,-86.49 3742.48,-85.89 3744.16,-85.24"/>
<polygon fill="midnightblue" stroke="midnightblue" points="3745.81,-88.33 3753.47,-81.02 3742.92,-81.96 3745.81,-88.33"/>
</g>
<!-- Node38&#45;&gt;Node12 -->
<g id="edge53" class="edge">
<title>Node38&#45;&gt;Node12</title>
<path fill="none" stroke="midnightblue" d="M3453.4,-125.22C3456.33,-124.42 3459.29,-123.66 3462.13,-123 3552.24,-102.07 3583.13,-125.74 3667.13,-87 3698.17,-72.68 3727.42,-45.25 3744.29,-27.56"/>
<polygon fill="midnightblue" stroke="midnightblue" points="3747.29,-29.46 3751.53,-19.75 3742.16,-24.7 3747.29,-29.46"/>
</g>
<!-- Node39 -->
<g id="node39" class="node">
<title>Node39</title>
<g id="a_node39"><a xlink:title=" ">
<polygon fill="none" stroke="#bfbfbf" points="3393.63,-62 3393.63,-81 3474.63,-81 3474.63,-62 3393.63,-62"/>
<text text-anchor="middle" x="3434.13" y="-69" font-family="Helvetica,sans-Serif" font-size="10.00">llvm/IR/Value.h</text>
</a>
</g>
</g>
<!-- Node38&#45;&gt;Node39 -->
<g id="edge52" class="edge">
<title>Node38&#45;&gt;Node39</title>
<path fill="none" stroke="midnightblue" d="M3431.56,-123.48C3431.98,-115.08 3432.64,-101.98 3433.19,-91.16"/>
<polygon fill="midnightblue" stroke="midnightblue" points="3436.69,-91.17 3433.7,-81.01 3429.7,-90.82 3436.69,-91.17"/>
</g>
<!-- Node40 -->
<g id="node40" class="node">
<title>Node40</title>
<g id="a_node40"><a xlink:href="_types_8h.html" target="_top" xlink:title=" ">
<polygon fill="none" stroke="black" points="3607.63,-62 3607.63,-81 3658.63,-81 3658.63,-62 3607.63,-62"/>
<text text-anchor="middle" x="3633.13" y="-69" font-family="Helvetica,sans-Serif" font-size="10.00">Types.h</text>
</a>
</g>
</g>
<!-- Node38&#45;&gt;Node40 -->
<g id="edge54" class="edge">
<title>Node38&#45;&gt;Node40</title>
<path fill="none" stroke="midnightblue" d="M3453.13,-125.52C3487.9,-115.28 3555.85,-95.26 3597.6,-82.97"/>
<polygon fill="midnightblue" stroke="midnightblue" points="3598.75,-86.28 3607.35,-80.09 3596.77,-79.56 3598.75,-86.28"/>
</g>
<!-- Node40&#45;&gt;Node2 -->
<g id="edge55" class="edge">
<title>Node40&#45;&gt;Node2</title>
<path fill="none" stroke="midnightblue" d="M3607.29,-64.55C3592.17,-61.36 3572.67,-57.74 3555.13,-56 3217.43,-22.51 639.18,-12.18 341.19,-11.1"/>
<polygon fill="midnightblue" stroke="midnightblue" points="340.84,-7.6 330.83,-11.06 340.82,-14.6 340.84,-7.6"/>
</g>
<!-- Node40&#45;&gt;Node3 -->
<g id="edge57" class="edge">
<title>Node40&#45;&gt;Node3</title>
<path fill="none" stroke="midnightblue" d="M3614.5,-61.98C3592.69,-51.99 3556.33,-35.35 3531.11,-23.81"/>
<polygon fill="midnightblue" stroke="midnightblue" points="3532.27,-20.49 3521.72,-19.51 3529.36,-26.85 3532.27,-20.49"/>
</g>
<!-- Node40&#45;&gt;Node12 -->
<g id="edge59" class="edge">
<title>Node40&#45;&gt;Node12</title>
<path fill="none" stroke="midnightblue" d="M3651.18,-61.98C3672.33,-51.99 3707.57,-35.35 3732.01,-23.81"/>
<polygon fill="midnightblue" stroke="midnightblue" points="3733.56,-26.94 3741.11,-19.51 3730.57,-20.61 3733.56,-26.94"/>
</g>
<!-- Node41 -->
<g id="node41" class="node">
<title>Node41</title>
<g id="a_node41"><a xlink:title=" ">
<polygon fill="none" stroke="#bfbfbf" points="3657.13,-0.5 3657.13,-19.5 3687.13,-19.5 3687.13,-0.5 3657.13,-0.5"/>
<text text-anchor="middle" x="3672.13" y="-7.5" font-family="Helvetica,sans-Serif" font-size="10.00">set</text>
</a>
</g>
</g>
<!-- Node40&#45;&gt;Node41 -->
<g id="edge56" class="edge">
<title>Node40&#45;&gt;Node41</title>
<path fill="none" stroke="midnightblue" d="M3638.72,-61.98C3644.51,-53.14 3653.72,-39.09 3661,-27.98"/>
<polygon fill="midnightblue" stroke="midnightblue" points="3664,-29.79 3666.55,-19.51 3658.14,-25.95 3664,-29.79"/>
</g>
<!-- Node42 -->
<g id="node42" class="node">
<title>Node42</title>
<g id="a_node42"><a xlink:title=" ">
<polygon fill="none" stroke="#bfbfbf" points="3561.63,-0.5 3561.63,-19.5 3638.63,-19.5 3638.63,-0.5 3561.63,-0.5"/>
<text text-anchor="middle" x="3600.13" y="-7.5" font-family="Helvetica,sans-Serif" font-size="10.00">llvm/IR/Type.h</text>
</a>
</g>
</g>
<!-- Node40&#45;&gt;Node42 -->
<g id="edge58" class="edge">
<title>Node40&#45;&gt;Node42</title>
<path fill="none" stroke="midnightblue" d="M3628.4,-61.98C3623.55,-53.23 3615.86,-39.37 3609.73,-28.31"/>
<polygon fill="midnightblue" stroke="midnightblue" points="3612.76,-26.56 3604.85,-19.51 3606.64,-29.95 3612.76,-26.56"/>
</g>
<!-- Node43&#45;&gt;Node2 -->
<g id="edge65" class="edge">
<title>Node43&#45;&gt;Node2</title>
<path fill="none" stroke="midnightblue" d="M3499.5,-123.23C3501.48,-107.02 3502.96,-72.54 3483.13,-56 3419.29,-2.76 651.65,-9.93 341.34,-10.91"/>
<polygon fill="midnightblue" stroke="midnightblue" points="340.96,-7.41 330.97,-10.94 340.98,-14.41 340.96,-7.41"/>
</g>
<!-- Node43&#45;&gt;Node3 -->
<g id="edge64" class="edge">
<title>Node43&#45;&gt;Node3</title>
<path fill="none" stroke="midnightblue" d="M3516.21,-123.39C3529.69,-115.87 3547.1,-103.57 3555.13,-87 3561.14,-74.6 3560.86,-68.53 3555.13,-56 3549.35,-43.36 3538.08,-32.91 3527.5,-25.27"/>
<polygon fill="midnightblue" stroke="midnightblue" points="3529.17,-22.18 3518.91,-19.53 3525.28,-28 3529.17,-22.18"/>
</g>
<!-- Node43&#45;&gt;Node4 -->
<g id="edge62" class="edge">
<title>Node43&#45;&gt;Node4</title>
<path fill="none" stroke="midnightblue" d="M3470.78,-125.08C3423.56,-113.1 3331.09,-89.55 3324.13,-87 3322.7,-86.48 3321.26,-85.91 3319.8,-85.31"/>
<polygon fill="midnightblue" stroke="midnightblue" points="3320.94,-81.98 3310.38,-81.07 3318.07,-88.37 3320.94,-81.98"/>
</g>
<!-- Node43&#45;&gt;Node5 -->
<g id="edge63" class="edge">
<title>Node43&#45;&gt;Node5</title>
<path fill="none" stroke="midnightblue" d="M3474.78,-123.36C3451.59,-114.65 3415.12,-100.58 3384.13,-87 3382.94,-86.48 3381.72,-85.93 3380.5,-85.38"/>
<polygon fill="midnightblue" stroke="midnightblue" points="3381.7,-82.08 3371.16,-81 3378.73,-88.42 3381.7,-82.08"/>
</g>
<!-- Node43&#45;&gt;Node7 -->
<g id="edge61" class="edge">
<title>Node43&#45;&gt;Node7</title>
<path fill="none" stroke="midnightblue" d="M3525.45,-125.85C3530.01,-124.87 3534.7,-123.88 3539.13,-123 3627.7,-105.31 3653.42,-115.49 3739.13,-87 3740.78,-86.45 3742.46,-85.82 3744.13,-85.14"/>
<polygon fill="midnightblue" stroke="midnightblue" points="3745.8,-88.23 3753.43,-80.87 3742.88,-81.87 3745.8,-88.23"/>
</g>
<!-- Node43&#45;&gt;Node40 -->
<g id="edge67" class="edge">
<title>Node43&#45;&gt;Node40</title>
<path fill="none" stroke="midnightblue" d="M3517.47,-123.48C3540.23,-113.45 3578.22,-96.7 3604.42,-85.15"/>
<polygon fill="midnightblue" stroke="midnightblue" points="3606.08,-88.24 3613.82,-81.01 3603.26,-81.84 3606.08,-88.24"/>
</g>
<!-- Node43&#45;&gt;Node41 -->
<g id="edge66" class="edge">
<title>Node43&#45;&gt;Node41</title>
<path fill="none" stroke="midnightblue" d="M3525.49,-125.59C3572.15,-114.54 3662.56,-92.56 3667.13,-87 3680.09,-71.23 3679.24,-46.84 3676.52,-29.97"/>
<polygon fill="midnightblue" stroke="midnightblue" points="3679.86,-28.81 3674.49,-19.68 3672.99,-30.17 3679.86,-28.81"/>
</g>
<!-- Node45 -->
<g id="node45" class="node">
<title>Node45</title>
<g id="a_node45"><a xlink:title=" ">
<polygon fill="none" stroke="#bfbfbf" points="3930.13,-62 3930.13,-81 4032.13,-81 4032.13,-62 3930.13,-62"/>
<text text-anchor="middle" x="3981.13" y="-69" font-family="Helvetica,sans-Serif" font-size="10.00">llvm/Support/Error.h</text>
</a>
</g>
</g>
<!-- Node44&#45;&gt;Node45 -->
<g id="edge69" class="edge">
<title>Node44&#45;&gt;Node45</title>
<path fill="none" stroke="midnightblue" d="M4026.54,-123.48C4018.43,-114.37 4005.4,-99.74 3995.37,-88.48"/>
<polygon fill="midnightblue" stroke="midnightblue" points="3997.97,-86.15 3988.71,-81.01 3992.75,-90.8 3997.97,-86.15"/>
</g>
<!-- Node46 -->
<g id="node46" class="node">
<title>Node46</title>
<g id="a_node46"><a xlink:title=" ">
<polygon fill="none" stroke="#bfbfbf" points="4050.13,-62 4050.13,-81 4124.13,-81 4124.13,-62 4050.13,-62"/>
<text text-anchor="middle" x="4087.13" y="-69" font-family="Helvetica,sans-Serif" font-size="10.00">system_error</text>
</a>
</g>
</g>
<!-- Node44&#45;&gt;Node46 -->
<g id="edge70" class="edge">
<title>Node44&#45;&gt;Node46</title>
<path fill="none" stroke="midnightblue" d="M4041.72,-123.48C4049.83,-114.37 4062.86,-99.74 4072.89,-88.48"/>
<polygon fill="midnightblue" stroke="midnightblue" points="4075.51,-90.8 4079.55,-81.01 4070.29,-86.15 4075.51,-90.8"/>
</g>
<!-- Node47&#45;&gt;Node15 -->
<g id="edge73" class="edge">
<title>Node47&#45;&gt;Node15</title>
<path fill="none" stroke="midnightblue" d="M4099.55,-179.08C4106.98,-171.22 4117.98,-159.57 4126.94,-150.08"/>
<polygon fill="midnightblue" stroke="midnightblue" points="4129.54,-152.42 4133.87,-142.75 4124.45,-147.62 4129.54,-152.42"/>
</g>
</g>
</svg>
