<?xml version="1.0" encoding="UTF-8" standalone="no"?>
<!DOCTYPE svg PUBLIC "-//W3C//DTD SVG 1.1//EN"
 "http://www.w3.org/Graphics/SVG/1.1/DTD/svg11.dtd">
<!-- Generated by graphviz version 3.0.0 (20220226.1711)
 -->
<!-- Title: src/include/CodeGen.h Pages: 1 -->
<svg width="4045pt" height="274pt"
 viewBox="0.00 0.00 4045.44 274.00" xmlns="http://www.w3.org/2000/svg" xmlns:xlink="http://www.w3.org/1999/xlink">
<g id="graph0" class="graph" transform="scale(1 1) rotate(0) translate(4 270)">
<title>src/include/CodeGen.h</title>
<!-- Node1 -->
<g id="node1" class="node">
<title>Node1</title>
<g id="a_node1"><a xlink:title=" ">
<polygon fill="#bfbfbf" stroke="black" points="648.19,-246.5 648.19,-265.5 764.19,-265.5 764.19,-246.5 648.19,-246.5"/>
<text text-anchor="middle" x="706.19" y="-253.5" font-family="Helvetica,sans-Serif" font-size="10.00">src/include/CodeGen.h</text>
</a>
</g>
</g>
<!-- Node2 -->
<g id="node2" class="node">
<title>Node2</title>
<g id="a_node2"><a xlink:title=" ">
<polygon fill="none" stroke="#bfbfbf" points="1547.69,-0.5 1547.69,-19.5 1582.69,-19.5 1582.69,-0.5 1547.69,-0.5"/>
<text text-anchor="middle" x="1565.19" y="-7.5" font-family="Helvetica,sans-Serif" font-size="10.00">map</text>
</a>
</g>
</g>
<!-- Node1&#45;&gt;Node2 -->
<g id="edge1" class="edge">
<title>Node1&#45;&gt;Node2</title>
<path fill="none" stroke="midnightblue" d="M764.46,-254.85C1182.8,-253.71 3716.66,-245.35 3874.19,-210 3961.02,-190.52 4010.97,-173.43 4032.19,-87 4035.47,-73.62 4041.84,-65.83 4032.19,-56 3987.21,-10.19 1861.83,-10.72 1593.03,-10.97"/>
<polygon fill="midnightblue" stroke="midnightblue" points="1592.93,-7.47 1582.94,-10.98 1592.94,-14.47 1592.93,-7.47"/>
</g>
<!-- Node3 -->
<g id="node3" class="node">
<title>Node3</title>
<g id="a_node3"><a xlink:title=" ">
<polygon fill="none" stroke="#bfbfbf" points="368.19,-0.5 368.19,-19.5 420.19,-19.5 420.19,-0.5 368.19,-0.5"/>
<text text-anchor="middle" x="394.19" y="-7.5" font-family="Helvetica,sans-Serif" font-size="10.00">memory</text>
</a>
</g>
</g>
<!-- Node1&#45;&gt;Node3 -->
<g id="edge2" class="edge">
<title>Node1&#45;&gt;Node3</title>
<path fill="none" stroke="midnightblue" d="M647.97,-251.28C491.96,-239.84 71.91,-198.96 6.19,-87 -0.79,-75.12 -2.98,-66.29 6.19,-56 29.37,-29.97 265.6,-16.72 357.7,-12.52"/>
<polygon fill="midnightblue" stroke="midnightblue" points="358.11,-16 367.94,-12.06 357.8,-9.01 358.11,-16"/>
</g>
<!-- Node4 -->
<g id="node4" class="node">
<title>Node4</title>
<g id="a_node4"><a xlink:title=" ">
<polygon fill="none" stroke="#bfbfbf" points="489.69,-62 489.69,-81 530.69,-81 530.69,-62 489.69,-62"/>
<text text-anchor="middle" x="510.19" y="-69" font-family="Helvetica,sans-Serif" font-size="10.00">string</text>
</a>
</g>
</g>
<!-- Node1&#45;&gt;Node4 -->
<g id="edge3" class="edge">
<title>Node1&#45;&gt;Node4</title>
<path fill="none" stroke="midnightblue" d="M697,-246.44C666.27,-217.83 566.8,-125.21 526.94,-88.09"/>
<polygon fill="midnightblue" stroke="midnightblue" points="529.29,-85.5 519.59,-81.25 524.52,-90.63 529.29,-85.5"/>
</g>
<!-- Node5 -->
<g id="node5" class="node">
<title>Node5</title>
<g id="a_node5"><a xlink:title=" ">
<polygon fill="none" stroke="#bfbfbf" points="771.19,-62 771.19,-81 813.19,-81 813.19,-62 771.19,-62"/>
<text text-anchor="middle" x="792.19" y="-69" font-family="Helvetica,sans-Serif" font-size="10.00">vector</text>
</a>
</g>
</g>
<!-- Node1&#45;&gt;Node5 -->
<g id="edge4" class="edge">
<title>Node1&#45;&gt;Node5</title>
<path fill="none" stroke="midnightblue" d="M705.27,-246.24C703.38,-223.92 701.03,-163.86 725.19,-123 734.49,-107.26 750.78,-94.82 764.96,-86.22"/>
<polygon fill="midnightblue" stroke="midnightblue" points="766.93,-89.13 773.89,-81.13 763.47,-83.04 766.93,-89.13"/>
</g>
<!-- Node6 -->
<g id="node6" class="node">
<title>Node6</title>
<g id="a_node6"><a xlink:title=" ">
<polygon fill="none" stroke="#bfbfbf" points="3967.69,-62 3967.69,-81 4022.69,-81 4022.69,-62 3967.69,-62"/>
<text text-anchor="middle" x="3995.19" y="-69" font-family="Helvetica,sans-Serif" font-size="10.00">charconv</text>
</a>
</g>
</g>
<!-- Node1&#45;&gt;Node6 -->
<g id="edge5" class="edge">
<title>Node1&#45;&gt;Node6</title>
<path fill="none" stroke="midnightblue" d="M764.46,-255.14C1163.36,-256.01 3484.53,-258.87 3794.19,-210 3877.79,-196.81 3918.46,-215.89 3976.19,-154 3991.95,-137.11 3995.46,-109.76 3995.86,-91.46"/>
<polygon fill="midnightblue" stroke="midnightblue" points="3999.36,-91.38 3995.79,-81.41 3992.36,-91.43 3999.36,-91.38"/>
</g>
<!-- Node7 -->
<g id="node7" class="node">
<title>Node7</title>
<g id="a_node7"><a xlink:title=" ">
<polygon fill="none" stroke="#bfbfbf" points="227.69,-62 227.69,-81 256.69,-81 256.69,-62 227.69,-62"/>
<text text-anchor="middle" x="242.19" y="-69" font-family="Helvetica,sans-Serif" font-size="10.00">list</text>
</a>
</g>
</g>
<!-- Node1&#45;&gt;Node7 -->
<g id="edge6" class="edge">
<title>Node1&#45;&gt;Node7</title>
<path fill="none" stroke="midnightblue" d="M648.02,-250.5C570.2,-242.13 430.51,-218.63 331.19,-154 302.21,-135.14 273.62,-106.74 256.95,-88.93"/>
<polygon fill="midnightblue" stroke="midnightblue" points="259.12,-86.11 249.77,-81.12 253.96,-90.85 259.12,-86.11"/>
</g>
<!-- Node8 -->
<g id="node8" class="node">
<title>Node8</title>
<g id="a_node8"><a xlink:href="_context_8h.html" target="_top" xlink:title=" ">
<polygon fill="none" stroke="black" points="848.69,-190.5 848.69,-209.5 907.69,-209.5 907.69,-190.5 848.69,-190.5"/>
<text text-anchor="middle" x="878.19" y="-197.5" font-family="Helvetica,sans-Serif" font-size="10.00">Context.h</text>
</a>
</g>
</g>
<!-- Node1&#45;&gt;Node8 -->
<g id="edge7" class="edge">
<title>Node1&#45;&gt;Node8</title>
<path fill="none" stroke="midnightblue" d="M733.44,-246.44C762.63,-237.28 809.11,-222.69 841.5,-212.52"/>
<polygon fill="midnightblue" stroke="midnightblue" points="842.57,-215.85 851.06,-209.52 840.47,-209.17 842.57,-215.85"/>
</g>
<!-- Node38 -->
<g id="node38" class="node">
<title>Node38</title>
<g id="a_node38"><a xlink:href="_a_s_t_8h.html" target="_top" xlink:title=" ">
<polygon fill="none" stroke="black" points="422.19,-129 422.19,-148 466.19,-148 466.19,-129 422.19,-129"/>
<text text-anchor="middle" x="444.19" y="-136" font-family="Helvetica,sans-Serif" font-size="10.00">AST.h</text>
</a>
</g>
</g>
<!-- Node1&#45;&gt;Node38 -->
<g id="edge71" class="edge">
<title>Node1&#45;&gt;Node38</title>
<path fill="none" stroke="midnightblue" d="M648.14,-249.22C590.19,-242.46 506.11,-229.61 480.19,-210 463.27,-197.2 453.66,-174.2 448.7,-157.96"/>
<polygon fill="midnightblue" stroke="midnightblue" points="452,-156.72 445.98,-148 445.24,-158.57 452,-156.72"/>
</g>
<!-- Node47 -->
<g id="node47" class="node">
<title>Node47</title>
<g id="a_node47"><a xlink:href="_options_8h.html" target="_top" xlink:title=" ">
<polygon fill="none" stroke="black" points="3725.69,-190.5 3725.69,-209.5 3784.69,-209.5 3784.69,-190.5 3725.69,-190.5"/>
<text text-anchor="middle" x="3755.19" y="-197.5" font-family="Helvetica,sans-Serif" font-size="10.00">Options.h</text>
</a>
</g>
</g>
<!-- Node1&#45;&gt;Node47 -->
<g id="edge72" class="edge">
<title>Node1&#45;&gt;Node47</title>
<path fill="none" stroke="midnightblue" d="M764.37,-253.97C1154.71,-247.06 3386.72,-207.53 3714.9,-201.71"/>
<polygon fill="midnightblue" stroke="midnightblue" points="3715.4,-205.21 3725.34,-201.53 3715.28,-198.21 3715.4,-205.21"/>
</g>
<!-- Node8&#45;&gt;Node2 -->
<g id="edge10" class="edge">
<title>Node8&#45;&gt;Node2</title>
<path fill="none" stroke="midnightblue" d="M907.73,-198.48C1217.78,-193 3865.14,-144.5 3920.19,-87 3929.72,-77.05 3929.84,-65.83 3920.19,-56 3877.33,-12.32 1854.54,-10.98 1592.95,-10.99"/>
<polygon fill="midnightblue" stroke="midnightblue" points="1592.78,-7.49 1582.78,-10.99 1592.78,-14.49 1592.78,-7.49"/>
</g>
<!-- Node8&#45;&gt;Node5 -->
<g id="edge8" class="edge">
<title>Node8&#45;&gt;Node5</title>
<path fill="none" stroke="midnightblue" d="M877.87,-190.27C876.94,-175.31 873.31,-144.32 859.19,-123 848.96,-107.56 832.37,-95 818.25,-86.27"/>
<polygon fill="midnightblue" stroke="midnightblue" points="819.82,-83.13 809.43,-81.09 816.28,-89.17 819.82,-83.13"/>
</g>
<!-- Node8&#45;&gt;Node7 -->
<g id="edge9" class="edge">
<title>Node8&#45;&gt;Node7</title>
<path fill="none" stroke="midnightblue" d="M848.44,-199.66C773.73,-200.55 572.82,-198.29 413.19,-154 357.19,-138.46 297.02,-105.54 265.12,-86.64"/>
<polygon fill="midnightblue" stroke="midnightblue" points="266.54,-83.41 256.16,-81.26 262.93,-89.41 266.54,-83.41"/>
</g>
<!-- Node9 -->
<g id="node9" class="node">
<title>Node9</title>
<g id="a_node9"><a xlink:title=" ">
<polygon fill="none" stroke="#bfbfbf" points="3795.19,-62 3795.19,-81 3911.19,-81 3911.19,-62 3795.19,-62"/>
<text text-anchor="middle" x="3853.19" y="-69" font-family="Helvetica,sans-Serif" font-size="10.00">llvm/IR/LLVMContext.h</text>
</a>
</g>
</g>
<!-- Node8&#45;&gt;Node9 -->
<g id="edge11" class="edge">
<title>Node8&#45;&gt;Node9</title>
<path fill="none" stroke="midnightblue" d="M907.94,-199.04C1086.27,-199.12 2009.58,-197.44 2127.19,-154 2147.96,-146.33 2145.37,-130.53 2166.19,-123 2335.51,-61.79 3607.39,-108.14 3786.19,-87 3793.83,-86.1 3801.89,-84.72 3809.66,-83.18"/>
<polygon fill="midnightblue" stroke="midnightblue" points="3810.6,-86.56 3819.66,-81.07 3809.15,-79.71 3810.6,-86.56"/>
</g>
<!-- Node10 -->
<g id="node10" class="node">
<title>Node10</title>
<g id="a_node10"><a xlink:title=" ">
<polygon fill="none" stroke="#bfbfbf" points="2174.69,-129 2174.69,-148 2269.69,-148 2269.69,-129 2174.69,-129"/>
<text text-anchor="middle" x="2222.19" y="-136" font-family="Helvetica,sans-Serif" font-size="10.00">llvm/IR/IRBuilder.h</text>
</a>
</g>
</g>
<!-- Node8&#45;&gt;Node10 -->
<g id="edge12" class="edge">
<title>Node8&#45;&gt;Node10</title>
<path fill="none" stroke="midnightblue" d="M907.86,-198.74C1075.61,-197.17 1906.59,-187.78 2160.19,-154 2166.96,-153.1 2174.08,-151.79 2180.98,-150.31"/>
<polygon fill="midnightblue" stroke="midnightblue" points="2181.89,-153.7 2190.87,-148.07 2180.34,-146.87 2181.89,-153.7"/>
</g>
<!-- Node11 -->
<g id="node11" class="node">
<title>Node11</title>
<g id="a_node11"><a xlink:title=" ">
<polygon fill="none" stroke="#bfbfbf" points="2288.19,-129 2288.19,-148 2376.19,-148 2376.19,-129 2288.19,-129"/>
<text text-anchor="middle" x="2332.19" y="-136" font-family="Helvetica,sans-Serif" font-size="10.00">llvm/IR/Module.h</text>
</a>
</g>
</g>
<!-- Node8&#45;&gt;Node11 -->
<g id="edge13" class="edge">
<title>Node8&#45;&gt;Node11</title>
<path fill="none" stroke="midnightblue" d="M907.71,-198.99C1084.18,-198.82 2001.25,-195.89 2279.19,-154 2284.67,-153.17 2290.4,-151.98 2295.97,-150.62"/>
<polygon fill="midnightblue" stroke="midnightblue" points="2296.98,-153.97 2305.76,-148.04 2295.2,-147.2 2296.98,-153.97"/>
</g>
<!-- Node12 -->
<g id="node12" class="node">
<title>Node12</title>
<g id="a_node12"><a xlink:title=" ">
<polygon fill="none" stroke="#bfbfbf" points="438.69,-0.5 438.69,-19.5 545.69,-19.5 545.69,-0.5 438.69,-0.5"/>
<text text-anchor="middle" x="492.19" y="-7.5" font-family="Helvetica,sans-Serif" font-size="10.00">llvm/IR/Instructions.h</text>
</a>
</g>
</g>
<!-- Node8&#45;&gt;Node12 -->
<g id="edge14" class="edge">
<title>Node8&#45;&gt;Node12</title>
<path fill="none" stroke="midnightblue" d="M848.32,-196.76C798.8,-192.42 697.07,-180.82 615.19,-154 551.91,-133.27 516.19,-143.64 481.19,-87 470.38,-69.51 476.59,-45.51 483.23,-29.19"/>
<polygon fill="midnightblue" stroke="midnightblue" points="486.58,-30.28 487.48,-19.73 480.19,-27.41 486.58,-30.28"/>
</g>
<!-- Node13 -->
<g id="node13" class="node">
<title>Node13</title>
<g id="a_node13"><a xlink:title=" ">
<polygon fill="none" stroke="#bfbfbf" points="734.19,-129 734.19,-148 850.19,-148 850.19,-129 734.19,-129"/>
<text text-anchor="middle" x="792.19" y="-136" font-family="Helvetica,sans-Serif" font-size="10.00">llvm/IR/PassManager.h</text>
</a>
</g>
</g>
<!-- Node8&#45;&gt;Node13 -->
<g id="edge15" class="edge">
<title>Node8&#45;&gt;Node13</title>
<path fill="none" stroke="midnightblue" d="M865.87,-190.48C852.07,-180.93 829.49,-165.31 812.96,-153.87"/>
<polygon fill="midnightblue" stroke="midnightblue" points="814.7,-150.82 804.49,-148.01 810.72,-156.58 814.7,-150.82"/>
</g>
<!-- Node14 -->
<g id="node14" class="node">
<title>Node14</title>
<g id="a_node14"><a xlink:title=" ">
<polygon fill="none" stroke="#bfbfbf" points="831.19,-62 831.19,-81 979.19,-81 979.19,-62 831.19,-62"/>
<text text-anchor="middle" x="905.19" y="-69" font-family="Helvetica,sans-Serif" font-size="10.00">llvm/IR/LegacyPassManager.h</text>
</a>
</g>
</g>
<!-- Node8&#45;&gt;Node14 -->
<g id="edge16" class="edge">
<title>Node8&#45;&gt;Node14</title>
<path fill="none" stroke="midnightblue" d="M881.24,-190.47C884.36,-181.5 889.17,-166.91 892.19,-154 897.18,-132.69 900.84,-107.79 902.98,-91.18"/>
<polygon fill="midnightblue" stroke="midnightblue" points="906.47,-91.5 904.22,-81.14 899.52,-90.64 906.47,-91.5"/>
</g>
<!-- Node15 -->
<g id="node15" class="node">
<title>Node15</title>
<g id="a_node15"><a xlink:title=" ">
<polygon fill="none" stroke="#bfbfbf" points="3688.69,-129 3688.69,-148 3821.69,-148 3821.69,-129 3688.69,-129"/>
<text text-anchor="middle" x="3755.19" y="-136" font-family="Helvetica,sans-Serif" font-size="10.00">llvm/Passes/PassBuilder.h</text>
</a>
</g>
</g>
<!-- Node8&#45;&gt;Node15 -->
<g id="edge17" class="edge">
<title>Node8&#45;&gt;Node15</title>
<path fill="none" stroke="midnightblue" d="M907.93,-198.81C1189.7,-197 3384.86,-182.04 3674.19,-154 3684.21,-153.03 3694.86,-151.49 3705.03,-149.78"/>
<polygon fill="midnightblue" stroke="midnightblue" points="3705.75,-153.2 3714.99,-148.01 3704.53,-146.31 3705.75,-153.2"/>
</g>
<!-- Node16 -->
<g id="node16" class="node">
<title>Node16</title>
<g id="a_node16"><a xlink:href="_j_i_t_8h.html" target="_top" xlink:title=" ">
<polygon fill="none" stroke="black" points="2080.69,-129 2080.69,-148 2117.69,-148 2117.69,-129 2080.69,-129"/>
<text text-anchor="middle" x="2099.19" y="-136" font-family="Helvetica,sans-Serif" font-size="10.00">JIT.h</text>
</a>
</g>
</g>
<!-- Node8&#45;&gt;Node16 -->
<g id="edge18" class="edge">
<title>Node8&#45;&gt;Node16</title>
<path fill="none" stroke="midnightblue" d="M907.77,-197.56C1075.27,-189.4 1903.26,-149.05 2069.93,-140.93"/>
<polygon fill="midnightblue" stroke="midnightblue" points="2070.53,-144.4 2080.35,-140.42 2070.19,-137.41 2070.53,-144.4"/>
</g>
<!-- Node8&#45;&gt;Node38 -->
<g id="edge47" class="edge">
<title>Node8&#45;&gt;Node38</title>
<path fill="none" stroke="midnightblue" d="M848.22,-195.96C786.35,-189.54 640.09,-173.54 518.19,-154 504.42,-151.79 489.3,-148.91 476.33,-146.3"/>
<polygon fill="midnightblue" stroke="midnightblue" points="476.96,-142.86 466.46,-144.28 475.56,-149.71 476.96,-142.86"/>
</g>
<!-- Node43 -->
<g id="node43" class="node">
<title>Node43</title>
<g id="a_node43"><a xlink:href="_layout_8h.html" target="_top" xlink:title=" ">
<polygon fill="none" stroke="black" points="624.19,-129 624.19,-148 678.19,-148 678.19,-129 624.19,-129"/>
<text text-anchor="middle" x="651.19" y="-136" font-family="Helvetica,sans-Serif" font-size="10.00">Layout.h</text>
</a>
</g>
</g>
<!-- Node8&#45;&gt;Node43 -->
<g id="edge60" class="edge">
<title>Node8&#45;&gt;Node43</title>
<path fill="none" stroke="midnightblue" d="M848.51,-191.22C807.37,-180.44 733.03,-160.95 688.28,-149.22"/>
<polygon fill="midnightblue" stroke="midnightblue" points="688.95,-145.78 678.39,-146.63 687.18,-152.55 688.95,-145.78"/>
</g>
<!-- Node44 -->
<g id="node44" class="node">
<title>Node44</title>
<g id="a_node44"><a xlink:href="_error_8h.html" target="_top" xlink:title=" ">
<polygon fill="none" stroke="black" points="135.19,-129 135.19,-148 181.19,-148 181.19,-129 135.19,-129"/>
<text text-anchor="middle" x="158.19" y="-136" font-family="Helvetica,sans-Serif" font-size="10.00">Error.h</text>
</a>
</g>
</g>
<!-- Node8&#45;&gt;Node44 -->
<g id="edge68" class="edge">
<title>Node8&#45;&gt;Node44</title>
<path fill="none" stroke="midnightblue" d="M848.62,-196.56C733.16,-187.01 313.06,-152.3 191.41,-142.25"/>
<polygon fill="midnightblue" stroke="midnightblue" points="191.48,-138.74 181.22,-141.4 190.9,-145.72 191.48,-138.74"/>
</g>
<!-- Node16&#45;&gt;Node2 -->
<g id="edge40" class="edge">
<title>Node16&#45;&gt;Node2</title>
<path fill="none" stroke="midnightblue" d="M2080.68,-136.92C1993.18,-134 1623.66,-119.78 1585.19,-87 1568.83,-73.06 1565.03,-47.51 1564.53,-29.91"/>
<polygon fill="midnightblue" stroke="midnightblue" points="1568.03,-29.71 1564.58,-19.69 1561.03,-29.67 1568.03,-29.71"/>
</g>
<!-- Node16&#45;&gt;Node3 -->
<g id="edge41" class="edge">
<title>Node16&#45;&gt;Node3</title>
<path fill="none" stroke="midnightblue" d="M2080.64,-137.52C1919.71,-137.62 762.21,-136.57 617.19,-87 594.9,-79.38 595.56,-65.92 574.19,-56 574.08,-55.95 482.81,-33.14 430.29,-20.02"/>
<polygon fill="midnightblue" stroke="midnightblue" points="430.89,-16.56 420.34,-17.53 429.2,-23.35 430.89,-16.56"/>
</g>
<!-- Node16&#45;&gt;Node4 -->
<g id="edge42" class="edge">
<title>Node16&#45;&gt;Node4</title>
<path fill="none" stroke="midnightblue" d="M2080.5,-137.3C1928.53,-135.58 893.2,-122.71 583.19,-87 569.11,-85.38 553.7,-82.48 540.67,-79.71"/>
<polygon fill="midnightblue" stroke="midnightblue" points="541.33,-76.27 530.81,-77.53 539.82,-83.1 541.33,-76.27"/>
</g>
<!-- Node16&#45;&gt;Node5 -->
<g id="edge43" class="edge">
<title>Node16&#45;&gt;Node5</title>
<path fill="none" stroke="midnightblue" d="M2080.3,-137.22C1931.44,-134.94 949.46,-118.8 822.19,-87 820.25,-86.52 818.29,-85.9 816.35,-85.19"/>
<polygon fill="midnightblue" stroke="midnightblue" points="817.56,-81.9 806.99,-81.14 814.78,-88.33 817.56,-81.9"/>
</g>
<!-- Node16&#45;&gt;Node6 -->
<g id="edge45" class="edge">
<title>Node16&#45;&gt;Node6</title>
<path fill="none" stroke="midnightblue" d="M2117.8,-132.46C2131.15,-129.1 2149.64,-124.94 2166.19,-123 2940.59,-32.12 3144.82,-169.3 3920.19,-87 3932.43,-85.7 3945.65,-83.44 3957.54,-81.08"/>
<polygon fill="midnightblue" stroke="midnightblue" points="3958.49,-84.46 3967.58,-79.01 3957.08,-77.6 3958.49,-84.46"/>
</g>
<!-- Node16&#45;&gt;Node9 -->
<g id="edge33" class="edge">
<title>Node16&#45;&gt;Node9</title>
<path fill="none" stroke="midnightblue" d="M2115.21,-128.96C2120.47,-126.56 2126.45,-124.27 2132.19,-123 2491.14,-43.53 3421.08,-130.08 3786.19,-87 3793.83,-86.1 3801.89,-84.73 3809.66,-83.18"/>
<polygon fill="midnightblue" stroke="midnightblue" points="3810.6,-86.56 3819.66,-81.07 3809.15,-79.71 3810.6,-86.56"/>
</g>
<!-- Node16&#45;&gt;Node14 -->
<g id="edge34" class="edge">
<title>Node16&#45;&gt;Node14</title>
<path fill="none" stroke="midnightblue" d="M2080.45,-137.54C1973.46,-137.59 1429.15,-135.34 988.19,-87 978.48,-85.94 968.18,-84.44 958.27,-82.81"/>
<polygon fill="midnightblue" stroke="midnightblue" points="958.57,-79.31 948.12,-81.07 957.39,-86.21 958.57,-79.31"/>
</g>
<!-- Node17 -->
<g id="node17" class="node">
<title>Node17</title>
<g id="a_node17"><a xlink:title=" ">
<polygon fill="none" stroke="#bfbfbf" points="3671.19,-62 3671.19,-81 3777.19,-81 3777.19,-62 3671.19,-62"/>
<text text-anchor="middle" x="3724.19" y="-69" font-family="Helvetica,sans-Serif" font-size="10.00">llvm/ADT/StringRef.h</text>
</a>
</g>
</g>
<!-- Node16&#45;&gt;Node17 -->
<g id="edge19" class="edge">
<title>Node16&#45;&gt;Node17</title>
<path fill="none" stroke="midnightblue" d="M2115.21,-128.96C2120.47,-126.57 2126.45,-124.28 2132.19,-123 2464.18,-49.19 3324.82,-129.95 3662.19,-87 3669.04,-86.13 3676.24,-84.82 3683.21,-83.33"/>
<polygon fill="midnightblue" stroke="midnightblue" points="3684.22,-86.7 3693.19,-81.07 3682.67,-79.87 3684.22,-86.7"/>
</g>
<!-- Node18 -->
<g id="node18" class="node">
<title>Node18</title>
<g id="a_node18"><a xlink:title=" ">
<polygon fill="none" stroke="#bfbfbf" points="997.19,-56.5 997.19,-86.5 1107.19,-86.5 1107.19,-56.5 997.19,-56.5"/>
<text text-anchor="start" x="1005.19" y="-74.5" font-family="Helvetica,sans-Serif" font-size="10.00">llvm/ExecutionEngine</text>
<text text-anchor="middle" x="1052.19" y="-63.5" font-family="Helvetica,sans-Serif" font-size="10.00">/JITSymbol.h</text>
</a>
</g>
</g>
<!-- Node16&#45;&gt;Node18 -->
<g id="edge20" class="edge">
<title>Node16&#45;&gt;Node18</title>
<path fill="none" stroke="midnightblue" d="M2080.68,-137.7C1982.38,-138.54 1511.42,-139.59 1117.56,-86.85"/>
<polygon fill="midnightblue" stroke="midnightblue" points="1117.77,-83.35 1107.39,-85.48 1116.83,-90.29 1117.77,-83.35"/>
</g>
<!-- Node19 -->
<g id="node19" class="node">
<title>Node19</title>
<g id="a_node19"><a xlink:title=" ">
<polygon fill="none" stroke="#bfbfbf" points="1125.69,-56.5 1125.69,-86.5 1280.69,-86.5 1280.69,-56.5 1125.69,-56.5"/>
<text text-anchor="start" x="1133.69" y="-74.5" font-family="Helvetica,sans-Serif" font-size="10.00">llvm/ExecutionEngine</text>
<text text-anchor="middle" x="1203.19" y="-63.5" font-family="Helvetica,sans-Serif" font-size="10.00">/Orc/CompileOnDemandLayer.h</text>
</a>
</g>
</g>
<!-- Node16&#45;&gt;Node19 -->
<g id="edge21" class="edge">
<title>Node16&#45;&gt;Node19</title>
<path fill="none" stroke="midnightblue" d="M2080.61,-137.05C1993.08,-134.76 1613.03,-123.22 1290.91,-87"/>
<polygon fill="midnightblue" stroke="midnightblue" points="1291.25,-83.51 1280.92,-85.86 1290.46,-90.47 1291.25,-83.51"/>
</g>
<!-- Node20 -->
<g id="node20" class="node">
<title>Node20</title>
<g id="a_node20"><a xlink:title=" ">
<polygon fill="none" stroke="#bfbfbf" points="1299.19,-56.5 1299.19,-86.5 1409.19,-86.5 1409.19,-56.5 1299.19,-56.5"/>
<text text-anchor="start" x="1307.19" y="-74.5" font-family="Helvetica,sans-Serif" font-size="10.00">llvm/ExecutionEngine</text>
<text text-anchor="middle" x="1354.19" y="-63.5" font-family="Helvetica,sans-Serif" font-size="10.00">/Orc/CompileUtils.h</text>
</a>
</g>
</g>
<!-- Node16&#45;&gt;Node20 -->
<g id="edge22" class="edge">
<title>Node16&#45;&gt;Node20</title>
<path fill="none" stroke="midnightblue" d="M2080.66,-137.14C2001.87,-135.38 1686.89,-126.23 1419.15,-86.99"/>
<polygon fill="midnightblue" stroke="midnightblue" points="1419.65,-83.53 1409.25,-85.52 1418.63,-90.45 1419.65,-83.53"/>
</g>
<!-- Node21 -->
<g id="node21" class="node">
<title>Node21</title>
<g id="a_node21"><a xlink:title=" ">
<polygon fill="none" stroke="#bfbfbf" points="1427.19,-56.5 1427.19,-86.5 1537.19,-86.5 1537.19,-56.5 1427.19,-56.5"/>
<text text-anchor="start" x="1435.19" y="-74.5" font-family="Helvetica,sans-Serif" font-size="10.00">llvm/ExecutionEngine</text>
<text text-anchor="middle" x="1482.19" y="-63.5" font-family="Helvetica,sans-Serif" font-size="10.00">/Orc/Core.h</text>
</a>
</g>
</g>
<!-- Node16&#45;&gt;Node21 -->
<g id="edge23" class="edge">
<title>Node16&#45;&gt;Node21</title>
<path fill="none" stroke="midnightblue" d="M2080.65,-136.57C2010.88,-132.9 1757.62,-118.1 1551.19,-87 1549.93,-86.81 1548.66,-86.61 1547.38,-86.41"/>
<polygon fill="midnightblue" stroke="midnightblue" points="1547.9,-82.94 1537.45,-84.7 1546.71,-89.84 1547.9,-82.94"/>
</g>
<!-- Node22 -->
<g id="node22" class="node">
<title>Node22</title>
<g id="a_node22"><a xlink:title=" ">
<polygon fill="none" stroke="#bfbfbf" points="1593.69,-56.5 1593.69,-86.5 1724.69,-86.5 1724.69,-56.5 1593.69,-56.5"/>
<text text-anchor="start" x="1601.69" y="-74.5" font-family="Helvetica,sans-Serif" font-size="10.00">llvm/ExecutionEngine</text>
<text text-anchor="middle" x="1659.19" y="-63.5" font-family="Helvetica,sans-Serif" font-size="10.00">/Orc/EPCIndirectionUtils.h</text>
</a>
</g>
</g>
<!-- Node16&#45;&gt;Node22 -->
<g id="edge24" class="edge">
<title>Node16&#45;&gt;Node22</title>
<path fill="none" stroke="midnightblue" d="M2080.52,-135.28C2027.93,-128.93 1873.86,-109.84 1734.97,-87.08"/>
<polygon fill="midnightblue" stroke="midnightblue" points="1735.44,-83.6 1725,-85.43 1734.3,-90.51 1735.44,-83.6"/>
</g>
<!-- Node23 -->
<g id="node23" class="node">
<title>Node23</title>
<g id="a_node23"><a xlink:title=" ">
<polygon fill="none" stroke="#bfbfbf" points="1743.19,-56.5 1743.19,-86.5 1853.19,-86.5 1853.19,-56.5 1743.19,-56.5"/>
<text text-anchor="start" x="1751.19" y="-74.5" font-family="Helvetica,sans-Serif" font-size="10.00">llvm/ExecutionEngine</text>
<text text-anchor="middle" x="1798.19" y="-63.5" font-family="Helvetica,sans-Serif" font-size="10.00">/Orc/ExecutionUtils.h</text>
</a>
</g>
</g>
<!-- Node16&#45;&gt;Node23 -->
<g id="edge25" class="edge">
<title>Node16&#45;&gt;Node23</title>
<path fill="none" stroke="midnightblue" d="M2080.43,-133.59C2041.79,-125.51 1950.27,-106.29 1863.12,-87.19"/>
<polygon fill="midnightblue" stroke="midnightblue" points="1863.85,-83.77 1853.34,-85.04 1862.35,-90.61 1863.85,-83.77"/>
</g>
<!-- Node24 -->
<g id="node24" class="node">
<title>Node24</title>
<g id="a_node24"><a xlink:title=" ">
<polygon fill="none" stroke="#bfbfbf" points="1871.19,-56.5 1871.19,-86.5 2023.19,-86.5 2023.19,-56.5 1871.19,-56.5"/>
<text text-anchor="start" x="1879.19" y="-74.5" font-family="Helvetica,sans-Serif" font-size="10.00">llvm/ExecutionEngine</text>
<text text-anchor="middle" x="1947.19" y="-63.5" font-family="Helvetica,sans-Serif" font-size="10.00">/Orc/ExecutorProcessControl.h</text>
</a>
</g>
</g>
<!-- Node16&#45;&gt;Node24 -->
<g id="edge26" class="edge">
<title>Node16&#45;&gt;Node24</title>
<path fill="none" stroke="midnightblue" d="M2080.55,-129.53C2058.02,-119.89 2019.4,-103.38 1989.5,-90.6"/>
<polygon fill="midnightblue" stroke="midnightblue" points="1990.71,-87.3 1980.14,-86.59 1987.95,-93.74 1990.71,-87.3"/>
</g>
<!-- Node25 -->
<g id="node25" class="node">
<title>Node25</title>
<g id="a_node25"><a xlink:title=" ">
<polygon fill="none" stroke="#bfbfbf" points="2041.69,-56.5 2041.69,-86.5 2156.69,-86.5 2156.69,-56.5 2041.69,-56.5"/>
<text text-anchor="start" x="2049.69" y="-74.5" font-family="Helvetica,sans-Serif" font-size="10.00">llvm/ExecutionEngine</text>
<text text-anchor="middle" x="2099.19" y="-63.5" font-family="Helvetica,sans-Serif" font-size="10.00">/Orc/IRCompileLayer.h</text>
</a>
</g>
</g>
<!-- Node16&#45;&gt;Node25 -->
<g id="edge27" class="edge">
<title>Node16&#45;&gt;Node25</title>
<path fill="none" stroke="midnightblue" d="M2099.19,-128.73C2099.19,-120.54 2099.19,-107.92 2099.19,-96.71"/>
<polygon fill="midnightblue" stroke="midnightblue" points="2102.69,-96.59 2099.19,-86.59 2095.69,-96.59 2102.69,-96.59"/>
</g>
<!-- Node26 -->
<g id="node26" class="node">
<title>Node26</title>
<g id="a_node26"><a xlink:title=" ">
<polygon fill="none" stroke="#bfbfbf" points="2175.19,-56.5 2175.19,-86.5 2297.19,-86.5 2297.19,-56.5 2175.19,-56.5"/>
<text text-anchor="start" x="2183.19" y="-74.5" font-family="Helvetica,sans-Serif" font-size="10.00">llvm/ExecutionEngine</text>
<text text-anchor="middle" x="2236.19" y="-63.5" font-family="Helvetica,sans-Serif" font-size="10.00">/Orc/IRTransformLayer.h</text>
</a>
</g>
</g>
<!-- Node16&#45;&gt;Node26 -->
<g id="edge28" class="edge">
<title>Node16&#45;&gt;Node26</title>
<path fill="none" stroke="midnightblue" d="M2117.38,-128.87C2137.67,-119.24 2171.09,-103.39 2197.32,-90.94"/>
<polygon fill="midnightblue" stroke="midnightblue" points="2199.09,-93.98 2206.62,-86.53 2196.09,-87.65 2199.09,-93.98"/>
</g>
<!-- Node27 -->
<g id="node27" class="node">
<title>Node27</title>
<g id="a_node27"><a xlink:title=" ">
<polygon fill="none" stroke="#bfbfbf" points="2315.19,-56.5 2315.19,-86.5 2467.19,-86.5 2467.19,-56.5 2315.19,-56.5"/>
<text text-anchor="start" x="2323.19" y="-74.5" font-family="Helvetica,sans-Serif" font-size="10.00">llvm/ExecutionEngine</text>
<text text-anchor="middle" x="2391.19" y="-63.5" font-family="Helvetica,sans-Serif" font-size="10.00">/Orc/JITTargetMachineBuilder.h</text>
</a>
</g>
</g>
<!-- Node16&#45;&gt;Node27 -->
<g id="edge29" class="edge">
<title>Node16&#45;&gt;Node27</title>
<path fill="none" stroke="midnightblue" d="M2116.72,-128.94C2121.64,-126.77 2127.05,-124.61 2132.19,-123 2148.73,-117.82 2236.19,-101.13 2304.97,-88.33"/>
<polygon fill="midnightblue" stroke="midnightblue" points="2305.78,-91.74 2314.97,-86.48 2304.5,-84.86 2305.78,-91.74"/>
</g>
<!-- Node28 -->
<g id="node28" class="node">
<title>Node28</title>
<g id="a_node28"><a xlink:title=" ">
<polygon fill="none" stroke="#bfbfbf" points="2485.69,-56.5 2485.69,-86.5 2646.69,-86.5 2646.69,-56.5 2485.69,-56.5"/>
<text text-anchor="start" x="2493.69" y="-74.5" font-family="Helvetica,sans-Serif" font-size="10.00">llvm/ExecutionEngine</text>
<text text-anchor="middle" x="2566.19" y="-63.5" font-family="Helvetica,sans-Serif" font-size="10.00">/Orc/RTDyldObjectLinkingLayer.h</text>
</a>
</g>
</g>
<!-- Node16&#45;&gt;Node28 -->
<g id="edge30" class="edge">
<title>Node16&#45;&gt;Node28</title>
<path fill="none" stroke="midnightblue" d="M2115.95,-128.94C2121.05,-126.66 2126.74,-124.44 2132.19,-123 2277.59,-84.46 2321.91,-106.25 2475.02,-87.08"/>
<polygon fill="midnightblue" stroke="midnightblue" points="2475.8,-90.51 2485.27,-85.75 2474.9,-83.56 2475.8,-90.51"/>
</g>
<!-- Node29 -->
<g id="node29" class="node">
<title>Node29</title>
<g id="a_node29"><a xlink:title=" ">
<polygon fill="none" stroke="#bfbfbf" points="2665.19,-56.5 2665.19,-86.5 2799.19,-86.5 2799.19,-56.5 2665.19,-56.5"/>
<text text-anchor="start" x="2673.19" y="-74.5" font-family="Helvetica,sans-Serif" font-size="10.00">llvm/ExecutionEngine</text>
<text text-anchor="middle" x="2732.19" y="-63.5" font-family="Helvetica,sans-Serif" font-size="10.00">/SectionMemoryManager.h</text>
</a>
</g>
</g>
<!-- Node16&#45;&gt;Node29 -->
<g id="edge31" class="edge">
<title>Node16&#45;&gt;Node29</title>
<path fill="none" stroke="midnightblue" d="M2115.58,-128.97C2120.76,-126.64 2126.6,-124.38 2132.19,-123 2355.65,-68.01 2422.78,-115.54 2655.01,-87.02"/>
<polygon fill="midnightblue" stroke="midnightblue" points="2655.64,-90.47 2665.12,-85.75 2654.76,-83.53 2655.64,-90.47"/>
</g>
<!-- Node30 -->
<g id="node30" class="node">
<title>Node30</title>
<g id="a_node30"><a xlink:title=" ">
<polygon fill="none" stroke="#bfbfbf" points="2817.19,-62 2817.19,-81 2923.19,-81 2923.19,-62 2817.19,-62"/>
<text text-anchor="middle" x="2870.19" y="-69" font-family="Helvetica,sans-Serif" font-size="10.00">llvm/IR/DataLayout.h</text>
</a>
</g>
</g>
<!-- Node16&#45;&gt;Node30 -->
<g id="edge32" class="edge">
<title>Node16&#45;&gt;Node30</title>
<path fill="none" stroke="midnightblue" d="M2115.57,-128.91C2120.75,-126.58 2126.59,-124.33 2132.19,-123 2424.89,-53.35 2510.32,-129.42 2808.19,-87 2814.88,-86.05 2821.91,-84.72 2828.74,-83.26"/>
<polygon fill="midnightblue" stroke="midnightblue" points="2829.55,-86.66 2838.53,-81.04 2828.01,-79.83 2829.55,-86.66"/>
</g>
<!-- Node31 -->
<g id="node31" class="node">
<title>Node31</title>
<g id="a_node31"><a xlink:title=" ">
<polygon fill="none" stroke="#bfbfbf" points="2941.69,-56.5 2941.69,-86.5 3082.69,-86.5 3082.69,-56.5 2941.69,-56.5"/>
<text text-anchor="start" x="2949.69" y="-74.5" font-family="Helvetica,sans-Serif" font-size="10.00">llvm/Transforms/InstCombine</text>
<text text-anchor="middle" x="3012.19" y="-63.5" font-family="Helvetica,sans-Serif" font-size="10.00">/InstCombine.h</text>
</a>
</g>
</g>
<!-- Node16&#45;&gt;Node31 -->
<g id="edge35" class="edge">
<title>Node16&#45;&gt;Node31</title>
<path fill="none" stroke="midnightblue" d="M2115.56,-128.88C2120.74,-126.55 2126.58,-124.31 2132.19,-123 2302.43,-83.23 2739.62,-106.08 2931.53,-86.9"/>
<polygon fill="midnightblue" stroke="midnightblue" points="2932.02,-90.36 2941.59,-85.83 2931.28,-83.4 2932.02,-90.36"/>
</g>
<!-- Node32 -->
<g id="node32" class="node">
<title>Node32</title>
<g id="a_node32"><a xlink:title=" ">
<polygon fill="none" stroke="#bfbfbf" points="3100.69,-62 3100.69,-81 3223.69,-81 3223.69,-62 3100.69,-62"/>
<text text-anchor="middle" x="3162.19" y="-69" font-family="Helvetica,sans-Serif" font-size="10.00">llvm/Transforms/Scalar.h</text>
</a>
</g>
</g>
<!-- Node16&#45;&gt;Node32 -->
<g id="edge36" class="edge">
<title>Node16&#45;&gt;Node32</title>
<path fill="none" stroke="midnightblue" d="M2115.56,-128.86C2120.74,-126.52 2126.58,-124.29 2132.19,-123 2340.26,-75.22 2880.26,-112.74 3092.19,-87 3100.25,-86.02 3108.76,-84.6 3116.96,-83.02"/>
<polygon fill="midnightblue" stroke="midnightblue" points="3117.66,-86.45 3126.77,-81.03 3116.27,-79.59 3117.66,-86.45"/>
</g>
<!-- Node33 -->
<g id="node33" class="node">
<title>Node33</title>
<g id="a_node33"><a xlink:title=" ">
<polygon fill="none" stroke="#bfbfbf" points="3241.69,-56.5 3241.69,-86.5 3356.69,-86.5 3356.69,-56.5 3241.69,-56.5"/>
<text text-anchor="start" x="3249.69" y="-74.5" font-family="Helvetica,sans-Serif" font-size="10.00">llvm/Transforms/Scalar</text>
<text text-anchor="middle" x="3299.19" y="-63.5" font-family="Helvetica,sans-Serif" font-size="10.00">/GVN.h</text>
</a>
</g>
</g>
<!-- Node16&#45;&gt;Node33 -->
<g id="edge37" class="edge">
<title>Node16&#45;&gt;Node33</title>
<path fill="none" stroke="midnightblue" d="M2115.22,-128.99C2120.48,-126.6 2126.45,-124.3 2132.19,-123 2367.76,-69.49 2974.02,-116.13 3231.23,-87.04"/>
<polygon fill="midnightblue" stroke="midnightblue" points="3231.83,-90.5 3241.35,-85.84 3231,-83.55 3231.83,-90.5"/>
</g>
<!-- Node34 -->
<g id="node34" class="node">
<title>Node34</title>
<g id="a_node34"><a xlink:title=" ">
<polygon fill="none" stroke="#bfbfbf" points="3375.19,-62 3375.19,-81 3431.19,-81 3431.19,-62 3375.19,-62"/>
<text text-anchor="middle" x="3403.19" y="-69" font-family="Helvetica,sans-Serif" font-size="10.00">algorithm</text>
</a>
</g>
</g>
<!-- Node16&#45;&gt;Node34 -->
<g id="edge38" class="edge">
<title>Node16&#45;&gt;Node34</title>
<path fill="none" stroke="midnightblue" d="M2115.21,-128.98C2120.48,-126.59 2126.45,-124.29 2132.19,-123 2399.82,-62.71 3097.39,-141.86 3366.19,-87 3369.27,-86.37 3372.42,-85.51 3375.52,-84.51"/>
<polygon fill="midnightblue" stroke="midnightblue" points="3376.93,-87.73 3385.12,-81.01 3374.53,-81.15 3376.93,-87.73"/>
</g>
<!-- Node35 -->
<g id="node35" class="node">
<title>Node35</title>
<g id="a_node35"><a xlink:title=" ">
<polygon fill="none" stroke="#bfbfbf" points="3449.19,-62 3449.19,-81 3513.19,-81 3513.19,-62 3449.19,-62"/>
<text text-anchor="middle" x="3481.19" y="-69" font-family="Helvetica,sans-Serif" font-size="10.00">string_view</text>
</a>
</g>
</g>
<!-- Node16&#45;&gt;Node35 -->
<g id="edge39" class="edge">
<title>Node16&#45;&gt;Node35</title>
<path fill="none" stroke="midnightblue" d="M2115.21,-128.98C2120.48,-126.59 2126.45,-124.29 2132.19,-123 2415.91,-59.33 3154.31,-140.12 3440.19,-87 3443.9,-86.31 3447.72,-85.34 3451.47,-84.22"/>
<polygon fill="midnightblue" stroke="midnightblue" points="3452.71,-87.49 3461.1,-81.01 3450.5,-80.85 3452.71,-87.49"/>
</g>
<!-- Node36 -->
<g id="node36" class="node">
<title>Node36</title>
<g id="a_node36"><a xlink:title=" ">
<polygon fill="none" stroke="#bfbfbf" points="3531.69,-62 3531.69,-81 3580.69,-81 3580.69,-62 3531.69,-62"/>
<text text-anchor="middle" x="3556.19" y="-69" font-family="Helvetica,sans-Serif" font-size="10.00">fstream</text>
</a>
</g>
</g>
<!-- Node16&#45;&gt;Node36 -->
<g id="edge44" class="edge">
<title>Node16&#45;&gt;Node36</title>
<path fill="none" stroke="midnightblue" d="M2115.21,-128.97C2120.47,-126.58 2126.45,-124.28 2132.19,-123 2433.74,-55.58 3220.28,-152.77 3522.19,-87 3524.86,-86.42 3527.58,-85.63 3530.27,-84.72"/>
<polygon fill="midnightblue" stroke="midnightblue" points="3531.63,-87.94 3539.66,-81.03 3529.07,-81.43 3531.63,-87.94"/>
</g>
<!-- Node37 -->
<g id="node37" class="node">
<title>Node37</title>
<g id="a_node37"><a xlink:title=" ">
<polygon fill="none" stroke="#bfbfbf" points="3599.19,-62 3599.19,-81 3653.19,-81 3653.19,-62 3599.19,-62"/>
<text text-anchor="middle" x="3626.19" y="-69" font-family="Helvetica,sans-Serif" font-size="10.00">iostream</text>
</a>
</g>
</g>
<!-- Node16&#45;&gt;Node37 -->
<g id="edge46" class="edge">
<title>Node16&#45;&gt;Node37</title>
<path fill="none" stroke="midnightblue" d="M2115.21,-128.97C2120.47,-126.57 2126.45,-124.28 2132.19,-123 2448.52,-52.48 3272.8,-152.59 3590.19,-87 3593.1,-86.4 3596.07,-85.58 3599,-84.62"/>
<polygon fill="midnightblue" stroke="midnightblue" points="3600.49,-87.8 3608.64,-81.03 3598.04,-81.24 3600.49,-87.8"/>
</g>
<!-- Node38&#45;&gt;Node3 -->
<g id="edge51" class="edge">
<title>Node38&#45;&gt;Node3</title>
<path fill="none" stroke="midnightblue" d="M422.05,-132.69C386.42,-124.45 318.93,-106.61 305.19,-87 297.28,-75.72 297.97,-67.74 305.19,-56 316.77,-37.16 338.96,-25.92 358.28,-19.38"/>
<polygon fill="midnightblue" stroke="midnightblue" points="359.52,-22.66 368.05,-16.38 357.46,-15.97 359.52,-22.66"/>
</g>
<!-- Node38&#45;&gt;Node4 -->
<g id="edge49" class="edge">
<title>Node38&#45;&gt;Node4</title>
<path fill="none" stroke="midnightblue" d="M453.09,-128.73C463.58,-118.4 481.21,-101.04 494.11,-88.33"/>
<polygon fill="midnightblue" stroke="midnightblue" points="496.76,-90.64 501.43,-81.13 491.85,-85.65 496.76,-90.64"/>
</g>
<!-- Node38&#45;&gt;Node5 -->
<g id="edge50" class="edge">
<title>Node38&#45;&gt;Node5</title>
<path fill="none" stroke="midnightblue" d="M466.22,-133.38C526.05,-122.21 691.69,-91.27 761.03,-78.32"/>
<polygon fill="midnightblue" stroke="midnightblue" points="761.73,-81.75 770.92,-76.47 760.45,-74.87 761.73,-81.75"/>
</g>
<!-- Node38&#45;&gt;Node7 -->
<g id="edge48" class="edge">
<title>Node38&#45;&gt;Node7</title>
<path fill="none" stroke="midnightblue" d="M421.92,-132.36C388.56,-124.36 323.91,-107.68 271.19,-87 269.53,-86.35 267.84,-85.64 266.15,-84.89"/>
<polygon fill="midnightblue" stroke="midnightblue" points="267.24,-81.54 256.71,-80.4 264.23,-87.86 267.24,-81.54"/>
</g>
<!-- Node38&#45;&gt;Node12 -->
<g id="edge53" class="edge">
<title>Node38&#45;&gt;Node12</title>
<path fill="none" stroke="midnightblue" d="M442.54,-128.96C439.99,-113.61 436.44,-80.66 447.19,-56 452.33,-44.21 462.09,-33.84 471.22,-26.04"/>
<polygon fill="midnightblue" stroke="midnightblue" points="473.63,-28.59 479.27,-19.62 469.26,-23.12 473.63,-28.59"/>
</g>
<!-- Node39 -->
<g id="node39" class="node">
<title>Node39</title>
<g id="a_node39"><a xlink:title=" ">
<polygon fill="none" stroke="#bfbfbf" points="313.69,-62 313.69,-81 394.69,-81 394.69,-62 313.69,-62"/>
<text text-anchor="middle" x="354.19" y="-69" font-family="Helvetica,sans-Serif" font-size="10.00">llvm/IR/Value.h</text>
</a>
</g>
</g>
<!-- Node38&#45;&gt;Node39 -->
<g id="edge52" class="edge">
<title>Node38&#45;&gt;Node39</title>
<path fill="none" stroke="midnightblue" d="M432.05,-128.73C417.34,-118.11 392.33,-100.05 374.63,-87.26"/>
<polygon fill="midnightblue" stroke="midnightblue" points="376.29,-84.14 366.13,-81.13 372.19,-89.82 376.29,-84.14"/>
</g>
<!-- Node40 -->
<g id="node40" class="node">
<title>Node40</title>
<g id="a_node40"><a xlink:href="_types_8h.html" target="_top" xlink:title=" ">
<polygon fill="none" stroke="black" points="625.69,-62 625.69,-81 676.69,-81 676.69,-62 625.69,-62"/>
<text text-anchor="middle" x="651.19" y="-69" font-family="Helvetica,sans-Serif" font-size="10.00">Types.h</text>
</a>
</g>
</g>
<!-- Node38&#45;&gt;Node40 -->
<g id="edge54" class="edge">
<title>Node38&#45;&gt;Node40</title>
<path fill="none" stroke="midnightblue" d="M466.34,-130.54C502.16,-119.3 573.11,-97.02 615.93,-83.57"/>
<polygon fill="midnightblue" stroke="midnightblue" points="617.17,-86.85 625.66,-80.52 615.07,-80.17 617.17,-86.85"/>
</g>
<!-- Node40&#45;&gt;Node2 -->
<g id="edge55" class="edge">
<title>Node40&#45;&gt;Node2</title>
<path fill="none" stroke="midnightblue" d="M676.71,-64.89C691.88,-61.77 711.55,-58.11 729.19,-56 1044.91,-18.32 1431.51,-12.18 1537.3,-11.19"/>
<polygon fill="midnightblue" stroke="midnightblue" points="1537.5,-14.69 1547.47,-11.1 1537.44,-7.69 1537.5,-14.69"/>
</g>
<!-- Node40&#45;&gt;Node3 -->
<g id="edge57" class="edge">
<title>Node40&#45;&gt;Node3</title>
<path fill="none" stroke="midnightblue" d="M629.38,-61.92C623.53,-59.8 617.17,-57.67 611.19,-56 535.27,-34.82 512.02,-37.68 430.71,-20"/>
<polygon fill="midnightblue" stroke="midnightblue" points="431.02,-16.48 420.5,-17.73 429.51,-23.31 431.02,-16.48"/>
</g>
<!-- Node40&#45;&gt;Node12 -->
<g id="edge59" class="edge">
<title>Node40&#45;&gt;Node12</title>
<path fill="none" stroke="midnightblue" d="M628.41,-61.98C601.13,-51.77 555.28,-34.61 524.39,-23.05"/>
<polygon fill="midnightblue" stroke="midnightblue" points="525.52,-19.74 514.93,-19.51 523.07,-26.29 525.52,-19.74"/>
</g>
<!-- Node41 -->
<g id="node41" class="node">
<title>Node41</title>
<g id="a_node41"><a xlink:title=" ">
<polygon fill="none" stroke="#bfbfbf" points="690.19,-0.5 690.19,-19.5 720.19,-19.5 720.19,-0.5 690.19,-0.5"/>
<text text-anchor="middle" x="705.19" y="-7.5" font-family="Helvetica,sans-Serif" font-size="10.00">set</text>
</a>
</g>
</g>
<!-- Node40&#45;&gt;Node41 -->
<g id="edge56" class="edge">
<title>Node40&#45;&gt;Node41</title>
<path fill="none" stroke="midnightblue" d="M658.93,-61.98C667.19,-52.87 680.47,-38.24 690.68,-26.98"/>
<polygon fill="midnightblue" stroke="midnightblue" points="693.34,-29.27 697.47,-19.51 688.15,-24.56 693.34,-29.27"/>
</g>
<!-- Node42 -->
<g id="node42" class="node">
<title>Node42</title>
<g id="a_node42"><a xlink:title=" ">
<polygon fill="none" stroke="#bfbfbf" points="594.69,-0.5 594.69,-19.5 671.69,-19.5 671.69,-0.5 594.69,-0.5"/>
<text text-anchor="middle" x="633.19" y="-7.5" font-family="Helvetica,sans-Serif" font-size="10.00">llvm/IR/Type.h</text>
</a>
</g>
</g>
<!-- Node40&#45;&gt;Node42 -->
<g id="edge58" class="edge">
<title>Node40&#45;&gt;Node42</title>
<path fill="none" stroke="midnightblue" d="M648.61,-61.98C646.04,-53.49 642.02,-40.2 638.73,-29.32"/>
<polygon fill="midnightblue" stroke="midnightblue" points="642.01,-28.07 635.76,-19.51 635.31,-30.09 642.01,-28.07"/>
</g>
<!-- Node43&#45;&gt;Node2 -->
<g id="edge65" class="edge">
<title>Node43&#45;&gt;Node2</title>
<path fill="none" stroke="midnightblue" d="M659.35,-128.78C676.45,-111.2 718.09,-71.83 762.19,-56 836.33,-29.39 1403.69,-14.73 1537.14,-11.63"/>
<polygon fill="midnightblue" stroke="midnightblue" points="1537.43,-15.12 1547.35,-11.39 1537.27,-8.12 1537.43,-15.12"/>
</g>
<!-- Node43&#45;&gt;Node3 -->
<g id="edge64" class="edge">
<title>Node43&#45;&gt;Node3</title>
<path fill="none" stroke="midnightblue" d="M639.65,-128.95C611.78,-108.31 542.91,-57.37 540.19,-56 520.86,-46.27 466.86,-30.67 430.24,-20.63"/>
<polygon fill="midnightblue" stroke="midnightblue" points="430.98,-17.2 420.41,-17.95 429.14,-23.95 430.98,-17.2"/>
</g>
<!-- Node43&#45;&gt;Node4 -->
<g id="edge62" class="edge">
<title>Node43&#45;&gt;Node4</title>
<path fill="none" stroke="midnightblue" d="M632.47,-128.87C608.34,-117.75 566.19,-98.32 538.23,-85.43"/>
<polygon fill="midnightblue" stroke="midnightblue" points="539.54,-82.18 528.99,-81.17 536.61,-88.53 539.54,-82.18"/>
</g>
<!-- Node43&#45;&gt;Node5 -->
<g id="edge63" class="edge">
<title>Node43&#45;&gt;Node5</title>
<path fill="none" stroke="midnightblue" d="M669.91,-128.87C694.04,-117.75 736.19,-98.32 764.14,-85.43"/>
<polygon fill="midnightblue" stroke="midnightblue" points="765.77,-88.53 773.39,-81.17 762.84,-82.18 765.77,-88.53"/>
</g>
<!-- Node43&#45;&gt;Node7 -->
<g id="edge61" class="edge">
<title>Node43&#45;&gt;Node7</title>
<path fill="none" stroke="midnightblue" d="M624.15,-134.31C565.7,-127.26 423.32,-109.18 305.19,-87 292.44,-84.61 278.35,-81.42 266.74,-78.64"/>
<polygon fill="midnightblue" stroke="midnightblue" points="267.43,-75.2 256.88,-76.24 265.77,-82.01 267.43,-75.2"/>
</g>
<!-- Node43&#45;&gt;Node40 -->
<g id="edge67" class="edge">
<title>Node43&#45;&gt;Node40</title>
<path fill="none" stroke="midnightblue" d="M651.19,-128.73C651.19,-119.18 651.19,-103.62 651.19,-91.28"/>
<polygon fill="midnightblue" stroke="midnightblue" points="654.69,-91.13 651.19,-81.13 647.69,-91.13 654.69,-91.13"/>
</g>
<!-- Node43&#45;&gt;Node41 -->
<g id="edge66" class="edge">
<title>Node43&#45;&gt;Node41</title>
<path fill="none" stroke="midnightblue" d="M658.7,-128.8C666.63,-119.18 678.97,-102.93 686.19,-87 694.59,-68.46 699.66,-45.62 702.43,-29.85"/>
<polygon fill="midnightblue" stroke="midnightblue" points="705.92,-30.2 704.05,-19.77 699,-29.09 705.92,-30.2"/>
</g>
<!-- Node45 -->
<g id="node45" class="node">
<title>Node45</title>
<g id="a_node45"><a xlink:title=" ">
<polygon fill="none" stroke="#bfbfbf" points="107.19,-62 107.19,-81 209.19,-81 209.19,-62 107.19,-62"/>
<text text-anchor="middle" x="158.19" y="-69" font-family="Helvetica,sans-Serif" font-size="10.00">llvm/Support/Error.h</text>
</a>
</g>
</g>
<!-- Node44&#45;&gt;Node45 -->
<g id="edge69" class="edge">
<title>Node44&#45;&gt;Node45</title>
<path fill="none" stroke="midnightblue" d="M158.19,-128.73C158.19,-119.18 158.19,-103.62 158.19,-91.28"/>
<polygon fill="midnightblue" stroke="midnightblue" points="161.69,-91.13 158.19,-81.13 154.69,-91.13 161.69,-91.13"/>
</g>
<!-- Node46 -->
<g id="node46" class="node">
<title>Node46</title>
<g id="a_node46"><a xlink:title=" ">
<polygon fill="none" stroke="#bfbfbf" points="15.19,-62 15.19,-81 89.19,-81 89.19,-62 15.19,-62"/>
<text text-anchor="middle" x="52.19" y="-69" font-family="Helvetica,sans-Serif" font-size="10.00">system_error</text>
</a>
</g>
</g>
<!-- Node44&#45;&gt;Node46 -->
<g id="edge70" class="edge">
<title>Node44&#45;&gt;Node46</title>
<path fill="none" stroke="midnightblue" d="M143.89,-128.73C126.17,-117.87 95.76,-99.22 74.85,-86.39"/>
<polygon fill="midnightblue" stroke="midnightblue" points="76.61,-83.37 66.26,-81.13 72.95,-89.34 76.61,-83.37"/>
</g>
<!-- Node47&#45;&gt;Node15 -->
<g id="edge73" class="edge">
<title>Node47&#45;&gt;Node15</title>
<path fill="none" stroke="midnightblue" d="M3755.19,-190.48C3755.19,-182.08 3755.19,-168.98 3755.19,-158.16"/>
<polygon fill="midnightblue" stroke="midnightblue" points="3758.69,-158.01 3755.19,-148.01 3751.69,-158.01 3758.69,-158.01"/>
</g>
<!-- Node48 -->
<g id="node48" class="node">
<title>Node48</title>
<g id="a_node48"><a xlink:title=" ">
<polygon fill="none" stroke="#bfbfbf" points="3839.69,-123.5 3839.69,-153.5 3966.69,-153.5 3966.69,-123.5 3839.69,-123.5"/>
<text text-anchor="start" x="3847.69" y="-141.5" font-family="Helvetica,sans-Serif" font-size="10.00">llvm/Passes/Optimization</text>
<text text-anchor="middle" x="3903.19" y="-130.5" font-family="Helvetica,sans-Serif" font-size="10.00">Level.h</text>
</a>
</g>
</g>
<!-- Node47&#45;&gt;Node48 -->
<g id="edge74" class="edge">
<title>Node47&#45;&gt;Node48</title>
<path fill="none" stroke="midnightblue" d="M3776.39,-190.48C3797.84,-181.85 3831.64,-168.26 3858.95,-157.29"/>
<polygon fill="midnightblue" stroke="midnightblue" points="3860.34,-160.5 3868.31,-153.52 3857.72,-154.01 3860.34,-160.5"/>
</g>
</g>
</svg>
