<?xml version="1.0" encoding="UTF-8" standalone="no"?>
<!DOCTYPE svg PUBLIC "-//W3C//DTD SVG 1.1//EN"
 "http://www.w3.org/Graphics/SVG/1.1/DTD/svg11.dtd">
<!-- Generated by graphviz version 3.0.0 (20220226.1711)
 -->
<!-- Title: src/include/Context.h Pages: 1 -->
<svg width="3993pt" height="207pt"
 viewBox="0.00 0.00 3993.07 207.00" xmlns="http://www.w3.org/2000/svg" xmlns:xlink="http://www.w3.org/1999/xlink">
<g id="graph0" class="graph" transform="scale(1 1) rotate(0) translate(4 203)">
<title>src/include/Context.h</title>
<!-- Node1 -->
<g id="node1" class="node">
<title>Node1</title>
<g id="a_node1"><a xlink:title=" ">
<polygon fill="#bfbfbf" stroke="black" points="3104.57,-179.5 3104.57,-198.5 3213.57,-198.5 3213.57,-179.5 3104.57,-179.5"/>
<text text-anchor="middle" x="3159.07" y="-186.5" font-family="Helvetica,sans-Serif" font-size="10.00">src/include/Context.h</text>
</a>
</g>
</g>
<!-- Node2 -->
<g id="node2" class="node">
<title>Node2</title>
<g id="a_node2"><a xlink:title=" ">
<polygon fill="none" stroke="#bfbfbf" points="3226.07,-62 3226.07,-81 3268.07,-81 3268.07,-62 3226.07,-62"/>
<text text-anchor="middle" x="3247.07" y="-69" font-family="Helvetica,sans-Serif" font-size="10.00">vector</text>
</a>
</g>
</g>
<!-- Node1&#45;&gt;Node2 -->
<g id="edge1" class="edge">
<title>Node1&#45;&gt;Node2</title>
<path fill="none" stroke="midnightblue" d="M3151.24,-179.46C3140.33,-166.48 3123.19,-141.39 3135.07,-123 3137.5,-119.25 3184.78,-98.75 3217.13,-85.05"/>
<polygon fill="midnightblue" stroke="midnightblue" points="3218.77,-88.16 3226.62,-81.04 3216.05,-81.71 3218.77,-88.16"/>
</g>
<!-- Node3 -->
<g id="node3" class="node">
<title>Node3</title>
<g id="a_node3"><a xlink:title=" ">
<polygon fill="none" stroke="#bfbfbf" points="3460.57,-62 3460.57,-81 3489.57,-81 3489.57,-62 3460.57,-62"/>
<text text-anchor="middle" x="3475.07" y="-69" font-family="Helvetica,sans-Serif" font-size="10.00">list</text>
</a>
</g>
</g>
<!-- Node1&#45;&gt;Node3 -->
<g id="edge2" class="edge">
<title>Node1&#45;&gt;Node3</title>
<path fill="none" stroke="midnightblue" d="M3213.86,-188.91C3298.9,-189.02 3456.61,-183.58 3492.07,-143 3504.97,-128.24 3495.89,-105.36 3486.8,-89.69"/>
<polygon fill="midnightblue" stroke="midnightblue" points="3489.62,-87.6 3481.33,-81.01 3483.7,-91.33 3489.62,-87.6"/>
</g>
<!-- Node4 -->
<g id="node4" class="node">
<title>Node4</title>
<g id="a_node4"><a xlink:title=" ">
<polygon fill="none" stroke="#bfbfbf" points="2323.57,-0.5 2323.57,-19.5 2358.57,-19.5 2358.57,-0.5 2323.57,-0.5"/>
<text text-anchor="middle" x="2341.07" y="-7.5" font-family="Helvetica,sans-Serif" font-size="10.00">map</text>
</a>
</g>
</g>
<!-- Node1&#45;&gt;Node4 -->
<g id="edge3" class="edge">
<title>Node1&#45;&gt;Node4</title>
<path fill="none" stroke="midnightblue" d="M3104.43,-187.89C2770.18,-187.11 997.98,-181.19 456.07,-143 255.47,-128.86 140.18,-237.74 7.07,-87 -2.05,-76.67 -2.58,-65.84 7.07,-56 49.52,-12.73 2052.24,-11.03 2313.15,-11"/>
<polygon fill="midnightblue" stroke="midnightblue" points="2313.31,-14.5 2323.31,-11 2313.31,-7.5 2313.31,-14.5"/>
</g>
<!-- Node5 -->
<g id="node5" class="node">
<title>Node5</title>
<g id="a_node5"><a xlink:title=" ">
<polygon fill="none" stroke="#bfbfbf" points="16.07,-62 16.07,-81 132.07,-81 132.07,-62 16.07,-62"/>
<text text-anchor="middle" x="74.07" y="-69" font-family="Helvetica,sans-Serif" font-size="10.00">llvm/IR/LLVMContext.h</text>
</a>
</g>
</g>
<!-- Node1&#45;&gt;Node5 -->
<g id="edge4" class="edge">
<title>Node1&#45;&gt;Node5</title>
<path fill="none" stroke="midnightblue" d="M3104.24,-187.97C2852.8,-187.6 1784.89,-183.58 910.07,-143 567.76,-127.12 480.26,-135.81 141.07,-87 133.86,-85.96 126.27,-84.59 118.9,-83.11"/>
<polygon fill="midnightblue" stroke="midnightblue" points="119.53,-79.67 109.02,-81.03 118.09,-86.52 119.53,-79.67"/>
</g>
<!-- Node6 -->
<g id="node6" class="node">
<title>Node6</title>
<g id="a_node6"><a xlink:title=" ">
<polygon fill="none" stroke="#bfbfbf" points="2886.57,-123.5 2886.57,-142.5 2981.57,-142.5 2981.57,-123.5 2886.57,-123.5"/>
<text text-anchor="middle" x="2934.07" y="-130.5" font-family="Helvetica,sans-Serif" font-size="10.00">llvm/IR/IRBuilder.h</text>
</a>
</g>
</g>
<!-- Node1&#45;&gt;Node6 -->
<g id="edge5" class="edge">
<title>Node1&#45;&gt;Node6</title>
<path fill="none" stroke="midnightblue" d="M3123.42,-179.44C3084.42,-170.08 3021.8,-155.06 2979.35,-144.87"/>
<polygon fill="midnightblue" stroke="midnightblue" points="2980.1,-141.45 2969.56,-142.52 2978.46,-148.25 2980.1,-141.45"/>
</g>
<!-- Node7 -->
<g id="node7" class="node">
<title>Node7</title>
<g id="a_node7"><a xlink:title=" ">
<polygon fill="none" stroke="#bfbfbf" points="3000.07,-123.5 3000.07,-142.5 3088.07,-142.5 3088.07,-123.5 3000.07,-123.5"/>
<text text-anchor="middle" x="3044.07" y="-130.5" font-family="Helvetica,sans-Serif" font-size="10.00">llvm/IR/Module.h</text>
</a>
</g>
</g>
<!-- Node1&#45;&gt;Node7 -->
<g id="edge6" class="edge">
<title>Node1&#45;&gt;Node7</title>
<path fill="none" stroke="midnightblue" d="M3140.85,-179.44C3122.18,-170.68 3092.91,-156.94 3071.45,-146.86"/>
<polygon fill="midnightblue" stroke="midnightblue" points="3072.75,-143.6 3062.21,-142.52 3069.77,-149.93 3072.75,-143.6"/>
</g>
<!-- Node8 -->
<g id="node8" class="node">
<title>Node8</title>
<g id="a_node8"><a xlink:title=" ">
<polygon fill="none" stroke="#bfbfbf" points="3671.57,-0.5 3671.57,-19.5 3778.57,-19.5 3778.57,-0.5 3671.57,-0.5"/>
<text text-anchor="middle" x="3725.07" y="-7.5" font-family="Helvetica,sans-Serif" font-size="10.00">llvm/IR/Instructions.h</text>
</a>
</g>
</g>
<!-- Node1&#45;&gt;Node8 -->
<g id="edge7" class="edge">
<title>Node1&#45;&gt;Node8</title>
<path fill="none" stroke="midnightblue" d="M3213.75,-187.42C3296.93,-185.41 3459.66,-177.01 3593.07,-143 3655.62,-127.06 3691.3,-140.73 3727.07,-87 3738.25,-70.22 3735.37,-46.41 3731.24,-29.93"/>
<polygon fill="midnightblue" stroke="midnightblue" points="3734.47,-28.5 3728.33,-19.87 3727.74,-30.44 3734.47,-28.5"/>
</g>
<!-- Node9 -->
<g id="node9" class="node">
<title>Node9</title>
<g id="a_node9"><a xlink:title=" ">
<polygon fill="none" stroke="#bfbfbf" points="3144.07,-123.5 3144.07,-142.5 3260.07,-142.5 3260.07,-123.5 3144.07,-123.5"/>
<text text-anchor="middle" x="3202.07" y="-130.5" font-family="Helvetica,sans-Serif" font-size="10.00">llvm/IR/PassManager.h</text>
</a>
</g>
</g>
<!-- Node1&#45;&gt;Node9 -->
<g id="edge8" class="edge">
<title>Node1&#45;&gt;Node9</title>
<path fill="none" stroke="midnightblue" d="M3166.17,-179.08C3172.31,-171.38 3181.34,-160.03 3188.81,-150.65"/>
<polygon fill="midnightblue" stroke="midnightblue" points="3191.61,-152.75 3195.1,-142.75 3186.14,-148.39 3191.61,-152.75"/>
</g>
<!-- Node10 -->
<g id="node10" class="node">
<title>Node10</title>
<g id="a_node10"><a xlink:title=" ">
<polygon fill="none" stroke="#bfbfbf" points="150.07,-62 150.07,-81 298.07,-81 298.07,-62 150.07,-62"/>
<text text-anchor="middle" x="224.07" y="-69" font-family="Helvetica,sans-Serif" font-size="10.00">llvm/IR/LegacyPassManager.h</text>
</a>
</g>
</g>
<!-- Node1&#45;&gt;Node10 -->
<g id="edge9" class="edge">
<title>Node1&#45;&gt;Node10</title>
<path fill="none" stroke="midnightblue" d="M3104.48,-187.1C2759.59,-181.27 879.11,-147.12 307.07,-87 297.14,-85.96 286.61,-84.44 276.5,-82.77"/>
<polygon fill="midnightblue" stroke="midnightblue" points="277.01,-79.31 266.57,-81.07 275.83,-86.21 277.01,-79.31"/>
</g>
<!-- Node11 -->
<g id="node11" class="node">
<title>Node11</title>
<g id="a_node11"><a xlink:title=" ">
<polygon fill="none" stroke="#bfbfbf" points="3350.57,-123.5 3350.57,-142.5 3483.57,-142.5 3483.57,-123.5 3350.57,-123.5"/>
<text text-anchor="middle" x="3417.07" y="-130.5" font-family="Helvetica,sans-Serif" font-size="10.00">llvm/Passes/PassBuilder.h</text>
</a>
</g>
</g>
<!-- Node1&#45;&gt;Node11 -->
<g id="edge10" class="edge">
<title>Node1&#45;&gt;Node11</title>
<path fill="none" stroke="midnightblue" d="M3199.95,-179.44C3245.05,-170 3317.68,-154.8 3366.37,-144.61"/>
<polygon fill="midnightblue" stroke="midnightblue" points="3367.31,-147.99 3376.38,-142.52 3365.88,-141.14 3367.31,-147.99"/>
</g>
<!-- Node12 -->
<g id="node12" class="node">
<title>Node12</title>
<g id="a_node12"><a xlink:href="_j_i_t_8h.html" target="_top" xlink:title=" ">
<polygon fill="none" stroke="black" points="1851.57,-123.5 1851.57,-142.5 1888.57,-142.5 1888.57,-123.5 1851.57,-123.5"/>
<text text-anchor="middle" x="1870.07" y="-130.5" font-family="Helvetica,sans-Serif" font-size="10.00">JIT.h</text>
</a>
</g>
</g>
<!-- Node1&#45;&gt;Node12 -->
<g id="edge11" class="edge">
<title>Node1&#45;&gt;Node12</title>
<path fill="none" stroke="midnightblue" d="M3104.51,-185.71C2884.12,-176.48 2063.55,-142.11 1898.94,-135.21"/>
<polygon fill="midnightblue" stroke="midnightblue" points="1898.78,-131.7 1888.64,-134.78 1898.49,-138.69 1898.78,-131.7"/>
</g>
<!-- Node37 -->
<g id="node37" class="node">
<title>Node37</title>
<g id="a_node37"><a xlink:href="_a_s_t_8h.html" target="_top" xlink:title=" ">
<polygon fill="none" stroke="black" points="3540.07,-123.5 3540.07,-142.5 3584.07,-142.5 3584.07,-123.5 3540.07,-123.5"/>
<text text-anchor="middle" x="3562.07" y="-130.5" font-family="Helvetica,sans-Serif" font-size="10.00">AST.h</text>
</a>
</g>
</g>
<!-- Node1&#45;&gt;Node37 -->
<g id="edge40" class="edge">
<title>Node1&#45;&gt;Node37</title>
<path fill="none" stroke="midnightblue" d="M3213.8,-183.41C3285.8,-176.88 3416.09,-163.41 3526.07,-143 3527.32,-142.77 3528.59,-142.52 3529.86,-142.26"/>
<polygon fill="midnightblue" stroke="midnightblue" points="3530.71,-145.65 3539.7,-140.05 3529.17,-138.83 3530.71,-145.65"/>
</g>
<!-- Node42 -->
<g id="node42" class="node">
<title>Node42</title>
<g id="a_node42"><a xlink:href="_layout_8h.html" target="_top" xlink:title=" ">
<polygon fill="none" stroke="black" points="3278.07,-123.5 3278.07,-142.5 3332.07,-142.5 3332.07,-123.5 3278.07,-123.5"/>
<text text-anchor="middle" x="3305.07" y="-130.5" font-family="Helvetica,sans-Serif" font-size="10.00">Layout.h</text>
</a>
</g>
</g>
<!-- Node1&#45;&gt;Node42 -->
<g id="edge53" class="edge">
<title>Node1&#45;&gt;Node42</title>
<path fill="none" stroke="midnightblue" d="M3182.21,-179.44C3206.55,-170.44 3245.08,-156.19 3272.49,-146.05"/>
<polygon fill="midnightblue" stroke="midnightblue" points="3273.88,-149.27 3282.04,-142.52 3271.45,-142.7 3273.88,-149.27"/>
</g>
<!-- Node43 -->
<g id="node43" class="node">
<title>Node43</title>
<g id="a_node43"><a xlink:href="_error_8h.html" target="_top" xlink:title=" ">
<polygon fill="none" stroke="black" points="3819.07,-123.5 3819.07,-142.5 3865.07,-142.5 3865.07,-123.5 3819.07,-123.5"/>
<text text-anchor="middle" x="3842.07" y="-130.5" font-family="Helvetica,sans-Serif" font-size="10.00">Error.h</text>
</a>
</g>
</g>
<!-- Node1&#45;&gt;Node43 -->
<g id="edge61" class="edge">
<title>Node1&#45;&gt;Node43</title>
<path fill="none" stroke="midnightblue" d="M3213.74,-185.21C3321.64,-179.45 3569.53,-164.9 3777.07,-143 3787.41,-141.91 3798.65,-140.45 3808.82,-139.03"/>
<polygon fill="midnightblue" stroke="midnightblue" points="3809.55,-142.46 3818.95,-137.57 3808.56,-135.53 3809.55,-142.46"/>
</g>
<!-- Node12&#45;&gt;Node2 -->
<g id="edge36" class="edge">
<title>Node12&#45;&gt;Node2</title>
<path fill="none" stroke="midnightblue" d="M1888.92,-131.78C2041.84,-129.91 3077.07,-116.22 3212.07,-87 3214.75,-86.42 3217.49,-85.64 3220.19,-84.75"/>
<polygon fill="midnightblue" stroke="midnightblue" points="3221.56,-87.98 3229.66,-81.15 3219.07,-81.43 3221.56,-87.98"/>
</g>
<!-- Node12&#45;&gt;Node4 -->
<g id="edge33" class="edge">
<title>Node12&#45;&gt;Node4</title>
<path fill="none" stroke="midnightblue" d="M1851.52,-131.64C1768.72,-129.86 1435.6,-120.63 1405.07,-87 1395.81,-76.8 1395.57,-65.97 1405.07,-56 1437.2,-22.29 2160.94,-12.88 2313.14,-11.27"/>
<polygon fill="midnightblue" stroke="midnightblue" points="2313.51,-14.77 2323.47,-11.16 2313.44,-7.77 2313.51,-14.77"/>
</g>
<!-- Node12&#45;&gt;Node5 -->
<g id="edge26" class="edge">
<title>Node12&#45;&gt;Node5</title>
<path fill="none" stroke="midnightblue" d="M1851.41,-132C1687.87,-131.89 496.22,-129.67 141.07,-87 133.43,-86.08 125.37,-84.7 117.6,-83.15"/>
<polygon fill="midnightblue" stroke="midnightblue" points="118.11,-79.68 107.6,-81.04 116.67,-86.53 118.11,-79.68"/>
</g>
<!-- Node12&#45;&gt;Node10 -->
<g id="edge27" class="edge">
<title>Node12&#45;&gt;Node10</title>
<path fill="none" stroke="midnightblue" d="M1851.42,-131.63C1685.7,-128.29 468.11,-103.3 307.07,-87 297.03,-85.98 286.37,-84.46 276.16,-82.78"/>
<polygon fill="midnightblue" stroke="midnightblue" points="276.58,-79.3 266.13,-81.06 275.4,-86.2 276.58,-79.3"/>
</g>
<!-- Node13 -->
<g id="node13" class="node">
<title>Node13</title>
<g id="a_node13"><a xlink:title=" ">
<polygon fill="none" stroke="#bfbfbf" points="2058.07,-62 2058.07,-81 2164.07,-81 2164.07,-62 2058.07,-62"/>
<text text-anchor="middle" x="2111.07" y="-69" font-family="Helvetica,sans-Serif" font-size="10.00">llvm/ADT/StringRef.h</text>
</a>
</g>
</g>
<!-- Node12&#45;&gt;Node13 -->
<g id="edge12" class="edge">
<title>Node12&#45;&gt;Node13</title>
<path fill="none" stroke="midnightblue" d="M1888.58,-127.43C1926.38,-118.1 2013.34,-96.63 2066.66,-83.46"/>
<polygon fill="midnightblue" stroke="midnightblue" points="2067.66,-86.82 2076.53,-81.03 2065.98,-80.03 2067.66,-86.82"/>
</g>
<!-- Node14 -->
<g id="node14" class="node">
<title>Node14</title>
<g id="a_node14"><a xlink:title=" ">
<polygon fill="none" stroke="#bfbfbf" points="2182.07,-56.5 2182.07,-86.5 2292.07,-86.5 2292.07,-56.5 2182.07,-56.5"/>
<text text-anchor="start" x="2190.07" y="-74.5" font-family="Helvetica,sans-Serif" font-size="10.00">llvm/ExecutionEngine</text>
<text text-anchor="middle" x="2237.07" y="-63.5" font-family="Helvetica,sans-Serif" font-size="10.00">/JITSymbol.h</text>
</a>
</g>
</g>
<!-- Node12&#45;&gt;Node14 -->
<g id="edge13" class="edge">
<title>Node12&#45;&gt;Node14</title>
<path fill="none" stroke="midnightblue" d="M1888.6,-129.74C1934.73,-124.02 2058.62,-108.01 2172.08,-87.1"/>
<polygon fill="midnightblue" stroke="midnightblue" points="2172.78,-90.53 2181.97,-85.26 2171.5,-83.65 2172.78,-90.53"/>
</g>
<!-- Node15 -->
<g id="node15" class="node">
<title>Node15</title>
<g id="a_node15"><a xlink:title=" ">
<polygon fill="none" stroke="#bfbfbf" points="2310.57,-56.5 2310.57,-86.5 2465.57,-86.5 2465.57,-56.5 2310.57,-56.5"/>
<text text-anchor="start" x="2318.57" y="-74.5" font-family="Helvetica,sans-Serif" font-size="10.00">llvm/ExecutionEngine</text>
<text text-anchor="middle" x="2388.07" y="-63.5" font-family="Helvetica,sans-Serif" font-size="10.00">/Orc/CompileOnDemandLayer.h</text>
</a>
</g>
</g>
<!-- Node12&#45;&gt;Node15 -->
<g id="edge14" class="edge">
<title>Node12&#45;&gt;Node15</title>
<path fill="none" stroke="midnightblue" d="M1888.6,-130.47C1947.22,-125.56 2134.02,-109.24 2299.93,-87.1"/>
<polygon fill="midnightblue" stroke="midnightblue" points="2300.87,-90.5 2310.32,-85.7 2299.94,-83.57 2300.87,-90.5"/>
</g>
<!-- Node16 -->
<g id="node16" class="node">
<title>Node16</title>
<g id="a_node16"><a xlink:title=" ">
<polygon fill="none" stroke="#bfbfbf" points="2484.07,-56.5 2484.07,-86.5 2594.07,-86.5 2594.07,-56.5 2484.07,-56.5"/>
<text text-anchor="start" x="2492.07" y="-74.5" font-family="Helvetica,sans-Serif" font-size="10.00">llvm/ExecutionEngine</text>
<text text-anchor="middle" x="2539.07" y="-63.5" font-family="Helvetica,sans-Serif" font-size="10.00">/Orc/CompileUtils.h</text>
</a>
</g>
</g>
<!-- Node12&#45;&gt;Node16 -->
<g id="edge15" class="edge">
<title>Node12&#45;&gt;Node16</title>
<path fill="none" stroke="midnightblue" d="M1888.97,-131.59C1962.58,-129.78 2237.3,-121.12 2473.69,-86.88"/>
<polygon fill="midnightblue" stroke="midnightblue" points="2474.47,-90.3 2483.85,-85.39 2473.45,-83.38 2474.47,-90.3"/>
</g>
<!-- Node17 -->
<g id="node17" class="node">
<title>Node17</title>
<g id="a_node17"><a xlink:title=" ">
<polygon fill="none" stroke="#bfbfbf" points="2612.07,-56.5 2612.07,-86.5 2722.07,-86.5 2722.07,-56.5 2612.07,-56.5"/>
<text text-anchor="start" x="2620.07" y="-74.5" font-family="Helvetica,sans-Serif" font-size="10.00">llvm/ExecutionEngine</text>
<text text-anchor="middle" x="2667.07" y="-63.5" font-family="Helvetica,sans-Serif" font-size="10.00">/Orc/Core.h</text>
</a>
</g>
</g>
<!-- Node12&#45;&gt;Node17 -->
<g id="edge16" class="edge">
<title>Node12&#45;&gt;Node17</title>
<path fill="none" stroke="midnightblue" d="M1888.59,-131.96C1970.99,-131.56 2312.53,-127.49 2601.75,-87.02"/>
<polygon fill="midnightblue" stroke="midnightblue" points="2602.61,-90.43 2612.02,-85.57 2601.63,-83.5 2602.61,-90.43"/>
</g>
<!-- Node18 -->
<g id="node18" class="node">
<title>Node18</title>
<g id="a_node18"><a xlink:title=" ">
<polygon fill="none" stroke="#bfbfbf" points="2740.57,-56.5 2740.57,-86.5 2871.57,-86.5 2871.57,-56.5 2740.57,-56.5"/>
<text text-anchor="start" x="2748.57" y="-74.5" font-family="Helvetica,sans-Serif" font-size="10.00">llvm/ExecutionEngine</text>
<text text-anchor="middle" x="2806.07" y="-63.5" font-family="Helvetica,sans-Serif" font-size="10.00">/Orc/EPCIndirectionUtils.h</text>
</a>
</g>
</g>
<!-- Node12&#45;&gt;Node18 -->
<g id="edge17" class="edge">
<title>Node12&#45;&gt;Node18</title>
<path fill="none" stroke="midnightblue" d="M1888.63,-131.98C1979.53,-131.7 2386.85,-128.15 2730.16,-86.98"/>
<polygon fill="midnightblue" stroke="midnightblue" points="2730.8,-90.43 2740.3,-85.75 2729.95,-83.48 2730.8,-90.43"/>
</g>
<!-- Node19 -->
<g id="node19" class="node">
<title>Node19</title>
<g id="a_node19"><a xlink:title=" ">
<polygon fill="none" stroke="#bfbfbf" points="2890.07,-56.5 2890.07,-86.5 3000.07,-86.5 3000.07,-56.5 2890.07,-56.5"/>
<text text-anchor="start" x="2898.07" y="-74.5" font-family="Helvetica,sans-Serif" font-size="10.00">llvm/ExecutionEngine</text>
<text text-anchor="middle" x="2945.07" y="-63.5" font-family="Helvetica,sans-Serif" font-size="10.00">/Orc/ExecutionUtils.h</text>
</a>
</g>
</g>
<!-- Node12&#45;&gt;Node19 -->
<g id="edge18" class="edge">
<title>Node12&#45;&gt;Node19</title>
<path fill="none" stroke="midnightblue" d="M1888.93,-131.61C2008.02,-129.09 2657.71,-114.31 2879.93,-86.78"/>
<polygon fill="midnightblue" stroke="midnightblue" points="2880.4,-90.25 2889.87,-85.5 2879.51,-83.31 2880.4,-90.25"/>
</g>
<!-- Node20 -->
<g id="node20" class="node">
<title>Node20</title>
<g id="a_node20"><a xlink:title=" ">
<polygon fill="none" stroke="#bfbfbf" points="3018.07,-56.5 3018.07,-86.5 3170.07,-86.5 3170.07,-56.5 3018.07,-56.5"/>
<text text-anchor="start" x="3026.07" y="-74.5" font-family="Helvetica,sans-Serif" font-size="10.00">llvm/ExecutionEngine</text>
<text text-anchor="middle" x="3094.07" y="-63.5" font-family="Helvetica,sans-Serif" font-size="10.00">/Orc/ExecutorProcessControl.h</text>
</a>
</g>
</g>
<!-- Node12&#45;&gt;Node20 -->
<g id="edge19" class="edge">
<title>Node12&#45;&gt;Node20</title>
<path fill="none" stroke="midnightblue" d="M1888.92,-132.17C1996.93,-132.94 2548.22,-134.33 3007.53,-87.07"/>
<polygon fill="midnightblue" stroke="midnightblue" points="3008.09,-90.53 3017.68,-86.01 3007.37,-83.56 3008.09,-90.53"/>
</g>
<!-- Node21 -->
<g id="node21" class="node">
<title>Node21</title>
<g id="a_node21"><a xlink:title=" ">
<polygon fill="none" stroke="#bfbfbf" points="316.57,-56.5 316.57,-86.5 431.57,-86.5 431.57,-56.5 316.57,-56.5"/>
<text text-anchor="start" x="324.57" y="-74.5" font-family="Helvetica,sans-Serif" font-size="10.00">llvm/ExecutionEngine</text>
<text text-anchor="middle" x="374.07" y="-63.5" font-family="Helvetica,sans-Serif" font-size="10.00">/Orc/IRCompileLayer.h</text>
</a>
</g>
</g>
<!-- Node12&#45;&gt;Node21 -->
<g id="edge20" class="edge">
<title>Node12&#45;&gt;Node21</title>
<path fill="none" stroke="midnightblue" d="M1851.55,-131.62C1697.53,-128.44 630.38,-105.9 441.9,-86.8"/>
<polygon fill="midnightblue" stroke="midnightblue" points="442.03,-83.3 431.7,-85.67 441.25,-90.25 442.03,-83.3"/>
</g>
<!-- Node22 -->
<g id="node22" class="node">
<title>Node22</title>
<g id="a_node22"><a xlink:title=" ">
<polygon fill="none" stroke="#bfbfbf" points="450.07,-56.5 450.07,-86.5 572.07,-86.5 572.07,-56.5 450.07,-56.5"/>
<text text-anchor="start" x="458.07" y="-74.5" font-family="Helvetica,sans-Serif" font-size="10.00">llvm/ExecutionEngine</text>
<text text-anchor="middle" x="511.07" y="-63.5" font-family="Helvetica,sans-Serif" font-size="10.00">/Orc/IRTransformLayer.h</text>
</a>
</g>
</g>
<!-- Node12&#45;&gt;Node22 -->
<g id="edge21" class="edge">
<title>Node12&#45;&gt;Node22</title>
<path fill="none" stroke="midnightblue" d="M1851.53,-131.54C1706.48,-127.94 754.84,-103.88 582.63,-86.93"/>
<polygon fill="midnightblue" stroke="midnightblue" points="582.75,-83.42 572.43,-85.82 582,-90.38 582.75,-83.42"/>
</g>
<!-- Node23 -->
<g id="node23" class="node">
<title>Node23</title>
<g id="a_node23"><a xlink:title=" ">
<polygon fill="none" stroke="#bfbfbf" points="590.07,-56.5 590.07,-86.5 742.07,-86.5 742.07,-56.5 590.07,-56.5"/>
<text text-anchor="start" x="598.07" y="-74.5" font-family="Helvetica,sans-Serif" font-size="10.00">llvm/ExecutionEngine</text>
<text text-anchor="middle" x="666.07" y="-63.5" font-family="Helvetica,sans-Serif" font-size="10.00">/Orc/JITTargetMachineBuilder.h</text>
</a>
</g>
</g>
<!-- Node12&#45;&gt;Node23 -->
<g id="edge22" class="edge">
<title>Node12&#45;&gt;Node23</title>
<path fill="none" stroke="midnightblue" d="M1851.3,-131.58C1725.11,-128.68 998.08,-111.23 752.73,-87.05"/>
<polygon fill="midnightblue" stroke="midnightblue" points="752.77,-83.54 742.46,-86.01 752.06,-90.5 752.77,-83.54"/>
</g>
<!-- Node24 -->
<g id="node24" class="node">
<title>Node24</title>
<g id="a_node24"><a xlink:title=" ">
<polygon fill="none" stroke="#bfbfbf" points="760.57,-56.5 760.57,-86.5 921.57,-86.5 921.57,-56.5 760.57,-56.5"/>
<text text-anchor="start" x="768.57" y="-74.5" font-family="Helvetica,sans-Serif" font-size="10.00">llvm/ExecutionEngine</text>
<text text-anchor="middle" x="841.07" y="-63.5" font-family="Helvetica,sans-Serif" font-size="10.00">/Orc/RTDyldObjectLinkingLayer.h</text>
</a>
</g>
</g>
<!-- Node12&#45;&gt;Node24 -->
<g id="edge23" class="edge">
<title>Node12&#45;&gt;Node24</title>
<path fill="none" stroke="midnightblue" d="M1851.48,-131.88C1755.71,-131.11 1308.33,-125.57 931.96,-87"/>
<polygon fill="midnightblue" stroke="midnightblue" points="932.27,-83.52 921.97,-85.97 931.55,-90.48 932.27,-83.52"/>
</g>
<!-- Node25 -->
<g id="node25" class="node">
<title>Node25</title>
<g id="a_node25"><a xlink:title=" ">
<polygon fill="none" stroke="#bfbfbf" points="940.07,-56.5 940.07,-86.5 1074.07,-86.5 1074.07,-56.5 940.07,-56.5"/>
<text text-anchor="start" x="948.07" y="-74.5" font-family="Helvetica,sans-Serif" font-size="10.00">llvm/ExecutionEngine</text>
<text text-anchor="middle" x="1007.07" y="-63.5" font-family="Helvetica,sans-Serif" font-size="10.00">/SectionMemoryManager.h</text>
</a>
</g>
</g>
<!-- Node12&#45;&gt;Node25 -->
<g id="edge24" class="edge">
<title>Node12&#45;&gt;Node25</title>
<path fill="none" stroke="midnightblue" d="M1851.4,-131.84C1765.12,-130.89 1396.38,-124.82 1084.28,-87.03"/>
<polygon fill="midnightblue" stroke="midnightblue" points="1084.48,-83.53 1074.13,-85.79 1083.63,-90.48 1084.48,-83.53"/>
</g>
<!-- Node26 -->
<g id="node26" class="node">
<title>Node26</title>
<g id="a_node26"><a xlink:title=" ">
<polygon fill="none" stroke="#bfbfbf" points="1092.07,-62 1092.07,-81 1198.07,-81 1198.07,-62 1092.07,-62"/>
<text text-anchor="middle" x="1145.07" y="-69" font-family="Helvetica,sans-Serif" font-size="10.00">llvm/IR/DataLayout.h</text>
</a>
</g>
</g>
<!-- Node12&#45;&gt;Node26 -->
<g id="edge25" class="edge">
<title>Node12&#45;&gt;Node26</title>
<path fill="none" stroke="midnightblue" d="M1851.5,-131.84C1772.94,-130.92 1460.36,-124.96 1207.07,-87 1200.61,-86.03 1193.84,-84.74 1187.23,-83.32"/>
<polygon fill="midnightblue" stroke="midnightblue" points="1187.58,-79.81 1177.06,-81.02 1186.04,-86.64 1187.58,-79.81"/>
</g>
<!-- Node27 -->
<g id="node27" class="node">
<title>Node27</title>
<g id="a_node27"><a xlink:title=" ">
<polygon fill="none" stroke="#bfbfbf" points="1216.57,-56.5 1216.57,-86.5 1357.57,-86.5 1357.57,-56.5 1216.57,-56.5"/>
<text text-anchor="start" x="1224.57" y="-74.5" font-family="Helvetica,sans-Serif" font-size="10.00">llvm/Transforms/InstCombine</text>
<text text-anchor="middle" x="1287.07" y="-63.5" font-family="Helvetica,sans-Serif" font-size="10.00">/InstCombine.h</text>
</a>
</g>
</g>
<!-- Node12&#45;&gt;Node27 -->
<g id="edge28" class="edge">
<title>Node12&#45;&gt;Node27</title>
<path fill="none" stroke="midnightblue" d="M1851.47,-130.85C1785.76,-126.68 1558.44,-111.28 1372.07,-87 1370.78,-86.83 1369.47,-86.66 1368.16,-86.48"/>
<polygon fill="midnightblue" stroke="midnightblue" points="1368.36,-82.97 1357.97,-85.02 1367.37,-89.9 1368.36,-82.97"/>
</g>
<!-- Node28 -->
<g id="node28" class="node">
<title>Node28</title>
<g id="a_node28"><a xlink:title=" ">
<polygon fill="none" stroke="#bfbfbf" points="1414.57,-62 1414.57,-81 1537.57,-81 1537.57,-62 1414.57,-62"/>
<text text-anchor="middle" x="1476.07" y="-69" font-family="Helvetica,sans-Serif" font-size="10.00">llvm/Transforms/Scalar.h</text>
</a>
</g>
</g>
<!-- Node12&#45;&gt;Node28 -->
<g id="edge29" class="edge">
<title>Node12&#45;&gt;Node28</title>
<path fill="none" stroke="midnightblue" d="M1851.38,-129.84C1801.58,-124 1661.63,-106.97 1546.07,-87 1539.25,-85.82 1532.08,-84.47 1525.04,-83.07"/>
<polygon fill="midnightblue" stroke="midnightblue" points="1525.36,-79.57 1514.86,-81.01 1523.97,-86.43 1525.36,-79.57"/>
</g>
<!-- Node29 -->
<g id="node29" class="node">
<title>Node29</title>
<g id="a_node29"><a xlink:title=" ">
<polygon fill="none" stroke="#bfbfbf" points="1555.57,-56.5 1555.57,-86.5 1670.57,-86.5 1670.57,-56.5 1555.57,-56.5"/>
<text text-anchor="start" x="1563.57" y="-74.5" font-family="Helvetica,sans-Serif" font-size="10.00">llvm/Transforms/Scalar</text>
<text text-anchor="middle" x="1613.07" y="-63.5" font-family="Helvetica,sans-Serif" font-size="10.00">/GVN.h</text>
</a>
</g>
</g>
<!-- Node12&#45;&gt;Node29 -->
<g id="edge30" class="edge">
<title>Node12&#45;&gt;Node29</title>
<path fill="none" stroke="midnightblue" d="M1851.17,-127.62C1815.74,-119.42 1737.76,-101.37 1680.66,-88.15"/>
<polygon fill="midnightblue" stroke="midnightblue" points="1681.14,-84.67 1670.61,-85.82 1679.56,-91.49 1681.14,-84.67"/>
</g>
<!-- Node30 -->
<g id="node30" class="node">
<title>Node30</title>
<g id="a_node30"><a xlink:title=" ">
<polygon fill="none" stroke="#bfbfbf" points="1689.07,-62 1689.07,-81 1745.07,-81 1745.07,-62 1689.07,-62"/>
<text text-anchor="middle" x="1717.07" y="-69" font-family="Helvetica,sans-Serif" font-size="10.00">algorithm</text>
</a>
</g>
</g>
<!-- Node12&#45;&gt;Node30 -->
<g id="edge31" class="edge">
<title>Node12&#45;&gt;Node30</title>
<path fill="none" stroke="midnightblue" d="M1851.18,-124.69C1828.21,-115.81 1788.28,-100.34 1754.07,-87 1752.24,-86.29 1750.36,-85.55 1748.46,-84.81"/>
<polygon fill="midnightblue" stroke="midnightblue" points="1749.57,-81.48 1738.98,-81.1 1747.02,-88 1749.57,-81.48"/>
</g>
<!-- Node31 -->
<g id="node31" class="node">
<title>Node31</title>
<g id="a_node31"><a xlink:title=" ">
<polygon fill="none" stroke="#bfbfbf" points="1763.07,-62 1763.07,-81 1827.07,-81 1827.07,-62 1763.07,-62"/>
<text text-anchor="middle" x="1795.07" y="-69" font-family="Helvetica,sans-Serif" font-size="10.00">string_view</text>
</a>
</g>
</g>
<!-- Node12&#45;&gt;Node31 -->
<g id="edge32" class="edge">
<title>Node12&#45;&gt;Node31</title>
<path fill="none" stroke="midnightblue" d="M1859.33,-123.48C1847.52,-114.11 1828.33,-98.88 1813.99,-87.51"/>
<polygon fill="midnightblue" stroke="midnightblue" points="1815.81,-84.48 1805.8,-81.01 1811.46,-89.97 1815.81,-84.48"/>
</g>
<!-- Node32 -->
<g id="node32" class="node">
<title>Node32</title>
<g id="a_node32"><a xlink:title=" ">
<polygon fill="none" stroke="#bfbfbf" points="3380.07,-0.5 3380.07,-19.5 3432.07,-19.5 3432.07,-0.5 3380.07,-0.5"/>
<text text-anchor="middle" x="3406.07" y="-7.5" font-family="Helvetica,sans-Serif" font-size="10.00">memory</text>
</a>
</g>
</g>
<!-- Node12&#45;&gt;Node32 -->
<g id="edge34" class="edge">
<title>Node12&#45;&gt;Node32</title>
<path fill="none" stroke="midnightblue" d="M1889.03,-132.08C2040.58,-132.6 3053.08,-134.33 3179.07,-87 3199.47,-79.34 3197.53,-65.66 3217.07,-56 3266.79,-31.43 3330.61,-19.86 3369.91,-14.72"/>
<polygon fill="midnightblue" stroke="midnightblue" points="3370.57,-18.17 3380.07,-13.47 3369.71,-11.22 3370.57,-18.17"/>
</g>
<!-- Node33 -->
<g id="node33" class="node">
<title>Node33</title>
<g id="a_node33"><a xlink:title=" ">
<polygon fill="none" stroke="#bfbfbf" points="3324.57,-62 3324.57,-81 3365.57,-81 3365.57,-62 3324.57,-62"/>
<text text-anchor="middle" x="3345.07" y="-69" font-family="Helvetica,sans-Serif" font-size="10.00">string</text>
</a>
</g>
</g>
<!-- Node12&#45;&gt;Node33 -->
<g id="edge35" class="edge">
<title>Node12&#45;&gt;Node33</title>
<path fill="none" stroke="midnightblue" d="M1888.78,-131.86C2034.57,-130.7 2990.49,-121.86 3277.07,-87 3289.36,-85.5 3302.73,-82.88 3314.32,-80.27"/>
<polygon fill="midnightblue" stroke="midnightblue" points="3315.46,-83.6 3324.4,-77.91 3313.87,-76.78 3315.46,-83.6"/>
</g>
<!-- Node34 -->
<g id="node34" class="node">
<title>Node34</title>
<g id="a_node34"><a xlink:title=" ">
<polygon fill="none" stroke="#bfbfbf" points="1845.57,-62 1845.57,-81 1894.57,-81 1894.57,-62 1845.57,-62"/>
<text text-anchor="middle" x="1870.07" y="-69" font-family="Helvetica,sans-Serif" font-size="10.00">fstream</text>
</a>
</g>
</g>
<!-- Node12&#45;&gt;Node34 -->
<g id="edge37" class="edge">
<title>Node12&#45;&gt;Node34</title>
<path fill="none" stroke="midnightblue" d="M1870.07,-123.48C1870.07,-115.08 1870.07,-101.98 1870.07,-91.16"/>
<polygon fill="midnightblue" stroke="midnightblue" points="1873.57,-91.01 1870.07,-81.01 1866.57,-91.01 1873.57,-91.01"/>
</g>
<!-- Node35 -->
<g id="node35" class="node">
<title>Node35</title>
<g id="a_node35"><a xlink:title=" ">
<polygon fill="none" stroke="#bfbfbf" points="1912.57,-62 1912.57,-81 1967.57,-81 1967.57,-62 1912.57,-62"/>
<text text-anchor="middle" x="1940.07" y="-69" font-family="Helvetica,sans-Serif" font-size="10.00">charconv</text>
</a>
</g>
</g>
<!-- Node12&#45;&gt;Node35 -->
<g id="edge38" class="edge">
<title>Node12&#45;&gt;Node35</title>
<path fill="none" stroke="midnightblue" d="M1880.1,-123.48C1891.12,-114.11 1909.03,-98.88 1922.41,-87.51"/>
<polygon fill="midnightblue" stroke="midnightblue" points="1924.71,-90.15 1930.06,-81.01 1920.17,-84.82 1924.71,-90.15"/>
</g>
<!-- Node36 -->
<g id="node36" class="node">
<title>Node36</title>
<g id="a_node36"><a xlink:title=" ">
<polygon fill="none" stroke="#bfbfbf" points="1986.07,-62 1986.07,-81 2040.07,-81 2040.07,-62 1986.07,-62"/>
<text text-anchor="middle" x="2013.07" y="-69" font-family="Helvetica,sans-Serif" font-size="10.00">iostream</text>
</a>
</g>
</g>
<!-- Node12&#45;&gt;Node36 -->
<g id="edge39" class="edge">
<title>Node12&#45;&gt;Node36</title>
<path fill="none" stroke="midnightblue" d="M1888.77,-124.22C1912.74,-114.25 1954.61,-96.83 1983.07,-84.98"/>
<polygon fill="midnightblue" stroke="midnightblue" points="1984.63,-88.12 1992.52,-81.05 1981.94,-81.66 1984.63,-88.12"/>
</g>
<!-- Node37&#45;&gt;Node2 -->
<g id="edge43" class="edge">
<title>Node37&#45;&gt;Node2</title>
<path fill="none" stroke="midnightblue" d="M3539.89,-128.19C3496.59,-120.7 3397.81,-103.36 3315.07,-87 3303.01,-84.62 3289.79,-81.83 3278.23,-79.35"/>
<polygon fill="midnightblue" stroke="midnightblue" points="3278.69,-75.87 3268.17,-77.17 3277.2,-82.71 3278.69,-75.87"/>
</g>
<!-- Node37&#45;&gt;Node3 -->
<g id="edge41" class="edge">
<title>Node37&#45;&gt;Node3</title>
<path fill="none" stroke="midnightblue" d="M3549.61,-123.48C3535.65,-113.93 3512.81,-98.31 3496.08,-86.87"/>
<polygon fill="midnightblue" stroke="midnightblue" points="3497.74,-83.77 3487.51,-81.01 3493.79,-89.54 3497.74,-83.77"/>
</g>
<!-- Node37&#45;&gt;Node8 -->
<g id="edge46" class="edge">
<title>Node37&#45;&gt;Node8</title>
<path fill="none" stroke="midnightblue" d="M3584.11,-131.4C3615.5,-129.33 3672.83,-120.81 3705.07,-87 3719.61,-71.76 3723.88,-47.26 3724.99,-30.21"/>
<polygon fill="midnightblue" stroke="midnightblue" points="3728.5,-29.92 3725.34,-19.81 3721.51,-29.69 3728.5,-29.92"/>
</g>
<!-- Node37&#45;&gt;Node32 -->
<g id="edge44" class="edge">
<title>Node37&#45;&gt;Node32</title>
<path fill="none" stroke="midnightblue" d="M3556.65,-123.47C3546.64,-108.26 3523.9,-76.17 3498.07,-56 3480.49,-42.27 3458.05,-31.19 3439.73,-23.46"/>
<polygon fill="midnightblue" stroke="midnightblue" points="3440.88,-20.15 3430.3,-19.62 3438.24,-26.64 3440.88,-20.15"/>
</g>
<!-- Node37&#45;&gt;Node33 -->
<g id="edge42" class="edge">
<title>Node37&#45;&gt;Node33</title>
<path fill="none" stroke="midnightblue" d="M3540.07,-125.97C3501.08,-115.28 3419.82,-93 3375.5,-80.84"/>
<polygon fill="midnightblue" stroke="midnightblue" points="3376.42,-77.47 3365.85,-78.2 3374.57,-84.22 3376.42,-77.47"/>
</g>
<!-- Node38 -->
<g id="node38" class="node">
<title>Node38</title>
<g id="a_node38"><a xlink:title=" ">
<polygon fill="none" stroke="#bfbfbf" points="3615.57,-62 3615.57,-81 3696.57,-81 3696.57,-62 3615.57,-62"/>
<text text-anchor="middle" x="3656.07" y="-69" font-family="Helvetica,sans-Serif" font-size="10.00">llvm/IR/Value.h</text>
</a>
</g>
</g>
<!-- Node37&#45;&gt;Node38 -->
<g id="edge45" class="edge">
<title>Node37&#45;&gt;Node38</title>
<path fill="none" stroke="midnightblue" d="M3575.54,-123.48C3590.76,-113.84 3615.76,-98.02 3633.87,-86.55"/>
<polygon fill="midnightblue" stroke="midnightblue" points="3636.05,-89.31 3642.63,-81.01 3632.31,-83.4 3636.05,-89.31"/>
</g>
<!-- Node39 -->
<g id="node39" class="node">
<title>Node39</title>
<g id="a_node39"><a xlink:href="_types_8h.html" target="_top" xlink:title=" ">
<polygon fill="none" stroke="black" points="3546.57,-62 3546.57,-81 3597.57,-81 3597.57,-62 3546.57,-62"/>
<text text-anchor="middle" x="3572.07" y="-69" font-family="Helvetica,sans-Serif" font-size="10.00">Types.h</text>
</a>
</g>
</g>
<!-- Node37&#45;&gt;Node39 -->
<g id="edge47" class="edge">
<title>Node37&#45;&gt;Node39</title>
<path fill="none" stroke="midnightblue" d="M3563.5,-123.48C3564.91,-115.08 3567.12,-101.98 3568.93,-91.16"/>
<polygon fill="midnightblue" stroke="midnightblue" points="3572.43,-91.45 3570.64,-81.01 3565.53,-90.29 3572.43,-91.45"/>
</g>
<!-- Node39&#45;&gt;Node4 -->
<g id="edge48" class="edge">
<title>Node39&#45;&gt;Node4</title>
<path fill="none" stroke="midnightblue" d="M3546.54,-64.49C3532.35,-61.4 3514.32,-57.9 3498.07,-56 3269.21,-29.29 2522.42,-14.33 2368.84,-11.5"/>
<polygon fill="midnightblue" stroke="midnightblue" points="2368.88,-8 2358.82,-11.31 2368.75,-15 2368.88,-8"/>
</g>
<!-- Node39&#45;&gt;Node8 -->
<g id="edge52" class="edge">
<title>Node39&#45;&gt;Node8</title>
<path fill="none" stroke="midnightblue" d="M3591.79,-61.93C3596.46,-59.94 3601.43,-57.87 3606.07,-56 3634.94,-44.39 3668.07,-31.93 3692.03,-23.07"/>
<polygon fill="midnightblue" stroke="midnightblue" points="3693.53,-26.25 3701.7,-19.51 3691.11,-19.68 3693.53,-26.25"/>
</g>
<!-- Node39&#45;&gt;Node32 -->
<g id="edge50" class="edge">
<title>Node39&#45;&gt;Node32</title>
<path fill="none" stroke="midnightblue" d="M3548.39,-61.89C3543.02,-59.95 3537.35,-57.9 3532.07,-56 3500.81,-44.75 3465.16,-32.03 3439.77,-22.99"/>
<polygon fill="midnightblue" stroke="midnightblue" points="3440.83,-19.65 3430.24,-19.59 3438.48,-26.24 3440.83,-19.65"/>
</g>
<!-- Node40 -->
<g id="node40" class="node">
<title>Node40</title>
<g id="a_node40"><a xlink:title=" ">
<polygon fill="none" stroke="#bfbfbf" points="3462.07,-0.5 3462.07,-19.5 3492.07,-19.5 3492.07,-0.5 3462.07,-0.5"/>
<text text-anchor="middle" x="3477.07" y="-7.5" font-family="Helvetica,sans-Serif" font-size="10.00">set</text>
</a>
</g>
</g>
<!-- Node39&#45;&gt;Node40 -->
<g id="edge49" class="edge">
<title>Node39&#45;&gt;Node40</title>
<path fill="none" stroke="midnightblue" d="M3558.46,-61.98C3543.01,-52.3 3517.58,-36.37 3499.25,-24.89"/>
<polygon fill="midnightblue" stroke="midnightblue" points="3500.99,-21.85 3490.66,-19.51 3497.27,-27.78 3500.99,-21.85"/>
</g>
<!-- Node41 -->
<g id="node41" class="node">
<title>Node41</title>
<g id="a_node41"><a xlink:title=" ">
<polygon fill="none" stroke="#bfbfbf" points="3533.57,-0.5 3533.57,-19.5 3610.57,-19.5 3610.57,-0.5 3533.57,-0.5"/>
<text text-anchor="middle" x="3572.07" y="-7.5" font-family="Helvetica,sans-Serif" font-size="10.00">llvm/IR/Type.h</text>
</a>
</g>
</g>
<!-- Node39&#45;&gt;Node41 -->
<g id="edge51" class="edge">
<title>Node39&#45;&gt;Node41</title>
<path fill="none" stroke="midnightblue" d="M3572.07,-61.98C3572.07,-53.58 3572.07,-40.48 3572.07,-29.66"/>
<polygon fill="midnightblue" stroke="midnightblue" points="3575.57,-29.51 3572.07,-19.51 3568.57,-29.51 3575.57,-29.51"/>
</g>
<!-- Node42&#45;&gt;Node2 -->
<g id="edge56" class="edge">
<title>Node42&#45;&gt;Node2</title>
<path fill="none" stroke="midnightblue" d="M3296.76,-123.48C3287.89,-114.37 3273.63,-99.74 3262.65,-88.48"/>
<polygon fill="midnightblue" stroke="midnightblue" points="3264.85,-85.73 3255.37,-81.01 3259.84,-90.61 3264.85,-85.73"/>
</g>
<!-- Node42&#45;&gt;Node3 -->
<g id="edge54" class="edge">
<title>Node42&#45;&gt;Node3</title>
<path fill="none" stroke="midnightblue" d="M3332.28,-124.67C3361,-116.62 3407.39,-102.73 3446.07,-87 3447.72,-86.33 3449.4,-85.6 3451.09,-84.85"/>
<polygon fill="midnightblue" stroke="midnightblue" points="3453.02,-87.8 3460.52,-80.33 3449.99,-81.49 3453.02,-87.8"/>
</g>
<!-- Node42&#45;&gt;Node4 -->
<g id="edge58" class="edge">
<title>Node42&#45;&gt;Node4</title>
<path fill="none" stroke="midnightblue" d="M3304.78,-123.12C3303.71,-106.73 3298.84,-71.97 3277.07,-56 3239.56,-28.48 2521.59,-14.21 2369.3,-11.48"/>
<polygon fill="midnightblue" stroke="midnightblue" points="2369.01,-7.98 2358.95,-11.3 2368.89,-14.98 2369.01,-7.98"/>
</g>
<!-- Node42&#45;&gt;Node32 -->
<g id="edge57" class="edge">
<title>Node42&#45;&gt;Node32</title>
<path fill="none" stroke="midnightblue" d="M3324.31,-123.41C3339.56,-115.75 3360.5,-103.25 3374.07,-87 3388.09,-70.21 3396.77,-46.4 3401.49,-29.92"/>
<polygon fill="midnightblue" stroke="midnightblue" points="3404.98,-30.43 3404.15,-19.87 3398.21,-28.64 3404.98,-30.43"/>
</g>
<!-- Node42&#45;&gt;Node33 -->
<g id="edge55" class="edge">
<title>Node42&#45;&gt;Node33</title>
<path fill="none" stroke="midnightblue" d="M3310.8,-123.48C3316.74,-114.64 3326.19,-100.59 3333.66,-89.48"/>
<polygon fill="midnightblue" stroke="midnightblue" points="3336.68,-91.26 3339.35,-81.01 3330.87,-87.36 3336.68,-91.26"/>
</g>
<!-- Node42&#45;&gt;Node39 -->
<g id="edge60" class="edge">
<title>Node42&#45;&gt;Node39</title>
<path fill="none" stroke="midnightblue" d="M3332.18,-125.13C3335.17,-124.4 3338.19,-123.68 3341.07,-123 3410.04,-106.84 3490.99,-89.52 3536.43,-79.95"/>
<polygon fill="midnightblue" stroke="midnightblue" points="3537.31,-83.34 3546.38,-77.86 3535.87,-76.49 3537.31,-83.34"/>
</g>
<!-- Node42&#45;&gt;Node40 -->
<g id="edge59" class="edge">
<title>Node42&#45;&gt;Node40</title>
<path fill="none" stroke="midnightblue" d="M3327.57,-123.47C3347.11,-115.52 3375.7,-102.58 3398.07,-87 3423.07,-69.59 3447.7,-44.23 3462.64,-27.68"/>
<polygon fill="midnightblue" stroke="midnightblue" points="3465.51,-29.72 3469.52,-19.91 3460.27,-25.07 3465.51,-29.72"/>
</g>
<!-- Node44 -->
<g id="node44" class="node">
<title>Node44</title>
<g id="a_node44"><a xlink:title=" ">
<polygon fill="none" stroke="#bfbfbf" points="3791.07,-62 3791.07,-81 3893.07,-81 3893.07,-62 3791.07,-62"/>
<text text-anchor="middle" x="3842.07" y="-69" font-family="Helvetica,sans-Serif" font-size="10.00">llvm/Support/Error.h</text>
</a>
</g>
</g>
<!-- Node43&#45;&gt;Node44 -->
<g id="edge62" class="edge">
<title>Node43&#45;&gt;Node44</title>
<path fill="none" stroke="midnightblue" d="M3842.07,-123.48C3842.07,-115.08 3842.07,-101.98 3842.07,-91.16"/>
<polygon fill="midnightblue" stroke="midnightblue" points="3845.57,-91.01 3842.07,-81.01 3838.57,-91.01 3845.57,-91.01"/>
</g>
<!-- Node45 -->
<g id="node45" class="node">
<title>Node45</title>
<g id="a_node45"><a xlink:title=" ">
<polygon fill="none" stroke="#bfbfbf" points="3911.07,-62 3911.07,-81 3985.07,-81 3985.07,-62 3911.07,-62"/>
<text text-anchor="middle" x="3948.07" y="-69" font-family="Helvetica,sans-Serif" font-size="10.00">system_error</text>
</a>
</g>
</g>
<!-- Node43&#45;&gt;Node45 -->
<g id="edge63" class="edge">
<title>Node43&#45;&gt;Node45</title>
<path fill="none" stroke="midnightblue" d="M3857.26,-123.48C3874.73,-113.67 3903.65,-97.43 3924.15,-85.92"/>
<polygon fill="midnightblue" stroke="midnightblue" points="3925.9,-88.96 3932.91,-81.01 3922.48,-82.85 3925.9,-88.96"/>
</g>
</g>
</svg>
