<?xml version="1.0" encoding="UTF-8" standalone="no"?>
<!DOCTYPE svg PUBLIC "-//W3C//DTD SVG 1.1//EN"
 "http://www.w3.org/Graphics/SVG/1.1/DTD/svg11.dtd">
<!-- Generated by graphviz version 3.0.0 (20220226.1711)
 -->
<!-- Title: src/include/Context.h Pages: 1 -->
<svg width="788pt" height="196pt"
 viewBox="0.00 0.00 787.50 196.00" xmlns="http://www.w3.org/2000/svg" xmlns:xlink="http://www.w3.org/1999/xlink">
<g id="graph0" class="graph" transform="scale(1 1) rotate(0) translate(4 192)">
<title>src/include/Context.h</title>
<!-- Node1 -->
<g id="node1" class="node">
<title>Node1</title>
<g id="a_node1"><a xlink:title=" ">
<polygon fill="#bfbfbf" stroke="black" points="349,-168.5 349,-187.5 458,-187.5 458,-168.5 349,-168.5"/>
<text text-anchor="middle" x="403.5" y="-175.5" font-family="Helvetica,sans-Serif" font-size="10.00">src/include/Context.h</text>
</a>
</g>
</g>
<!-- Node2 -->
<g id="node2" class="node">
<title>Node2</title>
<g id="a_node2"><a xlink:href="_a_s_t_8cpp.html" target="_top" xlink:title=" ">
<polygon fill="none" stroke="black" points="0,-112.5 0,-131.5 71,-131.5 71,-112.5 0,-112.5"/>
<text text-anchor="middle" x="35.5" y="-119.5" font-family="Helvetica,sans-Serif" font-size="10.00">src/AST.cpp</text>
</a>
</g>
</g>
<!-- Node1&#45;&gt;Node2 -->
<g id="edge1" class="edge">
<title>Node1&#45;&gt;Node2</title>
<path fill="none" stroke="midnightblue" d="M338.62,-169.1C273.28,-160.88 169.65,-147.11 80.5,-132 77.52,-131.49 74.42,-130.94 71.33,-130.36"/>
<polygon fill="midnightblue" stroke="midnightblue" points="338.41,-172.6 348.77,-170.37 339.28,-165.66 338.41,-172.6"/>
</g>
<!-- Node3 -->
<g id="node3" class="node">
<title>Node3</title>
<g id="a_node3"><a xlink:href="_context_8cpp.html" target="_top" xlink:title=" ">
<polygon fill="none" stroke="black" points="89.5,-112.5 89.5,-131.5 175.5,-131.5 175.5,-112.5 89.5,-112.5"/>
<text text-anchor="middle" x="132.5" y="-119.5" font-family="Helvetica,sans-Serif" font-size="10.00">src/Context.cpp</text>
</a>
</g>
</g>
<!-- Node1&#45;&gt;Node3 -->
<g id="edge2" class="edge">
<title>Node1&#45;&gt;Node3</title>
<path fill="none" stroke="midnightblue" d="M350.67,-166.47C299.46,-156.27 222.73,-140.98 175.24,-131.52"/>
<polygon fill="midnightblue" stroke="midnightblue" points="350.07,-169.92 360.56,-168.44 351.44,-163.06 350.07,-169.92"/>
</g>
<!-- Node4 -->
<g id="node4" class="node">
<title>Node4</title>
<g id="a_node4"><a xlink:href="_instructions_8cpp.html" target="_top" xlink:title=" ">
<polygon fill="none" stroke="black" points="193.5,-112.5 193.5,-131.5 295.5,-131.5 295.5,-112.5 193.5,-112.5"/>
<text text-anchor="middle" x="244.5" y="-119.5" font-family="Helvetica,sans-Serif" font-size="10.00">src/Instructions.cpp</text>
</a>
</g>
</g>
<!-- Node1&#45;&gt;Node4 -->
<g id="edge3" class="edge">
<title>Node1&#45;&gt;Node4</title>
<path fill="none" stroke="midnightblue" d="M368.67,-165.17C338.73,-155 296.28,-140.59 269.58,-131.52"/>
<polygon fill="midnightblue" stroke="midnightblue" points="367.71,-168.54 378.31,-168.44 369.96,-161.91 367.71,-168.54"/>
</g>
<!-- Node5 -->
<g id="node5" class="node">
<title>Node5</title>
<g id="a_node5"><a xlink:href="_layout_8cpp.html" target="_top" xlink:title=" ">
<polygon fill="none" stroke="black" points="314,-112.5 314,-131.5 395,-131.5 395,-112.5 314,-112.5"/>
<text text-anchor="middle" x="354.5" y="-119.5" font-family="Helvetica,sans-Serif" font-size="10.00">src/Layout.cpp</text>
</a>
</g>
</g>
<!-- Node1&#45;&gt;Node5 -->
<g id="edge4" class="edge">
<title>Node1&#45;&gt;Node5</title>
<path fill="none" stroke="midnightblue" d="M388.47,-160.43C379.88,-150.97 369.46,-139.48 362.44,-131.75"/>
<polygon fill="midnightblue" stroke="midnightblue" points="386.1,-163.03 395.41,-168.08 391.28,-158.33 386.1,-163.03"/>
</g>
<!-- Node6 -->
<g id="node6" class="node">
<title>Node6</title>
<g id="a_node6"><a xlink:href="_types_8cpp.html" target="_top" xlink:title=" ">
<polygon fill="none" stroke="black" points="413.5,-112.5 413.5,-131.5 491.5,-131.5 491.5,-112.5 413.5,-112.5"/>
<text text-anchor="middle" x="452.5" y="-119.5" font-family="Helvetica,sans-Serif" font-size="10.00">src/Types.cpp</text>
</a>
</g>
</g>
<!-- Node1&#45;&gt;Node6 -->
<g id="edge5" class="edge">
<title>Node1&#45;&gt;Node6</title>
<path fill="none" stroke="midnightblue" d="M418.53,-160.43C427.12,-150.97 437.54,-139.48 444.56,-131.75"/>
<polygon fill="midnightblue" stroke="midnightblue" points="415.72,-158.33 411.59,-168.08 420.9,-163.03 415.72,-158.33"/>
</g>
<!-- Node7 -->
<g id="node7" class="node">
<title>Node7</title>
<g id="a_node7"><a xlink:href="compiler__cli_8cpp.html" target="_top" xlink:title=" ">
<polygon fill="none" stroke="black" points="566.5,-0.5 566.5,-19.5 670.5,-19.5 670.5,-0.5 566.5,-0.5"/>
<text text-anchor="middle" x="618.5" y="-7.5" font-family="Helvetica,sans-Serif" font-size="10.00">src/compiler_cli.cpp</text>
</a>
</g>
</g>
<!-- Node1&#45;&gt;Node7 -->
<g id="edge6" class="edge">
<title>Node1&#45;&gt;Node7</title>
<path fill="none" stroke="midnightblue" d="M444.62,-164.93C463.44,-157.77 484.96,-147.09 500.5,-132 527.59,-105.69 512.45,-83.35 538.5,-56 554.44,-39.27 577.98,-27.05 595.41,-19.61"/>
<polygon fill="midnightblue" stroke="midnightblue" points="443.3,-161.68 435.07,-168.36 445.66,-168.27 443.3,-161.68"/>
</g>
<!-- Node8 -->
<g id="node8" class="node">
<title>Node8</title>
<g id="a_node8"><a xlink:href="_code_gen_8h.html" target="_top" xlink:title=" ">
<polygon fill="none" stroke="black" points="547.5,-112.5 547.5,-131.5 663.5,-131.5 663.5,-112.5 547.5,-112.5"/>
<text text-anchor="middle" x="605.5" y="-119.5" font-family="Helvetica,sans-Serif" font-size="10.00">src/include/CodeGen.h</text>
</a>
</g>
</g>
<!-- Node1&#45;&gt;Node8 -->
<g id="edge7" class="edge">
<title>Node1&#45;&gt;Node8</title>
<path fill="none" stroke="midnightblue" d="M445.29,-165.83C483.43,-155.63 538.98,-140.78 573.64,-131.52"/>
<polygon fill="midnightblue" stroke="midnightblue" points="444.26,-162.48 435.51,-168.44 446.07,-169.24 444.26,-162.48"/>
</g>
<!-- Node10 -->
<g id="node10" class="node">
<title>Node10</title>
<g id="a_node10"><a xlink:href="_program_8hpp.html" target="_top" xlink:title=" ">
<polygon fill="none" stroke="black" points="657.5,-56.5 657.5,-75.5 779.5,-75.5 779.5,-56.5 657.5,-56.5"/>
<text text-anchor="middle" x="718.5" y="-63.5" font-family="Helvetica,sans-Serif" font-size="10.00">src/include/Program.hpp</text>
</a>
</g>
</g>
<!-- Node1&#45;&gt;Node10 -->
<g id="edge11" class="edge">
<title>Node1&#45;&gt;Node10</title>
<path fill="none" stroke="midnightblue" d="M468.43,-171.89C536.9,-165.49 639.36,-152.79 672.5,-132 694.28,-118.33 708.69,-90.21 714.95,-75.86"/>
<polygon fill="midnightblue" stroke="midnightblue" points="467.81,-168.43 458.17,-172.82 468.45,-175.4 467.81,-168.43"/>
</g>
<!-- Node9 -->
<g id="node9" class="node">
<title>Node9</title>
<g id="a_node9"><a xlink:href="_code_gen_8cpp.html" target="_top" xlink:title=" ">
<polygon fill="none" stroke="black" points="547.5,-56.5 547.5,-75.5 639.5,-75.5 639.5,-56.5 547.5,-56.5"/>
<text text-anchor="middle" x="593.5" y="-63.5" font-family="Helvetica,sans-Serif" font-size="10.00">src/CodeGen.cpp</text>
</a>
</g>
</g>
<!-- Node8&#45;&gt;Node9 -->
<g id="edge8" class="edge">
<title>Node8&#45;&gt;Node9</title>
<path fill="none" stroke="midnightblue" d="M601.3,-102.1C599.31,-93.14 597.02,-82.86 595.44,-75.75"/>
<polygon fill="midnightblue" stroke="midnightblue" points="597.93,-103.08 603.52,-112.08 604.77,-101.56 597.93,-103.08"/>
</g>
<!-- Node8&#45;&gt;Node10 -->
<g id="edge9" class="edge">
<title>Node8&#45;&gt;Node10</title>
<path fill="none" stroke="midnightblue" d="M632.5,-108.1C653.61,-98.01 682.36,-84.27 700.68,-75.52"/>
<polygon fill="midnightblue" stroke="midnightblue" points="630.92,-104.97 623.41,-112.44 633.94,-111.29 630.92,-104.97"/>
</g>
<!-- Node10&#45;&gt;Node7 -->
<g id="edge10" class="edge">
<title>Node10&#45;&gt;Node7</title>
<path fill="none" stroke="midnightblue" d="M693.41,-51.45C674.95,-41.48 650.4,-28.23 634.53,-19.65"/>
<polygon fill="midnightblue" stroke="midnightblue" points="691.97,-54.65 702.43,-56.32 695.3,-48.49 691.97,-54.65"/>
</g>
</g>
</svg>
