<?xml version="1.0" encoding="UTF-8" standalone="no"?>
<!DOCTYPE svg PUBLIC "-//W3C//DTD SVG 1.1//EN"
 "http://www.w3.org/Graphics/SVG/1.1/DTD/svg11.dtd">
<!-- Generated by graphviz version 3.0.0 (20220226.1711)
 -->
<!-- Title: src/include/Error.h Pages: 1 -->
<svg width="742pt" height="196pt"
 viewBox="0.00 0.00 741.50 196.00" xmlns="http://www.w3.org/2000/svg" xmlns:xlink="http://www.w3.org/1999/xlink">
<g id="graph0" class="graph" transform="scale(1 1) rotate(0) translate(4 192)">
<title>src/include/Error.h</title>
<!-- Node1 -->
<g id="node1" class="node">
<title>Node1</title>
<g id="a_node1"><a xlink:title=" ">
<polygon fill="#bfbfbf" stroke="black" points="193.5,-168.5 193.5,-187.5 289.5,-187.5 289.5,-168.5 193.5,-168.5"/>
<text text-anchor="middle" x="241.5" y="-175.5" font-family="Helvetica,sans-Serif" font-size="10.00">src/include/Error.h</text>
</a>
</g>
</g>
<!-- Node2 -->
<g id="node2" class="node">
<title>Node2</title>
<g id="a_node2"><a xlink:href="_a_s_t_8cpp.html" target="_top" xlink:title=" ">
<polygon fill="none" stroke="black" points="0,-56.5 0,-75.5 71,-75.5 71,-56.5 0,-56.5"/>
<text text-anchor="middle" x="35.5" y="-63.5" font-family="Helvetica,sans-Serif" font-size="10.00">src/AST.cpp</text>
</a>
</g>
</g>
<!-- Node1&#45;&gt;Node2 -->
<g id="edge1" class="edge">
<title>Node1&#45;&gt;Node2</title>
<path fill="none" stroke="midnightblue" d="M186.85,-166.02C159.59,-158.98 126.88,-148.07 100.5,-132 75.42,-116.72 52.81,-89.83 42.08,-75.91"/>
<polygon fill="midnightblue" stroke="midnightblue" points="186.08,-169.43 196.63,-168.44 187.77,-162.64 186.08,-169.43"/>
</g>
<!-- Node3 -->
<g id="node3" class="node">
<title>Node3</title>
<g id="a_node3"><a xlink:href="_error_8cpp.html" target="_top" xlink:title=" ">
<polygon fill="none" stroke="black" points="110,-112.5 110,-131.5 183,-131.5 183,-112.5 110,-112.5"/>
<text text-anchor="middle" x="146.5" y="-119.5" font-family="Helvetica,sans-Serif" font-size="10.00">src/Error.cpp</text>
</a>
</g>
</g>
<!-- Node1&#45;&gt;Node3 -->
<g id="edge2" class="edge">
<title>Node1&#45;&gt;Node3</title>
<path fill="none" stroke="midnightblue" d="M217.18,-163.18C199.7,-153.24 176.67,-140.15 161.73,-131.65"/>
<polygon fill="midnightblue" stroke="midnightblue" points="215.81,-166.43 226.24,-168.32 219.27,-160.34 215.81,-166.43"/>
</g>
<!-- Node4 -->
<g id="node4" class="node">
<title>Node4</title>
<g id="a_node4"><a xlink:href="_parser_8cpp.html" target="_top" xlink:title=" ">
<polygon fill="none" stroke="black" points="201.5,-112.5 201.5,-131.5 281.5,-131.5 281.5,-112.5 201.5,-112.5"/>
<text text-anchor="middle" x="241.5" y="-119.5" font-family="Helvetica,sans-Serif" font-size="10.00">src/Parser.cpp</text>
</a>
</g>
</g>
<!-- Node1&#45;&gt;Node4 -->
<g id="edge3" class="edge">
<title>Node1&#45;&gt;Node4</title>
<path fill="none" stroke="midnightblue" d="M241.5,-157.8C241.5,-148.91 241.5,-138.78 241.5,-131.75"/>
<polygon fill="midnightblue" stroke="midnightblue" points="238,-158.08 241.5,-168.08 245,-158.08 238,-158.08"/>
</g>
<!-- Node5 -->
<g id="node5" class="node">
<title>Node5</title>
<g id="a_node5"><a xlink:href="_context_8h.html" target="_top" xlink:title=" ">
<polygon fill="none" stroke="black" points="300,-112.5 300,-131.5 409,-131.5 409,-112.5 300,-112.5"/>
<text text-anchor="middle" x="354.5" y="-119.5" font-family="Helvetica,sans-Serif" font-size="10.00">src/include/Context.h</text>
</a>
</g>
</g>
<!-- Node1&#45;&gt;Node5 -->
<g id="edge4" class="edge">
<title>Node1&#45;&gt;Node5</title>
<path fill="none" stroke="midnightblue" d="M268.5,-164.1C289.61,-154.01 318.36,-140.27 336.68,-131.52"/>
<polygon fill="midnightblue" stroke="midnightblue" points="266.92,-160.97 259.41,-168.44 269.94,-167.29 266.92,-160.97"/>
</g>
<!-- Node12 -->
<g id="node12" class="node">
<title>Node12</title>
<g id="a_node12"><a xlink:href="_program_8hpp.html" target="_top" xlink:title=" ">
<polygon fill="none" stroke="black" points="611.5,-0.5 611.5,-19.5 733.5,-19.5 733.5,-0.5 611.5,-0.5"/>
<text text-anchor="middle" x="672.5" y="-7.5" font-family="Helvetica,sans-Serif" font-size="10.00">src/include/Program.hpp</text>
</a>
</g>
</g>
<!-- Node1&#45;&gt;Node12 -->
<g id="edge14" class="edge">
<title>Node1&#45;&gt;Node12</title>
<path fill="none" stroke="midnightblue" d="M299.94,-170.38C402.28,-157.6 607.8,-126.27 657.5,-76 672.48,-60.85 673.68,-33.9 673.16,-19.94"/>
<polygon fill="midnightblue" stroke="midnightblue" points="299.27,-166.93 289.78,-171.63 300.13,-173.88 299.27,-166.93"/>
</g>
<!-- Node5&#45;&gt;Node2 -->
<g id="edge5" class="edge">
<title>Node5&#45;&gt;Node2</title>
<path fill="none" stroke="midnightblue" d="M289.76,-111.01C234.17,-102.29 151.94,-89.01 80.5,-76 77.52,-75.46 74.44,-74.88 71.34,-74.28"/>
<polygon fill="midnightblue" stroke="midnightblue" points="289.4,-114.5 299.82,-112.59 290.48,-107.58 289.4,-114.5"/>
</g>
<!-- Node6 -->
<g id="node6" class="node">
<title>Node6</title>
<g id="a_node6"><a xlink:href="_context_8cpp.html" target="_top" xlink:title=" ">
<polygon fill="none" stroke="black" points="89.5,-56.5 89.5,-75.5 175.5,-75.5 175.5,-56.5 89.5,-56.5"/>
<text text-anchor="middle" x="132.5" y="-63.5" font-family="Helvetica,sans-Serif" font-size="10.00">src/Context.cpp</text>
</a>
</g>
</g>
<!-- Node5&#45;&gt;Node6 -->
<g id="edge6" class="edge">
<title>Node5&#45;&gt;Node6</title>
<path fill="none" stroke="midnightblue" d="M309.38,-110.02C267.44,-99.82 205.85,-84.84 167.51,-75.52"/>
<polygon fill="midnightblue" stroke="midnightblue" points="308.78,-113.48 319.32,-112.44 310.43,-106.68 308.78,-113.48"/>
</g>
<!-- Node7 -->
<g id="node7" class="node">
<title>Node7</title>
<g id="a_node7"><a xlink:href="_instructions_8cpp.html" target="_top" xlink:title=" ">
<polygon fill="none" stroke="black" points="193.5,-56.5 193.5,-75.5 295.5,-75.5 295.5,-56.5 193.5,-56.5"/>
<text text-anchor="middle" x="244.5" y="-63.5" font-family="Helvetica,sans-Serif" font-size="10.00">src/Instructions.cpp</text>
</a>
</g>
</g>
<!-- Node5&#45;&gt;Node7 -->
<g id="edge7" class="edge">
<title>Node5&#45;&gt;Node7</title>
<path fill="none" stroke="midnightblue" d="M327.74,-107.86C307.34,-97.85 279.83,-84.35 262.13,-75.65"/>
<polygon fill="midnightblue" stroke="midnightblue" points="326.31,-111.06 336.83,-112.32 329.39,-104.78 326.31,-111.06"/>
</g>
<!-- Node8 -->
<g id="node8" class="node">
<title>Node8</title>
<g id="a_node8"><a xlink:href="_layout_8cpp.html" target="_top" xlink:title=" ">
<polygon fill="none" stroke="black" points="314,-56.5 314,-75.5 395,-75.5 395,-56.5 314,-56.5"/>
<text text-anchor="middle" x="354.5" y="-63.5" font-family="Helvetica,sans-Serif" font-size="10.00">src/Layout.cpp</text>
</a>
</g>
</g>
<!-- Node5&#45;&gt;Node8 -->
<g id="edge8" class="edge">
<title>Node5&#45;&gt;Node8</title>
<path fill="none" stroke="midnightblue" d="M354.5,-101.8C354.5,-92.91 354.5,-82.78 354.5,-75.75"/>
<polygon fill="midnightblue" stroke="midnightblue" points="351,-102.08 354.5,-112.08 358,-102.08 351,-102.08"/>
</g>
<!-- Node9 -->
<g id="node9" class="node">
<title>Node9</title>
<g id="a_node9"><a xlink:href="_types_8cpp.html" target="_top" xlink:title=" ">
<polygon fill="none" stroke="black" points="413.5,-56.5 413.5,-75.5 491.5,-75.5 491.5,-56.5 413.5,-56.5"/>
<text text-anchor="middle" x="452.5" y="-63.5" font-family="Helvetica,sans-Serif" font-size="10.00">src/Types.cpp</text>
</a>
</g>
</g>
<!-- Node5&#45;&gt;Node9 -->
<g id="edge9" class="edge">
<title>Node5&#45;&gt;Node9</title>
<path fill="none" stroke="midnightblue" d="M379.09,-107.45C397.18,-97.48 421.23,-84.23 436.79,-75.65"/>
<polygon fill="midnightblue" stroke="midnightblue" points="377.31,-104.43 370.25,-112.32 380.69,-110.56 377.31,-104.43"/>
</g>
<!-- Node10 -->
<g id="node10" class="node">
<title>Node10</title>
<g id="a_node10"><a xlink:href="_code_gen_8h.html" target="_top" xlink:title=" ">
<polygon fill="none" stroke="black" points="509.5,-56.5 509.5,-75.5 625.5,-75.5 625.5,-56.5 509.5,-56.5"/>
<text text-anchor="middle" x="567.5" y="-63.5" font-family="Helvetica,sans-Serif" font-size="10.00">src/include/CodeGen.h</text>
</a>
</g>
</g>
<!-- Node5&#45;&gt;Node10 -->
<g id="edge10" class="edge">
<title>Node5&#45;&gt;Node10</title>
<path fill="none" stroke="midnightblue" d="M398.05,-109.96C438.28,-99.76 497.2,-84.82 533.91,-75.52"/>
<polygon fill="midnightblue" stroke="midnightblue" points="397.08,-106.59 388.25,-112.44 398.8,-113.38 397.08,-106.59"/>
</g>
<!-- Node5&#45;&gt;Node12 -->
<g id="edge13" class="edge">
<title>Node5&#45;&gt;Node12</title>
<path fill="none" stroke="midnightblue" d="M419.54,-116.94C491.09,-111.38 600.48,-99.3 634.5,-76 654.56,-62.26 665.53,-34.17 670.03,-19.84"/>
<polygon fill="midnightblue" stroke="midnightblue" points="418.98,-113.47 409.27,-117.71 419.51,-120.45 418.98,-113.47"/>
</g>
<!-- Node11 -->
<g id="node11" class="node">
<title>Node11</title>
<g id="a_node11"><a xlink:href="_code_gen_8cpp.html" target="_top" xlink:title=" ">
<polygon fill="none" stroke="black" points="501.5,-0.5 501.5,-19.5 593.5,-19.5 593.5,-0.5 501.5,-0.5"/>
<text text-anchor="middle" x="547.5" y="-7.5" font-family="Helvetica,sans-Serif" font-size="10.00">src/CodeGen.cpp</text>
</a>
</g>
</g>
<!-- Node10&#45;&gt;Node11 -->
<g id="edge11" class="edge">
<title>Node10&#45;&gt;Node11</title>
<path fill="none" stroke="midnightblue" d="M560.72,-46.69C557.35,-37.59 553.43,-27.01 550.74,-19.75"/>
<polygon fill="midnightblue" stroke="midnightblue" points="557.44,-47.92 564.2,-56.08 564.01,-45.49 557.44,-47.92"/>
</g>
<!-- Node10&#45;&gt;Node12 -->
<g id="edge12" class="edge">
<title>Node10&#45;&gt;Node12</title>
<path fill="none" stroke="midnightblue" d="M593.31,-51.73C612.75,-41.73 638.85,-28.31 655.67,-19.65"/>
<polygon fill="midnightblue" stroke="midnightblue" points="591.66,-48.64 584.37,-56.32 594.86,-54.86 591.66,-48.64"/>
</g>
</g>
</svg>
