<?xml version="1.0" encoding="UTF-8" standalone="no"?>
<!DOCTYPE svg PUBLIC "-//W3C//DTD SVG 1.1//EN"
 "http://www.w3.org/Graphics/SVG/1.1/DTD/svg11.dtd">
<!-- Generated by graphviz version 3.0.0 (20220226.1711)
 -->
<!-- Title: src/Error.cpp Pages: 1 -->
<svg width="7294pt" height="151pt"
 viewBox="0.00 0.00 7294.00 151.00" xmlns="http://www.w3.org/2000/svg" xmlns:xlink="http://www.w3.org/1999/xlink">
<g id="graph0" class="graph" transform="scale(1 1) rotate(0) translate(4 147)">
<title>src/Error.cpp</title>
<!-- Node1 -->
<g id="node1" class="node">
<title>Node1</title>
<g id="a_node1"><a xlink:title=" ">
<polygon fill="#bfbfbf" stroke="black" points="5676.5,-123.5 5676.5,-142.5 5749.5,-142.5 5749.5,-123.5 5676.5,-123.5"/>
<text text-anchor="middle" x="5713" y="-130.5" font-family="Helvetica,sans-Serif" font-size="10.00">src/Error.cpp</text>
</a>
</g>
</g>
<!-- Node2 -->
<g id="node2" class="node">
<title>Node2</title>
<g id="a_node2"><a xlink:href="pch_8h.html" target="_top" xlink:title=" ">
<polygon fill="none" stroke="black" points="4263.5,-67.5 4263.5,-86.5 4304.5,-86.5 4304.5,-67.5 4263.5,-67.5"/>
<text text-anchor="middle" x="4284" y="-74.5" font-family="Helvetica,sans-Serif" font-size="10.00">pch.h</text>
</a>
</g>
</g>
<!-- Node1&#45;&gt;Node2 -->
<g id="edge1" class="edge">
<title>Node1&#45;&gt;Node2</title>
<path fill="none" stroke="midnightblue" d="M5676.24,-130.61C5474.18,-122.98 4500.97,-86.2 4314.81,-79.16"/>
<polygon fill="midnightblue" stroke="midnightblue" points="4314.76,-75.66 4304.64,-78.78 4314.5,-82.66 4314.76,-75.66"/>
</g>
<!-- Node61 -->
<g id="node61" class="node">
<title>Node61</title>
<g id="a_node61"><a xlink:href="_error_8h.html" target="_top" xlink:title=" ">
<polygon fill="none" stroke="black" points="7120,-67.5 7120,-86.5 7166,-86.5 7166,-67.5 7120,-67.5"/>
<text text-anchor="middle" x="7143" y="-74.5" font-family="Helvetica,sans-Serif" font-size="10.00">Error.h</text>
</a>
</g>
</g>
<!-- Node1&#45;&gt;Node61 -->
<g id="edge60" class="edge">
<title>Node1&#45;&gt;Node61</title>
<path fill="none" stroke="midnightblue" d="M5749.79,-130.61C5951.12,-123.01 6917.5,-86.52 7109.71,-79.26"/>
<polygon fill="midnightblue" stroke="midnightblue" points="7109.91,-82.75 7119.77,-78.88 7109.65,-75.76 7109.91,-82.75"/>
</g>
<!-- Node3 -->
<g id="node3" class="node">
<title>Node3</title>
<g id="a_node3"><a xlink:title=" ">
<polygon fill="none" stroke="#bfbfbf" points="0,-6 0,-25 112,-25 112,-6 0,-6"/>
<text text-anchor="middle" x="56" y="-13" font-family="Helvetica,sans-Serif" font-size="10.00">llvm/ADT/STLExtras.h</text>
</a>
</g>
</g>
<!-- Node2&#45;&gt;Node3 -->
<g id="edge2" class="edge">
<title>Node2&#45;&gt;Node3</title>
<path fill="none" stroke="midnightblue" d="M4263.13,-76.04C3964.76,-76.6 560.33,-81.81 121,-31 113.49,-30.13 105.58,-28.76 97.96,-27.2"/>
<polygon fill="midnightblue" stroke="midnightblue" points="98.69,-23.78 88.17,-25.07 97.2,-30.62 98.69,-23.78"/>
</g>
<!-- Node4 -->
<g id="node4" class="node">
<title>Node4</title>
<g id="a_node4"><a xlink:title=" ">
<polygon fill="none" stroke="#bfbfbf" points="130.5,-6 130.5,-25 231.5,-25 231.5,-6 130.5,-6"/>
<text text-anchor="middle" x="181" y="-13" font-family="Helvetica,sans-Serif" font-size="10.00">llvm/ADT/APFloat.h</text>
</a>
</g>
</g>
<!-- Node2&#45;&gt;Node4 -->
<g id="edge3" class="edge">
<title>Node2&#45;&gt;Node4</title>
<path fill="none" stroke="midnightblue" d="M4263.29,-76.06C3970.55,-76.81 666.99,-84.15 241,-31 234.28,-30.16 227.23,-28.86 220.41,-27.36"/>
<polygon fill="midnightblue" stroke="midnightblue" points="221.2,-23.95 210.66,-25.07 219.6,-30.77 221.2,-23.95"/>
</g>
<!-- Node5 -->
<g id="node5" class="node">
<title>Node5</title>
<g id="a_node5"><a xlink:title=" ">
<polygon fill="none" stroke="#bfbfbf" points="250,-6 250,-25 406,-25 406,-6 250,-6"/>
<text text-anchor="middle" x="328" y="-13" font-family="Helvetica,sans-Serif" font-size="10.00">llvm/CodeGen/CommandFlags.h</text>
</a>
</g>
</g>
<!-- Node2&#45;&gt;Node5 -->
<g id="edge4" class="edge">
<title>Node2&#45;&gt;Node5</title>
<path fill="none" stroke="midnightblue" d="M4263.32,-75.95C3977.72,-75.3 823.79,-67.23 415,-31 404.02,-30.03 392.34,-28.46 381.22,-26.7"/>
<polygon fill="midnightblue" stroke="midnightblue" points="381.64,-23.22 371.2,-25.04 380.5,-30.13 381.64,-23.22"/>
</g>
<!-- Node6 -->
<g id="node6" class="node">
<title>Node6</title>
<g id="a_node6"><a xlink:title=" ">
<polygon fill="none" stroke="#bfbfbf" points="424,-6 424,-25 544,-25 544,-6 424,-6"/>
<text text-anchor="middle" x="484" y="-13" font-family="Helvetica,sans-Serif" font-size="10.00">llvm/Object/ObjectFile.h</text>
</a>
</g>
</g>
<!-- Node2&#45;&gt;Node6 -->
<g id="edge5" class="edge">
<title>Node2&#45;&gt;Node6</title>
<path fill="none" stroke="midnightblue" d="M4263.2,-76C3982.35,-75.93 945.98,-74.24 553,-31 544.87,-30.11 536.28,-28.69 528.03,-27.09"/>
<polygon fill="midnightblue" stroke="midnightblue" points="528.68,-23.65 518.18,-25.06 527.27,-30.5 528.68,-23.65"/>
</g>
<!-- Node7 -->
<g id="node7" class="node">
<title>Node7</title>
<g id="a_node7"><a xlink:title=" ">
<polygon fill="none" stroke="#bfbfbf" points="562,-0.5 562,-30.5 672,-30.5 672,-0.5 562,-0.5"/>
<text text-anchor="start" x="570" y="-18.5" font-family="Helvetica,sans-Serif" font-size="10.00">llvm/ExecutionEngine</text>
<text text-anchor="middle" x="617" y="-7.5" font-family="Helvetica,sans-Serif" font-size="10.00">/ExecutionEngine.h</text>
</a>
</g>
</g>
<!-- Node2&#45;&gt;Node7 -->
<g id="edge6" class="edge">
<title>Node2&#45;&gt;Node7</title>
<path fill="none" stroke="midnightblue" d="M4263.49,-76.01C3991.94,-76.08 1108.41,-75.79 682.21,-30.88"/>
<polygon fill="midnightblue" stroke="midnightblue" points="682.36,-27.37 672.03,-29.74 681.58,-34.33 682.36,-27.37"/>
</g>
<!-- Node8 -->
<g id="node8" class="node">
<title>Node8</title>
<g id="a_node8"><a xlink:title=" ">
<polygon fill="none" stroke="#bfbfbf" points="690,-0.5 690,-30.5 800,-30.5 800,-0.5 690,-0.5"/>
<text text-anchor="start" x="698" y="-18.5" font-family="Helvetica,sans-Serif" font-size="10.00">llvm/ExecutionEngine</text>
<text text-anchor="middle" x="745" y="-7.5" font-family="Helvetica,sans-Serif" font-size="10.00">/JITSymbol.h</text>
</a>
</g>
</g>
<!-- Node2&#45;&gt;Node8 -->
<g id="edge7" class="edge">
<title>Node2&#45;&gt;Node8</title>
<path fill="none" stroke="midnightblue" d="M4263.4,-76C3996.63,-75.93 1222.13,-74.27 810.15,-30.87"/>
<polygon fill="midnightblue" stroke="midnightblue" points="810.36,-27.37 800.03,-29.74 809.58,-34.33 810.36,-27.37"/>
</g>
<!-- Node9 -->
<g id="node9" class="node">
<title>Node9</title>
<g id="a_node9"><a xlink:title=" ">
<polygon fill="none" stroke="#bfbfbf" points="818,-0.5 818,-30.5 928,-30.5 928,-0.5 818,-0.5"/>
<text text-anchor="start" x="826" y="-18.5" font-family="Helvetica,sans-Serif" font-size="10.00">llvm/ExecutionEngine</text>
<text text-anchor="middle" x="873" y="-7.5" font-family="Helvetica,sans-Serif" font-size="10.00">/ObjectCache.h</text>
</a>
</g>
</g>
<!-- Node2&#45;&gt;Node9 -->
<g id="edge8" class="edge">
<title>Node2&#45;&gt;Node9</title>
<path fill="none" stroke="midnightblue" d="M4263.35,-75.99C4001.75,-75.79 1335.76,-72.74 938.07,-30.86"/>
<polygon fill="midnightblue" stroke="midnightblue" points="938.36,-27.37 928.03,-29.74 937.58,-34.33 938.36,-27.37"/>
</g>
<!-- Node10 -->
<g id="node10" class="node">
<title>Node10</title>
<g id="a_node10"><a xlink:title=" ">
<polygon fill="none" stroke="#bfbfbf" points="946,-0.5 946,-30.5 1056,-30.5 1056,-0.5 946,-0.5"/>
<text text-anchor="start" x="954" y="-18.5" font-family="Helvetica,sans-Serif" font-size="10.00">llvm/ExecutionEngine</text>
<text text-anchor="middle" x="1001" y="-7.5" font-family="Helvetica,sans-Serif" font-size="10.00">/Orc/CompileUtils.h</text>
</a>
</g>
</g>
<!-- Node2&#45;&gt;Node10 -->
<g id="edge9" class="edge">
<title>Node2&#45;&gt;Node10</title>
<path fill="none" stroke="midnightblue" d="M4263.35,-75.97C4007.3,-75.63 1449.33,-71.23 1065.97,-30.85"/>
<polygon fill="midnightblue" stroke="midnightblue" points="1066.36,-27.37 1056.03,-29.73 1065.58,-34.33 1066.36,-27.37"/>
</g>
<!-- Node11 -->
<g id="node11" class="node">
<title>Node11</title>
<g id="a_node11"><a xlink:title=" ">
<polygon fill="none" stroke="#bfbfbf" points="1074.5,-0.5 1074.5,-30.5 1189.5,-30.5 1189.5,-0.5 1074.5,-0.5"/>
<text text-anchor="start" x="1082.5" y="-18.5" font-family="Helvetica,sans-Serif" font-size="10.00">llvm/ExecutionEngine</text>
<text text-anchor="middle" x="1132" y="-7.5" font-family="Helvetica,sans-Serif" font-size="10.00">/Orc/IRCompileLayer.h</text>
</a>
</g>
</g>
<!-- Node2&#45;&gt;Node11 -->
<g id="edge10" class="edge">
<title>Node2&#45;&gt;Node11</title>
<path fill="none" stroke="midnightblue" d="M4263.44,-75.95C4013.87,-75.31 1569.5,-68.11 1199.71,-30.81"/>
<polygon fill="midnightblue" stroke="midnightblue" points="1199.94,-27.32 1189.62,-29.73 1199.19,-34.28 1199.94,-27.32"/>
</g>
<!-- Node12 -->
<g id="node12" class="node">
<title>Node12</title>
<g id="a_node12"><a xlink:title=" ">
<polygon fill="none" stroke="#bfbfbf" points="1208,-0.5 1208,-30.5 1330,-30.5 1330,-0.5 1208,-0.5"/>
<text text-anchor="start" x="1216" y="-18.5" font-family="Helvetica,sans-Serif" font-size="10.00">llvm/ExecutionEngine</text>
<text text-anchor="middle" x="1269" y="-7.5" font-family="Helvetica,sans-Serif" font-size="10.00">/Orc/IRTransformLayer.h</text>
</a>
</g>
</g>
<!-- Node2&#45;&gt;Node12 -->
<g id="edge11" class="edge">
<title>Node2&#45;&gt;Node12</title>
<path fill="none" stroke="midnightblue" d="M4263.25,-75.92C4018.99,-74.98 1694.51,-65.18 1340.49,-30.94"/>
<polygon fill="midnightblue" stroke="midnightblue" points="1340.66,-27.44 1330.36,-29.89 1339.94,-34.4 1340.66,-27.44"/>
</g>
<!-- Node13 -->
<g id="node13" class="node">
<title>Node13</title>
<g id="a_node13"><a xlink:title=" ">
<polygon fill="none" stroke="#bfbfbf" points="1348,-0.5 1348,-30.5 1458,-30.5 1458,-0.5 1348,-0.5"/>
<text text-anchor="start" x="1356" y="-18.5" font-family="Helvetica,sans-Serif" font-size="10.00">llvm/ExecutionEngine</text>
<text text-anchor="middle" x="1403" y="-7.5" font-family="Helvetica,sans-Serif" font-size="10.00">/Orc/IndirectionUtils.h</text>
</a>
</g>
</g>
<!-- Node2&#45;&gt;Node13 -->
<g id="edge12" class="edge">
<title>Node2&#45;&gt;Node13</title>
<path fill="none" stroke="midnightblue" d="M4263.41,-75.93C4025.91,-75.1 1807.45,-66.48 1467.97,-30.84"/>
<polygon fill="midnightblue" stroke="midnightblue" points="1468.36,-27.37 1458.03,-29.73 1467.58,-34.32 1468.36,-27.37"/>
</g>
<!-- Node14 -->
<g id="node14" class="node">
<title>Node14</title>
<g id="a_node14"><a xlink:title=" ">
<polygon fill="none" stroke="#bfbfbf" points="1476.5,-0.5 1476.5,-30.5 1637.5,-30.5 1637.5,-0.5 1476.5,-0.5"/>
<text text-anchor="start" x="1484.5" y="-18.5" font-family="Helvetica,sans-Serif" font-size="10.00">llvm/ExecutionEngine</text>
<text text-anchor="middle" x="1557" y="-7.5" font-family="Helvetica,sans-Serif" font-size="10.00">/Orc/RTDyldObjectLinkingLayer.h</text>
</a>
</g>
</g>
<!-- Node2&#45;&gt;Node14 -->
<g id="edge13" class="edge">
<title>Node2&#45;&gt;Node14</title>
<path fill="none" stroke="midnightblue" d="M4263.23,-76.06C4047.84,-76.59 2218.83,-79.65 1648.25,-30.99"/>
<polygon fill="midnightblue" stroke="midnightblue" points="1648.15,-27.47 1637.88,-30.09 1647.54,-34.44 1648.15,-27.47"/>
</g>
<!-- Node15 -->
<g id="node15" class="node">
<title>Node15</title>
<g id="a_node15"><a xlink:title=" ">
<polygon fill="none" stroke="#bfbfbf" points="1656,-0.5 1656,-30.5 1788,-30.5 1788,-0.5 1656,-0.5"/>
<text text-anchor="start" x="1664" y="-18.5" font-family="Helvetica,sans-Serif" font-size="10.00">llvm/ExecutionEngine</text>
<text text-anchor="middle" x="1722" y="-7.5" font-family="Helvetica,sans-Serif" font-size="10.00">/RTDyldMemoryManager.h</text>
</a>
</g>
</g>
<!-- Node2&#45;&gt;Node15 -->
<g id="edge14" class="edge">
<title>Node2&#45;&gt;Node15</title>
<path fill="none" stroke="midnightblue" d="M4263.46,-75.85C4042.25,-74.15 2102.54,-58.58 1798.29,-30.92"/>
<polygon fill="midnightblue" stroke="midnightblue" points="1798.45,-27.42 1788.16,-29.93 1797.77,-34.39 1798.45,-27.42"/>
</g>
<!-- Node16 -->
<g id="node16" class="node">
<title>Node16</title>
<g id="a_node16"><a xlink:title=" ">
<polygon fill="none" stroke="#bfbfbf" points="1806,-0.5 1806,-30.5 1940,-30.5 1940,-0.5 1806,-0.5"/>
<text text-anchor="start" x="1814" y="-18.5" font-family="Helvetica,sans-Serif" font-size="10.00">llvm/ExecutionEngine</text>
<text text-anchor="middle" x="1873" y="-7.5" font-family="Helvetica,sans-Serif" font-size="10.00">/SectionMemoryManager.h</text>
</a>
</g>
</g>
<!-- Node2&#45;&gt;Node16 -->
<g id="edge15" class="edge">
<title>Node2&#45;&gt;Node16</title>
<path fill="none" stroke="midnightblue" d="M4263.45,-76.09C4063.12,-76.85 2455.13,-81.4 1950.31,-30.98"/>
<polygon fill="midnightblue" stroke="midnightblue" points="1950.35,-27.46 1940.05,-29.93 1949.64,-34.43 1950.35,-27.46"/>
</g>
<!-- Node17 -->
<g id="node17" class="node">
<title>Node17</title>
<g id="a_node17"><a xlink:title=" ">
<polygon fill="none" stroke="#bfbfbf" points="1958.5,-6 1958.5,-25 2107.5,-25 2107.5,-6 1958.5,-6"/>
<text text-anchor="middle" x="2033" y="-13" font-family="Helvetica,sans-Serif" font-size="10.00">llvm/Support/DynamicLibrary.h</text>
</a>
</g>
</g>
<!-- Node2&#45;&gt;Node17 -->
<g id="edge16" class="edge">
<title>Node2&#45;&gt;Node17</title>
<path fill="none" stroke="midnightblue" d="M4263.43,-76.01C4069.81,-76 2564.48,-74.57 2116,-31 2105.84,-30.01 2095.06,-28.49 2084.75,-26.79"/>
<polygon fill="midnightblue" stroke="midnightblue" points="2085.08,-23.3 2074.63,-25.05 2083.89,-30.19 2085.08,-23.3"/>
</g>
<!-- Node18 -->
<g id="node18" class="node">
<title>Node18</title>
<g id="a_node18"><a xlink:title=" ">
<polygon fill="none" stroke="#bfbfbf" points="7092,-6 7092,-25 7194,-25 7194,-6 7092,-6"/>
<text text-anchor="middle" x="7143" y="-13" font-family="Helvetica,sans-Serif" font-size="10.00">llvm/Support/Error.h</text>
</a>
</g>
</g>
<!-- Node2&#45;&gt;Node18 -->
<g id="edge17" class="edge">
<title>Node2&#45;&gt;Node18</title>
<path fill="none" stroke="midnightblue" d="M4304.82,-75.94C4545.13,-75.23 6790.06,-67.6 7082,-31 7088.82,-30.14 7095.99,-28.83 7102.92,-27.33"/>
<polygon fill="midnightblue" stroke="midnightblue" points="7103.88,-30.7 7112.83,-25.04 7102.3,-23.88 7103.88,-30.7"/>
</g>
<!-- Node19 -->
<g id="node19" class="node">
<title>Node19</title>
<g id="a_node19"><a xlink:title=" ">
<polygon fill="none" stroke="#bfbfbf" points="2125.5,-6 2125.5,-25 2262.5,-25 2262.5,-6 2125.5,-6"/>
<text text-anchor="middle" x="2194" y="-13" font-family="Helvetica,sans-Serif" font-size="10.00">llvm/Support/raw_ostream.h</text>
</a>
</g>
</g>
<!-- Node2&#45;&gt;Node19 -->
<g id="edge18" class="edge">
<title>Node2&#45;&gt;Node19</title>
<path fill="none" stroke="midnightblue" d="M4263.48,-76C4077.9,-75.92 2686.87,-73.92 2272,-31 2262.64,-30.03 2252.73,-28.55 2243.22,-26.89"/>
<polygon fill="midnightblue" stroke="midnightblue" points="2243.57,-23.4 2233.1,-25.05 2242.31,-30.29 2243.57,-23.4"/>
</g>
<!-- Node20 -->
<g id="node20" class="node">
<title>Node20</title>
<g id="a_node20"><a xlink:title=" ">
<polygon fill="none" stroke="#bfbfbf" points="2281,-6 2281,-25 2417,-25 2417,-6 2281,-6"/>
<text text-anchor="middle" x="2349" y="-13" font-family="Helvetica,sans-Serif" font-size="10.00">llvm/Support/TargetSelect.h</text>
</a>
</g>
</g>
<!-- Node2&#45;&gt;Node20 -->
<g id="edge19" class="edge">
<title>Node2&#45;&gt;Node20</title>
<path fill="none" stroke="midnightblue" d="M4263.4,-75.96C4085.6,-75.56 2807.85,-71.31 2426,-31 2416.76,-30.02 2406.97,-28.54 2397.58,-26.88"/>
<polygon fill="midnightblue" stroke="midnightblue" points="2398.07,-23.41 2387.6,-25.03 2396.79,-30.3 2398.07,-23.41"/>
</g>
<!-- Node21 -->
<g id="node21" class="node">
<title>Node21</title>
<g id="a_node21"><a xlink:title=" ">
<polygon fill="none" stroke="#bfbfbf" points="2435.5,-6 2435.5,-25 2578.5,-25 2578.5,-6 2435.5,-6"/>
<text text-anchor="middle" x="2507" y="-13" font-family="Helvetica,sans-Serif" font-size="10.00">llvm/Support/CommandLine.h</text>
</a>
</g>
</g>
<!-- Node2&#45;&gt;Node21 -->
<g id="edge20" class="edge">
<title>Node2&#45;&gt;Node21</title>
<path fill="none" stroke="midnightblue" d="M4263.35,-75.89C4094.24,-74.9 2934.58,-66.9 2587,-31 2577.31,-30 2567.03,-28.48 2557.18,-26.8"/>
<polygon fill="midnightblue" stroke="midnightblue" points="2557.58,-23.32 2547.12,-25.01 2556.35,-30.21 2557.58,-23.32"/>
</g>
<!-- Node22 -->
<g id="node22" class="node">
<title>Node22</title>
<g id="a_node22"><a xlink:title=" ">
<polygon fill="none" stroke="#bfbfbf" points="2596.5,-6 2596.5,-25 2715.5,-25 2715.5,-6 2596.5,-6"/>
<text text-anchor="middle" x="2656" y="-13" font-family="Helvetica,sans-Serif" font-size="10.00">llvm/Support/InitLLVM.h</text>
</a>
</g>
</g>
<!-- Node2&#45;&gt;Node22 -->
<g id="edge21" class="edge">
<title>Node2&#45;&gt;Node22</title>
<path fill="none" stroke="midnightblue" d="M4263.25,-75.92C4101.61,-75.21 3041.77,-69.14 2724,-31 2716.16,-30.06 2707.89,-28.65 2699.92,-27.08"/>
<polygon fill="midnightblue" stroke="midnightblue" points="2700.55,-23.64 2690.04,-25.02 2699.12,-30.49 2700.55,-23.64"/>
</g>
<!-- Node23 -->
<g id="node23" class="node">
<title>Node23</title>
<g id="a_node23"><a xlink:title=" ">
<polygon fill="none" stroke="#bfbfbf" points="2733.5,-6 2733.5,-25 2834.5,-25 2834.5,-6 2733.5,-6"/>
<text text-anchor="middle" x="2784" y="-13" font-family="Helvetica,sans-Serif" font-size="10.00">llvm/Support/Host.h</text>
</a>
</g>
</g>
<!-- Node2&#45;&gt;Node23 -->
<g id="edge22" class="edge">
<title>Node2&#45;&gt;Node23</title>
<path fill="none" stroke="midnightblue" d="M4263.39,-75.94C4109.35,-75.39 3135.87,-70.4 2844,-31 2837.52,-30.13 2830.72,-28.84 2824.12,-27.4"/>
<polygon fill="midnightblue" stroke="midnightblue" points="2824.52,-23.9 2813.99,-25.03 2822.93,-30.71 2824.52,-23.9"/>
</g>
<!-- Node24 -->
<g id="node24" class="node">
<title>Node24</title>
<g id="a_node24"><a xlink:title=" ">
<polygon fill="none" stroke="#bfbfbf" points="2853,-6 2853,-25 2991,-25 2991,-6 2853,-6"/>
<text text-anchor="middle" x="2922" y="-13" font-family="Helvetica,sans-Serif" font-size="10.00">llvm/Target/TargetMachine.h</text>
</a>
</g>
</g>
<!-- Node2&#45;&gt;Node24 -->
<g id="edge23" class="edge">
<title>Node2&#45;&gt;Node24</title>
<path fill="none" stroke="midnightblue" d="M4263.39,-75.7C4119.22,-73.53 3259.69,-59.53 3000,-31 2990.75,-29.98 2980.95,-28.49 2971.53,-26.85"/>
<polygon fill="midnightblue" stroke="midnightblue" points="2971.98,-23.37 2961.51,-25.02 2970.72,-30.26 2971.98,-23.37"/>
</g>
<!-- Node25 -->
<g id="node25" class="node">
<title>Node25</title>
<g id="a_node25"><a xlink:title=" ">
<polygon fill="none" stroke="#bfbfbf" points="3009.5,-6 3009.5,-25 3144.5,-25 3144.5,-6 3009.5,-6"/>
<text text-anchor="middle" x="3077" y="-13" font-family="Helvetica,sans-Serif" font-size="10.00">llvm/Target/TargetOptions.h</text>
</a>
</g>
</g>
<!-- Node2&#45;&gt;Node25 -->
<g id="edge24" class="edge">
<title>Node2&#45;&gt;Node25</title>
<path fill="none" stroke="midnightblue" d="M4263.33,-75.6C4129.16,-72.93 3380.2,-57.05 3153,-31 3144.18,-29.99 3134.84,-28.53 3125.85,-26.93"/>
<polygon fill="midnightblue" stroke="midnightblue" points="3126.36,-23.46 3115.88,-25.07 3125.07,-30.34 3126.36,-23.46"/>
</g>
<!-- Node26 -->
<g id="node26" class="node">
<title>Node26</title>
<g id="a_node26"><a xlink:title=" ">
<polygon fill="none" stroke="#bfbfbf" points="3162.5,-0.5 3162.5,-30.5 3289.5,-30.5 3289.5,-0.5 3162.5,-0.5"/>
<text text-anchor="start" x="3170.5" y="-18.5" font-family="Helvetica,sans-Serif" font-size="10.00">llvm/Target/TargetIntrinsic</text>
<text text-anchor="middle" x="3226" y="-7.5" font-family="Helvetica,sans-Serif" font-size="10.00">Info.h</text>
</a>
</g>
</g>
<!-- Node2&#45;&gt;Node26 -->
<g id="edge25" class="edge">
<title>Node2&#45;&gt;Node26</title>
<path fill="none" stroke="midnightblue" d="M4263.43,-76.23C4160.57,-77.12 3691.77,-78.33 3299.64,-31.07"/>
<polygon fill="midnightblue" stroke="midnightblue" points="3299.87,-27.58 3289.52,-29.84 3299.02,-34.52 3299.87,-27.58"/>
</g>
<!-- Node27 -->
<g id="node27" class="node">
<title>Node27</title>
<g id="a_node27"><a xlink:title=" ">
<polygon fill="none" stroke="#bfbfbf" points="3307.5,-0.5 3307.5,-30.5 3448.5,-30.5 3448.5,-0.5 3307.5,-0.5"/>
<text text-anchor="start" x="3315.5" y="-18.5" font-family="Helvetica,sans-Serif" font-size="10.00">llvm/Transforms/InstCombine</text>
<text text-anchor="middle" x="3378" y="-7.5" font-family="Helvetica,sans-Serif" font-size="10.00">/InstCombine.h</text>
</a>
</g>
</g>
<!-- Node2&#45;&gt;Node27 -->
<g id="edge26" class="edge">
<title>Node2&#45;&gt;Node27</title>
<path fill="none" stroke="midnightblue" d="M4263.48,-75.82C4171.24,-74.84 3785.53,-68.64 3458.74,-30.97"/>
<polygon fill="midnightblue" stroke="midnightblue" points="3458.94,-27.47 3448.6,-29.79 3458.13,-34.42 3458.94,-27.47"/>
</g>
<!-- Node28 -->
<g id="node28" class="node">
<title>Node28</title>
<g id="a_node28"><a xlink:title=" ">
<polygon fill="none" stroke="#bfbfbf" points="3467,-6 3467,-25 3579,-25 3579,-6 3467,-6"/>
<text text-anchor="middle" x="3523" y="-13" font-family="Helvetica,sans-Serif" font-size="10.00">llvm/Transforms/IPO.h</text>
</a>
</g>
</g>
<!-- Node2&#45;&gt;Node28 -->
<g id="edge27" class="edge">
<title>Node2&#45;&gt;Node28</title>
<path fill="none" stroke="midnightblue" d="M4263.38,-75.83C4179.13,-74.89 3852.9,-68.88 3588,-31 3581.08,-30.01 3573.8,-28.68 3566.72,-27.22"/>
<polygon fill="midnightblue" stroke="midnightblue" points="3567.07,-23.72 3556.55,-25.03 3565.59,-30.56 3567.07,-23.72"/>
</g>
<!-- Node29 -->
<g id="node29" class="node">
<title>Node29</title>
<g id="a_node29"><a xlink:title=" ">
<polygon fill="none" stroke="#bfbfbf" points="3597,-0.5 3597,-30.5 3715,-30.5 3715,-0.5 3597,-0.5"/>
<text text-anchor="start" x="3605" y="-18.5" font-family="Helvetica,sans-Serif" font-size="10.00">llvm/Transforms/IPO</text>
<text text-anchor="middle" x="3656" y="-7.5" font-family="Helvetica,sans-Serif" font-size="10.00">/PassManagerBuilder.h</text>
</a>
</g>
</g>
<!-- Node2&#45;&gt;Node29 -->
<g id="edge28" class="edge">
<title>Node2&#45;&gt;Node29</title>
<path fill="none" stroke="midnightblue" d="M4263.3,-75.31C4190.71,-72.68 3940.91,-61.91 3725.18,-31.05"/>
<polygon fill="midnightblue" stroke="midnightblue" points="3725.65,-27.58 3715.26,-29.61 3724.65,-34.51 3725.65,-27.58"/>
</g>
<!-- Node30 -->
<g id="node30" class="node">
<title>Node30</title>
<g id="a_node30"><a xlink:title=" ">
<polygon fill="none" stroke="#bfbfbf" points="3733.5,-6 3733.5,-25 3848.5,-25 3848.5,-6 3733.5,-6"/>
<text text-anchor="middle" x="3791" y="-13" font-family="Helvetica,sans-Serif" font-size="10.00">llvm/Transforms/Utils.h</text>
</a>
</g>
</g>
<!-- Node2&#45;&gt;Node30 -->
<g id="edge29" class="edge">
<title>Node2&#45;&gt;Node30</title>
<path fill="none" stroke="midnightblue" d="M4263.45,-74.65C4201.66,-70.41 4012.26,-56.16 3857,-31 3850.31,-29.92 3843.28,-28.58 3836.4,-27.17"/>
<polygon fill="midnightblue" stroke="midnightblue" points="3836.99,-23.72 3826.48,-25.06 3835.53,-30.56 3836.99,-23.72"/>
</g>
<!-- Node31 -->
<g id="node31" class="node">
<title>Node31</title>
<g id="a_node31"><a xlink:title=" ">
<polygon fill="none" stroke="#bfbfbf" points="3866.5,-0.5 3866.5,-30.5 4049.5,-30.5 4049.5,-0.5 3866.5,-0.5"/>
<text text-anchor="start" x="3874.5" y="-18.5" font-family="Helvetica,sans-Serif" font-size="10.00">llvm/Transforms/Aggressive</text>
<text text-anchor="middle" x="3958" y="-7.5" font-family="Helvetica,sans-Serif" font-size="10.00">InstCombine/AggressiveInstCombine.h</text>
</a>
</g>
</g>
<!-- Node2&#45;&gt;Node31 -->
<g id="edge30" class="edge">
<title>Node2&#45;&gt;Node31</title>
<path fill="none" stroke="midnightblue" d="M4263.11,-72.19C4220.03,-64.32 4119.14,-45.91 4045.13,-32.4"/>
<polygon fill="midnightblue" stroke="midnightblue" points="4045.33,-28.88 4034.87,-30.53 4044.08,-35.77 4045.33,-28.88"/>
</g>
<!-- Node32 -->
<g id="node32" class="node">
<title>Node32</title>
<g id="a_node32"><a xlink:title=" ">
<polygon fill="none" stroke="#bfbfbf" points="4067.5,-6 4067.5,-25 4204.5,-25 4204.5,-6 4067.5,-6"/>
<text text-anchor="middle" x="4136" y="-13" font-family="Helvetica,sans-Serif" font-size="10.00">llvm/Transforms/Vectorize.h</text>
</a>
</g>
</g>
<!-- Node2&#45;&gt;Node32 -->
<g id="edge31" class="edge">
<title>Node2&#45;&gt;Node32</title>
<path fill="none" stroke="midnightblue" d="M4263.42,-67.73C4238.41,-57.67 4195.97,-40.61 4167,-28.96"/>
<polygon fill="midnightblue" stroke="midnightblue" points="4167.95,-25.57 4157.36,-25.09 4165.34,-32.07 4167.95,-25.57"/>
</g>
<!-- Node33 -->
<g id="node33" class="node">
<title>Node33</title>
<g id="a_node33"><a xlink:title=" ">
<polygon fill="none" stroke="#bfbfbf" points="4222.5,-6 4222.5,-25 4345.5,-25 4345.5,-6 4222.5,-6"/>
<text text-anchor="middle" x="4284" y="-13" font-family="Helvetica,sans-Serif" font-size="10.00">llvm/Transforms/Scalar.h</text>
</a>
</g>
</g>
<!-- Node2&#45;&gt;Node33 -->
<g id="edge32" class="edge">
<title>Node2&#45;&gt;Node33</title>
<path fill="none" stroke="midnightblue" d="M4284,-67.48C4284,-59.08 4284,-45.98 4284,-35.16"/>
<polygon fill="midnightblue" stroke="midnightblue" points="4287.5,-35.01 4284,-25.01 4280.5,-35.01 4287.5,-35.01"/>
</g>
<!-- Node34 -->
<g id="node34" class="node">
<title>Node34</title>
<g id="a_node34"><a xlink:title=" ">
<polygon fill="none" stroke="#bfbfbf" points="4363.5,-0.5 4363.5,-30.5 4478.5,-30.5 4478.5,-0.5 4363.5,-0.5"/>
<text text-anchor="start" x="4371.5" y="-18.5" font-family="Helvetica,sans-Serif" font-size="10.00">llvm/Transforms/Scalar</text>
<text text-anchor="middle" x="4421" y="-7.5" font-family="Helvetica,sans-Serif" font-size="10.00">/GVN.h</text>
</a>
</g>
</g>
<!-- Node2&#45;&gt;Node34 -->
<g id="edge33" class="edge">
<title>Node2&#45;&gt;Node34</title>
<path fill="none" stroke="midnightblue" d="M4303.63,-67.48C4323.31,-58.93 4354.22,-45.5 4379.39,-34.57"/>
<polygon fill="midnightblue" stroke="midnightblue" points="4380.93,-37.72 4388.71,-30.52 4378.15,-31.3 4380.93,-37.72"/>
</g>
<!-- Node35 -->
<g id="node35" class="node">
<title>Node35</title>
<g id="a_node35"><a xlink:title=" ">
<polygon fill="none" stroke="#bfbfbf" points="4496.5,-0.5 4496.5,-30.5 4619.5,-30.5 4619.5,-0.5 4496.5,-0.5"/>
<text text-anchor="start" x="4504.5" y="-18.5" font-family="Helvetica,sans-Serif" font-size="10.00">llvm/Analysis/BasicAlias</text>
<text text-anchor="middle" x="4558" y="-7.5" font-family="Helvetica,sans-Serif" font-size="10.00">Analysis.h</text>
</a>
</g>
</g>
<!-- Node2&#45;&gt;Node35 -->
<g id="edge34" class="edge">
<title>Node2&#45;&gt;Node35</title>
<path fill="none" stroke="midnightblue" d="M4304.59,-71.53C4342.67,-63.26 4425.74,-45.22 4486.42,-32.04"/>
<polygon fill="midnightblue" stroke="midnightblue" points="4487.31,-35.43 4496.34,-29.89 4485.82,-28.59 4487.31,-35.43"/>
</g>
<!-- Node36 -->
<g id="node36" class="node">
<title>Node36</title>
<g id="a_node36"><a xlink:title=" ">
<polygon fill="none" stroke="#bfbfbf" points="4637.5,-6 4637.5,-25 4738.5,-25 4738.5,-6 4637.5,-6"/>
<text text-anchor="middle" x="4688" y="-13" font-family="Helvetica,sans-Serif" font-size="10.00">llvm/Analysis/Lint.h</text>
</a>
</g>
</g>
<!-- Node2&#45;&gt;Node36 -->
<g id="edge35" class="edge">
<title>Node2&#45;&gt;Node36</title>
<path fill="none" stroke="midnightblue" d="M4304.67,-74.08C4358.32,-68.91 4506.31,-53.6 4628,-31 4633.74,-29.93 4639.75,-28.67 4645.66,-27.33"/>
<polygon fill="midnightblue" stroke="midnightblue" points="4646.5,-30.73 4655.44,-25.04 4644.9,-23.91 4646.5,-30.73"/>
</g>
<!-- Node37 -->
<g id="node37" class="node">
<title>Node37</title>
<g id="a_node37"><a xlink:title=" ">
<polygon fill="none" stroke="#bfbfbf" points="4757,-6 4757,-25 4873,-25 4873,-6 4757,-6"/>
<text text-anchor="middle" x="4815" y="-13" font-family="Helvetica,sans-Serif" font-size="10.00">llvm/IR/PassManager.h</text>
</a>
</g>
</g>
<!-- Node2&#45;&gt;Node37 -->
<g id="edge36" class="edge">
<title>Node2&#45;&gt;Node37</title>
<path fill="none" stroke="midnightblue" d="M4304.87,-74.82C4370.34,-70.92 4577.4,-57.24 4747,-31 4754.14,-29.9 4761.65,-28.52 4768.97,-27.05"/>
<polygon fill="midnightblue" stroke="midnightblue" points="4769.71,-30.47 4778.79,-25.02 4768.29,-23.62 4769.71,-30.47"/>
</g>
<!-- Node38 -->
<g id="node38" class="node">
<title>Node38</title>
<g id="a_node38"><a xlink:title=" ">
<polygon fill="none" stroke="#bfbfbf" points="4891,-6 4891,-25 4997,-25 4997,-6 4891,-6"/>
<text text-anchor="middle" x="4944" y="-13" font-family="Helvetica,sans-Serif" font-size="10.00">llvm/IR/DataLayout.h</text>
</a>
</g>
</g>
<!-- Node2&#45;&gt;Node38 -->
<g id="edge37" class="edge">
<title>Node2&#45;&gt;Node38</title>
<path fill="none" stroke="midnightblue" d="M4304.52,-75.6C4381.12,-73.88 4657.41,-65.5 4882,-31 4888.38,-30.02 4895.08,-28.73 4901.61,-27.33"/>
<polygon fill="midnightblue" stroke="midnightblue" points="4902.7,-30.67 4911.69,-25.05 4901.16,-23.84 4902.7,-30.67"/>
</g>
<!-- Node39 -->
<g id="node39" class="node">
<title>Node39</title>
<g id="a_node39"><a xlink:title=" ">
<polygon fill="none" stroke="#bfbfbf" points="5015,-6 5015,-25 5163,-25 5163,-6 5015,-6"/>
<text text-anchor="middle" x="5089" y="-13" font-family="Helvetica,sans-Serif" font-size="10.00">llvm/IR/LegacyPassManager.h</text>
</a>
</g>
</g>
<!-- Node2&#45;&gt;Node39 -->
<g id="edge38" class="edge">
<title>Node2&#45;&gt;Node39</title>
<path fill="none" stroke="midnightblue" d="M4304.75,-75.55C4391.03,-73.49 4729.74,-63.64 5006,-31 5015.6,-29.87 5025.77,-28.35 5035.57,-26.73"/>
<polygon fill="midnightblue" stroke="midnightblue" points="5036.36,-30.15 5045.63,-25.01 5035.18,-23.25 5036.36,-30.15"/>
</g>
<!-- Node40 -->
<g id="node40" class="node">
<title>Node40</title>
<g id="a_node40"><a xlink:title=" ">
<polygon fill="none" stroke="#bfbfbf" points="5181.5,-6 5181.5,-25 5272.5,-25 5272.5,-6 5181.5,-6"/>
<text text-anchor="middle" x="5227" y="-13" font-family="Helvetica,sans-Serif" font-size="10.00">llvm/IR/Mangler.h</text>
</a>
</g>
</g>
<!-- Node2&#45;&gt;Node40 -->
<g id="edge39" class="edge">
<title>Node2&#45;&gt;Node40</title>
<path fill="none" stroke="midnightblue" d="M4304.57,-75.54C4420.84,-72.83 4996.78,-58.24 5172,-31 5177.61,-30.13 5183.48,-28.92 5189.2,-27.56"/>
<polygon fill="midnightblue" stroke="midnightblue" points="5190.42,-30.86 5199.26,-25.01 5188.7,-24.08 5190.42,-30.86"/>
</g>
<!-- Node41 -->
<g id="node41" class="node">
<title>Node41</title>
<g id="a_node41"><a xlink:title=" ">
<polygon fill="none" stroke="#bfbfbf" points="5291,-6 5291,-25 5397,-25 5397,-6 5291,-6"/>
<text text-anchor="middle" x="5344" y="-13" font-family="Helvetica,sans-Serif" font-size="10.00">llvm/IR/BasicBlock.h</text>
</a>
</g>
</g>
<!-- Node2&#45;&gt;Node41 -->
<g id="edge40" class="edge">
<title>Node2&#45;&gt;Node41</title>
<path fill="none" stroke="midnightblue" d="M4304.59,-75.58C4429.08,-72.96 5082.5,-58.1 5281,-31 5287.87,-30.06 5295.1,-28.73 5302.11,-27.25"/>
<polygon fill="midnightblue" stroke="midnightblue" points="5303.16,-30.6 5312.16,-25.01 5301.63,-23.77 5303.16,-30.6"/>
</g>
<!-- Node42 -->
<g id="node42" class="node">
<title>Node42</title>
<g id="a_node42"><a xlink:title=" ">
<polygon fill="none" stroke="#bfbfbf" points="5415.5,-6 5415.5,-25 5516.5,-25 5516.5,-6 5415.5,-6"/>
<text text-anchor="middle" x="5466" y="-13" font-family="Helvetica,sans-Serif" font-size="10.00">llvm/IR/Constants.h</text>
</a>
</g>
</g>
<!-- Node2&#45;&gt;Node42 -->
<g id="edge41" class="edge">
<title>Node2&#45;&gt;Node42</title>
<path fill="none" stroke="midnightblue" d="M4304.52,-75.73C4437.73,-73.89 5181.3,-62.34 5406,-31 5412.41,-30.11 5419.13,-28.83 5425.66,-27.39"/>
<polygon fill="midnightblue" stroke="midnightblue" points="5426.76,-30.73 5435.7,-25.05 5425.17,-23.92 5426.76,-30.73"/>
</g>
<!-- Node43 -->
<g id="node43" class="node">
<title>Node43</title>
<g id="a_node43"><a xlink:title=" ">
<polygon fill="none" stroke="#bfbfbf" points="5535,-6 5535,-25 5649,-25 5649,-6 5535,-6"/>
<text text-anchor="middle" x="5592" y="-13" font-family="Helvetica,sans-Serif" font-size="10.00">llvm/IR/DerivedTypes.h</text>
</a>
</g>
</g>
<!-- Node2&#45;&gt;Node43 -->
<g id="edge42" class="edge">
<title>Node2&#45;&gt;Node43</title>
<path fill="none" stroke="midnightblue" d="M4304.83,-75.75C4446.89,-73.96 5274.98,-62.34 5525,-31 5532.55,-30.05 5540.52,-28.67 5548.21,-27.14"/>
<polygon fill="midnightblue" stroke="midnightblue" points="5549.05,-30.54 5558.12,-25.05 5547.61,-23.69 5549.05,-30.54"/>
</g>
<!-- Node44 -->
<g id="node44" class="node">
<title>Node44</title>
<g id="a_node44"><a xlink:title=" ">
<polygon fill="none" stroke="#bfbfbf" points="5667,-6 5667,-25 5761,-25 5761,-6 5667,-6"/>
<text text-anchor="middle" x="5714" y="-13" font-family="Helvetica,sans-Serif" font-size="10.00">llvm/IR/Function.h</text>
</a>
</g>
</g>
<!-- Node2&#45;&gt;Node44 -->
<g id="edge43" class="edge">
<title>Node2&#45;&gt;Node44</title>
<path fill="none" stroke="midnightblue" d="M4304.62,-75.95C4454.64,-75.48 5380.43,-70.98 5658,-31 5663.92,-30.15 5670.12,-28.91 5676.15,-27.5"/>
<polygon fill="midnightblue" stroke="midnightblue" points="5677.19,-30.85 5686.05,-25.03 5675.5,-24.06 5677.19,-30.85"/>
</g>
<!-- Node45 -->
<g id="node45" class="node">
<title>Node45</title>
<g id="a_node45"><a xlink:title=" ">
<polygon fill="none" stroke="#bfbfbf" points="5779.5,-6 5779.5,-25 5874.5,-25 5874.5,-6 5779.5,-6"/>
<text text-anchor="middle" x="5827" y="-13" font-family="Helvetica,sans-Serif" font-size="10.00">llvm/IR/IRBuilder.h</text>
</a>
</g>
</g>
<!-- Node2&#45;&gt;Node45 -->
<g id="edge44" class="edge">
<title>Node2&#45;&gt;Node45</title>
<path fill="none" stroke="midnightblue" d="M4304.52,-76C4461.06,-75.87 5468.56,-73.38 5770,-31 5776.02,-30.15 5782.33,-28.91 5788.46,-27.51"/>
<polygon fill="midnightblue" stroke="midnightblue" points="5789.66,-30.82 5798.54,-25.04 5787.99,-24.03 5789.66,-30.82"/>
</g>
<!-- Node46 -->
<g id="node46" class="node">
<title>Node46</title>
<g id="a_node46"><a xlink:title=" ">
<polygon fill="none" stroke="#bfbfbf" points="5892.5,-6 5892.5,-25 5999.5,-25 5999.5,-6 5892.5,-6"/>
<text text-anchor="middle" x="5946" y="-13" font-family="Helvetica,sans-Serif" font-size="10.00">llvm/IR/Instructions.h</text>
</a>
</g>
</g>
<!-- Node2&#45;&gt;Node46 -->
<g id="edge45" class="edge">
<title>Node2&#45;&gt;Node46</title>
<path fill="none" stroke="midnightblue" d="M4304.75,-75.98C4468.69,-75.75 5557.26,-72.65 5883,-31 5889.96,-30.11 5897.27,-28.79 5904.35,-27.31"/>
<polygon fill="midnightblue" stroke="midnightblue" points="5905.5,-30.64 5914.49,-25.04 5903.97,-23.8 5905.5,-30.64"/>
</g>
<!-- Node47 -->
<g id="node47" class="node">
<title>Node47</title>
<g id="a_node47"><a xlink:title=" ">
<polygon fill="none" stroke="#bfbfbf" points="6018,-6 6018,-25 6134,-25 6134,-6 6018,-6"/>
<text text-anchor="middle" x="6076" y="-13" font-family="Helvetica,sans-Serif" font-size="10.00">llvm/IR/LLVMContext.h</text>
</a>
</g>
</g>
<!-- Node2&#45;&gt;Node47 -->
<g id="edge46" class="edge">
<title>Node2&#45;&gt;Node47</title>
<path fill="none" stroke="midnightblue" d="M4304.71,-75.98C4475.63,-75.78 5655.3,-72.85 6008,-31 6015.84,-30.07 6024.11,-28.67 6032.08,-27.1"/>
<polygon fill="midnightblue" stroke="midnightblue" points="6032.88,-30.51 6041.96,-25.04 6031.46,-23.65 6032.88,-30.51"/>
</g>
<!-- Node48 -->
<g id="node48" class="node">
<title>Node48</title>
<g id="a_node48"><a xlink:title=" ">
<polygon fill="none" stroke="#bfbfbf" points="6152,-6 6152,-25 6240,-25 6240,-6 6152,-6"/>
<text text-anchor="middle" x="6196" y="-13" font-family="Helvetica,sans-Serif" font-size="10.00">llvm/IR/Module.h</text>
</a>
</g>
</g>
<!-- Node2&#45;&gt;Node48 -->
<g id="edge47" class="edge">
<title>Node2&#45;&gt;Node48</title>
<path fill="none" stroke="midnightblue" d="M4304.68,-75.8C4495.83,-73.96 5952.05,-59.01 6143,-31 6148.55,-30.19 6154.34,-28.98 6159.97,-27.61"/>
<polygon fill="midnightblue" stroke="midnightblue" points="6161.07,-30.94 6169.85,-25.01 6159.29,-24.17 6161.07,-30.94"/>
</g>
<!-- Node49 -->
<g id="node49" class="node">
<title>Node49</title>
<g id="a_node49"><a xlink:title=" ">
<polygon fill="none" stroke="#bfbfbf" points="6258.5,-6 6258.5,-25 6335.5,-25 6335.5,-6 6258.5,-6"/>
<text text-anchor="middle" x="6297" y="-13" font-family="Helvetica,sans-Serif" font-size="10.00">llvm/IR/Type.h</text>
</a>
</g>
</g>
<!-- Node2&#45;&gt;Node49 -->
<g id="edge48" class="edge">
<title>Node2&#45;&gt;Node49</title>
<path fill="none" stroke="midnightblue" d="M4304.61,-75.87C4501.52,-74.55 6047.13,-63.19 6249,-31 6253.8,-30.23 6258.79,-29.11 6263.65,-27.83"/>
<polygon fill="midnightblue" stroke="midnightblue" points="6264.73,-31.16 6273.37,-25.02 6262.79,-24.43 6264.73,-31.16"/>
</g>
<!-- Node50 -->
<g id="node50" class="node">
<title>Node50</title>
<g id="a_node50"><a xlink:title=" ">
<polygon fill="none" stroke="#bfbfbf" points="6354,-6 6354,-25 6440,-25 6440,-6 6354,-6"/>
<text text-anchor="middle" x="6397" y="-13" font-family="Helvetica,sans-Serif" font-size="10.00">llvm/IR/Verifier.h</text>
</a>
</g>
</g>
<!-- Node2&#45;&gt;Node50 -->
<g id="edge49" class="edge">
<title>Node2&#45;&gt;Node50</title>
<path fill="none" stroke="midnightblue" d="M4304.65,-75.86C4506.9,-74.41 6131.6,-61.9 6344,-31 6349.55,-30.19 6355.34,-28.99 6360.97,-27.62"/>
<polygon fill="midnightblue" stroke="midnightblue" points="6362.07,-30.95 6370.85,-25.02 6360.29,-24.18 6362.07,-30.95"/>
</g>
<!-- Node51 -->
<g id="node51" class="node">
<title>Node51</title>
<g id="a_node51"><a xlink:title=" ">
<polygon fill="none" stroke="#bfbfbf" points="6458,-6 6458,-25 6514,-25 6514,-6 6458,-6"/>
<text text-anchor="middle" x="6486" y="-13" font-family="Helvetica,sans-Serif" font-size="10.00">algorithm</text>
</a>
</g>
</g>
<!-- Node2&#45;&gt;Node51 -->
<g id="edge50" class="edge">
<title>Node2&#45;&gt;Node51</title>
<path fill="none" stroke="midnightblue" d="M4304.74,-76.01C4513.17,-76.08 6227.45,-75.25 6449,-31 6452.08,-30.38 6455.24,-29.53 6458.34,-28.54"/>
<polygon fill="midnightblue" stroke="midnightblue" points="6459.74,-31.75 6467.94,-25.04 6457.35,-25.18 6459.74,-31.75"/>
</g>
<!-- Node52 -->
<g id="node52" class="node">
<title>Node52</title>
<g id="a_node52"><a xlink:title=" ">
<polygon fill="none" stroke="#bfbfbf" points="6532.5,-6 6532.5,-25 6581.5,-25 6581.5,-6 6532.5,-6"/>
<text text-anchor="middle" x="6557" y="-13" font-family="Helvetica,sans-Serif" font-size="10.00">cassert</text>
</a>
</g>
</g>
<!-- Node2&#45;&gt;Node52 -->
<g id="edge51" class="edge">
<title>Node2&#45;&gt;Node52</title>
<path fill="none" stroke="midnightblue" d="M4304.78,-76.06C4517.4,-76.66 6294.33,-80.12 6523,-31 6525.67,-30.43 6528.4,-29.64 6531.08,-28.73"/>
<polygon fill="midnightblue" stroke="midnightblue" points="6532.44,-31.96 6540.47,-25.05 6529.88,-25.44 6532.44,-31.96"/>
</g>
<!-- Node53 -->
<g id="node53" class="node">
<title>Node53</title>
<g id="a_node53"><a xlink:title=" ">
<polygon fill="none" stroke="#bfbfbf" points="6599.5,-6 6599.5,-25 6644.5,-25 6644.5,-6 6599.5,-6"/>
<text text-anchor="middle" x="6622" y="-13" font-family="Helvetica,sans-Serif" font-size="10.00">cstdlib</text>
</a>
</g>
</g>
<!-- Node2&#45;&gt;Node53 -->
<g id="edge52" class="edge">
<title>Node2&#45;&gt;Node53</title>
<path fill="none" stroke="midnightblue" d="M4304.73,-76.1C4520.65,-77.13 6354.81,-84.21 6590,-31 6592.36,-30.47 6594.76,-29.75 6597.12,-28.92"/>
<polygon fill="midnightblue" stroke="midnightblue" points="6598.59,-32.1 6606.49,-25.05 6595.91,-25.63 6598.59,-32.1"/>
</g>
<!-- Node54 -->
<g id="node54" class="node">
<title>Node54</title>
<g id="a_node54"><a xlink:title=" ">
<polygon fill="none" stroke="#bfbfbf" points="6663,-6 6663,-25 6709,-25 6709,-6 6663,-6"/>
<text text-anchor="middle" x="6686" y="-13" font-family="Helvetica,sans-Serif" font-size="10.00">chrono</text>
</a>
</g>
</g>
<!-- Node2&#45;&gt;Node54 -->
<g id="edge53" class="edge">
<title>Node2&#45;&gt;Node54</title>
<path fill="none" stroke="midnightblue" d="M4304.61,-76.1C4523.16,-77.11 6410.82,-84.27 6653,-31 6655.51,-30.45 6658.07,-29.7 6660.59,-28.83"/>
<polygon fill="midnightblue" stroke="midnightblue" points="6662.01,-32.03 6669.98,-25.05 6659.4,-25.54 6662.01,-32.03"/>
</g>
<!-- Node55 -->
<g id="node55" class="node">
<title>Node55</title>
<g id="a_node55"><a xlink:title=" ">
<polygon fill="none" stroke="#bfbfbf" points="6727.5,-6 6727.5,-25 6762.5,-25 6762.5,-6 6727.5,-6"/>
<text text-anchor="middle" x="6745" y="-13" font-family="Helvetica,sans-Serif" font-size="10.00">map</text>
</a>
</g>
</g>
<!-- Node2&#45;&gt;Node55 -->
<g id="edge54" class="edge">
<title>Node2&#45;&gt;Node55</title>
<path fill="none" stroke="midnightblue" d="M4304.64,-75.9C4533.67,-74.73 6594.43,-63.3 6718,-31 6719.66,-30.57 6721.34,-30.01 6722.99,-29.37"/>
<polygon fill="midnightblue" stroke="midnightblue" points="6724.54,-32.51 6732.06,-25.05 6721.53,-26.19 6724.54,-32.51"/>
</g>
<!-- Node56 -->
<g id="node56" class="node">
<title>Node56</title>
<g id="a_node56"><a xlink:title=" ">
<polygon fill="none" stroke="#bfbfbf" points="6781,-6 6781,-25 6833,-25 6833,-6 6781,-6"/>
<text text-anchor="middle" x="6807" y="-13" font-family="Helvetica,sans-Serif" font-size="10.00">memory</text>
</a>
</g>
</g>
<!-- Node2&#45;&gt;Node56 -->
<g id="edge55" class="edge">
<title>Node2&#45;&gt;Node56</title>
<path fill="none" stroke="midnightblue" d="M4304.57,-76.08C4528.81,-76.93 6515.5,-82.92 6771,-31 6773.91,-30.41 6776.88,-29.59 6779.81,-28.64"/>
<polygon fill="midnightblue" stroke="midnightblue" points="6781.3,-31.82 6789.45,-25.06 6778.86,-25.26 6781.3,-31.82"/>
</g>
<!-- Node57 -->
<g id="node57" class="node">
<title>Node57</title>
<g id="a_node57"><a xlink:title=" ">
<polygon fill="none" stroke="#bfbfbf" points="6851.5,-6 6851.5,-25 6892.5,-25 6892.5,-6 6851.5,-6"/>
<text text-anchor="middle" x="6872" y="-13" font-family="Helvetica,sans-Serif" font-size="10.00">string</text>
</a>
</g>
</g>
<!-- Node2&#45;&gt;Node57 -->
<g id="edge56" class="edge">
<title>Node2&#45;&gt;Node57</title>
<path fill="none" stroke="midnightblue" d="M4304.58,-75.89C4539.59,-74.63 6711.23,-62.16 6842,-31 6843.98,-30.53 6845.99,-29.91 6847.97,-29.2"/>
<polygon fill="midnightblue" stroke="midnightblue" points="6849.74,-32.25 6857.52,-25.06 6846.95,-25.83 6849.74,-32.25"/>
</g>
<!-- Node58 -->
<g id="node58" class="node">
<title>Node58</title>
<g id="a_node58"><a xlink:title=" ">
<polygon fill="none" stroke="#bfbfbf" points="6911,-6 6911,-25 6953,-25 6953,-6 6911,-6"/>
<text text-anchor="middle" x="6932" y="-13" font-family="Helvetica,sans-Serif" font-size="10.00">vector</text>
</a>
</g>
</g>
<!-- Node2&#45;&gt;Node58 -->
<g id="edge57" class="edge">
<title>Node2&#45;&gt;Node58</title>
<path fill="none" stroke="midnightblue" d="M4304.68,-75.89C4543.17,-74.63 6766.94,-62.01 6901,-31 6903.21,-30.49 6905.45,-29.81 6907.66,-29.02"/>
<polygon fill="midnightblue" stroke="midnightblue" points="6909.16,-32.18 6917.01,-25.06 6906.43,-25.74 6909.16,-32.18"/>
</g>
<!-- Node59 -->
<g id="node59" class="node">
<title>Node59</title>
<g id="a_node59"><a xlink:title=" ">
<polygon fill="none" stroke="#bfbfbf" points="6971.5,-6 6971.5,-25 7026.5,-25 7026.5,-6 6971.5,-6"/>
<text text-anchor="middle" x="6999" y="-13" font-family="Helvetica,sans-Serif" font-size="10.00">charconv</text>
</a>
</g>
</g>
<!-- Node2&#45;&gt;Node59 -->
<g id="edge58" class="edge">
<title>Node2&#45;&gt;Node59</title>
<path fill="none" stroke="midnightblue" d="M4304.78,-75.86C4546.76,-74.25 6823.79,-58.32 6962,-31 6965.08,-30.39 6968.24,-29.54 6971.34,-28.55"/>
<polygon fill="midnightblue" stroke="midnightblue" points="6972.74,-31.77 6980.95,-25.06 6970.35,-25.19 6972.74,-31.77"/>
</g>
<!-- Node60 -->
<g id="node60" class="node">
<title>Node60</title>
<g id="a_node60"><a xlink:title=" ">
<polygon fill="none" stroke="#bfbfbf" points="7044.5,-6 7044.5,-25 7073.5,-25 7073.5,-6 7044.5,-6"/>
<text text-anchor="middle" x="7059" y="-13" font-family="Helvetica,sans-Serif" font-size="10.00">list</text>
</a>
</g>
</g>
<!-- Node2&#45;&gt;Node60 -->
<g id="edge59" class="edge">
<title>Node2&#45;&gt;Node60</title>
<path fill="none" stroke="midnightblue" d="M4304.6,-75.97C4549.4,-75.6 6895.77,-71.02 7035,-31 7036.08,-30.69 7037.15,-30.32 7038.22,-29.9"/>
<polygon fill="midnightblue" stroke="midnightblue" points="7040.07,-32.88 7047.37,-25.2 7036.88,-26.66 7040.07,-32.88"/>
</g>
<!-- Node61&#45;&gt;Node18 -->
<g id="edge61" class="edge">
<title>Node61&#45;&gt;Node18</title>
<path fill="none" stroke="midnightblue" d="M7143,-67.48C7143,-59.08 7143,-45.98 7143,-35.16"/>
<polygon fill="midnightblue" stroke="midnightblue" points="7146.5,-35.01 7143,-25.01 7139.5,-35.01 7146.5,-35.01"/>
</g>
<!-- Node62 -->
<g id="node62" class="node">
<title>Node62</title>
<g id="a_node62"><a xlink:title=" ">
<polygon fill="none" stroke="#bfbfbf" points="7212,-6 7212,-25 7286,-25 7286,-6 7212,-6"/>
<text text-anchor="middle" x="7249" y="-13" font-family="Helvetica,sans-Serif" font-size="10.00">system_error</text>
</a>
</g>
</g>
<!-- Node61&#45;&gt;Node62 -->
<g id="edge62" class="edge">
<title>Node61&#45;&gt;Node62</title>
<path fill="none" stroke="midnightblue" d="M7158.19,-67.48C7175.66,-57.67 7204.58,-41.43 7225.08,-29.92"/>
<polygon fill="midnightblue" stroke="midnightblue" points="7226.83,-32.96 7233.84,-25.01 7223.41,-26.85 7226.83,-32.96"/>
</g>
</g>
</svg>
