<?xml version="1.0" encoding="UTF-8" standalone="no"?>
<!DOCTYPE svg PUBLIC "-//W3C//DTD SVG 1.1//EN"
 "http://www.w3.org/Graphics/SVG/1.1/DTD/svg11.dtd">
<!-- Generated by graphviz version 3.0.0 (20220226.1711)
 -->
<!-- Title: src/include/Instructions.h Pages: 1 -->
<svg width="544pt" height="140pt"
 viewBox="0.00 0.00 543.50 140.00" xmlns="http://www.w3.org/2000/svg" xmlns:xlink="http://www.w3.org/1999/xlink">
<g id="graph0" class="graph" transform="scale(1 1) rotate(0) translate(4 136)">
<title>src/include/Instructions.h</title>
<!-- Node1 -->
<g id="node1" class="node">
<title>Node1</title>
<g id="a_node1"><a xlink:title=" ">
<polygon fill="#bfbfbf" stroke="black" points="169,-112.5 169,-131.5 294,-131.5 294,-112.5 169,-112.5"/>
<text text-anchor="middle" x="231.5" y="-119.5" font-family="Helvetica,sans-Serif" font-size="10.00">src/include/Instructions.h</text>
</a>
</g>
</g>
<!-- Node2 -->
<g id="node2" class="node">
<title>Node2</title>
<g id="a_node2"><a xlink:title=" ">
<polygon fill="none" stroke="#bfbfbf" points="16,-56.5 16,-75.5 111,-75.5 111,-56.5 16,-56.5"/>
<text text-anchor="middle" x="63.5" y="-63.5" font-family="Helvetica,sans-Serif" font-size="10.00">llvm/IR/IRBuilder.h</text>
</a>
</g>
</g>
<!-- Node1&#45;&gt;Node2 -->
<g id="edge1" class="edge">
<title>Node1&#45;&gt;Node2</title>
<path fill="none" stroke="midnightblue" d="M204.88,-112.44C176.49,-103.32 131.36,-88.81 99.75,-78.65"/>
<polygon fill="midnightblue" stroke="midnightblue" points="100.59,-75.24 90,-75.52 98.44,-81.91 100.59,-75.24"/>
</g>
<!-- Node3 -->
<g id="node3" class="node">
<title>Node3</title>
<g id="a_node3"><a xlink:title=" ">
<polygon fill="none" stroke="#bfbfbf" points="0,-0.5 0,-19.5 107,-19.5 107,-0.5 0,-0.5"/>
<text text-anchor="middle" x="53.5" y="-7.5" font-family="Helvetica,sans-Serif" font-size="10.00">llvm/IR/Instructions.h</text>
</a>
</g>
</g>
<!-- Node1&#45;&gt;Node3 -->
<g id="edge2" class="edge">
<title>Node1&#45;&gt;Node3</title>
<path fill="none" stroke="midnightblue" d="M217.53,-112.37C186.86,-93.41 113.37,-48 76.06,-24.94"/>
<polygon fill="midnightblue" stroke="midnightblue" points="77.75,-21.87 67.4,-19.59 74.07,-27.83 77.75,-21.87"/>
</g>
<!-- Node4 -->
<g id="node4" class="node">
<title>Node4</title>
<g id="a_node4"><a xlink:title=" ">
<polygon fill="none" stroke="#bfbfbf" points="313.5,-56.5 313.5,-75.5 429.5,-75.5 429.5,-56.5 313.5,-56.5"/>
<text text-anchor="middle" x="371.5" y="-63.5" font-family="Helvetica,sans-Serif" font-size="10.00">llvm/IR/LLVMContext.h</text>
</a>
</g>
</g>
<!-- Node1&#45;&gt;Node4 -->
<g id="edge3" class="edge">
<title>Node1&#45;&gt;Node4</title>
<path fill="none" stroke="midnightblue" d="M253.68,-112.44C276.93,-103.48 313.65,-89.31 339.92,-79.18"/>
<polygon fill="midnightblue" stroke="midnightblue" points="341.35,-82.38 349.42,-75.52 338.83,-75.85 341.35,-82.38"/>
</g>
<!-- Node5 -->
<g id="node5" class="node">
<title>Node5</title>
<g id="a_node5"><a xlink:title=" ">
<polygon fill="none" stroke="#bfbfbf" points="447.5,-56.5 447.5,-75.5 535.5,-75.5 535.5,-56.5 447.5,-56.5"/>
<text text-anchor="middle" x="491.5" y="-63.5" font-family="Helvetica,sans-Serif" font-size="10.00">llvm/IR/Module.h</text>
</a>
</g>
</g>
<!-- Node1&#45;&gt;Node5 -->
<g id="edge4" class="edge">
<title>Node1&#45;&gt;Node5</title>
<path fill="none" stroke="midnightblue" d="M272.7,-112.44C318.15,-103 391.34,-87.8 440.41,-77.61"/>
<polygon fill="midnightblue" stroke="midnightblue" points="441.42,-80.98 450.49,-75.52 439.99,-74.12 441.42,-80.98"/>
</g>
<!-- Node6 -->
<g id="node6" class="node">
<title>Node6</title>
<g id="a_node6"><a xlink:title=" ">
<polygon fill="none" stroke="#bfbfbf" points="125,-0.5 125,-19.5 202,-19.5 202,-0.5 125,-0.5"/>
<text text-anchor="middle" x="163.5" y="-7.5" font-family="Helvetica,sans-Serif" font-size="10.00">llvm/IR/Type.h</text>
</a>
</g>
</g>
<!-- Node1&#45;&gt;Node6 -->
<g id="edge5" class="edge">
<title>Node1&#45;&gt;Node6</title>
<path fill="none" stroke="midnightblue" d="M224.28,-112.35C217.07,-103.51 205.88,-89.24 197.5,-76 187.73,-60.57 178.23,-42.02 171.77,-28.7"/>
<polygon fill="midnightblue" stroke="midnightblue" points="174.93,-27.19 167.47,-19.66 168.61,-30.2 174.93,-27.19"/>
</g>
<!-- Node7 -->
<g id="node7" class="node">
<title>Node7</title>
<g id="a_node7"><a xlink:href="_types_8h.html" target="_top" xlink:title=" ">
<polygon fill="none" stroke="black" points="206,-56.5 206,-75.5 257,-75.5 257,-56.5 206,-56.5"/>
<text text-anchor="middle" x="231.5" y="-63.5" font-family="Helvetica,sans-Serif" font-size="10.00">Types.h</text>
</a>
</g>
</g>
<!-- Node1&#45;&gt;Node7 -->
<g id="edge6" class="edge">
<title>Node1&#45;&gt;Node7</title>
<path fill="none" stroke="midnightblue" d="M231.5,-112.08C231.5,-105.01 231.5,-94.86 231.5,-85.99"/>
<polygon fill="midnightblue" stroke="midnightblue" points="235,-85.75 231.5,-75.75 228,-85.75 235,-85.75"/>
</g>
<!-- Node8 -->
<g id="node8" class="node">
<title>Node8</title>
<g id="a_node8"><a xlink:title=" ">
<polygon fill="none" stroke="#bfbfbf" points="339,-0.5 339,-19.5 374,-19.5 374,-0.5 339,-0.5"/>
<text text-anchor="middle" x="356.5" y="-7.5" font-family="Helvetica,sans-Serif" font-size="10.00">map</text>
</a>
</g>
</g>
<!-- Node1&#45;&gt;Node8 -->
<g id="edge12" class="edge">
<title>Node1&#45;&gt;Node8</title>
<path fill="none" stroke="midnightblue" d="M241.38,-112.12C255.37,-99.57 281.8,-75.93 304.5,-56 315.86,-46.03 328.69,-34.92 338.77,-26.23"/>
<polygon fill="midnightblue" stroke="midnightblue" points="341.2,-28.76 346.49,-19.59 336.63,-23.46 341.2,-28.76"/>
</g>
<!-- Node7&#45;&gt;Node3 -->
<g id="edge11" class="edge">
<title>Node7&#45;&gt;Node3</title>
<path fill="none" stroke="midnightblue" d="M206,-57.26C175.99,-48.16 125.88,-32.96 91.34,-22.48"/>
<polygon fill="midnightblue" stroke="midnightblue" points="92.18,-19.08 81.6,-19.52 90.15,-25.78 92.18,-19.08"/>
</g>
<!-- Node7&#45;&gt;Node6 -->
<g id="edge10" class="edge">
<title>Node7&#45;&gt;Node6</title>
<path fill="none" stroke="midnightblue" d="M220.57,-56.32C210.33,-48.18 194.78,-35.84 182.5,-26.09"/>
<polygon fill="midnightblue" stroke="midnightblue" points="184.63,-23.31 174.62,-19.83 180.28,-28.79 184.63,-23.31"/>
</g>
<!-- Node7&#45;&gt;Node8 -->
<g id="edge7" class="edge">
<title>Node7&#45;&gt;Node8</title>
<path fill="none" stroke="midnightblue" d="M251.31,-56.44C272.39,-47.34 305.89,-32.86 329.4,-22.71"/>
<polygon fill="midnightblue" stroke="midnightblue" points="331.02,-25.82 338.81,-18.64 328.24,-19.4 331.02,-25.82"/>
</g>
<!-- Node9 -->
<g id="node9" class="node">
<title>Node9</title>
<g id="a_node9"><a xlink:title=" ">
<polygon fill="none" stroke="#bfbfbf" points="290.5,-0.5 290.5,-19.5 320.5,-19.5 320.5,-0.5 290.5,-0.5"/>
<text text-anchor="middle" x="305.5" y="-7.5" font-family="Helvetica,sans-Serif" font-size="10.00">set</text>
</a>
</g>
</g>
<!-- Node7&#45;&gt;Node9 -->
<g id="edge8" class="edge">
<title>Node7&#45;&gt;Node9</title>
<path fill="none" stroke="midnightblue" d="M243.39,-56.32C254.65,-48.11 271.79,-35.6 285.21,-25.81"/>
<polygon fill="midnightblue" stroke="midnightblue" points="287.38,-28.56 293.39,-19.83 283.25,-22.9 287.38,-28.56"/>
</g>
<!-- Node10 -->
<g id="node10" class="node">
<title>Node10</title>
<g id="a_node10"><a xlink:title=" ">
<polygon fill="none" stroke="#bfbfbf" points="220.5,-0.5 220.5,-19.5 272.5,-19.5 272.5,-0.5 220.5,-0.5"/>
<text text-anchor="middle" x="246.5" y="-7.5" font-family="Helvetica,sans-Serif" font-size="10.00">memory</text>
</a>
</g>
</g>
<!-- Node7&#45;&gt;Node10 -->
<g id="edge9" class="edge">
<title>Node7&#45;&gt;Node10</title>
<path fill="none" stroke="midnightblue" d="M233.98,-56.08C235.99,-48.85 238.89,-38.41 241.39,-29.4"/>
<polygon fill="midnightblue" stroke="midnightblue" points="244.76,-30.32 244.07,-19.75 238.02,-28.45 244.76,-30.32"/>
</g>
</g>
</svg>
