<?xml version="1.0" encoding="UTF-8" standalone="no"?>
<!DOCTYPE svg PUBLIC "-//W3C//DTD SVG 1.1//EN"
 "http://www.w3.org/Graphics/SVG/1.1/DTD/svg11.dtd">
<!-- Generated by graphviz version 3.0.0 (20220226.1711)
 -->
<!-- Title: src/include/JIT.h Pages: 1 -->
<svg width="3367pt" height="95pt"
 viewBox="0.00 0.00 3367.00 95.00" xmlns="http://www.w3.org/2000/svg" xmlns:xlink="http://www.w3.org/1999/xlink">
<g id="graph0" class="graph" transform="scale(1 1) rotate(0) translate(4 91)">
<title>src/include/JIT.h</title>
<!-- Node1 -->
<g id="node1" class="node">
<title>Node1</title>
<g id="a_node1"><a xlink:title=" ">
<polygon fill="#bfbfbf" stroke="black" points="1979.5,-67.5 1979.5,-86.5 2066.5,-86.5 2066.5,-67.5 1979.5,-67.5"/>
<text text-anchor="middle" x="2023" y="-74.5" font-family="Helvetica,sans-Serif" font-size="10.00">src/include/JIT.h</text>
</a>
</g>
</g>
<!-- Node2 -->
<g id="node2" class="node">
<title>Node2</title>
<g id="a_node2"><a xlink:title=" ">
<polygon fill="none" stroke="#bfbfbf" points="0,-6 0,-25 106,-25 106,-6 0,-6"/>
<text text-anchor="middle" x="53" y="-13" font-family="Helvetica,sans-Serif" font-size="10.00">llvm/ADT/StringRef.h</text>
</a>
</g>
</g>
<!-- Node1&#45;&gt;Node2 -->
<g id="edge1" class="edge">
<title>Node1&#45;&gt;Node2</title>
<path fill="none" stroke="midnightblue" d="M1979.25,-76.19C1730.55,-77.1 492.79,-79.11 115,-31 108.15,-30.13 100.95,-28.82 93.98,-27.33"/>
<polygon fill="midnightblue" stroke="midnightblue" points="94.52,-23.87 83.99,-25.07 92.97,-30.7 94.52,-23.87"/>
</g>
<!-- Node3 -->
<g id="node3" class="node">
<title>Node3</title>
<g id="a_node3"><a xlink:title=" ">
<polygon fill="none" stroke="#bfbfbf" points="124,-0.5 124,-30.5 234,-30.5 234,-0.5 124,-0.5"/>
<text text-anchor="start" x="132" y="-18.5" font-family="Helvetica,sans-Serif" font-size="10.00">llvm/ExecutionEngine</text>
<text text-anchor="middle" x="179" y="-7.5" font-family="Helvetica,sans-Serif" font-size="10.00">/JITSymbol.h</text>
</a>
</g>
</g>
<!-- Node1&#45;&gt;Node3 -->
<g id="edge2" class="edge">
<title>Node1&#45;&gt;Node3</title>
<path fill="none" stroke="midnightblue" d="M1979.5,-76.07C1743.57,-76.24 614.88,-74.82 243.99,-30.91"/>
<polygon fill="midnightblue" stroke="midnightblue" points="244.39,-27.43 234.04,-29.69 243.54,-34.38 244.39,-27.43"/>
</g>
<!-- Node4 -->
<g id="node4" class="node">
<title>Node4</title>
<g id="a_node4"><a xlink:title=" ">
<polygon fill="none" stroke="#bfbfbf" points="252.5,-0.5 252.5,-30.5 407.5,-30.5 407.5,-0.5 252.5,-0.5"/>
<text text-anchor="start" x="260.5" y="-18.5" font-family="Helvetica,sans-Serif" font-size="10.00">llvm/ExecutionEngine</text>
<text text-anchor="middle" x="330" y="-7.5" font-family="Helvetica,sans-Serif" font-size="10.00">/Orc/CompileOnDemandLayer.h</text>
</a>
</g>
</g>
<!-- Node1&#45;&gt;Node4 -->
<g id="edge3" class="edge">
<title>Node1&#45;&gt;Node4</title>
<path fill="none" stroke="midnightblue" d="M1979.46,-75.59C1757.93,-73.37 753.69,-61.84 417.94,-30.96"/>
<polygon fill="midnightblue" stroke="midnightblue" points="418,-27.45 407.72,-30 417.34,-34.42 418,-27.45"/>
</g>
<!-- Node5 -->
<g id="node5" class="node">
<title>Node5</title>
<g id="a_node5"><a xlink:title=" ">
<polygon fill="none" stroke="#bfbfbf" points="426,-0.5 426,-30.5 536,-30.5 536,-0.5 426,-0.5"/>
<text text-anchor="start" x="434" y="-18.5" font-family="Helvetica,sans-Serif" font-size="10.00">llvm/ExecutionEngine</text>
<text text-anchor="middle" x="481" y="-7.5" font-family="Helvetica,sans-Serif" font-size="10.00">/Orc/CompileUtils.h</text>
</a>
</g>
</g>
<!-- Node1&#45;&gt;Node5 -->
<g id="edge4" class="edge">
<title>Node1&#45;&gt;Node5</title>
<path fill="none" stroke="midnightblue" d="M1979.43,-75.8C1768.79,-74.69 853.96,-67.83 546.28,-30.94"/>
<polygon fill="midnightblue" stroke="midnightblue" points="546.39,-27.43 536.04,-29.68 545.53,-34.38 546.39,-27.43"/>
</g>
<!-- Node6 -->
<g id="node6" class="node">
<title>Node6</title>
<g id="a_node6"><a xlink:title=" ">
<polygon fill="none" stroke="#bfbfbf" points="554,-0.5 554,-30.5 664,-30.5 664,-0.5 554,-0.5"/>
<text text-anchor="start" x="562" y="-18.5" font-family="Helvetica,sans-Serif" font-size="10.00">llvm/ExecutionEngine</text>
<text text-anchor="middle" x="609" y="-7.5" font-family="Helvetica,sans-Serif" font-size="10.00">/Orc/Core.h</text>
</a>
</g>
</g>
<!-- Node1&#45;&gt;Node6 -->
<g id="edge5" class="edge">
<title>Node1&#45;&gt;Node6</title>
<path fill="none" stroke="midnightblue" d="M1979.25,-75.66C1779.8,-73.92 954.85,-64.88 674.19,-30.94"/>
<polygon fill="midnightblue" stroke="midnightblue" points="674.4,-27.43 664.04,-29.67 673.53,-34.38 674.4,-27.43"/>
</g>
<!-- Node7 -->
<g id="node7" class="node">
<title>Node7</title>
<g id="a_node7"><a xlink:title=" ">
<polygon fill="none" stroke="#bfbfbf" points="682.5,-0.5 682.5,-30.5 813.5,-30.5 813.5,-0.5 682.5,-0.5"/>
<text text-anchor="start" x="690.5" y="-18.5" font-family="Helvetica,sans-Serif" font-size="10.00">llvm/ExecutionEngine</text>
<text text-anchor="middle" x="748" y="-7.5" font-family="Helvetica,sans-Serif" font-size="10.00">/Orc/EPCIndirectionUtils.h</text>
</a>
</g>
</g>
<!-- Node1&#45;&gt;Node7 -->
<g id="edge6" class="edge">
<title>Node1&#45;&gt;Node7</title>
<path fill="none" stroke="midnightblue" d="M1979.2,-75.26C1794.01,-71.99 1073.75,-57.86 823.88,-30.93"/>
<polygon fill="midnightblue" stroke="midnightblue" points="824.09,-27.43 813.76,-29.81 823.31,-34.39 824.09,-27.43"/>
</g>
<!-- Node8 -->
<g id="node8" class="node">
<title>Node8</title>
<g id="a_node8"><a xlink:title=" ">
<polygon fill="none" stroke="#bfbfbf" points="832,-0.5 832,-30.5 942,-30.5 942,-0.5 832,-0.5"/>
<text text-anchor="start" x="840" y="-18.5" font-family="Helvetica,sans-Serif" font-size="10.00">llvm/ExecutionEngine</text>
<text text-anchor="middle" x="887" y="-7.5" font-family="Helvetica,sans-Serif" font-size="10.00">/Orc/ExecutionUtils.h</text>
</a>
</g>
</g>
<!-- Node1&#45;&gt;Node8 -->
<g id="edge7" class="edge">
<title>Node1&#45;&gt;Node8</title>
<path fill="none" stroke="midnightblue" d="M1979.21,-75.22C1806.88,-71.98 1174.35,-58.55 952,-30.92"/>
<polygon fill="midnightblue" stroke="midnightblue" points="952.41,-27.44 942.04,-29.63 951.51,-34.39 952.41,-27.44"/>
</g>
<!-- Node9 -->
<g id="node9" class="node">
<title>Node9</title>
<g id="a_node9"><a xlink:title=" ">
<polygon fill="none" stroke="#bfbfbf" points="960,-0.5 960,-30.5 1112,-30.5 1112,-0.5 960,-0.5"/>
<text text-anchor="start" x="968" y="-18.5" font-family="Helvetica,sans-Serif" font-size="10.00">llvm/ExecutionEngine</text>
<text text-anchor="middle" x="1036" y="-7.5" font-family="Helvetica,sans-Serif" font-size="10.00">/Orc/ExecutorProcessControl.h</text>
</a>
</g>
</g>
<!-- Node1&#45;&gt;Node9 -->
<g id="edge8" class="edge">
<title>Node1&#45;&gt;Node9</title>
<path fill="none" stroke="midnightblue" d="M1979.21,-75.66C1849.77,-74.27 1457.62,-67.23 1122.78,-31.11"/>
<polygon fill="midnightblue" stroke="midnightblue" points="1122.72,-27.58 1112.4,-29.97 1121.96,-34.54 1122.72,-27.58"/>
</g>
<!-- Node10 -->
<g id="node10" class="node">
<title>Node10</title>
<g id="a_node10"><a xlink:title=" ">
<polygon fill="none" stroke="#bfbfbf" points="1130.5,-0.5 1130.5,-30.5 1245.5,-30.5 1245.5,-0.5 1130.5,-0.5"/>
<text text-anchor="start" x="1138.5" y="-18.5" font-family="Helvetica,sans-Serif" font-size="10.00">llvm/ExecutionEngine</text>
<text text-anchor="middle" x="1188" y="-7.5" font-family="Helvetica,sans-Serif" font-size="10.00">/Orc/IRCompileLayer.h</text>
</a>
</g>
</g>
<!-- Node1&#45;&gt;Node10 -->
<g id="edge9" class="edge">
<title>Node1&#45;&gt;Node10</title>
<path fill="none" stroke="midnightblue" d="M1979.47,-75.8C1863.38,-74.77 1536.7,-68.59 1255.62,-30.92"/>
<polygon fill="midnightblue" stroke="midnightblue" points="1256.02,-27.44 1245.64,-29.57 1255.08,-34.38 1256.02,-27.44"/>
</g>
<!-- Node11 -->
<g id="node11" class="node">
<title>Node11</title>
<g id="a_node11"><a xlink:title=" ">
<polygon fill="none" stroke="#bfbfbf" points="1264,-0.5 1264,-30.5 1386,-30.5 1386,-0.5 1264,-0.5"/>
<text text-anchor="start" x="1272" y="-18.5" font-family="Helvetica,sans-Serif" font-size="10.00">llvm/ExecutionEngine</text>
<text text-anchor="middle" x="1325" y="-7.5" font-family="Helvetica,sans-Serif" font-size="10.00">/Orc/IRTransformLayer.h</text>
</a>
</g>
</g>
<!-- Node1&#45;&gt;Node11 -->
<g id="edge10" class="edge">
<title>Node1&#45;&gt;Node11</title>
<path fill="none" stroke="midnightblue" d="M1979.39,-74.87C1878.46,-71.82 1620.86,-61.58 1396.01,-31.01"/>
<polygon fill="midnightblue" stroke="midnightblue" points="1396.38,-27.53 1386,-29.63 1395.43,-34.46 1396.38,-27.53"/>
</g>
<!-- Node12 -->
<g id="node12" class="node">
<title>Node12</title>
<g id="a_node12"><a xlink:title=" ">
<polygon fill="none" stroke="#bfbfbf" points="1404,-0.5 1404,-30.5 1556,-30.5 1556,-0.5 1404,-0.5"/>
<text text-anchor="start" x="1412" y="-18.5" font-family="Helvetica,sans-Serif" font-size="10.00">llvm/ExecutionEngine</text>
<text text-anchor="middle" x="1480" y="-7.5" font-family="Helvetica,sans-Serif" font-size="10.00">/Orc/JITTargetMachineBuilder.h</text>
</a>
</g>
</g>
<!-- Node1&#45;&gt;Node12 -->
<g id="edge11" class="edge">
<title>Node1&#45;&gt;Node12</title>
<path fill="none" stroke="midnightblue" d="M1979.31,-72.75C1899.45,-66.57 1724.38,-52 1566.77,-31.18"/>
<polygon fill="midnightblue" stroke="midnightblue" points="1566.79,-27.65 1556.42,-29.8 1565.87,-34.59 1566.79,-27.65"/>
</g>
<!-- Node13 -->
<g id="node13" class="node">
<title>Node13</title>
<g id="a_node13"><a xlink:title=" ">
<polygon fill="none" stroke="#bfbfbf" points="1574.5,-0.5 1574.5,-30.5 1735.5,-30.5 1735.5,-0.5 1574.5,-0.5"/>
<text text-anchor="start" x="1582.5" y="-18.5" font-family="Helvetica,sans-Serif" font-size="10.00">llvm/ExecutionEngine</text>
<text text-anchor="middle" x="1655" y="-7.5" font-family="Helvetica,sans-Serif" font-size="10.00">/Orc/RTDyldObjectLinkingLayer.h</text>
</a>
</g>
</g>
<!-- Node1&#45;&gt;Node13 -->
<g id="edge12" class="edge">
<title>Node1&#45;&gt;Node13</title>
<path fill="none" stroke="midnightblue" d="M1979.34,-68.94C1922.15,-59.69 1820.44,-43.25 1746.12,-31.23"/>
<polygon fill="midnightblue" stroke="midnightblue" points="1746.25,-27.71 1735.82,-29.57 1745.13,-34.62 1746.25,-27.71"/>
</g>
<!-- Node14 -->
<g id="node14" class="node">
<title>Node14</title>
<g id="a_node14"><a xlink:title=" ">
<polygon fill="none" stroke="#bfbfbf" points="1754,-0.5 1754,-30.5 1888,-30.5 1888,-0.5 1754,-0.5"/>
<text text-anchor="start" x="1762" y="-18.5" font-family="Helvetica,sans-Serif" font-size="10.00">llvm/ExecutionEngine</text>
<text text-anchor="middle" x="1821" y="-7.5" font-family="Helvetica,sans-Serif" font-size="10.00">/SectionMemoryManager.h</text>
</a>
</g>
</g>
<!-- Node1&#45;&gt;Node14 -->
<g id="edge13" class="edge">
<title>Node1&#45;&gt;Node14</title>
<path fill="none" stroke="midnightblue" d="M1994.06,-67.48C1964.02,-58.63 1916.22,-44.55 1878.47,-33.43"/>
<polygon fill="midnightblue" stroke="midnightblue" points="1879.19,-29.99 1868.61,-30.52 1877.21,-36.71 1879.19,-29.99"/>
</g>
<!-- Node15 -->
<g id="node15" class="node">
<title>Node15</title>
<g id="a_node15"><a xlink:title=" ">
<polygon fill="none" stroke="#bfbfbf" points="1906,-6 1906,-25 2012,-25 2012,-6 1906,-6"/>
<text text-anchor="middle" x="1959" y="-13" font-family="Helvetica,sans-Serif" font-size="10.00">llvm/IR/DataLayout.h</text>
</a>
</g>
</g>
<!-- Node1&#45;&gt;Node15 -->
<g id="edge14" class="edge">
<title>Node1&#45;&gt;Node15</title>
<path fill="none" stroke="midnightblue" d="M2013.83,-67.48C2003.85,-58.2 1987.69,-43.17 1975.49,-31.83"/>
<polygon fill="midnightblue" stroke="midnightblue" points="1977.86,-29.25 1968.15,-25.01 1973.09,-34.38 1977.86,-29.25"/>
</g>
<!-- Node16 -->
<g id="node16" class="node">
<title>Node16</title>
<g id="a_node16"><a xlink:title=" ">
<polygon fill="none" stroke="#bfbfbf" points="2030,-6 2030,-25 2146,-25 2146,-6 2030,-6"/>
<text text-anchor="middle" x="2088" y="-13" font-family="Helvetica,sans-Serif" font-size="10.00">llvm/IR/LLVMContext.h</text>
</a>
</g>
</g>
<!-- Node1&#45;&gt;Node16 -->
<g id="edge15" class="edge">
<title>Node1&#45;&gt;Node16</title>
<path fill="none" stroke="midnightblue" d="M2032.31,-67.48C2042.45,-58.2 2058.86,-43.17 2071.25,-31.83"/>
<polygon fill="midnightblue" stroke="midnightblue" points="2073.69,-34.34 2078.7,-25.01 2068.96,-29.18 2073.69,-34.34"/>
</g>
<!-- Node17 -->
<g id="node17" class="node">
<title>Node17</title>
<g id="a_node17"><a xlink:title=" ">
<polygon fill="none" stroke="#bfbfbf" points="2164,-6 2164,-25 2312,-25 2312,-6 2164,-6"/>
<text text-anchor="middle" x="2238" y="-13" font-family="Helvetica,sans-Serif" font-size="10.00">llvm/IR/LegacyPassManager.h</text>
</a>
</g>
</g>
<!-- Node1&#45;&gt;Node17 -->
<g id="edge16" class="edge">
<title>Node1&#45;&gt;Node17</title>
<path fill="none" stroke="midnightblue" d="M2053.8,-67.48C2091.56,-57.03 2155.66,-39.29 2197.41,-27.73"/>
<polygon fill="midnightblue" stroke="midnightblue" points="2198.55,-31.05 2207.25,-25.01 2196.68,-24.3 2198.55,-31.05"/>
</g>
<!-- Node18 -->
<g id="node18" class="node">
<title>Node18</title>
<g id="a_node18"><a xlink:title=" ">
<polygon fill="none" stroke="#bfbfbf" points="2330.5,-0.5 2330.5,-30.5 2471.5,-30.5 2471.5,-0.5 2330.5,-0.5"/>
<text text-anchor="start" x="2338.5" y="-18.5" font-family="Helvetica,sans-Serif" font-size="10.00">llvm/Transforms/InstCombine</text>
<text text-anchor="middle" x="2401" y="-7.5" font-family="Helvetica,sans-Serif" font-size="10.00">/InstCombine.h</text>
</a>
</g>
</g>
<!-- Node1&#45;&gt;Node18 -->
<g id="edge17" class="edge">
<title>Node1&#45;&gt;Node18</title>
<path fill="none" stroke="midnightblue" d="M2066.99,-69.77C2123.26,-61.71 2223.96,-46.98 2320.43,-31.07"/>
<polygon fill="midnightblue" stroke="midnightblue" points="2321.06,-34.51 2330.35,-29.42 2319.91,-27.6 2321.06,-34.51"/>
</g>
<!-- Node19 -->
<g id="node19" class="node">
<title>Node19</title>
<g id="a_node19"><a xlink:title=" ">
<polygon fill="none" stroke="#bfbfbf" points="2489.5,-6 2489.5,-25 2612.5,-25 2612.5,-6 2489.5,-6"/>
<text text-anchor="middle" x="2551" y="-13" font-family="Helvetica,sans-Serif" font-size="10.00">llvm/Transforms/Scalar.h</text>
</a>
</g>
</g>
<!-- Node1&#45;&gt;Node19 -->
<g id="edge18" class="edge">
<title>Node1&#45;&gt;Node19</title>
<path fill="none" stroke="midnightblue" d="M2066.77,-73.26C2148.49,-67.79 2329.74,-54.03 2481,-31 2488.25,-29.9 2495.89,-28.53 2503.35,-27.08"/>
<polygon fill="midnightblue" stroke="midnightblue" points="2504.24,-30.47 2513.35,-25.06 2502.86,-23.61 2504.24,-30.47"/>
</g>
<!-- Node20 -->
<g id="node20" class="node">
<title>Node20</title>
<g id="a_node20"><a xlink:title=" ">
<polygon fill="none" stroke="#bfbfbf" points="2630.5,-0.5 2630.5,-30.5 2745.5,-30.5 2745.5,-0.5 2630.5,-0.5"/>
<text text-anchor="start" x="2638.5" y="-18.5" font-family="Helvetica,sans-Serif" font-size="10.00">llvm/Transforms/Scalar</text>
<text text-anchor="middle" x="2688" y="-7.5" font-family="Helvetica,sans-Serif" font-size="10.00">/GVN.h</text>
</a>
</g>
</g>
<!-- Node1&#45;&gt;Node20 -->
<g id="edge19" class="edge">
<title>Node1&#45;&gt;Node20</title>
<path fill="none" stroke="midnightblue" d="M2066.82,-74.83C2164.56,-71.76 2407.87,-61.59 2620.4,-31.1"/>
<polygon fill="midnightblue" stroke="midnightblue" points="2621.1,-34.54 2630.5,-29.63 2620.1,-27.61 2621.1,-34.54"/>
</g>
<!-- Node21 -->
<g id="node21" class="node">
<title>Node21</title>
<g id="a_node21"><a xlink:title=" ">
<polygon fill="none" stroke="#bfbfbf" points="2764,-6 2764,-25 2820,-25 2820,-6 2764,-6"/>
<text text-anchor="middle" x="2792" y="-13" font-family="Helvetica,sans-Serif" font-size="10.00">algorithm</text>
</a>
</g>
</g>
<!-- Node1&#45;&gt;Node21 -->
<g id="edge20" class="edge">
<title>Node1&#45;&gt;Node21</title>
<path fill="none" stroke="midnightblue" d="M2066.81,-75.09C2203.77,-71.98 2622.59,-60.25 2755,-31 2758,-30.34 2761.08,-29.46 2764.12,-28.48"/>
<polygon fill="midnightblue" stroke="midnightblue" points="2765.34,-31.76 2773.53,-25.04 2762.94,-25.18 2765.34,-31.76"/>
</g>
<!-- Node22 -->
<g id="node22" class="node">
<title>Node22</title>
<g id="a_node22"><a xlink:title=" ">
<polygon fill="none" stroke="#bfbfbf" points="2838,-6 2838,-25 2902,-25 2902,-6 2838,-6"/>
<text text-anchor="middle" x="2870" y="-13" font-family="Helvetica,sans-Serif" font-size="10.00">string_view</text>
</a>
</g>
</g>
<!-- Node1&#45;&gt;Node22 -->
<g id="edge21" class="edge">
<title>Node1&#45;&gt;Node22</title>
<path fill="none" stroke="midnightblue" d="M2066.52,-75.2C2212.09,-72.25 2681.11,-60.65 2829,-31 2832.51,-30.3 2836.13,-29.36 2839.69,-28.29"/>
<polygon fill="midnightblue" stroke="midnightblue" points="2841.08,-31.52 2849.46,-25.05 2838.87,-24.87 2841.08,-31.52"/>
</g>
<!-- Node23 -->
<g id="node23" class="node">
<title>Node23</title>
<g id="a_node23"><a xlink:title=" ">
<polygon fill="none" stroke="#bfbfbf" points="2920.5,-6 2920.5,-25 2955.5,-25 2955.5,-6 2920.5,-6"/>
<text text-anchor="middle" x="2938" y="-13" font-family="Helvetica,sans-Serif" font-size="10.00">map</text>
</a>
</g>
</g>
<!-- Node1&#45;&gt;Node23 -->
<g id="edge22" class="edge">
<title>Node1&#45;&gt;Node23</title>
<path fill="none" stroke="midnightblue" d="M2066.51,-76.31C2221.98,-77.03 2749.38,-76.03 2911,-31 2912.47,-30.59 2913.96,-30.09 2915.43,-29.52"/>
<polygon fill="midnightblue" stroke="midnightblue" points="2917.22,-32.55 2924.76,-25.11 2914.22,-26.22 2917.22,-32.55"/>
</g>
<!-- Node24 -->
<g id="node24" class="node">
<title>Node24</title>
<g id="a_node24"><a xlink:title=" ">
<polygon fill="none" stroke="#bfbfbf" points="2974,-6 2974,-25 3026,-25 3026,-6 2974,-6"/>
<text text-anchor="middle" x="3000" y="-13" font-family="Helvetica,sans-Serif" font-size="10.00">memory</text>
</a>
</g>
</g>
<!-- Node1&#45;&gt;Node24 -->
<g id="edge23" class="edge">
<title>Node1&#45;&gt;Node24</title>
<path fill="none" stroke="midnightblue" d="M2066.76,-75.9C2228.27,-75.22 2790.55,-70.06 2965,-31 2967.68,-30.4 2970.41,-29.61 2973.11,-28.71"/>
<polygon fill="midnightblue" stroke="midnightblue" points="2974.48,-31.93 2982.58,-25.1 2971.99,-25.39 2974.48,-31.93"/>
</g>
<!-- Node25 -->
<g id="node25" class="node">
<title>Node25</title>
<g id="a_node25"><a xlink:title=" ">
<polygon fill="none" stroke="#bfbfbf" points="3044.5,-6 3044.5,-25 3085.5,-25 3085.5,-6 3044.5,-6"/>
<text text-anchor="middle" x="3065" y="-13" font-family="Helvetica,sans-Serif" font-size="10.00">string</text>
</a>
</g>
</g>
<!-- Node1&#45;&gt;Node25 -->
<g id="edge24" class="edge">
<title>Node1&#45;&gt;Node25</title>
<path fill="none" stroke="midnightblue" d="M2066.57,-76.39C2235.55,-77.55 2847.54,-78.33 3035,-31 3036.94,-30.51 3038.89,-29.89 3040.83,-29.18"/>
<polygon fill="midnightblue" stroke="midnightblue" points="3042.41,-32.31 3050.19,-25.12 3039.62,-25.89 3042.41,-32.31"/>
</g>
<!-- Node26 -->
<g id="node26" class="node">
<title>Node26</title>
<g id="a_node26"><a xlink:title=" ">
<polygon fill="none" stroke="#bfbfbf" points="3104,-6 3104,-25 3146,-25 3146,-6 3104,-6"/>
<text text-anchor="middle" x="3125" y="-13" font-family="Helvetica,sans-Serif" font-size="10.00">vector</text>
</a>
</g>
</g>
<!-- Node1&#45;&gt;Node26 -->
<g id="edge25" class="edge">
<title>Node1&#45;&gt;Node26</title>
<path fill="none" stroke="midnightblue" d="M2066.51,-75.22C2254.77,-71.69 2994.22,-56.31 3095,-31 3096.94,-30.51 3098.89,-29.9 3100.83,-29.19"/>
<polygon fill="midnightblue" stroke="midnightblue" points="3102.41,-32.32 3110.19,-25.13 3099.63,-25.9 3102.41,-32.32"/>
</g>
<!-- Node27 -->
<g id="node27" class="node">
<title>Node27</title>
<g id="a_node27"><a xlink:title=" ">
<polygon fill="none" stroke="#bfbfbf" points="3164.5,-6 3164.5,-25 3213.5,-25 3213.5,-6 3164.5,-6"/>
<text text-anchor="middle" x="3189" y="-13" font-family="Helvetica,sans-Serif" font-size="10.00">fstream</text>
</a>
</g>
</g>
<!-- Node1&#45;&gt;Node27 -->
<g id="edge26" class="edge">
<title>Node1&#45;&gt;Node27</title>
<path fill="none" stroke="midnightblue" d="M2066.63,-76.37C2247.93,-77.58 2942.13,-78.92 3155,-31 3157.52,-30.43 3160.09,-29.69 3162.63,-28.83"/>
<polygon fill="midnightblue" stroke="midnightblue" points="3164.06,-32.03 3172.11,-25.13 3161.52,-25.5 3164.06,-32.03"/>
</g>
<!-- Node28 -->
<g id="node28" class="node">
<title>Node28</title>
<g id="a_node28"><a xlink:title=" ">
<polygon fill="none" stroke="#bfbfbf" points="3231.5,-6 3231.5,-25 3286.5,-25 3286.5,-6 3231.5,-6"/>
<text text-anchor="middle" x="3259" y="-13" font-family="Helvetica,sans-Serif" font-size="10.00">charconv</text>
</a>
</g>
</g>
<!-- Node1&#45;&gt;Node28 -->
<g id="edge27" class="edge">
<title>Node1&#45;&gt;Node28</title>
<path fill="none" stroke="midnightblue" d="M2066.66,-76.37C2254.66,-77.65 2995.79,-79.47 3223,-31 3225.84,-30.39 3228.75,-29.58 3231.62,-28.65"/>
<polygon fill="midnightblue" stroke="midnightblue" points="3232.91,-31.9 3241.07,-25.14 3230.48,-25.34 3232.91,-31.9"/>
</g>
<!-- Node29 -->
<g id="node29" class="node">
<title>Node29</title>
<g id="a_node29"><a xlink:title=" ">
<polygon fill="none" stroke="#bfbfbf" points="3305,-6 3305,-25 3359,-25 3359,-6 3305,-6"/>
<text text-anchor="middle" x="3332" y="-13" font-family="Helvetica,sans-Serif" font-size="10.00">iostream</text>
</a>
</g>
</g>
<!-- Node1&#45;&gt;Node29 -->
<g id="edge28" class="edge">
<title>Node1&#45;&gt;Node29</title>
<path fill="none" stroke="midnightblue" d="M2066.66,-75.35C2276.22,-72.13 3173.84,-56.92 3296,-31 3298.84,-30.4 3301.75,-29.59 3304.62,-28.65"/>
<polygon fill="midnightblue" stroke="midnightblue" points="3305.92,-31.9 3314.07,-25.14 3303.48,-25.34 3305.92,-31.9"/>
</g>
</g>
</svg>
