<?xml version="1.0" encoding="UTF-8" standalone="no"?>
<!DOCTYPE svg PUBLIC "-//W3C//DTD SVG 1.1//EN"
 "http://www.w3.org/Graphics/SVG/1.1/DTD/svg11.dtd">
<!-- Generated by graphviz version 3.0.0 (20220226.1711)
 -->
<!-- Title: src/include/Layout.h Pages: 1 -->
<svg width="500pt" height="140pt"
 viewBox="0.00 0.00 499.50 140.00" xmlns="http://www.w3.org/2000/svg" xmlns:xlink="http://www.w3.org/1999/xlink">
<g id="graph0" class="graph" transform="scale(1 1) rotate(0) translate(4 136)">
<title>src/include/Layout.h</title>
<!-- Node1 -->
<g id="node1" class="node">
<title>Node1</title>
<g id="a_node1"><a xlink:title=" ">
<polygon fill="#bfbfbf" stroke="black" points="124.5,-112.5 124.5,-131.5 228.5,-131.5 228.5,-112.5 124.5,-112.5"/>
<text text-anchor="middle" x="176.5" y="-119.5" font-family="Helvetica,sans-Serif" font-size="10.00">src/include/Layout.h</text>
</a>
</g>
</g>
<!-- Node2 -->
<g id="node2" class="node">
<title>Node2</title>
<g id="a_node2"><a xlink:title=" ">
<polygon fill="none" stroke="#bfbfbf" points="0,-56.5 0,-75.5 29,-75.5 29,-56.5 0,-56.5"/>
<text text-anchor="middle" x="14.5" y="-63.5" font-family="Helvetica,sans-Serif" font-size="10.00">list</text>
</a>
</g>
</g>
<!-- Node1&#45;&gt;Node2 -->
<g id="edge1" class="edge">
<title>Node1&#45;&gt;Node2</title>
<path fill="none" stroke="midnightblue" d="M148.38,-112.44C122.11,-104.32 81.62,-91.51 38.57,-76.25"/>
<polygon fill="midnightblue" stroke="midnightblue" points="39.65,-72.91 29.05,-72.85 37.29,-79.51 39.65,-72.91"/>
</g>
<!-- Node3 -->
<g id="node3" class="node">
<title>Node3</title>
<g id="a_node3"><a xlink:title=" ">
<polygon fill="none" stroke="#bfbfbf" points="47,-56.5 47,-75.5 88,-75.5 88,-56.5 47,-56.5"/>
<text text-anchor="middle" x="67.5" y="-63.5" font-family="Helvetica,sans-Serif" font-size="10.00">string</text>
</a>
</g>
</g>
<!-- Node1&#45;&gt;Node3 -->
<g id="edge2" class="edge">
<title>Node1&#45;&gt;Node3</title>
<path fill="none" stroke="midnightblue" d="M158.99,-112.32C141.43,-103.62 114.17,-90.12 93.97,-80.11"/>
<polygon fill="midnightblue" stroke="midnightblue" points="95.48,-76.96 84.97,-75.65 92.38,-83.23 95.48,-76.96"/>
</g>
<!-- Node4 -->
<g id="node4" class="node">
<title>Node4</title>
<g id="a_node4"><a xlink:title=" ">
<polygon fill="none" stroke="#bfbfbf" points="106.5,-56.5 106.5,-75.5 148.5,-75.5 148.5,-56.5 106.5,-56.5"/>
<text text-anchor="middle" x="127.5" y="-63.5" font-family="Helvetica,sans-Serif" font-size="10.00">vector</text>
</a>
</g>
</g>
<!-- Node1&#45;&gt;Node4 -->
<g id="edge3" class="edge">
<title>Node1&#45;&gt;Node4</title>
<path fill="none" stroke="midnightblue" d="M168.41,-112.08C161.34,-104.3 150.91,-92.8 142.35,-83.37"/>
<polygon fill="midnightblue" stroke="midnightblue" points="144.75,-80.8 135.44,-75.75 139.57,-85.51 144.75,-80.8"/>
</g>
<!-- Node5 -->
<g id="node5" class="node">
<title>Node5</title>
<g id="a_node5"><a xlink:title=" ">
<polygon fill="none" stroke="#bfbfbf" points="117.5,-0.5 117.5,-19.5 169.5,-19.5 169.5,-0.5 117.5,-0.5"/>
<text text-anchor="middle" x="143.5" y="-7.5" font-family="Helvetica,sans-Serif" font-size="10.00">memory</text>
</a>
</g>
</g>
<!-- Node1&#45;&gt;Node5 -->
<g id="edge4" class="edge">
<title>Node1&#45;&gt;Node5</title>
<path fill="none" stroke="midnightblue" d="M173.97,-112.15C170.37,-99.63 163.54,-76.04 157.5,-56 154.84,-47.18 151.81,-37.41 149.25,-29.23"/>
<polygon fill="midnightblue" stroke="midnightblue" points="152.56,-28.1 146.23,-19.61 145.89,-30.2 152.56,-28.1"/>
</g>
<!-- Node6 -->
<g id="node6" class="node">
<title>Node6</title>
<g id="a_node6"><a xlink:title=" ">
<polygon fill="none" stroke="#bfbfbf" points="188,-0.5 188,-19.5 223,-19.5 223,-0.5 188,-0.5"/>
<text text-anchor="middle" x="205.5" y="-7.5" font-family="Helvetica,sans-Serif" font-size="10.00">map</text>
</a>
</g>
</g>
<!-- Node1&#45;&gt;Node6 -->
<g id="edge5" class="edge">
<title>Node1&#45;&gt;Node6</title>
<path fill="none" stroke="midnightblue" d="M179.38,-112.43C182.35,-103.42 187.04,-88.79 190.5,-76 194.66,-60.61 198.69,-42.97 201.52,-29.96"/>
<polygon fill="midnightblue" stroke="midnightblue" points="205,-30.39 203.67,-19.88 198.16,-28.93 205,-30.39"/>
</g>
<!-- Node7 -->
<g id="node7" class="node">
<title>Node7</title>
<g id="a_node7"><a xlink:title=" ">
<polygon fill="none" stroke="#bfbfbf" points="461.5,-0.5 461.5,-19.5 491.5,-19.5 491.5,-0.5 461.5,-0.5"/>
<text text-anchor="middle" x="476.5" y="-7.5" font-family="Helvetica,sans-Serif" font-size="10.00">set</text>
</a>
</g>
</g>
<!-- Node1&#45;&gt;Node7 -->
<g id="edge6" class="edge">
<title>Node1&#45;&gt;Node7</title>
<path fill="none" stroke="midnightblue" d="M206.55,-112.48C235.87,-103.97 281.61,-90.15 320.5,-76 367.57,-58.88 421.23,-35.69 451.76,-22.14"/>
<polygon fill="midnightblue" stroke="midnightblue" points="453.48,-25.2 461.19,-17.93 450.63,-18.81 453.48,-25.2"/>
</g>
<!-- Node8 -->
<g id="node8" class="node">
<title>Node8</title>
<g id="a_node8"><a xlink:href="_types_8h.html" target="_top" xlink:title=" ">
<polygon fill="none" stroke="black" points="260,-56.5 260,-75.5 311,-75.5 311,-56.5 260,-56.5"/>
<text text-anchor="middle" x="285.5" y="-63.5" font-family="Helvetica,sans-Serif" font-size="10.00">Types.h</text>
</a>
</g>
</g>
<!-- Node1&#45;&gt;Node8 -->
<g id="edge7" class="edge">
<title>Node1&#45;&gt;Node8</title>
<path fill="none" stroke="midnightblue" d="M194.01,-112.32C211.57,-103.62 238.83,-90.12 259.03,-80.11"/>
<polygon fill="midnightblue" stroke="midnightblue" points="260.62,-83.23 268.03,-75.65 257.52,-76.96 260.62,-83.23"/>
</g>
<!-- Node8&#45;&gt;Node5 -->
<g id="edge10" class="edge">
<title>Node8&#45;&gt;Node5</title>
<path fill="none" stroke="midnightblue" d="M263,-56.44C239.42,-47.48 202.18,-33.31 175.54,-23.18"/>
<polygon fill="midnightblue" stroke="midnightblue" points="176.49,-19.8 165.9,-19.52 174,-26.34 176.49,-19.8"/>
</g>
<!-- Node8&#45;&gt;Node6 -->
<g id="edge8" class="edge">
<title>Node8&#45;&gt;Node6</title>
<path fill="none" stroke="midnightblue" d="M272.65,-56.32C260.28,-47.98 241.37,-35.21 226.76,-25.35"/>
<polygon fill="midnightblue" stroke="midnightblue" points="228.57,-22.35 218.32,-19.65 224.65,-28.15 228.57,-22.35"/>
</g>
<!-- Node8&#45;&gt;Node7 -->
<g id="edge9" class="edge">
<title>Node8&#45;&gt;Node7</title>
<path fill="none" stroke="midnightblue" d="M311.19,-58.89C342.36,-51.3 396.68,-37.51 451.78,-20.01"/>
<polygon fill="midnightblue" stroke="midnightblue" points="452.89,-23.33 461.34,-16.93 450.75,-16.66 452.89,-23.33"/>
</g>
<!-- Node9 -->
<g id="node9" class="node">
<title>Node9</title>
<g id="a_node9"><a xlink:title=" ">
<polygon fill="none" stroke="#bfbfbf" points="366,-0.5 366,-19.5 443,-19.5 443,-0.5 366,-0.5"/>
<text text-anchor="middle" x="404.5" y="-7.5" font-family="Helvetica,sans-Serif" font-size="10.00">llvm/IR/Type.h</text>
</a>
</g>
</g>
<!-- Node8&#45;&gt;Node9 -->
<g id="edge11" class="edge">
<title>Node8&#45;&gt;Node9</title>
<path fill="none" stroke="midnightblue" d="M304.36,-56.44C323.77,-47.64 354.23,-33.81 376.46,-23.72"/>
<polygon fill="midnightblue" stroke="midnightblue" points="378.07,-26.84 385.73,-19.52 375.18,-20.46 378.07,-26.84"/>
</g>
<!-- Node10 -->
<g id="node10" class="node">
<title>Node10</title>
<g id="a_node10"><a xlink:title=" ">
<polygon fill="none" stroke="#bfbfbf" points="241,-0.5 241,-19.5 348,-19.5 348,-0.5 241,-0.5"/>
<text text-anchor="middle" x="294.5" y="-7.5" font-family="Helvetica,sans-Serif" font-size="10.00">llvm/IR/Instructions.h</text>
</a>
</g>
</g>
<!-- Node8&#45;&gt;Node10 -->
<g id="edge12" class="edge">
<title>Node8&#45;&gt;Node10</title>
<path fill="none" stroke="midnightblue" d="M286.99,-56.08C288.18,-48.93 289.89,-38.64 291.38,-29.69"/>
<polygon fill="midnightblue" stroke="midnightblue" points="294.85,-30.19 293.04,-19.75 287.95,-29.04 294.85,-30.19"/>
</g>
</g>
</svg>
