<?xml version="1.0" encoding="UTF-8" standalone="no"?>
<!DOCTYPE svg PUBLIC "-//W3C//DTD SVG 1.1//EN"
 "http://www.w3.org/Graphics/SVG/1.1/DTD/svg11.dtd">
<!-- Generated by graphviz version 3.0.0 (20220226.1711)
 -->
<!-- Title: src/include/Layout.h Pages: 1 -->
<svg width="922pt" height="252pt"
 viewBox="0.00 0.00 921.70 252.00" xmlns="http://www.w3.org/2000/svg" xmlns:xlink="http://www.w3.org/1999/xlink">
<g id="graph0" class="graph" transform="scale(1 1) rotate(0) translate(4 248)">
<title>src/include/Layout.h</title>
<!-- Node1 -->
<g id="node1" class="node">
<title>Node1</title>
<g id="a_node1"><a xlink:title=" ">
<polygon fill="#bfbfbf" stroke="black" points="585.71,-224.5 585.71,-243.5 689.71,-243.5 689.71,-224.5 585.71,-224.5"/>
<text text-anchor="middle" x="637.71" y="-231.5" font-family="Helvetica,sans-Serif" font-size="10.00">src/include/Layout.h</text>
</a>
</g>
</g>
<!-- Node2 -->
<g id="node2" class="node">
<title>Node2</title>
<g id="a_node2"><a xlink:href="_code_gen_8cpp.html" target="_top" xlink:title=" ">
<polygon fill="none" stroke="black" points="146.71,-56.5 146.71,-75.5 238.71,-75.5 238.71,-56.5 146.71,-56.5"/>
<text text-anchor="middle" x="192.71" y="-63.5" font-family="Helvetica,sans-Serif" font-size="10.00">src/CodeGen.cpp</text>
</a>
</g>
</g>
<!-- Node1&#45;&gt;Node2 -->
<g id="edge1" class="edge">
<title>Node1&#45;&gt;Node2</title>
<path fill="none" stroke="midnightblue" d="M575.35,-232.93C430.79,-231.3 79.73,-218.33 8.71,-132 -30.62,-84.19 79.97,-71.51 146.48,-68.18"/>
<polygon fill="midnightblue" stroke="midnightblue" points="575.36,-236.43 585.39,-233.03 575.43,-229.43 575.36,-236.43"/>
</g>
<!-- Node3 -->
<g id="node3" class="node">
<title>Node3</title>
<g id="a_node3"><a xlink:href="_context_8cpp.html" target="_top" xlink:title=" ">
<polygon fill="none" stroke="black" points="17.71,-112.5 17.71,-131.5 103.71,-131.5 103.71,-112.5 17.71,-112.5"/>
<text text-anchor="middle" x="60.71" y="-119.5" font-family="Helvetica,sans-Serif" font-size="10.00">src/Context.cpp</text>
</a>
</g>
</g>
<!-- Node1&#45;&gt;Node3 -->
<g id="edge2" class="edge">
<title>Node1&#45;&gt;Node3</title>
<path fill="none" stroke="midnightblue" d="M582.99,-222.57C468.82,-200.8 207.28,-150.94 103.9,-131.23"/>
<polygon fill="midnightblue" stroke="midnightblue" points="582.44,-226.03 592.92,-224.46 583.75,-219.15 582.44,-226.03"/>
</g>
<!-- Node4 -->
<g id="node4" class="node">
<title>Node4</title>
<g id="a_node4"><a xlink:href="_layout_8cpp.html" target="_top" xlink:title=" ">
<polygon fill="none" stroke="black" points="548.21,-112.5 548.21,-131.5 629.21,-131.5 629.21,-112.5 548.21,-112.5"/>
<text text-anchor="middle" x="588.71" y="-119.5" font-family="Helvetica,sans-Serif" font-size="10.00">src/Layout.cpp</text>
</a>
</g>
</g>
<!-- Node1&#45;&gt;Node4 -->
<g id="edge3" class="edge">
<title>Node1&#45;&gt;Node4</title>
<path fill="none" stroke="midnightblue" d="M629.69,-215C619,-191 600.5,-149.47 592.54,-131.59"/>
<polygon fill="midnightblue" stroke="midnightblue" points="626.6,-216.66 633.87,-224.37 632.99,-213.81 626.6,-216.66"/>
</g>
<!-- Node5 -->
<g id="node5" class="node">
<title>Node5</title>
<g id="a_node5"><a xlink:href="_parser_8cpp.html" target="_top" xlink:title=" ">
<polygon fill="none" stroke="black" points="813.71,-112.5 813.71,-131.5 893.71,-131.5 893.71,-112.5 813.71,-112.5"/>
<text text-anchor="middle" x="853.71" y="-119.5" font-family="Helvetica,sans-Serif" font-size="10.00">src/Parser.cpp</text>
</a>
</g>
</g>
<!-- Node1&#45;&gt;Node5 -->
<g id="edge4" class="edge">
<title>Node1&#45;&gt;Node5</title>
<path fill="none" stroke="midnightblue" d="M699.84,-227.01C734.1,-221.27 775.98,-210.03 807.71,-188 828.83,-173.34 843.55,-145.67 850.01,-131.63"/>
<polygon fill="midnightblue" stroke="midnightblue" points="699.28,-223.56 689.94,-228.56 700.36,-230.48 699.28,-223.56"/>
</g>
<!-- Node6 -->
<g id="node6" class="node">
<title>Node6</title>
<g id="a_node6"><a xlink:href="compiler__cli_8cpp.html" target="_top" xlink:title=" ">
<polygon fill="none" stroke="black" points="561.71,-0.5 561.71,-19.5 665.71,-19.5 665.71,-0.5 561.71,-0.5"/>
<text text-anchor="middle" x="613.71" y="-7.5" font-family="Helvetica,sans-Serif" font-size="10.00">src/compiler_cli.cpp</text>
</a>
</g>
</g>
<!-- Node1&#45;&gt;Node6 -->
<g id="edge5" class="edge">
<title>Node1&#45;&gt;Node6</title>
<path fill="none" stroke="midnightblue" d="M700.04,-227.85C794.35,-217.51 956.87,-188.3 902.71,-112 848.8,-36.05 733.26,-16.75 665.74,-12.14"/>
<polygon fill="midnightblue" stroke="midnightblue" points="699.6,-224.38 690.02,-228.9 700.33,-231.34 699.6,-224.38"/>
</g>
<!-- Node7 -->
<g id="node7" class="node">
<title>Node7</title>
<g id="a_node7"><a xlink:href="_context_8h.html" target="_top" xlink:title=" ">
<polygon fill="none" stroke="black" points="427.21,-168.5 427.21,-187.5 536.21,-187.5 536.21,-168.5 427.21,-168.5"/>
<text text-anchor="middle" x="481.71" y="-175.5" font-family="Helvetica,sans-Serif" font-size="10.00">src/include/Context.h</text>
</a>
</g>
</g>
<!-- Node1&#45;&gt;Node7 -->
<g id="edge6" class="edge">
<title>Node1&#45;&gt;Node7</title>
<path fill="none" stroke="midnightblue" d="M603.54,-221.17C574.17,-211 532.51,-196.59 506.31,-187.52"/>
<polygon fill="midnightblue" stroke="midnightblue" points="602.4,-224.48 612.99,-224.44 604.69,-217.86 602.4,-224.48"/>
</g>
<!-- Node12 -->
<g id="node12" class="node">
<title>Node12</title>
<g id="a_node12"><a xlink:href="_program_8hpp.html" target="_top" xlink:title=" ">
<polygon fill="none" stroke="black" points="552.71,-56.5 552.71,-75.5 674.71,-75.5 674.71,-56.5 552.71,-56.5"/>
<text text-anchor="middle" x="613.71" y="-63.5" font-family="Helvetica,sans-Serif" font-size="10.00">src/include/Program.hpp</text>
</a>
</g>
</g>
<!-- Node1&#45;&gt;Node12 -->
<g id="edge22" class="edge">
<title>Node1&#45;&gt;Node12</title>
<path fill="none" stroke="midnightblue" d="M640.8,-214.4C644.14,-190.33 647.86,-147.29 638.71,-112 635.17,-98.33 626.48,-84.39 620.34,-75.73"/>
<polygon fill="midnightblue" stroke="midnightblue" points="637.34,-213.89 639.3,-224.3 644.26,-214.94 637.34,-213.89"/>
</g>
<!-- Node13 -->
<g id="node13" class="node">
<title>Node13</title>
<g id="a_node13"><a xlink:href="_parser_8h.html" target="_top" xlink:title=" ">
<polygon fill="none" stroke="black" points="694.71,-168.5 694.71,-187.5 798.71,-187.5 798.71,-168.5 694.71,-168.5"/>
<text text-anchor="middle" x="746.71" y="-175.5" font-family="Helvetica,sans-Serif" font-size="10.00">src/include/Parser.h</text>
</a>
</g>
</g>
<!-- Node1&#45;&gt;Node13 -->
<g id="edge18" class="edge">
<title>Node1&#45;&gt;Node13</title>
<path fill="none" stroke="midnightblue" d="M664.23,-219.86C684.44,-209.85 711.7,-196.35 729.24,-187.65"/>
<polygon fill="midnightblue" stroke="midnightblue" points="662.63,-216.75 655.22,-224.32 665.74,-223.02 662.63,-216.75"/>
</g>
<!-- Node7&#45;&gt;Node3 -->
<g id="edge8" class="edge">
<title>Node7&#45;&gt;Node3</title>
<path fill="none" stroke="midnightblue" d="M417.14,-170.12C343.37,-162.02 219.12,-147.69 112.71,-132 109.81,-131.57 106.82,-131.11 103.82,-130.63"/>
<polygon fill="midnightblue" stroke="midnightblue" points="416.88,-173.61 427.2,-171.22 417.64,-166.65 416.88,-173.61"/>
</g>
<!-- Node7&#45;&gt;Node4 -->
<g id="edge10" class="edge">
<title>Node7&#45;&gt;Node4</title>
<path fill="none" stroke="midnightblue" d="M508.01,-163.73C527.83,-153.73 554.42,-140.31 571.56,-131.65"/>
<polygon fill="midnightblue" stroke="midnightblue" points="506.25,-160.69 498.9,-168.32 509.41,-166.94 506.25,-160.69"/>
</g>
<!-- Node7&#45;&gt;Node6 -->
<g id="edge12" class="edge">
<title>Node7&#45;&gt;Node6</title>
<path fill="none" stroke="midnightblue" d="M487.64,-158.67C496.56,-133.27 515.47,-87.01 543.71,-56 558.3,-39.98 579.83,-27.28 595.15,-19.51"/>
<polygon fill="midnightblue" stroke="midnightblue" points="484.22,-157.86 484.33,-168.46 490.85,-160.1 484.22,-157.86"/>
</g>
<!-- Node8 -->
<g id="node8" class="node">
<title>Node8</title>
<g id="a_node8"><a xlink:href="_a_s_t_8cpp.html" target="_top" xlink:title=" ">
<polygon fill="none" stroke="black" points="686.21,-112.5 686.21,-131.5 757.21,-131.5 757.21,-112.5 686.21,-112.5"/>
<text text-anchor="middle" x="721.71" y="-119.5" font-family="Helvetica,sans-Serif" font-size="10.00">src/AST.cpp</text>
</a>
</g>
</g>
<!-- Node7&#45;&gt;Node8 -->
<g id="edge7" class="edge">
<title>Node7&#45;&gt;Node8</title>
<path fill="none" stroke="midnightblue" d="M529.53,-166.24C575.74,-155.84 644.68,-140.33 686.21,-130.99"/>
<polygon fill="midnightblue" stroke="midnightblue" points="528.73,-162.83 519.74,-168.44 530.26,-169.66 528.73,-162.83"/>
</g>
<!-- Node9 -->
<g id="node9" class="node">
<title>Node9</title>
<g id="a_node9"><a xlink:href="_instructions_8cpp.html" target="_top" xlink:title=" ">
<polygon fill="none" stroke="black" points="121.71,-112.5 121.71,-131.5 223.71,-131.5 223.71,-112.5 121.71,-112.5"/>
<text text-anchor="middle" x="172.71" y="-119.5" font-family="Helvetica,sans-Serif" font-size="10.00">src/Instructions.cpp</text>
</a>
</g>
</g>
<!-- Node7&#45;&gt;Node9 -->
<g id="edge9" class="edge">
<title>Node7&#45;&gt;Node9</title>
<path fill="none" stroke="midnightblue" d="M422.57,-166.66C364.17,-156.46 275.93,-141.04 221.44,-131.52"/>
<polygon fill="midnightblue" stroke="midnightblue" points="422.3,-170.17 432.75,-168.44 423.5,-163.27 422.3,-170.17"/>
</g>
<!-- Node10 -->
<g id="node10" class="node">
<title>Node10</title>
<g id="a_node10"><a xlink:href="_types_8cpp.html" target="_top" xlink:title=" ">
<polygon fill="none" stroke="black" points="241.71,-112.5 241.71,-131.5 319.71,-131.5 319.71,-112.5 241.71,-112.5"/>
<text text-anchor="middle" x="280.71" y="-119.5" font-family="Helvetica,sans-Serif" font-size="10.00">src/Types.cpp</text>
</a>
</g>
</g>
<!-- Node7&#45;&gt;Node10 -->
<g id="edge11" class="edge">
<title>Node7&#45;&gt;Node10</title>
<path fill="none" stroke="midnightblue" d="M440.13,-165.83C402.18,-155.63 346.9,-140.78 312.41,-131.52"/>
<polygon fill="midnightblue" stroke="midnightblue" points="439.3,-169.23 449.86,-168.44 441.11,-162.47 439.3,-169.23"/>
</g>
<!-- Node11 -->
<g id="node11" class="node">
<title>Node11</title>
<g id="a_node11"><a xlink:href="_code_gen_8h.html" target="_top" xlink:title=" ">
<polygon fill="none" stroke="black" points="337.71,-112.5 337.71,-131.5 453.71,-131.5 453.71,-112.5 337.71,-112.5"/>
<text text-anchor="middle" x="395.71" y="-119.5" font-family="Helvetica,sans-Serif" font-size="10.00">src/include/CodeGen.h</text>
</a>
</g>
</g>
<!-- Node7&#45;&gt;Node11 -->
<g id="edge13" class="edge">
<title>Node7&#45;&gt;Node11</title>
<path fill="none" stroke="midnightblue" d="M459.26,-162.9C443.49,-153 422.9,-140.07 409.49,-131.65"/>
<polygon fill="midnightblue" stroke="midnightblue" points="457.56,-165.97 467.89,-168.32 461.29,-160.04 457.56,-165.97"/>
</g>
<!-- Node7&#45;&gt;Node12 -->
<g id="edge17" class="edge">
<title>Node7&#45;&gt;Node12</title>
<path fill="none" stroke="midnightblue" d="M494.2,-160.02C504.99,-146.08 521.51,-126.36 538.71,-112 556.66,-97.01 580.16,-83.77 596.03,-75.6"/>
<polygon fill="midnightblue" stroke="midnightblue" points="491.23,-158.15 487.99,-168.23 496.81,-162.37 491.23,-158.15"/>
</g>
<!-- Node11&#45;&gt;Node2 -->
<g id="edge14" class="edge">
<title>Node11&#45;&gt;Node2</title>
<path fill="none" stroke="midnightblue" d="M353.72,-109.83C315.39,-99.63 259.56,-84.78 224.73,-75.52"/>
<polygon fill="midnightblue" stroke="midnightblue" points="352.98,-113.26 363.55,-112.44 354.78,-106.49 352.98,-113.26"/>
</g>
<!-- Node11&#45;&gt;Node12 -->
<g id="edge15" class="edge">
<title>Node11&#45;&gt;Node12</title>
<path fill="none" stroke="midnightblue" d="M440.02,-110.02C481.2,-99.82 541.69,-84.84 579.33,-75.52"/>
<polygon fill="midnightblue" stroke="midnightblue" points="439.12,-106.64 430.25,-112.44 440.8,-113.44 439.12,-106.64"/>
</g>
<!-- Node12&#45;&gt;Node6 -->
<g id="edge16" class="edge">
<title>Node12&#45;&gt;Node6</title>
<path fill="none" stroke="midnightblue" d="M613.71,-45.8C613.71,-36.91 613.71,-26.78 613.71,-19.75"/>
<polygon fill="midnightblue" stroke="midnightblue" points="610.21,-46.08 613.71,-56.08 617.21,-46.08 610.21,-46.08"/>
</g>
<!-- Node13&#45;&gt;Node5 -->
<g id="edge20" class="edge">
<title>Node13&#45;&gt;Node5</title>
<path fill="none" stroke="midnightblue" d="M773.01,-163.73C792.83,-153.73 819.42,-140.31 836.56,-131.65"/>
<polygon fill="midnightblue" stroke="midnightblue" points="771.25,-160.69 763.9,-168.32 774.41,-166.94 771.25,-160.69"/>
</g>
<!-- Node13&#45;&gt;Node8 -->
<g id="edge19" class="edge">
<title>Node13&#45;&gt;Node8</title>
<path fill="none" stroke="midnightblue" d="M738.37,-158.98C734.13,-149.82 729.16,-139.09 725.76,-131.75"/>
<polygon fill="midnightblue" stroke="midnightblue" points="735.21,-160.48 742.58,-168.08 741.56,-157.54 735.21,-160.48"/>
</g>
<!-- Node13&#45;&gt;Node12 -->
<g id="edge21" class="edge">
<title>Node13&#45;&gt;Node12</title>
<path fill="none" stroke="midnightblue" d="M759.74,-159.89C768.71,-145.87 777.27,-126.11 766.71,-112 754.44,-95.6 705.22,-83.12 665.87,-75.51"/>
<polygon fill="midnightblue" stroke="midnightblue" points="756.83,-157.95 753.99,-168.16 762.57,-161.95 756.83,-157.95"/>
</g>
</g>
</svg>
