<?xml version="1.0" encoding="UTF-8" standalone="no"?>
<!DOCTYPE svg PUBLIC "-//W3C//DTD SVG 1.1//EN"
 "http://www.w3.org/Graphics/SVG/1.1/DTD/svg11.dtd">
<!-- Generated by graphviz version 3.0.0 (20220226.1711)
 -->
<!-- Title: src/include/Layout.h Pages: 1 -->
<svg width="846pt" height="196pt"
 viewBox="0.00 0.00 845.51 196.00" xmlns="http://www.w3.org/2000/svg" xmlns:xlink="http://www.w3.org/1999/xlink">
<g id="graph0" class="graph" transform="scale(1 1) rotate(0) translate(4 192)">
<title>src/include/Layout.h</title>
<!-- Node1 -->
<g id="node1" class="node">
<title>Node1</title>
<g id="a_node1"><a xlink:title=" ">
<polygon fill="#bfbfbf" stroke="black" points="495.95,-168.5 495.95,-187.5 599.95,-187.5 599.95,-168.5 495.95,-168.5"/>
<text text-anchor="middle" x="547.95" y="-175.5" font-family="Helvetica,sans-Serif" font-size="10.00">src/include/Layout.h</text>
</a>
</g>
</g>
<!-- Node2 -->
<g id="node2" class="node">
<title>Node2</title>
<g id="a_node2"><a xlink:href="_code_gen_8cpp.html" target="_top" xlink:title=" ">
<polygon fill="none" stroke="black" points="73.95,-0.5 73.95,-19.5 165.95,-19.5 165.95,-0.5 73.95,-0.5"/>
<text text-anchor="middle" x="119.95" y="-7.5" font-family="Helvetica,sans-Serif" font-size="10.00">src/CodeGen.cpp</text>
</a>
</g>
</g>
<!-- Node1&#45;&gt;Node2 -->
<g id="edge1" class="edge">
<title>Node1&#45;&gt;Node2</title>
<path fill="none" stroke="midnightblue" d="M485.47,-175.2C355.82,-170 64.72,-150.12 5.95,-76 -16.69,-47.44 33.5,-29.19 74.33,-19.52"/>
<polygon fill="midnightblue" stroke="midnightblue" points="485.51,-178.71 495.64,-175.59 485.78,-171.71 485.51,-178.71"/>
</g>
<!-- Node3 -->
<g id="node3" class="node">
<title>Node3</title>
<g id="a_node3"><a xlink:href="_context_8cpp.html" target="_top" xlink:title=" ">
<polygon fill="none" stroke="black" points="14.95,-56.5 14.95,-75.5 100.95,-75.5 100.95,-56.5 14.95,-56.5"/>
<text text-anchor="middle" x="57.95" y="-63.5" font-family="Helvetica,sans-Serif" font-size="10.00">src/Context.cpp</text>
</a>
</g>
</g>
<!-- Node1&#45;&gt;Node3 -->
<g id="edge2" class="edge">
<title>Node1&#45;&gt;Node3</title>
<path fill="none" stroke="midnightblue" d="M495.4,-166.47C451.61,-157.6 387.63,-144.4 331.95,-132 245.58,-112.76 144.37,-88.23 92.49,-75.51"/>
<polygon fill="midnightblue" stroke="midnightblue" points="494.76,-169.91 505.26,-168.47 496.15,-163.05 494.76,-169.91"/>
</g>
<!-- Node4 -->
<g id="node4" class="node">
<title>Node4</title>
<g id="a_node4"><a xlink:href="_layout_8cpp.html" target="_top" xlink:title=" ">
<polygon fill="none" stroke="black" points="507.45,-56.5 507.45,-75.5 588.45,-75.5 588.45,-56.5 507.45,-56.5"/>
<text text-anchor="middle" x="547.95" y="-63.5" font-family="Helvetica,sans-Serif" font-size="10.00">src/Layout.cpp</text>
</a>
</g>
</g>
<!-- Node1&#45;&gt;Node4 -->
<g id="edge3" class="edge">
<title>Node1&#45;&gt;Node4</title>
<path fill="none" stroke="midnightblue" d="M547.95,-158.35C547.95,-134.25 547.95,-93.31 547.95,-75.59"/>
<polygon fill="midnightblue" stroke="midnightblue" points="544.45,-158.37 547.95,-168.37 551.45,-158.37 544.45,-158.37"/>
</g>
<!-- Node5 -->
<g id="node5" class="node">
<title>Node5</title>
<g id="a_node5"><a xlink:href="_parser_8cpp.html" target="_top" xlink:title=" ">
<polygon fill="none" stroke="black" points="733.95,-56.5 733.95,-75.5 813.95,-75.5 813.95,-56.5 733.95,-56.5"/>
<text text-anchor="middle" x="773.95" y="-63.5" font-family="Helvetica,sans-Serif" font-size="10.00">src/Parser.cpp</text>
</a>
</g>
</g>
<!-- Node1&#45;&gt;Node5 -->
<g id="edge4" class="edge">
<title>Node1&#45;&gt;Node5</title>
<path fill="none" stroke="midnightblue" d="M610.34,-169.13C643.56,-162.83 684.03,-151.66 715.95,-132 739.91,-117.25 759.67,-89.62 768.69,-75.61"/>
<polygon fill="midnightblue" stroke="midnightblue" points="609.5,-165.72 600.28,-170.93 610.74,-172.61 609.5,-165.72"/>
</g>
<!-- Node6 -->
<g id="node6" class="node">
<title>Node6</title>
<g id="a_node6"><a xlink:href="_context_8h.html" target="_top" xlink:title=" ">
<polygon fill="none" stroke="black" points="341.45,-112.5 341.45,-131.5 450.45,-131.5 450.45,-112.5 341.45,-112.5"/>
<text text-anchor="middle" x="395.95" y="-119.5" font-family="Helvetica,sans-Serif" font-size="10.00">src/include/Context.h</text>
</a>
</g>
</g>
<!-- Node1&#45;&gt;Node6 -->
<g id="edge5" class="edge">
<title>Node1&#45;&gt;Node6</title>
<path fill="none" stroke="midnightblue" d="M514.29,-165.04C485.69,-154.88 445.34,-140.55 419.93,-131.52"/>
<polygon fill="midnightblue" stroke="midnightblue" points="513.27,-168.39 523.87,-168.44 515.62,-161.8 513.27,-168.39"/>
</g>
<!-- Node11 -->
<g id="node11" class="node">
<title>Node11</title>
<g id="a_node11"><a xlink:href="_program_8hpp.html" target="_top" xlink:title=" ">
<polygon fill="none" stroke="black" points="258.95,-0.5 258.95,-19.5 380.95,-19.5 380.95,-0.5 258.95,-0.5"/>
<text text-anchor="middle" x="319.95" y="-7.5" font-family="Helvetica,sans-Serif" font-size="10.00">src/include/Program.hpp</text>
</a>
</g>
</g>
<!-- Node1&#45;&gt;Node11 -->
<g id="edge19" class="edge">
<title>Node1&#45;&gt;Node11</title>
<path fill="none" stroke="midnightblue" d="M610.18,-171.2C710.18,-159.63 889.06,-128.29 822.95,-56 793.66,-23.97 508.78,-14.57 381.2,-11.95"/>
<polygon fill="midnightblue" stroke="midnightblue" points="609.72,-167.73 600.17,-172.33 610.5,-174.69 609.72,-167.73"/>
</g>
<!-- Node12 -->
<g id="node12" class="node">
<title>Node12</title>
<g id="a_node12"><a xlink:href="_parser_8h.html" target="_top" xlink:title=" ">
<polygon fill="none" stroke="black" points="602.95,-112.5 602.95,-131.5 706.95,-131.5 706.95,-112.5 602.95,-112.5"/>
<text text-anchor="middle" x="654.95" y="-119.5" font-family="Helvetica,sans-Serif" font-size="10.00">src/include/Parser.h</text>
</a>
</g>
</g>
<!-- Node1&#45;&gt;Node12 -->
<g id="edge15" class="edge">
<title>Node1&#45;&gt;Node12</title>
<path fill="none" stroke="midnightblue" d="M574.26,-163.73C594.07,-153.73 620.66,-140.31 637.8,-131.65"/>
<polygon fill="midnightblue" stroke="midnightblue" points="572.5,-160.69 565.14,-168.32 575.65,-166.94 572.5,-160.69"/>
</g>
<!-- Node6&#45;&gt;Node3 -->
<g id="edge7" class="edge">
<title>Node6&#45;&gt;Node3</title>
<path fill="none" stroke="midnightblue" d="M331.23,-111.11C273.23,-102.17 185.86,-88.54 109.95,-76 107.06,-75.52 104.08,-75.02 101.08,-74.52"/>
<polygon fill="midnightblue" stroke="midnightblue" points="330.94,-114.6 341.35,-112.66 332,-107.68 330.94,-114.6"/>
</g>
<!-- Node6&#45;&gt;Node4 -->
<g id="edge9" class="edge">
<title>Node6&#45;&gt;Node4</title>
<path fill="none" stroke="midnightblue" d="M429.62,-109.04C458.22,-98.88 498.57,-84.55 523.98,-75.52"/>
<polygon fill="midnightblue" stroke="midnightblue" points="428.29,-105.8 420.04,-112.44 430.63,-112.39 428.29,-105.8"/>
</g>
<!-- Node7 -->
<g id="node7" class="node">
<title>Node7</title>
<g id="a_node7"><a xlink:href="_a_s_t_8cpp.html" target="_top" xlink:title=" ">
<polygon fill="none" stroke="black" points="606.45,-56.5 606.45,-75.5 677.45,-75.5 677.45,-56.5 606.45,-56.5"/>
<text text-anchor="middle" x="641.95" y="-63.5" font-family="Helvetica,sans-Serif" font-size="10.00">src/AST.cpp</text>
</a>
</g>
</g>
<!-- Node6&#45;&gt;Node7 -->
<g id="edge6" class="edge">
<title>Node6&#45;&gt;Node7</title>
<path fill="none" stroke="midnightblue" d="M444.72,-110.29C492.39,-99.83 563.8,-84.16 606.35,-74.82"/>
<polygon fill="midnightblue" stroke="midnightblue" points="443.95,-106.88 434.93,-112.44 445.45,-113.72 443.95,-106.88"/>
</g>
<!-- Node8 -->
<g id="node8" class="node">
<title>Node8</title>
<g id="a_node8"><a xlink:href="_instructions_8cpp.html" target="_top" xlink:title=" ">
<polygon fill="none" stroke="black" points="290.95,-56.5 290.95,-75.5 392.95,-75.5 392.95,-56.5 290.95,-56.5"/>
<text text-anchor="middle" x="341.95" y="-63.5" font-family="Helvetica,sans-Serif" font-size="10.00">src/Instructions.cpp</text>
</a>
</g>
</g>
<!-- Node6&#45;&gt;Node8 -->
<g id="edge8" class="edge">
<title>Node6&#45;&gt;Node8</title>
<path fill="none" stroke="midnightblue" d="M379.96,-105C370.39,-95.43 358.59,-83.64 350.7,-75.75"/>
<polygon fill="midnightblue" stroke="midnightblue" points="377.49,-107.49 387.04,-112.08 382.44,-102.54 377.49,-107.49"/>
</g>
<!-- Node9 -->
<g id="node9" class="node">
<title>Node9</title>
<g id="a_node9"><a xlink:href="_types_8cpp.html" target="_top" xlink:title=" ">
<polygon fill="none" stroke="black" points="410.95,-56.5 410.95,-75.5 488.95,-75.5 488.95,-56.5 410.95,-56.5"/>
<text text-anchor="middle" x="449.95" y="-63.5" font-family="Helvetica,sans-Serif" font-size="10.00">src/Types.cpp</text>
</a>
</g>
</g>
<!-- Node6&#45;&gt;Node9 -->
<g id="edge10" class="edge">
<title>Node6&#45;&gt;Node9</title>
<path fill="none" stroke="midnightblue" d="M411.95,-105C421.52,-95.43 433.31,-83.64 441.2,-75.75"/>
<polygon fill="midnightblue" stroke="midnightblue" points="409.47,-102.54 404.87,-112.08 414.42,-107.49 409.47,-102.54"/>
</g>
<!-- Node10 -->
<g id="node10" class="node">
<title>Node10</title>
<g id="a_node10"><a xlink:href="_code_gen_8h.html" target="_top" xlink:title=" ">
<polygon fill="none" stroke="black" points="118.95,-56.5 118.95,-75.5 234.95,-75.5 234.95,-56.5 118.95,-56.5"/>
<text text-anchor="middle" x="176.95" y="-63.5" font-family="Helvetica,sans-Serif" font-size="10.00">src/include/CodeGen.h</text>
</a>
</g>
</g>
<!-- Node6&#45;&gt;Node10 -->
<g id="edge11" class="edge">
<title>Node6&#45;&gt;Node10</title>
<path fill="none" stroke="midnightblue" d="M351.44,-110.02C310.07,-99.82 249.31,-84.84 211.49,-75.52"/>
<polygon fill="midnightblue" stroke="midnightblue" points="350.71,-113.45 361.25,-112.44 352.38,-106.65 350.71,-113.45"/>
</g>
<!-- Node6&#45;&gt;Node11 -->
<g id="edge14" class="edge">
<title>Node6&#45;&gt;Node11</title>
<path fill="none" stroke="midnightblue" d="M331.63,-110.08C312.44,-103.49 293.47,-92.93 281.95,-76 268.72,-56.55 292.88,-32.31 308.4,-19.64"/>
<polygon fill="midnightblue" stroke="midnightblue" points="330.76,-113.47 341.34,-113.09 332.83,-106.79 330.76,-113.47"/>
</g>
<!-- Node10&#45;&gt;Node2 -->
<g id="edge12" class="edge">
<title>Node10&#45;&gt;Node2</title>
<path fill="none" stroke="midnightblue" d="M160.33,-49.25C150.22,-39.67 137.68,-27.79 129.28,-19.83"/>
<polygon fill="midnightblue" stroke="midnightblue" points="158.13,-51.99 167.8,-56.32 162.94,-46.91 158.13,-51.99"/>
</g>
<!-- Node10&#45;&gt;Node11 -->
<g id="edge13" class="edge">
<title>Node10&#45;&gt;Node11</title>
<path fill="none" stroke="midnightblue" d="M208.98,-52.91C235.87,-42.75 273.59,-28.51 297.4,-19.52"/>
<polygon fill="midnightblue" stroke="midnightblue" points="207.73,-49.64 199.61,-56.44 210.2,-56.19 207.73,-49.64"/>
</g>
<!-- Node12&#45;&gt;Node5 -->
<g id="edge17" class="edge">
<title>Node12&#45;&gt;Node5</title>
<path fill="none" stroke="midnightblue" d="M683.09,-108.23C705.35,-98.13 735.81,-84.31 755.19,-75.52"/>
<polygon fill="midnightblue" stroke="midnightblue" points="681.47,-105.12 673.81,-112.44 684.36,-111.5 681.47,-105.12"/>
</g>
<!-- Node12&#45;&gt;Node7 -->
<g id="edge16" class="edge">
<title>Node12&#45;&gt;Node7</title>
<path fill="none" stroke="midnightblue" d="M650.4,-102.1C648.25,-93.14 645.77,-82.86 644.06,-75.75"/>
<polygon fill="midnightblue" stroke="midnightblue" points="647.06,-103.18 652.81,-112.08 653.87,-101.54 647.06,-103.18"/>
</g>
<!-- Node12&#45;&gt;Node11 -->
<g id="edge18" class="edge">
<title>Node12&#45;&gt;Node11</title>
<path fill="none" stroke="midnightblue" d="M672.37,-105.05C685.68,-90.96 699.75,-70.47 686.95,-56 667.07,-33.53 480.41,-19.87 381.23,-14.15"/>
<polygon fill="midnightblue" stroke="midnightblue" points="669.86,-102.61 665.23,-112.14 674.79,-107.58 669.86,-102.61"/>
</g>
</g>
</svg>
