<?xml version="1.0" encoding="UTF-8" standalone="no"?>
<!DOCTYPE svg PUBLIC "-//W3C//DTD SVG 1.1//EN"
 "http://www.w3.org/Graphics/SVG/1.1/DTD/svg11.dtd">
<!-- Generated by graphviz version 3.0.0 (20220226.1711)
 -->
<!-- Title: src/include/Options.h Pages: 1 -->
<svg width="316pt" height="196pt"
 viewBox="0.00 0.00 316.00 196.00" xmlns="http://www.w3.org/2000/svg" xmlns:xlink="http://www.w3.org/1999/xlink">
<g id="graph0" class="graph" transform="scale(1 1) rotate(0) translate(4 192)">
<title>src/include/Options.h</title>
<!-- Node1 -->
<g id="node1" class="node">
<title>Node1</title>
<g id="a_node1"><a xlink:title=" ">
<polygon fill="#bfbfbf" stroke="black" points="89.5,-168.5 89.5,-187.5 198.5,-187.5 198.5,-168.5 89.5,-168.5"/>
<text text-anchor="middle" x="144" y="-175.5" font-family="Helvetica,sans-Serif" font-size="10.00">src/include/Options.h</text>
</a>
</g>
</g>
<!-- Node2 -->
<g id="node2" class="node">
<title>Node2</title>
<g id="a_node2"><a xlink:href="_code_gen_8cpp.html" target="_top" xlink:title=" ">
<polygon fill="none" stroke="black" points="0,-56.5 0,-75.5 92,-75.5 92,-56.5 0,-56.5"/>
<text text-anchor="middle" x="46" y="-63.5" font-family="Helvetica,sans-Serif" font-size="10.00">src/CodeGen.cpp</text>
</a>
</g>
</g>
<!-- Node1&#45;&gt;Node2 -->
<g id="edge1" class="edge">
<title>Node1&#45;&gt;Node2</title>
<path fill="none" stroke="midnightblue" d="M80.33,-165.33C61.99,-158.7 43.98,-148.3 33,-132 21.3,-114.63 32.81,-89.1 40.44,-75.8"/>
<polygon fill="midnightblue" stroke="midnightblue" points="79.33,-168.69 89.92,-168.47 81.5,-162.03 79.33,-168.69"/>
</g>
<!-- Node3 -->
<g id="node3" class="node">
<title>Node3</title>
<g id="a_node3"><a xlink:href="_options_8cpp.html" target="_top" xlink:title=" ">
<polygon fill="none" stroke="black" points="42,-112.5 42,-131.5 128,-131.5 128,-112.5 42,-112.5"/>
<text text-anchor="middle" x="85" y="-119.5" font-family="Helvetica,sans-Serif" font-size="10.00">src/Options.cpp</text>
</a>
</g>
</g>
<!-- Node1&#45;&gt;Node3 -->
<g id="edge2" class="edge">
<title>Node1&#45;&gt;Node3</title>
<path fill="none" stroke="midnightblue" d="M127.11,-161.54C116.59,-151.91 103.43,-139.87 94.65,-131.83"/>
<polygon fill="midnightblue" stroke="midnightblue" points="124.78,-164.15 134.52,-168.32 129.51,-158.99 124.78,-164.15"/>
</g>
<!-- Node4 -->
<g id="node4" class="node">
<title>Node4</title>
<g id="a_node4"><a xlink:href="_code_gen_8h.html" target="_top" xlink:title=" ">
<polygon fill="none" stroke="black" points="146,-112.5 146,-131.5 262,-131.5 262,-112.5 146,-112.5"/>
<text text-anchor="middle" x="204" y="-119.5" font-family="Helvetica,sans-Serif" font-size="10.00">src/include/CodeGen.h</text>
</a>
</g>
</g>
<!-- Node1&#45;&gt;Node4 -->
<g id="edge3" class="edge">
<title>Node1&#45;&gt;Node4</title>
<path fill="none" stroke="midnightblue" d="M161.18,-161.54C171.88,-151.91 185.26,-139.87 194.18,-131.83"/>
<polygon fill="midnightblue" stroke="midnightblue" points="158.73,-159.03 153.64,-168.32 163.41,-164.24 158.73,-159.03"/>
</g>
<!-- Node5 -->
<g id="node5" class="node">
<title>Node5</title>
<g id="a_node5"><a xlink:href="_program_8hpp.html" target="_top" xlink:title=" ">
<polygon fill="none" stroke="black" points="186,-56.5 186,-75.5 308,-75.5 308,-56.5 186,-56.5"/>
<text text-anchor="middle" x="247" y="-63.5" font-family="Helvetica,sans-Serif" font-size="10.00">src/include/Program.hpp</text>
</a>
</g>
</g>
<!-- Node1&#45;&gt;Node5 -->
<g id="edge7" class="edge">
<title>Node1&#45;&gt;Node5</title>
<path fill="none" stroke="midnightblue" d="M208.76,-169.67C232.32,-163.51 256.65,-152.31 271,-132 283.63,-114.12 266.17,-88.81 255.02,-75.67"/>
<polygon fill="midnightblue" stroke="midnightblue" points="207.69,-166.32 198.75,-172.01 209.29,-173.14 207.69,-166.32"/>
</g>
<!-- Node4&#45;&gt;Node2 -->
<g id="edge4" class="edge">
<title>Node4&#45;&gt;Node2</title>
<path fill="none" stroke="midnightblue" d="M169.39,-109.17C139.64,-99 97.45,-84.59 70.92,-75.52"/>
<polygon fill="midnightblue" stroke="midnightblue" points="168.37,-112.52 178.96,-112.44 170.63,-105.9 168.37,-112.52"/>
</g>
<!-- Node4&#45;&gt;Node5 -->
<g id="edge5" class="edge">
<title>Node4&#45;&gt;Node5</title>
<path fill="none" stroke="midnightblue" d="M217.42,-104.14C224.91,-94.74 233.94,-83.4 240.03,-75.75"/>
<polygon fill="midnightblue" stroke="midnightblue" points="214.59,-102.08 211.1,-112.08 220.07,-106.44 214.59,-102.08"/>
</g>
<!-- Node6 -->
<g id="node6" class="node">
<title>Node6</title>
<g id="a_node6"><a xlink:href="compiler__cli_8cpp.html" target="_top" xlink:title=" ">
<polygon fill="none" stroke="black" points="195,-0.5 195,-19.5 299,-19.5 299,-0.5 195,-0.5"/>
<text text-anchor="middle" x="247" y="-7.5" font-family="Helvetica,sans-Serif" font-size="10.00">src/compiler_cli.cpp</text>
</a>
</g>
</g>
<!-- Node5&#45;&gt;Node6 -->
<g id="edge6" class="edge">
<title>Node5&#45;&gt;Node6</title>
<path fill="none" stroke="midnightblue" d="M247,-45.8C247,-36.91 247,-26.78 247,-19.75"/>
<polygon fill="midnightblue" stroke="midnightblue" points="243.5,-46.08 247,-56.08 250.5,-46.08 243.5,-46.08"/>
</g>
</g>
</svg>
