<?xml version="1.0" encoding="UTF-8" standalone="no"?>
<!DOCTYPE svg PUBLIC "-//W3C//DTD SVG 1.1//EN"
 "http://www.w3.org/Graphics/SVG/1.1/DTD/svg11.dtd">
<!-- Generated by graphviz version 3.0.0 (20220226.1711)
 -->
<!-- Title: src/Options.cpp Pages: 1 -->
<svg width="7499pt" height="151pt"
 viewBox="0.00 0.00 7498.50 151.00" xmlns="http://www.w3.org/2000/svg" xmlns:xlink="http://www.w3.org/1999/xlink">
<g id="graph0" class="graph" transform="scale(1 1) rotate(0) translate(4 147)">
<title>src/Options.cpp</title>
<!-- Node1 -->
<g id="node1" class="node">
<title>Node1</title>
<g id="a_node1"><a xlink:title=" ">
<polygon fill="#bfbfbf" stroke="black" points="7207,-123.5 7207,-142.5 7293,-142.5 7293,-123.5 7207,-123.5"/>
<text text-anchor="middle" x="7250" y="-130.5" font-family="Helvetica,sans-Serif" font-size="10.00">src/Options.cpp</text>
</a>
</g>
</g>
<!-- Node2 -->
<g id="node2" class="node">
<title>Node2</title>
<g id="a_node2"><a xlink:href="pch_8h.html" target="_top" xlink:title=" ">
<polygon fill="none" stroke="black" points="4236.5,-67.5 4236.5,-86.5 4277.5,-86.5 4277.5,-67.5 4236.5,-67.5"/>
<text text-anchor="middle" x="4257" y="-74.5" font-family="Helvetica,sans-Serif" font-size="10.00">pch.h</text>
</a>
</g>
</g>
<!-- Node1&#45;&gt;Node2 -->
<g id="edge1" class="edge">
<title>Node1&#45;&gt;Node2</title>
<path fill="none" stroke="midnightblue" d="M7206.83,-131.22C6863.6,-125.03 4582.24,-83.87 4288.19,-78.56"/>
<polygon fill="midnightblue" stroke="midnightblue" points="4287.91,-75.06 4277.84,-78.38 4287.78,-82.06 4287.91,-75.06"/>
</g>
<!-- Node61 -->
<g id="node61" class="node">
<title>Node61</title>
<g id="a_node61"><a xlink:href="_options_8h.html" target="_top" xlink:title=" ">
<polygon fill="none" stroke="black" points="7278.5,-67.5 7278.5,-86.5 7337.5,-86.5 7337.5,-67.5 7278.5,-67.5"/>
<text text-anchor="middle" x="7308" y="-74.5" font-family="Helvetica,sans-Serif" font-size="10.00">Options.h</text>
</a>
</g>
</g>
<!-- Node1&#45;&gt;Node61 -->
<g id="edge60" class="edge">
<title>Node1&#45;&gt;Node61</title>
<path fill="none" stroke="midnightblue" d="M7259.32,-123.32C7267.89,-115.34 7280.81,-103.31 7291.19,-93.65"/>
<polygon fill="midnightblue" stroke="midnightblue" points="7293.58,-96.21 7298.51,-86.83 7288.81,-91.09 7293.58,-96.21"/>
</g>
<!-- Node62 -->
<g id="node62" class="node">
<title>Node62</title>
<g id="a_node62"><a xlink:title=" ">
<polygon fill="none" stroke="#bfbfbf" points="7212.5,-6 7212.5,-25 7345.5,-25 7345.5,-6 7212.5,-6"/>
<text text-anchor="middle" x="7279" y="-13" font-family="Helvetica,sans-Serif" font-size="10.00">llvm/Passes/PassBuilder.h</text>
</a>
</g>
</g>
<!-- Node1&#45;&gt;Node62 -->
<g id="edge63" class="edge">
<title>Node1&#45;&gt;Node62</title>
<path fill="none" stroke="midnightblue" d="M7252.18,-123.32C7256.86,-104.67 7267.97,-60.44 7274.32,-35.13"/>
<polygon fill="midnightblue" stroke="midnightblue" points="7277.75,-35.83 7276.79,-25.28 7270.97,-34.13 7277.75,-35.83"/>
</g>
<!-- Node3 -->
<g id="node3" class="node">
<title>Node3</title>
<g id="a_node3"><a xlink:title=" ">
<polygon fill="none" stroke="#bfbfbf" points="0,-6 0,-25 112,-25 112,-6 0,-6"/>
<text text-anchor="middle" x="56" y="-13" font-family="Helvetica,sans-Serif" font-size="10.00">llvm/ADT/STLExtras.h</text>
</a>
</g>
</g>
<!-- Node2&#45;&gt;Node3 -->
<g id="edge2" class="edge">
<title>Node2&#45;&gt;Node3</title>
<path fill="none" stroke="midnightblue" d="M4236.27,-76.04C3939.83,-76.57 557.47,-81.5 121,-31 113.49,-30.13 105.58,-28.76 97.96,-27.2"/>
<polygon fill="midnightblue" stroke="midnightblue" points="98.69,-23.78 88.17,-25.07 97.2,-30.62 98.69,-23.78"/>
</g>
<!-- Node4 -->
<g id="node4" class="node">
<title>Node4</title>
<g id="a_node4"><a xlink:title=" ">
<polygon fill="none" stroke="#bfbfbf" points="130.5,-6 130.5,-25 231.5,-25 231.5,-6 130.5,-6"/>
<text text-anchor="middle" x="181" y="-13" font-family="Helvetica,sans-Serif" font-size="10.00">llvm/ADT/APFloat.h</text>
</a>
</g>
</g>
<!-- Node2&#45;&gt;Node4 -->
<g id="edge3" class="edge">
<title>Node2&#45;&gt;Node4</title>
<path fill="none" stroke="midnightblue" d="M4236.42,-76.05C3945.64,-76.78 664.14,-83.81 241,-31 234.28,-30.16 227.23,-28.85 220.41,-27.36"/>
<polygon fill="midnightblue" stroke="midnightblue" points="221.2,-23.95 210.66,-25.07 219.6,-30.76 221.2,-23.95"/>
</g>
<!-- Node5 -->
<g id="node5" class="node">
<title>Node5</title>
<g id="a_node5"><a xlink:title=" ">
<polygon fill="none" stroke="#bfbfbf" points="250,-6 250,-25 406,-25 406,-6 250,-6"/>
<text text-anchor="middle" x="328" y="-13" font-family="Helvetica,sans-Serif" font-size="10.00">llvm/CodeGen/CommandFlags.h</text>
</a>
</g>
</g>
<!-- Node2&#45;&gt;Node5 -->
<g id="edge4" class="edge">
<title>Node2&#45;&gt;Node5</title>
<path fill="none" stroke="midnightblue" d="M4236.46,-75.95C3952.86,-75.27 820.94,-66.99 415,-31 404.02,-30.03 392.34,-28.45 381.22,-26.7"/>
<polygon fill="midnightblue" stroke="midnightblue" points="381.64,-23.22 371.2,-25.04 380.5,-30.13 381.64,-23.22"/>
</g>
<!-- Node6 -->
<g id="node6" class="node">
<title>Node6</title>
<g id="a_node6"><a xlink:title=" ">
<polygon fill="none" stroke="#bfbfbf" points="424,-6 424,-25 544,-25 544,-6 424,-6"/>
<text text-anchor="middle" x="484" y="-13" font-family="Helvetica,sans-Serif" font-size="10.00">llvm/Object/ObjectFile.h</text>
</a>
</g>
</g>
<!-- Node2&#45;&gt;Node6 -->
<g id="edge5" class="edge">
<title>Node2&#45;&gt;Node6</title>
<path fill="none" stroke="midnightblue" d="M4236.35,-76C3957.53,-75.91 943.14,-73.95 553,-31 544.87,-30.1 536.28,-28.69 528.03,-27.09"/>
<polygon fill="midnightblue" stroke="midnightblue" points="528.68,-23.65 518.18,-25.06 527.27,-30.5 528.68,-23.65"/>
</g>
<!-- Node7 -->
<g id="node7" class="node">
<title>Node7</title>
<g id="a_node7"><a xlink:title=" ">
<polygon fill="none" stroke="#bfbfbf" points="562,-0.5 562,-30.5 672,-30.5 672,-0.5 562,-0.5"/>
<text text-anchor="start" x="570" y="-18.5" font-family="Helvetica,sans-Serif" font-size="10.00">llvm/ExecutionEngine</text>
<text text-anchor="middle" x="617" y="-7.5" font-family="Helvetica,sans-Serif" font-size="10.00">/ExecutionEngine.h</text>
</a>
</g>
</g>
<!-- Node2&#45;&gt;Node7 -->
<g id="edge6" class="edge">
<title>Node2&#45;&gt;Node7</title>
<path fill="none" stroke="midnightblue" d="M4236.22,-76.01C3964.17,-76.05 1104.97,-75.46 682.13,-30.87"/>
<polygon fill="midnightblue" stroke="midnightblue" points="682.36,-27.37 672.03,-29.74 681.58,-34.33 682.36,-27.37"/>
</g>
<!-- Node8 -->
<g id="node8" class="node">
<title>Node8</title>
<g id="a_node8"><a xlink:title=" ">
<polygon fill="none" stroke="#bfbfbf" points="690,-0.5 690,-30.5 800,-30.5 800,-0.5 690,-0.5"/>
<text text-anchor="start" x="698" y="-18.5" font-family="Helvetica,sans-Serif" font-size="10.00">llvm/ExecutionEngine</text>
<text text-anchor="middle" x="745" y="-7.5" font-family="Helvetica,sans-Serif" font-size="10.00">/JITSymbol.h</text>
</a>
</g>
</g>
<!-- Node2&#45;&gt;Node8 -->
<g id="edge7" class="edge">
<title>Node2&#45;&gt;Node8</title>
<path fill="none" stroke="midnightblue" d="M4236.15,-76C3969.01,-75.9 1218.68,-73.93 810.07,-30.86"/>
<polygon fill="midnightblue" stroke="midnightblue" points="810.36,-27.37 800.03,-29.74 809.58,-34.33 810.36,-27.37"/>
</g>
<!-- Node9 -->
<g id="node9" class="node">
<title>Node9</title>
<g id="a_node9"><a xlink:title=" ">
<polygon fill="none" stroke="#bfbfbf" points="818,-0.5 818,-30.5 928,-30.5 928,-0.5 818,-0.5"/>
<text text-anchor="start" x="826" y="-18.5" font-family="Helvetica,sans-Serif" font-size="10.00">llvm/ExecutionEngine</text>
<text text-anchor="middle" x="873" y="-7.5" font-family="Helvetica,sans-Serif" font-size="10.00">/ObjectCache.h</text>
</a>
</g>
</g>
<!-- Node2&#45;&gt;Node9 -->
<g id="edge8" class="edge">
<title>Node2&#45;&gt;Node9</title>
<path fill="none" stroke="midnightblue" d="M4236.11,-75.98C3974.29,-75.75 1332.32,-72.41 937.99,-30.85"/>
<polygon fill="midnightblue" stroke="midnightblue" points="938.36,-27.37 928.03,-29.74 937.58,-34.33 938.36,-27.37"/>
</g>
<!-- Node10 -->
<g id="node10" class="node">
<title>Node10</title>
<g id="a_node10"><a xlink:title=" ">
<polygon fill="none" stroke="#bfbfbf" points="946,-0.5 946,-30.5 1056,-30.5 1056,-0.5 946,-0.5"/>
<text text-anchor="start" x="954" y="-18.5" font-family="Helvetica,sans-Serif" font-size="10.00">llvm/ExecutionEngine</text>
<text text-anchor="middle" x="1001" y="-7.5" font-family="Helvetica,sans-Serif" font-size="10.00">/Orc/CompileUtils.h</text>
</a>
</g>
</g>
<!-- Node2&#45;&gt;Node10 -->
<g id="edge9" class="edge">
<title>Node2&#45;&gt;Node10</title>
<path fill="none" stroke="midnightblue" d="M4236.13,-75.97C3980.05,-75.6 1447.14,-70.9 1066.16,-30.87"/>
<polygon fill="midnightblue" stroke="midnightblue" points="1066.36,-27.37 1056.03,-29.73 1065.58,-34.32 1066.36,-27.37"/>
</g>
<!-- Node11 -->
<g id="node11" class="node">
<title>Node11</title>
<g id="a_node11"><a xlink:title=" ">
<polygon fill="none" stroke="#bfbfbf" points="1074.5,-0.5 1074.5,-30.5 1189.5,-30.5 1189.5,-0.5 1074.5,-0.5"/>
<text text-anchor="start" x="1082.5" y="-18.5" font-family="Helvetica,sans-Serif" font-size="10.00">llvm/ExecutionEngine</text>
<text text-anchor="middle" x="1132" y="-7.5" font-family="Helvetica,sans-Serif" font-size="10.00">/Orc/IRCompileLayer.h</text>
</a>
</g>
</g>
<!-- Node2&#45;&gt;Node11 -->
<g id="edge10" class="edge">
<title>Node2&#45;&gt;Node11</title>
<path fill="none" stroke="midnightblue" d="M4236.24,-75.95C3986.72,-75.27 1566.04,-67.79 1199.62,-30.8"/>
<polygon fill="midnightblue" stroke="midnightblue" points="1199.94,-27.32 1189.62,-29.73 1199.19,-34.28 1199.94,-27.32"/>
</g>
<!-- Node12 -->
<g id="node12" class="node">
<title>Node12</title>
<g id="a_node12"><a xlink:title=" ">
<polygon fill="none" stroke="#bfbfbf" points="1208,-0.5 1208,-30.5 1330,-30.5 1330,-0.5 1208,-0.5"/>
<text text-anchor="start" x="1216" y="-18.5" font-family="Helvetica,sans-Serif" font-size="10.00">llvm/ExecutionEngine</text>
<text text-anchor="middle" x="1269" y="-7.5" font-family="Helvetica,sans-Serif" font-size="10.00">/Orc/IRTransformLayer.h</text>
</a>
</g>
</g>
<!-- Node2&#45;&gt;Node12 -->
<g id="edge11" class="edge">
<title>Node2&#45;&gt;Node12</title>
<path fill="none" stroke="midnightblue" d="M4236.44,-75.92C3994.42,-74.95 1691.25,-64.89 1340.39,-30.93"/>
<polygon fill="midnightblue" stroke="midnightblue" points="1340.66,-27.44 1330.36,-29.89 1339.94,-34.4 1340.66,-27.44"/>
</g>
<!-- Node13 -->
<g id="node13" class="node">
<title>Node13</title>
<g id="a_node13"><a xlink:title=" ">
<polygon fill="none" stroke="#bfbfbf" points="1348,-0.5 1348,-30.5 1458,-30.5 1458,-0.5 1348,-0.5"/>
<text text-anchor="start" x="1356" y="-18.5" font-family="Helvetica,sans-Serif" font-size="10.00">llvm/ExecutionEngine</text>
<text text-anchor="middle" x="1403" y="-7.5" font-family="Helvetica,sans-Serif" font-size="10.00">/Orc/IndirectionUtils.h</text>
</a>
</g>
</g>
<!-- Node2&#45;&gt;Node13 -->
<g id="edge12" class="edge">
<title>Node2&#45;&gt;Node13</title>
<path fill="none" stroke="midnightblue" d="M4236.24,-75.93C3999.21,-75.06 1806.16,-66.16 1468.37,-30.89"/>
<polygon fill="midnightblue" stroke="midnightblue" points="1468.36,-27.36 1458.03,-29.73 1467.58,-34.32 1468.36,-27.36"/>
</g>
<!-- Node14 -->
<g id="node14" class="node">
<title>Node14</title>
<g id="a_node14"><a xlink:title=" ">
<polygon fill="none" stroke="#bfbfbf" points="1476.5,-0.5 1476.5,-30.5 1637.5,-30.5 1637.5,-0.5 1476.5,-0.5"/>
<text text-anchor="start" x="1484.5" y="-18.5" font-family="Helvetica,sans-Serif" font-size="10.00">llvm/ExecutionEngine</text>
<text text-anchor="middle" x="1557" y="-7.5" font-family="Helvetica,sans-Serif" font-size="10.00">/Orc/RTDyldObjectLinkingLayer.h</text>
</a>
</g>
</g>
<!-- Node2&#45;&gt;Node14 -->
<g id="edge13" class="edge">
<title>Node2&#45;&gt;Node14</title>
<path fill="none" stroke="midnightblue" d="M4236.44,-76.05C4023.25,-76.54 2212.97,-79.2 1648.15,-30.98"/>
<polygon fill="midnightblue" stroke="midnightblue" points="1648.15,-27.47 1637.88,-30.09 1647.54,-34.44 1648.15,-27.47"/>
</g>
<!-- Node15 -->
<g id="node15" class="node">
<title>Node15</title>
<g id="a_node15"><a xlink:title=" ">
<polygon fill="none" stroke="#bfbfbf" points="1656,-0.5 1656,-30.5 1788,-30.5 1788,-0.5 1656,-0.5"/>
<text text-anchor="start" x="1664" y="-18.5" font-family="Helvetica,sans-Serif" font-size="10.00">llvm/ExecutionEngine</text>
<text text-anchor="middle" x="1722" y="-7.5" font-family="Helvetica,sans-Serif" font-size="10.00">/RTDyldMemoryManager.h</text>
</a>
</g>
</g>
<!-- Node2&#45;&gt;Node15 -->
<g id="edge14" class="edge">
<title>Node2&#45;&gt;Node15</title>
<path fill="none" stroke="midnightblue" d="M4236.34,-75.84C4015.86,-74.1 2099.05,-58.3 1798.18,-30.91"/>
<polygon fill="midnightblue" stroke="midnightblue" points="1798.45,-27.42 1788.16,-29.93 1797.77,-34.39 1798.45,-27.42"/>
</g>
<!-- Node16 -->
<g id="node16" class="node">
<title>Node16</title>
<g id="a_node16"><a xlink:title=" ">
<polygon fill="none" stroke="#bfbfbf" points="1806,-0.5 1806,-30.5 1940,-30.5 1940,-0.5 1806,-0.5"/>
<text text-anchor="start" x="1814" y="-18.5" font-family="Helvetica,sans-Serif" font-size="10.00">llvm/ExecutionEngine</text>
<text text-anchor="middle" x="1873" y="-7.5" font-family="Helvetica,sans-Serif" font-size="10.00">/SectionMemoryManager.h</text>
</a>
</g>
</g>
<!-- Node2&#45;&gt;Node16 -->
<g id="edge15" class="edge">
<title>Node2&#45;&gt;Node16</title>
<path fill="none" stroke="midnightblue" d="M4236.37,-76.08C4037,-76.79 2449,-80.85 1950.19,-30.97"/>
<polygon fill="midnightblue" stroke="midnightblue" points="1950.35,-27.46 1940.05,-29.93 1949.64,-34.43 1950.35,-27.46"/>
</g>
<!-- Node17 -->
<g id="node17" class="node">
<title>Node17</title>
<g id="a_node17"><a xlink:title=" ">
<polygon fill="none" stroke="#bfbfbf" points="1958.5,-6 1958.5,-25 2107.5,-25 2107.5,-6 1958.5,-6"/>
<text text-anchor="middle" x="2033" y="-13" font-family="Helvetica,sans-Serif" font-size="10.00">llvm/Support/DynamicLibrary.h</text>
</a>
</g>
</g>
<!-- Node2&#45;&gt;Node17 -->
<g id="edge16" class="edge">
<title>Node2&#45;&gt;Node17</title>
<path fill="none" stroke="midnightblue" d="M4236.4,-75.99C4044.03,-75.88 2559.49,-73.6 2117,-31 2106.62,-30 2095.59,-28.45 2085.05,-26.73"/>
<polygon fill="midnightblue" stroke="midnightblue" points="2085.58,-23.27 2075.14,-25.05 2084.41,-30.17 2085.58,-23.27"/>
</g>
<!-- Node18 -->
<g id="node18" class="node">
<title>Node18</title>
<g id="a_node18"><a xlink:title=" ">
<polygon fill="none" stroke="#bfbfbf" points="2126,-6 2126,-25 2228,-25 2228,-6 2126,-6"/>
<text text-anchor="middle" x="2177" y="-13" font-family="Helvetica,sans-Serif" font-size="10.00">llvm/Support/Error.h</text>
</a>
</g>
</g>
<!-- Node2&#45;&gt;Node18 -->
<g id="edge17" class="edge">
<title>Node2&#45;&gt;Node18</title>
<path fill="none" stroke="midnightblue" d="M4236.45,-75.81C4036.82,-73.94 2445.59,-58.21 2237,-31 2230.29,-30.12 2223.24,-28.8 2216.42,-27.3"/>
<polygon fill="midnightblue" stroke="midnightblue" points="2217.21,-23.89 2206.67,-25.01 2215.61,-30.7 2217.21,-23.89"/>
</g>
<!-- Node19 -->
<g id="node19" class="node">
<title>Node19</title>
<g id="a_node19"><a xlink:title=" ">
<polygon fill="none" stroke="#bfbfbf" points="2246.5,-6 2246.5,-25 2383.5,-25 2383.5,-6 2246.5,-6"/>
<text text-anchor="middle" x="2315" y="-13" font-family="Helvetica,sans-Serif" font-size="10.00">llvm/Support/raw_ostream.h</text>
</a>
</g>
</g>
<!-- Node2&#45;&gt;Node19 -->
<g id="edge18" class="edge">
<title>Node2&#45;&gt;Node19</title>
<path fill="none" stroke="midnightblue" d="M4236.33,-75.96C4057.97,-75.52 2776.13,-70.98 2393,-31 2383.64,-30.02 2373.73,-28.54 2364.22,-26.88"/>
<polygon fill="midnightblue" stroke="midnightblue" points="2364.57,-23.39 2354.1,-25.03 2363.31,-30.27 2364.57,-23.39"/>
</g>
<!-- Node20 -->
<g id="node20" class="node">
<title>Node20</title>
<g id="a_node20"><a xlink:title=" ">
<polygon fill="none" stroke="#bfbfbf" points="2402,-6 2402,-25 2538,-25 2538,-6 2402,-6"/>
<text text-anchor="middle" x="2470" y="-13" font-family="Helvetica,sans-Serif" font-size="10.00">llvm/Support/TargetSelect.h</text>
</a>
</g>
</g>
<!-- Node2&#45;&gt;Node20 -->
<g id="edge19" class="edge">
<title>Node2&#45;&gt;Node20</title>
<path fill="none" stroke="midnightblue" d="M4236.46,-75.91C4067,-75.12 2897.3,-68.35 2547,-31 2537.76,-30.02 2527.97,-28.52 2518.58,-26.87"/>
<polygon fill="midnightblue" stroke="midnightblue" points="2519.07,-23.4 2508.6,-25.02 2517.79,-30.28 2519.07,-23.4"/>
</g>
<!-- Node21 -->
<g id="node21" class="node">
<title>Node21</title>
<g id="a_node21"><a xlink:title=" ">
<polygon fill="none" stroke="#bfbfbf" points="2556.5,-6 2556.5,-25 2699.5,-25 2699.5,-6 2556.5,-6"/>
<text text-anchor="middle" x="2628" y="-13" font-family="Helvetica,sans-Serif" font-size="10.00">llvm/Support/CommandLine.h</text>
</a>
</g>
</g>
<!-- Node2&#45;&gt;Node21 -->
<g id="edge20" class="edge">
<title>Node2&#45;&gt;Node21</title>
<path fill="none" stroke="midnightblue" d="M4236.41,-75.83C4075.98,-74.42 3024.08,-64.05 2708,-31 2698.41,-30 2688.25,-28.5 2678.5,-26.84"/>
<polygon fill="midnightblue" stroke="midnightblue" points="2678.99,-23.37 2668.53,-25.07 2677.76,-30.26 2678.99,-23.37"/>
</g>
<!-- Node22 -->
<g id="node22" class="node">
<title>Node22</title>
<g id="a_node22"><a xlink:title=" ">
<polygon fill="none" stroke="#bfbfbf" points="2717.5,-6 2717.5,-25 2836.5,-25 2836.5,-6 2717.5,-6"/>
<text text-anchor="middle" x="2777" y="-13" font-family="Helvetica,sans-Serif" font-size="10.00">llvm/Support/InitLLVM.h</text>
</a>
</g>
</g>
<!-- Node2&#45;&gt;Node22 -->
<g id="edge21" class="edge">
<title>Node2&#45;&gt;Node22</title>
<path fill="none" stroke="midnightblue" d="M4236.32,-75.85C4083.8,-74.64 3131.38,-65.81 2845,-31 2837.16,-30.05 2828.9,-28.64 2820.92,-27.06"/>
<polygon fill="midnightblue" stroke="midnightblue" points="2821.55,-23.62 2811.04,-25 2820.12,-30.47 2821.55,-23.62"/>
</g>
<!-- Node23 -->
<g id="node23" class="node">
<title>Node23</title>
<g id="a_node23"><a xlink:title=" ">
<polygon fill="none" stroke="#bfbfbf" points="2854.5,-6 2854.5,-25 2955.5,-25 2955.5,-6 2854.5,-6"/>
<text text-anchor="middle" x="2905" y="-13" font-family="Helvetica,sans-Serif" font-size="10.00">llvm/Support/Host.h</text>
</a>
</g>
</g>
<!-- Node2&#45;&gt;Node23 -->
<g id="edge22" class="edge">
<title>Node2&#45;&gt;Node23</title>
<path fill="none" stroke="midnightblue" d="M4236.25,-75.85C4091.04,-74.73 3225.45,-66.63 2965,-31 2958.52,-30.11 2951.72,-28.83 2945.12,-27.38"/>
<polygon fill="midnightblue" stroke="midnightblue" points="2945.52,-23.88 2934.99,-25.01 2943.93,-30.69 2945.52,-23.88"/>
</g>
<!-- Node24 -->
<g id="node24" class="node">
<title>Node24</title>
<g id="a_node24"><a xlink:title=" ">
<polygon fill="none" stroke="#bfbfbf" points="2974,-6 2974,-25 3112,-25 3112,-6 2974,-6"/>
<text text-anchor="middle" x="3043" y="-13" font-family="Helvetica,sans-Serif" font-size="10.00">llvm/Target/TargetMachine.h</text>
</a>
</g>
</g>
<!-- Node2&#45;&gt;Node24 -->
<g id="edge23" class="edge">
<title>Node2&#45;&gt;Node24</title>
<path fill="none" stroke="midnightblue" d="M4236.38,-76.29C4123.55,-77.64 3569.69,-81.33 3121,-31 3111.85,-29.97 3102.17,-28.5 3092.84,-26.87"/>
<polygon fill="midnightblue" stroke="midnightblue" points="3093.38,-23.41 3082.92,-25.06 3092.13,-30.3 3093.38,-23.41"/>
</g>
<!-- Node25 -->
<g id="node25" class="node">
<title>Node25</title>
<g id="a_node25"><a xlink:title=" ">
<polygon fill="none" stroke="#bfbfbf" points="3130.5,-6 3130.5,-25 3265.5,-25 3265.5,-6 3130.5,-6"/>
<text text-anchor="middle" x="3198" y="-13" font-family="Helvetica,sans-Serif" font-size="10.00">llvm/Target/TargetOptions.h</text>
</a>
</g>
</g>
<!-- Node2&#45;&gt;Node25 -->
<g id="edge24" class="edge">
<title>Node2&#45;&gt;Node25</title>
<path fill="none" stroke="midnightblue" d="M4236.16,-76.15C4132.07,-76.65 3658.3,-76.22 3274,-31 3265.18,-29.96 3255.85,-28.49 3246.85,-26.88"/>
<polygon fill="midnightblue" stroke="midnightblue" points="3247.36,-23.42 3236.89,-25.03 3246.08,-30.3 3247.36,-23.42"/>
</g>
<!-- Node26 -->
<g id="node26" class="node">
<title>Node26</title>
<g id="a_node26"><a xlink:title=" ">
<polygon fill="none" stroke="#bfbfbf" points="3283.5,-0.5 3283.5,-30.5 3410.5,-30.5 3410.5,-0.5 3283.5,-0.5"/>
<text text-anchor="start" x="3291.5" y="-18.5" font-family="Helvetica,sans-Serif" font-size="10.00">llvm/Target/TargetIntrinsic</text>
<text text-anchor="middle" x="3347" y="-7.5" font-family="Helvetica,sans-Serif" font-size="10.00">Info.h</text>
</a>
</g>
</g>
<!-- Node2&#45;&gt;Node26 -->
<g id="edge25" class="edge">
<title>Node2&#45;&gt;Node26</title>
<path fill="none" stroke="midnightblue" d="M4236.48,-75.99C4143.39,-75.73 3751.28,-72.19 3420.77,-31.1"/>
<polygon fill="midnightblue" stroke="midnightblue" points="3420.88,-27.59 3410.52,-29.81 3420.01,-34.53 3420.88,-27.59"/>
</g>
<!-- Node27 -->
<g id="node27" class="node">
<title>Node27</title>
<g id="a_node27"><a xlink:title=" ">
<polygon fill="none" stroke="#bfbfbf" points="3428.5,-0.5 3428.5,-30.5 3569.5,-30.5 3569.5,-0.5 3428.5,-0.5"/>
<text text-anchor="start" x="3436.5" y="-18.5" font-family="Helvetica,sans-Serif" font-size="10.00">llvm/Transforms/InstCombine</text>
<text text-anchor="middle" x="3499" y="-7.5" font-family="Helvetica,sans-Serif" font-size="10.00">/InstCombine.h</text>
</a>
</g>
</g>
<!-- Node2&#45;&gt;Node27 -->
<g id="edge26" class="edge">
<title>Node2&#45;&gt;Node27</title>
<path fill="none" stroke="midnightblue" d="M4236.4,-75.48C4154.65,-73.25 3845.16,-63.12 3579.82,-30.99"/>
<polygon fill="midnightblue" stroke="midnightblue" points="3579.96,-27.48 3569.6,-29.74 3579.1,-34.43 3579.96,-27.48"/>
</g>
<!-- Node28 -->
<g id="node28" class="node">
<title>Node28</title>
<g id="a_node28"><a xlink:title=" ">
<polygon fill="none" stroke="#bfbfbf" points="3588,-6 3588,-25 3700,-25 3700,-6 3588,-6"/>
<text text-anchor="middle" x="3644" y="-13" font-family="Helvetica,sans-Serif" font-size="10.00">llvm/Transforms/IPO.h</text>
</a>
</g>
</g>
<!-- Node2&#45;&gt;Node28 -->
<g id="edge27" class="edge">
<title>Node2&#45;&gt;Node28</title>
<path fill="none" stroke="midnightblue" d="M4236.48,-75.33C4163.99,-72.76 3913.33,-62.03 3709,-31 3702.24,-29.97 3695.14,-28.65 3688.21,-27.22"/>
<polygon fill="midnightblue" stroke="midnightblue" points="3688.76,-23.75 3678.24,-25.06 3687.28,-30.6 3688.76,-23.75"/>
</g>
<!-- Node29 -->
<g id="node29" class="node">
<title>Node29</title>
<g id="a_node29"><a xlink:title=" ">
<polygon fill="none" stroke="#bfbfbf" points="3718,-0.5 3718,-30.5 3836,-30.5 3836,-0.5 3718,-0.5"/>
<text text-anchor="start" x="3726" y="-18.5" font-family="Helvetica,sans-Serif" font-size="10.00">llvm/Transforms/IPO</text>
<text text-anchor="middle" x="3777" y="-7.5" font-family="Helvetica,sans-Serif" font-size="10.00">/PassManagerBuilder.h</text>
</a>
</g>
</g>
<!-- Node2&#45;&gt;Node29 -->
<g id="edge28" class="edge">
<title>Node2&#45;&gt;Node29</title>
<path fill="none" stroke="midnightblue" d="M4236.32,-74.49C4177.15,-70 4001.94,-55.63 3846.48,-31.14"/>
<polygon fill="midnightblue" stroke="midnightblue" points="3846.7,-27.63 3836.27,-29.51 3845.6,-34.54 3846.7,-27.63"/>
</g>
<!-- Node30 -->
<g id="node30" class="node">
<title>Node30</title>
<g id="a_node30"><a xlink:title=" ">
<polygon fill="none" stroke="#bfbfbf" points="3854.5,-6 3854.5,-25 3969.5,-25 3969.5,-6 3854.5,-6"/>
<text text-anchor="middle" x="3912" y="-13" font-family="Helvetica,sans-Serif" font-size="10.00">llvm/Transforms/Utils.h</text>
</a>
</g>
</g>
<!-- Node2&#45;&gt;Node30 -->
<g id="edge29" class="edge">
<title>Node2&#45;&gt;Node30</title>
<path fill="none" stroke="midnightblue" d="M4236.28,-73.07C4189.88,-66.41 4074.16,-49.3 3978,-31 3971.87,-29.83 3965.45,-28.53 3959.11,-27.19"/>
<polygon fill="midnightblue" stroke="midnightblue" points="3959.78,-23.75 3949.27,-25.07 3958.31,-30.6 3959.78,-23.75"/>
</g>
<!-- Node31 -->
<g id="node31" class="node">
<title>Node31</title>
<g id="a_node31"><a xlink:title=" ">
<polygon fill="none" stroke="#bfbfbf" points="3987.5,-0.5 3987.5,-30.5 4170.5,-30.5 4170.5,-0.5 3987.5,-0.5"/>
<text text-anchor="start" x="3995.5" y="-18.5" font-family="Helvetica,sans-Serif" font-size="10.00">llvm/Transforms/Aggressive</text>
<text text-anchor="middle" x="4079" y="-7.5" font-family="Helvetica,sans-Serif" font-size="10.00">InstCombine/AggressiveInstCombine.h</text>
</a>
</g>
</g>
<!-- Node2&#45;&gt;Node31 -->
<g id="edge30" class="edge">
<title>Node2&#45;&gt;Node31</title>
<path fill="none" stroke="midnightblue" d="M4236.23,-69.06C4210.5,-60.46 4165.74,-45.49 4130.54,-33.73"/>
<polygon fill="midnightblue" stroke="midnightblue" points="4131.49,-30.35 4120.89,-30.5 4129.27,-36.99 4131.49,-30.35"/>
</g>
<!-- Node32 -->
<g id="node32" class="node">
<title>Node32</title>
<g id="a_node32"><a xlink:title=" ">
<polygon fill="none" stroke="#bfbfbf" points="4188.5,-6 4188.5,-25 4325.5,-25 4325.5,-6 4188.5,-6"/>
<text text-anchor="middle" x="4257" y="-13" font-family="Helvetica,sans-Serif" font-size="10.00">llvm/Transforms/Vectorize.h</text>
</a>
</g>
</g>
<!-- Node2&#45;&gt;Node32 -->
<g id="edge31" class="edge">
<title>Node2&#45;&gt;Node32</title>
<path fill="none" stroke="midnightblue" d="M4257,-67.48C4257,-59.08 4257,-45.98 4257,-35.16"/>
<polygon fill="midnightblue" stroke="midnightblue" points="4260.5,-35.01 4257,-25.01 4253.5,-35.01 4260.5,-35.01"/>
</g>
<!-- Node33 -->
<g id="node33" class="node">
<title>Node33</title>
<g id="a_node33"><a xlink:title=" ">
<polygon fill="none" stroke="#bfbfbf" points="4343.5,-6 4343.5,-25 4466.5,-25 4466.5,-6 4343.5,-6"/>
<text text-anchor="middle" x="4405" y="-13" font-family="Helvetica,sans-Serif" font-size="10.00">llvm/Transforms/Scalar.h</text>
</a>
</g>
</g>
<!-- Node2&#45;&gt;Node33 -->
<g id="edge32" class="edge">
<title>Node2&#45;&gt;Node33</title>
<path fill="none" stroke="midnightblue" d="M4277.58,-67.73C4302.59,-57.67 4345.03,-40.61 4374,-28.96"/>
<polygon fill="midnightblue" stroke="midnightblue" points="4375.66,-32.07 4383.64,-25.09 4373.05,-25.57 4375.66,-32.07"/>
</g>
<!-- Node34 -->
<g id="node34" class="node">
<title>Node34</title>
<g id="a_node34"><a xlink:title=" ">
<polygon fill="none" stroke="#bfbfbf" points="4484.5,-0.5 4484.5,-30.5 4599.5,-30.5 4599.5,-0.5 4484.5,-0.5"/>
<text text-anchor="start" x="4492.5" y="-18.5" font-family="Helvetica,sans-Serif" font-size="10.00">llvm/Transforms/Scalar</text>
<text text-anchor="middle" x="4542" y="-7.5" font-family="Helvetica,sans-Serif" font-size="10.00">/GVN.h</text>
</a>
</g>
</g>
<!-- Node2&#45;&gt;Node34 -->
<g id="edge33" class="edge">
<title>Node2&#45;&gt;Node34</title>
<path fill="none" stroke="midnightblue" d="M4277.75,-71.78C4314.94,-64.22 4395.61,-47.73 4474.2,-31.16"/>
<polygon fill="midnightblue" stroke="midnightblue" points="4475.2,-34.52 4484.26,-29.03 4473.76,-27.67 4475.2,-34.52"/>
</g>
<!-- Node35 -->
<g id="node35" class="node">
<title>Node35</title>
<g id="a_node35"><a xlink:title=" ">
<polygon fill="none" stroke="#bfbfbf" points="4617.5,-0.5 4617.5,-30.5 4740.5,-30.5 4740.5,-0.5 4617.5,-0.5"/>
<text text-anchor="start" x="4625.5" y="-18.5" font-family="Helvetica,sans-Serif" font-size="10.00">llvm/Analysis/BasicAlias</text>
<text text-anchor="middle" x="4679" y="-7.5" font-family="Helvetica,sans-Serif" font-size="10.00">Analysis.h</text>
</a>
</g>
</g>
<!-- Node2&#45;&gt;Node35 -->
<g id="edge34" class="edge">
<title>Node2&#45;&gt;Node35</title>
<path fill="none" stroke="midnightblue" d="M4277.65,-73.89C4330.62,-68.37 4475.82,-52.52 4607.61,-30.98"/>
<polygon fill="midnightblue" stroke="midnightblue" points="4608.18,-34.44 4617.48,-29.35 4607.04,-27.53 4608.18,-34.44"/>
</g>
<!-- Node36 -->
<g id="node36" class="node">
<title>Node36</title>
<g id="a_node36"><a xlink:title=" ">
<polygon fill="none" stroke="#bfbfbf" points="4758.5,-6 4758.5,-25 4859.5,-25 4859.5,-6 4758.5,-6"/>
<text text-anchor="middle" x="4809" y="-13" font-family="Helvetica,sans-Serif" font-size="10.00">llvm/Analysis/Lint.h</text>
</a>
</g>
</g>
<!-- Node2&#45;&gt;Node36 -->
<g id="edge35" class="edge">
<title>Node2&#45;&gt;Node36</title>
<path fill="none" stroke="midnightblue" d="M4277.76,-75.19C4345.78,-72.29 4567.91,-61 4749,-31 4754.96,-30.01 4761.21,-28.76 4767.32,-27.4"/>
<polygon fill="midnightblue" stroke="midnightblue" points="4768.47,-30.72 4777.42,-25.05 4766.88,-23.91 4768.47,-30.72"/>
</g>
<!-- Node37 -->
<g id="node37" class="node">
<title>Node37</title>
<g id="a_node37"><a xlink:title=" ">
<polygon fill="none" stroke="#bfbfbf" points="4878,-6 4878,-25 4994,-25 4994,-6 4878,-6"/>
<text text-anchor="middle" x="4936" y="-13" font-family="Helvetica,sans-Serif" font-size="10.00">llvm/IR/PassManager.h</text>
</a>
</g>
</g>
<!-- Node2&#45;&gt;Node37 -->
<g id="edge36" class="edge">
<title>Node2&#45;&gt;Node37</title>
<path fill="none" stroke="midnightblue" d="M4277.68,-75.5C4355.49,-73.4 4637.93,-63.85 4868,-31 4875.31,-29.96 4883.01,-28.58 4890.5,-27.1"/>
<polygon fill="midnightblue" stroke="midnightblue" points="4891.44,-30.48 4900.52,-25.02 4890.02,-23.62 4891.44,-30.48"/>
</g>
<!-- Node38 -->
<g id="node38" class="node">
<title>Node38</title>
<g id="a_node38"><a xlink:title=" ">
<polygon fill="none" stroke="#bfbfbf" points="5012,-6 5012,-25 5118,-25 5118,-6 5012,-6"/>
<text text-anchor="middle" x="5065" y="-13" font-family="Helvetica,sans-Serif" font-size="10.00">llvm/IR/DataLayout.h</text>
</a>
</g>
</g>
<!-- Node2&#45;&gt;Node38 -->
<g id="edge37" class="edge">
<title>Node2&#45;&gt;Node38</title>
<path fill="none" stroke="midnightblue" d="M4277.6,-76.03C4365.5,-75.9 4717.66,-72.67 5003,-31 5009.46,-30.06 5016.24,-28.78 5022.85,-27.37"/>
<polygon fill="midnightblue" stroke="midnightblue" points="5024.03,-30.69 5033.02,-25.07 5022.49,-23.86 5024.03,-30.69"/>
</g>
<!-- Node39 -->
<g id="node39" class="node">
<title>Node39</title>
<g id="a_node39"><a xlink:title=" ">
<polygon fill="none" stroke="#bfbfbf" points="5136,-6 5136,-25 5284,-25 5284,-6 5136,-6"/>
<text text-anchor="middle" x="5210" y="-13" font-family="Helvetica,sans-Serif" font-size="10.00">llvm/IR/LegacyPassManager.h</text>
</a>
</g>
</g>
<!-- Node2&#45;&gt;Node39 -->
<g id="edge38" class="edge">
<title>Node2&#45;&gt;Node39</title>
<path fill="none" stroke="midnightblue" d="M4277.63,-75.86C4373.97,-74.99 4789.22,-69.1 5127,-31 5136.71,-29.9 5147,-28.39 5156.91,-26.76"/>
<polygon fill="midnightblue" stroke="midnightblue" points="5157.8,-30.16 5167.06,-25.02 5156.62,-23.26 5157.8,-30.16"/>
</g>
<!-- Node40 -->
<g id="node40" class="node">
<title>Node40</title>
<g id="a_node40"><a xlink:title=" ">
<polygon fill="none" stroke="#bfbfbf" points="5302.5,-6 5302.5,-25 5393.5,-25 5393.5,-6 5302.5,-6"/>
<text text-anchor="middle" x="5348" y="-13" font-family="Helvetica,sans-Serif" font-size="10.00">llvm/IR/Mangler.h</text>
</a>
</g>
</g>
<!-- Node2&#45;&gt;Node40 -->
<g id="edge39" class="edge">
<title>Node2&#45;&gt;Node40</title>
<path fill="none" stroke="midnightblue" d="M4277.58,-75.71C4404.9,-73.81 5086.75,-62.3 5293,-31 5298.61,-30.15 5304.48,-28.95 5310.2,-27.6"/>
<polygon fill="midnightblue" stroke="midnightblue" points="5311.43,-30.9 5320.26,-25.05 5309.71,-24.11 5311.43,-30.9"/>
</g>
<!-- Node41 -->
<g id="node41" class="node">
<title>Node41</title>
<g id="a_node41"><a xlink:title=" ">
<polygon fill="none" stroke="#bfbfbf" points="5412,-6 5412,-25 5518,-25 5518,-6 5412,-6"/>
<text text-anchor="middle" x="5465" y="-13" font-family="Helvetica,sans-Serif" font-size="10.00">llvm/IR/BasicBlock.h</text>
</a>
</g>
</g>
<!-- Node2&#45;&gt;Node41 -->
<g id="edge40" class="edge">
<title>Node2&#45;&gt;Node41</title>
<path fill="none" stroke="midnightblue" d="M4277.5,-75.72C4412.22,-73.79 5172.28,-61.68 5402,-31 5408.88,-30.08 5416.11,-28.76 5423.12,-27.29"/>
<polygon fill="midnightblue" stroke="midnightblue" points="5424.16,-30.64 5433.16,-25.05 5422.64,-23.81 5424.16,-30.64"/>
</g>
<!-- Node42 -->
<g id="node42" class="node">
<title>Node42</title>
<g id="a_node42"><a xlink:title=" ">
<polygon fill="none" stroke="#bfbfbf" points="5536.5,-6 5536.5,-25 5637.5,-25 5637.5,-6 5536.5,-6"/>
<text text-anchor="middle" x="5587" y="-13" font-family="Helvetica,sans-Serif" font-size="10.00">llvm/IR/Constants.h</text>
</a>
</g>
</g>
<!-- Node2&#45;&gt;Node42 -->
<g id="edge41" class="edge">
<title>Node2&#45;&gt;Node42</title>
<path fill="none" stroke="midnightblue" d="M4277.86,-75.84C4421.95,-74.63 5271.26,-66.07 5527,-31 5533.48,-30.11 5540.28,-28.82 5546.88,-27.37"/>
<polygon fill="midnightblue" stroke="midnightblue" points="5548.07,-30.69 5557.01,-25 5546.48,-23.87 5548.07,-30.69"/>
</g>
<!-- Node43 -->
<g id="node43" class="node">
<title>Node43</title>
<g id="a_node43"><a xlink:title=" ">
<polygon fill="none" stroke="#bfbfbf" points="5656,-6 5656,-25 5770,-25 5770,-6 5656,-6"/>
<text text-anchor="middle" x="5713" y="-13" font-family="Helvetica,sans-Serif" font-size="10.00">llvm/IR/DerivedTypes.h</text>
</a>
</g>
</g>
<!-- Node2&#45;&gt;Node43 -->
<g id="edge42" class="edge">
<title>Node2&#45;&gt;Node43</title>
<path fill="none" stroke="midnightblue" d="M4277.83,-75.84C4429.38,-74.62 5364.64,-65.71 5646,-31 5653.64,-30.06 5661.69,-28.67 5669.46,-27.11"/>
<polygon fill="midnightblue" stroke="midnightblue" points="5670.4,-30.49 5679.46,-25 5668.95,-23.64 5670.4,-30.49"/>
</g>
<!-- Node44 -->
<g id="node44" class="node">
<title>Node44</title>
<g id="a_node44"><a xlink:title=" ">
<polygon fill="none" stroke="#bfbfbf" points="5788,-6 5788,-25 5882,-25 5882,-6 5788,-6"/>
<text text-anchor="middle" x="5835" y="-13" font-family="Helvetica,sans-Serif" font-size="10.00">llvm/IR/Function.h</text>
</a>
</g>
</g>
<!-- Node2&#45;&gt;Node44 -->
<g id="edge43" class="edge">
<title>Node2&#45;&gt;Node44</title>
<path fill="none" stroke="midnightblue" d="M4277.76,-76.02C4437.27,-76.12 5470.18,-74.98 5779,-31 5784.92,-30.16 5791.12,-28.92 5797.15,-27.52"/>
<polygon fill="midnightblue" stroke="midnightblue" points="5798.19,-30.87 5807.05,-25.05 5796.5,-24.07 5798.19,-30.87"/>
</g>
<!-- Node45 -->
<g id="node45" class="node">
<title>Node45</title>
<g id="a_node45"><a xlink:title=" ">
<polygon fill="none" stroke="#bfbfbf" points="5900.5,-6 5900.5,-25 5995.5,-25 5995.5,-6 5900.5,-6"/>
<text text-anchor="middle" x="5948" y="-13" font-family="Helvetica,sans-Serif" font-size="10.00">llvm/IR/IRBuilder.h</text>
</a>
</g>
</g>
<!-- Node2&#45;&gt;Node45 -->
<g id="edge44" class="edge">
<title>Node2&#45;&gt;Node45</title>
<path fill="none" stroke="midnightblue" d="M4277.68,-76.06C4443.46,-76.45 5558.27,-77.32 5891,-31 5897.03,-30.16 5903.33,-28.93 5909.47,-27.53"/>
<polygon fill="midnightblue" stroke="midnightblue" points="5910.66,-30.84 5919.54,-25.06 5909,-24.04 5910.66,-30.84"/>
</g>
<!-- Node46 -->
<g id="node46" class="node">
<title>Node46</title>
<g id="a_node46"><a xlink:title=" ">
<polygon fill="none" stroke="#bfbfbf" points="6013.5,-6 6013.5,-25 6120.5,-25 6120.5,-6 6013.5,-6"/>
<text text-anchor="middle" x="6067" y="-13" font-family="Helvetica,sans-Serif" font-size="10.00">llvm/IR/Instructions.h</text>
</a>
</g>
</g>
<!-- Node2&#45;&gt;Node46 -->
<g id="edge45" class="edge">
<title>Node2&#45;&gt;Node46</title>
<path fill="none" stroke="midnightblue" d="M4277.72,-76.04C4449.97,-76.27 5646.76,-76.25 6004,-31 6010.96,-30.12 6018.27,-28.8 6025.35,-27.32"/>
<polygon fill="midnightblue" stroke="midnightblue" points="6026.5,-30.65 6035.5,-25.05 6024.97,-23.82 6026.5,-30.65"/>
</g>
<!-- Node47 -->
<g id="node47" class="node">
<title>Node47</title>
<g id="a_node47"><a xlink:title=" ">
<polygon fill="none" stroke="#bfbfbf" points="6139,-6 6139,-25 6255,-25 6255,-6 6139,-6"/>
<text text-anchor="middle" x="6197" y="-13" font-family="Helvetica,sans-Serif" font-size="10.00">llvm/IR/LLVMContext.h</text>
</a>
</g>
</g>
<!-- Node2&#45;&gt;Node47 -->
<g id="edge46" class="edge">
<title>Node2&#45;&gt;Node47</title>
<path fill="none" stroke="midnightblue" d="M4277.76,-76.03C4456.97,-76.25 5744.79,-76.18 6129,-31 6136.84,-30.08 6145.11,-28.68 6153.08,-27.11"/>
<polygon fill="midnightblue" stroke="midnightblue" points="6153.89,-30.52 6162.96,-25.05 6152.46,-23.67 6153.89,-30.52"/>
</g>
<!-- Node48 -->
<g id="node48" class="node">
<title>Node48</title>
<g id="a_node48"><a xlink:title=" ">
<polygon fill="none" stroke="#bfbfbf" points="6273,-6 6273,-25 6361,-25 6361,-6 6273,-6"/>
<text text-anchor="middle" x="6317" y="-13" font-family="Helvetica,sans-Serif" font-size="10.00">llvm/IR/Module.h</text>
</a>
</g>
</g>
<!-- Node2&#45;&gt;Node48 -->
<g id="edge47" class="edge">
<title>Node2&#45;&gt;Node48</title>
<path fill="none" stroke="midnightblue" d="M4277.73,-75.84C4477.47,-74.29 6057.29,-61.13 6264,-31 6269.55,-30.19 6275.34,-28.99 6280.97,-27.62"/>
<polygon fill="midnightblue" stroke="midnightblue" points="6282.07,-30.95 6290.85,-25.02 6280.29,-24.18 6282.07,-30.95"/>
</g>
<!-- Node49 -->
<g id="node49" class="node">
<title>Node49</title>
<g id="a_node49"><a xlink:title=" ">
<polygon fill="none" stroke="#bfbfbf" points="6379.5,-6 6379.5,-25 6456.5,-25 6456.5,-6 6379.5,-6"/>
<text text-anchor="middle" x="6418" y="-13" font-family="Helvetica,sans-Serif" font-size="10.00">llvm/IR/Type.h</text>
</a>
</g>
</g>
<!-- Node2&#45;&gt;Node49 -->
<g id="edge48" class="edge">
<title>Node2&#45;&gt;Node49</title>
<path fill="none" stroke="midnightblue" d="M4277.54,-75.9C4482.22,-74.88 6152.34,-65.53 6370,-31 6374.8,-30.24 6379.79,-29.12 6384.65,-27.84"/>
<polygon fill="midnightblue" stroke="midnightblue" points="6385.73,-31.17 6394.37,-25.03 6383.79,-24.44 6385.73,-31.17"/>
</g>
<!-- Node50 -->
<g id="node50" class="node">
<title>Node50</title>
<g id="a_node50"><a xlink:title=" ">
<polygon fill="none" stroke="#bfbfbf" points="6475,-6 6475,-25 6561,-25 6561,-6 6475,-6"/>
<text text-anchor="middle" x="6518" y="-13" font-family="Helvetica,sans-Serif" font-size="10.00">llvm/IR/Verifier.h</text>
</a>
</g>
</g>
<!-- Node2&#45;&gt;Node50 -->
<g id="edge49" class="edge">
<title>Node2&#45;&gt;Node50</title>
<path fill="none" stroke="midnightblue" d="M4277.79,-75.89C4488.65,-74.71 6236.85,-64.02 6465,-31 6470.55,-30.2 6476.34,-29 6481.97,-27.63"/>
<polygon fill="midnightblue" stroke="midnightblue" points="6483.07,-30.96 6491.85,-25.03 6481.29,-24.19 6483.07,-30.96"/>
</g>
<!-- Node51 -->
<g id="node51" class="node">
<title>Node51</title>
<g id="a_node51"><a xlink:title=" ">
<polygon fill="none" stroke="#bfbfbf" points="6579,-6 6579,-25 6635,-25 6635,-6 6579,-6"/>
<text text-anchor="middle" x="6607" y="-13" font-family="Helvetica,sans-Serif" font-size="10.00">algorithm</text>
</a>
</g>
</g>
<!-- Node2&#45;&gt;Node51 -->
<g id="edge50" class="edge">
<title>Node2&#45;&gt;Node51</title>
<path fill="none" stroke="midnightblue" d="M4277.78,-76.04C4494.21,-76.42 6332.79,-78.21 6570,-31 6573.08,-30.39 6576.24,-29.53 6579.34,-28.54"/>
<polygon fill="midnightblue" stroke="midnightblue" points="6580.74,-31.76 6588.94,-25.05 6578.35,-25.18 6580.74,-31.76"/>
</g>
<!-- Node52 -->
<g id="node52" class="node">
<title>Node52</title>
<g id="a_node52"><a xlink:title=" ">
<polygon fill="none" stroke="#bfbfbf" points="6653.5,-6 6653.5,-25 6702.5,-25 6702.5,-6 6653.5,-6"/>
<text text-anchor="middle" x="6678" y="-13" font-family="Helvetica,sans-Serif" font-size="10.00">cassert</text>
</a>
</g>
</g>
<!-- Node2&#45;&gt;Node52 -->
<g id="edge51" class="edge">
<title>Node2&#45;&gt;Node52</title>
<path fill="none" stroke="midnightblue" d="M4277.77,-76.09C4497.94,-77 6399.68,-83.33 6644,-31 6646.67,-30.43 6649.4,-29.64 6652.08,-28.74"/>
<polygon fill="midnightblue" stroke="midnightblue" points="6653.44,-31.96 6661.47,-25.05 6650.88,-25.45 6653.44,-31.96"/>
</g>
<!-- Node53 -->
<g id="node53" class="node">
<title>Node53</title>
<g id="a_node53"><a xlink:title=" ">
<polygon fill="none" stroke="#bfbfbf" points="6720.5,-6 6720.5,-25 6765.5,-25 6765.5,-6 6720.5,-6"/>
<text text-anchor="middle" x="6743" y="-13" font-family="Helvetica,sans-Serif" font-size="10.00">cstdlib</text>
</a>
</g>
</g>
<!-- Node2&#45;&gt;Node53 -->
<g id="edge52" class="edge">
<title>Node2&#45;&gt;Node53</title>
<path fill="none" stroke="midnightblue" d="M4277.8,-75.86C4508.61,-74.28 6585.39,-59.34 6711,-31 6713.36,-30.47 6715.76,-29.75 6718.12,-28.92"/>
<polygon fill="midnightblue" stroke="midnightblue" points="6719.59,-32.11 6727.49,-25.05 6716.91,-25.63 6719.59,-32.11"/>
</g>
<!-- Node54 -->
<g id="node54" class="node">
<title>Node54</title>
<g id="a_node54"><a xlink:title=" ">
<polygon fill="none" stroke="#bfbfbf" points="6784,-6 6784,-25 6830,-25 6830,-6 6784,-6"/>
<text text-anchor="middle" x="6807" y="-13" font-family="Helvetica,sans-Serif" font-size="10.00">chrono</text>
</a>
</g>
</g>
<!-- Node2&#45;&gt;Node54 -->
<g id="edge53" class="edge">
<title>Node2&#45;&gt;Node54</title>
<path fill="none" stroke="midnightblue" d="M4277.6,-75.87C4510.64,-74.31 6644.86,-59.33 6774,-31 6776.51,-30.45 6779.07,-29.7 6781.59,-28.83"/>
<polygon fill="midnightblue" stroke="midnightblue" points="6783.01,-32.03 6790.98,-25.06 6780.4,-25.54 6783.01,-32.03"/>
</g>
<!-- Node55 -->
<g id="node55" class="node">
<title>Node55</title>
<g id="a_node55"><a xlink:title=" ">
<polygon fill="none" stroke="#bfbfbf" points="6848.5,-6 6848.5,-25 6883.5,-25 6883.5,-6 6848.5,-6"/>
<text text-anchor="middle" x="6866" y="-13" font-family="Helvetica,sans-Serif" font-size="10.00">map</text>
</a>
</g>
</g>
<!-- Node2&#45;&gt;Node55 -->
<g id="edge54" class="edge">
<title>Node2&#45;&gt;Node55</title>
<path fill="none" stroke="midnightblue" d="M4277.78,-75.92C4515.07,-74.97 6707.7,-65.24 6839,-31 6840.66,-30.57 6842.34,-30.01 6843.99,-29.37"/>
<polygon fill="midnightblue" stroke="midnightblue" points="6845.54,-32.51 6853.06,-25.05 6842.53,-26.19 6845.54,-32.51"/>
</g>
<!-- Node56 -->
<g id="node56" class="node">
<title>Node56</title>
<g id="a_node56"><a xlink:title=" ">
<polygon fill="none" stroke="#bfbfbf" points="6902,-6 6902,-25 6954,-25 6954,-6 6902,-6"/>
<text text-anchor="middle" x="6928" y="-13" font-family="Helvetica,sans-Serif" font-size="10.00">memory</text>
</a>
</g>
</g>
<!-- Node2&#45;&gt;Node56 -->
<g id="edge55" class="edge">
<title>Node2&#45;&gt;Node56</title>
<path fill="none" stroke="midnightblue" d="M4277.81,-75.86C4517.87,-74.25 6756.21,-58.52 6892,-31 6894.91,-30.41 6897.88,-29.59 6900.82,-28.65"/>
<polygon fill="midnightblue" stroke="midnightblue" points="6902.3,-31.83 6910.45,-25.06 6899.86,-25.27 6902.3,-31.83"/>
</g>
<!-- Node57 -->
<g id="node57" class="node">
<title>Node57</title>
<g id="a_node57"><a xlink:title=" ">
<polygon fill="none" stroke="#bfbfbf" points="6972.5,-6 6972.5,-25 7013.5,-25 7013.5,-6 6972.5,-6"/>
<text text-anchor="middle" x="6993" y="-13" font-family="Helvetica,sans-Serif" font-size="10.00">string</text>
</a>
</g>
</g>
<!-- Node2&#45;&gt;Node57 -->
<g id="edge56" class="edge">
<title>Node2&#45;&gt;Node57</title>
<path fill="none" stroke="midnightblue" d="M4277.63,-75.91C4520.26,-74.85 6824.44,-63.94 6963,-31 6964.98,-30.53 6966.99,-29.91 6968.98,-29.2"/>
<polygon fill="midnightblue" stroke="midnightblue" points="6970.74,-32.25 6978.52,-25.06 6967.95,-25.83 6970.74,-32.25"/>
</g>
<!-- Node58 -->
<g id="node58" class="node">
<title>Node58</title>
<g id="a_node58"><a xlink:title=" ">
<polygon fill="none" stroke="#bfbfbf" points="7032,-6 7032,-25 7074,-25 7074,-6 7032,-6"/>
<text text-anchor="middle" x="7053" y="-13" font-family="Helvetica,sans-Serif" font-size="10.00">vector</text>
</a>
</g>
</g>
<!-- Node2&#45;&gt;Node58 -->
<g id="edge57" class="edge">
<title>Node2&#45;&gt;Node58</title>
<path fill="none" stroke="midnightblue" d="M4277.69,-75.91C4523.55,-74.84 6880.13,-63.75 7022,-31 7024.21,-30.49 7026.45,-29.81 7028.66,-29.02"/>
<polygon fill="midnightblue" stroke="midnightblue" points="7030.17,-32.19 7038.01,-25.06 7027.43,-25.74 7030.17,-32.19"/>
</g>
<!-- Node59 -->
<g id="node59" class="node">
<title>Node59</title>
<g id="a_node59"><a xlink:title=" ">
<polygon fill="none" stroke="#bfbfbf" points="7092.5,-6 7092.5,-25 7147.5,-25 7147.5,-6 7092.5,-6"/>
<text text-anchor="middle" x="7120" y="-13" font-family="Helvetica,sans-Serif" font-size="10.00">charconv</text>
</a>
</g>
</g>
<!-- Node2&#45;&gt;Node59 -->
<g id="edge58" class="edge">
<title>Node2&#45;&gt;Node59</title>
<path fill="none" stroke="midnightblue" d="M4277.75,-75.88C4526.84,-74.44 6936.92,-59.81 7083,-31 7086.08,-30.39 7089.24,-29.54 7092.34,-28.55"/>
<polygon fill="midnightblue" stroke="midnightblue" points="7093.74,-31.77 7101.95,-25.06 7091.35,-25.19 7093.74,-31.77"/>
</g>
<!-- Node60 -->
<g id="node60" class="node">
<title>Node60</title>
<g id="a_node60"><a xlink:title=" ">
<polygon fill="none" stroke="#bfbfbf" points="7165.5,-6 7165.5,-25 7194.5,-25 7194.5,-6 7165.5,-6"/>
<text text-anchor="middle" x="7180" y="-13" font-family="Helvetica,sans-Serif" font-size="10.00">list</text>
</a>
</g>
</g>
<!-- Node2&#45;&gt;Node60 -->
<g id="edge59" class="edge">
<title>Node2&#45;&gt;Node60</title>
<path fill="none" stroke="midnightblue" d="M4277.53,-75.99C4529.03,-75.83 7009.04,-73.18 7156,-31 7157.08,-30.69 7158.15,-30.32 7159.22,-29.9"/>
<polygon fill="midnightblue" stroke="midnightblue" points="7161.07,-32.89 7168.37,-25.21 7157.88,-26.66 7161.07,-32.89"/>
</g>
<!-- Node61&#45;&gt;Node62 -->
<g id="edge61" class="edge">
<title>Node61&#45;&gt;Node62</title>
<path fill="none" stroke="midnightblue" d="M7303.85,-67.48C7299.62,-58.82 7292.96,-45.15 7287.6,-34.15"/>
<polygon fill="midnightblue" stroke="midnightblue" points="7290.67,-32.46 7283.15,-25.01 7284.38,-35.53 7290.67,-32.46"/>
</g>
<!-- Node63 -->
<g id="node63" class="node">
<title>Node63</title>
<g id="a_node63"><a xlink:title=" ">
<polygon fill="none" stroke="#bfbfbf" points="7363.5,-0.5 7363.5,-30.5 7490.5,-30.5 7490.5,-0.5 7363.5,-0.5"/>
<text text-anchor="start" x="7371.5" y="-18.5" font-family="Helvetica,sans-Serif" font-size="10.00">llvm/Passes/Optimization</text>
<text text-anchor="middle" x="7427" y="-7.5" font-family="Helvetica,sans-Serif" font-size="10.00">Level.h</text>
</a>
</g>
</g>
<!-- Node61&#45;&gt;Node63 -->
<g id="edge62" class="edge">
<title>Node61&#45;&gt;Node63</title>
<path fill="none" stroke="midnightblue" d="M7325.05,-67.48C7341.92,-59.04 7368.29,-45.86 7389.98,-35.01"/>
<polygon fill="midnightblue" stroke="midnightblue" points="7391.58,-38.13 7398.95,-30.52 7388.44,-31.86 7391.58,-38.13"/>
</g>
</g>
</svg>
