<?xml version="1.0" encoding="UTF-8" standalone="no"?>
<!DOCTYPE svg PUBLIC "-//W3C//DTD SVG 1.1//EN"
 "http://www.w3.org/Graphics/SVG/1.1/DTD/svg11.dtd">
<!-- Generated by graphviz version 3.0.0 (20220226.1711)
 -->
<!-- Title: src/include/Options.h Pages: 1 -->
<svg width="316pt" height="140pt"
 viewBox="0.00 0.00 316.00 140.00" xmlns="http://www.w3.org/2000/svg" xmlns:xlink="http://www.w3.org/1999/xlink">
<g id="graph0" class="graph" transform="scale(1 1) rotate(0) translate(4 136)">
<title>src/include/Options.h</title>
<!-- Node1 -->
<g id="node1" class="node">
<title>Node1</title>
<g id="a_node1"><a xlink:title=" ">
<polygon fill="#bfbfbf" stroke="black" points="89.5,-112.5 89.5,-131.5 198.5,-131.5 198.5,-112.5 89.5,-112.5"/>
<text text-anchor="middle" x="144" y="-119.5" font-family="Helvetica,sans-Serif" font-size="10.00">src/include/Options.h</text>
</a>
</g>
</g>
<!-- Node2 -->
<g id="node2" class="node">
<title>Node2</title>
<g id="a_node2"><a xlink:href="_code_gen_8cpp.html" target="_top" xlink:title=" ">
<polygon fill="none" stroke="black" points="0,-0.5 0,-19.5 92,-19.5 92,-0.5 0,-0.5"/>
<text text-anchor="middle" x="46" y="-7.5" font-family="Helvetica,sans-Serif" font-size="10.00">src/CodeGen.cpp</text>
</a>
</g>
</g>
<!-- Node1&#45;&gt;Node2 -->
<g id="edge1" class="edge">
<title>Node1&#45;&gt;Node2</title>
<path fill="none" stroke="midnightblue" d="M80.33,-109.33C61.99,-102.7 43.98,-92.3 33,-76 21.3,-58.63 32.81,-33.1 40.44,-19.8"/>
<polygon fill="midnightblue" stroke="midnightblue" points="79.33,-112.69 89.92,-112.47 81.5,-106.03 79.33,-112.69"/>
</g>
<!-- Node3 -->
<g id="node3" class="node">
<title>Node3</title>
<g id="a_node3"><a xlink:href="_options_8cpp.html" target="_top" xlink:title=" ">
<polygon fill="none" stroke="black" points="42,-56.5 42,-75.5 128,-75.5 128,-56.5 42,-56.5"/>
<text text-anchor="middle" x="85" y="-63.5" font-family="Helvetica,sans-Serif" font-size="10.00">src/Options.cpp</text>
</a>
</g>
</g>
<!-- Node1&#45;&gt;Node3 -->
<g id="edge2" class="edge">
<title>Node1&#45;&gt;Node3</title>
<path fill="none" stroke="midnightblue" d="M127.11,-105.54C116.59,-95.91 103.43,-83.87 94.65,-75.83"/>
<polygon fill="midnightblue" stroke="midnightblue" points="124.78,-108.15 134.52,-112.32 129.51,-102.99 124.78,-108.15"/>
</g>
<!-- Node4 -->
<g id="node4" class="node">
<title>Node4</title>
<g id="a_node4"><a xlink:href="_code_gen_8h.html" target="_top" xlink:title=" ">
<polygon fill="none" stroke="black" points="146,-56.5 146,-75.5 262,-75.5 262,-56.5 146,-56.5"/>
<text text-anchor="middle" x="204" y="-63.5" font-family="Helvetica,sans-Serif" font-size="10.00">src/include/CodeGen.h</text>
</a>
</g>
</g>
<!-- Node1&#45;&gt;Node4 -->
<g id="edge3" class="edge">
<title>Node1&#45;&gt;Node4</title>
<path fill="none" stroke="midnightblue" d="M161.18,-105.54C171.88,-95.91 185.26,-83.87 194.18,-75.83"/>
<polygon fill="midnightblue" stroke="midnightblue" points="158.73,-103.03 153.64,-112.32 163.41,-108.24 158.73,-103.03"/>
</g>
<!-- Node5 -->
<g id="node5" class="node">
<title>Node5</title>
<g id="a_node5"><a xlink:href="_program_8hpp.html" target="_top" xlink:title=" ">
<polygon fill="none" stroke="black" points="186,-0.5 186,-19.5 308,-19.5 308,-0.5 186,-0.5"/>
<text text-anchor="middle" x="247" y="-7.5" font-family="Helvetica,sans-Serif" font-size="10.00">src/include/Program.hpp</text>
</a>
</g>
</g>
<!-- Node1&#45;&gt;Node5 -->
<g id="edge6" class="edge">
<title>Node1&#45;&gt;Node5</title>
<path fill="none" stroke="midnightblue" d="M208.76,-113.67C232.32,-107.51 256.65,-96.31 271,-76 283.63,-58.12 266.17,-32.81 255.02,-19.67"/>
<polygon fill="midnightblue" stroke="midnightblue" points="207.69,-110.32 198.75,-116.01 209.29,-117.14 207.69,-110.32"/>
</g>
<!-- Node4&#45;&gt;Node2 -->
<g id="edge4" class="edge">
<title>Node4&#45;&gt;Node2</title>
<path fill="none" stroke="midnightblue" d="M169.39,-53.17C139.64,-43 97.45,-28.59 70.92,-19.52"/>
<polygon fill="midnightblue" stroke="midnightblue" points="168.37,-56.52 178.96,-56.44 170.63,-49.9 168.37,-56.52"/>
</g>
<!-- Node4&#45;&gt;Node5 -->
<g id="edge5" class="edge">
<title>Node4&#45;&gt;Node5</title>
<path fill="none" stroke="midnightblue" d="M217.42,-48.14C224.91,-38.74 233.94,-27.4 240.03,-19.75"/>
<polygon fill="midnightblue" stroke="midnightblue" points="214.59,-46.08 211.1,-56.08 220.07,-50.44 214.59,-46.08"/>
</g>
</g>
</svg>
