<?xml version="1.0" encoding="UTF-8" standalone="no"?>
<!DOCTYPE svg PUBLIC "-//W3C//DTD SVG 1.1//EN"
 "http://www.w3.org/Graphics/SVG/1.1/DTD/svg11.dtd">
<!-- Generated by graphviz version 3.0.0 (20220226.1711)
 -->
<!-- Title: src/include/Parser.h Pages: 1 -->
<svg width="577pt" height="196pt"
 viewBox="0.00 0.00 577.25 196.00" xmlns="http://www.w3.org/2000/svg" xmlns:xlink="http://www.w3.org/1999/xlink">
<g id="graph0" class="graph" transform="scale(1 1) rotate(0) translate(4 192)">
<title>src/include/Parser.h</title>
<!-- Node1 -->
<g id="node1" class="node">
<title>Node1</title>
<g id="a_node1"><a xlink:title=" ">
<polygon fill="#bfbfbf" stroke="black" points="247.54,-168.5 247.54,-187.5 351.54,-187.5 351.54,-168.5 247.54,-168.5"/>
<text text-anchor="middle" x="299.54" y="-175.5" font-family="Helvetica,sans-Serif" font-size="10.00">src/include/Parser.h</text>
</a>
</g>
</g>
<!-- Node2 -->
<g id="node2" class="node">
<title>Node2</title>
<g id="a_node2"><a xlink:title=" ">
<polygon fill="none" stroke="#bfbfbf" points="328.04,-56.5 328.04,-75.5 357.04,-75.5 357.04,-56.5 328.04,-56.5"/>
<text text-anchor="middle" x="342.54" y="-63.5" font-family="Helvetica,sans-Serif" font-size="10.00">list</text>
</a>
</g>
</g>
<!-- Node1&#45;&gt;Node2 -->
<g id="edge1" class="edge">
<title>Node1&#45;&gt;Node2</title>
<path fill="none" stroke="midnightblue" d="M302.92,-168.37C309.92,-150.46 326.15,-108.92 335.53,-84.95"/>
<polygon fill="midnightblue" stroke="midnightblue" points="338.8,-86.18 339.18,-75.59 332.28,-83.63 338.8,-86.18"/>
</g>
<!-- Node3 -->
<g id="node3" class="node">
<title>Node3</title>
<g id="a_node3"><a xlink:title=" ">
<polygon fill="none" stroke="#bfbfbf" points="46.04,-56.5 46.04,-75.5 87.04,-75.5 87.04,-56.5 46.04,-56.5"/>
<text text-anchor="middle" x="66.54" y="-63.5" font-family="Helvetica,sans-Serif" font-size="10.00">string</text>
</a>
</g>
</g>
<!-- Node1&#45;&gt;Node3 -->
<g id="edge2" class="edge">
<title>Node1&#45;&gt;Node3</title>
<path fill="none" stroke="midnightblue" d="M269.07,-168.47C242.43,-160.53 203.05,-147.59 170.54,-132 139.91,-117.31 107.06,-95.68 86.66,-81.47"/>
<polygon fill="midnightblue" stroke="midnightblue" points="88.4,-78.42 78.21,-75.51 84.37,-84.14 88.4,-78.42"/>
</g>
<!-- Node4 -->
<g id="node4" class="node">
<title>Node4</title>
<g id="a_node4"><a xlink:title=" ">
<polygon fill="none" stroke="#bfbfbf" points="413.54,-56.5 413.54,-75.5 455.54,-75.5 455.54,-56.5 413.54,-56.5"/>
<text text-anchor="middle" x="434.54" y="-63.5" font-family="Helvetica,sans-Serif" font-size="10.00">vector</text>
</a>
</g>
</g>
<!-- Node1&#45;&gt;Node4 -->
<g id="edge3" class="edge">
<title>Node1&#45;&gt;Node4</title>
<path fill="none" stroke="midnightblue" d="M351.83,-168.63C375.29,-162.3 401.47,-151.26 418.54,-132 429.74,-119.37 433.38,-100.16 434.44,-85.9"/>
<polygon fill="midnightblue" stroke="midnightblue" points="437.94,-85.86 434.82,-75.74 430.94,-85.59 437.94,-85.86"/>
</g>
<!-- Node5 -->
<g id="node5" class="node">
<title>Node5</title>
<g id="a_node5"><a xlink:title=" ">
<polygon fill="none" stroke="#bfbfbf" points="273.54,-0.5 273.54,-19.5 325.54,-19.5 325.54,-0.5 273.54,-0.5"/>
<text text-anchor="middle" x="299.54" y="-7.5" font-family="Helvetica,sans-Serif" font-size="10.00">memory</text>
</a>
</g>
</g>
<!-- Node1&#45;&gt;Node5 -->
<g id="edge4" class="edge">
<title>Node1&#45;&gt;Node5</title>
<path fill="none" stroke="midnightblue" d="M299.54,-168.08C299.54,-141.95 299.54,-65.21 299.54,-29.58"/>
<polygon fill="midnightblue" stroke="midnightblue" points="303.04,-29.57 299.54,-19.57 296.04,-29.57 303.04,-29.57"/>
</g>
<!-- Node6 -->
<g id="node6" class="node">
<title>Node6</title>
<g id="a_node6"><a xlink:title=" ">
<polygon fill="none" stroke="#bfbfbf" points="465.54,-112.5 465.54,-131.5 567.54,-131.5 567.54,-112.5 465.54,-112.5"/>
<text text-anchor="middle" x="516.54" y="-119.5" font-family="Helvetica,sans-Serif" font-size="10.00">llvm/Support/Error.h</text>
</a>
</g>
</g>
<!-- Node1&#45;&gt;Node6 -->
<g id="edge5" class="edge">
<title>Node1&#45;&gt;Node6</title>
<path fill="none" stroke="midnightblue" d="M333.93,-168.44C371.46,-159.1 431.67,-144.12 472.61,-133.93"/>
<polygon fill="midnightblue" stroke="midnightblue" points="473.46,-137.33 482.32,-131.52 471.77,-130.53 473.46,-137.33"/>
</g>
<!-- Node7 -->
<g id="node7" class="node">
<title>Node7</title>
<g id="a_node7"><a xlink:href="_tokenizer_8h.html" target="_top" xlink:title=" ">
<polygon fill="none" stroke="black" points="9.04,-112.5 9.04,-131.5 76.04,-131.5 76.04,-112.5 9.04,-112.5"/>
<text text-anchor="middle" x="42.54" y="-119.5" font-family="Helvetica,sans-Serif" font-size="10.00">Tokenizer.h</text>
</a>
</g>
</g>
<!-- Node1&#45;&gt;Node7 -->
<g id="edge6" class="edge">
<title>Node1&#45;&gt;Node7</title>
<path fill="none" stroke="midnightblue" d="M258.82,-168.44C211.65,-158.53 134.24,-142.27 85.95,-132.12"/>
<polygon fill="midnightblue" stroke="midnightblue" points="86.62,-128.68 76.11,-130.05 85.18,-135.54 86.62,-128.68"/>
</g>
<!-- Node10 -->
<g id="node10" class="node">
<title>Node10</title>
<g id="a_node10"><a xlink:href="_a_s_t_8h.html" target="_top" xlink:title=" ">
<polygon fill="none" stroke="black" points="365.54,-112.5 365.54,-131.5 409.54,-131.5 409.54,-112.5 365.54,-112.5"/>
<text text-anchor="middle" x="387.54" y="-119.5" font-family="Helvetica,sans-Serif" font-size="10.00">AST.h</text>
</a>
</g>
</g>
<!-- Node1&#45;&gt;Node10 -->
<g id="edge10" class="edge">
<title>Node1&#45;&gt;Node10</title>
<path fill="none" stroke="midnightblue" d="M313.68,-168.32C327.41,-159.9 348.48,-146.97 364.61,-137.07"/>
<polygon fill="midnightblue" stroke="midnightblue" points="366.75,-139.87 373.44,-131.65 363.08,-133.9 366.75,-139.87"/>
</g>
<!-- Node13 -->
<g id="node13" class="node">
<title>Node13</title>
<g id="a_node13"><a xlink:href="_types_8h.html" target="_top" xlink:title=" ">
<polygon fill="none" stroke="black" points="182.04,-56.5 182.04,-75.5 233.04,-75.5 233.04,-56.5 182.04,-56.5"/>
<text text-anchor="middle" x="207.54" y="-63.5" font-family="Helvetica,sans-Serif" font-size="10.00">Types.h</text>
</a>
</g>
</g>
<!-- Node1&#45;&gt;Node13 -->
<g id="edge23" class="edge">
<title>Node1&#45;&gt;Node13</title>
<path fill="none" stroke="midnightblue" d="M292.32,-168.37C277.01,-150.05 241.04,-107.05 221.23,-83.36"/>
<polygon fill="midnightblue" stroke="midnightblue" points="223.83,-81.02 214.73,-75.59 218.46,-85.51 223.83,-81.02"/>
</g>
<!-- Node15 -->
<g id="node15" class="node">
<title>Node15</title>
<g id="a_node15"><a xlink:href="_layout_8h.html" target="_top" xlink:title=" ">
<polygon fill="none" stroke="black" points="179.54,-112.5 179.54,-131.5 233.54,-131.5 233.54,-112.5 179.54,-112.5"/>
<text text-anchor="middle" x="206.54" y="-119.5" font-family="Helvetica,sans-Serif" font-size="10.00">Layout.h</text>
</a>
</g>
</g>
<!-- Node1&#45;&gt;Node15 -->
<g id="edge24" class="edge">
<title>Node1&#45;&gt;Node15</title>
<path fill="none" stroke="midnightblue" d="M284.6,-168.32C269.96,-159.82 247.41,-146.73 230.3,-136.8"/>
<polygon fill="midnightblue" stroke="midnightblue" points="231.85,-133.65 221.45,-131.65 228.34,-139.7 231.85,-133.65"/>
</g>
<!-- Node7&#45;&gt;Node3 -->
<g id="edge7" class="edge">
<title>Node7&#45;&gt;Node3</title>
<path fill="none" stroke="midnightblue" d="M46.51,-112.08C49.76,-104.77 54.46,-94.18 58.5,-85.1"/>
<polygon fill="midnightblue" stroke="midnightblue" points="61.79,-86.31 62.65,-75.75 55.39,-83.47 61.79,-86.31"/>
</g>
<!-- Node8 -->
<g id="node8" class="node">
<title>Node8</title>
<g id="a_node8"><a xlink:title=" ">
<polygon fill="none" stroke="#bfbfbf" points="129.54,-0.5 129.54,-19.5 159.54,-19.5 159.54,-0.5 129.54,-0.5"/>
<text text-anchor="middle" x="144.54" y="-7.5" font-family="Helvetica,sans-Serif" font-size="10.00">set</text>
</a>
</g>
</g>
<!-- Node7&#45;&gt;Node8 -->
<g id="edge8" class="edge">
<title>Node7&#45;&gt;Node8</title>
<path fill="none" stroke="midnightblue" d="M38.46,-112.15C32.96,-98.77 25.1,-73.16 36.54,-56 39.02,-52.28 89.11,-32.42 120.2,-20.36"/>
<polygon fill="midnightblue" stroke="midnightblue" points="121.47,-23.62 129.54,-16.75 118.95,-17.09 121.47,-23.62"/>
</g>
<!-- Node9 -->
<g id="node9" class="node">
<title>Node9</title>
<g id="a_node9"><a xlink:title=" ">
<polygon fill="none" stroke="#bfbfbf" points="76.04,-0.5 76.04,-19.5 111.04,-19.5 111.04,-0.5 76.04,-0.5"/>
<text text-anchor="middle" x="93.54" y="-7.5" font-family="Helvetica,sans-Serif" font-size="10.00">map</text>
</a>
</g>
</g>
<!-- Node7&#45;&gt;Node9 -->
<g id="edge9" class="edge">
<title>Node7&#45;&gt;Node9</title>
<path fill="none" stroke="midnightblue" d="M30.72,-112.33C15.16,-99.83 -8.84,-76.04 3.54,-56 17.12,-34.03 45.02,-22.43 66.18,-16.55"/>
<polygon fill="midnightblue" stroke="midnightblue" points="67.09,-19.93 75.93,-14.1 65.38,-13.14 67.09,-19.93"/>
</g>
<!-- Node10&#45;&gt;Node2 -->
<g id="edge11" class="edge">
<title>Node10&#45;&gt;Node2</title>
<path fill="none" stroke="midnightblue" d="M380.11,-112.08C373.69,-104.38 364.24,-93.03 356.42,-83.65"/>
<polygon fill="midnightblue" stroke="midnightblue" points="358.93,-81.19 349.83,-75.75 353.55,-85.67 358.93,-81.19"/>
</g>
<!-- Node10&#45;&gt;Node3 -->
<g id="edge12" class="edge">
<title>Node10&#45;&gt;Node3</title>
<path fill="none" stroke="midnightblue" d="M365.48,-117.29C309.39,-107.85 161.27,-82.94 97.01,-72.12"/>
<polygon fill="midnightblue" stroke="midnightblue" points="97.53,-68.66 87.08,-70.46 96.36,-75.57 97.53,-68.66"/>
</g>
<!-- Node10&#45;&gt;Node4 -->
<g id="edge13" class="edge">
<title>Node10&#45;&gt;Node4</title>
<path fill="none" stroke="midnightblue" d="M395.3,-112.08C402.08,-104.3 412.09,-92.8 420.3,-83.37"/>
<polygon fill="midnightblue" stroke="midnightblue" points="423,-85.59 426.93,-75.75 417.72,-81 423,-85.59"/>
</g>
<!-- Node10&#45;&gt;Node5 -->
<g id="edge14" class="edge">
<title>Node10&#45;&gt;Node5</title>
<path fill="none" stroke="midnightblue" d="M386.55,-112.17C384.67,-98.82 379.53,-73.24 366.54,-56 356.47,-42.64 341.21,-31.95 327.8,-24.35"/>
<polygon fill="midnightblue" stroke="midnightblue" points="329.36,-21.21 318.89,-19.58 326.06,-27.39 329.36,-21.21"/>
</g>
<!-- Node11 -->
<g id="node11" class="node">
<title>Node11</title>
<g id="a_node11"><a xlink:title=" ">
<polygon fill="none" stroke="#bfbfbf" points="474.04,-56.5 474.04,-75.5 555.04,-75.5 555.04,-56.5 474.04,-56.5"/>
<text text-anchor="middle" x="514.54" y="-63.5" font-family="Helvetica,sans-Serif" font-size="10.00">llvm/IR/Value.h</text>
</a>
</g>
</g>
<!-- Node10&#45;&gt;Node11 -->
<g id="edge15" class="edge">
<title>Node10&#45;&gt;Node11</title>
<path fill="none" stroke="midnightblue" d="M407.67,-112.44C428.57,-103.56 461.48,-89.56 485.26,-79.45"/>
<polygon fill="midnightblue" stroke="midnightblue" points="486.68,-82.65 494.51,-75.52 483.94,-76.21 486.68,-82.65"/>
</g>
<!-- Node12 -->
<g id="node12" class="node">
<title>Node12</title>
<g id="a_node12"><a xlink:title=" ">
<polygon fill="none" stroke="#bfbfbf" points="437.04,-0.5 437.04,-19.5 544.04,-19.5 544.04,-0.5 437.04,-0.5"/>
<text text-anchor="middle" x="490.54" y="-7.5" font-family="Helvetica,sans-Serif" font-size="10.00">llvm/IR/Instructions.h</text>
</a>
</g>
</g>
<!-- Node10&#45;&gt;Node12 -->
<g id="edge16" class="edge">
<title>Node10&#45;&gt;Node12</title>
<path fill="none" stroke="midnightblue" d="M409.89,-116.9C455.31,-108.33 554.96,-88.33 564.54,-76 580.88,-54.99 550,-35.5 523.27,-23.45"/>
<polygon fill="midnightblue" stroke="midnightblue" points="524.65,-20.23 514.08,-19.51 521.89,-26.66 524.65,-20.23"/>
</g>
<!-- Node10&#45;&gt;Node13 -->
<g id="edge17" class="edge">
<title>Node10&#45;&gt;Node13</title>
<path fill="none" stroke="midnightblue" d="M365.47,-114.38C334.92,-105.21 279.41,-88.56 243.01,-77.64"/>
<polygon fill="midnightblue" stroke="midnightblue" points="243.87,-74.24 233.28,-74.72 241.86,-80.95 243.87,-74.24"/>
</g>
<!-- Node13&#45;&gt;Node5 -->
<g id="edge20" class="edge">
<title>Node13&#45;&gt;Node5</title>
<path fill="none" stroke="midnightblue" d="M222.32,-56.32C236.81,-47.82 259.12,-34.73 276.04,-24.8"/>
<polygon fill="midnightblue" stroke="midnightblue" points="277.95,-27.74 284.8,-19.65 274.4,-21.7 277.95,-27.74"/>
</g>
<!-- Node13&#45;&gt;Node8 -->
<g id="edge19" class="edge">
<title>Node13&#45;&gt;Node8</title>
<path fill="none" stroke="midnightblue" d="M197.42,-56.32C188.02,-48.26 173.8,-36.08 162.47,-26.37"/>
<polygon fill="midnightblue" stroke="midnightblue" points="164.72,-23.68 154.85,-19.83 160.16,-29 164.72,-23.68"/>
</g>
<!-- Node13&#45;&gt;Node9 -->
<g id="edge18" class="edge">
<title>Node13&#45;&gt;Node9</title>
<path fill="none" stroke="midnightblue" d="M189.48,-56.44C170.86,-47.62 141.62,-33.77 120.31,-23.68"/>
<polygon fill="midnightblue" stroke="midnightblue" points="121.68,-20.46 111.15,-19.34 118.69,-26.78 121.68,-20.46"/>
</g>
<!-- Node13&#45;&gt;Node12 -->
<g id="edge22" class="edge">
<title>Node13&#45;&gt;Node12</title>
<path fill="none" stroke="midnightblue" d="M233.16,-60.11C278.78,-51.41 375.05,-33.04 436.05,-21.4"/>
<polygon fill="midnightblue" stroke="midnightblue" points="436.73,-24.83 445.9,-19.52 435.42,-17.96 436.73,-24.83"/>
</g>
<!-- Node14 -->
<g id="node14" class="node">
<title>Node14</title>
<g id="a_node14"><a xlink:title=" ">
<polygon fill="none" stroke="#bfbfbf" points="178.04,-0.5 178.04,-19.5 255.04,-19.5 255.04,-0.5 178.04,-0.5"/>
<text text-anchor="middle" x="216.54" y="-7.5" font-family="Helvetica,sans-Serif" font-size="10.00">llvm/IR/Type.h</text>
</a>
</g>
</g>
<!-- Node13&#45;&gt;Node14 -->
<g id="edge21" class="edge">
<title>Node13&#45;&gt;Node14</title>
<path fill="none" stroke="midnightblue" d="M209.03,-56.08C210.22,-48.93 211.94,-38.64 213.43,-29.69"/>
<polygon fill="midnightblue" stroke="midnightblue" points="216.89,-30.19 215.08,-19.75 209.99,-29.04 216.89,-30.19"/>
</g>
<!-- Node15&#45;&gt;Node2 -->
<g id="edge25" class="edge">
<title>Node15&#45;&gt;Node2</title>
<path fill="none" stroke="midnightblue" d="M228.09,-112.44C252.69,-102.68 292.82,-86.74 318.44,-76.57"/>
<polygon fill="midnightblue" stroke="midnightblue" points="319.8,-79.8 327.8,-72.85 317.21,-73.29 319.8,-79.8"/>
</g>
<!-- Node15&#45;&gt;Node3 -->
<g id="edge26" class="edge">
<title>Node15&#45;&gt;Node3</title>
<path fill="none" stroke="midnightblue" d="M184.36,-112.44C160.7,-103.32 123.09,-88.81 96.75,-78.65"/>
<polygon fill="midnightblue" stroke="midnightblue" points="97.84,-75.32 87.25,-74.99 95.32,-81.85 97.84,-75.32"/>
</g>
<!-- Node15&#45;&gt;Node4 -->
<g id="edge27" class="edge">
<title>Node15&#45;&gt;Node4</title>
<path fill="none" stroke="midnightblue" d="M233.59,-114.59C276.16,-104.51 358.56,-85 403.49,-74.36"/>
<polygon fill="midnightblue" stroke="midnightblue" points="404.34,-77.75 413.27,-72.04 402.73,-70.94 404.34,-77.75"/>
</g>
<!-- Node15&#45;&gt;Node5 -->
<g id="edge28" class="edge">
<title>Node15&#45;&gt;Node5</title>
<path fill="none" stroke="midnightblue" d="M213.84,-112.37C229.32,-94.05 265.68,-51.05 285.71,-27.36"/>
<polygon fill="midnightblue" stroke="midnightblue" points="288.5,-29.49 292.28,-19.59 283.15,-24.97 288.5,-29.49"/>
</g>
<!-- Node15&#45;&gt;Node8 -->
<g id="edge30" class="edge">
<title>Node15&#45;&gt;Node8</title>
<path fill="none" stroke="midnightblue" d="M199.11,-112.47C191.73,-103.73 180.42,-89.54 172.54,-76 163.77,-60.92 156.11,-42.56 151.03,-29.21"/>
<polygon fill="midnightblue" stroke="midnightblue" points="154.28,-27.9 147.54,-19.73 147.71,-30.32 154.28,-27.9"/>
</g>
<!-- Node15&#45;&gt;Node9 -->
<g id="edge29" class="edge">
<title>Node15&#45;&gt;Node9</title>
<path fill="none" stroke="midnightblue" d="M197.5,-112.41C188.01,-103.38 172.67,-88.75 159.54,-76 142.54,-59.49 123.23,-40.44 109.91,-27.25"/>
<polygon fill="midnightblue" stroke="midnightblue" points="112.04,-24.43 102.47,-19.87 107.11,-29.4 112.04,-24.43"/>
</g>
<!-- Node15&#45;&gt;Node13 -->
<g id="edge31" class="edge">
<title>Node15&#45;&gt;Node13</title>
<path fill="none" stroke="midnightblue" d="M206.71,-112.08C206.84,-105.01 207.03,-94.86 207.19,-85.99"/>
<polygon fill="midnightblue" stroke="midnightblue" points="210.69,-85.81 207.38,-75.75 203.7,-85.68 210.69,-85.81"/>
</g>
</g>
</svg>
