<?xml version="1.0" encoding="UTF-8" standalone="no"?>
<!DOCTYPE svg PUBLIC "-//W3C//DTD SVG 1.1//EN"
 "http://www.w3.org/Graphics/SVG/1.1/DTD/svg11.dtd">
<!-- Generated by graphviz version 3.0.0 (20220226.1711)
 -->
<!-- Title: src/Tokenizer.cpp Pages: 1 -->
<svg width="7250pt" height="151pt"
 viewBox="0.00 0.00 7249.50 151.00" xmlns="http://www.w3.org/2000/svg" xmlns:xlink="http://www.w3.org/1999/xlink">
<g id="graph0" class="graph" transform="scale(1 1) rotate(0) translate(4 147)">
<title>src/Tokenizer.cpp</title>
<!-- Node1 -->
<g id="node1" class="node">
<title>Node1</title>
<g id="a_node1"><a xlink:title=" ">
<polygon fill="#bfbfbf" stroke="black" points="7007.5,-123.5 7007.5,-142.5 7101.5,-142.5 7101.5,-123.5 7007.5,-123.5"/>
<text text-anchor="middle" x="7054.5" y="-130.5" font-family="Helvetica,sans-Serif" font-size="10.00">src/Tokenizer.cpp</text>
</a>
</g>
</g>
<!-- Node2 -->
<g id="node2" class="node">
<title>Node2</title>
<g id="a_node2"><a xlink:href="pch_8h.html" target="_top" xlink:title=" ">
<polygon fill="none" stroke="black" points="3880,-67.5 3880,-86.5 3921,-86.5 3921,-67.5 3880,-67.5"/>
<text text-anchor="middle" x="3900.5" y="-74.5" font-family="Helvetica,sans-Serif" font-size="10.00">pch.h</text>
</a>
</g>
</g>
<!-- Node1&#45;&gt;Node2 -->
<g id="edge1" class="edge">
<title>Node1&#45;&gt;Node2</title>
<path fill="none" stroke="midnightblue" d="M7007.47,-131.19C6639.78,-124.9 4232.56,-83.69 3931.42,-78.53"/>
<polygon fill="midnightblue" stroke="midnightblue" points="3931.29,-75.03 3921.23,-78.35 3931.17,-82.03 3931.29,-75.03"/>
</g>
<!-- Node61 -->
<g id="node61" class="node">
<title>Node61</title>
<g id="a_node61"><a xlink:href="_tokenizer_8h.html" target="_top" xlink:title=" ">
<polygon fill="none" stroke="black" points="7120,-67.5 7120,-86.5 7187,-86.5 7187,-67.5 7120,-67.5"/>
<text text-anchor="middle" x="7153.5" y="-74.5" font-family="Helvetica,sans-Serif" font-size="10.00">Tokenizer.h</text>
</a>
</g>
</g>
<!-- Node1&#45;&gt;Node61 -->
<g id="edge60" class="edge">
<title>Node1&#45;&gt;Node61</title>
<path fill="none" stroke="midnightblue" d="M7070.41,-123.32C7086.14,-114.74 7110.44,-101.49 7128.71,-91.52"/>
<polygon fill="midnightblue" stroke="midnightblue" points="7130.53,-94.52 7137.63,-86.65 7127.18,-88.37 7130.53,-94.52"/>
</g>
<!-- Node63 -->
<g id="node63" class="node">
<title>Node63</title>
<g id="a_node63"><a xlink:href="_types_8h.html" target="_top" xlink:title=" ">
<polygon fill="none" stroke="black" points="7029,-67.5 7029,-86.5 7080,-86.5 7080,-67.5 7029,-67.5"/>
<text text-anchor="middle" x="7054.5" y="-74.5" font-family="Helvetica,sans-Serif" font-size="10.00">Types.h</text>
</a>
</g>
</g>
<!-- Node1&#45;&gt;Node63 -->
<g id="edge64" class="edge">
<title>Node1&#45;&gt;Node63</title>
<path fill="none" stroke="midnightblue" d="M7054.5,-123.08C7054.5,-116.01 7054.5,-105.86 7054.5,-96.99"/>
<polygon fill="midnightblue" stroke="midnightblue" points="7058,-96.75 7054.5,-86.75 7051,-96.75 7058,-96.75"/>
</g>
<!-- Node3 -->
<g id="node3" class="node">
<title>Node3</title>
<g id="a_node3"><a xlink:title=" ">
<polygon fill="none" stroke="#bfbfbf" points="4251.5,-6 4251.5,-25 4363.5,-25 4363.5,-6 4251.5,-6"/>
<text text-anchor="middle" x="4307.5" y="-13" font-family="Helvetica,sans-Serif" font-size="10.00">llvm/ADT/STLExtras.h</text>
</a>
</g>
</g>
<!-- Node2&#45;&gt;Node3 -->
<g id="edge2" class="edge">
<title>Node2&#45;&gt;Node3</title>
<path fill="none" stroke="midnightblue" d="M3921.35,-73.87C3974.79,-68.29 4120.93,-52.16 4241.5,-31 4247.87,-29.88 4254.56,-28.57 4261.13,-27.21"/>
<polygon fill="midnightblue" stroke="midnightblue" points="4262.25,-30.55 4271.3,-25.03 4260.79,-23.7 4262.25,-30.55"/>
</g>
<!-- Node4 -->
<g id="node4" class="node">
<title>Node4</title>
<g id="a_node4"><a xlink:title=" ">
<polygon fill="none" stroke="#bfbfbf" points="4382,-6 4382,-25 4483,-25 4483,-6 4382,-6"/>
<text text-anchor="middle" x="4432.5" y="-13" font-family="Helvetica,sans-Serif" font-size="10.00">llvm/ADT/APFloat.h</text>
</a>
</g>
</g>
<!-- Node2&#45;&gt;Node4 -->
<g id="edge3" class="edge">
<title>Node2&#45;&gt;Node4</title>
<path fill="none" stroke="midnightblue" d="M3921.34,-75.07C3987.66,-71.89 4199.58,-59.99 4372.5,-31 4378.46,-30 4384.7,-28.74 4390.82,-27.38"/>
<polygon fill="midnightblue" stroke="midnightblue" points="4391.97,-30.7 4400.91,-25.02 4390.38,-23.89 4391.97,-30.7"/>
</g>
<!-- Node5 -->
<g id="node5" class="node">
<title>Node5</title>
<g id="a_node5"><a xlink:title=" ">
<polygon fill="none" stroke="#bfbfbf" points="4501.5,-6 4501.5,-25 4657.5,-25 4657.5,-6 4501.5,-6"/>
<text text-anchor="middle" x="4579.5" y="-13" font-family="Helvetica,sans-Serif" font-size="10.00">llvm/CodeGen/CommandFlags.h</text>
</a>
</g>
</g>
<!-- Node2&#45;&gt;Node5 -->
<g id="edge4" class="edge">
<title>Node2&#45;&gt;Node5</title>
<path fill="none" stroke="midnightblue" d="M3921.24,-75.08C3997.43,-71.55 4269.03,-57.75 4491.5,-31 4501.53,-29.79 4512.17,-28.26 4522.44,-26.65"/>
<polygon fill="midnightblue" stroke="midnightblue" points="4523.25,-30.06 4532.57,-25.01 4522.14,-23.15 4523.25,-30.06"/>
</g>
<!-- Node6 -->
<g id="node6" class="node">
<title>Node6</title>
<g id="a_node6"><a xlink:title=" ">
<polygon fill="none" stroke="#bfbfbf" points="4675.5,-6 4675.5,-25 4795.5,-25 4795.5,-6 4675.5,-6"/>
<text text-anchor="middle" x="4735.5" y="-13" font-family="Helvetica,sans-Serif" font-size="10.00">llvm/Object/ObjectFile.h</text>
</a>
</g>
</g>
<!-- Node2&#45;&gt;Node6 -->
<g id="edge5" class="edge">
<title>Node2&#45;&gt;Node6</title>
<path fill="none" stroke="midnightblue" d="M3921.02,-75.91C4010.16,-75.28 4372.38,-70.32 4666.5,-31 4674.09,-29.98 4682.1,-28.6 4689.86,-27.09"/>
<polygon fill="midnightblue" stroke="midnightblue" points="4690.76,-30.47 4699.86,-25.04 4689.36,-23.61 4690.76,-30.47"/>
</g>
<!-- Node7 -->
<g id="node7" class="node">
<title>Node7</title>
<g id="a_node7"><a xlink:title=" ">
<polygon fill="none" stroke="#bfbfbf" points="4813.5,-0.5 4813.5,-30.5 4923.5,-30.5 4923.5,-0.5 4813.5,-0.5"/>
<text text-anchor="start" x="4821.5" y="-18.5" font-family="Helvetica,sans-Serif" font-size="10.00">llvm/ExecutionEngine</text>
<text text-anchor="middle" x="4868.5" y="-7.5" font-family="Helvetica,sans-Serif" font-size="10.00">/ExecutionEngine.h</text>
</a>
</g>
</g>
<!-- Node2&#45;&gt;Node7 -->
<g id="edge6" class="edge">
<title>Node2&#45;&gt;Node7</title>
<path fill="none" stroke="midnightblue" d="M3921.32,-76.29C4019.47,-77.38 4445.81,-79.05 4803.42,-30.97"/>
<polygon fill="midnightblue" stroke="midnightblue" points="4804.02,-34.42 4813.45,-29.61 4803.07,-27.49 4804.02,-34.42"/>
</g>
<!-- Node8 -->
<g id="node8" class="node">
<title>Node8</title>
<g id="a_node8"><a xlink:title=" ">
<polygon fill="none" stroke="#bfbfbf" points="4941.5,-0.5 4941.5,-30.5 5051.5,-30.5 5051.5,-0.5 4941.5,-0.5"/>
<text text-anchor="start" x="4949.5" y="-18.5" font-family="Helvetica,sans-Serif" font-size="10.00">llvm/ExecutionEngine</text>
<text text-anchor="middle" x="4996.5" y="-7.5" font-family="Helvetica,sans-Serif" font-size="10.00">/JITSymbol.h</text>
</a>
</g>
</g>
<!-- Node2&#45;&gt;Node8 -->
<g id="edge7" class="edge">
<title>Node2&#45;&gt;Node8</title>
<path fill="none" stroke="midnightblue" d="M3921.39,-75.6C4047.26,-73.11 4706.37,-59 4931.39,-30.93"/>
<polygon fill="midnightblue" stroke="midnightblue" points="4931.99,-34.39 4941.46,-29.63 4931.09,-27.44 4931.99,-34.39"/>
</g>
<!-- Node9 -->
<g id="node9" class="node">
<title>Node9</title>
<g id="a_node9"><a xlink:title=" ">
<polygon fill="none" stroke="#bfbfbf" points="5069.5,-0.5 5069.5,-30.5 5179.5,-30.5 5179.5,-0.5 5069.5,-0.5"/>
<text text-anchor="start" x="5077.5" y="-18.5" font-family="Helvetica,sans-Serif" font-size="10.00">llvm/ExecutionEngine</text>
<text text-anchor="middle" x="5124.5" y="-7.5" font-family="Helvetica,sans-Serif" font-size="10.00">/ObjectCache.h</text>
</a>
</g>
</g>
<!-- Node2&#45;&gt;Node9 -->
<g id="edge8" class="edge">
<title>Node2&#45;&gt;Node9</title>
<path fill="none" stroke="midnightblue" d="M3921.27,-75.72C4055.88,-73.81 4806.78,-61.95 5059.25,-30.95"/>
<polygon fill="midnightblue" stroke="midnightblue" points="5059.98,-34.38 5069.46,-29.65 5059.1,-27.44 5059.98,-34.38"/>
</g>
<!-- Node10 -->
<g id="node10" class="node">
<title>Node10</title>
<g id="a_node10"><a xlink:title=" ">
<polygon fill="none" stroke="#bfbfbf" points="5197.5,-0.5 5197.5,-30.5 5307.5,-30.5 5307.5,-0.5 5197.5,-0.5"/>
<text text-anchor="start" x="5205.5" y="-18.5" font-family="Helvetica,sans-Serif" font-size="10.00">llvm/ExecutionEngine</text>
<text text-anchor="middle" x="5252.5" y="-7.5" font-family="Helvetica,sans-Serif" font-size="10.00">/Orc/CompileUtils.h</text>
</a>
</g>
</g>
<!-- Node2&#45;&gt;Node10 -->
<g id="edge9" class="edge">
<title>Node2&#45;&gt;Node10</title>
<path fill="none" stroke="midnightblue" d="M3921.18,-75.81C4064.13,-74.42 4907.65,-64.91 5187.35,-30.93"/>
<polygon fill="midnightblue" stroke="midnightblue" points="5187.97,-34.38 5197.46,-29.66 5187.1,-27.43 5187.97,-34.38"/>
</g>
<!-- Node11 -->
<g id="node11" class="node">
<title>Node11</title>
<g id="a_node11"><a xlink:title=" ">
<polygon fill="none" stroke="#bfbfbf" points="5326,-0.5 5326,-30.5 5441,-30.5 5441,-0.5 5326,-0.5"/>
<text text-anchor="start" x="5334" y="-18.5" font-family="Helvetica,sans-Serif" font-size="10.00">llvm/ExecutionEngine</text>
<text text-anchor="middle" x="5383.5" y="-7.5" font-family="Helvetica,sans-Serif" font-size="10.00">/Orc/IRCompileLayer.h</text>
</a>
</g>
</g>
<!-- Node2&#45;&gt;Node11 -->
<g id="edge10" class="edge">
<title>Node2&#45;&gt;Node11</title>
<path fill="none" stroke="midnightblue" d="M3921.24,-75.86C4072.48,-74.74 5008.01,-66.52 5315.63,-30.89"/>
<polygon fill="midnightblue" stroke="midnightblue" points="5316.36,-34.33 5325.87,-29.67 5315.52,-27.38 5316.36,-34.33"/>
</g>
<!-- Node12 -->
<g id="node12" class="node">
<title>Node12</title>
<g id="a_node12"><a xlink:title=" ">
<polygon fill="none" stroke="#bfbfbf" points="5459.5,-0.5 5459.5,-30.5 5581.5,-30.5 5581.5,-0.5 5459.5,-0.5"/>
<text text-anchor="start" x="5467.5" y="-18.5" font-family="Helvetica,sans-Serif" font-size="10.00">llvm/ExecutionEngine</text>
<text text-anchor="middle" x="5520.5" y="-7.5" font-family="Helvetica,sans-Serif" font-size="10.00">/Orc/IRTransformLayer.h</text>
</a>
</g>
</g>
<!-- Node2&#45;&gt;Node12 -->
<g id="edge11" class="edge">
<title>Node2&#45;&gt;Node12</title>
<path fill="none" stroke="midnightblue" d="M3921.1,-75.89C4081.58,-74.96 5133.81,-67.55 5449.5,-31 5449.6,-30.99 5449.7,-30.98 5449.8,-30.96"/>
<polygon fill="midnightblue" stroke="midnightblue" points="5449.97,-34.47 5459.42,-29.67 5449.04,-27.54 5449.97,-34.47"/>
</g>
<!-- Node13 -->
<g id="node13" class="node">
<title>Node13</title>
<g id="a_node13"><a xlink:title=" ">
<polygon fill="none" stroke="#bfbfbf" points="5599.5,-0.5 5599.5,-30.5 5709.5,-30.5 5709.5,-0.5 5599.5,-0.5"/>
<text text-anchor="start" x="5607.5" y="-18.5" font-family="Helvetica,sans-Serif" font-size="10.00">llvm/ExecutionEngine</text>
<text text-anchor="middle" x="5654.5" y="-7.5" font-family="Helvetica,sans-Serif" font-size="10.00">/Orc/IndirectionUtils.h</text>
</a>
</g>
</g>
<!-- Node2&#45;&gt;Node13 -->
<g id="edge12" class="edge">
<title>Node2&#45;&gt;Node13</title>
<path fill="none" stroke="midnightblue" d="M3921.08,-76.01C4088.04,-75.99 5223.86,-74.32 5589.4,-30.92"/>
<polygon fill="midnightblue" stroke="midnightblue" points="5589.96,-34.38 5599.46,-29.69 5589.11,-27.43 5589.96,-34.38"/>
</g>
<!-- Node14 -->
<g id="node14" class="node">
<title>Node14</title>
<g id="a_node14"><a xlink:title=" ">
<polygon fill="none" stroke="#bfbfbf" points="5728,-0.5 5728,-30.5 5889,-30.5 5889,-0.5 5728,-0.5"/>
<text text-anchor="start" x="5736" y="-18.5" font-family="Helvetica,sans-Serif" font-size="10.00">llvm/ExecutionEngine</text>
<text text-anchor="middle" x="5808.5" y="-7.5" font-family="Helvetica,sans-Serif" font-size="10.00">/Orc/RTDyldObjectLinkingLayer.h</text>
</a>
</g>
</g>
<!-- Node2&#45;&gt;Node14 -->
<g id="edge13" class="edge">
<title>Node2&#45;&gt;Node14</title>
<path fill="none" stroke="midnightblue" d="M3921.2,-75.87C4095.68,-74.75 5323.54,-65.73 5717.61,-30.96"/>
<polygon fill="midnightblue" stroke="midnightblue" points="5717.97,-34.45 5727.61,-30.06 5717.34,-27.48 5717.97,-34.45"/>
</g>
<!-- Node15 -->
<g id="node15" class="node">
<title>Node15</title>
<g id="a_node15"><a xlink:title=" ">
<polygon fill="none" stroke="#bfbfbf" points="5907.5,-0.5 5907.5,-30.5 6039.5,-30.5 6039.5,-0.5 5907.5,-0.5"/>
<text text-anchor="start" x="5915.5" y="-18.5" font-family="Helvetica,sans-Serif" font-size="10.00">llvm/ExecutionEngine</text>
<text text-anchor="middle" x="5973.5" y="-7.5" font-family="Helvetica,sans-Serif" font-size="10.00">/RTDyldMemoryManager.h</text>
</a>
</g>
</g>
<!-- Node2&#45;&gt;Node15 -->
<g id="edge14" class="edge">
<title>Node2&#45;&gt;Node15</title>
<path fill="none" stroke="midnightblue" d="M3921.16,-76.01C4105.08,-76.01 5464.56,-74.6 5897.23,-30.85"/>
<polygon fill="midnightblue" stroke="midnightblue" points="5897.69,-34.32 5907.28,-29.8 5896.97,-27.35 5897.69,-34.32"/>
</g>
<!-- Node16 -->
<g id="node16" class="node">
<title>Node16</title>
<g id="a_node16"><a xlink:title=" ">
<polygon fill="none" stroke="#bfbfbf" points="6057.5,-0.5 6057.5,-30.5 6191.5,-30.5 6191.5,-0.5 6057.5,-0.5"/>
<text text-anchor="start" x="6065.5" y="-18.5" font-family="Helvetica,sans-Serif" font-size="10.00">llvm/ExecutionEngine</text>
<text text-anchor="middle" x="6124.5" y="-7.5" font-family="Helvetica,sans-Serif" font-size="10.00">/SectionMemoryManager.h</text>
</a>
</g>
</g>
<!-- Node2&#45;&gt;Node16 -->
<g id="edge15" class="edge">
<title>Node2&#45;&gt;Node16</title>
<path fill="none" stroke="midnightblue" d="M3921.18,-76.05C4112.91,-76.41 5582.98,-77.63 6047.34,-30.96"/>
<polygon fill="midnightblue" stroke="midnightblue" points="6047.86,-34.43 6057.45,-29.92 6047.15,-27.46 6047.86,-34.43"/>
</g>
<!-- Node17 -->
<g id="node17" class="node">
<title>Node17</title>
<g id="a_node17"><a xlink:title=" ">
<polygon fill="none" stroke="#bfbfbf" points="6210,-6 6210,-25 6359,-25 6359,-6 6210,-6"/>
<text text-anchor="middle" x="6284.5" y="-13" font-family="Helvetica,sans-Serif" font-size="10.00">llvm/Support/DynamicLibrary.h</text>
</a>
</g>
</g>
<!-- Node2&#45;&gt;Node17 -->
<g id="edge16" class="edge">
<title>Node2&#45;&gt;Node17</title>
<path fill="none" stroke="midnightblue" d="M3921.05,-76.03C4121.05,-76.25 5723.66,-76.56 6200.5,-31 6210.88,-30.01 6221.91,-28.46 6232.45,-26.75"/>
<polygon fill="midnightblue" stroke="midnightblue" points="6233.1,-30.19 6242.37,-25.06 6231.92,-23.29 6233.1,-30.19"/>
</g>
<!-- Node18 -->
<g id="node18" class="node">
<title>Node18</title>
<g id="a_node18"><a xlink:title=" ">
<polygon fill="none" stroke="#bfbfbf" points="6377.5,-6 6377.5,-25 6479.5,-25 6479.5,-6 6377.5,-6"/>
<text text-anchor="middle" x="6428.5" y="-13" font-family="Helvetica,sans-Serif" font-size="10.00">llvm/Support/Error.h</text>
</a>
</g>
</g>
<!-- Node2&#45;&gt;Node18 -->
<g id="edge17" class="edge">
<title>Node2&#45;&gt;Node18</title>
<path fill="none" stroke="midnightblue" d="M3921.22,-75.89C4145.02,-74.71 6111.05,-63.43 6367.5,-31 6374.32,-30.14 6381.49,-28.82 6388.42,-27.32"/>
<polygon fill="midnightblue" stroke="midnightblue" points="6389.37,-30.69 6398.33,-25.03 6387.8,-23.87 6389.37,-30.69"/>
</g>
<!-- Node19 -->
<g id="node19" class="node">
<title>Node19</title>
<g id="a_node19"><a xlink:title=" ">
<polygon fill="none" stroke="#bfbfbf" points="6498,-6 6498,-25 6635,-25 6635,-6 6498,-6"/>
<text text-anchor="middle" x="6566.5" y="-13" font-family="Helvetica,sans-Serif" font-size="10.00">llvm/Support/raw_ostream.h</text>
</a>
</g>
</g>
<!-- Node2&#45;&gt;Node19 -->
<g id="edge18" class="edge">
<title>Node2&#45;&gt;Node19</title>
<path fill="none" stroke="midnightblue" d="M3921.15,-75.85C4150.52,-74.17 6218.28,-58.27 6488.5,-31 6498.06,-30.04 6508.2,-28.52 6517.9,-26.82"/>
<polygon fill="midnightblue" stroke="midnightblue" points="6518.6,-30.25 6527.8,-25.01 6517.33,-23.37 6518.6,-30.25"/>
</g>
<!-- Node20 -->
<g id="node20" class="node">
<title>Node20</title>
<g id="a_node20"><a xlink:title=" ">
<polygon fill="none" stroke="#bfbfbf" points="6653.5,-6 6653.5,-25 6789.5,-25 6789.5,-6 6653.5,-6"/>
<text text-anchor="middle" x="6721.5" y="-13" font-family="Helvetica,sans-Serif" font-size="10.00">llvm/Support/TargetSelect.h</text>
</a>
</g>
</g>
<!-- Node2&#45;&gt;Node20 -->
<g id="edge19" class="edge">
<title>Node2&#45;&gt;Node20</title>
<path fill="none" stroke="midnightblue" d="M3921.27,-75.87C4158.68,-74.38 6356.65,-59.81 6643.5,-31 6653.06,-30.04 6663.2,-28.53 6672.9,-26.83"/>
<polygon fill="midnightblue" stroke="midnightblue" points="6673.6,-30.26 6682.8,-25.02 6672.34,-23.38 6673.6,-30.26"/>
</g>
<!-- Node21 -->
<g id="node21" class="node">
<title>Node21</title>
<g id="a_node21"><a xlink:title=" ">
<polygon fill="none" stroke="#bfbfbf" points="0,-6 0,-25 143,-25 143,-6 0,-6"/>
<text text-anchor="middle" x="71.5" y="-13" font-family="Helvetica,sans-Serif" font-size="10.00">llvm/Support/CommandLine.h</text>
</a>
</g>
</g>
<!-- Node2&#45;&gt;Node21 -->
<g id="edge20" class="edge">
<title>Node2&#45;&gt;Node21</title>
<path fill="none" stroke="midnightblue" d="M3879.6,-75.96C3597.45,-75.44 546.95,-68.94 151.5,-31 141.7,-30.06 131.3,-28.55 121.35,-26.86"/>
<polygon fill="midnightblue" stroke="midnightblue" points="121.66,-23.36 111.2,-25.05 120.42,-30.25 121.66,-23.36"/>
</g>
<!-- Node22 -->
<g id="node22" class="node">
<title>Node22</title>
<g id="a_node22"><a xlink:title=" ">
<polygon fill="none" stroke="#bfbfbf" points="161,-6 161,-25 280,-25 280,-6 161,-6"/>
<text text-anchor="middle" x="220.5" y="-13" font-family="Helvetica,sans-Serif" font-size="10.00">llvm/Support/InitLLVM.h</text>
</a>
</g>
</g>
<!-- Node2&#45;&gt;Node22 -->
<g id="edge21" class="edge">
<title>Node2&#45;&gt;Node22</title>
<path fill="none" stroke="midnightblue" d="M3879.94,-75.99C3605.45,-75.86 668.68,-73.48 288.5,-31 280.57,-30.11 272.2,-28.72 264.15,-27.14"/>
<polygon fill="midnightblue" stroke="midnightblue" points="264.69,-23.67 254.18,-25.06 263.26,-30.53 264.69,-23.67"/>
</g>
<!-- Node23 -->
<g id="node23" class="node">
<title>Node23</title>
<g id="a_node23"><a xlink:title=" ">
<polygon fill="none" stroke="#bfbfbf" points="298,-6 298,-25 399,-25 399,-6 298,-6"/>
<text text-anchor="middle" x="348.5" y="-13" font-family="Helvetica,sans-Serif" font-size="10.00">llvm/Support/Host.h</text>
</a>
</g>
</g>
<!-- Node2&#45;&gt;Node23 -->
<g id="edge22" class="edge">
<title>Node2&#45;&gt;Node23</title>
<path fill="none" stroke="midnightblue" d="M3879.8,-76.02C3609.38,-76.2 775.08,-77.06 408.5,-31 401.78,-30.16 394.73,-28.85 387.91,-27.35"/>
<polygon fill="midnightblue" stroke="midnightblue" points="388.7,-23.94 378.16,-25.06 387.1,-30.76 388.7,-23.94"/>
</g>
<!-- Node24 -->
<g id="node24" class="node">
<title>Node24</title>
<g id="a_node24"><a xlink:title=" ">
<polygon fill="none" stroke="#bfbfbf" points="417.5,-6 417.5,-25 555.5,-25 555.5,-6 417.5,-6"/>
<text text-anchor="middle" x="486.5" y="-13" font-family="Helvetica,sans-Serif" font-size="10.00">llvm/Target/TargetMachine.h</text>
</a>
</g>
</g>
<!-- Node2&#45;&gt;Node24 -->
<g id="edge23" class="edge">
<title>Node2&#45;&gt;Node24</title>
<path fill="none" stroke="midnightblue" d="M3879.93,-75.94C3616.94,-75.1 915.39,-65.73 564.5,-31 554.94,-30.05 544.79,-28.55 535.1,-26.85"/>
<polygon fill="midnightblue" stroke="midnightblue" points="535.66,-23.4 525.19,-25.04 534.4,-30.28 535.66,-23.4"/>
</g>
<!-- Node25 -->
<g id="node25" class="node">
<title>Node25</title>
<g id="a_node25"><a xlink:title=" ">
<polygon fill="none" stroke="#bfbfbf" points="574,-6 574,-25 709,-25 709,-6 574,-6"/>
<text text-anchor="middle" x="641.5" y="-13" font-family="Helvetica,sans-Serif" font-size="10.00">llvm/Target/TargetOptions.h</text>
</a>
</g>
</g>
<!-- Node2&#45;&gt;Node25 -->
<g id="edge24" class="edge">
<title>Node2&#45;&gt;Node25</title>
<path fill="none" stroke="midnightblue" d="M3879.69,-75.93C3622,-75.01 1051.69,-64.98 717.5,-31 708.27,-30.06 698.5,-28.58 689.14,-26.9"/>
<polygon fill="midnightblue" stroke="midnightblue" points="689.67,-23.44 679.19,-25.04 688.38,-30.32 689.67,-23.44"/>
</g>
<!-- Node26 -->
<g id="node26" class="node">
<title>Node26</title>
<g id="a_node26"><a xlink:title=" ">
<polygon fill="none" stroke="#bfbfbf" points="727,-0.5 727,-30.5 854,-30.5 854,-0.5 727,-0.5"/>
<text text-anchor="start" x="735" y="-18.5" font-family="Helvetica,sans-Serif" font-size="10.00">llvm/Target/TargetIntrinsic</text>
<text text-anchor="middle" x="790.5" y="-7.5" font-family="Helvetica,sans-Serif" font-size="10.00">Info.h</text>
</a>
</g>
</g>
<!-- Node2&#45;&gt;Node26 -->
<g id="edge25" class="edge">
<title>Node2&#45;&gt;Node26</title>
<path fill="none" stroke="midnightblue" d="M3879.87,-75.93C3632.07,-75.01 1228.58,-65.32 864.19,-30.97"/>
<polygon fill="midnightblue" stroke="midnightblue" points="864.3,-27.47 854,-29.95 863.6,-34.43 864.3,-27.47"/>
</g>
<!-- Node27 -->
<g id="node27" class="node">
<title>Node27</title>
<g id="a_node27"><a xlink:title=" ">
<polygon fill="none" stroke="#bfbfbf" points="872,-0.5 872,-30.5 1013,-30.5 1013,-0.5 872,-0.5"/>
<text text-anchor="start" x="880" y="-18.5" font-family="Helvetica,sans-Serif" font-size="10.00">llvm/Transforms/InstCombine</text>
<text text-anchor="middle" x="942.5" y="-7.5" font-family="Helvetica,sans-Serif" font-size="10.00">/InstCombine.h</text>
</a>
</g>
</g>
<!-- Node2&#45;&gt;Node27 -->
<g id="edge26" class="edge">
<title>Node2&#45;&gt;Node27</title>
<path fill="none" stroke="midnightblue" d="M3879.85,-75.88C3639.26,-74.5 1371.23,-60.77 1023.27,-30.87"/>
<polygon fill="midnightblue" stroke="midnightblue" points="1023.36,-27.37 1013.08,-29.94 1022.72,-34.34 1023.36,-27.37"/>
</g>
<!-- Node28 -->
<g id="node28" class="node">
<title>Node28</title>
<g id="a_node28"><a xlink:title=" ">
<polygon fill="none" stroke="#bfbfbf" points="1031.5,-6 1031.5,-25 1143.5,-25 1143.5,-6 1031.5,-6"/>
<text text-anchor="middle" x="1087.5" y="-13" font-family="Helvetica,sans-Serif" font-size="10.00">llvm/Transforms/IPO.h</text>
</a>
</g>
</g>
<!-- Node2&#45;&gt;Node28 -->
<g id="edge27" class="edge">
<title>Node2&#45;&gt;Node28</title>
<path fill="none" stroke="midnightblue" d="M3879.69,-75.92C3641.78,-74.94 1439.32,-64.98 1152.5,-31 1145,-30.11 1137.09,-28.73 1129.47,-27.17"/>
<polygon fill="midnightblue" stroke="midnightblue" points="1130.19,-23.74 1119.68,-25.03 1128.7,-30.58 1130.19,-23.74"/>
</g>
<!-- Node29 -->
<g id="node29" class="node">
<title>Node29</title>
<g id="a_node29"><a xlink:title=" ">
<polygon fill="none" stroke="#bfbfbf" points="1161.5,-0.5 1161.5,-30.5 1279.5,-30.5 1279.5,-0.5 1161.5,-0.5"/>
<text text-anchor="start" x="1169.5" y="-18.5" font-family="Helvetica,sans-Serif" font-size="10.00">llvm/Transforms/IPO</text>
<text text-anchor="middle" x="1220.5" y="-7.5" font-family="Helvetica,sans-Serif" font-size="10.00">/PassManagerBuilder.h</text>
</a>
</g>
</g>
<!-- Node2&#45;&gt;Node29 -->
<g id="edge28" class="edge">
<title>Node2&#45;&gt;Node29</title>
<path fill="none" stroke="midnightblue" d="M3879.65,-75.89C3650.72,-74.61 1607.49,-62.37 1289.88,-30.91"/>
<polygon fill="midnightblue" stroke="midnightblue" points="1290.04,-27.41 1279.73,-29.83 1289.3,-34.37 1290.04,-27.41"/>
</g>
<!-- Node30 -->
<g id="node30" class="node">
<title>Node30</title>
<g id="a_node30"><a xlink:title=" ">
<polygon fill="none" stroke="#bfbfbf" points="1298,-6 1298,-25 1413,-25 1413,-6 1298,-6"/>
<text text-anchor="middle" x="1355.5" y="-13" font-family="Helvetica,sans-Serif" font-size="10.00">llvm/Transforms/Utils.h</text>
</a>
</g>
</g>
<!-- Node2&#45;&gt;Node30 -->
<g id="edge29" class="edge">
<title>Node2&#45;&gt;Node30</title>
<path fill="none" stroke="midnightblue" d="M3879.68,-75.87C3654.82,-74.48 1679.47,-61.37 1421.5,-31 1413.88,-30.1 1405.86,-28.72 1398.12,-27.16"/>
<polygon fill="midnightblue" stroke="midnightblue" points="1398.69,-23.7 1388.18,-25.02 1397.22,-30.54 1398.69,-23.7"/>
</g>
<!-- Node31 -->
<g id="node31" class="node">
<title>Node31</title>
<g id="a_node31"><a xlink:title=" ">
<polygon fill="none" stroke="#bfbfbf" points="1431,-0.5 1431,-30.5 1614,-30.5 1614,-0.5 1431,-0.5"/>
<text text-anchor="start" x="1439" y="-18.5" font-family="Helvetica,sans-Serif" font-size="10.00">llvm/Transforms/Aggressive</text>
<text text-anchor="middle" x="1522.5" y="-7.5" font-family="Helvetica,sans-Serif" font-size="10.00">InstCombine/AggressiveInstCombine.h</text>
</a>
</g>
</g>
<!-- Node2&#45;&gt;Node31 -->
<g id="edge30" class="edge">
<title>Node2&#45;&gt;Node31</title>
<path fill="none" stroke="midnightblue" d="M3879.84,-75.95C3681.84,-75.4 2116.7,-69.86 1624.02,-31.04"/>
<polygon fill="midnightblue" stroke="midnightblue" points="1624.25,-27.55 1614,-30.23 1623.69,-34.52 1624.25,-27.55"/>
</g>
<!-- Node32 -->
<g id="node32" class="node">
<title>Node32</title>
<g id="a_node32"><a xlink:title=" ">
<polygon fill="none" stroke="#bfbfbf" points="1632,-6 1632,-25 1769,-25 1769,-6 1632,-6"/>
<text text-anchor="middle" x="1700.5" y="-13" font-family="Helvetica,sans-Serif" font-size="10.00">llvm/Transforms/Vectorize.h</text>
</a>
</g>
</g>
<!-- Node2&#45;&gt;Node32 -->
<g id="edge31" class="edge">
<title>Node2&#45;&gt;Node32</title>
<path fill="none" stroke="midnightblue" d="M3879.76,-76.03C3687.64,-76.28 2215.91,-76.61 1777.5,-31 1768.26,-30.04 1758.47,-28.56 1749.08,-26.9"/>
<polygon fill="midnightblue" stroke="midnightblue" points="1749.56,-23.43 1739.09,-25.06 1748.29,-30.32 1749.56,-23.43"/>
</g>
<!-- Node33 -->
<g id="node33" class="node">
<title>Node33</title>
<g id="a_node33"><a xlink:title=" ">
<polygon fill="none" stroke="#bfbfbf" points="1787,-6 1787,-25 1910,-25 1910,-6 1787,-6"/>
<text text-anchor="middle" x="1848.5" y="-13" font-family="Helvetica,sans-Serif" font-size="10.00">llvm/Transforms/Scalar.h</text>
</a>
</g>
</g>
<!-- Node2&#45;&gt;Node33 -->
<g id="edge32" class="edge">
<title>Node2&#45;&gt;Node33</title>
<path fill="none" stroke="midnightblue" d="M3879.99,-76.05C3695.97,-76.41 2326.52,-77.5 1918.5,-31 1910.35,-30.07 1901.74,-28.65 1893.45,-27.06"/>
<polygon fill="midnightblue" stroke="midnightblue" points="1894.05,-23.61 1883.55,-25.06 1892.66,-30.48 1894.05,-23.61"/>
</g>
<!-- Node34 -->
<g id="node34" class="node">
<title>Node34</title>
<g id="a_node34"><a xlink:title=" ">
<polygon fill="none" stroke="#bfbfbf" points="1928,-0.5 1928,-30.5 2043,-30.5 2043,-0.5 1928,-0.5"/>
<text text-anchor="start" x="1936" y="-18.5" font-family="Helvetica,sans-Serif" font-size="10.00">llvm/Transforms/Scalar</text>
<text text-anchor="middle" x="1985.5" y="-7.5" font-family="Helvetica,sans-Serif" font-size="10.00">/GVN.h</text>
</a>
</g>
</g>
<!-- Node2&#45;&gt;Node34 -->
<g id="edge33" class="edge">
<title>Node2&#45;&gt;Node34</title>
<path fill="none" stroke="midnightblue" d="M3879.99,-76.04C3704.48,-76.34 2452.51,-76.85 2053.47,-31.06"/>
<polygon fill="midnightblue" stroke="midnightblue" points="2053.68,-27.56 2043.34,-29.87 2052.86,-34.51 2053.68,-27.56"/>
</g>
<!-- Node35 -->
<g id="node35" class="node">
<title>Node35</title>
<g id="a_node35"><a xlink:title=" ">
<polygon fill="none" stroke="#bfbfbf" points="2061,-0.5 2061,-30.5 2184,-30.5 2184,-0.5 2061,-0.5"/>
<text text-anchor="start" x="2069" y="-18.5" font-family="Helvetica,sans-Serif" font-size="10.00">llvm/Analysis/BasicAlias</text>
<text text-anchor="middle" x="2122.5" y="-7.5" font-family="Helvetica,sans-Serif" font-size="10.00">Analysis.h</text>
</a>
</g>
</g>
<!-- Node2&#45;&gt;Node35 -->
<g id="edge34" class="edge">
<title>Node2&#45;&gt;Node35</title>
<path fill="none" stroke="midnightblue" d="M3879.98,-75.96C3712.24,-75.58 2563.64,-71.56 2194.41,-31.06"/>
<polygon fill="midnightblue" stroke="midnightblue" points="2194.57,-27.55 2184.24,-29.91 2193.78,-34.51 2194.57,-27.55"/>
</g>
<!-- Node36 -->
<g id="node36" class="node">
<title>Node36</title>
<g id="a_node36"><a xlink:title=" ">
<polygon fill="none" stroke="#bfbfbf" points="2202,-6 2202,-25 2303,-25 2303,-6 2202,-6"/>
<text text-anchor="middle" x="2252.5" y="-13" font-family="Helvetica,sans-Serif" font-size="10.00">llvm/Analysis/Lint.h</text>
</a>
</g>
</g>
<!-- Node2&#45;&gt;Node36 -->
<g id="edge35" class="edge">
<title>Node2&#45;&gt;Node36</title>
<path fill="none" stroke="midnightblue" d="M3879.89,-76.01C3717.04,-75.98 2635.77,-74.16 2312.5,-31 2306.02,-30.13 2299.22,-28.86 2292.61,-27.41"/>
<polygon fill="midnightblue" stroke="midnightblue" points="2293.02,-23.91 2282.48,-25.05 2291.42,-30.73 2293.02,-23.91"/>
</g>
<!-- Node37 -->
<g id="node37" class="node">
<title>Node37</title>
<g id="a_node37"><a xlink:title=" ">
<polygon fill="none" stroke="#bfbfbf" points="2321.5,-6 2321.5,-25 2437.5,-25 2437.5,-6 2321.5,-6"/>
<text text-anchor="middle" x="2379.5" y="-13" font-family="Helvetica,sans-Serif" font-size="10.00">llvm/IR/PassManager.h</text>
</a>
</g>
</g>
<!-- Node2&#45;&gt;Node37 -->
<g id="edge36" class="edge">
<title>Node2&#45;&gt;Node37</title>
<path fill="none" stroke="midnightblue" d="M3879.7,-75.88C3724.23,-74.88 2741.67,-67.2 2446.5,-31 2438.86,-30.06 2430.81,-28.67 2423.03,-27.12"/>
<polygon fill="midnightblue" stroke="midnightblue" points="2423.54,-23.65 2413.04,-25.01 2422.1,-30.5 2423.54,-23.65"/>
</g>
<!-- Node38 -->
<g id="node38" class="node">
<title>Node38</title>
<g id="a_node38"><a xlink:title=" ">
<polygon fill="none" stroke="#bfbfbf" points="2455.5,-6 2455.5,-25 2561.5,-25 2561.5,-6 2455.5,-6"/>
<text text-anchor="middle" x="2508.5" y="-13" font-family="Helvetica,sans-Serif" font-size="10.00">llvm/IR/DataLayout.h</text>
</a>
</g>
</g>
<!-- Node2&#45;&gt;Node38 -->
<g id="edge37" class="edge">
<title>Node2&#45;&gt;Node38</title>
<path fill="none" stroke="midnightblue" d="M3879.62,-75.85C3731.59,-74.74 2839.04,-66.59 2570.5,-31 2563.65,-30.09 2556.45,-28.76 2549.48,-27.27"/>
<polygon fill="midnightblue" stroke="midnightblue" points="2550.03,-23.81 2539.5,-25.01 2548.48,-30.64 2550.03,-23.81"/>
</g>
<!-- Node39 -->
<g id="node39" class="node">
<title>Node39</title>
<g id="a_node39"><a xlink:title=" ">
<polygon fill="none" stroke="#bfbfbf" points="2579.5,-6 2579.5,-25 2727.5,-25 2727.5,-6 2579.5,-6"/>
<text text-anchor="middle" x="2653.5" y="-13" font-family="Helvetica,sans-Serif" font-size="10.00">llvm/IR/LegacyPassManager.h</text>
</a>
</g>
</g>
<!-- Node2&#45;&gt;Node39 -->
<g id="edge38" class="edge">
<title>Node2&#45;&gt;Node39</title>
<path fill="none" stroke="midnightblue" d="M3879.76,-76.24C3765.06,-77.32 3197.03,-79.9 2736.5,-31 2726.57,-29.95 2716.04,-28.42 2705.93,-26.76"/>
<polygon fill="midnightblue" stroke="midnightblue" points="2706.44,-23.29 2696,-25.05 2705.26,-30.19 2706.44,-23.29"/>
</g>
<!-- Node40 -->
<g id="node40" class="node">
<title>Node40</title>
<g id="a_node40"><a xlink:title=" ">
<polygon fill="none" stroke="#bfbfbf" points="2746,-6 2746,-25 2837,-25 2837,-6 2746,-6"/>
<text text-anchor="middle" x="2791.5" y="-13" font-family="Helvetica,sans-Serif" font-size="10.00">llvm/IR/Mangler.h</text>
</a>
</g>
</g>
<!-- Node2&#45;&gt;Node40 -->
<g id="edge39" class="edge">
<title>Node2&#45;&gt;Node40</title>
<path fill="none" stroke="midnightblue" d="M3879.98,-75.73C3751.53,-73.92 3056.56,-62.8 2846.5,-31 2840.89,-30.15 2835.02,-28.95 2829.3,-27.6"/>
<polygon fill="midnightblue" stroke="midnightblue" points="2829.79,-24.12 2819.24,-25.05 2828.07,-30.9 2829.79,-24.12"/>
</g>
<!-- Node41 -->
<g id="node41" class="node">
<title>Node41</title>
<g id="a_node41"><a xlink:title=" ">
<polygon fill="none" stroke="#bfbfbf" points="2855.5,-6 2855.5,-25 2961.5,-25 2961.5,-6 2855.5,-6"/>
<text text-anchor="middle" x="2908.5" y="-13" font-family="Helvetica,sans-Serif" font-size="10.00">llvm/IR/BasicBlock.h</text>
</a>
</g>
</g>
<!-- Node2&#45;&gt;Node41 -->
<g id="edge40" class="edge">
<title>Node2&#45;&gt;Node41</title>
<path fill="none" stroke="midnightblue" d="M3879.76,-75.51C3759.9,-72.59 3154.8,-56.79 2970.5,-31 2963.81,-30.06 2956.77,-28.75 2949.95,-27.29"/>
<polygon fill="midnightblue" stroke="midnightblue" points="2950.68,-23.86 2940.15,-25.07 2949.13,-30.69 2950.68,-23.86"/>
</g>
<!-- Node42 -->
<g id="node42" class="node">
<title>Node42</title>
<g id="a_node42"><a xlink:title=" ">
<polygon fill="none" stroke="#bfbfbf" points="2980,-6 2980,-25 3081,-25 3081,-6 2980,-6"/>
<text text-anchor="middle" x="3030.5" y="-13" font-family="Helvetica,sans-Serif" font-size="10.00">llvm/IR/Constants.h</text>
</a>
</g>
</g>
<!-- Node2&#45;&gt;Node42 -->
<g id="edge41" class="edge">
<title>Node2&#45;&gt;Node42</title>
<path fill="none" stroke="midnightblue" d="M3879.71,-76.23C3786.96,-76.95 3401.92,-76.89 3090.5,-31 3084.17,-30.07 3077.53,-28.78 3071.06,-27.36"/>
<polygon fill="midnightblue" stroke="midnightblue" points="3071.66,-23.9 3061.12,-25.03 3070.06,-30.72 3071.66,-23.9"/>
</g>
<!-- Node43 -->
<g id="node43" class="node">
<title>Node43</title>
<g id="a_node43"><a xlink:title=" ">
<polygon fill="none" stroke="#bfbfbf" points="3099.5,-6 3099.5,-25 3213.5,-25 3213.5,-6 3099.5,-6"/>
<text text-anchor="middle" x="3156.5" y="-13" font-family="Helvetica,sans-Serif" font-size="10.00">llvm/IR/DerivedTypes.h</text>
</a>
</g>
</g>
<!-- Node2&#45;&gt;Node43 -->
<g id="edge42" class="edge">
<title>Node2&#45;&gt;Node43</title>
<path fill="none" stroke="midnightblue" d="M3879.86,-75.76C3796.92,-74.54 3480.03,-67.62 3222.5,-31 3215.31,-29.98 3207.75,-28.6 3200.4,-27.11"/>
<polygon fill="midnightblue" stroke="midnightblue" points="3201.09,-23.67 3190.58,-25.01 3199.63,-30.52 3201.09,-23.67"/>
</g>
<!-- Node44 -->
<g id="node44" class="node">
<title>Node44</title>
<g id="a_node44"><a xlink:title=" ">
<polygon fill="none" stroke="#bfbfbf" points="3231.5,-6 3231.5,-25 3325.5,-25 3325.5,-6 3231.5,-6"/>
<text text-anchor="middle" x="3278.5" y="-13" font-family="Helvetica,sans-Serif" font-size="10.00">llvm/IR/Function.h</text>
</a>
</g>
</g>
<!-- Node2&#45;&gt;Node44 -->
<g id="edge43" class="edge">
<title>Node2&#45;&gt;Node44</title>
<path fill="none" stroke="midnightblue" d="M3879.78,-75.65C3805.46,-74.13 3545.45,-66.42 3334.5,-31 3328.99,-30.07 3323.23,-28.87 3317.59,-27.54"/>
<polygon fill="midnightblue" stroke="midnightblue" points="3318.2,-24.09 3307.65,-25.07 3316.51,-30.88 3318.2,-24.09"/>
</g>
<!-- Node45 -->
<g id="node45" class="node">
<title>Node45</title>
<g id="a_node45"><a xlink:title=" ">
<polygon fill="none" stroke="#bfbfbf" points="3344,-6 3344,-25 3439,-25 3439,-6 3344,-6"/>
<text text-anchor="middle" x="3391.5" y="-13" font-family="Helvetica,sans-Serif" font-size="10.00">llvm/IR/IRBuilder.h</text>
</a>
</g>
</g>
<!-- Node2&#45;&gt;Node45 -->
<g id="edge44" class="edge">
<title>Node2&#45;&gt;Node45</title>
<path fill="none" stroke="midnightblue" d="M3879.62,-75.04C3815.08,-71.82 3613.15,-59.97 3448.5,-31 3442.97,-30.03 3437.18,-28.8 3431.51,-27.48"/>
<polygon fill="midnightblue" stroke="midnightblue" points="3432.04,-24.01 3421.49,-25.03 3430.37,-30.8 3432.04,-24.01"/>
</g>
<!-- Node46 -->
<g id="node46" class="node">
<title>Node46</title>
<g id="a_node46"><a xlink:title=" ">
<polygon fill="none" stroke="#bfbfbf" points="6808,-6 6808,-25 6915,-25 6915,-6 6808,-6"/>
<text text-anchor="middle" x="6861.5" y="-13" font-family="Helvetica,sans-Serif" font-size="10.00">llvm/IR/Instructions.h</text>
</a>
</g>
</g>
<!-- Node2&#45;&gt;Node46 -->
<g id="edge45" class="edge">
<title>Node2&#45;&gt;Node46</title>
<path fill="none" stroke="midnightblue" d="M3921.3,-75.94C4166.15,-75.26 6495.67,-67.78 6798.5,-31 6805.54,-30.15 6812.94,-28.83 6820.09,-27.33"/>
<polygon fill="midnightblue" stroke="midnightblue" points="6821.33,-30.64 6830.33,-25.04 6819.8,-23.81 6821.33,-30.64"/>
</g>
<!-- Node47 -->
<g id="node47" class="node">
<title>Node47</title>
<g id="a_node47"><a xlink:title=" ">
<polygon fill="none" stroke="#bfbfbf" points="3457.5,-6 3457.5,-25 3573.5,-25 3573.5,-6 3457.5,-6"/>
<text text-anchor="middle" x="3515.5" y="-13" font-family="Helvetica,sans-Serif" font-size="10.00">llvm/IR/LLVMContext.h</text>
</a>
</g>
</g>
<!-- Node2&#45;&gt;Node47 -->
<g id="edge46" class="edge">
<title>Node2&#45;&gt;Node47</title>
<path fill="none" stroke="midnightblue" d="M3879.96,-73.62C3829.26,-67.62 3694.2,-50.96 3582.5,-31 3576.12,-29.86 3569.42,-28.55 3562.83,-27.19"/>
<polygon fill="midnightblue" stroke="midnightblue" points="3563.12,-23.68 3552.62,-25.03 3561.68,-30.52 3563.12,-23.68"/>
</g>
<!-- Node48 -->
<g id="node48" class="node">
<title>Node48</title>
<g id="a_node48"><a xlink:title=" ">
<polygon fill="none" stroke="#bfbfbf" points="3591.5,-6 3591.5,-25 3679.5,-25 3679.5,-6 3591.5,-6"/>
<text text-anchor="middle" x="3635.5" y="-13" font-family="Helvetica,sans-Serif" font-size="10.00">llvm/IR/Module.h</text>
</a>
</g>
</g>
<!-- Node2&#45;&gt;Node48 -->
<g id="edge47" class="edge">
<title>Node2&#45;&gt;Node48</title>
<path fill="none" stroke="midnightblue" d="M3879.95,-72.05C3841.98,-64.66 3758.34,-47.95 3688.5,-31 3684.16,-29.95 3679.63,-28.79 3675.13,-27.61"/>
<polygon fill="midnightblue" stroke="midnightblue" points="3675.98,-24.21 3665.41,-25.01 3674.17,-30.98 3675.98,-24.21"/>
</g>
<!-- Node49 -->
<g id="node49" class="node">
<title>Node49</title>
<g id="a_node49"><a xlink:title=" ">
<polygon fill="none" stroke="#bfbfbf" points="6933,-6 6933,-25 7010,-25 7010,-6 6933,-6"/>
<text text-anchor="middle" x="6971.5" y="-13" font-family="Helvetica,sans-Serif" font-size="10.00">llvm/IR/Type.h</text>
</a>
</g>
</g>
<!-- Node2&#45;&gt;Node49 -->
<g id="edge48" class="edge">
<title>Node2&#45;&gt;Node49</title>
<path fill="none" stroke="midnightblue" d="M3921.04,-76.04C4170.24,-76.52 6608.57,-79.93 6923.5,-31 6928.3,-30.25 6933.29,-29.14 6938.16,-27.86"/>
<polygon fill="midnightblue" stroke="midnightblue" points="6939.24,-31.2 6947.88,-25.06 6937.3,-24.47 6939.24,-31.2"/>
</g>
<!-- Node50 -->
<g id="node50" class="node">
<title>Node50</title>
<g id="a_node50"><a xlink:title=" ">
<polygon fill="none" stroke="#bfbfbf" points="3697.5,-6 3697.5,-25 3783.5,-25 3783.5,-6 3697.5,-6"/>
<text text-anchor="middle" x="3740.5" y="-13" font-family="Helvetica,sans-Serif" font-size="10.00">llvm/IR/Verifier.h</text>
</a>
</g>
</g>
<!-- Node2&#45;&gt;Node50 -->
<g id="edge49" class="edge">
<title>Node2&#45;&gt;Node50</title>
<path fill="none" stroke="midnightblue" d="M3879.91,-68.34C3852.83,-58.27 3804.95,-40.47 3772.97,-28.58"/>
<polygon fill="midnightblue" stroke="midnightblue" points="3774.19,-25.29 3763.6,-25.09 3771.75,-31.86 3774.19,-25.29"/>
</g>
<!-- Node51 -->
<g id="node51" class="node">
<title>Node51</title>
<g id="a_node51"><a xlink:title=" ">
<polygon fill="none" stroke="#bfbfbf" points="3801.5,-6 3801.5,-25 3857.5,-25 3857.5,-6 3801.5,-6"/>
<text text-anchor="middle" x="3829.5" y="-13" font-family="Helvetica,sans-Serif" font-size="10.00">algorithm</text>
</a>
</g>
</g>
<!-- Node2&#45;&gt;Node51 -->
<g id="edge50" class="edge">
<title>Node2&#45;&gt;Node51</title>
<path fill="none" stroke="midnightblue" d="M3890.33,-67.48C3879.15,-58.11 3860.98,-42.88 3847.41,-31.51"/>
<polygon fill="midnightblue" stroke="midnightblue" points="3849.57,-28.75 3839.65,-25.01 3845.07,-34.11 3849.57,-28.75"/>
</g>
<!-- Node52 -->
<g id="node52" class="node">
<title>Node52</title>
<g id="a_node52"><a xlink:title=" ">
<polygon fill="none" stroke="#bfbfbf" points="3876,-6 3876,-25 3925,-25 3925,-6 3876,-6"/>
<text text-anchor="middle" x="3900.5" y="-13" font-family="Helvetica,sans-Serif" font-size="10.00">cassert</text>
</a>
</g>
</g>
<!-- Node2&#45;&gt;Node52 -->
<g id="edge51" class="edge">
<title>Node2&#45;&gt;Node52</title>
<path fill="none" stroke="midnightblue" d="M3900.5,-67.48C3900.5,-59.08 3900.5,-45.98 3900.5,-35.16"/>
<polygon fill="midnightblue" stroke="midnightblue" points="3904,-35.01 3900.5,-25.01 3897,-35.01 3904,-35.01"/>
</g>
<!-- Node53 -->
<g id="node53" class="node">
<title>Node53</title>
<g id="a_node53"><a xlink:title=" ">
<polygon fill="none" stroke="#bfbfbf" points="3943,-6 3943,-25 3988,-25 3988,-6 3943,-6"/>
<text text-anchor="middle" x="3965.5" y="-13" font-family="Helvetica,sans-Serif" font-size="10.00">cstdlib</text>
</a>
</g>
</g>
<!-- Node2&#45;&gt;Node53 -->
<g id="edge52" class="edge">
<title>Node2&#45;&gt;Node53</title>
<path fill="none" stroke="midnightblue" d="M3909.81,-67.48C3919.95,-58.2 3936.36,-43.17 3948.75,-31.83"/>
<polygon fill="midnightblue" stroke="midnightblue" points="3951.19,-34.34 3956.2,-25.01 3946.46,-29.18 3951.19,-34.34"/>
</g>
<!-- Node54 -->
<g id="node54" class="node">
<title>Node54</title>
<g id="a_node54"><a xlink:title=" ">
<polygon fill="none" stroke="#bfbfbf" points="4006.5,-6 4006.5,-25 4052.5,-25 4052.5,-6 4006.5,-6"/>
<text text-anchor="middle" x="4029.5" y="-13" font-family="Helvetica,sans-Serif" font-size="10.00">chrono</text>
</a>
</g>
</g>
<!-- Node2&#45;&gt;Node54 -->
<g id="edge53" class="edge">
<title>Node2&#45;&gt;Node54</title>
<path fill="none" stroke="midnightblue" d="M3918.98,-67.48C3940.63,-57.49 3976.71,-40.85 4001.73,-29.31"/>
<polygon fill="midnightblue" stroke="midnightblue" points="4003.44,-32.38 4011.05,-25.01 4000.51,-26.02 4003.44,-32.38"/>
</g>
<!-- Node55 -->
<g id="node55" class="node">
<title>Node55</title>
<g id="a_node55"><a xlink:title=" ">
<polygon fill="none" stroke="#bfbfbf" points="7158,-6 7158,-25 7193,-25 7193,-6 7158,-6"/>
<text text-anchor="middle" x="7175.5" y="-13" font-family="Helvetica,sans-Serif" font-size="10.00">map</text>
</a>
</g>
</g>
<!-- Node2&#45;&gt;Node55 -->
<g id="edge54" class="edge">
<title>Node2&#45;&gt;Node55</title>
<path fill="none" stroke="midnightblue" d="M3921.37,-76C4190.85,-75.92 6982.24,-74.05 7148.5,-31 7150.16,-30.57 7151.84,-30.02 7153.49,-29.38"/>
<polygon fill="midnightblue" stroke="midnightblue" points="7155.04,-32.52 7162.56,-25.06 7152.03,-26.2 7155.04,-32.52"/>
</g>
<!-- Node56 -->
<g id="node56" class="node">
<title>Node56</title>
<g id="a_node56"><a xlink:title=" ">
<polygon fill="none" stroke="#bfbfbf" points="7028.5,-6 7028.5,-25 7080.5,-25 7080.5,-6 7028.5,-6"/>
<text text-anchor="middle" x="7054.5" y="-13" font-family="Helvetica,sans-Serif" font-size="10.00">memory</text>
</a>
</g>
</g>
<!-- Node2&#45;&gt;Node56 -->
<g id="edge55" class="edge">
<title>Node2&#45;&gt;Node56</title>
<path fill="none" stroke="midnightblue" d="M3921.32,-75.92C4184.53,-74.88 6857.04,-63.5 7018.5,-31 7021.41,-30.41 7024.39,-29.6 7027.32,-28.65"/>
<polygon fill="midnightblue" stroke="midnightblue" points="7028.8,-31.84 7036.96,-25.07 7026.36,-25.27 7028.8,-31.84"/>
</g>
<!-- Node57 -->
<g id="node57" class="node">
<title>Node57</title>
<g id="a_node57"><a xlink:title=" ">
<polygon fill="none" stroke="#bfbfbf" points="7099,-6 7099,-25 7140,-25 7140,-6 7099,-6"/>
<text text-anchor="middle" x="7119.5" y="-13" font-family="Helvetica,sans-Serif" font-size="10.00">string</text>
</a>
</g>
</g>
<!-- Node2&#45;&gt;Node57 -->
<g id="edge56" class="edge">
<title>Node2&#45;&gt;Node57</title>
<path fill="none" stroke="midnightblue" d="M3921.39,-75.97C4188.31,-75.5 6925.49,-69.78 7089.5,-31 7091.48,-30.53 7093.49,-29.92 7095.48,-29.2"/>
<polygon fill="midnightblue" stroke="midnightblue" points="7097.24,-32.26 7105.02,-25.07 7094.45,-25.83 7097.24,-32.26"/>
</g>
<!-- Node58 -->
<g id="node58" class="node">
<title>Node58</title>
<g id="a_node58"><a xlink:title=" ">
<polygon fill="none" stroke="#bfbfbf" points="4070.5,-6 4070.5,-25 4112.5,-25 4112.5,-6 4070.5,-6"/>
<text text-anchor="middle" x="4091.5" y="-13" font-family="Helvetica,sans-Serif" font-size="10.00">vector</text>
</a>
</g>
</g>
<!-- Node2&#45;&gt;Node58 -->
<g id="edge57" class="edge">
<title>Node2&#45;&gt;Node58</title>
<path fill="none" stroke="midnightblue" d="M3921.21,-71.46C3952.23,-64.38 4012.36,-49.57 4061.5,-31 4062.92,-30.46 4064.36,-29.88 4065.81,-29.28"/>
<polygon fill="midnightblue" stroke="midnightblue" points="4067.56,-32.33 4075.23,-25.01 4064.67,-25.95 4067.56,-32.33"/>
</g>
<!-- Node59 -->
<g id="node59" class="node">
<title>Node59</title>
<g id="a_node59"><a xlink:title=" ">
<polygon fill="none" stroke="#bfbfbf" points="4131,-6 4131,-25 4186,-25 4186,-6 4131,-6"/>
<text text-anchor="middle" x="4158.5" y="-13" font-family="Helvetica,sans-Serif" font-size="10.00">charconv</text>
</a>
</g>
</g>
<!-- Node2&#45;&gt;Node59 -->
<g id="edge58" class="edge">
<title>Node2&#45;&gt;Node59</title>
<path fill="none" stroke="midnightblue" d="M3921.2,-73.01C3960.68,-67.04 4049.21,-52.35 4121.5,-31 4123.93,-30.28 4126.43,-29.47 4128.92,-28.61"/>
<polygon fill="midnightblue" stroke="midnightblue" points="4130.2,-31.87 4138.36,-25.12 4127.77,-25.3 4130.2,-31.87"/>
</g>
<!-- Node60 -->
<g id="node60" class="node">
<title>Node60</title>
<g id="a_node60"><a xlink:title=" ">
<polygon fill="none" stroke="#bfbfbf" points="4204,-6 4204,-25 4233,-25 4233,-6 4204,-6"/>
<text text-anchor="middle" x="4218.5" y="-13" font-family="Helvetica,sans-Serif" font-size="10.00">list</text>
</a>
</g>
</g>
<!-- Node2&#45;&gt;Node60 -->
<g id="edge59" class="edge">
<title>Node2&#45;&gt;Node60</title>
<path fill="none" stroke="midnightblue" d="M3921.14,-75.58C3970.08,-74.01 4096.44,-66.54 4194.5,-31 4195.38,-30.68 4196.27,-30.33 4197.15,-29.95"/>
<polygon fill="midnightblue" stroke="midnightblue" points="4199.04,-32.91 4206.26,-25.15 4195.78,-26.71 4199.04,-32.91"/>
</g>
<!-- Node61&#45;&gt;Node55 -->
<g id="edge63" class="edge">
<title>Node61&#45;&gt;Node55</title>
<path fill="none" stroke="midnightblue" d="M7156.65,-67.48C7159.82,-58.9 7164.8,-45.43 7168.85,-34.48"/>
<polygon fill="midnightblue" stroke="midnightblue" points="7172.17,-35.6 7172.35,-25.01 7165.6,-33.17 7172.17,-35.6"/>
</g>
<!-- Node61&#45;&gt;Node57 -->
<g id="edge61" class="edge">
<title>Node61&#45;&gt;Node57</title>
<path fill="none" stroke="midnightblue" d="M7148.63,-67.48C7143.63,-58.73 7135.71,-44.87 7129.39,-33.81"/>
<polygon fill="midnightblue" stroke="midnightblue" points="7132.36,-31.96 7124.36,-25.01 7126.28,-35.43 7132.36,-31.96"/>
</g>
<!-- Node62 -->
<g id="node62" class="node">
<title>Node62</title>
<g id="a_node62"><a xlink:title=" ">
<polygon fill="none" stroke="#bfbfbf" points="7211.5,-6 7211.5,-25 7241.5,-25 7241.5,-6 7211.5,-6"/>
<text text-anchor="middle" x="7226.5" y="-13" font-family="Helvetica,sans-Serif" font-size="10.00">set</text>
</a>
</g>
</g>
<!-- Node61&#45;&gt;Node62 -->
<g id="edge62" class="edge">
<title>Node61&#45;&gt;Node62</title>
<path fill="none" stroke="midnightblue" d="M7163.96,-67.48C7175.45,-58.11 7194.13,-42.88 7208.09,-31.51"/>
<polygon fill="midnightblue" stroke="midnightblue" points="7210.52,-34.04 7216.06,-25.01 7206.1,-28.61 7210.52,-34.04"/>
</g>
<!-- Node63&#45;&gt;Node46 -->
<g id="edge69" class="edge">
<title>Node63&#45;&gt;Node46</title>
<path fill="none" stroke="midnightblue" d="M7028.87,-68.1C6995.55,-57.83 6937.1,-39.81 6898.85,-28.01"/>
<polygon fill="midnightblue" stroke="midnightblue" points="6899.7,-24.61 6889.11,-25.01 6897.63,-31.3 6899.7,-24.61"/>
</g>
<!-- Node63&#45;&gt;Node49 -->
<g id="edge68" class="edge">
<title>Node63&#45;&gt;Node49</title>
<path fill="none" stroke="midnightblue" d="M7042.61,-67.48C7029.3,-57.93 7007.5,-42.31 6991.54,-30.87"/>
<polygon fill="midnightblue" stroke="midnightblue" points="6993.54,-27.99 6983.37,-25.01 6989.46,-33.68 6993.54,-27.99"/>
</g>
<!-- Node63&#45;&gt;Node55 -->
<g id="edge65" class="edge">
<title>Node63&#45;&gt;Node55</title>
<path fill="none" stroke="midnightblue" d="M7073,-67.45C7092.04,-58.58 7122.52,-44.18 7148.5,-31 7149.31,-30.59 7150.13,-30.17 7150.96,-29.74"/>
<polygon fill="midnightblue" stroke="midnightblue" points="7152.64,-32.81 7159.86,-25.06 7149.38,-26.62 7152.64,-32.81"/>
</g>
<!-- Node63&#45;&gt;Node56 -->
<g id="edge67" class="edge">
<title>Node63&#45;&gt;Node56</title>
<path fill="none" stroke="midnightblue" d="M7054.5,-67.48C7054.5,-59.08 7054.5,-45.98 7054.5,-35.16"/>
<polygon fill="midnightblue" stroke="midnightblue" points="7058,-35.01 7054.5,-25.01 7051,-35.01 7058,-35.01"/>
</g>
<!-- Node63&#45;&gt;Node62 -->
<g id="edge66" class="edge">
<title>Node63&#45;&gt;Node62</title>
<path fill="none" stroke="midnightblue" d="M7080.07,-70.28C7110.13,-63.09 7161.17,-49.42 7202.5,-31 7203.2,-30.69 7203.91,-30.36 7204.61,-30.02"/>
<polygon fill="midnightblue" stroke="midnightblue" points="7206.53,-32.96 7213.61,-25.09 7203.16,-26.82 7206.53,-32.96"/>
</g>
</g>
</svg>
