<?xml version="1.0" encoding="UTF-8" standalone="no"?>
<!DOCTYPE svg PUBLIC "-//W3C//DTD SVG 1.1//EN"
 "http://www.w3.org/Graphics/SVG/1.1/DTD/svg11.dtd">
<!-- Generated by graphviz version 3.0.0 (20220226.1711)
 -->
<!-- Title: src/include/Tokenizer.h Pages: 1 -->
<svg width="468pt" height="196pt"
 viewBox="0.00 0.00 468.00 196.00" xmlns="http://www.w3.org/2000/svg" xmlns:xlink="http://www.w3.org/1999/xlink">
<g id="graph0" class="graph" transform="scale(1 1) rotate(0) translate(4 192)">
<title>src/include/Tokenizer.h</title>
<!-- Node1 -->
<g id="node1" class="node">
<title>Node1</title>
<g id="a_node1"><a xlink:title=" ">
<polygon fill="#bfbfbf" stroke="black" points="122.5,-168.5 122.5,-187.5 239.5,-187.5 239.5,-168.5 122.5,-168.5"/>
<text text-anchor="middle" x="181" y="-175.5" font-family="Helvetica,sans-Serif" font-size="10.00">src/include/Tokenizer.h</text>
</a>
</g>
</g>
<!-- Node2 -->
<g id="node2" class="node">
<title>Node2</title>
<g id="a_node2"><a xlink:href="_tokenizer_8cpp.html" target="_top" xlink:title=" ">
<polygon fill="none" stroke="black" points="0,-112.5 0,-131.5 94,-131.5 94,-112.5 0,-112.5"/>
<text text-anchor="middle" x="47" y="-119.5" font-family="Helvetica,sans-Serif" font-size="10.00">src/Tokenizer.cpp</text>
</a>
</g>
</g>
<!-- Node1&#45;&gt;Node2 -->
<g id="edge1" class="edge">
<title>Node1&#45;&gt;Node2</title>
<path fill="none" stroke="midnightblue" d="M150.32,-164.64C125.18,-154.5 90.25,-140.43 68.13,-131.52"/>
<polygon fill="midnightblue" stroke="midnightblue" points="149.18,-167.95 159.77,-168.44 151.8,-161.46 149.18,-167.95"/>
</g>
<!-- Node3 -->
<g id="node3" class="node">
<title>Node3</title>
<g id="a_node3"><a xlink:href="compiler__cli_8cpp.html" target="_top" xlink:title=" ">
<polygon fill="none" stroke="black" points="208,-0.5 208,-19.5 312,-19.5 312,-0.5 208,-0.5"/>
<text text-anchor="middle" x="260" y="-7.5" font-family="Helvetica,sans-Serif" font-size="10.00">src/compiler_cli.cpp</text>
</a>
</g>
</g>
<!-- Node1&#45;&gt;Node3 -->
<g id="edge2" class="edge">
<title>Node1&#45;&gt;Node3</title>
<path fill="none" stroke="midnightblue" d="M166.79,-160.33C147.59,-135.69 118.26,-88.91 141,-56 156.13,-34.1 183.38,-22.85 207.99,-17.07"/>
<polygon fill="midnightblue" stroke="midnightblue" points="164.27,-162.78 173.28,-168.34 169.7,-158.37 164.27,-162.78"/>
</g>
<!-- Node4 -->
<g id="node4" class="node">
<title>Node4</title>
<g id="a_node4"><a xlink:href="_parser_8h.html" target="_top" xlink:title=" ">
<polygon fill="none" stroke="black" points="189,-112.5 189,-131.5 293,-131.5 293,-112.5 189,-112.5"/>
<text text-anchor="middle" x="241" y="-119.5" font-family="Helvetica,sans-Serif" font-size="10.00">src/include/Parser.h</text>
</a>
</g>
</g>
<!-- Node1&#45;&gt;Node4 -->
<g id="edge3" class="edge">
<title>Node1&#45;&gt;Node4</title>
<path fill="none" stroke="midnightblue" d="M198.18,-161.54C208.88,-151.91 222.26,-139.87 231.18,-131.83"/>
<polygon fill="midnightblue" stroke="midnightblue" points="195.73,-159.03 190.64,-168.32 200.41,-164.24 195.73,-159.03"/>
</g>
<!-- Node7 -->
<g id="node7" class="node">
<title>Node7</title>
<g id="a_node7"><a xlink:href="_program_8hpp.html" target="_top" xlink:title=" ">
<polygon fill="none" stroke="black" points="338,-56.5 338,-75.5 460,-75.5 460,-56.5 338,-56.5"/>
<text text-anchor="middle" x="399" y="-63.5" font-family="Helvetica,sans-Serif" font-size="10.00">src/include/Program.hpp</text>
</a>
</g>
</g>
<!-- Node1&#45;&gt;Node7 -->
<g id="edge8" class="edge">
<title>Node1&#45;&gt;Node7</title>
<path fill="none" stroke="midnightblue" d="M219.26,-165.33C243.56,-157.3 275.35,-145.65 302,-132 335.02,-115.09 370.4,-89.14 387.89,-75.72"/>
<polygon fill="midnightblue" stroke="midnightblue" points="218.1,-162.03 209.67,-168.44 220.26,-168.69 218.1,-162.03"/>
</g>
<!-- Node5 -->
<g id="node5" class="node">
<title>Node5</title>
<g id="a_node5"><a xlink:href="_a_s_t_8cpp.html" target="_top" xlink:title=" ">
<polygon fill="none" stroke="black" points="150.5,-56.5 150.5,-75.5 221.5,-75.5 221.5,-56.5 150.5,-56.5"/>
<text text-anchor="middle" x="186" y="-63.5" font-family="Helvetica,sans-Serif" font-size="10.00">src/AST.cpp</text>
</a>
</g>
</g>
<!-- Node4&#45;&gt;Node5 -->
<g id="edge4" class="edge">
<title>Node4&#45;&gt;Node5</title>
<path fill="none" stroke="midnightblue" d="M224.71,-105C214.96,-95.43 202.95,-83.64 194.91,-75.75"/>
<polygon fill="midnightblue" stroke="midnightblue" points="222.33,-107.57 231.92,-112.08 227.23,-102.58 222.33,-107.57"/>
</g>
<!-- Node6 -->
<g id="node6" class="node">
<title>Node6</title>
<g id="a_node6"><a xlink:href="_parser_8cpp.html" target="_top" xlink:title=" ">
<polygon fill="none" stroke="black" points="240,-56.5 240,-75.5 320,-75.5 320,-56.5 240,-56.5"/>
<text text-anchor="middle" x="280" y="-63.5" font-family="Helvetica,sans-Serif" font-size="10.00">src/Parser.cpp</text>
</a>
</g>
</g>
<!-- Node4&#45;&gt;Node6 -->
<g id="edge5" class="edge">
<title>Node4&#45;&gt;Node6</title>
<path fill="none" stroke="midnightblue" d="M253.38,-103.86C260.14,-94.5 268.21,-83.33 273.68,-75.75"/>
<polygon fill="midnightblue" stroke="midnightblue" points="250.46,-101.93 247.44,-112.08 256.13,-106.03 250.46,-101.93"/>
</g>
<!-- Node4&#45;&gt;Node7 -->
<g id="edge6" class="edge">
<title>Node4&#45;&gt;Node7</title>
<path fill="none" stroke="midnightblue" d="M275.61,-109.17C305.36,-99 347.55,-84.59 374.08,-75.52"/>
<polygon fill="midnightblue" stroke="midnightblue" points="274.37,-105.9 266.04,-112.44 276.63,-112.52 274.37,-105.9"/>
</g>
<!-- Node7&#45;&gt;Node3 -->
<g id="edge7" class="edge">
<title>Node7&#45;&gt;Node3</title>
<path fill="none" stroke="midnightblue" d="M367.52,-52.77C341.41,-42.63 304.96,-28.47 281.92,-19.52"/>
<polygon fill="midnightblue" stroke="midnightblue" points="366.39,-56.08 376.98,-56.44 368.92,-49.56 366.39,-56.08"/>
</g>
</g>
</svg>
