<?xml version="1.0" encoding="UTF-8" standalone="no"?>
<!DOCTYPE svg PUBLIC "-//W3C//DTD SVG 1.1//EN"
 "http://www.w3.org/Graphics/SVG/1.1/DTD/svg11.dtd">
<!-- Generated by graphviz version 3.0.0 (20220226.1711)
 -->
<!-- Title: src/include/Tokenizer.h Pages: 1 -->
<svg width="342pt" height="140pt"
 viewBox="0.00 0.00 342.00 140.00" xmlns="http://www.w3.org/2000/svg" xmlns:xlink="http://www.w3.org/1999/xlink">
<g id="graph0" class="graph" transform="scale(1 1) rotate(0) translate(4 136)">
<title>src/include/Tokenizer.h</title>
<!-- Node1 -->
<g id="node1" class="node">
<title>Node1</title>
<g id="a_node1"><a xlink:title=" ">
<polygon fill="#bfbfbf" stroke="black" points="105.5,-112.5 105.5,-131.5 222.5,-131.5 222.5,-112.5 105.5,-112.5"/>
<text text-anchor="middle" x="164" y="-119.5" font-family="Helvetica,sans-Serif" font-size="10.00">src/include/Tokenizer.h</text>
</a>
</g>
</g>
<!-- Node2 -->
<g id="node2" class="node">
<title>Node2</title>
<g id="a_node2"><a xlink:href="_tokenizer_8cpp.html" target="_top" xlink:title=" ">
<polygon fill="none" stroke="black" points="0,-56.5 0,-75.5 94,-75.5 94,-56.5 0,-56.5"/>
<text text-anchor="middle" x="47" y="-63.5" font-family="Helvetica,sans-Serif" font-size="10.00">src/Tokenizer.cpp</text>
</a>
</g>
</g>
<!-- Node1&#45;&gt;Node2 -->
<g id="edge1" class="edge">
<title>Node1&#45;&gt;Node2</title>
<path fill="none" stroke="midnightblue" d="M136.34,-108.23C114.45,-98.13 84.5,-84.31 65.45,-75.52"/>
<polygon fill="midnightblue" stroke="midnightblue" points="134.91,-111.43 145.46,-112.44 137.85,-105.08 134.91,-111.43"/>
</g>
<!-- Node3 -->
<g id="node3" class="node">
<title>Node3</title>
<g id="a_node3"><a xlink:href="_parser_8h.html" target="_top" xlink:title=" ">
<polygon fill="none" stroke="black" points="112,-56.5 112,-75.5 216,-75.5 216,-56.5 112,-56.5"/>
<text text-anchor="middle" x="164" y="-63.5" font-family="Helvetica,sans-Serif" font-size="10.00">src/include/Parser.h</text>
</a>
</g>
</g>
<!-- Node1&#45;&gt;Node3 -->
<g id="edge2" class="edge">
<title>Node1&#45;&gt;Node3</title>
<path fill="none" stroke="midnightblue" d="M164,-101.8C164,-92.91 164,-82.78 164,-75.75"/>
<polygon fill="midnightblue" stroke="midnightblue" points="160.5,-102.08 164,-112.08 167.5,-102.08 160.5,-102.08"/>
</g>
<!-- Node6 -->
<g id="node6" class="node">
<title>Node6</title>
<g id="a_node6"><a xlink:href="_program_8hpp.html" target="_top" xlink:title=" ">
<polygon fill="none" stroke="black" points="212,-0.5 212,-19.5 334,-19.5 334,-0.5 212,-0.5"/>
<text text-anchor="middle" x="273" y="-7.5" font-family="Helvetica,sans-Serif" font-size="10.00">src/include/Program.hpp</text>
</a>
</g>
</g>
<!-- Node1&#45;&gt;Node6 -->
<g id="edge6" class="edge">
<title>Node1&#45;&gt;Node6</title>
<path fill="none" stroke="midnightblue" d="M186.63,-106.71C198.71,-98.51 213.43,-87.57 225,-76 243.06,-57.95 259.7,-32.71 267.81,-19.63"/>
<polygon fill="midnightblue" stroke="midnightblue" points="184.42,-103.98 178,-112.41 188.28,-109.82 184.42,-103.98"/>
</g>
<!-- Node4 -->
<g id="node4" class="node">
<title>Node4</title>
<g id="a_node4"><a xlink:href="_a_s_t_8cpp.html" target="_top" xlink:title=" ">
<polygon fill="none" stroke="black" points="24.5,-0.5 24.5,-19.5 95.5,-19.5 95.5,-0.5 24.5,-0.5"/>
<text text-anchor="middle" x="60" y="-7.5" font-family="Helvetica,sans-Serif" font-size="10.00">src/AST.cpp</text>
</a>
</g>
</g>
<!-- Node3&#45;&gt;Node4 -->
<g id="edge3" class="edge">
<title>Node3&#45;&gt;Node4</title>
<path fill="none" stroke="midnightblue" d="M138.17,-51.59C118.94,-41.61 93.26,-28.27 76.67,-19.65"/>
<polygon fill="midnightblue" stroke="midnightblue" points="136.8,-54.82 147.29,-56.32 140.03,-48.61 136.8,-54.82"/>
</g>
<!-- Node5 -->
<g id="node5" class="node">
<title>Node5</title>
<g id="a_node5"><a xlink:href="_parser_8cpp.html" target="_top" xlink:title=" ">
<polygon fill="none" stroke="black" points="114,-0.5 114,-19.5 194,-19.5 194,-0.5 114,-0.5"/>
<text text-anchor="middle" x="154" y="-7.5" font-family="Helvetica,sans-Serif" font-size="10.00">src/Parser.cpp</text>
</a>
</g>
</g>
<!-- Node3&#45;&gt;Node5 -->
<g id="edge4" class="edge">
<title>Node3&#45;&gt;Node5</title>
<path fill="none" stroke="midnightblue" d="M160.5,-46.1C158.84,-37.14 156.94,-26.86 155.62,-19.75"/>
<polygon fill="midnightblue" stroke="midnightblue" points="157.09,-46.89 162.35,-56.08 163.97,-45.61 157.09,-46.89"/>
</g>
<!-- Node3&#45;&gt;Node6 -->
<g id="edge5" class="edge">
<title>Node3&#45;&gt;Node6</title>
<path fill="none" stroke="midnightblue" d="M190.52,-51.86C210.73,-41.85 237.99,-28.35 255.53,-19.65"/>
<polygon fill="midnightblue" stroke="midnightblue" points="188.92,-48.75 181.51,-56.32 192.03,-55.02 188.92,-48.75"/>
</g>
</g>
</svg>
