<?xml version="1.0" encoding="UTF-8" standalone="no"?>
<!DOCTYPE svg PUBLIC "-//W3C//DTD SVG 1.1//EN"
 "http://www.w3.org/Graphics/SVG/1.1/DTD/svg11.dtd">
<!-- Generated by graphviz version 3.0.0 (20220226.1711)
 -->
<!-- Title: src/include/Types.h Pages: 1 -->
<svg width="382pt" height="84pt"
 viewBox="0.00 0.00 382.00 84.00" xmlns="http://www.w3.org/2000/svg" xmlns:xlink="http://www.w3.org/1999/xlink">
<g id="graph0" class="graph" transform="scale(1 1) rotate(0) translate(4 80)">
<title>src/include/Types.h</title>
<!-- Node1 -->
<g id="node1" class="node">
<title>Node1</title>
<g id="a_node1"><a xlink:title=" ">
<polygon fill="#bfbfbf" stroke="black" points="77,-56.5 77,-75.5 178,-75.5 178,-56.5 77,-56.5"/>
<text text-anchor="middle" x="127.5" y="-63.5" font-family="Helvetica,sans-Serif" font-size="10.00">src/include/Types.h</text>
</a>
</g>
</g>
<!-- Node2 -->
<g id="node2" class="node">
<title>Node2</title>
<g id="a_node2"><a xlink:title=" ">
<polygon fill="none" stroke="#bfbfbf" points="0,-0.5 0,-19.5 35,-19.5 35,-0.5 0,-0.5"/>
<text text-anchor="middle" x="17.5" y="-7.5" font-family="Helvetica,sans-Serif" font-size="10.00">map</text>
</a>
</g>
</g>
<!-- Node1&#45;&gt;Node2 -->
<g id="edge1" class="edge">
<title>Node1&#45;&gt;Node2</title>
<path fill="none" stroke="midnightblue" d="M109.83,-56.32C92.11,-47.62 64.6,-34.12 44.21,-24.11"/>
<polygon fill="midnightblue" stroke="midnightblue" points="45.65,-20.92 35.13,-19.65 42.56,-27.2 45.65,-20.92"/>
</g>
<!-- Node3 -->
<g id="node3" class="node">
<title>Node3</title>
<g id="a_node3"><a xlink:title=" ">
<polygon fill="none" stroke="#bfbfbf" points="53.5,-0.5 53.5,-19.5 83.5,-19.5 83.5,-0.5 53.5,-0.5"/>
<text text-anchor="middle" x="68.5" y="-7.5" font-family="Helvetica,sans-Serif" font-size="10.00">set</text>
</a>
</g>
</g>
<!-- Node1&#45;&gt;Node3 -->
<g id="edge2" class="edge">
<title>Node1&#45;&gt;Node3</title>
<path fill="none" stroke="midnightblue" d="M118.02,-56.32C109.3,-48.34 96.16,-36.31 85.6,-26.65"/>
<polygon fill="midnightblue" stroke="midnightblue" points="87.89,-24 78.15,-19.83 83.17,-29.17 87.89,-24"/>
</g>
<!-- Node4 -->
<g id="node4" class="node">
<title>Node4</title>
<g id="a_node4"><a xlink:title=" ">
<polygon fill="none" stroke="#bfbfbf" points="101.5,-0.5 101.5,-19.5 153.5,-19.5 153.5,-0.5 101.5,-0.5"/>
<text text-anchor="middle" x="127.5" y="-7.5" font-family="Helvetica,sans-Serif" font-size="10.00">memory</text>
</a>
</g>
</g>
<!-- Node1&#45;&gt;Node4 -->
<g id="edge3" class="edge">
<title>Node1&#45;&gt;Node4</title>
<path fill="none" stroke="midnightblue" d="M127.5,-56.08C127.5,-49.01 127.5,-38.86 127.5,-29.99"/>
<polygon fill="midnightblue" stroke="midnightblue" points="131,-29.75 127.5,-19.75 124,-29.75 131,-29.75"/>
</g>
<!-- Node5 -->
<g id="node5" class="node">
<title>Node5</title>
<g id="a_node5"><a xlink:title=" ">
<polygon fill="none" stroke="#bfbfbf" points="172,-0.5 172,-19.5 249,-19.5 249,-0.5 172,-0.5"/>
<text text-anchor="middle" x="210.5" y="-7.5" font-family="Helvetica,sans-Serif" font-size="10.00">llvm/IR/Type.h</text>
</a>
</g>
</g>
<!-- Node1&#45;&gt;Node5 -->
<g id="edge4" class="edge">
<title>Node1&#45;&gt;Node5</title>
<path fill="none" stroke="midnightblue" d="M140.84,-56.32C153.66,-47.98 173.28,-35.21 188.44,-25.35"/>
<polygon fill="midnightblue" stroke="midnightblue" points="190.72,-28.04 197.2,-19.65 186.91,-22.17 190.72,-28.04"/>
</g>
<!-- Node6 -->
<g id="node6" class="node">
<title>Node6</title>
<g id="a_node6"><a xlink:title=" ">
<polygon fill="none" stroke="#bfbfbf" points="267,-0.5 267,-19.5 374,-19.5 374,-0.5 267,-0.5"/>
<text text-anchor="middle" x="320.5" y="-7.5" font-family="Helvetica,sans-Serif" font-size="10.00">llvm/IR/Instructions.h</text>
</a>
</g>
</g>
<!-- Node1&#45;&gt;Node6 -->
<g id="edge5" class="edge">
<title>Node1&#45;&gt;Node6</title>
<path fill="none" stroke="midnightblue" d="M158.08,-56.44C191.11,-47.2 243.89,-32.44 280.27,-22.26"/>
<polygon fill="midnightblue" stroke="midnightblue" points="281.37,-25.58 290.06,-19.52 279.49,-18.84 281.37,-25.58"/>
</g>
</g>
</svg>
