<?xml version="1.0" encoding="UTF-8" standalone="no"?>
<!DOCTYPE svg PUBLIC "-//W3C//DTD SVG 1.1//EN"
 "http://www.w3.org/Graphics/SVG/1.1/DTD/svg11.dtd">
<!-- Generated by graphviz version 3.0.0 (20220226.1711)
 -->
<!-- Title: src/include/Types.h Pages: 1 -->
<svg width="1034pt" height="252pt"
 viewBox="0.00 0.00 1033.50 252.00" xmlns="http://www.w3.org/2000/svg" xmlns:xlink="http://www.w3.org/1999/xlink">
<g id="graph0" class="graph" transform="scale(1 1) rotate(0) translate(4 248)">
<title>src/include/Types.h</title>
<!-- Node1 -->
<g id="node1" class="node">
<title>Node1</title>
<g id="a_node1"><a xlink:title=" ">
<polygon fill="#bfbfbf" stroke="black" points="393,-224.5 393,-243.5 494,-243.5 494,-224.5 393,-224.5"/>
<text text-anchor="middle" x="443.5" y="-231.5" font-family="Helvetica,sans-Serif" font-size="10.00">src/include/Types.h</text>
</a>
</g>
</g>
<!-- Node2 -->
<g id="node2" class="node">
<title>Node2</title>
<g id="a_node2"><a xlink:href="_a_s_t_8cpp.html" target="_top" xlink:title=" ">
<polygon fill="none" stroke="black" points="0,-56.5 0,-75.5 71,-75.5 71,-56.5 0,-56.5"/>
<text text-anchor="middle" x="35.5" y="-63.5" font-family="Helvetica,sans-Serif" font-size="10.00">src/AST.cpp</text>
</a>
</g>
</g>
<!-- Node1&#45;&gt;Node2 -->
<g id="edge1" class="edge">
<title>Node1&#45;&gt;Node2</title>
<path fill="none" stroke="midnightblue" d="M382.83,-228.66C299.08,-222.05 152.8,-208.06 103.5,-188 64.97,-172.32 47.14,-169.19 28.5,-132 19.24,-113.53 26.69,-88.47 31.76,-75.52"/>
<polygon fill="midnightblue" stroke="midnightblue" points="382.73,-232.17 392.97,-229.45 383.27,-225.19 382.73,-232.17"/>
</g>
<!-- Node3 -->
<g id="node3" class="node">
<title>Node3</title>
<g id="a_node3"><a xlink:href="_code_gen_8cpp.html" target="_top" xlink:title=" ">
<polygon fill="none" stroke="black" points="723.5,-0.5 723.5,-19.5 815.5,-19.5 815.5,-0.5 723.5,-0.5"/>
<text text-anchor="middle" x="769.5" y="-7.5" font-family="Helvetica,sans-Serif" font-size="10.00">src/CodeGen.cpp</text>
</a>
</g>
</g>
<!-- Node1&#45;&gt;Node3 -->
<g id="edge2" class="edge">
<title>Node1&#45;&gt;Node3</title>
<path fill="none" stroke="midnightblue" d="M504.26,-228.68C557.2,-223.44 635.34,-212.09 699.5,-188 789.48,-154.21 837.31,-159.73 884.5,-76 902.18,-44.63 854.92,-27.29 815.72,-18.57"/>
<polygon fill="midnightblue" stroke="midnightblue" points="503.64,-225.22 494.02,-229.65 504.3,-232.19 503.64,-225.22"/>
</g>
<!-- Node4 -->
<g id="node4" class="node">
<title>Node4</title>
<g id="a_node4"><a xlink:href="_instructions_8cpp.html" target="_top" xlink:title=" ">
<polygon fill="none" stroke="black" points="359.5,-56.5 359.5,-75.5 461.5,-75.5 461.5,-56.5 359.5,-56.5"/>
<text text-anchor="middle" x="410.5" y="-63.5" font-family="Helvetica,sans-Serif" font-size="10.00">src/Instructions.cpp</text>
</a>
</g>
</g>
<!-- Node1&#45;&gt;Node4 -->
<g id="edge3" class="edge">
<title>Node1&#45;&gt;Node4</title>
<path fill="none" stroke="midnightblue" d="M439.83,-214.44C435.13,-190.69 426.73,-148.28 419.5,-112 416.98,-99.34 414.04,-84.68 412.23,-75.63"/>
<polygon fill="midnightblue" stroke="midnightblue" points="436.44,-215.36 441.82,-224.49 443.31,-214 436.44,-215.36"/>
</g>
<!-- Node5 -->
<g id="node5" class="node">
<title>Node5</title>
<g id="a_node5"><a xlink:href="_parser_8cpp.html" target="_top" xlink:title=" ">
<polygon fill="none" stroke="black" points="127.5,-56.5 127.5,-75.5 207.5,-75.5 207.5,-56.5 127.5,-56.5"/>
<text text-anchor="middle" x="167.5" y="-63.5" font-family="Helvetica,sans-Serif" font-size="10.00">src/Parser.cpp</text>
</a>
</g>
</g>
<!-- Node1&#45;&gt;Node5 -->
<g id="edge4" class="edge">
<title>Node1&#45;&gt;Node5</title>
<path fill="none" stroke="midnightblue" d="M420.39,-219.11C388,-199.64 327.26,-163.13 275.5,-132 241.93,-111.81 202.51,-88.07 181.82,-75.62"/>
<polygon fill="midnightblue" stroke="midnightblue" points="418.74,-222.2 429.12,-224.36 422.35,-216.2 418.74,-222.2"/>
</g>
<!-- Node6 -->
<g id="node6" class="node">
<title>Node6</title>
<g id="a_node6"><a xlink:href="_tokenizer_8cpp.html" target="_top" xlink:title=" ">
<polygon fill="none" stroke="black" points="931.5,-168.5 931.5,-187.5 1025.5,-187.5 1025.5,-168.5 931.5,-168.5"/>
<text text-anchor="middle" x="978.5" y="-175.5" font-family="Helvetica,sans-Serif" font-size="10.00">src/Tokenizer.cpp</text>
</a>
</g>
</g>
<!-- Node1&#45;&gt;Node6 -->
<g id="edge5" class="edge">
<title>Node1&#45;&gt;Node6</title>
<path fill="none" stroke="midnightblue" d="M504.15,-228.25C594.41,-220.96 769.34,-205.95 917.5,-188 921.96,-187.46 926.6,-186.85 931.24,-186.22"/>
<polygon fill="midnightblue" stroke="midnightblue" points="503.79,-224.77 494.1,-229.06 504.35,-231.75 503.79,-224.77"/>
</g>
<!-- Node7 -->
<g id="node7" class="node">
<title>Node7</title>
<g id="a_node7"><a xlink:href="_types_8cpp.html" target="_top" xlink:title=" ">
<polygon fill="none" stroke="black" points="797.5,-56.5 797.5,-75.5 875.5,-75.5 875.5,-56.5 797.5,-56.5"/>
<text text-anchor="middle" x="836.5" y="-63.5" font-family="Helvetica,sans-Serif" font-size="10.00">src/Types.cpp</text>
</a>
</g>
</g>
<!-- Node1&#45;&gt;Node7 -->
<g id="edge6" class="edge">
<title>Node1&#45;&gt;Node7</title>
<path fill="none" stroke="midnightblue" d="M504.5,-225.26C548.94,-218.46 610.12,-206.68 661.5,-188 710.84,-170.06 722.7,-162.4 765.5,-132 790.3,-114.39 815.72,-88.96 828.35,-75.74"/>
<polygon fill="midnightblue" stroke="midnightblue" points="503.8,-221.82 494.43,-226.76 504.83,-228.75 503.8,-221.82"/>
</g>
<!-- Node8 -->
<g id="node8" class="node">
<title>Node8</title>
<g id="a_node8"><a xlink:href="_a_s_t_8h.html" target="_top" xlink:title=" ">
<polygon fill="none" stroke="black" points="128.5,-168.5 128.5,-187.5 222.5,-187.5 222.5,-168.5 128.5,-168.5"/>
<text text-anchor="middle" x="175.5" y="-175.5" font-family="Helvetica,sans-Serif" font-size="10.00">src/include/AST.h</text>
</a>
</g>
</g>
<!-- Node1&#45;&gt;Node8 -->
<g id="edge7" class="edge">
<title>Node1&#45;&gt;Node8</title>
<path fill="none" stroke="midnightblue" d="M390.94,-222.41C340.29,-212.2 264.63,-196.96 217.77,-187.52"/>
<polygon fill="midnightblue" stroke="midnightblue" points="390.54,-225.9 401.03,-224.44 391.92,-219.04 390.54,-225.9"/>
</g>
<!-- Node14 -->
<g id="node14" class="node">
<title>Node14</title>
<g id="a_node14"><a xlink:href="_parser_8h.html" target="_top" xlink:title=" ">
<polygon fill="none" stroke="black" points="48.5,-112.5 48.5,-131.5 152.5,-131.5 152.5,-112.5 48.5,-112.5"/>
<text text-anchor="middle" x="100.5" y="-119.5" font-family="Helvetica,sans-Serif" font-size="10.00">src/include/Parser.h</text>
</a>
</g>
</g>
<!-- Node1&#45;&gt;Node14 -->
<g id="edge36" class="edge">
<title>Node1&#45;&gt;Node14</title>
<path fill="none" stroke="midnightblue" d="M382.68,-232.22C299.95,-229.91 157.82,-221.09 119.5,-188 102.95,-173.71 100.42,-145.87 100.27,-131.72"/>
<polygon fill="midnightblue" stroke="midnightblue" points="382.63,-235.72 392.71,-232.48 382.81,-228.73 382.63,-235.72"/>
</g>
<!-- Node15 -->
<g id="node15" class="node">
<title>Node15</title>
<g id="a_node15"><a xlink:href="_instructions_8h.html" target="_top" xlink:title=" ">
<polygon fill="none" stroke="black" points="285,-112.5 285,-131.5 410,-131.5 410,-112.5 285,-112.5"/>
<text text-anchor="middle" x="347.5" y="-119.5" font-family="Helvetica,sans-Serif" font-size="10.00">src/include/Instructions.h</text>
</a>
</g>
</g>
<!-- Node1&#45;&gt;Node15 -->
<g id="edge25" class="edge">
<title>Node1&#45;&gt;Node15</title>
<path fill="none" stroke="midnightblue" d="M429.17,-216.59C408.48,-192.87 370.95,-149.87 355,-131.59"/>
<polygon fill="midnightblue" stroke="midnightblue" points="426.75,-219.14 435.97,-224.37 432.03,-214.53 426.75,-219.14"/>
</g>
<!-- Node16 -->
<g id="node16" class="node">
<title>Node16</title>
<g id="a_node16"><a xlink:href="_layout_8h.html" target="_top" xlink:title=" ">
<polygon fill="none" stroke="black" points="548.5,-168.5 548.5,-187.5 652.5,-187.5 652.5,-168.5 548.5,-168.5"/>
<text text-anchor="middle" x="600.5" y="-175.5" font-family="Helvetica,sans-Serif" font-size="10.00">src/include/Layout.h</text>
</a>
</g>
</g>
<!-- Node1&#45;&gt;Node16 -->
<g id="edge28" class="edge">
<title>Node1&#45;&gt;Node16</title>
<path fill="none" stroke="midnightblue" d="M477.89,-221.17C507.45,-211 549.37,-196.59 575.74,-187.52"/>
<polygon fill="midnightblue" stroke="midnightblue" points="476.7,-217.88 468.38,-224.44 478.97,-224.5 476.7,-217.88"/>
</g>
<!-- Node8&#45;&gt;Node2 -->
<g id="edge8" class="edge">
<title>Node8&#45;&gt;Node2</title>
<path fill="none" stroke="midnightblue" d="M118.26,-172.74C90.01,-167.47 58.09,-156.13 39.5,-132 26.81,-115.52 30.29,-89.15 33.26,-75.62"/>
<polygon fill="midnightblue" stroke="midnightblue" points="118.04,-176.25 128.47,-174.41 119.17,-169.34 118.04,-176.25"/>
</g>
<!-- Node8&#45;&gt;Node5 -->
<g id="edge9" class="edge">
<title>Node8&#45;&gt;Node5</title>
<path fill="none" stroke="midnightblue" d="M174.14,-158.35C172.39,-134.25 169.41,-93.31 168.12,-75.59"/>
<polygon fill="midnightblue" stroke="midnightblue" points="170.66,-158.65 174.87,-168.37 177.64,-158.14 170.66,-158.65"/>
</g>
<!-- Node9 -->
<g id="node9" class="node">
<title>Node9</title>
<g id="a_node9"><a xlink:href="_code_gen_8h.html" target="_top" xlink:title=" ">
<polygon fill="none" stroke="black" points="225.5,-56.5 225.5,-75.5 341.5,-75.5 341.5,-56.5 225.5,-56.5"/>
<text text-anchor="middle" x="283.5" y="-63.5" font-family="Helvetica,sans-Serif" font-size="10.00">src/include/CodeGen.h</text>
</a>
</g>
</g>
<!-- Node8&#45;&gt;Node9 -->
<g id="edge10" class="edge">
<title>Node8&#45;&gt;Node9</title>
<path fill="none" stroke="midnightblue" d="M191.01,-161.21C214.16,-137.63 256.96,-94.03 275.06,-75.59"/>
<polygon fill="midnightblue" stroke="midnightblue" points="188.48,-158.78 183.97,-168.37 193.48,-163.68 188.48,-158.78"/>
</g>
<!-- Node11 -->
<g id="node11" class="node">
<title>Node11</title>
<g id="a_node11"><a xlink:href="_context_8h.html" target="_top" xlink:title=" ">
<polygon fill="none" stroke="black" points="505,-112.5 505,-131.5 614,-131.5 614,-112.5 505,-112.5"/>
<text text-anchor="middle" x="559.5" y="-119.5" font-family="Helvetica,sans-Serif" font-size="10.00">src/include/Context.h</text>
</a>
</g>
</g>
<!-- Node8&#45;&gt;Node11 -->
<g id="edge13" class="edge">
<title>Node8&#45;&gt;Node11</title>
<path fill="none" stroke="midnightblue" d="M232.58,-168.97C306.02,-158.65 432.69,-140.83 504.9,-130.68"/>
<polygon fill="midnightblue" stroke="midnightblue" points="232,-165.52 222.59,-170.38 232.98,-172.45 232,-165.52"/>
</g>
<!-- Node8&#45;&gt;Node14 -->
<g id="edge21" class="edge">
<title>Node8&#45;&gt;Node14</title>
<path fill="none" stroke="midnightblue" d="M155.19,-162.38C141.64,-152.62 124.26,-140.11 112.77,-131.83"/>
<polygon fill="midnightblue" stroke="midnightblue" points="153.29,-165.32 163.45,-168.32 157.38,-159.64 153.29,-165.32"/>
</g>
<!-- Node9&#45;&gt;Node3 -->
<g id="edge11" class="edge">
<title>Node9&#45;&gt;Node3</title>
<path fill="none" stroke="midnightblue" d="M351.76,-55.88C493.24,-38.89 647.81,-23.09 723.26,-15.56"/>
<polygon fill="midnightblue" stroke="midnightblue" points="351.1,-52.43 341.59,-57.1 351.94,-59.38 351.1,-52.43"/>
</g>
<!-- Node10 -->
<g id="node10" class="node">
<title>Node10</title>
<g id="a_node10"><a xlink:href="_program_8hpp.html" target="_top" xlink:title=" ">
<polygon fill="none" stroke="black" points="325.5,-0.5 325.5,-19.5 447.5,-19.5 447.5,-0.5 325.5,-0.5"/>
<text text-anchor="middle" x="386.5" y="-7.5" font-family="Helvetica,sans-Serif" font-size="10.00">src/include/Program.hpp</text>
</a>
</g>
</g>
<!-- Node9&#45;&gt;Node10 -->
<g id="edge12" class="edge">
<title>Node9&#45;&gt;Node10</title>
<path fill="none" stroke="midnightblue" d="M309.08,-51.59C328.12,-41.61 353.56,-28.27 369.99,-19.65"/>
<polygon fill="midnightblue" stroke="midnightblue" points="307.28,-48.58 300.05,-56.32 310.53,-54.78 307.28,-48.58"/>
</g>
<!-- Node11&#45;&gt;Node2 -->
<g id="edge14" class="edge">
<title>Node11&#45;&gt;Node2</title>
<path fill="none" stroke="midnightblue" d="M494.7,-114.52C408.71,-105.88 252.17,-90.07 118.5,-76 102.93,-74.36 85.73,-72.5 71.04,-70.9"/>
<polygon fill="midnightblue" stroke="midnightblue" points="494.53,-118.02 504.83,-115.53 495.23,-111.05 494.53,-118.02"/>
</g>
<!-- Node11&#45;&gt;Node4 -->
<g id="edge16" class="edge">
<title>Node11&#45;&gt;Node4</title>
<path fill="none" stroke="midnightblue" d="M526.13,-108.91C498.12,-98.75 458.8,-84.51 434,-75.52"/>
<polygon fill="midnightblue" stroke="midnightblue" points="525.3,-112.33 535.89,-112.44 527.68,-105.75 525.3,-112.33"/>
</g>
<!-- Node11&#45;&gt;Node7 -->
<g id="edge18" class="edge">
<title>Node11&#45;&gt;Node7</title>
<path fill="none" stroke="midnightblue" d="M613.47,-110.48C667.46,-99.95 749.21,-84.02 797.29,-74.64"/>
<polygon fill="midnightblue" stroke="midnightblue" points="612.54,-107.09 603.39,-112.44 613.88,-113.97 612.54,-107.09"/>
</g>
<!-- Node11&#45;&gt;Node9 -->
<g id="edge19" class="edge">
<title>Node11&#45;&gt;Node9</title>
<path fill="none" stroke="midnightblue" d="M505.7,-110.47C453.54,-100.27 375.39,-84.98 327.03,-75.52"/>
<polygon fill="midnightblue" stroke="midnightblue" points="505.28,-113.96 515.77,-112.44 506.63,-107.09 505.28,-113.96"/>
</g>
<!-- Node11&#45;&gt;Node10 -->
<g id="edge20" class="edge">
<title>Node11&#45;&gt;Node10</title>
<path fill="none" stroke="midnightblue" d="M540.59,-106C522.93,-92.28 495.6,-71.78 470.5,-56 448.37,-42.09 421.56,-28.21 404.28,-19.62"/>
<polygon fill="midnightblue" stroke="midnightblue" points="538.85,-109.08 548.88,-112.49 543.17,-103.57 538.85,-109.08"/>
</g>
<!-- Node12 -->
<g id="node12" class="node">
<title>Node12</title>
<g id="a_node12"><a xlink:href="_context_8cpp.html" target="_top" xlink:title=" ">
<polygon fill="none" stroke="black" points="517.5,-56.5 517.5,-75.5 603.5,-75.5 603.5,-56.5 517.5,-56.5"/>
<text text-anchor="middle" x="560.5" y="-63.5" font-family="Helvetica,sans-Serif" font-size="10.00">src/Context.cpp</text>
</a>
</g>
</g>
<!-- Node11&#45;&gt;Node12 -->
<g id="edge15" class="edge">
<title>Node11&#45;&gt;Node12</title>
<path fill="none" stroke="midnightblue" d="M559.86,-101.8C560.02,-92.91 560.21,-82.78 560.34,-75.75"/>
<polygon fill="midnightblue" stroke="midnightblue" points="556.35,-102.02 559.67,-112.08 563.35,-102.15 556.35,-102.02"/>
</g>
<!-- Node13 -->
<g id="node13" class="node">
<title>Node13</title>
<g id="a_node13"><a xlink:href="_layout_8cpp.html" target="_top" xlink:title=" ">
<polygon fill="none" stroke="black" points="622,-56.5 622,-75.5 703,-75.5 703,-56.5 622,-56.5"/>
<text text-anchor="middle" x="662.5" y="-63.5" font-family="Helvetica,sans-Serif" font-size="10.00">src/Layout.cpp</text>
</a>
</g>
</g>
<!-- Node11&#45;&gt;Node13 -->
<g id="edge17" class="edge">
<title>Node11&#45;&gt;Node13</title>
<path fill="none" stroke="midnightblue" d="M585.08,-107.59C604.12,-97.61 629.56,-84.27 645.99,-75.65"/>
<polygon fill="midnightblue" stroke="midnightblue" points="583.28,-104.58 576.05,-112.32 586.53,-110.78 583.28,-104.58"/>
</g>
<!-- Node14&#45;&gt;Node2 -->
<g id="edge22" class="edge">
<title>Node14&#45;&gt;Node2</title>
<path fill="none" stroke="midnightblue" d="M82.23,-105.82C70.58,-96.15 55.9,-83.95 46.13,-75.83"/>
<polygon fill="midnightblue" stroke="midnightblue" points="80.13,-108.63 90.06,-112.32 84.6,-103.24 80.13,-108.63"/>
</g>
<!-- Node14&#45;&gt;Node5 -->
<g id="edge23" class="edge">
<title>Node14&#45;&gt;Node5</title>
<path fill="none" stroke="midnightblue" d="M119.33,-105.82C131.34,-96.15 146.47,-83.95 156.54,-75.83"/>
<polygon fill="midnightblue" stroke="midnightblue" points="116.85,-103.32 111.26,-112.32 121.25,-108.77 116.85,-103.32"/>
</g>
<!-- Node14&#45;&gt;Node10 -->
<g id="edge24" class="edge">
<title>Node14&#45;&gt;Node10</title>
<path fill="none" stroke="midnightblue" d="M100.53,-102.32C101.61,-87.57 105.61,-67.62 118.5,-56 148.16,-29.27 255.74,-18.22 325.25,-13.79"/>
<polygon fill="midnightblue" stroke="midnightblue" points="97.03,-102.23 100.17,-112.35 104.03,-102.48 97.03,-102.23"/>
</g>
<!-- Node15&#45;&gt;Node2 -->
<g id="edge26" class="edge">
<title>Node15&#45;&gt;Node2</title>
<path fill="none" stroke="midnightblue" d="M288.1,-110.72C224,-99.62 124.02,-82.32 71.12,-73.16"/>
<polygon fill="midnightblue" stroke="midnightblue" points="287.61,-114.19 298.06,-112.44 288.81,-107.29 287.61,-114.19"/>
</g>
<!-- Node15&#45;&gt;Node4 -->
<g id="edge27" class="edge">
<title>Node15&#45;&gt;Node4</title>
<path fill="none" stroke="midnightblue" d="M365.54,-105.54C376.77,-95.91 390.82,-83.87 400.19,-75.83"/>
<polygon fill="midnightblue" stroke="midnightblue" points="362.94,-103.16 357.62,-112.32 367.49,-108.47 362.94,-103.16"/>
</g>
<!-- Node16&#45;&gt;Node3 -->
<g id="edge29" class="edge">
<title>Node16&#45;&gt;Node3</title>
<path fill="none" stroke="midnightblue" d="M662.63,-172.16C691.72,-166.67 724.52,-155.31 745.5,-132 774.87,-99.37 772.59,-41.41 770.52,-19.61"/>
<polygon fill="midnightblue" stroke="midnightblue" points="661.79,-168.75 652.51,-173.86 662.96,-175.65 661.79,-168.75"/>
</g>
<!-- Node16&#45;&gt;Node5 -->
<g id="edge32" class="edge">
<title>Node16&#45;&gt;Node5</title>
<path fill="none" stroke="midnightblue" d="M570.95,-164.64C535.52,-150.22 474.06,-126.52 419.5,-112 330.95,-88.43 306.67,-92.28 216.5,-76 213.61,-75.48 210.62,-74.94 207.61,-74.39"/>
<polygon fill="midnightblue" stroke="midnightblue" points="569.65,-167.88 580.23,-168.44 572.3,-161.41 569.65,-167.88"/>
</g>
<!-- Node16&#45;&gt;Node10 -->
<g id="edge35" class="edge">
<title>Node16&#45;&gt;Node10</title>
<path fill="none" stroke="midnightblue" d="M628.66,-163.93C672.24,-141.99 747.54,-96.21 712.5,-56 678.86,-17.4 532.5,-10.79 447.76,-10.3"/>
<polygon fill="midnightblue" stroke="midnightblue" points="627.07,-160.81 619.63,-168.36 630.15,-167.09 627.07,-160.81"/>
</g>
<!-- Node16&#45;&gt;Node11 -->
<g id="edge33" class="edge">
<title>Node16&#45;&gt;Node11</title>
<path fill="none" stroke="midnightblue" d="M587.48,-159.86C580.38,-150.5 571.9,-139.33 566.14,-131.75"/>
<polygon fill="midnightblue" stroke="midnightblue" points="584.89,-162.24 593.73,-168.08 590.47,-158 584.89,-162.24"/>
</g>
<!-- Node16&#45;&gt;Node12 -->
<g id="edge30" class="edge">
<title>Node16&#45;&gt;Node12</title>
<path fill="none" stroke="midnightblue" d="M613.97,-159.99C622.86,-146.56 631.51,-127.57 623.5,-112 614.7,-94.91 596.08,-82.87 581.35,-75.57"/>
<polygon fill="midnightblue" stroke="midnightblue" points="611,-158.12 607.98,-168.28 616.68,-162.22 611,-158.12"/>
</g>
<!-- Node16&#45;&gt;Node13 -->
<g id="edge31" class="edge">
<title>Node16&#45;&gt;Node13</title>
<path fill="none" stroke="midnightblue" d="M616.33,-161.06C623.81,-152.89 632.4,-142.47 638.5,-132 649.4,-113.29 656.84,-88.76 660.29,-75.84"/>
<polygon fill="midnightblue" stroke="midnightblue" points="613.71,-158.74 609.37,-168.4 618.79,-163.56 613.71,-158.74"/>
</g>
<!-- Node16&#45;&gt;Node14 -->
<g id="edge34" class="edge">
<title>Node16&#45;&gt;Node14</title>
<path fill="none" stroke="midnightblue" d="M538.2,-170.27C438.7,-159.53 245.68,-138.68 152.85,-128.65"/>
<polygon fill="midnightblue" stroke="midnightblue" points="538.09,-173.78 548.41,-171.37 538.84,-166.82 538.09,-173.78"/>
</g>
</g>
</svg>
