<?xml version="1.0" encoding="UTF-8" standalone="no"?>
<!DOCTYPE svg PUBLIC "-//W3C//DTD SVG 1.1//EN"
 "http://www.w3.org/Graphics/SVG/1.1/DTD/svg11.dtd">
<!-- Generated by graphviz version 3.0.0 (20220226.1711)
 -->
<!-- Title: src/include/Types.h Pages: 1 -->
<svg width="1118pt" height="308pt"
 viewBox="0.00 0.00 1117.63 308.00" xmlns="http://www.w3.org/2000/svg" xmlns:xlink="http://www.w3.org/1999/xlink">
<g id="graph0" class="graph" transform="scale(1 1) rotate(0) translate(4 304)">
<title>src/include/Types.h</title>
<!-- Node1 -->
<g id="node1" class="node">
<title>Node1</title>
<g id="a_node1"><a xlink:title=" ">
<polygon fill="#bfbfbf" stroke="black" points="282.13,-280.5 282.13,-299.5 383.13,-299.5 383.13,-280.5 282.13,-280.5"/>
<text text-anchor="middle" x="332.63" y="-287.5" font-family="Helvetica,sans-Serif" font-size="10.00">src/include/Types.h</text>
</a>
</g>
</g>
<!-- Node2 -->
<g id="node2" class="node">
<title>Node2</title>
<g id="a_node2"><a xlink:href="_a_s_t_8cpp.html" target="_top" xlink:title=" ">
<polygon fill="none" stroke="black" points="8.13,-112.5 8.13,-131.5 79.13,-131.5 79.13,-112.5 8.13,-112.5"/>
<text text-anchor="middle" x="43.63" y="-119.5" font-family="Helvetica,sans-Serif" font-size="10.00">src/AST.cpp</text>
</a>
</g>
</g>
<!-- Node1&#45;&gt;Node2 -->
<g id="edge1" class="edge">
<title>Node1&#45;&gt;Node2</title>
<path fill="none" stroke="midnightblue" d="M271.67,-288.96C214.6,-286.65 128.35,-277.22 61.63,-244 29.27,-227.89 16.9,-221.22 2.63,-188 -6.69,-166.3 16.48,-143.54 31.66,-131.55"/>
<polygon fill="midnightblue" stroke="midnightblue" points="271.86,-292.46 281.98,-289.31 272.1,-285.47 271.86,-292.46"/>
</g>
<!-- Node3 -->
<g id="node3" class="node">
<title>Node3</title>
<g id="a_node3"><a xlink:href="_code_gen_8cpp.html" target="_top" xlink:title=" ">
<polygon fill="none" stroke="black" points="939.63,-56.5 939.63,-75.5 1031.63,-75.5 1031.63,-56.5 939.63,-56.5"/>
<text text-anchor="middle" x="985.63" y="-63.5" font-family="Helvetica,sans-Serif" font-size="10.00">src/CodeGen.cpp</text>
</a>
</g>
</g>
<!-- Node1&#45;&gt;Node3 -->
<g id="edge2" class="edge">
<title>Node1&#45;&gt;Node3</title>
<path fill="none" stroke="midnightblue" d="M393.7,-286.4C531.62,-279.38 861.8,-255.77 946.63,-188 982.15,-159.62 985.76,-98.57 985.81,-75.8"/>
<polygon fill="midnightblue" stroke="midnightblue" points="393.14,-282.93 383.32,-286.92 393.48,-289.92 393.14,-282.93"/>
</g>
<!-- Node4 -->
<g id="node4" class="node">
<title>Node4</title>
<g id="a_node4"><a xlink:href="_instructions_8cpp.html" target="_top" xlink:title=" ">
<polygon fill="none" stroke="black" points="233.63,-112.5 233.63,-131.5 335.63,-131.5 335.63,-112.5 233.63,-112.5"/>
<text text-anchor="middle" x="284.63" y="-119.5" font-family="Helvetica,sans-Serif" font-size="10.00">src/Instructions.cpp</text>
</a>
</g>
</g>
<!-- Node1&#45;&gt;Node4 -->
<g id="edge3" class="edge">
<title>Node1&#45;&gt;Node4</title>
<path fill="none" stroke="midnightblue" d="M342.06,-271.25C345.84,-263.17 349.74,-253.35 351.63,-244 353.39,-235.29 353.28,-232.73 351.63,-224 346.65,-197.73 344.28,-190.37 329.63,-168 320.19,-153.58 305.54,-140.03 295.54,-131.63"/>
<polygon fill="midnightblue" stroke="midnightblue" points="338.84,-269.86 337.51,-280.37 345.1,-272.99 338.84,-269.86"/>
</g>
<!-- Node5 -->
<g id="node5" class="node">
<title>Node5</title>
<g id="a_node5"><a xlink:href="_parser_8cpp.html" target="_top" xlink:title=" ">
<polygon fill="none" stroke="black" points="135.63,-112.5 135.63,-131.5 215.63,-131.5 215.63,-112.5 135.63,-112.5"/>
<text text-anchor="middle" x="175.63" y="-119.5" font-family="Helvetica,sans-Serif" font-size="10.00">src/Parser.cpp</text>
</a>
</g>
</g>
<!-- Node1&#45;&gt;Node5 -->
<g id="edge4" class="edge">
<title>Node1&#45;&gt;Node5</title>
<path fill="none" stroke="midnightblue" d="M271.9,-278.82C187.24,-263.24 40.61,-230.74 9.63,-188 4.41,-180.8 4.23,-175.06 9.63,-168 24.82,-148.14 91.2,-135 135.28,-128.29"/>
<polygon fill="midnightblue" stroke="midnightblue" points="271.45,-282.3 281.91,-280.64 272.7,-275.41 271.45,-282.3"/>
</g>
<!-- Node6 -->
<g id="node6" class="node">
<title>Node6</title>
<g id="a_node6"><a xlink:href="_tokenizer_8cpp.html" target="_top" xlink:title=" ">
<polygon fill="none" stroke="black" points="1015.63,-224.5 1015.63,-243.5 1109.63,-243.5 1109.63,-224.5 1015.63,-224.5"/>
<text text-anchor="middle" x="1062.63" y="-231.5" font-family="Helvetica,sans-Serif" font-size="10.00">src/Tokenizer.cpp</text>
</a>
</g>
</g>
<!-- Node1&#45;&gt;Node6 -->
<g id="edge5" class="edge">
<title>Node1&#45;&gt;Node6</title>
<path fill="none" stroke="midnightblue" d="M393.78,-286.51C511.64,-281.36 778.33,-267.95 1001.63,-244 1006.1,-243.52 1010.75,-242.96 1015.39,-242.35"/>
<polygon fill="midnightblue" stroke="midnightblue" points="393.36,-283.03 383.52,-286.96 393.67,-290.02 393.36,-283.03"/>
</g>
<!-- Node7 -->
<g id="node7" class="node">
<title>Node7</title>
<g id="a_node7"><a xlink:href="_types_8cpp.html" target="_top" xlink:title=" ">
<polygon fill="none" stroke="black" points="767.63,-112.5 767.63,-131.5 845.63,-131.5 845.63,-112.5 767.63,-112.5"/>
<text text-anchor="middle" x="806.63" y="-119.5" font-family="Helvetica,sans-Serif" font-size="10.00">src/Types.cpp</text>
</a>
</g>
</g>
<!-- Node1&#45;&gt;Node7 -->
<g id="edge6" class="edge">
<title>Node1&#45;&gt;Node7</title>
<path fill="none" stroke="midnightblue" d="M393.42,-285.35C477.7,-279.55 625.15,-266.51 673.63,-244 732.24,-216.79 783.02,-154.47 800.32,-131.61"/>
<polygon fill="midnightblue" stroke="midnightblue" points="392.96,-281.87 383.22,-286.04 393.43,-288.85 392.96,-281.87"/>
</g>
<!-- Node8 -->
<g id="node8" class="node">
<title>Node8</title>
<g id="a_node8"><a xlink:href="_a_s_t_8h.html" target="_top" xlink:title=" ">
<polygon fill="none" stroke="black" points="248.63,-224.5 248.63,-243.5 342.63,-243.5 342.63,-224.5 248.63,-224.5"/>
<text text-anchor="middle" x="295.63" y="-231.5" font-family="Helvetica,sans-Serif" font-size="10.00">src/include/AST.h</text>
</a>
</g>
</g>
<!-- Node1&#45;&gt;Node8 -->
<g id="edge7" class="edge">
<title>Node1&#45;&gt;Node8</title>
<path fill="none" stroke="midnightblue" d="M320.68,-271.57C314.32,-262.27 306.76,-251.25 301.63,-243.75"/>
<polygon fill="midnightblue" stroke="midnightblue" points="317.98,-273.81 326.52,-280.08 323.76,-269.86 317.98,-273.81"/>
</g>
<!-- Node15 -->
<g id="node15" class="node">
<title>Node15</title>
<g id="a_node15"><a xlink:href="_parser_8h.html" target="_top" xlink:title=" ">
<polygon fill="none" stroke="black" points="200.63,-168.5 200.63,-187.5 304.63,-187.5 304.63,-168.5 200.63,-168.5"/>
<text text-anchor="middle" x="252.63" y="-175.5" font-family="Helvetica,sans-Serif" font-size="10.00">src/include/Parser.h</text>
</a>
</g>
</g>
<!-- Node1&#45;&gt;Node15 -->
<g id="edge39" class="edge">
<title>Node1&#45;&gt;Node15</title>
<path fill="none" stroke="midnightblue" d="M283.52,-276.89C266.63,-270.13 249.51,-259.75 239.63,-244 228.5,-226.26 239.77,-200.89 247.21,-187.71"/>
<polygon fill="midnightblue" stroke="midnightblue" points="282.78,-280.35 293.38,-280.48 285.17,-273.77 282.78,-280.35"/>
</g>
<!-- Node16 -->
<g id="node16" class="node">
<title>Node16</title>
<g id="a_node16"><a xlink:href="_instructions_8h.html" target="_top" xlink:title=" ">
<polygon fill="none" stroke="black" points="19.13,-168.5 19.13,-187.5 144.13,-187.5 144.13,-168.5 19.13,-168.5"/>
<text text-anchor="middle" x="81.63" y="-175.5" font-family="Helvetica,sans-Serif" font-size="10.00">src/include/Instructions.h</text>
</a>
</g>
</g>
<!-- Node1&#45;&gt;Node16 -->
<g id="edge27" class="edge">
<title>Node1&#45;&gt;Node16</title>
<path fill="none" stroke="midnightblue" d="M303.66,-276.3C251.99,-253.66 145.23,-206.87 101.23,-187.59"/>
<polygon fill="midnightblue" stroke="midnightblue" points="302.37,-279.56 312.93,-280.37 305.18,-273.15 302.37,-279.56"/>
</g>
<!-- Node17 -->
<g id="node17" class="node">
<title>Node17</title>
<g id="a_node17"><a xlink:href="_layout_8h.html" target="_top" xlink:title=" ">
<polygon fill="none" stroke="black" points="560.63,-224.5 560.63,-243.5 664.63,-243.5 664.63,-224.5 560.63,-224.5"/>
<text text-anchor="middle" x="612.63" y="-231.5" font-family="Helvetica,sans-Serif" font-size="10.00">src/include/Layout.h</text>
</a>
</g>
</g>
<!-- Node1&#45;&gt;Node17 -->
<g id="edge30" class="edge">
<title>Node1&#45;&gt;Node17</title>
<path fill="none" stroke="midnightblue" d="M386.88,-278.54C439.8,-268.33 519.3,-253 568.47,-243.52"/>
<polygon fill="midnightblue" stroke="midnightblue" points="386.15,-275.11 377,-280.44 387.48,-281.99 386.15,-275.11"/>
</g>
<!-- Node8&#45;&gt;Node2 -->
<g id="edge8" class="edge">
<title>Node8&#45;&gt;Node2</title>
<path fill="none" stroke="midnightblue" d="M265.42,-220.54C244.53,-211.78 216.2,-199.6 191.63,-188 174.01,-179.68 170.31,-176.17 152.63,-168 123.08,-154.35 88.19,-140.3 65.99,-131.61"/>
<polygon fill="midnightblue" stroke="midnightblue" points="264.16,-223.81 274.73,-224.43 266.85,-217.35 264.16,-223.81"/>
</g>
<!-- Node8&#45;&gt;Node5 -->
<g id="edge9" class="edge">
<title>Node8&#45;&gt;Node5</title>
<path fill="none" stroke="midnightblue" d="M307.99,-215.51C316.22,-201.53 323.8,-182.01 313.63,-168 301.94,-151.89 252.11,-138.52 215.68,-130.65"/>
<polygon fill="midnightblue" stroke="midnightblue" points="304.89,-213.87 302.41,-224.17 310.77,-217.66 304.89,-213.87"/>
</g>
<!-- Node9 -->
<g id="node9" class="node">
<title>Node9</title>
<g id="a_node9"><a xlink:href="_code_gen_8h.html" target="_top" xlink:title=" ">
<polygon fill="none" stroke="black" points="353.63,-112.5 353.63,-131.5 469.63,-131.5 469.63,-112.5 353.63,-112.5"/>
<text text-anchor="middle" x="411.63" y="-119.5" font-family="Helvetica,sans-Serif" font-size="10.00">src/include/CodeGen.h</text>
</a>
</g>
</g>
<!-- Node8&#45;&gt;Node9 -->
<g id="edge10" class="edge">
<title>Node8&#45;&gt;Node9</title>
<path fill="none" stroke="midnightblue" d="M313.58,-217.65C323.46,-209.07 335.87,-198.11 346.63,-188 367.57,-168.33 391.2,-144.19 403.38,-131.58"/>
<polygon fill="midnightblue" stroke="midnightblue" points="311.24,-215.04 305.96,-224.22 315.82,-220.34 311.24,-215.04"/>
</g>
<!-- Node12 -->
<g id="node12" class="node">
<title>Node12</title>
<g id="a_node12"><a xlink:href="_context_8h.html" target="_top" xlink:title=" ">
<polygon fill="none" stroke="black" points="475.13,-168.5 475.13,-187.5 584.13,-187.5 584.13,-168.5 475.13,-168.5"/>
<text text-anchor="middle" x="529.63" y="-175.5" font-family="Helvetica,sans-Serif" font-size="10.00">src/include/Context.h</text>
</a>
</g>
</g>
<!-- Node8&#45;&gt;Node12 -->
<g id="edge14" class="edge">
<title>Node8&#45;&gt;Node12</title>
<path fill="none" stroke="midnightblue" d="M342.63,-222.15C386.85,-211.95 452.15,-196.88 492.73,-187.52"/>
<polygon fill="midnightblue" stroke="midnightblue" points="341.66,-218.78 332.71,-224.44 343.24,-225.61 341.66,-218.78"/>
</g>
<!-- Node8&#45;&gt;Node15 -->
<g id="edge23" class="edge">
<title>Node8&#45;&gt;Node15</title>
<path fill="none" stroke="midnightblue" d="M282.21,-216.14C274.72,-206.74 265.69,-195.4 259.6,-187.75"/>
<polygon fill="midnightblue" stroke="midnightblue" points="279.56,-218.44 288.53,-224.08 285.04,-214.08 279.56,-218.44"/>
</g>
<!-- Node9&#45;&gt;Node3 -->
<g id="edge11" class="edge">
<title>Node9&#45;&gt;Node3</title>
<path fill="none" stroke="midnightblue" d="M479.86,-114.58C598.25,-103.44 838.72,-80.82 939.53,-71.34"/>
<polygon fill="midnightblue" stroke="midnightblue" points="479.46,-111.1 469.83,-115.53 480.11,-118.07 479.46,-111.1"/>
</g>
<!-- Node10 -->
<g id="node10" class="node">
<title>Node10</title>
<g id="a_node10"><a xlink:href="_program_8hpp.html" target="_top" xlink:title=" ">
<polygon fill="none" stroke="black" points="385.63,-56.5 385.63,-75.5 507.63,-75.5 507.63,-56.5 385.63,-56.5"/>
<text text-anchor="middle" x="446.63" y="-63.5" font-family="Helvetica,sans-Serif" font-size="10.00">src/include/Program.hpp</text>
</a>
</g>
</g>
<!-- Node9&#45;&gt;Node10 -->
<g id="edge12" class="edge">
<title>Node9&#45;&gt;Node10</title>
<path fill="none" stroke="midnightblue" d="M422.93,-103.57C428.95,-94.27 436.1,-83.25 440.96,-75.75"/>
<polygon fill="midnightblue" stroke="midnightblue" points="419.91,-101.79 417.41,-112.08 425.79,-105.6 419.91,-101.79"/>
</g>
<!-- Node11 -->
<g id="node11" class="node">
<title>Node11</title>
<g id="a_node11"><a xlink:href="compiler__cli_8cpp.html" target="_top" xlink:title=" ">
<polygon fill="none" stroke="black" points="483.63,-0.5 483.63,-19.5 587.63,-19.5 587.63,-0.5 483.63,-0.5"/>
<text text-anchor="middle" x="535.63" y="-7.5" font-family="Helvetica,sans-Serif" font-size="10.00">src/compiler_cli.cpp</text>
</a>
</g>
</g>
<!-- Node10&#45;&gt;Node11 -->
<g id="edge13" class="edge">
<title>Node10&#45;&gt;Node11</title>
<path fill="none" stroke="midnightblue" d="M469.87,-50.9C486.19,-41 507.5,-28.07 521.37,-19.65"/>
<polygon fill="midnightblue" stroke="midnightblue" points="467.66,-48.14 460.93,-56.32 471.29,-54.13 467.66,-48.14"/>
</g>
<!-- Node12&#45;&gt;Node2 -->
<g id="edge15" class="edge">
<title>Node12&#45;&gt;Node2</title>
<path fill="none" stroke="midnightblue" d="M464.78,-169.79C360.95,-158.26 160.81,-136.02 79.39,-126.97"/>
<polygon fill="midnightblue" stroke="midnightblue" points="464.5,-173.28 474.82,-170.91 465.27,-166.33 464.5,-173.28"/>
</g>
<!-- Node12&#45;&gt;Node4 -->
<g id="edge17" class="edge">
<title>Node12&#45;&gt;Node4</title>
<path fill="none" stroke="midnightblue" d="M481,-166.28C434.7,-156.08 365.94,-140.92 323.27,-131.52"/>
<polygon fill="midnightblue" stroke="midnightblue" points="480.29,-169.71 490.81,-168.44 481.8,-162.87 480.29,-169.71"/>
</g>
<!-- Node12&#45;&gt;Node7 -->
<g id="edge19" class="edge">
<title>Node12&#45;&gt;Node7</title>
<path fill="none" stroke="midnightblue" d="M583.6,-166.48C637.59,-155.95 719.34,-140.02 767.42,-130.64"/>
<polygon fill="midnightblue" stroke="midnightblue" points="582.67,-163.09 573.52,-168.44 584.01,-169.97 582.67,-163.09"/>
</g>
<!-- Node12&#45;&gt;Node9 -->
<g id="edge21" class="edge">
<title>Node12&#45;&gt;Node9</title>
<path fill="none" stroke="midnightblue" d="M501.73,-164.23C479.66,-154.13 449.45,-140.31 430.24,-131.52"/>
<polygon fill="midnightblue" stroke="midnightblue" points="500.38,-167.46 510.93,-168.44 503.3,-161.1 500.38,-167.46"/>
</g>
<!-- Node12&#45;&gt;Node10 -->
<g id="edge22" class="edge">
<title>Node12&#45;&gt;Node10</title>
<path fill="none" stroke="midnightblue" d="M517.01,-160.27C499.07,-136.49 466.84,-93.79 453.11,-75.59"/>
<polygon fill="midnightblue" stroke="midnightblue" points="514.3,-162.49 523.12,-168.37 519.89,-158.28 514.3,-162.49"/>
</g>
<!-- Node12&#45;&gt;Node11 -->
<g id="edge20" class="edge">
<title>Node12&#45;&gt;Node11</title>
<path fill="none" stroke="midnightblue" d="M530.32,-157.93C531.62,-121.92 534.39,-45.23 535.32,-19.57"/>
<polygon fill="midnightblue" stroke="midnightblue" points="526.82,-157.96 529.95,-168.08 533.81,-158.21 526.82,-157.96"/>
</g>
<!-- Node13 -->
<g id="node13" class="node">
<title>Node13</title>
<g id="a_node13"><a xlink:href="_context_8cpp.html" target="_top" xlink:title=" ">
<polygon fill="none" stroke="black" points="563.63,-112.5 563.63,-131.5 649.63,-131.5 649.63,-112.5 563.63,-112.5"/>
<text text-anchor="middle" x="606.63" y="-119.5" font-family="Helvetica,sans-Serif" font-size="10.00">src/Context.cpp</text>
</a>
</g>
</g>
<!-- Node12&#45;&gt;Node13 -->
<g id="edge16" class="edge">
<title>Node12&#45;&gt;Node13</title>
<path fill="none" stroke="midnightblue" d="M550.53,-162.34C564.54,-152.52 582.51,-139.91 594.29,-131.65"/>
<polygon fill="midnightblue" stroke="midnightblue" points="548.18,-159.72 542,-168.32 552.2,-165.45 548.18,-159.72"/>
</g>
<!-- Node14 -->
<g id="node14" class="node">
<title>Node14</title>
<g id="a_node14"><a xlink:href="_layout_8cpp.html" target="_top" xlink:title=" ">
<polygon fill="none" stroke="black" points="668.13,-112.5 668.13,-131.5 749.13,-131.5 749.13,-112.5 668.13,-112.5"/>
<text text-anchor="middle" x="708.63" y="-119.5" font-family="Helvetica,sans-Serif" font-size="10.00">src/Layout.cpp</text>
</a>
</g>
</g>
<!-- Node12&#45;&gt;Node14 -->
<g id="edge18" class="edge">
<title>Node12&#45;&gt;Node14</title>
<path fill="none" stroke="midnightblue" d="M567.96,-165.44C601.71,-155.26 650.08,-140.66 680.4,-131.52"/>
<polygon fill="midnightblue" stroke="midnightblue" points="566.56,-162.2 557.99,-168.44 568.58,-168.91 566.56,-162.2"/>
</g>
<!-- Node15&#45;&gt;Node2 -->
<g id="edge24" class="edge">
<title>Node15&#45;&gt;Node2</title>
<path fill="none" stroke="midnightblue" d="M209.65,-165.89C170.18,-155.7 112.53,-140.8 76.59,-131.52"/>
<polygon fill="midnightblue" stroke="midnightblue" points="208.96,-169.33 219.51,-168.44 210.71,-162.55 208.96,-169.33"/>
</g>
<!-- Node15&#45;&gt;Node5 -->
<g id="edge25" class="edge">
<title>Node15&#45;&gt;Node5</title>
<path fill="none" stroke="midnightblue" d="M231.73,-162.34C217.72,-152.52 199.75,-139.91 187.97,-131.65"/>
<polygon fill="midnightblue" stroke="midnightblue" points="230.06,-165.45 240.26,-168.32 234.08,-159.72 230.06,-165.45"/>
</g>
<!-- Node15&#45;&gt;Node10 -->
<g id="edge26" class="edge">
<title>Node15&#45;&gt;Node10</title>
<path fill="none" stroke="midnightblue" d="M190.68,-166.54C147.99,-156.7 102.89,-139.32 126.63,-112 159.48,-74.21 302.1,-67.24 385.44,-66.49"/>
<polygon fill="midnightblue" stroke="midnightblue" points="190.07,-169.99 200.58,-168.71 191.56,-163.15 190.07,-169.99"/>
</g>
<!-- Node16&#45;&gt;Node2 -->
<g id="edge28" class="edge">
<title>Node16&#45;&gt;Node2</title>
<path fill="none" stroke="midnightblue" d="M69.57,-159.86C62.99,-150.5 55.12,-139.33 49.79,-131.75"/>
<polygon fill="midnightblue" stroke="midnightblue" points="66.74,-161.92 75.36,-168.08 72.46,-157.89 66.74,-161.92"/>
</g>
<!-- Node16&#45;&gt;Node4 -->
<g id="edge29" class="edge">
<title>Node16&#45;&gt;Node4</title>
<path fill="none" stroke="midnightblue" d="M123.62,-165.83C161.95,-155.63 217.78,-140.78 252.61,-131.52"/>
<polygon fill="midnightblue" stroke="midnightblue" points="122.56,-162.49 113.8,-168.44 124.36,-169.26 122.56,-162.49"/>
</g>
<!-- Node17&#45;&gt;Node3 -->
<g id="edge31" class="edge">
<title>Node17&#45;&gt;Node3</title>
<path fill="none" stroke="midnightblue" d="M675.26,-230.79C754.9,-226.84 886.74,-216.15 925.63,-188 945.67,-173.49 973.43,-100.7 982.58,-75.56"/>
<polygon fill="midnightblue" stroke="midnightblue" points="674.69,-227.31 664.86,-231.28 675.02,-234.3 674.69,-227.31"/>
</g>
<!-- Node17&#45;&gt;Node5 -->
<g id="edge34" class="edge">
<title>Node17&#45;&gt;Node5</title>
<path fill="none" stroke="midnightblue" d="M568.86,-221.98C481.66,-200.03 287.93,-151.27 209.54,-131.53"/>
<polygon fill="midnightblue" stroke="midnightblue" points="568.15,-225.41 578.7,-224.46 569.86,-218.62 568.15,-225.41"/>
</g>
<!-- Node17&#45;&gt;Node10 -->
<g id="edge38" class="edge">
<title>Node17&#45;&gt;Node10</title>
<path fill="none" stroke="midnightblue" d="M674.86,-224.64C764.15,-210.24 911.89,-175.93 854.63,-112 831.93,-86.65 615.98,-74.08 507.79,-69.33"/>
<polygon fill="midnightblue" stroke="midnightblue" points="674.15,-221.21 664.81,-226.22 675.23,-228.13 674.15,-221.21"/>
</g>
<!-- Node17&#45;&gt;Node11 -->
<g id="edge35" class="edge">
<title>Node17&#45;&gt;Node11</title>
<path fill="none" stroke="midnightblue" d="M674.87,-227.5C735.18,-221.06 821.28,-208.56 847.63,-188 875.77,-166.04 894.96,-140.63 873.63,-112 839.33,-65.95 673.96,-33.18 587.91,-18.93"/>
<polygon fill="midnightblue" stroke="midnightblue" points="674.27,-224.04 664.68,-228.56 674.99,-231.01 674.27,-224.04"/>
</g>
<!-- Node17&#45;&gt;Node12 -->
<g id="edge36" class="edge">
<title>Node17&#45;&gt;Node12</title>
<path fill="none" stroke="midnightblue" d="M590.53,-218.62C575.37,-208.76 555.75,-195.99 542.93,-187.65"/>
<polygon fill="midnightblue" stroke="midnightblue" points="589,-221.8 599.29,-224.32 592.82,-215.94 589,-221.8"/>
</g>
<!-- Node17&#45;&gt;Node13 -->
<g id="edge32" class="edge">
<title>Node17&#45;&gt;Node13</title>
<path fill="none" stroke="midnightblue" d="M611.61,-214.35C610.3,-190.25 608.06,-149.31 607.1,-131.59"/>
<polygon fill="midnightblue" stroke="midnightblue" points="608.12,-214.57 612.16,-224.37 615.11,-214.19 608.12,-214.57"/>
</g>
<!-- Node17&#45;&gt;Node14 -->
<g id="edge33" class="edge">
<title>Node17&#45;&gt;Node14</title>
<path fill="none" stroke="midnightblue" d="M626.96,-216.59C647.65,-192.87 685.18,-149.87 701.13,-131.59"/>
<polygon fill="midnightblue" stroke="midnightblue" points="624.1,-214.53 620.16,-224.37 629.38,-219.14 624.1,-214.53"/>
</g>
<!-- Node17&#45;&gt;Node15 -->
<g id="edge37" class="edge">
<title>Node17&#45;&gt;Node15</title>
<path fill="none" stroke="midnightblue" d="M550.35,-223.66C480.89,-213.24 369.79,-196.57 304.75,-186.82"/>
<polygon fill="midnightblue" stroke="midnightblue" points="549.87,-227.13 560.28,-225.15 550.91,-220.2 549.87,-227.13"/>
</g>
</g>
</svg>
