<?xml version="1.0" encoding="UTF-8" standalone="no"?>
<!DOCTYPE svg PUBLIC "-//W3C//DTD SVG 1.1//EN"
 "http://www.w3.org/Graphics/SVG/1.1/DTD/svg11.dtd">
<!-- Generated by graphviz version 3.0.0 (20220226.1711)
 -->
<!-- Title: slljit::ForExprAST Pages: 1 -->
<svg width="315pt" height="195pt"
 viewBox="0.00 0.00 315.00 195.00" xmlns="http://www.w3.org/2000/svg" xmlns:xlink="http://www.w3.org/1999/xlink">
<g id="graph0" class="graph" transform="scale(1 1) rotate(0) translate(4 191)">
<title>slljit::ForExprAST</title>
<!-- Node1 -->
<g id="node1" class="node">
<title>Node1</title>
<g id="a_node1"><a xlink:title="Expression class for for/in.">
<polygon fill="#bfbfbf" stroke="black" points="95,-0.5 95,-19.5 188,-19.5 188,-0.5 95,-0.5"/>
<text text-anchor="middle" x="141.5" y="-7.5" font-family="Helvetica,sans-Serif" font-size="10.00">slljit::ForExprAST</text>
</a>
</g>
</g>
<!-- Node2 -->
<g id="node2" class="node">
<title>Node2</title>
<g id="a_node2"><a xlink:href="classslljit_1_1_expr_a_s_t.html" target="_top" xlink:title="Base class for all expression nodes.">
<polygon fill="none" stroke="black" points="0,-95 0,-114 79,-114 79,-95 0,-95"/>
<text text-anchor="middle" x="39.5" y="-102" font-family="Helvetica,sans-Serif" font-size="10.00">slljit::ExprAST</text>
</a>
</g>
</g>
<!-- Node2&#45;&gt;Node1 -->
<g id="edge1" class="edge">
<title>Node2&#45;&gt;Node1</title>
<path fill="none" stroke="midnightblue" d="M56.4,-88.17C78.07,-68.52 114.9,-35.13 132.11,-19.52"/>
<polygon fill="midnightblue" stroke="midnightblue" points="53.97,-85.65 48.91,-94.96 58.67,-90.84 53.97,-85.65"/>
</g>
<!-- Node3 -->
<g id="node3" class="node">
<title>Node3</title>
<g id="a_node3"><a xlink:title=" ">
<polygon fill="none" stroke="black" points="16,-167.5 16,-186.5 63,-186.5 63,-167.5 16,-167.5"/>
<text text-anchor="middle" x="39.5" y="-174.5" font-family="Helvetica,sans-Serif" font-size="10.00">TypeID</text>
</a>
</g>
</g>
<!-- Node3&#45;&gt;Node2 -->
<g id="edge2" class="edge">
<title>Node3&#45;&gt;Node2</title>
<path fill="none" stroke="#9a32cd" stroke-dasharray="5,2" d="M39.5,-156.94C39.5,-143.03 39.5,-124.82 39.5,-114.22"/>
<polygon fill="#9a32cd" stroke="#9a32cd" points="36,-157.36 39.5,-167.36 43,-157.36 36,-157.36"/>
<text text-anchor="middle" x="53.5" y="-141" font-family="Helvetica,sans-Serif" font-size="10.00"> type_</text>
</g>
<!-- Node4 -->
<g id="node4" class="node">
<title>Node4</title>
<g id="a_node4"><a xlink:title=" ">
<polygon fill="none" stroke="black" points="97.5,-89.5 97.5,-119.5 185.5,-119.5 185.5,-89.5 97.5,-89.5"/>
<text text-anchor="start" x="105.5" y="-107.5" font-family="Helvetica,sans-Serif" font-size="10.00">unique_ptr&lt; slljit</text>
<text text-anchor="middle" x="141.5" y="-96.5" font-family="Helvetica,sans-Serif" font-size="10.00">::ExprAST &gt;</text>
</a>
</g>
</g>
<!-- Node4&#45;&gt;Node1 -->
<g id="edge3" class="edge">
<title>Node4&#45;&gt;Node1</title>
<path fill="none" stroke="#9a32cd" stroke-dasharray="5,2" d="M141.5,-79.38C141.5,-59.74 141.5,-33.12 141.5,-19.62"/>
<polygon fill="#9a32cd" stroke="#9a32cd" points="138,-79.45 141.5,-89.45 145,-79.45 138,-79.45"/>
<text text-anchor="middle" x="160.5" y="-63" font-family="Helvetica,sans-Serif" font-size="10.00"> Cond</text>
<text text-anchor="middle" x="160.5" y="-52" font-family="Helvetica,sans-Serif" font-size="10.00">EndExpr</text>
<text text-anchor="middle" x="160.5" y="-41" font-family="Helvetica,sans-Serif" font-size="10.00">VarInit</text>
</g>
<!-- Node5 -->
<g id="node5" class="node">
<title>Node5</title>
<g id="a_node5"><a xlink:title=" ">
<polygon fill="none" stroke="black" points="204,-89.5 204,-119.5 307,-119.5 307,-89.5 204,-89.5"/>
<text text-anchor="start" x="212" y="-107.5" font-family="Helvetica,sans-Serif" font-size="10.00">list&lt; std::unique_ptr</text>
<text text-anchor="middle" x="255.5" y="-96.5" font-family="Helvetica,sans-Serif" font-size="10.00">&lt; ExprAST &gt; &gt;</text>
</a>
</g>
</g>
<!-- Node5&#45;&gt;Node1 -->
<g id="edge4" class="edge">
<title>Node5&#45;&gt;Node1</title>
<path fill="none" stroke="#9a32cd" stroke-dasharray="5,2" d="M234.32,-82.49C220.39,-69.13 201.48,-51.81 183.5,-38 174.84,-31.35 164.53,-24.7 156.29,-19.67"/>
<polygon fill="#9a32cd" stroke="#9a32cd" points="231.89,-85.01 241.5,-89.46 236.76,-79.99 231.89,-85.01"/>
<text text-anchor="middle" x="234.5" y="-52" font-family="Helvetica,sans-Serif" font-size="10.00"> Body</text>
</g>
</g>
</svg>
