<?xml version="1.0" encoding="UTF-8" standalone="no"?>
<!DOCTYPE svg PUBLIC "-//W3C//DTD SVG 1.1//EN"
 "http://www.w3.org/Graphics/SVG/1.1/DTD/svg11.dtd">
<!-- Generated by graphviz version 3.0.0 (20220226.1711)
 -->
<!-- Title: slljit::Tokenizer::get_type_identifier Pages: 1 -->
<svg width="1991pt" height="315pt"
 viewBox="0.00 0.00 1991.00 314.54" xmlns="http://www.w3.org/2000/svg" xmlns:xlink="http://www.w3.org/1999/xlink">
<g id="graph0" class="graph" transform="scale(1 1) rotate(0) translate(4 310.54)">
<title>slljit::Tokenizer::get_type_identifier</title>
<!-- Node1 -->
<g id="node1" class="node">
<title>Node1</title>
<g id="a_node1"><a xlink:title=" ">
<polygon fill="#bfbfbf" stroke="black" points="1888,-249.54 1888,-279.54 1983,-279.54 1983,-249.54 1888,-249.54"/>
<text text-anchor="start" x="1896" y="-267.54" font-family="Helvetica,sans-Serif" font-size="10.00">slljit::Tokenizer::</text>
<text text-anchor="middle" x="1935.5" y="-256.54" font-family="Helvetica,sans-Serif" font-size="10.00">get_type_identifier</text>
</a>
</g>
</g>
<!-- Node2 -->
<g id="node2" class="node">
<title>Node2</title>
<g id="a_node2"><a xlink:href="classslljit_1_1_parser.html#ad51a4352241881b5c6d118db9ccdec46" target="_top" xlink:title=" ">
<polygon fill="none" stroke="black" points="862,-287.04 862,-306.04 1004,-306.04 1004,-287.04 862,-287.04"/>
<text text-anchor="middle" x="933" y="-294.04" font-family="Helvetica,sans-Serif" font-size="10.00">slljit::Parser::ParsePrototype</text>
</a>
</g>
</g>
<!-- Node1&#45;&gt;Node2 -->
<g id="edge1" class="edge">
<title>Node1&#45;&gt;Node2</title>
<path fill="none" stroke="midnightblue" d="M1877.64,-275.42C1813.94,-286.65 1707.47,-302.54 1615,-302.54 1615,-302.54 1615,-302.54 1292,-302.54 1192.08,-302.54 1076.48,-300.17 1004.3,-298.41"/>
<polygon fill="midnightblue" stroke="midnightblue" points="1878.65,-278.79 1887.88,-273.59 1877.42,-271.9 1878.65,-278.79"/>
</g>
<!-- Node11 -->
<g id="node11" class="node">
<title>Node11</title>
<g id="a_node11"><a xlink:href="classslljit_1_1_parser.html#a435877d3f2869d140a7cca646546a114" target="_top" xlink:title="varexpr ::= &#39;g_var&#39; identifier (&#39;=&#39; expression)?">
<polygon fill="none" stroke="black" points="1717,-217.04 1717,-236.04 1852,-236.04 1852,-217.04 1717,-217.04"/>
<text text-anchor="middle" x="1784.5" y="-224.04" font-family="Helvetica,sans-Serif" font-size="10.00">slljit::Parser::ParseVarExpr</text>
</a>
</g>
</g>
<!-- Node1&#45;&gt;Node11 -->
<g id="edge11" class="edge">
<title>Node1&#45;&gt;Node11</title>
<path fill="none" stroke="midnightblue" d="M1878.04,-250.14C1859.67,-245.45 1839.75,-240.37 1823.11,-236.13"/>
<polygon fill="midnightblue" stroke="midnightblue" points="1877.21,-253.54 1887.76,-252.62 1878.94,-246.75 1877.21,-253.54"/>
</g>
<!-- Node3 -->
<g id="node3" class="node">
<title>Node3</title>
<g id="a_node3"><a xlink:href="classslljit_1_1_parser.html#af6e239a609e8a3812838b53f9a8356ce" target="_top" xlink:title="external ::= &#39;extern&#39; prototype">
<polygon fill="none" stroke="black" points="684,-287.04 684,-306.04 812,-306.04 812,-287.04 684,-287.04"/>
<text text-anchor="middle" x="748" y="-294.04" font-family="Helvetica,sans-Serif" font-size="10.00">slljit::Parser::ParseExtern</text>
</a>
</g>
</g>
<!-- Node2&#45;&gt;Node3 -->
<g id="edge2" class="edge">
<title>Node2&#45;&gt;Node3</title>
<path fill="none" stroke="midnightblue" d="M851.72,-296.54C838.47,-296.54 824.91,-296.54 812.15,-296.54"/>
<polygon fill="midnightblue" stroke="midnightblue" points="851.77,-300.04 861.77,-296.54 851.77,-293.04 851.77,-300.04"/>
</g>
<!-- Node9 -->
<g id="node9" class="node">
<title>Node9</title>
<g id="a_node9"><a xlink:href="classslljit_1_1_parser.html#aa9a9ce164e114ad7f347f32329f5a5a2" target="_top" xlink:title="definition ::= &#39;def&#39; prototype expression">
<polygon fill="none" stroke="black" points="690,-237.54 690,-267.54 806,-267.54 806,-237.54 690,-237.54"/>
<text text-anchor="start" x="698" y="-255.54" font-family="Helvetica,sans-Serif" font-size="10.00">slljit::Parser::ParseTop</text>
<text text-anchor="middle" x="748" y="-244.54" font-family="Helvetica,sans-Serif" font-size="10.00">LevelTypedExpression</text>
</a>
</g>
</g>
<!-- Node2&#45;&gt;Node9 -->
<g id="edge8" class="edge">
<title>Node2&#45;&gt;Node9</title>
<path fill="none" stroke="midnightblue" d="M882.53,-284.64C859.02,-278.99 830.78,-272.2 806.34,-266.32"/>
<polygon fill="midnightblue" stroke="midnightblue" points="881.75,-288.05 892.29,-286.99 883.39,-281.25 881.75,-288.05"/>
</g>
<!-- Node4 -->
<g id="node4" class="node">
<title>Node4</title>
<g id="a_node4"><a xlink:href="classslljit_1_1_parser.html#a5ff2f693f00fe32c8ee836e9139cb93e" target="_top" xlink:title=" ">
<polygon fill="none" stroke="black" points="512,-287.04 512,-306.04 645,-306.04 645,-287.04 512,-287.04"/>
<text text-anchor="middle" x="578.5" y="-294.04" font-family="Helvetica,sans-Serif" font-size="10.00">slljit::Parser::HandleExtern</text>
</a>
</g>
</g>
<!-- Node3&#45;&gt;Node4 -->
<g id="edge3" class="edge">
<title>Node3&#45;&gt;Node4</title>
<path fill="none" stroke="midnightblue" d="M673.52,-296.54C664.07,-296.54 654.45,-296.54 645.14,-296.54"/>
<polygon fill="midnightblue" stroke="midnightblue" points="673.68,-300.04 683.68,-296.54 673.68,-293.04 673.68,-300.04"/>
</g>
<!-- Node5 -->
<g id="node5" class="node">
<title>Node5</title>
<g id="a_node5"><a xlink:href="classslljit_1_1_parser.html#ae2d3d6534b87da7f237c19129a464bda" target="_top" xlink:title="top ::= definition | external | expression | &#39;;&#39;">
<polygon fill="none" stroke="black" points="360,-265.04 360,-284.04 476,-284.04 476,-265.04 360,-265.04"/>
<text text-anchor="middle" x="418" y="-272.04" font-family="Helvetica,sans-Serif" font-size="10.00">slljit::Parser::MainLoop</text>
</a>
</g>
</g>
<!-- Node4&#45;&gt;Node5 -->
<g id="edge4" class="edge">
<title>Node4&#45;&gt;Node5</title>
<path fill="none" stroke="midnightblue" d="M501.68,-286.01C493.14,-284.83 484.55,-283.63 476.3,-282.49"/>
<polygon fill="midnightblue" stroke="midnightblue" points="501.27,-289.49 511.66,-287.4 502.23,-282.55 501.27,-289.49"/>
</g>
<!-- Node6 -->
<g id="node6" class="node">
<title>Node6</title>
<g id="a_node6"><a xlink:href="classslljit_1_1_parser.html#a2429935f3c870648f9f895a7b2361cfb" target="_top" xlink:title=" ">
<polygon fill="none" stroke="black" points="226,-265.04 226,-284.04 324,-284.04 324,-265.04 226,-265.04"/>
<text text-anchor="middle" x="275" y="-272.04" font-family="Helvetica,sans-Serif" font-size="10.00">slljit::Parser::parse</text>
</a>
</g>
</g>
<!-- Node5&#45;&gt;Node6 -->
<g id="edge5" class="edge">
<title>Node5&#45;&gt;Node6</title>
<path fill="none" stroke="midnightblue" d="M349.37,-274.54C340.9,-274.54 332.37,-274.54 324.28,-274.54"/>
<polygon fill="midnightblue" stroke="midnightblue" points="349.65,-278.04 359.65,-274.54 349.65,-271.04 349.65,-278.04"/>
</g>
<!-- Node7 -->
<g id="node7" class="node">
<title>Node7</title>
<g id="a_node7"><a xlink:href="classslljit_1_1_program.html#ae4d26526a7dd9c69ebe92fb43736696b" target="_top" xlink:title=" ">
<polygon fill="none" stroke="black" points="74,-265.04 74,-284.04 190,-284.04 190,-265.04 74,-265.04"/>
<text text-anchor="middle" x="132" y="-272.04" font-family="Helvetica,sans-Serif" font-size="10.00">slljit::Program::compile</text>
</a>
</g>
</g>
<!-- Node6&#45;&gt;Node7 -->
<g id="edge6" class="edge">
<title>Node6&#45;&gt;Node7</title>
<path fill="none" stroke="midnightblue" d="M215.72,-274.54C207.27,-274.54 198.58,-274.54 190.16,-274.54"/>
<polygon fill="midnightblue" stroke="midnightblue" points="215.87,-278.04 225.87,-274.54 215.87,-271.04 215.87,-278.04"/>
</g>
<!-- Node8 -->
<g id="node8" class="node">
<title>Node8</title>
<g id="a_node8"><a xlink:href="compiler__cli_8cpp.html#a3c04138a5bfe5d72780bb7e82a18e627" target="_top" xlink:title=" ">
<polygon fill="none" stroke="black" points="0,-265.04 0,-284.04 38,-284.04 38,-265.04 0,-265.04"/>
<text text-anchor="middle" x="19" y="-272.04" font-family="Helvetica,sans-Serif" font-size="10.00">main</text>
</a>
</g>
</g>
<!-- Node7&#45;&gt;Node8 -->
<g id="edge7" class="edge">
<title>Node7&#45;&gt;Node8</title>
<path fill="none" stroke="midnightblue" d="M63.62,-274.54C54.3,-274.54 45.44,-274.54 38.18,-274.54"/>
<polygon fill="midnightblue" stroke="midnightblue" points="63.87,-278.04 73.87,-274.54 63.87,-271.04 63.87,-278.04"/>
</g>
<!-- Node10 -->
<g id="node10" class="node">
<title>Node10</title>
<g id="a_node10"><a xlink:href="classslljit_1_1_parser.html#af0cac4623fc05b8b7ae9884b0aeb3d3f" target="_top" xlink:title=" ">
<polygon fill="none" stroke="black" points="513,-237.54 513,-267.54 644,-267.54 644,-237.54 513,-237.54"/>
<text text-anchor="start" x="521" y="-255.54" font-family="Helvetica,sans-Serif" font-size="10.00">slljit::Parser::HandleTyped</text>
<text text-anchor="middle" x="578.5" y="-244.54" font-family="Helvetica,sans-Serif" font-size="10.00">Expression</text>
</a>
</g>
</g>
<!-- Node9&#45;&gt;Node10 -->
<g id="edge9" class="edge">
<title>Node9&#45;&gt;Node10</title>
<path fill="none" stroke="midnightblue" d="M679.68,-252.54C667.97,-252.54 655.82,-252.54 644.19,-252.54"/>
<polygon fill="midnightblue" stroke="midnightblue" points="679.82,-256.04 689.82,-252.54 679.82,-249.04 679.82,-256.04"/>
</g>
<!-- Node10&#45;&gt;Node5 -->
<g id="edge10" class="edge">
<title>Node10&#45;&gt;Node5</title>
<path fill="none" stroke="midnightblue" d="M502.61,-262.93C493.73,-264.16 484.78,-265.4 476.21,-266.59"/>
<polygon fill="midnightblue" stroke="midnightblue" points="503.15,-266.39 512.57,-261.55 502.19,-259.46 503.15,-266.39"/>
</g>
<!-- Node12 -->
<g id="node12" class="node">
<title>Node12</title>
<g id="a_node12"><a xlink:href="classslljit_1_1_parser.html#a45cb3e4f600e8e2c253490e7d878e8cd" target="_top" xlink:title=" ">
<polygon fill="none" stroke="black" points="1547,-92.04 1547,-111.04 1681,-111.04 1681,-92.04 1547,-92.04"/>
<text text-anchor="middle" x="1614" y="-99.04" font-family="Helvetica,sans-Serif" font-size="10.00">slljit::Parser::ParsePrimary</text>
</a>
</g>
</g>
<!-- Node11&#45;&gt;Node12 -->
<g id="edge12" class="edge">
<title>Node11&#45;&gt;Node12</title>
<path fill="none" stroke="midnightblue" d="M1762.39,-210.87C1727.14,-184.73 1657.32,-132.93 1628.22,-111.34"/>
<polygon fill="midnightblue" stroke="midnightblue" points="1760.44,-213.79 1770.56,-216.93 1764.61,-208.17 1760.44,-213.79"/>
</g>
<!-- Node13 -->
<g id="node13" class="node">
<title>Node13</title>
<g id="a_node13"><a xlink:href="classslljit_1_1_parser.html#af8579896f39ac563d2edd14404d70f41" target="_top" xlink:title=" ">
<polygon fill="none" stroke="black" points="1386,-111.04 1386,-130.04 1511,-130.04 1511,-111.04 1386,-111.04"/>
<text text-anchor="middle" x="1448.5" y="-118.04" font-family="Helvetica,sans-Serif" font-size="10.00">slljit::Parser::ParseUnary</text>
</a>
</g>
</g>
<!-- Node12&#45;&gt;Node13 -->
<g id="edge13" class="edge">
<title>Node12&#45;&gt;Node13</title>
<path fill="none" stroke="midnightblue" d="M1536.86,-110.38C1528.2,-111.39 1519.46,-112.41 1511.02,-113.39"/>
<polygon fill="midnightblue" stroke="midnightblue" points="1537.44,-113.84 1546.97,-109.21 1536.63,-106.89 1537.44,-113.84"/>
</g>
<!-- Node13&#45;&gt;Node13 -->
<g id="edge31" class="edge">
<title>Node13&#45;&gt;Node13</title>
<path fill="none" stroke="midnightblue" d="M1477.25,-139.19C1476.04,-144.47 1466.46,-148.54 1448.5,-148.54 1421.13,-148.54 1413.22,-139.1 1424.76,-130.29"/>
<polygon fill="midnightblue" stroke="midnightblue" points="1480.19,-137.29 1472.24,-130.29 1474.09,-140.72 1480.19,-137.29"/>
</g>
<!-- Node14 -->
<g id="node14" class="node">
<title>Node14</title>
<g id="a_node14"><a xlink:href="classslljit_1_1_parser.html#ae387c9672ec50720d8cb969558aedbe9" target="_top" xlink:title=" ">
<polygon fill="none" stroke="black" points="1236,-149.54 1236,-179.54 1350,-179.54 1350,-149.54 1236,-149.54"/>
<text text-anchor="start" x="1244" y="-167.54" font-family="Helvetica,sans-Serif" font-size="10.00">slljit::Parser::ParseBin</text>
<text text-anchor="middle" x="1293" y="-156.54" font-family="Helvetica,sans-Serif" font-size="10.00">OpRHS</text>
</a>
</g>
</g>
<!-- Node13&#45;&gt;Node14 -->
<g id="edge14" class="edge">
<title>Node13&#45;&gt;Node14</title>
<path fill="none" stroke="midnightblue" d="M1404.55,-132.85C1386.56,-138 1365.47,-144.05 1346.56,-149.47"/>
<polygon fill="midnightblue" stroke="midnightblue" points="1405.54,-136.2 1414.19,-130.08 1403.62,-129.47 1405.54,-136.2"/>
</g>
<!-- Node15 -->
<g id="node15" class="node">
<title>Node15</title>
<g id="a_node15"><a xlink:href="classslljit_1_1_parser.html#a79461bf414d03dcabb49d3bbd6f89607" target="_top" xlink:title=" ">
<polygon fill="none" stroke="black" points="1051,-154.04 1051,-173.04 1200,-173.04 1200,-154.04 1051,-154.04"/>
<text text-anchor="middle" x="1125.5" y="-161.04" font-family="Helvetica,sans-Serif" font-size="10.00">slljit::Parser::ParseExpression</text>
</a>
</g>
</g>
<!-- Node13&#45;&gt;Node15 -->
<g id="edge30" class="edge">
<title>Node13&#45;&gt;Node15</title>
<path fill="none" stroke="midnightblue" d="M1375.53,-124.74C1334.49,-127.7 1282.19,-132.43 1236,-139.54 1211.96,-143.24 1185.29,-149.04 1164.29,-154.02"/>
<polygon fill="midnightblue" stroke="midnightblue" points="1375.98,-128.22 1385.71,-124.02 1375.49,-121.23 1375.98,-128.22"/>
</g>
<!-- Node14&#45;&gt;Node14 -->
<g id="edge15" class="edge">
<title>Node14&#45;&gt;Node14</title>
<path fill="none" stroke="midnightblue" d="M1320.36,-189.99C1316.97,-194.71 1307.85,-198.04 1293,-198.04 1268.64,-198.04 1259.69,-189.09 1266.16,-179.69"/>
<polygon fill="midnightblue" stroke="midnightblue" points="1323.84,-189.5 1319.84,-179.69 1316.85,-189.86 1323.84,-189.5"/>
</g>
<!-- Node14&#45;&gt;Node15 -->
<g id="edge16" class="edge">
<title>Node14&#45;&gt;Node15</title>
<path fill="none" stroke="midnightblue" d="M1225.8,-164.14C1217.34,-164.08 1208.64,-164.03 1200.08,-163.98"/>
<polygon fill="midnightblue" stroke="midnightblue" points="1225.95,-167.64 1235.97,-164.2 1225.99,-160.64 1225.95,-167.64"/>
</g>
<!-- Node15&#45;&gt;Node11 -->
<g id="edge29" class="edge">
<title>Node15&#45;&gt;Node11</title>
<path fill="none" stroke="midnightblue" d="M1154.53,-177.59C1176.18,-187.69 1207.22,-200.54 1236,-206.54 1406.4,-242.03 1612.96,-237 1716.9,-231.24"/>
<polygon fill="midnightblue" stroke="midnightblue" points="1155.81,-174.33 1145.28,-173.18 1152.8,-180.64 1155.81,-174.33"/>
</g>
<!-- Node16 -->
<g id="node16" class="node">
<title>Node16</title>
<g id="a_node16"><a xlink:href="classslljit_1_1_parser.html#acc431005ac3dd38732083d7a1bb0eab2" target="_top" xlink:title=" ">
<polygon fill="none" stroke="black" points="851,-153.04 851,-172.04 1015,-172.04 1015,-153.04 851,-153.04"/>
<text text-anchor="middle" x="933" y="-160.04" font-family="Helvetica,sans-Serif" font-size="10.00">slljit::Parser::ParseExpressionList</text>
</a>
</g>
</g>
<!-- Node15&#45;&gt;Node16 -->
<g id="edge17" class="edge">
<title>Node15&#45;&gt;Node16</title>
<path fill="none" stroke="midnightblue" d="M1040.58,-163.09C1032.1,-163.05 1023.5,-163 1015.05,-162.96"/>
<polygon fill="midnightblue" stroke="midnightblue" points="1040.83,-166.6 1050.85,-163.15 1040.87,-159.6 1040.83,-166.6"/>
</g>
<!-- Node17 -->
<g id="node17" class="node">
<title>Node17</title>
<g id="a_node17"><a xlink:href="classslljit_1_1_parser.html#a81023e7a6221eb6b92027bd21433c9dd" target="_top" xlink:title="forexpr ::= &#39;for&#39; identifier &#39;=&#39; expr &#39;,&#39; expr (&#39;,&#39; expr)? &#39;in&#39; expression">
<polygon fill="none" stroke="black" points="681,-115.04 681,-134.04 815,-134.04 815,-115.04 681,-115.04"/>
<text text-anchor="middle" x="748" y="-122.04" font-family="Helvetica,sans-Serif" font-size="10.00">slljit::Parser::ParseForExpr</text>
</a>
</g>
</g>
<!-- Node15&#45;&gt;Node17 -->
<g id="edge23" class="edge">
<title>Node15&#45;&gt;Node17</title>
<path fill="none" stroke="midnightblue" d="M1068.72,-152.13C1051.55,-148.95 1032.55,-145.76 1015,-143.54 947.14,-134.94 869,-129.94 815.06,-127.24"/>
<polygon fill="midnightblue" stroke="midnightblue" points="1068.11,-155.58 1078.59,-153.99 1069.41,-148.7 1068.11,-155.58"/>
</g>
<!-- Node18 -->
<g id="node18" class="node">
<title>Node18</title>
<g id="a_node18"><a xlink:href="classslljit_1_1_parser.html#a149f5e88cb03aa08c388e6320c6c1bac" target="_top" xlink:title="ifexpr ::= &#39;if&#39; expression &#39;then&#39; expression &#39;else&#39; expression">
<polygon fill="none" stroke="black" points="685.5,-153.04 685.5,-172.04 810.5,-172.04 810.5,-153.04 685.5,-153.04"/>
<text text-anchor="middle" x="748" y="-160.04" font-family="Helvetica,sans-Serif" font-size="10.00">slljit::Parser::ParseIfExpr</text>
</a>
</g>
</g>
<!-- Node15&#45;&gt;Node18 -->
<g id="edge26" class="edge">
<title>Node15&#45;&gt;Node18</title>
<path fill="none" stroke="midnightblue" d="M1066.86,-174.82C1050.2,-177.59 1031.93,-180.15 1015,-181.54 942.35,-187.47 923.58,-188.24 851,-181.54 830.91,-179.68 808.88,-175.81 790.44,-172.05"/>
<polygon fill="midnightblue" stroke="midnightblue" points="1067.74,-178.22 1077.01,-173.07 1066.56,-171.32 1067.74,-178.22"/>
</g>
<!-- Node19 -->
<g id="node19" class="node">
<title>Node19</title>
<g id="a_node19"><a xlink:href="classslljit_1_1_parser.html#a25cfefcbeea85744e23370d3a6f8ad5b" target="_top" xlink:title=" ">
<polygon fill="none" stroke="black" points="855,-242.04 855,-261.04 1011,-261.04 1011,-242.04 855,-242.04"/>
<text text-anchor="middle" x="933" y="-249.04" font-family="Helvetica,sans-Serif" font-size="10.00">slljit::Parser::ParseIdentifierExpr</text>
</a>
</g>
</g>
<!-- Node15&#45;&gt;Node19 -->
<g id="edge24" class="edge">
<title>Node15&#45;&gt;Node19</title>
<path fill="none" stroke="midnightblue" d="M1094.78,-177.45C1072.77,-187.74 1042.04,-202.06 1015,-214.54 994.64,-223.92 971.36,-234.55 955,-241.99"/>
<polygon fill="midnightblue" stroke="midnightblue" points="1096.36,-180.57 1103.94,-173.17 1093.39,-174.23 1096.36,-180.57"/>
</g>
<!-- Node20 -->
<g id="node20" class="node">
<title>Node20</title>
<g id="a_node20"><a xlink:href="classslljit_1_1_parser.html#a6e2e0f6a2cc445f3a956db59c8d2da66" target="_top" xlink:title="parenexpr ::= &#39;(&#39; expression &#39;)&#39;">
<polygon fill="none" stroke="black" points="860,-74.04 860,-93.04 1006,-93.04 1006,-74.04 860,-74.04"/>
<text text-anchor="middle" x="933" y="-81.04" font-family="Helvetica,sans-Serif" font-size="10.00">slljit::Parser::ParseParenExpr</text>
</a>
</g>
</g>
<!-- Node15&#45;&gt;Node20 -->
<g id="edge27" class="edge">
<title>Node15&#45;&gt;Node20</title>
<path fill="none" stroke="midnightblue" d="M1097.59,-149.3C1075.69,-138.02 1043.8,-122.25 1015,-110.54 999.07,-104.06 980.95,-97.91 965.89,-93.12"/>
<polygon fill="midnightblue" stroke="midnightblue" points="1096.12,-152.49 1106.61,-153.99 1099.35,-146.27 1096.12,-152.49"/>
</g>
<!-- Node16&#45;&gt;Node9 -->
<g id="edge22" class="edge">
<title>Node16&#45;&gt;Node9</title>
<path fill="none" stroke="midnightblue" d="M903.12,-176.74C869.46,-193.29 814.07,-220.53 779.66,-237.46"/>
<polygon fill="midnightblue" stroke="midnightblue" points="904.99,-179.72 912.42,-172.17 901.9,-173.44 904.99,-179.72"/>
</g>
<!-- Node16&#45;&gt;Node17 -->
<g id="edge18" class="edge">
<title>Node16&#45;&gt;Node17</title>
<path fill="none" stroke="midnightblue" d="M875.75,-150.85C849.79,-145.47 819.38,-139.15 794.85,-134.06"/>
<polygon fill="midnightblue" stroke="midnightblue" points="875.32,-154.34 885.82,-152.95 876.74,-147.49 875.32,-154.34"/>
</g>
<!-- Node16&#45;&gt;Node18 -->
<g id="edge20" class="edge">
<title>Node16&#45;&gt;Node18</title>
<path fill="none" stroke="midnightblue" d="M840.79,-162.54C830.62,-162.54 820.44,-162.54 810.77,-162.54"/>
<polygon fill="midnightblue" stroke="midnightblue" points="840.93,-166.04 850.93,-162.54 840.93,-159.04 840.93,-166.04"/>
</g>
<!-- Node17&#45;&gt;Node12 -->
<g id="edge19" class="edge">
<title>Node17&#45;&gt;Node12</title>
<path fill="none" stroke="midnightblue" d="M761.92,-106.96C779.36,-84.77 812.69,-47.46 851,-30.54 962.61,18.78 1002.48,-6.54 1124.5,-6.54 1294,-6.54 1294,-6.54 1294,-6.54 1391.03,-6.54 1420.16,3.57 1511,-30.54 1548.77,-44.72 1585.79,-76.06 1603,-91.93"/>
<polygon fill="midnightblue" stroke="midnightblue" points="759.13,-104.84 755.84,-114.91 764.69,-109.09 759.13,-104.84"/>
</g>
<!-- Node18&#45;&gt;Node12 -->
<g id="edge21" class="edge">
<title>Node18&#45;&gt;Node12</title>
<path fill="none" stroke="midnightblue" d="M808.68,-148.2C810.91,-146.79 813.02,-145.24 815,-143.54 844.22,-118.33 819.33,-86.58 851,-64.54 901.02,-29.72 1063.56,-44.54 1124.5,-44.54 1294,-44.54 1294,-44.54 1294,-44.54 1400.61,-44.54 1524.18,-75.77 1581.19,-91.99"/>
<polygon fill="midnightblue" stroke="midnightblue" points="806.85,-145.21 799.66,-152.99 810.13,-151.39 806.85,-145.21"/>
</g>
<!-- Node19&#45;&gt;Node12 -->
<g id="edge25" class="edge">
<title>Node19&#45;&gt;Node12</title>
<path fill="none" stroke="midnightblue" d="M1021.64,-249.97C1137.86,-245.1 1347.35,-226.49 1511,-157.54 1543.21,-143.97 1578.47,-123.16 1597.94,-111.1"/>
<polygon fill="midnightblue" stroke="midnightblue" points="1021.23,-246.48 1011.38,-250.37 1021.51,-253.48 1021.23,-246.48"/>
</g>
<!-- Node20&#45;&gt;Node12 -->
<g id="edge28" class="edge">
<title>Node20&#45;&gt;Node12</title>
<path fill="none" stroke="midnightblue" d="M1016.42,-85.72C1152.7,-89.33 1422.33,-96.48 1546.97,-99.78"/>
<polygon fill="midnightblue" stroke="midnightblue" points="1016.13,-82.21 1006.04,-85.44 1015.94,-89.21 1016.13,-82.21"/>
</g>
</g>
</svg>
