<?xml version="1.0" encoding="UTF-8" standalone="no"?>
<!DOCTYPE svg PUBLIC "-//W3C//DTD SVG 1.1//EN"
 "http://www.w3.org/Graphics/SVG/1.1/DTD/svg11.dtd">
<!-- Generated by graphviz version 3.0.0 (20220226.1711)
 -->
<!-- Title: slljit::ReturnExprAST Pages: 1 -->
<svg width="194pt" height="173pt"
 viewBox="0.00 0.00 193.50 173.00" xmlns="http://www.w3.org/2000/svg" xmlns:xlink="http://www.w3.org/1999/xlink">
<g id="graph0" class="graph" transform="scale(1 1) rotate(0) translate(4 169)">
<title>slljit::ReturnExprAST</title>
<!-- Node1 -->
<g id="node1" class="node">
<title>Node1</title>
<g id="a_node1"><a xlink:title="Expression class for a unary operator.">
<polygon fill="#bfbfbf" stroke="black" points="37,-0.5 37,-19.5 144,-19.5 144,-0.5 37,-0.5"/>
<text text-anchor="middle" x="90.5" y="-7.5" font-family="Helvetica,sans-Serif" font-size="10.00">slljit::ReturnExprAST</text>
</a>
</g>
</g>
<!-- Node2 -->
<g id="node2" class="node">
<title>Node2</title>
<g id="a_node2"><a xlink:href="classslljit_1_1_expr_a_s_t.html" target="_top" xlink:title="Base class for all expression nodes.">
<polygon fill="none" stroke="black" points="0,-73 0,-92 79,-92 79,-73 0,-73"/>
<text text-anchor="middle" x="39.5" y="-80" font-family="Helvetica,sans-Serif" font-size="10.00">slljit::ExprAST</text>
</a>
</g>
</g>
<!-- Node2&#45;&gt;Node1 -->
<g id="edge1" class="edge">
<title>Node2&#45;&gt;Node1</title>
<path fill="none" stroke="midnightblue" d="M51.8,-64.5C62.02,-50.37 76.14,-30.85 84.2,-19.72"/>
<polygon fill="midnightblue" stroke="midnightblue" points="48.78,-62.7 45.75,-72.86 54.45,-66.8 48.78,-62.7"/>
</g>
<!-- Node3 -->
<g id="node3" class="node">
<title>Node3</title>
<g id="a_node3"><a xlink:title=" ">
<polygon fill="none" stroke="black" points="16,-145.5 16,-164.5 63,-164.5 63,-145.5 16,-145.5"/>
<text text-anchor="middle" x="39.5" y="-152.5" font-family="Helvetica,sans-Serif" font-size="10.00">TypeID</text>
</a>
</g>
</g>
<!-- Node3&#45;&gt;Node2 -->
<g id="edge2" class="edge">
<title>Node3&#45;&gt;Node2</title>
<path fill="none" stroke="#9a32cd" stroke-dasharray="5,2" d="M39.5,-134.94C39.5,-121.03 39.5,-102.82 39.5,-92.22"/>
<polygon fill="#9a32cd" stroke="#9a32cd" points="36,-135.36 39.5,-145.36 43,-135.36 36,-135.36"/>
<text text-anchor="middle" x="53.5" y="-119" font-family="Helvetica,sans-Serif" font-size="10.00"> type_</text>
</g>
<!-- Node4 -->
<g id="node4" class="node">
<title>Node4</title>
<g id="a_node4"><a xlink:title=" ">
<polygon fill="none" stroke="black" points="97.5,-67.5 97.5,-97.5 185.5,-97.5 185.5,-67.5 97.5,-67.5"/>
<text text-anchor="start" x="105.5" y="-85.5" font-family="Helvetica,sans-Serif" font-size="10.00">unique_ptr&lt; slljit</text>
<text text-anchor="middle" x="141.5" y="-74.5" font-family="Helvetica,sans-Serif" font-size="10.00">::ExprAST &gt;</text>
</a>
</g>
</g>
<!-- Node4&#45;&gt;Node1 -->
<g id="edge3" class="edge">
<title>Node4&#45;&gt;Node1</title>
<path fill="none" stroke="#9a32cd" stroke-dasharray="5,2" d="M125.23,-59.01C115.62,-45.73 104,-29.66 96.93,-19.89"/>
<polygon fill="#9a32cd" stroke="#9a32cd" points="122.48,-61.18 131.18,-67.23 128.15,-57.08 122.48,-61.18"/>
<text text-anchor="middle" x="137.5" y="-41" font-family="Helvetica,sans-Serif" font-size="10.00"> Operand</text>
</g>
</g>
</svg>
