<?xml version="1.0" encoding="UTF-8" standalone="no"?>
<!DOCTYPE svg PUBLIC "-//W3C//DTD SVG 1.1//EN"
 "http://www.w3.org/Graphics/SVG/1.1/DTD/svg11.dtd">
<!-- Generated by graphviz version 3.0.0 (20220226.1711)
 -->
<!-- Title: slljit::BinaryExprAST Pages: 1 -->
<svg width="247pt" height="184pt"
 viewBox="0.00 0.00 246.50 184.00" xmlns="http://www.w3.org/2000/svg" xmlns:xlink="http://www.w3.org/1999/xlink">
<g id="graph0" class="graph" transform="scale(1 1) rotate(0) translate(4 180)">
<title>slljit::BinaryExprAST</title>
<!-- Node1 -->
<g id="node1" class="node">
<title>Node1</title>
<g id="a_node1"><a xlink:title="Expression class for a binary operator.">
<polygon fill="#bfbfbf" stroke="black" points="61,-0.5 61,-19.5 168,-19.5 168,-0.5 61,-0.5"/>
<text text-anchor="middle" x="114.5" y="-7.5" font-family="Helvetica,sans-Serif" font-size="10.00">slljit::BinaryExprAST</text>
</a>
</g>
</g>
<!-- Node2 -->
<g id="node2" class="node">
<title>Node2</title>
<g id="a_node2"><a xlink:href="classslljit_1_1_expr_a_s_t.html" target="_top" xlink:title="Base class for all expression nodes.">
<polygon fill="none" stroke="black" points="0,-84 0,-103 79,-103 79,-84 0,-84"/>
<text text-anchor="middle" x="39.5" y="-91" font-family="Helvetica,sans-Serif" font-size="10.00">slljit::ExprAST</text>
</a>
</g>
</g>
<!-- Node2&#45;&gt;Node1 -->
<g id="edge1" class="edge">
<title>Node2&#45;&gt;Node1</title>
<path fill="none" stroke="midnightblue" d="M54.46,-76.24C70.14,-59.21 94.16,-33.1 106.53,-19.66"/>
<polygon fill="midnightblue" stroke="midnightblue" points="51.72,-74.05 47.53,-83.78 56.87,-78.79 51.72,-74.05"/>
</g>
<!-- Node3 -->
<g id="node3" class="node">
<title>Node3</title>
<g id="a_node3"><a xlink:title=" ">
<polygon fill="none" stroke="black" points="16,-156.5 16,-175.5 63,-175.5 63,-156.5 16,-156.5"/>
<text text-anchor="middle" x="39.5" y="-163.5" font-family="Helvetica,sans-Serif" font-size="10.00">TypeID</text>
</a>
</g>
</g>
<!-- Node3&#45;&gt;Node2 -->
<g id="edge2" class="edge">
<title>Node3&#45;&gt;Node2</title>
<path fill="none" stroke="#9a32cd" stroke-dasharray="5,2" d="M39.5,-145.94C39.5,-132.03 39.5,-113.82 39.5,-103.22"/>
<polygon fill="#9a32cd" stroke="#9a32cd" points="36,-146.36 39.5,-156.36 43,-146.36 36,-146.36"/>
<text text-anchor="middle" x="53.5" y="-130" font-family="Helvetica,sans-Serif" font-size="10.00"> type_</text>
</g>
<!-- Node4 -->
<g id="node4" class="node">
<title>Node4</title>
<g id="a_node4"><a xlink:title=" ">
<polygon fill="none" stroke="black" points="97,-84 97,-103 132,-103 132,-84 97,-84"/>
<text text-anchor="middle" x="114.5" y="-91" font-family="Helvetica,sans-Serif" font-size="10.00">char</text>
</a>
</g>
</g>
<!-- Node4&#45;&gt;Node1 -->
<g id="edge3" class="edge">
<title>Node4&#45;&gt;Node1</title>
<path fill="none" stroke="#9a32cd" stroke-dasharray="5,2" d="M114.5,-73.38C114.5,-56.4 114.5,-32.37 114.5,-19.66"/>
<polygon fill="#9a32cd" stroke="#9a32cd" points="111,-73.78 114.5,-83.78 118,-73.78 111,-73.78"/>
<text text-anchor="middle" x="122.5" y="-46.5" font-family="Helvetica,sans-Serif" font-size="10.00"> Op</text>
</g>
<!-- Node5 -->
<g id="node5" class="node">
<title>Node5</title>
<g id="a_node5"><a xlink:title=" ">
<polygon fill="none" stroke="black" points="150.5,-78.5 150.5,-108.5 238.5,-108.5 238.5,-78.5 150.5,-78.5"/>
<text text-anchor="start" x="158.5" y="-96.5" font-family="Helvetica,sans-Serif" font-size="10.00">unique_ptr&lt; slljit</text>
<text text-anchor="middle" x="194.5" y="-85.5" font-family="Helvetica,sans-Serif" font-size="10.00">::ExprAST &gt;</text>
</a>
</g>
</g>
<!-- Node5&#45;&gt;Node1 -->
<g id="edge4" class="edge">
<title>Node5&#45;&gt;Node1</title>
<path fill="none" stroke="#9a32cd" stroke-dasharray="5,2" d="M173.42,-71.03C156.89,-54.19 134.76,-31.64 122.88,-19.54"/>
<polygon fill="#9a32cd" stroke="#9a32cd" points="171.06,-73.62 180.57,-78.3 176.06,-68.72 171.06,-73.62"/>
<text text-anchor="middle" x="172.5" y="-52" font-family="Helvetica,sans-Serif" font-size="10.00"> LHS</text>
<text text-anchor="middle" x="172.5" y="-41" font-family="Helvetica,sans-Serif" font-size="10.00">RHS</text>
</g>
</g>
</svg>
