<?xml version="1.0" encoding="UTF-8" standalone="no"?>
<!DOCTYPE svg PUBLIC "-//W3C//DTD SVG 1.1//EN"
 "http://www.w3.org/Graphics/SVG/1.1/DTD/svg11.dtd">
<!-- Generated by graphviz version 3.0.0 (20220226.1711)
 -->
<!-- Title: slljit::NumberExprAST Pages: 1 -->
<svg width="371pt" height="162pt"
 viewBox="0.00 0.00 371.00 162.00" xmlns="http://www.w3.org/2000/svg" xmlns:xlink="http://www.w3.org/1999/xlink">
<g id="graph0" class="graph" transform="scale(1 1) rotate(0) translate(4 158)">
<title>slljit::NumberExprAST</title>
<!-- Node1 -->
<g id="node1" class="node">
<title>Node1</title>
<g id="a_node1"><a xlink:title="Expression class for numeric literals like &quot;1.0&quot;.">
<polygon fill="#bfbfbf" stroke="black" points="116,-0.5 116,-19.5 229,-19.5 229,-0.5 116,-0.5"/>
<text text-anchor="middle" x="172.5" y="-7.5" font-family="Helvetica,sans-Serif" font-size="10.00">slljit::NumberExprAST</text>
</a>
</g>
</g>
<!-- Node2 -->
<g id="node2" class="node">
<title>Node2</title>
<g id="a_node2"><a xlink:href="classslljit_1_1_expr_a_s_t.html" target="_top" xlink:title="Base class for all expression nodes.">
<polygon fill="none" stroke="black" points="0,-67.5 0,-86.5 79,-86.5 79,-67.5 0,-67.5"/>
<text text-anchor="middle" x="39.5" y="-74.5" font-family="Helvetica,sans-Serif" font-size="10.00">slljit::ExprAST</text>
</a>
</g>
</g>
<!-- Node2&#45;&gt;Node1 -->
<g id="edge1" class="edge">
<title>Node2&#45;&gt;Node1</title>
<path fill="none" stroke="midnightblue" d="M66.22,-62.94C92.56,-50.07 132.07,-30.76 154.77,-19.67"/>
<polygon fill="midnightblue" stroke="midnightblue" points="64.61,-59.83 57.16,-67.37 67.68,-66.12 64.61,-59.83"/>
</g>
<!-- Node3 -->
<g id="node3" class="node">
<title>Node3</title>
<g id="a_node3"><a xlink:title=" ">
<polygon fill="none" stroke="black" points="16,-134.5 16,-153.5 63,-153.5 63,-134.5 16,-134.5"/>
<text text-anchor="middle" x="39.5" y="-141.5" font-family="Helvetica,sans-Serif" font-size="10.00">TypeID</text>
</a>
</g>
</g>
<!-- Node3&#45;&gt;Node2 -->
<g id="edge2" class="edge">
<title>Node3&#45;&gt;Node2</title>
<path fill="none" stroke="#9a32cd" stroke-dasharray="5,2" d="M39.5,-124.04C39.5,-111.67 39.5,-96.12 39.5,-86.63"/>
<polygon fill="#9a32cd" stroke="#9a32cd" points="36,-124.23 39.5,-134.23 43,-124.23 36,-124.23"/>
<text text-anchor="middle" x="53.5" y="-108" font-family="Helvetica,sans-Serif" font-size="10.00"> type_</text>
</g>
<!-- Node4 -->
<g id="node4" class="node">
<title>Node4</title>
<g id="a_node4"><a xlink:title=" ">
<polygon fill="none" stroke="black" points="97,-67.5 97,-86.5 132,-86.5 132,-67.5 97,-67.5"/>
<text text-anchor="middle" x="114.5" y="-74.5" font-family="Helvetica,sans-Serif" font-size="10.00">bool</text>
</a>
</g>
</g>
<!-- Node4&#45;&gt;Node1 -->
<g id="edge3" class="edge">
<title>Node4&#45;&gt;Node1</title>
<path fill="none" stroke="#9a32cd" stroke-dasharray="5,2" d="M126.63,-58.84C131.62,-52.13 137.6,-44.51 143.5,-38 149.41,-31.48 156.66,-24.73 162.44,-19.61"/>
<polygon fill="#9a32cd" stroke="#9a32cd" points="123.59,-57.07 120.55,-67.22 129.26,-61.18 123.59,-57.07"/>
<text text-anchor="middle" x="156" y="-41" font-family="Helvetica,sans-Serif" font-size="10.00"> ValB</text>
</g>
<!-- Node5 -->
<g id="node5" class="node">
<title>Node5</title>
<g id="a_node5"><a xlink:title=" ">
<polygon fill="none" stroke="black" points="150,-67.5 150,-86.5 195,-86.5 195,-67.5 150,-67.5"/>
<text text-anchor="middle" x="172.5" y="-74.5" font-family="Helvetica,sans-Serif" font-size="10.00">double</text>
</a>
</g>
</g>
<!-- Node5&#45;&gt;Node1 -->
<g id="edge4" class="edge">
<title>Node5&#45;&gt;Node1</title>
<path fill="none" stroke="#9a32cd" stroke-dasharray="5,2" d="M172.5,-57.04C172.5,-44.67 172.5,-29.12 172.5,-19.63"/>
<polygon fill="#9a32cd" stroke="#9a32cd" points="169,-57.23 172.5,-67.23 176,-57.23 169,-57.23"/>
<text text-anchor="middle" x="185" y="-41" font-family="Helvetica,sans-Serif" font-size="10.00"> ValD</text>
</g>
<!-- Node6 -->
<g id="node6" class="node">
<title>Node6</title>
<g id="a_node6"><a xlink:title=" ">
<polygon fill="none" stroke="black" points="213.5,-67.5 213.5,-86.5 259.5,-86.5 259.5,-67.5 213.5,-67.5"/>
<text text-anchor="middle" x="236.5" y="-74.5" font-family="Helvetica,sans-Serif" font-size="10.00">int64_t</text>
</a>
</g>
</g>
<!-- Node6&#45;&gt;Node1 -->
<g id="edge5" class="edge">
<title>Node6&#45;&gt;Node1</title>
<path fill="none" stroke="#9a32cd" stroke-dasharray="5,2" d="M221.83,-59.52C215.67,-52.75 208.35,-44.89 201.5,-38 195.19,-31.66 187.81,-24.8 182.08,-19.58"/>
<polygon fill="#9a32cd" stroke="#9a32cd" points="219.61,-62.28 228.9,-67.37 224.81,-57.6 219.61,-62.28"/>
<text text-anchor="middle" x="229" y="-41" font-family="Helvetica,sans-Serif" font-size="10.00"> ValSI64</text>
</g>
<!-- Node7 -->
<g id="node7" class="node">
<title>Node7</title>
<g id="a_node7"><a xlink:title=" ">
<polygon fill="none" stroke="black" points="278,-67.5 278,-86.5 363,-86.5 363,-67.5 278,-67.5"/>
<text text-anchor="middle" x="320.5" y="-74.5" font-family="Helvetica,sans-Serif" font-size="10.00">anonymous:@1</text>
</a>
</g>
</g>
<!-- Node7&#45;&gt;Node1 -->
<g id="edge6" class="edge">
<title>Node7&#45;&gt;Node1</title>
<path fill="none" stroke="#9a32cd" stroke-dasharray="5,2" d="M297.74,-62.15C284.53,-54.45 267.4,-45.03 251.5,-38 235.33,-30.85 216.63,-24.38 201.48,-19.57"/>
<polygon fill="#9a32cd" stroke="#9a32cd" points="296.21,-65.31 306.59,-67.4 299.77,-59.29 296.21,-65.31"/>
<text text-anchor="middle" x="282" y="-41" font-family="Helvetica,sans-Serif" font-size="10.00"> @1</text>
</g>
</g>
</svg>
