<?xml version="1.0" encoding="UTF-8" standalone="no"?>
<!DOCTYPE svg PUBLIC "-//W3C//DTD SVG 1.1//EN"
 "http://www.w3.org/Graphics/SVG/1.1/DTD/svg11.dtd">
<!-- Generated by graphviz version 3.0.0 (20220226.1711)
 -->
<!-- Title: slljit::Context::Context Pages: 1 -->
<svg width="246pt" height="78pt"
 viewBox="0.00 0.00 246.00 77.50" xmlns="http://www.w3.org/2000/svg" xmlns:xlink="http://www.w3.org/1999/xlink">
<g id="graph0" class="graph" transform="scale(1 1) rotate(0) translate(4 73.5)">
<title>slljit::Context::Context</title>
<!-- Node1 -->
<g id="node1" class="node">
<title>Node1</title>
<g id="a_node1"><a xlink:title=" ">
<polygon fill="#bfbfbf" stroke="black" points="0,-22.5 0,-41.5 113,-41.5 113,-22.5 0,-22.5"/>
<text text-anchor="middle" x="56.5" y="-29.5" font-family="Helvetica,sans-Serif" font-size="10.00">slljit::Context::Context</text>
</a>
</g>
</g>
<!-- Node2 -->
<g id="node2" class="node">
<title>Node2</title>
<g id="a_node2"><a xlink:href="classslljit_1_1_shader_j_i_t.html#ac08c4f5651142777c7a814c86fba9c2a" target="_top" xlink:title=" ">
<polygon fill="none" stroke="black" points="149,-39 149,-69 238,-69 238,-39 149,-39"/>
<text text-anchor="start" x="157" y="-57" font-family="Helvetica,sans-Serif" font-size="10.00">slljit::ShaderJIT::</text>
<text text-anchor="middle" x="193.5" y="-46" font-family="Helvetica,sans-Serif" font-size="10.00">Create</text>
</a>
</g>
</g>
<!-- Node1&#45;&gt;Node2 -->
<g id="edge1" class="edge">
<title>Node1&#45;&gt;Node2</title>
<path fill="none" stroke="midnightblue" d="M113.19,-41.08C121.66,-42.46 130.38,-43.88 138.81,-45.25"/>
<polygon fill="midnightblue" stroke="midnightblue" points="138.46,-48.74 148.9,-46.89 139.59,-41.83 138.46,-48.74"/>
</g>
<!-- Node3 -->
<g id="node3" class="node">
<title>Node3</title>
<g id="a_node3"><a xlink:href="namespaceslljit.html#a3f1c84d03b820ce4584b6983222ff898" target="_top" xlink:title=" ">
<polygon fill="none" stroke="black" points="162,-0.5 162,-19.5 225,-19.5 225,-0.5 162,-0.5"/>
<text text-anchor="middle" x="193.5" y="-7.5" font-family="Helvetica,sans-Serif" font-size="10.00">slljit::init__</text>
</a>
</g>
</g>
<!-- Node1&#45;&gt;Node3 -->
<g id="edge2" class="edge">
<title>Node1&#45;&gt;Node3</title>
<path fill="none" stroke="midnightblue" d="M113.19,-22.92C126,-20.84 139.39,-18.65 151.45,-16.69"/>
<polygon fill="midnightblue" stroke="midnightblue" points="152.34,-20.09 161.65,-15.03 151.22,-13.18 152.34,-20.09"/>
</g>
</g>
</svg>
