<?xml version="1.0" encoding="UTF-8" standalone="no"?>
<!DOCTYPE svg PUBLIC "-//W3C//DTD SVG 1.1//EN"
 "http://www.w3.org/Graphics/SVG/1.1/DTD/svg11.dtd">
<!-- Generated by graphviz version 3.0.0 (20220226.1711)
 -->
<!-- Title: slljit::Parser::ParseExpressionList Pages: 1 -->
<svg width="1200pt" height="402pt"
 viewBox="0.00 0.00 1200.00 401.50" xmlns="http://www.w3.org/2000/svg" xmlns:xlink="http://www.w3.org/1999/xlink">
<g id="graph0" class="graph" transform="scale(1 1) rotate(0) translate(4 397.5)">
<title>slljit::Parser::ParseExpressionList</title>
<!-- Node1 -->
<g id="node1" class="node">
<title>Node1</title>
<g id="a_node1"><a xlink:title=" ">
<polygon fill="#bfbfbf" stroke="black" points="1028,-129 1028,-148 1192,-148 1192,-129 1028,-129"/>
<text text-anchor="middle" x="1110" y="-136" font-family="Helvetica,sans-Serif" font-size="10.00">slljit::Parser::ParseExpressionList</text>
</a>
</g>
</g>
<!-- Node2 -->
<g id="node2" class="node">
<title>Node2</title>
<g id="a_node2"><a xlink:href="classslljit_1_1_parser.html#a81023e7a6221eb6b92027bd21433c9dd" target="_top" xlink:title="forexpr ::= &#39;for&#39; identifier &#39;=&#39; expr &#39;,&#39; expr (&#39;,&#39; expr)? &#39;in&#39; expression">
<polygon fill="none" stroke="black" points="858,-186 858,-205 992,-205 992,-186 858,-186"/>
<text text-anchor="middle" x="925" y="-193" font-family="Helvetica,sans-Serif" font-size="10.00">slljit::Parser::ParseForExpr</text>
</a>
</g>
</g>
<!-- Node1&#45;&gt;Node2 -->
<g id="edge1" class="edge">
<title>Node1&#45;&gt;Node2</title>
<path fill="none" stroke="midnightblue" d="M1068.8,-151.02C1035.04,-161.54 987.51,-176.34 956.73,-185.93"/>
<polygon fill="midnightblue" stroke="midnightblue" points="1069.86,-154.36 1078.37,-148.04 1067.78,-147.67 1069.86,-154.36"/>
</g>
<!-- Node8 -->
<g id="node8" class="node">
<title>Node8</title>
<g id="a_node8"><a xlink:href="classslljit_1_1_parser.html#a149f5e88cb03aa08c388e6320c6c1bac" target="_top" xlink:title="ifexpr ::= &#39;if&#39; expression &#39;then&#39; expression &#39;else&#39; expression">
<polygon fill="none" stroke="black" points="15.5,-88 15.5,-107 140.5,-107 140.5,-88 15.5,-88"/>
<text text-anchor="middle" x="78" y="-95" font-family="Helvetica,sans-Serif" font-size="10.00">slljit::Parser::ParseIfExpr</text>
</a>
</g>
</g>
<!-- Node1&#45;&gt;Node8 -->
<g id="edge19" class="edge">
<title>Node1&#45;&gt;Node8</title>
<path fill="none" stroke="midnightblue" d="M1074.43,-125.43C1011.87,-102.98 875.28,-59.5 756,-59.5 756,-59.5 756,-59.5 433,-59.5 326.53,-59.5 203.07,-76.7 133.69,-87.96"/>
<polygon fill="midnightblue" stroke="midnightblue" points="1073.58,-128.84 1084.17,-128.97 1075.97,-122.27 1073.58,-128.84"/>
</g>
<!-- Node11 -->
<g id="node11" class="node">
<title>Node11</title>
<g id="a_node11"><a xlink:href="classslljit_1_1_parser.html#aa9a9ce164e114ad7f347f32329f5a5a2" target="_top" xlink:title="definition ::= &#39;def&#39; prototype expression">
<polygon fill="none" stroke="black" points="867,-0.5 867,-30.5 983,-30.5 983,-0.5 867,-0.5"/>
<text text-anchor="start" x="875" y="-18.5" font-family="Helvetica,sans-Serif" font-size="10.00">slljit::Parser::ParseTop</text>
<text text-anchor="middle" x="925" y="-7.5" font-family="Helvetica,sans-Serif" font-size="10.00">LevelTypedExpression</text>
</a>
</g>
</g>
<!-- Node1&#45;&gt;Node11 -->
<g id="edge20" class="edge">
<title>Node1&#45;&gt;Node11</title>
<path fill="none" stroke="midnightblue" d="M1091.1,-121.95C1068.99,-102.08 1029.68,-68.56 992,-45.5 983.09,-40.05 973.02,-34.98 963.48,-30.61"/>
<polygon fill="midnightblue" stroke="midnightblue" points="1088.93,-124.71 1098.69,-128.84 1093.64,-119.53 1088.93,-124.71"/>
</g>
<!-- Node3 -->
<g id="node3" class="node">
<title>Node3</title>
<g id="a_node3"><a xlink:href="classslljit_1_1_parser.html#a45cb3e4f600e8e2c253490e7d878e8cd" target="_top" xlink:title=" ">
<polygon fill="none" stroke="black" points="688,-186 688,-205 822,-205 822,-186 688,-186"/>
<text text-anchor="middle" x="755" y="-193" font-family="Helvetica,sans-Serif" font-size="10.00">slljit::Parser::ParsePrimary</text>
</a>
</g>
</g>
<!-- Node2&#45;&gt;Node3 -->
<g id="edge2" class="edge">
<title>Node2&#45;&gt;Node3</title>
<path fill="none" stroke="midnightblue" d="M847.41,-195.5C838.99,-195.5 830.47,-195.5 822.19,-195.5"/>
<polygon fill="midnightblue" stroke="midnightblue" points="847.6,-199 857.6,-195.5 847.6,-192 847.6,-199"/>
</g>
<!-- Node4 -->
<g id="node4" class="node">
<title>Node4</title>
<g id="a_node4"><a xlink:href="classslljit_1_1_parser.html#af8579896f39ac563d2edd14404d70f41" target="_top" xlink:title=" ">
<polygon fill="none" stroke="black" points="527,-186 527,-205 652,-205 652,-186 527,-186"/>
<text text-anchor="middle" x="589.5" y="-193" font-family="Helvetica,sans-Serif" font-size="10.00">slljit::Parser::ParseUnary</text>
</a>
</g>
</g>
<!-- Node3&#45;&gt;Node4 -->
<g id="edge3" class="edge">
<title>Node3&#45;&gt;Node4</title>
<path fill="none" stroke="midnightblue" d="M677.86,-195.5C669.2,-195.5 660.46,-195.5 652.02,-195.5"/>
<polygon fill="midnightblue" stroke="midnightblue" points="677.97,-199 687.97,-195.5 677.97,-192 677.97,-199"/>
</g>
<!-- Node4&#45;&gt;Node4 -->
<g id="edge18" class="edge">
<title>Node4&#45;&gt;Node4</title>
<path fill="none" stroke="midnightblue" d="M618.25,-214.15C617.04,-219.44 607.46,-223.5 589.5,-223.5 562.13,-223.5 554.22,-214.07 565.76,-205.26"/>
<polygon fill="midnightblue" stroke="midnightblue" points="621.19,-212.25 613.24,-205.26 615.09,-215.69 621.19,-212.25"/>
</g>
<!-- Node5 -->
<g id="node5" class="node">
<title>Node5</title>
<g id="a_node5"><a xlink:href="classslljit_1_1_parser.html#ae387c9672ec50720d8cb969558aedbe9" target="_top" xlink:title=" ">
<polygon fill="none" stroke="black" points="377,-202.5 377,-232.5 491,-232.5 491,-202.5 377,-202.5"/>
<text text-anchor="start" x="385" y="-220.5" font-family="Helvetica,sans-Serif" font-size="10.00">slljit::Parser::ParseBin</text>
<text text-anchor="middle" x="434" y="-209.5" font-family="Helvetica,sans-Serif" font-size="10.00">OpRHS</text>
</a>
</g>
</g>
<!-- Node4&#45;&gt;Node5 -->
<g id="edge4" class="edge">
<title>Node4&#45;&gt;Node5</title>
<path fill="none" stroke="midnightblue" d="M516.86,-205.77C508.22,-207.01 499.48,-208.26 491.1,-209.46"/>
<polygon fill="midnightblue" stroke="midnightblue" points="517.55,-209.2 526.95,-204.32 516.55,-202.28 517.55,-209.2"/>
</g>
<!-- Node6 -->
<g id="node6" class="node">
<title>Node6</title>
<g id="a_node6"><a xlink:href="classslljit_1_1_parser.html#a79461bf414d03dcabb49d3bbd6f89607" target="_top" xlink:title=" ">
<polygon fill="none" stroke="black" points="192,-233 192,-252 341,-252 341,-233 192,-233"/>
<text text-anchor="middle" x="266.5" y="-240" font-family="Helvetica,sans-Serif" font-size="10.00">slljit::Parser::ParseExpression</text>
</a>
</g>
</g>
<!-- Node4&#45;&gt;Node6 -->
<g id="edge17" class="edge">
<title>Node4&#45;&gt;Node6</title>
<path fill="none" stroke="midnightblue" d="M516.73,-187.1C475.42,-184.18 422.78,-183.72 377,-193.5 341.56,-201.07 303.71,-220.98 283.1,-232.97"/>
<polygon fill="midnightblue" stroke="midnightblue" points="516.47,-190.59 526.7,-187.87 517,-183.61 516.47,-190.59"/>
</g>
<!-- Node5&#45;&gt;Node5 -->
<g id="edge5" class="edge">
<title>Node5&#45;&gt;Node5</title>
<path fill="none" stroke="midnightblue" d="M461.36,-242.96C457.97,-247.68 448.85,-251 434,-251 409.64,-251 400.69,-242.06 407.16,-232.66"/>
<polygon fill="midnightblue" stroke="midnightblue" points="464.84,-242.47 460.84,-232.66 457.85,-242.82 464.84,-242.47"/>
</g>
<!-- Node5&#45;&gt;Node6 -->
<g id="edge6" class="edge">
<title>Node5&#45;&gt;Node6</title>
<path fill="none" stroke="midnightblue" d="M367.02,-227.47C355.01,-229.28 342.51,-231.17 330.59,-232.97"/>
<polygon fill="midnightblue" stroke="midnightblue" points="367.6,-230.92 376.97,-225.96 366.56,-224 367.6,-230.92"/>
</g>
<!-- Node6&#45;&gt;Node1 -->
<g id="edge7" class="edge">
<title>Node6&#45;&gt;Node1</title>
<path fill="none" stroke="midnightblue" d="M286.43,-258.77C333.86,-297.79 462.98,-393.5 588.5,-393.5 756,-393.5 756,-393.5 756,-393.5 926.86,-393.5 1071.16,-194.76 1102.63,-148.18"/>
<polygon fill="midnightblue" stroke="midnightblue" points="288.46,-255.9 278.55,-252.18 283.97,-261.27 288.46,-255.9"/>
</g>
<!-- Node6&#45;&gt;Node2 -->
<g id="edge8" class="edge">
<title>Node6&#45;&gt;Node2</title>
<path fill="none" stroke="midnightblue" d="M325.14,-253.78C341.8,-256.55 360.07,-259.12 377,-260.5 569.54,-276.22 798.8,-226.66 886.95,-205.05"/>
<polygon fill="midnightblue" stroke="midnightblue" points="325.44,-250.28 314.99,-252.04 324.26,-257.18 325.44,-250.28"/>
</g>
<!-- Node7 -->
<g id="node7" class="node">
<title>Node7</title>
<g id="a_node7"><a xlink:href="classslljit_1_1_parser.html#a25cfefcbeea85744e23370d3a6f8ad5b" target="_top" xlink:title=" ">
<polygon fill="none" stroke="black" points="0,-245 0,-264 156,-264 156,-245 0,-245"/>
<text text-anchor="middle" x="78" y="-252" font-family="Helvetica,sans-Serif" font-size="10.00">slljit::Parser::ParseIdentifierExpr</text>
</a>
</g>
</g>
<!-- Node6&#45;&gt;Node7 -->
<g id="edge9" class="edge">
<title>Node6&#45;&gt;Node7</title>
<path fill="none" stroke="midnightblue" d="M181.55,-247.9C173.09,-248.45 164.54,-249 156.16,-249.54"/>
<polygon fill="midnightblue" stroke="midnightblue" points="182.04,-251.38 191.79,-247.24 181.59,-244.39 182.04,-251.38"/>
</g>
<!-- Node6&#45;&gt;Node8 -->
<g id="edge11" class="edge">
<title>Node6&#45;&gt;Node8</title>
<path fill="none" stroke="midnightblue" d="M245.46,-226.64C223.54,-209.33 187.36,-180.83 156,-156.5 133.38,-138.95 106.85,-118.69 91.57,-107.06"/>
<polygon fill="midnightblue" stroke="midnightblue" points="243.37,-229.45 253.38,-232.91 247.71,-223.96 243.37,-229.45"/>
</g>
<!-- Node9 -->
<g id="node9" class="node">
<title>Node9</title>
<g id="a_node9"><a xlink:href="classslljit_1_1_parser.html#a6e2e0f6a2cc445f3a956db59c8d2da66" target="_top" xlink:title="parenexpr ::= &#39;(&#39; expression &#39;)&#39;">
<polygon fill="none" stroke="black" points="5,-166 5,-185 151,-185 151,-166 5,-166"/>
<text text-anchor="middle" x="78" y="-173" font-family="Helvetica,sans-Serif" font-size="10.00">slljit::Parser::ParseParenExpr</text>
</a>
</g>
</g>
<!-- Node6&#45;&gt;Node9 -->
<g id="edge13" class="edge">
<title>Node6&#45;&gt;Node9</title>
<path fill="none" stroke="midnightblue" d="M229.08,-229.42C192.83,-216.39 138.06,-196.72 105.67,-185.08"/>
<polygon fill="midnightblue" stroke="midnightblue" points="228.18,-232.81 238.78,-232.9 230.55,-226.23 228.18,-232.81"/>
</g>
<!-- Node10 -->
<g id="node10" class="node">
<title>Node10</title>
<g id="a_node10"><a xlink:href="classslljit_1_1_parser.html#a435877d3f2869d140a7cca646546a114" target="_top" xlink:title="varexpr ::= &#39;g_var&#39; identifier (&#39;=&#39; expression)?">
<polygon fill="none" stroke="black" points="10.5,-333 10.5,-352 145.5,-352 145.5,-333 10.5,-333"/>
<text text-anchor="middle" x="78" y="-340" font-family="Helvetica,sans-Serif" font-size="10.00">slljit::Parser::ParseVarExpr</text>
</a>
</g>
</g>
<!-- Node6&#45;&gt;Node10 -->
<g id="edge15" class="edge">
<title>Node6&#45;&gt;Node10</title>
<path fill="none" stroke="midnightblue" d="M238.5,-256.98C199.81,-277.72 129.65,-315.34 96.83,-332.94"/>
<polygon fill="midnightblue" stroke="midnightblue" points="240.46,-259.9 247.62,-252.09 237.15,-253.73 240.46,-259.9"/>
</g>
<!-- Node7&#45;&gt;Node3 -->
<g id="edge10" class="edge">
<title>Node7&#45;&gt;Node3</title>
<path fill="none" stroke="midnightblue" d="M166.19,-262.89C280.05,-271.2 484.61,-277.05 652,-232.5 679.85,-225.09 710.85,-213.32 731.28,-205.05"/>
<polygon fill="midnightblue" stroke="midnightblue" points="166.36,-259.39 156.13,-262.13 165.84,-266.37 166.36,-259.39"/>
</g>
<!-- Node8&#45;&gt;Node3 -->
<g id="edge12" class="edge">
<title>Node8&#45;&gt;Node3</title>
<path fill="none" stroke="midnightblue" d="M150.87,-101.77C260.07,-109.18 473.91,-127.34 652,-164.5 677.91,-169.91 706.7,-178.95 727.07,-185.87"/>
<polygon fill="midnightblue" stroke="midnightblue" points="150.85,-98.26 140.64,-101.08 150.38,-105.24 150.85,-98.26"/>
</g>
<!-- Node9&#45;&gt;Node3 -->
<g id="edge14" class="edge">
<title>Node9&#45;&gt;Node3</title>
<path fill="none" stroke="midnightblue" d="M161.28,-170.95C272.77,-165.86 477.91,-160.27 652,-176.5 671.91,-178.36 693.73,-182.17 712.06,-185.9"/>
<polygon fill="midnightblue" stroke="midnightblue" points="160.94,-167.46 151.11,-171.43 161.26,-174.45 160.94,-167.46"/>
</g>
<!-- Node10&#45;&gt;Node3 -->
<g id="edge16" class="edge">
<title>Node10&#45;&gt;Node3</title>
<path fill="none" stroke="midnightblue" d="M155.72,-340.73C267.91,-336.02 481.86,-318.97 652,-257.5 687.28,-244.75 723.66,-219.04 741.95,-205.06"/>
<polygon fill="midnightblue" stroke="midnightblue" points="155.37,-337.24 145.52,-341.13 155.65,-344.23 155.37,-337.24"/>
</g>
<!-- Node12 -->
<g id="node12" class="node">
<title>Node12</title>
<g id="a_node12"><a xlink:href="classslljit_1_1_parser.html#af0cac4623fc05b8b7ae9884b0aeb3d3f" target="_top" xlink:title=" ">
<polygon fill="none" stroke="black" points="689.5,-0.5 689.5,-30.5 820.5,-30.5 820.5,-0.5 689.5,-0.5"/>
<text text-anchor="start" x="697.5" y="-18.5" font-family="Helvetica,sans-Serif" font-size="10.00">slljit::Parser::HandleTyped</text>
<text text-anchor="middle" x="755" y="-7.5" font-family="Helvetica,sans-Serif" font-size="10.00">Expression</text>
</a>
</g>
</g>
<!-- Node11&#45;&gt;Node12 -->
<g id="edge21" class="edge">
<title>Node11&#45;&gt;Node12</title>
<path fill="none" stroke="midnightblue" d="M856.41,-15.5C844.59,-15.5 832.32,-15.5 820.59,-15.5"/>
<polygon fill="midnightblue" stroke="midnightblue" points="856.65,-19 866.65,-15.5 856.65,-12 856.65,-19"/>
</g>
<!-- Node13 -->
<g id="node13" class="node">
<title>Node13</title>
<g id="a_node13"><a xlink:href="classslljit_1_1_parser.html#ae2d3d6534b87da7f237c19129a464bda" target="_top" xlink:title="top ::= definition | external | expression | &#39;;&#39;">
<polygon fill="none" stroke="black" points="531.5,-6 531.5,-25 647.5,-25 647.5,-6 531.5,-6"/>
<text text-anchor="middle" x="589.5" y="-13" font-family="Helvetica,sans-Serif" font-size="10.00">slljit::Parser::MainLoop</text>
</a>
</g>
</g>
<!-- Node12&#45;&gt;Node13 -->
<g id="edge22" class="edge">
<title>Node12&#45;&gt;Node13</title>
<path fill="none" stroke="midnightblue" d="M679.23,-15.5C668.57,-15.5 657.75,-15.5 647.5,-15.5"/>
<polygon fill="midnightblue" stroke="midnightblue" points="679.38,-19 689.38,-15.5 679.38,-12 679.38,-19"/>
</g>
<!-- Node14 -->
<g id="node14" class="node">
<title>Node14</title>
<g id="a_node14"><a xlink:href="classslljit_1_1_parser.html#a2429935f3c870648f9f895a7b2361cfb" target="_top" xlink:title=" ">
<polygon fill="none" stroke="black" points="385,-6 385,-25 483,-25 483,-6 385,-6"/>
<text text-anchor="middle" x="434" y="-13" font-family="Helvetica,sans-Serif" font-size="10.00">slljit::Parser::parse</text>
</a>
</g>
</g>
<!-- Node13&#45;&gt;Node14 -->
<g id="edge23" class="edge">
<title>Node13&#45;&gt;Node14</title>
<path fill="none" stroke="midnightblue" d="M521.18,-15.5C508.37,-15.5 495.21,-15.5 483.15,-15.5"/>
<polygon fill="midnightblue" stroke="midnightblue" points="521.34,-19 531.34,-15.5 521.34,-12 521.34,-19"/>
</g>
<!-- Node15 -->
<g id="node15" class="node">
<title>Node15</title>
<g id="a_node15"><a xlink:href="classslljit_1_1_program.html#ae4d26526a7dd9c69ebe92fb43736696b" target="_top" xlink:title=" ">
<polygon fill="none" stroke="black" points="208.5,-6 208.5,-25 324.5,-25 324.5,-6 208.5,-6"/>
<text text-anchor="middle" x="266.5" y="-13" font-family="Helvetica,sans-Serif" font-size="10.00">slljit::Program::compile</text>
</a>
</g>
</g>
<!-- Node14&#45;&gt;Node15 -->
<g id="edge24" class="edge">
<title>Node14&#45;&gt;Node15</title>
<path fill="none" stroke="midnightblue" d="M374.3,-15.5C358.17,-15.5 340.69,-15.5 324.65,-15.5"/>
<polygon fill="midnightblue" stroke="midnightblue" points="374.69,-19 384.69,-15.5 374.69,-12 374.69,-19"/>
</g>
<!-- Node16 -->
<g id="node16" class="node">
<title>Node16</title>
<g id="a_node16"><a xlink:href="compiler__cli_8cpp.html#a3c04138a5bfe5d72780bb7e82a18e627" target="_top" xlink:title=" ">
<polygon fill="none" stroke="black" points="59,-6 59,-25 97,-25 97,-6 59,-6"/>
<text text-anchor="middle" x="78" y="-13" font-family="Helvetica,sans-Serif" font-size="10.00">main</text>
</a>
</g>
</g>
<!-- Node15&#45;&gt;Node16 -->
<g id="edge25" class="edge">
<title>Node15&#45;&gt;Node16</title>
<path fill="none" stroke="midnightblue" d="M198.26,-15.5C162.14,-15.5 120.36,-15.5 97.07,-15.5"/>
<polygon fill="midnightblue" stroke="midnightblue" points="198.28,-19 208.28,-15.5 198.28,-12 198.28,-19"/>
</g>
</g>
</svg>
