<?xml version="1.0" encoding="UTF-8" standalone="no"?>
<!DOCTYPE svg PUBLIC "-//W3C//DTD SVG 1.1//EN"
 "http://www.w3.org/Graphics/SVG/1.1/DTD/svg11.dtd">
<!-- Generated by graphviz version 3.0.0 (20220226.1711)
 -->
<!-- Title: slljit::Parser::ParseForExpr Pages: 1 -->
<svg width="1774pt" height="318pt"
 viewBox="0.00 0.00 1774.00 317.64" xmlns="http://www.w3.org/2000/svg" xmlns:xlink="http://www.w3.org/1999/xlink">
<g id="graph0" class="graph" transform="scale(1 1) rotate(0) translate(4 313.64)">
<title>slljit::Parser::ParseForExpr</title>
<!-- Node1 -->
<g id="node1" class="node">
<title>Node1</title>
<g id="a_node1"><a xlink:title="forexpr ::= &#39;for&#39; identifier &#39;=&#39; expr &#39;,&#39; expr (&#39;,&#39; expr)? &#39;in&#39; expression">
<polygon fill="#bfbfbf" stroke="black" points="1632,-262.14 1632,-281.14 1766,-281.14 1766,-262.14 1632,-262.14"/>
<text text-anchor="middle" x="1699" y="-269.14" font-family="Helvetica,sans-Serif" font-size="10.00">slljit::Parser::ParseForExpr</text>
</a>
</g>
</g>
<!-- Node2 -->
<g id="node2" class="node">
<title>Node2</title>
<g id="a_node2"><a xlink:href="classslljit_1_1_parser.html#a45cb3e4f600e8e2c253490e7d878e8cd" target="_top" xlink:title=" ">
<polygon fill="none" stroke="black" points="1462,-99.14 1462,-118.14 1596,-118.14 1596,-99.14 1462,-99.14"/>
<text text-anchor="middle" x="1529" y="-106.14" font-family="Helvetica,sans-Serif" font-size="10.00">slljit::Parser::ParsePrimary</text>
</a>
</g>
</g>
<!-- Node1&#45;&gt;Node2 -->
<g id="edge1" class="edge">
<title>Node1&#45;&gt;Node2</title>
<path fill="none" stroke="midnightblue" d="M1680.44,-254.61C1645.44,-220.65 1567.96,-145.47 1540.17,-118.51"/>
<polygon fill="midnightblue" stroke="midnightblue" points="1678.38,-257.48 1687.99,-261.93 1683.25,-252.46 1678.38,-257.48"/>
</g>
<!-- Node3 -->
<g id="node3" class="node">
<title>Node3</title>
<g id="a_node3"><a xlink:href="classslljit_1_1_parser.html#af8579896f39ac563d2edd14404d70f41" target="_top" xlink:title=" ">
<polygon fill="none" stroke="black" points="1301,-162.14 1301,-181.14 1426,-181.14 1426,-162.14 1301,-162.14"/>
<text text-anchor="middle" x="1363.5" y="-169.14" font-family="Helvetica,sans-Serif" font-size="10.00">slljit::Parser::ParseUnary</text>
</a>
</g>
</g>
<!-- Node2&#45;&gt;Node3 -->
<g id="edge2" class="edge">
<title>Node2&#45;&gt;Node3</title>
<path fill="none" stroke="midnightblue" d="M1493.57,-121.91C1462.35,-133.94 1417.09,-151.38 1389.3,-162.09"/>
<polygon fill="midnightblue" stroke="midnightblue" points="1495.1,-125.07 1503.17,-118.21 1492.58,-118.54 1495.1,-125.07"/>
</g>
<!-- Node3&#45;&gt;Node3 -->
<g id="edge24" class="edge">
<title>Node3&#45;&gt;Node3</title>
<path fill="none" stroke="midnightblue" d="M1392.25,-190.3C1391.04,-195.58 1381.46,-199.64 1363.5,-199.64 1336.13,-199.64 1328.22,-190.21 1339.76,-181.4"/>
<polygon fill="midnightblue" stroke="midnightblue" points="1395.19,-188.4 1387.24,-181.4 1389.09,-191.83 1395.19,-188.4"/>
</g>
<!-- Node4 -->
<g id="node4" class="node">
<title>Node4</title>
<g id="a_node4"><a xlink:href="classslljit_1_1_parser.html#ae387c9672ec50720d8cb969558aedbe9" target="_top" xlink:title=" ">
<polygon fill="none" stroke="black" points="1151,-156.64 1151,-186.64 1265,-186.64 1265,-156.64 1151,-156.64"/>
<text text-anchor="start" x="1159" y="-174.64" font-family="Helvetica,sans-Serif" font-size="10.00">slljit::Parser::ParseBin</text>
<text text-anchor="middle" x="1208" y="-163.64" font-family="Helvetica,sans-Serif" font-size="10.00">OpRHS</text>
</a>
</g>
</g>
<!-- Node3&#45;&gt;Node4 -->
<g id="edge3" class="edge">
<title>Node3&#45;&gt;Node4</title>
<path fill="none" stroke="midnightblue" d="M1290.86,-171.64C1282.22,-171.64 1273.48,-171.64 1265.1,-171.64"/>
<polygon fill="midnightblue" stroke="midnightblue" points="1290.95,-175.14 1300.95,-171.64 1290.95,-168.14 1290.95,-175.14"/>
</g>
<!-- Node5 -->
<g id="node5" class="node">
<title>Node5</title>
<g id="a_node5"><a xlink:href="classslljit_1_1_parser.html#a79461bf414d03dcabb49d3bbd6f89607" target="_top" xlink:title=" ">
<polygon fill="none" stroke="black" points="966,-161.14 966,-180.14 1115,-180.14 1115,-161.14 966,-161.14"/>
<text text-anchor="middle" x="1040.5" y="-168.14" font-family="Helvetica,sans-Serif" font-size="10.00">slljit::Parser::ParseExpression</text>
</a>
</g>
</g>
<!-- Node3&#45;&gt;Node5 -->
<g id="edge23" class="edge">
<title>Node3&#45;&gt;Node5</title>
<path fill="none" stroke="midnightblue" d="M1336.97,-186.06C1317.83,-196.01 1290.63,-208.36 1265,-213.64 1215.38,-223.88 1200.78,-223.07 1151,-213.64 1117.49,-207.3 1081.1,-190.93 1059.85,-180.32"/>
<polygon fill="midnightblue" stroke="midnightblue" points="1338.76,-189.07 1345.93,-181.27 1335.46,-182.9 1338.76,-189.07"/>
</g>
<!-- Node4&#45;&gt;Node4 -->
<g id="edge4" class="edge">
<title>Node4&#45;&gt;Node4</title>
<path fill="none" stroke="midnightblue" d="M1235.36,-197.1C1231.97,-201.82 1222.85,-205.14 1208,-205.14 1183.64,-205.14 1174.69,-196.2 1181.16,-186.8"/>
<polygon fill="midnightblue" stroke="midnightblue" points="1238.84,-196.61 1234.84,-186.8 1231.85,-196.97 1238.84,-196.61"/>
</g>
<!-- Node4&#45;&gt;Node5 -->
<g id="edge5" class="edge">
<title>Node4&#45;&gt;Node5</title>
<path fill="none" stroke="midnightblue" d="M1140.8,-171.24C1132.34,-171.19 1123.64,-171.14 1115.08,-171.09"/>
<polygon fill="midnightblue" stroke="midnightblue" points="1140.95,-174.74 1150.97,-171.3 1140.99,-167.74 1140.95,-174.74"/>
</g>
<!-- Node5&#45;&gt;Node1 -->
<g id="edge15" class="edge">
<title>Node5&#45;&gt;Node1</title>
<path fill="none" stroke="midnightblue" d="M1062.72,-186.18C1083.91,-200.76 1117.98,-221.77 1151,-231.64 1318.63,-281.78 1527.43,-280.55 1631.94,-275.86"/>
<polygon fill="midnightblue" stroke="midnightblue" points="1064.66,-183.27 1054.47,-180.38 1060.64,-188.99 1064.66,-183.27"/>
</g>
<!-- Node6 -->
<g id="node6" class="node">
<title>Node6</title>
<g id="a_node6"><a xlink:href="classslljit_1_1_parser.html#acc431005ac3dd38732083d7a1bb0eab2" target="_top" xlink:title=" ">
<polygon fill="none" stroke="black" points="766,-202.14 766,-221.14 930,-221.14 930,-202.14 766,-202.14"/>
<text text-anchor="middle" x="848" y="-209.14" font-family="Helvetica,sans-Serif" font-size="10.00">slljit::Parser::ParseExpressionList</text>
</a>
</g>
</g>
<!-- Node5&#45;&gt;Node6 -->
<g id="edge6" class="edge">
<title>Node5&#45;&gt;Node6</title>
<path fill="none" stroke="midnightblue" d="M985.3,-182.31C956.18,-188.58 920.72,-196.21 893.27,-202.11"/>
<polygon fill="midnightblue" stroke="midnightblue" points="986.28,-185.68 995.32,-180.15 984.8,-178.83 986.28,-185.68"/>
</g>
<!-- Node7 -->
<g id="node7" class="node">
<title>Node7</title>
<g id="a_node7"><a xlink:href="classslljit_1_1_parser.html#a149f5e88cb03aa08c388e6320c6c1bac" target="_top" xlink:title="ifexpr ::= &#39;if&#39; expression &#39;then&#39; expression &#39;else&#39; expression">
<polygon fill="none" stroke="black" points="605,-159.14 605,-178.14 730,-178.14 730,-159.14 605,-159.14"/>
<text text-anchor="middle" x="667.5" y="-166.14" font-family="Helvetica,sans-Serif" font-size="10.00">slljit::Parser::ParseIfExpr</text>
</a>
</g>
</g>
<!-- Node5&#45;&gt;Node7 -->
<g id="edge18" class="edge">
<title>Node5&#45;&gt;Node7</title>
<path fill="none" stroke="midnightblue" d="M955.42,-170.19C886.9,-169.82 791.72,-169.31 730.11,-168.97"/>
<polygon fill="midnightblue" stroke="midnightblue" points="955.74,-173.69 965.76,-170.25 955.78,-166.69 955.74,-173.69"/>
</g>
<!-- Node13 -->
<g id="node13" class="node">
<title>Node13</title>
<g id="a_node13"><a xlink:href="classslljit_1_1_parser.html#a25cfefcbeea85744e23370d3a6f8ad5b" target="_top" xlink:title=" ">
<polygon fill="none" stroke="black" points="770,-42.14 770,-61.14 926,-61.14 926,-42.14 770,-42.14"/>
<text text-anchor="middle" x="848" y="-49.14" font-family="Helvetica,sans-Serif" font-size="10.00">slljit::Parser::ParseIdentifierExpr</text>
</a>
</g>
</g>
<!-- Node5&#45;&gt;Node13 -->
<g id="edge16" class="edge">
<title>Node5&#45;&gt;Node13</title>
<path fill="none" stroke="midnightblue" d="M1024.64,-153.26C1005.09,-131.49 968.67,-94.52 930,-73.64 920.26,-68.38 909.16,-64.3 898.37,-61.17"/>
<polygon fill="midnightblue" stroke="midnightblue" points="1022.26,-155.86 1031.49,-161.05 1027.51,-151.23 1022.26,-155.86"/>
</g>
<!-- Node14 -->
<g id="node14" class="node">
<title>Node14</title>
<g id="a_node14"><a xlink:href="classslljit_1_1_parser.html#a6e2e0f6a2cc445f3a956db59c8d2da66" target="_top" xlink:title="parenexpr ::= &#39;(&#39; expression &#39;)&#39;">
<polygon fill="none" stroke="black" points="775,-122.14 775,-141.14 921,-141.14 921,-122.14 775,-122.14"/>
<text text-anchor="middle" x="848" y="-129.14" font-family="Helvetica,sans-Serif" font-size="10.00">slljit::Parser::ParseParenExpr</text>
</a>
</g>
</g>
<!-- Node5&#45;&gt;Node14 -->
<g id="edge19" class="edge">
<title>Node5&#45;&gt;Node14</title>
<path fill="none" stroke="midnightblue" d="M982.89,-159.05C955.01,-153.35 921.81,-146.55 895.45,-141.15"/>
<polygon fill="midnightblue" stroke="midnightblue" points="982.4,-162.53 992.9,-161.1 983.8,-155.67 982.4,-162.53"/>
</g>
<!-- Node15 -->
<g id="node15" class="node">
<title>Node15</title>
<g id="a_node15"><a xlink:href="classslljit_1_1_parser.html#a435877d3f2869d140a7cca646546a114" target="_top" xlink:title="varexpr ::= &#39;g_var&#39; identifier (&#39;=&#39; expression)?">
<polygon fill="none" stroke="black" points="780.5,-83.14 780.5,-102.14 915.5,-102.14 915.5,-83.14 780.5,-83.14"/>
<text text-anchor="middle" x="848" y="-90.14" font-family="Helvetica,sans-Serif" font-size="10.00">slljit::Parser::ParseVarExpr</text>
</a>
</g>
</g>
<!-- Node5&#45;&gt;Node15 -->
<g id="edge21" class="edge">
<title>Node5&#45;&gt;Node15</title>
<path fill="none" stroke="midnightblue" d="M1015.28,-155.59C993.62,-142.67 960.64,-124.34 930,-112.64 919.17,-108.51 907.2,-105.01 895.86,-102.15"/>
<polygon fill="midnightblue" stroke="midnightblue" points="1013.75,-158.75 1024.11,-160.93 1017.37,-152.76 1013.75,-158.75"/>
</g>
<!-- Node6&#45;&gt;Node1 -->
<g id="edge7" class="edge">
<title>Node6&#45;&gt;Node1</title>
<path fill="none" stroke="midnightblue" d="M878.32,-225.43C938.51,-252.42 1080.95,-309.64 1207,-309.64 1364.5,-309.64 1364.5,-309.64 1364.5,-309.64 1467.7,-309.64 1493.75,-305.59 1596,-291.64 1615.49,-288.98 1636.87,-284.96 1655.01,-281.22"/>
<polygon fill="midnightblue" stroke="midnightblue" points="879.61,-222.17 869.05,-221.22 876.71,-228.54 879.61,-222.17"/>
</g>
<!-- Node6&#45;&gt;Node7 -->
<g id="edge8" class="edge">
<title>Node6&#45;&gt;Node7</title>
<path fill="none" stroke="midnightblue" d="M797.32,-199.68C769.13,-192.88 734.33,-184.5 708,-178.16"/>
<polygon fill="midnightblue" stroke="midnightblue" points="796.84,-203.16 807.39,-202.1 798.48,-196.35 796.84,-203.16"/>
</g>
<!-- Node8 -->
<g id="node8" class="node">
<title>Node8</title>
<g id="a_node8"><a xlink:href="classslljit_1_1_parser.html#aa9a9ce164e114ad7f347f32329f5a5a2" target="_top" xlink:title="definition ::= &#39;def&#39; prototype expression">
<polygon fill="none" stroke="black" points="609.5,-197.64 609.5,-227.64 725.5,-227.64 725.5,-197.64 609.5,-197.64"/>
<text text-anchor="start" x="617.5" y="-215.64" font-family="Helvetica,sans-Serif" font-size="10.00">slljit::Parser::ParseTop</text>
<text text-anchor="middle" x="667.5" y="-204.64" font-family="Helvetica,sans-Serif" font-size="10.00">LevelTypedExpression</text>
</a>
</g>
</g>
<!-- Node6&#45;&gt;Node8 -->
<g id="edge10" class="edge">
<title>Node6&#45;&gt;Node8</title>
<path fill="none" stroke="midnightblue" d="M755.66,-212.15C745.48,-212.21 735.32,-212.27 725.74,-212.32"/>
<polygon fill="midnightblue" stroke="midnightblue" points="755.87,-215.65 765.85,-212.1 755.83,-208.65 755.87,-215.65"/>
</g>
<!-- Node7&#45;&gt;Node2 -->
<g id="edge9" class="edge">
<title>Node7&#45;&gt;Node2</title>
<path fill="none" stroke="midnightblue" d="M675.97,-149.19C689,-118.3 719.03,-58.86 766,-32.64 872.4,26.74 917.65,-13.64 1039.5,-13.64 1209,-13.64 1209,-13.64 1209,-13.64 1327.75,-13.64 1461.41,-74.86 1509.52,-99.01"/>
<polygon fill="midnightblue" stroke="midnightblue" points="672.58,-148.24 672.08,-158.82 679.07,-150.87 672.58,-148.24"/>
</g>
<!-- Node9 -->
<g id="node9" class="node">
<title>Node9</title>
<g id="a_node9"><a xlink:href="classslljit_1_1_parser.html#af0cac4623fc05b8b7ae9884b0aeb3d3f" target="_top" xlink:title=" ">
<polygon fill="none" stroke="black" points="438,-197.64 438,-227.64 569,-227.64 569,-197.64 438,-197.64"/>
<text text-anchor="start" x="446" y="-215.64" font-family="Helvetica,sans-Serif" font-size="10.00">slljit::Parser::HandleTyped</text>
<text text-anchor="middle" x="503.5" y="-204.64" font-family="Helvetica,sans-Serif" font-size="10.00">Expression</text>
</a>
</g>
</g>
<!-- Node8&#45;&gt;Node9 -->
<g id="edge11" class="edge">
<title>Node8&#45;&gt;Node9</title>
<path fill="none" stroke="midnightblue" d="M599.16,-212.64C589.22,-212.64 578.99,-212.64 569.11,-212.64"/>
<polygon fill="midnightblue" stroke="midnightblue" points="599.38,-216.14 609.38,-212.64 599.38,-209.14 599.38,-216.14"/>
</g>
<!-- Node10 -->
<g id="node10" class="node">
<title>Node10</title>
<g id="a_node10"><a xlink:href="classslljit_1_1_parser.html#ae2d3d6534b87da7f237c19129a464bda" target="_top" xlink:title="top ::= definition | external | expression | &#39;;&#39;">
<polygon fill="none" stroke="black" points="286,-203.14 286,-222.14 402,-222.14 402,-203.14 286,-203.14"/>
<text text-anchor="middle" x="344" y="-210.14" font-family="Helvetica,sans-Serif" font-size="10.00">slljit::Parser::MainLoop</text>
</a>
</g>
</g>
<!-- Node9&#45;&gt;Node10 -->
<g id="edge12" class="edge">
<title>Node9&#45;&gt;Node10</title>
<path fill="none" stroke="midnightblue" d="M427.87,-212.64C419.2,-212.64 410.47,-212.64 402.09,-212.64"/>
<polygon fill="midnightblue" stroke="midnightblue" points="427.98,-216.14 437.98,-212.64 427.98,-209.14 427.98,-216.14"/>
</g>
<!-- Node11 -->
<g id="node11" class="node">
<title>Node11</title>
<g id="a_node11"><a xlink:href="classslljit_1_1_parser.html#a2429935f3c870648f9f895a7b2361cfb" target="_top" xlink:title=" ">
<polygon fill="none" stroke="black" points="152,-203.14 152,-222.14 250,-222.14 250,-203.14 152,-203.14"/>
<text text-anchor="middle" x="201" y="-210.14" font-family="Helvetica,sans-Serif" font-size="10.00">slljit::Parser::parse</text>
</a>
</g>
</g>
<!-- Node10&#45;&gt;Node11 -->
<g id="edge13" class="edge">
<title>Node10&#45;&gt;Node11</title>
<path fill="none" stroke="midnightblue" d="M275.37,-212.64C266.9,-212.64 258.37,-212.64 250.28,-212.64"/>
<polygon fill="midnightblue" stroke="midnightblue" points="275.65,-216.14 285.65,-212.64 275.65,-209.14 275.65,-216.14"/>
</g>
<!-- Node12 -->
<g id="node12" class="node">
<title>Node12</title>
<g id="a_node12"><a xlink:href="classslljit_1_1_program.html#ae4d26526a7dd9c69ebe92fb43736696b" target="_top" xlink:title=" ">
<polygon fill="none" stroke="black" points="0,-203.14 0,-222.14 116,-222.14 116,-203.14 0,-203.14"/>
<text text-anchor="middle" x="58" y="-210.14" font-family="Helvetica,sans-Serif" font-size="10.00">slljit::Program::compile</text>
</a>
</g>
</g>
<!-- Node11&#45;&gt;Node12 -->
<g id="edge14" class="edge">
<title>Node11&#45;&gt;Node12</title>
<path fill="none" stroke="midnightblue" d="M141.72,-212.64C133.27,-212.64 124.58,-212.64 116.16,-212.64"/>
<polygon fill="midnightblue" stroke="midnightblue" points="141.87,-216.14 151.87,-212.64 141.87,-209.14 141.87,-216.14"/>
</g>
<!-- Node13&#45;&gt;Node2 -->
<g id="edge17" class="edge">
<title>Node13&#45;&gt;Node2</title>
<path fill="none" stroke="midnightblue" d="M935.99,-58.74C1048.94,-67.99 1252.22,-84.75 1426,-99.64 1437.6,-100.64 1449.94,-101.71 1461.89,-102.76"/>
<polygon fill="midnightblue" stroke="midnightblue" points="936.26,-55.25 926.01,-57.93 935.69,-62.23 936.26,-55.25"/>
</g>
<!-- Node14&#45;&gt;Node2 -->
<g id="edge20" class="edge">
<title>Node14&#45;&gt;Node2</title>
<path fill="none" stroke="midnightblue" d="M931.64,-129.53C1043.68,-126.55 1249.99,-120.7 1426,-113.64 1437.6,-113.18 1449.95,-112.62 1461.89,-112.06"/>
<polygon fill="midnightblue" stroke="midnightblue" points="931.33,-126.03 921.43,-129.8 931.52,-133.03 931.33,-126.03"/>
</g>
<!-- Node15&#45;&gt;Node2 -->
<g id="edge22" class="edge">
<title>Node15&#45;&gt;Node2</title>
<path fill="none" stroke="midnightblue" d="M925.9,-94.45C1060.3,-97.62 1335.62,-104.11 1461.97,-107.09"/>
<polygon fill="midnightblue" stroke="midnightblue" points="925.77,-90.95 915.69,-94.21 925.6,-97.95 925.77,-90.95"/>
</g>
</g>
</svg>
