<?xml version="1.0" encoding="UTF-8" standalone="no"?>
<!DOCTYPE svg PUBLIC "-//W3C//DTD SVG 1.1//EN"
 "http://www.w3.org/Graphics/SVG/1.1/DTD/svg11.dtd">
<!-- Generated by graphviz version 3.0.0 (20220226.1711)
 -->
<!-- Title: slljit::CallExprAST Pages: 1 -->
<svg width="417pt" height="155pt"
 viewBox="0.00 0.00 417.00 155.00" xmlns="http://www.w3.org/2000/svg" xmlns:xlink="http://www.w3.org/1999/xlink">
<g id="graph0" class="graph" transform="scale(1 1) rotate(0) translate(4 151)">
<title>slljit::CallExprAST</title>
<!-- Node1 -->
<g id="node1" class="node">
<title>Node1</title>
<g id="a_node1"><a xlink:title="Expression class for function calls.">
<polygon fill="#bfbfbf" stroke="black" points="314,-66.5 314,-85.5 409,-85.5 409,-66.5 314,-66.5"/>
<text text-anchor="middle" x="361.5" y="-73.5" font-family="Helvetica,sans-Serif" font-size="10.00">slljit::CallExprAST</text>
</a>
</g>
</g>
<!-- Node2 -->
<g id="node2" class="node">
<title>Node2</title>
<g id="a_node2"><a xlink:href="classslljit_1_1_expr_a_s_t.html" target="_top" xlink:title="Base class for all expression nodes.">
<polygon fill="none" stroke="black" points="132.5,-126.5 132.5,-145.5 211.5,-145.5 211.5,-126.5 132.5,-126.5"/>
<text text-anchor="middle" x="172" y="-133.5" font-family="Helvetica,sans-Serif" font-size="10.00">slljit::ExprAST</text>
</a>
</g>
</g>
<!-- Node2&#45;&gt;Node1 -->
<g id="edge1" class="edge">
<title>Node2&#45;&gt;Node1</title>
<path fill="none" stroke="midnightblue" d="M221.43,-124.61C244.27,-118.83 271.76,-111.28 296,-103 310.82,-97.94 327.08,-91.12 339.57,-85.6"/>
<polygon fill="midnightblue" stroke="midnightblue" points="220.48,-121.24 211.63,-127.05 222.18,-128.03 220.48,-121.24"/>
</g>
<!-- Node3 -->
<g id="node3" class="node">
<title>Node3</title>
<g id="a_node3"><a xlink:title=" ">
<polygon fill="none" stroke="black" points="0,-126.5 0,-145.5 47,-145.5 47,-126.5 0,-126.5"/>
<text text-anchor="middle" x="23.5" y="-133.5" font-family="Helvetica,sans-Serif" font-size="10.00">TypeID</text>
</a>
</g>
</g>
<!-- Node3&#45;&gt;Node2 -->
<g id="edge2" class="edge">
<title>Node3&#45;&gt;Node2</title>
<path fill="none" stroke="#9a32cd" stroke-dasharray="5,2" d="M57.35,-136C79.6,-136 109.07,-136 132.43,-136"/>
<polygon fill="#9a32cd" stroke="#9a32cd" points="57.07,-132.5 47.07,-136 57.07,-139.5 57.07,-132.5"/>
<text text-anchor="middle" x="79" y="-139" font-family="Helvetica,sans-Serif" font-size="10.00"> type_</text>
</g>
<!-- Node4 -->
<g id="node4" class="node">
<title>Node4</title>
<g id="a_node4"><a xlink:title=" ">
<polygon fill="none" stroke="black" points="151.5,-88.5 151.5,-107.5 192.5,-107.5 192.5,-88.5 151.5,-88.5"/>
<text text-anchor="middle" x="172" y="-95.5" font-family="Helvetica,sans-Serif" font-size="10.00">string</text>
</a>
</g>
</g>
<!-- Node4&#45;&gt;Node1 -->
<g id="edge3" class="edge">
<title>Node4&#45;&gt;Node1</title>
<path fill="none" stroke="#9a32cd" stroke-dasharray="5,2" d="M202.91,-94.49C232.74,-90.99 278.99,-85.56 313.69,-81.49"/>
<polygon fill="#9a32cd" stroke="#9a32cd" points="202.24,-91.05 192.71,-95.69 203.05,-98 202.24,-91.05"/>
<text text-anchor="middle" x="273.5" y="-91" font-family="Helvetica,sans-Serif" font-size="10.00"> Callee</text>
</g>
<!-- Node5 -->
<g id="node5" class="node">
<title>Node5</title>
<g id="a_node5"><a xlink:title=" ">
<polygon fill="none" stroke="black" points="111,-39 111,-69 233,-69 233,-39 111,-39"/>
<text text-anchor="start" x="119" y="-57" font-family="Helvetica,sans-Serif" font-size="10.00">vector&lt; std::unique</text>
<text text-anchor="middle" x="172" y="-46" font-family="Helvetica,sans-Serif" font-size="10.00">_ptr&lt; slljit::ExprAST &gt; &gt;</text>
</a>
</g>
</g>
<!-- Node5&#45;&gt;Node1 -->
<g id="edge4" class="edge">
<title>Node5&#45;&gt;Node1</title>
<path fill="none" stroke="#9a32cd" stroke-dasharray="5,2" d="M243.1,-61.86C260.4,-63.83 278.87,-65.96 296,-68 301.71,-68.68 307.71,-69.41 313.65,-70.13"/>
<polygon fill="#9a32cd" stroke="#9a32cd" points="243.4,-58.37 233.07,-60.72 242.61,-65.32 243.4,-58.37"/>
<text text-anchor="middle" x="273.5" y="-71" font-family="Helvetica,sans-Serif" font-size="10.00"> Args</text>
</g>
<!-- Node6 -->
<g id="node6" class="node">
<title>Node6</title>
<g id="a_node6"><a xlink:title=" ">
<polygon fill="none" stroke="black" points="127,-0.5 127,-19.5 217,-19.5 217,-0.5 127,-0.5"/>
<text text-anchor="middle" x="172" y="-7.5" font-family="Helvetica,sans-Serif" font-size="10.00">vector&lt; TypeID &gt;</text>
</a>
</g>
</g>
<!-- Node6&#45;&gt;Node1 -->
<g id="edge5" class="edge">
<title>Node6&#45;&gt;Node1</title>
<path fill="none" stroke="#9a32cd" stroke-dasharray="5,2" d="M218.85,-22.26C242.19,-28.88 270.87,-37.61 296,-47 311.41,-52.76 328.36,-60.43 341.02,-66.44"/>
<polygon fill="#9a32cd" stroke="#9a32cd" points="219.78,-18.88 209.2,-19.55 217.89,-25.62 219.78,-18.88"/>
<text text-anchor="middle" x="273.5" y="-50" font-family="Helvetica,sans-Serif" font-size="10.00"> ArgTypes</text>
</g>
</g>
</svg>
