<?xml version="1.0" encoding="UTF-8" standalone="no"?>
<!DOCTYPE svg PUBLIC "-//W3C//DTD SVG 1.1//EN"
 "http://www.w3.org/Graphics/SVG/1.1/DTD/svg11.dtd">
<!-- Generated by graphviz version 3.0.0 (20220226.1711)
 -->
<!-- Title: slljit::Tokenizer::gettok Pages: 1 -->
<svg width="1690pt" height="682pt"
 viewBox="0.00 0.00 1690.00 681.92" xmlns="http://www.w3.org/2000/svg" xmlns:xlink="http://www.w3.org/1999/xlink">
<g id="graph0" class="graph" transform="scale(1 1) rotate(0) translate(4 677.92)">
<title>slljit::Tokenizer::gettok</title>
<!-- Node1 -->
<g id="node1" class="node">
<title>Node1</title>
<g id="a_node1"><a xlink:title=" ">
<polygon fill="#bfbfbf" stroke="black" points="1594,-380.94 1594,-410.94 1682,-410.94 1682,-380.94 1594,-380.94"/>
<text text-anchor="start" x="1602" y="-398.94" font-family="Helvetica,sans-Serif" font-size="10.00">slljit::Tokenizer::</text>
<text text-anchor="middle" x="1638" y="-387.94" font-family="Helvetica,sans-Serif" font-size="10.00">gettok</text>
</a>
</g>
</g>
<!-- Node1&#45;&gt;Node1 -->
<g id="edge48" class="edge">
<title>Node1&#45;&gt;Node1</title>
<path fill="none" stroke="midnightblue" d="M1663.94,-421.4C1660.72,-426.12 1652.08,-429.44 1638,-429.44 1614.9,-429.44 1606.42,-420.5 1612.56,-411.1"/>
<polygon fill="midnightblue" stroke="midnightblue" points="1667.42,-420.92 1663.44,-411.1 1660.43,-421.26 1667.42,-420.92"/>
</g>
<!-- Node2 -->
<g id="node2" class="node">
<title>Node2</title>
<g id="a_node2"><a xlink:href="classslljit_1_1_parser.html#a9fcfefd86a6000dcb40fa737361ea55b" target="_top" xlink:title="GetTokPrecedence &#45; Get the precedence of the pending binary operator token.">
<polygon fill="none" stroke="black" points="1424,-386.44 1424,-405.44 1558,-405.44 1558,-386.44 1424,-386.44"/>
<text text-anchor="middle" x="1491" y="-393.44" font-family="Helvetica,sans-Serif" font-size="10.00">slljit::Parser::getNextToken</text>
</a>
</g>
</g>
<!-- Node1&#45;&gt;Node2 -->
<g id="edge1" class="edge">
<title>Node1&#45;&gt;Node2</title>
<path fill="none" stroke="midnightblue" d="M1583.86,-395.94C1575.46,-395.94 1566.69,-395.94 1558.04,-395.94"/>
<polygon fill="midnightblue" stroke="midnightblue" points="1583.89,-399.44 1593.89,-395.94 1583.89,-392.44 1583.89,-399.44"/>
</g>
<!-- Node3 -->
<g id="node3" class="node">
<title>Node3</title>
<g id="a_node3"><a xlink:href="classslljit_1_1_parser.html#a5ff2f693f00fe32c8ee836e9139cb93e" target="_top" xlink:title=" ">
<polygon fill="none" stroke="black" points="876.5,-526.44 876.5,-545.44 1009.5,-545.44 1009.5,-526.44 876.5,-526.44"/>
<text text-anchor="middle" x="943" y="-533.44" font-family="Helvetica,sans-Serif" font-size="10.00">slljit::Parser::HandleExtern</text>
</a>
</g>
</g>
<!-- Node2&#45;&gt;Node3 -->
<g id="edge2" class="edge">
<title>Node2&#45;&gt;Node3</title>
<path fill="none" stroke="midnightblue" d="M1476.06,-413.56C1458.17,-434.75 1425,-469.53 1388,-485.94 1354.23,-500.92 1124.86,-521.29 1009.69,-530.74"/>
<polygon fill="midnightblue" stroke="midnightblue" points="1478.91,-415.6 1482.56,-405.65 1473.5,-411.16 1478.91,-415.6"/>
</g>
<!-- Node4 -->
<g id="node4" class="node">
<title>Node4</title>
<g id="a_node4"><a xlink:href="classslljit_1_1_parser.html#ae2d3d6534b87da7f237c19129a464bda" target="_top" xlink:title="top ::= definition | external | expression | &#39;;&#39;">
<polygon fill="none" stroke="black" points="364.5,-548.44 364.5,-567.44 480.5,-567.44 480.5,-548.44 364.5,-548.44"/>
<text text-anchor="middle" x="422.5" y="-555.44" font-family="Helvetica,sans-Serif" font-size="10.00">slljit::Parser::MainLoop</text>
</a>
</g>
</g>
<!-- Node2&#45;&gt;Node4 -->
<g id="edge9" class="edge">
<title>Node2&#45;&gt;Node4</title>
<path fill="none" stroke="midnightblue" d="M1488.14,-415.58C1482.57,-462.35 1461.53,-580.51 1388,-634.94 1297.64,-701.82 1248.92,-661.94 1136.5,-661.94 1136.5,-661.94 1136.5,-661.94 757,-661.94 630.85,-661.94 489.53,-593.28 440.97,-567.54"/>
<polygon fill="midnightblue" stroke="midnightblue" points="1491.63,-415.85 1489.22,-405.54 1484.67,-415.1 1491.63,-415.85"/>
</g>
<!-- Node8 -->
<g id="node8" class="node">
<title>Node8</title>
<g id="a_node8"><a xlink:href="classslljit_1_1_parser.html#af0cac4623fc05b8b7ae9884b0aeb3d3f" target="_top" xlink:title=" ">
<polygon fill="none" stroke="black" points="522.5,-564.94 522.5,-594.94 653.5,-594.94 653.5,-564.94 522.5,-564.94"/>
<text text-anchor="start" x="530.5" y="-582.94" font-family="Helvetica,sans-Serif" font-size="10.00">slljit::Parser::HandleTyped</text>
<text text-anchor="middle" x="588" y="-571.94" font-family="Helvetica,sans-Serif" font-size="10.00">Expression</text>
</a>
</g>
</g>
<!-- Node2&#45;&gt;Node8 -->
<g id="edge7" class="edge">
<title>Node2&#45;&gt;Node8</title>
<path fill="none" stroke="midnightblue" d="M1486.99,-415.57C1479.29,-458.36 1454.56,-559.79 1388,-604.94 1295.24,-667.87 1248.6,-623.94 1136.5,-623.94 1136.5,-623.94 1136.5,-623.94 942,-623.94 830.13,-623.94 801.48,-622.54 691,-604.94 675.34,-602.44 658.54,-598.76 643.19,-594.98"/>
<polygon fill="midnightblue" stroke="midnightblue" points="1490.47,-416.03 1488.67,-405.59 1483.56,-414.87 1490.47,-416.03"/>
</g>
<!-- Node9 -->
<g id="node9" class="node">
<title>Node9</title>
<g id="a_node9"><a xlink:href="classslljit_1_1_parser.html#ae387c9672ec50720d8cb969558aedbe9" target="_top" xlink:title=" ">
<polygon fill="none" stroke="black" points="1260,-318.94 1260,-348.94 1374,-348.94 1374,-318.94 1260,-318.94"/>
<text text-anchor="start" x="1268" y="-336.94" font-family="Helvetica,sans-Serif" font-size="10.00">slljit::Parser::ParseBin</text>
<text text-anchor="middle" x="1317" y="-325.94" font-family="Helvetica,sans-Serif" font-size="10.00">OpRHS</text>
</a>
</g>
</g>
<!-- Node2&#45;&gt;Node9 -->
<g id="edge10" class="edge">
<title>Node2&#45;&gt;Node9</title>
<path fill="none" stroke="midnightblue" d="M1453.9,-382.93C1426.48,-373.04 1388.7,-359.42 1359.93,-349.05"/>
<polygon fill="midnightblue" stroke="midnightblue" points="1452.91,-386.29 1463.5,-386.39 1455.28,-379.7 1452.91,-386.29"/>
</g>
<!-- Node11 -->
<g id="node11" class="node">
<title>Node11</title>
<g id="a_node11"><a xlink:href="classslljit_1_1_parser.html#acc431005ac3dd38732083d7a1bb0eab2" target="_top" xlink:title=" ">
<polygon fill="none" stroke="black" points="861,-310.44 861,-329.44 1025,-329.44 1025,-310.44 861,-310.44"/>
<text text-anchor="middle" x="943" y="-317.44" font-family="Helvetica,sans-Serif" font-size="10.00">slljit::Parser::ParseExpressionList</text>
</a>
</g>
</g>
<!-- Node2&#45;&gt;Node11 -->
<g id="edge32" class="edge">
<title>Node2&#45;&gt;Node11</title>
<path fill="none" stroke="midnightblue" d="M1476.2,-378.23C1458.46,-357.05 1425.43,-322.73 1388,-308.94 1244.75,-256.14 1057.49,-291.6 979.99,-310.37"/>
<polygon fill="midnightblue" stroke="midnightblue" points="1473.62,-380.6 1482.64,-386.15 1479.05,-376.18 1473.62,-380.6"/>
</g>
<!-- Node12 -->
<g id="node12" class="node">
<title>Node12</title>
<g id="a_node12"><a xlink:href="classslljit_1_1_parser.html#a81023e7a6221eb6b92027bd21433c9dd" target="_top" xlink:title="forexpr ::= &#39;for&#39; identifier &#39;=&#39; expr &#39;,&#39; expr (&#39;,&#39; expr)? &#39;in&#39; expression">
<polygon fill="none" stroke="black" points="691,-291.44 691,-310.44 825,-310.44 825,-291.44 691,-291.44"/>
<text text-anchor="middle" x="758" y="-298.44" font-family="Helvetica,sans-Serif" font-size="10.00">slljit::Parser::ParseForExpr</text>
</a>
</g>
</g>
<!-- Node2&#45;&gt;Node12 -->
<g id="edge35" class="edge">
<title>Node2&#45;&gt;Node12</title>
<path fill="none" stroke="midnightblue" d="M1413.75,-395.66C1294.36,-393.75 1056.72,-383.98 861,-338.94 832.09,-332.28 800.27,-319.5 779.99,-310.61"/>
<polygon fill="midnightblue" stroke="midnightblue" points="1413.83,-399.16 1423.88,-395.81 1413.93,-392.16 1413.83,-399.16"/>
</g>
<!-- Node14 -->
<g id="node14" class="node">
<title>Node14</title>
<g id="a_node14"><a xlink:href="classslljit_1_1_parser.html#af8579896f39ac563d2edd14404d70f41" target="_top" xlink:title=" ">
<polygon fill="none" stroke="black" points="360,-310.44 360,-329.44 485,-329.44 485,-310.44 360,-310.44"/>
<text text-anchor="middle" x="422.5" y="-317.44" font-family="Helvetica,sans-Serif" font-size="10.00">slljit::Parser::ParseUnary</text>
</a>
</g>
</g>
<!-- Node2&#45;&gt;Node14 -->
<g id="edge44" class="edge">
<title>Node2&#45;&gt;Node14</title>
<path fill="none" stroke="midnightblue" d="M1425.3,-407.1C1354.58,-418.31 1237.84,-433.94 1136.5,-433.94 1136.5,-433.94 1136.5,-433.94 757,-433.94 628.2,-433.94 485.73,-356.86 439.15,-329.46"/>
<polygon fill="midnightblue" stroke="midnightblue" points="1426.07,-410.52 1435.39,-405.48 1424.96,-403.61 1426.07,-410.52"/>
</g>
<!-- Node15 -->
<g id="node15" class="node">
<title>Node15</title>
<g id="a_node15"><a xlink:href="classslljit_1_1_parser.html#a149f5e88cb03aa08c388e6320c6c1bac" target="_top" xlink:title="ifexpr ::= &#39;if&#39; expression &#39;then&#39; expression &#39;else&#39; expression">
<polygon fill="none" stroke="black" points="695.5,-196.44 695.5,-215.44 820.5,-215.44 820.5,-196.44 695.5,-196.44"/>
<text text-anchor="middle" x="758" y="-203.44" font-family="Helvetica,sans-Serif" font-size="10.00">slljit::Parser::ParseIfExpr</text>
</a>
</g>
</g>
<!-- Node2&#45;&gt;Node15 -->
<g id="edge37" class="edge">
<title>Node2&#45;&gt;Node15</title>
<path fill="none" stroke="midnightblue" d="M1488.53,-376.35C1483.76,-328.03 1464.27,-202.81 1388,-143.94 1295.11,-72.24 970.19,-67.97 861,-110.94 816.41,-128.49 779.78,-175.72 765.47,-196.22"/>
<polygon fill="midnightblue" stroke="midnightblue" points="1485.05,-376.76 1489.41,-386.41 1492.02,-376.15 1485.05,-376.76"/>
</g>
<!-- Node17 -->
<g id="node17" class="node">
<title>Node17</title>
<g id="a_node17"><a xlink:href="classslljit_1_1_parser.html#a25cfefcbeea85744e23370d3a6f8ad5b" target="_top" xlink:title=" ">
<polygon fill="none" stroke="black" points="865,-120.44 865,-139.44 1021,-139.44 1021,-120.44 865,-120.44"/>
<text text-anchor="middle" x="943" y="-127.44" font-family="Helvetica,sans-Serif" font-size="10.00">slljit::Parser::ParseIdentifierExpr</text>
</a>
</g>
</g>
<!-- Node2&#45;&gt;Node17 -->
<g id="edge36" class="edge">
<title>Node2&#45;&gt;Node17</title>
<path fill="none" stroke="midnightblue" d="M1484.93,-376.16C1474.06,-337.99 1444.79,-254.23 1388,-211.94 1279.87,-131.4 1116.61,-122.07 1021.11,-124.62"/>
<polygon fill="midnightblue" stroke="midnightblue" points="1481.61,-377.31 1487.61,-386.04 1488.37,-375.47 1481.61,-377.31"/>
</g>
<!-- Node18 -->
<g id="node18" class="node">
<title>Node18</title>
<g id="a_node18"><a xlink:href="classslljit_1_1_parser.html#a6e2e0f6a2cc445f3a956db59c8d2da66" target="_top" xlink:title="parenexpr ::= &#39;(&#39; expression &#39;)&#39;">
<polygon fill="none" stroke="black" points="870,-44.44 870,-63.44 1016,-63.44 1016,-44.44 870,-44.44"/>
<text text-anchor="middle" x="943" y="-51.44" font-family="Helvetica,sans-Serif" font-size="10.00">slljit::Parser::ParseParenExpr</text>
</a>
</g>
</g>
<!-- Node2&#45;&gt;Node18 -->
<g id="edge40" class="edge">
<title>Node2&#45;&gt;Node18</title>
<path fill="none" stroke="midnightblue" d="M1490.64,-376.06C1491.28,-318.7 1484.41,-152.33 1388,-77.94 1331.77,-34.55 1127,-41.14 1016.26,-48.27"/>
<polygon fill="midnightblue" stroke="midnightblue" points="1487.14,-376.22 1490.43,-386.29 1494.13,-376.37 1487.14,-376.22"/>
</g>
<!-- Node19 -->
<g id="node19" class="node">
<title>Node19</title>
<g id="a_node19"><a xlink:href="classslljit_1_1_parser.html#a435877d3f2869d140a7cca646546a114" target="_top" xlink:title="varexpr ::= &#39;g_var&#39; identifier (&#39;=&#39; expression)?">
<polygon fill="none" stroke="black" points="875.5,-158.44 875.5,-177.44 1010.5,-177.44 1010.5,-158.44 875.5,-158.44"/>
<text text-anchor="middle" x="943" y="-165.44" font-family="Helvetica,sans-Serif" font-size="10.00">slljit::Parser::ParseVarExpr</text>
</a>
</g>
</g>
<!-- Node2&#45;&gt;Node19 -->
<g id="edge45" class="edge">
<title>Node2&#45;&gt;Node19</title>
<path fill="none" stroke="midnightblue" d="M1478.55,-377.47C1461.74,-351.81 1427.99,-305.54 1388,-278.94 1270.57,-200.83 1102.53,-177.68 1010.52,-170.82"/>
<polygon fill="midnightblue" stroke="midnightblue" points="1475.81,-379.67 1484.14,-386.21 1481.7,-375.9 1475.81,-379.67"/>
</g>
<!-- Node20 -->
<g id="node20" class="node">
<title>Node20</title>
<g id="a_node20"><a xlink:href="classslljit_1_1_parser.html#af6e239a609e8a3812838b53f9a8356ce" target="_top" xlink:title="external ::= &#39;extern&#39; prototype">
<polygon fill="none" stroke="black" points="1071.5,-538.44 1071.5,-557.44 1199.5,-557.44 1199.5,-538.44 1071.5,-538.44"/>
<text text-anchor="middle" x="1135.5" y="-545.44" font-family="Helvetica,sans-Serif" font-size="10.00">slljit::Parser::ParseExtern</text>
</a>
</g>
</g>
<!-- Node2&#45;&gt;Node20 -->
<g id="edge33" class="edge">
<title>Node2&#45;&gt;Node20</title>
<path fill="none" stroke="midnightblue" d="M1481.31,-414.58C1466.65,-443.64 1434.04,-498.99 1388,-523.94 1329.86,-555.44 1252.99,-558.16 1199.6,-555.08"/>
<polygon fill="midnightblue" stroke="midnightblue" points="1484.5,-416.01 1485.74,-405.49 1478.21,-412.95 1484.5,-416.01"/>
</g>
<!-- Node21 -->
<g id="node21" class="node">
<title>Node21</title>
<g id="a_node21"><a xlink:href="classslljit_1_1_parser.html#af9ccc5948e2cf9051c2569cc42dc3bb7" target="_top" xlink:title="numberexpr ::= number">
<polygon fill="none" stroke="black" points="1062.5,-6.44 1062.5,-25.44 1208.5,-25.44 1208.5,-6.44 1062.5,-6.44"/>
<text text-anchor="middle" x="1135.5" y="-13.44" font-family="Helvetica,sans-Serif" font-size="10.00">slljit::Parser::ParseLiteralExpr</text>
</a>
</g>
</g>
<!-- Node2&#45;&gt;Node21 -->
<g id="edge38" class="edge">
<title>Node2&#45;&gt;Node21</title>
<path fill="none" stroke="midnightblue" d="M1487.22,-375.84C1477.3,-307.26 1441.4,-84.32 1388,-39.94 1329.98,8.28 1236.39,2.54 1181.22,-6.42"/>
<polygon fill="midnightblue" stroke="midnightblue" points="1483.81,-376.71 1488.68,-386.12 1490.74,-375.73 1483.81,-376.71"/>
</g>
<!-- Node22 -->
<g id="node22" class="node">
<title>Node22</title>
<g id="a_node22"><a xlink:href="classslljit_1_1_parser.html#ad51a4352241881b5c6d118db9ccdec46" target="_top" xlink:title=" ">
<polygon fill="none" stroke="black" points="1246,-576.44 1246,-595.44 1388,-595.44 1388,-576.44 1246,-576.44"/>
<text text-anchor="middle" x="1317" y="-583.44" font-family="Helvetica,sans-Serif" font-size="10.00">slljit::Parser::ParsePrototype</text>
</a>
</g>
</g>
<!-- Node2&#45;&gt;Node22 -->
<g id="edge41" class="edge">
<title>Node2&#45;&gt;Node22</title>
<path fill="none" stroke="midnightblue" d="M1483.06,-415.62C1469.89,-450.17 1438.04,-521.88 1388,-561.94 1380.18,-568.2 1370.62,-572.88 1361.12,-576.35"/>
<polygon fill="midnightblue" stroke="midnightblue" points="1486.5,-416.39 1486.67,-405.79 1479.93,-413.97 1486.5,-416.39"/>
</g>
<!-- Node23 -->
<g id="node23" class="node">
<title>Node23</title>
<g id="a_node23"><a xlink:href="classslljit_1_1_parser.html#a21a8e61fa506eba01fc73f5fb3c35420" target="_top" xlink:title=" ">
<polygon fill="none" stroke="black" points="231,-467.94 231,-497.94 319,-497.94 319,-467.94 231,-467.94"/>
<text text-anchor="start" x="239" y="-485.94" font-family="Helvetica,sans-Serif" font-size="10.00">slljit::Parser::set</text>
<text text-anchor="middle" x="275" y="-474.94" font-family="Helvetica,sans-Serif" font-size="10.00">_source</text>
</a>
</g>
</g>
<!-- Node2&#45;&gt;Node23 -->
<g id="edge46" class="edge">
<title>Node2&#45;&gt;Node23</title>
<path fill="none" stroke="midnightblue" d="M1460.55,-409.59C1440.49,-418.36 1413.13,-429.31 1388,-435.94 1278.82,-464.74 1249.42,-471.94 1136.5,-471.94 1136.5,-471.94 1136.5,-471.94 587,-471.94 491.37,-471.94 379.31,-477.2 319.25,-480.44"/>
<polygon fill="midnightblue" stroke="midnightblue" points="1462.05,-412.76 1469.76,-405.49 1459.2,-406.36 1462.05,-412.76"/>
</g>
<!-- Node3&#45;&gt;Node4 -->
<g id="edge3" class="edge">
<title>Node3&#45;&gt;Node4</title>
<path fill="none" stroke="midnightblue" d="M866.14,-539.16C761.33,-543.6 574.56,-551.53 480.69,-555.51"/>
<polygon fill="midnightblue" stroke="midnightblue" points="866.49,-542.65 876.33,-538.73 866.19,-535.65 866.49,-542.65"/>
</g>
<!-- Node5 -->
<g id="node5" class="node">
<title>Node5</title>
<g id="a_node5"><a xlink:href="classslljit_1_1_parser.html#a2429935f3c870648f9f895a7b2361cfb" target="_top" xlink:title=" ">
<polygon fill="none" stroke="black" points="226,-538.44 226,-557.44 324,-557.44 324,-538.44 226,-538.44"/>
<text text-anchor="middle" x="275" y="-545.44" font-family="Helvetica,sans-Serif" font-size="10.00">slljit::Parser::parse</text>
</a>
</g>
</g>
<!-- Node4&#45;&gt;Node5 -->
<g id="edge4" class="edge">
<title>Node4&#45;&gt;Node5</title>
<path fill="none" stroke="midnightblue" d="M354.39,-553.33C344.3,-552.63 334.05,-551.93 324.45,-551.27"/>
<polygon fill="midnightblue" stroke="midnightblue" points="354.2,-556.82 364.41,-554.02 354.68,-549.84 354.2,-556.82"/>
</g>
<!-- Node6 -->
<g id="node6" class="node">
<title>Node6</title>
<g id="a_node6"><a xlink:href="classslljit_1_1_program.html#ae4d26526a7dd9c69ebe92fb43736696b" target="_top" xlink:title=" ">
<polygon fill="none" stroke="black" points="74,-495.44 74,-514.44 190,-514.44 190,-495.44 74,-495.44"/>
<text text-anchor="middle" x="132" y="-502.44" font-family="Helvetica,sans-Serif" font-size="10.00">slljit::Program::compile</text>
</a>
</g>
</g>
<!-- Node5&#45;&gt;Node6 -->
<g id="edge5" class="edge">
<title>Node5&#45;&gt;Node6</title>
<path fill="none" stroke="midnightblue" d="M232.99,-535.43C211.05,-528.74 184.45,-520.63 164.2,-514.46"/>
<polygon fill="midnightblue" stroke="midnightblue" points="232.12,-538.83 242.71,-538.4 234.16,-532.13 232.12,-538.83"/>
</g>
<!-- Node7 -->
<g id="node7" class="node">
<title>Node7</title>
<g id="a_node7"><a xlink:href="compiler__cli_8cpp.html#a3c04138a5bfe5d72780bb7e82a18e627" target="_top" xlink:title=" ">
<polygon fill="none" stroke="black" points="0,-495.44 0,-514.44 38,-514.44 38,-495.44 0,-495.44"/>
<text text-anchor="middle" x="19" y="-502.44" font-family="Helvetica,sans-Serif" font-size="10.00">main</text>
</a>
</g>
</g>
<!-- Node6&#45;&gt;Node7 -->
<g id="edge6" class="edge">
<title>Node6&#45;&gt;Node7</title>
<path fill="none" stroke="midnightblue" d="M63.62,-504.94C54.3,-504.94 45.44,-504.94 38.18,-504.94"/>
<polygon fill="midnightblue" stroke="midnightblue" points="63.87,-508.44 73.87,-504.94 63.87,-501.44 63.87,-508.44"/>
</g>
<!-- Node8&#45;&gt;Node4 -->
<g id="edge8" class="edge">
<title>Node8&#45;&gt;Node4</title>
<path fill="none" stroke="midnightblue" d="M512.23,-569.88C501.57,-568.44 490.75,-566.99 480.5,-565.61"/>
<polygon fill="midnightblue" stroke="midnightblue" points="512,-573.38 522.38,-571.24 512.94,-566.44 512,-573.38"/>
</g>
<!-- Node9&#45;&gt;Node9 -->
<g id="edge11" class="edge">
<title>Node9&#45;&gt;Node9</title>
<path fill="none" stroke="midnightblue" d="M1347.92,-359.4C1344.08,-364.12 1333.77,-367.44 1317,-367.44 1289.47,-367.44 1279.36,-358.5 1286.68,-349.1"/>
<polygon fill="midnightblue" stroke="midnightblue" points="1351.39,-358.88 1347.32,-349.1 1344.41,-359.28 1351.39,-358.88"/>
</g>
<!-- Node10 -->
<g id="node10" class="node">
<title>Node10</title>
<g id="a_node10"><a xlink:href="classslljit_1_1_parser.html#a79461bf414d03dcabb49d3bbd6f89607" target="_top" xlink:title=" ">
<polygon fill="none" stroke="black" points="1061,-229.44 1061,-248.44 1210,-248.44 1210,-229.44 1061,-229.44"/>
<text text-anchor="middle" x="1135.5" y="-236.44" font-family="Helvetica,sans-Serif" font-size="10.00">slljit::Parser::ParseExpression</text>
</a>
</g>
</g>
<!-- Node9&#45;&gt;Node10 -->
<g id="edge12" class="edge">
<title>Node9&#45;&gt;Node10</title>
<path fill="none" stroke="midnightblue" d="M1278.38,-314.03C1240.58,-294.02 1183.89,-264.02 1154.94,-248.7"/>
<polygon fill="midnightblue" stroke="midnightblue" points="1277.08,-317.3 1287.56,-318.89 1280.36,-311.11 1277.08,-317.3"/>
</g>
<!-- Node10&#45;&gt;Node11 -->
<g id="edge13" class="edge">
<title>Node10&#45;&gt;Node11</title>
<path fill="none" stroke="midnightblue" d="M1105.69,-253.1C1092.08,-259.88 1075.63,-268.2 1061,-275.94 1044.82,-284.5 1041.88,-288.85 1025,-295.94 1011.48,-301.62 996.16,-306.52 982.51,-310.39"/>
<polygon fill="midnightblue" stroke="midnightblue" points="1107.64,-256.04 1115.05,-248.46 1104.53,-249.77 1107.64,-256.04"/>
</g>
<!-- Node10&#45;&gt;Node12 -->
<g id="edge24" class="edge">
<title>Node10&#45;&gt;Node12</title>
<path fill="none" stroke="midnightblue" d="M1070.12,-250.24C1055.31,-252.8 1039.61,-255.49 1025,-257.94 954.41,-269.77 873.18,-282.82 819.25,-291.4"/>
<polygon fill="midnightblue" stroke="midnightblue" points="1070.96,-253.64 1080.22,-248.49 1069.77,-246.75 1070.96,-253.64"/>
</g>
<!-- Node10&#45;&gt;Node15 -->
<g id="edge27" class="edge">
<title>Node10&#45;&gt;Node15</title>
<path fill="none" stroke="midnightblue" d="M1050.69,-231.57C981.03,-225.45 883.48,-216.88 820.76,-211.37"/>
<polygon fill="midnightblue" stroke="midnightblue" points="1050.49,-235.07 1060.76,-232.46 1051.11,-228.1 1050.49,-235.07"/>
</g>
<!-- Node10&#45;&gt;Node17 -->
<g id="edge25" class="edge">
<title>Node10&#45;&gt;Node17</title>
<path fill="none" stroke="midnightblue" d="M1118.87,-222.03C1099.02,-201.59 1062.78,-167.62 1025,-148.94 1017.23,-145.1 1008.65,-142.01 1000.08,-139.54"/>
<polygon fill="midnightblue" stroke="midnightblue" points="1116.44,-224.55 1125.87,-229.38 1121.51,-219.73 1116.44,-224.55"/>
</g>
<!-- Node10&#45;&gt;Node18 -->
<g id="edge28" class="edge">
<title>Node10&#45;&gt;Node18</title>
<path fill="none" stroke="midnightblue" d="M1121.51,-221.07C1102.17,-195.14 1063.89,-146.32 1025,-110.94 1004.27,-92.08 977.1,-74.13 960.09,-63.57"/>
<polygon fill="midnightblue" stroke="midnightblue" points="1118.78,-223.26 1127.53,-229.23 1124.41,-219.11 1118.78,-223.26"/>
</g>
<!-- Node10&#45;&gt;Node19 -->
<g id="edge30" class="edge">
<title>Node10&#45;&gt;Node19</title>
<path fill="none" stroke="midnightblue" d="M1104.83,-225.08C1083.02,-215.17 1052.5,-201.88 1025,-191.94 1010.24,-186.61 993.67,-181.54 979.38,-177.45"/>
<polygon fill="midnightblue" stroke="midnightblue" points="1103.65,-228.39 1114.2,-229.37 1106.57,-222.03 1103.65,-228.39"/>
</g>
<!-- Node11&#45;&gt;Node12 -->
<g id="edge14" class="edge">
<title>Node11&#45;&gt;Node12</title>
<path fill="none" stroke="midnightblue" d="M850.81,-310.47C842.17,-309.57 833.53,-308.68 825.19,-307.81"/>
<polygon fill="midnightblue" stroke="midnightblue" points="850.63,-313.97 860.93,-311.52 851.35,-307.01 850.63,-313.97"/>
</g>
<!-- Node11&#45;&gt;Node15 -->
<g id="edge20" class="edge">
<title>Node11&#45;&gt;Node15</title>
<path fill="none" stroke="midnightblue" d="M917.79,-304.86C879.54,-281.03 806.2,-235.34 774.37,-215.52"/>
<polygon fill="midnightblue" stroke="midnightblue" points="916.37,-308.1 926.71,-310.42 920.08,-302.16 916.37,-308.1"/>
</g>
<!-- Node16 -->
<g id="node16" class="node">
<title>Node16</title>
<g id="a_node16"><a xlink:href="classslljit_1_1_parser.html#aa9a9ce164e114ad7f347f32329f5a5a2" target="_top" xlink:title="definition ::= &#39;def&#39; prototype expression">
<polygon fill="none" stroke="black" points="700,-564.94 700,-594.94 816,-594.94 816,-564.94 700,-564.94"/>
<text text-anchor="start" x="708" y="-582.94" font-family="Helvetica,sans-Serif" font-size="10.00">slljit::Parser::ParseTop</text>
<text text-anchor="middle" x="758" y="-571.94" font-family="Helvetica,sans-Serif" font-size="10.00">LevelTypedExpression</text>
</a>
</g>
</g>
<!-- Node11&#45;&gt;Node16 -->
<g id="edge22" class="edge">
<title>Node11&#45;&gt;Node16</title>
<path fill="none" stroke="midnightblue" d="M929.46,-337.76C895.37,-386.18 801.48,-519.59 769.68,-564.76"/>
<polygon fill="midnightblue" stroke="midnightblue" points="932.38,-339.69 935.27,-329.5 926.65,-335.66 932.38,-339.69"/>
</g>
<!-- Node13 -->
<g id="node13" class="node">
<title>Node13</title>
<g id="a_node13"><a xlink:href="classslljit_1_1_parser.html#a45cb3e4f600e8e2c253490e7d878e8cd" target="_top" xlink:title=" ">
<polygon fill="none" stroke="black" points="521,-158.44 521,-177.44 655,-177.44 655,-158.44 521,-158.44"/>
<text text-anchor="middle" x="588" y="-165.44" font-family="Helvetica,sans-Serif" font-size="10.00">slljit::Parser::ParsePrimary</text>
</a>
</g>
</g>
<!-- Node12&#45;&gt;Node13 -->
<g id="edge15" class="edge">
<title>Node12&#45;&gt;Node13</title>
<path fill="none" stroke="midnightblue" d="M736.81,-284.96C701.65,-257.12 630.21,-200.56 601.43,-177.78"/>
<polygon fill="midnightblue" stroke="midnightblue" points="734.9,-287.91 744.92,-291.37 739.25,-282.42 734.9,-287.91"/>
</g>
<!-- Node13&#45;&gt;Node14 -->
<g id="edge16" class="edge">
<title>Node13&#45;&gt;Node14</title>
<path fill="none" stroke="midnightblue" d="M569.37,-184.33C535.2,-216.1 460.9,-285.17 433.72,-310.43"/>
<polygon fill="midnightblue" stroke="midnightblue" points="571.83,-186.82 576.77,-177.45 567.07,-181.69 571.83,-186.82"/>
</g>
<!-- Node14&#45;&gt;Node9 -->
<g id="edge17" class="edge">
<title>Node14&#45;&gt;Node9</title>
<path fill="none" stroke="midnightblue" d="M495.3,-324.01C581.95,-328.71 732.09,-336.14 861,-338.94 933.87,-340.52 952.11,-339.57 1025,-338.94 1106.73,-338.24 1201.35,-336.43 1259.95,-335.19"/>
<polygon fill="midnightblue" stroke="midnightblue" points="495.23,-320.51 485.06,-323.46 494.85,-327.49 495.23,-320.51"/>
</g>
<!-- Node14&#45;&gt;Node10 -->
<g id="edge18" class="edge">
<title>Node14&#45;&gt;Node10</title>
<path fill="none" stroke="midnightblue" d="M495.26,-309.73C549.12,-302.07 624.68,-291.33 691,-281.94 766.55,-271.24 785.11,-265.92 861,-257.94 928.57,-250.83 1005.83,-245.74 1060.95,-242.63"/>
<polygon fill="midnightblue" stroke="midnightblue" points="494.53,-306.3 485.12,-311.17 495.51,-313.23 494.53,-306.3"/>
</g>
<!-- Node14&#45;&gt;Node14 -->
<g id="edge19" class="edge">
<title>Node14&#45;&gt;Node14</title>
<path fill="none" stroke="midnightblue" d="M449.75,-338.59C448.61,-343.88 439.53,-347.94 422.5,-347.94 396.55,-347.94 389.05,-338.5 400,-329.7"/>
<polygon fill="midnightblue" stroke="midnightblue" points="452.8,-336.87 445,-329.7 446.62,-340.17 452.8,-336.87"/>
</g>
<!-- Node15&#45;&gt;Node13 -->
<g id="edge21" class="edge">
<title>Node15&#45;&gt;Node13</title>
<path fill="none" stroke="midnightblue" d="M704.72,-194.11C681.04,-188.76 653.41,-182.51 631.09,-177.46"/>
<polygon fill="midnightblue" stroke="midnightblue" points="704.08,-197.56 714.61,-196.35 705.63,-190.73 704.08,-197.56"/>
</g>
<!-- Node16&#45;&gt;Node8 -->
<g id="edge23" class="edge">
<title>Node16&#45;&gt;Node8</title>
<path fill="none" stroke="midnightblue" d="M689.41,-579.94C677.59,-579.94 665.32,-579.94 653.59,-579.94"/>
<polygon fill="midnightblue" stroke="midnightblue" points="689.65,-583.44 699.65,-579.94 689.65,-576.44 689.65,-583.44"/>
</g>
<!-- Node17&#45;&gt;Node13 -->
<g id="edge26" class="edge">
<title>Node17&#45;&gt;Node13</title>
<path fill="none" stroke="midnightblue" d="M854.85,-139.32C793.13,-145.96 711.6,-154.74 655.18,-160.81"/>
<polygon fill="midnightblue" stroke="midnightblue" points="855.4,-142.78 864.97,-138.23 854.65,-135.82 855.4,-142.78"/>
</g>
<!-- Node18&#45;&gt;Node13 -->
<g id="edge29" class="edge">
<title>Node18&#45;&gt;Node13</title>
<path fill="none" stroke="midnightblue" d="M899.2,-66.35C886.85,-70 873.37,-74.06 861,-77.94 771.53,-105.99 666.35,-141.53 617.1,-158.32"/>
<polygon fill="midnightblue" stroke="midnightblue" points="900.22,-69.69 908.82,-63.51 898.24,-62.98 900.22,-69.69"/>
</g>
<!-- Node19&#45;&gt;Node13 -->
<g id="edge31" class="edge">
<title>Node19&#45;&gt;Node13</title>
<path fill="none" stroke="midnightblue" d="M864.96,-167.94C802.3,-167.94 714.8,-167.94 655.24,-167.94"/>
<polygon fill="midnightblue" stroke="midnightblue" points="865.19,-171.44 875.19,-167.94 865.19,-164.44 865.19,-171.44"/>
</g>
<!-- Node20&#45;&gt;Node3 -->
<g id="edge34" class="edge">
<title>Node20&#45;&gt;Node3</title>
<path fill="none" stroke="midnightblue" d="M1060.95,-543.31C1044.03,-542.24 1026.16,-541.11 1009.61,-540.07"/>
<polygon fill="midnightblue" stroke="midnightblue" points="1061.13,-546.82 1071.33,-543.96 1061.57,-539.84 1061.13,-546.82"/>
</g>
<!-- Node21&#45;&gt;Node13 -->
<g id="edge39" class="edge">
<title>Node21&#45;&gt;Node13</title>
<path fill="none" stroke="midnightblue" d="M1051.91,-13.47C958.93,-14.08 805.87,-25.51 691,-85.94 652.79,-106.04 615.11,-141.47 598.22,-158.41"/>
<polygon fill="midnightblue" stroke="midnightblue" points="1052.12,-16.97 1062.11,-13.44 1052.1,-9.97 1052.12,-16.97"/>
</g>
<!-- Node22&#45;&gt;Node16 -->
<g id="edge43" class="edge">
<title>Node22&#45;&gt;Node16</title>
<path fill="none" stroke="midnightblue" d="M1235.68,-585.07C1121.8,-583.85 916.18,-581.63 816.4,-580.56"/>
<polygon fill="midnightblue" stroke="midnightblue" points="1235.7,-588.57 1245.74,-585.18 1235.78,-581.57 1235.7,-588.57"/>
</g>
<!-- Node22&#45;&gt;Node20 -->
<g id="edge42" class="edge">
<title>Node22&#45;&gt;Node20</title>
<path fill="none" stroke="midnightblue" d="M1260.82,-574.26C1235.37,-568.87 1205.53,-562.55 1181.47,-557.46"/>
<polygon fill="midnightblue" stroke="midnightblue" points="1260.2,-577.7 1270.7,-576.35 1261.65,-570.85 1260.2,-577.7"/>
</g>
<!-- Node23&#45;&gt;Node6 -->
<g id="edge47" class="edge">
<title>Node23&#45;&gt;Node6</title>
<path fill="none" stroke="midnightblue" d="M221.03,-491.2C210.93,-492.78 200.32,-494.43 190.1,-496.03"/>
<polygon fill="midnightblue" stroke="midnightblue" points="221.59,-494.66 230.93,-489.66 220.51,-487.74 221.59,-494.66"/>
</g>
</g>
</svg>
