<?xml version="1.0" encoding="UTF-8" standalone="no"?>
<!DOCTYPE svg PUBLIC "-//W3C//DTD SVG 1.1//EN"
 "http://www.w3.org/Graphics/SVG/1.1/DTD/svg11.dtd">
<!-- Generated by graphviz version 3.0.0 (20220226.1711)
 -->
<!-- Title: slljit::Parser::ParseParenExpr Pages: 1 -->
<svg width="1701pt" height="921pt"
 viewBox="0.00 0.00 1701.00 920.80" xmlns="http://www.w3.org/2000/svg" xmlns:xlink="http://www.w3.org/1999/xlink">
<g id="graph0" class="graph" transform="scale(1 1) rotate(0) translate(4 916.8)">
<title>slljit::Parser::ParseParenExpr</title>
<!-- Node1 -->
<g id="node1" class="node">
<title>Node1</title>
<g id="a_node1"><a xlink:title="parenexpr ::= &#39;(&#39; expression &#39;)&#39;">
<polygon fill="#bfbfbf" stroke="black" points="0,-414.12 0,-433.12 146,-433.12 146,-414.12 0,-414.12"/>
<text text-anchor="middle" x="73" y="-421.12" font-family="Helvetica,sans-Serif" font-size="10.00">slljit::Parser::ParseParenExpr</text>
</a>
</g>
</g>
<!-- Node2 -->
<g id="node2" class="node">
<title>Node2</title>
<g id="a_node2"><a xlink:href="classslljit_1_1_tokenizer.html#a0baa2e9dbe626f0475ee4206f16bbb4e" target="_top" xlink:title=" ">
<polygon fill="none" stroke="black" points="1288,-519.62 1288,-549.62 1392,-549.62 1392,-519.62 1288,-519.62"/>
<text text-anchor="start" x="1296" y="-537.62" font-family="Helvetica,sans-Serif" font-size="10.00">slljit::Tokenizer::</text>
<text text-anchor="middle" x="1340" y="-526.62" font-family="Helvetica,sans-Serif" font-size="10.00">get_source_location</text>
</a>
</g>
</g>
<!-- Node1&#45;&gt;Node2 -->
<g id="edge1" class="edge">
<title>Node1&#45;&gt;Node2</title>
<path fill="none" stroke="midnightblue" d="M76.03,-433.39C90.64,-500.6 185.83,-891.62 423,-891.62 423,-891.62 423,-891.62 960,-891.62 1083.4,-891.62 1140.51,-949.55 1237,-872.62 1287.26,-832.55 1323.63,-631.27 1335.13,-559.82"/>
<polygon fill="midnightblue" stroke="midnightblue" points="1338.6,-560.31 1336.71,-549.88 1331.69,-559.21 1338.6,-560.31"/>
</g>
<!-- Node3 -->
<g id="node3" class="node">
<title>Node3</title>
<g id="a_node3"><a xlink:href="classslljit_1_1_parser.html#a9fcfefd86a6000dcb40fa737361ea55b" target="_top" xlink:title="GetTokPrecedence &#45; Get the precedence of the pending binary operator token.">
<polygon fill="none" stroke="black" points="1273,-291.12 1273,-310.12 1407,-310.12 1407,-291.12 1273,-291.12"/>
<text text-anchor="middle" x="1340" y="-298.12" font-family="Helvetica,sans-Serif" font-size="10.00">slljit::Parser::getNextToken</text>
</a>
</g>
</g>
<!-- Node1&#45;&gt;Node3 -->
<g id="edge2" class="edge">
<title>Node1&#45;&gt;Node3</title>
<path fill="none" stroke="midnightblue" d="M76.77,-413.84C95.12,-351.45 205.05,-11.62 423,-11.62 423,-11.62 423,-11.62 960,-11.62 1084.04,-11.62 1138.73,30.06 1237,-45.62 1314.12,-105 1333.1,-231.82 1337.63,-280.77"/>
<polygon fill="midnightblue" stroke="midnightblue" points="1334.16,-281.29 1338.47,-290.97 1341.14,-280.72 1334.16,-281.29"/>
</g>
<!-- Node11 -->
<g id="node11" class="node">
<title>Node11</title>
<g id="a_node11"><a xlink:href="classslljit_1_1_parser.html#a79461bf414d03dcabb49d3bbd6f89607" target="_top" xlink:title=" ">
<polygon fill="none" stroke="black" points="182,-260.12 182,-279.12 331,-279.12 331,-260.12 182,-260.12"/>
<text text-anchor="middle" x="256.5" y="-267.12" font-family="Helvetica,sans-Serif" font-size="10.00">slljit::Parser::ParseExpression</text>
</a>
</g>
</g>
<!-- Node1&#45;&gt;Node11 -->
<g id="edge11" class="edge">
<title>Node1&#45;&gt;Node11</title>
<path fill="none" stroke="midnightblue" d="M85.35,-413.99C115.66,-388.27 198.7,-317.81 236.41,-285.81"/>
<polygon fill="midnightblue" stroke="midnightblue" points="238.79,-288.39 244.15,-279.25 234.26,-283.05 238.79,-288.39"/>
</g>
<!-- Node4 -->
<g id="node4" class="node">
<title>Node4</title>
<g id="a_node4"><a xlink:href="classslljit_1_1_tokenizer.html#a4f0b343321f5e4561a80e47a5cec05d2" target="_top" xlink:title=" ">
<polygon fill="none" stroke="black" points="1443,-285.62 1443,-315.62 1531,-315.62 1531,-285.62 1443,-285.62"/>
<text text-anchor="start" x="1451" y="-303.62" font-family="Helvetica,sans-Serif" font-size="10.00">slljit::Tokenizer::</text>
<text text-anchor="middle" x="1487" y="-292.62" font-family="Helvetica,sans-Serif" font-size="10.00">gettok</text>
</a>
</g>
</g>
<!-- Node3&#45;&gt;Node4 -->
<g id="edge3" class="edge">
<title>Node3&#45;&gt;Node4</title>
<path fill="none" stroke="midnightblue" d="M1407.14,-300.62C1415.64,-300.62 1424.27,-300.62 1432.54,-300.62"/>
<polygon fill="midnightblue" stroke="midnightblue" points="1432.79,-304.12 1442.79,-300.62 1432.79,-297.12 1432.79,-304.12"/>
</g>
<!-- Node4&#45;&gt;Node4 -->
<g id="edge5" class="edge">
<title>Node4&#45;&gt;Node4</title>
<path fill="none" stroke="midnightblue" d="M1462.25,-315.78C1456.29,-325.18 1464.54,-334.12 1487,-334.12 1500.69,-334.12 1509.1,-330.8 1512.23,-326.08"/>
<polygon fill="midnightblue" stroke="midnightblue" points="1515.71,-325.6 1511.75,-315.78 1508.72,-325.93 1515.71,-325.6"/>
</g>
<!-- Node5 -->
<g id="node5" class="node">
<title>Node5</title>
<g id="a_node5"><a xlink:href="classslljit_1_1_tokenizer.html#aebe79ebb0da26fa5e89963683d474402" target="_top" xlink:title=" ">
<polygon fill="none" stroke="black" points="1586,-408.62 1586,-438.62 1674,-438.62 1674,-408.62 1586,-408.62"/>
<text text-anchor="start" x="1594" y="-426.62" font-family="Helvetica,sans-Serif" font-size="10.00">slljit::Tokenizer::</text>
<text text-anchor="middle" x="1630" y="-415.62" font-family="Helvetica,sans-Serif" font-size="10.00">_getchar</text>
</a>
</g>
</g>
<!-- Node4&#45;&gt;Node5 -->
<g id="edge4" class="edge">
<title>Node4&#45;&gt;Node5</title>
<path fill="none" stroke="midnightblue" d="M1496.83,-315.92C1509.76,-337.12 1535.75,-375.46 1567,-398.62 1570.02,-400.86 1573.27,-402.93 1576.64,-404.84"/>
<polygon fill="midnightblue" stroke="midnightblue" points="1575.29,-408.08 1585.78,-409.54 1578.49,-401.86 1575.29,-408.08"/>
</g>
<!-- Node6 -->
<g id="node6" class="node">
<title>Node6</title>
<g id="a_node6"><a xlink:href="classslljit_1_1_tokenizer.html#ac5b5748065cb054e0f34d995d1f3edce" target="_top" xlink:title=" ">
<polygon fill="none" stroke="black" points="1586,-359.62 1586,-389.62 1674,-389.62 1674,-359.62 1586,-359.62"/>
<text text-anchor="start" x="1594" y="-377.62" font-family="Helvetica,sans-Serif" font-size="10.00">slljit::Tokenizer::</text>
<text text-anchor="middle" x="1630" y="-366.62" font-family="Helvetica,sans-Serif" font-size="10.00">is_id_char</text>
</a>
</g>
</g>
<!-- Node4&#45;&gt;Node6 -->
<g id="edge6" class="edge">
<title>Node4&#45;&gt;Node6</title>
<path fill="none" stroke="midnightblue" d="M1510.22,-315.83C1525.73,-326.09 1547.14,-339.55 1567,-349.62 1571.01,-351.65 1575.23,-353.64 1579.49,-355.55"/>
<polygon fill="midnightblue" stroke="midnightblue" points="1578.29,-358.85 1588.86,-359.61 1581.07,-352.42 1578.29,-358.85"/>
</g>
<!-- Node7 -->
<g id="node7" class="node">
<title>Node7</title>
<g id="a_node7"><a xlink:href="classslljit_1_1_tokenizer.html#afddb21e93063a4c2338c2d42e23d18d2" target="_top" xlink:title=" ">
<polygon fill="none" stroke="black" points="1586,-310.62 1586,-340.62 1674,-340.62 1674,-310.62 1586,-310.62"/>
<text text-anchor="start" x="1594" y="-328.62" font-family="Helvetica,sans-Serif" font-size="10.00">slljit::Tokenizer::</text>
<text text-anchor="middle" x="1630" y="-317.62" font-family="Helvetica,sans-Serif" font-size="10.00">is_id_start_char</text>
</a>
</g>
</g>
<!-- Node4&#45;&gt;Node7 -->
<g id="edge7" class="edge">
<title>Node4&#45;&gt;Node7</title>
<path fill="none" stroke="midnightblue" d="M1531.07,-308.26C1545.15,-310.75 1560.96,-313.56 1575.71,-316.17"/>
<polygon fill="midnightblue" stroke="midnightblue" points="1575.25,-319.64 1585.71,-317.94 1576.47,-312.75 1575.25,-319.64"/>
</g>
<!-- Node8 -->
<g id="node8" class="node">
<title>Node8</title>
<g id="a_node8"><a xlink:href="classslljit_1_1_tokenizer.html#ada986d1651ab242c370288c198cd726d" target="_top" xlink:title=" ">
<polygon fill="none" stroke="black" points="1567,-261.62 1567,-291.62 1693,-291.62 1693,-261.62 1567,-261.62"/>
<text text-anchor="start" x="1575" y="-279.62" font-family="Helvetica,sans-Serif" font-size="10.00">slljit::Tokenizer::</text>
<text text-anchor="middle" x="1630" y="-268.62" font-family="Helvetica,sans-Serif" font-size="10.00">is_reserved_command_id</text>
</a>
</g>
</g>
<!-- Node4&#45;&gt;Node8 -->
<g id="edge8" class="edge">
<title>Node4&#45;&gt;Node8</title>
<path fill="none" stroke="midnightblue" d="M1531.07,-293.29C1539.31,-291.89 1548.14,-290.38 1557,-288.87"/>
<polygon fill="midnightblue" stroke="midnightblue" points="1557.72,-292.3 1566.99,-287.17 1556.54,-285.4 1557.72,-292.3"/>
</g>
<!-- Node9 -->
<g id="node9" class="node">
<title>Node9</title>
<g id="a_node9"><a xlink:href="classslljit_1_1_tokenizer.html#ab29a7d2f06bb354a3f748106f5ea3e6c" target="_top" xlink:title=" ">
<polygon fill="none" stroke="black" points="1585.5,-212.62 1585.5,-242.62 1674.5,-242.62 1674.5,-212.62 1585.5,-212.62"/>
<text text-anchor="start" x="1593.5" y="-230.62" font-family="Helvetica,sans-Serif" font-size="10.00">slljit::Tokenizer::</text>
<text text-anchor="middle" x="1630" y="-219.62" font-family="Helvetica,sans-Serif" font-size="10.00">is_special_literal</text>
</a>
</g>
</g>
<!-- Node4&#45;&gt;Node9 -->
<g id="edge9" class="edge">
<title>Node4&#45;&gt;Node9</title>
<path fill="none" stroke="midnightblue" d="M1509.84,-285.54C1525.36,-275.21 1546.92,-261.62 1567,-251.62 1570.35,-249.95 1573.84,-248.32 1577.39,-246.74"/>
<polygon fill="midnightblue" stroke="midnightblue" points="1579.02,-249.85 1586.85,-242.71 1576.28,-243.41 1579.02,-249.85"/>
</g>
<!-- Node10 -->
<g id="node10" class="node">
<title>Node10</title>
<g id="a_node10"><a xlink:href="classslljit_1_1_tokenizer.html#ae5cc0911ed858f6bc7bf206928cd66ae" target="_top" xlink:title=" ">
<polygon fill="none" stroke="black" points="1586,-163.62 1586,-193.62 1674,-193.62 1674,-163.62 1586,-163.62"/>
<text text-anchor="start" x="1594" y="-181.62" font-family="Helvetica,sans-Serif" font-size="10.00">slljit::Tokenizer::</text>
<text text-anchor="middle" x="1630" y="-170.62" font-family="Helvetica,sans-Serif" font-size="10.00">set_lok_location</text>
</a>
</g>
</g>
<!-- Node4&#45;&gt;Node10 -->
<g id="edge10" class="edge">
<title>Node4&#45;&gt;Node10</title>
<path fill="none" stroke="midnightblue" d="M1496.57,-285.62C1509.37,-264.41 1535.41,-225.69 1567,-202.62 1570.02,-200.41 1573.27,-198.38 1576.64,-196.51"/>
<polygon fill="midnightblue" stroke="midnightblue" points="1578.4,-199.55 1585.78,-191.95 1575.27,-193.29 1578.4,-199.55"/>
</g>
<!-- Node12 -->
<g id="node12" class="node">
<title>Node12</title>
<g id="a_node12"><a xlink:href="classslljit_1_1_parser.html#ae387c9672ec50720d8cb969558aedbe9" target="_top" xlink:title=" ">
<polygon fill="none" stroke="black" points="367,-185.62 367,-215.62 481,-215.62 481,-185.62 367,-185.62"/>
<text text-anchor="start" x="375" y="-203.62" font-family="Helvetica,sans-Serif" font-size="10.00">slljit::Parser::ParseBin</text>
<text text-anchor="middle" x="424" y="-192.62" font-family="Helvetica,sans-Serif" font-size="10.00">OpRHS</text>
</a>
</g>
</g>
<!-- Node11&#45;&gt;Node12 -->
<g id="edge12" class="edge">
<title>Node11&#45;&gt;Node12</title>
<path fill="none" stroke="midnightblue" d="M280.51,-260.02C305.46,-249.62 345.93,-232.75 377.38,-219.64"/>
<polygon fill="midnightblue" stroke="midnightblue" points="378.94,-222.78 386.82,-215.7 376.24,-216.32 378.94,-222.78"/>
</g>
<!-- Node14 -->
<g id="node14" class="node">
<title>Node14</title>
<g id="a_node14"><a xlink:href="classslljit_1_1_parser.html#af8579896f39ac563d2edd14404d70f41" target="_top" xlink:title=" ">
<polygon fill="none" stroke="black" points="533.5,-116.12 533.5,-135.12 658.5,-135.12 658.5,-116.12 533.5,-116.12"/>
<text text-anchor="middle" x="596" y="-123.12" font-family="Helvetica,sans-Serif" font-size="10.00">slljit::Parser::ParseUnary</text>
</a>
</g>
</g>
<!-- Node11&#45;&gt;Node14 -->
<g id="edge59" class="edge">
<title>Node11&#45;&gt;Node14</title>
<path fill="none" stroke="midnightblue" d="M265.74,-259.86C282.63,-240.55 323.28,-197.42 367,-175.62 415.99,-151.19 476.76,-138.62 523.24,-132.19"/>
<polygon fill="midnightblue" stroke="midnightblue" points="523.78,-135.65 533.23,-130.88 522.86,-128.71 523.78,-135.65"/>
</g>
<!-- Node12&#45;&gt;Node3 -->
<g id="edge13" class="edge">
<title>Node12&#45;&gt;Node3</title>
<path fill="none" stroke="midnightblue" d="M481.1,-191.79C654.12,-165.08 1171.67,-89.19 1237,-126.62 1296.18,-160.52 1324.35,-243.56 1334.44,-281.34"/>
<polygon fill="midnightblue" stroke="midnightblue" points="1331.07,-282.28 1336.91,-291.11 1337.86,-280.56 1331.07,-282.28"/>
</g>
<!-- Node12&#45;&gt;Node12 -->
<g id="edge15" class="edge">
<title>Node12&#45;&gt;Node12</title>
<path fill="none" stroke="midnightblue" d="M395.07,-215.78C388.1,-225.18 397.74,-234.12 424,-234.12 440,-234.12 449.84,-230.8 453.5,-226.08"/>
<polygon fill="midnightblue" stroke="midnightblue" points="456.97,-225.57 452.93,-215.78 449.98,-225.95 456.97,-225.57"/>
</g>
<!-- Node13 -->
<g id="node13" class="node">
<title>Node13</title>
<g id="a_node13"><a xlink:href="classslljit_1_1_parser.html#a8485bea3e380a80c8296092996c9ef96" target="_top" xlink:title="Get the precedence of the pending binary operator token.">
<polygon fill="none" stroke="black" points="517,-210.12 517,-229.12 675,-229.12 675,-210.12 517,-210.12"/>
<text text-anchor="middle" x="596" y="-217.12" font-family="Helvetica,sans-Serif" font-size="10.00">slljit::Parser::GetTokPrecedence</text>
</a>
</g>
</g>
<!-- Node12&#45;&gt;Node13 -->
<g id="edge14" class="edge">
<title>Node12&#45;&gt;Node13</title>
<path fill="none" stroke="midnightblue" d="M481.14,-206.89C489.34,-207.81 497.95,-208.77 506.6,-209.74"/>
<polygon fill="midnightblue" stroke="midnightblue" points="506.44,-213.24 516.77,-210.87 507.22,-206.29 506.44,-213.24"/>
</g>
<!-- Node12&#45;&gt;Node14 -->
<g id="edge16" class="edge">
<title>Node12&#45;&gt;Node14</title>
<path fill="none" stroke="midnightblue" d="M459.4,-185.44C489.91,-171.98 534.09,-152.49 563.64,-139.45"/>
<polygon fill="midnightblue" stroke="midnightblue" points="565.33,-142.53 573.06,-135.3 562.5,-136.13 565.33,-142.53"/>
</g>
<!-- Node14&#45;&gt;Node3 -->
<g id="edge17" class="edge">
<title>Node14&#45;&gt;Node3</title>
<path fill="none" stroke="midnightblue" d="M637.54,-116.05C762.22,-87.58 1137.55,-9.28 1237,-73.62 1310.24,-121 1331.4,-234.83 1337.07,-280.83"/>
<polygon fill="midnightblue" stroke="midnightblue" points="1333.62,-281.43 1338.2,-290.98 1340.57,-280.66 1333.62,-281.43"/>
</g>
<!-- Node14&#45;&gt;Node14 -->
<g id="edge58" class="edge">
<title>Node14&#45;&gt;Node14</title>
<path fill="none" stroke="midnightblue" d="M569.49,-135.38C556.59,-144.18 565.43,-153.62 596,-153.62 616.54,-153.62 627.27,-149.36 628.19,-143.89"/>
<polygon fill="midnightblue" stroke="midnightblue" points="630.97,-141.76 622.51,-135.38 625.14,-145.64 630.97,-141.76"/>
</g>
<!-- Node15 -->
<g id="node15" class="node">
<title>Node15</title>
<g id="a_node15"><a xlink:href="classslljit_1_1_parser.html#a45cb3e4f600e8e2c253490e7d878e8cd" target="_top" xlink:title=" ">
<polygon fill="none" stroke="black" points="711,-376.12 711,-395.12 845,-395.12 845,-376.12 711,-376.12"/>
<text text-anchor="middle" x="778" y="-383.12" font-family="Helvetica,sans-Serif" font-size="10.00">slljit::Parser::ParsePrimary</text>
</a>
</g>
</g>
<!-- Node14&#45;&gt;Node15 -->
<g id="edge18" class="edge">
<title>Node14&#45;&gt;Node15</title>
<path fill="none" stroke="midnightblue" d="M609.19,-135.33C625.55,-148.77 654.87,-174.39 675,-200.62 717.49,-256 753.18,-331.28 768.69,-366.27"/>
<polygon fill="midnightblue" stroke="midnightblue" points="765.63,-368 772.84,-375.76 772.05,-365.2 765.63,-368"/>
</g>
<!-- Node15&#45;&gt;Node1 -->
<g id="edge49" class="edge">
<title>Node15&#45;&gt;Node1</title>
<path fill="none" stroke="midnightblue" d="M710.92,-389.19C582.08,-396.15 297.59,-411.53 156.57,-419.16"/>
<polygon fill="midnightblue" stroke="midnightblue" points="156.05,-415.68 146.26,-419.71 156.43,-422.67 156.05,-415.68"/>
</g>
<!-- Node15&#45;&gt;Node2 -->
<g id="edge19" class="edge">
<title>Node15&#45;&gt;Node2</title>
<path fill="none" stroke="midnightblue" d="M811.08,-395.23C865,-411.28 977.29,-444.29 1073,-469.62 1145.53,-488.82 1164.12,-491.8 1237,-509.62 1250.33,-512.88 1264.63,-516.38 1278.18,-519.7"/>
<polygon fill="midnightblue" stroke="midnightblue" points="1277.35,-523.1 1287.9,-522.08 1279.02,-516.3 1277.35,-523.1"/>
</g>
<!-- Node16 -->
<g id="node16" class="node">
<title>Node16</title>
<g id="a_node16"><a xlink:href="classslljit_1_1_parser.html#a81023e7a6221eb6b92027bd21433c9dd" target="_top" xlink:title="forexpr ::= &#39;for&#39; identifier &#39;=&#39; expr &#39;,&#39; expr (&#39;,&#39; expr)? &#39;in&#39; expression">
<polygon fill="none" stroke="black" points="892,-198.12 892,-217.12 1026,-217.12 1026,-198.12 892,-198.12"/>
<text text-anchor="middle" x="959" y="-205.12" font-family="Helvetica,sans-Serif" font-size="10.00">slljit::Parser::ParseForExpr</text>
</a>
</g>
</g>
<!-- Node15&#45;&gt;Node16 -->
<g id="edge20" class="edge">
<title>Node15&#45;&gt;Node16</title>
<path fill="none" stroke="midnightblue" d="M788.19,-376.06C805.95,-357.63 846.31,-315.96 881,-281.62 900.97,-261.85 924.29,-239.55 939.99,-224.64"/>
<polygon fill="midnightblue" stroke="midnightblue" points="942.59,-226.99 947.44,-217.58 937.78,-221.91 942.59,-226.99"/>
</g>
<!-- Node20 -->
<g id="node20" class="node">
<title>Node20</title>
<g id="a_node20"><a xlink:href="classslljit_1_1_parser.html#a25cfefcbeea85744e23370d3a6f8ad5b" target="_top" xlink:title=" ">
<polygon fill="none" stroke="black" points="881,-706.12 881,-725.12 1037,-725.12 1037,-706.12 881,-706.12"/>
<text text-anchor="middle" x="959" y="-713.12" font-family="Helvetica,sans-Serif" font-size="10.00">slljit::Parser::ParseIdentifierExpr</text>
</a>
</g>
</g>
<!-- Node15&#45;&gt;Node20 -->
<g id="edge30" class="edge">
<title>Node15&#45;&gt;Node20</title>
<path fill="none" stroke="midnightblue" d="M792.77,-395.28C807.6,-406.36 830.96,-425.81 845,-447.62 871.93,-489.45 862.29,-507.52 881,-553.62 902.48,-606.53 932.69,-666.76 948.11,-696.68"/>
<polygon fill="midnightblue" stroke="midnightblue" points="945.2,-698.67 952.91,-705.93 951.41,-695.45 945.2,-698.67"/>
</g>
<!-- Node24 -->
<g id="node24" class="node">
<title>Node24</title>
<g id="a_node24"><a xlink:href="classslljit_1_1_parser.html#a149f5e88cb03aa08c388e6320c6c1bac" target="_top" xlink:title="ifexpr ::= &#39;if&#39; expression &#39;then&#39; expression &#39;else&#39; expression">
<polygon fill="none" stroke="black" points="896.5,-291.12 896.5,-310.12 1021.5,-310.12 1021.5,-291.12 896.5,-291.12"/>
<text text-anchor="middle" x="959" y="-298.12" font-family="Helvetica,sans-Serif" font-size="10.00">slljit::Parser::ParseIfExpr</text>
</a>
</g>
</g>
<!-- Node15&#45;&gt;Node24 -->
<g id="edge38" class="edge">
<title>Node15&#45;&gt;Node24</title>
<path fill="none" stroke="midnightblue" d="M799.19,-376.03C830.83,-361.01 892.25,-331.84 928.74,-314.51"/>
<polygon fill="midnightblue" stroke="midnightblue" points="930.36,-317.62 937.89,-310.17 927.35,-311.3 930.36,-317.62"/>
</g>
<!-- Node25 -->
<g id="node25" class="node">
<title>Node25</title>
<g id="a_node25"><a xlink:href="classslljit_1_1_parser.html#af9ccc5948e2cf9051c2569cc42dc3bb7" target="_top" xlink:title="numberexpr ::= number">
<polygon fill="none" stroke="black" points="1082,-405.12 1082,-424.12 1228,-424.12 1228,-405.12 1082,-405.12"/>
<text text-anchor="middle" x="1155" y="-412.12" font-family="Helvetica,sans-Serif" font-size="10.00">slljit::Parser::ParseLiteralExpr</text>
</a>
</g>
</g>
<!-- Node15&#45;&gt;Node25 -->
<g id="edge45" class="edge">
<title>Node15&#45;&gt;Node25</title>
<path fill="none" stroke="midnightblue" d="M845.18,-390.74C908.28,-395.62 1003.5,-402.98 1071.52,-408.24"/>
<polygon fill="midnightblue" stroke="midnightblue" points="1071.53,-411.75 1081.77,-409.03 1072.07,-404.77 1071.53,-411.75"/>
</g>
<!-- Node27 -->
<g id="node27" class="node">
<title>Node27</title>
<g id="a_node27"><a xlink:href="classslljit_1_1_parser.html#a435877d3f2869d140a7cca646546a114" target="_top" xlink:title="varexpr ::= &#39;g_var&#39; identifier (&#39;=&#39; expression)?">
<polygon fill="none" stroke="black" points="891.5,-525.12 891.5,-544.12 1026.5,-544.12 1026.5,-525.12 891.5,-525.12"/>
<text text-anchor="middle" x="959" y="-532.12" font-family="Helvetica,sans-Serif" font-size="10.00">slljit::Parser::ParseVarExpr</text>
</a>
</g>
</g>
<!-- Node15&#45;&gt;Node27 -->
<g id="edge50" class="edge">
<title>Node15&#45;&gt;Node27</title>
<path fill="none" stroke="midnightblue" d="M821.91,-395.15C830.35,-398.6 838.58,-403.28 845,-409.62 877.14,-441.33 849.22,-472.54 881,-504.62 887.89,-511.58 896.59,-516.96 905.63,-521.11"/>
<polygon fill="midnightblue" stroke="midnightblue" points="904.54,-524.44 915.12,-525 907.2,-517.97 904.54,-524.44"/>
</g>
<!-- Node16&#45;&gt;Node2 -->
<g id="edge21" class="edge">
<title>Node16&#45;&gt;Node2</title>
<path fill="none" stroke="midnightblue" d="M978.27,-198.01C1027.01,-173.86 1161.56,-117.05 1237,-182.62 1280.36,-220.31 1252.17,-385.08 1273,-438.62 1283.68,-466.08 1303.58,-493.38 1318.75,-511.8"/>
<polygon fill="midnightblue" stroke="midnightblue" points="1316.21,-514.22 1325.33,-519.61 1321.56,-509.71 1316.21,-514.22"/>
</g>
<!-- Node16&#45;&gt;Node3 -->
<g id="edge22" class="edge">
<title>Node16&#45;&gt;Node3</title>
<path fill="none" stroke="midnightblue" d="M973.42,-198.01C993.78,-184.11 1034.2,-158.99 1073,-149.62 1143.85,-132.5 1172.63,-115.42 1237,-149.62 1289.94,-177.74 1320.39,-246.97 1332.64,-281.03"/>
<polygon fill="midnightblue" stroke="midnightblue" points="1329.43,-282.44 1335.99,-290.76 1336.05,-280.17 1329.43,-282.44"/>
</g>
<!-- Node16&#45;&gt;Node11 -->
<g id="edge23" class="edge">
<title>Node16&#45;&gt;Node11</title>
<path fill="none" stroke="midnightblue" d="M948.73,-197.83C930.6,-179.29 888.43,-138.99 845,-117.62 749.44,-70.58 458.14,-27.51 367,-82.62 303.73,-120.87 273.07,-210.6 262.24,-250.22"/>
<polygon fill="midnightblue" stroke="midnightblue" points="258.83,-249.43 259.7,-259.99 265.61,-251.19 258.83,-249.43"/>
</g>
<!-- Node17 -->
<g id="node17" class="node">
<title>Node17</title>
<g id="a_node17"><a xlink:href="classslljit_1_1_parser.html#acc431005ac3dd38732083d7a1bb0eab2" target="_top" xlink:title=" ">
<polygon fill="none" stroke="black" points="1073,-329.12 1073,-348.12 1237,-348.12 1237,-329.12 1073,-329.12"/>
<text text-anchor="middle" x="1155" y="-336.12" font-family="Helvetica,sans-Serif" font-size="10.00">slljit::Parser::ParseExpressionList</text>
</a>
</g>
</g>
<!-- Node16&#45;&gt;Node17 -->
<g id="edge24" class="edge">
<title>Node16&#45;&gt;Node17</title>
<path fill="none" stroke="midnightblue" d="M974.27,-217.25C1007.62,-239.77 1090.93,-296.03 1131.32,-323.31"/>
<polygon fill="midnightblue" stroke="midnightblue" points="1129.47,-326.28 1139.71,-328.97 1133.38,-320.47 1129.47,-326.28"/>
</g>
<!-- Node18 -->
<g id="node18" class="node">
<title>Node18</title>
<g id="a_node18"><a xlink:href="classslljit_1_1_parser.html#ae7a9c738da8b5802b80001e306ad668b" target="_top" xlink:title=" ">
<polygon fill="none" stroke="black" points="1110,-192.62 1110,-222.62 1200,-222.62 1200,-192.62 1110,-192.62"/>
<text text-anchor="start" x="1118" y="-210.62" font-family="Helvetica,sans-Serif" font-size="10.00">slljit::Parser::pop</text>
<text text-anchor="middle" x="1155" y="-199.62" font-family="Helvetica,sans-Serif" font-size="10.00">_scope</text>
</a>
</g>
</g>
<!-- Node16&#45;&gt;Node18 -->
<g id="edge28" class="edge">
<title>Node16&#45;&gt;Node18</title>
<path fill="none" stroke="midnightblue" d="M1026.22,-207.62C1050.11,-207.62 1076.78,-207.62 1099.55,-207.62"/>
<polygon fill="midnightblue" stroke="midnightblue" points="1099.72,-211.12 1109.72,-207.62 1099.72,-204.12 1099.72,-211.12"/>
</g>
<!-- Node19 -->
<g id="node19" class="node">
<title>Node19</title>
<g id="a_node19"><a xlink:href="classslljit_1_1_parser.html#a07488f6e4f1ec72ba5c6f04ad550b7a3" target="_top" xlink:title=" ">
<polygon fill="none" stroke="black" points="1107.5,-241.62 1107.5,-271.62 1202.5,-271.62 1202.5,-241.62 1107.5,-241.62"/>
<text text-anchor="start" x="1115.5" y="-259.62" font-family="Helvetica,sans-Serif" font-size="10.00">slljit::Parser::push</text>
<text text-anchor="middle" x="1155" y="-248.62" font-family="Helvetica,sans-Serif" font-size="10.00">_scope</text>
</a>
</g>
</g>
<!-- Node16&#45;&gt;Node19 -->
<g id="edge29" class="edge">
<title>Node16&#45;&gt;Node19</title>
<path fill="none" stroke="midnightblue" d="M997.87,-217.18C1026.25,-224.35 1065.55,-234.28 1097.62,-242.38"/>
<polygon fill="midnightblue" stroke="midnightblue" points="1096.77,-245.77 1107.32,-244.83 1098.48,-238.99 1096.77,-245.77"/>
</g>
<!-- Node17&#45;&gt;Node2 -->
<g id="edge25" class="edge">
<title>Node17&#45;&gt;Node2</title>
<path fill="none" stroke="midnightblue" d="M1172.7,-348.14C1189.96,-358.47 1217.11,-376.12 1237,-395.62 1256.33,-414.57 1299.25,-476.11 1322.78,-510.61"/>
<polygon fill="midnightblue" stroke="midnightblue" points="1320.08,-512.86 1328.6,-519.16 1325.87,-508.92 1320.08,-512.86"/>
</g>
<!-- Node17&#45;&gt;Node3 -->
<g id="edge26" class="edge">
<title>Node17&#45;&gt;Node3</title>
<path fill="none" stroke="midnightblue" d="M1202.18,-329.03C1226.76,-323.92 1257.19,-317.61 1283.1,-312.23"/>
<polygon fill="midnightblue" stroke="midnightblue" points="1284.07,-315.6 1293.15,-310.14 1282.65,-308.74 1284.07,-315.6"/>
</g>
<!-- Node17&#45;&gt;Node11 -->
<g id="edge27" class="edge">
<title>Node17&#45;&gt;Node11</title>
<path fill="none" stroke="midnightblue" d="M1072.8,-338.62C996.85,-338.62 880.24,-338.62 779,-338.62 595,-338.62 595,-338.62 595,-338.62 483.96,-338.62 356.46,-302.33 294.79,-282.38"/>
<polygon fill="midnightblue" stroke="midnightblue" points="295.7,-279 285.11,-279.21 293.52,-285.65 295.7,-279"/>
</g>
<!-- Node20&#45;&gt;Node2 -->
<g id="edge35" class="edge">
<title>Node20&#45;&gt;Node2</title>
<path fill="none" stroke="midnightblue" d="M970.88,-725.16C989.96,-741.19 1031.4,-772.92 1073,-784.62 1143.17,-804.35 1176.5,-825.27 1237,-784.62 1313.82,-732.99 1332.82,-612.28 1337.49,-559.76"/>
<polygon fill="midnightblue" stroke="midnightblue" points="1340.99,-559.88 1338.28,-549.64 1334.01,-559.34 1340.99,-559.88"/>
</g>
<!-- Node20&#45;&gt;Node3 -->
<g id="edge36" class="edge">
<title>Node20&#45;&gt;Node3</title>
<path fill="none" stroke="midnightblue" d="M1037.24,-720.59C1109.15,-723.41 1209.29,-722.11 1237,-695.62 1286.49,-648.31 1247.76,-453.26 1273,-389.62 1284.15,-361.5 1306.51,-334.34 1322.1,-317.57"/>
<polygon fill="midnightblue" stroke="midnightblue" points="1324.75,-319.87 1329.13,-310.22 1319.69,-315.03 1324.75,-319.87"/>
</g>
<!-- Node20&#45;&gt;Node11 -->
<g id="edge37" class="edge">
<title>Node20&#45;&gt;Node11</title>
<path fill="none" stroke="midnightblue" d="M935.32,-706.01C853.6,-670.77 568.42,-542.5 367,-385.62 328.28,-355.46 290.69,-311.46 271.22,-287.24"/>
<polygon fill="midnightblue" stroke="midnightblue" points="273.86,-284.93 264.9,-279.27 268.38,-289.28 273.86,-284.93"/>
</g>
<!-- Node21 -->
<g id="node21" class="node">
<title>Node21</title>
<g id="a_node21"><a xlink:href="classslljit_1_1_parser.html#a4c93eea2333b7705c6aea18df2105196" target="_top" xlink:title=" ">
<polygon fill="none" stroke="black" points="1110.5,-744.62 1110.5,-774.62 1199.5,-774.62 1199.5,-744.62 1110.5,-744.62"/>
<text text-anchor="start" x="1118.5" y="-762.62" font-family="Helvetica,sans-Serif" font-size="10.00">slljit::Parser::find</text>
<text text-anchor="middle" x="1155" y="-751.62" font-family="Helvetica,sans-Serif" font-size="10.00">_var_in_scope</text>
</a>
</g>
</g>
<!-- Node20&#45;&gt;Node21 -->
<g id="edge31" class="edge">
<title>Node20&#45;&gt;Node21</title>
<path fill="none" stroke="midnightblue" d="M1002.1,-725.17C1030.95,-731.71 1069.48,-740.45 1100.52,-747.49"/>
<polygon fill="midnightblue" stroke="midnightblue" points="1099.78,-750.91 1110.31,-749.71 1101.33,-744.08 1099.78,-750.91"/>
</g>
<!-- Node22 -->
<g id="node22" class="node">
<title>Node22</title>
<g id="a_node22"><a xlink:href="classslljit_1_1_parser.html#aee4666b5cca40f389e2458033d9006e3" target="_top" xlink:title=" ">
<polygon fill="none" stroke="black" points="1094,-832.62 1094,-862.62 1216,-862.62 1216,-832.62 1094,-832.62"/>
<text text-anchor="start" x="1102" y="-850.62" font-family="Helvetica,sans-Serif" font-size="10.00">slljit::Parser::get</text>
<text text-anchor="middle" x="1155" y="-839.62" font-family="Helvetica,sans-Serif" font-size="10.00">_current_function_scope</text>
</a>
</g>
</g>
<!-- Node20&#45;&gt;Node22 -->
<g id="edge33" class="edge">
<title>Node20&#45;&gt;Node22</title>
<path fill="none" stroke="midnightblue" d="M968.41,-725.38C985.99,-745.25 1028.69,-790.79 1073,-817.62 1079.84,-821.76 1087.34,-825.48 1094.94,-828.77"/>
<polygon fill="midnightblue" stroke="midnightblue" points="1093.63,-832.02 1104.21,-832.57 1096.29,-825.54 1093.63,-832.02"/>
</g>
<!-- Node23 -->
<g id="node23" class="node">
<title>Node23</title>
<g id="a_node23"><a xlink:href="classslljit_1_1_tokenizer.html#a6270acd003b9e0a1323c1fdd54cd2fe2" target="_top" xlink:title=" ">
<polygon fill="none" stroke="black" points="1111,-656.62 1111,-686.62 1199,-686.62 1199,-656.62 1111,-656.62"/>
<text text-anchor="start" x="1119" y="-674.62" font-family="Helvetica,sans-Serif" font-size="10.00">slljit::Tokenizer::</text>
<text text-anchor="middle" x="1155" y="-663.62" font-family="Helvetica,sans-Serif" font-size="10.00">get_identifier</text>
</a>
</g>
</g>
<!-- Node20&#45;&gt;Node23 -->
<g id="edge34" class="edge">
<title>Node20&#45;&gt;Node23</title>
<path fill="none" stroke="midnightblue" d="M1002.1,-706.07C1031.16,-699.48 1070.02,-690.67 1101.16,-683.6"/>
<polygon fill="midnightblue" stroke="midnightblue" points="1102,-687 1110.98,-681.38 1100.45,-680.17 1102,-687"/>
</g>
<!-- Node21&#45;&gt;Node2 -->
<g id="edge32" class="edge">
<title>Node21&#45;&gt;Node2</title>
<path fill="none" stroke="midnightblue" d="M1199.55,-749.97C1212.69,-745.45 1226.42,-738.93 1237,-729.62 1290.56,-682.48 1320.25,-600.35 1332.4,-559.36"/>
<polygon fill="midnightblue" stroke="midnightblue" points="1335.8,-560.22 1335.18,-549.64 1329.07,-558.3 1335.8,-560.22"/>
</g>
<!-- Node24&#45;&gt;Node2 -->
<g id="edge39" class="edge">
<title>Node24&#45;&gt;Node2</title>
<path fill="none" stroke="midnightblue" d="M965.41,-310.41C979.59,-335.16 1020.42,-400.55 1073,-433.62 1136.78,-473.74 1167.21,-448.2 1237,-476.62 1261.87,-486.75 1288.17,-501.82 1307.83,-514.06"/>
<polygon fill="midnightblue" stroke="midnightblue" points="1306.05,-517.08 1316.37,-519.46 1309.79,-511.16 1306.05,-517.08"/>
</g>
<!-- Node24&#45;&gt;Node3 -->
<g id="edge40" class="edge">
<title>Node24&#45;&gt;Node3</title>
<path fill="none" stroke="midnightblue" d="M1021.74,-300.62C1087.51,-300.62 1191.72,-300.62 1262.62,-300.62"/>
<polygon fill="midnightblue" stroke="midnightblue" points="1262.83,-304.12 1272.83,-300.62 1262.83,-297.12 1262.83,-304.12"/>
</g>
<!-- Node24&#45;&gt;Node11 -->
<g id="edge41" class="edge">
<title>Node24&#45;&gt;Node11</title>
<path fill="none" stroke="midnightblue" d="M948.43,-290.68C914.88,-256.63 797.9,-144.7 675,-106.62 543.63,-65.91 484.99,-65.94 367,-136.62 319.51,-165.06 283.46,-221.9 267.12,-251.2"/>
<polygon fill="midnightblue" stroke="midnightblue" points="264.04,-249.54 262.35,-260 270.19,-252.88 264.04,-249.54"/>
</g>
<!-- Node24&#45;&gt;Node17 -->
<g id="edge42" class="edge">
<title>Node24&#45;&gt;Node17</title>
<path fill="none" stroke="midnightblue" d="M1008.95,-310.21C1035.25,-315.36 1067.84,-321.74 1095.47,-327.15"/>
<polygon fill="midnightblue" stroke="midnightblue" points="1094.91,-330.61 1105.4,-329.1 1096.26,-323.74 1094.91,-330.61"/>
</g>
<!-- Node24&#45;&gt;Node18 -->
<g id="edge43" class="edge">
<title>Node24&#45;&gt;Node18</title>
<path fill="none" stroke="midnightblue" d="M973.28,-290.91C993.78,-276.31 1034.77,-248.61 1073,-231.62 1081.65,-227.77 1091.1,-224.34 1100.38,-221.36"/>
<polygon fill="midnightblue" stroke="midnightblue" points="1101.42,-224.7 1109.95,-218.41 1099.37,-218.01 1101.42,-224.7"/>
</g>
<!-- Node24&#45;&gt;Node19 -->
<g id="edge44" class="edge">
<title>Node24&#45;&gt;Node19</title>
<path fill="none" stroke="midnightblue" d="M1002.1,-291.07C1029.93,-284.76 1066.76,-276.41 1097.18,-269.51"/>
<polygon fill="midnightblue" stroke="midnightblue" points="1098.25,-272.85 1107.23,-267.23 1096.7,-266.03 1098.25,-272.85"/>
</g>
<!-- Node25&#45;&gt;Node2 -->
<g id="edge47" class="edge">
<title>Node25&#45;&gt;Node2</title>
<path fill="none" stroke="midnightblue" d="M1201.67,-424.12C1213.63,-427.67 1226.19,-432.41 1237,-438.62 1270.28,-457.74 1301.3,-489.78 1320.19,-511.53"/>
<polygon fill="midnightblue" stroke="midnightblue" points="1317.67,-513.97 1326.82,-519.32 1323,-509.44 1317.67,-513.97"/>
</g>
<!-- Node25&#45;&gt;Node3 -->
<g id="edge48" class="edge">
<title>Node25&#45;&gt;Node3</title>
<path fill="none" stroke="midnightblue" d="M1201.12,-405C1213.2,-401.44 1225.96,-396.73 1237,-390.62 1272.05,-371.22 1305.43,-338.01 1323.97,-317.81"/>
<polygon fill="midnightblue" stroke="midnightblue" points="1326.67,-320.05 1330.75,-310.28 1321.46,-315.37 1326.67,-320.05"/>
</g>
<!-- Node26 -->
<g id="node26" class="node">
<title>Node26</title>
<g id="a_node26"><a xlink:href="classslljit_1_1_tokenizer.html#a69d29df7401c1f268a754725c4561470" target="_top" xlink:title=" ">
<polygon fill="none" stroke="black" points="1296,-399.62 1296,-429.62 1384,-429.62 1384,-399.62 1296,-399.62"/>
<text text-anchor="start" x="1304" y="-417.62" font-family="Helvetica,sans-Serif" font-size="10.00">slljit::Tokenizer::</text>
<text text-anchor="middle" x="1340" y="-406.62" font-family="Helvetica,sans-Serif" font-size="10.00">get_literal_string</text>
</a>
</g>
</g>
<!-- Node25&#45;&gt;Node26 -->
<g id="edge46" class="edge">
<title>Node25&#45;&gt;Node26</title>
<path fill="none" stroke="midnightblue" d="M1228.06,-414.62C1247.3,-414.62 1267.74,-414.62 1285.76,-414.62"/>
<polygon fill="midnightblue" stroke="midnightblue" points="1285.78,-418.12 1295.78,-414.62 1285.78,-411.12 1285.78,-418.12"/>
</g>
<!-- Node27&#45;&gt;Node2 -->
<g id="edge52" class="edge">
<title>Node27&#45;&gt;Node2</title>
<path fill="none" stroke="midnightblue" d="M995.57,-544.17C1017.67,-549.61 1046.77,-555.86 1073,-558.62 1145.49,-566.23 1164.6,-567.02 1237,-558.62 1250.32,-557.07 1264.43,-554.43 1277.76,-551.44"/>
<polygon fill="midnightblue" stroke="midnightblue" points="1278.84,-554.79 1287.78,-549.11 1277.25,-547.97 1278.84,-554.79"/>
</g>
<!-- Node27&#45;&gt;Node3 -->
<g id="edge54" class="edge">
<title>Node27&#45;&gt;Node3</title>
<path fill="none" stroke="midnightblue" d="M964.83,-525.04C978.21,-499.55 1018.39,-429.7 1073,-395.62 1136.47,-356.01 1167.21,-384.58 1237,-357.62 1265.72,-346.53 1296.23,-328.55 1316.32,-315.76"/>
<polygon fill="midnightblue" stroke="midnightblue" points="1318.28,-318.66 1324.77,-310.28 1314.48,-312.78 1318.28,-318.66"/>
</g>
<!-- Node27&#45;&gt;Node11 -->
<g id="edge55" class="edge">
<title>Node27&#45;&gt;Node11</title>
<path fill="none" stroke="midnightblue" d="M948.74,-524.99C930.64,-506.79 888.51,-467.37 845,-447.62 647.77,-358.08 564.56,-441.41 367,-352.62 330.47,-336.2 294.77,-305.63 274.51,-286.52"/>
<polygon fill="midnightblue" stroke="midnightblue" points="276.69,-283.76 267.06,-279.34 271.83,-288.8 276.69,-283.76"/>
</g>
<!-- Node27&#45;&gt;Node23 -->
<g id="edge51" class="edge">
<title>Node27&#45;&gt;Node23</title>
<path fill="none" stroke="midnightblue" d="M967.05,-544.27C983.3,-565.83 1025.62,-618.21 1073,-646.62 1081.61,-651.78 1091.39,-655.97 1101.1,-659.34"/>
<polygon fill="midnightblue" stroke="midnightblue" points="1100.15,-662.71 1110.74,-662.43 1102.29,-656.04 1100.15,-662.71"/>
</g>
<!-- Node28 -->
<g id="node28" class="node">
<title>Node28</title>
<g id="a_node28"><a xlink:href="classslljit_1_1_tokenizer.html#a9dcee05dc292fa291e6b9644d12c1907" target="_top" xlink:title=" ">
<polygon fill="none" stroke="black" points="1107.5,-519.62 1107.5,-549.62 1202.5,-549.62 1202.5,-519.62 1107.5,-519.62"/>
<text text-anchor="start" x="1115.5" y="-537.62" font-family="Helvetica,sans-Serif" font-size="10.00">slljit::Tokenizer::</text>
<text text-anchor="middle" x="1155" y="-526.62" font-family="Helvetica,sans-Serif" font-size="10.00">get_type_identifier</text>
</a>
</g>
</g>
<!-- Node27&#45;&gt;Node28 -->
<g id="edge53" class="edge">
<title>Node27&#45;&gt;Node28</title>
<path fill="none" stroke="midnightblue" d="M1026.76,-534.62C1049.66,-534.62 1075.06,-534.62 1097.1,-534.62"/>
<polygon fill="midnightblue" stroke="midnightblue" points="1097.3,-538.12 1107.3,-534.62 1097.3,-531.12 1097.3,-538.12"/>
</g>
<!-- Node29 -->
<g id="node29" class="node">
<title>Node29</title>
<g id="a_node29"><a xlink:href="classslljit_1_1_parser.html#acad3f159608acb847e0f693fc07fdd28" target="_top" xlink:title=" ">
<polygon fill="none" stroke="black" points="1107.5,-607.62 1107.5,-637.62 1202.5,-637.62 1202.5,-607.62 1107.5,-607.62"/>
<text text-anchor="start" x="1115.5" y="-625.62" font-family="Helvetica,sans-Serif" font-size="10.00">slljit::Parser::push</text>
<text text-anchor="middle" x="1155" y="-614.62" font-family="Helvetica,sans-Serif" font-size="10.00">_var_into_scope</text>
</a>
</g>
</g>
<!-- Node27&#45;&gt;Node29 -->
<g id="edge56" class="edge">
<title>Node27&#45;&gt;Node29</title>
<path fill="none" stroke="midnightblue" d="M977.3,-544.32C999.21,-556.41 1038.28,-577.34 1073,-592.62 1081.86,-596.52 1091.41,-600.36 1100.73,-603.92"/>
<polygon fill="midnightblue" stroke="midnightblue" points="1099.73,-607.29 1110.32,-607.53 1102.19,-600.73 1099.73,-607.29"/>
</g>
<!-- Node29&#45;&gt;Node2 -->
<g id="edge57" class="edge">
<title>Node29&#45;&gt;Node2</title>
<path fill="none" stroke="midnightblue" d="M1200.67,-607.55C1212.63,-603.12 1225.45,-598 1237,-592.62 1260.86,-581.51 1286.62,-566.84 1306.28,-555.03"/>
<polygon fill="midnightblue" stroke="midnightblue" points="1308.12,-558.01 1314.86,-549.83 1304.49,-552.02 1308.12,-558.01"/>
</g>
</g>
</svg>
