<?xml version="1.0" encoding="UTF-8" standalone="no"?>
<!DOCTYPE svg PUBLIC "-//W3C//DTD SVG 1.1//EN"
 "http://www.w3.org/Graphics/SVG/1.1/DTD/svg11.dtd">
<!-- Generated by graphviz version 3.0.0 (20220226.1711)
 -->
<!-- Title: slljit::Parser::set_source Pages: 1 -->
<svg width="552pt" height="284pt"
 viewBox="0.00 0.00 552.00 284.00" xmlns="http://www.w3.org/2000/svg" xmlns:xlink="http://www.w3.org/1999/xlink">
<g id="graph0" class="graph" transform="scale(1 1) rotate(0) translate(4 280)">
<title>slljit::Parser::set_source</title>
<!-- Node1 -->
<g id="node1" class="node">
<title>Node1</title>
<g id="a_node1"><a xlink:title=" ">
<polygon fill="#bfbfbf" stroke="black" points="0,-100.5 0,-130.5 88,-130.5 88,-100.5 0,-100.5"/>
<text text-anchor="start" x="8" y="-118.5" font-family="Helvetica,sans-Serif" font-size="10.00">slljit::Parser::set</text>
<text text-anchor="middle" x="44" y="-107.5" font-family="Helvetica,sans-Serif" font-size="10.00">_source</text>
</a>
</g>
</g>
<!-- Node2 -->
<g id="node2" class="node">
<title>Node2</title>
<g id="a_node2"><a xlink:href="classslljit_1_1_parser.html#a9fcfefd86a6000dcb40fa737361ea55b" target="_top" xlink:title="GetTokPrecedence &#45; Get the precedence of the pending binary operator token.">
<polygon fill="none" stroke="black" points="124,-128 124,-147 258,-147 258,-128 124,-128"/>
<text text-anchor="middle" x="191" y="-135" font-family="Helvetica,sans-Serif" font-size="10.00">slljit::Parser::getNextToken</text>
</a>
</g>
</g>
<!-- Node1&#45;&gt;Node2 -->
<g id="edge1" class="edge">
<title>Node1&#45;&gt;Node2</title>
<path fill="none" stroke="midnightblue" d="M88.11,-122.04C97.32,-123.44 107.28,-124.95 117.25,-126.46"/>
<polygon fill="midnightblue" stroke="midnightblue" points="116.78,-129.93 127.2,-127.97 117.83,-123.01 116.78,-129.93"/>
</g>
<!-- Node10 -->
<g id="node10" class="node">
<title>Node10</title>
<g id="a_node10"><a xlink:href="classslljit_1_1_tokenizer.html#aa383dcc43f6062ff86ff304a95faf1b4" target="_top" xlink:title=" ">
<polygon fill="none" stroke="black" points="147,-78.5 147,-108.5 235,-108.5 235,-78.5 147,-78.5"/>
<text text-anchor="start" x="155" y="-96.5" font-family="Helvetica,sans-Serif" font-size="10.00">slljit::Tokenizer::</text>
<text text-anchor="middle" x="191" y="-85.5" font-family="Helvetica,sans-Serif" font-size="10.00">set_source</text>
</a>
</g>
</g>
<!-- Node1&#45;&gt;Node10 -->
<g id="edge10" class="edge">
<title>Node1&#45;&gt;Node10</title>
<path fill="none" stroke="midnightblue" d="M88.11,-108.96C103.31,-106.65 120.59,-104.03 136.55,-101.61"/>
<polygon fill="midnightblue" stroke="midnightblue" points="137.44,-105.01 146.8,-100.05 136.39,-98.09 137.44,-105.01"/>
</g>
<!-- Node3 -->
<g id="node3" class="node">
<title>Node3</title>
<g id="a_node3"><a xlink:href="classslljit_1_1_tokenizer.html#a4f0b343321f5e4561a80e47a5cec05d2" target="_top" xlink:title=" ">
<polygon fill="none" stroke="black" points="294,-122.5 294,-152.5 382,-152.5 382,-122.5 294,-122.5"/>
<text text-anchor="start" x="302" y="-140.5" font-family="Helvetica,sans-Serif" font-size="10.00">slljit::Tokenizer::</text>
<text text-anchor="middle" x="338" y="-129.5" font-family="Helvetica,sans-Serif" font-size="10.00">gettok</text>
</a>
</g>
</g>
<!-- Node2&#45;&gt;Node3 -->
<g id="edge2" class="edge">
<title>Node2&#45;&gt;Node3</title>
<path fill="none" stroke="midnightblue" d="M258.14,-137.5C266.64,-137.5 275.27,-137.5 283.54,-137.5"/>
<polygon fill="midnightblue" stroke="midnightblue" points="283.79,-141 293.79,-137.5 283.79,-134 283.79,-141"/>
</g>
<!-- Node3&#45;&gt;Node3 -->
<g id="edge4" class="edge">
<title>Node3&#45;&gt;Node3</title>
<path fill="none" stroke="midnightblue" d="M313.25,-152.66C307.29,-162.06 315.54,-171 338,-171 351.69,-171 360.1,-167.68 363.23,-162.96"/>
<polygon fill="midnightblue" stroke="midnightblue" points="366.71,-162.48 362.75,-152.66 359.72,-162.81 366.71,-162.48"/>
</g>
<!-- Node4 -->
<g id="node4" class="node">
<title>Node4</title>
<g id="a_node4"><a xlink:href="classslljit_1_1_tokenizer.html#aebe79ebb0da26fa5e89963683d474402" target="_top" xlink:title=" ">
<polygon fill="none" stroke="black" points="437,-245.5 437,-275.5 525,-275.5 525,-245.5 437,-245.5"/>
<text text-anchor="start" x="445" y="-263.5" font-family="Helvetica,sans-Serif" font-size="10.00">slljit::Tokenizer::</text>
<text text-anchor="middle" x="481" y="-252.5" font-family="Helvetica,sans-Serif" font-size="10.00">_getchar</text>
</a>
</g>
</g>
<!-- Node3&#45;&gt;Node4 -->
<g id="edge3" class="edge">
<title>Node3&#45;&gt;Node4</title>
<path fill="none" stroke="midnightblue" d="M347.53,-152.66C360.29,-174.09 386.27,-213.21 418,-236.5 421.02,-238.71 424.26,-240.75 427.63,-242.62"/>
<polygon fill="midnightblue" stroke="midnightblue" points="426.25,-245.85 436.76,-247.19 429.38,-239.59 426.25,-245.85"/>
</g>
<!-- Node5 -->
<g id="node5" class="node">
<title>Node5</title>
<g id="a_node5"><a xlink:href="classslljit_1_1_tokenizer.html#ac5b5748065cb054e0f34d995d1f3edce" target="_top" xlink:title=" ">
<polygon fill="none" stroke="black" points="437,-196.5 437,-226.5 525,-226.5 525,-196.5 437,-196.5"/>
<text text-anchor="start" x="445" y="-214.5" font-family="Helvetica,sans-Serif" font-size="10.00">slljit::Tokenizer::</text>
<text text-anchor="middle" x="481" y="-203.5" font-family="Helvetica,sans-Serif" font-size="10.00">is_id_char</text>
</a>
</g>
</g>
<!-- Node3&#45;&gt;Node5 -->
<g id="edge5" class="edge">
<title>Node3&#45;&gt;Node5</title>
<path fill="none" stroke="midnightblue" d="M360.46,-152.7C375.98,-163.28 397.71,-177.27 418,-187.5 421.34,-189.18 424.83,-190.83 428.37,-192.41"/>
<polygon fill="midnightblue" stroke="midnightblue" points="427.26,-195.74 437.83,-196.45 430.01,-189.3 427.26,-195.74"/>
</g>
<!-- Node6 -->
<g id="node6" class="node">
<title>Node6</title>
<g id="a_node6"><a xlink:href="classslljit_1_1_tokenizer.html#afddb21e93063a4c2338c2d42e23d18d2" target="_top" xlink:title=" ">
<polygon fill="none" stroke="black" points="437,-147.5 437,-177.5 525,-177.5 525,-147.5 437,-147.5"/>
<text text-anchor="start" x="445" y="-165.5" font-family="Helvetica,sans-Serif" font-size="10.00">slljit::Tokenizer::</text>
<text text-anchor="middle" x="481" y="-154.5" font-family="Helvetica,sans-Serif" font-size="10.00">is_id_start_char</text>
</a>
</g>
</g>
<!-- Node3&#45;&gt;Node6 -->
<g id="edge6" class="edge">
<title>Node3&#45;&gt;Node6</title>
<path fill="none" stroke="midnightblue" d="M382.07,-145.14C396.15,-147.63 411.96,-150.44 426.71,-153.05"/>
<polygon fill="midnightblue" stroke="midnightblue" points="426.25,-156.52 436.71,-154.82 427.47,-149.63 426.25,-156.52"/>
</g>
<!-- Node7 -->
<g id="node7" class="node">
<title>Node7</title>
<g id="a_node7"><a xlink:href="classslljit_1_1_tokenizer.html#ada986d1651ab242c370288c198cd726d" target="_top" xlink:title=" ">
<polygon fill="none" stroke="black" points="418,-98.5 418,-128.5 544,-128.5 544,-98.5 418,-98.5"/>
<text text-anchor="start" x="426" y="-116.5" font-family="Helvetica,sans-Serif" font-size="10.00">slljit::Tokenizer::</text>
<text text-anchor="middle" x="481" y="-105.5" font-family="Helvetica,sans-Serif" font-size="10.00">is_reserved_command_id</text>
</a>
</g>
</g>
<!-- Node3&#45;&gt;Node7 -->
<g id="edge7" class="edge">
<title>Node3&#45;&gt;Node7</title>
<path fill="none" stroke="midnightblue" d="M382.07,-130.17C390.31,-128.77 399.14,-127.26 408,-125.76"/>
<polygon fill="midnightblue" stroke="midnightblue" points="408.72,-129.18 417.99,-124.06 407.54,-122.28 408.72,-129.18"/>
</g>
<!-- Node8 -->
<g id="node8" class="node">
<title>Node8</title>
<g id="a_node8"><a xlink:href="classslljit_1_1_tokenizer.html#ab29a7d2f06bb354a3f748106f5ea3e6c" target="_top" xlink:title=" ">
<polygon fill="none" stroke="black" points="436.5,-49.5 436.5,-79.5 525.5,-79.5 525.5,-49.5 436.5,-49.5"/>
<text text-anchor="start" x="444.5" y="-67.5" font-family="Helvetica,sans-Serif" font-size="10.00">slljit::Tokenizer::</text>
<text text-anchor="middle" x="481" y="-56.5" font-family="Helvetica,sans-Serif" font-size="10.00">is_special_literal</text>
</a>
</g>
</g>
<!-- Node3&#45;&gt;Node8 -->
<g id="edge8" class="edge">
<title>Node3&#45;&gt;Node8</title>
<path fill="none" stroke="midnightblue" d="M361.6,-122.41C377.1,-112.41 398.34,-99.35 418,-89.5 422.02,-87.49 426.24,-85.51 430.51,-83.6"/>
<polygon fill="midnightblue" stroke="midnightblue" points="432.09,-86.74 439.88,-79.56 429.32,-80.31 432.09,-86.74"/>
</g>
<!-- Node9 -->
<g id="node9" class="node">
<title>Node9</title>
<g id="a_node9"><a xlink:href="classslljit_1_1_tokenizer.html#ae5cc0911ed858f6bc7bf206928cd66ae" target="_top" xlink:title=" ">
<polygon fill="none" stroke="black" points="437,-0.5 437,-30.5 525,-30.5 525,-0.5 437,-0.5"/>
<text text-anchor="start" x="445" y="-18.5" font-family="Helvetica,sans-Serif" font-size="10.00">slljit::Tokenizer::</text>
<text text-anchor="middle" x="481" y="-7.5" font-family="Helvetica,sans-Serif" font-size="10.00">set_lok_location</text>
</a>
</g>
</g>
<!-- Node3&#45;&gt;Node9 -->
<g id="edge9" class="edge">
<title>Node3&#45;&gt;Node9</title>
<path fill="none" stroke="midnightblue" d="M347.87,-122.36C360.84,-101.38 386.88,-63.44 418,-40.5 421.03,-38.27 424.28,-36.2 427.66,-34.29"/>
<polygon fill="midnightblue" stroke="midnightblue" points="429.5,-37.28 436.8,-29.61 426.31,-31.05 429.5,-37.28"/>
</g>
</g>
</svg>
