<?xml version="1.0" encoding="UTF-8" standalone="no"?>
<!DOCTYPE svg PUBLIC "-//W3C//DTD SVG 1.1//EN"
 "http://www.w3.org/Graphics/SVG/1.1/DTD/svg11.dtd">
<!-- Generated by graphviz version 3.0.0 (20220226.1711)
 -->
<!-- Title: slljit::Parser::push_var_into_scope Pages: 1 -->
<svg width="1917pt" height="374pt"
 viewBox="0.00 0.00 1917.00 373.50" xmlns="http://www.w3.org/2000/svg" xmlns:xlink="http://www.w3.org/1999/xlink">
<g id="graph0" class="graph" transform="scale(1 1) rotate(0) translate(4 369.5)">
<title>slljit::Parser::push_var_into_scope</title>
<!-- Node1 -->
<g id="node1" class="node">
<title>Node1</title>
<g id="a_node1"><a xlink:title=" ">
<polygon fill="#bfbfbf" stroke="black" points="1814,-119.5 1814,-149.5 1909,-149.5 1909,-119.5 1814,-119.5"/>
<text text-anchor="start" x="1822" y="-137.5" font-family="Helvetica,sans-Serif" font-size="10.00">slljit::Parser::push</text>
<text text-anchor="middle" x="1861.5" y="-126.5" font-family="Helvetica,sans-Serif" font-size="10.00">_var_into_scope</text>
</a>
</g>
</g>
<!-- Node2 -->
<g id="node2" class="node">
<title>Node2</title>
<g id="a_node2"><a xlink:href="classslljit_1_1_parser.html#ad51a4352241881b5c6d118db9ccdec46" target="_top" xlink:title=" ">
<polygon fill="none" stroke="black" points="788,-346 788,-365 930,-365 930,-346 788,-346"/>
<text text-anchor="middle" x="859" y="-353" font-family="Helvetica,sans-Serif" font-size="10.00">slljit::Parser::ParsePrototype</text>
</a>
</g>
</g>
<!-- Node1&#45;&gt;Node2 -->
<g id="edge1" class="edge">
<title>Node1&#45;&gt;Node2</title>
<path fill="none" stroke="midnightblue" d="M1843.66,-157.73C1800.38,-214.47 1678.93,-355.5 1541,-355.5 1541,-355.5 1541,-355.5 1218,-355.5 1118.09,-355.5 1002.49,-355.5 930.31,-355.5"/>
<polygon fill="midnightblue" stroke="midnightblue" points="1846.49,-159.79 1849.7,-149.69 1840.89,-155.58 1846.49,-159.79"/>
</g>
<!-- Node10 -->
<g id="node10" class="node">
<title>Node10</title>
<g id="a_node10"><a xlink:href="classslljit_1_1_parser.html#a435877d3f2869d140a7cca646546a114" target="_top" xlink:title="varexpr ::= &#39;g_var&#39; identifier (&#39;=&#39; expression)?">
<polygon fill="none" stroke="black" points="1643,-125 1643,-144 1778,-144 1778,-125 1643,-125"/>
<text text-anchor="middle" x="1710.5" y="-132" font-family="Helvetica,sans-Serif" font-size="10.00">slljit::Parser::ParseVarExpr</text>
</a>
</g>
</g>
<!-- Node1&#45;&gt;Node10 -->
<g id="edge10" class="edge">
<title>Node1&#45;&gt;Node10</title>
<path fill="none" stroke="midnightblue" d="M1803.5,-134.5C1795.25,-134.5 1786.69,-134.5 1778.26,-134.5"/>
<polygon fill="midnightblue" stroke="midnightblue" points="1803.76,-138 1813.76,-134.5 1803.76,-131 1803.76,-138"/>
</g>
<!-- Node20 -->
<g id="node20" class="node">
<title>Node20</title>
<g id="a_node20"><a xlink:href="classslljit_1_1_parser.html#a3da23d78669853ac1f1d38a709475c5c" target="_top" xlink:title=" ">
<polygon fill="none" stroke="black" points="1496,-0.5 1496,-30.5 1584,-30.5 1584,-0.5 1496,-0.5"/>
<text text-anchor="start" x="1504" y="-18.5" font-family="Helvetica,sans-Serif" font-size="10.00">slljit::Parser::set</text>
<text text-anchor="middle" x="1540" y="-7.5" font-family="Helvetica,sans-Serif" font-size="10.00">_variables</text>
</a>
</g>
</g>
<!-- Node1&#45;&gt;Node20 -->
<g id="edge31" class="edge">
<title>Node1&#45;&gt;Node20</title>
<path fill="none" stroke="midnightblue" d="M1810.28,-115.79C1747.03,-92.24 1639.6,-52.22 1581.39,-30.54"/>
<polygon fill="midnightblue" stroke="midnightblue" points="1809.44,-119.22 1820.04,-119.43 1811.89,-112.66 1809.44,-119.22"/>
</g>
<!-- Node3 -->
<g id="node3" class="node">
<title>Node3</title>
<g id="a_node3"><a xlink:href="classslljit_1_1_parser.html#af6e239a609e8a3812838b53f9a8356ce" target="_top" xlink:title="external ::= &#39;extern&#39; prototype">
<polygon fill="none" stroke="black" points="610,-338 610,-357 738,-357 738,-338 610,-338"/>
<text text-anchor="middle" x="674" y="-345" font-family="Helvetica,sans-Serif" font-size="10.00">slljit::Parser::ParseExtern</text>
</a>
</g>
</g>
<!-- Node2&#45;&gt;Node3 -->
<g id="edge2" class="edge">
<title>Node2&#45;&gt;Node3</title>
<path fill="none" stroke="midnightblue" d="M777.72,-351.99C764.47,-351.41 750.91,-350.82 738.15,-350.26"/>
<polygon fill="midnightblue" stroke="midnightblue" points="777.63,-355.49 787.77,-352.43 777.93,-348.5 777.63,-355.49"/>
</g>
<!-- Node8 -->
<g id="node8" class="node">
<title>Node8</title>
<g id="a_node8"><a xlink:href="classslljit_1_1_parser.html#aa9a9ce164e114ad7f347f32329f5a5a2" target="_top" xlink:title="definition ::= &#39;def&#39; prototype expression">
<polygon fill="none" stroke="black" points="616,-240.5 616,-270.5 732,-270.5 732,-240.5 616,-240.5"/>
<text text-anchor="start" x="624" y="-258.5" font-family="Helvetica,sans-Serif" font-size="10.00">slljit::Parser::ParseTop</text>
<text text-anchor="middle" x="674" y="-247.5" font-family="Helvetica,sans-Serif" font-size="10.00">LevelTypedExpression</text>
</a>
</g>
</g>
<!-- Node2&#45;&gt;Node8 -->
<g id="edge7" class="edge">
<title>Node2&#45;&gt;Node8</title>
<path fill="none" stroke="midnightblue" d="M805.64,-342.94C795.89,-339.78 785.95,-335.98 777,-331.5 744.02,-314.99 710.66,-287.68 691.46,-270.68"/>
<polygon fill="midnightblue" stroke="midnightblue" points="804.72,-346.32 815.3,-345.89 806.76,-339.62 804.72,-346.32"/>
</g>
<!-- Node4 -->
<g id="node4" class="node">
<title>Node4</title>
<g id="a_node4"><a xlink:href="classslljit_1_1_parser.html#a5ff2f693f00fe32c8ee836e9139cb93e" target="_top" xlink:title=" ">
<polygon fill="none" stroke="black" points="438,-306 438,-325 571,-325 571,-306 438,-306"/>
<text text-anchor="middle" x="504.5" y="-313" font-family="Helvetica,sans-Serif" font-size="10.00">slljit::Parser::HandleExtern</text>
</a>
</g>
</g>
<!-- Node3&#45;&gt;Node4 -->
<g id="edge3" class="edge">
<title>Node3&#45;&gt;Node4</title>
<path fill="none" stroke="midnightblue" d="M613.19,-336.07C594.26,-332.46 573.56,-328.5 555.4,-325.03"/>
<polygon fill="midnightblue" stroke="midnightblue" points="612.72,-339.55 623.2,-337.99 614.03,-332.67 612.72,-339.55"/>
</g>
<!-- Node5 -->
<g id="node5" class="node">
<title>Node5</title>
<g id="a_node5"><a xlink:href="classslljit_1_1_parser.html#ae2d3d6534b87da7f237c19129a464bda" target="_top" xlink:title="top ::= definition | external | expression | &#39;;&#39;">
<polygon fill="none" stroke="black" points="286,-246 286,-265 402,-265 402,-246 286,-246"/>
<text text-anchor="middle" x="344" y="-253" font-family="Helvetica,sans-Serif" font-size="10.00">slljit::Parser::MainLoop</text>
</a>
</g>
</g>
<!-- Node4&#45;&gt;Node5 -->
<g id="edge4" class="edge">
<title>Node4&#45;&gt;Node5</title>
<path fill="none" stroke="midnightblue" d="M468.81,-302.37C439.06,-291.11 396.9,-275.15 370.26,-265.06"/>
<polygon fill="midnightblue" stroke="midnightblue" points="467.79,-305.73 478.39,-305.99 470.27,-299.18 467.79,-305.73"/>
</g>
<!-- Node6 -->
<g id="node6" class="node">
<title>Node6</title>
<g id="a_node6"><a xlink:href="classslljit_1_1_parser.html#a2429935f3c870648f9f895a7b2361cfb" target="_top" xlink:title=" ">
<polygon fill="none" stroke="black" points="152,-184 152,-203 250,-203 250,-184 152,-184"/>
<text text-anchor="middle" x="201" y="-191" font-family="Helvetica,sans-Serif" font-size="10.00">slljit::Parser::parse</text>
</a>
</g>
</g>
<!-- Node5&#45;&gt;Node6 -->
<g id="edge5" class="edge">
<title>Node5&#45;&gt;Node6</title>
<path fill="none" stroke="midnightblue" d="M312.01,-241.87C285.37,-230.16 247.61,-213.56 223.98,-203.16"/>
<polygon fill="midnightblue" stroke="midnightblue" points="310.71,-245.13 321.28,-245.95 313.53,-238.72 310.71,-245.13"/>
</g>
<!-- Node7 -->
<g id="node7" class="node">
<title>Node7</title>
<g id="a_node7"><a xlink:href="classslljit_1_1_program.html#ae4d26526a7dd9c69ebe92fb43736696b" target="_top" xlink:title=" ">
<polygon fill="none" stroke="black" points="0,-122 0,-141 116,-141 116,-122 0,-122"/>
<text text-anchor="middle" x="58" y="-129" font-family="Helvetica,sans-Serif" font-size="10.00">slljit::Program::compile</text>
</a>
</g>
</g>
<!-- Node6&#45;&gt;Node7 -->
<g id="edge6" class="edge">
<title>Node6&#45;&gt;Node7</title>
<path fill="none" stroke="midnightblue" d="M169.01,-179.87C142.37,-168.16 104.61,-151.56 80.98,-141.16"/>
<polygon fill="midnightblue" stroke="midnightblue" points="167.71,-183.13 178.28,-183.95 170.53,-176.72 167.71,-183.13"/>
</g>
<!-- Node9 -->
<g id="node9" class="node">
<title>Node9</title>
<g id="a_node9"><a xlink:href="classslljit_1_1_parser.html#af0cac4623fc05b8b7ae9884b0aeb3d3f" target="_top" xlink:title=" ">
<polygon fill="none" stroke="black" points="439,-240.5 439,-270.5 570,-270.5 570,-240.5 439,-240.5"/>
<text text-anchor="start" x="447" y="-258.5" font-family="Helvetica,sans-Serif" font-size="10.00">slljit::Parser::HandleTyped</text>
<text text-anchor="middle" x="504.5" y="-247.5" font-family="Helvetica,sans-Serif" font-size="10.00">Expression</text>
</a>
</g>
</g>
<!-- Node8&#45;&gt;Node9 -->
<g id="edge8" class="edge">
<title>Node8&#45;&gt;Node9</title>
<path fill="none" stroke="midnightblue" d="M605.68,-255.5C593.97,-255.5 581.82,-255.5 570.19,-255.5"/>
<polygon fill="midnightblue" stroke="midnightblue" points="605.82,-259 615.82,-255.5 605.82,-252 605.82,-259"/>
</g>
<!-- Node9&#45;&gt;Node5 -->
<g id="edge9" class="edge">
<title>Node9&#45;&gt;Node5</title>
<path fill="none" stroke="midnightblue" d="M428.32,-255.5C419.54,-255.5 410.69,-255.5 402.21,-255.5"/>
<polygon fill="midnightblue" stroke="midnightblue" points="428.57,-259 438.57,-255.5 428.57,-252 428.57,-259"/>
</g>
<!-- Node11 -->
<g id="node11" class="node">
<title>Node11</title>
<g id="a_node11"><a xlink:href="classslljit_1_1_parser.html#a45cb3e4f600e8e2c253490e7d878e8cd" target="_top" xlink:title=" ">
<polygon fill="none" stroke="black" points="1473,-201 1473,-220 1607,-220 1607,-201 1473,-201"/>
<text text-anchor="middle" x="1540" y="-208" font-family="Helvetica,sans-Serif" font-size="10.00">slljit::Parser::ParsePrimary</text>
</a>
</g>
</g>
<!-- Node10&#45;&gt;Node11 -->
<g id="edge11" class="edge">
<title>Node10&#45;&gt;Node11</title>
<path fill="none" stroke="midnightblue" d="M1678.77,-148.36C1644.97,-163.6 1591.57,-187.69 1562.17,-200.95"/>
<polygon fill="midnightblue" stroke="midnightblue" points="1680.48,-151.43 1688.16,-144.13 1677.6,-145.05 1680.48,-151.43"/>
</g>
<!-- Node12 -->
<g id="node12" class="node">
<title>Node12</title>
<g id="a_node12"><a xlink:href="classslljit_1_1_parser.html#af8579896f39ac563d2edd14404d70f41" target="_top" xlink:title=" ">
<polygon fill="none" stroke="black" points="1312,-170 1312,-189 1437,-189 1437,-170 1312,-170"/>
<text text-anchor="middle" x="1374.5" y="-177" font-family="Helvetica,sans-Serif" font-size="10.00">slljit::Parser::ParseUnary</text>
</a>
</g>
</g>
<!-- Node11&#45;&gt;Node12 -->
<g id="edge12" class="edge">
<title>Node11&#45;&gt;Node12</title>
<path fill="none" stroke="midnightblue" d="M1478.56,-199.04C1461.18,-195.75 1442.42,-192.19 1425.72,-189.02"/>
<polygon fill="midnightblue" stroke="midnightblue" points="1478.13,-202.52 1488.61,-200.95 1479.44,-195.64 1478.13,-202.52"/>
</g>
<!-- Node12&#45;&gt;Node12 -->
<g id="edge30" class="edge">
<title>Node12&#45;&gt;Node12</title>
<path fill="none" stroke="midnightblue" d="M1403.25,-198.15C1402.04,-203.44 1392.46,-207.5 1374.5,-207.5 1347.13,-207.5 1339.22,-198.07 1350.76,-189.26"/>
<polygon fill="midnightblue" stroke="midnightblue" points="1406.19,-196.25 1398.24,-189.26 1400.09,-199.69 1406.19,-196.25"/>
</g>
<!-- Node13 -->
<g id="node13" class="node">
<title>Node13</title>
<g id="a_node13"><a xlink:href="classslljit_1_1_parser.html#ae387c9672ec50720d8cb969558aedbe9" target="_top" xlink:title=" ">
<polygon fill="none" stroke="black" points="1162,-164.5 1162,-194.5 1276,-194.5 1276,-164.5 1162,-164.5"/>
<text text-anchor="start" x="1170" y="-182.5" font-family="Helvetica,sans-Serif" font-size="10.00">slljit::Parser::ParseBin</text>
<text text-anchor="middle" x="1219" y="-171.5" font-family="Helvetica,sans-Serif" font-size="10.00">OpRHS</text>
</a>
</g>
</g>
<!-- Node12&#45;&gt;Node13 -->
<g id="edge13" class="edge">
<title>Node12&#45;&gt;Node13</title>
<path fill="none" stroke="midnightblue" d="M1301.86,-179.5C1293.22,-179.5 1284.48,-179.5 1276.1,-179.5"/>
<polygon fill="midnightblue" stroke="midnightblue" points="1301.95,-183 1311.95,-179.5 1301.95,-176 1301.95,-183"/>
</g>
<!-- Node14 -->
<g id="node14" class="node">
<title>Node14</title>
<g id="a_node14"><a xlink:href="classslljit_1_1_parser.html#a79461bf414d03dcabb49d3bbd6f89607" target="_top" xlink:title=" ">
<polygon fill="none" stroke="black" points="977,-163 977,-182 1126,-182 1126,-163 977,-163"/>
<text text-anchor="middle" x="1051.5" y="-170" font-family="Helvetica,sans-Serif" font-size="10.00">slljit::Parser::ParseExpression</text>
</a>
</g>
</g>
<!-- Node12&#45;&gt;Node14 -->
<g id="edge29" class="edge">
<title>Node12&#45;&gt;Node14</title>
<path fill="none" stroke="midnightblue" d="M1332.88,-167.18C1315.53,-162.52 1294.95,-157.8 1276,-155.5 1225.7,-149.4 1212.52,-151.6 1162,-155.5 1142.63,-156.99 1121.5,-159.96 1103.01,-162.99"/>
<polygon fill="midnightblue" stroke="midnightblue" points="1332.11,-170.59 1342.68,-169.89 1333.97,-163.85 1332.11,-170.59"/>
</g>
<!-- Node13&#45;&gt;Node13 -->
<g id="edge14" class="edge">
<title>Node13&#45;&gt;Node13</title>
<path fill="none" stroke="midnightblue" d="M1246.36,-204.96C1242.97,-209.68 1233.85,-213 1219,-213 1194.64,-213 1185.69,-204.06 1192.16,-194.66"/>
<polygon fill="midnightblue" stroke="midnightblue" points="1249.84,-204.47 1245.84,-194.66 1242.85,-204.82 1249.84,-204.47"/>
</g>
<!-- Node13&#45;&gt;Node14 -->
<g id="edge15" class="edge">
<title>Node13&#45;&gt;Node14</title>
<path fill="none" stroke="midnightblue" d="M1151.8,-176.7C1143.34,-176.34 1134.64,-175.97 1126.08,-175.61"/>
<polygon fill="midnightblue" stroke="midnightblue" points="1151.83,-180.2 1161.97,-177.13 1152.13,-173.21 1151.83,-180.2"/>
</g>
<!-- Node14&#45;&gt;Node10 -->
<g id="edge28" class="edge">
<title>Node14&#45;&gt;Node10</title>
<path fill="none" stroke="midnightblue" d="M1095.95,-160.47C1115.91,-155.49 1139.98,-150.25 1162,-147.5 1334.18,-126.02 1539.12,-128.56 1642.6,-131.79"/>
<polygon fill="midnightblue" stroke="midnightblue" points="1095.04,-157.09 1086.22,-162.96 1096.78,-163.87 1095.04,-157.09"/>
</g>
<!-- Node15 -->
<g id="node15" class="node">
<title>Node15</title>
<g id="a_node15"><a xlink:href="classslljit_1_1_parser.html#acc431005ac3dd38732083d7a1bb0eab2" target="_top" xlink:title=" ">
<polygon fill="none" stroke="black" points="777,-156 777,-175 941,-175 941,-156 777,-156"/>
<text text-anchor="middle" x="859" y="-163" font-family="Helvetica,sans-Serif" font-size="10.00">slljit::Parser::ParseExpressionList</text>
</a>
</g>
</g>
<!-- Node14&#45;&gt;Node15 -->
<g id="edge16" class="edge">
<title>Node14&#45;&gt;Node15</title>
<path fill="none" stroke="midnightblue" d="M966.58,-169.42C958.1,-169.1 949.5,-168.79 941.05,-168.48"/>
<polygon fill="midnightblue" stroke="midnightblue" points="966.73,-172.92 976.85,-169.79 966.98,-165.93 966.73,-172.92"/>
</g>
<!-- Node16 -->
<g id="node16" class="node">
<title>Node16</title>
<g id="a_node16"><a xlink:href="classslljit_1_1_parser.html#a81023e7a6221eb6b92027bd21433c9dd" target="_top" xlink:title="forexpr ::= &#39;for&#39; identifier &#39;=&#39; expr &#39;,&#39; expr (&#39;,&#39; expr)? &#39;in&#39; expression">
<polygon fill="none" stroke="black" points="607,-118 607,-137 741,-137 741,-118 607,-118"/>
<text text-anchor="middle" x="674" y="-125" font-family="Helvetica,sans-Serif" font-size="10.00">slljit::Parser::ParseForExpr</text>
</a>
</g>
</g>
<!-- Node14&#45;&gt;Node16 -->
<g id="edge22" class="edge">
<title>Node14&#45;&gt;Node16</title>
<path fill="none" stroke="midnightblue" d="M1007.01,-160.46C987.04,-155.38 962.97,-149.87 941,-146.5 873.39,-136.13 795.21,-131.4 741.19,-129.25"/>
<polygon fill="midnightblue" stroke="midnightblue" points="1006.19,-163.87 1016.75,-162.99 1007.95,-157.09 1006.19,-163.87"/>
</g>
<!-- Node17 -->
<g id="node17" class="node">
<title>Node17</title>
<g id="a_node17"><a xlink:href="classslljit_1_1_parser.html#a149f5e88cb03aa08c388e6320c6c1bac" target="_top" xlink:title="ifexpr ::= &#39;if&#39; expression &#39;then&#39; expression &#39;else&#39; expression">
<polygon fill="none" stroke="black" points="611.5,-194 611.5,-213 736.5,-213 736.5,-194 611.5,-194"/>
<text text-anchor="middle" x="674" y="-201" font-family="Helvetica,sans-Serif" font-size="10.00">slljit::Parser::ParseIfExpr</text>
</a>
</g>
</g>
<!-- Node14&#45;&gt;Node17 -->
<g id="edge25" class="edge">
<title>Node14&#45;&gt;Node17</title>
<path fill="none" stroke="midnightblue" d="M966.74,-182.01C958.05,-182.9 949.35,-183.74 941,-184.5 871.03,-190.83 790.54,-196.33 736.6,-199.76"/>
<polygon fill="midnightblue" stroke="midnightblue" points="967.33,-185.47 976.91,-180.95 966.6,-178.5 967.33,-185.47"/>
</g>
<!-- Node18 -->
<g id="node18" class="node">
<title>Node18</title>
<g id="a_node18"><a xlink:href="classslljit_1_1_parser.html#a25cfefcbeea85744e23370d3a6f8ad5b" target="_top" xlink:title=" ">
<polygon fill="none" stroke="black" points="781,-232 781,-251 937,-251 937,-232 781,-232"/>
<text text-anchor="middle" x="859" y="-239" font-family="Helvetica,sans-Serif" font-size="10.00">slljit::Parser::ParseIdentifierExpr</text>
</a>
</g>
</g>
<!-- Node14&#45;&gt;Node18 -->
<g id="edge23" class="edge">
<title>Node14&#45;&gt;Node18</title>
<path fill="none" stroke="midnightblue" d="M1019.56,-186.2C997.8,-195.59 967.89,-208.02 941,-217.5 926.06,-222.77 909.31,-227.86 894.94,-231.99"/>
<polygon fill="midnightblue" stroke="midnightblue" points="1021.16,-189.32 1028.94,-182.12 1018.37,-182.9 1021.16,-189.32"/>
</g>
<!-- Node19 -->
<g id="node19" class="node">
<title>Node19</title>
<g id="a_node19"><a xlink:href="classslljit_1_1_parser.html#a6e2e0f6a2cc445f3a956db59c8d2da66" target="_top" xlink:title="parenexpr ::= &#39;(&#39; expression &#39;)&#39;">
<polygon fill="none" stroke="black" points="786,-270 786,-289 932,-289 932,-270 786,-270"/>
<text text-anchor="middle" x="859" y="-277" font-family="Helvetica,sans-Serif" font-size="10.00">slljit::Parser::ParseParenExpr</text>
</a>
</g>
</g>
<!-- Node14&#45;&gt;Node19 -->
<g id="edge26" class="edge">
<title>Node14&#45;&gt;Node19</title>
<path fill="none" stroke="midnightblue" d="M1034.48,-189.33C1014.49,-209.34 978.35,-242.29 941,-260.5 933.08,-264.36 924.34,-267.46 915.61,-269.94"/>
<polygon fill="midnightblue" stroke="midnightblue" points="1037.06,-191.71 1041.56,-182.12 1032.06,-186.81 1037.06,-191.71"/>
</g>
<!-- Node15&#45;&gt;Node8 -->
<g id="edge21" class="edge">
<title>Node15&#45;&gt;Node8</title>
<path fill="none" stroke="midnightblue" d="M829.12,-179.7C795.46,-196.26 740.07,-223.5 705.66,-240.42"/>
<polygon fill="midnightblue" stroke="midnightblue" points="830.99,-182.69 838.42,-175.13 827.9,-176.4 830.99,-182.69"/>
</g>
<!-- Node15&#45;&gt;Node16 -->
<g id="edge17" class="edge">
<title>Node15&#45;&gt;Node16</title>
<path fill="none" stroke="midnightblue" d="M801.75,-153.82C775.79,-148.43 745.38,-142.11 720.85,-137.02"/>
<polygon fill="midnightblue" stroke="midnightblue" points="801.32,-157.3 811.82,-155.91 802.74,-150.45 801.32,-157.3"/>
</g>
<!-- Node15&#45;&gt;Node17 -->
<g id="edge19" class="edge">
<title>Node15&#45;&gt;Node17</title>
<path fill="none" stroke="midnightblue" d="M801.75,-177.18C775.79,-182.57 745.38,-188.89 720.85,-193.98"/>
<polygon fill="midnightblue" stroke="midnightblue" points="802.74,-180.55 811.82,-175.09 801.32,-173.7 802.74,-180.55"/>
</g>
<!-- Node16&#45;&gt;Node11 -->
<g id="edge18" class="edge">
<title>Node16&#45;&gt;Node11</title>
<path fill="none" stroke="midnightblue" d="M751.19,-125.8C804.38,-124.96 877.04,-124.5 941,-126.5 1091.26,-131.21 1395.37,-149.06 1437,-160.5 1469.9,-169.54 1504.91,-189.2 1524.16,-200.99"/>
<polygon fill="midnightblue" stroke="midnightblue" points="751.09,-122.3 741.15,-125.96 751.21,-129.3 751.09,-122.3"/>
</g>
<!-- Node17&#45;&gt;Node11 -->
<g id="edge20" class="edge">
<title>Node17&#45;&gt;Node11</title>
<path fill="none" stroke="midnightblue" d="M718.8,-217.11C726.77,-220.91 734.59,-225.65 741,-231.5 765.97,-254.28 748.61,-280.16 777,-298.5 879.35,-364.62 928.65,-317.5 1050.5,-317.5 1220,-317.5 1220,-317.5 1220,-317.5 1341.79,-317.5 1476.8,-246.52 1522.71,-220.18"/>
<polygon fill="midnightblue" stroke="midnightblue" points="720,-213.82 709.43,-213.07 717.23,-220.25 720,-213.82"/>
</g>
<!-- Node18&#45;&gt;Node11 -->
<g id="edge24" class="edge">
<title>Node18&#45;&gt;Node11</title>
<path fill="none" stroke="midnightblue" d="M947.33,-238.14C1060.37,-233.69 1263.42,-225.36 1437,-216.5 1448.6,-215.91 1460.95,-215.23 1472.89,-214.54"/>
<polygon fill="midnightblue" stroke="midnightblue" points="946.87,-234.65 937.02,-238.54 947.15,-241.65 946.87,-234.65"/>
</g>
<!-- Node19&#45;&gt;Node11 -->
<g id="edge27" class="edge">
<title>Node19&#45;&gt;Node11</title>
<path fill="none" stroke="midnightblue" d="M942.55,-276.18C1054.9,-270.89 1262.01,-258.38 1437,-232.5 1458.15,-229.37 1481.47,-224.45 1500.47,-220.06"/>
<polygon fill="midnightblue" stroke="midnightblue" points="942.14,-272.7 932.31,-276.66 942.46,-279.69 942.14,-272.7"/>
</g>
<!-- Node20&#45;&gt;Node7 -->
<g id="edge32" class="edge">
<title>Node20&#45;&gt;Node7</title>
<path fill="none" stroke="midnightblue" d="M1485.78,-16.31C1422.45,-17.19 1313.52,-18.5 1220,-18.5 1220,-18.5 1220,-18.5 343,-18.5 231.56,-18.5 111.85,-94.54 72.42,-121.87"/>
<polygon fill="midnightblue" stroke="midnightblue" points="1485.97,-19.8 1495.92,-16.16 1485.87,-12.8 1485.97,-19.8"/>
</g>
</g>
</svg>
