<?xml version="1.0" encoding="UTF-8" standalone="no"?>
<!DOCTYPE svg PUBLIC "-//W3C//DTD SVG 1.1//EN"
 "http://www.w3.org/Graphics/SVG/1.1/DTD/svg11.dtd">
<!-- Generated by graphviz version 3.0.0 (20220226.1711)
 -->
<!-- Title: slljit::ParserError Pages: 1 -->
<svg width="448pt" height="95pt"
 viewBox="0.00 0.00 448.00 95.00" xmlns="http://www.w3.org/2000/svg" xmlns:xlink="http://www.w3.org/1999/xlink">
<g id="graph0" class="graph" transform="scale(1 1) rotate(0) translate(4 91)">
<title>slljit::ParserError</title>
<!-- Node1 -->
<g id="node1" class="node">
<title>Node1</title>
<g id="a_node1"><a xlink:title="Used to represent Parser errors.">
<polygon fill="#bfbfbf" stroke="black" points="201.5,-0.5 201.5,-19.5 290.5,-19.5 290.5,-0.5 201.5,-0.5"/>
<text text-anchor="middle" x="246" y="-7.5" font-family="Helvetica,sans-Serif" font-size="10.00">slljit::ParserError</text>
</a>
</g>
</g>
<!-- Node2 -->
<g id="node2" class="node">
<title>Node2</title>
<g id="a_node2"><a xlink:href="class_error_info.html" target="_top" xlink:title=" ">
<polygon fill="none" stroke="black" points="0,-67.5 0,-86.5 120,-86.5 120,-67.5 0,-67.5"/>
<text text-anchor="middle" x="60" y="-74.5" font-family="Helvetica,sans-Serif" font-size="10.00">ErrorInfo&lt; ParserError &gt;</text>
</a>
</g>
</g>
<!-- Node2&#45;&gt;Node1 -->
<g id="edge1" class="edge">
<title>Node2&#45;&gt;Node1</title>
<path fill="none" stroke="midnightblue" d="M94.52,-63.94C131.42,-51.04 188.99,-30.92 221.49,-19.56"/>
<polygon fill="midnightblue" stroke="midnightblue" points="92.98,-60.77 84.7,-67.37 95.29,-67.37 92.98,-60.77"/>
</g>
<!-- Node3 -->
<g id="node3" class="node">
<title>Node3</title>
<g id="a_node3"><a xlink:title=" ">
<polygon fill="none" stroke="black" points="138.5,-67.5 138.5,-86.5 173.5,-86.5 173.5,-67.5 138.5,-67.5"/>
<text text-anchor="middle" x="156" y="-74.5" font-family="Helvetica,sans-Serif" font-size="10.00">char</text>
</a>
</g>
</g>
<!-- Node3&#45;&gt;Node1 -->
<g id="edge2" class="edge">
<title>Node3&#45;&gt;Node1</title>
<path fill="none" stroke="#9a32cd" stroke-dasharray="5,2" d="M176.68,-61.07C194.44,-48.24 219.44,-30.19 234.05,-19.63"/>
<polygon fill="#9a32cd" stroke="#9a32cd" points="174.2,-58.54 168.14,-67.23 178.29,-64.22 174.2,-58.54"/>
<text text-anchor="middle" x="213.5" y="-41" font-family="Helvetica,sans-Serif" font-size="10.00"> ID</text>
</g>
<!-- Node4 -->
<g id="node4" class="node">
<title>Node4</title>
<g id="a_node4"><a xlink:title=" ">
<polygon fill="none" stroke="black" points="191.5,-67.5 191.5,-86.5 300.5,-86.5 300.5,-67.5 191.5,-67.5"/>
<text text-anchor="middle" x="246" y="-74.5" font-family="Helvetica,sans-Serif" font-size="10.00">pair&lt; size_t, size_t &gt;</text>
</a>
</g>
</g>
<!-- Node4&#45;&gt;Node1 -->
<g id="edge3" class="edge">
<title>Node4&#45;&gt;Node1</title>
<path fill="none" stroke="#9a32cd" stroke-dasharray="5,2" d="M246,-57.04C246,-44.67 246,-29.12 246,-19.63"/>
<polygon fill="#9a32cd" stroke="#9a32cd" points="242.5,-57.23 246,-67.23 249.5,-57.23 242.5,-57.23"/>
<text text-anchor="middle" x="264.5" y="-41" font-family="Helvetica,sans-Serif" font-size="10.00"> location</text>
</g>
<!-- Node5 -->
<g id="node5" class="node">
<title>Node5</title>
<g id="a_node5"><a xlink:title=" ">
<polygon fill="none" stroke="black" points="318.5,-67.5 318.5,-86.5 359.5,-86.5 359.5,-67.5 318.5,-67.5"/>
<text text-anchor="middle" x="339" y="-74.5" font-family="Helvetica,sans-Serif" font-size="10.00">string</text>
</a>
</g>
</g>
<!-- Node5&#45;&gt;Node1 -->
<g id="edge4" class="edge">
<title>Node5&#45;&gt;Node1</title>
<path fill="none" stroke="#9a32cd" stroke-dasharray="5,2" d="M319.39,-61.32C309.72,-54.17 297.83,-45.52 287,-38 277.9,-31.68 267.47,-24.82 259.4,-19.59"/>
<polygon fill="#9a32cd" stroke="#9a32cd" points="317.44,-64.23 327.55,-67.39 321.61,-58.61 317.44,-64.23"/>
<text text-anchor="middle" x="312" y="-41" font-family="Helvetica,sans-Serif" font-size="10.00"> Msg</text>
</g>
<!-- Node6 -->
<g id="node6" class="node">
<title>Node6</title>
<g id="a_node6"><a xlink:title=" ">
<polygon fill="none" stroke="black" points="378,-67.5 378,-86.5 440,-86.5 440,-67.5 378,-67.5"/>
<text text-anchor="middle" x="409" y="-74.5" font-family="Helvetica,sans-Serif" font-size="10.00">error_code</text>
</a>
</g>
</g>
<!-- Node6&#45;&gt;Node1 -->
<g id="edge5" class="edge">
<title>Node6&#45;&gt;Node1</title>
<path fill="none" stroke="#9a32cd" stroke-dasharray="5,2" d="M382.74,-62.92C366.81,-55.21 345.96,-45.53 327,-38 309.78,-31.16 290.06,-24.57 274.39,-19.6"/>
<polygon fill="#9a32cd" stroke="#9a32cd" points="381.45,-66.18 391.97,-67.42 384.52,-59.89 381.45,-66.18"/>
<text text-anchor="middle" x="360.5" y="-41" font-family="Helvetica,sans-Serif" font-size="10.00"> EC</text>
</g>
</g>
</svg>
