<?xml version="1.0" encoding="UTF-8" standalone="no"?>
<!DOCTYPE svg PUBLIC "-//W3C//DTD SVG 1.1//EN"
 "http://www.w3.org/Graphics/SVG/1.1/DTD/svg11.dtd">
<!-- Generated by graphviz version 3.0.0 (20220226.1711)
 -->
<!-- Title: slljit::PrototypeAST::isUnaryOp Pages: 1 -->
<svg width="378pt" height="39pt"
 viewBox="0.00 0.00 378.00 39.00" xmlns="http://www.w3.org/2000/svg" xmlns:xlink="http://www.w3.org/1999/xlink">
<g id="graph0" class="graph" transform="scale(1 1) rotate(0) translate(4 35)">
<title>slljit::PrototypeAST::isUnaryOp</title>
<!-- Node1 -->
<g id="node1" class="node">
<title>Node1</title>
<g id="a_node1"><a xlink:title=" ">
<polygon fill="#bfbfbf" stroke="black" points="269,-0.5 269,-30.5 370,-30.5 370,-0.5 269,-0.5"/>
<text text-anchor="start" x="277" y="-18.5" font-family="Helvetica,sans-Serif" font-size="10.00">slljit::PrototypeAST</text>
<text text-anchor="middle" x="319.5" y="-7.5" font-family="Helvetica,sans-Serif" font-size="10.00">::isUnaryOp</text>
</a>
</g>
</g>
<!-- Node2 -->
<g id="node2" class="node">
<title>Node2</title>
<g id="a_node2"><a xlink:href="classslljit_1_1_prototype_a_s_t.html#abdb93d6f640dba2d44ffc858d4e4bee0" target="_top" xlink:title=" ">
<polygon fill="none" stroke="black" points="132,-0.5 132,-30.5 233,-30.5 233,-0.5 132,-0.5"/>
<text text-anchor="start" x="140" y="-18.5" font-family="Helvetica,sans-Serif" font-size="10.00">slljit::PrototypeAST</text>
<text text-anchor="middle" x="182.5" y="-7.5" font-family="Helvetica,sans-Serif" font-size="10.00">::getOperatorName</text>
</a>
</g>
</g>
<!-- Node1&#45;&gt;Node2 -->
<g id="edge1" class="edge">
<title>Node1&#45;&gt;Node2</title>
<path fill="none" stroke="midnightblue" d="M258.79,-15.5C250.33,-15.5 241.7,-15.5 233.45,-15.5"/>
<polygon fill="midnightblue" stroke="midnightblue" points="259,-19 269,-15.5 259,-12 259,-19"/>
</g>
<!-- Node3 -->
<g id="node3" class="node">
<title>Node3</title>
<g id="a_node3"><a xlink:href="classslljit_1_1_function_a_s_t.html#ad9580c93bf3b4c4cdce1606d2e1a7be5" target="_top" xlink:title=" ">
<polygon fill="none" stroke="black" points="0,-0.5 0,-30.5 96,-30.5 96,-0.5 0,-0.5"/>
<text text-anchor="start" x="8" y="-18.5" font-family="Helvetica,sans-Serif" font-size="10.00">slljit::FunctionAST</text>
<text text-anchor="middle" x="48" y="-7.5" font-family="Helvetica,sans-Serif" font-size="10.00">::codegen</text>
</a>
</g>
</g>
<!-- Node2&#45;&gt;Node3 -->
<g id="edge2" class="edge">
<title>Node2&#45;&gt;Node3</title>
<path fill="none" stroke="midnightblue" d="M121.58,-15.5C113.13,-15.5 104.53,-15.5 96.36,-15.5"/>
<polygon fill="midnightblue" stroke="midnightblue" points="121.78,-19 131.78,-15.5 121.78,-12 121.78,-19"/>
</g>
</g>
</svg>
