<?xml version="1.0" encoding="UTF-8" standalone="no"?>
<!DOCTYPE svg PUBLIC "-//W3C//DTD SVG 1.1//EN"
 "http://www.w3.org/Graphics/SVG/1.1/DTD/svg11.dtd">
<!-- Generated by graphviz version 3.0.0 (20220226.1711)
 -->
<!-- Title: slljit::Parser::ParseUnary Pages: 1 -->
<svg width="1521pt" height="263pt"
 viewBox="0.00 0.00 1521.00 263.33" xmlns="http://www.w3.org/2000/svg" xmlns:xlink="http://www.w3.org/1999/xlink">
<g id="graph0" class="graph" transform="scale(1 1) rotate(0) translate(4 259.33)">
<title>slljit::Parser::ParseUnary</title>
<!-- Node1 -->
<g id="node1" class="node">
<title>Node1</title>
<g id="a_node1"><a xlink:title=" ">
<polygon fill="#bfbfbf" stroke="black" points="1388,-65.83 1388,-84.83 1513,-84.83 1513,-65.83 1388,-65.83"/>
<text text-anchor="middle" x="1450.5" y="-72.83" font-family="Helvetica,sans-Serif" font-size="10.00">slljit::Parser::ParseUnary</text>
</a>
</g>
</g>
<!-- Node1&#45;&gt;Node1 -->
<g id="edge25" class="edge">
<title>Node1&#45;&gt;Node1</title>
<path fill="none" stroke="midnightblue" d="M1479.25,-93.99C1478.04,-99.27 1468.46,-103.33 1450.5,-103.33 1423.13,-103.33 1415.22,-93.9 1426.76,-85.09"/>
<polygon fill="midnightblue" stroke="midnightblue" points="1482.19,-92.09 1474.24,-85.09 1476.09,-95.52 1482.19,-92.09"/>
</g>
<!-- Node2 -->
<g id="node2" class="node">
<title>Node2</title>
<g id="a_node2"><a xlink:href="classslljit_1_1_parser.html#ae387c9672ec50720d8cb969558aedbe9" target="_top" xlink:title=" ">
<polygon fill="none" stroke="black" points="1238,-104.33 1238,-134.33 1352,-134.33 1352,-104.33 1238,-104.33"/>
<text text-anchor="start" x="1246" y="-122.33" font-family="Helvetica,sans-Serif" font-size="10.00">slljit::Parser::ParseBin</text>
<text text-anchor="middle" x="1295" y="-111.33" font-family="Helvetica,sans-Serif" font-size="10.00">OpRHS</text>
</a>
</g>
</g>
<!-- Node1&#45;&gt;Node2 -->
<g id="edge1" class="edge">
<title>Node1&#45;&gt;Node2</title>
<path fill="none" stroke="midnightblue" d="M1406.55,-87.65C1388.56,-92.8 1367.47,-98.85 1348.56,-104.27"/>
<polygon fill="midnightblue" stroke="midnightblue" points="1407.54,-91 1416.19,-84.88 1405.62,-84.27 1407.54,-91"/>
</g>
<!-- Node3 -->
<g id="node3" class="node">
<title>Node3</title>
<g id="a_node3"><a xlink:href="classslljit_1_1_parser.html#a79461bf414d03dcabb49d3bbd6f89607" target="_top" xlink:title=" ">
<polygon fill="none" stroke="black" points="1053,-109.83 1053,-128.83 1202,-128.83 1202,-109.83 1053,-109.83"/>
<text text-anchor="middle" x="1127.5" y="-116.83" font-family="Helvetica,sans-Serif" font-size="10.00">slljit::Parser::ParseExpression</text>
</a>
</g>
</g>
<!-- Node1&#45;&gt;Node3 -->
<g id="edge24" class="edge">
<title>Node1&#45;&gt;Node3</title>
<path fill="none" stroke="midnightblue" d="M1377.53,-79.96C1336.49,-83.14 1284.19,-88.12 1238,-95.33 1214.06,-99.08 1187.51,-104.85 1166.55,-109.8"/>
<polygon fill="midnightblue" stroke="midnightblue" points="1378,-83.43 1387.71,-79.19 1377.47,-76.45 1378,-83.43"/>
</g>
<!-- Node2&#45;&gt;Node2 -->
<g id="edge2" class="edge">
<title>Node2&#45;&gt;Node2</title>
<path fill="none" stroke="midnightblue" d="M1322.36,-144.79C1318.97,-149.51 1309.85,-152.83 1295,-152.83 1270.64,-152.83 1261.69,-143.89 1268.16,-134.49"/>
<polygon fill="midnightblue" stroke="midnightblue" points="1325.84,-144.3 1321.84,-134.49 1318.85,-144.66 1325.84,-144.3"/>
</g>
<!-- Node2&#45;&gt;Node3 -->
<g id="edge3" class="edge">
<title>Node2&#45;&gt;Node3</title>
<path fill="none" stroke="midnightblue" d="M1227.8,-119.33C1219.34,-119.33 1210.64,-119.33 1202.08,-119.33"/>
<polygon fill="midnightblue" stroke="midnightblue" points="1227.97,-122.83 1237.97,-119.33 1227.97,-115.83 1227.97,-122.83"/>
</g>
<!-- Node4 -->
<g id="node4" class="node">
<title>Node4</title>
<g id="a_node4"><a xlink:href="classslljit_1_1_parser.html#acc431005ac3dd38732083d7a1bb0eab2" target="_top" xlink:title=" ">
<polygon fill="none" stroke="black" points="853,-188.83 853,-207.83 1017,-207.83 1017,-188.83 853,-188.83"/>
<text text-anchor="middle" x="935" y="-195.83" font-family="Helvetica,sans-Serif" font-size="10.00">slljit::Parser::ParseExpressionList</text>
</a>
</g>
</g>
<!-- Node3&#45;&gt;Node4 -->
<g id="edge4" class="edge">
<title>Node3&#45;&gt;Node4</title>
<path fill="none" stroke="midnightblue" d="M1099.17,-133.46C1077.26,-144.49 1045.57,-159.84 1017,-171.33 1000.91,-177.81 982.61,-184 967.48,-188.82"/>
<polygon fill="midnightblue" stroke="midnightblue" points="1100.87,-136.51 1108.21,-128.87 1097.7,-130.27 1100.87,-136.51"/>
</g>
<!-- Node5 -->
<g id="node5" class="node">
<title>Node5</title>
<g id="a_node5"><a xlink:href="classslljit_1_1_parser.html#a81023e7a6221eb6b92027bd21433c9dd" target="_top" xlink:title="forexpr ::= &#39;for&#39; identifier &#39;=&#39; expr &#39;,&#39; expr (&#39;,&#39; expr)? &#39;in&#39; expression">
<polygon fill="none" stroke="black" points="682.5,-235.83 682.5,-254.83 816.5,-254.83 816.5,-235.83 682.5,-235.83"/>
<text text-anchor="middle" x="749.5" y="-242.83" font-family="Helvetica,sans-Serif" font-size="10.00">slljit::Parser::ParseForExpr</text>
</a>
</g>
</g>
<!-- Node3&#45;&gt;Node5 -->
<g id="edge16" class="edge">
<title>Node3&#45;&gt;Node5</title>
<path fill="none" stroke="midnightblue" d="M1112.99,-136.9C1094.23,-159.83 1057.95,-199.18 1017,-217.33 953.1,-245.67 872.41,-250.39 816.64,-249.45"/>
<polygon fill="midnightblue" stroke="midnightblue" points="1115.8,-138.99 1119.3,-128.99 1110.32,-134.63 1115.8,-138.99"/>
</g>
<!-- Node7 -->
<g id="node7" class="node">
<title>Node7</title>
<g id="a_node7"><a xlink:href="classslljit_1_1_parser.html#a149f5e88cb03aa08c388e6320c6c1bac" target="_top" xlink:title="ifexpr ::= &#39;if&#39; expression &#39;then&#39; expression &#39;else&#39; expression">
<polygon fill="none" stroke="black" points="687,-147.83 687,-166.83 812,-166.83 812,-147.83 687,-147.83"/>
<text text-anchor="middle" x="749.5" y="-154.83" font-family="Helvetica,sans-Serif" font-size="10.00">slljit::Parser::ParseIfExpr</text>
</a>
</g>
</g>
<!-- Node3&#45;&gt;Node7 -->
<g id="edge19" class="edge">
<title>Node3&#45;&gt;Node7</title>
<path fill="none" stroke="midnightblue" d="M1067.87,-130.63C1051.46,-133.48 1033.57,-136.31 1017,-138.33 947.01,-146.88 866.19,-151.98 812.06,-154.71"/>
<polygon fill="midnightblue" stroke="midnightblue" points="1068.64,-134.05 1077.87,-128.85 1067.41,-127.15 1068.64,-134.05"/>
</g>
<!-- Node14 -->
<g id="node14" class="node">
<title>Node14</title>
<g id="a_node14"><a xlink:href="classslljit_1_1_parser.html#a25cfefcbeea85744e23370d3a6f8ad5b" target="_top" xlink:title=" ">
<polygon fill="none" stroke="black" points="857,-109.83 857,-128.83 1013,-128.83 1013,-109.83 857,-109.83"/>
<text text-anchor="middle" x="935" y="-116.83" font-family="Helvetica,sans-Serif" font-size="10.00">slljit::Parser::ParseIdentifierExpr</text>
</a>
</g>
</g>
<!-- Node3&#45;&gt;Node14 -->
<g id="edge17" class="edge">
<title>Node3&#45;&gt;Node14</title>
<path fill="none" stroke="midnightblue" d="M1042.71,-119.33C1032.91,-119.33 1022.95,-119.33 1013.24,-119.33"/>
<polygon fill="midnightblue" stroke="midnightblue" points="1042.85,-122.83 1052.85,-119.33 1042.85,-115.83 1042.85,-122.83"/>
</g>
<!-- Node15 -->
<g id="node15" class="node">
<title>Node15</title>
<g id="a_node15"><a xlink:href="classslljit_1_1_parser.html#a6e2e0f6a2cc445f3a956db59c8d2da66" target="_top" xlink:title="parenexpr ::= &#39;(&#39; expression &#39;)&#39;">
<polygon fill="none" stroke="black" points="862,-71.83 862,-90.83 1008,-90.83 1008,-71.83 862,-71.83"/>
<text text-anchor="middle" x="935" y="-78.83" font-family="Helvetica,sans-Serif" font-size="10.00">slljit::Parser::ParseParenExpr</text>
</a>
</g>
</g>
<!-- Node3&#45;&gt;Node15 -->
<g id="edge20" class="edge">
<title>Node3&#45;&gt;Node15</title>
<path fill="none" stroke="midnightblue" d="M1068.3,-107.72C1041.21,-102.32 1009.37,-95.97 983.73,-90.85"/>
<polygon fill="midnightblue" stroke="midnightblue" points="1067.94,-111.22 1078.43,-109.75 1069.31,-104.36 1067.94,-111.22"/>
</g>
<!-- Node16 -->
<g id="node16" class="node">
<title>Node16</title>
<g id="a_node16"><a xlink:href="classslljit_1_1_parser.html#a435877d3f2869d140a7cca646546a114" target="_top" xlink:title="varexpr ::= &#39;g_var&#39; identifier (&#39;=&#39; expression)?">
<polygon fill="none" stroke="black" points="682,-33.83 682,-52.83 817,-52.83 817,-33.83 682,-33.83"/>
<text text-anchor="middle" x="749.5" y="-40.83" font-family="Helvetica,sans-Serif" font-size="10.00">slljit::Parser::ParseVarExpr</text>
</a>
</g>
</g>
<!-- Node3&#45;&gt;Node16 -->
<g id="edge22" class="edge">
<title>Node3&#45;&gt;Node16</title>
<path fill="none" stroke="midnightblue" d="M1104.13,-104.18C1082.76,-90.59 1049.16,-71.43 1017,-62.33 950.83,-43.62 871.92,-40.21 817.23,-40.65"/>
<polygon fill="midnightblue" stroke="midnightblue" points="1102.47,-107.28 1112.76,-109.8 1106.29,-101.41 1102.47,-107.28"/>
</g>
<!-- Node4&#45;&gt;Node5 -->
<g id="edge5" class="edge">
<title>Node4&#45;&gt;Node5</title>
<path fill="none" stroke="midnightblue" d="M886.8,-210.42C856.05,-218.3 816.47,-228.44 787.89,-235.76"/>
<polygon fill="midnightblue" stroke="midnightblue" points="888.05,-213.72 896.87,-207.85 886.31,-206.94 888.05,-213.72"/>
</g>
<!-- Node4&#45;&gt;Node7 -->
<g id="edge8" class="edge">
<title>Node4&#45;&gt;Node7</title>
<path fill="none" stroke="midnightblue" d="M881.43,-186.59C853.44,-180.34 819.47,-172.74 793.15,-166.86"/>
<polygon fill="midnightblue" stroke="midnightblue" points="880.92,-190.06 891.44,-188.83 882.44,-183.23 880.92,-190.06"/>
</g>
<!-- Node8 -->
<g id="node8" class="node">
<title>Node8</title>
<g id="a_node8"><a xlink:href="classslljit_1_1_parser.html#aa9a9ce164e114ad7f347f32329f5a5a2" target="_top" xlink:title="definition ::= &#39;def&#39; prototype expression">
<polygon fill="none" stroke="black" points="691.5,-186.33 691.5,-216.33 807.5,-216.33 807.5,-186.33 691.5,-186.33"/>
<text text-anchor="start" x="699.5" y="-204.33" font-family="Helvetica,sans-Serif" font-size="10.00">slljit::Parser::ParseTop</text>
<text text-anchor="middle" x="749.5" y="-193.33" font-family="Helvetica,sans-Serif" font-size="10.00">LevelTypedExpression</text>
</a>
</g>
</g>
<!-- Node4&#45;&gt;Node8 -->
<g id="edge10" class="edge">
<title>Node4&#45;&gt;Node8</title>
<path fill="none" stroke="midnightblue" d="M842.92,-199.82C830.92,-200.02 818.91,-200.22 807.7,-200.4"/>
<polygon fill="midnightblue" stroke="midnightblue" points="843.04,-203.32 852.98,-199.66 842.92,-196.32 843.04,-203.32"/>
</g>
<!-- Node6 -->
<g id="node6" class="node">
<title>Node6</title>
<g id="a_node6"><a xlink:href="classslljit_1_1_parser.html#a45cb3e4f600e8e2c253490e7d878e8cd" target="_top" xlink:title=" ">
<polygon fill="none" stroke="black" points="512,-90.83 512,-109.83 646,-109.83 646,-90.83 512,-90.83"/>
<text text-anchor="middle" x="579" y="-97.83" font-family="Helvetica,sans-Serif" font-size="10.00">slljit::Parser::ParsePrimary</text>
</a>
</g>
</g>
<!-- Node5&#45;&gt;Node6 -->
<g id="edge6" class="edge">
<title>Node5&#45;&gt;Node6</title>
<path fill="none" stroke="midnightblue" d="M691.24,-231.77C688.01,-230.15 684.9,-228.35 682,-226.33 659.82,-210.9 662.81,-198.5 646,-177.33 626.29,-152.52 601.67,-124.53 588.79,-110.1"/>
<polygon fill="midnightblue" stroke="midnightblue" points="690.04,-235.06 700.61,-235.83 692.82,-228.64 690.04,-235.06"/>
</g>
<!-- Node6&#45;&gt;Node1 -->
<g id="edge7" class="edge">
<title>Node6&#45;&gt;Node1</title>
<path fill="none" stroke="midnightblue" d="M596.14,-83.6C614.87,-65.4 647.61,-37.19 682,-24.33 787.2,15 821.68,-5.33 934,-5.33 1128.5,-5.33 1128.5,-5.33 1128.5,-5.33 1240.58,-5.33 1369.73,-46.58 1423.7,-65.75"/>
<polygon fill="midnightblue" stroke="midnightblue" points="593.62,-81.18 589.01,-90.71 598.56,-86.13 593.62,-81.18"/>
</g>
<!-- Node7&#45;&gt;Node6 -->
<g id="edge9" class="edge">
<title>Node7&#45;&gt;Node6</title>
<path fill="none" stroke="midnightblue" d="M710.69,-144.54C679.65,-134.04 636.39,-119.41 608.3,-109.91"/>
<polygon fill="midnightblue" stroke="midnightblue" points="709.7,-147.9 720.3,-147.79 711.95,-141.27 709.7,-147.9"/>
</g>
<!-- Node9 -->
<g id="node9" class="node">
<title>Node9</title>
<g id="a_node9"><a xlink:href="classslljit_1_1_parser.html#af0cac4623fc05b8b7ae9884b0aeb3d3f" target="_top" xlink:title=" ">
<polygon fill="none" stroke="black" points="513.5,-186.33 513.5,-216.33 644.5,-216.33 644.5,-186.33 513.5,-186.33"/>
<text text-anchor="start" x="521.5" y="-204.33" font-family="Helvetica,sans-Serif" font-size="10.00">slljit::Parser::HandleTyped</text>
<text text-anchor="middle" x="579" y="-193.33" font-family="Helvetica,sans-Serif" font-size="10.00">Expression</text>
</a>
</g>
</g>
<!-- Node8&#45;&gt;Node9 -->
<g id="edge11" class="edge">
<title>Node8&#45;&gt;Node9</title>
<path fill="none" stroke="midnightblue" d="M681.39,-201.33C669.24,-201.33 656.6,-201.33 644.53,-201.33"/>
<polygon fill="midnightblue" stroke="midnightblue" points="681.45,-204.83 691.45,-201.33 681.45,-197.83 681.45,-204.83"/>
</g>
<!-- Node10 -->
<g id="node10" class="node">
<title>Node10</title>
<g id="a_node10"><a xlink:href="classslljit_1_1_parser.html#ae2d3d6534b87da7f237c19129a464bda" target="_top" xlink:title="top ::= definition | external | expression | &#39;;&#39;">
<polygon fill="none" stroke="black" points="360,-191.83 360,-210.83 476,-210.83 476,-191.83 360,-191.83"/>
<text text-anchor="middle" x="418" y="-198.83" font-family="Helvetica,sans-Serif" font-size="10.00">slljit::Parser::MainLoop</text>
</a>
</g>
</g>
<!-- Node9&#45;&gt;Node10 -->
<g id="edge12" class="edge">
<title>Node9&#45;&gt;Node10</title>
<path fill="none" stroke="midnightblue" d="M503.16,-201.33C494.1,-201.33 484.96,-201.33 476.21,-201.33"/>
<polygon fill="midnightblue" stroke="midnightblue" points="503.33,-204.83 513.33,-201.33 503.33,-197.83 503.33,-204.83"/>
</g>
<!-- Node11 -->
<g id="node11" class="node">
<title>Node11</title>
<g id="a_node11"><a xlink:href="classslljit_1_1_parser.html#a2429935f3c870648f9f895a7b2361cfb" target="_top" xlink:title=" ">
<polygon fill="none" stroke="black" points="226,-191.83 226,-210.83 324,-210.83 324,-191.83 226,-191.83"/>
<text text-anchor="middle" x="275" y="-198.83" font-family="Helvetica,sans-Serif" font-size="10.00">slljit::Parser::parse</text>
</a>
</g>
</g>
<!-- Node10&#45;&gt;Node11 -->
<g id="edge13" class="edge">
<title>Node10&#45;&gt;Node11</title>
<path fill="none" stroke="midnightblue" d="M349.37,-201.33C340.9,-201.33 332.37,-201.33 324.28,-201.33"/>
<polygon fill="midnightblue" stroke="midnightblue" points="349.65,-204.83 359.65,-201.33 349.65,-197.83 349.65,-204.83"/>
</g>
<!-- Node12 -->
<g id="node12" class="node">
<title>Node12</title>
<g id="a_node12"><a xlink:href="classslljit_1_1_program.html#ae4d26526a7dd9c69ebe92fb43736696b" target="_top" xlink:title=" ">
<polygon fill="none" stroke="black" points="74,-191.83 74,-210.83 190,-210.83 190,-191.83 74,-191.83"/>
<text text-anchor="middle" x="132" y="-198.83" font-family="Helvetica,sans-Serif" font-size="10.00">slljit::Program::compile</text>
</a>
</g>
</g>
<!-- Node11&#45;&gt;Node12 -->
<g id="edge14" class="edge">
<title>Node11&#45;&gt;Node12</title>
<path fill="none" stroke="midnightblue" d="M215.72,-201.33C207.27,-201.33 198.58,-201.33 190.16,-201.33"/>
<polygon fill="midnightblue" stroke="midnightblue" points="215.87,-204.83 225.87,-201.33 215.87,-197.83 215.87,-204.83"/>
</g>
<!-- Node13 -->
<g id="node13" class="node">
<title>Node13</title>
<g id="a_node13"><a xlink:href="compiler__cli_8cpp.html#a3c04138a5bfe5d72780bb7e82a18e627" target="_top" xlink:title=" ">
<polygon fill="none" stroke="black" points="0,-191.83 0,-210.83 38,-210.83 38,-191.83 0,-191.83"/>
<text text-anchor="middle" x="19" y="-198.83" font-family="Helvetica,sans-Serif" font-size="10.00">main</text>
</a>
</g>
</g>
<!-- Node12&#45;&gt;Node13 -->
<g id="edge15" class="edge">
<title>Node12&#45;&gt;Node13</title>
<path fill="none" stroke="midnightblue" d="M63.62,-201.33C54.3,-201.33 45.44,-201.33 38.18,-201.33"/>
<polygon fill="midnightblue" stroke="midnightblue" points="63.87,-204.83 73.87,-201.33 63.87,-197.83 63.87,-204.83"/>
</g>
<!-- Node14&#45;&gt;Node6 -->
<g id="edge18" class="edge">
<title>Node14&#45;&gt;Node6</title>
<path fill="none" stroke="midnightblue" d="M846.59,-114.64C784.59,-111.32 702.67,-106.92 646.08,-103.88"/>
<polygon fill="midnightblue" stroke="midnightblue" points="846.58,-118.15 856.75,-115.19 846.95,-111.16 846.58,-118.15"/>
</g>
<!-- Node15&#45;&gt;Node6 -->
<g id="edge21" class="edge">
<title>Node15&#45;&gt;Node6</title>
<path fill="none" stroke="midnightblue" d="M851.72,-85.75C789.24,-89.1 704.44,-93.66 646.28,-96.78"/>
<polygon fill="midnightblue" stroke="midnightblue" points="852.14,-89.23 861.94,-85.2 851.76,-82.24 852.14,-89.23"/>
</g>
<!-- Node16&#45;&gt;Node6 -->
<g id="edge23" class="edge">
<title>Node16&#45;&gt;Node6</title>
<path fill="none" stroke="midnightblue" d="M710.69,-56.13C679.65,-66.62 636.39,-81.26 608.3,-90.76"/>
<polygon fill="midnightblue" stroke="midnightblue" points="711.95,-59.39 720.3,-52.87 709.7,-52.76 711.95,-59.39"/>
</g>
</g>
</svg>
