<?xml version="1.0" encoding="UTF-8" standalone="no"?>
<!DOCTYPE svg PUBLIC "-//W3C//DTD SVG 1.1//EN"
 "http://www.w3.org/Graphics/SVG/1.1/DTD/svg11.dtd">
<!-- Generated by graphviz version 3.0.0 (20220226.1711)
 -->
<!-- Title: slljit::FunctionAST Pages: 1 -->
<svg width="714pt" height="240pt"
 viewBox="0.00 0.00 714.00 240.00" xmlns="http://www.w3.org/2000/svg" xmlns:xlink="http://www.w3.org/1999/xlink">
<g id="graph0" class="graph" transform="scale(1 1) rotate(0) translate(4 236)">
<title>slljit::FunctionAST</title>
<!-- Node1 -->
<g id="node1" class="node">
<title>Node1</title>
<g id="a_node1"><a xlink:title="This class represents a function definition itself.">
<polygon fill="#bfbfbf" stroke="black" points="526.5,-0.5 526.5,-19.5 622.5,-19.5 622.5,-0.5 526.5,-0.5"/>
<text text-anchor="middle" x="574.5" y="-7.5" font-family="Helvetica,sans-Serif" font-size="10.00">slljit::FunctionAST</text>
</a>
</g>
</g>
<!-- Node2 -->
<g id="node2" class="node">
<title>Node2</title>
<g id="a_node2"><a xlink:href="classslljit_1_1_expr_a_s_t.html" target="_top" xlink:title="Base class for all expression nodes.">
<polygon fill="none" stroke="black" points="536,-145.5 536,-164.5 615,-164.5 615,-145.5 536,-145.5"/>
<text text-anchor="middle" x="575.5" y="-152.5" font-family="Helvetica,sans-Serif" font-size="10.00">slljit::ExprAST</text>
</a>
</g>
</g>
<!-- Node2&#45;&gt;Node1 -->
<g id="edge1" class="edge">
<title>Node2&#45;&gt;Node1</title>
<path fill="none" stroke="midnightblue" d="M575.37,-135.1C575.15,-103.77 574.72,-42.31 574.56,-19.65"/>
<polygon fill="midnightblue" stroke="midnightblue" points="571.87,-135.51 575.44,-145.48 578.87,-135.46 571.87,-135.51"/>
</g>
<!-- Node4 -->
<g id="node4" class="node">
<title>Node4</title>
<g id="a_node4"><a xlink:href="classslljit_1_1_prototype_a_s_t.html" target="_top" xlink:title="Expression class for function prototypes.">
<polygon fill="none" stroke="black" points="313,-73 313,-92 414,-92 414,-73 313,-73"/>
<text text-anchor="middle" x="363.5" y="-80" font-family="Helvetica,sans-Serif" font-size="10.00">slljit::PrototypeAST</text>
</a>
</g>
</g>
<!-- Node2&#45;&gt;Node4 -->
<g id="edge4" class="edge">
<title>Node2&#45;&gt;Node4</title>
<path fill="none" stroke="midnightblue" d="M554.54,-139.48C542.2,-131.53 526.02,-122.08 510.5,-116 479.59,-103.89 443.17,-95.8 414.32,-90.72"/>
<polygon fill="midnightblue" stroke="midnightblue" points="552.88,-142.58 563.15,-145.19 556.75,-136.75 552.88,-142.58"/>
</g>
<!-- Node3 -->
<g id="node3" class="node">
<title>Node3</title>
<g id="a_node3"><a xlink:title=" ">
<polygon fill="none" stroke="black" points="552,-212.5 552,-231.5 599,-231.5 599,-212.5 552,-212.5"/>
<text text-anchor="middle" x="575.5" y="-219.5" font-family="Helvetica,sans-Serif" font-size="10.00">TypeID</text>
</a>
</g>
</g>
<!-- Node3&#45;&gt;Node2 -->
<g id="edge2" class="edge">
<title>Node3&#45;&gt;Node2</title>
<path fill="none" stroke="#9a32cd" stroke-dasharray="5,2" d="M575.5,-202.04C575.5,-189.67 575.5,-174.12 575.5,-164.63"/>
<polygon fill="#9a32cd" stroke="#9a32cd" points="572,-202.23 575.5,-212.23 579,-202.23 572,-202.23"/>
<text text-anchor="middle" x="589.5" y="-186" font-family="Helvetica,sans-Serif" font-size="10.00"> type_</text>
</g>
<!-- Node4&#45;&gt;Node1 -->
<g id="edge3" class="edge">
<title>Node4&#45;&gt;Node1</title>
<path fill="none" stroke="#9a32cd" stroke-dasharray="5,2" d="M398.58,-69.78C441,-55.61 511.36,-32.1 548.96,-19.53"/>
<polygon fill="#9a32cd" stroke="#9a32cd" points="397.33,-66.51 388.95,-73 399.55,-73.15 397.33,-66.51"/>
<text text-anchor="middle" x="502" y="-41" font-family="Helvetica,sans-Serif" font-size="10.00"> Proto</text>
</g>
<!-- Node5 -->
<g id="node5" class="node">
<title>Node5</title>
<g id="a_node5"><a xlink:title=" ">
<polygon fill="none" stroke="black" points="0,-145.5 0,-164.5 41,-164.5 41,-145.5 0,-145.5"/>
<text text-anchor="middle" x="20.5" y="-152.5" font-family="Helvetica,sans-Serif" font-size="10.00">string</text>
</a>
</g>
</g>
<!-- Node5&#45;&gt;Node4 -->
<g id="edge5" class="edge">
<title>Node5&#45;&gt;Node4</title>
<path fill="none" stroke="#9a32cd" stroke-dasharray="5,2" d="M50.91,-144.96C102.86,-130.48 116.81,-126.12 165.5,-116 215.3,-105.65 272.69,-96.54 312.83,-90.61"/>
<polygon fill="#9a32cd" stroke="#9a32cd" points="49.82,-141.63 41.12,-147.68 51.69,-148.37 49.82,-141.63"/>
<text text-anchor="middle" x="180" y="-119" font-family="Helvetica,sans-Serif" font-size="10.00"> Name</text>
</g>
<!-- Node6 -->
<g id="node6" class="node">
<title>Node6</title>
<g id="a_node6"><a xlink:title=" ">
<polygon fill="none" stroke="black" points="59.5,-145.5 59.5,-164.5 163.5,-164.5 163.5,-145.5 59.5,-145.5"/>
<text text-anchor="middle" x="111.5" y="-152.5" font-family="Helvetica,sans-Serif" font-size="10.00">vector&lt; std::string &gt;</text>
</a>
</g>
</g>
<!-- Node6&#45;&gt;Node4 -->
<g id="edge6" class="edge">
<title>Node6&#45;&gt;Node4</title>
<path fill="none" stroke="#9a32cd" stroke-dasharray="5,2" d="M147.66,-142.41C172.32,-134.63 205.77,-124.32 235.5,-116 266.63,-107.28 302.3,-98.31 328.06,-92.01"/>
<polygon fill="#9a32cd" stroke="#9a32cd" points="146.47,-139.11 138,-145.47 148.59,-145.79 146.47,-139.11"/>
<text text-anchor="middle" x="247.5" y="-119" font-family="Helvetica,sans-Serif" font-size="10.00"> Args</text>
</g>
<!-- Node7 -->
<g id="node7" class="node">
<title>Node7</title>
<g id="a_node7"><a xlink:title=" ">
<polygon fill="none" stroke="black" points="181.5,-145.5 181.5,-164.5 271.5,-164.5 271.5,-145.5 181.5,-145.5"/>
<text text-anchor="middle" x="226.5" y="-152.5" font-family="Helvetica,sans-Serif" font-size="10.00">vector&lt; TypeID &gt;</text>
</a>
</g>
</g>
<!-- Node7&#45;&gt;Node4 -->
<g id="edge7" class="edge">
<title>Node7&#45;&gt;Node4</title>
<path fill="none" stroke="#9a32cd" stroke-dasharray="5,2" d="M245.22,-139.15C255.3,-131.59 268.16,-122.63 280.5,-116 298.63,-106.26 320.32,-97.86 336.99,-92.05"/>
<polygon fill="#9a32cd" stroke="#9a32cd" points="242.97,-136.46 237.17,-145.33 247.23,-142.01 242.97,-136.46"/>
<text text-anchor="middle" x="303" y="-119" font-family="Helvetica,sans-Serif" font-size="10.00"> ArgTypes</text>
</g>
<!-- Node8 -->
<g id="node8" class="node">
<title>Node8</title>
<g id="a_node8"><a xlink:title=" ">
<polygon fill="none" stroke="black" points="289.5,-145.5 289.5,-164.5 363.5,-164.5 363.5,-145.5 289.5,-145.5"/>
<text text-anchor="middle" x="326.5" y="-152.5" font-family="Helvetica,sans-Serif" font-size="10.00">const TypeID</text>
</a>
</g>
</g>
<!-- Node8&#45;&gt;Node4 -->
<g id="edge8" class="edge">
<title>Node8&#45;&gt;Node4</title>
<path fill="none" stroke="#9a32cd" stroke-dasharray="5,2" d="M327.23,-135.05C328.06,-128.74 329.61,-121.84 332.5,-116 337.13,-106.63 345.41,-98.17 352.24,-92.23"/>
<polygon fill="#9a32cd" stroke="#9a32cd" points="323.71,-135.17 326.42,-145.41 330.69,-135.72 323.71,-135.17"/>
<text text-anchor="middle" x="354.5" y="-119" font-family="Helvetica,sans-Serif" font-size="10.00"> ret_type_</text>
</g>
<!-- Node9 -->
<g id="node9" class="node">
<title>Node9</title>
<g id="a_node9"><a xlink:title=" ">
<polygon fill="none" stroke="black" points="382,-145.5 382,-164.5 417,-164.5 417,-145.5 382,-145.5"/>
<text text-anchor="middle" x="399.5" y="-152.5" font-family="Helvetica,sans-Serif" font-size="10.00">bool</text>
</a>
</g>
</g>
<!-- Node9&#45;&gt;Node4 -->
<g id="edge9" class="edge">
<title>Node9&#45;&gt;Node4</title>
<path fill="none" stroke="#9a32cd" stroke-dasharray="5,2" d="M390.4,-136.18C383.23,-122.13 373.53,-103.14 367.95,-92.22"/>
<polygon fill="#9a32cd" stroke="#9a32cd" points="387.42,-138.04 395.09,-145.36 393.65,-134.86 387.42,-138.04"/>
<text text-anchor="middle" x="410" y="-119" font-family="Helvetica,sans-Serif" font-size="10.00"> IsOperator</text>
</g>
<!-- Node10 -->
<g id="node10" class="node">
<title>Node10</title>
<g id="a_node10"><a xlink:title=" ">
<polygon fill="none" stroke="black" points="435,-145.5 435,-164.5 518,-164.5 518,-145.5 435,-145.5"/>
<text text-anchor="middle" x="476.5" y="-152.5" font-family="Helvetica,sans-Serif" font-size="10.00">const unsigned</text>
</a>
</g>
</g>
<!-- Node10&#45;&gt;Node4 -->
<g id="edge10" class="edge">
<title>Node10&#45;&gt;Node4</title>
<path fill="none" stroke="#9a32cd" stroke-dasharray="5,2" d="M462.44,-137.33C455.73,-130.11 447.26,-121.96 438.5,-116 423.48,-105.79 404.73,-97.66 389.73,-92.09"/>
<polygon fill="#9a32cd" stroke="#9a32cd" points="460.16,-140.04 469.42,-145.2 465.4,-135.4 460.16,-140.04"/>
<text text-anchor="middle" x="479" y="-119" font-family="Helvetica,sans-Serif" font-size="10.00"> Precedence</text>
</g>
<!-- Node11 -->
<g id="node11" class="node">
<title>Node11</title>
<g id="a_node11"><a xlink:title=" ">
<polygon fill="none" stroke="black" points="603,-67.5 603,-97.5 706,-97.5 706,-67.5 603,-67.5"/>
<text text-anchor="start" x="611" y="-85.5" font-family="Helvetica,sans-Serif" font-size="10.00">list&lt; std::unique_ptr</text>
<text text-anchor="middle" x="654.5" y="-74.5" font-family="Helvetica,sans-Serif" font-size="10.00">&lt; ExprAST &gt; &gt;</text>
</a>
</g>
</g>
<!-- Node11&#45;&gt;Node1 -->
<g id="edge11" class="edge">
<title>Node11&#45;&gt;Node1</title>
<path fill="none" stroke="#9a32cd" stroke-dasharray="5,2" d="M630.68,-60.51C615.31,-46.96 596.1,-30.03 584.59,-19.89"/>
<polygon fill="#9a32cd" stroke="#9a32cd" points="628.49,-63.25 638.31,-67.23 633.12,-58 628.49,-63.25"/>
<text text-anchor="middle" x="629.5" y="-41" font-family="Helvetica,sans-Serif" font-size="10.00"> Body</text>
</g>
</g>
</svg>
