<?xml version="1.0" encoding="UTF-8" standalone="no"?>
<!DOCTYPE svg PUBLIC "-//W3C//DTD SVG 1.1//EN"
 "http://www.w3.org/Graphics/SVG/1.1/DTD/svg11.dtd">
<!-- Generated by graphviz version 3.0.0 (20220226.1711)
 -->
<!-- Title: slljit::CallExprAST::codegen Pages: 1 -->
<svg width="542pt" height="268pt"
 viewBox="0.00 0.00 542.00 267.50" xmlns="http://www.w3.org/2000/svg" xmlns:xlink="http://www.w3.org/1999/xlink">
<g id="graph0" class="graph" transform="scale(1 1) rotate(0) translate(4 263.5)">
<title>slljit::CallExprAST::codegen</title>
<!-- Node1 -->
<g id="node1" class="node">
<title>Node1</title>
<g id="a_node1"><a xlink:title=" ">
<polygon fill="#bfbfbf" stroke="black" points="0,-44.5 0,-74.5 95,-74.5 95,-44.5 0,-44.5"/>
<text text-anchor="start" x="8" y="-62.5" font-family="Helvetica,sans-Serif" font-size="10.00">slljit::CallExprAST</text>
<text text-anchor="middle" x="47.5" y="-51.5" font-family="Helvetica,sans-Serif" font-size="10.00">::codegen</text>
</a>
</g>
</g>
<!-- Node2 -->
<g id="node2" class="node">
<title>Node2</title>
<g id="a_node2"><a xlink:href="namespaceslljit.html#a35fd5437fe4da3972add655696b4ba1e" target="_top" xlink:title="Creates explict cast.">
<polygon fill="none" stroke="black" points="131,-145 131,-164 250,-164 250,-145 131,-145"/>
<text text-anchor="middle" x="190.5" y="-152" font-family="Helvetica,sans-Serif" font-size="10.00">slljit::CreateExplictCast</text>
</a>
</g>
</g>
<!-- Node1&#45;&gt;Node2 -->
<g id="edge1" class="edge">
<title>Node1&#45;&gt;Node2</title>
<path fill="none" stroke="midnightblue" d="M70.84,-74.55C96.96,-92.15 139.97,-121.13 166.41,-138.94"/>
<polygon fill="midnightblue" stroke="midnightblue" points="164.76,-142.05 175.01,-144.74 168.67,-136.25 164.76,-142.05"/>
</g>
<!-- Node4 -->
<g id="node4" class="node">
<title>Node4</title>
<g id="a_node4"><a xlink:href="classslljit_1_1_local_context.html#acd5a146c139b01ff0c5d1be79e187749" target="_top" xlink:title=" ">
<polygon fill="none" stroke="black" points="437,-196.5 437,-226.5 534,-226.5 534,-196.5 437,-196.5"/>
<text text-anchor="start" x="445" y="-214.5" font-family="Helvetica,sans-Serif" font-size="10.00">slljit::LocalContext</text>
<text text-anchor="middle" x="485.5" y="-203.5" font-family="Helvetica,sans-Serif" font-size="10.00">::getBuilder</text>
</a>
</g>
</g>
<!-- Node1&#45;&gt;Node4 -->
<g id="edge8" class="edge">
<title>Node1&#45;&gt;Node4</title>
<path fill="none" stroke="midnightblue" d="M95.05,-56.83C178.72,-52.86 350.49,-48.77 401,-78.5 441.74,-102.48 465.6,-154.99 476.75,-186.39"/>
<polygon fill="midnightblue" stroke="midnightblue" points="473.54,-187.8 480.06,-196.15 480.17,-185.56 473.54,-187.8"/>
</g>
<!-- Node8 -->
<g id="node8" class="node">
<title>Node8</title>
<g id="a_node8"><a xlink:href="group___a_s_t.html#ga43bd4527a94e16e6fb1be89c3b4fc678" target="_top" xlink:title=" ">
<polygon fill="none" stroke="black" points="145,-9 145,-28 236,-28 236,-9 145,-9"/>
<text text-anchor="middle" x="190.5" y="-16" font-family="Helvetica,sans-Serif" font-size="10.00">slljit::getFunction</text>
</a>
</g>
</g>
<!-- Node1&#45;&gt;Node8 -->
<g id="edge9" class="edge">
<title>Node1&#45;&gt;Node8</title>
<path fill="none" stroke="midnightblue" d="M95.06,-45.96C111.8,-41.09 130.58,-35.63 146.96,-30.87"/>
<polygon fill="midnightblue" stroke="midnightblue" points="148.19,-34.16 156.81,-28.01 146.23,-27.44 148.19,-34.16"/>
</g>
<!-- Node3 -->
<g id="node3" class="node">
<title>Node3</title>
<g id="a_node3"><a xlink:href="namespaceslljit.html#ab200d7cf320fef1a4045511b03b4168b" target="_top" xlink:title="Translates TypeID types to llvm types.">
<polygon fill="none" stroke="black" points="294,-240 294,-259 393,-259 393,-240 294,-240"/>
<text text-anchor="middle" x="343.5" y="-247" font-family="Helvetica,sans-Serif" font-size="10.00">slljit::get_llvm_type</text>
</a>
</g>
</g>
<!-- Node2&#45;&gt;Node3 -->
<g id="edge2" class="edge">
<title>Node2&#45;&gt;Node3</title>
<path fill="none" stroke="midnightblue" d="M202.51,-164.19C219.53,-178.83 253.64,-206.84 286,-225.5 292.54,-229.27 299.78,-232.79 306.84,-235.91"/>
<polygon fill="midnightblue" stroke="midnightblue" points="305.7,-239.23 316.27,-239.9 308.43,-232.78 305.7,-239.23"/>
</g>
<!-- Node2&#45;&gt;Node4 -->
<g id="edge4" class="edge">
<title>Node2&#45;&gt;Node4</title>
<path fill="none" stroke="midnightblue" d="M210.51,-164.04C229.22,-172.96 258.85,-185.89 286,-192.5 332.57,-203.84 386.82,-208.47 426.83,-210.33"/>
<polygon fill="midnightblue" stroke="midnightblue" points="426.8,-213.84 436.94,-210.76 427.1,-206.84 426.8,-213.84"/>
</g>
<!-- Node5 -->
<g id="node5" class="node">
<title>Node5</title>
<g id="a_node5"><a xlink:href="namespaceslljit.html#a8fff8c5a53d6ca4875a058b06b6d60e6" target="_top" xlink:title="Checks if value type is floating point type.">
<polygon fill="none" stroke="black" points="286,-164 286,-183 401,-183 401,-164 286,-164"/>
<text text-anchor="middle" x="343.5" y="-171" font-family="Helvetica,sans-Serif" font-size="10.00">slljit::isFloatingPointTy</text>
</a>
</g>
</g>
<!-- Node2&#45;&gt;Node5 -->
<g id="edge5" class="edge">
<title>Node2&#45;&gt;Node5</title>
<path fill="none" stroke="midnightblue" d="M250.31,-161.9C258.56,-162.94 267.08,-164.01 275.46,-165.06"/>
<polygon fill="midnightblue" stroke="midnightblue" points="275.22,-168.56 285.58,-166.34 276.1,-161.62 275.22,-168.56"/>
</g>
<!-- Node6 -->
<g id="node6" class="node">
<title>Node6</title>
<g id="a_node6"><a xlink:href="namespaceslljit.html#a3a3394e16b561f11dd00a8532ee034e4" target="_top" xlink:title="Checks if value type is integer type.">
<polygon fill="none" stroke="black" points="300,-126 300,-145 387,-145 387,-126 300,-126"/>
<text text-anchor="middle" x="343.5" y="-133" font-family="Helvetica,sans-Serif" font-size="10.00">slljit::isIntegerTy</text>
</a>
</g>
</g>
<!-- Node2&#45;&gt;Node6 -->
<g id="edge6" class="edge">
<title>Node2&#45;&gt;Node6</title>
<path fill="none" stroke="midnightblue" d="M250.31,-147.1C263.38,-145.46 277.15,-143.72 289.95,-142.11"/>
<polygon fill="midnightblue" stroke="midnightblue" points="290.49,-145.57 299.97,-140.85 289.61,-138.63 290.49,-145.57"/>
</g>
<!-- Node7 -->
<g id="node7" class="node">
<title>Node7</title>
<g id="a_node7"><a xlink:href="namespaceslljit.html#a4a92e29091af0a9f6c8d1499beccc810" target="_top" xlink:title=" ">
<polygon fill="none" stroke="black" points="305,-88 305,-107 382,-107 382,-88 305,-88"/>
<text text-anchor="middle" x="343.5" y="-95" font-family="Helvetica,sans-Serif" font-size="10.00">slljit::isSigned</text>
</a>
</g>
</g>
<!-- Node2&#45;&gt;Node7 -->
<g id="edge7" class="edge">
<title>Node2&#45;&gt;Node7</title>
<path fill="none" stroke="midnightblue" d="M214.27,-144.91C233.32,-136.99 261.28,-125.62 286,-116.5 291.6,-114.44 297.54,-112.34 303.39,-110.32"/>
<polygon fill="midnightblue" stroke="midnightblue" points="304.72,-113.57 313.06,-107.04 302.47,-106.94 304.72,-113.57"/>
</g>
<!-- Node3&#45;&gt;Node4 -->
<g id="edge3" class="edge">
<title>Node3&#45;&gt;Node4</title>
<path fill="none" stroke="midnightblue" d="M379.83,-239.91C394.12,-236.03 410.98,-231.45 426.96,-227.12"/>
<polygon fill="midnightblue" stroke="midnightblue" points="428.02,-230.46 436.75,-224.46 426.19,-223.7 428.02,-230.46"/>
</g>
<!-- Node9 -->
<g id="node9" class="node">
<title>Node9</title>
<g id="a_node9"><a xlink:href="classslljit_1_1_local_context.html#abb9845ccd33f6c425e174f0090e92fbe" target="_top" xlink:title=" ">
<polygon fill="none" stroke="black" points="295,-0.5 295,-30.5 392,-30.5 392,-0.5 295,-0.5"/>
<text text-anchor="start" x="303" y="-18.5" font-family="Helvetica,sans-Serif" font-size="10.00">slljit::LocalContext</text>
<text text-anchor="middle" x="343.5" y="-7.5" font-family="Helvetica,sans-Serif" font-size="10.00">::getModule</text>
</a>
</g>
</g>
<!-- Node8&#45;&gt;Node9 -->
<g id="edge10" class="edge">
<title>Node8&#45;&gt;Node9</title>
<path fill="none" stroke="midnightblue" d="M236.4,-17.61C251.51,-17.31 268.6,-16.97 284.58,-16.65"/>
<polygon fill="midnightblue" stroke="midnightblue" points="284.96,-20.14 294.89,-16.45 284.82,-13.15 284.96,-20.14"/>
</g>
</g>
</svg>
