<?xml version="1.0" encoding="UTF-8" standalone="no"?>
<!DOCTYPE svg PUBLIC "-//W3C//DTD SVG 1.1//EN"
 "http://www.w3.org/Graphics/SVG/1.1/DTD/svg11.dtd">
<!-- Generated by graphviz version 3.0.0 (20220226.1711)
 -->
<!-- Title: slljit::Tokenizer::get_type_identifier Pages: 1 -->
<svg width="1917pt" height="315pt"
 viewBox="0.00 0.00 1917.00 314.54" xmlns="http://www.w3.org/2000/svg" xmlns:xlink="http://www.w3.org/1999/xlink">
<g id="graph0" class="graph" transform="scale(1 1) rotate(0) translate(4 310.54)">
<title>slljit::Tokenizer::get_type_identifier</title>
<!-- Node1 -->
<g id="node1" class="node">
<title>Node1</title>
<g id="a_node1"><a xlink:title=" ">
<polygon fill="#bfbfbf" stroke="black" points="1814,-249.54 1814,-279.54 1909,-279.54 1909,-249.54 1814,-249.54"/>
<text text-anchor="start" x="1822" y="-267.54" font-family="Helvetica,sans-Serif" font-size="10.00">slljit::Tokenizer::</text>
<text text-anchor="middle" x="1861.5" y="-256.54" font-family="Helvetica,sans-Serif" font-size="10.00">get_type_identifier</text>
</a>
</g>
</g>
<!-- Node2 -->
<g id="node2" class="node">
<title>Node2</title>
<g id="a_node2"><a xlink:href="classslljit_1_1_parser.html#ad51a4352241881b5c6d118db9ccdec46" target="_top" xlink:title=" ">
<polygon fill="none" stroke="black" points="788,-287.04 788,-306.04 930,-306.04 930,-287.04 788,-287.04"/>
<text text-anchor="middle" x="859" y="-294.04" font-family="Helvetica,sans-Serif" font-size="10.00">slljit::Parser::ParsePrototype</text>
</a>
</g>
</g>
<!-- Node1&#45;&gt;Node2 -->
<g id="edge1" class="edge">
<title>Node1&#45;&gt;Node2</title>
<path fill="none" stroke="midnightblue" d="M1803.64,-275.42C1739.94,-286.65 1633.47,-302.54 1541,-302.54 1541,-302.54 1541,-302.54 1218,-302.54 1118.08,-302.54 1002.48,-300.17 930.3,-298.41"/>
<polygon fill="midnightblue" stroke="midnightblue" points="1804.65,-278.79 1813.88,-273.59 1803.42,-271.9 1804.65,-278.79"/>
</g>
<!-- Node10 -->
<g id="node10" class="node">
<title>Node10</title>
<g id="a_node10"><a xlink:href="classslljit_1_1_parser.html#a435877d3f2869d140a7cca646546a114" target="_top" xlink:title="varexpr ::= &#39;g_var&#39; identifier (&#39;=&#39; expression)?">
<polygon fill="none" stroke="black" points="1643,-217.04 1643,-236.04 1778,-236.04 1778,-217.04 1643,-217.04"/>
<text text-anchor="middle" x="1710.5" y="-224.04" font-family="Helvetica,sans-Serif" font-size="10.00">slljit::Parser::ParseVarExpr</text>
</a>
</g>
</g>
<!-- Node1&#45;&gt;Node10 -->
<g id="edge10" class="edge">
<title>Node1&#45;&gt;Node10</title>
<path fill="none" stroke="midnightblue" d="M1804.04,-250.14C1785.67,-245.45 1765.75,-240.37 1749.11,-236.13"/>
<polygon fill="midnightblue" stroke="midnightblue" points="1803.21,-253.54 1813.76,-252.62 1804.94,-246.75 1803.21,-253.54"/>
</g>
<!-- Node3 -->
<g id="node3" class="node">
<title>Node3</title>
<g id="a_node3"><a xlink:href="classslljit_1_1_parser.html#af6e239a609e8a3812838b53f9a8356ce" target="_top" xlink:title="external ::= &#39;extern&#39; prototype">
<polygon fill="none" stroke="black" points="610,-287.04 610,-306.04 738,-306.04 738,-287.04 610,-287.04"/>
<text text-anchor="middle" x="674" y="-294.04" font-family="Helvetica,sans-Serif" font-size="10.00">slljit::Parser::ParseExtern</text>
</a>
</g>
</g>
<!-- Node2&#45;&gt;Node3 -->
<g id="edge2" class="edge">
<title>Node2&#45;&gt;Node3</title>
<path fill="none" stroke="midnightblue" d="M777.72,-296.54C764.47,-296.54 750.91,-296.54 738.15,-296.54"/>
<polygon fill="midnightblue" stroke="midnightblue" points="777.77,-300.04 787.77,-296.54 777.77,-293.04 777.77,-300.04"/>
</g>
<!-- Node8 -->
<g id="node8" class="node">
<title>Node8</title>
<g id="a_node8"><a xlink:href="classslljit_1_1_parser.html#aa9a9ce164e114ad7f347f32329f5a5a2" target="_top" xlink:title="definition ::= &#39;def&#39; prototype expression">
<polygon fill="none" stroke="black" points="616,-237.54 616,-267.54 732,-267.54 732,-237.54 616,-237.54"/>
<text text-anchor="start" x="624" y="-255.54" font-family="Helvetica,sans-Serif" font-size="10.00">slljit::Parser::ParseTop</text>
<text text-anchor="middle" x="674" y="-244.54" font-family="Helvetica,sans-Serif" font-size="10.00">LevelTypedExpression</text>
</a>
</g>
</g>
<!-- Node2&#45;&gt;Node8 -->
<g id="edge7" class="edge">
<title>Node2&#45;&gt;Node8</title>
<path fill="none" stroke="midnightblue" d="M808.53,-284.64C785.02,-278.99 756.78,-272.2 732.34,-266.32"/>
<polygon fill="midnightblue" stroke="midnightblue" points="807.75,-288.05 818.29,-286.99 809.39,-281.25 807.75,-288.05"/>
</g>
<!-- Node4 -->
<g id="node4" class="node">
<title>Node4</title>
<g id="a_node4"><a xlink:href="classslljit_1_1_parser.html#a5ff2f693f00fe32c8ee836e9139cb93e" target="_top" xlink:title=" ">
<polygon fill="none" stroke="black" points="438,-287.04 438,-306.04 571,-306.04 571,-287.04 438,-287.04"/>
<text text-anchor="middle" x="504.5" y="-294.04" font-family="Helvetica,sans-Serif" font-size="10.00">slljit::Parser::HandleExtern</text>
</a>
</g>
</g>
<!-- Node3&#45;&gt;Node4 -->
<g id="edge3" class="edge">
<title>Node3&#45;&gt;Node4</title>
<path fill="none" stroke="midnightblue" d="M599.52,-296.54C590.07,-296.54 580.45,-296.54 571.14,-296.54"/>
<polygon fill="midnightblue" stroke="midnightblue" points="599.68,-300.04 609.68,-296.54 599.68,-293.04 599.68,-300.04"/>
</g>
<!-- Node5 -->
<g id="node5" class="node">
<title>Node5</title>
<g id="a_node5"><a xlink:href="classslljit_1_1_parser.html#ae2d3d6534b87da7f237c19129a464bda" target="_top" xlink:title="top ::= definition | external | expression | &#39;;&#39;">
<polygon fill="none" stroke="black" points="286,-265.04 286,-284.04 402,-284.04 402,-265.04 286,-265.04"/>
<text text-anchor="middle" x="344" y="-272.04" font-family="Helvetica,sans-Serif" font-size="10.00">slljit::Parser::MainLoop</text>
</a>
</g>
</g>
<!-- Node4&#45;&gt;Node5 -->
<g id="edge4" class="edge">
<title>Node4&#45;&gt;Node5</title>
<path fill="none" stroke="midnightblue" d="M427.68,-286.01C419.14,-284.83 410.55,-283.63 402.3,-282.49"/>
<polygon fill="midnightblue" stroke="midnightblue" points="427.27,-289.49 437.66,-287.4 428.23,-282.55 427.27,-289.49"/>
</g>
<!-- Node6 -->
<g id="node6" class="node">
<title>Node6</title>
<g id="a_node6"><a xlink:href="classslljit_1_1_parser.html#a2429935f3c870648f9f895a7b2361cfb" target="_top" xlink:title=" ">
<polygon fill="none" stroke="black" points="152,-265.04 152,-284.04 250,-284.04 250,-265.04 152,-265.04"/>
<text text-anchor="middle" x="201" y="-272.04" font-family="Helvetica,sans-Serif" font-size="10.00">slljit::Parser::parse</text>
</a>
</g>
</g>
<!-- Node5&#45;&gt;Node6 -->
<g id="edge5" class="edge">
<title>Node5&#45;&gt;Node6</title>
<path fill="none" stroke="midnightblue" d="M275.37,-274.54C266.9,-274.54 258.37,-274.54 250.28,-274.54"/>
<polygon fill="midnightblue" stroke="midnightblue" points="275.65,-278.04 285.65,-274.54 275.65,-271.04 275.65,-278.04"/>
</g>
<!-- Node7 -->
<g id="node7" class="node">
<title>Node7</title>
<g id="a_node7"><a xlink:href="classslljit_1_1_program.html#ae4d26526a7dd9c69ebe92fb43736696b" target="_top" xlink:title=" ">
<polygon fill="none" stroke="black" points="0,-265.04 0,-284.04 116,-284.04 116,-265.04 0,-265.04"/>
<text text-anchor="middle" x="58" y="-272.04" font-family="Helvetica,sans-Serif" font-size="10.00">slljit::Program::compile</text>
</a>
</g>
</g>
<!-- Node6&#45;&gt;Node7 -->
<g id="edge6" class="edge">
<title>Node6&#45;&gt;Node7</title>
<path fill="none" stroke="midnightblue" d="M141.72,-274.54C133.27,-274.54 124.58,-274.54 116.16,-274.54"/>
<polygon fill="midnightblue" stroke="midnightblue" points="141.87,-278.04 151.87,-274.54 141.87,-271.04 141.87,-278.04"/>
</g>
<!-- Node9 -->
<g id="node9" class="node">
<title>Node9</title>
<g id="a_node9"><a xlink:href="classslljit_1_1_parser.html#af0cac4623fc05b8b7ae9884b0aeb3d3f" target="_top" xlink:title=" ">
<polygon fill="none" stroke="black" points="439,-237.54 439,-267.54 570,-267.54 570,-237.54 439,-237.54"/>
<text text-anchor="start" x="447" y="-255.54" font-family="Helvetica,sans-Serif" font-size="10.00">slljit::Parser::HandleTyped</text>
<text text-anchor="middle" x="504.5" y="-244.54" font-family="Helvetica,sans-Serif" font-size="10.00">Expression</text>
</a>
</g>
</g>
<!-- Node8&#45;&gt;Node9 -->
<g id="edge8" class="edge">
<title>Node8&#45;&gt;Node9</title>
<path fill="none" stroke="midnightblue" d="M605.68,-252.54C593.97,-252.54 581.82,-252.54 570.19,-252.54"/>
<polygon fill="midnightblue" stroke="midnightblue" points="605.82,-256.04 615.82,-252.54 605.82,-249.04 605.82,-256.04"/>
</g>
<!-- Node9&#45;&gt;Node5 -->
<g id="edge9" class="edge">
<title>Node9&#45;&gt;Node5</title>
<path fill="none" stroke="midnightblue" d="M428.61,-262.93C419.73,-264.16 410.78,-265.4 402.21,-266.59"/>
<polygon fill="midnightblue" stroke="midnightblue" points="429.15,-266.39 438.57,-261.55 428.19,-259.46 429.15,-266.39"/>
</g>
<!-- Node11 -->
<g id="node11" class="node">
<title>Node11</title>
<g id="a_node11"><a xlink:href="classslljit_1_1_parser.html#a45cb3e4f600e8e2c253490e7d878e8cd" target="_top" xlink:title=" ">
<polygon fill="none" stroke="black" points="1473,-92.04 1473,-111.04 1607,-111.04 1607,-92.04 1473,-92.04"/>
<text text-anchor="middle" x="1540" y="-99.04" font-family="Helvetica,sans-Serif" font-size="10.00">slljit::Parser::ParsePrimary</text>
</a>
</g>
</g>
<!-- Node10&#45;&gt;Node11 -->
<g id="edge11" class="edge">
<title>Node10&#45;&gt;Node11</title>
<path fill="none" stroke="midnightblue" d="M1688.39,-210.87C1653.14,-184.73 1583.32,-132.93 1554.22,-111.34"/>
<polygon fill="midnightblue" stroke="midnightblue" points="1686.44,-213.79 1696.56,-216.93 1690.61,-208.17 1686.44,-213.79"/>
</g>
<!-- Node12 -->
<g id="node12" class="node">
<title>Node12</title>
<g id="a_node12"><a xlink:href="classslljit_1_1_parser.html#af8579896f39ac563d2edd14404d70f41" target="_top" xlink:title=" ">
<polygon fill="none" stroke="black" points="1312,-111.04 1312,-130.04 1437,-130.04 1437,-111.04 1312,-111.04"/>
<text text-anchor="middle" x="1374.5" y="-118.04" font-family="Helvetica,sans-Serif" font-size="10.00">slljit::Parser::ParseUnary</text>
</a>
</g>
</g>
<!-- Node11&#45;&gt;Node12 -->
<g id="edge12" class="edge">
<title>Node11&#45;&gt;Node12</title>
<path fill="none" stroke="midnightblue" d="M1462.86,-110.38C1454.2,-111.39 1445.46,-112.41 1437.02,-113.39"/>
<polygon fill="midnightblue" stroke="midnightblue" points="1463.44,-113.84 1472.97,-109.21 1462.63,-106.89 1463.44,-113.84"/>
</g>
<!-- Node12&#45;&gt;Node12 -->
<g id="edge30" class="edge">
<title>Node12&#45;&gt;Node12</title>
<path fill="none" stroke="midnightblue" d="M1403.25,-139.19C1402.04,-144.47 1392.46,-148.54 1374.5,-148.54 1347.13,-148.54 1339.22,-139.1 1350.76,-130.29"/>
<polygon fill="midnightblue" stroke="midnightblue" points="1406.19,-137.29 1398.24,-130.29 1400.09,-140.72 1406.19,-137.29"/>
</g>
<!-- Node13 -->
<g id="node13" class="node">
<title>Node13</title>
<g id="a_node13"><a xlink:href="classslljit_1_1_parser.html#ae387c9672ec50720d8cb969558aedbe9" target="_top" xlink:title=" ">
<polygon fill="none" stroke="black" points="1162,-149.54 1162,-179.54 1276,-179.54 1276,-149.54 1162,-149.54"/>
<text text-anchor="start" x="1170" y="-167.54" font-family="Helvetica,sans-Serif" font-size="10.00">slljit::Parser::ParseBin</text>
<text text-anchor="middle" x="1219" y="-156.54" font-family="Helvetica,sans-Serif" font-size="10.00">OpRHS</text>
</a>
</g>
</g>
<!-- Node12&#45;&gt;Node13 -->
<g id="edge13" class="edge">
<title>Node12&#45;&gt;Node13</title>
<path fill="none" stroke="midnightblue" d="M1330.55,-132.85C1312.56,-138 1291.47,-144.05 1272.56,-149.47"/>
<polygon fill="midnightblue" stroke="midnightblue" points="1331.54,-136.2 1340.19,-130.08 1329.62,-129.47 1331.54,-136.2"/>
</g>
<!-- Node14 -->
<g id="node14" class="node">
<title>Node14</title>
<g id="a_node14"><a xlink:href="classslljit_1_1_parser.html#a79461bf414d03dcabb49d3bbd6f89607" target="_top" xlink:title=" ">
<polygon fill="none" stroke="black" points="977,-154.04 977,-173.04 1126,-173.04 1126,-154.04 977,-154.04"/>
<text text-anchor="middle" x="1051.5" y="-161.04" font-family="Helvetica,sans-Serif" font-size="10.00">slljit::Parser::ParseExpression</text>
</a>
</g>
</g>
<!-- Node12&#45;&gt;Node14 -->
<g id="edge29" class="edge">
<title>Node12&#45;&gt;Node14</title>
<path fill="none" stroke="midnightblue" d="M1301.53,-124.74C1260.49,-127.7 1208.19,-132.43 1162,-139.54 1137.96,-143.24 1111.29,-149.04 1090.29,-154.02"/>
<polygon fill="midnightblue" stroke="midnightblue" points="1301.98,-128.22 1311.71,-124.02 1301.49,-121.23 1301.98,-128.22"/>
</g>
<!-- Node13&#45;&gt;Node13 -->
<g id="edge14" class="edge">
<title>Node13&#45;&gt;Node13</title>
<path fill="none" stroke="midnightblue" d="M1246.36,-189.99C1242.97,-194.71 1233.85,-198.04 1219,-198.04 1194.64,-198.04 1185.69,-189.09 1192.16,-179.69"/>
<polygon fill="midnightblue" stroke="midnightblue" points="1249.84,-189.5 1245.84,-179.69 1242.85,-189.86 1249.84,-189.5"/>
</g>
<!-- Node13&#45;&gt;Node14 -->
<g id="edge15" class="edge">
<title>Node13&#45;&gt;Node14</title>
<path fill="none" stroke="midnightblue" d="M1151.8,-164.14C1143.34,-164.08 1134.64,-164.03 1126.08,-163.98"/>
<polygon fill="midnightblue" stroke="midnightblue" points="1151.95,-167.64 1161.97,-164.2 1151.99,-160.64 1151.95,-167.64"/>
</g>
<!-- Node14&#45;&gt;Node10 -->
<g id="edge28" class="edge">
<title>Node14&#45;&gt;Node10</title>
<path fill="none" stroke="midnightblue" d="M1080.53,-177.59C1102.18,-187.69 1133.22,-200.54 1162,-206.54 1332.4,-242.03 1538.96,-237 1642.9,-231.24"/>
<polygon fill="midnightblue" stroke="midnightblue" points="1081.81,-174.33 1071.28,-173.18 1078.8,-180.64 1081.81,-174.33"/>
</g>
<!-- Node15 -->
<g id="node15" class="node">
<title>Node15</title>
<g id="a_node15"><a xlink:href="classslljit_1_1_parser.html#acc431005ac3dd38732083d7a1bb0eab2" target="_top" xlink:title=" ">
<polygon fill="none" stroke="black" points="777,-153.04 777,-172.04 941,-172.04 941,-153.04 777,-153.04"/>
<text text-anchor="middle" x="859" y="-160.04" font-family="Helvetica,sans-Serif" font-size="10.00">slljit::Parser::ParseExpressionList</text>
</a>
</g>
</g>
<!-- Node14&#45;&gt;Node15 -->
<g id="edge16" class="edge">
<title>Node14&#45;&gt;Node15</title>
<path fill="none" stroke="midnightblue" d="M966.58,-163.09C958.1,-163.05 949.5,-163 941.05,-162.96"/>
<polygon fill="midnightblue" stroke="midnightblue" points="966.83,-166.6 976.85,-163.15 966.87,-159.6 966.83,-166.6"/>
</g>
<!-- Node16 -->
<g id="node16" class="node">
<title>Node16</title>
<g id="a_node16"><a xlink:href="classslljit_1_1_parser.html#a81023e7a6221eb6b92027bd21433c9dd" target="_top" xlink:title="forexpr ::= &#39;for&#39; identifier &#39;=&#39; expr &#39;,&#39; expr (&#39;,&#39; expr)? &#39;in&#39; expression">
<polygon fill="none" stroke="black" points="607,-115.04 607,-134.04 741,-134.04 741,-115.04 607,-115.04"/>
<text text-anchor="middle" x="674" y="-122.04" font-family="Helvetica,sans-Serif" font-size="10.00">slljit::Parser::ParseForExpr</text>
</a>
</g>
</g>
<!-- Node14&#45;&gt;Node16 -->
<g id="edge22" class="edge">
<title>Node14&#45;&gt;Node16</title>
<path fill="none" stroke="midnightblue" d="M994.72,-152.13C977.55,-148.95 958.55,-145.76 941,-143.54 873.14,-134.94 795,-129.94 741.06,-127.24"/>
<polygon fill="midnightblue" stroke="midnightblue" points="994.11,-155.58 1004.59,-153.99 995.41,-148.7 994.11,-155.58"/>
</g>
<!-- Node17 -->
<g id="node17" class="node">
<title>Node17</title>
<g id="a_node17"><a xlink:href="classslljit_1_1_parser.html#a149f5e88cb03aa08c388e6320c6c1bac" target="_top" xlink:title="ifexpr ::= &#39;if&#39; expression &#39;then&#39; expression &#39;else&#39; expression">
<polygon fill="none" stroke="black" points="611.5,-153.04 611.5,-172.04 736.5,-172.04 736.5,-153.04 611.5,-153.04"/>
<text text-anchor="middle" x="674" y="-160.04" font-family="Helvetica,sans-Serif" font-size="10.00">slljit::Parser::ParseIfExpr</text>
</a>
</g>
</g>
<!-- Node14&#45;&gt;Node17 -->
<g id="edge25" class="edge">
<title>Node14&#45;&gt;Node17</title>
<path fill="none" stroke="midnightblue" d="M992.86,-174.82C976.2,-177.59 957.93,-180.15 941,-181.54 868.35,-187.47 849.58,-188.24 777,-181.54 756.91,-179.68 734.88,-175.81 716.44,-172.05"/>
<polygon fill="midnightblue" stroke="midnightblue" points="993.74,-178.22 1003.01,-173.07 992.56,-171.32 993.74,-178.22"/>
</g>
<!-- Node18 -->
<g id="node18" class="node">
<title>Node18</title>
<g id="a_node18"><a xlink:href="classslljit_1_1_parser.html#a25cfefcbeea85744e23370d3a6f8ad5b" target="_top" xlink:title=" ">
<polygon fill="none" stroke="black" points="781,-242.04 781,-261.04 937,-261.04 937,-242.04 781,-242.04"/>
<text text-anchor="middle" x="859" y="-249.04" font-family="Helvetica,sans-Serif" font-size="10.00">slljit::Parser::ParseIdentifierExpr</text>
</a>
</g>
</g>
<!-- Node14&#45;&gt;Node18 -->
<g id="edge23" class="edge">
<title>Node14&#45;&gt;Node18</title>
<path fill="none" stroke="midnightblue" d="M1020.78,-177.45C998.77,-187.74 968.04,-202.06 941,-214.54 920.64,-223.92 897.36,-234.55 881,-241.99"/>
<polygon fill="midnightblue" stroke="midnightblue" points="1022.36,-180.57 1029.94,-173.17 1019.39,-174.23 1022.36,-180.57"/>
</g>
<!-- Node19 -->
<g id="node19" class="node">
<title>Node19</title>
<g id="a_node19"><a xlink:href="classslljit_1_1_parser.html#a6e2e0f6a2cc445f3a956db59c8d2da66" target="_top" xlink:title="parenexpr ::= &#39;(&#39; expression &#39;)&#39;">
<polygon fill="none" stroke="black" points="786,-74.04 786,-93.04 932,-93.04 932,-74.04 786,-74.04"/>
<text text-anchor="middle" x="859" y="-81.04" font-family="Helvetica,sans-Serif" font-size="10.00">slljit::Parser::ParseParenExpr</text>
</a>
</g>
</g>
<!-- Node14&#45;&gt;Node19 -->
<g id="edge26" class="edge">
<title>Node14&#45;&gt;Node19</title>
<path fill="none" stroke="midnightblue" d="M1023.59,-149.3C1001.69,-138.02 969.8,-122.25 941,-110.54 925.07,-104.06 906.95,-97.91 891.89,-93.12"/>
<polygon fill="midnightblue" stroke="midnightblue" points="1022.12,-152.49 1032.61,-153.99 1025.35,-146.27 1022.12,-152.49"/>
</g>
<!-- Node15&#45;&gt;Node8 -->
<g id="edge21" class="edge">
<title>Node15&#45;&gt;Node8</title>
<path fill="none" stroke="midnightblue" d="M829.12,-176.74C795.46,-193.29 740.07,-220.53 705.66,-237.46"/>
<polygon fill="midnightblue" stroke="midnightblue" points="830.99,-179.72 838.42,-172.17 827.9,-173.44 830.99,-179.72"/>
</g>
<!-- Node15&#45;&gt;Node16 -->
<g id="edge17" class="edge">
<title>Node15&#45;&gt;Node16</title>
<path fill="none" stroke="midnightblue" d="M801.75,-150.85C775.79,-145.47 745.38,-139.15 720.85,-134.06"/>
<polygon fill="midnightblue" stroke="midnightblue" points="801.32,-154.34 811.82,-152.95 802.74,-147.49 801.32,-154.34"/>
</g>
<!-- Node15&#45;&gt;Node17 -->
<g id="edge19" class="edge">
<title>Node15&#45;&gt;Node17</title>
<path fill="none" stroke="midnightblue" d="M766.79,-162.54C756.62,-162.54 746.44,-162.54 736.77,-162.54"/>
<polygon fill="midnightblue" stroke="midnightblue" points="766.93,-166.04 776.93,-162.54 766.93,-159.04 766.93,-166.04"/>
</g>
<!-- Node16&#45;&gt;Node11 -->
<g id="edge18" class="edge">
<title>Node16&#45;&gt;Node11</title>
<path fill="none" stroke="midnightblue" d="M687.92,-106.96C705.36,-84.77 738.69,-47.46 777,-30.54 888.61,18.78 928.48,-6.54 1050.5,-6.54 1220,-6.54 1220,-6.54 1220,-6.54 1317.03,-6.54 1346.16,3.57 1437,-30.54 1474.77,-44.72 1511.79,-76.06 1529,-91.93"/>
<polygon fill="midnightblue" stroke="midnightblue" points="685.13,-104.84 681.84,-114.91 690.69,-109.09 685.13,-104.84"/>
</g>
<!-- Node17&#45;&gt;Node11 -->
<g id="edge20" class="edge">
<title>Node17&#45;&gt;Node11</title>
<path fill="none" stroke="midnightblue" d="M734.68,-148.2C736.91,-146.79 739.02,-145.24 741,-143.54 770.22,-118.33 745.33,-86.58 777,-64.54 827.02,-29.72 989.56,-44.54 1050.5,-44.54 1220,-44.54 1220,-44.54 1220,-44.54 1326.61,-44.54 1450.18,-75.77 1507.19,-91.99"/>
<polygon fill="midnightblue" stroke="midnightblue" points="732.85,-145.21 725.66,-152.99 736.13,-151.39 732.85,-145.21"/>
</g>
<!-- Node18&#45;&gt;Node11 -->
<g id="edge24" class="edge">
<title>Node18&#45;&gt;Node11</title>
<path fill="none" stroke="midnightblue" d="M947.64,-249.97C1063.86,-245.1 1273.35,-226.49 1437,-157.54 1469.21,-143.97 1504.47,-123.16 1523.94,-111.1"/>
<polygon fill="midnightblue" stroke="midnightblue" points="947.23,-246.48 937.38,-250.37 947.51,-253.48 947.23,-246.48"/>
</g>
<!-- Node19&#45;&gt;Node11 -->
<g id="edge27" class="edge">
<title>Node19&#45;&gt;Node11</title>
<path fill="none" stroke="midnightblue" d="M942.42,-85.72C1078.7,-89.33 1348.33,-96.48 1472.97,-99.78"/>
<polygon fill="midnightblue" stroke="midnightblue" points="942.13,-82.21 932.04,-85.44 941.94,-89.21 942.13,-82.21"/>
</g>
</g>
</svg>
