<?xml version="1.0" encoding="UTF-8" standalone="no"?>
<!DOCTYPE svg PUBLIC "-//W3C//DTD SVG 1.1//EN"
 "http://www.w3.org/Graphics/SVG/1.1/DTD/svg11.dtd">
<!-- Generated by graphviz version 3.0.0 (20220226.1711)
 -->
<!-- Title: slljit::IfExprAST::codegen Pages: 1 -->
<svg width="536pt" height="366pt"
 viewBox="0.00 0.00 536.00 365.50" xmlns="http://www.w3.org/2000/svg" xmlns:xlink="http://www.w3.org/1999/xlink">
<g id="graph0" class="graph" transform="scale(1 1) rotate(0) translate(4 361.5)">
<title>slljit::IfExprAST::codegen</title>
<!-- Node1 -->
<g id="node1" class="node">
<title>Node1</title>
<g id="a_node1"><a xlink:title=" ">
<polygon fill="#bfbfbf" stroke="black" points="0,-98.5 0,-128.5 89,-128.5 89,-98.5 0,-98.5"/>
<text text-anchor="start" x="8" y="-116.5" font-family="Helvetica,sans-Serif" font-size="10.00">slljit::IfExprAST::</text>
<text text-anchor="middle" x="44.5" y="-105.5" font-family="Helvetica,sans-Serif" font-size="10.00">codegen</text>
</a>
</g>
</g>
<!-- Node2 -->
<g id="node2" class="node">
<title>Node2</title>
<g id="a_node2"><a xlink:href="namespaceslljit.html#a35fd5437fe4da3972add655696b4ba1e" target="_top" xlink:title="Creates explict cast.">
<polygon fill="none" stroke="black" points="125,-243 125,-262 244,-262 244,-243 125,-243"/>
<text text-anchor="middle" x="184.5" y="-250" font-family="Helvetica,sans-Serif" font-size="10.00">slljit::CreateExplictCast</text>
</a>
</g>
</g>
<!-- Node1&#45;&gt;Node2 -->
<g id="edge1" class="edge">
<title>Node1&#45;&gt;Node2</title>
<path fill="none" stroke="midnightblue" d="M60.53,-128.64C86.47,-154.77 139.47,-208.15 166.63,-235.51"/>
<polygon fill="midnightblue" stroke="midnightblue" points="164.34,-238.17 173.87,-242.8 169.31,-233.24 164.34,-238.17"/>
</g>
<!-- Node4 -->
<g id="node4" class="node">
<title>Node4</title>
<g id="a_node4"><a xlink:href="classslljit_1_1_local_context.html#acd5a146c139b01ff0c5d1be79e187749" target="_top" xlink:title=" ">
<polygon fill="none" stroke="black" points="431,-294.5 431,-324.5 528,-324.5 528,-294.5 431,-294.5"/>
<text text-anchor="start" x="439" y="-312.5" font-family="Helvetica,sans-Serif" font-size="10.00">slljit::LocalContext</text>
<text text-anchor="middle" x="479.5" y="-301.5" font-family="Helvetica,sans-Serif" font-size="10.00">::getBuilder</text>
</a>
</g>
</g>
<!-- Node1&#45;&gt;Node4 -->
<g id="edge8" class="edge">
<title>Node1&#45;&gt;Node4</title>
<path fill="none" stroke="midnightblue" d="M89.34,-128.02C100.85,-131.47 113.32,-134.91 125,-137.5 243.37,-163.76 293.37,-110.38 395,-176.5 434.42,-202.15 458.63,-253.62 470.23,-284.47"/>
<polygon fill="midnightblue" stroke="midnightblue" points="467,-285.85 473.68,-294.07 473.59,-283.48 467,-285.85"/>
</g>
<!-- Node8 -->
<g id="node8" class="node">
<title>Node8</title>
<g id="a_node8"><a xlink:href="classslljit_1_1_local_context.html#a7b1975b6c4314126ab18642dc180d596" target="_top" xlink:title=" ">
<polygon fill="none" stroke="black" points="136,-98.5 136,-128.5 233,-128.5 233,-98.5 136,-98.5"/>
<text text-anchor="start" x="144" y="-116.5" font-family="Helvetica,sans-Serif" font-size="10.00">slljit::LocalContext</text>
<text text-anchor="middle" x="184.5" y="-105.5" font-family="Helvetica,sans-Serif" font-size="10.00">::getContext</text>
</a>
</g>
</g>
<!-- Node1&#45;&gt;Node8 -->
<g id="edge9" class="edge">
<title>Node1&#45;&gt;Node8</title>
<path fill="none" stroke="midnightblue" d="M89.16,-113.5C100.76,-113.5 113.47,-113.5 125.69,-113.5"/>
<polygon fill="midnightblue" stroke="midnightblue" points="125.82,-117 135.81,-113.5 125.81,-110 125.82,-117"/>
</g>
<!-- Node9 -->
<g id="node9" class="node">
<title>Node9</title>
<g id="a_node9"><a xlink:href="classslljit_1_1_local_context.html#a832383a341ab8f0c965a2459a42a0a31" target="_top" xlink:title=" ">
<polygon fill="none" stroke="black" points="136,-49.5 136,-79.5 233,-79.5 233,-49.5 136,-49.5"/>
<text text-anchor="start" x="144" y="-67.5" font-family="Helvetica,sans-Serif" font-size="10.00">slljit::LocalContext</text>
<text text-anchor="middle" x="184.5" y="-56.5" font-family="Helvetica,sans-Serif" font-size="10.00">::pop_scope</text>
</a>
</g>
</g>
<!-- Node1&#45;&gt;Node9 -->
<g id="edge10" class="edge">
<title>Node1&#45;&gt;Node9</title>
<path fill="none" stroke="midnightblue" d="M88.03,-98.4C101.67,-93.55 116.94,-88.13 131.2,-83.07"/>
<polygon fill="midnightblue" stroke="midnightblue" points="132.62,-86.28 140.87,-79.64 130.28,-79.68 132.62,-86.28"/>
</g>
<!-- Node10 -->
<g id="node10" class="node">
<title>Node10</title>
<g id="a_node10"><a xlink:href="classslljit_1_1_local_context.html#acf26c98f0241214747f19870934ee7b1" target="_top" xlink:title=" ">
<polygon fill="none" stroke="black" points="136,-0.5 136,-30.5 233,-30.5 233,-0.5 136,-0.5"/>
<text text-anchor="start" x="144" y="-18.5" font-family="Helvetica,sans-Serif" font-size="10.00">slljit::LocalContext</text>
<text text-anchor="middle" x="184.5" y="-7.5" font-family="Helvetica,sans-Serif" font-size="10.00">::push_scope</text>
</a>
</g>
</g>
<!-- Node1&#45;&gt;Node10 -->
<g id="edge11" class="edge">
<title>Node1&#45;&gt;Node10</title>
<path fill="none" stroke="midnightblue" d="M58.56,-98.46C73.35,-82.17 98.8,-56.27 125,-39.5 127.3,-38.02 129.71,-36.61 132.19,-35.26"/>
<polygon fill="midnightblue" stroke="midnightblue" points="134,-38.26 141.34,-30.63 130.84,-32.02 134,-38.26"/>
</g>
<!-- Node3 -->
<g id="node3" class="node">
<title>Node3</title>
<g id="a_node3"><a xlink:href="namespaceslljit.html#ab200d7cf320fef1a4045511b03b4168b" target="_top" xlink:title="Translates TypeID types to llvm types.">
<polygon fill="none" stroke="black" points="288,-338 288,-357 387,-357 387,-338 288,-338"/>
<text text-anchor="middle" x="337.5" y="-345" font-family="Helvetica,sans-Serif" font-size="10.00">slljit::get_llvm_type</text>
</a>
</g>
</g>
<!-- Node2&#45;&gt;Node3 -->
<g id="edge2" class="edge">
<title>Node2&#45;&gt;Node3</title>
<path fill="none" stroke="midnightblue" d="M196.51,-262.19C213.53,-276.83 247.64,-304.84 280,-323.5 286.54,-327.27 293.78,-330.79 300.84,-333.91"/>
<polygon fill="midnightblue" stroke="midnightblue" points="299.7,-337.23 310.27,-337.9 302.43,-330.78 299.7,-337.23"/>
</g>
<!-- Node2&#45;&gt;Node4 -->
<g id="edge4" class="edge">
<title>Node2&#45;&gt;Node4</title>
<path fill="none" stroke="midnightblue" d="M204.51,-262.04C223.22,-270.96 252.85,-283.89 280,-290.5 326.57,-301.84 380.82,-306.47 420.83,-308.33"/>
<polygon fill="midnightblue" stroke="midnightblue" points="420.8,-311.84 430.94,-308.76 421.1,-304.84 420.8,-311.84"/>
</g>
<!-- Node5 -->
<g id="node5" class="node">
<title>Node5</title>
<g id="a_node5"><a xlink:href="namespaceslljit.html#a8fff8c5a53d6ca4875a058b06b6d60e6" target="_top" xlink:title="Checks if value type is floating point type.">
<polygon fill="none" stroke="black" points="280,-262 280,-281 395,-281 395,-262 280,-262"/>
<text text-anchor="middle" x="337.5" y="-269" font-family="Helvetica,sans-Serif" font-size="10.00">slljit::isFloatingPointTy</text>
</a>
</g>
</g>
<!-- Node2&#45;&gt;Node5 -->
<g id="edge5" class="edge">
<title>Node2&#45;&gt;Node5</title>
<path fill="none" stroke="midnightblue" d="M244.31,-259.9C252.56,-260.94 261.08,-262.01 269.46,-263.06"/>
<polygon fill="midnightblue" stroke="midnightblue" points="269.22,-266.56 279.58,-264.34 270.1,-259.62 269.22,-266.56"/>
</g>
<!-- Node6 -->
<g id="node6" class="node">
<title>Node6</title>
<g id="a_node6"><a xlink:href="namespaceslljit.html#a3a3394e16b561f11dd00a8532ee034e4" target="_top" xlink:title="Checks if value type is integer type.">
<polygon fill="none" stroke="black" points="294,-224 294,-243 381,-243 381,-224 294,-224"/>
<text text-anchor="middle" x="337.5" y="-231" font-family="Helvetica,sans-Serif" font-size="10.00">slljit::isIntegerTy</text>
</a>
</g>
</g>
<!-- Node2&#45;&gt;Node6 -->
<g id="edge6" class="edge">
<title>Node2&#45;&gt;Node6</title>
<path fill="none" stroke="midnightblue" d="M244.31,-245.1C257.38,-243.46 271.15,-241.72 283.95,-240.11"/>
<polygon fill="midnightblue" stroke="midnightblue" points="284.49,-243.57 293.97,-238.85 283.61,-236.63 284.49,-243.57"/>
</g>
<!-- Node7 -->
<g id="node7" class="node">
<title>Node7</title>
<g id="a_node7"><a xlink:href="namespaceslljit.html#a4a92e29091af0a9f6c8d1499beccc810" target="_top" xlink:title=" ">
<polygon fill="none" stroke="black" points="299,-186 299,-205 376,-205 376,-186 299,-186"/>
<text text-anchor="middle" x="337.5" y="-193" font-family="Helvetica,sans-Serif" font-size="10.00">slljit::isSigned</text>
</a>
</g>
</g>
<!-- Node2&#45;&gt;Node7 -->
<g id="edge7" class="edge">
<title>Node2&#45;&gt;Node7</title>
<path fill="none" stroke="midnightblue" d="M208.27,-242.91C227.32,-234.99 255.28,-223.62 280,-214.5 285.6,-212.44 291.54,-210.34 297.39,-208.32"/>
<polygon fill="midnightblue" stroke="midnightblue" points="298.72,-211.57 307.06,-205.04 296.47,-204.94 298.72,-211.57"/>
</g>
<!-- Node3&#45;&gt;Node4 -->
<g id="edge3" class="edge">
<title>Node3&#45;&gt;Node4</title>
<path fill="none" stroke="midnightblue" d="M373.83,-337.91C388.12,-334.03 404.98,-329.45 420.96,-325.12"/>
<polygon fill="midnightblue" stroke="midnightblue" points="422.02,-328.46 430.75,-322.46 420.19,-321.7 422.02,-328.46"/>
</g>
</g>
</svg>
