<?xml version="1.0" encoding="UTF-8" standalone="no"?>
<!DOCTYPE svg PUBLIC "-//W3C//DTD SVG 1.1//EN"
 "http://www.w3.org/Graphics/SVG/1.1/DTD/svg11.dtd">
<!-- Generated by graphviz version 3.0.0 (20220226.1711)
 -->
<!-- Title: slljit::Parser::HandleExtern Pages: 1 -->
<svg width="955pt" height="343pt"
 viewBox="0.00 0.00 955.00 343.00" xmlns="http://www.w3.org/2000/svg" xmlns:xlink="http://www.w3.org/1999/xlink">
<g id="graph0" class="graph" transform="scale(1 1) rotate(0) translate(4 339)">
<title>slljit::Parser::HandleExtern</title>
<!-- Node1 -->
<g id="node1" class="node">
<title>Node1</title>
<g id="a_node1"><a xlink:title=" ">
<polygon fill="#bfbfbf" stroke="black" points="0,-168 0,-187 133,-187 133,-168 0,-168"/>
<text text-anchor="middle" x="66.5" y="-175" font-family="Helvetica,sans-Serif" font-size="10.00">slljit::Parser::HandleExtern</text>
</a>
</g>
</g>
<!-- Node2 -->
<g id="node2" class="node">
<title>Node2</title>
<g id="a_node2"><a xlink:href="classslljit_1_1_parser.html#a9fcfefd86a6000dcb40fa737361ea55b" target="_top" xlink:title="GetTokPrecedence &#45; Get the precedence of the pending binary operator token.">
<polygon fill="none" stroke="black" points="511,-187 511,-206 645,-206 645,-187 511,-187"/>
<text text-anchor="middle" x="578" y="-194" font-family="Helvetica,sans-Serif" font-size="10.00">slljit::Parser::getNextToken</text>
</a>
</g>
</g>
<!-- Node1&#45;&gt;Node2 -->
<g id="edge1" class="edge">
<title>Node1&#45;&gt;Node2</title>
<path fill="none" stroke="midnightblue" d="M133.07,-179.95C227.39,-183.46 400.98,-189.94 500.86,-193.66"/>
<polygon fill="midnightblue" stroke="midnightblue" points="500.76,-197.16 510.88,-194.03 501.02,-190.16 500.76,-197.16"/>
</g>
<!-- Node10 -->
<g id="node10" class="node">
<title>Node10</title>
<g id="a_node10"><a xlink:href="classslljit_1_1_parser.html#af6e239a609e8a3812838b53f9a8356ce" target="_top" xlink:title="external ::= &#39;extern&#39; prototype">
<polygon fill="none" stroke="black" points="169,-149 169,-168 297,-168 297,-149 169,-149"/>
<text text-anchor="middle" x="233" y="-156" font-family="Helvetica,sans-Serif" font-size="10.00">slljit::Parser::ParseExtern</text>
</a>
</g>
</g>
<!-- Node1&#45;&gt;Node10 -->
<g id="edge10" class="edge">
<title>Node1&#45;&gt;Node10</title>
<path fill="none" stroke="midnightblue" d="M133.46,-169.88C141.79,-168.92 150.34,-167.93 158.77,-166.96"/>
<polygon fill="midnightblue" stroke="midnightblue" points="159.43,-170.41 168.96,-165.78 158.63,-163.45 159.43,-170.41"/>
</g>
<!-- Node3 -->
<g id="node3" class="node">
<title>Node3</title>
<g id="a_node3"><a xlink:href="classslljit_1_1_tokenizer.html#a4f0b343321f5e4561a80e47a5cec05d2" target="_top" xlink:title=" ">
<polygon fill="none" stroke="black" points="689,-181.5 689,-211.5 777,-211.5 777,-181.5 689,-181.5"/>
<text text-anchor="start" x="697" y="-199.5" font-family="Helvetica,sans-Serif" font-size="10.00">slljit::Tokenizer::</text>
<text text-anchor="middle" x="733" y="-188.5" font-family="Helvetica,sans-Serif" font-size="10.00">gettok</text>
</a>
</g>
</g>
<!-- Node2&#45;&gt;Node3 -->
<g id="edge2" class="edge">
<title>Node2&#45;&gt;Node3</title>
<path fill="none" stroke="midnightblue" d="M645.22,-196.5C656.36,-196.5 667.79,-196.5 678.56,-196.5"/>
<polygon fill="midnightblue" stroke="midnightblue" points="678.64,-200 688.64,-196.5 678.64,-193 678.64,-200"/>
</g>
<!-- Node3&#45;&gt;Node3 -->
<g id="edge4" class="edge">
<title>Node3&#45;&gt;Node3</title>
<path fill="none" stroke="midnightblue" d="M706.86,-211.66C700.56,-221.06 709.27,-230 733,-230 747.46,-230 756.35,-226.68 759.65,-221.96"/>
<polygon fill="midnightblue" stroke="midnightblue" points="763.13,-221.47 759.14,-211.66 756.14,-221.82 763.13,-221.47"/>
</g>
<!-- Node4 -->
<g id="node4" class="node">
<title>Node4</title>
<g id="a_node4"><a xlink:href="classslljit_1_1_tokenizer.html#aebe79ebb0da26fa5e89963683d474402" target="_top" xlink:title=" ">
<polygon fill="none" stroke="black" points="840,-304.5 840,-334.5 928,-334.5 928,-304.5 840,-304.5"/>
<text text-anchor="start" x="848" y="-322.5" font-family="Helvetica,sans-Serif" font-size="10.00">slljit::Tokenizer::</text>
<text text-anchor="middle" x="884" y="-311.5" font-family="Helvetica,sans-Serif" font-size="10.00">_getchar</text>
</a>
</g>
</g>
<!-- Node3&#45;&gt;Node4 -->
<g id="edge3" class="edge">
<title>Node3&#45;&gt;Node4</title>
<path fill="none" stroke="midnightblue" d="M743.76,-211.62C758.26,-232.99 787.42,-272.05 821,-295.5 824.07,-297.64 827.35,-299.63 830.75,-301.46"/>
<polygon fill="midnightblue" stroke="midnightblue" points="829.41,-304.7 839.93,-305.96 832.49,-298.41 829.41,-304.7"/>
</g>
<!-- Node5 -->
<g id="node5" class="node">
<title>Node5</title>
<g id="a_node5"><a xlink:href="classslljit_1_1_tokenizer.html#ac5b5748065cb054e0f34d995d1f3edce" target="_top" xlink:title=" ">
<polygon fill="none" stroke="black" points="840,-255.5 840,-285.5 928,-285.5 928,-255.5 840,-255.5"/>
<text text-anchor="start" x="848" y="-273.5" font-family="Helvetica,sans-Serif" font-size="10.00">slljit::Tokenizer::</text>
<text text-anchor="middle" x="884" y="-262.5" font-family="Helvetica,sans-Serif" font-size="10.00">is_id_char</text>
</a>
</g>
</g>
<!-- Node3&#45;&gt;Node5 -->
<g id="edge5" class="edge">
<title>Node3&#45;&gt;Node5</title>
<path fill="none" stroke="midnightblue" d="M757.84,-211.52C775.04,-222.02 798.99,-235.99 821,-246.5 824.59,-248.21 828.33,-249.9 832.13,-251.54"/>
<polygon fill="midnightblue" stroke="midnightblue" points="831.03,-254.87 841.61,-255.49 833.72,-248.41 831.03,-254.87"/>
</g>
<!-- Node6 -->
<g id="node6" class="node">
<title>Node6</title>
<g id="a_node6"><a xlink:href="classslljit_1_1_tokenizer.html#afddb21e93063a4c2338c2d42e23d18d2" target="_top" xlink:title=" ">
<polygon fill="none" stroke="black" points="840,-206.5 840,-236.5 928,-236.5 928,-206.5 840,-206.5"/>
<text text-anchor="start" x="848" y="-224.5" font-family="Helvetica,sans-Serif" font-size="10.00">slljit::Tokenizer::</text>
<text text-anchor="middle" x="884" y="-213.5" font-family="Helvetica,sans-Serif" font-size="10.00">is_id_start_char</text>
</a>
</g>
</g>
<!-- Node3&#45;&gt;Node6 -->
<g id="edge6" class="edge">
<title>Node3&#45;&gt;Node6</title>
<path fill="none" stroke="midnightblue" d="M777.1,-203.73C793.62,-206.5 812.67,-209.7 830.02,-212.61"/>
<polygon fill="midnightblue" stroke="midnightblue" points="829.56,-216.08 840,-214.29 830.72,-209.18 829.56,-216.08"/>
</g>
<!-- Node7 -->
<g id="node7" class="node">
<title>Node7</title>
<g id="a_node7"><a xlink:href="classslljit_1_1_tokenizer.html#ada986d1651ab242c370288c198cd726d" target="_top" xlink:title=" ">
<polygon fill="none" stroke="black" points="821,-157.5 821,-187.5 947,-187.5 947,-157.5 821,-157.5"/>
<text text-anchor="start" x="829" y="-175.5" font-family="Helvetica,sans-Serif" font-size="10.00">slljit::Tokenizer::</text>
<text text-anchor="middle" x="884" y="-164.5" font-family="Helvetica,sans-Serif" font-size="10.00">is_reserved_command_id</text>
</a>
</g>
</g>
<!-- Node3&#45;&gt;Node7 -->
<g id="edge7" class="edge">
<title>Node3&#45;&gt;Node7</title>
<path fill="none" stroke="midnightblue" d="M777.1,-189.56C787.67,-187.86 799.27,-185.99 810.8,-184.13"/>
<polygon fill="midnightblue" stroke="midnightblue" points="811.56,-187.55 820.88,-182.51 810.45,-180.64 811.56,-187.55"/>
</g>
<!-- Node8 -->
<g id="node8" class="node">
<title>Node8</title>
<g id="a_node8"><a xlink:href="classslljit_1_1_tokenizer.html#ab29a7d2f06bb354a3f748106f5ea3e6c" target="_top" xlink:title=" ">
<polygon fill="none" stroke="black" points="839.5,-108.5 839.5,-138.5 928.5,-138.5 928.5,-108.5 839.5,-108.5"/>
<text text-anchor="start" x="847.5" y="-126.5" font-family="Helvetica,sans-Serif" font-size="10.00">slljit::Tokenizer::</text>
<text text-anchor="middle" x="884" y="-115.5" font-family="Helvetica,sans-Serif" font-size="10.00">is_special_literal</text>
</a>
</g>
</g>
<!-- Node3&#45;&gt;Node8 -->
<g id="edge8" class="edge">
<title>Node3&#45;&gt;Node8</title>
<path fill="none" stroke="midnightblue" d="M759.46,-181.39C776.58,-171.49 799.81,-158.57 821,-148.5 825.29,-146.46 829.8,-144.43 834.34,-142.46"/>
<polygon fill="midnightblue" stroke="midnightblue" points="835.81,-145.64 843.66,-138.53 833.09,-139.19 835.81,-145.64"/>
</g>
<!-- Node9 -->
<g id="node9" class="node">
<title>Node9</title>
<g id="a_node9"><a xlink:href="classslljit_1_1_tokenizer.html#ae5cc0911ed858f6bc7bf206928cd66ae" target="_top" xlink:title=" ">
<polygon fill="none" stroke="black" points="840,-59.5 840,-89.5 928,-89.5 928,-59.5 840,-59.5"/>
<text text-anchor="start" x="848" y="-77.5" font-family="Helvetica,sans-Serif" font-size="10.00">slljit::Tokenizer::</text>
<text text-anchor="middle" x="884" y="-66.5" font-family="Helvetica,sans-Serif" font-size="10.00">set_lok_location</text>
</a>
</g>
</g>
<!-- Node3&#45;&gt;Node9 -->
<g id="edge9" class="edge">
<title>Node3&#45;&gt;Node9</title>
<path fill="none" stroke="midnightblue" d="M744.13,-181.41C758.85,-160.48 788.03,-122.62 821,-99.5 824.08,-97.34 827.37,-95.33 830.78,-93.46"/>
<polygon fill="midnightblue" stroke="midnightblue" points="832.61,-96.46 839.97,-88.84 829.47,-90.2 832.61,-96.46"/>
</g>
<!-- Node10&#45;&gt;Node2 -->
<g id="edge11" class="edge">
<title>Node10&#45;&gt;Node2</title>
<path fill="none" stroke="midnightblue" d="M297.24,-164.15C345.9,-168.65 414.77,-175.37 475,-182.5 483.36,-183.49 492.09,-184.59 500.78,-185.72"/>
<polygon fill="midnightblue" stroke="midnightblue" points="500.56,-189.22 510.93,-187.07 501.48,-182.28 500.56,-189.22"/>
</g>
<!-- Node11 -->
<g id="node11" class="node">
<title>Node11</title>
<g id="a_node11"><a xlink:href="classslljit_1_1_parser.html#ad51a4352241881b5c6d118db9ccdec46" target="_top" xlink:title=" ">
<polygon fill="none" stroke="black" points="333,-105 333,-124 475,-124 475,-105 333,-105"/>
<text text-anchor="middle" x="404" y="-112" font-family="Helvetica,sans-Serif" font-size="10.00">slljit::Parser::ParsePrototype</text>
</a>
</g>
</g>
<!-- Node10&#45;&gt;Node11 -->
<g id="edge12" class="edge">
<title>Node10&#45;&gt;Node11</title>
<path fill="none" stroke="midnightblue" d="M270.67,-148.95C295.81,-142.41 329.36,-133.67 356.39,-126.63"/>
<polygon fill="midnightblue" stroke="midnightblue" points="357.61,-129.94 366.4,-124.03 355.84,-123.16 357.61,-129.94"/>
</g>
<!-- Node11&#45;&gt;Node2 -->
<g id="edge16" class="edge">
<title>Node11&#45;&gt;Node2</title>
<path fill="none" stroke="midnightblue" d="M433.01,-124.01C446.27,-129.12 462,-136.11 475,-144.5 493.23,-156.28 492.07,-166.88 511,-177.5 514.97,-179.73 519.22,-181.71 523.58,-183.47"/>
<polygon fill="midnightblue" stroke="midnightblue" points="522.65,-186.86 533.24,-187 525.05,-180.28 522.65,-186.86"/>
</g>
<!-- Node12 -->
<g id="node12" class="node">
<title>Node12</title>
<g id="a_node12"><a xlink:href="classslljit_1_1_tokenizer.html#a6270acd003b9e0a1323c1fdd54cd2fe2" target="_top" xlink:title=" ">
<polygon fill="none" stroke="black" points="534,-137.5 534,-167.5 622,-167.5 622,-137.5 534,-137.5"/>
<text text-anchor="start" x="542" y="-155.5" font-family="Helvetica,sans-Serif" font-size="10.00">slljit::Tokenizer::</text>
<text text-anchor="middle" x="578" y="-144.5" font-family="Helvetica,sans-Serif" font-size="10.00">get_identifier</text>
</a>
</g>
</g>
<!-- Node11&#45;&gt;Node12 -->
<g id="edge13" class="edge">
<title>Node11&#45;&gt;Node12</title>
<path fill="none" stroke="midnightblue" d="M448.4,-124.09C471.41,-129.17 499.85,-135.46 524.13,-140.82"/>
<polygon fill="midnightblue" stroke="midnightblue" points="523.39,-144.24 533.91,-142.98 524.9,-137.41 523.39,-144.24"/>
</g>
<!-- Node13 -->
<g id="node13" class="node">
<title>Node13</title>
<g id="a_node13"><a xlink:href="classslljit_1_1_tokenizer.html#a0baa2e9dbe626f0475ee4206f16bbb4e" target="_top" xlink:title=" ">
<polygon fill="none" stroke="black" points="681,-47.5 681,-77.5 785,-77.5 785,-47.5 681,-47.5"/>
<text text-anchor="start" x="689" y="-65.5" font-family="Helvetica,sans-Serif" font-size="10.00">slljit::Tokenizer::</text>
<text text-anchor="middle" x="733" y="-54.5" font-family="Helvetica,sans-Serif" font-size="10.00">get_source_location</text>
</a>
</g>
</g>
<!-- Node11&#45;&gt;Node13 -->
<g id="edge14" class="edge">
<title>Node11&#45;&gt;Node13</title>
<path fill="none" stroke="midnightblue" d="M475.13,-110.85C523.29,-107.45 588.47,-101.1 645,-89.5 656.38,-87.16 668.4,-83.95 679.75,-80.54"/>
<polygon fill="midnightblue" stroke="midnightblue" points="680.99,-83.82 689.51,-77.52 678.93,-77.13 680.99,-83.82"/>
</g>
<!-- Node14 -->
<g id="node14" class="node">
<title>Node14</title>
<g id="a_node14"><a xlink:href="classslljit_1_1_tokenizer.html#a9dcee05dc292fa291e6b9644d12c1907" target="_top" xlink:title=" ">
<polygon fill="none" stroke="black" points="530.5,-49.5 530.5,-79.5 625.5,-79.5 625.5,-49.5 530.5,-49.5"/>
<text text-anchor="start" x="538.5" y="-67.5" font-family="Helvetica,sans-Serif" font-size="10.00">slljit::Tokenizer::</text>
<text text-anchor="middle" x="578" y="-56.5" font-family="Helvetica,sans-Serif" font-size="10.00">get_type_identifier</text>
</a>
</g>
</g>
<!-- Node11&#45;&gt;Node14 -->
<g id="edge15" class="edge">
<title>Node11&#45;&gt;Node14</title>
<path fill="none" stroke="midnightblue" d="M437.76,-104.98C461.11,-98.19 493.09,-88.89 520.52,-80.92"/>
<polygon fill="midnightblue" stroke="midnightblue" points="521.77,-84.2 530.39,-78.05 519.82,-77.48 521.77,-84.2"/>
</g>
<!-- Node15 -->
<g id="node15" class="node">
<title>Node15</title>
<g id="a_node15"><a xlink:href="classslljit_1_1_parser.html#acad3f159608acb847e0f693fc07fdd28" target="_top" xlink:title=" ">
<polygon fill="none" stroke="black" points="530.5,-0.5 530.5,-30.5 625.5,-30.5 625.5,-0.5 530.5,-0.5"/>
<text text-anchor="start" x="538.5" y="-18.5" font-family="Helvetica,sans-Serif" font-size="10.00">slljit::Parser::push</text>
<text text-anchor="middle" x="578" y="-7.5" font-family="Helvetica,sans-Serif" font-size="10.00">_var_into_scope</text>
</a>
</g>
</g>
<!-- Node11&#45;&gt;Node15 -->
<g id="edge17" class="edge">
<title>Node11&#45;&gt;Node15</title>
<path fill="none" stroke="midnightblue" d="M416.41,-104.86C435.15,-89.4 474.05,-58.84 511,-39.5 514.27,-37.79 517.69,-36.14 521.18,-34.58"/>
<polygon fill="midnightblue" stroke="midnightblue" points="522.68,-37.74 530.52,-30.62 519.95,-31.3 522.68,-37.74"/>
</g>
<!-- Node15&#45;&gt;Node13 -->
<g id="edge18" class="edge">
<title>Node15&#45;&gt;Node13</title>
<path fill="none" stroke="midnightblue" d="M625.74,-29.86C640.8,-34.48 657.69,-39.67 673.49,-44.53"/>
<polygon fill="midnightblue" stroke="midnightblue" points="672.58,-47.91 683.17,-47.5 674.63,-41.22 672.58,-47.91"/>
</g>
</g>
</svg>
