<?xml version="1.0" encoding="UTF-8" standalone="no"?>
<!DOCTYPE svg PUBLIC "-//W3C//DTD SVG 1.1//EN"
 "http://www.w3.org/Graphics/SVG/1.1/DTD/svg11.dtd">
<!-- Generated by graphviz version 3.0.0 (20220226.1711)
 -->
<!-- Title: slljit::Tokenizer::gettok Pages: 1 -->
<svg width="258pt" height="284pt"
 viewBox="0.00 0.00 258.00 284.00" xmlns="http://www.w3.org/2000/svg" xmlns:xlink="http://www.w3.org/1999/xlink">
<g id="graph0" class="graph" transform="scale(1 1) rotate(0) translate(4 280)">
<title>slljit::Tokenizer::gettok</title>
<!-- Node1 -->
<g id="node1" class="node">
<title>Node1</title>
<g id="a_node1"><a xlink:title=" ">
<polygon fill="#bfbfbf" stroke="black" points="0,-122.5 0,-152.5 88,-152.5 88,-122.5 0,-122.5"/>
<text text-anchor="start" x="8" y="-140.5" font-family="Helvetica,sans-Serif" font-size="10.00">slljit::Tokenizer::</text>
<text text-anchor="middle" x="44" y="-129.5" font-family="Helvetica,sans-Serif" font-size="10.00">gettok</text>
</a>
</g>
</g>
<!-- Node1&#45;&gt;Node1 -->
<g id="edge2" class="edge">
<title>Node1&#45;&gt;Node1</title>
<path fill="none" stroke="midnightblue" d="M19.25,-152.66C13.29,-162.06 21.54,-171 44,-171 57.69,-171 66.1,-167.68 69.23,-162.96"/>
<polygon fill="midnightblue" stroke="midnightblue" points="72.71,-162.48 68.75,-152.66 65.72,-162.81 72.71,-162.48"/>
</g>
<!-- Node2 -->
<g id="node2" class="node">
<title>Node2</title>
<g id="a_node2"><a xlink:href="classslljit_1_1_tokenizer.html#aebe79ebb0da26fa5e89963683d474402" target="_top" xlink:title=" ">
<polygon fill="none" stroke="black" points="143,-245.5 143,-275.5 231,-275.5 231,-245.5 143,-245.5"/>
<text text-anchor="start" x="151" y="-263.5" font-family="Helvetica,sans-Serif" font-size="10.00">slljit::Tokenizer::</text>
<text text-anchor="middle" x="187" y="-252.5" font-family="Helvetica,sans-Serif" font-size="10.00">_getchar</text>
</a>
</g>
</g>
<!-- Node1&#45;&gt;Node2 -->
<g id="edge1" class="edge">
<title>Node1&#45;&gt;Node2</title>
<path fill="none" stroke="midnightblue" d="M53.53,-152.66C66.29,-174.09 92.27,-213.21 124,-236.5 127.02,-238.71 130.26,-240.75 133.63,-242.62"/>
<polygon fill="midnightblue" stroke="midnightblue" points="132.25,-245.85 142.76,-247.19 135.38,-239.59 132.25,-245.85"/>
</g>
<!-- Node3 -->
<g id="node3" class="node">
<title>Node3</title>
<g id="a_node3"><a xlink:href="classslljit_1_1_tokenizer.html#ac5b5748065cb054e0f34d995d1f3edce" target="_top" xlink:title=" ">
<polygon fill="none" stroke="black" points="143,-196.5 143,-226.5 231,-226.5 231,-196.5 143,-196.5"/>
<text text-anchor="start" x="151" y="-214.5" font-family="Helvetica,sans-Serif" font-size="10.00">slljit::Tokenizer::</text>
<text text-anchor="middle" x="187" y="-203.5" font-family="Helvetica,sans-Serif" font-size="10.00">is_id_char</text>
</a>
</g>
</g>
<!-- Node1&#45;&gt;Node3 -->
<g id="edge3" class="edge">
<title>Node1&#45;&gt;Node3</title>
<path fill="none" stroke="midnightblue" d="M66.46,-152.7C81.98,-163.28 103.71,-177.27 124,-187.5 127.34,-189.18 130.83,-190.83 134.37,-192.41"/>
<polygon fill="midnightblue" stroke="midnightblue" points="133.26,-195.74 143.83,-196.45 136.01,-189.3 133.26,-195.74"/>
</g>
<!-- Node4 -->
<g id="node4" class="node">
<title>Node4</title>
<g id="a_node4"><a xlink:href="classslljit_1_1_tokenizer.html#afddb21e93063a4c2338c2d42e23d18d2" target="_top" xlink:title=" ">
<polygon fill="none" stroke="black" points="143,-147.5 143,-177.5 231,-177.5 231,-147.5 143,-147.5"/>
<text text-anchor="start" x="151" y="-165.5" font-family="Helvetica,sans-Serif" font-size="10.00">slljit::Tokenizer::</text>
<text text-anchor="middle" x="187" y="-154.5" font-family="Helvetica,sans-Serif" font-size="10.00">is_id_start_char</text>
</a>
</g>
</g>
<!-- Node1&#45;&gt;Node4 -->
<g id="edge4" class="edge">
<title>Node1&#45;&gt;Node4</title>
<path fill="none" stroke="midnightblue" d="M88.07,-145.14C102.15,-147.63 117.96,-150.44 132.71,-153.05"/>
<polygon fill="midnightblue" stroke="midnightblue" points="132.25,-156.52 142.71,-154.82 133.47,-149.63 132.25,-156.52"/>
</g>
<!-- Node5 -->
<g id="node5" class="node">
<title>Node5</title>
<g id="a_node5"><a xlink:href="classslljit_1_1_tokenizer.html#ada986d1651ab242c370288c198cd726d" target="_top" xlink:title=" ">
<polygon fill="none" stroke="black" points="124,-98.5 124,-128.5 250,-128.5 250,-98.5 124,-98.5"/>
<text text-anchor="start" x="132" y="-116.5" font-family="Helvetica,sans-Serif" font-size="10.00">slljit::Tokenizer::</text>
<text text-anchor="middle" x="187" y="-105.5" font-family="Helvetica,sans-Serif" font-size="10.00">is_reserved_command_id</text>
</a>
</g>
</g>
<!-- Node1&#45;&gt;Node5 -->
<g id="edge5" class="edge">
<title>Node1&#45;&gt;Node5</title>
<path fill="none" stroke="midnightblue" d="M88.07,-130.17C96.31,-128.77 105.14,-127.26 114,-125.76"/>
<polygon fill="midnightblue" stroke="midnightblue" points="114.72,-129.18 123.99,-124.06 113.54,-122.28 114.72,-129.18"/>
</g>
<!-- Node6 -->
<g id="node6" class="node">
<title>Node6</title>
<g id="a_node6"><a xlink:href="classslljit_1_1_tokenizer.html#ab29a7d2f06bb354a3f748106f5ea3e6c" target="_top" xlink:title=" ">
<polygon fill="none" stroke="black" points="142.5,-49.5 142.5,-79.5 231.5,-79.5 231.5,-49.5 142.5,-49.5"/>
<text text-anchor="start" x="150.5" y="-67.5" font-family="Helvetica,sans-Serif" font-size="10.00">slljit::Tokenizer::</text>
<text text-anchor="middle" x="187" y="-56.5" font-family="Helvetica,sans-Serif" font-size="10.00">is_special_literal</text>
</a>
</g>
</g>
<!-- Node1&#45;&gt;Node6 -->
<g id="edge6" class="edge">
<title>Node1&#45;&gt;Node6</title>
<path fill="none" stroke="midnightblue" d="M67.6,-122.41C83.1,-112.41 104.34,-99.35 124,-89.5 128.02,-87.49 132.24,-85.51 136.51,-83.6"/>
<polygon fill="midnightblue" stroke="midnightblue" points="138.09,-86.74 145.88,-79.56 135.32,-80.31 138.09,-86.74"/>
</g>
<!-- Node7 -->
<g id="node7" class="node">
<title>Node7</title>
<g id="a_node7"><a xlink:href="classslljit_1_1_tokenizer.html#ae5cc0911ed858f6bc7bf206928cd66ae" target="_top" xlink:title=" ">
<polygon fill="none" stroke="black" points="143,-0.5 143,-30.5 231,-30.5 231,-0.5 143,-0.5"/>
<text text-anchor="start" x="151" y="-18.5" font-family="Helvetica,sans-Serif" font-size="10.00">slljit::Tokenizer::</text>
<text text-anchor="middle" x="187" y="-7.5" font-family="Helvetica,sans-Serif" font-size="10.00">set_lok_location</text>
</a>
</g>
</g>
<!-- Node1&#45;&gt;Node7 -->
<g id="edge7" class="edge">
<title>Node1&#45;&gt;Node7</title>
<path fill="none" stroke="midnightblue" d="M53.87,-122.36C66.84,-101.38 92.88,-63.44 124,-40.5 127.03,-38.27 130.28,-36.2 133.66,-34.29"/>
<polygon fill="midnightblue" stroke="midnightblue" points="135.5,-37.28 142.8,-29.61 132.31,-31.05 135.5,-37.28"/>
</g>
</g>
</svg>
