<?xml version="1.0" encoding="UTF-8" standalone="no"?>
<!DOCTYPE svg PUBLIC "-//W3C//DTD SVG 1.1//EN"
 "http://www.w3.org/Graphics/SVG/1.1/DTD/svg11.dtd">
<!-- Generated by graphviz version 3.0.0 (20220226.1711)
 -->
<!-- Title: slljit::LocalContext::getLayout Pages: 1 -->
<svg width="413pt" height="176pt"
 viewBox="0.00 0.00 413.00 176.00" xmlns="http://www.w3.org/2000/svg" xmlns:xlink="http://www.w3.org/1999/xlink">
<g id="graph0" class="graph" transform="scale(1 1) rotate(0) translate(4 172)">
<title>slljit::LocalContext::getLayout</title>
<!-- Node1 -->
<g id="node1" class="node">
<title>Node1</title>
<g id="a_node1"><a xlink:title=" ">
<polygon fill="#bfbfbf" stroke="black" points="308,-66.5 308,-96.5 405,-96.5 405,-66.5 308,-66.5"/>
<text text-anchor="start" x="316" y="-84.5" font-family="Helvetica,sans-Serif" font-size="10.00">slljit::LocalContext</text>
<text text-anchor="middle" x="356.5" y="-73.5" font-family="Helvetica,sans-Serif" font-size="10.00">::getLayout</text>
</a>
</g>
</g>
<!-- Node2 -->
<g id="node2" class="node">
<title>Node2</title>
<g id="a_node2"><a xlink:href="classslljit_1_1_prototype_a_s_t.html#a1d3904bd14007f251959a6d795fe5564" target="_top" xlink:title=" ">
<polygon fill="none" stroke="black" points="161.5,-137.5 161.5,-167.5 262.5,-167.5 262.5,-137.5 161.5,-137.5"/>
<text text-anchor="start" x="169.5" y="-155.5" font-family="Helvetica,sans-Serif" font-size="10.00">slljit::PrototypeAST</text>
<text text-anchor="middle" x="212" y="-144.5" font-family="Helvetica,sans-Serif" font-size="10.00">::codegen</text>
</a>
</g>
</g>
<!-- Node1&#45;&gt;Node2 -->
<g id="edge1" class="edge">
<title>Node1&#45;&gt;Node2</title>
<path fill="none" stroke="midnightblue" d="M321.81,-101.75C306.8,-110.43 288.75,-120.42 272,-128.5 265.63,-131.58 258.75,-134.61 252.02,-137.44"/>
<polygon fill="midnightblue" stroke="midnightblue" points="323.86,-104.6 330.73,-96.53 320.33,-98.56 323.86,-104.6"/>
</g>
<!-- Node3 -->
<g id="node3" class="node">
<title>Node3</title>
<g id="a_node3"><a xlink:href="classslljit_1_1_function_a_s_t.html#ad9580c93bf3b4c4cdce1606d2e1a7be5" target="_top" xlink:title=" ">
<polygon fill="none" stroke="black" points="164,-88.5 164,-118.5 260,-118.5 260,-88.5 164,-88.5"/>
<text text-anchor="start" x="172" y="-106.5" font-family="Helvetica,sans-Serif" font-size="10.00">slljit::FunctionAST</text>
<text text-anchor="middle" x="212" y="-95.5" font-family="Helvetica,sans-Serif" font-size="10.00">::codegen</text>
</a>
</g>
</g>
<!-- Node1&#45;&gt;Node3 -->
<g id="edge2" class="edge">
<title>Node1&#45;&gt;Node3</title>
<path fill="none" stroke="midnightblue" d="M297.48,-90.46C285.18,-92.36 272.33,-94.34 260.48,-96.17"/>
<polygon fill="midnightblue" stroke="midnightblue" points="298.3,-93.87 307.65,-88.89 297.24,-86.95 298.3,-93.87"/>
</g>
<!-- Node4 -->
<g id="node4" class="node">
<title>Node4</title>
<g id="a_node4"><a xlink:href="classslljit_1_1_program.html#ae4d26526a7dd9c69ebe92fb43736696b" target="_top" xlink:title=" ">
<polygon fill="none" stroke="black" points="0,-28 0,-47 116,-47 116,-28 0,-28"/>
<text text-anchor="middle" x="58" y="-35" font-family="Helvetica,sans-Serif" font-size="10.00">slljit::Program::compile</text>
</a>
</g>
</g>
<!-- Node1&#45;&gt;Node4 -->
<g id="edge3" class="edge">
<title>Node1&#45;&gt;Node4</title>
<path fill="none" stroke="midnightblue" d="M297.72,-72.92C245.28,-65.14 168.41,-53.74 116.17,-45.98"/>
<polygon fill="midnightblue" stroke="midnightblue" points="297.46,-76.42 307.86,-74.43 298.48,-69.5 297.46,-76.42"/>
</g>
<!-- Node5 -->
<g id="node5" class="node">
<title>Node5</title>
<g id="a_node5"><a xlink:href="classslljit_1_1_code_gen.html#a0a1cd67519cb6405422e53cc87a1eb87" target="_top" xlink:title=" ">
<polygon fill="none" stroke="black" points="152,-0.5 152,-30.5 272,-30.5 272,-0.5 152,-0.5"/>
<text text-anchor="start" x="160" y="-18.5" font-family="Helvetica,sans-Serif" font-size="10.00">slljit::CodeGen::compile</text>
<text text-anchor="middle" x="212" y="-7.5" font-family="Helvetica,sans-Serif" font-size="10.00">_layout</text>
</a>
</g>
</g>
<!-- Node1&#45;&gt;Node5 -->
<g id="edge4" class="edge">
<title>Node1&#45;&gt;Node5</title>
<path fill="none" stroke="midnightblue" d="M313.49,-62.04C291.78,-51.99 265.7,-39.91 245.54,-30.57"/>
<polygon fill="midnightblue" stroke="midnightblue" points="312.26,-65.33 322.81,-66.36 315.2,-58.98 312.26,-65.33"/>
</g>
<!-- Node5&#45;&gt;Node4 -->
<g id="edge5" class="edge">
<title>Node5&#45;&gt;Node4</title>
<path fill="none" stroke="midnightblue" d="M141.85,-25.51C133.3,-26.75 124.64,-28 116.3,-29.21"/>
<polygon fill="midnightblue" stroke="midnightblue" points="142.4,-28.97 151.8,-24.07 141.4,-22.04 142.4,-28.97"/>
</g>
</g>
</svg>
