<?xml version="1.0" encoding="UTF-8" standalone="no"?>
<!DOCTYPE svg PUBLIC "-//W3C//DTD SVG 1.1//EN"
 "http://www.w3.org/Graphics/SVG/1.1/DTD/svg11.dtd">
<!-- Generated by graphviz version 3.0.0 (20220226.1711)
 -->
<!-- Title: slljit::Parser::ParseExpression Pages: 1 -->
<svg width="1235pt" height="298pt"
 viewBox="0.00 0.00 1235.00 297.66" xmlns="http://www.w3.org/2000/svg" xmlns:xlink="http://www.w3.org/1999/xlink">
<g id="graph0" class="graph" transform="scale(1 1) rotate(0) translate(4 293.66)">
<title>slljit::Parser::ParseExpression</title>
<!-- Node1 -->
<g id="node1" class="node">
<title>Node1</title>
<g id="a_node1"><a xlink:title=" ">
<polygon fill="#bfbfbf" stroke="black" points="1078,-125.16 1078,-144.16 1227,-144.16 1227,-125.16 1078,-125.16"/>
<text text-anchor="middle" x="1152.5" y="-132.16" font-family="Helvetica,sans-Serif" font-size="10.00">slljit::Parser::ParseExpression</text>
</a>
</g>
</g>
<!-- Node2 -->
<g id="node2" class="node">
<title>Node2</title>
<g id="a_node2"><a xlink:href="classslljit_1_1_parser.html#acc431005ac3dd38732083d7a1bb0eab2" target="_top" xlink:title=" ">
<polygon fill="none" stroke="black" points="878,-223.16 878,-242.16 1042,-242.16 1042,-223.16 878,-223.16"/>
<text text-anchor="middle" x="960" y="-230.16" font-family="Helvetica,sans-Serif" font-size="10.00">slljit::Parser::ParseExpressionList</text>
</a>
</g>
</g>
<!-- Node1&#45;&gt;Node2 -->
<g id="edge1" class="edge">
<title>Node1&#45;&gt;Node2</title>
<path fill="none" stroke="midnightblue" d="M1130.68,-150.46C1109.33,-166.1 1074.69,-189.93 1042,-205.66 1027.44,-212.67 1010.6,-218.61 996.05,-223.11"/>
<polygon fill="midnightblue" stroke="midnightblue" points="1133.03,-153.08 1138.98,-144.31 1128.86,-147.45 1133.03,-153.08"/>
</g>
<!-- Node3 -->
<g id="node3" class="node">
<title>Node3</title>
<g id="a_node3"><a xlink:href="classslljit_1_1_parser.html#a81023e7a6221eb6b92027bd21433c9dd" target="_top" xlink:title="forexpr ::= &#39;for&#39; identifier &#39;=&#39; expr &#39;,&#39; expr (&#39;,&#39; expr)? &#39;in&#39; expression">
<polygon fill="none" stroke="black" points="707.5,-270.16 707.5,-289.16 841.5,-289.16 841.5,-270.16 707.5,-270.16"/>
<text text-anchor="middle" x="774.5" y="-277.16" font-family="Helvetica,sans-Serif" font-size="10.00">slljit::Parser::ParseForExpr</text>
</a>
</g>
</g>
<!-- Node1&#45;&gt;Node3 -->
<g id="edge18" class="edge">
<title>Node1&#45;&gt;Node3</title>
<path fill="none" stroke="midnightblue" d="M1140.36,-153.22C1123.07,-180.15 1087.04,-229.26 1042,-251.66 979.21,-282.9 897.96,-287.06 841.76,-285.2"/>
<polygon fill="midnightblue" stroke="midnightblue" points="1143.54,-154.74 1145.87,-144.4 1137.6,-151.03 1143.54,-154.74"/>
</g>
<!-- Node7 -->
<g id="node7" class="node">
<title>Node7</title>
<g id="a_node7"><a xlink:href="classslljit_1_1_parser.html#a149f5e88cb03aa08c388e6320c6c1bac" target="_top" xlink:title="ifexpr ::= &#39;if&#39; expression &#39;then&#39; expression &#39;else&#39; expression">
<polygon fill="none" stroke="black" points="712,-182.16 712,-201.16 837,-201.16 837,-182.16 712,-182.16"/>
<text text-anchor="middle" x="774.5" y="-189.16" font-family="Helvetica,sans-Serif" font-size="10.00">slljit::Parser::ParseIfExpr</text>
</a>
</g>
</g>
<!-- Node1&#45;&gt;Node7 -->
<g id="edge21" class="edge">
<title>Node1&#45;&gt;Node7</title>
<path fill="none" stroke="midnightblue" d="M1120.03,-148.07C1098.47,-156.62 1069.01,-167.12 1042,-172.66 972.82,-186.88 891.67,-190.9 837.25,-191.83"/>
<polygon fill="midnightblue" stroke="midnightblue" points="1121.38,-151.29 1129.34,-144.29 1118.75,-144.8 1121.38,-151.29"/>
</g>
<!-- Node14 -->
<g id="node14" class="node">
<title>Node14</title>
<g id="a_node14"><a xlink:href="classslljit_1_1_parser.html#a25cfefcbeea85744e23370d3a6f8ad5b" target="_top" xlink:title=" ">
<polygon fill="none" stroke="black" points="882,-144.16 882,-163.16 1038,-163.16 1038,-144.16 882,-144.16"/>
<text text-anchor="middle" x="960" y="-151.16" font-family="Helvetica,sans-Serif" font-size="10.00">slljit::Parser::ParseIdentifierExpr</text>
</a>
</g>
</g>
<!-- Node1&#45;&gt;Node14 -->
<g id="edge19" class="edge">
<title>Node1&#45;&gt;Node14</title>
<path fill="none" stroke="midnightblue" d="M1067.71,-143.02C1057.91,-144 1047.95,-144.99 1038.24,-145.96"/>
<polygon fill="midnightblue" stroke="midnightblue" points="1068.24,-146.49 1077.85,-142.01 1067.55,-139.52 1068.24,-146.49"/>
</g>
<!-- Node15 -->
<g id="node15" class="node">
<title>Node15</title>
<g id="a_node15"><a xlink:href="classslljit_1_1_parser.html#a6e2e0f6a2cc445f3a956db59c8d2da66" target="_top" xlink:title="parenexpr ::= &#39;(&#39; expression &#39;)&#39;">
<polygon fill="none" stroke="black" points="887,-106.16 887,-125.16 1033,-125.16 1033,-106.16 887,-106.16"/>
<text text-anchor="middle" x="960" y="-113.16" font-family="Helvetica,sans-Serif" font-size="10.00">slljit::Parser::ParseParenExpr</text>
</a>
</g>
</g>
<!-- Node1&#45;&gt;Node15 -->
<g id="edge22" class="edge">
<title>Node1&#45;&gt;Node15</title>
<path fill="none" stroke="midnightblue" d="M1067.79,-126.32C1056.26,-125.17 1044.5,-123.99 1033.2,-122.87"/>
<polygon fill="midnightblue" stroke="midnightblue" points="1067.55,-129.81 1077.85,-127.32 1068.24,-122.84 1067.55,-129.81"/>
</g>
<!-- Node16 -->
<g id="node16" class="node">
<title>Node16</title>
<g id="a_node16"><a xlink:href="classslljit_1_1_parser.html#a435877d3f2869d140a7cca646546a114" target="_top" xlink:title="varexpr ::= &#39;g_var&#39; identifier (&#39;=&#39; expression)?">
<polygon fill="none" stroke="black" points="707,-68.16 707,-87.16 842,-87.16 842,-68.16 707,-68.16"/>
<text text-anchor="middle" x="774.5" y="-75.16" font-family="Helvetica,sans-Serif" font-size="10.00">slljit::Parser::ParseVarExpr</text>
</a>
</g>
</g>
<!-- Node1&#45;&gt;Node16 -->
<g id="edge24" class="edge">
<title>Node1&#45;&gt;Node16</title>
<path fill="none" stroke="midnightblue" d="M1120.03,-121.26C1098.47,-112.71 1069.01,-102.21 1042,-96.66 974.87,-82.87 896.46,-78.67 842.14,-77.59"/>
<polygon fill="midnightblue" stroke="midnightblue" points="1118.75,-124.52 1129.34,-125.03 1121.38,-118.04 1118.75,-124.52"/>
</g>
<!-- Node2&#45;&gt;Node3 -->
<g id="edge2" class="edge">
<title>Node2&#45;&gt;Node3</title>
<path fill="none" stroke="midnightblue" d="M911.8,-244.75C881.05,-252.63 841.47,-262.77 812.89,-270.09"/>
<polygon fill="midnightblue" stroke="midnightblue" points="913.05,-248.05 921.87,-242.18 911.31,-241.27 913.05,-248.05"/>
</g>
<!-- Node2&#45;&gt;Node7 -->
<g id="edge10" class="edge">
<title>Node2&#45;&gt;Node7</title>
<path fill="none" stroke="midnightblue" d="M906.43,-220.92C878.44,-214.67 844.47,-207.08 818.15,-201.19"/>
<polygon fill="midnightblue" stroke="midnightblue" points="905.92,-224.39 916.44,-223.16 907.44,-217.56 905.92,-224.39"/>
</g>
<!-- Node8 -->
<g id="node8" class="node">
<title>Node8</title>
<g id="a_node8"><a xlink:href="classslljit_1_1_parser.html#aa9a9ce164e114ad7f347f32329f5a5a2" target="_top" xlink:title="definition ::= &#39;def&#39; prototype expression">
<polygon fill="none" stroke="black" points="716.5,-220.66 716.5,-250.66 832.5,-250.66 832.5,-220.66 716.5,-220.66"/>
<text text-anchor="start" x="724.5" y="-238.66" font-family="Helvetica,sans-Serif" font-size="10.00">slljit::Parser::ParseTop</text>
<text text-anchor="middle" x="774.5" y="-227.66" font-family="Helvetica,sans-Serif" font-size="10.00">LevelTypedExpression</text>
</a>
</g>
</g>
<!-- Node2&#45;&gt;Node8 -->
<g id="edge12" class="edge">
<title>Node2&#45;&gt;Node8</title>
<path fill="none" stroke="midnightblue" d="M867.92,-234.15C855.92,-234.35 843.91,-234.55 832.7,-234.73"/>
<polygon fill="midnightblue" stroke="midnightblue" points="868.04,-237.65 877.98,-233.99 867.92,-230.65 868.04,-237.65"/>
</g>
<!-- Node4 -->
<g id="node4" class="node">
<title>Node4</title>
<g id="a_node4"><a xlink:href="classslljit_1_1_parser.html#a45cb3e4f600e8e2c253490e7d878e8cd" target="_top" xlink:title=" ">
<polygon fill="none" stroke="black" points="537,-125.16 537,-144.16 671,-144.16 671,-125.16 537,-125.16"/>
<text text-anchor="middle" x="604" y="-132.16" font-family="Helvetica,sans-Serif" font-size="10.00">slljit::Parser::ParsePrimary</text>
</a>
</g>
</g>
<!-- Node3&#45;&gt;Node4 -->
<g id="edge3" class="edge">
<title>Node3&#45;&gt;Node4</title>
<path fill="none" stroke="midnightblue" d="M716.05,-266.04C712.88,-264.44 709.84,-262.66 707,-260.66 684.6,-244.92 687.99,-232.14 671,-210.66 651.48,-186 626.78,-158.45 613.84,-144.26"/>
<polygon fill="midnightblue" stroke="midnightblue" points="714.66,-269.26 725.23,-270.07 717.48,-262.85 714.66,-269.26"/>
</g>
<!-- Node5 -->
<g id="node5" class="node">
<title>Node5</title>
<g id="a_node5"><a xlink:href="classslljit_1_1_parser.html#af8579896f39ac563d2edd14404d70f41" target="_top" xlink:title=" ">
<polygon fill="none" stroke="black" points="376,-30.16 376,-49.16 501,-49.16 501,-30.16 376,-30.16"/>
<text text-anchor="middle" x="438.5" y="-37.16" font-family="Helvetica,sans-Serif" font-size="10.00">slljit::Parser::ParseUnary</text>
</a>
</g>
</g>
<!-- Node4&#45;&gt;Node5 -->
<g id="edge4" class="edge">
<title>Node4&#45;&gt;Node5</title>
<path fill="none" stroke="midnightblue" d="M577.59,-119.9C543.74,-100.23 484.8,-65.98 456.12,-49.32"/>
<polygon fill="midnightblue" stroke="midnightblue" points="576.02,-123.04 586.42,-125.03 579.53,-116.98 576.02,-123.04"/>
</g>
<!-- Node5&#45;&gt;Node1 -->
<g id="edge8" class="edge">
<title>Node5&#45;&gt;Node1</title>
<path fill="none" stroke="midnightblue" d="M511.46,-33.57C626.33,-26.12 857.02,-20.57 1042,-75.66 1079.25,-86.76 1118.25,-111.42 1138.13,-125.09"/>
<polygon fill="midnightblue" stroke="midnightblue" points="511.12,-30.08 501.38,-34.25 511.59,-37.07 511.12,-30.08"/>
</g>
<!-- Node5&#45;&gt;Node5 -->
<g id="edge9" class="edge">
<title>Node5&#45;&gt;Node5</title>
<path fill="none" stroke="midnightblue" d="M467.25,-58.32C466.04,-63.6 456.46,-67.66 438.5,-67.66 411.13,-67.66 403.22,-58.23 414.76,-49.42"/>
<polygon fill="midnightblue" stroke="midnightblue" points="470.19,-56.42 462.24,-49.42 464.09,-59.85 470.19,-56.42"/>
</g>
<!-- Node6 -->
<g id="node6" class="node">
<title>Node6</title>
<g id="a_node6"><a xlink:href="classslljit_1_1_parser.html#ae387c9672ec50720d8cb969558aedbe9" target="_top" xlink:title=" ">
<polygon fill="none" stroke="black" points="226,-5.66 226,-35.66 340,-35.66 340,-5.66 226,-5.66"/>
<text text-anchor="start" x="234" y="-23.66" font-family="Helvetica,sans-Serif" font-size="10.00">slljit::Parser::ParseBin</text>
<text text-anchor="middle" x="283" y="-12.66" font-family="Helvetica,sans-Serif" font-size="10.00">OpRHS</text>
</a>
</g>
</g>
<!-- Node5&#45;&gt;Node6 -->
<g id="edge5" class="edge">
<title>Node5&#45;&gt;Node6</title>
<path fill="none" stroke="midnightblue" d="M365.86,-30.8C357.22,-29.73 348.48,-28.65 340.1,-27.61"/>
<polygon fill="midnightblue" stroke="midnightblue" points="365.6,-34.29 375.95,-32.05 366.46,-27.34 365.6,-34.29"/>
</g>
<!-- Node6&#45;&gt;Node1 -->
<g id="edge7" class="edge">
<title>Node6&#45;&gt;Node1</title>
<path fill="none" stroke="midnightblue" d="M350.15,-14.42C414.62,-8.88 515.45,-1.66 603,-1.66 775.5,-1.66 775.5,-1.66 775.5,-1.66 895.08,-1.66 933.25,11.06 1042,-38.66 1087.29,-59.38 1127.72,-105.06 1143.95,-125.02"/>
<polygon fill="midnightblue" stroke="midnightblue" points="349.78,-10.94 340.12,-15.3 350.39,-17.92 349.78,-10.94"/>
</g>
<!-- Node6&#45;&gt;Node6 -->
<g id="edge6" class="edge">
<title>Node6&#45;&gt;Node6</title>
<path fill="none" stroke="midnightblue" d="M309.65,-46.12C306.35,-50.84 297.46,-54.16 283,-54.16 259.27,-54.16 250.56,-45.22 256.86,-35.82"/>
<polygon fill="midnightblue" stroke="midnightblue" points="313.13,-45.64 309.14,-35.82 306.14,-45.99 313.13,-45.64"/>
</g>
<!-- Node7&#45;&gt;Node4 -->
<g id="edge11" class="edge">
<title>Node7&#45;&gt;Node4</title>
<path fill="none" stroke="midnightblue" d="M735.69,-178.87C704.65,-168.38 661.39,-153.74 633.3,-144.24"/>
<polygon fill="midnightblue" stroke="midnightblue" points="734.7,-182.24 745.3,-182.12 736.95,-175.6 734.7,-182.24"/>
</g>
<!-- Node9 -->
<g id="node9" class="node">
<title>Node9</title>
<g id="a_node9"><a xlink:href="classslljit_1_1_parser.html#af0cac4623fc05b8b7ae9884b0aeb3d3f" target="_top" xlink:title=" ">
<polygon fill="none" stroke="black" points="538.5,-220.66 538.5,-250.66 669.5,-250.66 669.5,-220.66 538.5,-220.66"/>
<text text-anchor="start" x="546.5" y="-238.66" font-family="Helvetica,sans-Serif" font-size="10.00">slljit::Parser::HandleTyped</text>
<text text-anchor="middle" x="604" y="-227.66" font-family="Helvetica,sans-Serif" font-size="10.00">Expression</text>
</a>
</g>
</g>
<!-- Node8&#45;&gt;Node9 -->
<g id="edge13" class="edge">
<title>Node8&#45;&gt;Node9</title>
<path fill="none" stroke="midnightblue" d="M706.39,-235.66C694.24,-235.66 681.6,-235.66 669.53,-235.66"/>
<polygon fill="midnightblue" stroke="midnightblue" points="706.45,-239.16 716.45,-235.66 706.45,-232.16 706.45,-239.16"/>
</g>
<!-- Node10 -->
<g id="node10" class="node">
<title>Node10</title>
<g id="a_node10"><a xlink:href="classslljit_1_1_parser.html#ae2d3d6534b87da7f237c19129a464bda" target="_top" xlink:title="top ::= definition | external | expression | &#39;;&#39;">
<polygon fill="none" stroke="black" points="380.5,-226.16 380.5,-245.16 496.5,-245.16 496.5,-226.16 380.5,-226.16"/>
<text text-anchor="middle" x="438.5" y="-233.16" font-family="Helvetica,sans-Serif" font-size="10.00">slljit::Parser::MainLoop</text>
</a>
</g>
</g>
<!-- Node9&#45;&gt;Node10 -->
<g id="edge14" class="edge">
<title>Node9&#45;&gt;Node10</title>
<path fill="none" stroke="midnightblue" d="M528.23,-235.66C517.57,-235.66 506.75,-235.66 496.5,-235.66"/>
<polygon fill="midnightblue" stroke="midnightblue" points="528.38,-239.16 538.38,-235.66 528.38,-232.16 528.38,-239.16"/>
</g>
<!-- Node11 -->
<g id="node11" class="node">
<title>Node11</title>
<g id="a_node11"><a xlink:href="classslljit_1_1_parser.html#a2429935f3c870648f9f895a7b2361cfb" target="_top" xlink:title=" ">
<polygon fill="none" stroke="black" points="234,-226.16 234,-245.16 332,-245.16 332,-226.16 234,-226.16"/>
<text text-anchor="middle" x="283" y="-233.16" font-family="Helvetica,sans-Serif" font-size="10.00">slljit::Parser::parse</text>
</a>
</g>
</g>
<!-- Node10&#45;&gt;Node11 -->
<g id="edge15" class="edge">
<title>Node10&#45;&gt;Node11</title>
<path fill="none" stroke="midnightblue" d="M370.18,-235.66C357.37,-235.66 344.21,-235.66 332.15,-235.66"/>
<polygon fill="midnightblue" stroke="midnightblue" points="370.34,-239.16 380.34,-235.66 370.34,-232.16 370.34,-239.16"/>
</g>
<!-- Node12 -->
<g id="node12" class="node">
<title>Node12</title>
<g id="a_node12"><a xlink:href="classslljit_1_1_program.html#ae4d26526a7dd9c69ebe92fb43736696b" target="_top" xlink:title=" ">
<polygon fill="none" stroke="black" points="74,-226.16 74,-245.16 190,-245.16 190,-226.16 74,-226.16"/>
<text text-anchor="middle" x="132" y="-233.16" font-family="Helvetica,sans-Serif" font-size="10.00">slljit::Program::compile</text>
</a>
</g>
</g>
<!-- Node11&#45;&gt;Node12 -->
<g id="edge16" class="edge">
<title>Node11&#45;&gt;Node12</title>
<path fill="none" stroke="midnightblue" d="M223.35,-235.66C212.45,-235.66 201.07,-235.66 190.22,-235.66"/>
<polygon fill="midnightblue" stroke="midnightblue" points="223.62,-239.16 233.62,-235.66 223.62,-232.16 223.62,-239.16"/>
</g>
<!-- Node13 -->
<g id="node13" class="node">
<title>Node13</title>
<g id="a_node13"><a xlink:href="compiler__cli_8cpp.html#a3c04138a5bfe5d72780bb7e82a18e627" target="_top" xlink:title=" ">
<polygon fill="none" stroke="black" points="0,-226.16 0,-245.16 38,-245.16 38,-226.16 0,-226.16"/>
<text text-anchor="middle" x="19" y="-233.16" font-family="Helvetica,sans-Serif" font-size="10.00">main</text>
</a>
</g>
</g>
<!-- Node12&#45;&gt;Node13 -->
<g id="edge17" class="edge">
<title>Node12&#45;&gt;Node13</title>
<path fill="none" stroke="midnightblue" d="M63.62,-235.66C54.3,-235.66 45.44,-235.66 38.18,-235.66"/>
<polygon fill="midnightblue" stroke="midnightblue" points="63.87,-239.16 73.87,-235.66 63.87,-232.16 63.87,-239.16"/>
</g>
<!-- Node14&#45;&gt;Node4 -->
<g id="edge20" class="edge">
<title>Node14&#45;&gt;Node4</title>
<path fill="none" stroke="midnightblue" d="M871.59,-148.97C809.59,-145.65 727.67,-141.25 671.08,-138.21"/>
<polygon fill="midnightblue" stroke="midnightblue" points="871.58,-152.48 881.75,-149.52 871.95,-145.49 871.58,-152.48"/>
</g>
<!-- Node15&#45;&gt;Node4 -->
<g id="edge23" class="edge">
<title>Node15&#45;&gt;Node4</title>
<path fill="none" stroke="midnightblue" d="M876.72,-120.08C814.24,-123.43 729.44,-127.99 671.28,-131.11"/>
<polygon fill="midnightblue" stroke="midnightblue" points="877.14,-123.56 886.94,-119.53 876.76,-116.57 877.14,-123.56"/>
</g>
<!-- Node16&#45;&gt;Node4 -->
<g id="edge25" class="edge">
<title>Node16&#45;&gt;Node4</title>
<path fill="none" stroke="midnightblue" d="M735.69,-90.46C704.65,-100.95 661.39,-115.59 633.3,-125.09"/>
<polygon fill="midnightblue" stroke="midnightblue" points="736.95,-93.73 745.3,-87.21 734.7,-87.09 736.95,-93.73"/>
</g>
</g>
</svg>
