<?xml version="1.0" encoding="UTF-8" standalone="no"?>
<!DOCTYPE svg PUBLIC "-//W3C//DTD SVG 1.1//EN"
 "http://www.w3.org/Graphics/SVG/1.1/DTD/svg11.dtd">
<!-- Generated by graphviz version 3.0.0 (20220226.1711)
 -->
<!-- Title: slljit::LocalContext::getJITDylib Pages: 1 -->
<svg width="413pt" height="53pt"
 viewBox="0.00 0.00 413.00 52.50" xmlns="http://www.w3.org/2000/svg" xmlns:xlink="http://www.w3.org/1999/xlink">
<g id="graph0" class="graph" transform="scale(1 1) rotate(0) translate(4 48.5)">
<title>slljit::LocalContext::getJITDylib</title>
<!-- Node1 -->
<g id="node1" class="node">
<title>Node1</title>
<g id="a_node1"><a xlink:title=" ">
<polygon fill="#bfbfbf" stroke="black" points="308,-14 308,-44 405,-44 405,-14 308,-14"/>
<text text-anchor="start" x="316" y="-32" font-family="Helvetica,sans-Serif" font-size="10.00">slljit::LocalContext</text>
<text text-anchor="middle" x="356.5" y="-21" font-family="Helvetica,sans-Serif" font-size="10.00">::getJITDylib</text>
</a>
</g>
</g>
<!-- Node2 -->
<g id="node2" class="node">
<title>Node2</title>
<g id="a_node2"><a xlink:href="classslljit_1_1_program.html#ae4d26526a7dd9c69ebe92fb43736696b" target="_top" xlink:title=" ">
<polygon fill="none" stroke="black" points="0,-19.5 0,-38.5 116,-38.5 116,-19.5 0,-19.5"/>
<text text-anchor="middle" x="58" y="-26.5" font-family="Helvetica,sans-Serif" font-size="10.00">slljit::Program::compile</text>
</a>
</g>
</g>
<!-- Node1&#45;&gt;Node2 -->
<g id="edge1" class="edge">
<title>Node1&#45;&gt;Node2</title>
<path fill="none" stroke="midnightblue" d="M297.72,-29C245.28,-29 168.41,-29 116.17,-29"/>
<polygon fill="midnightblue" stroke="midnightblue" points="297.86,-32.5 307.86,-29 297.86,-25.5 297.86,-32.5"/>
</g>
<!-- Node3 -->
<g id="node3" class="node">
<title>Node3</title>
<g id="a_node3"><a xlink:href="classslljit_1_1_code_gen.html#a2f9a2e9e55e24a7aee76846e055d1dae" target="_top" xlink:title=" ">
<polygon fill="none" stroke="black" points="152,-0.5 152,-19.5 272,-19.5 272,-0.5 152,-0.5"/>
<text text-anchor="middle" x="212" y="-7.5" font-family="Helvetica,sans-Serif" font-size="10.00">slljit::CodeGen::compile</text>
</a>
</g>
</g>
<!-- Node1&#45;&gt;Node3 -->
<g id="edge2" class="edge">
<title>Node1&#45;&gt;Node3</title>
<path fill="none" stroke="midnightblue" d="M297.57,-21.28C289.18,-20.16 280.53,-19 272.11,-17.88"/>
<polygon fill="midnightblue" stroke="midnightblue" points="297.28,-24.77 307.65,-22.62 298.2,-17.83 297.28,-24.77"/>
</g>
<!-- Node3&#45;&gt;Node2 -->
<g id="edge3" class="edge">
<title>Node3&#45;&gt;Node2</title>
<path fill="none" stroke="midnightblue" d="M141.85,-18.64C133.3,-19.71 124.64,-20.8 116.3,-21.84"/>
<polygon fill="midnightblue" stroke="midnightblue" points="142.31,-22.11 151.8,-17.4 141.44,-15.17 142.31,-22.11"/>
</g>
</g>
</svg>
