<?xml version="1.0" encoding="UTF-8" standalone="no"?>
<!DOCTYPE svg PUBLIC "-//W3C//DTD SVG 1.1//EN"
 "http://www.w3.org/Graphics/SVG/1.1/DTD/svg11.dtd">
<!-- Generated by graphviz version 3.0.0 (20220226.1711)
 -->
<!-- Title: slljit::VarExprAST Pages: 1 -->
<svg width="429pt" height="89pt"
 viewBox="0.00 0.00 429.00 89.00" xmlns="http://www.w3.org/2000/svg" xmlns:xlink="http://www.w3.org/1999/xlink">
<g id="graph0" class="graph" transform="scale(1 1) rotate(0) translate(4 85)">
<title>slljit::VarExprAST</title>
<!-- Node1 -->
<g id="node1" class="node">
<title>Node1</title>
<g id="a_node1"><a xlink:title="Expression class for g_var/in.">
<polygon fill="#bfbfbf" stroke="black" points="327,-24.5 327,-43.5 421,-43.5 421,-24.5 327,-24.5"/>
<text text-anchor="middle" x="374" y="-31.5" font-family="Helvetica,sans-Serif" font-size="10.00">slljit::VarExprAST</text>
</a>
</g>
</g>
<!-- Node2 -->
<g id="node2" class="node">
<title>Node2</title>
<g id="a_node2"><a xlink:href="classslljit_1_1_expr_a_s_t.html" target="_top" xlink:title="Base class for all expression nodes.">
<polygon fill="none" stroke="black" points="137,-60.5 137,-79.5 216,-79.5 216,-60.5 137,-60.5"/>
<text text-anchor="middle" x="176.5" y="-67.5" font-family="Helvetica,sans-Serif" font-size="10.00">slljit::ExprAST</text>
</a>
</g>
</g>
<!-- Node2&#45;&gt;Node1 -->
<g id="edge1" class="edge">
<title>Node2&#45;&gt;Node1</title>
<path fill="none" stroke="midnightblue" d="M226.21,-61.03C257.02,-55.36 296.59,-48.07 326.89,-42.49"/>
<polygon fill="midnightblue" stroke="midnightblue" points="225.33,-57.63 216.12,-62.89 226.59,-64.52 225.33,-57.63"/>
</g>
<!-- Node3 -->
<g id="node3" class="node">
<title>Node3</title>
<g id="a_node3"><a xlink:title=" ">
<polygon fill="none" stroke="black" points="0,-60.5 0,-79.5 47,-79.5 47,-60.5 0,-60.5"/>
<text text-anchor="middle" x="23.5" y="-67.5" font-family="Helvetica,sans-Serif" font-size="10.00">TypeID</text>
</a>
</g>
</g>
<!-- Node3&#45;&gt;Node2 -->
<g id="edge2" class="edge">
<title>Node3&#45;&gt;Node2</title>
<path fill="none" stroke="#9a32cd" stroke-dasharray="5,2" d="M57.23,-70C80.64,-70 112.24,-70 136.88,-70"/>
<polygon fill="#9a32cd" stroke="#9a32cd" points="57.11,-66.5 47.11,-70 57.11,-73.5 57.11,-66.5"/>
<text text-anchor="middle" x="79" y="-73" font-family="Helvetica,sans-Serif" font-size="10.00"> type_</text>
</g>
<!-- Node4 -->
<g id="node4" class="node">
<title>Node4</title>
<g id="a_node4"><a xlink:title=" ">
<polygon fill="none" stroke="black" points="111,-0.5 111,-41.5 242,-41.5 242,-0.5 111,-0.5"/>
<text text-anchor="start" x="119" y="-29.5" font-family="Helvetica,sans-Serif" font-size="10.00">vector&lt; std::pair&lt;</text>
<text text-anchor="start" x="119" y="-18.5" font-family="Helvetica,sans-Serif" font-size="10.00"> std::string, std::unique</text>
<text text-anchor="middle" x="176.5" y="-7.5" font-family="Helvetica,sans-Serif" font-size="10.00">_ptr&lt; slljit::ExprAST &gt; &gt; &gt;</text>
</a>
</g>
</g>
<!-- Node4&#45;&gt;Node1 -->
<g id="edge3" class="edge">
<title>Node4&#45;&gt;Node1</title>
<path fill="none" stroke="#9a32cd" stroke-dasharray="5,2" d="M252.28,-25.97C277.34,-27.64 304.54,-29.45 326.77,-30.93"/>
<polygon fill="#9a32cd" stroke="#9a32cd" points="252.27,-22.46 242.06,-25.29 251.8,-29.45 252.27,-22.46"/>
<text text-anchor="middle" x="284.5" y="-33" font-family="Helvetica,sans-Serif" font-size="10.00"> VarNames</text>
</g>
</g>
</svg>
