<?xml version="1.0" encoding="UTF-8" standalone="no"?>
<!DOCTYPE svg PUBLIC "-//W3C//DTD SVG 1.1//EN"
 "http://www.w3.org/Graphics/SVG/1.1/DTD/svg11.dtd">
<!-- Generated by graphviz version 3.0.0 (20220226.1711)
 -->
<!-- Title: slljit::Parser::ParseLiteralExpr Pages: 1 -->
<svg width="610pt" height="284pt"
 viewBox="0.00 0.00 610.00 284.00" xmlns="http://www.w3.org/2000/svg" xmlns:xlink="http://www.w3.org/1999/xlink">
<g id="graph0" class="graph" transform="scale(1 1) rotate(0) translate(4 280)">
<title>slljit::Parser::ParseLiteralExpr</title>
<!-- Node1 -->
<g id="node1" class="node">
<title>Node1</title>
<g id="a_node1"><a xlink:title="numberexpr ::= number">
<polygon fill="#bfbfbf" stroke="black" points="0,-172 0,-191 146,-191 146,-172 0,-172"/>
<text text-anchor="middle" x="73" y="-179" font-family="Helvetica,sans-Serif" font-size="10.00">slljit::Parser::ParseLiteralExpr</text>
</a>
</g>
</g>
<!-- Node2 -->
<g id="node2" class="node">
<title>Node2</title>
<g id="a_node2"><a xlink:href="classslljit_1_1_tokenizer.html#a69d29df7401c1f268a754725c4561470" target="_top" xlink:title=" ">
<polygon fill="none" stroke="black" points="205,-215.5 205,-245.5 293,-245.5 293,-215.5 205,-215.5"/>
<text text-anchor="start" x="213" y="-233.5" font-family="Helvetica,sans-Serif" font-size="10.00">slljit::Tokenizer::</text>
<text text-anchor="middle" x="249" y="-222.5" font-family="Helvetica,sans-Serif" font-size="10.00">get_literal_string</text>
</a>
</g>
</g>
<!-- Node1&#45;&gt;Node2 -->
<g id="edge1" class="edge">
<title>Node1&#45;&gt;Node2</title>
<path fill="none" stroke="midnightblue" d="M107.96,-191.06C132.73,-198.04 166.78,-207.63 195.1,-215.6"/>
<polygon fill="midnightblue" stroke="midnightblue" points="194.28,-219.01 204.86,-218.35 196.18,-212.27 194.28,-219.01"/>
</g>
<!-- Node3 -->
<g id="node3" class="node">
<title>Node3</title>
<g id="a_node3"><a xlink:href="classslljit_1_1_tokenizer.html#a0baa2e9dbe626f0475ee4206f16bbb4e" target="_top" xlink:title=" ">
<polygon fill="none" stroke="black" points="197,-166.5 197,-196.5 301,-196.5 301,-166.5 197,-166.5"/>
<text text-anchor="start" x="205" y="-184.5" font-family="Helvetica,sans-Serif" font-size="10.00">slljit::Tokenizer::</text>
<text text-anchor="middle" x="249" y="-173.5" font-family="Helvetica,sans-Serif" font-size="10.00">get_source_location</text>
</a>
</g>
</g>
<!-- Node1&#45;&gt;Node3 -->
<g id="edge2" class="edge">
<title>Node1&#45;&gt;Node3</title>
<path fill="none" stroke="midnightblue" d="M146.03,-181.5C159.53,-181.5 173.52,-181.5 186.66,-181.5"/>
<polygon fill="midnightblue" stroke="midnightblue" points="186.99,-185 196.99,-181.5 186.99,-178 186.99,-185"/>
</g>
<!-- Node4 -->
<g id="node4" class="node">
<title>Node4</title>
<g id="a_node4"><a xlink:href="classslljit_1_1_parser.html#a9fcfefd86a6000dcb40fa737361ea55b" target="_top" xlink:title="GetTokPrecedence &#45; Get the precedence of the pending binary operator token.">
<polygon fill="none" stroke="black" points="182,-128 182,-147 316,-147 316,-128 182,-128"/>
<text text-anchor="middle" x="249" y="-135" font-family="Helvetica,sans-Serif" font-size="10.00">slljit::Parser::getNextToken</text>
</a>
</g>
</g>
<!-- Node1&#45;&gt;Node4 -->
<g id="edge3" class="edge">
<title>Node1&#45;&gt;Node4</title>
<path fill="none" stroke="midnightblue" d="M111.76,-171.95C137.75,-165.38 172.49,-156.6 200.38,-149.54"/>
<polygon fill="midnightblue" stroke="midnightblue" points="201.48,-152.87 210.32,-147.03 199.77,-146.09 201.48,-152.87"/>
</g>
<!-- Node5 -->
<g id="node5" class="node">
<title>Node5</title>
<g id="a_node5"><a xlink:href="classslljit_1_1_tokenizer.html#a4f0b343321f5e4561a80e47a5cec05d2" target="_top" xlink:title=" ">
<polygon fill="none" stroke="black" points="352,-122.5 352,-152.5 440,-152.5 440,-122.5 352,-122.5"/>
<text text-anchor="start" x="360" y="-140.5" font-family="Helvetica,sans-Serif" font-size="10.00">slljit::Tokenizer::</text>
<text text-anchor="middle" x="396" y="-129.5" font-family="Helvetica,sans-Serif" font-size="10.00">gettok</text>
</a>
</g>
</g>
<!-- Node4&#45;&gt;Node5 -->
<g id="edge4" class="edge">
<title>Node4&#45;&gt;Node5</title>
<path fill="none" stroke="midnightblue" d="M316.14,-137.5C324.64,-137.5 333.27,-137.5 341.54,-137.5"/>
<polygon fill="midnightblue" stroke="midnightblue" points="341.79,-141 351.79,-137.5 341.79,-134 341.79,-141"/>
</g>
<!-- Node5&#45;&gt;Node5 -->
<g id="edge6" class="edge">
<title>Node5&#45;&gt;Node5</title>
<path fill="none" stroke="midnightblue" d="M371.25,-152.66C365.29,-162.06 373.54,-171 396,-171 409.69,-171 418.1,-167.68 421.23,-162.96"/>
<polygon fill="midnightblue" stroke="midnightblue" points="424.71,-162.48 420.75,-152.66 417.72,-162.81 424.71,-162.48"/>
</g>
<!-- Node6 -->
<g id="node6" class="node">
<title>Node6</title>
<g id="a_node6"><a xlink:href="classslljit_1_1_tokenizer.html#aebe79ebb0da26fa5e89963683d474402" target="_top" xlink:title=" ">
<polygon fill="none" stroke="black" points="495,-245.5 495,-275.5 583,-275.5 583,-245.5 495,-245.5"/>
<text text-anchor="start" x="503" y="-263.5" font-family="Helvetica,sans-Serif" font-size="10.00">slljit::Tokenizer::</text>
<text text-anchor="middle" x="539" y="-252.5" font-family="Helvetica,sans-Serif" font-size="10.00">_getchar</text>
</a>
</g>
</g>
<!-- Node5&#45;&gt;Node6 -->
<g id="edge5" class="edge">
<title>Node5&#45;&gt;Node6</title>
<path fill="none" stroke="midnightblue" d="M405.53,-152.66C418.29,-174.09 444.27,-213.21 476,-236.5 479.02,-238.71 482.26,-240.75 485.63,-242.62"/>
<polygon fill="midnightblue" stroke="midnightblue" points="484.25,-245.85 494.76,-247.19 487.38,-239.59 484.25,-245.85"/>
</g>
<!-- Node7 -->
<g id="node7" class="node">
<title>Node7</title>
<g id="a_node7"><a xlink:href="classslljit_1_1_tokenizer.html#ac5b5748065cb054e0f34d995d1f3edce" target="_top" xlink:title=" ">
<polygon fill="none" stroke="black" points="495,-196.5 495,-226.5 583,-226.5 583,-196.5 495,-196.5"/>
<text text-anchor="start" x="503" y="-214.5" font-family="Helvetica,sans-Serif" font-size="10.00">slljit::Tokenizer::</text>
<text text-anchor="middle" x="539" y="-203.5" font-family="Helvetica,sans-Serif" font-size="10.00">is_id_char</text>
</a>
</g>
</g>
<!-- Node5&#45;&gt;Node7 -->
<g id="edge7" class="edge">
<title>Node5&#45;&gt;Node7</title>
<path fill="none" stroke="midnightblue" d="M418.46,-152.7C433.98,-163.28 455.71,-177.27 476,-187.5 479.34,-189.18 482.83,-190.83 486.37,-192.41"/>
<polygon fill="midnightblue" stroke="midnightblue" points="485.26,-195.74 495.83,-196.45 488.01,-189.3 485.26,-195.74"/>
</g>
<!-- Node8 -->
<g id="node8" class="node">
<title>Node8</title>
<g id="a_node8"><a xlink:href="classslljit_1_1_tokenizer.html#afddb21e93063a4c2338c2d42e23d18d2" target="_top" xlink:title=" ">
<polygon fill="none" stroke="black" points="495,-147.5 495,-177.5 583,-177.5 583,-147.5 495,-147.5"/>
<text text-anchor="start" x="503" y="-165.5" font-family="Helvetica,sans-Serif" font-size="10.00">slljit::Tokenizer::</text>
<text text-anchor="middle" x="539" y="-154.5" font-family="Helvetica,sans-Serif" font-size="10.00">is_id_start_char</text>
</a>
</g>
</g>
<!-- Node5&#45;&gt;Node8 -->
<g id="edge8" class="edge">
<title>Node5&#45;&gt;Node8</title>
<path fill="none" stroke="midnightblue" d="M440.07,-145.14C454.15,-147.63 469.96,-150.44 484.71,-153.05"/>
<polygon fill="midnightblue" stroke="midnightblue" points="484.25,-156.52 494.71,-154.82 485.47,-149.63 484.25,-156.52"/>
</g>
<!-- Node9 -->
<g id="node9" class="node">
<title>Node9</title>
<g id="a_node9"><a xlink:href="classslljit_1_1_tokenizer.html#ada986d1651ab242c370288c198cd726d" target="_top" xlink:title=" ">
<polygon fill="none" stroke="black" points="476,-98.5 476,-128.5 602,-128.5 602,-98.5 476,-98.5"/>
<text text-anchor="start" x="484" y="-116.5" font-family="Helvetica,sans-Serif" font-size="10.00">slljit::Tokenizer::</text>
<text text-anchor="middle" x="539" y="-105.5" font-family="Helvetica,sans-Serif" font-size="10.00">is_reserved_command_id</text>
</a>
</g>
</g>
<!-- Node5&#45;&gt;Node9 -->
<g id="edge9" class="edge">
<title>Node5&#45;&gt;Node9</title>
<path fill="none" stroke="midnightblue" d="M440.07,-130.17C448.31,-128.77 457.14,-127.26 466,-125.76"/>
<polygon fill="midnightblue" stroke="midnightblue" points="466.72,-129.18 475.99,-124.06 465.54,-122.28 466.72,-129.18"/>
</g>
<!-- Node10 -->
<g id="node10" class="node">
<title>Node10</title>
<g id="a_node10"><a xlink:href="classslljit_1_1_tokenizer.html#ab29a7d2f06bb354a3f748106f5ea3e6c" target="_top" xlink:title=" ">
<polygon fill="none" stroke="black" points="494.5,-49.5 494.5,-79.5 583.5,-79.5 583.5,-49.5 494.5,-49.5"/>
<text text-anchor="start" x="502.5" y="-67.5" font-family="Helvetica,sans-Serif" font-size="10.00">slljit::Tokenizer::</text>
<text text-anchor="middle" x="539" y="-56.5" font-family="Helvetica,sans-Serif" font-size="10.00">is_special_literal</text>
</a>
</g>
</g>
<!-- Node5&#45;&gt;Node10 -->
<g id="edge10" class="edge">
<title>Node5&#45;&gt;Node10</title>
<path fill="none" stroke="midnightblue" d="M419.6,-122.41C435.1,-112.41 456.34,-99.35 476,-89.5 480.02,-87.49 484.24,-85.51 488.51,-83.6"/>
<polygon fill="midnightblue" stroke="midnightblue" points="490.09,-86.74 497.88,-79.56 487.32,-80.31 490.09,-86.74"/>
</g>
<!-- Node11 -->
<g id="node11" class="node">
<title>Node11</title>
<g id="a_node11"><a xlink:href="classslljit_1_1_tokenizer.html#ae5cc0911ed858f6bc7bf206928cd66ae" target="_top" xlink:title=" ">
<polygon fill="none" stroke="black" points="495,-0.5 495,-30.5 583,-30.5 583,-0.5 495,-0.5"/>
<text text-anchor="start" x="503" y="-18.5" font-family="Helvetica,sans-Serif" font-size="10.00">slljit::Tokenizer::</text>
<text text-anchor="middle" x="539" y="-7.5" font-family="Helvetica,sans-Serif" font-size="10.00">set_lok_location</text>
</a>
</g>
</g>
<!-- Node5&#45;&gt;Node11 -->
<g id="edge11" class="edge">
<title>Node5&#45;&gt;Node11</title>
<path fill="none" stroke="midnightblue" d="M405.87,-122.36C418.84,-101.38 444.88,-63.44 476,-40.5 479.03,-38.27 482.28,-36.2 485.66,-34.29"/>
<polygon fill="midnightblue" stroke="midnightblue" points="487.5,-37.28 494.8,-29.61 484.31,-31.05 487.5,-37.28"/>
</g>
</g>
</svg>
