<?xml version="1.0" encoding="UTF-8" standalone="no"?>
<!DOCTYPE svg PUBLIC "-//W3C//DTD SVG 1.1//EN"
 "http://www.w3.org/Graphics/SVG/1.1/DTD/svg11.dtd">
<!-- Generated by graphviz version 3.0.0 (20220226.1711)
 -->
<!-- Title: slljit::Parser::get_current_function_scope Pages: 1 -->
<svg width="2037pt" height="269pt"
 viewBox="0.00 0.00 2037.00 269.27" xmlns="http://www.w3.org/2000/svg" xmlns:xlink="http://www.w3.org/1999/xlink">
<g id="graph0" class="graph" transform="scale(1 1) rotate(0) translate(4 265.27)">
<title>slljit::Parser::get_current_function_scope</title>
<!-- Node1 -->
<g id="node1" class="node">
<title>Node1</title>
<g id="a_node1"><a xlink:title=" ">
<polygon fill="#bfbfbf" stroke="black" points="1907,-42 1907,-72 2029,-72 2029,-42 1907,-42"/>
<text text-anchor="start" x="1915" y="-60" font-family="Helvetica,sans-Serif" font-size="10.00">slljit::Parser::get</text>
<text text-anchor="middle" x="1968" y="-49" font-family="Helvetica,sans-Serif" font-size="10.00">_current_function_scope</text>
</a>
</g>
</g>
<!-- Node2 -->
<g id="node2" class="node">
<title>Node2</title>
<g id="a_node2"><a xlink:href="classslljit_1_1_parser.html#a25cfefcbeea85744e23370d3a6f8ad5b" target="_top" xlink:title=" ">
<polygon fill="none" stroke="black" points="1715,-47.5 1715,-66.5 1871,-66.5 1871,-47.5 1715,-47.5"/>
<text text-anchor="middle" x="1793" y="-54.5" font-family="Helvetica,sans-Serif" font-size="10.00">slljit::Parser::ParseIdentifierExpr</text>
</a>
</g>
</g>
<!-- Node1&#45;&gt;Node2 -->
<g id="edge1" class="edge">
<title>Node1&#45;&gt;Node2</title>
<path fill="none" stroke="midnightblue" d="M1896.84,-57C1888.42,-57 1879.79,-57 1871.28,-57"/>
<polygon fill="midnightblue" stroke="midnightblue" points="1896.98,-60.5 1906.98,-57 1896.98,-53.5 1896.98,-60.5"/>
</g>
<!-- Node3 -->
<g id="node3" class="node">
<title>Node3</title>
<g id="a_node3"><a xlink:href="classslljit_1_1_parser.html#a45cb3e4f600e8e2c253490e7d878e8cd" target="_top" xlink:title=" ">
<polygon fill="none" stroke="black" points="1545,-85.5 1545,-104.5 1679,-104.5 1679,-85.5 1545,-85.5"/>
<text text-anchor="middle" x="1612" y="-92.5" font-family="Helvetica,sans-Serif" font-size="10.00">slljit::Parser::ParsePrimary</text>
</a>
</g>
</g>
<!-- Node2&#45;&gt;Node3 -->
<g id="edge2" class="edge">
<title>Node2&#45;&gt;Node3</title>
<path fill="none" stroke="midnightblue" d="M1736.98,-68.68C1711.59,-74.07 1681.84,-80.39 1657.84,-85.48"/>
<polygon fill="midnightblue" stroke="midnightblue" points="1737.78,-72.09 1746.83,-66.59 1736.32,-65.24 1737.78,-72.09"/>
</g>
<!-- Node4 -->
<g id="node4" class="node">
<title>Node4</title>
<g id="a_node4"><a xlink:href="classslljit_1_1_parser.html#af8579896f39ac563d2edd14404d70f41" target="_top" xlink:title=" ">
<polygon fill="none" stroke="black" points="1384,-104.5 1384,-123.5 1509,-123.5 1509,-104.5 1384,-104.5"/>
<text text-anchor="middle" x="1446.5" y="-111.5" font-family="Helvetica,sans-Serif" font-size="10.00">slljit::Parser::ParseUnary</text>
</a>
</g>
</g>
<!-- Node3&#45;&gt;Node4 -->
<g id="edge3" class="edge">
<title>Node3&#45;&gt;Node4</title>
<path fill="none" stroke="midnightblue" d="M1534.86,-103.85C1526.2,-104.85 1517.46,-105.87 1509.02,-106.85"/>
<polygon fill="midnightblue" stroke="midnightblue" points="1535.44,-107.3 1544.97,-102.67 1534.63,-100.35 1535.44,-107.3"/>
</g>
<!-- Node4&#45;&gt;Node4 -->
<g id="edge26" class="edge">
<title>Node4&#45;&gt;Node4</title>
<path fill="none" stroke="midnightblue" d="M1475.25,-132.65C1474.04,-137.94 1464.46,-142 1446.5,-142 1419.13,-142 1411.22,-132.57 1422.76,-123.76"/>
<polygon fill="midnightblue" stroke="midnightblue" points="1478.19,-130.75 1470.24,-123.76 1472.09,-134.19 1478.19,-130.75"/>
</g>
<!-- Node5 -->
<g id="node5" class="node">
<title>Node5</title>
<g id="a_node5"><a xlink:href="classslljit_1_1_parser.html#ae387c9672ec50720d8cb969558aedbe9" target="_top" xlink:title=" ">
<polygon fill="none" stroke="black" points="1234,-143 1234,-173 1348,-173 1348,-143 1234,-143"/>
<text text-anchor="start" x="1242" y="-161" font-family="Helvetica,sans-Serif" font-size="10.00">slljit::Parser::ParseBin</text>
<text text-anchor="middle" x="1291" y="-150" font-family="Helvetica,sans-Serif" font-size="10.00">OpRHS</text>
</a>
</g>
</g>
<!-- Node4&#45;&gt;Node5 -->
<g id="edge4" class="edge">
<title>Node4&#45;&gt;Node5</title>
<path fill="none" stroke="midnightblue" d="M1402.55,-126.31C1384.56,-131.47 1363.47,-137.51 1344.56,-142.93"/>
<polygon fill="midnightblue" stroke="midnightblue" points="1403.54,-129.67 1412.19,-123.55 1401.62,-122.94 1403.54,-129.67"/>
</g>
<!-- Node6 -->
<g id="node6" class="node">
<title>Node6</title>
<g id="a_node6"><a xlink:href="classslljit_1_1_parser.html#a79461bf414d03dcabb49d3bbd6f89607" target="_top" xlink:title=" ">
<polygon fill="none" stroke="black" points="1049,-119.5 1049,-138.5 1198,-138.5 1198,-119.5 1049,-119.5"/>
<text text-anchor="middle" x="1123.5" y="-126.5" font-family="Helvetica,sans-Serif" font-size="10.00">slljit::Parser::ParseExpression</text>
</a>
</g>
</g>
<!-- Node4&#45;&gt;Node6 -->
<g id="edge25" class="edge">
<title>Node4&#45;&gt;Node6</title>
<path fill="none" stroke="midnightblue" d="M1373.79,-117.35C1321.52,-119.79 1250.92,-123.09 1198.19,-125.56"/>
<polygon fill="midnightblue" stroke="midnightblue" points="1374.16,-120.84 1383.99,-116.87 1373.84,-113.85 1374.16,-120.84"/>
</g>
<!-- Node5&#45;&gt;Node5 -->
<g id="edge5" class="edge">
<title>Node5&#45;&gt;Node5</title>
<path fill="none" stroke="midnightblue" d="M1318.36,-183.46C1314.97,-188.18 1305.85,-191.5 1291,-191.5 1266.64,-191.5 1257.69,-182.56 1264.16,-173.16"/>
<polygon fill="midnightblue" stroke="midnightblue" points="1321.84,-182.97 1317.84,-173.16 1314.85,-183.32 1321.84,-182.97"/>
</g>
<!-- Node5&#45;&gt;Node6 -->
<g id="edge6" class="edge">
<title>Node5&#45;&gt;Node6</title>
<path fill="none" stroke="midnightblue" d="M1223.78,-146.4C1208.85,-143.78 1193.17,-141.03 1178.79,-138.51"/>
<polygon fill="midnightblue" stroke="midnightblue" points="1223.52,-149.9 1233.97,-148.18 1224.72,-143.01 1223.52,-149.9"/>
</g>
<!-- Node6&#45;&gt;Node2 -->
<g id="edge19" class="edge">
<title>Node6&#45;&gt;Node2</title>
<path fill="none" stroke="midnightblue" d="M1203.04,-118.14C1213.45,-116.73 1223.98,-115.32 1234,-114 1372.06,-95.8 1406.41,-89.5 1545,-76 1601.82,-70.46 1666.13,-65.56 1714.89,-62.12"/>
<polygon fill="midnightblue" stroke="midnightblue" points="1202.56,-114.68 1193.12,-119.49 1203.5,-121.61 1202.56,-114.68"/>
</g>
<!-- Node7 -->
<g id="node7" class="node">
<title>Node7</title>
<g id="a_node7"><a xlink:href="classslljit_1_1_parser.html#acc431005ac3dd38732083d7a1bb0eab2" target="_top" xlink:title=" ">
<polygon fill="none" stroke="black" points="849,-134.5 849,-153.5 1013,-153.5 1013,-134.5 849,-134.5"/>
<text text-anchor="middle" x="931" y="-141.5" font-family="Helvetica,sans-Serif" font-size="10.00">slljit::Parser::ParseExpressionList</text>
</a>
</g>
</g>
<!-- Node6&#45;&gt;Node7 -->
<g id="edge7" class="edge">
<title>Node6&#45;&gt;Node7</title>
<path fill="none" stroke="midnightblue" d="M1038.86,-135.59C1030.29,-136.26 1021.59,-136.95 1013.05,-137.62"/>
<polygon fill="midnightblue" stroke="midnightblue" points="1039.15,-139.07 1048.85,-134.8 1038.6,-132.1 1039.15,-139.07"/>
</g>
<!-- Node8 -->
<g id="node8" class="node">
<title>Node8</title>
<g id="a_node8"><a xlink:href="classslljit_1_1_parser.html#a81023e7a6221eb6b92027bd21433c9dd" target="_top" xlink:title="forexpr ::= &#39;for&#39; identifier &#39;=&#39; expr &#39;,&#39; expr (&#39;,&#39; expr)? &#39;in&#39; expression">
<polygon fill="none" stroke="black" points="679,-178.5 679,-197.5 813,-197.5 813,-178.5 679,-178.5"/>
<text text-anchor="middle" x="746" y="-185.5" font-family="Helvetica,sans-Serif" font-size="10.00">slljit::Parser::ParseForExpr</text>
</a>
</g>
</g>
<!-- Node6&#45;&gt;Node8 -->
<g id="edge18" class="edge">
<title>Node6&#45;&gt;Node8</title>
<path fill="none" stroke="midnightblue" d="M1087.22,-142C1066,-149.3 1038.28,-157.95 1013,-163 945.68,-176.46 867.3,-182.71 813.14,-185.59"/>
<polygon fill="midnightblue" stroke="midnightblue" points="1088.51,-145.26 1096.79,-138.65 1086.19,-138.65 1088.51,-145.26"/>
</g>
<!-- Node9 -->
<g id="node9" class="node">
<title>Node9</title>
<g id="a_node9"><a xlink:href="classslljit_1_1_parser.html#a149f5e88cb03aa08c388e6320c6c1bac" target="_top" xlink:title="ifexpr ::= &#39;if&#39; expression &#39;then&#39; expression &#39;else&#39; expression">
<polygon fill="none" stroke="black" points="683.5,-90.5 683.5,-109.5 808.5,-109.5 808.5,-90.5 683.5,-90.5"/>
<text text-anchor="middle" x="746" y="-97.5" font-family="Helvetica,sans-Serif" font-size="10.00">slljit::Parser::ParseIfExpr</text>
</a>
</g>
</g>
<!-- Node6&#45;&gt;Node9 -->
<g id="edge20" class="edge">
<title>Node6&#45;&gt;Node9</title>
<path fill="none" stroke="midnightblue" d="M1038.69,-122.53C969.03,-117.15 871.48,-109.61 808.76,-104.77"/>
<polygon fill="midnightblue" stroke="midnightblue" points="1038.52,-126.02 1048.76,-123.31 1039.06,-119.05 1038.52,-126.02"/>
</g>
<!-- Node16 -->
<g id="node16" class="node">
<title>Node16</title>
<g id="a_node16"><a xlink:href="classslljit_1_1_parser.html#a6e2e0f6a2cc445f3a956db59c8d2da66" target="_top" xlink:title="parenexpr ::= &#39;(&#39; expression &#39;)&#39;">
<polygon fill="none" stroke="black" points="858,-210.5 858,-229.5 1004,-229.5 1004,-210.5 858,-210.5"/>
<text text-anchor="middle" x="931" y="-217.5" font-family="Helvetica,sans-Serif" font-size="10.00">slljit::Parser::ParseParenExpr</text>
</a>
</g>
</g>
<!-- Node6&#45;&gt;Node16 -->
<g id="edge21" class="edge">
<title>Node6&#45;&gt;Node16</title>
<path fill="none" stroke="midnightblue" d="M1100.94,-144.54C1079.51,-159.41 1045.25,-181.65 1013,-196 1000,-201.78 985.22,-206.63 971.88,-210.42"/>
<polygon fill="midnightblue" stroke="midnightblue" points="1103.14,-147.28 1109.3,-138.66 1099.11,-141.55 1103.14,-147.28"/>
</g>
<!-- Node17 -->
<g id="node17" class="node">
<title>Node17</title>
<g id="a_node17"><a xlink:href="classslljit_1_1_parser.html#a435877d3f2869d140a7cca646546a114" target="_top" xlink:title="varexpr ::= &#39;g_var&#39; identifier (&#39;=&#39; expression)?">
<polygon fill="none" stroke="black" points="863.5,-58.5 863.5,-77.5 998.5,-77.5 998.5,-58.5 863.5,-58.5"/>
<text text-anchor="middle" x="931" y="-65.5" font-family="Helvetica,sans-Serif" font-size="10.00">slljit::Parser::ParseVarExpr</text>
</a>
</g>
</g>
<!-- Node6&#45;&gt;Node17 -->
<g id="edge23" class="edge">
<title>Node6&#45;&gt;Node17</title>
<path fill="none" stroke="midnightblue" d="M1085.57,-116.13C1064.39,-108.85 1037.27,-99.69 1013,-92 997.34,-87.04 979.88,-81.82 965.19,-77.53"/>
<polygon fill="midnightblue" stroke="midnightblue" points="1084.55,-119.48 1095.14,-119.44 1086.83,-112.87 1084.55,-119.48"/>
</g>
<!-- Node7&#45;&gt;Node8 -->
<g id="edge8" class="edge">
<title>Node7&#45;&gt;Node8</title>
<path fill="none" stroke="midnightblue" d="M880.22,-155.97C850.81,-163.04 814.07,-171.87 786.63,-178.47"/>
<polygon fill="midnightblue" stroke="midnightblue" points="881.39,-159.29 890.29,-153.55 879.75,-152.48 881.39,-159.29"/>
</g>
<!-- Node7&#45;&gt;Node9 -->
<g id="edge10" class="edge">
<title>Node7&#45;&gt;Node9</title>
<path fill="none" stroke="midnightblue" d="M880.22,-132.03C850.81,-124.96 814.07,-116.13 786.63,-109.53"/>
<polygon fill="midnightblue" stroke="midnightblue" points="879.75,-135.52 890.29,-134.45 881.39,-128.71 879.75,-135.52"/>
</g>
<!-- Node10 -->
<g id="node10" class="node">
<title>Node10</title>
<g id="a_node10"><a xlink:href="classslljit_1_1_parser.html#aa9a9ce164e114ad7f347f32329f5a5a2" target="_top" xlink:title="definition ::= &#39;def&#39; prototype expression">
<polygon fill="none" stroke="black" points="688,-129 688,-159 804,-159 804,-129 688,-129"/>
<text text-anchor="start" x="696" y="-147" font-family="Helvetica,sans-Serif" font-size="10.00">slljit::Parser::ParseTop</text>
<text text-anchor="middle" x="746" y="-136" font-family="Helvetica,sans-Serif" font-size="10.00">LevelTypedExpression</text>
</a>
</g>
</g>
<!-- Node7&#45;&gt;Node10 -->
<g id="edge12" class="edge">
<title>Node7&#45;&gt;Node10</title>
<path fill="none" stroke="midnightblue" d="M838.63,-144C826.88,-144 815.12,-144 804.14,-144"/>
<polygon fill="midnightblue" stroke="midnightblue" points="838.93,-147.5 848.93,-144 838.93,-140.5 838.93,-147.5"/>
</g>
<!-- Node8&#45;&gt;Node3 -->
<g id="edge9" class="edge">
<title>Node8&#45;&gt;Node3</title>
<path fill="none" stroke="midnightblue" d="M770.16,-202.92C790.17,-214.97 820.31,-231.17 849,-239 966.55,-271.09 1000.65,-258 1122.5,-258 1292,-258 1292,-258 1292,-258 1393.61,-258 1421.04,-236.88 1509,-186 1548.65,-163.07 1586.49,-122.99 1602.71,-104.65"/>
<polygon fill="midnightblue" stroke="midnightblue" points="771.81,-199.82 761.46,-197.55 768.14,-205.78 771.81,-199.82"/>
</g>
<!-- Node9&#45;&gt;Node3 -->
<g id="edge11" class="edge">
<title>Node9&#45;&gt;Node3</title>
<path fill="none" stroke="midnightblue" d="M771.45,-85.27C791.6,-73.75 821.26,-58.21 849,-49 966.2,-10.1 999.01,0 1122.5,0 1292,0 1292,0 1292,0 1410.75,0 1544.41,-61.22 1592.52,-85.37"/>
<polygon fill="midnightblue" stroke="midnightblue" points="769.52,-82.34 762.64,-90.39 773.04,-88.39 769.52,-82.34"/>
</g>
<!-- Node11 -->
<g id="node11" class="node">
<title>Node11</title>
<g id="a_node11"><a xlink:href="classslljit_1_1_parser.html#af0cac4623fc05b8b7ae9884b0aeb3d3f" target="_top" xlink:title=" ">
<polygon fill="none" stroke="black" points="512,-129 512,-159 643,-159 643,-129 512,-129"/>
<text text-anchor="start" x="520" y="-147" font-family="Helvetica,sans-Serif" font-size="10.00">slljit::Parser::HandleTyped</text>
<text text-anchor="middle" x="577.5" y="-136" font-family="Helvetica,sans-Serif" font-size="10.00">Expression</text>
</a>
</g>
</g>
<!-- Node10&#45;&gt;Node11 -->
<g id="edge13" class="edge">
<title>Node10&#45;&gt;Node11</title>
<path fill="none" stroke="midnightblue" d="M677.42,-144C666.07,-144 654.32,-144 643.05,-144"/>
<polygon fill="midnightblue" stroke="midnightblue" points="677.7,-147.5 687.7,-144 677.7,-140.5 677.7,-147.5"/>
</g>
<!-- Node12 -->
<g id="node12" class="node">
<title>Node12</title>
<g id="a_node12"><a xlink:href="classslljit_1_1_parser.html#ae2d3d6534b87da7f237c19129a464bda" target="_top" xlink:title="top ::= definition | external | expression | &#39;;&#39;">
<polygon fill="none" stroke="black" points="360,-134.5 360,-153.5 476,-153.5 476,-134.5 360,-134.5"/>
<text text-anchor="middle" x="418" y="-141.5" font-family="Helvetica,sans-Serif" font-size="10.00">slljit::Parser::MainLoop</text>
</a>
</g>
</g>
<!-- Node11&#45;&gt;Node12 -->
<g id="edge14" class="edge">
<title>Node11&#45;&gt;Node12</title>
<path fill="none" stroke="midnightblue" d="M501.87,-144C493.2,-144 484.47,-144 476.09,-144"/>
<polygon fill="midnightblue" stroke="midnightblue" points="501.98,-147.5 511.98,-144 501.98,-140.5 501.98,-147.5"/>
</g>
<!-- Node13 -->
<g id="node13" class="node">
<title>Node13</title>
<g id="a_node13"><a xlink:href="classslljit_1_1_parser.html#a2429935f3c870648f9f895a7b2361cfb" target="_top" xlink:title=" ">
<polygon fill="none" stroke="black" points="226,-134.5 226,-153.5 324,-153.5 324,-134.5 226,-134.5"/>
<text text-anchor="middle" x="275" y="-141.5" font-family="Helvetica,sans-Serif" font-size="10.00">slljit::Parser::parse</text>
</a>
</g>
</g>
<!-- Node12&#45;&gt;Node13 -->
<g id="edge15" class="edge">
<title>Node12&#45;&gt;Node13</title>
<path fill="none" stroke="midnightblue" d="M349.37,-144C340.9,-144 332.37,-144 324.28,-144"/>
<polygon fill="midnightblue" stroke="midnightblue" points="349.65,-147.5 359.65,-144 349.65,-140.5 349.65,-147.5"/>
</g>
<!-- Node14 -->
<g id="node14" class="node">
<title>Node14</title>
<g id="a_node14"><a xlink:href="classslljit_1_1_program.html#ae4d26526a7dd9c69ebe92fb43736696b" target="_top" xlink:title=" ">
<polygon fill="none" stroke="black" points="74,-134.5 74,-153.5 190,-153.5 190,-134.5 74,-134.5"/>
<text text-anchor="middle" x="132" y="-141.5" font-family="Helvetica,sans-Serif" font-size="10.00">slljit::Program::compile</text>
</a>
</g>
</g>
<!-- Node13&#45;&gt;Node14 -->
<g id="edge16" class="edge">
<title>Node13&#45;&gt;Node14</title>
<path fill="none" stroke="midnightblue" d="M215.72,-144C207.27,-144 198.58,-144 190.16,-144"/>
<polygon fill="midnightblue" stroke="midnightblue" points="215.87,-147.5 225.87,-144 215.87,-140.5 215.87,-147.5"/>
</g>
<!-- Node15 -->
<g id="node15" class="node">
<title>Node15</title>
<g id="a_node15"><a xlink:href="compiler__cli_8cpp.html#a3c04138a5bfe5d72780bb7e82a18e627" target="_top" xlink:title=" ">
<polygon fill="none" stroke="black" points="0,-134.5 0,-153.5 38,-153.5 38,-134.5 0,-134.5"/>
<text text-anchor="middle" x="19" y="-141.5" font-family="Helvetica,sans-Serif" font-size="10.00">main</text>
</a>
</g>
</g>
<!-- Node14&#45;&gt;Node15 -->
<g id="edge17" class="edge">
<title>Node14&#45;&gt;Node15</title>
<path fill="none" stroke="midnightblue" d="M63.62,-144C54.3,-144 45.44,-144 38.18,-144"/>
<polygon fill="midnightblue" stroke="midnightblue" points="63.87,-147.5 73.87,-144 63.87,-140.5 63.87,-147.5"/>
</g>
<!-- Node16&#45;&gt;Node3 -->
<g id="edge22" class="edge">
<title>Node16&#45;&gt;Node3</title>
<path fill="none" stroke="midnightblue" d="M1014.05,-222.39C1098.44,-223.42 1233.38,-221.07 1348,-201 1421.8,-188.07 1440.03,-180.29 1509,-151 1541.17,-137.34 1576.44,-116.57 1595.93,-104.53"/>
<polygon fill="midnightblue" stroke="midnightblue" points="1014.06,-218.89 1004.01,-222.25 1013.96,-225.89 1014.06,-218.89"/>
</g>
<!-- Node17&#45;&gt;Node3 -->
<g id="edge24" class="edge">
<title>Node17&#45;&gt;Node3</title>
<path fill="none" stroke="midnightblue" d="M1008.9,-71.06C1143.3,-76.4 1418.62,-87.35 1544.97,-92.37"/>
<polygon fill="midnightblue" stroke="midnightblue" points="1008.82,-67.55 998.69,-70.65 1008.54,-74.55 1008.82,-67.55"/>
</g>
</g>
</svg>
