<?xml version="1.0" encoding="UTF-8" standalone="no"?>
<!DOCTYPE svg PUBLIC "-//W3C//DTD SVG 1.1//EN"
 "http://www.w3.org/Graphics/SVG/1.1/DTD/svg11.dtd">
<!-- Generated by graphviz version 3.0.0 (20220226.1711)
 -->
<!-- Title: slljit::Parser::ParseUnary Pages: 1 -->
<svg width="1447pt" height="263pt"
 viewBox="0.00 0.00 1447.00 263.33" xmlns="http://www.w3.org/2000/svg" xmlns:xlink="http://www.w3.org/1999/xlink">
<g id="graph0" class="graph" transform="scale(1 1) rotate(0) translate(4 259.33)">
<title>slljit::Parser::ParseUnary</title>
<!-- Node1 -->
<g id="node1" class="node">
<title>Node1</title>
<g id="a_node1"><a xlink:title=" ">
<polygon fill="#bfbfbf" stroke="black" points="1314,-65.83 1314,-84.83 1439,-84.83 1439,-65.83 1314,-65.83"/>
<text text-anchor="middle" x="1376.5" y="-72.83" font-family="Helvetica,sans-Serif" font-size="10.00">slljit::Parser::ParseUnary</text>
</a>
</g>
</g>
<!-- Node1&#45;&gt;Node1 -->
<g id="edge24" class="edge">
<title>Node1&#45;&gt;Node1</title>
<path fill="none" stroke="midnightblue" d="M1405.25,-93.99C1404.04,-99.27 1394.46,-103.33 1376.5,-103.33 1349.13,-103.33 1341.22,-93.9 1352.76,-85.09"/>
<polygon fill="midnightblue" stroke="midnightblue" points="1408.19,-92.09 1400.24,-85.09 1402.09,-95.52 1408.19,-92.09"/>
</g>
<!-- Node2 -->
<g id="node2" class="node">
<title>Node2</title>
<g id="a_node2"><a xlink:href="classslljit_1_1_parser.html#ae387c9672ec50720d8cb969558aedbe9" target="_top" xlink:title=" ">
<polygon fill="none" stroke="black" points="1164,-104.33 1164,-134.33 1278,-134.33 1278,-104.33 1164,-104.33"/>
<text text-anchor="start" x="1172" y="-122.33" font-family="Helvetica,sans-Serif" font-size="10.00">slljit::Parser::ParseBin</text>
<text text-anchor="middle" x="1221" y="-111.33" font-family="Helvetica,sans-Serif" font-size="10.00">OpRHS</text>
</a>
</g>
</g>
<!-- Node1&#45;&gt;Node2 -->
<g id="edge1" class="edge">
<title>Node1&#45;&gt;Node2</title>
<path fill="none" stroke="midnightblue" d="M1332.55,-87.65C1314.56,-92.8 1293.47,-98.85 1274.56,-104.27"/>
<polygon fill="midnightblue" stroke="midnightblue" points="1333.54,-91 1342.19,-84.88 1331.62,-84.27 1333.54,-91"/>
</g>
<!-- Node3 -->
<g id="node3" class="node">
<title>Node3</title>
<g id="a_node3"><a xlink:href="classslljit_1_1_parser.html#a79461bf414d03dcabb49d3bbd6f89607" target="_top" xlink:title=" ">
<polygon fill="none" stroke="black" points="979,-109.83 979,-128.83 1128,-128.83 1128,-109.83 979,-109.83"/>
<text text-anchor="middle" x="1053.5" y="-116.83" font-family="Helvetica,sans-Serif" font-size="10.00">slljit::Parser::ParseExpression</text>
</a>
</g>
</g>
<!-- Node1&#45;&gt;Node3 -->
<g id="edge23" class="edge">
<title>Node1&#45;&gt;Node3</title>
<path fill="none" stroke="midnightblue" d="M1303.53,-79.96C1262.49,-83.14 1210.19,-88.12 1164,-95.33 1140.06,-99.08 1113.51,-104.85 1092.55,-109.8"/>
<polygon fill="midnightblue" stroke="midnightblue" points="1304,-83.43 1313.71,-79.19 1303.47,-76.45 1304,-83.43"/>
</g>
<!-- Node2&#45;&gt;Node2 -->
<g id="edge2" class="edge">
<title>Node2&#45;&gt;Node2</title>
<path fill="none" stroke="midnightblue" d="M1248.36,-144.79C1244.97,-149.51 1235.85,-152.83 1221,-152.83 1196.64,-152.83 1187.69,-143.89 1194.16,-134.49"/>
<polygon fill="midnightblue" stroke="midnightblue" points="1251.84,-144.3 1247.84,-134.49 1244.85,-144.66 1251.84,-144.3"/>
</g>
<!-- Node2&#45;&gt;Node3 -->
<g id="edge3" class="edge">
<title>Node2&#45;&gt;Node3</title>
<path fill="none" stroke="midnightblue" d="M1153.8,-119.33C1145.34,-119.33 1136.64,-119.33 1128.08,-119.33"/>
<polygon fill="midnightblue" stroke="midnightblue" points="1153.97,-122.83 1163.97,-119.33 1153.97,-115.83 1153.97,-122.83"/>
</g>
<!-- Node4 -->
<g id="node4" class="node">
<title>Node4</title>
<g id="a_node4"><a xlink:href="classslljit_1_1_parser.html#acc431005ac3dd38732083d7a1bb0eab2" target="_top" xlink:title=" ">
<polygon fill="none" stroke="black" points="779,-188.83 779,-207.83 943,-207.83 943,-188.83 779,-188.83"/>
<text text-anchor="middle" x="861" y="-195.83" font-family="Helvetica,sans-Serif" font-size="10.00">slljit::Parser::ParseExpressionList</text>
</a>
</g>
</g>
<!-- Node3&#45;&gt;Node4 -->
<g id="edge4" class="edge">
<title>Node3&#45;&gt;Node4</title>
<path fill="none" stroke="midnightblue" d="M1025.17,-133.46C1003.26,-144.49 971.57,-159.84 943,-171.33 926.91,-177.81 908.61,-184 893.48,-188.82"/>
<polygon fill="midnightblue" stroke="midnightblue" points="1026.87,-136.51 1034.21,-128.87 1023.7,-130.27 1026.87,-136.51"/>
</g>
<!-- Node5 -->
<g id="node5" class="node">
<title>Node5</title>
<g id="a_node5"><a xlink:href="classslljit_1_1_parser.html#a81023e7a6221eb6b92027bd21433c9dd" target="_top" xlink:title="forexpr ::= &#39;for&#39; identifier &#39;=&#39; expr &#39;,&#39; expr (&#39;,&#39; expr)? &#39;in&#39; expression">
<polygon fill="none" stroke="black" points="608.5,-235.83 608.5,-254.83 742.5,-254.83 742.5,-235.83 608.5,-235.83"/>
<text text-anchor="middle" x="675.5" y="-242.83" font-family="Helvetica,sans-Serif" font-size="10.00">slljit::Parser::ParseForExpr</text>
</a>
</g>
</g>
<!-- Node3&#45;&gt;Node5 -->
<g id="edge15" class="edge">
<title>Node3&#45;&gt;Node5</title>
<path fill="none" stroke="midnightblue" d="M1038.99,-136.9C1020.23,-159.83 983.95,-199.18 943,-217.33 879.1,-245.67 798.41,-250.39 742.64,-249.45"/>
<polygon fill="midnightblue" stroke="midnightblue" points="1041.8,-138.99 1045.3,-128.99 1036.32,-134.63 1041.8,-138.99"/>
</g>
<!-- Node7 -->
<g id="node7" class="node">
<title>Node7</title>
<g id="a_node7"><a xlink:href="classslljit_1_1_parser.html#a149f5e88cb03aa08c388e6320c6c1bac" target="_top" xlink:title="ifexpr ::= &#39;if&#39; expression &#39;then&#39; expression &#39;else&#39; expression">
<polygon fill="none" stroke="black" points="613,-147.83 613,-166.83 738,-166.83 738,-147.83 613,-147.83"/>
<text text-anchor="middle" x="675.5" y="-154.83" font-family="Helvetica,sans-Serif" font-size="10.00">slljit::Parser::ParseIfExpr</text>
</a>
</g>
</g>
<!-- Node3&#45;&gt;Node7 -->
<g id="edge18" class="edge">
<title>Node3&#45;&gt;Node7</title>
<path fill="none" stroke="midnightblue" d="M993.87,-130.63C977.46,-133.48 959.57,-136.31 943,-138.33 873.01,-146.88 792.19,-151.98 738.06,-154.71"/>
<polygon fill="midnightblue" stroke="midnightblue" points="994.64,-134.05 1003.87,-128.85 993.41,-127.15 994.64,-134.05"/>
</g>
<!-- Node13 -->
<g id="node13" class="node">
<title>Node13</title>
<g id="a_node13"><a xlink:href="classslljit_1_1_parser.html#a25cfefcbeea85744e23370d3a6f8ad5b" target="_top" xlink:title=" ">
<polygon fill="none" stroke="black" points="783,-109.83 783,-128.83 939,-128.83 939,-109.83 783,-109.83"/>
<text text-anchor="middle" x="861" y="-116.83" font-family="Helvetica,sans-Serif" font-size="10.00">slljit::Parser::ParseIdentifierExpr</text>
</a>
</g>
</g>
<!-- Node3&#45;&gt;Node13 -->
<g id="edge16" class="edge">
<title>Node3&#45;&gt;Node13</title>
<path fill="none" stroke="midnightblue" d="M968.71,-119.33C958.91,-119.33 948.95,-119.33 939.24,-119.33"/>
<polygon fill="midnightblue" stroke="midnightblue" points="968.85,-122.83 978.85,-119.33 968.85,-115.83 968.85,-122.83"/>
</g>
<!-- Node14 -->
<g id="node14" class="node">
<title>Node14</title>
<g id="a_node14"><a xlink:href="classslljit_1_1_parser.html#a6e2e0f6a2cc445f3a956db59c8d2da66" target="_top" xlink:title="parenexpr ::= &#39;(&#39; expression &#39;)&#39;">
<polygon fill="none" stroke="black" points="788,-71.83 788,-90.83 934,-90.83 934,-71.83 788,-71.83"/>
<text text-anchor="middle" x="861" y="-78.83" font-family="Helvetica,sans-Serif" font-size="10.00">slljit::Parser::ParseParenExpr</text>
</a>
</g>
</g>
<!-- Node3&#45;&gt;Node14 -->
<g id="edge19" class="edge">
<title>Node3&#45;&gt;Node14</title>
<path fill="none" stroke="midnightblue" d="M994.3,-107.72C967.21,-102.32 935.37,-95.97 909.73,-90.85"/>
<polygon fill="midnightblue" stroke="midnightblue" points="993.94,-111.22 1004.43,-109.75 995.31,-104.36 993.94,-111.22"/>
</g>
<!-- Node15 -->
<g id="node15" class="node">
<title>Node15</title>
<g id="a_node15"><a xlink:href="classslljit_1_1_parser.html#a435877d3f2869d140a7cca646546a114" target="_top" xlink:title="varexpr ::= &#39;g_var&#39; identifier (&#39;=&#39; expression)?">
<polygon fill="none" stroke="black" points="608,-33.83 608,-52.83 743,-52.83 743,-33.83 608,-33.83"/>
<text text-anchor="middle" x="675.5" y="-40.83" font-family="Helvetica,sans-Serif" font-size="10.00">slljit::Parser::ParseVarExpr</text>
</a>
</g>
</g>
<!-- Node3&#45;&gt;Node15 -->
<g id="edge21" class="edge">
<title>Node3&#45;&gt;Node15</title>
<path fill="none" stroke="midnightblue" d="M1030.13,-104.18C1008.76,-90.59 975.16,-71.43 943,-62.33 876.83,-43.62 797.92,-40.21 743.23,-40.65"/>
<polygon fill="midnightblue" stroke="midnightblue" points="1028.47,-107.28 1038.76,-109.8 1032.29,-101.41 1028.47,-107.28"/>
</g>
<!-- Node4&#45;&gt;Node5 -->
<g id="edge5" class="edge">
<title>Node4&#45;&gt;Node5</title>
<path fill="none" stroke="midnightblue" d="M812.8,-210.42C782.05,-218.3 742.47,-228.44 713.89,-235.76"/>
<polygon fill="midnightblue" stroke="midnightblue" points="814.05,-213.72 822.87,-207.85 812.31,-206.94 814.05,-213.72"/>
</g>
<!-- Node4&#45;&gt;Node7 -->
<g id="edge8" class="edge">
<title>Node4&#45;&gt;Node7</title>
<path fill="none" stroke="midnightblue" d="M807.43,-186.59C779.44,-180.34 745.47,-172.74 719.15,-166.86"/>
<polygon fill="midnightblue" stroke="midnightblue" points="806.92,-190.06 817.44,-188.83 808.44,-183.23 806.92,-190.06"/>
</g>
<!-- Node8 -->
<g id="node8" class="node">
<title>Node8</title>
<g id="a_node8"><a xlink:href="classslljit_1_1_parser.html#aa9a9ce164e114ad7f347f32329f5a5a2" target="_top" xlink:title="definition ::= &#39;def&#39; prototype expression">
<polygon fill="none" stroke="black" points="617.5,-186.33 617.5,-216.33 733.5,-216.33 733.5,-186.33 617.5,-186.33"/>
<text text-anchor="start" x="625.5" y="-204.33" font-family="Helvetica,sans-Serif" font-size="10.00">slljit::Parser::ParseTop</text>
<text text-anchor="middle" x="675.5" y="-193.33" font-family="Helvetica,sans-Serif" font-size="10.00">LevelTypedExpression</text>
</a>
</g>
</g>
<!-- Node4&#45;&gt;Node8 -->
<g id="edge10" class="edge">
<title>Node4&#45;&gt;Node8</title>
<path fill="none" stroke="midnightblue" d="M768.92,-199.82C756.92,-200.02 744.91,-200.22 733.7,-200.4"/>
<polygon fill="midnightblue" stroke="midnightblue" points="769.04,-203.32 778.98,-199.66 768.92,-196.32 769.04,-203.32"/>
</g>
<!-- Node6 -->
<g id="node6" class="node">
<title>Node6</title>
<g id="a_node6"><a xlink:href="classslljit_1_1_parser.html#a45cb3e4f600e8e2c253490e7d878e8cd" target="_top" xlink:title=" ">
<polygon fill="none" stroke="black" points="438,-90.83 438,-109.83 572,-109.83 572,-90.83 438,-90.83"/>
<text text-anchor="middle" x="505" y="-97.83" font-family="Helvetica,sans-Serif" font-size="10.00">slljit::Parser::ParsePrimary</text>
</a>
</g>
</g>
<!-- Node5&#45;&gt;Node6 -->
<g id="edge6" class="edge">
<title>Node5&#45;&gt;Node6</title>
<path fill="none" stroke="midnightblue" d="M617.24,-231.77C614.01,-230.15 610.9,-228.35 608,-226.33 585.82,-210.9 588.81,-198.5 572,-177.33 552.29,-152.52 527.67,-124.53 514.79,-110.1"/>
<polygon fill="midnightblue" stroke="midnightblue" points="616.04,-235.06 626.61,-235.83 618.82,-228.64 616.04,-235.06"/>
</g>
<!-- Node6&#45;&gt;Node1 -->
<g id="edge7" class="edge">
<title>Node6&#45;&gt;Node1</title>
<path fill="none" stroke="midnightblue" d="M522.14,-83.6C540.87,-65.4 573.61,-37.19 608,-24.33 713.2,15 747.68,-5.33 860,-5.33 1054.5,-5.33 1054.5,-5.33 1054.5,-5.33 1166.58,-5.33 1295.73,-46.58 1349.7,-65.75"/>
<polygon fill="midnightblue" stroke="midnightblue" points="519.62,-81.18 515.01,-90.71 524.56,-86.13 519.62,-81.18"/>
</g>
<!-- Node7&#45;&gt;Node6 -->
<g id="edge9" class="edge">
<title>Node7&#45;&gt;Node6</title>
<path fill="none" stroke="midnightblue" d="M636.69,-144.54C605.65,-134.04 562.39,-119.41 534.3,-109.91"/>
<polygon fill="midnightblue" stroke="midnightblue" points="635.7,-147.9 646.3,-147.79 637.95,-141.27 635.7,-147.9"/>
</g>
<!-- Node9 -->
<g id="node9" class="node">
<title>Node9</title>
<g id="a_node9"><a xlink:href="classslljit_1_1_parser.html#af0cac4623fc05b8b7ae9884b0aeb3d3f" target="_top" xlink:title=" ">
<polygon fill="none" stroke="black" points="439.5,-186.33 439.5,-216.33 570.5,-216.33 570.5,-186.33 439.5,-186.33"/>
<text text-anchor="start" x="447.5" y="-204.33" font-family="Helvetica,sans-Serif" font-size="10.00">slljit::Parser::HandleTyped</text>
<text text-anchor="middle" x="505" y="-193.33" font-family="Helvetica,sans-Serif" font-size="10.00">Expression</text>
</a>
</g>
</g>
<!-- Node8&#45;&gt;Node9 -->
<g id="edge11" class="edge">
<title>Node8&#45;&gt;Node9</title>
<path fill="none" stroke="midnightblue" d="M607.39,-201.33C595.24,-201.33 582.6,-201.33 570.53,-201.33"/>
<polygon fill="midnightblue" stroke="midnightblue" points="607.45,-204.83 617.45,-201.33 607.45,-197.83 607.45,-204.83"/>
</g>
<!-- Node10 -->
<g id="node10" class="node">
<title>Node10</title>
<g id="a_node10"><a xlink:href="classslljit_1_1_parser.html#ae2d3d6534b87da7f237c19129a464bda" target="_top" xlink:title="top ::= definition | external | expression | &#39;;&#39;">
<polygon fill="none" stroke="black" points="286,-191.83 286,-210.83 402,-210.83 402,-191.83 286,-191.83"/>
<text text-anchor="middle" x="344" y="-198.83" font-family="Helvetica,sans-Serif" font-size="10.00">slljit::Parser::MainLoop</text>
</a>
</g>
</g>
<!-- Node9&#45;&gt;Node10 -->
<g id="edge12" class="edge">
<title>Node9&#45;&gt;Node10</title>
<path fill="none" stroke="midnightblue" d="M429.16,-201.33C420.1,-201.33 410.96,-201.33 402.21,-201.33"/>
<polygon fill="midnightblue" stroke="midnightblue" points="429.33,-204.83 439.33,-201.33 429.33,-197.83 429.33,-204.83"/>
</g>
<!-- Node11 -->
<g id="node11" class="node">
<title>Node11</title>
<g id="a_node11"><a xlink:href="classslljit_1_1_parser.html#a2429935f3c870648f9f895a7b2361cfb" target="_top" xlink:title=" ">
<polygon fill="none" stroke="black" points="152,-191.83 152,-210.83 250,-210.83 250,-191.83 152,-191.83"/>
<text text-anchor="middle" x="201" y="-198.83" font-family="Helvetica,sans-Serif" font-size="10.00">slljit::Parser::parse</text>
</a>
</g>
</g>
<!-- Node10&#45;&gt;Node11 -->
<g id="edge13" class="edge">
<title>Node10&#45;&gt;Node11</title>
<path fill="none" stroke="midnightblue" d="M275.37,-201.33C266.9,-201.33 258.37,-201.33 250.28,-201.33"/>
<polygon fill="midnightblue" stroke="midnightblue" points="275.65,-204.83 285.65,-201.33 275.65,-197.83 275.65,-204.83"/>
</g>
<!-- Node12 -->
<g id="node12" class="node">
<title>Node12</title>
<g id="a_node12"><a xlink:href="classslljit_1_1_program.html#ae4d26526a7dd9c69ebe92fb43736696b" target="_top" xlink:title=" ">
<polygon fill="none" stroke="black" points="0,-191.83 0,-210.83 116,-210.83 116,-191.83 0,-191.83"/>
<text text-anchor="middle" x="58" y="-198.83" font-family="Helvetica,sans-Serif" font-size="10.00">slljit::Program::compile</text>
</a>
</g>
</g>
<!-- Node11&#45;&gt;Node12 -->
<g id="edge14" class="edge">
<title>Node11&#45;&gt;Node12</title>
<path fill="none" stroke="midnightblue" d="M141.72,-201.33C133.27,-201.33 124.58,-201.33 116.16,-201.33"/>
<polygon fill="midnightblue" stroke="midnightblue" points="141.87,-204.83 151.87,-201.33 141.87,-197.83 141.87,-204.83"/>
</g>
<!-- Node13&#45;&gt;Node6 -->
<g id="edge17" class="edge">
<title>Node13&#45;&gt;Node6</title>
<path fill="none" stroke="midnightblue" d="M772.59,-114.64C710.59,-111.32 628.67,-106.92 572.08,-103.88"/>
<polygon fill="midnightblue" stroke="midnightblue" points="772.58,-118.15 782.75,-115.19 772.95,-111.16 772.58,-118.15"/>
</g>
<!-- Node14&#45;&gt;Node6 -->
<g id="edge20" class="edge">
<title>Node14&#45;&gt;Node6</title>
<path fill="none" stroke="midnightblue" d="M777.72,-85.75C715.24,-89.1 630.44,-93.66 572.28,-96.78"/>
<polygon fill="midnightblue" stroke="midnightblue" points="778.14,-89.23 787.94,-85.2 777.76,-82.24 778.14,-89.23"/>
</g>
<!-- Node15&#45;&gt;Node6 -->
<g id="edge22" class="edge">
<title>Node15&#45;&gt;Node6</title>
<path fill="none" stroke="midnightblue" d="M636.69,-56.13C605.65,-66.62 562.39,-81.26 534.3,-90.76"/>
<polygon fill="midnightblue" stroke="midnightblue" points="637.95,-59.39 646.3,-52.87 635.7,-52.76 637.95,-59.39"/>
</g>
</g>
</svg>
