<?xml version="1.0" encoding="UTF-8" standalone="no"?>
<!DOCTYPE svg PUBLIC "-//W3C//DTD SVG 1.1//EN"
 "http://www.w3.org/Graphics/SVG/1.1/DTD/svg11.dtd">
<!-- Generated by graphviz version 3.0.0 (20220226.1711)
 -->
<!-- Title: slljit::Parser::ParseVarExpr Pages: 1 -->
<svg width="1690pt" height="907pt"
 viewBox="0.00 0.00 1690.00 907.00" xmlns="http://www.w3.org/2000/svg" xmlns:xlink="http://www.w3.org/1999/xlink">
<g id="graph0" class="graph" transform="scale(1 1) rotate(0) translate(4 903)">
<title>slljit::Parser::ParseVarExpr</title>
<!-- Node1 -->
<g id="node1" class="node">
<title>Node1</title>
<g id="a_node1"><a xlink:title="varexpr ::= &#39;g_var&#39; identifier (&#39;=&#39; expression)?">
<polygon fill="#bfbfbf" stroke="black" points="0,-415 0,-434 135,-434 135,-415 0,-415"/>
<text text-anchor="middle" x="67.5" y="-422" font-family="Helvetica,sans-Serif" font-size="10.00">slljit::Parser::ParseVarExpr</text>
</a>
</g>
</g>
<!-- Node2 -->
<g id="node2" class="node">
<title>Node2</title>
<g id="a_node2"><a xlink:href="classslljit_1_1_tokenizer.html#a6270acd003b9e0a1323c1fdd54cd2fe2" target="_top" xlink:title=" ">
<polygon fill="none" stroke="black" points="1100,-780.5 1100,-810.5 1188,-810.5 1188,-780.5 1100,-780.5"/>
<text text-anchor="start" x="1108" y="-798.5" font-family="Helvetica,sans-Serif" font-size="10.00">slljit::Tokenizer::</text>
<text text-anchor="middle" x="1144" y="-787.5" font-family="Helvetica,sans-Serif" font-size="10.00">get_identifier</text>
</a>
</g>
</g>
<!-- Node1&#45;&gt;Node2 -->
<g id="edge1" class="edge">
<title>Node1&#45;&gt;Node2</title>
<path fill="none" stroke="midnightblue" d="M72.75,-434.14C97.1,-487.71 224.41,-746.5 412,-746.5 412,-746.5 412,-746.5 768,-746.5 883.46,-746.5 1017.24,-769.62 1089.7,-784.1"/>
<polygon fill="midnightblue" stroke="midnightblue" points="1089.44,-787.62 1099.93,-786.17 1090.82,-780.76 1089.44,-787.62"/>
</g>
<!-- Node3 -->
<g id="node3" class="node">
<title>Node3</title>
<g id="a_node3"><a xlink:href="classslljit_1_1_tokenizer.html#a0baa2e9dbe626f0475ee4206f16bbb4e" target="_top" xlink:title=" ">
<polygon fill="none" stroke="black" points="1277,-561.5 1277,-591.5 1381,-591.5 1381,-561.5 1277,-561.5"/>
<text text-anchor="start" x="1285" y="-579.5" font-family="Helvetica,sans-Serif" font-size="10.00">slljit::Tokenizer::</text>
<text text-anchor="middle" x="1329" y="-568.5" font-family="Helvetica,sans-Serif" font-size="10.00">get_source_location</text>
</a>
</g>
</g>
<!-- Node1&#45;&gt;Node3 -->
<g id="edge2" class="edge">
<title>Node1&#45;&gt;Node3</title>
<path fill="none" stroke="midnightblue" d="M70.26,-434.36C77.17,-470.64 105.32,-598.85 171,-679.5 252.19,-779.19 283.43,-839.5 412,-839.5 412,-839.5 412,-839.5 949,-839.5 1010.72,-839.5 1175.87,-855.5 1226,-819.5 1298.71,-767.29 1319.86,-652.96 1325.79,-601.95"/>
<polygon fill="midnightblue" stroke="midnightblue" points="1329.29,-602.1 1326.86,-591.79 1322.33,-601.37 1329.29,-602.1"/>
</g>
<!-- Node4 -->
<g id="node4" class="node">
<title>Node4</title>
<g id="a_node4"><a xlink:href="classslljit_1_1_tokenizer.html#a9dcee05dc292fa291e6b9644d12c1907" target="_top" xlink:title=" ">
<polygon fill="none" stroke="black" points="198,-0.5 198,-30.5 293,-30.5 293,-0.5 198,-0.5"/>
<text text-anchor="start" x="206" y="-18.5" font-family="Helvetica,sans-Serif" font-size="10.00">slljit::Tokenizer::</text>
<text text-anchor="middle" x="245.5" y="-7.5" font-family="Helvetica,sans-Serif" font-size="10.00">get_type_identifier</text>
</a>
</g>
</g>
<!-- Node1&#45;&gt;Node4 -->
<g id="edge3" class="edge">
<title>Node1&#45;&gt;Node4</title>
<path fill="none" stroke="midnightblue" d="M68.19,-414.86C67.21,-367.93 69,-160.94 171,-45.5 175.89,-39.96 181.96,-35.43 188.5,-31.72"/>
<polygon fill="midnightblue" stroke="midnightblue" points="190.25,-34.76 197.64,-27.16 187.13,-28.49 190.25,-34.76"/>
</g>
<!-- Node5 -->
<g id="node5" class="node">
<title>Node5</title>
<g id="a_node5"><a xlink:href="classslljit_1_1_parser.html#a9fcfefd86a6000dcb40fa737361ea55b" target="_top" xlink:title="GetTokPrecedence &#45; Get the precedence of the pending binary operator token.">
<polygon fill="none" stroke="black" points="1262,-199 1262,-218 1396,-218 1396,-199 1262,-199"/>
<text text-anchor="middle" x="1329" y="-206" font-family="Helvetica,sans-Serif" font-size="10.00">slljit::Parser::getNextToken</text>
</a>
</g>
</g>
<!-- Node1&#45;&gt;Node5 -->
<g id="edge4" class="edge">
<title>Node1&#45;&gt;Node5</title>
<path fill="none" stroke="midnightblue" d="M71.94,-414.74C93.05,-356.69 210.99,-59.5 412,-59.5 412,-59.5 412,-59.5 949,-59.5 1073.95,-59.5 1114.95,-50.24 1226,-107.5 1264.72,-127.46 1298.12,-167.25 1315.41,-190.49"/>
<polygon fill="midnightblue" stroke="midnightblue" points="1312.72,-192.73 1321.42,-198.78 1318.38,-188.63 1312.72,-192.73"/>
</g>
<!-- Node13 -->
<g id="node13" class="node">
<title>Node13</title>
<g id="a_node13"><a xlink:href="classslljit_1_1_parser.html#a79461bf414d03dcabb49d3bbd6f89607" target="_top" xlink:title=" ">
<polygon fill="none" stroke="black" points="171,-358 171,-377 320,-377 320,-358 171,-358"/>
<text text-anchor="middle" x="245.5" y="-365" font-family="Helvetica,sans-Serif" font-size="10.00">slljit::Parser::ParseExpression</text>
</a>
</g>
</g>
<!-- Node1&#45;&gt;Node13 -->
<g id="edge13" class="edge">
<title>Node1&#45;&gt;Node13</title>
<path fill="none" stroke="midnightblue" d="M97.96,-414.96C127.4,-405.42 172.85,-390.71 205.32,-380.19"/>
<polygon fill="midnightblue" stroke="midnightblue" points="206.51,-383.48 214.95,-377.07 204.35,-376.82 206.51,-383.48"/>
</g>
<!-- Node29 -->
<g id="node29" class="node">
<title>Node29</title>
<g id="a_node29"><a xlink:href="classslljit_1_1_parser.html#acad3f159608acb847e0f693fc07fdd28" target="_top" xlink:title=" ">
<polygon fill="none" stroke="black" points="365.5,-868.5 365.5,-898.5 460.5,-898.5 460.5,-868.5 365.5,-868.5"/>
<text text-anchor="start" x="373.5" y="-886.5" font-family="Helvetica,sans-Serif" font-size="10.00">slljit::Parser::push</text>
<text text-anchor="middle" x="413" y="-875.5" font-family="Helvetica,sans-Serif" font-size="10.00">_var_into_scope</text>
</a>
</g>
</g>
<!-- Node1&#45;&gt;Node29 -->
<g id="edge58" class="edge">
<title>Node1&#45;&gt;Node29</title>
<path fill="none" stroke="midnightblue" d="M69.36,-434.29C74.67,-492.68 105.1,-794.52 171,-853.5 220.73,-898.01 301.11,-898.95 355.22,-893.18"/>
<polygon fill="midnightblue" stroke="midnightblue" points="355.81,-896.63 365.34,-891.99 355,-889.68 355.81,-896.63"/>
</g>
<!-- Node6 -->
<g id="node6" class="node">
<title>Node6</title>
<g id="a_node6"><a xlink:href="classslljit_1_1_tokenizer.html#a4f0b343321f5e4561a80e47a5cec05d2" target="_top" xlink:title=" ">
<polygon fill="none" stroke="black" points="1432,-193.5 1432,-223.5 1520,-223.5 1520,-193.5 1432,-193.5"/>
<text text-anchor="start" x="1440" y="-211.5" font-family="Helvetica,sans-Serif" font-size="10.00">slljit::Tokenizer::</text>
<text text-anchor="middle" x="1476" y="-200.5" font-family="Helvetica,sans-Serif" font-size="10.00">gettok</text>
</a>
</g>
</g>
<!-- Node5&#45;&gt;Node6 -->
<g id="edge5" class="edge">
<title>Node5&#45;&gt;Node6</title>
<path fill="none" stroke="midnightblue" d="M1396.14,-208.5C1404.64,-208.5 1413.27,-208.5 1421.54,-208.5"/>
<polygon fill="midnightblue" stroke="midnightblue" points="1421.79,-212 1431.79,-208.5 1421.79,-205 1421.79,-212"/>
</g>
<!-- Node6&#45;&gt;Node6 -->
<g id="edge7" class="edge">
<title>Node6&#45;&gt;Node6</title>
<path fill="none" stroke="midnightblue" d="M1451.25,-223.66C1445.29,-233.06 1453.54,-242 1476,-242 1489.69,-242 1498.1,-238.68 1501.23,-233.96"/>
<polygon fill="midnightblue" stroke="midnightblue" points="1504.71,-233.48 1500.75,-223.66 1497.72,-233.81 1504.71,-233.48"/>
</g>
<!-- Node7 -->
<g id="node7" class="node">
<title>Node7</title>
<g id="a_node7"><a xlink:href="classslljit_1_1_tokenizer.html#aebe79ebb0da26fa5e89963683d474402" target="_top" xlink:title=" ">
<polygon fill="none" stroke="black" points="1575,-316.5 1575,-346.5 1663,-346.5 1663,-316.5 1575,-316.5"/>
<text text-anchor="start" x="1583" y="-334.5" font-family="Helvetica,sans-Serif" font-size="10.00">slljit::Tokenizer::</text>
<text text-anchor="middle" x="1619" y="-323.5" font-family="Helvetica,sans-Serif" font-size="10.00">_getchar</text>
</a>
</g>
</g>
<!-- Node6&#45;&gt;Node7 -->
<g id="edge6" class="edge">
<title>Node6&#45;&gt;Node7</title>
<path fill="none" stroke="midnightblue" d="M1485.83,-223.8C1498.76,-245.01 1524.75,-283.34 1556,-306.5 1559.02,-308.74 1562.27,-310.81 1565.64,-312.73"/>
<polygon fill="midnightblue" stroke="midnightblue" points="1564.29,-315.96 1574.78,-317.42 1567.49,-309.74 1564.29,-315.96"/>
</g>
<!-- Node8 -->
<g id="node8" class="node">
<title>Node8</title>
<g id="a_node8"><a xlink:href="classslljit_1_1_tokenizer.html#ac5b5748065cb054e0f34d995d1f3edce" target="_top" xlink:title=" ">
<polygon fill="none" stroke="black" points="1575,-267.5 1575,-297.5 1663,-297.5 1663,-267.5 1575,-267.5"/>
<text text-anchor="start" x="1583" y="-285.5" font-family="Helvetica,sans-Serif" font-size="10.00">slljit::Tokenizer::</text>
<text text-anchor="middle" x="1619" y="-274.5" font-family="Helvetica,sans-Serif" font-size="10.00">is_id_char</text>
</a>
</g>
</g>
<!-- Node6&#45;&gt;Node8 -->
<g id="edge8" class="edge">
<title>Node6&#45;&gt;Node8</title>
<path fill="none" stroke="midnightblue" d="M1499.22,-223.72C1514.73,-233.98 1536.14,-247.43 1556,-257.5 1560.01,-259.53 1564.23,-261.52 1568.49,-263.44"/>
<polygon fill="midnightblue" stroke="midnightblue" points="1567.29,-266.73 1577.86,-267.49 1570.07,-260.31 1567.29,-266.73"/>
</g>
<!-- Node9 -->
<g id="node9" class="node">
<title>Node9</title>
<g id="a_node9"><a xlink:href="classslljit_1_1_tokenizer.html#afddb21e93063a4c2338c2d42e23d18d2" target="_top" xlink:title=" ">
<polygon fill="none" stroke="black" points="1575,-218.5 1575,-248.5 1663,-248.5 1663,-218.5 1575,-218.5"/>
<text text-anchor="start" x="1583" y="-236.5" font-family="Helvetica,sans-Serif" font-size="10.00">slljit::Tokenizer::</text>
<text text-anchor="middle" x="1619" y="-225.5" font-family="Helvetica,sans-Serif" font-size="10.00">is_id_start_char</text>
</a>
</g>
</g>
<!-- Node6&#45;&gt;Node9 -->
<g id="edge9" class="edge">
<title>Node6&#45;&gt;Node9</title>
<path fill="none" stroke="midnightblue" d="M1520.07,-216.14C1534.15,-218.63 1549.96,-221.44 1564.71,-224.05"/>
<polygon fill="midnightblue" stroke="midnightblue" points="1564.25,-227.52 1574.71,-225.82 1565.47,-220.63 1564.25,-227.52"/>
</g>
<!-- Node10 -->
<g id="node10" class="node">
<title>Node10</title>
<g id="a_node10"><a xlink:href="classslljit_1_1_tokenizer.html#ada986d1651ab242c370288c198cd726d" target="_top" xlink:title=" ">
<polygon fill="none" stroke="black" points="1556,-169.5 1556,-199.5 1682,-199.5 1682,-169.5 1556,-169.5"/>
<text text-anchor="start" x="1564" y="-187.5" font-family="Helvetica,sans-Serif" font-size="10.00">slljit::Tokenizer::</text>
<text text-anchor="middle" x="1619" y="-176.5" font-family="Helvetica,sans-Serif" font-size="10.00">is_reserved_command_id</text>
</a>
</g>
</g>
<!-- Node6&#45;&gt;Node10 -->
<g id="edge10" class="edge">
<title>Node6&#45;&gt;Node10</title>
<path fill="none" stroke="midnightblue" d="M1520.07,-201.17C1528.31,-199.77 1537.14,-198.26 1546,-196.76"/>
<polygon fill="midnightblue" stroke="midnightblue" points="1546.72,-200.18 1555.99,-195.06 1545.54,-193.28 1546.72,-200.18"/>
</g>
<!-- Node11 -->
<g id="node11" class="node">
<title>Node11</title>
<g id="a_node11"><a xlink:href="classslljit_1_1_tokenizer.html#ab29a7d2f06bb354a3f748106f5ea3e6c" target="_top" xlink:title=" ">
<polygon fill="none" stroke="black" points="1574.5,-120.5 1574.5,-150.5 1663.5,-150.5 1663.5,-120.5 1574.5,-120.5"/>
<text text-anchor="start" x="1582.5" y="-138.5" font-family="Helvetica,sans-Serif" font-size="10.00">slljit::Tokenizer::</text>
<text text-anchor="middle" x="1619" y="-127.5" font-family="Helvetica,sans-Serif" font-size="10.00">is_special_literal</text>
</a>
</g>
</g>
<!-- Node6&#45;&gt;Node11 -->
<g id="edge11" class="edge">
<title>Node6&#45;&gt;Node11</title>
<path fill="none" stroke="midnightblue" d="M1498.84,-193.42C1514.36,-183.09 1535.92,-169.5 1556,-159.5 1559.35,-157.83 1562.84,-156.2 1566.39,-154.63"/>
<polygon fill="midnightblue" stroke="midnightblue" points="1568.02,-157.73 1575.85,-150.6 1565.28,-151.29 1568.02,-157.73"/>
</g>
<!-- Node12 -->
<g id="node12" class="node">
<title>Node12</title>
<g id="a_node12"><a xlink:href="classslljit_1_1_tokenizer.html#ae5cc0911ed858f6bc7bf206928cd66ae" target="_top" xlink:title=" ">
<polygon fill="none" stroke="black" points="1575,-71.5 1575,-101.5 1663,-101.5 1663,-71.5 1575,-71.5"/>
<text text-anchor="start" x="1583" y="-89.5" font-family="Helvetica,sans-Serif" font-size="10.00">slljit::Tokenizer::</text>
<text text-anchor="middle" x="1619" y="-78.5" font-family="Helvetica,sans-Serif" font-size="10.00">set_lok_location</text>
</a>
</g>
</g>
<!-- Node6&#45;&gt;Node12 -->
<g id="edge12" class="edge">
<title>Node6&#45;&gt;Node12</title>
<path fill="none" stroke="midnightblue" d="M1485.57,-193.5C1498.37,-172.29 1524.41,-133.57 1556,-110.5 1559.02,-108.29 1562.27,-106.26 1565.64,-104.39"/>
<polygon fill="midnightblue" stroke="midnightblue" points="1567.4,-107.43 1574.78,-99.83 1564.27,-101.17 1567.4,-107.43"/>
</g>
<!-- Node14 -->
<g id="node14" class="node">
<title>Node14</title>
<g id="a_node14"><a xlink:href="classslljit_1_1_parser.html#ae387c9672ec50720d8cb969558aedbe9" target="_top" xlink:title=" ">
<polygon fill="none" stroke="black" points="356,-271.5 356,-301.5 470,-301.5 470,-271.5 356,-271.5"/>
<text text-anchor="start" x="364" y="-289.5" font-family="Helvetica,sans-Serif" font-size="10.00">slljit::Parser::ParseBin</text>
<text text-anchor="middle" x="413" y="-278.5" font-family="Helvetica,sans-Serif" font-size="10.00">OpRHS</text>
</a>
</g>
</g>
<!-- Node13&#45;&gt;Node14 -->
<g id="edge14" class="edge">
<title>Node13&#45;&gt;Node14</title>
<path fill="none" stroke="midnightblue" d="M266.13,-357.89C292.12,-345.17 338.54,-322.45 372.05,-306.05"/>
<polygon fill="midnightblue" stroke="midnightblue" points="373.69,-309.15 381.13,-301.61 370.61,-302.86 373.69,-309.15"/>
</g>
<!-- Node16 -->
<g id="node16" class="node">
<title>Node16</title>
<g id="a_node16"><a xlink:href="classslljit_1_1_parser.html#af8579896f39ac563d2edd14404d70f41" target="_top" xlink:title=" ">
<polygon fill="none" stroke="black" points="522.5,-318 522.5,-337 647.5,-337 647.5,-318 522.5,-318"/>
<text text-anchor="middle" x="585" y="-325" font-family="Helvetica,sans-Serif" font-size="10.00">slljit::Parser::ParseUnary</text>
</a>
</g>
</g>
<!-- Node13&#45;&gt;Node16 -->
<g id="edge57" class="edge">
<title>Node13&#45;&gt;Node16</title>
<path fill="none" stroke="midnightblue" d="M320.15,-358.77C377.24,-352.01 455.88,-342.68 512.44,-335.98"/>
<polygon fill="midnightblue" stroke="midnightblue" points="512.85,-339.46 522.37,-334.8 512.03,-332.51 512.85,-339.46"/>
</g>
<!-- Node14&#45;&gt;Node5 -->
<g id="edge15" class="edge">
<title>Node14&#45;&gt;Node5</title>
<path fill="none" stroke="midnightblue" d="M428.91,-271.35C474.74,-226.5 619.3,-97.5 766,-97.5 766,-97.5 766,-97.5 949,-97.5 1085.34,-97.5 1238.56,-164.48 1300.16,-194.38"/>
<polygon fill="midnightblue" stroke="midnightblue" points="1298.73,-197.57 1309.25,-198.84 1301.82,-191.29 1298.73,-197.57"/>
</g>
<!-- Node14&#45;&gt;Node14 -->
<g id="edge17" class="edge">
<title>Node14&#45;&gt;Node14</title>
<path fill="none" stroke="midnightblue" d="M384.07,-301.66C377.1,-311.06 386.74,-320 413,-320 429,-320 438.84,-316.68 442.5,-311.96"/>
<polygon fill="midnightblue" stroke="midnightblue" points="445.97,-311.45 441.93,-301.66 438.98,-311.84 445.97,-311.45"/>
</g>
<!-- Node15 -->
<g id="node15" class="node">
<title>Node15</title>
<g id="a_node15"><a xlink:href="classslljit_1_1_parser.html#a8485bea3e380a80c8296092996c9ef96" target="_top" xlink:title="Get the precedence of the pending binary operator token.">
<polygon fill="none" stroke="black" points="506,-277 506,-296 664,-296 664,-277 506,-277"/>
<text text-anchor="middle" x="585" y="-284" font-family="Helvetica,sans-Serif" font-size="10.00">slljit::Parser::GetTokPrecedence</text>
</a>
</g>
</g>
<!-- Node14&#45;&gt;Node15 -->
<g id="edge16" class="edge">
<title>Node14&#45;&gt;Node15</title>
<path fill="none" stroke="midnightblue" d="M470.14,-286.5C478.34,-286.5 486.95,-286.5 495.6,-286.5"/>
<polygon fill="midnightblue" stroke="midnightblue" points="495.77,-290 505.77,-286.5 495.77,-283 495.77,-290"/>
</g>
<!-- Node14&#45;&gt;Node16 -->
<g id="edge18" class="edge">
<title>Node14&#45;&gt;Node16</title>
<path fill="none" stroke="midnightblue" d="M470.14,-300.04C490.98,-305.07 514.46,-310.73 534.66,-315.6"/>
<polygon fill="midnightblue" stroke="midnightblue" points="534.05,-319.05 544.59,-317.99 535.69,-312.25 534.05,-319.05"/>
</g>
<!-- Node16&#45;&gt;Node5 -->
<g id="edge19" class="edge">
<title>Node16&#45;&gt;Node5</title>
<path fill="none" stroke="midnightblue" d="M627.15,-317.98C639.24,-314.63 652.34,-310.45 664,-305.5 761.54,-264.12 767.71,-213.12 870,-185.5 1015.69,-146.16 1196.72,-177.68 1280.89,-196.7"/>
<polygon fill="midnightblue" stroke="midnightblue" points="1280.13,-200.12 1290.66,-198.95 1281.7,-193.3 1280.13,-200.12"/>
</g>
<!-- Node16&#45;&gt;Node16 -->
<g id="edge56" class="edge">
<title>Node16&#45;&gt;Node16</title>
<path fill="none" stroke="midnightblue" d="M558.49,-337.26C545.59,-346.07 554.43,-355.5 585,-355.5 605.54,-355.5 616.27,-351.24 617.19,-345.77"/>
<polygon fill="midnightblue" stroke="midnightblue" points="619.97,-343.64 611.51,-337.26 614.14,-347.52 619.97,-343.64"/>
</g>
<!-- Node17 -->
<g id="node17" class="node">
<title>Node17</title>
<g id="a_node17"><a xlink:href="classslljit_1_1_parser.html#a45cb3e4f600e8e2c253490e7d878e8cd" target="_top" xlink:title=" ">
<polygon fill="none" stroke="black" points="700,-415 700,-434 834,-434 834,-415 700,-415"/>
<text text-anchor="middle" x="767" y="-422" font-family="Helvetica,sans-Serif" font-size="10.00">slljit::Parser::ParsePrimary</text>
</a>
</g>
</g>
<!-- Node16&#45;&gt;Node17 -->
<g id="edge20" class="edge">
<title>Node16&#45;&gt;Node17</title>
<path fill="none" stroke="midnightblue" d="M603.92,-337.16C635.59,-354.22 701.63,-389.81 738.9,-409.9"/>
<polygon fill="midnightblue" stroke="midnightblue" points="737.69,-413.22 748.16,-414.88 741.01,-407.06 737.69,-413.22"/>
</g>
<!-- Node17&#45;&gt;Node1 -->
<g id="edge55" class="edge">
<title>Node17&#45;&gt;Node1</title>
<path fill="none" stroke="midnightblue" d="M699.76,-424.5C569.96,-424.5 282.84,-424.5 145.12,-424.5"/>
<polygon fill="midnightblue" stroke="midnightblue" points="145.06,-421 135.06,-424.5 145.06,-428 145.06,-421"/>
</g>
<!-- Node17&#45;&gt;Node3 -->
<g id="edge21" class="edge">
<title>Node17&#45;&gt;Node3</title>
<path fill="none" stroke="midnightblue" d="M785.83,-434.01C806.01,-444.63 839.99,-462.09 870,-475.5 953.79,-512.95 972.75,-530.1 1062,-551.5 1130.86,-568.01 1212.19,-573.72 1266.62,-575.64"/>
<polygon fill="midnightblue" stroke="midnightblue" points="1266.7,-579.14 1276.8,-575.96 1266.92,-572.15 1266.7,-579.14"/>
</g>
<!-- Node18 -->
<g id="node18" class="node">
<title>Node18</title>
<g id="a_node18"><a xlink:href="classslljit_1_1_parser.html#a81023e7a6221eb6b92027bd21433c9dd" target="_top" xlink:title="forexpr ::= &#39;for&#39; identifier &#39;=&#39; expr &#39;,&#39; expr (&#39;,&#39; expr)? &#39;in&#39; expression">
<polygon fill="none" stroke="black" points="881,-447 881,-466 1015,-466 1015,-447 881,-447"/>
<text text-anchor="middle" x="948" y="-454" font-family="Helvetica,sans-Serif" font-size="10.00">slljit::Parser::ParseForExpr</text>
</a>
</g>
</g>
<!-- Node17&#45;&gt;Node18 -->
<g id="edge22" class="edge">
<title>Node17&#45;&gt;Node18</title>
<path fill="none" stroke="midnightblue" d="M821.22,-434.01C840.88,-437.53 863.35,-441.55 883.81,-445.2"/>
<polygon fill="midnightblue" stroke="midnightblue" points="883.21,-448.65 893.67,-446.97 884.45,-441.76 883.21,-448.65"/>
</g>
<!-- Node22 -->
<g id="node22" class="node">
<title>Node22</title>
<g id="a_node22"><a xlink:href="classslljit_1_1_parser.html#a25cfefcbeea85744e23370d3a6f8ad5b" target="_top" xlink:title=" ">
<polygon fill="none" stroke="black" points="870,-649 870,-668 1026,-668 1026,-649 870,-649"/>
<text text-anchor="middle" x="948" y="-656" font-family="Helvetica,sans-Serif" font-size="10.00">slljit::Parser::ParseIdentifierExpr</text>
</a>
</g>
</g>
<!-- Node17&#45;&gt;Node22 -->
<g id="edge32" class="edge">
<title>Node17&#45;&gt;Node22</title>
<path fill="none" stroke="midnightblue" d="M772.29,-434.07C789.56,-472.44 853.83,-613.76 870,-628.5 877.71,-635.53 887.26,-640.99 896.98,-645.2"/>
<polygon fill="midnightblue" stroke="midnightblue" points="895.7,-648.46 906.29,-648.87 898.27,-641.95 895.7,-648.46"/>
</g>
<!-- Node25 -->
<g id="node25" class="node">
<title>Node25</title>
<g id="a_node25"><a xlink:href="classslljit_1_1_parser.html#a149f5e88cb03aa08c388e6320c6c1bac" target="_top" xlink:title="ifexpr ::= &#39;if&#39; expression &#39;then&#39; expression &#39;else&#39; expression">
<polygon fill="none" stroke="black" points="885.5,-377 885.5,-396 1010.5,-396 1010.5,-377 885.5,-377"/>
<text text-anchor="middle" x="948" y="-384" font-family="Helvetica,sans-Serif" font-size="10.00">slljit::Parser::ParseIfExpr</text>
</a>
</g>
</g>
<!-- Node17&#45;&gt;Node25 -->
<g id="edge40" class="edge">
<title>Node17&#45;&gt;Node25</title>
<path fill="none" stroke="midnightblue" d="M813.17,-414.91C837.22,-409.81 866.97,-403.49 892.32,-398.11"/>
<polygon fill="midnightblue" stroke="midnightblue" points="893.1,-401.52 902.16,-396.02 891.65,-394.67 893.1,-401.52"/>
</g>
<!-- Node26 -->
<g id="node26" class="node">
<title>Node26</title>
<g id="a_node26"><a xlink:href="classslljit_1_1_parser.html#af9ccc5948e2cf9051c2569cc42dc3bb7" target="_top" xlink:title="numberexpr ::= number">
<polygon fill="none" stroke="black" points="1071,-240 1071,-259 1217,-259 1217,-240 1071,-240"/>
<text text-anchor="middle" x="1144" y="-247" font-family="Helvetica,sans-Serif" font-size="10.00">slljit::Parser::ParseLiteralExpr</text>
</a>
</g>
</g>
<!-- Node17&#45;&gt;Node26 -->
<g id="edge47" class="edge">
<title>Node17&#45;&gt;Node26</title>
<path fill="none" stroke="midnightblue" d="M783.98,-414.9C803.84,-403.13 838.9,-382.86 870,-367.5 954.37,-325.82 1056.98,-283.68 1109.09,-262.86"/>
<polygon fill="midnightblue" stroke="midnightblue" points="1110.53,-266.06 1118.52,-259.11 1107.94,-259.55 1110.53,-266.06"/>
</g>
<!-- Node28 -->
<g id="node28" class="node">
<title>Node28</title>
<g id="a_node28"><a xlink:href="classslljit_1_1_parser.html#a6e2e0f6a2cc445f3a956db59c8d2da66" target="_top" xlink:title="parenexpr ::= &#39;(&#39; expression &#39;)&#39;">
<polygon fill="none" stroke="black" points="875,-195 875,-214 1021,-214 1021,-195 875,-195"/>
<text text-anchor="middle" x="948" y="-202" font-family="Helvetica,sans-Serif" font-size="10.00">slljit::Parser::ParseParenExpr</text>
</a>
</g>
</g>
<!-- Node17&#45;&gt;Node28 -->
<g id="edge51" class="edge">
<title>Node17&#45;&gt;Node28</title>
<path fill="none" stroke="midnightblue" d="M772.84,-414.97C792.54,-376.15 865.93,-231.91 870,-228.5 874.93,-224.37 880.58,-220.95 886.51,-218.12"/>
<polygon fill="midnightblue" stroke="midnightblue" points="888.16,-221.23 896.03,-214.14 885.45,-214.77 888.16,-221.23"/>
</g>
<!-- Node18&#45;&gt;Node3 -->
<g id="edge23" class="edge">
<title>Node18&#45;&gt;Node3</title>
<path fill="none" stroke="midnightblue" d="M964.53,-466.04C985.82,-478.73 1025.56,-501.13 1062,-514.5 1130.31,-539.56 1212.3,-556.85 1267.03,-566.69"/>
<polygon fill="midnightblue" stroke="midnightblue" points="1266.46,-570.14 1276.92,-568.44 1267.68,-563.25 1266.46,-570.14"/>
</g>
<!-- Node18&#45;&gt;Node5 -->
<g id="edge24" class="edge">
<title>Node18&#45;&gt;Node5</title>
<path fill="none" stroke="midnightblue" d="M967.62,-466.17C1016.65,-490.15 1150.72,-545.83 1226,-480.5 1311.78,-406.06 1187.46,-313.19 1262,-227.5 1263.16,-226.17 1264.4,-224.93 1265.72,-223.78"/>
<polygon fill="midnightblue" stroke="midnightblue" points="1267.75,-226.63 1273.95,-218.04 1263.74,-220.88 1267.75,-226.63"/>
</g>
<!-- Node18&#45;&gt;Node13 -->
<g id="edge25" class="edge">
<title>Node18&#45;&gt;Node13</title>
<path fill="none" stroke="midnightblue" d="M880.79,-455.02C830.96,-453.42 761.05,-450.14 700,-443.5 545.94,-426.73 508.79,-412.41 356,-386.5 341.39,-384.02 325.7,-381.32 310.88,-378.76"/>
<polygon fill="midnightblue" stroke="midnightblue" points="311.24,-375.27 300.79,-377 310.04,-382.16 311.24,-375.27"/>
</g>
<!-- Node19 -->
<g id="node19" class="node">
<title>Node19</title>
<g id="a_node19"><a xlink:href="classslljit_1_1_parser.html#acc431005ac3dd38732083d7a1bb0eab2" target="_top" xlink:title=" ">
<polygon fill="none" stroke="black" points="1062,-316 1062,-335 1226,-335 1226,-316 1062,-316"/>
<text text-anchor="middle" x="1144" y="-323" font-family="Helvetica,sans-Serif" font-size="10.00">slljit::Parser::ParseExpressionList</text>
</a>
</g>
</g>
<!-- Node18&#45;&gt;Node19 -->
<g id="edge26" class="edge">
<title>Node18&#45;&gt;Node19</title>
<path fill="none" stroke="midnightblue" d="M963.52,-446.98C979.03,-436.78 1004.32,-420.09 1026,-405.5 1059.13,-383.21 1097.27,-357.03 1120.75,-340.85"/>
<polygon fill="midnightblue" stroke="midnightblue" points="1122.75,-343.73 1129,-335.17 1118.78,-337.97 1122.75,-343.73"/>
</g>
<!-- Node20 -->
<g id="node20" class="node">
<title>Node20</title>
<g id="a_node20"><a xlink:href="classslljit_1_1_parser.html#ae7a9c738da8b5802b80001e306ad668b" target="_top" xlink:title=" ">
<polygon fill="none" stroke="black" points="1099,-441.5 1099,-471.5 1189,-471.5 1189,-441.5 1099,-441.5"/>
<text text-anchor="start" x="1107" y="-459.5" font-family="Helvetica,sans-Serif" font-size="10.00">slljit::Parser::pop</text>
<text text-anchor="middle" x="1144" y="-448.5" font-family="Helvetica,sans-Serif" font-size="10.00">_scope</text>
</a>
</g>
</g>
<!-- Node18&#45;&gt;Node20 -->
<g id="edge30" class="edge">
<title>Node18&#45;&gt;Node20</title>
<path fill="none" stroke="midnightblue" d="M1015.22,-456.5C1039.11,-456.5 1065.78,-456.5 1088.55,-456.5"/>
<polygon fill="midnightblue" stroke="midnightblue" points="1088.72,-460 1098.72,-456.5 1088.72,-453 1088.72,-460"/>
</g>
<!-- Node21 -->
<g id="node21" class="node">
<title>Node21</title>
<g id="a_node21"><a xlink:href="classslljit_1_1_parser.html#a07488f6e4f1ec72ba5c6f04ad550b7a3" target="_top" xlink:title=" ">
<polygon fill="none" stroke="black" points="1096.5,-392.5 1096.5,-422.5 1191.5,-422.5 1191.5,-392.5 1096.5,-392.5"/>
<text text-anchor="start" x="1104.5" y="-410.5" font-family="Helvetica,sans-Serif" font-size="10.00">slljit::Parser::push</text>
<text text-anchor="middle" x="1144" y="-399.5" font-family="Helvetica,sans-Serif" font-size="10.00">_scope</text>
</a>
</g>
</g>
<!-- Node18&#45;&gt;Node21 -->
<g id="edge31" class="edge">
<title>Node18&#45;&gt;Node21</title>
<path fill="none" stroke="midnightblue" d="M986.87,-446.94C1015.25,-439.77 1054.55,-429.84 1086.62,-421.74"/>
<polygon fill="midnightblue" stroke="midnightblue" points="1087.48,-425.13 1096.32,-419.29 1085.77,-418.35 1087.48,-425.13"/>
</g>
<!-- Node19&#45;&gt;Node3 -->
<g id="edge27" class="edge">
<title>Node19&#45;&gt;Node3</title>
<path fill="none" stroke="midnightblue" d="M1200.58,-335.01C1209.8,-338.45 1218.71,-343.13 1226,-349.5 1288.62,-404.23 1314.74,-505.01 1323.85,-551.64"/>
<polygon fill="midnightblue" stroke="midnightblue" points="1320.41,-552.3 1325.67,-561.5 1327.29,-551.03 1320.41,-552.3"/>
</g>
<!-- Node19&#45;&gt;Node5 -->
<g id="edge28" class="edge">
<title>Node19&#45;&gt;Node5</title>
<path fill="none" stroke="midnightblue" d="M1161.05,-315.81C1178.01,-305.21 1205.15,-287.23 1226,-268.5 1244.04,-252.3 1241.52,-240.49 1262,-227.5 1265.3,-225.4 1268.85,-223.53 1272.51,-221.86"/>
<polygon fill="midnightblue" stroke="midnightblue" points="1273.83,-225.1 1281.8,-218.12 1271.22,-218.61 1273.83,-225.1"/>
</g>
<!-- Node19&#45;&gt;Node13 -->
<g id="edge29" class="edge">
<title>Node19&#45;&gt;Node13</title>
<path fill="none" stroke="midnightblue" d="M1094.78,-315.95C945.22,-287.22 491.17,-206.79 356,-261.5 312.09,-279.27 276.05,-324.02 258.34,-349.33"/>
<polygon fill="midnightblue" stroke="midnightblue" points="255.39,-347.45 252.66,-357.69 261.18,-351.38 255.39,-347.45"/>
</g>
<!-- Node22&#45;&gt;Node2 -->
<g id="edge36" class="edge">
<title>Node22&#45;&gt;Node2</title>
<path fill="none" stroke="midnightblue" d="M959.18,-668.35C985.85,-694.13 1056.06,-761.81 1062,-765.5 1070.69,-770.91 1080.5,-775.56 1090.23,-779.48"/>
<polygon fill="midnightblue" stroke="midnightblue" points="1089.28,-782.87 1099.87,-783.16 1091.77,-776.33 1089.28,-782.87"/>
</g>
<!-- Node22&#45;&gt;Node3 -->
<g id="edge37" class="edge">
<title>Node22&#45;&gt;Node3</title>
<path fill="none" stroke="midnightblue" d="M959.17,-668.05C977.81,-684.82 1019.44,-718.95 1062,-731.5 1131.91,-752.12 1161.84,-766.09 1226,-731.5 1277.36,-703.82 1307.1,-637.72 1320.11,-601.42"/>
<polygon fill="midnightblue" stroke="midnightblue" points="1323.54,-602.2 1323.47,-591.61 1316.92,-599.93 1323.54,-602.2"/>
</g>
<!-- Node22&#45;&gt;Node5 -->
<g id="edge38" class="edge">
<title>Node22&#45;&gt;Node5</title>
<path fill="none" stroke="midnightblue" d="M991.2,-648.97C1053.76,-632.43 1169.77,-592.1 1226,-510.5 1297.94,-406.09 1179.5,-323.78 1262,-227.5 1263.02,-226.31 1264.11,-225.2 1265.25,-224.15"/>
<polygon fill="midnightblue" stroke="midnightblue" points="1267.5,-226.84 1273.58,-218.16 1263.42,-221.16 1267.5,-226.84"/>
</g>
<!-- Node22&#45;&gt;Node13 -->
<g id="edge39" class="edge">
<title>Node22&#45;&gt;Node13</title>
<path fill="none" stroke="midnightblue" d="M923.91,-648.91C820.45,-605.93 399.33,-430.99 278.84,-380.94"/>
<polygon fill="midnightblue" stroke="midnightblue" points="279.99,-377.62 269.41,-377.02 277.3,-384.09 279.99,-377.62"/>
</g>
<!-- Node23 -->
<g id="node23" class="node">
<title>Node23</title>
<g id="a_node23"><a xlink:href="classslljit_1_1_parser.html#a4c93eea2333b7705c6aea18df2105196" target="_top" xlink:title=" ">
<polygon fill="none" stroke="black" points="1099.5,-692.5 1099.5,-722.5 1188.5,-722.5 1188.5,-692.5 1099.5,-692.5"/>
<text text-anchor="start" x="1107.5" y="-710.5" font-family="Helvetica,sans-Serif" font-size="10.00">slljit::Parser::find</text>
<text text-anchor="middle" x="1144" y="-699.5" font-family="Helvetica,sans-Serif" font-size="10.00">_var_in_scope</text>
</a>
</g>
</g>
<!-- Node22&#45;&gt;Node23 -->
<g id="edge33" class="edge">
<title>Node22&#45;&gt;Node23</title>
<path fill="none" stroke="midnightblue" d="M986.87,-668.06C1016.15,-675.46 1057.05,-685.79 1089.65,-694.02"/>
<polygon fill="midnightblue" stroke="midnightblue" points="1088.92,-697.45 1099.47,-696.51 1090.63,-690.66 1088.92,-697.45"/>
</g>
<!-- Node24 -->
<g id="node24" class="node">
<title>Node24</title>
<g id="a_node24"><a xlink:href="classslljit_1_1_parser.html#aee4666b5cca40f389e2458033d9006e3" target="_top" xlink:title=" ">
<polygon fill="none" stroke="black" points="1083,-643.5 1083,-673.5 1205,-673.5 1205,-643.5 1083,-643.5"/>
<text text-anchor="start" x="1091" y="-661.5" font-family="Helvetica,sans-Serif" font-size="10.00">slljit::Parser::get</text>
<text text-anchor="middle" x="1144" y="-650.5" font-family="Helvetica,sans-Serif" font-size="10.00">_current_function_scope</text>
</a>
</g>
</g>
<!-- Node22&#45;&gt;Node24 -->
<g id="edge35" class="edge">
<title>Node22&#45;&gt;Node24</title>
<path fill="none" stroke="midnightblue" d="M1026.23,-658.5C1041.51,-658.5 1057.48,-658.5 1072.52,-658.5"/>
<polygon fill="midnightblue" stroke="midnightblue" points="1072.77,-662 1082.77,-658.5 1072.77,-655 1072.77,-662"/>
</g>
<!-- Node23&#45;&gt;Node3 -->
<g id="edge34" class="edge">
<title>Node23&#45;&gt;Node3</title>
<path fill="none" stroke="midnightblue" d="M1188.78,-698.36C1201.36,-694.6 1214.72,-689.45 1226,-682.5 1261.25,-660.79 1292.75,-624.08 1311.12,-600.06"/>
<polygon fill="midnightblue" stroke="midnightblue" points="1314.09,-601.94 1317.28,-591.84 1308.48,-597.75 1314.09,-601.94"/>
</g>
<!-- Node25&#45;&gt;Node3 -->
<g id="edge41" class="edge">
<title>Node25&#45;&gt;Node3</title>
<path fill="none" stroke="midnightblue" d="M977.46,-376.92C1030.67,-360.88 1146.96,-334.76 1226,-382.5 1287.56,-419.68 1313.81,-507.69 1323.34,-551.22"/>
<polygon fill="midnightblue" stroke="midnightblue" points="1319.97,-552.18 1325.42,-561.27 1326.83,-550.77 1319.97,-552.18"/>
</g>
<!-- Node25&#45;&gt;Node5 -->
<g id="edge42" class="edge">
<title>Node25&#45;&gt;Node5</title>
<path fill="none" stroke="midnightblue" d="M952.55,-376.95C963.62,-348.66 1000.53,-265.14 1062,-230.5 1093.39,-212.81 1184.81,-208.49 1251.73,-207.83"/>
<polygon fill="midnightblue" stroke="midnightblue" points="1251.86,-211.33 1261.84,-207.76 1251.81,-204.33 1251.86,-211.33"/>
</g>
<!-- Node25&#45;&gt;Node13 -->
<g id="edge43" class="edge">
<title>Node25&#45;&gt;Node13</title>
<path fill="none" stroke="midnightblue" d="M885.49,-384.83C759.67,-381.42 472.76,-373.64 330.16,-369.77"/>
<polygon fill="midnightblue" stroke="midnightblue" points="330.23,-366.27 320.14,-369.5 330.04,-373.27 330.23,-366.27"/>
</g>
<!-- Node25&#45;&gt;Node19 -->
<g id="edge44" class="edge">
<title>Node25&#45;&gt;Node19</title>
<path fill="none" stroke="midnightblue" d="M977.72,-376.85C1000.52,-369.24 1033.23,-358.47 1062,-349.5 1074.37,-345.64 1087.86,-341.59 1100.21,-337.93"/>
<polygon fill="midnightblue" stroke="midnightblue" points="1101.23,-341.28 1109.83,-335.1 1099.25,-334.57 1101.23,-341.28"/>
</g>
<!-- Node25&#45;&gt;Node20 -->
<g id="edge45" class="edge">
<title>Node25&#45;&gt;Node20</title>
<path fill="none" stroke="midnightblue" d="M971.74,-396.17C994.42,-405.68 1030.34,-420.33 1062,-431.5 1070.66,-434.56 1079.92,-437.61 1088.96,-440.48"/>
<polygon fill="midnightblue" stroke="midnightblue" points="1088.06,-443.86 1098.65,-443.51 1090.15,-437.18 1088.06,-443.86"/>
</g>
<!-- Node25&#45;&gt;Node21 -->
<g id="edge46" class="edge">
<title>Node25&#45;&gt;Node21</title>
<path fill="none" stroke="midnightblue" d="M1010.65,-393.17C1034.81,-395.79 1062.36,-398.77 1086.05,-401.34"/>
<polygon fill="midnightblue" stroke="midnightblue" points="1085.97,-404.85 1096.29,-402.44 1086.72,-397.89 1085.97,-404.85"/>
</g>
<!-- Node26&#45;&gt;Node3 -->
<g id="edge49" class="edge">
<title>Node26&#45;&gt;Node3</title>
<path fill="none" stroke="midnightblue" d="M1202.77,-259.09C1211.33,-262.53 1219.45,-267.19 1226,-273.5 1306.34,-350.95 1323.4,-493.62 1327.02,-551.31"/>
<polygon fill="midnightblue" stroke="midnightblue" points="1323.53,-551.57 1327.57,-561.37 1330.52,-551.19 1323.53,-551.57"/>
</g>
<!-- Node26&#45;&gt;Node5 -->
<g id="edge50" class="edge">
<title>Node26&#45;&gt;Node5</title>
<path fill="none" stroke="midnightblue" d="M1187.44,-239.99C1213.68,-234.11 1247.56,-226.52 1275.48,-220.27"/>
<polygon fill="midnightblue" stroke="midnightblue" points="1276.48,-223.63 1285.47,-218.03 1274.95,-216.8 1276.48,-223.63"/>
</g>
<!-- Node27 -->
<g id="node27" class="node">
<title>Node27</title>
<g id="a_node27"><a xlink:href="classslljit_1_1_tokenizer.html#a69d29df7401c1f268a754725c4561470" target="_top" xlink:title=" ">
<polygon fill="none" stroke="black" points="1285,-237.5 1285,-267.5 1373,-267.5 1373,-237.5 1285,-237.5"/>
<text text-anchor="start" x="1293" y="-255.5" font-family="Helvetica,sans-Serif" font-size="10.00">slljit::Tokenizer::</text>
<text text-anchor="middle" x="1329" y="-244.5" font-family="Helvetica,sans-Serif" font-size="10.00">get_literal_string</text>
</a>
</g>
</g>
<!-- Node26&#45;&gt;Node27 -->
<g id="edge48" class="edge">
<title>Node26&#45;&gt;Node27</title>
<path fill="none" stroke="midnightblue" d="M1217.06,-250.68C1236.3,-251 1256.74,-251.33 1274.76,-251.63"/>
<polygon fill="midnightblue" stroke="midnightblue" points="1274.73,-255.13 1284.78,-251.79 1274.84,-248.13 1274.73,-255.13"/>
</g>
<!-- Node28&#45;&gt;Node3 -->
<g id="edge52" class="edge">
<title>Node28&#45;&gt;Node3</title>
<path fill="none" stroke="midnightblue" d="M962.97,-214.18C983.68,-228.11 1024.19,-253.77 1062,-268.5 1131.72,-295.66 1169.68,-257.24 1226,-306.5 1300.63,-371.78 1320.83,-497.45 1326.15,-551.15"/>
<polygon fill="midnightblue" stroke="midnightblue" points="1322.68,-551.54 1327.06,-561.19 1329.65,-550.91 1322.68,-551.54"/>
</g>
<!-- Node28&#45;&gt;Node5 -->
<g id="edge53" class="edge">
<title>Node28&#45;&gt;Node5</title>
<path fill="none" stroke="midnightblue" d="M1021,-199.37C1034.61,-198.59 1048.74,-197.91 1062,-197.5 1134.85,-195.25 1153.22,-193.59 1226,-197.5 1234.37,-197.95 1243.12,-198.61 1251.81,-199.38"/>
<polygon fill="midnightblue" stroke="midnightblue" points="1251.68,-202.88 1261.97,-200.33 1252.34,-195.91 1251.68,-202.88"/>
</g>
<!-- Node28&#45;&gt;Node13 -->
<g id="edge54" class="edge">
<title>Node28&#45;&gt;Node13</title>
<path fill="none" stroke="midnightblue" d="M905.37,-194.97C804.49,-174.16 541.66,-133.71 356,-228.5 304.87,-254.61 270.04,-316.67 254.96,-348.28"/>
<polygon fill="midnightblue" stroke="midnightblue" points="251.6,-347.19 250.6,-357.74 257.96,-350.12 251.6,-347.19"/>
</g>
<!-- Node29&#45;&gt;Node3 -->
<g id="edge59" class="edge">
<title>Node29&#45;&gt;Node3</title>
<path fill="none" stroke="midnightblue" d="M460.69,-882.85C528.1,-881.97 656.61,-880.5 766,-880.5 766,-880.5 766,-880.5 949,-880.5 1072.69,-880.5 1128.1,-929.1 1226,-853.5 1307,-790.95 1323.69,-657.44 1327.12,-601.73"/>
<polygon fill="midnightblue" stroke="midnightblue" points="1330.62,-601.84 1327.65,-591.67 1323.63,-601.48 1330.62,-601.84"/>
</g>
</g>
</svg>
