<?xml version="1.0" encoding="UTF-8" standalone="no"?>
<!DOCTYPE svg PUBLIC "-//W3C//DTD SVG 1.1//EN"
 "http://www.w3.org/Graphics/SVG/1.1/DTD/svg11.dtd">
<!-- Generated by graphviz version 3.0.0 (20220226.1711)
 -->
<!-- Title: slljit::ForExprAST::codegen Pages: 1 -->
<svg width="540pt" height="366pt"
 viewBox="0.00 0.00 540.00 365.50" xmlns="http://www.w3.org/2000/svg" xmlns:xlink="http://www.w3.org/1999/xlink">
<g id="graph0" class="graph" transform="scale(1 1) rotate(0) translate(4 361.5)">
<title>slljit::ForExprAST::codegen</title>
<!-- Node1 -->
<g id="node1" class="node">
<title>Node1</title>
<g id="a_node1"><a xlink:title=" ">
<polygon fill="#bfbfbf" stroke="black" points="0,-98.5 0,-128.5 93,-128.5 93,-98.5 0,-98.5"/>
<text text-anchor="start" x="8" y="-116.5" font-family="Helvetica,sans-Serif" font-size="10.00">slljit::ForExprAST</text>
<text text-anchor="middle" x="46.5" y="-105.5" font-family="Helvetica,sans-Serif" font-size="10.00">::codegen</text>
</a>
</g>
</g>
<!-- Node2 -->
<g id="node2" class="node">
<title>Node2</title>
<g id="a_node2"><a xlink:href="namespaceslljit.html#a35fd5437fe4da3972add655696b4ba1e" target="_top" xlink:title="Creates explict cast.">
<polygon fill="none" stroke="black" points="129,-243 129,-262 248,-262 248,-243 129,-243"/>
<text text-anchor="middle" x="188.5" y="-250" font-family="Helvetica,sans-Serif" font-size="10.00">slljit::CreateExplictCast</text>
</a>
</g>
</g>
<!-- Node1&#45;&gt;Node2 -->
<g id="edge1" class="edge">
<title>Node1&#45;&gt;Node2</title>
<path fill="none" stroke="midnightblue" d="M62.75,-128.64C89.07,-154.77 142.83,-208.15 170.39,-235.51"/>
<polygon fill="midnightblue" stroke="midnightblue" points="168.17,-238.24 177.73,-242.8 173.1,-233.27 168.17,-238.24"/>
</g>
<!-- Node4 -->
<g id="node4" class="node">
<title>Node4</title>
<g id="a_node4"><a xlink:href="classslljit_1_1_local_context.html#acd5a146c139b01ff0c5d1be79e187749" target="_top" xlink:title=" ">
<polygon fill="none" stroke="black" points="435,-294.5 435,-324.5 532,-324.5 532,-294.5 435,-294.5"/>
<text text-anchor="start" x="443" y="-312.5" font-family="Helvetica,sans-Serif" font-size="10.00">slljit::LocalContext</text>
<text text-anchor="middle" x="483.5" y="-301.5" font-family="Helvetica,sans-Serif" font-size="10.00">::getBuilder</text>
</a>
</g>
</g>
<!-- Node1&#45;&gt;Node4 -->
<g id="edge8" class="edge">
<title>Node1&#45;&gt;Node4</title>
<path fill="none" stroke="midnightblue" d="M93.32,-128.24C104.88,-131.61 117.33,-134.95 129,-137.5 247.46,-163.36 297.37,-110.38 399,-176.5 438.42,-202.15 462.63,-253.62 474.23,-284.47"/>
<polygon fill="midnightblue" stroke="midnightblue" points="471,-285.85 477.68,-294.07 477.59,-283.48 471,-285.85"/>
</g>
<!-- Node8 -->
<g id="node8" class="node">
<title>Node8</title>
<g id="a_node8"><a xlink:href="classslljit_1_1_local_context.html#a7b1975b6c4314126ab18642dc180d596" target="_top" xlink:title=" ">
<polygon fill="none" stroke="black" points="140,-98.5 140,-128.5 237,-128.5 237,-98.5 140,-98.5"/>
<text text-anchor="start" x="148" y="-116.5" font-family="Helvetica,sans-Serif" font-size="10.00">slljit::LocalContext</text>
<text text-anchor="middle" x="188.5" y="-105.5" font-family="Helvetica,sans-Serif" font-size="10.00">::getContext</text>
</a>
</g>
</g>
<!-- Node1&#45;&gt;Node8 -->
<g id="edge9" class="edge">
<title>Node1&#45;&gt;Node8</title>
<path fill="none" stroke="midnightblue" d="M93.34,-113.5C104.93,-113.5 117.52,-113.5 129.62,-113.5"/>
<polygon fill="midnightblue" stroke="midnightblue" points="129.63,-117 139.63,-113.5 129.63,-110 129.63,-117"/>
</g>
<!-- Node9 -->
<g id="node9" class="node">
<title>Node9</title>
<g id="a_node9"><a xlink:href="classslljit_1_1_local_context.html#a832383a341ab8f0c965a2459a42a0a31" target="_top" xlink:title=" ">
<polygon fill="none" stroke="black" points="140,-49.5 140,-79.5 237,-79.5 237,-49.5 140,-49.5"/>
<text text-anchor="start" x="148" y="-67.5" font-family="Helvetica,sans-Serif" font-size="10.00">slljit::LocalContext</text>
<text text-anchor="middle" x="188.5" y="-56.5" font-family="Helvetica,sans-Serif" font-size="10.00">::pop_scope</text>
</a>
</g>
</g>
<!-- Node1&#45;&gt;Node9 -->
<g id="edge10" class="edge">
<title>Node1&#45;&gt;Node9</title>
<path fill="none" stroke="midnightblue" d="M90.65,-98.4C104.49,-93.55 119.98,-88.13 134.44,-83.07"/>
<polygon fill="midnightblue" stroke="midnightblue" points="135.97,-86.24 144.25,-79.64 133.66,-79.64 135.97,-86.24"/>
</g>
<!-- Node10 -->
<g id="node10" class="node">
<title>Node10</title>
<g id="a_node10"><a xlink:href="classslljit_1_1_local_context.html#acf26c98f0241214747f19870934ee7b1" target="_top" xlink:title=" ">
<polygon fill="none" stroke="black" points="140,-0.5 140,-30.5 237,-30.5 237,-0.5 140,-0.5"/>
<text text-anchor="start" x="148" y="-18.5" font-family="Helvetica,sans-Serif" font-size="10.00">slljit::LocalContext</text>
<text text-anchor="middle" x="188.5" y="-7.5" font-family="Helvetica,sans-Serif" font-size="10.00">::push_scope</text>
</a>
</g>
</g>
<!-- Node1&#45;&gt;Node10 -->
<g id="edge11" class="edge">
<title>Node1&#45;&gt;Node10</title>
<path fill="none" stroke="midnightblue" d="M60.97,-98.48C76.19,-82.21 102.34,-56.34 129,-39.5 131.44,-37.96 133.99,-36.49 136.61,-35.08"/>
<polygon fill="midnightblue" stroke="midnightblue" points="138.3,-38.14 145.69,-30.55 135.18,-31.88 138.3,-38.14"/>
</g>
<!-- Node3 -->
<g id="node3" class="node">
<title>Node3</title>
<g id="a_node3"><a xlink:href="namespaceslljit.html#ab200d7cf320fef1a4045511b03b4168b" target="_top" xlink:title="Translates TypeID types to llvm types.">
<polygon fill="none" stroke="black" points="292,-338 292,-357 391,-357 391,-338 292,-338"/>
<text text-anchor="middle" x="341.5" y="-345" font-family="Helvetica,sans-Serif" font-size="10.00">slljit::get_llvm_type</text>
</a>
</g>
</g>
<!-- Node2&#45;&gt;Node3 -->
<g id="edge2" class="edge">
<title>Node2&#45;&gt;Node3</title>
<path fill="none" stroke="midnightblue" d="M200.51,-262.19C217.53,-276.83 251.64,-304.84 284,-323.5 290.54,-327.27 297.78,-330.79 304.84,-333.91"/>
<polygon fill="midnightblue" stroke="midnightblue" points="303.7,-337.23 314.27,-337.9 306.43,-330.78 303.7,-337.23"/>
</g>
<!-- Node2&#45;&gt;Node4 -->
<g id="edge4" class="edge">
<title>Node2&#45;&gt;Node4</title>
<path fill="none" stroke="midnightblue" d="M208.51,-262.04C227.22,-270.96 256.85,-283.89 284,-290.5 330.57,-301.84 384.82,-306.47 424.83,-308.33"/>
<polygon fill="midnightblue" stroke="midnightblue" points="424.8,-311.84 434.94,-308.76 425.1,-304.84 424.8,-311.84"/>
</g>
<!-- Node5 -->
<g id="node5" class="node">
<title>Node5</title>
<g id="a_node5"><a xlink:href="namespaceslljit.html#a8fff8c5a53d6ca4875a058b06b6d60e6" target="_top" xlink:title="Checks if value type is floating point type.">
<polygon fill="none" stroke="black" points="284,-262 284,-281 399,-281 399,-262 284,-262"/>
<text text-anchor="middle" x="341.5" y="-269" font-family="Helvetica,sans-Serif" font-size="10.00">slljit::isFloatingPointTy</text>
</a>
</g>
</g>
<!-- Node2&#45;&gt;Node5 -->
<g id="edge5" class="edge">
<title>Node2&#45;&gt;Node5</title>
<path fill="none" stroke="midnightblue" d="M248.31,-259.9C256.56,-260.94 265.08,-262.01 273.46,-263.06"/>
<polygon fill="midnightblue" stroke="midnightblue" points="273.22,-266.56 283.58,-264.34 274.1,-259.62 273.22,-266.56"/>
</g>
<!-- Node6 -->
<g id="node6" class="node">
<title>Node6</title>
<g id="a_node6"><a xlink:href="namespaceslljit.html#a3a3394e16b561f11dd00a8532ee034e4" target="_top" xlink:title="Checks if value type is integer type.">
<polygon fill="none" stroke="black" points="298,-224 298,-243 385,-243 385,-224 298,-224"/>
<text text-anchor="middle" x="341.5" y="-231" font-family="Helvetica,sans-Serif" font-size="10.00">slljit::isIntegerTy</text>
</a>
</g>
</g>
<!-- Node2&#45;&gt;Node6 -->
<g id="edge6" class="edge">
<title>Node2&#45;&gt;Node6</title>
<path fill="none" stroke="midnightblue" d="M248.31,-245.1C261.38,-243.46 275.15,-241.72 287.95,-240.11"/>
<polygon fill="midnightblue" stroke="midnightblue" points="288.49,-243.57 297.97,-238.85 287.61,-236.63 288.49,-243.57"/>
</g>
<!-- Node7 -->
<g id="node7" class="node">
<title>Node7</title>
<g id="a_node7"><a xlink:href="namespaceslljit.html#a4a92e29091af0a9f6c8d1499beccc810" target="_top" xlink:title=" ">
<polygon fill="none" stroke="black" points="303,-186 303,-205 380,-205 380,-186 303,-186"/>
<text text-anchor="middle" x="341.5" y="-193" font-family="Helvetica,sans-Serif" font-size="10.00">slljit::isSigned</text>
</a>
</g>
</g>
<!-- Node2&#45;&gt;Node7 -->
<g id="edge7" class="edge">
<title>Node2&#45;&gt;Node7</title>
<path fill="none" stroke="midnightblue" d="M212.27,-242.91C231.32,-234.99 259.28,-223.62 284,-214.5 289.6,-212.44 295.54,-210.34 301.39,-208.32"/>
<polygon fill="midnightblue" stroke="midnightblue" points="302.72,-211.57 311.06,-205.04 300.47,-204.94 302.72,-211.57"/>
</g>
<!-- Node3&#45;&gt;Node4 -->
<g id="edge3" class="edge">
<title>Node3&#45;&gt;Node4</title>
<path fill="none" stroke="midnightblue" d="M377.83,-337.91C392.12,-334.03 408.98,-329.45 424.96,-325.12"/>
<polygon fill="midnightblue" stroke="midnightblue" points="426.02,-328.46 434.75,-322.46 424.19,-321.7 426.02,-328.46"/>
</g>
</g>
</svg>
