<?xml version="1.0" encoding="UTF-8" standalone="no"?>
<!DOCTYPE svg PUBLIC "-//W3C//DTD SVG 1.1//EN"
 "http://www.w3.org/Graphics/SVG/1.1/DTD/svg11.dtd">
<!-- Generated by graphviz version 3.0.0 (20220226.1711)
 -->
<!-- Title: slljit::Tokenizer Pages: 1 -->
<svg width="351pt" height="314pt"
 viewBox="0.00 0.00 351.00 314.00" xmlns="http://www.w3.org/2000/svg" xmlns:xlink="http://www.w3.org/1999/xlink">
<g id="graph0" class="graph" transform="scale(1 1) rotate(0) translate(4 310)">
<title>slljit::Tokenizer</title>
<!-- Node1 -->
<g id="node1" class="node">
<title>Node1</title>
<g id="a_node1"><a xlink:title="Used to transform source into token stream.">
<polygon fill="#bfbfbf" stroke="black" points="261,-131.5 261,-150.5 343,-150.5 343,-131.5 261,-131.5"/>
<text text-anchor="middle" x="302" y="-138.5" font-family="Helvetica,sans-Serif" font-size="10.00">slljit::Tokenizer</text>
</a>
</g>
</g>
<!-- Node2 -->
<g id="node2" class="node">
<title>Node2</title>
<g id="a_node2"><a xlink:title=" ">
<polygon fill="none" stroke="black" points="42,-259.5 42,-278.5 83,-278.5 83,-259.5 42,-259.5"/>
<text text-anchor="middle" x="62.5" y="-266.5" font-family="Helvetica,sans-Serif" font-size="10.00">string</text>
</a>
</g>
</g>
<!-- Node2&#45;&gt;Node1 -->
<g id="edge1" class="edge">
<title>Node2&#45;&gt;Node1</title>
<path fill="none" stroke="#9a32cd" stroke-dasharray="5,2" d="M93.44,-272.7C131.57,-275.8 197.93,-275.67 243,-245 277.01,-221.86 293.19,-171.85 298.71,-150.73"/>
<polygon fill="#9a32cd" stroke="#9a32cd" points="93.3,-269.17 83.01,-271.71 92.64,-276.14 93.3,-269.17"/>
<text text-anchor="middle" x="193" y="-298" font-family="Helvetica,sans-Serif" font-size="10.00"> IdentifierStr</text>
<text text-anchor="middle" x="193" y="-287" font-family="Helvetica,sans-Serif" font-size="10.00">LiteralStr</text>
<text text-anchor="middle" x="193" y="-276" font-family="Helvetica,sans-Serif" font-size="10.00">TypeIdentifierStr</text>
</g>
<!-- Node3 -->
<g id="node3" class="node">
<title>Node3</title>
<g id="a_node3"><a xlink:title=" ">
<polygon fill="none" stroke="black" points="30.5,-221.5 30.5,-240.5 94.5,-240.5 94.5,-221.5 30.5,-221.5"/>
<text text-anchor="middle" x="62.5" y="-228.5" font-family="Helvetica,sans-Serif" font-size="10.00">string_view</text>
</a>
</g>
</g>
<!-- Node3&#45;&gt;Node1 -->
<g id="edge2" class="edge">
<title>Node3&#45;&gt;Node1</title>
<path fill="none" stroke="#9a32cd" stroke-dasharray="5,2" d="M104.84,-232.41C142.87,-231.99 199.75,-226.96 243,-204 266.9,-191.31 286.13,-164.82 295.25,-150.57"/>
<polygon fill="#9a32cd" stroke="#9a32cd" points="104.64,-228.91 94.64,-232.41 104.64,-235.91 104.64,-228.91"/>
<text text-anchor="middle" x="193" y="-233" font-family="Helvetica,sans-Serif" font-size="10.00"> source_code</text>
</g>
<!-- Node4 -->
<g id="node4" class="node">
<title>Node4</title>
<g id="a_node4"><a xlink:title=" ">
<polygon fill="none" stroke="black" points="41,-167.5 41,-186.5 84,-186.5 84,-167.5 41,-167.5"/>
<text text-anchor="middle" x="62.5" y="-174.5" font-family="Helvetica,sans-Serif" font-size="10.00">size_t</text>
</a>
</g>
</g>
<!-- Node4&#45;&gt;Node1 -->
<g id="edge3" class="edge">
<title>Node4&#45;&gt;Node1</title>
<path fill="none" stroke="#9a32cd" stroke-dasharray="5,2" d="M94.31,-173.56C130.15,-169.39 191.03,-161.84 243,-153 248.78,-152.02 254.86,-150.88 260.82,-149.7"/>
<polygon fill="#9a32cd" stroke="#9a32cd" points="93.57,-170.12 84.03,-174.74 94.36,-177.07 93.57,-170.12"/>
<text text-anchor="middle" x="193" y="-192" font-family="Helvetica,sans-Serif" font-size="10.00"> line_char_count</text>
<text text-anchor="middle" x="193" y="-181" font-family="Helvetica,sans-Serif" font-size="10.00">line_count</text>
<text text-anchor="middle" x="193" y="-170" font-family="Helvetica,sans-Serif" font-size="10.00">source_idx</text>
</g>
<!-- Node5 -->
<g id="node5" class="node">
<title>Node5</title>
<g id="a_node5"><a xlink:title=" ">
<polygon fill="none" stroke="black" points="8,-129.5 8,-148.5 117,-148.5 117,-129.5 8,-129.5"/>
<text text-anchor="middle" x="62.5" y="-136.5" font-family="Helvetica,sans-Serif" font-size="10.00">pair&lt; size_t, size_t &gt;</text>
</a>
</g>
</g>
<!-- Node5&#45;&gt;Node1 -->
<g id="edge4" class="edge">
<title>Node5&#45;&gt;Node1</title>
<path fill="none" stroke="#9a32cd" stroke-dasharray="5,2" d="M127.35,-139.54C169.86,-139.9 224.4,-140.35 260.91,-140.66"/>
<polygon fill="#9a32cd" stroke="#9a32cd" points="127.12,-136.04 117.1,-139.45 127.07,-143.04 127.12,-136.04"/>
<text text-anchor="middle" x="193" y="-143" font-family="Helvetica,sans-Serif" font-size="10.00"> tok_location</text>
</g>
<!-- Node6 -->
<g id="node6" class="node">
<title>Node6</title>
<g id="a_node6"><a xlink:title=" ">
<polygon fill="none" stroke="black" points="2,-88.5 2,-107.5 123,-107.5 123,-88.5 2,-88.5"/>
<text text-anchor="middle" x="62.5" y="-95.5" font-family="Helvetica,sans-Serif" font-size="10.00">static const set&lt; char &gt;</text>
</a>
</g>
</g>
<!-- Node6&#45;&gt;Node1 -->
<g id="edge5" class="edge">
<title>Node6&#45;&gt;Node1</title>
<path fill="none" stroke="#9a32cd" stroke-dasharray="5,2" d="M133.26,-97.93C166.93,-99.38 207.6,-103.33 243,-113 257.89,-117.06 273.58,-124.88 284.88,-131.23"/>
<polygon fill="#9a32cd" stroke="#9a32cd" points="133.18,-94.42 123.06,-97.55 132.92,-101.42 133.18,-94.42"/>
<text text-anchor="middle" x="193" y="-127" font-family="Helvetica,sans-Serif" font-size="10.00"> identifier_charset</text>
<text text-anchor="middle" x="193" y="-116" font-family="Helvetica,sans-Serif" font-size="10.00">identifier_start_charset</text>
</g>
<!-- Node7 -->
<g id="node7" class="node">
<title>Node7</title>
<g id="a_node7"><a xlink:title=" ">
<polygon fill="none" stroke="black" points="0,-39 0,-69 125,-69 125,-39 0,-39"/>
<text text-anchor="start" x="8" y="-57" font-family="Helvetica,sans-Serif" font-size="10.00">static const map&lt; string,</text>
<text text-anchor="middle" x="62.5" y="-46" font-family="Helvetica,sans-Serif" font-size="10.00"> Token &gt;</text>
</a>
</g>
</g>
<!-- Node7&#45;&gt;Node1 -->
<g id="edge6" class="edge">
<title>Node7&#45;&gt;Node1</title>
<path fill="none" stroke="#9a32cd" stroke-dasharray="5,2" d="M135.39,-55.46C169.55,-58.63 210.02,-66.13 243,-83 265.57,-94.54 284.79,-118.07 294.41,-131.34"/>
<polygon fill="#9a32cd" stroke="#9a32cd" points="135.26,-51.94 125.01,-54.61 134.69,-58.91 135.26,-51.94"/>
<text text-anchor="middle" x="193" y="-86" font-family="Helvetica,sans-Serif" font-size="10.00"> reserved_identifier_set</text>
</g>
<!-- Node8 -->
<g id="node8" class="node">
<title>Node8</title>
<g id="a_node8"><a xlink:title=" ">
<polygon fill="none" stroke="black" points="48,-0.5 48,-19.5 77,-19.5 77,-0.5 48,-0.5"/>
<text text-anchor="middle" x="62.5" y="-7.5" font-family="Helvetica,sans-Serif" font-size="10.00">int</text>
</a>
</g>
</g>
<!-- Node8&#45;&gt;Node1 -->
<g id="edge7" class="edge">
<title>Node8&#45;&gt;Node1</title>
<path fill="none" stroke="#9a32cd" stroke-dasharray="5,2" d="M87.34,-8.06C124.14,-6.3 195.49,-7.92 243,-41 275.61,-63.7 292.47,-111.11 298.44,-131.42"/>
<polygon fill="#9a32cd" stroke="#9a32cd" points="86.86,-4.58 77.09,-8.68 87.29,-11.57 86.86,-4.58"/>
<text text-anchor="middle" x="193" y="-44" font-family="Helvetica,sans-Serif" font-size="10.00"> LastChar</text>
</g>
</g>
</svg>
