<?xml version="1.0" encoding="UTF-8" standalone="no"?>
<!DOCTYPE svg PUBLIC "-//W3C//DTD SVG 1.1//EN"
 "http://www.w3.org/Graphics/SVG/1.1/DTD/svg11.dtd">
<!-- Generated by graphviz version 3.0.0 (20220226.1711)
 -->
<!-- Title: slljit::VarExprAST::codegen Pages: 1 -->
<svg width="544pt" height="356pt"
 viewBox="0.00 0.00 544.00 355.50" xmlns="http://www.w3.org/2000/svg" xmlns:xlink="http://www.w3.org/1999/xlink">
<g id="graph0" class="graph" transform="scale(1 1) rotate(0) translate(4 351.5)">
<title>slljit::VarExprAST::codegen</title>
<!-- Node1 -->
<g id="node1" class="node">
<title>Node1</title>
<g id="a_node1"><a xlink:title=" ">
<polygon fill="#bfbfbf" stroke="black" points="0,-151.5 0,-181.5 94,-181.5 94,-151.5 0,-151.5"/>
<text text-anchor="start" x="8" y="-169.5" font-family="Helvetica,sans-Serif" font-size="10.00">slljit::VarExprAST</text>
<text text-anchor="middle" x="47" y="-158.5" font-family="Helvetica,sans-Serif" font-size="10.00">::codegen</text>
</a>
</g>
</g>
<!-- Node2 -->
<g id="node2" class="node">
<title>Node2</title>
<g id="a_node2"><a xlink:href="classslljit_1_1_local_context.html#a4d3df5949ea686775e6f67adc7427f03" target="_top" xlink:title=" ">
<polygon fill="none" stroke="black" points="134.5,-302.5 134.5,-332.5 247.5,-332.5 247.5,-302.5 134.5,-302.5"/>
<text text-anchor="start" x="142.5" y="-320.5" font-family="Helvetica,sans-Serif" font-size="10.00">slljit::LocalContext</text>
<text text-anchor="middle" x="191" y="-309.5" font-family="Helvetica,sans-Serif" font-size="10.00">::check_curent_scope</text>
</a>
</g>
</g>
<!-- Node1&#45;&gt;Node2 -->
<g id="edge1" class="edge">
<title>Node1&#45;&gt;Node2</title>
<path fill="none" stroke="midnightblue" d="M54.3,-181.8C65.74,-207.87 92.29,-261.1 130,-292.5 132.01,-294.17 134.15,-295.75 136.38,-297.23"/>
<polygon fill="midnightblue" stroke="midnightblue" points="134.93,-300.44 145.32,-302.49 138.47,-294.41 134.93,-300.44"/>
</g>
<!-- Node3 -->
<g id="node3" class="node">
<title>Node3</title>
<g id="a_node3"><a xlink:href="classslljit_1_1_expr_a_s_t.html#ab28cf85dfd3847a3eef6bb0c03bab8a9" target="_top" xlink:title=" ">
<polygon fill="none" stroke="black" points="130,-264 130,-283 252,-283 252,-264 130,-264"/>
<text text-anchor="middle" x="191" y="-271" font-family="Helvetica,sans-Serif" font-size="10.00">slljit::ExprAST::codegen</text>
</a>
</g>
</g>
<!-- Node1&#45;&gt;Node3 -->
<g id="edge2" class="edge">
<title>Node1&#45;&gt;Node3</title>
<path fill="none" stroke="midnightblue" d="M58.48,-181.58C72.62,-200.86 99.56,-234.06 130,-253.5 133.85,-255.96 138.04,-258.15 142.35,-260.09"/>
<polygon fill="midnightblue" stroke="midnightblue" points="141.31,-263.45 151.89,-263.95 143.94,-256.96 141.31,-263.45"/>
</g>
<!-- Node4 -->
<g id="node4" class="node">
<title>Node4</title>
<g id="a_node4"><a xlink:href="namespaceslljit.html#a83987510d9773007d15d8ee14694003a" target="_top" xlink:title=" ">
<polygon fill="none" stroke="black" points="133,-214.5 133,-244.5 249,-244.5 249,-214.5 133,-214.5"/>
<text text-anchor="start" x="141" y="-232.5" font-family="Helvetica,sans-Serif" font-size="10.00">slljit::CreateEntryBlock</text>
<text text-anchor="middle" x="191" y="-221.5" font-family="Helvetica,sans-Serif" font-size="10.00">Alloca</text>
</a>
</g>
</g>
<!-- Node1&#45;&gt;Node4 -->
<g id="edge3" class="edge">
<title>Node1&#45;&gt;Node4</title>
<path fill="none" stroke="midnightblue" d="M79.8,-181.59C94.94,-188.68 113.34,-197.17 130,-204.5 134.42,-206.44 139.03,-208.43 143.65,-210.4"/>
<polygon fill="midnightblue" stroke="midnightblue" points="142.52,-213.72 153.1,-214.39 145.25,-207.27 142.52,-213.72"/>
</g>
<!-- Node5 -->
<g id="node5" class="node">
<title>Node5</title>
<g id="a_node5"><a xlink:href="namespaceslljit.html#a35fd5437fe4da3972add655696b4ba1e" target="_top" xlink:title="Creates explict cast.">
<polygon fill="none" stroke="black" points="131.5,-176 131.5,-195 250.5,-195 250.5,-176 131.5,-176"/>
<text text-anchor="middle" x="191" y="-183" font-family="Helvetica,sans-Serif" font-size="10.00">slljit::CreateExplictCast</text>
</a>
</g>
</g>
<!-- Node1&#45;&gt;Node5 -->
<g id="edge4" class="edge">
<title>Node1&#45;&gt;Node5</title>
<path fill="none" stroke="midnightblue" d="M94.1,-172.67C102.85,-173.84 112.16,-175.09 121.43,-176.32"/>
<polygon fill="midnightblue" stroke="midnightblue" points="121.05,-179.81 131.43,-177.66 121.98,-172.87 121.05,-179.81"/>
</g>
<!-- Node7 -->
<g id="node7" class="node">
<title>Node7</title>
<g id="a_node7"><a xlink:href="classslljit_1_1_local_context.html#acd5a146c139b01ff0c5d1be79e187749" target="_top" xlink:title=" ">
<polygon fill="none" stroke="black" points="439,-284.5 439,-314.5 536,-314.5 536,-284.5 439,-284.5"/>
<text text-anchor="start" x="447" y="-302.5" font-family="Helvetica,sans-Serif" font-size="10.00">slljit::LocalContext</text>
<text text-anchor="middle" x="487.5" y="-291.5" font-family="Helvetica,sans-Serif" font-size="10.00">::getBuilder</text>
</a>
</g>
</g>
<!-- Node1&#45;&gt;Node7 -->
<g id="edge11" class="edge">
<title>Node1&#45;&gt;Node7</title>
<path fill="none" stroke="midnightblue" d="M94.06,-153.19C165.3,-135.37 304.3,-111.92 403,-166.5 444.59,-189.49 468.25,-242.83 479.12,-274.53"/>
<polygon fill="midnightblue" stroke="midnightblue" points="475.9,-275.95 482.32,-284.38 482.56,-273.79 475.9,-275.95"/>
</g>
<!-- Node11 -->
<g id="node11" class="node">
<title>Node11</title>
<g id="a_node11"><a xlink:href="classslljit_1_1_local_context.html#a7b1975b6c4314126ab18642dc180d596" target="_top" xlink:title=" ">
<polygon fill="none" stroke="black" points="142.5,-88.5 142.5,-118.5 239.5,-118.5 239.5,-88.5 142.5,-88.5"/>
<text text-anchor="start" x="150.5" y="-106.5" font-family="Helvetica,sans-Serif" font-size="10.00">slljit::LocalContext</text>
<text text-anchor="middle" x="191" y="-95.5" font-family="Helvetica,sans-Serif" font-size="10.00">::getContext</text>
</a>
</g>
</g>
<!-- Node1&#45;&gt;Node11 -->
<g id="edge12" class="edge">
<title>Node1&#45;&gt;Node11</title>
<path fill="none" stroke="midnightblue" d="M82.01,-151.41C101.37,-142.82 125.81,-131.98 146.54,-122.78"/>
<polygon fill="midnightblue" stroke="midnightblue" points="148.05,-125.94 155.77,-118.69 145.21,-119.54 148.05,-125.94"/>
</g>
<!-- Node12 -->
<g id="node12" class="node">
<title>Node12</title>
<g id="a_node12"><a xlink:href="classslljit_1_1_expr_a_s_t.html#a22ae30dc097ccd2f50b0d8ab9a399792" target="_top" xlink:title=" ">
<polygon fill="none" stroke="black" points="131.5,-50 131.5,-69 250.5,-69 250.5,-50 131.5,-50"/>
<text text-anchor="middle" x="191" y="-57" font-family="Helvetica,sans-Serif" font-size="10.00">slljit::ExprAST::getType</text>
</a>
</g>
</g>
<!-- Node1&#45;&gt;Node12 -->
<g id="edge13" class="edge">
<title>Node1&#45;&gt;Node12</title>
<path fill="none" stroke="midnightblue" d="M58.4,-151.17C72.44,-131.59 99.29,-97.91 130,-78.5 133.19,-76.48 136.61,-74.67 140.14,-73.03"/>
<polygon fill="midnightblue" stroke="midnightblue" points="141.75,-76.15 149.67,-69.11 139.09,-69.68 141.75,-76.15"/>
</g>
<!-- Node13 -->
<g id="node13" class="node">
<title>Node13</title>
<g id="a_node13"><a xlink:href="classslljit_1_1_local_context.html#aa40a5e52e398faf36dd738a66c2ea503" target="_top" xlink:title=" ">
<polygon fill="none" stroke="black" points="134.5,-0.5 134.5,-30.5 247.5,-30.5 247.5,-0.5 134.5,-0.5"/>
<text text-anchor="start" x="142.5" y="-18.5" font-family="Helvetica,sans-Serif" font-size="10.00">slljit::LocalContext</text>
<text text-anchor="middle" x="191" y="-7.5" font-family="Helvetica,sans-Serif" font-size="10.00">::push_var_into_scope</text>
</a>
</g>
</g>
<!-- Node1&#45;&gt;Node13 -->
<g id="edge14" class="edge">
<title>Node1&#45;&gt;Node13</title>
<path fill="none" stroke="midnightblue" d="M54.3,-151.2C65.74,-125.13 92.29,-71.9 130,-40.5 132.01,-38.83 134.15,-37.25 136.38,-35.77"/>
<polygon fill="midnightblue" stroke="midnightblue" points="138.47,-38.59 145.32,-30.51 134.93,-32.56 138.47,-38.59"/>
</g>
<!-- Node6 -->
<g id="node6" class="node">
<title>Node6</title>
<g id="a_node6"><a xlink:href="namespaceslljit.html#ab200d7cf320fef1a4045511b03b4168b" target="_top" xlink:title="Translates TypeID types to llvm types.">
<polygon fill="none" stroke="black" points="296,-328 296,-347 395,-347 395,-328 296,-328"/>
<text text-anchor="middle" x="345.5" y="-335" font-family="Helvetica,sans-Serif" font-size="10.00">slljit::get_llvm_type</text>
</a>
</g>
</g>
<!-- Node5&#45;&gt;Node6 -->
<g id="edge5" class="edge">
<title>Node5&#45;&gt;Node6</title>
<path fill="none" stroke="midnightblue" d="M238.18,-195C243.27,-197.47 248.04,-200.58 252,-204.5 288.3,-240.35 253.45,-275.96 288,-313.5 291.52,-317.32 295.75,-320.56 300.28,-323.3"/>
<polygon fill="midnightblue" stroke="midnightblue" points="298.8,-326.47 309.29,-327.96 302.02,-320.25 298.8,-326.47"/>
</g>
<!-- Node5&#45;&gt;Node7 -->
<g id="edge7" class="edge">
<title>Node5&#45;&gt;Node7</title>
<path fill="none" stroke="midnightblue" d="M236.81,-195.07C242.31,-197.53 247.55,-200.62 252,-204.5 280.16,-229.08 257.41,-259.03 288,-280.5 328.58,-308.98 385.87,-311.54 428.48,-308.27"/>
<polygon fill="midnightblue" stroke="midnightblue" points="429.05,-311.73 438.7,-307.36 428.43,-304.76 429.05,-311.73"/>
</g>
<!-- Node8 -->
<g id="node8" class="node">
<title>Node8</title>
<g id="a_node8"><a xlink:href="namespaceslljit.html#a8fff8c5a53d6ca4875a058b06b6d60e6" target="_top" xlink:title="Checks if value type is floating point type.">
<polygon fill="none" stroke="black" points="288,-252 288,-271 403,-271 403,-252 288,-252"/>
<text text-anchor="middle" x="345.5" y="-259" font-family="Helvetica,sans-Serif" font-size="10.00">slljit::isFloatingPointTy</text>
</a>
</g>
</g>
<!-- Node5&#45;&gt;Node8 -->
<g id="edge8" class="edge">
<title>Node5&#45;&gt;Node8</title>
<path fill="none" stroke="midnightblue" d="M231.99,-195.04C238.94,-197.56 245.89,-200.67 252,-204.5 271.72,-216.85 268.39,-229.98 288,-242.5 291.15,-244.51 294.54,-246.34 298.03,-247.98"/>
<polygon fill="midnightblue" stroke="midnightblue" points="296.86,-251.29 307.44,-251.94 299.58,-244.83 296.86,-251.29"/>
</g>
<!-- Node9 -->
<g id="node9" class="node">
<title>Node9</title>
<g id="a_node9"><a xlink:href="namespaceslljit.html#a3a3394e16b561f11dd00a8532ee034e4" target="_top" xlink:title="Checks if value type is integer type.">
<polygon fill="none" stroke="black" points="302,-214 302,-233 389,-233 389,-214 302,-214"/>
<text text-anchor="middle" x="345.5" y="-221" font-family="Helvetica,sans-Serif" font-size="10.00">slljit::isIntegerTy</text>
</a>
</g>
</g>
<!-- Node5&#45;&gt;Node9 -->
<g id="edge9" class="edge">
<title>Node5&#45;&gt;Node9</title>
<path fill="none" stroke="midnightblue" d="M230.48,-195.09C250.52,-200.08 275.2,-206.23 296.48,-211.53"/>
<polygon fill="midnightblue" stroke="midnightblue" points="295.74,-214.96 306.29,-213.98 297.44,-208.17 295.74,-214.96"/>
</g>
<!-- Node10 -->
<g id="node10" class="node">
<title>Node10</title>
<g id="a_node10"><a xlink:href="namespaceslljit.html#a4a92e29091af0a9f6c8d1499beccc810" target="_top" xlink:title=" ">
<polygon fill="none" stroke="black" points="307,-176 307,-195 384,-195 384,-176 307,-176"/>
<text text-anchor="middle" x="345.5" y="-183" font-family="Helvetica,sans-Serif" font-size="10.00">slljit::isSigned</text>
</a>
</g>
</g>
<!-- Node5&#45;&gt;Node10 -->
<g id="edge10" class="edge">
<title>Node5&#45;&gt;Node10</title>
<path fill="none" stroke="midnightblue" d="M250.52,-185.5C265.66,-185.5 281.79,-185.5 296.33,-185.5"/>
<polygon fill="midnightblue" stroke="midnightblue" points="296.61,-189 306.61,-185.5 296.61,-182 296.61,-189"/>
</g>
<!-- Node6&#45;&gt;Node7 -->
<g id="edge6" class="edge">
<title>Node6&#45;&gt;Node7</title>
<path fill="none" stroke="midnightblue" d="M381.83,-327.91C396.12,-324.03 412.98,-319.45 428.96,-315.12"/>
<polygon fill="midnightblue" stroke="midnightblue" points="430.02,-318.46 438.75,-312.46 428.19,-311.7 430.02,-318.46"/>
</g>
</g>
</svg>
