<?xml version="1.0" encoding="UTF-8" standalone="no"?>
<!DOCTYPE svg PUBLIC "-//W3C//DTD SVG 1.1//EN"
 "http://www.w3.org/Graphics/SVG/1.1/DTD/svg11.dtd">
<!-- Generated by graphviz version 3.0.0 (20220226.1711)
 -->
<!-- Title: slljit::Tokenizer::get_source_location Pages: 1 -->
<svg width="2146pt" height="627pt"
 viewBox="0.00 0.00 2146.00 627.31" xmlns="http://www.w3.org/2000/svg" xmlns:xlink="http://www.w3.org/1999/xlink">
<g id="graph0" class="graph" transform="scale(1 1) rotate(0) translate(4 623.31)">
<title>slljit::Tokenizer::get_source_location</title>
<!-- Node1 -->
<g id="node1" class="node">
<title>Node1</title>
<g id="a_node1"><a xlink:title=" ">
<polygon fill="#bfbfbf" stroke="black" points="2034,-232.31 2034,-262.31 2138,-262.31 2138,-232.31 2034,-232.31"/>
<text text-anchor="start" x="2042" y="-250.31" font-family="Helvetica,sans-Serif" font-size="10.00">slljit::Tokenizer::</text>
<text text-anchor="middle" x="2086" y="-239.31" font-family="Helvetica,sans-Serif" font-size="10.00">get_source_location</text>
</a>
</g>
</g>
<!-- Node2 -->
<g id="node2" class="node">
<title>Node2</title>
<g id="a_node2"><a xlink:href="classslljit_1_1_parser.html#a4c93eea2333b7705c6aea18df2105196" target="_top" xlink:title=" ">
<polygon fill="none" stroke="black" points="1909,-314.31 1909,-344.31 1998,-344.31 1998,-314.31 1909,-314.31"/>
<text text-anchor="start" x="1917" y="-332.31" font-family="Helvetica,sans-Serif" font-size="10.00">slljit::Parser::find</text>
<text text-anchor="middle" x="1953.5" y="-321.31" font-family="Helvetica,sans-Serif" font-size="10.00">_var_in_scope</text>
</a>
</g>
</g>
<!-- Node1&#45;&gt;Node2 -->
<g id="edge1" class="edge">
<title>Node1&#45;&gt;Node2</title>
<path fill="none" stroke="midnightblue" d="M2052.38,-267.81C2029.52,-282.17 1999.47,-301.06 1978.73,-314.09"/>
<polygon fill="midnightblue" stroke="midnightblue" points="2054.46,-270.64 2061.06,-262.35 2050.73,-264.71 2054.46,-270.64"/>
</g>
<!-- Node3 -->
<g id="node3" class="node">
<title>Node3</title>
<g id="a_node3"><a xlink:href="classslljit_1_1_parser.html#a25cfefcbeea85744e23370d3a6f8ad5b" target="_top" xlink:title=" ">
<polygon fill="none" stroke="black" points="1717,-297.81 1717,-316.81 1873,-316.81 1873,-297.81 1717,-297.81"/>
<text text-anchor="middle" x="1795" y="-304.81" font-family="Helvetica,sans-Serif" font-size="10.00">slljit::Parser::ParseIdentifierExpr</text>
</a>
</g>
</g>
<!-- Node1&#45;&gt;Node3 -->
<g id="edge31" class="edge">
<title>Node1&#45;&gt;Node3</title>
<path fill="none" stroke="midnightblue" d="M2024.15,-259.95C1969.85,-271.22 1891.51,-287.48 1842.2,-297.72"/>
<polygon fill="midnightblue" stroke="midnightblue" points="2024.92,-263.36 2034,-257.9 2023.5,-256.51 2024.92,-263.36"/>
</g>
<!-- Node4 -->
<g id="node4" class="node">
<title>Node4</title>
<g id="a_node4"><a xlink:href="classslljit_1_1_parser.html#a45cb3e4f600e8e2c253490e7d878e8cd" target="_top" xlink:title=" ">
<polygon fill="none" stroke="black" points="1547,-379.81 1547,-398.81 1681,-398.81 1681,-379.81 1547,-379.81"/>
<text text-anchor="middle" x="1614" y="-386.81" font-family="Helvetica,sans-Serif" font-size="10.00">slljit::Parser::ParsePrimary</text>
</a>
</g>
</g>
<!-- Node1&#45;&gt;Node4 -->
<g id="edge36" class="edge">
<title>Node1&#45;&gt;Node4</title>
<path fill="none" stroke="midnightblue" d="M2076.38,-271.96C2064.16,-302.81 2038.68,-354.61 1998,-379.31 1886.15,-447.25 1720,-416.67 1649.08,-398.87"/>
<polygon fill="midnightblue" stroke="midnightblue" points="2079.74,-272.96 2080.01,-262.37 2073.19,-270.48 2079.74,-272.96"/>
</g>
<!-- Node8 -->
<g id="node8" class="node">
<title>Node8</title>
<g id="a_node8"><a xlink:href="classslljit_1_1_parser.html#acc431005ac3dd38732083d7a1bb0eab2" target="_top" xlink:title=" ">
<polygon fill="none" stroke="black" points="851,-313.81 851,-332.81 1015,-332.81 1015,-313.81 851,-313.81"/>
<text text-anchor="middle" x="933" y="-320.81" font-family="Helvetica,sans-Serif" font-size="10.00">slljit::Parser::ParseExpressionList</text>
</a>
</g>
</g>
<!-- Node1&#45;&gt;Node8 -->
<g id="edge29" class="edge">
<title>Node1&#45;&gt;Node8</title>
<path fill="none" stroke="midnightblue" d="M2023.66,-247.31C1965.16,-247.31 1874.57,-247.31 1796,-247.31 1796,-247.31 1796,-247.31 1292,-247.31 1165.56,-247.31 1019.37,-293.24 960.54,-313.69"/>
<polygon fill="midnightblue" stroke="midnightblue" points="2023.84,-250.81 2033.84,-247.31 2023.84,-243.81 2023.84,-250.81"/>
</g>
<!-- Node9 -->
<g id="node9" class="node">
<title>Node9</title>
<g id="a_node9"><a xlink:href="classslljit_1_1_parser.html#a81023e7a6221eb6b92027bd21433c9dd" target="_top" xlink:title="forexpr ::= &#39;for&#39; identifier &#39;=&#39; expr &#39;,&#39; expr (&#39;,&#39; expr)? &#39;in&#39; expression">
<polygon fill="none" stroke="black" points="681,-487.81 681,-506.81 815,-506.81 815,-487.81 681,-487.81"/>
<text text-anchor="middle" x="748" y="-494.81" font-family="Helvetica,sans-Serif" font-size="10.00">slljit::Parser::ParseForExpr</text>
</a>
</g>
</g>
<!-- Node1&#45;&gt;Node9 -->
<g id="edge30" class="edge">
<title>Node1&#45;&gt;Node9</title>
<path fill="none" stroke="midnightblue" d="M2082.1,-272.41C2075.28,-321.73 2054.35,-432.78 1998,-505.31 1934.75,-586.72 1899.09,-619.31 1796,-619.31 1796,-619.31 1796,-619.31 1124.5,-619.31 979.18,-619.31 817.03,-535.65 765.59,-506.89"/>
<polygon fill="midnightblue" stroke="midnightblue" points="2085.59,-272.69 2083.41,-262.32 2078.65,-271.78 2085.59,-272.69"/>
</g>
<!-- Node10 -->
<g id="node10" class="node">
<title>Node10</title>
<g id="a_node10"><a xlink:href="classslljit_1_1_parser.html#a149f5e88cb03aa08c388e6320c6c1bac" target="_top" xlink:title="ifexpr ::= &#39;if&#39; expression &#39;then&#39; expression &#39;else&#39; expression">
<polygon fill="none" stroke="black" points="685.5,-332.81 685.5,-351.81 810.5,-351.81 810.5,-332.81 685.5,-332.81"/>
<text text-anchor="middle" x="748" y="-339.81" font-family="Helvetica,sans-Serif" font-size="10.00">slljit::Parser::ParseIfExpr</text>
</a>
</g>
</g>
<!-- Node1&#45;&gt;Node10 -->
<g id="edge32" class="edge">
<title>Node1&#45;&gt;Node10</title>
<path fill="none" stroke="midnightblue" d="M2023.7,-234.53C1965.41,-223.49 1875.13,-209.31 1796,-209.31 1796,-209.31 1796,-209.31 1292,-209.31 1084.3,-209.31 844.4,-302.25 771.28,-332.75"/>
<polygon fill="midnightblue" stroke="midnightblue" points="2023.36,-238.02 2033.85,-236.48 2024.69,-231.15 2023.36,-238.02"/>
</g>
<!-- Node11 -->
<g id="node11" class="node">
<title>Node11</title>
<g id="a_node11"><a xlink:href="classslljit_1_1_parser.html#aa9a9ce164e114ad7f347f32329f5a5a2" target="_top" xlink:title="definition ::= &#39;def&#39; prototype expression">
<polygon fill="none" stroke="black" points="690,-112.31 690,-142.31 806,-142.31 806,-112.31 690,-112.31"/>
<text text-anchor="start" x="698" y="-130.31" font-family="Helvetica,sans-Serif" font-size="10.00">slljit::Parser::ParseTop</text>
<text text-anchor="middle" x="748" y="-119.31" font-family="Helvetica,sans-Serif" font-size="10.00">LevelTypedExpression</text>
</a>
</g>
</g>
<!-- Node1&#45;&gt;Node11 -->
<g id="edge42" class="edge">
<title>Node1&#45;&gt;Node11</title>
<path fill="none" stroke="midnightblue" d="M2082.68,-221.95C2077.04,-176.34 2058.3,-80.91 1998,-34.31 1926.33,21.07 1886.58,-7.31 1796,-7.31 1796,-7.31 1796,-7.31 1124.5,-7.31 988.31,-7.31 836.95,-79.83 776.3,-112.12"/>
<polygon fill="midnightblue" stroke="midnightblue" points="2079.23,-222.61 2083.82,-232.16 2086.19,-221.83 2079.23,-222.61"/>
</g>
<!-- Node13 -->
<g id="node13" class="node">
<title>Node13</title>
<g id="a_node13"><a xlink:href="classslljit_1_1_parser.html#ae2d3d6534b87da7f237c19129a464bda" target="_top" xlink:title="top ::= definition | external | expression | &#39;;&#39;">
<polygon fill="none" stroke="black" points="360,-136.81 360,-155.81 476,-155.81 476,-136.81 360,-136.81"/>
<text text-anchor="middle" x="418" y="-143.81" font-family="Helvetica,sans-Serif" font-size="10.00">slljit::Parser::MainLoop</text>
</a>
</g>
</g>
<!-- Node1&#45;&gt;Node13 -->
<g id="edge28" class="edge">
<title>Node1&#45;&gt;Node13</title>
<path fill="none" stroke="midnightblue" d="M2074.39,-223.21C2060.82,-195.33 2034.62,-150.23 1998,-126.31 1921.15,-76.12 1887.79,-83.31 1796,-83.31 1796,-83.31 1796,-83.31 747,-83.31 642.21,-83.31 613.23,-75.24 512,-102.31 483.36,-109.97 452.76,-126.2 434.78,-136.66"/>
<polygon fill="midnightblue" stroke="midnightblue" points="2071.23,-224.72 2078.65,-232.28 2077.57,-221.74 2071.23,-224.72"/>
</g>
<!-- Node17 -->
<g id="node17" class="node">
<title>Node17</title>
<g id="a_node17"><a xlink:href="classslljit_1_1_parser.html#a6e2e0f6a2cc445f3a956db59c8d2da66" target="_top" xlink:title="parenexpr ::= &#39;(&#39; expression &#39;)&#39;">
<polygon fill="none" stroke="black" points="860,-495.81 860,-514.81 1006,-514.81 1006,-495.81 860,-495.81"/>
<text text-anchor="middle" x="933" y="-502.81" font-family="Helvetica,sans-Serif" font-size="10.00">slljit::Parser::ParseParenExpr</text>
</a>
</g>
</g>
<!-- Node1&#45;&gt;Node17 -->
<g id="edge35" class="edge">
<title>Node1&#45;&gt;Node17</title>
<path fill="none" stroke="midnightblue" d="M2077.1,-272.44C2050.92,-350.13 1959.31,-581.31 1796,-581.31 1796,-581.31 1796,-581.31 1292,-581.31 1165.56,-581.31 1019.37,-535.39 960.54,-514.94"/>
<polygon fill="midnightblue" stroke="midnightblue" points="2080.55,-273.13 2080.36,-262.53 2073.9,-270.94 2080.55,-273.13"/>
</g>
<!-- Node18 -->
<g id="node18" class="node">
<title>Node18</title>
<g id="a_node18"><a xlink:href="classslljit_1_1_parser.html#a435877d3f2869d140a7cca646546a114" target="_top" xlink:title="varexpr ::= &#39;g_var&#39; identifier (&#39;=&#39; expression)?">
<polygon fill="none" stroke="black" points="865.5,-215.81 865.5,-234.81 1000.5,-234.81 1000.5,-215.81 865.5,-215.81"/>
<text text-anchor="middle" x="933" y="-222.81" font-family="Helvetica,sans-Serif" font-size="10.00">slljit::Parser::ParseVarExpr</text>
</a>
</g>
</g>
<!-- Node1&#45;&gt;Node18 -->
<g id="edge43" class="edge">
<title>Node1&#45;&gt;Node18</title>
<path fill="none" stroke="midnightblue" d="M2056.61,-226.16C2040.29,-215.12 2018.94,-202.45 1998,-195.31 1912.42,-166.15 1886.41,-171.31 1796,-171.31 1796,-171.31 1796,-171.31 1292,-171.31 1184.36,-171.31 1156.99,-176.56 1051,-195.31 1021.89,-200.47 989.35,-209.04 965.99,-215.71"/>
<polygon fill="midnightblue" stroke="midnightblue" points="2054.91,-229.25 2065.12,-232.09 2058.91,-223.5 2054.91,-229.25"/>
</g>
<!-- Node19 -->
<g id="node19" class="node">
<title>Node19</title>
<g id="a_node19"><a xlink:href="classslljit_1_1_parser.html#af9ccc5948e2cf9051c2569cc42dc3bb7" target="_top" xlink:title="numberexpr ::= number">
<polygon fill="none" stroke="black" points="1722,-363.81 1722,-382.81 1868,-382.81 1868,-363.81 1722,-363.81"/>
<text text-anchor="middle" x="1795" y="-370.81" font-family="Helvetica,sans-Serif" font-size="10.00">slljit::Parser::ParseLiteralExpr</text>
</a>
</g>
</g>
<!-- Node1&#45;&gt;Node19 -->
<g id="edge33" class="edge">
<title>Node1&#45;&gt;Node19</title>
<path fill="none" stroke="midnightblue" d="M2072.8,-271.65C2058.61,-297.07 2032.64,-335.8 1998,-354.31 1958.55,-375.4 1908.53,-380.25 1868.13,-379.77"/>
<polygon fill="midnightblue" stroke="midnightblue" points="2075.99,-273.09 2077.65,-262.62 2069.83,-269.77 2075.99,-273.09"/>
</g>
<!-- Node20 -->
<g id="node20" class="node">
<title>Node20</title>
<g id="a_node20"><a xlink:href="classslljit_1_1_parser.html#ad51a4352241881b5c6d118db9ccdec46" target="_top" xlink:title=" ">
<polygon fill="none" stroke="black" points="862,-117.81 862,-136.81 1004,-136.81 1004,-117.81 862,-117.81"/>
<text text-anchor="middle" x="933" y="-124.81" font-family="Helvetica,sans-Serif" font-size="10.00">slljit::Parser::ParsePrototype</text>
</a>
</g>
</g>
<!-- Node1&#45;&gt;Node20 -->
<g id="edge37" class="edge">
<title>Node1&#45;&gt;Node20</title>
<path fill="none" stroke="midnightblue" d="M2080.62,-222.35C2072.23,-182.73 2049.9,-106.15 1998,-69.31 1924.27,-16.99 1886.41,-45.31 1796,-45.31 1796,-45.31 1796,-45.31 1292,-45.31 1163.52,-45.31 1015.5,-96.12 958.3,-117.75"/>
<polygon fill="midnightblue" stroke="midnightblue" points="2077.2,-223.14 2082.58,-232.26 2084.07,-221.77 2077.2,-223.14"/>
</g>
<!-- Node23 -->
<g id="node23" class="node">
<title>Node23</title>
<g id="a_node23"><a xlink:href="classslljit_1_1_parser.html#acad3f159608acb847e0f693fc07fdd28" target="_top" xlink:title=" ">
<polygon fill="none" stroke="black" points="1078,-112.31 1078,-142.31 1173,-142.31 1173,-112.31 1078,-112.31"/>
<text text-anchor="start" x="1086" y="-130.31" font-family="Helvetica,sans-Serif" font-size="10.00">slljit::Parser::push</text>
<text text-anchor="middle" x="1125.5" y="-119.31" font-family="Helvetica,sans-Serif" font-size="10.00">_var_into_scope</text>
</a>
</g>
</g>
<!-- Node1&#45;&gt;Node23 -->
<g id="edge44" class="edge">
<title>Node1&#45;&gt;Node23</title>
<path fill="none" stroke="midnightblue" d="M2069.53,-224.02C2054.1,-202.84 2028.35,-172.64 1998,-157.31 1917.15,-116.49 1886.58,-130.31 1796,-130.31 1796,-130.31 1796,-130.31 1447.5,-130.31 1349.83,-130.31 1235.45,-128.91 1173.01,-128.02"/>
<polygon fill="midnightblue" stroke="midnightblue" points="2066.68,-226.05 2075.31,-232.2 2072.4,-222.01 2066.68,-226.05"/>
</g>
<!-- Node2&#45;&gt;Node3 -->
<g id="edge2" class="edge">
<title>Node2&#45;&gt;Node3</title>
<path fill="none" stroke="midnightblue" d="M1898.77,-321.76C1887.47,-320.17 1875.42,-318.48 1863.68,-316.83"/>
<polygon fill="midnightblue" stroke="midnightblue" points="1898.52,-325.26 1908.91,-323.19 1899.49,-318.33 1898.52,-325.26"/>
</g>
<!-- Node3&#45;&gt;Node4 -->
<g id="edge3" class="edge">
<title>Node3&#45;&gt;Node4</title>
<path fill="none" stroke="midnightblue" d="M1763.98,-321.07C1727.62,-337.72 1667.33,-365.34 1635.75,-379.81"/>
<polygon fill="midnightblue" stroke="midnightblue" points="1765.48,-324.23 1773.12,-316.88 1762.57,-317.86 1765.48,-324.23"/>
</g>
<!-- Node5 -->
<g id="node5" class="node">
<title>Node5</title>
<g id="a_node5"><a xlink:href="classslljit_1_1_parser.html#af8579896f39ac563d2edd14404d70f41" target="_top" xlink:title=" ">
<polygon fill="none" stroke="black" points="1386,-395.81 1386,-414.81 1511,-414.81 1511,-395.81 1386,-395.81"/>
<text text-anchor="middle" x="1448.5" y="-402.81" font-family="Helvetica,sans-Serif" font-size="10.00">slljit::Parser::ParseUnary</text>
</a>
</g>
</g>
<!-- Node4&#45;&gt;Node5 -->
<g id="edge4" class="edge">
<title>Node4&#45;&gt;Node5</title>
<path fill="none" stroke="midnightblue" d="M1536.86,-396.76C1528.2,-397.61 1519.46,-398.47 1511.02,-399.29"/>
<polygon fill="midnightblue" stroke="midnightblue" points="1537.36,-400.23 1546.97,-395.78 1536.68,-393.27 1537.36,-400.23"/>
</g>
<!-- Node5&#45;&gt;Node5 -->
<g id="edge27" class="edge">
<title>Node5&#45;&gt;Node5</title>
<path fill="none" stroke="midnightblue" d="M1477.25,-423.97C1476.04,-429.25 1466.46,-433.31 1448.5,-433.31 1421.13,-433.31 1413.22,-423.88 1424.76,-415.07"/>
<polygon fill="midnightblue" stroke="midnightblue" points="1480.19,-422.07 1472.24,-415.07 1474.09,-425.5 1480.19,-422.07"/>
</g>
<!-- Node6 -->
<g id="node6" class="node">
<title>Node6</title>
<g id="a_node6"><a xlink:href="classslljit_1_1_parser.html#ae387c9672ec50720d8cb969558aedbe9" target="_top" xlink:title=" ">
<polygon fill="none" stroke="black" points="1236,-390.31 1236,-420.31 1350,-420.31 1350,-390.31 1236,-390.31"/>
<text text-anchor="start" x="1244" y="-408.31" font-family="Helvetica,sans-Serif" font-size="10.00">slljit::Parser::ParseBin</text>
<text text-anchor="middle" x="1293" y="-397.31" font-family="Helvetica,sans-Serif" font-size="10.00">OpRHS</text>
</a>
</g>
</g>
<!-- Node5&#45;&gt;Node6 -->
<g id="edge5" class="edge">
<title>Node5&#45;&gt;Node6</title>
<path fill="none" stroke="midnightblue" d="M1375.86,-405.31C1367.22,-405.31 1358.48,-405.31 1350.1,-405.31"/>
<polygon fill="midnightblue" stroke="midnightblue" points="1375.95,-408.81 1385.95,-405.31 1375.95,-401.81 1375.95,-408.81"/>
</g>
<!-- Node7 -->
<g id="node7" class="node">
<title>Node7</title>
<g id="a_node7"><a xlink:href="classslljit_1_1_parser.html#a79461bf414d03dcabb49d3bbd6f89607" target="_top" xlink:title=" ">
<polygon fill="none" stroke="black" points="1051,-392.81 1051,-411.81 1200,-411.81 1200,-392.81 1051,-392.81"/>
<text text-anchor="middle" x="1125.5" y="-399.81" font-family="Helvetica,sans-Serif" font-size="10.00">slljit::Parser::ParseExpression</text>
</a>
</g>
</g>
<!-- Node5&#45;&gt;Node7 -->
<g id="edge26" class="edge">
<title>Node5&#45;&gt;Node7</title>
<path fill="none" stroke="midnightblue" d="M1422.36,-419.89C1403.22,-430.11 1375.86,-442.86 1350,-448.31 1300.42,-458.76 1285.67,-458.32 1236,-448.31 1201.44,-441.35 1164.19,-423.16 1143.27,-411.86"/>
<polygon fill="midnightblue" stroke="midnightblue" points="1424.22,-422.86 1431.3,-414.98 1420.85,-416.73 1424.22,-422.86"/>
</g>
<!-- Node6&#45;&gt;Node6 -->
<g id="edge6" class="edge">
<title>Node6&#45;&gt;Node6</title>
<path fill="none" stroke="midnightblue" d="M1320.36,-430.77C1316.97,-435.49 1307.85,-438.81 1293,-438.81 1268.64,-438.81 1259.69,-429.87 1266.16,-420.47"/>
<polygon fill="midnightblue" stroke="midnightblue" points="1323.84,-430.28 1319.84,-420.47 1316.85,-430.64 1323.84,-430.28"/>
</g>
<!-- Node6&#45;&gt;Node7 -->
<g id="edge7" class="edge">
<title>Node6&#45;&gt;Node7</title>
<path fill="none" stroke="midnightblue" d="M1225.8,-404.11C1217.34,-403.96 1208.64,-403.8 1200.08,-403.65"/>
<polygon fill="midnightblue" stroke="midnightblue" points="1225.91,-407.62 1235.97,-404.3 1226.03,-400.62 1225.91,-407.62"/>
</g>
<!-- Node7&#45;&gt;Node3 -->
<g id="edge20" class="edge">
<title>Node7&#45;&gt;Node3</title>
<path fill="none" stroke="midnightblue" d="M1183.31,-390.77C1200.23,-387.51 1218.83,-384.1 1236,-381.31 1406.98,-353.6 1608.7,-328.79 1716.62,-316.15"/>
<polygon fill="midnightblue" stroke="midnightblue" points="1182.16,-387.43 1173.02,-392.78 1183.5,-394.3 1182.16,-387.43"/>
</g>
<!-- Node7&#45;&gt;Node8 -->
<g id="edge8" class="edge">
<title>Node7&#45;&gt;Node8</title>
<path fill="none" stroke="midnightblue" d="M1091.85,-388.77C1053.46,-372.85 990.72,-346.83 957.06,-332.88"/>
<polygon fill="midnightblue" stroke="midnightblue" points="1090.94,-392.19 1101.52,-392.78 1093.62,-385.72 1090.94,-392.19"/>
</g>
<!-- Node7&#45;&gt;Node9 -->
<g id="edge19" class="edge">
<title>Node7&#45;&gt;Node9</title>
<path fill="none" stroke="midnightblue" d="M1077.05,-414.32C1001.54,-433.42 855.56,-470.35 786.7,-487.78"/>
<polygon fill="midnightblue" stroke="midnightblue" points="1077.94,-417.7 1086.78,-411.86 1076.22,-410.92 1077.94,-417.7"/>
</g>
<!-- Node7&#45;&gt;Node10 -->
<g id="edge21" class="edge">
<title>Node7&#45;&gt;Node10</title>
<path fill="none" stroke="midnightblue" d="M1040.42,-398.68C985.96,-395.19 913.75,-388.4 851,-375.31 823.85,-369.65 793.75,-359.4 773.33,-351.82"/>
<polygon fill="midnightblue" stroke="midnightblue" points="1040.52,-402.2 1050.72,-399.32 1040.95,-395.21 1040.52,-402.2"/>
</g>
<!-- Node7&#45;&gt;Node17 -->
<g id="edge22" class="edge">
<title>Node7&#45;&gt;Node17</title>
<path fill="none" stroke="midnightblue" d="M1100.46,-417.11C1078.48,-430.46 1044.94,-450.39 1015,-466.31 995.02,-476.94 971.69,-488.04 955.21,-495.67"/>
<polygon fill="midnightblue" stroke="midnightblue" points="1102.41,-420.02 1109.13,-411.83 1098.77,-414.05 1102.41,-420.02"/>
</g>
<!-- Node7&#45;&gt;Node18 -->
<g id="edge24" class="edge">
<title>Node7&#45;&gt;Node18</title>
<path fill="none" stroke="midnightblue" d="M1105.84,-386.17C1090.87,-373.14 1069.4,-354.25 1051,-337.31 1010.65,-300.19 963.89,-254.64 943.89,-235.04"/>
<polygon fill="midnightblue" stroke="midnightblue" points="1103.58,-388.84 1113.42,-392.76 1108.17,-383.56 1103.58,-388.84"/>
</g>
<!-- Node8&#45;&gt;Node9 -->
<g id="edge9" class="edge">
<title>Node8&#45;&gt;Node9</title>
<path fill="none" stroke="midnightblue" d="M914.23,-340.21C876.46,-376.12 789.22,-459.07 759.29,-487.53"/>
<polygon fill="midnightblue" stroke="midnightblue" points="917.07,-342.34 921.9,-332.92 912.24,-337.27 917.07,-342.34"/>
</g>
<!-- Node8&#45;&gt;Node10 -->
<g id="edge11" class="edge">
<title>Node8&#45;&gt;Node10</title>
<path fill="none" stroke="midnightblue" d="M840.79,-332.78C830.62,-333.84 820.44,-334.9 810.77,-335.9"/>
<polygon fill="midnightblue" stroke="midnightblue" points="841.35,-336.24 850.93,-331.73 840.63,-329.28 841.35,-336.24"/>
</g>
<!-- Node8&#45;&gt;Node11 -->
<g id="edge13" class="edge">
<title>Node8&#45;&gt;Node11</title>
<path fill="none" stroke="midnightblue" d="M910.96,-307.15C893,-292.42 867.51,-269.22 851,-244.31 826.74,-207.72 846.22,-183.19 815,-152.31 811.08,-148.44 806.5,-145.15 801.61,-142.37"/>
<polygon fill="midnightblue" stroke="midnightblue" points="909.11,-310.15 919.11,-313.67 913.49,-304.68 909.11,-310.15"/>
</g>
<!-- Node9&#45;&gt;Node4 -->
<g id="edge10" class="edge">
<title>Node9&#45;&gt;Node4</title>
<path fill="none" stroke="midnightblue" d="M788.69,-509.69C807.41,-515.05 830.17,-520.86 851,-524.31 971.21,-544.21 1002.65,-543.31 1124.5,-543.31 1294,-543.31 1294,-543.31 1294,-543.31 1395.61,-543.31 1421.76,-519.92 1511,-471.31 1548.71,-450.77 1586.34,-415.87 1603.45,-399"/>
<polygon fill="midnightblue" stroke="midnightblue" points="789.6,-506.31 779.02,-506.87 787.64,-513.03 789.6,-506.31"/>
</g>
<!-- Node10&#45;&gt;Node4 -->
<g id="edge12" class="edge">
<title>Node10&#45;&gt;Node4</title>
<path fill="none" stroke="midnightblue" d="M821.09,-348.13C896.65,-353.72 1018.83,-361.31 1124.5,-361.31 1294,-361.31 1294,-361.31 1294,-361.31 1381.7,-361.31 1482.45,-371.95 1546.86,-380.11"/>
<polygon fill="midnightblue" stroke="midnightblue" points="820.98,-344.61 810.75,-347.36 820.46,-351.59 820.98,-344.61"/>
</g>
<!-- Node12 -->
<g id="node12" class="node">
<title>Node12</title>
<g id="a_node12"><a xlink:href="classslljit_1_1_parser.html#af0cac4623fc05b8b7ae9884b0aeb3d3f" target="_top" xlink:title=" ">
<polygon fill="none" stroke="black" points="513,-112.31 513,-142.31 644,-142.31 644,-112.31 513,-112.31"/>
<text text-anchor="start" x="521" y="-130.31" font-family="Helvetica,sans-Serif" font-size="10.00">slljit::Parser::HandleTyped</text>
<text text-anchor="middle" x="578.5" y="-119.31" font-family="Helvetica,sans-Serif" font-size="10.00">Expression</text>
</a>
</g>
</g>
<!-- Node11&#45;&gt;Node12 -->
<g id="edge14" class="edge">
<title>Node11&#45;&gt;Node12</title>
<path fill="none" stroke="midnightblue" d="M679.68,-127.31C667.97,-127.31 655.82,-127.31 644.19,-127.31"/>
<polygon fill="midnightblue" stroke="midnightblue" points="679.82,-130.81 689.82,-127.31 679.82,-123.81 679.82,-130.81"/>
</g>
<!-- Node12&#45;&gt;Node13 -->
<g id="edge15" class="edge">
<title>Node12&#45;&gt;Node13</title>
<path fill="none" stroke="midnightblue" d="M502.61,-136.29C493.73,-137.36 484.78,-138.43 476.21,-139.46"/>
<polygon fill="midnightblue" stroke="midnightblue" points="503.06,-139.76 512.57,-135.1 502.23,-132.81 503.06,-139.76"/>
</g>
<!-- Node14 -->
<g id="node14" class="node">
<title>Node14</title>
<g id="a_node14"><a xlink:href="classslljit_1_1_parser.html#a2429935f3c870648f9f895a7b2361cfb" target="_top" xlink:title=" ">
<polygon fill="none" stroke="black" points="226,-139.81 226,-158.81 324,-158.81 324,-139.81 226,-139.81"/>
<text text-anchor="middle" x="275" y="-146.81" font-family="Helvetica,sans-Serif" font-size="10.00">slljit::Parser::parse</text>
</a>
</g>
</g>
<!-- Node13&#45;&gt;Node14 -->
<g id="edge16" class="edge">
<title>Node13&#45;&gt;Node14</title>
<path fill="none" stroke="midnightblue" d="M349.37,-147.75C340.9,-147.93 332.37,-148.11 324.28,-148.29"/>
<polygon fill="midnightblue" stroke="midnightblue" points="349.73,-151.25 359.65,-147.53 349.58,-144.25 349.73,-151.25"/>
</g>
<!-- Node15 -->
<g id="node15" class="node">
<title>Node15</title>
<g id="a_node15"><a xlink:href="classslljit_1_1_program.html#ae4d26526a7dd9c69ebe92fb43736696b" target="_top" xlink:title=" ">
<polygon fill="none" stroke="black" points="74,-158.81 74,-177.81 190,-177.81 190,-158.81 74,-158.81"/>
<text text-anchor="middle" x="132" y="-165.81" font-family="Helvetica,sans-Serif" font-size="10.00">slljit::Program::compile</text>
</a>
</g>
</g>
<!-- Node14&#45;&gt;Node15 -->
<g id="edge17" class="edge">
<title>Node14&#45;&gt;Node15</title>
<path fill="none" stroke="midnightblue" d="M215.72,-157.17C207.27,-158.31 198.58,-159.48 190.16,-160.61"/>
<polygon fill="midnightblue" stroke="midnightblue" points="216.43,-160.6 225.87,-155.8 215.49,-153.67 216.43,-160.6"/>
</g>
<!-- Node16 -->
<g id="node16" class="node">
<title>Node16</title>
<g id="a_node16"><a xlink:href="compiler__cli_8cpp.html#a3c04138a5bfe5d72780bb7e82a18e627" target="_top" xlink:title=" ">
<polygon fill="none" stroke="black" points="0,-158.81 0,-177.81 38,-177.81 38,-158.81 0,-158.81"/>
<text text-anchor="middle" x="19" y="-165.81" font-family="Helvetica,sans-Serif" font-size="10.00">main</text>
</a>
</g>
</g>
<!-- Node15&#45;&gt;Node16 -->
<g id="edge18" class="edge">
<title>Node15&#45;&gt;Node16</title>
<path fill="none" stroke="midnightblue" d="M63.62,-168.31C54.3,-168.31 45.44,-168.31 38.18,-168.31"/>
<polygon fill="midnightblue" stroke="midnightblue" points="63.87,-171.81 73.87,-168.31 63.87,-164.81 63.87,-171.81"/>
</g>
<!-- Node17&#45;&gt;Node4 -->
<g id="edge23" class="edge">
<title>Node17&#45;&gt;Node4</title>
<path fill="none" stroke="midnightblue" d="M1016.12,-506.59C1129.99,-506.09 1341.02,-496.87 1511,-442.31 1544.06,-431.7 1579.3,-411.03 1598.49,-398.88"/>
<polygon fill="midnightblue" stroke="midnightblue" points="1016.07,-503.09 1006.07,-506.61 1016.08,-510.09 1016.07,-503.09"/>
</g>
<!-- Node18&#45;&gt;Node4 -->
<g id="edge25" class="edge">
<title>Node18&#45;&gt;Node4</title>
<path fill="none" stroke="midnightblue" d="M1007.78,-236.48C1118.58,-254.25 1333.83,-292.61 1511,-347.31 1540.09,-356.3 1572.4,-370.32 1592.7,-379.66"/>
<polygon fill="midnightblue" stroke="midnightblue" points="1008.14,-233 997.72,-234.88 1007.04,-239.91 1008.14,-233"/>
</g>
<!-- Node19&#45;&gt;Node4 -->
<g id="edge34" class="edge">
<title>Node19&#45;&gt;Node4</title>
<path fill="none" stroke="midnightblue" d="M1711.76,-380.66C1701.48,-381.58 1691.08,-382.51 1681.1,-383.41"/>
<polygon fill="midnightblue" stroke="midnightblue" points="1712.32,-384.13 1721.97,-379.75 1711.7,-377.16 1712.32,-384.13"/>
</g>
<!-- Node20&#45;&gt;Node11 -->
<g id="edge41" class="edge">
<title>Node20&#45;&gt;Node11</title>
<path fill="none" stroke="midnightblue" d="M851.73,-127.31C836.32,-127.31 820.49,-127.31 806,-127.31"/>
<polygon fill="midnightblue" stroke="midnightblue" points="851.77,-130.81 861.77,-127.31 851.77,-123.81 851.77,-130.81"/>
</g>
<!-- Node21 -->
<g id="node21" class="node">
<title>Node21</title>
<g id="a_node21"><a xlink:href="classslljit_1_1_parser.html#af6e239a609e8a3812838b53f9a8356ce" target="_top" xlink:title="external ::= &#39;extern&#39; prototype">
<polygon fill="none" stroke="black" points="684,-161.81 684,-180.81 812,-180.81 812,-161.81 684,-161.81"/>
<text text-anchor="middle" x="748" y="-168.81" font-family="Helvetica,sans-Serif" font-size="10.00">slljit::Parser::ParseExtern</text>
</a>
</g>
</g>
<!-- Node20&#45;&gt;Node21 -->
<g id="edge38" class="edge">
<title>Node20&#45;&gt;Node21</title>
<path fill="none" stroke="midnightblue" d="M882.22,-139.28C852.81,-146.35 816.07,-155.19 788.63,-161.78"/>
<polygon fill="midnightblue" stroke="midnightblue" points="883.39,-142.6 892.29,-136.86 881.75,-135.8 883.39,-142.6"/>
</g>
<!-- Node22 -->
<g id="node22" class="node">
<title>Node22</title>
<g id="a_node22"><a xlink:href="classslljit_1_1_parser.html#a5ff2f693f00fe32c8ee836e9139cb93e" target="_top" xlink:title=" ">
<polygon fill="none" stroke="black" points="512,-161.81 512,-180.81 645,-180.81 645,-161.81 512,-161.81"/>
<text text-anchor="middle" x="578.5" y="-168.81" font-family="Helvetica,sans-Serif" font-size="10.00">slljit::Parser::HandleExtern</text>
</a>
</g>
</g>
<!-- Node21&#45;&gt;Node22 -->
<g id="edge39" class="edge">
<title>Node21&#45;&gt;Node22</title>
<path fill="none" stroke="midnightblue" d="M673.52,-171.31C664.07,-171.31 654.45,-171.31 645.14,-171.31"/>
<polygon fill="midnightblue" stroke="midnightblue" points="673.68,-174.81 683.68,-171.31 673.68,-167.81 673.68,-174.81"/>
</g>
<!-- Node22&#45;&gt;Node13 -->
<g id="edge40" class="edge">
<title>Node22&#45;&gt;Node13</title>
<path fill="none" stroke="midnightblue" d="M507.23,-160.23C496.81,-158.59 486.18,-156.91 476.07,-155.32"/>
<polygon fill="midnightblue" stroke="midnightblue" points="506.7,-163.69 517.13,-161.79 507.79,-156.78 506.7,-163.69"/>
</g>
<!-- Node23&#45;&gt;Node18 -->
<g id="edge46" class="edge">
<title>Node23&#45;&gt;Node18</title>
<path fill="none" stroke="midnightblue" d="M1068.72,-146.56C1062.49,-149.72 1056.44,-153.3 1051,-157.31 1030.68,-172.33 1036.04,-187.33 1015,-201.31 1005.59,-207.56 994.52,-212.23 983.63,-215.69"/>
<polygon fill="midnightblue" stroke="midnightblue" points="1070.37,-149.65 1077.93,-142.22 1067.39,-143.31 1070.37,-149.65"/>
</g>
<!-- Node23&#45;&gt;Node20 -->
<g id="edge45" class="edge">
<title>Node23&#45;&gt;Node20</title>
<path fill="none" stroke="midnightblue" d="M1067.75,-127.31C1047.81,-127.31 1025.18,-127.31 1004.27,-127.31"/>
<polygon fill="midnightblue" stroke="midnightblue" points="1067.9,-130.81 1077.9,-127.31 1067.9,-123.81 1067.9,-130.81"/>
</g>
<!-- Node24 -->
<g id="node24" class="node">
<title>Node24</title>
<g id="a_node24"><a xlink:href="classslljit_1_1_parser.html#a3da23d78669853ac1f1d38a709475c5c" target="_top" xlink:title=" ">
<polygon fill="none" stroke="black" points="374,-184.31 374,-214.31 462,-214.31 462,-184.31 374,-184.31"/>
<text text-anchor="start" x="382" y="-202.31" font-family="Helvetica,sans-Serif" font-size="10.00">slljit::Parser::set</text>
<text text-anchor="middle" x="418" y="-191.31" font-family="Helvetica,sans-Serif" font-size="10.00">_variables</text>
</a>
</g>
</g>
<!-- Node23&#45;&gt;Node24 -->
<g id="edge47" class="edge">
<title>Node23&#45;&gt;Node24</title>
<path fill="none" stroke="midnightblue" d="M1068.07,-141.96C1006.39,-157.22 904.43,-180.28 815,-190.31 687.38,-204.64 535.22,-202.85 462.24,-200.84"/>
<polygon fill="midnightblue" stroke="midnightblue" points="1069.13,-145.3 1077.98,-139.48 1067.43,-138.51 1069.13,-145.3"/>
</g>
<!-- Node24&#45;&gt;Node15 -->
<g id="edge48" class="edge">
<title>Node24&#45;&gt;Node15</title>
<path fill="none" stroke="midnightblue" d="M363.68,-193.49C314.19,-188.09 240.72,-180.07 190.05,-174.54"/>
<polygon fill="midnightblue" stroke="midnightblue" points="363.55,-197 373.87,-194.61 364.31,-190.04 363.55,-197"/>
</g>
</g>
</svg>
