<?xml version="1.0" encoding="UTF-8" standalone="no"?>
<!DOCTYPE svg PUBLIC "-//W3C//DTD SVG 1.1//EN"
 "http://www.w3.org/Graphics/SVG/1.1/DTD/svg11.dtd">
<!-- Generated by graphviz version 3.0.0 (20220226.1711)
 -->
<!-- Title: slljit::LocalContext::getContext Pages: 1 -->
<svg width="513pt" height="470pt"
 viewBox="0.00 0.00 513.00 469.50" xmlns="http://www.w3.org/2000/svg" xmlns:xlink="http://www.w3.org/1999/xlink">
<g id="graph0" class="graph" transform="scale(1 1) rotate(0) translate(4 465.5)">
<title>slljit::LocalContext::getContext</title>
<!-- Node1 -->
<g id="node1" class="node">
<title>Node1</title>
<g id="a_node1"><a xlink:title=" ">
<polygon fill="#bfbfbf" stroke="black" points="408,-220.5 408,-250.5 505,-250.5 505,-220.5 408,-220.5"/>
<text text-anchor="start" x="416" y="-238.5" font-family="Helvetica,sans-Serif" font-size="10.00">slljit::LocalContext</text>
<text text-anchor="middle" x="456.5" y="-227.5" font-family="Helvetica,sans-Serif" font-size="10.00">::getContext</text>
</a>
</g>
</g>
<!-- Node2 -->
<g id="node2" class="node">
<title>Node2</title>
<g id="a_node2"><a xlink:href="classslljit_1_1_no_op_a_s_t.html#aa814bbbf82fcdbecae7cfc60ddf531e5" target="_top" xlink:title=" ">
<polygon fill="none" stroke="black" points="236,-442 236,-461 362,-461 362,-442 236,-442"/>
<text text-anchor="middle" x="299" y="-449" font-family="Helvetica,sans-Serif" font-size="10.00">slljit::NoOpAST::codegen</text>
</a>
</g>
</g>
<!-- Node1&#45;&gt;Node2 -->
<g id="edge1" class="edge">
<title>Node1&#45;&gt;Node2</title>
<path fill="none" stroke="midnightblue" d="M452.04,-260.67C444.9,-302.68 424.56,-386.96 372,-432.5 367.51,-436.39 362.3,-439.5 356.79,-441.98"/>
<polygon fill="midnightblue" stroke="midnightblue" points="455.51,-261.14 453.61,-250.71 448.59,-260.04 455.51,-261.14"/>
</g>
<!-- Node3 -->
<g id="node3" class="node">
<title>Node3</title>
<g id="a_node3"><a xlink:href="classslljit_1_1_number_expr_a_s_t.html#ad79c11f8409e5546997b0a45df15c400" target="_top" xlink:title=" ">
<polygon fill="none" stroke="black" points="242.5,-392.5 242.5,-422.5 355.5,-422.5 355.5,-392.5 242.5,-392.5"/>
<text text-anchor="start" x="250.5" y="-410.5" font-family="Helvetica,sans-Serif" font-size="10.00">slljit::NumberExprAST</text>
<text text-anchor="middle" x="299" y="-399.5" font-family="Helvetica,sans-Serif" font-size="10.00">::codegen</text>
</a>
</g>
</g>
<!-- Node1&#45;&gt;Node3 -->
<g id="edge2" class="edge">
<title>Node1&#45;&gt;Node3</title>
<path fill="none" stroke="midnightblue" d="M447.69,-260.68C436.24,-293.52 411.85,-350.65 372,-383.5 367.12,-387.52 361.54,-390.88 355.69,-393.68"/>
<polygon fill="midnightblue" stroke="midnightblue" points="451.09,-261.53 450.95,-250.93 444.46,-259.3 451.09,-261.53"/>
</g>
<!-- Node4 -->
<g id="node4" class="node">
<title>Node4</title>
<g id="a_node4"><a xlink:href="classslljit_1_1_binary_expr_a_s_t.html#a4e15cb62043e37beafadeb7faf94d7ba" target="_top" xlink:title=" ">
<polygon fill="none" stroke="black" points="245.5,-343.5 245.5,-373.5 352.5,-373.5 352.5,-343.5 245.5,-343.5"/>
<text text-anchor="start" x="253.5" y="-361.5" font-family="Helvetica,sans-Serif" font-size="10.00">slljit::BinaryExprAST</text>
<text text-anchor="middle" x="299" y="-350.5" font-family="Helvetica,sans-Serif" font-size="10.00">::codegen</text>
</a>
</g>
</g>
<!-- Node1&#45;&gt;Node4 -->
<g id="edge3" class="edge">
<title>Node1&#45;&gt;Node4</title>
<path fill="none" stroke="midnightblue" d="M440.9,-259.44C426.1,-281.8 401.28,-314.65 372,-334.5 366.11,-338.49 359.5,-341.87 352.74,-344.71"/>
<polygon fill="midnightblue" stroke="midnightblue" points="443.95,-261.15 446.42,-250.85 438.07,-257.36 443.95,-261.15"/>
</g>
<!-- Node5 -->
<g id="node5" class="node">
<title>Node5</title>
<g id="a_node5"><a xlink:href="classslljit_1_1_if_expr_a_s_t.html#a376bb50f865a795316ebf0710b4ac135" target="_top" xlink:title=" ">
<polygon fill="none" stroke="black" points="254.5,-294.5 254.5,-324.5 343.5,-324.5 343.5,-294.5 254.5,-294.5"/>
<text text-anchor="start" x="262.5" y="-312.5" font-family="Helvetica,sans-Serif" font-size="10.00">slljit::IfExprAST::</text>
<text text-anchor="middle" x="299" y="-301.5" font-family="Helvetica,sans-Serif" font-size="10.00">codegen</text>
</a>
</g>
</g>
<!-- Node1&#45;&gt;Node5 -->
<g id="edge4" class="edge">
<title>Node1&#45;&gt;Node5</title>
<path fill="none" stroke="midnightblue" d="M424.61,-256.2C409.23,-265.93 390.1,-277.19 372,-285.5 363.02,-289.63 353.12,-293.39 343.61,-296.66"/>
<polygon fill="midnightblue" stroke="midnightblue" points="426.67,-259.03 433.19,-250.68 422.89,-253.15 426.67,-259.03"/>
</g>
<!-- Node6 -->
<g id="node6" class="node">
<title>Node6</title>
<g id="a_node6"><a xlink:href="classslljit_1_1_for_expr_a_s_t.html#a0e8a98570a1b8c55617ee52b41922289" target="_top" xlink:title=" ">
<polygon fill="none" stroke="black" points="252.5,-245.5 252.5,-275.5 345.5,-275.5 345.5,-245.5 252.5,-245.5"/>
<text text-anchor="start" x="260.5" y="-263.5" font-family="Helvetica,sans-Serif" font-size="10.00">slljit::ForExprAST</text>
<text text-anchor="middle" x="299" y="-252.5" font-family="Helvetica,sans-Serif" font-size="10.00">::codegen</text>
</a>
</g>
</g>
<!-- Node1&#45;&gt;Node6 -->
<g id="edge5" class="edge">
<title>Node1&#45;&gt;Node6</title>
<path fill="none" stroke="midnightblue" d="M398.02,-244.74C380.73,-247.52 362.01,-250.53 345.61,-253.17"/>
<polygon fill="midnightblue" stroke="midnightblue" points="398.68,-248.18 408,-243.14 397.57,-241.27 398.68,-248.18"/>
</g>
<!-- Node7 -->
<g id="node7" class="node">
<title>Node7</title>
<g id="a_node7"><a xlink:href="classslljit_1_1_var_expr_a_s_t.html#a6898396b719dec46fd30ab9cc9dfb7ac" target="_top" xlink:title=" ">
<polygon fill="none" stroke="black" points="252,-196.5 252,-226.5 346,-226.5 346,-196.5 252,-196.5"/>
<text text-anchor="start" x="260" y="-214.5" font-family="Helvetica,sans-Serif" font-size="10.00">slljit::VarExprAST</text>
<text text-anchor="middle" x="299" y="-203.5" font-family="Helvetica,sans-Serif" font-size="10.00">::codegen</text>
</a>
</g>
</g>
<!-- Node1&#45;&gt;Node7 -->
<g id="edge6" class="edge">
<title>Node1&#45;&gt;Node7</title>
<path fill="none" stroke="midnightblue" d="M398.11,-226.64C380.99,-224 362.45,-221.14 346.14,-218.62"/>
<polygon fill="midnightblue" stroke="midnightblue" points="397.58,-230.1 408,-228.17 398.65,-223.18 397.58,-230.1"/>
</g>
<!-- Node8 -->
<g id="node8" class="node">
<title>Node8</title>
<g id="a_node8"><a xlink:href="classslljit_1_1_prototype_a_s_t.html#a1d3904bd14007f251959a6d795fe5564" target="_top" xlink:title=" ">
<polygon fill="none" stroke="black" points="248.5,-147.5 248.5,-177.5 349.5,-177.5 349.5,-147.5 248.5,-147.5"/>
<text text-anchor="start" x="256.5" y="-165.5" font-family="Helvetica,sans-Serif" font-size="10.00">slljit::PrototypeAST</text>
<text text-anchor="middle" x="299" y="-154.5" font-family="Helvetica,sans-Serif" font-size="10.00">::codegen</text>
</a>
</g>
</g>
<!-- Node1&#45;&gt;Node8 -->
<g id="edge7" class="edge">
<title>Node1&#45;&gt;Node8</title>
<path fill="none" stroke="midnightblue" d="M423.48,-215.2C408.24,-206.04 389.55,-195.51 372,-187.5 364.17,-183.93 355.68,-180.56 347.36,-177.52"/>
<polygon fill="midnightblue" stroke="midnightblue" points="421.65,-218.19 432.01,-220.41 425.3,-212.22 421.65,-218.19"/>
</g>
<!-- Node9 -->
<g id="node9" class="node">
<title>Node9</title>
<g id="a_node9"><a xlink:href="classslljit_1_1_function_a_s_t.html#ad9580c93bf3b4c4cdce1606d2e1a7be5" target="_top" xlink:title=" ">
<polygon fill="none" stroke="black" points="251,-98.5 251,-128.5 347,-128.5 347,-98.5 251,-98.5"/>
<text text-anchor="start" x="259" y="-116.5" font-family="Helvetica,sans-Serif" font-size="10.00">slljit::FunctionAST</text>
<text text-anchor="middle" x="299" y="-105.5" font-family="Helvetica,sans-Serif" font-size="10.00">::codegen</text>
</a>
</g>
</g>
<!-- Node1&#45;&gt;Node9 -->
<g id="edge8" class="edge">
<title>Node1&#45;&gt;Node9</title>
<path fill="none" stroke="midnightblue" d="M440.48,-211.77C425.54,-189.93 400.75,-158.05 372,-138.5 364.45,-133.37 355.74,-129.18 347.04,-125.81"/>
<polygon fill="midnightblue" stroke="midnightblue" points="437.62,-213.79 446.08,-220.17 443.44,-209.9 437.62,-213.79"/>
</g>
<!-- Node10 -->
<g id="node10" class="node">
<title>Node10</title>
<g id="a_node10"><a xlink:href="classslljit_1_1_code_gen.html#a0a1cd67519cb6405422e53cc87a1eb87" target="_top" xlink:title=" ">
<polygon fill="none" stroke="black" points="239,-49.5 239,-79.5 359,-79.5 359,-49.5 239,-49.5"/>
<text text-anchor="start" x="247" y="-67.5" font-family="Helvetica,sans-Serif" font-size="10.00">slljit::CodeGen::compile</text>
<text text-anchor="middle" x="299" y="-56.5" font-family="Helvetica,sans-Serif" font-size="10.00">_layout</text>
</a>
</g>
</g>
<!-- Node1&#45;&gt;Node10 -->
<g id="edge9" class="edge">
<title>Node1&#45;&gt;Node10</title>
<path fill="none" stroke="midnightblue" d="M447.53,-210.73C435.92,-178.41 411.33,-122.14 372,-89.5 367.32,-85.61 361.99,-82.32 356.41,-79.52"/>
<polygon fill="midnightblue" stroke="midnightblue" points="444.27,-212.02 450.85,-220.32 450.89,-209.73 444.27,-212.02"/>
</g>
<!-- Node13 -->
<g id="node13" class="node">
<title>Node13</title>
<g id="a_node13"><a xlink:href="structslljit_1_1_constant_global_definition.html#ae4448484f0147ba508124fb4d23d3630" target="_top" xlink:title=" ">
<polygon fill="none" stroke="black" points="226,-0.5 226,-30.5 372,-30.5 372,-0.5 226,-0.5"/>
<text text-anchor="start" x="234" y="-18.5" font-family="Helvetica,sans-Serif" font-size="10.00">slljit::ConstantGlobalDefinition</text>
<text text-anchor="middle" x="299" y="-7.5" font-family="Helvetica,sans-Serif" font-size="10.00">::get_init_val</text>
</a>
</g>
</g>
<!-- Node1&#45;&gt;Node13 -->
<g id="edge12" class="edge">
<title>Node1&#45;&gt;Node13</title>
<path fill="none" stroke="midnightblue" d="M451.47,-210.44C443.56,-169.29 422.2,-87.29 372,-40.5 367.84,-36.62 363.04,-33.34 357.94,-30.56"/>
<polygon fill="midnightblue" stroke="midnightblue" points="448.05,-211.22 453.28,-220.44 454.94,-209.98 448.05,-211.22"/>
</g>
<!-- Node11 -->
<g id="node11" class="node">
<title>Node11</title>
<g id="a_node11"><a xlink:href="classslljit_1_1_program.html#ae4d26526a7dd9c69ebe92fb43736696b" target="_top" xlink:title=" ">
<polygon fill="none" stroke="black" points="74,-55 74,-74 190,-74 190,-55 74,-55"/>
<text text-anchor="middle" x="132" y="-62" font-family="Helvetica,sans-Serif" font-size="10.00">slljit::Program::compile</text>
</a>
</g>
</g>
<!-- Node10&#45;&gt;Node11 -->
<g id="edge10" class="edge">
<title>Node10&#45;&gt;Node11</title>
<path fill="none" stroke="midnightblue" d="M228.69,-64.5C215.81,-64.5 202.49,-64.5 190.03,-64.5"/>
<polygon fill="midnightblue" stroke="midnightblue" points="228.9,-68 238.9,-64.5 228.9,-61 228.9,-68"/>
</g>
<!-- Node12 -->
<g id="node12" class="node">
<title>Node12</title>
<g id="a_node12"><a xlink:href="compiler__cli_8cpp.html#a3c04138a5bfe5d72780bb7e82a18e627" target="_top" xlink:title=" ">
<polygon fill="none" stroke="black" points="0,-55 0,-74 38,-74 38,-55 0,-55"/>
<text text-anchor="middle" x="19" y="-62" font-family="Helvetica,sans-Serif" font-size="10.00">main</text>
</a>
</g>
</g>
<!-- Node11&#45;&gt;Node12 -->
<g id="edge11" class="edge">
<title>Node11&#45;&gt;Node12</title>
<path fill="none" stroke="midnightblue" d="M63.62,-64.5C54.3,-64.5 45.44,-64.5 38.18,-64.5"/>
<polygon fill="midnightblue" stroke="midnightblue" points="63.87,-68 73.87,-64.5 63.87,-61 63.87,-68"/>
</g>
</g>
</svg>
