<?xml version="1.0" encoding="UTF-8" standalone="no"?>
<!DOCTYPE svg PUBLIC "-//W3C//DTD SVG 1.1//EN"
 "http://www.w3.org/Graphics/SVG/1.1/DTD/svg11.dtd">
<!-- Generated by graphviz version 3.0.0 (20220226.1711)
 -->
<!-- Title: slljit::PrototypeAST Pages: 1 -->
<svg width="415pt" height="257pt"
 viewBox="0.00 0.00 415.00 257.00" xmlns="http://www.w3.org/2000/svg" xmlns:xlink="http://www.w3.org/1999/xlink">
<g id="graph0" class="graph" transform="scale(1 1) rotate(0) translate(4 253)">
<title>slljit::PrototypeAST</title>
<!-- Node1 -->
<g id="node1" class="node">
<title>Node1</title>
<g id="a_node1"><a xlink:title="Expression class for function prototypes.">
<polygon fill="#bfbfbf" stroke="black" points="306,-114.5 306,-133.5 407,-133.5 407,-114.5 306,-114.5"/>
<text text-anchor="middle" x="356.5" y="-121.5" font-family="Helvetica,sans-Serif" font-size="10.00">slljit::PrototypeAST</text>
</a>
</g>
</g>
<!-- Node2 -->
<g id="node2" class="node">
<title>Node2</title>
<g id="a_node2"><a xlink:href="classslljit_1_1_expr_a_s_t.html" target="_top" xlink:title="Base class for all expression nodes.">
<polygon fill="none" stroke="black" points="123.5,-228.5 123.5,-247.5 202.5,-247.5 202.5,-228.5 123.5,-228.5"/>
<text text-anchor="middle" x="163" y="-235.5" font-family="Helvetica,sans-Serif" font-size="10.00">slljit::ExprAST</text>
</a>
</g>
</g>
<!-- Node2&#45;&gt;Node1 -->
<g id="edge1" class="edge">
<title>Node2&#45;&gt;Node1</title>
<path fill="none" stroke="midnightblue" d="M212.59,-229.05C236.61,-223.11 265.24,-213.63 288,-199 315.56,-181.29 338.87,-149.43 349.44,-133.55"/>
<polygon fill="midnightblue" stroke="midnightblue" points="211.55,-225.7 202.61,-231.39 213.15,-232.52 211.55,-225.7"/>
</g>
<!-- Node3 -->
<g id="node3" class="node">
<title>Node3</title>
<g id="a_node3"><a xlink:title=" ">
<polygon fill="none" stroke="black" points="0,-228.5 0,-247.5 47,-247.5 47,-228.5 0,-228.5"/>
<text text-anchor="middle" x="23.5" y="-235.5" font-family="Helvetica,sans-Serif" font-size="10.00">TypeID</text>
</a>
</g>
</g>
<!-- Node3&#45;&gt;Node2 -->
<g id="edge2" class="edge">
<title>Node3&#45;&gt;Node2</title>
<path fill="none" stroke="#9a32cd" stroke-dasharray="5,2" d="M57.31,-238C77.16,-238 102.57,-238 123.38,-238"/>
<polygon fill="#9a32cd" stroke="#9a32cd" points="57.21,-234.5 47.21,-238 57.21,-241.5 57.21,-234.5"/>
<text text-anchor="middle" x="79" y="-241" font-family="Helvetica,sans-Serif" font-size="10.00"> type_</text>
</g>
<!-- Node4 -->
<g id="node4" class="node">
<title>Node4</title>
<g id="a_node4"><a xlink:title=" ">
<polygon fill="none" stroke="black" points="142.5,-190.5 142.5,-209.5 183.5,-209.5 183.5,-190.5 142.5,-190.5"/>
<text text-anchor="middle" x="163" y="-197.5" font-family="Helvetica,sans-Serif" font-size="10.00">string</text>
</a>
</g>
</g>
<!-- Node4&#45;&gt;Node1 -->
<g id="edge3" class="edge">
<title>Node4&#45;&gt;Node1</title>
<path fill="none" stroke="#9a32cd" stroke-dasharray="5,2" d="M193.75,-193.99C219.37,-188.26 256.99,-178.49 288,-165 307.86,-156.36 328.92,-142.76 342.13,-133.62"/>
<polygon fill="#9a32cd" stroke="#9a32cd" points="192.93,-190.59 183.9,-196.13 194.41,-197.43 192.93,-190.59"/>
<text text-anchor="middle" x="260.5" y="-187" font-family="Helvetica,sans-Serif" font-size="10.00"> Name</text>
</g>
<!-- Node5 -->
<g id="node5" class="node">
<title>Node5</title>
<g id="a_node5"><a xlink:title=" ">
<polygon fill="none" stroke="black" points="111,-152.5 111,-171.5 215,-171.5 215,-152.5 111,-152.5"/>
<text text-anchor="middle" x="163" y="-159.5" font-family="Helvetica,sans-Serif" font-size="10.00">vector&lt; std::string &gt;</text>
</a>
</g>
</g>
<!-- Node5&#45;&gt;Node1 -->
<g id="edge4" class="edge">
<title>Node5&#45;&gt;Node1</title>
<path fill="none" stroke="#9a32cd" stroke-dasharray="5,2" d="M225.02,-151.12C245.11,-147.43 267.54,-143.17 288,-139 296.35,-137.3 305.26,-135.39 313.78,-133.51"/>
<polygon fill="#9a32cd" stroke="#9a32cd" points="224.26,-147.7 215.06,-152.95 225.52,-154.59 224.26,-147.7"/>
<text text-anchor="middle" x="260.5" y="-153" font-family="Helvetica,sans-Serif" font-size="10.00"> Args</text>
</g>
<!-- Node6 -->
<g id="node6" class="node">
<title>Node6</title>
<g id="a_node6"><a xlink:title=" ">
<polygon fill="none" stroke="black" points="118,-114.5 118,-133.5 208,-133.5 208,-114.5 118,-114.5"/>
<text text-anchor="middle" x="163" y="-121.5" font-family="Helvetica,sans-Serif" font-size="10.00">vector&lt; TypeID &gt;</text>
</a>
</g>
</g>
<!-- Node6&#45;&gt;Node1 -->
<g id="edge5" class="edge">
<title>Node6&#45;&gt;Node1</title>
<path fill="none" stroke="#9a32cd" stroke-dasharray="5,2" d="M218.65,-124C246.13,-124 279.19,-124 305.93,-124"/>
<polygon fill="#9a32cd" stroke="#9a32cd" points="218.42,-120.5 208.42,-124 218.42,-127.5 218.42,-120.5"/>
<text text-anchor="middle" x="260.5" y="-127" font-family="Helvetica,sans-Serif" font-size="10.00"> ArgTypes</text>
</g>
<!-- Node7 -->
<g id="node7" class="node">
<title>Node7</title>
<g id="a_node7"><a xlink:title=" ">
<polygon fill="none" stroke="black" points="126,-76.5 126,-95.5 200,-95.5 200,-76.5 126,-76.5"/>
<text text-anchor="middle" x="163" y="-83.5" font-family="Helvetica,sans-Serif" font-size="10.00">const TypeID</text>
</a>
</g>
</g>
<!-- Node7&#45;&gt;Node1 -->
<g id="edge6" class="edge">
<title>Node7&#45;&gt;Node1</title>
<path fill="none" stroke="#9a32cd" stroke-dasharray="5,2" d="M210.14,-94.16C233.51,-98.39 262.3,-103.76 288,-109 296.35,-110.7 305.26,-112.61 313.78,-114.49"/>
<polygon fill="#9a32cd" stroke="#9a32cd" points="210.61,-90.69 200.15,-92.36 209.37,-97.58 210.61,-90.69"/>
<text text-anchor="middle" x="260.5" y="-112" font-family="Helvetica,sans-Serif" font-size="10.00"> ret_type_</text>
</g>
<!-- Node8 -->
<g id="node8" class="node">
<title>Node8</title>
<g id="a_node8"><a xlink:title=" ">
<polygon fill="none" stroke="black" points="145.5,-38.5 145.5,-57.5 180.5,-57.5 180.5,-38.5 145.5,-38.5"/>
<text text-anchor="middle" x="163" y="-45.5" font-family="Helvetica,sans-Serif" font-size="10.00">bool</text>
</a>
</g>
</g>
<!-- Node8&#45;&gt;Node1 -->
<g id="edge7" class="edge">
<title>Node8&#45;&gt;Node1</title>
<path fill="none" stroke="#9a32cd" stroke-dasharray="5,2" d="M190.56,-53.65C216.13,-59.57 255.6,-69.97 288,-84 307.62,-92.5 328.57,-105.62 341.83,-114.49"/>
<polygon fill="#9a32cd" stroke="#9a32cd" points="191.03,-50.17 180.51,-51.39 189.5,-57 191.03,-50.17"/>
<text text-anchor="middle" x="260.5" y="-87" font-family="Helvetica,sans-Serif" font-size="10.00"> IsOperator</text>
</g>
<!-- Node9 -->
<g id="node9" class="node">
<title>Node9</title>
<g id="a_node9"><a xlink:title=" ">
<polygon fill="none" stroke="black" points="121.5,-0.5 121.5,-19.5 204.5,-19.5 204.5,-0.5 121.5,-0.5"/>
<text text-anchor="middle" x="163" y="-7.5" font-family="Helvetica,sans-Serif" font-size="10.00">const unsigned</text>
</a>
</g>
</g>
<!-- Node9&#45;&gt;Node1 -->
<g id="edge8" class="edge">
<title>Node9&#45;&gt;Node1</title>
<path fill="none" stroke="#9a32cd" stroke-dasharray="5,2" d="M214.36,-20.47C237.96,-26.87 265.73,-36.66 288,-51 314.71,-68.19 337.89,-98.38 348.82,-114"/>
<polygon fill="#9a32cd" stroke="#9a32cd" points="215.08,-17.04 204.52,-17.93 213.33,-23.82 215.08,-17.04"/>
<text text-anchor="middle" x="260.5" y="-54" font-family="Helvetica,sans-Serif" font-size="10.00"> Precedence</text>
</g>
</g>
</svg>
