<?xml version="1.0" encoding="UTF-8" standalone="no"?>
<!DOCTYPE svg PUBLIC "-//W3C//DTD SVG 1.1//EN"
 "http://www.w3.org/Graphics/SVG/1.1/DTD/svg11.dtd">
<!-- Generated by graphviz version 3.0.0 (20220226.1711)
 -->
<!-- Title: slljit::Parser::pop_scope Pages: 1 -->
<svg width="1974pt" height="382pt"
 viewBox="0.00 0.00 1974.00 381.87" xmlns="http://www.w3.org/2000/svg" xmlns:xlink="http://www.w3.org/1999/xlink">
<g id="graph0" class="graph" transform="scale(1 1) rotate(0) translate(4 377.87)">
<title>slljit::Parser::pop_scope</title>
<!-- Node1 -->
<g id="node1" class="node">
<title>Node1</title>
<g id="a_node1"><a xlink:title=" ">
<polygon fill="#bfbfbf" stroke="black" points="1876,-61 1876,-91 1966,-91 1966,-61 1876,-61"/>
<text text-anchor="start" x="1884" y="-79" font-family="Helvetica,sans-Serif" font-size="10.00">slljit::Parser::pop</text>
<text text-anchor="middle" x="1921" y="-68" font-family="Helvetica,sans-Serif" font-size="10.00">_scope</text>
</a>
</g>
</g>
<!-- Node2 -->
<g id="node2" class="node">
<title>Node2</title>
<g id="a_node2"><a xlink:href="classslljit_1_1_parser.html#a81023e7a6221eb6b92027bd21433c9dd" target="_top" xlink:title="forexpr ::= &#39;for&#39; identifier &#39;=&#39; expr &#39;,&#39; expr (&#39;,&#39; expr)? &#39;in&#39; expression">
<polygon fill="none" stroke="black" points="1706,-66.5 1706,-85.5 1840,-85.5 1840,-66.5 1706,-66.5"/>
<text text-anchor="middle" x="1773" y="-73.5" font-family="Helvetica,sans-Serif" font-size="10.00">slljit::Parser::ParseForExpr</text>
</a>
</g>
</g>
<!-- Node1&#45;&gt;Node2 -->
<g id="edge1" class="edge">
<title>Node1&#45;&gt;Node2</title>
<path fill="none" stroke="midnightblue" d="M1865.53,-76C1857.25,-76 1848.63,-76 1840.14,-76"/>
<polygon fill="midnightblue" stroke="midnightblue" points="1865.8,-79.5 1875.8,-76 1865.8,-72.5 1865.8,-79.5"/>
</g>
<!-- Node8 -->
<g id="node8" class="node">
<title>Node8</title>
<g id="a_node8"><a xlink:href="classslljit_1_1_parser.html#a149f5e88cb03aa08c388e6320c6c1bac" target="_top" xlink:title="ifexpr ::= &#39;if&#39; expression &#39;then&#39; expression &#39;else&#39; expression">
<polygon fill="none" stroke="black" points="679,-256.5 679,-275.5 804,-275.5 804,-256.5 679,-256.5"/>
<text text-anchor="middle" x="741.5" y="-263.5" font-family="Helvetica,sans-Serif" font-size="10.00">slljit::Parser::ParseIfExpr</text>
</a>
</g>
</g>
<!-- Node1&#45;&gt;Node8 -->
<g id="edge27" class="edge">
<title>Node1&#45;&gt;Node8</title>
<path fill="none" stroke="midnightblue" d="M1908.88,-100.15C1874.51,-170.78 1762.66,-372 1604,-372 1604,-372 1604,-372 1113.5,-372 991.06,-372 953.64,-384.57 840,-339 803.1,-324.2 767.82,-291.77 751.67,-275.58"/>
<polygon fill="midnightblue" stroke="midnightblue" points="1912.06,-101.62 1913.21,-91.09 1905.74,-98.6 1912.06,-101.62"/>
</g>
<!-- Node9 -->
<g id="node9" class="node">
<title>Node9</title>
<g id="a_node9"><a xlink:href="classslljit_1_1_parser.html#aa9a9ce164e114ad7f347f32329f5a5a2" target="_top" xlink:title="definition ::= &#39;def&#39; prototype expression">
<polygon fill="none" stroke="black" points="683.5,-44 683.5,-74 799.5,-74 799.5,-44 683.5,-44"/>
<text text-anchor="start" x="691.5" y="-62" font-family="Helvetica,sans-Serif" font-size="10.00">slljit::Parser::ParseTop</text>
<text text-anchor="middle" x="741.5" y="-51" font-family="Helvetica,sans-Serif" font-size="10.00">LevelTypedExpression</text>
</a>
</g>
</g>
<!-- Node1&#45;&gt;Node9 -->
<g id="edge28" class="edge">
<title>Node1&#45;&gt;Node9</title>
<path fill="none" stroke="midnightblue" d="M1873.04,-57.35C1812.05,-34.85 1701.81,0 1604,0 1604,0 1604,0 1113.5,0 1001.16,0 872.03,-26.71 799.57,-44.19"/>
<polygon fill="midnightblue" stroke="midnightblue" points="1872.17,-60.76 1882.76,-60.98 1874.62,-54.2 1872.17,-60.76"/>
</g>
<!-- Node3 -->
<g id="node3" class="node">
<title>Node3</title>
<g id="a_node3"><a xlink:href="classslljit_1_1_parser.html#a45cb3e4f600e8e2c253490e7d878e8cd" target="_top" xlink:title=" ">
<polygon fill="none" stroke="black" points="1536,-220.5 1536,-239.5 1670,-239.5 1670,-220.5 1536,-220.5"/>
<text text-anchor="middle" x="1603" y="-227.5" font-family="Helvetica,sans-Serif" font-size="10.00">slljit::Parser::ParsePrimary</text>
</a>
</g>
</g>
<!-- Node2&#45;&gt;Node3 -->
<g id="edge2" class="edge">
<title>Node2&#45;&gt;Node3</title>
<path fill="none" stroke="midnightblue" d="M1753.89,-92.6C1718.77,-124.79 1642.43,-194.77 1614.51,-220.37"/>
<polygon fill="midnightblue" stroke="midnightblue" points="1756.48,-94.97 1761.49,-85.63 1751.75,-89.81 1756.48,-94.97"/>
</g>
<!-- Node4 -->
<g id="node4" class="node">
<title>Node4</title>
<g id="a_node4"><a xlink:href="classslljit_1_1_parser.html#af8579896f39ac563d2edd14404d70f41" target="_top" xlink:title=" ">
<polygon fill="none" stroke="black" points="1375,-192.5 1375,-211.5 1500,-211.5 1500,-192.5 1375,-192.5"/>
<text text-anchor="middle" x="1437.5" y="-199.5" font-family="Helvetica,sans-Serif" font-size="10.00">slljit::Parser::ParseUnary</text>
</a>
</g>
</g>
<!-- Node3&#45;&gt;Node4 -->
<g id="edge3" class="edge">
<title>Node3&#45;&gt;Node4</title>
<path fill="none" stroke="midnightblue" d="M1536.16,-218.72C1522.2,-216.33 1507.59,-213.83 1494.06,-211.51"/>
<polygon fill="midnightblue" stroke="midnightblue" points="1535.74,-222.2 1546.19,-220.44 1536.92,-215.3 1535.74,-222.2"/>
</g>
<!-- Node4&#45;&gt;Node4 -->
<g id="edge26" class="edge">
<title>Node4&#45;&gt;Node4</title>
<path fill="none" stroke="midnightblue" d="M1466.25,-220.65C1465.04,-225.94 1455.46,-230 1437.5,-230 1410.13,-230 1402.22,-220.57 1413.76,-211.76"/>
<polygon fill="midnightblue" stroke="midnightblue" points="1469.19,-218.75 1461.24,-211.76 1463.09,-222.19 1469.19,-218.75"/>
</g>
<!-- Node5 -->
<g id="node5" class="node">
<title>Node5</title>
<g id="a_node5"><a xlink:href="classslljit_1_1_parser.html#ae387c9672ec50720d8cb969558aedbe9" target="_top" xlink:title=" ">
<polygon fill="none" stroke="black" points="1225,-143 1225,-173 1339,-173 1339,-143 1225,-143"/>
<text text-anchor="start" x="1233" y="-161" font-family="Helvetica,sans-Serif" font-size="10.00">slljit::Parser::ParseBin</text>
<text text-anchor="middle" x="1282" y="-150" font-family="Helvetica,sans-Serif" font-size="10.00">OpRHS</text>
</a>
</g>
</g>
<!-- Node4&#45;&gt;Node5 -->
<g id="edge4" class="edge">
<title>Node4&#45;&gt;Node5</title>
<path fill="none" stroke="midnightblue" d="M1393.55,-189.69C1375.56,-184.53 1354.47,-178.49 1335.56,-173.07"/>
<polygon fill="midnightblue" stroke="midnightblue" points="1392.62,-193.06 1403.19,-192.45 1394.54,-186.33 1392.62,-193.06"/>
</g>
<!-- Node6 -->
<g id="node6" class="node">
<title>Node6</title>
<g id="a_node6"><a xlink:href="classslljit_1_1_parser.html#a79461bf414d03dcabb49d3bbd6f89607" target="_top" xlink:title=" ">
<polygon fill="none" stroke="black" points="1040,-169.5 1040,-188.5 1189,-188.5 1189,-169.5 1040,-169.5"/>
<text text-anchor="middle" x="1114.5" y="-176.5" font-family="Helvetica,sans-Serif" font-size="10.00">slljit::Parser::ParseExpression</text>
</a>
</g>
</g>
<!-- Node4&#45;&gt;Node6 -->
<g id="edge25" class="edge">
<title>Node4&#45;&gt;Node6</title>
<path fill="none" stroke="midnightblue" d="M1364.62,-205.1C1323.61,-206.01 1271.3,-205.72 1225,-201 1200.98,-198.55 1174.43,-193.28 1153.48,-188.51"/>
<polygon fill="midnightblue" stroke="midnightblue" points="1364.88,-208.59 1374.79,-204.84 1364.7,-201.6 1364.88,-208.59"/>
</g>
<!-- Node5&#45;&gt;Node5 -->
<g id="edge5" class="edge">
<title>Node5&#45;&gt;Node5</title>
<path fill="none" stroke="midnightblue" d="M1309.36,-183.46C1305.97,-188.18 1296.85,-191.5 1282,-191.5 1257.64,-191.5 1248.69,-182.56 1255.16,-173.16"/>
<polygon fill="midnightblue" stroke="midnightblue" points="1312.84,-182.97 1308.84,-173.16 1305.85,-183.32 1312.84,-182.97"/>
</g>
<!-- Node5&#45;&gt;Node6 -->
<g id="edge6" class="edge">
<title>Node5&#45;&gt;Node6</title>
<path fill="none" stroke="midnightblue" d="M1214.8,-166.4C1206.34,-167.47 1197.64,-168.58 1189.08,-169.66"/>
<polygon fill="midnightblue" stroke="midnightblue" points="1215.49,-169.84 1224.97,-165.11 1214.61,-162.9 1215.49,-169.84"/>
</g>
<!-- Node6&#45;&gt;Node2 -->
<g id="edge17" class="edge">
<title>Node6&#45;&gt;Node2</title>
<path fill="none" stroke="midnightblue" d="M1143.58,-164.85C1165.27,-154.58 1196.32,-141.26 1225,-134 1394.65,-91.08 1601.71,-79.89 1705.69,-76.99"/>
<polygon fill="midnightblue" stroke="midnightblue" points="1141.8,-161.83 1134.32,-169.33 1144.85,-168.13 1141.8,-161.83"/>
</g>
<!-- Node7 -->
<g id="node7" class="node">
<title>Node7</title>
<g id="a_node7"><a xlink:href="classslljit_1_1_parser.html#acc431005ac3dd38732083d7a1bb0eab2" target="_top" xlink:title=" ">
<polygon fill="none" stroke="black" points="840,-90.5 840,-109.5 1004,-109.5 1004,-90.5 840,-90.5"/>
<text text-anchor="middle" x="922" y="-97.5" font-family="Helvetica,sans-Serif" font-size="10.00">slljit::Parser::ParseExpressionList</text>
</a>
</g>
</g>
<!-- Node6&#45;&gt;Node7 -->
<g id="edge7" class="edge">
<title>Node6&#45;&gt;Node7</title>
<path fill="none" stroke="midnightblue" d="M1080.85,-165.46C1042.46,-149.54 979.72,-123.52 946.06,-109.56"/>
<polygon fill="midnightblue" stroke="midnightblue" points="1079.94,-168.87 1090.52,-169.47 1082.62,-162.41 1079.94,-168.87"/>
</g>
<!-- Node6&#45;&gt;Node8 -->
<g id="edge20" class="edge">
<title>Node6&#45;&gt;Node8</title>
<path fill="none" stroke="midnightblue" d="M1031.28,-190.04C976.51,-198.36 903.25,-211.37 840,-229 813.32,-236.44 783.7,-248.2 764.19,-256.46"/>
<polygon fill="midnightblue" stroke="midnightblue" points="1031.91,-193.48 1041.28,-188.54 1030.87,-186.56 1031.91,-193.48"/>
</g>
<!-- Node15 -->
<g id="node15" class="node">
<title>Node15</title>
<g id="a_node15"><a xlink:href="classslljit_1_1_parser.html#a25cfefcbeea85744e23370d3a6f8ad5b" target="_top" xlink:title=" ">
<polygon fill="none" stroke="black" points="844,-286.5 844,-305.5 1000,-305.5 1000,-286.5 844,-286.5"/>
<text text-anchor="middle" x="922" y="-293.5" font-family="Helvetica,sans-Serif" font-size="10.00">slljit::Parser::ParseIdentifierExpr</text>
</a>
</g>
</g>
<!-- Node6&#45;&gt;Node15 -->
<g id="edge18" class="edge">
<title>Node6&#45;&gt;Node15</title>
<path fill="none" stroke="midnightblue" d="M1096.48,-195.74C1076,-215.11 1039.88,-246.91 1004,-267 989.53,-275.1 972.38,-281.63 957.6,-286.42"/>
<polygon fill="midnightblue" stroke="midnightblue" points="1098.98,-198.19 1103.77,-188.74 1094.13,-193.14 1098.98,-198.19"/>
</g>
<!-- Node16 -->
<g id="node16" class="node">
<title>Node16</title>
<g id="a_node16"><a xlink:href="classslljit_1_1_parser.html#a6e2e0f6a2cc445f3a956db59c8d2da66" target="_top" xlink:title="parenexpr ::= &#39;(&#39; expression &#39;)&#39;">
<polygon fill="none" stroke="black" points="849,-238.5 849,-257.5 995,-257.5 995,-238.5 849,-238.5"/>
<text text-anchor="middle" x="922" y="-245.5" font-family="Helvetica,sans-Serif" font-size="10.00">slljit::Parser::ParseParenExpr</text>
</a>
</g>
</g>
<!-- Node6&#45;&gt;Node16 -->
<g id="edge21" class="edge">
<title>Node6&#45;&gt;Node16</title>
<path fill="none" stroke="midnightblue" d="M1077.51,-192.04C1040.13,-205.57 982.56,-226.43 949.26,-238.49"/>
<polygon fill="midnightblue" stroke="midnightblue" points="1078.8,-195.29 1087.01,-188.59 1076.42,-188.71 1078.8,-195.29"/>
</g>
<!-- Node17 -->
<g id="node17" class="node">
<title>Node17</title>
<g id="a_node17"><a xlink:href="classslljit_1_1_parser.html#a435877d3f2869d140a7cca646546a114" target="_top" xlink:title="varexpr ::= &#39;g_var&#39; identifier (&#39;=&#39; expression)?">
<polygon fill="none" stroke="black" points="854.5,-148.5 854.5,-167.5 989.5,-167.5 989.5,-148.5 854.5,-148.5"/>
<text text-anchor="middle" x="922" y="-155.5" font-family="Helvetica,sans-Serif" font-size="10.00">slljit::Parser::ParseVarExpr</text>
</a>
</g>
</g>
<!-- Node6&#45;&gt;Node17 -->
<g id="edge23" class="edge">
<title>Node6&#45;&gt;Node17</title>
<path fill="none" stroke="midnightblue" d="M1029.67,-169.76C1016.26,-168.28 1002.55,-166.77 989.61,-165.34"/>
<polygon fill="midnightblue" stroke="midnightblue" points="1029.52,-173.26 1039.85,-170.88 1030.29,-166.31 1029.52,-173.26"/>
</g>
<!-- Node7&#45;&gt;Node2 -->
<g id="edge8" class="edge">
<title>Node7&#45;&gt;Node2</title>
<path fill="none" stroke="midnightblue" d="M965.46,-87.78C1032.08,-69.72 1165.5,-38 1281,-38 1438.5,-38 1438.5,-38 1438.5,-38 1538.88,-38 1655.16,-55.2 1720.5,-66.46"/>
<polygon fill="midnightblue" stroke="midnightblue" points="964.46,-84.43 955.74,-90.45 966.31,-91.18 964.46,-84.43"/>
</g>
<!-- Node7&#45;&gt;Node8 -->
<g id="edge9" class="edge">
<title>Node7&#45;&gt;Node8</title>
<path fill="none" stroke="midnightblue" d="M883.98,-113.47C869.38,-119.85 853.02,-128.42 840,-139 796.21,-174.59 760.56,-233.59 747.68,-256.5"/>
<polygon fill="midnightblue" stroke="midnightblue" points="885.39,-116.67 893.27,-109.59 882.7,-110.21 885.39,-116.67"/>
</g>
<!-- Node7&#45;&gt;Node9 -->
<g id="edge11" class="edge">
<title>Node7&#45;&gt;Node9</title>
<path fill="none" stroke="midnightblue" d="M869.8,-88.24C847.85,-83.2 822.12,-77.29 799.56,-72.11"/>
<polygon fill="midnightblue" stroke="midnightblue" points="869.07,-91.66 879.6,-90.49 870.64,-84.84 869.07,-91.66"/>
</g>
<!-- Node8&#45;&gt;Node3 -->
<g id="edge10" class="edge">
<title>Node8&#45;&gt;Node3</title>
<path fill="none" stroke="midnightblue" d="M765.55,-280.89C784.67,-292.41 812.99,-307.6 840,-315 957.51,-347.21 991.65,-334 1113.5,-334 1283,-334 1283,-334 1283,-334 1404.16,-334 1539.03,-265.34 1585.34,-239.6"/>
<polygon fill="midnightblue" stroke="midnightblue" points="767.3,-277.86 756.95,-275.58 763.62,-283.81 767.3,-277.86"/>
</g>
<!-- Node10 -->
<g id="node10" class="node">
<title>Node10</title>
<g id="a_node10"><a xlink:href="classslljit_1_1_parser.html#af0cac4623fc05b8b7ae9884b0aeb3d3f" target="_top" xlink:title=" ">
<polygon fill="none" stroke="black" points="512,-44 512,-74 643,-74 643,-44 512,-44"/>
<text text-anchor="start" x="520" y="-62" font-family="Helvetica,sans-Serif" font-size="10.00">slljit::Parser::HandleTyped</text>
<text text-anchor="middle" x="577.5" y="-51" font-family="Helvetica,sans-Serif" font-size="10.00">Expression</text>
</a>
</g>
</g>
<!-- Node9&#45;&gt;Node10 -->
<g id="edge12" class="edge">
<title>Node9&#45;&gt;Node10</title>
<path fill="none" stroke="midnightblue" d="M673.16,-59C663.22,-59 652.99,-59 643.11,-59"/>
<polygon fill="midnightblue" stroke="midnightblue" points="673.38,-62.5 683.38,-59 673.38,-55.5 673.38,-62.5"/>
</g>
<!-- Node11 -->
<g id="node11" class="node">
<title>Node11</title>
<g id="a_node11"><a xlink:href="classslljit_1_1_parser.html#ae2d3d6534b87da7f237c19129a464bda" target="_top" xlink:title="top ::= definition | external | expression | &#39;;&#39;">
<polygon fill="none" stroke="black" points="360,-49.5 360,-68.5 476,-68.5 476,-49.5 360,-49.5"/>
<text text-anchor="middle" x="418" y="-56.5" font-family="Helvetica,sans-Serif" font-size="10.00">slljit::Parser::MainLoop</text>
</a>
</g>
</g>
<!-- Node10&#45;&gt;Node11 -->
<g id="edge13" class="edge">
<title>Node10&#45;&gt;Node11</title>
<path fill="none" stroke="midnightblue" d="M501.87,-59C493.2,-59 484.47,-59 476.09,-59"/>
<polygon fill="midnightblue" stroke="midnightblue" points="501.98,-62.5 511.98,-59 501.98,-55.5 501.98,-62.5"/>
</g>
<!-- Node12 -->
<g id="node12" class="node">
<title>Node12</title>
<g id="a_node12"><a xlink:href="classslljit_1_1_parser.html#a2429935f3c870648f9f895a7b2361cfb" target="_top" xlink:title=" ">
<polygon fill="none" stroke="black" points="226,-49.5 226,-68.5 324,-68.5 324,-49.5 226,-49.5"/>
<text text-anchor="middle" x="275" y="-56.5" font-family="Helvetica,sans-Serif" font-size="10.00">slljit::Parser::parse</text>
</a>
</g>
</g>
<!-- Node11&#45;&gt;Node12 -->
<g id="edge14" class="edge">
<title>Node11&#45;&gt;Node12</title>
<path fill="none" stroke="midnightblue" d="M349.37,-59C340.9,-59 332.37,-59 324.28,-59"/>
<polygon fill="midnightblue" stroke="midnightblue" points="349.65,-62.5 359.65,-59 349.65,-55.5 349.65,-62.5"/>
</g>
<!-- Node13 -->
<g id="node13" class="node">
<title>Node13</title>
<g id="a_node13"><a xlink:href="classslljit_1_1_program.html#ae4d26526a7dd9c69ebe92fb43736696b" target="_top" xlink:title=" ">
<polygon fill="none" stroke="black" points="74,-49.5 74,-68.5 190,-68.5 190,-49.5 74,-49.5"/>
<text text-anchor="middle" x="132" y="-56.5" font-family="Helvetica,sans-Serif" font-size="10.00">slljit::Program::compile</text>
</a>
</g>
</g>
<!-- Node12&#45;&gt;Node13 -->
<g id="edge15" class="edge">
<title>Node12&#45;&gt;Node13</title>
<path fill="none" stroke="midnightblue" d="M215.72,-59C207.27,-59 198.58,-59 190.16,-59"/>
<polygon fill="midnightblue" stroke="midnightblue" points="215.87,-62.5 225.87,-59 215.87,-55.5 215.87,-62.5"/>
</g>
<!-- Node14 -->
<g id="node14" class="node">
<title>Node14</title>
<g id="a_node14"><a xlink:href="compiler__cli_8cpp.html#a3c04138a5bfe5d72780bb7e82a18e627" target="_top" xlink:title=" ">
<polygon fill="none" stroke="black" points="0,-49.5 0,-68.5 38,-68.5 38,-49.5 0,-49.5"/>
<text text-anchor="middle" x="19" y="-56.5" font-family="Helvetica,sans-Serif" font-size="10.00">main</text>
</a>
</g>
</g>
<!-- Node13&#45;&gt;Node14 -->
<g id="edge16" class="edge">
<title>Node13&#45;&gt;Node14</title>
<path fill="none" stroke="midnightblue" d="M63.62,-59C54.3,-59 45.44,-59 38.18,-59"/>
<polygon fill="midnightblue" stroke="midnightblue" points="63.87,-62.5 73.87,-59 63.87,-55.5 63.87,-62.5"/>
</g>
<!-- Node15&#45;&gt;Node3 -->
<g id="edge19" class="edge">
<title>Node15&#45;&gt;Node3</title>
<path fill="none" stroke="midnightblue" d="M1010.02,-294.4C1123.42,-291.27 1327.61,-282.05 1500,-255 1523.42,-251.33 1549.35,-244.94 1569.21,-239.54"/>
<polygon fill="midnightblue" stroke="midnightblue" points="1009.9,-290.9 1000,-294.67 1010.09,-297.9 1009.9,-290.9"/>
</g>
<!-- Node16&#45;&gt;Node3 -->
<g id="edge22" class="edge">
<title>Node16&#45;&gt;Node3</title>
<path fill="none" stroke="midnightblue" d="M1005.23,-248.59C1117.21,-248.96 1323.9,-248.13 1500,-239 1511.63,-238.4 1523.98,-237.51 1535.93,-236.53"/>
<polygon fill="midnightblue" stroke="midnightblue" points="1005.03,-245.09 995.02,-248.55 1005.01,-252.09 1005.03,-245.09"/>
</g>
<!-- Node17&#45;&gt;Node3 -->
<g id="edge24" class="edge">
<title>Node17&#45;&gt;Node3</title>
<path fill="none" stroke="midnightblue" d="M983.62,-146.77C1064.93,-133.48 1213.6,-115.34 1339,-134 1435.39,-148.34 1542.12,-199.11 1583.87,-220.44"/>
<polygon fill="midnightblue" stroke="midnightblue" points="982.86,-143.35 973.57,-148.45 984.01,-150.26 982.86,-143.35"/>
</g>
</g>
</svg>
