<?xml version="1.0" encoding="UTF-8" standalone="no"?>
<!DOCTYPE svg PUBLIC "-//W3C//DTD SVG 1.1//EN"
 "http://www.w3.org/Graphics/SVG/1.1/DTD/svg11.dtd">
<!-- Generated by graphviz version 3.0.0 (20220226.1711)
 -->
<!-- Title: slljit::LocalContext Pages: 1 -->
<svg width="624pt" height="328pt"
 viewBox="0.00 0.00 624.00 328.00" xmlns="http://www.w3.org/2000/svg" xmlns:xlink="http://www.w3.org/1999/xlink">
<g id="graph0" class="graph" transform="scale(1 1) rotate(0) translate(4 324)">
<title>slljit::LocalContext</title>
<!-- Node1 -->
<g id="node1" class="node">
<title>Node1</title>
<g id="a_node1"><a xlink:title="Used to define context for a single Program.">
<polygon fill="#bfbfbf" stroke="black" points="519,-169.5 519,-188.5 616,-188.5 616,-169.5 519,-169.5"/>
<text text-anchor="middle" x="567.5" y="-176.5" font-family="Helvetica,sans-Serif" font-size="10.00">slljit::LocalContext</text>
</a>
</g>
</g>
<!-- Node2 -->
<g id="node2" class="node">
<title>Node2</title>
<g id="a_node2"><a xlink:title=" ">
<polygon fill="none" stroke="black" points="264,-300.5 264,-319.5 403,-319.5 403,-300.5 264,-300.5"/>
<text text-anchor="middle" x="333.5" y="-307.5" font-family="Helvetica,sans-Serif" font-size="10.00">unique_ptr&lt; LLVMContext &gt;</text>
</a>
</g>
</g>
<!-- Node2&#45;&gt;Node1 -->
<g id="edge1" class="edge">
<title>Node2&#45;&gt;Node1</title>
<path fill="none" stroke="#9a32cd" stroke-dasharray="5,2" d="M413.35,-306.39C442.82,-301.97 475.33,-293.16 501,-276 534.28,-253.76 555.13,-208.31 562.97,-188.54"/>
<polygon fill="#9a32cd" stroke="#9a32cd" points="412.51,-302.97 403.07,-307.78 413.45,-309.91 412.51,-302.97"/>
<text text-anchor="middle" x="461" y="-307" font-family="Helvetica,sans-Serif" font-size="10.00"> LLVM_Context</text>
</g>
<!-- Node3 -->
<g id="node3" class="node">
<title>Node3</title>
<g id="a_node3"><a xlink:title=" ">
<polygon fill="none" stroke="black" points="268,-262.5 268,-281.5 399,-281.5 399,-262.5 268,-262.5"/>
<text text-anchor="middle" x="333.5" y="-269.5" font-family="Helvetica,sans-Serif" font-size="10.00">unique_ptr&lt; IRBuilder&lt;&gt; &gt;</text>
</a>
</g>
</g>
<!-- Node3&#45;&gt;Node1 -->
<g id="edge2" class="edge">
<title>Node3&#45;&gt;Node1</title>
<path fill="none" stroke="#9a32cd" stroke-dasharray="5,2" d="M409,-264.07C438.75,-258.85 472.61,-250.22 501,-236 524.72,-224.11 546.78,-201.63 558.26,-188.74"/>
<polygon fill="#9a32cd" stroke="#9a32cd" points="408.37,-260.63 399.08,-265.71 409.52,-267.53 408.37,-260.63"/>
<text text-anchor="middle" x="461" y="-264" font-family="Helvetica,sans-Serif" font-size="10.00"> LLVM_Builder</text>
</g>
<!-- Node4 -->
<g id="node4" class="node">
<title>Node4</title>
<g id="a_node4"><a xlink:title=" ">
<polygon fill="none" stroke="black" points="278,-224.5 278,-243.5 389,-243.5 389,-224.5 278,-224.5"/>
<text text-anchor="middle" x="333.5" y="-231.5" font-family="Helvetica,sans-Serif" font-size="10.00">unique_ptr&lt; Module &gt;</text>
</a>
</g>
</g>
<!-- Node4&#45;&gt;Node1 -->
<g id="edge3" class="edge">
<title>Node4&#45;&gt;Node1</title>
<path fill="none" stroke="#9a32cd" stroke-dasharray="5,2" d="M399.34,-225.19C430.4,-220.25 467.95,-213.2 501,-204 515.77,-199.89 531.87,-193.77 544.41,-188.61"/>
<polygon fill="#9a32cd" stroke="#9a32cd" points="398.41,-221.8 389.07,-226.79 399.48,-228.71 398.41,-221.8"/>
<text text-anchor="middle" x="461" y="-224" font-family="Helvetica,sans-Serif" font-size="10.00"> LLVM_Module</text>
</g>
<!-- Node5 -->
<g id="node5" class="node">
<title>Node5</title>
<g id="a_node5"><a xlink:title=" ">
<polygon fill="none" stroke="black" points="303.5,-186.5 303.5,-205.5 363.5,-205.5 363.5,-186.5 303.5,-186.5"/>
<text text-anchor="middle" x="333.5" y="-193.5" font-family="Helvetica,sans-Serif" font-size="10.00">JITDylib &amp;</text>
</a>
</g>
</g>
<!-- Node5&#45;&gt;Node1 -->
<g id="edge4" class="edge">
<title>Node5&#45;&gt;Node1</title>
<path fill="none" stroke="#9a32cd" stroke-dasharray="5,2" d="M374.07,-193.1C414.13,-190.16 476.11,-185.62 518.85,-182.49"/>
<polygon fill="#9a32cd" stroke="#9a32cd" points="373.6,-189.63 363.88,-193.85 374.11,-196.61 373.6,-189.63"/>
<text text-anchor="middle" x="461" y="-192" font-family="Helvetica,sans-Serif" font-size="10.00"> JD</text>
</g>
<!-- Node6 -->
<g id="node6" class="node">
<title>Node6</title>
<g id="a_node6"><a xlink:href="classslljit_1_1_layout.html" target="_top" xlink:title=" ">
<polygon fill="none" stroke="black" points="299,-148.5 299,-167.5 368,-167.5 368,-148.5 299,-148.5"/>
<text text-anchor="middle" x="333.5" y="-155.5" font-family="Helvetica,sans-Serif" font-size="10.00">slljit::Layout</text>
</a>
</g>
</g>
<!-- Node6&#45;&gt;Node1 -->
<g id="edge5" class="edge">
<title>Node6&#45;&gt;Node1</title>
<path fill="none" stroke="#9a32cd" stroke-dasharray="5,2" d="M378.46,-159.88C412.08,-161.56 459.55,-164.48 501,-169 506.83,-169.64 512.94,-170.42 518.98,-171.26"/>
<polygon fill="#9a32cd" stroke="#9a32cd" points="378.22,-156.36 368.06,-159.37 377.88,-163.35 378.22,-156.36"/>
<text text-anchor="middle" x="461" y="-172" font-family="Helvetica,sans-Serif" font-size="10.00"> layout</text>
</g>
<!-- Node7 -->
<g id="node7" class="node">
<title>Node7</title>
<g id="a_node7"><a xlink:title=" ">
<polygon fill="none" stroke="black" points="39.5,-205.5 39.5,-224.5 111.5,-224.5 111.5,-205.5 39.5,-205.5"/>
<text text-anchor="middle" x="75.5" y="-212.5" font-family="Helvetica,sans-Serif" font-size="10.00">set&lt; string &gt;</text>
</a>
</g>
</g>
<!-- Node7&#45;&gt;Node6 -->
<g id="edge6" class="edge">
<title>Node7&#45;&gt;Node6</title>
<path fill="none" stroke="#9a32cd" stroke-dasharray="5,2" d="M121.9,-209.09C156.34,-204.03 204.65,-195.71 246,-184 254.26,-181.66 255.85,-179.71 264,-177 275.24,-173.26 287.69,-169.66 298.85,-166.61"/>
<polygon fill="#9a32cd" stroke="#9a32cd" points="121.08,-205.67 111.68,-210.56 122.07,-212.6 121.08,-205.67"/>
<text text-anchor="middle" x="207.5" y="-203" font-family="Helvetica,sans-Serif" font-size="10.00"> names</text>
</g>
<!-- Node8 -->
<g id="node8" class="node">
<title>Node8</title>
<g id="a_node8"><a xlink:title=" ">
<polygon fill="none" stroke="black" points="0,-167.5 0,-186.5 151,-186.5 151,-167.5 0,-167.5"/>
<text text-anchor="middle" x="75.5" y="-174.5" font-family="Helvetica,sans-Serif" font-size="10.00">vector&lt; slljit::GlobalDefinition &gt;</text>
</a>
</g>
</g>
<!-- Node8&#45;&gt;Node6 -->
<g id="edge7" class="edge">
<title>Node8&#45;&gt;Node6</title>
<path fill="none" stroke="#9a32cd" stroke-dasharray="5,2" d="M161.42,-170.7C208.37,-167.21 264.08,-163.08 298.87,-160.5"/>
<polygon fill="#9a32cd" stroke="#9a32cd" points="160.95,-167.22 151.23,-171.45 161.47,-174.2 160.95,-167.22"/>
<text text-anchor="middle" x="207.5" y="-172" font-family="Helvetica,sans-Serif" font-size="10.00"> globals</text>
</g>
<!-- Node9 -->
<g id="node9" class="node">
<title>Node9</title>
<g id="a_node9"><a xlink:title=" ">
<polygon fill="none" stroke="black" points="32.5,-129.5 32.5,-148.5 118.5,-148.5 118.5,-129.5 32.5,-129.5"/>
<text text-anchor="middle" x="75.5" y="-136.5" font-family="Helvetica,sans-Serif" font-size="10.00">vector&lt; size_t &gt;</text>
</a>
</g>
</g>
<!-- Node9&#45;&gt;Node6 -->
<g id="edge8" class="edge">
<title>Node9&#45;&gt;Node6</title>
<path fill="none" stroke="#9a32cd" stroke-dasharray="5,2" d="M128.72,-141.48C162.25,-143.22 206.73,-145.8 246,-149 263.46,-150.42 282.85,-152.4 298.85,-154.15"/>
<polygon fill="#9a32cd" stroke="#9a32cd" points="128.84,-137.98 118.68,-140.96 128.49,-144.97 128.84,-137.98"/>
<text text-anchor="middle" x="207.5" y="-152" font-family="Helvetica,sans-Serif" font-size="10.00"> global_offsets</text>
</g>
<!-- Node10 -->
<g id="node10" class="node">
<title>Node10</title>
<g id="a_node10"><a xlink:title=" ">
<polygon fill="none" stroke="black" points="6.5,-80 6.5,-110 144.5,-110 144.5,-80 6.5,-80"/>
<text text-anchor="start" x="14.5" y="-98" font-family="Helvetica,sans-Serif" font-size="10.00">map&lt; string, slljit</text>
<text text-anchor="middle" x="75.5" y="-87" font-family="Helvetica,sans-Serif" font-size="10.00">::ConstantGlobalDefinition &gt;</text>
</a>
</g>
</g>
<!-- Node10&#45;&gt;Node6 -->
<g id="edge9" class="edge">
<title>Node10&#45;&gt;Node6</title>
<path fill="none" stroke="#9a32cd" stroke-dasharray="5,2" d="M155.03,-104.31C184.24,-109.32 217.25,-116.84 246,-128 254.74,-131.39 255.4,-135.27 264,-139 274.98,-143.77 287.48,-147.65 298.76,-150.63"/>
<polygon fill="#9a32cd" stroke="#9a32cd" points="155.3,-100.81 144.87,-102.65 154.17,-107.72 155.3,-100.81"/>
<text text-anchor="middle" x="207.5" y="-131" font-family="Helvetica,sans-Serif" font-size="10.00"> constant_globals</text>
</g>
<!-- Node11 -->
<g id="node11" class="node">
<title>Node11</title>
<g id="a_node11"><a xlink:title=" ">
<polygon fill="none" stroke="black" points="287,-99 287,-129 380,-129 380,-99 287,-99"/>
<text text-anchor="start" x="295" y="-117" font-family="Helvetica,sans-Serif" font-size="10.00">list&lt; map&lt; string,</text>
<text text-anchor="middle" x="333.5" y="-106" font-family="Helvetica,sans-Serif" font-size="10.00"> AllocaInst * &gt; &gt;</text>
</a>
</g>
</g>
<!-- Node11&#45;&gt;Node1 -->
<g id="edge10" class="edge">
<title>Node11&#45;&gt;Node1</title>
<path fill="none" stroke="#9a32cd" stroke-dasharray="5,2" d="M390.49,-121.39C423.25,-126.63 465.09,-134.9 501,-147 518.39,-152.86 537.09,-162.35 550.04,-169.47"/>
<polygon fill="#9a32cd" stroke="#9a32cd" points="390.62,-117.87 380.2,-119.8 389.54,-124.79 390.62,-117.87"/>
<text text-anchor="middle" x="461" y="-150" font-family="Helvetica,sans-Serif" font-size="10.00"> scope_list</text>
</g>
<!-- Node12 -->
<g id="node12" class="node">
<title>Node12</title>
<g id="a_node12"><a xlink:title=" ">
<polygon fill="none" stroke="black" points="280,-38.5 280,-79.5 387,-79.5 387,-38.5 280,-38.5"/>
<text text-anchor="start" x="288" y="-67.5" font-family="Helvetica,sans-Serif" font-size="10.00">map&lt; std::string, std</text>
<text text-anchor="start" x="288" y="-56.5" font-family="Helvetica,sans-Serif" font-size="10.00">::unique_ptr&lt; slljit</text>
<text text-anchor="middle" x="333.5" y="-45.5" font-family="Helvetica,sans-Serif" font-size="10.00">::PrototypeAST &gt; &gt;</text>
</a>
</g>
</g>
<!-- Node12&#45;&gt;Node1 -->
<g id="edge11" class="edge">
<title>Node12&#45;&gt;Node1</title>
<path fill="none" stroke="#9a32cd" stroke-dasharray="5,2" d="M397.07,-71.24C429.69,-79.46 469.29,-92.45 501,-112 526.2,-127.54 548.68,-154.85 559.56,-169.34"/>
<polygon fill="#9a32cd" stroke="#9a32cd" points="397.73,-67.8 387.18,-68.84 396.08,-74.6 397.73,-67.8"/>
<text text-anchor="middle" x="461" y="-115" font-family="Helvetica,sans-Serif" font-size="10.00"> FunctionProtos</text>
</g>
<!-- Node13 -->
<g id="node13" class="node">
<title>Node13</title>
<g id="a_node13"><a xlink:title=" ">
<polygon fill="none" stroke="black" points="289,-0.5 289,-19.5 378,-19.5 378,-0.5 289,-0.5"/>
<text text-anchor="middle" x="333.5" y="-7.5" font-family="Helvetica,sans-Serif" font-size="10.00">map&lt; char, int &gt;</text>
</a>
</g>
</g>
<!-- Node13&#45;&gt;Node1 -->
<g id="edge12" class="edge">
<title>Node13&#45;&gt;Node1</title>
<path fill="none" stroke="#9a32cd" stroke-dasharray="5,2" d="M388.33,-16.81C423.68,-23.66 469.11,-37.25 501,-64 536.38,-93.68 556.58,-147.65 563.63,-169.47"/>
<polygon fill="#9a32cd" stroke="#9a32cd" points="388.64,-13.31 378.17,-14.98 387.39,-20.2 388.64,-13.31"/>
<text text-anchor="middle" x="461" y="-67" font-family="Helvetica,sans-Serif" font-size="10.00"> BinopPrecedence</text>
</g>
</g>
</svg>
