<?xml version="1.0" encoding="UTF-8" standalone="no"?>
<!DOCTYPE svg PUBLIC "-//W3C//DTD SVG 1.1//EN"
 "http://www.w3.org/Graphics/SVG/1.1/DTD/svg11.dtd">
<!-- Generated by graphviz version 3.0.0 (20220226.1711)
 -->
<!-- Title: slljit::Parser::ParseLiteralExpr Pages: 1 -->
<svg width="1795pt" height="286pt"
 viewBox="0.00 0.00 1795.00 285.56" xmlns="http://www.w3.org/2000/svg" xmlns:xlink="http://www.w3.org/1999/xlink">
<g id="graph0" class="graph" transform="scale(1 1) rotate(0) translate(4 281.56)">
<title>slljit::Parser::ParseLiteralExpr</title>
<!-- Node1 -->
<g id="node1" class="node">
<title>Node1</title>
<g id="a_node1"><a xlink:title="numberexpr ::= number">
<polygon fill="#bfbfbf" stroke="black" points="1641,-93.79 1641,-112.79 1787,-112.79 1787,-93.79 1641,-93.79"/>
<text text-anchor="middle" x="1714" y="-100.79" font-family="Helvetica,sans-Serif" font-size="10.00">slljit::Parser::ParseLiteralExpr</text>
</a>
</g>
</g>
<!-- Node2 -->
<g id="node2" class="node">
<title>Node2</title>
<g id="a_node2"><a xlink:href="classslljit_1_1_parser.html#a45cb3e4f600e8e2c253490e7d878e8cd" target="_top" xlink:title=" ">
<polygon fill="none" stroke="black" points="1471,-93.79 1471,-112.79 1605,-112.79 1605,-93.79 1471,-93.79"/>
<text text-anchor="middle" x="1538" y="-100.79" font-family="Helvetica,sans-Serif" font-size="10.00">slljit::Parser::ParsePrimary</text>
</a>
</g>
</g>
<!-- Node1&#45;&gt;Node2 -->
<g id="edge1" class="edge">
<title>Node1&#45;&gt;Node2</title>
<path fill="none" stroke="midnightblue" d="M1630.88,-103.29C1622.25,-103.29 1613.54,-103.29 1605.12,-103.29"/>
<polygon fill="midnightblue" stroke="midnightblue" points="1630.97,-106.79 1640.97,-103.29 1630.97,-99.79 1630.97,-106.79"/>
</g>
<!-- Node3 -->
<g id="node3" class="node">
<title>Node3</title>
<g id="a_node3"><a xlink:href="classslljit_1_1_parser.html#af8579896f39ac563d2edd14404d70f41" target="_top" xlink:title=" ">
<polygon fill="none" stroke="black" points="1310,-112.79 1310,-131.79 1435,-131.79 1435,-112.79 1310,-112.79"/>
<text text-anchor="middle" x="1372.5" y="-119.79" font-family="Helvetica,sans-Serif" font-size="10.00">slljit::Parser::ParseUnary</text>
</a>
</g>
</g>
<!-- Node2&#45;&gt;Node3 -->
<g id="edge2" class="edge">
<title>Node2&#45;&gt;Node3</title>
<path fill="none" stroke="midnightblue" d="M1460.86,-112.14C1452.2,-113.14 1443.46,-114.16 1435.02,-115.14"/>
<polygon fill="midnightblue" stroke="midnightblue" points="1461.44,-115.59 1470.97,-110.96 1460.63,-108.64 1461.44,-115.59"/>
</g>
<!-- Node3&#45;&gt;Node3 -->
<g id="edge25" class="edge">
<title>Node3&#45;&gt;Node3</title>
<path fill="none" stroke="midnightblue" d="M1401.25,-140.94C1400.04,-146.22 1390.46,-150.29 1372.5,-150.29 1345.13,-150.29 1337.22,-140.85 1348.76,-132.04"/>
<polygon fill="midnightblue" stroke="midnightblue" points="1404.19,-139.04 1396.24,-132.04 1398.09,-142.48 1404.19,-139.04"/>
</g>
<!-- Node4 -->
<g id="node4" class="node">
<title>Node4</title>
<g id="a_node4"><a xlink:href="classslljit_1_1_parser.html#ae387c9672ec50720d8cb969558aedbe9" target="_top" xlink:title=" ">
<polygon fill="none" stroke="black" points="1160,-151.29 1160,-181.29 1274,-181.29 1274,-151.29 1160,-151.29"/>
<text text-anchor="start" x="1168" y="-169.29" font-family="Helvetica,sans-Serif" font-size="10.00">slljit::Parser::ParseBin</text>
<text text-anchor="middle" x="1217" y="-158.29" font-family="Helvetica,sans-Serif" font-size="10.00">OpRHS</text>
</a>
</g>
</g>
<!-- Node3&#45;&gt;Node4 -->
<g id="edge3" class="edge">
<title>Node3&#45;&gt;Node4</title>
<path fill="none" stroke="midnightblue" d="M1328.55,-134.6C1310.56,-139.76 1289.47,-145.8 1270.56,-151.22"/>
<polygon fill="midnightblue" stroke="midnightblue" points="1329.54,-137.96 1338.19,-131.84 1327.62,-131.23 1329.54,-137.96"/>
</g>
<!-- Node5 -->
<g id="node5" class="node">
<title>Node5</title>
<g id="a_node5"><a xlink:href="classslljit_1_1_parser.html#a79461bf414d03dcabb49d3bbd6f89607" target="_top" xlink:title=" ">
<polygon fill="none" stroke="black" points="975,-131.79 975,-150.79 1124,-150.79 1124,-131.79 975,-131.79"/>
<text text-anchor="middle" x="1049.5" y="-138.79" font-family="Helvetica,sans-Serif" font-size="10.00">slljit::Parser::ParseExpression</text>
</a>
</g>
</g>
<!-- Node3&#45;&gt;Node5 -->
<g id="edge24" class="edge">
<title>Node3&#45;&gt;Node5</title>
<path fill="none" stroke="midnightblue" d="M1299.79,-126.53C1247.52,-129.63 1176.92,-133.81 1124.19,-136.93"/>
<polygon fill="midnightblue" stroke="midnightblue" points="1300.21,-130.01 1309.99,-125.93 1299.8,-123.03 1300.21,-130.01"/>
</g>
<!-- Node4&#45;&gt;Node4 -->
<g id="edge4" class="edge">
<title>Node4&#45;&gt;Node4</title>
<path fill="none" stroke="midnightblue" d="M1244.36,-191.75C1240.97,-196.47 1231.85,-199.79 1217,-199.79 1192.64,-199.79 1183.69,-190.84 1190.16,-181.45"/>
<polygon fill="midnightblue" stroke="midnightblue" points="1247.84,-191.26 1243.84,-181.45 1240.85,-191.61 1247.84,-191.26"/>
</g>
<!-- Node4&#45;&gt;Node5 -->
<g id="edge5" class="edge">
<title>Node4&#45;&gt;Node5</title>
<path fill="none" stroke="midnightblue" d="M1150.02,-156.32C1138.01,-154.51 1125.51,-152.62 1113.59,-150.82"/>
<polygon fill="midnightblue" stroke="midnightblue" points="1149.56,-159.79 1159.97,-157.82 1150.6,-152.87 1149.56,-159.79"/>
</g>
<!-- Node6 -->
<g id="node6" class="node">
<title>Node6</title>
<g id="a_node6"><a xlink:href="classslljit_1_1_parser.html#acc431005ac3dd38732083d7a1bb0eab2" target="_top" xlink:title=" ">
<polygon fill="none" stroke="black" points="775,-150.79 775,-169.79 939,-169.79 939,-150.79 775,-150.79"/>
<text text-anchor="middle" x="857" y="-157.79" font-family="Helvetica,sans-Serif" font-size="10.00">slljit::Parser::ParseExpressionList</text>
</a>
</g>
</g>
<!-- Node5&#45;&gt;Node6 -->
<g id="edge6" class="edge">
<title>Node5&#45;&gt;Node6</title>
<path fill="none" stroke="midnightblue" d="M964.86,-149.63C956.29,-150.48 947.59,-151.35 939.05,-152.2"/>
<polygon fill="midnightblue" stroke="midnightblue" points="965.24,-153.11 974.85,-148.63 964.55,-146.14 965.24,-153.11"/>
</g>
<!-- Node7 -->
<g id="node7" class="node">
<title>Node7</title>
<g id="a_node7"><a xlink:href="classslljit_1_1_parser.html#a81023e7a6221eb6b92027bd21433c9dd" target="_top" xlink:title="forexpr ::= &#39;for&#39; identifier &#39;=&#39; expr &#39;,&#39; expr (&#39;,&#39; expr)? &#39;in&#39; expression">
<polygon fill="none" stroke="black" points="605,-106.79 605,-125.79 739,-125.79 739,-106.79 605,-106.79"/>
<text text-anchor="middle" x="672" y="-113.79" font-family="Helvetica,sans-Serif" font-size="10.00">slljit::Parser::ParseForExpr</text>
</a>
</g>
</g>
<!-- Node5&#45;&gt;Node7 -->
<g id="edge16" class="edge">
<title>Node5&#45;&gt;Node7</title>
<path fill="none" stroke="midnightblue" d="M964.49,-135.69C896.4,-131.16 801.77,-124.86 739.03,-120.68"/>
<polygon fill="midnightblue" stroke="midnightblue" points="964.55,-139.21 974.76,-136.38 965.02,-132.22 964.55,-139.21"/>
</g>
<!-- Node8 -->
<g id="node8" class="node">
<title>Node8</title>
<g id="a_node8"><a xlink:href="classslljit_1_1_parser.html#a149f5e88cb03aa08c388e6320c6c1bac" target="_top" xlink:title="ifexpr ::= &#39;if&#39; expression &#39;then&#39; expression &#39;else&#39; expression">
<polygon fill="none" stroke="black" points="609.5,-194.79 609.5,-213.79 734.5,-213.79 734.5,-194.79 609.5,-194.79"/>
<text text-anchor="middle" x="672" y="-201.79" font-family="Helvetica,sans-Serif" font-size="10.00">slljit::Parser::ParseIfExpr</text>
</a>
</g>
</g>
<!-- Node5&#45;&gt;Node8 -->
<g id="edge19" class="edge">
<title>Node5&#45;&gt;Node8</title>
<path fill="none" stroke="midnightblue" d="M1016.58,-154.65C995.04,-163.1 965.77,-173.47 939,-179.29 869.99,-194.28 788.98,-200.28 734.65,-202.68"/>
<polygon fill="midnightblue" stroke="midnightblue" points="1017.9,-157.89 1025.89,-150.93 1015.3,-151.39 1017.9,-157.89"/>
</g>
<!-- Node14 -->
<g id="node14" class="node">
<title>Node14</title>
<g id="a_node14"><a xlink:href="classslljit_1_1_parser.html#a25cfefcbeea85744e23370d3a6f8ad5b" target="_top" xlink:title=" ">
<polygon fill="none" stroke="black" points="779,-226.79 779,-245.79 935,-245.79 935,-226.79 779,-226.79"/>
<text text-anchor="middle" x="857" y="-233.79" font-family="Helvetica,sans-Serif" font-size="10.00">slljit::Parser::ParseIdentifierExpr</text>
</a>
</g>
</g>
<!-- Node5&#45;&gt;Node14 -->
<g id="edge17" class="edge">
<title>Node5&#45;&gt;Node14</title>
<path fill="none" stroke="midnightblue" d="M1028.14,-157.06C1006.9,-172.88 972.13,-197.03 939,-212.29 926.21,-218.18 911.62,-223.03 898.38,-226.78"/>
<polygon fill="midnightblue" stroke="midnightblue" points="1030.5,-159.66 1036.37,-150.84 1026.28,-154.07 1030.5,-159.66"/>
</g>
<!-- Node15 -->
<g id="node15" class="node">
<title>Node15</title>
<g id="a_node15"><a xlink:href="classslljit_1_1_parser.html#a6e2e0f6a2cc445f3a956db59c8d2da66" target="_top" xlink:title="parenexpr ::= &#39;(&#39; expression &#39;)&#39;">
<polygon fill="none" stroke="black" points="784,-74.79 784,-93.79 930,-93.79 930,-74.79 784,-74.79"/>
<text text-anchor="middle" x="857" y="-81.79" font-family="Helvetica,sans-Serif" font-size="10.00">slljit::Parser::ParseParenExpr</text>
</a>
</g>
</g>
<!-- Node5&#45;&gt;Node15 -->
<g id="edge20" class="edge">
<title>Node5&#45;&gt;Node15</title>
<path fill="none" stroke="midnightblue" d="M1007.22,-128.8C986.72,-122.61 961.56,-115.03 939,-108.29 922.98,-103.5 905.17,-98.22 890.33,-93.83"/>
<polygon fill="midnightblue" stroke="midnightblue" points="1006.3,-132.18 1016.89,-131.72 1008.33,-125.48 1006.3,-132.18"/>
</g>
<!-- Node16 -->
<g id="node16" class="node">
<title>Node16</title>
<g id="a_node16"><a xlink:href="classslljit_1_1_parser.html#a435877d3f2869d140a7cca646546a114" target="_top" xlink:title="varexpr ::= &#39;g_var&#39; identifier (&#39;=&#39; expression)?">
<polygon fill="none" stroke="black" points="789.5,-36.79 789.5,-55.79 924.5,-55.79 924.5,-36.79 789.5,-36.79"/>
<text text-anchor="middle" x="857" y="-43.79" font-family="Helvetica,sans-Serif" font-size="10.00">slljit::Parser::ParseVarExpr</text>
</a>
</g>
</g>
<!-- Node5&#45;&gt;Node16 -->
<g id="edge22" class="edge">
<title>Node5&#45;&gt;Node16</title>
<path fill="none" stroke="midnightblue" d="M1029.81,-124.99C1009.01,-107.68 973.75,-80.75 939,-65.29 930.42,-61.47 920.98,-58.37 911.66,-55.86"/>
<polygon fill="midnightblue" stroke="midnightblue" points="1027.65,-127.74 1037.54,-131.53 1032.17,-122.4 1027.65,-127.74"/>
</g>
<!-- Node6&#45;&gt;Node7 -->
<g id="edge7" class="edge">
<title>Node6&#45;&gt;Node7</title>
<path fill="none" stroke="midnightblue" d="M806.22,-148.32C776.81,-141.25 740.07,-132.41 712.63,-125.82"/>
<polygon fill="midnightblue" stroke="midnightblue" points="805.75,-151.81 816.29,-150.74 807.39,-145 805.75,-151.81"/>
</g>
<!-- Node6&#45;&gt;Node8 -->
<g id="edge9" class="edge">
<title>Node6&#45;&gt;Node8</title>
<path fill="none" stroke="midnightblue" d="M806.22,-172.26C776.81,-179.33 740.07,-188.16 712.63,-194.76"/>
<polygon fill="midnightblue" stroke="midnightblue" points="807.39,-175.58 816.29,-169.84 805.75,-168.77 807.39,-175.58"/>
</g>
<!-- Node9 -->
<g id="node9" class="node">
<title>Node9</title>
<g id="a_node9"><a xlink:href="classslljit_1_1_parser.html#aa9a9ce164e114ad7f347f32329f5a5a2" target="_top" xlink:title="definition ::= &#39;def&#39; prototype expression">
<polygon fill="none" stroke="black" points="614,-145.29 614,-175.29 730,-175.29 730,-145.29 614,-145.29"/>
<text text-anchor="start" x="622" y="-163.29" font-family="Helvetica,sans-Serif" font-size="10.00">slljit::Parser::ParseTop</text>
<text text-anchor="middle" x="672" y="-152.29" font-family="Helvetica,sans-Serif" font-size="10.00">LevelTypedExpression</text>
</a>
</g>
</g>
<!-- Node6&#45;&gt;Node9 -->
<g id="edge11" class="edge">
<title>Node6&#45;&gt;Node9</title>
<path fill="none" stroke="midnightblue" d="M764.63,-160.29C752.88,-160.29 741.12,-160.29 730.14,-160.29"/>
<polygon fill="midnightblue" stroke="midnightblue" points="764.93,-163.79 774.93,-160.29 764.93,-156.79 764.93,-163.79"/>
</g>
<!-- Node7&#45;&gt;Node2 -->
<g id="edge8" class="edge">
<title>Node7&#45;&gt;Node2</title>
<path fill="none" stroke="midnightblue" d="M686.87,-98.61C704.69,-77.38 737.8,-42.73 775,-27.29 887.54,19.42 926.65,-8.29 1048.5,-8.29 1218,-8.29 1218,-8.29 1218,-8.29 1336.75,-8.29 1470.41,-69.5 1518.52,-93.66"/>
<polygon fill="midnightblue" stroke="midnightblue" points="684.02,-96.57 680.4,-106.53 689.44,-100.99 684.02,-96.57"/>
</g>
<!-- Node8&#45;&gt;Node2 -->
<g id="edge10" class="edge">
<title>Node8&#45;&gt;Node2</title>
<path fill="none" stroke="midnightblue" d="M696.16,-219.2C716.17,-231.26 746.31,-247.46 775,-255.29 892.55,-287.38 926.65,-274.29 1048.5,-274.29 1218,-274.29 1218,-274.29 1218,-274.29 1320.79,-274.29 1346.88,-247.21 1435,-194.29 1474.26,-170.71 1512.3,-130.96 1528.64,-112.82"/>
<polygon fill="midnightblue" stroke="midnightblue" points="697.81,-216.11 687.46,-213.84 694.14,-222.07 697.81,-216.11"/>
</g>
<!-- Node10 -->
<g id="node10" class="node">
<title>Node10</title>
<g id="a_node10"><a xlink:href="classslljit_1_1_parser.html#af0cac4623fc05b8b7ae9884b0aeb3d3f" target="_top" xlink:title=" ">
<polygon fill="none" stroke="black" points="438,-145.29 438,-175.29 569,-175.29 569,-145.29 438,-145.29"/>
<text text-anchor="start" x="446" y="-163.29" font-family="Helvetica,sans-Serif" font-size="10.00">slljit::Parser::HandleTyped</text>
<text text-anchor="middle" x="503.5" y="-152.29" font-family="Helvetica,sans-Serif" font-size="10.00">Expression</text>
</a>
</g>
</g>
<!-- Node9&#45;&gt;Node10 -->
<g id="edge12" class="edge">
<title>Node9&#45;&gt;Node10</title>
<path fill="none" stroke="midnightblue" d="M603.42,-160.29C592.07,-160.29 580.32,-160.29 569.05,-160.29"/>
<polygon fill="midnightblue" stroke="midnightblue" points="603.7,-163.79 613.7,-160.29 603.7,-156.79 603.7,-163.79"/>
</g>
<!-- Node11 -->
<g id="node11" class="node">
<title>Node11</title>
<g id="a_node11"><a xlink:href="classslljit_1_1_parser.html#ae2d3d6534b87da7f237c19129a464bda" target="_top" xlink:title="top ::= definition | external | expression | &#39;;&#39;">
<polygon fill="none" stroke="black" points="286,-150.79 286,-169.79 402,-169.79 402,-150.79 286,-150.79"/>
<text text-anchor="middle" x="344" y="-157.79" font-family="Helvetica,sans-Serif" font-size="10.00">slljit::Parser::MainLoop</text>
</a>
</g>
</g>
<!-- Node10&#45;&gt;Node11 -->
<g id="edge13" class="edge">
<title>Node10&#45;&gt;Node11</title>
<path fill="none" stroke="midnightblue" d="M427.87,-160.29C419.2,-160.29 410.47,-160.29 402.09,-160.29"/>
<polygon fill="midnightblue" stroke="midnightblue" points="427.98,-163.79 437.98,-160.29 427.98,-156.79 427.98,-163.79"/>
</g>
<!-- Node12 -->
<g id="node12" class="node">
<title>Node12</title>
<g id="a_node12"><a xlink:href="classslljit_1_1_parser.html#a2429935f3c870648f9f895a7b2361cfb" target="_top" xlink:title=" ">
<polygon fill="none" stroke="black" points="152,-150.79 152,-169.79 250,-169.79 250,-150.79 152,-150.79"/>
<text text-anchor="middle" x="201" y="-157.79" font-family="Helvetica,sans-Serif" font-size="10.00">slljit::Parser::parse</text>
</a>
</g>
</g>
<!-- Node11&#45;&gt;Node12 -->
<g id="edge14" class="edge">
<title>Node11&#45;&gt;Node12</title>
<path fill="none" stroke="midnightblue" d="M275.37,-160.29C266.9,-160.29 258.37,-160.29 250.28,-160.29"/>
<polygon fill="midnightblue" stroke="midnightblue" points="275.65,-163.79 285.65,-160.29 275.65,-156.79 275.65,-163.79"/>
</g>
<!-- Node13 -->
<g id="node13" class="node">
<title>Node13</title>
<g id="a_node13"><a xlink:href="classslljit_1_1_program.html#ae4d26526a7dd9c69ebe92fb43736696b" target="_top" xlink:title=" ">
<polygon fill="none" stroke="black" points="0,-150.79 0,-169.79 116,-169.79 116,-150.79 0,-150.79"/>
<text text-anchor="middle" x="58" y="-157.79" font-family="Helvetica,sans-Serif" font-size="10.00">slljit::Program::compile</text>
</a>
</g>
</g>
<!-- Node12&#45;&gt;Node13 -->
<g id="edge15" class="edge">
<title>Node12&#45;&gt;Node13</title>
<path fill="none" stroke="midnightblue" d="M141.72,-160.29C133.27,-160.29 124.58,-160.29 116.16,-160.29"/>
<polygon fill="midnightblue" stroke="midnightblue" points="141.87,-163.79 151.87,-160.29 141.87,-156.79 141.87,-163.79"/>
</g>
<!-- Node14&#45;&gt;Node2 -->
<g id="edge18" class="edge">
<title>Node14&#45;&gt;Node2</title>
<path fill="none" stroke="midnightblue" d="M945.43,-236.59C1030.13,-235.47 1161.85,-230.04 1274,-209.29 1347.68,-195.66 1366.03,-188.58 1435,-159.29 1467.17,-145.63 1502.44,-124.86 1521.93,-112.82"/>
<polygon fill="midnightblue" stroke="midnightblue" points="945.3,-233.09 935.34,-236.7 945.38,-240.09 945.3,-233.09"/>
</g>
<!-- Node15&#45;&gt;Node2 -->
<g id="edge21" class="edge">
<title>Node15&#45;&gt;Node2</title>
<path fill="none" stroke="midnightblue" d="M940.42,-86.59C1076.7,-90.41 1346.33,-97.95 1470.97,-101.44"/>
<polygon fill="midnightblue" stroke="midnightblue" points="940.13,-83.08 930.04,-86.3 939.94,-90.08 940.13,-83.08"/>
</g>
<!-- Node16&#45;&gt;Node2 -->
<g id="edge23" class="edge">
<title>Node16&#45;&gt;Node2</title>
<path fill="none" stroke="midnightblue" d="M934.75,-51.72C1045.37,-59.71 1255.99,-75.5 1435,-92.29 1446.62,-93.38 1458.96,-94.63 1470.91,-95.89"/>
<polygon fill="midnightblue" stroke="midnightblue" points="934.91,-48.23 924.69,-51 934.41,-55.21 934.91,-48.23"/>
</g>
</g>
</svg>
