<?xml version="1.0" encoding="UTF-8" standalone="no"?>
<!DOCTYPE svg PUBLIC "-//W3C//DTD SVG 1.1//EN"
 "http://www.w3.org/Graphics/SVG/1.1/DTD/svg11.dtd">
<!-- Generated by graphviz version 3.0.0 (20220226.1711)
 -->
<!-- Title: slljit::Parser::ParseIfExpr Pages: 1 -->
<svg width="1774pt" height="317pt"
 viewBox="0.00 0.00 1774.00 317.15" xmlns="http://www.w3.org/2000/svg" xmlns:xlink="http://www.w3.org/1999/xlink">
<g id="graph0" class="graph" transform="scale(1 1) rotate(0) translate(4 313.15)">
<title>slljit::Parser::ParseIfExpr</title>
<!-- Node1 -->
<g id="node1" class="node">
<title>Node1</title>
<g id="a_node1"><a xlink:title="ifexpr ::= &#39;if&#39; expression &#39;then&#39; expression &#39;else&#39; expression">
<polygon fill="#bfbfbf" stroke="black" points="1641,-261.65 1641,-280.65 1766,-280.65 1766,-261.65 1641,-261.65"/>
<text text-anchor="middle" x="1703.5" y="-268.65" font-family="Helvetica,sans-Serif" font-size="10.00">slljit::Parser::ParseIfExpr</text>
</a>
</g>
</g>
<!-- Node2 -->
<g id="node2" class="node">
<title>Node2</title>
<g id="a_node2"><a xlink:href="classslljit_1_1_parser.html#a45cb3e4f600e8e2c253490e7d878e8cd" target="_top" xlink:title=" ">
<polygon fill="none" stroke="black" points="1471,-98.65 1471,-117.65 1605,-117.65 1605,-98.65 1471,-98.65"/>
<text text-anchor="middle" x="1538" y="-105.65" font-family="Helvetica,sans-Serif" font-size="10.00">slljit::Parser::ParsePrimary</text>
</a>
</g>
</g>
<!-- Node1&#45;&gt;Node2 -->
<g id="edge1" class="edge">
<title>Node1&#45;&gt;Node2</title>
<path fill="none" stroke="midnightblue" d="M1685.41,-254.11C1651.35,-220.15 1575.94,-144.97 1548.89,-118.01"/>
<polygon fill="midnightblue" stroke="midnightblue" points="1683.21,-256.86 1692.76,-261.44 1688.15,-251.9 1683.21,-256.86"/>
</g>
<!-- Node3 -->
<g id="node3" class="node">
<title>Node3</title>
<g id="a_node3"><a xlink:href="classslljit_1_1_parser.html#af8579896f39ac563d2edd14404d70f41" target="_top" xlink:title=" ">
<polygon fill="none" stroke="black" points="1310,-161.65 1310,-180.65 1435,-180.65 1435,-161.65 1310,-161.65"/>
<text text-anchor="middle" x="1372.5" y="-168.65" font-family="Helvetica,sans-Serif" font-size="10.00">slljit::Parser::ParseUnary</text>
</a>
</g>
</g>
<!-- Node2&#45;&gt;Node3 -->
<g id="edge2" class="edge">
<title>Node2&#45;&gt;Node3</title>
<path fill="none" stroke="midnightblue" d="M1502.57,-121.42C1471.35,-133.45 1426.09,-150.88 1398.3,-161.59"/>
<polygon fill="midnightblue" stroke="midnightblue" points="1504.1,-124.58 1512.17,-117.72 1501.58,-118.05 1504.1,-124.58"/>
</g>
<!-- Node3&#45;&gt;Node3 -->
<g id="edge24" class="edge">
<title>Node3&#45;&gt;Node3</title>
<path fill="none" stroke="midnightblue" d="M1401.25,-189.8C1400.04,-195.09 1390.46,-199.15 1372.5,-199.15 1345.13,-199.15 1337.22,-189.71 1348.76,-180.91"/>
<polygon fill="midnightblue" stroke="midnightblue" points="1404.19,-187.9 1396.24,-180.91 1398.09,-191.34 1404.19,-187.9"/>
</g>
<!-- Node4 -->
<g id="node4" class="node">
<title>Node4</title>
<g id="a_node4"><a xlink:href="classslljit_1_1_parser.html#ae387c9672ec50720d8cb969558aedbe9" target="_top" xlink:title=" ">
<polygon fill="none" stroke="black" points="1160,-156.15 1160,-186.15 1274,-186.15 1274,-156.15 1160,-156.15"/>
<text text-anchor="start" x="1168" y="-174.15" font-family="Helvetica,sans-Serif" font-size="10.00">slljit::Parser::ParseBin</text>
<text text-anchor="middle" x="1217" y="-163.15" font-family="Helvetica,sans-Serif" font-size="10.00">OpRHS</text>
</a>
</g>
</g>
<!-- Node3&#45;&gt;Node4 -->
<g id="edge3" class="edge">
<title>Node3&#45;&gt;Node4</title>
<path fill="none" stroke="midnightblue" d="M1299.86,-171.15C1291.22,-171.15 1282.48,-171.15 1274.1,-171.15"/>
<polygon fill="midnightblue" stroke="midnightblue" points="1299.95,-174.65 1309.95,-171.15 1299.95,-167.65 1299.95,-174.65"/>
</g>
<!-- Node5 -->
<g id="node5" class="node">
<title>Node5</title>
<g id="a_node5"><a xlink:href="classslljit_1_1_parser.html#a79461bf414d03dcabb49d3bbd6f89607" target="_top" xlink:title=" ">
<polygon fill="none" stroke="black" points="975,-160.65 975,-179.65 1124,-179.65 1124,-160.65 975,-160.65"/>
<text text-anchor="middle" x="1049.5" y="-167.65" font-family="Helvetica,sans-Serif" font-size="10.00">slljit::Parser::ParseExpression</text>
</a>
</g>
</g>
<!-- Node3&#45;&gt;Node5 -->
<g id="edge23" class="edge">
<title>Node3&#45;&gt;Node5</title>
<path fill="none" stroke="midnightblue" d="M1345.97,-185.57C1326.83,-195.52 1299.63,-207.86 1274,-213.15 1224.38,-223.38 1209.78,-222.57 1160,-213.15 1126.49,-206.81 1090.1,-190.44 1068.85,-179.83"/>
<polygon fill="midnightblue" stroke="midnightblue" points="1347.76,-188.58 1354.93,-180.78 1344.46,-182.41 1347.76,-188.58"/>
</g>
<!-- Node4&#45;&gt;Node4 -->
<g id="edge4" class="edge">
<title>Node4&#45;&gt;Node4</title>
<path fill="none" stroke="midnightblue" d="M1244.36,-196.61C1240.97,-201.33 1231.85,-204.65 1217,-204.65 1192.64,-204.65 1183.69,-195.71 1190.16,-186.31"/>
<polygon fill="midnightblue" stroke="midnightblue" points="1247.84,-196.12 1243.84,-186.31 1240.85,-196.47 1247.84,-196.12"/>
</g>
<!-- Node4&#45;&gt;Node5 -->
<g id="edge5" class="edge">
<title>Node4&#45;&gt;Node5</title>
<path fill="none" stroke="midnightblue" d="M1149.8,-170.75C1141.34,-170.7 1132.64,-170.65 1124.08,-170.59"/>
<polygon fill="midnightblue" stroke="midnightblue" points="1149.95,-174.25 1159.97,-170.81 1149.99,-167.25 1149.95,-174.25"/>
</g>
<!-- Node5&#45;&gt;Node1 -->
<g id="edge18" class="edge">
<title>Node5&#45;&gt;Node1</title>
<path fill="none" stroke="midnightblue" d="M1071.72,-185.68C1092.91,-200.26 1126.98,-221.26 1160,-231.15 1328.28,-281.54 1538.41,-279.82 1640.74,-275.11"/>
<polygon fill="midnightblue" stroke="midnightblue" points="1073.67,-182.77 1063.47,-179.88 1069.64,-188.5 1073.67,-182.77"/>
</g>
<!-- Node6 -->
<g id="node6" class="node">
<title>Node6</title>
<g id="a_node6"><a xlink:href="classslljit_1_1_parser.html#acc431005ac3dd38732083d7a1bb0eab2" target="_top" xlink:title=" ">
<polygon fill="none" stroke="black" points="775,-201.65 775,-220.65 939,-220.65 939,-201.65 775,-201.65"/>
<text text-anchor="middle" x="857" y="-208.65" font-family="Helvetica,sans-Serif" font-size="10.00">slljit::Parser::ParseExpressionList</text>
</a>
</g>
</g>
<!-- Node5&#45;&gt;Node6 -->
<g id="edge6" class="edge">
<title>Node5&#45;&gt;Node6</title>
<path fill="none" stroke="midnightblue" d="M994.3,-181.81C965.18,-188.08 929.72,-195.71 902.27,-201.62"/>
<polygon fill="midnightblue" stroke="midnightblue" points="995.28,-185.18 1004.32,-179.66 993.8,-178.34 995.28,-185.18"/>
</g>
<!-- Node7 -->
<g id="node7" class="node">
<title>Node7</title>
<g id="a_node7"><a xlink:href="classslljit_1_1_parser.html#a81023e7a6221eb6b92027bd21433c9dd" target="_top" xlink:title="forexpr ::= &#39;for&#39; identifier &#39;=&#39; expr &#39;,&#39; expr (&#39;,&#39; expr)? &#39;in&#39; expression">
<polygon fill="none" stroke="black" points="605,-158.65 605,-177.65 739,-177.65 739,-158.65 605,-158.65"/>
<text text-anchor="middle" x="672" y="-165.65" font-family="Helvetica,sans-Serif" font-size="10.00">slljit::Parser::ParseForExpr</text>
</a>
</g>
</g>
<!-- Node5&#45;&gt;Node7 -->
<g id="edge15" class="edge">
<title>Node5&#45;&gt;Node7</title>
<path fill="none" stroke="midnightblue" d="M964.49,-169.7C896.4,-169.34 801.77,-168.84 739.03,-168.5"/>
<polygon fill="midnightblue" stroke="midnightblue" points="964.74,-173.2 974.76,-169.76 964.78,-166.2 964.74,-173.2"/>
</g>
<!-- Node13 -->
<g id="node13" class="node">
<title>Node13</title>
<g id="a_node13"><a xlink:href="classslljit_1_1_parser.html#a25cfefcbeea85744e23370d3a6f8ad5b" target="_top" xlink:title=" ">
<polygon fill="none" stroke="black" points="779,-41.65 779,-60.65 935,-60.65 935,-41.65 779,-41.65"/>
<text text-anchor="middle" x="857" y="-48.65" font-family="Helvetica,sans-Serif" font-size="10.00">slljit::Parser::ParseIdentifierExpr</text>
</a>
</g>
</g>
<!-- Node5&#45;&gt;Node13 -->
<g id="edge16" class="edge">
<title>Node5&#45;&gt;Node13</title>
<path fill="none" stroke="midnightblue" d="M1033.64,-152.77C1014.09,-131 977.67,-94.03 939,-73.15 929.26,-67.89 918.16,-63.81 907.37,-60.68"/>
<polygon fill="midnightblue" stroke="midnightblue" points="1031.26,-155.36 1040.49,-160.56 1036.51,-150.74 1031.26,-155.36"/>
</g>
<!-- Node14 -->
<g id="node14" class="node">
<title>Node14</title>
<g id="a_node14"><a xlink:href="classslljit_1_1_parser.html#a6e2e0f6a2cc445f3a956db59c8d2da66" target="_top" xlink:title="parenexpr ::= &#39;(&#39; expression &#39;)&#39;">
<polygon fill="none" stroke="black" points="784,-121.65 784,-140.65 930,-140.65 930,-121.65 784,-121.65"/>
<text text-anchor="middle" x="857" y="-128.65" font-family="Helvetica,sans-Serif" font-size="10.00">slljit::Parser::ParseParenExpr</text>
</a>
</g>
</g>
<!-- Node5&#45;&gt;Node14 -->
<g id="edge19" class="edge">
<title>Node5&#45;&gt;Node14</title>
<path fill="none" stroke="midnightblue" d="M991.89,-158.56C964.01,-152.85 930.81,-146.06 904.45,-140.66"/>
<polygon fill="midnightblue" stroke="midnightblue" points="991.4,-162.03 1001.9,-160.61 992.8,-155.17 991.4,-162.03"/>
</g>
<!-- Node15 -->
<g id="node15" class="node">
<title>Node15</title>
<g id="a_node15"><a xlink:href="classslljit_1_1_parser.html#a435877d3f2869d140a7cca646546a114" target="_top" xlink:title="varexpr ::= &#39;g_var&#39; identifier (&#39;=&#39; expression)?">
<polygon fill="none" stroke="black" points="789.5,-82.65 789.5,-101.65 924.5,-101.65 924.5,-82.65 789.5,-82.65"/>
<text text-anchor="middle" x="857" y="-89.65" font-family="Helvetica,sans-Serif" font-size="10.00">slljit::Parser::ParseVarExpr</text>
</a>
</g>
</g>
<!-- Node5&#45;&gt;Node15 -->
<g id="edge21" class="edge">
<title>Node5&#45;&gt;Node15</title>
<path fill="none" stroke="midnightblue" d="M1024.28,-155.1C1002.62,-142.18 969.64,-123.84 939,-112.15 928.17,-108.02 916.2,-104.51 904.86,-101.65"/>
<polygon fill="midnightblue" stroke="midnightblue" points="1022.75,-158.26 1033.11,-160.44 1026.37,-152.27 1022.75,-158.26"/>
</g>
<!-- Node6&#45;&gt;Node1 -->
<g id="edge9" class="edge">
<title>Node6&#45;&gt;Node1</title>
<path fill="none" stroke="midnightblue" d="M887.32,-224.94C947.51,-251.93 1089.95,-309.15 1216,-309.15 1373.5,-309.15 1373.5,-309.15 1373.5,-309.15 1476.7,-309.15 1502.81,-305.55 1605,-291.15 1623.82,-288.5 1644.47,-284.43 1661.9,-280.66"/>
<polygon fill="midnightblue" stroke="midnightblue" points="888.61,-221.67 878.05,-220.72 885.71,-228.05 888.61,-221.67"/>
</g>
<!-- Node6&#45;&gt;Node7 -->
<g id="edge7" class="edge">
<title>Node6&#45;&gt;Node7</title>
<path fill="none" stroke="midnightblue" d="M805.45,-199.27C776.48,-192.46 740.6,-184.03 713.5,-177.67"/>
<polygon fill="midnightblue" stroke="midnightblue" points="804.85,-202.73 815.39,-201.61 806.45,-195.91 804.85,-202.73"/>
</g>
<!-- Node8 -->
<g id="node8" class="node">
<title>Node8</title>
<g id="a_node8"><a xlink:href="classslljit_1_1_parser.html#aa9a9ce164e114ad7f347f32329f5a5a2" target="_top" xlink:title="definition ::= &#39;def&#39; prototype expression">
<polygon fill="none" stroke="black" points="614,-197.15 614,-227.15 730,-227.15 730,-197.15 614,-197.15"/>
<text text-anchor="start" x="622" y="-215.15" font-family="Helvetica,sans-Serif" font-size="10.00">slljit::Parser::ParseTop</text>
<text text-anchor="middle" x="672" y="-204.15" font-family="Helvetica,sans-Serif" font-size="10.00">LevelTypedExpression</text>
</a>
</g>
</g>
<!-- Node6&#45;&gt;Node8 -->
<g id="edge10" class="edge">
<title>Node6&#45;&gt;Node8</title>
<path fill="none" stroke="midnightblue" d="M764.63,-211.65C752.88,-211.71 741.12,-211.78 730.14,-211.84"/>
<polygon fill="midnightblue" stroke="midnightblue" points="764.95,-215.15 774.93,-211.59 764.92,-208.15 764.95,-215.15"/>
</g>
<!-- Node7&#45;&gt;Node2 -->
<g id="edge8" class="edge">
<title>Node7&#45;&gt;Node2</title>
<path fill="none" stroke="midnightblue" d="M680.9,-149.08C694.79,-118.28 726.79,-58.38 775,-32.15 882.03,26.09 926.65,-13.15 1048.5,-13.15 1218,-13.15 1218,-13.15 1218,-13.15 1336.75,-13.15 1470.41,-74.37 1518.52,-98.52"/>
<polygon fill="midnightblue" stroke="midnightblue" points="677.66,-147.75 676.88,-158.32 684.08,-150.54 677.66,-147.75"/>
</g>
<!-- Node9 -->
<g id="node9" class="node">
<title>Node9</title>
<g id="a_node9"><a xlink:href="classslljit_1_1_parser.html#af0cac4623fc05b8b7ae9884b0aeb3d3f" target="_top" xlink:title=" ">
<polygon fill="none" stroke="black" points="438,-197.15 438,-227.15 569,-227.15 569,-197.15 438,-197.15"/>
<text text-anchor="start" x="446" y="-215.15" font-family="Helvetica,sans-Serif" font-size="10.00">slljit::Parser::HandleTyped</text>
<text text-anchor="middle" x="503.5" y="-204.15" font-family="Helvetica,sans-Serif" font-size="10.00">Expression</text>
</a>
</g>
</g>
<!-- Node8&#45;&gt;Node9 -->
<g id="edge11" class="edge">
<title>Node8&#45;&gt;Node9</title>
<path fill="none" stroke="midnightblue" d="M603.42,-212.15C592.07,-212.15 580.32,-212.15 569.05,-212.15"/>
<polygon fill="midnightblue" stroke="midnightblue" points="603.7,-215.65 613.7,-212.15 603.7,-208.65 603.7,-215.65"/>
</g>
<!-- Node10 -->
<g id="node10" class="node">
<title>Node10</title>
<g id="a_node10"><a xlink:href="classslljit_1_1_parser.html#ae2d3d6534b87da7f237c19129a464bda" target="_top" xlink:title="top ::= definition | external | expression | &#39;;&#39;">
<polygon fill="none" stroke="black" points="286,-202.65 286,-221.65 402,-221.65 402,-202.65 286,-202.65"/>
<text text-anchor="middle" x="344" y="-209.65" font-family="Helvetica,sans-Serif" font-size="10.00">slljit::Parser::MainLoop</text>
</a>
</g>
</g>
<!-- Node9&#45;&gt;Node10 -->
<g id="edge12" class="edge">
<title>Node9&#45;&gt;Node10</title>
<path fill="none" stroke="midnightblue" d="M427.87,-212.15C419.2,-212.15 410.47,-212.15 402.09,-212.15"/>
<polygon fill="midnightblue" stroke="midnightblue" points="427.98,-215.65 437.98,-212.15 427.98,-208.65 427.98,-215.65"/>
</g>
<!-- Node11 -->
<g id="node11" class="node">
<title>Node11</title>
<g id="a_node11"><a xlink:href="classslljit_1_1_parser.html#a2429935f3c870648f9f895a7b2361cfb" target="_top" xlink:title=" ">
<polygon fill="none" stroke="black" points="152,-202.65 152,-221.65 250,-221.65 250,-202.65 152,-202.65"/>
<text text-anchor="middle" x="201" y="-209.65" font-family="Helvetica,sans-Serif" font-size="10.00">slljit::Parser::parse</text>
</a>
</g>
</g>
<!-- Node10&#45;&gt;Node11 -->
<g id="edge13" class="edge">
<title>Node10&#45;&gt;Node11</title>
<path fill="none" stroke="midnightblue" d="M275.37,-212.15C266.9,-212.15 258.37,-212.15 250.28,-212.15"/>
<polygon fill="midnightblue" stroke="midnightblue" points="275.65,-215.65 285.65,-212.15 275.65,-208.65 275.65,-215.65"/>
</g>
<!-- Node12 -->
<g id="node12" class="node">
<title>Node12</title>
<g id="a_node12"><a xlink:href="classslljit_1_1_program.html#ae4d26526a7dd9c69ebe92fb43736696b" target="_top" xlink:title=" ">
<polygon fill="none" stroke="black" points="0,-202.65 0,-221.65 116,-221.65 116,-202.65 0,-202.65"/>
<text text-anchor="middle" x="58" y="-209.65" font-family="Helvetica,sans-Serif" font-size="10.00">slljit::Program::compile</text>
</a>
</g>
</g>
<!-- Node11&#45;&gt;Node12 -->
<g id="edge14" class="edge">
<title>Node11&#45;&gt;Node12</title>
<path fill="none" stroke="midnightblue" d="M141.72,-212.15C133.27,-212.15 124.58,-212.15 116.16,-212.15"/>
<polygon fill="midnightblue" stroke="midnightblue" points="141.87,-215.65 151.87,-212.15 141.87,-208.65 141.87,-215.65"/>
</g>
<!-- Node13&#45;&gt;Node2 -->
<g id="edge17" class="edge">
<title>Node13&#45;&gt;Node2</title>
<path fill="none" stroke="midnightblue" d="M944.99,-58.25C1057.94,-67.5 1261.22,-84.25 1435,-99.15 1446.6,-100.14 1458.94,-101.22 1470.89,-102.27"/>
<polygon fill="midnightblue" stroke="midnightblue" points="945.26,-54.76 935.01,-57.43 944.69,-61.74 945.26,-54.76"/>
</g>
<!-- Node14&#45;&gt;Node2 -->
<g id="edge20" class="edge">
<title>Node14&#45;&gt;Node2</title>
<path fill="none" stroke="midnightblue" d="M940.64,-129.03C1052.68,-126.06 1258.99,-120.21 1435,-113.15 1446.6,-112.68 1458.95,-112.13 1470.89,-111.56"/>
<polygon fill="midnightblue" stroke="midnightblue" points="940.33,-125.54 930.43,-129.3 940.52,-132.54 940.33,-125.54"/>
</g>
<!-- Node15&#45;&gt;Node2 -->
<g id="edge22" class="edge">
<title>Node15&#45;&gt;Node2</title>
<path fill="none" stroke="midnightblue" d="M934.9,-93.96C1069.3,-97.13 1344.62,-103.62 1470.97,-106.59"/>
<polygon fill="midnightblue" stroke="midnightblue" points="934.77,-90.46 924.69,-93.72 934.6,-97.46 934.77,-90.46"/>
</g>
</g>
</svg>
