<?xml version="1.0" encoding="UTF-8" standalone="no"?>
<!DOCTYPE svg PUBLIC "-//W3C//DTD SVG 1.1//EN"
 "http://www.w3.org/Graphics/SVG/1.1/DTD/svg11.dtd">
<!-- Generated by graphviz version 3.0.0 (20220226.1711)
 -->
<!-- Title: slljit::Parser::push_var_into_scope Pages: 1 -->
<svg width="1991pt" height="374pt"
 viewBox="0.00 0.00 1991.00 373.50" xmlns="http://www.w3.org/2000/svg" xmlns:xlink="http://www.w3.org/1999/xlink">
<g id="graph0" class="graph" transform="scale(1 1) rotate(0) translate(4 369.5)">
<title>slljit::Parser::push_var_into_scope</title>
<!-- Node1 -->
<g id="node1" class="node">
<title>Node1</title>
<g id="a_node1"><a xlink:title=" ">
<polygon fill="#bfbfbf" stroke="black" points="1888,-119.5 1888,-149.5 1983,-149.5 1983,-119.5 1888,-119.5"/>
<text text-anchor="start" x="1896" y="-137.5" font-family="Helvetica,sans-Serif" font-size="10.00">slljit::Parser::push</text>
<text text-anchor="middle" x="1935.5" y="-126.5" font-family="Helvetica,sans-Serif" font-size="10.00">_var_into_scope</text>
</a>
</g>
</g>
<!-- Node2 -->
<g id="node2" class="node">
<title>Node2</title>
<g id="a_node2"><a xlink:href="classslljit_1_1_parser.html#ad51a4352241881b5c6d118db9ccdec46" target="_top" xlink:title=" ">
<polygon fill="none" stroke="black" points="862,-346 862,-365 1004,-365 1004,-346 862,-346"/>
<text text-anchor="middle" x="933" y="-353" font-family="Helvetica,sans-Serif" font-size="10.00">slljit::Parser::ParsePrototype</text>
</a>
</g>
</g>
<!-- Node1&#45;&gt;Node2 -->
<g id="edge1" class="edge">
<title>Node1&#45;&gt;Node2</title>
<path fill="none" stroke="midnightblue" d="M1917.66,-157.73C1874.38,-214.47 1752.93,-355.5 1615,-355.5 1615,-355.5 1615,-355.5 1292,-355.5 1192.09,-355.5 1076.49,-355.5 1004.31,-355.5"/>
<polygon fill="midnightblue" stroke="midnightblue" points="1920.49,-159.79 1923.7,-149.69 1914.89,-155.58 1920.49,-159.79"/>
</g>
<!-- Node11 -->
<g id="node11" class="node">
<title>Node11</title>
<g id="a_node11"><a xlink:href="classslljit_1_1_parser.html#a435877d3f2869d140a7cca646546a114" target="_top" xlink:title="varexpr ::= &#39;g_var&#39; identifier (&#39;=&#39; expression)?">
<polygon fill="none" stroke="black" points="1717,-125 1717,-144 1852,-144 1852,-125 1717,-125"/>
<text text-anchor="middle" x="1784.5" y="-132" font-family="Helvetica,sans-Serif" font-size="10.00">slljit::Parser::ParseVarExpr</text>
</a>
</g>
</g>
<!-- Node1&#45;&gt;Node11 -->
<g id="edge11" class="edge">
<title>Node1&#45;&gt;Node11</title>
<path fill="none" stroke="midnightblue" d="M1877.5,-134.5C1869.25,-134.5 1860.69,-134.5 1852.26,-134.5"/>
<polygon fill="midnightblue" stroke="midnightblue" points="1877.76,-138 1887.76,-134.5 1877.76,-131 1877.76,-138"/>
</g>
<!-- Node21 -->
<g id="node21" class="node">
<title>Node21</title>
<g id="a_node21"><a xlink:href="classslljit_1_1_parser.html#a3da23d78669853ac1f1d38a709475c5c" target="_top" xlink:title=" ">
<polygon fill="none" stroke="black" points="1570,-0.5 1570,-30.5 1658,-30.5 1658,-0.5 1570,-0.5"/>
<text text-anchor="start" x="1578" y="-18.5" font-family="Helvetica,sans-Serif" font-size="10.00">slljit::Parser::set</text>
<text text-anchor="middle" x="1614" y="-7.5" font-family="Helvetica,sans-Serif" font-size="10.00">_variables</text>
</a>
</g>
</g>
<!-- Node1&#45;&gt;Node21 -->
<g id="edge32" class="edge">
<title>Node1&#45;&gt;Node21</title>
<path fill="none" stroke="midnightblue" d="M1884.28,-115.79C1821.03,-92.24 1713.6,-52.22 1655.39,-30.54"/>
<polygon fill="midnightblue" stroke="midnightblue" points="1883.44,-119.22 1894.04,-119.43 1885.89,-112.66 1883.44,-119.22"/>
</g>
<!-- Node3 -->
<g id="node3" class="node">
<title>Node3</title>
<g id="a_node3"><a xlink:href="classslljit_1_1_parser.html#af6e239a609e8a3812838b53f9a8356ce" target="_top" xlink:title="external ::= &#39;extern&#39; prototype">
<polygon fill="none" stroke="black" points="684,-338 684,-357 812,-357 812,-338 684,-338"/>
<text text-anchor="middle" x="748" y="-345" font-family="Helvetica,sans-Serif" font-size="10.00">slljit::Parser::ParseExtern</text>
</a>
</g>
</g>
<!-- Node2&#45;&gt;Node3 -->
<g id="edge2" class="edge">
<title>Node2&#45;&gt;Node3</title>
<path fill="none" stroke="midnightblue" d="M851.72,-351.99C838.47,-351.41 824.91,-350.82 812.15,-350.26"/>
<polygon fill="midnightblue" stroke="midnightblue" points="851.63,-355.49 861.77,-352.43 851.93,-348.5 851.63,-355.49"/>
</g>
<!-- Node9 -->
<g id="node9" class="node">
<title>Node9</title>
<g id="a_node9"><a xlink:href="classslljit_1_1_parser.html#aa9a9ce164e114ad7f347f32329f5a5a2" target="_top" xlink:title="definition ::= &#39;def&#39; prototype expression">
<polygon fill="none" stroke="black" points="690,-240.5 690,-270.5 806,-270.5 806,-240.5 690,-240.5"/>
<text text-anchor="start" x="698" y="-258.5" font-family="Helvetica,sans-Serif" font-size="10.00">slljit::Parser::ParseTop</text>
<text text-anchor="middle" x="748" y="-247.5" font-family="Helvetica,sans-Serif" font-size="10.00">LevelTypedExpression</text>
</a>
</g>
</g>
<!-- Node2&#45;&gt;Node9 -->
<g id="edge8" class="edge">
<title>Node2&#45;&gt;Node9</title>
<path fill="none" stroke="midnightblue" d="M879.64,-342.94C869.89,-339.78 859.95,-335.98 851,-331.5 818.02,-314.99 784.66,-287.68 765.46,-270.68"/>
<polygon fill="midnightblue" stroke="midnightblue" points="878.72,-346.32 889.3,-345.89 880.76,-339.62 878.72,-346.32"/>
</g>
<!-- Node4 -->
<g id="node4" class="node">
<title>Node4</title>
<g id="a_node4"><a xlink:href="classslljit_1_1_parser.html#a5ff2f693f00fe32c8ee836e9139cb93e" target="_top" xlink:title=" ">
<polygon fill="none" stroke="black" points="512,-306 512,-325 645,-325 645,-306 512,-306"/>
<text text-anchor="middle" x="578.5" y="-313" font-family="Helvetica,sans-Serif" font-size="10.00">slljit::Parser::HandleExtern</text>
</a>
</g>
</g>
<!-- Node3&#45;&gt;Node4 -->
<g id="edge3" class="edge">
<title>Node3&#45;&gt;Node4</title>
<path fill="none" stroke="midnightblue" d="M687.19,-336.07C668.26,-332.46 647.56,-328.5 629.4,-325.03"/>
<polygon fill="midnightblue" stroke="midnightblue" points="686.72,-339.55 697.2,-337.99 688.03,-332.67 686.72,-339.55"/>
</g>
<!-- Node5 -->
<g id="node5" class="node">
<title>Node5</title>
<g id="a_node5"><a xlink:href="classslljit_1_1_parser.html#ae2d3d6534b87da7f237c19129a464bda" target="_top" xlink:title="top ::= definition | external | expression | &#39;;&#39;">
<polygon fill="none" stroke="black" points="360,-246 360,-265 476,-265 476,-246 360,-246"/>
<text text-anchor="middle" x="418" y="-253" font-family="Helvetica,sans-Serif" font-size="10.00">slljit::Parser::MainLoop</text>
</a>
</g>
</g>
<!-- Node4&#45;&gt;Node5 -->
<g id="edge4" class="edge">
<title>Node4&#45;&gt;Node5</title>
<path fill="none" stroke="midnightblue" d="M542.81,-302.37C513.06,-291.11 470.9,-275.15 444.26,-265.06"/>
<polygon fill="midnightblue" stroke="midnightblue" points="541.79,-305.73 552.39,-305.99 544.27,-299.18 541.79,-305.73"/>
</g>
<!-- Node6 -->
<g id="node6" class="node">
<title>Node6</title>
<g id="a_node6"><a xlink:href="classslljit_1_1_parser.html#a2429935f3c870648f9f895a7b2361cfb" target="_top" xlink:title=" ">
<polygon fill="none" stroke="black" points="226,-184 226,-203 324,-203 324,-184 226,-184"/>
<text text-anchor="middle" x="275" y="-191" font-family="Helvetica,sans-Serif" font-size="10.00">slljit::Parser::parse</text>
</a>
</g>
</g>
<!-- Node5&#45;&gt;Node6 -->
<g id="edge5" class="edge">
<title>Node5&#45;&gt;Node6</title>
<path fill="none" stroke="midnightblue" d="M386.01,-241.87C359.37,-230.16 321.61,-213.56 297.98,-203.16"/>
<polygon fill="midnightblue" stroke="midnightblue" points="384.71,-245.13 395.28,-245.95 387.53,-238.72 384.71,-245.13"/>
</g>
<!-- Node7 -->
<g id="node7" class="node">
<title>Node7</title>
<g id="a_node7"><a xlink:href="classslljit_1_1_program.html#ae4d26526a7dd9c69ebe92fb43736696b" target="_top" xlink:title=" ">
<polygon fill="none" stroke="black" points="74,-122 74,-141 190,-141 190,-122 74,-122"/>
<text text-anchor="middle" x="132" y="-129" font-family="Helvetica,sans-Serif" font-size="10.00">slljit::Program::compile</text>
</a>
</g>
</g>
<!-- Node6&#45;&gt;Node7 -->
<g id="edge6" class="edge">
<title>Node6&#45;&gt;Node7</title>
<path fill="none" stroke="midnightblue" d="M243.01,-179.87C216.37,-168.16 178.61,-151.56 154.98,-141.16"/>
<polygon fill="midnightblue" stroke="midnightblue" points="241.71,-183.13 252.28,-183.95 244.53,-176.72 241.71,-183.13"/>
</g>
<!-- Node8 -->
<g id="node8" class="node">
<title>Node8</title>
<g id="a_node8"><a xlink:href="compiler__cli_8cpp.html#a3c04138a5bfe5d72780bb7e82a18e627" target="_top" xlink:title=" ">
<polygon fill="none" stroke="black" points="0,-122 0,-141 38,-141 38,-122 0,-122"/>
<text text-anchor="middle" x="19" y="-129" font-family="Helvetica,sans-Serif" font-size="10.00">main</text>
</a>
</g>
</g>
<!-- Node7&#45;&gt;Node8 -->
<g id="edge7" class="edge">
<title>Node7&#45;&gt;Node8</title>
<path fill="none" stroke="midnightblue" d="M63.62,-131.5C54.3,-131.5 45.44,-131.5 38.18,-131.5"/>
<polygon fill="midnightblue" stroke="midnightblue" points="63.87,-135 73.87,-131.5 63.87,-128 63.87,-135"/>
</g>
<!-- Node10 -->
<g id="node10" class="node">
<title>Node10</title>
<g id="a_node10"><a xlink:href="classslljit_1_1_parser.html#af0cac4623fc05b8b7ae9884b0aeb3d3f" target="_top" xlink:title=" ">
<polygon fill="none" stroke="black" points="513,-240.5 513,-270.5 644,-270.5 644,-240.5 513,-240.5"/>
<text text-anchor="start" x="521" y="-258.5" font-family="Helvetica,sans-Serif" font-size="10.00">slljit::Parser::HandleTyped</text>
<text text-anchor="middle" x="578.5" y="-247.5" font-family="Helvetica,sans-Serif" font-size="10.00">Expression</text>
</a>
</g>
</g>
<!-- Node9&#45;&gt;Node10 -->
<g id="edge9" class="edge">
<title>Node9&#45;&gt;Node10</title>
<path fill="none" stroke="midnightblue" d="M679.68,-255.5C667.97,-255.5 655.82,-255.5 644.19,-255.5"/>
<polygon fill="midnightblue" stroke="midnightblue" points="679.82,-259 689.82,-255.5 679.82,-252 679.82,-259"/>
</g>
<!-- Node10&#45;&gt;Node5 -->
<g id="edge10" class="edge">
<title>Node10&#45;&gt;Node5</title>
<path fill="none" stroke="midnightblue" d="M502.32,-255.5C493.54,-255.5 484.69,-255.5 476.21,-255.5"/>
<polygon fill="midnightblue" stroke="midnightblue" points="502.57,-259 512.57,-255.5 502.57,-252 502.57,-259"/>
</g>
<!-- Node12 -->
<g id="node12" class="node">
<title>Node12</title>
<g id="a_node12"><a xlink:href="classslljit_1_1_parser.html#a45cb3e4f600e8e2c253490e7d878e8cd" target="_top" xlink:title=" ">
<polygon fill="none" stroke="black" points="1547,-201 1547,-220 1681,-220 1681,-201 1547,-201"/>
<text text-anchor="middle" x="1614" y="-208" font-family="Helvetica,sans-Serif" font-size="10.00">slljit::Parser::ParsePrimary</text>
</a>
</g>
</g>
<!-- Node11&#45;&gt;Node12 -->
<g id="edge12" class="edge">
<title>Node11&#45;&gt;Node12</title>
<path fill="none" stroke="midnightblue" d="M1752.77,-148.36C1718.97,-163.6 1665.57,-187.69 1636.17,-200.95"/>
<polygon fill="midnightblue" stroke="midnightblue" points="1754.48,-151.43 1762.16,-144.13 1751.6,-145.05 1754.48,-151.43"/>
</g>
<!-- Node13 -->
<g id="node13" class="node">
<title>Node13</title>
<g id="a_node13"><a xlink:href="classslljit_1_1_parser.html#af8579896f39ac563d2edd14404d70f41" target="_top" xlink:title=" ">
<polygon fill="none" stroke="black" points="1386,-170 1386,-189 1511,-189 1511,-170 1386,-170"/>
<text text-anchor="middle" x="1448.5" y="-177" font-family="Helvetica,sans-Serif" font-size="10.00">slljit::Parser::ParseUnary</text>
</a>
</g>
</g>
<!-- Node12&#45;&gt;Node13 -->
<g id="edge13" class="edge">
<title>Node12&#45;&gt;Node13</title>
<path fill="none" stroke="midnightblue" d="M1552.56,-199.04C1535.18,-195.75 1516.42,-192.19 1499.72,-189.02"/>
<polygon fill="midnightblue" stroke="midnightblue" points="1552.13,-202.52 1562.61,-200.95 1553.44,-195.64 1552.13,-202.52"/>
</g>
<!-- Node13&#45;&gt;Node13 -->
<g id="edge31" class="edge">
<title>Node13&#45;&gt;Node13</title>
<path fill="none" stroke="midnightblue" d="M1477.25,-198.15C1476.04,-203.44 1466.46,-207.5 1448.5,-207.5 1421.13,-207.5 1413.22,-198.07 1424.76,-189.26"/>
<polygon fill="midnightblue" stroke="midnightblue" points="1480.19,-196.25 1472.24,-189.26 1474.09,-199.69 1480.19,-196.25"/>
</g>
<!-- Node14 -->
<g id="node14" class="node">
<title>Node14</title>
<g id="a_node14"><a xlink:href="classslljit_1_1_parser.html#ae387c9672ec50720d8cb969558aedbe9" target="_top" xlink:title=" ">
<polygon fill="none" stroke="black" points="1236,-164.5 1236,-194.5 1350,-194.5 1350,-164.5 1236,-164.5"/>
<text text-anchor="start" x="1244" y="-182.5" font-family="Helvetica,sans-Serif" font-size="10.00">slljit::Parser::ParseBin</text>
<text text-anchor="middle" x="1293" y="-171.5" font-family="Helvetica,sans-Serif" font-size="10.00">OpRHS</text>
</a>
</g>
</g>
<!-- Node13&#45;&gt;Node14 -->
<g id="edge14" class="edge">
<title>Node13&#45;&gt;Node14</title>
<path fill="none" stroke="midnightblue" d="M1375.86,-179.5C1367.22,-179.5 1358.48,-179.5 1350.1,-179.5"/>
<polygon fill="midnightblue" stroke="midnightblue" points="1375.95,-183 1385.95,-179.5 1375.95,-176 1375.95,-183"/>
</g>
<!-- Node15 -->
<g id="node15" class="node">
<title>Node15</title>
<g id="a_node15"><a xlink:href="classslljit_1_1_parser.html#a79461bf414d03dcabb49d3bbd6f89607" target="_top" xlink:title=" ">
<polygon fill="none" stroke="black" points="1051,-163 1051,-182 1200,-182 1200,-163 1051,-163"/>
<text text-anchor="middle" x="1125.5" y="-170" font-family="Helvetica,sans-Serif" font-size="10.00">slljit::Parser::ParseExpression</text>
</a>
</g>
</g>
<!-- Node13&#45;&gt;Node15 -->
<g id="edge30" class="edge">
<title>Node13&#45;&gt;Node15</title>
<path fill="none" stroke="midnightblue" d="M1406.88,-167.18C1389.53,-162.52 1368.95,-157.8 1350,-155.5 1299.7,-149.4 1286.52,-151.6 1236,-155.5 1216.63,-156.99 1195.5,-159.96 1177.01,-162.99"/>
<polygon fill="midnightblue" stroke="midnightblue" points="1406.11,-170.59 1416.68,-169.89 1407.97,-163.85 1406.11,-170.59"/>
</g>
<!-- Node14&#45;&gt;Node14 -->
<g id="edge15" class="edge">
<title>Node14&#45;&gt;Node14</title>
<path fill="none" stroke="midnightblue" d="M1320.36,-204.96C1316.97,-209.68 1307.85,-213 1293,-213 1268.64,-213 1259.69,-204.06 1266.16,-194.66"/>
<polygon fill="midnightblue" stroke="midnightblue" points="1323.84,-204.47 1319.84,-194.66 1316.85,-204.82 1323.84,-204.47"/>
</g>
<!-- Node14&#45;&gt;Node15 -->
<g id="edge16" class="edge">
<title>Node14&#45;&gt;Node15</title>
<path fill="none" stroke="midnightblue" d="M1225.8,-176.7C1217.34,-176.34 1208.64,-175.97 1200.08,-175.61"/>
<polygon fill="midnightblue" stroke="midnightblue" points="1225.83,-180.2 1235.97,-177.13 1226.13,-173.21 1225.83,-180.2"/>
</g>
<!-- Node15&#45;&gt;Node11 -->
<g id="edge29" class="edge">
<title>Node15&#45;&gt;Node11</title>
<path fill="none" stroke="midnightblue" d="M1169.95,-160.47C1189.91,-155.49 1213.98,-150.25 1236,-147.5 1408.18,-126.02 1613.12,-128.56 1716.6,-131.79"/>
<polygon fill="midnightblue" stroke="midnightblue" points="1169.04,-157.09 1160.22,-162.96 1170.78,-163.87 1169.04,-157.09"/>
</g>
<!-- Node16 -->
<g id="node16" class="node">
<title>Node16</title>
<g id="a_node16"><a xlink:href="classslljit_1_1_parser.html#acc431005ac3dd38732083d7a1bb0eab2" target="_top" xlink:title=" ">
<polygon fill="none" stroke="black" points="851,-156 851,-175 1015,-175 1015,-156 851,-156"/>
<text text-anchor="middle" x="933" y="-163" font-family="Helvetica,sans-Serif" font-size="10.00">slljit::Parser::ParseExpressionList</text>
</a>
</g>
</g>
<!-- Node15&#45;&gt;Node16 -->
<g id="edge17" class="edge">
<title>Node15&#45;&gt;Node16</title>
<path fill="none" stroke="midnightblue" d="M1040.58,-169.42C1032.1,-169.1 1023.5,-168.79 1015.05,-168.48"/>
<polygon fill="midnightblue" stroke="midnightblue" points="1040.73,-172.92 1050.85,-169.79 1040.98,-165.93 1040.73,-172.92"/>
</g>
<!-- Node17 -->
<g id="node17" class="node">
<title>Node17</title>
<g id="a_node17"><a xlink:href="classslljit_1_1_parser.html#a81023e7a6221eb6b92027bd21433c9dd" target="_top" xlink:title="forexpr ::= &#39;for&#39; identifier &#39;=&#39; expr &#39;,&#39; expr (&#39;,&#39; expr)? &#39;in&#39; expression">
<polygon fill="none" stroke="black" points="681,-118 681,-137 815,-137 815,-118 681,-118"/>
<text text-anchor="middle" x="748" y="-125" font-family="Helvetica,sans-Serif" font-size="10.00">slljit::Parser::ParseForExpr</text>
</a>
</g>
</g>
<!-- Node15&#45;&gt;Node17 -->
<g id="edge23" class="edge">
<title>Node15&#45;&gt;Node17</title>
<path fill="none" stroke="midnightblue" d="M1081.01,-160.46C1061.04,-155.38 1036.97,-149.87 1015,-146.5 947.39,-136.13 869.21,-131.4 815.19,-129.25"/>
<polygon fill="midnightblue" stroke="midnightblue" points="1080.19,-163.87 1090.75,-162.99 1081.95,-157.09 1080.19,-163.87"/>
</g>
<!-- Node18 -->
<g id="node18" class="node">
<title>Node18</title>
<g id="a_node18"><a xlink:href="classslljit_1_1_parser.html#a149f5e88cb03aa08c388e6320c6c1bac" target="_top" xlink:title="ifexpr ::= &#39;if&#39; expression &#39;then&#39; expression &#39;else&#39; expression">
<polygon fill="none" stroke="black" points="685.5,-194 685.5,-213 810.5,-213 810.5,-194 685.5,-194"/>
<text text-anchor="middle" x="748" y="-201" font-family="Helvetica,sans-Serif" font-size="10.00">slljit::Parser::ParseIfExpr</text>
</a>
</g>
</g>
<!-- Node15&#45;&gt;Node18 -->
<g id="edge26" class="edge">
<title>Node15&#45;&gt;Node18</title>
<path fill="none" stroke="midnightblue" d="M1040.74,-182.01C1032.05,-182.9 1023.35,-183.74 1015,-184.5 945.03,-190.83 864.54,-196.33 810.6,-199.76"/>
<polygon fill="midnightblue" stroke="midnightblue" points="1041.33,-185.47 1050.91,-180.95 1040.6,-178.5 1041.33,-185.47"/>
</g>
<!-- Node19 -->
<g id="node19" class="node">
<title>Node19</title>
<g id="a_node19"><a xlink:href="classslljit_1_1_parser.html#a25cfefcbeea85744e23370d3a6f8ad5b" target="_top" xlink:title=" ">
<polygon fill="none" stroke="black" points="855,-232 855,-251 1011,-251 1011,-232 855,-232"/>
<text text-anchor="middle" x="933" y="-239" font-family="Helvetica,sans-Serif" font-size="10.00">slljit::Parser::ParseIdentifierExpr</text>
</a>
</g>
</g>
<!-- Node15&#45;&gt;Node19 -->
<g id="edge24" class="edge">
<title>Node15&#45;&gt;Node19</title>
<path fill="none" stroke="midnightblue" d="M1093.56,-186.2C1071.8,-195.59 1041.89,-208.02 1015,-217.5 1000.06,-222.77 983.31,-227.86 968.94,-231.99"/>
<polygon fill="midnightblue" stroke="midnightblue" points="1095.16,-189.32 1102.94,-182.12 1092.37,-182.9 1095.16,-189.32"/>
</g>
<!-- Node20 -->
<g id="node20" class="node">
<title>Node20</title>
<g id="a_node20"><a xlink:href="classslljit_1_1_parser.html#a6e2e0f6a2cc445f3a956db59c8d2da66" target="_top" xlink:title="parenexpr ::= &#39;(&#39; expression &#39;)&#39;">
<polygon fill="none" stroke="black" points="860,-270 860,-289 1006,-289 1006,-270 860,-270"/>
<text text-anchor="middle" x="933" y="-277" font-family="Helvetica,sans-Serif" font-size="10.00">slljit::Parser::ParseParenExpr</text>
</a>
</g>
</g>
<!-- Node15&#45;&gt;Node20 -->
<g id="edge27" class="edge">
<title>Node15&#45;&gt;Node20</title>
<path fill="none" stroke="midnightblue" d="M1108.48,-189.33C1088.49,-209.34 1052.35,-242.29 1015,-260.5 1007.08,-264.36 998.34,-267.46 989.61,-269.94"/>
<polygon fill="midnightblue" stroke="midnightblue" points="1111.06,-191.71 1115.56,-182.12 1106.06,-186.81 1111.06,-191.71"/>
</g>
<!-- Node16&#45;&gt;Node9 -->
<g id="edge22" class="edge">
<title>Node16&#45;&gt;Node9</title>
<path fill="none" stroke="midnightblue" d="M903.12,-179.7C869.46,-196.26 814.07,-223.5 779.66,-240.42"/>
<polygon fill="midnightblue" stroke="midnightblue" points="904.99,-182.69 912.42,-175.13 901.9,-176.4 904.99,-182.69"/>
</g>
<!-- Node16&#45;&gt;Node17 -->
<g id="edge18" class="edge">
<title>Node16&#45;&gt;Node17</title>
<path fill="none" stroke="midnightblue" d="M875.75,-153.82C849.79,-148.43 819.38,-142.11 794.85,-137.02"/>
<polygon fill="midnightblue" stroke="midnightblue" points="875.32,-157.3 885.82,-155.91 876.74,-150.45 875.32,-157.3"/>
</g>
<!-- Node16&#45;&gt;Node18 -->
<g id="edge20" class="edge">
<title>Node16&#45;&gt;Node18</title>
<path fill="none" stroke="midnightblue" d="M875.75,-177.18C849.79,-182.57 819.38,-188.89 794.85,-193.98"/>
<polygon fill="midnightblue" stroke="midnightblue" points="876.74,-180.55 885.82,-175.09 875.32,-173.7 876.74,-180.55"/>
</g>
<!-- Node17&#45;&gt;Node12 -->
<g id="edge19" class="edge">
<title>Node17&#45;&gt;Node12</title>
<path fill="none" stroke="midnightblue" d="M825.19,-125.8C878.38,-124.96 951.04,-124.5 1015,-126.5 1165.26,-131.21 1469.37,-149.06 1511,-160.5 1543.9,-169.54 1578.91,-189.2 1598.16,-200.99"/>
<polygon fill="midnightblue" stroke="midnightblue" points="825.09,-122.3 815.15,-125.96 825.21,-129.3 825.09,-122.3"/>
</g>
<!-- Node18&#45;&gt;Node12 -->
<g id="edge21" class="edge">
<title>Node18&#45;&gt;Node12</title>
<path fill="none" stroke="midnightblue" d="M792.8,-217.11C800.77,-220.91 808.59,-225.65 815,-231.5 839.97,-254.28 822.61,-280.16 851,-298.5 953.35,-364.62 1002.65,-317.5 1124.5,-317.5 1294,-317.5 1294,-317.5 1294,-317.5 1415.79,-317.5 1550.8,-246.52 1596.71,-220.18"/>
<polygon fill="midnightblue" stroke="midnightblue" points="794,-213.82 783.43,-213.07 791.23,-220.25 794,-213.82"/>
</g>
<!-- Node19&#45;&gt;Node12 -->
<g id="edge25" class="edge">
<title>Node19&#45;&gt;Node12</title>
<path fill="none" stroke="midnightblue" d="M1021.33,-238.14C1134.37,-233.69 1337.42,-225.36 1511,-216.5 1522.6,-215.91 1534.95,-215.23 1546.89,-214.54"/>
<polygon fill="midnightblue" stroke="midnightblue" points="1020.87,-234.65 1011.02,-238.54 1021.15,-241.65 1020.87,-234.65"/>
</g>
<!-- Node20&#45;&gt;Node12 -->
<g id="edge28" class="edge">
<title>Node20&#45;&gt;Node12</title>
<path fill="none" stroke="midnightblue" d="M1016.55,-276.18C1128.9,-270.89 1336.01,-258.38 1511,-232.5 1532.15,-229.37 1555.47,-224.45 1574.47,-220.06"/>
<polygon fill="midnightblue" stroke="midnightblue" points="1016.14,-272.7 1006.31,-276.66 1016.46,-279.69 1016.14,-272.7"/>
</g>
<!-- Node21&#45;&gt;Node7 -->
<g id="edge33" class="edge">
<title>Node21&#45;&gt;Node7</title>
<path fill="none" stroke="midnightblue" d="M1559.78,-16.31C1496.45,-17.19 1387.52,-18.5 1294,-18.5 1294,-18.5 1294,-18.5 417,-18.5 305.56,-18.5 185.85,-94.54 146.42,-121.87"/>
<polygon fill="midnightblue" stroke="midnightblue" points="1559.97,-19.8 1569.92,-16.16 1559.87,-12.8 1559.97,-19.8"/>
</g>
</g>
</svg>
