<?xml version="1.0" encoding="UTF-8" standalone="no"?>
<!DOCTYPE svg PUBLIC "-//W3C//DTD SVG 1.1//EN"
 "http://www.w3.org/Graphics/SVG/1.1/DTD/svg11.dtd">
<!-- Generated by graphviz version 3.0.0 (20220226.1711)
 -->
<!-- Title: slljit::CodeGen::compile Pages: 1 -->
<svg width="273pt" height="235pt"
 viewBox="0.00 0.00 273.00 235.00" xmlns="http://www.w3.org/2000/svg" xmlns:xlink="http://www.w3.org/1999/xlink">
<g id="graph0" class="graph" transform="scale(1 1) rotate(0) translate(4 231)">
<title>slljit::CodeGen::compile</title>
<!-- Node1 -->
<g id="node1" class="node">
<title>Node1</title>
<g id="a_node1"><a xlink:title=" ">
<polygon fill="#bfbfbf" stroke="black" points="0,-104 0,-123 120,-123 120,-104 0,-104"/>
<text text-anchor="middle" x="60" y="-111" font-family="Helvetica,sans-Serif" font-size="10.00">slljit::CodeGen::compile</text>
</a>
</g>
</g>
<!-- Node2 -->
<g id="node2" class="node">
<title>Node2</title>
<g id="a_node2"><a xlink:href="classslljit_1_1_local_context.html#a98363e5bf25677e3b1b9c621ad8fa8d8" target="_top" xlink:title=" ">
<polygon fill="none" stroke="black" points="162,-196.5 162,-226.5 259,-226.5 259,-196.5 162,-196.5"/>
<text text-anchor="start" x="170" y="-214.5" font-family="Helvetica,sans-Serif" font-size="10.00">slljit::LocalContext</text>
<text text-anchor="middle" x="210.5" y="-203.5" font-family="Helvetica,sans-Serif" font-size="10.00">::getJITDylib</text>
</a>
</g>
</g>
<!-- Node1&#45;&gt;Node2 -->
<g id="edge1" class="edge">
<title>Node1&#45;&gt;Node2</title>
<path fill="none" stroke="midnightblue" d="M71.5,-123.06C88.38,-138.11 123.04,-167.67 156,-187.5 158.45,-188.98 161.01,-190.42 163.63,-191.81"/>
<polygon fill="midnightblue" stroke="midnightblue" points="162.14,-194.98 172.64,-196.38 165.3,-188.74 162.14,-194.98"/>
</g>
<!-- Node3 -->
<g id="node3" class="node">
<title>Node3</title>
<g id="a_node3"><a xlink:href="classslljit_1_1_local_context.html#abb9845ccd33f6c425e174f0090e92fbe" target="_top" xlink:title=" ">
<polygon fill="none" stroke="black" points="162,-147.5 162,-177.5 259,-177.5 259,-147.5 162,-147.5"/>
<text text-anchor="start" x="170" y="-165.5" font-family="Helvetica,sans-Serif" font-size="10.00">slljit::LocalContext</text>
<text text-anchor="middle" x="210.5" y="-154.5" font-family="Helvetica,sans-Serif" font-size="10.00">::getModule</text>
</a>
</g>
</g>
<!-- Node1&#45;&gt;Node3 -->
<g id="edge2" class="edge">
<title>Node1&#45;&gt;Node3</title>
<path fill="none" stroke="midnightblue" d="M89.98,-123.06C108.29,-129.11 132.54,-137.11 154.4,-144.32"/>
<polygon fill="midnightblue" stroke="midnightblue" points="153.34,-147.65 163.93,-147.46 155.53,-141.01 153.34,-147.65"/>
</g>
<!-- Node4 -->
<g id="node4" class="node">
<title>Node4</title>
<g id="a_node4"><a xlink:href="classslljit_1_1_local_context.html#a171907b47cd69073e387c31d2c188b5b" target="_top" xlink:title=" ">
<polygon fill="none" stroke="black" points="162,-98.5 162,-128.5 259,-128.5 259,-98.5 162,-98.5"/>
<text text-anchor="start" x="170" y="-116.5" font-family="Helvetica,sans-Serif" font-size="10.00">slljit::LocalContext</text>
<text text-anchor="middle" x="210.5" y="-105.5" font-family="Helvetica,sans-Serif" font-size="10.00">::takeContext</text>
</a>
</g>
</g>
<!-- Node1&#45;&gt;Node4 -->
<g id="edge3" class="edge">
<title>Node1&#45;&gt;Node4</title>
<path fill="none" stroke="midnightblue" d="M120.12,-113.5C130.43,-113.5 141.15,-113.5 151.43,-113.5"/>
<polygon fill="midnightblue" stroke="midnightblue" points="151.54,-117 161.54,-113.5 151.54,-110 151.54,-117"/>
</g>
<!-- Node5 -->
<g id="node5" class="node">
<title>Node5</title>
<g id="a_node5"><a xlink:href="classslljit_1_1_local_context.html#afe472965af157e400b47e19d4ffa53f6" target="_top" xlink:title=" ">
<polygon fill="none" stroke="black" points="162,-49.5 162,-79.5 259,-79.5 259,-49.5 162,-49.5"/>
<text text-anchor="start" x="170" y="-67.5" font-family="Helvetica,sans-Serif" font-size="10.00">slljit::LocalContext</text>
<text text-anchor="middle" x="210.5" y="-56.5" font-family="Helvetica,sans-Serif" font-size="10.00">::takeModule</text>
</a>
</g>
</g>
<!-- Node1&#45;&gt;Node5 -->
<g id="edge4" class="edge">
<title>Node1&#45;&gt;Node5</title>
<path fill="none" stroke="midnightblue" d="M89.98,-103.94C108.29,-97.89 132.54,-89.89 154.4,-82.68"/>
<polygon fill="midnightblue" stroke="midnightblue" points="155.53,-85.99 163.93,-79.54 153.34,-79.35 155.53,-85.99"/>
</g>
<!-- Node6 -->
<g id="node6" class="node">
<title>Node6</title>
<g id="a_node6"><a xlink:href="structslljit_1_1_compile_options.html#a42fd4fa986d61e146a8929517a9c1b1e" target="_top" xlink:title=" ">
<polygon fill="none" stroke="black" points="156,-0.5 156,-30.5 265,-30.5 265,-0.5 156,-0.5"/>
<text text-anchor="start" x="164" y="-18.5" font-family="Helvetica,sans-Serif" font-size="10.00">slljit::CompileOptions</text>
<text text-anchor="middle" x="210.5" y="-7.5" font-family="Helvetica,sans-Serif" font-size="10.00">::to_llvm_opt_level</text>
</a>
</g>
</g>
<!-- Node1&#45;&gt;Node6 -->
<g id="edge5" class="edge">
<title>Node1&#45;&gt;Node6</title>
<path fill="none" stroke="midnightblue" d="M71.83,-103.9C88.9,-89.08 123.47,-60.27 156,-40.5 158.98,-38.69 162.12,-36.92 165.31,-35.2"/>
<polygon fill="midnightblue" stroke="midnightblue" points="167.08,-38.23 174.39,-30.56 163.89,-32 167.08,-38.23"/>
</g>
</g>
</svg>
