<?xml version="1.0" encoding="UTF-8" standalone="no"?>
<!DOCTYPE svg PUBLIC "-//W3C//DTD SVG 1.1//EN"
 "http://www.w3.org/Graphics/SVG/1.1/DTD/svg11.dtd">
<!-- Generated by graphviz version 3.0.0 (20220226.1711)
 -->
<!-- Title: slljit::Parser::ParseForExpr Pages: 1 -->
<svg width="1848pt" height="318pt"
 viewBox="0.00 0.00 1848.00 317.64" xmlns="http://www.w3.org/2000/svg" xmlns:xlink="http://www.w3.org/1999/xlink">
<g id="graph0" class="graph" transform="scale(1 1) rotate(0) translate(4 313.64)">
<title>slljit::Parser::ParseForExpr</title>
<!-- Node1 -->
<g id="node1" class="node">
<title>Node1</title>
<g id="a_node1"><a xlink:title="forexpr ::= &#39;for&#39; identifier &#39;=&#39; expr &#39;,&#39; expr (&#39;,&#39; expr)? &#39;in&#39; expression">
<polygon fill="#bfbfbf" stroke="black" points="1706,-262.14 1706,-281.14 1840,-281.14 1840,-262.14 1706,-262.14"/>
<text text-anchor="middle" x="1773" y="-269.14" font-family="Helvetica,sans-Serif" font-size="10.00">slljit::Parser::ParseForExpr</text>
</a>
</g>
</g>
<!-- Node2 -->
<g id="node2" class="node">
<title>Node2</title>
<g id="a_node2"><a xlink:href="classslljit_1_1_parser.html#a45cb3e4f600e8e2c253490e7d878e8cd" target="_top" xlink:title=" ">
<polygon fill="none" stroke="black" points="1536,-99.14 1536,-118.14 1670,-118.14 1670,-99.14 1536,-99.14"/>
<text text-anchor="middle" x="1603" y="-106.14" font-family="Helvetica,sans-Serif" font-size="10.00">slljit::Parser::ParsePrimary</text>
</a>
</g>
</g>
<!-- Node1&#45;&gt;Node2 -->
<g id="edge1" class="edge">
<title>Node1&#45;&gt;Node2</title>
<path fill="none" stroke="midnightblue" d="M1754.44,-254.61C1719.44,-220.65 1641.96,-145.47 1614.17,-118.51"/>
<polygon fill="midnightblue" stroke="midnightblue" points="1752.38,-257.48 1761.99,-261.93 1757.25,-252.46 1752.38,-257.48"/>
</g>
<!-- Node3 -->
<g id="node3" class="node">
<title>Node3</title>
<g id="a_node3"><a xlink:href="classslljit_1_1_parser.html#af8579896f39ac563d2edd14404d70f41" target="_top" xlink:title=" ">
<polygon fill="none" stroke="black" points="1375,-162.14 1375,-181.14 1500,-181.14 1500,-162.14 1375,-162.14"/>
<text text-anchor="middle" x="1437.5" y="-169.14" font-family="Helvetica,sans-Serif" font-size="10.00">slljit::Parser::ParseUnary</text>
</a>
</g>
</g>
<!-- Node2&#45;&gt;Node3 -->
<g id="edge2" class="edge">
<title>Node2&#45;&gt;Node3</title>
<path fill="none" stroke="midnightblue" d="M1567.57,-121.91C1536.35,-133.94 1491.09,-151.38 1463.3,-162.09"/>
<polygon fill="midnightblue" stroke="midnightblue" points="1569.1,-125.07 1577.17,-118.21 1566.58,-118.54 1569.1,-125.07"/>
</g>
<!-- Node3&#45;&gt;Node3 -->
<g id="edge25" class="edge">
<title>Node3&#45;&gt;Node3</title>
<path fill="none" stroke="midnightblue" d="M1466.25,-190.3C1465.04,-195.58 1455.46,-199.64 1437.5,-199.64 1410.13,-199.64 1402.22,-190.21 1413.76,-181.4"/>
<polygon fill="midnightblue" stroke="midnightblue" points="1469.19,-188.4 1461.24,-181.4 1463.09,-191.83 1469.19,-188.4"/>
</g>
<!-- Node4 -->
<g id="node4" class="node">
<title>Node4</title>
<g id="a_node4"><a xlink:href="classslljit_1_1_parser.html#ae387c9672ec50720d8cb969558aedbe9" target="_top" xlink:title=" ">
<polygon fill="none" stroke="black" points="1225,-156.64 1225,-186.64 1339,-186.64 1339,-156.64 1225,-156.64"/>
<text text-anchor="start" x="1233" y="-174.64" font-family="Helvetica,sans-Serif" font-size="10.00">slljit::Parser::ParseBin</text>
<text text-anchor="middle" x="1282" y="-163.64" font-family="Helvetica,sans-Serif" font-size="10.00">OpRHS</text>
</a>
</g>
</g>
<!-- Node3&#45;&gt;Node4 -->
<g id="edge3" class="edge">
<title>Node3&#45;&gt;Node4</title>
<path fill="none" stroke="midnightblue" d="M1364.86,-171.64C1356.22,-171.64 1347.48,-171.64 1339.1,-171.64"/>
<polygon fill="midnightblue" stroke="midnightblue" points="1364.95,-175.14 1374.95,-171.64 1364.95,-168.14 1364.95,-175.14"/>
</g>
<!-- Node5 -->
<g id="node5" class="node">
<title>Node5</title>
<g id="a_node5"><a xlink:href="classslljit_1_1_parser.html#a79461bf414d03dcabb49d3bbd6f89607" target="_top" xlink:title=" ">
<polygon fill="none" stroke="black" points="1040,-161.14 1040,-180.14 1189,-180.14 1189,-161.14 1040,-161.14"/>
<text text-anchor="middle" x="1114.5" y="-168.14" font-family="Helvetica,sans-Serif" font-size="10.00">slljit::Parser::ParseExpression</text>
</a>
</g>
</g>
<!-- Node3&#45;&gt;Node5 -->
<g id="edge24" class="edge">
<title>Node3&#45;&gt;Node5</title>
<path fill="none" stroke="midnightblue" d="M1410.97,-186.06C1391.83,-196.01 1364.63,-208.36 1339,-213.64 1289.38,-223.88 1274.78,-223.07 1225,-213.64 1191.49,-207.3 1155.1,-190.93 1133.85,-180.32"/>
<polygon fill="midnightblue" stroke="midnightblue" points="1412.76,-189.07 1419.93,-181.27 1409.46,-182.9 1412.76,-189.07"/>
</g>
<!-- Node4&#45;&gt;Node4 -->
<g id="edge4" class="edge">
<title>Node4&#45;&gt;Node4</title>
<path fill="none" stroke="midnightblue" d="M1309.36,-197.1C1305.97,-201.82 1296.85,-205.14 1282,-205.14 1257.64,-205.14 1248.69,-196.2 1255.16,-186.8"/>
<polygon fill="midnightblue" stroke="midnightblue" points="1312.84,-196.61 1308.84,-186.8 1305.85,-196.97 1312.84,-196.61"/>
</g>
<!-- Node4&#45;&gt;Node5 -->
<g id="edge5" class="edge">
<title>Node4&#45;&gt;Node5</title>
<path fill="none" stroke="midnightblue" d="M1214.8,-171.24C1206.34,-171.19 1197.64,-171.14 1189.08,-171.09"/>
<polygon fill="midnightblue" stroke="midnightblue" points="1214.95,-174.74 1224.97,-171.3 1214.99,-167.74 1214.95,-174.74"/>
</g>
<!-- Node5&#45;&gt;Node1 -->
<g id="edge16" class="edge">
<title>Node5&#45;&gt;Node1</title>
<path fill="none" stroke="midnightblue" d="M1136.72,-186.18C1157.91,-200.76 1191.98,-221.77 1225,-231.64 1392.63,-281.78 1601.43,-280.55 1705.94,-275.86"/>
<polygon fill="midnightblue" stroke="midnightblue" points="1138.66,-183.27 1128.47,-180.38 1134.64,-188.99 1138.66,-183.27"/>
</g>
<!-- Node6 -->
<g id="node6" class="node">
<title>Node6</title>
<g id="a_node6"><a xlink:href="classslljit_1_1_parser.html#acc431005ac3dd38732083d7a1bb0eab2" target="_top" xlink:title=" ">
<polygon fill="none" stroke="black" points="840,-202.14 840,-221.14 1004,-221.14 1004,-202.14 840,-202.14"/>
<text text-anchor="middle" x="922" y="-209.14" font-family="Helvetica,sans-Serif" font-size="10.00">slljit::Parser::ParseExpressionList</text>
</a>
</g>
</g>
<!-- Node5&#45;&gt;Node6 -->
<g id="edge6" class="edge">
<title>Node5&#45;&gt;Node6</title>
<path fill="none" stroke="midnightblue" d="M1059.3,-182.31C1030.18,-188.58 994.72,-196.21 967.27,-202.11"/>
<polygon fill="midnightblue" stroke="midnightblue" points="1060.28,-185.68 1069.32,-180.15 1058.8,-178.83 1060.28,-185.68"/>
</g>
<!-- Node7 -->
<g id="node7" class="node">
<title>Node7</title>
<g id="a_node7"><a xlink:href="classslljit_1_1_parser.html#a149f5e88cb03aa08c388e6320c6c1bac" target="_top" xlink:title="ifexpr ::= &#39;if&#39; expression &#39;then&#39; expression &#39;else&#39; expression">
<polygon fill="none" stroke="black" points="679,-159.14 679,-178.14 804,-178.14 804,-159.14 679,-159.14"/>
<text text-anchor="middle" x="741.5" y="-166.14" font-family="Helvetica,sans-Serif" font-size="10.00">slljit::Parser::ParseIfExpr</text>
</a>
</g>
</g>
<!-- Node5&#45;&gt;Node7 -->
<g id="edge19" class="edge">
<title>Node5&#45;&gt;Node7</title>
<path fill="none" stroke="midnightblue" d="M1029.42,-170.19C960.9,-169.82 865.72,-169.31 804.11,-168.97"/>
<polygon fill="midnightblue" stroke="midnightblue" points="1029.74,-173.69 1039.76,-170.25 1029.78,-166.69 1029.74,-173.69"/>
</g>
<!-- Node14 -->
<g id="node14" class="node">
<title>Node14</title>
<g id="a_node14"><a xlink:href="classslljit_1_1_parser.html#a25cfefcbeea85744e23370d3a6f8ad5b" target="_top" xlink:title=" ">
<polygon fill="none" stroke="black" points="844,-42.14 844,-61.14 1000,-61.14 1000,-42.14 844,-42.14"/>
<text text-anchor="middle" x="922" y="-49.14" font-family="Helvetica,sans-Serif" font-size="10.00">slljit::Parser::ParseIdentifierExpr</text>
</a>
</g>
</g>
<!-- Node5&#45;&gt;Node14 -->
<g id="edge17" class="edge">
<title>Node5&#45;&gt;Node14</title>
<path fill="none" stroke="midnightblue" d="M1098.64,-153.26C1079.09,-131.49 1042.67,-94.52 1004,-73.64 994.26,-68.38 983.16,-64.3 972.37,-61.17"/>
<polygon fill="midnightblue" stroke="midnightblue" points="1096.26,-155.86 1105.49,-161.05 1101.51,-151.23 1096.26,-155.86"/>
</g>
<!-- Node15 -->
<g id="node15" class="node">
<title>Node15</title>
<g id="a_node15"><a xlink:href="classslljit_1_1_parser.html#a6e2e0f6a2cc445f3a956db59c8d2da66" target="_top" xlink:title="parenexpr ::= &#39;(&#39; expression &#39;)&#39;">
<polygon fill="none" stroke="black" points="849,-122.14 849,-141.14 995,-141.14 995,-122.14 849,-122.14"/>
<text text-anchor="middle" x="922" y="-129.14" font-family="Helvetica,sans-Serif" font-size="10.00">slljit::Parser::ParseParenExpr</text>
</a>
</g>
</g>
<!-- Node5&#45;&gt;Node15 -->
<g id="edge20" class="edge">
<title>Node5&#45;&gt;Node15</title>
<path fill="none" stroke="midnightblue" d="M1056.89,-159.05C1029.01,-153.35 995.81,-146.55 969.45,-141.15"/>
<polygon fill="midnightblue" stroke="midnightblue" points="1056.4,-162.53 1066.9,-161.1 1057.8,-155.67 1056.4,-162.53"/>
</g>
<!-- Node16 -->
<g id="node16" class="node">
<title>Node16</title>
<g id="a_node16"><a xlink:href="classslljit_1_1_parser.html#a435877d3f2869d140a7cca646546a114" target="_top" xlink:title="varexpr ::= &#39;g_var&#39; identifier (&#39;=&#39; expression)?">
<polygon fill="none" stroke="black" points="854.5,-83.14 854.5,-102.14 989.5,-102.14 989.5,-83.14 854.5,-83.14"/>
<text text-anchor="middle" x="922" y="-90.14" font-family="Helvetica,sans-Serif" font-size="10.00">slljit::Parser::ParseVarExpr</text>
</a>
</g>
</g>
<!-- Node5&#45;&gt;Node16 -->
<g id="edge22" class="edge">
<title>Node5&#45;&gt;Node16</title>
<path fill="none" stroke="midnightblue" d="M1089.28,-155.59C1067.62,-142.67 1034.64,-124.34 1004,-112.64 993.17,-108.51 981.2,-105.01 969.86,-102.15"/>
<polygon fill="midnightblue" stroke="midnightblue" points="1087.75,-158.75 1098.11,-160.93 1091.37,-152.76 1087.75,-158.75"/>
</g>
<!-- Node6&#45;&gt;Node1 -->
<g id="edge7" class="edge">
<title>Node6&#45;&gt;Node1</title>
<path fill="none" stroke="midnightblue" d="M952.32,-225.43C1012.51,-252.42 1154.95,-309.64 1281,-309.64 1438.5,-309.64 1438.5,-309.64 1438.5,-309.64 1541.7,-309.64 1567.75,-305.59 1670,-291.64 1689.49,-288.98 1710.87,-284.96 1729.01,-281.22"/>
<polygon fill="midnightblue" stroke="midnightblue" points="953.61,-222.17 943.05,-221.22 950.71,-228.54 953.61,-222.17"/>
</g>
<!-- Node6&#45;&gt;Node7 -->
<g id="edge8" class="edge">
<title>Node6&#45;&gt;Node7</title>
<path fill="none" stroke="midnightblue" d="M871.32,-199.68C843.13,-192.88 808.33,-184.5 782,-178.16"/>
<polygon fill="midnightblue" stroke="midnightblue" points="870.84,-203.16 881.39,-202.1 872.48,-196.35 870.84,-203.16"/>
</g>
<!-- Node8 -->
<g id="node8" class="node">
<title>Node8</title>
<g id="a_node8"><a xlink:href="classslljit_1_1_parser.html#aa9a9ce164e114ad7f347f32329f5a5a2" target="_top" xlink:title="definition ::= &#39;def&#39; prototype expression">
<polygon fill="none" stroke="black" points="683.5,-197.64 683.5,-227.64 799.5,-227.64 799.5,-197.64 683.5,-197.64"/>
<text text-anchor="start" x="691.5" y="-215.64" font-family="Helvetica,sans-Serif" font-size="10.00">slljit::Parser::ParseTop</text>
<text text-anchor="middle" x="741.5" y="-204.64" font-family="Helvetica,sans-Serif" font-size="10.00">LevelTypedExpression</text>
</a>
</g>
</g>
<!-- Node6&#45;&gt;Node8 -->
<g id="edge10" class="edge">
<title>Node6&#45;&gt;Node8</title>
<path fill="none" stroke="midnightblue" d="M829.66,-212.15C819.48,-212.21 809.32,-212.27 799.74,-212.32"/>
<polygon fill="midnightblue" stroke="midnightblue" points="829.87,-215.65 839.85,-212.1 829.83,-208.65 829.87,-215.65"/>
</g>
<!-- Node7&#45;&gt;Node2 -->
<g id="edge9" class="edge">
<title>Node7&#45;&gt;Node2</title>
<path fill="none" stroke="midnightblue" d="M749.97,-149.19C763,-118.3 793.03,-58.86 840,-32.64 946.4,26.74 991.65,-13.64 1113.5,-13.64 1283,-13.64 1283,-13.64 1283,-13.64 1401.75,-13.64 1535.41,-74.86 1583.52,-99.01"/>
<polygon fill="midnightblue" stroke="midnightblue" points="746.58,-148.24 746.08,-158.82 753.07,-150.87 746.58,-148.24"/>
</g>
<!-- Node9 -->
<g id="node9" class="node">
<title>Node9</title>
<g id="a_node9"><a xlink:href="classslljit_1_1_parser.html#af0cac4623fc05b8b7ae9884b0aeb3d3f" target="_top" xlink:title=" ">
<polygon fill="none" stroke="black" points="512,-197.64 512,-227.64 643,-227.64 643,-197.64 512,-197.64"/>
<text text-anchor="start" x="520" y="-215.64" font-family="Helvetica,sans-Serif" font-size="10.00">slljit::Parser::HandleTyped</text>
<text text-anchor="middle" x="577.5" y="-204.64" font-family="Helvetica,sans-Serif" font-size="10.00">Expression</text>
</a>
</g>
</g>
<!-- Node8&#45;&gt;Node9 -->
<g id="edge11" class="edge">
<title>Node8&#45;&gt;Node9</title>
<path fill="none" stroke="midnightblue" d="M673.16,-212.64C663.22,-212.64 652.99,-212.64 643.11,-212.64"/>
<polygon fill="midnightblue" stroke="midnightblue" points="673.38,-216.14 683.38,-212.64 673.38,-209.14 673.38,-216.14"/>
</g>
<!-- Node10 -->
<g id="node10" class="node">
<title>Node10</title>
<g id="a_node10"><a xlink:href="classslljit_1_1_parser.html#ae2d3d6534b87da7f237c19129a464bda" target="_top" xlink:title="top ::= definition | external | expression | &#39;;&#39;">
<polygon fill="none" stroke="black" points="360,-203.14 360,-222.14 476,-222.14 476,-203.14 360,-203.14"/>
<text text-anchor="middle" x="418" y="-210.14" font-family="Helvetica,sans-Serif" font-size="10.00">slljit::Parser::MainLoop</text>
</a>
</g>
</g>
<!-- Node9&#45;&gt;Node10 -->
<g id="edge12" class="edge">
<title>Node9&#45;&gt;Node10</title>
<path fill="none" stroke="midnightblue" d="M501.87,-212.64C493.2,-212.64 484.47,-212.64 476.09,-212.64"/>
<polygon fill="midnightblue" stroke="midnightblue" points="501.98,-216.14 511.98,-212.64 501.98,-209.14 501.98,-216.14"/>
</g>
<!-- Node11 -->
<g id="node11" class="node">
<title>Node11</title>
<g id="a_node11"><a xlink:href="classslljit_1_1_parser.html#a2429935f3c870648f9f895a7b2361cfb" target="_top" xlink:title=" ">
<polygon fill="none" stroke="black" points="226,-203.14 226,-222.14 324,-222.14 324,-203.14 226,-203.14"/>
<text text-anchor="middle" x="275" y="-210.14" font-family="Helvetica,sans-Serif" font-size="10.00">slljit::Parser::parse</text>
</a>
</g>
</g>
<!-- Node10&#45;&gt;Node11 -->
<g id="edge13" class="edge">
<title>Node10&#45;&gt;Node11</title>
<path fill="none" stroke="midnightblue" d="M349.37,-212.64C340.9,-212.64 332.37,-212.64 324.28,-212.64"/>
<polygon fill="midnightblue" stroke="midnightblue" points="349.65,-216.14 359.65,-212.64 349.65,-209.14 349.65,-216.14"/>
</g>
<!-- Node12 -->
<g id="node12" class="node">
<title>Node12</title>
<g id="a_node12"><a xlink:href="classslljit_1_1_program.html#ae4d26526a7dd9c69ebe92fb43736696b" target="_top" xlink:title=" ">
<polygon fill="none" stroke="black" points="74,-203.14 74,-222.14 190,-222.14 190,-203.14 74,-203.14"/>
<text text-anchor="middle" x="132" y="-210.14" font-family="Helvetica,sans-Serif" font-size="10.00">slljit::Program::compile</text>
</a>
</g>
</g>
<!-- Node11&#45;&gt;Node12 -->
<g id="edge14" class="edge">
<title>Node11&#45;&gt;Node12</title>
<path fill="none" stroke="midnightblue" d="M215.72,-212.64C207.27,-212.64 198.58,-212.64 190.16,-212.64"/>
<polygon fill="midnightblue" stroke="midnightblue" points="215.87,-216.14 225.87,-212.64 215.87,-209.14 215.87,-216.14"/>
</g>
<!-- Node13 -->
<g id="node13" class="node">
<title>Node13</title>
<g id="a_node13"><a xlink:href="compiler__cli_8cpp.html#a3c04138a5bfe5d72780bb7e82a18e627" target="_top" xlink:title=" ">
<polygon fill="none" stroke="black" points="0,-203.14 0,-222.14 38,-222.14 38,-203.14 0,-203.14"/>
<text text-anchor="middle" x="19" y="-210.14" font-family="Helvetica,sans-Serif" font-size="10.00">main</text>
</a>
</g>
</g>
<!-- Node12&#45;&gt;Node13 -->
<g id="edge15" class="edge">
<title>Node12&#45;&gt;Node13</title>
<path fill="none" stroke="midnightblue" d="M63.62,-212.64C54.3,-212.64 45.44,-212.64 38.18,-212.64"/>
<polygon fill="midnightblue" stroke="midnightblue" points="63.87,-216.14 73.87,-212.64 63.87,-209.14 63.87,-216.14"/>
</g>
<!-- Node14&#45;&gt;Node2 -->
<g id="edge18" class="edge">
<title>Node14&#45;&gt;Node2</title>
<path fill="none" stroke="midnightblue" d="M1009.99,-58.74C1122.94,-67.99 1326.22,-84.75 1500,-99.64 1511.6,-100.64 1523.94,-101.71 1535.89,-102.76"/>
<polygon fill="midnightblue" stroke="midnightblue" points="1010.26,-55.25 1000.01,-57.93 1009.69,-62.23 1010.26,-55.25"/>
</g>
<!-- Node15&#45;&gt;Node2 -->
<g id="edge21" class="edge">
<title>Node15&#45;&gt;Node2</title>
<path fill="none" stroke="midnightblue" d="M1005.64,-129.53C1117.68,-126.55 1323.99,-120.7 1500,-113.64 1511.6,-113.18 1523.95,-112.62 1535.89,-112.06"/>
<polygon fill="midnightblue" stroke="midnightblue" points="1005.33,-126.03 995.43,-129.8 1005.52,-133.03 1005.33,-126.03"/>
</g>
<!-- Node16&#45;&gt;Node2 -->
<g id="edge23" class="edge">
<title>Node16&#45;&gt;Node2</title>
<path fill="none" stroke="midnightblue" d="M999.9,-94.45C1134.3,-97.62 1409.62,-104.11 1535.97,-107.09"/>
<polygon fill="midnightblue" stroke="midnightblue" points="999.77,-90.95 989.69,-94.21 999.6,-97.95 999.77,-90.95"/>
</g>
</g>
</svg>
