<?xml version="1.0" encoding="UTF-8" standalone="no"?>
<!DOCTYPE svg PUBLIC "-//W3C//DTD SVG 1.1//EN"
 "http://www.w3.org/Graphics/SVG/1.1/DTD/svg11.dtd">
<!-- Generated by graphviz version 3.0.0 (20220226.1711)
 -->
<!-- Title: slljit::Parser::pop_scope Pages: 1 -->
<svg width="1900pt" height="382pt"
 viewBox="0.00 0.00 1900.00 381.87" xmlns="http://www.w3.org/2000/svg" xmlns:xlink="http://www.w3.org/1999/xlink">
<g id="graph0" class="graph" transform="scale(1 1) rotate(0) translate(4 377.87)">
<title>slljit::Parser::pop_scope</title>
<!-- Node1 -->
<g id="node1" class="node">
<title>Node1</title>
<g id="a_node1"><a xlink:title=" ">
<polygon fill="#bfbfbf" stroke="black" points="1802,-61 1802,-91 1892,-91 1892,-61 1802,-61"/>
<text text-anchor="start" x="1810" y="-79" font-family="Helvetica,sans-Serif" font-size="10.00">slljit::Parser::pop</text>
<text text-anchor="middle" x="1847" y="-68" font-family="Helvetica,sans-Serif" font-size="10.00">_scope</text>
</a>
</g>
</g>
<!-- Node2 -->
<g id="node2" class="node">
<title>Node2</title>
<g id="a_node2"><a xlink:href="classslljit_1_1_parser.html#a81023e7a6221eb6b92027bd21433c9dd" target="_top" xlink:title="forexpr ::= &#39;for&#39; identifier &#39;=&#39; expr &#39;,&#39; expr (&#39;,&#39; expr)? &#39;in&#39; expression">
<polygon fill="none" stroke="black" points="1632,-66.5 1632,-85.5 1766,-85.5 1766,-66.5 1632,-66.5"/>
<text text-anchor="middle" x="1699" y="-73.5" font-family="Helvetica,sans-Serif" font-size="10.00">slljit::Parser::ParseForExpr</text>
</a>
</g>
</g>
<!-- Node1&#45;&gt;Node2 -->
<g id="edge1" class="edge">
<title>Node1&#45;&gt;Node2</title>
<path fill="none" stroke="midnightblue" d="M1791.53,-76C1783.25,-76 1774.63,-76 1766.14,-76"/>
<polygon fill="midnightblue" stroke="midnightblue" points="1791.8,-79.5 1801.8,-76 1791.8,-72.5 1791.8,-79.5"/>
</g>
<!-- Node8 -->
<g id="node8" class="node">
<title>Node8</title>
<g id="a_node8"><a xlink:href="classslljit_1_1_parser.html#a149f5e88cb03aa08c388e6320c6c1bac" target="_top" xlink:title="ifexpr ::= &#39;if&#39; expression &#39;then&#39; expression &#39;else&#39; expression">
<polygon fill="none" stroke="black" points="605,-256.5 605,-275.5 730,-275.5 730,-256.5 605,-256.5"/>
<text text-anchor="middle" x="667.5" y="-263.5" font-family="Helvetica,sans-Serif" font-size="10.00">slljit::Parser::ParseIfExpr</text>
</a>
</g>
</g>
<!-- Node1&#45;&gt;Node8 -->
<g id="edge26" class="edge">
<title>Node1&#45;&gt;Node8</title>
<path fill="none" stroke="midnightblue" d="M1834.88,-100.15C1800.51,-170.78 1688.66,-372 1530,-372 1530,-372 1530,-372 1039.5,-372 917.06,-372 879.64,-384.57 766,-339 729.1,-324.2 693.82,-291.77 677.67,-275.58"/>
<polygon fill="midnightblue" stroke="midnightblue" points="1838.06,-101.62 1839.21,-91.09 1831.74,-98.6 1838.06,-101.62"/>
</g>
<!-- Node9 -->
<g id="node9" class="node">
<title>Node9</title>
<g id="a_node9"><a xlink:href="classslljit_1_1_parser.html#aa9a9ce164e114ad7f347f32329f5a5a2" target="_top" xlink:title="definition ::= &#39;def&#39; prototype expression">
<polygon fill="none" stroke="black" points="609.5,-44 609.5,-74 725.5,-74 725.5,-44 609.5,-44"/>
<text text-anchor="start" x="617.5" y="-62" font-family="Helvetica,sans-Serif" font-size="10.00">slljit::Parser::ParseTop</text>
<text text-anchor="middle" x="667.5" y="-51" font-family="Helvetica,sans-Serif" font-size="10.00">LevelTypedExpression</text>
</a>
</g>
</g>
<!-- Node1&#45;&gt;Node9 -->
<g id="edge27" class="edge">
<title>Node1&#45;&gt;Node9</title>
<path fill="none" stroke="midnightblue" d="M1799.04,-57.35C1738.05,-34.85 1627.81,0 1530,0 1530,0 1530,0 1039.5,0 927.16,0 798.03,-26.71 725.57,-44.19"/>
<polygon fill="midnightblue" stroke="midnightblue" points="1798.17,-60.76 1808.76,-60.98 1800.62,-54.2 1798.17,-60.76"/>
</g>
<!-- Node3 -->
<g id="node3" class="node">
<title>Node3</title>
<g id="a_node3"><a xlink:href="classslljit_1_1_parser.html#a45cb3e4f600e8e2c253490e7d878e8cd" target="_top" xlink:title=" ">
<polygon fill="none" stroke="black" points="1462,-220.5 1462,-239.5 1596,-239.5 1596,-220.5 1462,-220.5"/>
<text text-anchor="middle" x="1529" y="-227.5" font-family="Helvetica,sans-Serif" font-size="10.00">slljit::Parser::ParsePrimary</text>
</a>
</g>
</g>
<!-- Node2&#45;&gt;Node3 -->
<g id="edge2" class="edge">
<title>Node2&#45;&gt;Node3</title>
<path fill="none" stroke="midnightblue" d="M1679.89,-92.6C1644.77,-124.79 1568.43,-194.77 1540.51,-220.37"/>
<polygon fill="midnightblue" stroke="midnightblue" points="1682.48,-94.97 1687.49,-85.63 1677.75,-89.81 1682.48,-94.97"/>
</g>
<!-- Node4 -->
<g id="node4" class="node">
<title>Node4</title>
<g id="a_node4"><a xlink:href="classslljit_1_1_parser.html#af8579896f39ac563d2edd14404d70f41" target="_top" xlink:title=" ">
<polygon fill="none" stroke="black" points="1301,-192.5 1301,-211.5 1426,-211.5 1426,-192.5 1301,-192.5"/>
<text text-anchor="middle" x="1363.5" y="-199.5" font-family="Helvetica,sans-Serif" font-size="10.00">slljit::Parser::ParseUnary</text>
</a>
</g>
</g>
<!-- Node3&#45;&gt;Node4 -->
<g id="edge3" class="edge">
<title>Node3&#45;&gt;Node4</title>
<path fill="none" stroke="midnightblue" d="M1462.16,-218.72C1448.2,-216.33 1433.59,-213.83 1420.06,-211.51"/>
<polygon fill="midnightblue" stroke="midnightblue" points="1461.74,-222.2 1472.19,-220.44 1462.92,-215.3 1461.74,-222.2"/>
</g>
<!-- Node4&#45;&gt;Node4 -->
<g id="edge25" class="edge">
<title>Node4&#45;&gt;Node4</title>
<path fill="none" stroke="midnightblue" d="M1392.25,-220.65C1391.04,-225.94 1381.46,-230 1363.5,-230 1336.13,-230 1328.22,-220.57 1339.76,-211.76"/>
<polygon fill="midnightblue" stroke="midnightblue" points="1395.19,-218.75 1387.24,-211.76 1389.09,-222.19 1395.19,-218.75"/>
</g>
<!-- Node5 -->
<g id="node5" class="node">
<title>Node5</title>
<g id="a_node5"><a xlink:href="classslljit_1_1_parser.html#ae387c9672ec50720d8cb969558aedbe9" target="_top" xlink:title=" ">
<polygon fill="none" stroke="black" points="1151,-143 1151,-173 1265,-173 1265,-143 1151,-143"/>
<text text-anchor="start" x="1159" y="-161" font-family="Helvetica,sans-Serif" font-size="10.00">slljit::Parser::ParseBin</text>
<text text-anchor="middle" x="1208" y="-150" font-family="Helvetica,sans-Serif" font-size="10.00">OpRHS</text>
</a>
</g>
</g>
<!-- Node4&#45;&gt;Node5 -->
<g id="edge4" class="edge">
<title>Node4&#45;&gt;Node5</title>
<path fill="none" stroke="midnightblue" d="M1319.55,-189.69C1301.56,-184.53 1280.47,-178.49 1261.56,-173.07"/>
<polygon fill="midnightblue" stroke="midnightblue" points="1318.62,-193.06 1329.19,-192.45 1320.54,-186.33 1318.62,-193.06"/>
</g>
<!-- Node6 -->
<g id="node6" class="node">
<title>Node6</title>
<g id="a_node6"><a xlink:href="classslljit_1_1_parser.html#a79461bf414d03dcabb49d3bbd6f89607" target="_top" xlink:title=" ">
<polygon fill="none" stroke="black" points="966,-169.5 966,-188.5 1115,-188.5 1115,-169.5 966,-169.5"/>
<text text-anchor="middle" x="1040.5" y="-176.5" font-family="Helvetica,sans-Serif" font-size="10.00">slljit::Parser::ParseExpression</text>
</a>
</g>
</g>
<!-- Node4&#45;&gt;Node6 -->
<g id="edge24" class="edge">
<title>Node4&#45;&gt;Node6</title>
<path fill="none" stroke="midnightblue" d="M1290.62,-205.1C1249.61,-206.01 1197.3,-205.72 1151,-201 1126.98,-198.55 1100.43,-193.28 1079.48,-188.51"/>
<polygon fill="midnightblue" stroke="midnightblue" points="1290.88,-208.59 1300.79,-204.84 1290.7,-201.6 1290.88,-208.59"/>
</g>
<!-- Node5&#45;&gt;Node5 -->
<g id="edge5" class="edge">
<title>Node5&#45;&gt;Node5</title>
<path fill="none" stroke="midnightblue" d="M1235.36,-183.46C1231.97,-188.18 1222.85,-191.5 1208,-191.5 1183.64,-191.5 1174.69,-182.56 1181.16,-173.16"/>
<polygon fill="midnightblue" stroke="midnightblue" points="1238.84,-182.97 1234.84,-173.16 1231.85,-183.32 1238.84,-182.97"/>
</g>
<!-- Node5&#45;&gt;Node6 -->
<g id="edge6" class="edge">
<title>Node5&#45;&gt;Node6</title>
<path fill="none" stroke="midnightblue" d="M1140.8,-166.4C1132.34,-167.47 1123.64,-168.58 1115.08,-169.66"/>
<polygon fill="midnightblue" stroke="midnightblue" points="1141.49,-169.84 1150.97,-165.11 1140.61,-162.9 1141.49,-169.84"/>
</g>
<!-- Node6&#45;&gt;Node2 -->
<g id="edge16" class="edge">
<title>Node6&#45;&gt;Node2</title>
<path fill="none" stroke="midnightblue" d="M1069.58,-164.85C1091.27,-154.58 1122.32,-141.26 1151,-134 1320.65,-91.08 1527.71,-79.89 1631.69,-76.99"/>
<polygon fill="midnightblue" stroke="midnightblue" points="1067.8,-161.83 1060.32,-169.33 1070.85,-168.13 1067.8,-161.83"/>
</g>
<!-- Node7 -->
<g id="node7" class="node">
<title>Node7</title>
<g id="a_node7"><a xlink:href="classslljit_1_1_parser.html#acc431005ac3dd38732083d7a1bb0eab2" target="_top" xlink:title=" ">
<polygon fill="none" stroke="black" points="766,-90.5 766,-109.5 930,-109.5 930,-90.5 766,-90.5"/>
<text text-anchor="middle" x="848" y="-97.5" font-family="Helvetica,sans-Serif" font-size="10.00">slljit::Parser::ParseExpressionList</text>
</a>
</g>
</g>
<!-- Node6&#45;&gt;Node7 -->
<g id="edge7" class="edge">
<title>Node6&#45;&gt;Node7</title>
<path fill="none" stroke="midnightblue" d="M1006.85,-165.46C968.46,-149.54 905.72,-123.52 872.06,-109.56"/>
<polygon fill="midnightblue" stroke="midnightblue" points="1005.94,-168.87 1016.52,-169.47 1008.62,-162.41 1005.94,-168.87"/>
</g>
<!-- Node6&#45;&gt;Node8 -->
<g id="edge19" class="edge">
<title>Node6&#45;&gt;Node8</title>
<path fill="none" stroke="midnightblue" d="M957.28,-190.04C902.51,-198.36 829.25,-211.37 766,-229 739.32,-236.44 709.7,-248.2 690.19,-256.46"/>
<polygon fill="midnightblue" stroke="midnightblue" points="957.91,-193.48 967.28,-188.54 956.87,-186.56 957.91,-193.48"/>
</g>
<!-- Node14 -->
<g id="node14" class="node">
<title>Node14</title>
<g id="a_node14"><a xlink:href="classslljit_1_1_parser.html#a25cfefcbeea85744e23370d3a6f8ad5b" target="_top" xlink:title=" ">
<polygon fill="none" stroke="black" points="770,-286.5 770,-305.5 926,-305.5 926,-286.5 770,-286.5"/>
<text text-anchor="middle" x="848" y="-293.5" font-family="Helvetica,sans-Serif" font-size="10.00">slljit::Parser::ParseIdentifierExpr</text>
</a>
</g>
</g>
<!-- Node6&#45;&gt;Node14 -->
<g id="edge17" class="edge">
<title>Node6&#45;&gt;Node14</title>
<path fill="none" stroke="midnightblue" d="M1022.48,-195.74C1002,-215.11 965.88,-246.91 930,-267 915.53,-275.1 898.38,-281.63 883.6,-286.42"/>
<polygon fill="midnightblue" stroke="midnightblue" points="1024.98,-198.19 1029.77,-188.74 1020.13,-193.14 1024.98,-198.19"/>
</g>
<!-- Node15 -->
<g id="node15" class="node">
<title>Node15</title>
<g id="a_node15"><a xlink:href="classslljit_1_1_parser.html#a6e2e0f6a2cc445f3a956db59c8d2da66" target="_top" xlink:title="parenexpr ::= &#39;(&#39; expression &#39;)&#39;">
<polygon fill="none" stroke="black" points="775,-238.5 775,-257.5 921,-257.5 921,-238.5 775,-238.5"/>
<text text-anchor="middle" x="848" y="-245.5" font-family="Helvetica,sans-Serif" font-size="10.00">slljit::Parser::ParseParenExpr</text>
</a>
</g>
</g>
<!-- Node6&#45;&gt;Node15 -->
<g id="edge20" class="edge">
<title>Node6&#45;&gt;Node15</title>
<path fill="none" stroke="midnightblue" d="M1003.51,-192.04C966.13,-205.57 908.56,-226.43 875.26,-238.49"/>
<polygon fill="midnightblue" stroke="midnightblue" points="1004.8,-195.29 1013.01,-188.59 1002.42,-188.71 1004.8,-195.29"/>
</g>
<!-- Node16 -->
<g id="node16" class="node">
<title>Node16</title>
<g id="a_node16"><a xlink:href="classslljit_1_1_parser.html#a435877d3f2869d140a7cca646546a114" target="_top" xlink:title="varexpr ::= &#39;g_var&#39; identifier (&#39;=&#39; expression)?">
<polygon fill="none" stroke="black" points="780.5,-148.5 780.5,-167.5 915.5,-167.5 915.5,-148.5 780.5,-148.5"/>
<text text-anchor="middle" x="848" y="-155.5" font-family="Helvetica,sans-Serif" font-size="10.00">slljit::Parser::ParseVarExpr</text>
</a>
</g>
</g>
<!-- Node6&#45;&gt;Node16 -->
<g id="edge22" class="edge">
<title>Node6&#45;&gt;Node16</title>
<path fill="none" stroke="midnightblue" d="M955.67,-169.76C942.26,-168.28 928.55,-166.77 915.61,-165.34"/>
<polygon fill="midnightblue" stroke="midnightblue" points="955.52,-173.26 965.85,-170.88 956.29,-166.31 955.52,-173.26"/>
</g>
<!-- Node7&#45;&gt;Node2 -->
<g id="edge8" class="edge">
<title>Node7&#45;&gt;Node2</title>
<path fill="none" stroke="midnightblue" d="M891.46,-87.78C958.08,-69.72 1091.5,-38 1207,-38 1364.5,-38 1364.5,-38 1364.5,-38 1464.88,-38 1581.16,-55.2 1646.5,-66.46"/>
<polygon fill="midnightblue" stroke="midnightblue" points="890.46,-84.43 881.74,-90.45 892.31,-91.18 890.46,-84.43"/>
</g>
<!-- Node7&#45;&gt;Node8 -->
<g id="edge9" class="edge">
<title>Node7&#45;&gt;Node8</title>
<path fill="none" stroke="midnightblue" d="M809.98,-113.47C795.38,-119.85 779.02,-128.42 766,-139 722.21,-174.59 686.56,-233.59 673.68,-256.5"/>
<polygon fill="midnightblue" stroke="midnightblue" points="811.39,-116.67 819.27,-109.59 808.7,-110.21 811.39,-116.67"/>
</g>
<!-- Node7&#45;&gt;Node9 -->
<g id="edge11" class="edge">
<title>Node7&#45;&gt;Node9</title>
<path fill="none" stroke="midnightblue" d="M795.8,-88.24C773.85,-83.2 748.12,-77.29 725.56,-72.11"/>
<polygon fill="midnightblue" stroke="midnightblue" points="795.07,-91.66 805.6,-90.49 796.64,-84.84 795.07,-91.66"/>
</g>
<!-- Node8&#45;&gt;Node3 -->
<g id="edge10" class="edge">
<title>Node8&#45;&gt;Node3</title>
<path fill="none" stroke="midnightblue" d="M691.55,-280.89C710.67,-292.41 738.99,-307.6 766,-315 883.51,-347.21 917.65,-334 1039.5,-334 1209,-334 1209,-334 1209,-334 1330.16,-334 1465.03,-265.34 1511.34,-239.6"/>
<polygon fill="midnightblue" stroke="midnightblue" points="693.3,-277.86 682.95,-275.58 689.62,-283.81 693.3,-277.86"/>
</g>
<!-- Node10 -->
<g id="node10" class="node">
<title>Node10</title>
<g id="a_node10"><a xlink:href="classslljit_1_1_parser.html#af0cac4623fc05b8b7ae9884b0aeb3d3f" target="_top" xlink:title=" ">
<polygon fill="none" stroke="black" points="438,-44 438,-74 569,-74 569,-44 438,-44"/>
<text text-anchor="start" x="446" y="-62" font-family="Helvetica,sans-Serif" font-size="10.00">slljit::Parser::HandleTyped</text>
<text text-anchor="middle" x="503.5" y="-51" font-family="Helvetica,sans-Serif" font-size="10.00">Expression</text>
</a>
</g>
</g>
<!-- Node9&#45;&gt;Node10 -->
<g id="edge12" class="edge">
<title>Node9&#45;&gt;Node10</title>
<path fill="none" stroke="midnightblue" d="M599.16,-59C589.22,-59 578.99,-59 569.11,-59"/>
<polygon fill="midnightblue" stroke="midnightblue" points="599.38,-62.5 609.38,-59 599.38,-55.5 599.38,-62.5"/>
</g>
<!-- Node11 -->
<g id="node11" class="node">
<title>Node11</title>
<g id="a_node11"><a xlink:href="classslljit_1_1_parser.html#ae2d3d6534b87da7f237c19129a464bda" target="_top" xlink:title="top ::= definition | external | expression | &#39;;&#39;">
<polygon fill="none" stroke="black" points="286,-49.5 286,-68.5 402,-68.5 402,-49.5 286,-49.5"/>
<text text-anchor="middle" x="344" y="-56.5" font-family="Helvetica,sans-Serif" font-size="10.00">slljit::Parser::MainLoop</text>
</a>
</g>
</g>
<!-- Node10&#45;&gt;Node11 -->
<g id="edge13" class="edge">
<title>Node10&#45;&gt;Node11</title>
<path fill="none" stroke="midnightblue" d="M427.87,-59C419.2,-59 410.47,-59 402.09,-59"/>
<polygon fill="midnightblue" stroke="midnightblue" points="427.98,-62.5 437.98,-59 427.98,-55.5 427.98,-62.5"/>
</g>
<!-- Node12 -->
<g id="node12" class="node">
<title>Node12</title>
<g id="a_node12"><a xlink:href="classslljit_1_1_parser.html#a2429935f3c870648f9f895a7b2361cfb" target="_top" xlink:title=" ">
<polygon fill="none" stroke="black" points="152,-49.5 152,-68.5 250,-68.5 250,-49.5 152,-49.5"/>
<text text-anchor="middle" x="201" y="-56.5" font-family="Helvetica,sans-Serif" font-size="10.00">slljit::Parser::parse</text>
</a>
</g>
</g>
<!-- Node11&#45;&gt;Node12 -->
<g id="edge14" class="edge">
<title>Node11&#45;&gt;Node12</title>
<path fill="none" stroke="midnightblue" d="M275.37,-59C266.9,-59 258.37,-59 250.28,-59"/>
<polygon fill="midnightblue" stroke="midnightblue" points="275.65,-62.5 285.65,-59 275.65,-55.5 275.65,-62.5"/>
</g>
<!-- Node13 -->
<g id="node13" class="node">
<title>Node13</title>
<g id="a_node13"><a xlink:href="classslljit_1_1_program.html#ae4d26526a7dd9c69ebe92fb43736696b" target="_top" xlink:title=" ">
<polygon fill="none" stroke="black" points="0,-49.5 0,-68.5 116,-68.5 116,-49.5 0,-49.5"/>
<text text-anchor="middle" x="58" y="-56.5" font-family="Helvetica,sans-Serif" font-size="10.00">slljit::Program::compile</text>
</a>
</g>
</g>
<!-- Node12&#45;&gt;Node13 -->
<g id="edge15" class="edge">
<title>Node12&#45;&gt;Node13</title>
<path fill="none" stroke="midnightblue" d="M141.72,-59C133.27,-59 124.58,-59 116.16,-59"/>
<polygon fill="midnightblue" stroke="midnightblue" points="141.87,-62.5 151.87,-59 141.87,-55.5 141.87,-62.5"/>
</g>
<!-- Node14&#45;&gt;Node3 -->
<g id="edge18" class="edge">
<title>Node14&#45;&gt;Node3</title>
<path fill="none" stroke="midnightblue" d="M936.02,-294.4C1049.42,-291.27 1253.61,-282.05 1426,-255 1449.42,-251.33 1475.35,-244.94 1495.21,-239.54"/>
<polygon fill="midnightblue" stroke="midnightblue" points="935.9,-290.9 926,-294.67 936.09,-297.9 935.9,-290.9"/>
</g>
<!-- Node15&#45;&gt;Node3 -->
<g id="edge21" class="edge">
<title>Node15&#45;&gt;Node3</title>
<path fill="none" stroke="midnightblue" d="M931.23,-248.59C1043.21,-248.96 1249.9,-248.13 1426,-239 1437.63,-238.4 1449.98,-237.51 1461.93,-236.53"/>
<polygon fill="midnightblue" stroke="midnightblue" points="931.03,-245.09 921.02,-248.55 931.01,-252.09 931.03,-245.09"/>
</g>
<!-- Node16&#45;&gt;Node3 -->
<g id="edge23" class="edge">
<title>Node16&#45;&gt;Node3</title>
<path fill="none" stroke="midnightblue" d="M909.62,-146.77C990.93,-133.48 1139.6,-115.34 1265,-134 1361.39,-148.34 1468.12,-199.11 1509.87,-220.44"/>
<polygon fill="midnightblue" stroke="midnightblue" points="908.86,-143.35 899.57,-148.45 910.01,-150.26 908.86,-143.35"/>
</g>
</g>
</svg>
