<?xml version="1.0" encoding="UTF-8" standalone="no"?>
<!DOCTYPE svg PUBLIC "-//W3C//DTD SVG 1.1//EN"
 "http://www.w3.org/Graphics/SVG/1.1/DTD/svg11.dtd">
<!-- Generated by graphviz version 3.0.0 (20220226.1711)
 -->
<!-- Title: slljit::Parser::ParseIfExpr Pages: 1 -->
<svg width="1680pt" height="929pt"
 viewBox="0.00 0.00 1680.00 928.90" xmlns="http://www.w3.org/2000/svg" xmlns:xlink="http://www.w3.org/1999/xlink">
<g id="graph0" class="graph" transform="scale(1 1) rotate(0) translate(4 924.9)">
<title>slljit::Parser::ParseIfExpr</title>
<!-- Node1 -->
<g id="node1" class="node">
<title>Node1</title>
<g id="a_node1"><a xlink:title="ifexpr ::= &#39;if&#39; expression &#39;then&#39; expression &#39;else&#39; expression">
<polygon fill="#bfbfbf" stroke="black" points="0,-168.25 0,-187.25 125,-187.25 125,-168.25 0,-168.25"/>
<text text-anchor="middle" x="62.5" y="-175.25" font-family="Helvetica,sans-Serif" font-size="10.00">slljit::Parser::ParseIfExpr</text>
</a>
</g>
</g>
<!-- Node2 -->
<g id="node2" class="node">
<title>Node2</title>
<g id="a_node2"><a xlink:href="classslljit_1_1_tokenizer.html#a0baa2e9dbe626f0475ee4206f16bbb4e" target="_top" xlink:title=" ">
<polygon fill="none" stroke="black" points="1267,-529.75 1267,-559.75 1371,-559.75 1371,-529.75 1267,-529.75"/>
<text text-anchor="start" x="1275" y="-547.75" font-family="Helvetica,sans-Serif" font-size="10.00">slljit::Tokenizer::</text>
<text text-anchor="middle" x="1319" y="-536.75" font-family="Helvetica,sans-Serif" font-size="10.00">get_source_location</text>
</a>
</g>
</g>
<!-- Node1&#45;&gt;Node2 -->
<g id="edge1" class="edge">
<title>Node1&#45;&gt;Node2</title>
<path fill="none" stroke="midnightblue" d="M63.4,-187.41C63.06,-273.09 71.82,-899.75 402,-899.75 402,-899.75 402,-899.75 939,-899.75 1062.4,-899.75 1119.45,-957.6 1216,-880.75 1266.02,-840.94 1302.54,-640.83 1314.11,-569.81"/>
<polygon fill="midnightblue" stroke="midnightblue" points="1317.57,-570.35 1315.69,-559.93 1310.66,-569.25 1317.57,-570.35"/>
</g>
<!-- Node3 -->
<g id="node3" class="node">
<title>Node3</title>
<g id="a_node3"><a xlink:href="classslljit_1_1_parser.html#a9fcfefd86a6000dcb40fa737361ea55b" target="_top" xlink:title="GetTokPrecedence &#45; Get the precedence of the pending binary operator token.">
<polygon fill="none" stroke="black" points="1252,-299.25 1252,-318.25 1386,-318.25 1386,-299.25 1252,-299.25"/>
<text text-anchor="middle" x="1319" y="-306.25" font-family="Helvetica,sans-Serif" font-size="10.00">slljit::Parser::getNextToken</text>
</a>
</g>
</g>
<!-- Node1&#45;&gt;Node3 -->
<g id="edge2" class="edge">
<title>Node1&#45;&gt;Node3</title>
<path fill="none" stroke="midnightblue" d="M68.54,-167.98C80.86,-145.16 114.94,-88.26 161,-61.75 255.24,-7.52 293.27,-19.75 402,-19.75 402,-19.75 402,-19.75 939,-19.75 1062.4,-19.75 1116.95,34.85 1216,-38.75 1299.01,-100.43 1314.47,-238.15 1317.35,-289.21"/>
<polygon fill="midnightblue" stroke="midnightblue" points="1313.85,-289.41 1317.81,-299.24 1320.84,-289.09 1313.85,-289.41"/>
</g>
<!-- Node11 -->
<g id="node11" class="node">
<title>Node11</title>
<g id="a_node11"><a xlink:href="classslljit_1_1_parser.html#a79461bf414d03dcabb49d3bbd6f89607" target="_top" xlink:title=" ">
<polygon fill="none" stroke="black" points="161,-301.25 161,-320.25 310,-320.25 310,-301.25 161,-301.25"/>
<text text-anchor="middle" x="235.5" y="-308.25" font-family="Helvetica,sans-Serif" font-size="10.00">slljit::Parser::ParseExpression</text>
</a>
</g>
</g>
<!-- Node1&#45;&gt;Node11 -->
<g id="edge11" class="edge">
<title>Node1&#45;&gt;Node11</title>
<path fill="none" stroke="midnightblue" d="M75.8,-187.31C104.74,-209.83 177.44,-266.37 213.52,-294.43"/>
<polygon fill="midnightblue" stroke="midnightblue" points="211.81,-297.54 221.85,-300.91 216.11,-292.01 211.81,-297.54"/>
</g>
<!-- Node17 -->
<g id="node17" class="node">
<title>Node17</title>
<g id="a_node17"><a xlink:href="classslljit_1_1_parser.html#acc431005ac3dd38732083d7a1bb0eab2" target="_top" xlink:title=" ">
<polygon fill="none" stroke="black" points="1052,-261.25 1052,-280.25 1216,-280.25 1216,-261.25 1052,-261.25"/>
<text text-anchor="middle" x="1134" y="-268.25" font-family="Helvetica,sans-Serif" font-size="10.00">slljit::Parser::ParseExpressionList</text>
</a>
</g>
</g>
<!-- Node1&#45;&gt;Node17 -->
<g id="edge57" class="edge">
<title>Node1&#45;&gt;Node17</title>
<path fill="none" stroke="midnightblue" d="M125.27,-177.75C193.13,-177.75 305.33,-177.75 402,-177.75 402,-177.75 402,-177.75 576,-177.75 673.76,-177.75 957.26,-234.19 1077.76,-259.14"/>
<polygon fill="midnightblue" stroke="midnightblue" points="1077.37,-262.63 1087.87,-261.23 1078.79,-255.78 1077.37,-262.63"/>
</g>
<!-- Node18 -->
<g id="node18" class="node">
<title>Node18</title>
<g id="a_node18"><a xlink:href="classslljit_1_1_parser.html#ae7a9c738da8b5802b80001e306ad668b" target="_top" xlink:title=" ">
<polygon fill="none" stroke="black" points="1089,-97.75 1089,-127.75 1179,-127.75 1179,-97.75 1089,-97.75"/>
<text text-anchor="start" x="1097" y="-115.75" font-family="Helvetica,sans-Serif" font-size="10.00">slljit::Parser::pop</text>
<text text-anchor="middle" x="1134" y="-104.75" font-family="Helvetica,sans-Serif" font-size="10.00">_scope</text>
</a>
</g>
</g>
<!-- Node1&#45;&gt;Node18 -->
<g id="edge58" class="edge">
<title>Node1&#45;&gt;Node18</title>
<path fill="none" stroke="midnightblue" d="M88.55,-168.12C144.08,-147.67 282.14,-101.75 402,-101.75 402,-101.75 402,-101.75 758,-101.75 872.07,-101.75 1005.57,-106.9 1078.53,-110.15"/>
<polygon fill="midnightblue" stroke="midnightblue" points="1078.7,-113.66 1088.85,-110.62 1079.02,-106.67 1078.7,-113.66"/>
</g>
<!-- Node19 -->
<g id="node19" class="node">
<title>Node19</title>
<g id="a_node19"><a xlink:href="classslljit_1_1_parser.html#a07488f6e4f1ec72ba5c6f04ad550b7a3" target="_top" xlink:title=" ">
<polygon fill="none" stroke="black" points="1086.5,-48.75 1086.5,-78.75 1181.5,-78.75 1181.5,-48.75 1086.5,-48.75"/>
<text text-anchor="start" x="1094.5" y="-66.75" font-family="Helvetica,sans-Serif" font-size="10.00">slljit::Parser::push</text>
<text text-anchor="middle" x="1134" y="-55.75" font-family="Helvetica,sans-Serif" font-size="10.00">_scope</text>
</a>
</g>
</g>
<!-- Node1&#45;&gt;Node19 -->
<g id="edge59" class="edge">
<title>Node1&#45;&gt;Node19</title>
<path fill="none" stroke="midnightblue" d="M73.31,-168C89.85,-152.18 125.02,-121.15 161,-105.75 260.96,-62.98 293.27,-63.75 402,-63.75 402,-63.75 402,-63.75 758,-63.75 870.63,-63.75 1002.28,-63.75 1075.81,-63.75"/>
<polygon fill="midnightblue" stroke="midnightblue" points="1076.23,-67.25 1086.23,-63.75 1076.23,-60.25 1076.23,-67.25"/>
</g>
<!-- Node4 -->
<g id="node4" class="node">
<title>Node4</title>
<g id="a_node4"><a xlink:href="classslljit_1_1_tokenizer.html#a4f0b343321f5e4561a80e47a5cec05d2" target="_top" xlink:title=" ">
<polygon fill="none" stroke="black" points="1422,-293.75 1422,-323.75 1510,-323.75 1510,-293.75 1422,-293.75"/>
<text text-anchor="start" x="1430" y="-311.75" font-family="Helvetica,sans-Serif" font-size="10.00">slljit::Tokenizer::</text>
<text text-anchor="middle" x="1466" y="-300.75" font-family="Helvetica,sans-Serif" font-size="10.00">gettok</text>
</a>
</g>
</g>
<!-- Node3&#45;&gt;Node4 -->
<g id="edge3" class="edge">
<title>Node3&#45;&gt;Node4</title>
<path fill="none" stroke="midnightblue" d="M1386.14,-308.75C1394.64,-308.75 1403.27,-308.75 1411.54,-308.75"/>
<polygon fill="midnightblue" stroke="midnightblue" points="1411.79,-312.25 1421.79,-308.75 1411.79,-305.25 1411.79,-312.25"/>
</g>
<!-- Node4&#45;&gt;Node4 -->
<g id="edge5" class="edge">
<title>Node4&#45;&gt;Node4</title>
<path fill="none" stroke="midnightblue" d="M1441.25,-323.91C1435.29,-333.31 1443.54,-342.25 1466,-342.25 1479.69,-342.25 1488.1,-338.93 1491.23,-334.21"/>
<polygon fill="midnightblue" stroke="midnightblue" points="1494.71,-333.73 1490.75,-323.91 1487.72,-334.06 1494.71,-333.73"/>
</g>
<!-- Node5 -->
<g id="node5" class="node">
<title>Node5</title>
<g id="a_node5"><a xlink:href="classslljit_1_1_tokenizer.html#aebe79ebb0da26fa5e89963683d474402" target="_top" xlink:title=" ">
<polygon fill="none" stroke="black" points="1565,-416.75 1565,-446.75 1653,-446.75 1653,-416.75 1565,-416.75"/>
<text text-anchor="start" x="1573" y="-434.75" font-family="Helvetica,sans-Serif" font-size="10.00">slljit::Tokenizer::</text>
<text text-anchor="middle" x="1609" y="-423.75" font-family="Helvetica,sans-Serif" font-size="10.00">_getchar</text>
</a>
</g>
</g>
<!-- Node4&#45;&gt;Node5 -->
<g id="edge4" class="edge">
<title>Node4&#45;&gt;Node5</title>
<path fill="none" stroke="midnightblue" d="M1475.83,-324.05C1488.76,-345.26 1514.75,-383.59 1546,-406.75 1549.02,-408.99 1552.27,-411.06 1555.64,-412.98"/>
<polygon fill="midnightblue" stroke="midnightblue" points="1554.29,-416.21 1564.78,-417.67 1557.49,-409.99 1554.29,-416.21"/>
</g>
<!-- Node6 -->
<g id="node6" class="node">
<title>Node6</title>
<g id="a_node6"><a xlink:href="classslljit_1_1_tokenizer.html#ac5b5748065cb054e0f34d995d1f3edce" target="_top" xlink:title=" ">
<polygon fill="none" stroke="black" points="1565,-367.75 1565,-397.75 1653,-397.75 1653,-367.75 1565,-367.75"/>
<text text-anchor="start" x="1573" y="-385.75" font-family="Helvetica,sans-Serif" font-size="10.00">slljit::Tokenizer::</text>
<text text-anchor="middle" x="1609" y="-374.75" font-family="Helvetica,sans-Serif" font-size="10.00">is_id_char</text>
</a>
</g>
</g>
<!-- Node4&#45;&gt;Node6 -->
<g id="edge6" class="edge">
<title>Node4&#45;&gt;Node6</title>
<path fill="none" stroke="midnightblue" d="M1489.22,-323.96C1504.73,-334.23 1526.14,-347.68 1546,-357.75 1550.01,-359.78 1554.23,-361.77 1558.49,-363.69"/>
<polygon fill="midnightblue" stroke="midnightblue" points="1557.29,-366.98 1567.86,-367.74 1560.07,-360.56 1557.29,-366.98"/>
</g>
<!-- Node7 -->
<g id="node7" class="node">
<title>Node7</title>
<g id="a_node7"><a xlink:href="classslljit_1_1_tokenizer.html#afddb21e93063a4c2338c2d42e23d18d2" target="_top" xlink:title=" ">
<polygon fill="none" stroke="black" points="1565,-318.75 1565,-348.75 1653,-348.75 1653,-318.75 1565,-318.75"/>
<text text-anchor="start" x="1573" y="-336.75" font-family="Helvetica,sans-Serif" font-size="10.00">slljit::Tokenizer::</text>
<text text-anchor="middle" x="1609" y="-325.75" font-family="Helvetica,sans-Serif" font-size="10.00">is_id_start_char</text>
</a>
</g>
</g>
<!-- Node4&#45;&gt;Node7 -->
<g id="edge7" class="edge">
<title>Node4&#45;&gt;Node7</title>
<path fill="none" stroke="midnightblue" d="M1510.07,-316.39C1524.15,-318.88 1539.96,-321.69 1554.71,-324.3"/>
<polygon fill="midnightblue" stroke="midnightblue" points="1554.25,-327.77 1564.71,-326.07 1555.47,-320.88 1554.25,-327.77"/>
</g>
<!-- Node8 -->
<g id="node8" class="node">
<title>Node8</title>
<g id="a_node8"><a xlink:href="classslljit_1_1_tokenizer.html#ada986d1651ab242c370288c198cd726d" target="_top" xlink:title=" ">
<polygon fill="none" stroke="black" points="1546,-269.75 1546,-299.75 1672,-299.75 1672,-269.75 1546,-269.75"/>
<text text-anchor="start" x="1554" y="-287.75" font-family="Helvetica,sans-Serif" font-size="10.00">slljit::Tokenizer::</text>
<text text-anchor="middle" x="1609" y="-276.75" font-family="Helvetica,sans-Serif" font-size="10.00">is_reserved_command_id</text>
</a>
</g>
</g>
<!-- Node4&#45;&gt;Node8 -->
<g id="edge8" class="edge">
<title>Node4&#45;&gt;Node8</title>
<path fill="none" stroke="midnightblue" d="M1510.07,-301.42C1518.31,-300.02 1527.14,-298.51 1536,-297"/>
<polygon fill="midnightblue" stroke="midnightblue" points="1536.72,-300.43 1545.99,-295.3 1535.54,-293.53 1536.72,-300.43"/>
</g>
<!-- Node9 -->
<g id="node9" class="node">
<title>Node9</title>
<g id="a_node9"><a xlink:href="classslljit_1_1_tokenizer.html#ab29a7d2f06bb354a3f748106f5ea3e6c" target="_top" xlink:title=" ">
<polygon fill="none" stroke="black" points="1564.5,-220.75 1564.5,-250.75 1653.5,-250.75 1653.5,-220.75 1564.5,-220.75"/>
<text text-anchor="start" x="1572.5" y="-238.75" font-family="Helvetica,sans-Serif" font-size="10.00">slljit::Tokenizer::</text>
<text text-anchor="middle" x="1609" y="-227.75" font-family="Helvetica,sans-Serif" font-size="10.00">is_special_literal</text>
</a>
</g>
</g>
<!-- Node4&#45;&gt;Node9 -->
<g id="edge9" class="edge">
<title>Node4&#45;&gt;Node9</title>
<path fill="none" stroke="midnightblue" d="M1488.84,-293.67C1504.36,-283.34 1525.92,-269.75 1546,-259.75 1549.35,-258.08 1552.84,-256.45 1556.39,-254.88"/>
<polygon fill="midnightblue" stroke="midnightblue" points="1558.02,-257.98 1565.85,-250.85 1555.28,-251.54 1558.02,-257.98"/>
</g>
<!-- Node10 -->
<g id="node10" class="node">
<title>Node10</title>
<g id="a_node10"><a xlink:href="classslljit_1_1_tokenizer.html#ae5cc0911ed858f6bc7bf206928cd66ae" target="_top" xlink:title=" ">
<polygon fill="none" stroke="black" points="1565,-171.75 1565,-201.75 1653,-201.75 1653,-171.75 1565,-171.75"/>
<text text-anchor="start" x="1573" y="-189.75" font-family="Helvetica,sans-Serif" font-size="10.00">slljit::Tokenizer::</text>
<text text-anchor="middle" x="1609" y="-178.75" font-family="Helvetica,sans-Serif" font-size="10.00">set_lok_location</text>
</a>
</g>
</g>
<!-- Node4&#45;&gt;Node10 -->
<g id="edge10" class="edge">
<title>Node4&#45;&gt;Node10</title>
<path fill="none" stroke="midnightblue" d="M1475.57,-293.75C1488.37,-272.54 1514.41,-233.82 1546,-210.75 1549.02,-208.54 1552.27,-206.51 1555.64,-204.64"/>
<polygon fill="midnightblue" stroke="midnightblue" points="1557.4,-207.68 1564.78,-200.08 1554.27,-201.42 1557.4,-207.68"/>
</g>
<!-- Node12 -->
<g id="node12" class="node">
<title>Node12</title>
<g id="a_node12"><a xlink:href="classslljit_1_1_parser.html#ae387c9672ec50720d8cb969558aedbe9" target="_top" xlink:title=" ">
<polygon fill="none" stroke="black" points="346,-214.75 346,-244.75 460,-244.75 460,-214.75 346,-214.75"/>
<text text-anchor="start" x="354" y="-232.75" font-family="Helvetica,sans-Serif" font-size="10.00">slljit::Parser::ParseBin</text>
<text text-anchor="middle" x="403" y="-221.75" font-family="Helvetica,sans-Serif" font-size="10.00">OpRHS</text>
</a>
</g>
</g>
<!-- Node11&#45;&gt;Node12 -->
<g id="edge12" class="edge">
<title>Node11&#45;&gt;Node12</title>
<path fill="none" stroke="midnightblue" d="M256.13,-301.14C282.12,-288.42 328.54,-265.7 362.05,-249.3"/>
<polygon fill="midnightblue" stroke="midnightblue" points="363.69,-252.4 371.13,-244.86 360.61,-246.11 363.69,-252.4"/>
</g>
<!-- Node14 -->
<g id="node14" class="node">
<title>Node14</title>
<g id="a_node14"><a xlink:href="classslljit_1_1_parser.html#af8579896f39ac563d2edd14404d70f41" target="_top" xlink:title=" ">
<polygon fill="none" stroke="black" points="512.5,-320.25 512.5,-339.25 637.5,-339.25 637.5,-320.25 512.5,-320.25"/>
<text text-anchor="middle" x="575" y="-327.25" font-family="Helvetica,sans-Serif" font-size="10.00">slljit::Parser::ParseUnary</text>
</a>
</g>
</g>
<!-- Node11&#45;&gt;Node14 -->
<g id="edge56" class="edge">
<title>Node11&#45;&gt;Node14</title>
<path fill="none" stroke="midnightblue" d="M310.15,-314.9C367.12,-318.1 445.56,-322.52 502.08,-325.7"/>
<polygon fill="midnightblue" stroke="midnightblue" points="502.19,-329.21 512.37,-326.28 502.59,-322.22 502.19,-329.21"/>
</g>
<!-- Node12&#45;&gt;Node3 -->
<g id="edge13" class="edge">
<title>Node12&#45;&gt;Node3</title>
<path fill="none" stroke="midnightblue" d="M460.1,-219.62C621.41,-191.59 1083.37,-119.34 1216,-185.75 1261.29,-208.43 1293.86,-261.32 1308.82,-289.8"/>
<polygon fill="midnightblue" stroke="midnightblue" points="1305.88,-291.74 1313.52,-299.08 1312.13,-288.58 1305.88,-291.74"/>
</g>
<!-- Node12&#45;&gt;Node12 -->
<g id="edge15" class="edge">
<title>Node12&#45;&gt;Node12</title>
<path fill="none" stroke="midnightblue" d="M374.07,-244.91C367.1,-254.31 376.74,-263.25 403,-263.25 419,-263.25 428.84,-259.93 432.5,-255.21"/>
<polygon fill="midnightblue" stroke="midnightblue" points="435.97,-254.7 431.93,-244.91 428.98,-255.09 435.97,-254.7"/>
</g>
<!-- Node13 -->
<g id="node13" class="node">
<title>Node13</title>
<g id="a_node13"><a xlink:href="classslljit_1_1_parser.html#a8485bea3e380a80c8296092996c9ef96" target="_top" xlink:title="Get the precedence of the pending binary operator token.">
<polygon fill="none" stroke="black" points="496,-244.25 496,-263.25 654,-263.25 654,-244.25 496,-244.25"/>
<text text-anchor="middle" x="575" y="-251.25" font-family="Helvetica,sans-Serif" font-size="10.00">slljit::Parser::GetTokPrecedence</text>
</a>
</g>
</g>
<!-- Node12&#45;&gt;Node13 -->
<g id="edge14" class="edge">
<title>Node12&#45;&gt;Node13</title>
<path fill="none" stroke="midnightblue" d="M460.14,-237.67C471.77,-239.32 484.23,-241.08 496.47,-242.8"/>
<polygon fill="midnightblue" stroke="midnightblue" points="496.3,-246.31 506.69,-244.25 497.28,-239.38 496.3,-246.31"/>
</g>
<!-- Node12&#45;&gt;Node14 -->
<g id="edge16" class="edge">
<title>Node12&#45;&gt;Node14</title>
<path fill="none" stroke="midnightblue" d="M429.82,-244.94C462.11,-263.93 517.03,-296.24 548.96,-315.02"/>
<polygon fill="midnightblue" stroke="midnightblue" points="547.3,-318.11 557.7,-320.16 550.85,-312.07 547.3,-318.11"/>
</g>
<!-- Node14&#45;&gt;Node3 -->
<g id="edge17" class="edge">
<title>Node14&#45;&gt;Node3</title>
<path fill="none" stroke="midnightblue" d="M637.67,-328C772.66,-324.18 1094.03,-315.09 1241.57,-310.91"/>
<polygon fill="midnightblue" stroke="midnightblue" points="1241.99,-314.4 1251.88,-310.62 1241.79,-307.41 1241.99,-314.4"/>
</g>
<!-- Node14&#45;&gt;Node14 -->
<g id="edge55" class="edge">
<title>Node14&#45;&gt;Node14</title>
<path fill="none" stroke="midnightblue" d="M548.49,-339.51C535.59,-348.31 544.43,-357.75 575,-357.75 595.54,-357.75 606.27,-353.49 607.19,-348.02"/>
<polygon fill="midnightblue" stroke="midnightblue" points="609.97,-345.89 601.51,-339.51 604.14,-349.77 609.97,-345.89"/>
</g>
<!-- Node15 -->
<g id="node15" class="node">
<title>Node15</title>
<g id="a_node15"><a xlink:href="classslljit_1_1_parser.html#a45cb3e4f600e8e2c253490e7d878e8cd" target="_top" xlink:title=" ">
<polygon fill="none" stroke="black" points="690,-430.25 690,-449.25 824,-449.25 824,-430.25 690,-430.25"/>
<text text-anchor="middle" x="757" y="-437.25" font-family="Helvetica,sans-Serif" font-size="10.00">slljit::Parser::ParsePrimary</text>
</a>
</g>
</g>
<!-- Node14&#45;&gt;Node15 -->
<g id="edge18" class="edge">
<title>Node14&#45;&gt;Node15</title>
<path fill="none" stroke="midnightblue" d="M591.66,-339.32C623.04,-358.5 693.84,-401.76 731.45,-424.75"/>
<polygon fill="midnightblue" stroke="midnightblue" points="729.89,-427.9 740.25,-430.12 733.54,-421.92 729.89,-427.9"/>
</g>
<!-- Node15&#45;&gt;Node1 -->
<g id="edge38" class="edge">
<title>Node15&#45;&gt;Node1</title>
<path fill="none" stroke="midnightblue" d="M689.86,-443.81C572.87,-447.7 326.23,-440.77 161,-329.75 112.14,-296.92 82.5,-230.47 70.17,-197.39"/>
<polygon fill="midnightblue" stroke="midnightblue" points="73.32,-195.78 66.65,-187.54 66.72,-198.14 73.32,-195.78"/>
</g>
<!-- Node15&#45;&gt;Node2 -->
<g id="edge19" class="edge">
<title>Node15&#45;&gt;Node2</title>
<path fill="none" stroke="midnightblue" d="M824.34,-449.13C913.75,-462.21 1077.66,-487.72 1216,-517.75 1229.4,-520.66 1243.68,-524.17 1257.18,-527.69"/>
<polygon fill="midnightblue" stroke="midnightblue" points="1256.29,-531.08 1266.85,-530.25 1258.08,-524.31 1256.29,-531.08"/>
</g>
<!-- Node16 -->
<g id="node16" class="node">
<title>Node16</title>
<g id="a_node16"><a xlink:href="classslljit_1_1_parser.html#a81023e7a6221eb6b92027bd21433c9dd" target="_top" xlink:title="forexpr ::= &#39;for&#39; identifier &#39;=&#39; expr &#39;,&#39; expr (&#39;,&#39; expr)? &#39;in&#39; expression">
<polygon fill="none" stroke="black" points="871,-185.25 871,-204.25 1005,-204.25 1005,-185.25 871,-185.25"/>
<text text-anchor="middle" x="938" y="-192.25" font-family="Helvetica,sans-Serif" font-size="10.00">slljit::Parser::ParseForExpr</text>
</a>
</g>
</g>
<!-- Node15&#45;&gt;Node16 -->
<g id="edge20" class="edge">
<title>Node15&#45;&gt;Node16</title>
<path fill="none" stroke="midnightblue" d="M765.02,-430.15C791.92,-393.33 888.72,-260.83 924.01,-212.53"/>
<polygon fill="midnightblue" stroke="midnightblue" points="926.96,-214.43 930.03,-204.29 921.31,-210.3 926.96,-214.43"/>
</g>
<!-- Node20 -->
<g id="node20" class="node">
<title>Node20</title>
<g id="a_node20"><a xlink:href="classslljit_1_1_parser.html#a25cfefcbeea85744e23370d3a6f8ad5b" target="_top" xlink:title=" ">
<polygon fill="none" stroke="black" points="860,-714.25 860,-733.25 1016,-733.25 1016,-714.25 860,-714.25"/>
<text text-anchor="middle" x="938" y="-721.25" font-family="Helvetica,sans-Serif" font-size="10.00">slljit::Parser::ParseIdentifierExpr</text>
</a>
</g>
</g>
<!-- Node15&#45;&gt;Node20 -->
<g id="edge30" class="edge">
<title>Node15&#45;&gt;Node20</title>
<path fill="none" stroke="midnightblue" d="M764.16,-449.53C790.14,-490.75 891,-650.76 925.41,-705.37"/>
<polygon fill="midnightblue" stroke="midnightblue" points="922.57,-707.42 930.86,-714.01 928.49,-703.69 922.57,-707.42"/>
</g>
<!-- Node24 -->
<g id="node24" class="node">
<title>Node24</title>
<g id="a_node24"><a xlink:href="classslljit_1_1_parser.html#af9ccc5948e2cf9051c2569cc42dc3bb7" target="_top" xlink:title="numberexpr ::= number">
<polygon fill="none" stroke="black" points="1061,-413.25 1061,-432.25 1207,-432.25 1207,-413.25 1061,-413.25"/>
<text text-anchor="middle" x="1134" y="-420.25" font-family="Helvetica,sans-Serif" font-size="10.00">slljit::Parser::ParseLiteralExpr</text>
</a>
</g>
</g>
<!-- Node15&#45;&gt;Node24 -->
<g id="edge39" class="edge">
<title>Node15&#45;&gt;Node24</title>
<path fill="none" stroke="midnightblue" d="M824.18,-436.75C887.28,-433.89 982.5,-429.57 1050.52,-426.49"/>
<polygon fill="midnightblue" stroke="midnightblue" points="1050.94,-429.97 1060.77,-426.02 1050.62,-422.98 1050.94,-429.97"/>
</g>
<!-- Node26 -->
<g id="node26" class="node">
<title>Node26</title>
<g id="a_node26"><a xlink:href="classslljit_1_1_parser.html#a6e2e0f6a2cc445f3a956db59c8d2da66" target="_top" xlink:title="parenexpr ::= &#39;(&#39; expression &#39;)&#39;">
<polygon fill="none" stroke="black" points="865,-379.25 865,-398.25 1011,-398.25 1011,-379.25 865,-379.25"/>
<text text-anchor="middle" x="938" y="-386.25" font-family="Helvetica,sans-Serif" font-size="10.00">slljit::Parser::ParseParenExpr</text>
</a>
</g>
</g>
<!-- Node15&#45;&gt;Node26 -->
<g id="edge43" class="edge">
<title>Node15&#45;&gt;Node26</title>
<path fill="none" stroke="midnightblue" d="M791.67,-430.16C820.55,-421.93 862.33,-410.02 893.7,-401.09"/>
<polygon fill="midnightblue" stroke="midnightblue" points="894.82,-404.41 903.48,-398.3 892.91,-397.67 894.82,-404.41"/>
</g>
<!-- Node27 -->
<g id="node27" class="node">
<title>Node27</title>
<g id="a_node27"><a xlink:href="classslljit_1_1_parser.html#a435877d3f2869d140a7cca646546a114" target="_top" xlink:title="varexpr ::= &#39;g_var&#39; identifier (&#39;=&#39; expression)?">
<polygon fill="none" stroke="black" points="870.5,-533.25 870.5,-552.25 1005.5,-552.25 1005.5,-533.25 870.5,-533.25"/>
<text text-anchor="middle" x="938" y="-540.25" font-family="Helvetica,sans-Serif" font-size="10.00">slljit::Parser::ParseVarExpr</text>
</a>
</g>
</g>
<!-- Node15&#45;&gt;Node27 -->
<g id="edge47" class="edge">
<title>Node15&#45;&gt;Node27</title>
<path fill="none" stroke="midnightblue" d="M792.4,-449.31C803.16,-453.31 814.66,-458.7 824,-465.75 845.01,-481.59 838.96,-496.94 860,-512.75 869.32,-519.75 880.47,-525.33 891.36,-529.68"/>
<polygon fill="midnightblue" stroke="midnightblue" points="890.21,-532.99 900.81,-533.19 892.65,-526.43 890.21,-532.99"/>
</g>
<!-- Node16&#45;&gt;Node2 -->
<g id="edge21" class="edge">
<title>Node16&#45;&gt;Node2</title>
<path fill="none" stroke="midnightblue" d="M983.25,-204.26C1004.1,-208.72 1029.32,-214.06 1052,-218.75 1124.81,-233.81 1163.85,-198.76 1216,-251.75 1277.82,-314.56 1218.69,-365.16 1252,-446.75 1263.36,-474.58 1283.35,-502.66 1298.36,-521.59"/>
<polygon fill="midnightblue" stroke="midnightblue" points="1295.84,-524.04 1304.85,-529.61 1301.28,-519.63 1295.84,-524.04"/>
</g>
<!-- Node16&#45;&gt;Node3 -->
<g id="edge22" class="edge">
<title>Node16&#45;&gt;Node3</title>
<path fill="none" stroke="midnightblue" d="M1005.04,-189.13C1062.99,-186.8 1148.33,-189.76 1216,-218.75 1253.4,-234.77 1286.65,-269.98 1304.4,-291.3"/>
<polygon fill="midnightblue" stroke="midnightblue" points="1301.82,-293.67 1310.83,-299.24 1307.26,-289.26 1301.82,-293.67"/>
</g>
<!-- Node16&#45;&gt;Node11 -->
<g id="edge23" class="edge">
<title>Node16&#45;&gt;Node11</title>
<path fill="none" stroke="midnightblue" d="M910.02,-185.15C887.39,-177.63 854.04,-167.8 824,-163.75 612.68,-135.29 538.56,-113.18 346,-204.75 303.62,-224.9 267.41,-268 249.16,-292.59"/>
<polygon fill="midnightblue" stroke="midnightblue" points="246.09,-290.86 243.07,-301.01 251.76,-294.96 246.09,-290.86"/>
</g>
<!-- Node16&#45;&gt;Node17 -->
<g id="edge24" class="edge">
<title>Node16&#45;&gt;Node17</title>
<path fill="none" stroke="midnightblue" d="M979.26,-204.33C991.43,-208 1004.58,-212.78 1016,-218.75 1033.96,-228.14 1033.97,-237.49 1052,-246.75 1060.71,-251.23 1070.4,-255 1079.95,-258.13"/>
<polygon fill="midnightblue" stroke="midnightblue" points="1079.22,-261.57 1089.81,-261.17 1081.28,-254.88 1079.22,-261.57"/>
</g>
<!-- Node16&#45;&gt;Node18 -->
<g id="edge28" class="edge">
<title>Node16&#45;&gt;Node18</title>
<path fill="none" stroke="midnightblue" d="M961.63,-185.18C992.47,-172.15 1048.38,-148.52 1087.94,-131.8"/>
<polygon fill="midnightblue" stroke="midnightblue" points="1089.52,-134.93 1097.37,-127.81 1086.8,-128.48 1089.52,-134.93"/>
</g>
<!-- Node16&#45;&gt;Node19 -->
<g id="edge29" class="edge">
<title>Node16&#45;&gt;Node19</title>
<path fill="none" stroke="midnightblue" d="M946.38,-185.19C962.98,-164.37 1005.42,-114.61 1052,-87.75 1059.66,-83.33 1068.21,-79.66 1076.8,-76.64"/>
<polygon fill="midnightblue" stroke="midnightblue" points="1078.05,-79.91 1086.47,-73.49 1075.88,-73.25 1078.05,-79.91"/>
</g>
<!-- Node17&#45;&gt;Node2 -->
<g id="edge25" class="edge">
<title>Node17&#45;&gt;Node2</title>
<path fill="none" stroke="midnightblue" d="M1141.32,-280.3C1158.85,-306.78 1209.56,-383.32 1252,-446.75 1269.01,-472.18 1288.61,-501.24 1302,-521.08"/>
<polygon fill="midnightblue" stroke="midnightblue" points="1299.19,-523.16 1307.68,-529.49 1304.99,-519.25 1299.19,-523.16"/>
</g>
<!-- Node17&#45;&gt;Node3 -->
<g id="edge26" class="edge">
<title>Node17&#45;&gt;Node3</title>
<path fill="none" stroke="midnightblue" d="M1181.18,-280.34C1205.76,-285.44 1236.19,-291.76 1262.1,-297.14"/>
<polygon fill="midnightblue" stroke="midnightblue" points="1261.65,-300.62 1272.15,-299.23 1263.07,-293.77 1261.65,-300.62"/>
</g>
<!-- Node17&#45;&gt;Node11 -->
<g id="edge27" class="edge">
<title>Node17&#45;&gt;Node11</title>
<path fill="none" stroke="midnightblue" d="M1051.88,-277.92C975.97,-284 859.4,-291.75 758,-291.75 574,-291.75 574,-291.75 574,-291.75 487.48,-291.75 388.68,-298.05 320.43,-303.4"/>
<polygon fill="midnightblue" stroke="midnightblue" points="319.86,-299.93 310.17,-304.21 320.42,-306.91 319.86,-299.93"/>
</g>
<!-- Node20&#45;&gt;Node2 -->
<g id="edge35" class="edge">
<title>Node20&#45;&gt;Node2</title>
<path fill="none" stroke="midnightblue" d="M949.88,-733.29C968.96,-749.32 1010.4,-781.05 1052,-792.75 1122.17,-812.48 1155.45,-833.32 1216,-792.75 1292.19,-741.7 1311.52,-622.37 1316.38,-570.07"/>
<polygon fill="midnightblue" stroke="midnightblue" points="1319.88,-570.23 1317.22,-559.98 1312.91,-569.65 1319.88,-570.23"/>
</g>
<!-- Node20&#45;&gt;Node3 -->
<g id="edge36" class="edge">
<title>Node20&#45;&gt;Node3</title>
<path fill="none" stroke="midnightblue" d="M1016.22,-729.02C1088.12,-732.11 1188.26,-731.19 1216,-704.75 1265.73,-657.36 1226.69,-461.61 1252,-397.75 1263.15,-369.63 1285.51,-342.47 1301.1,-325.7"/>
<polygon fill="midnightblue" stroke="midnightblue" points="1303.75,-328 1308.13,-318.35 1298.69,-323.16 1303.75,-328"/>
</g>
<!-- Node20&#45;&gt;Node11 -->
<g id="edge37" class="edge">
<title>Node20&#45;&gt;Node11</title>
<path fill="none" stroke="midnightblue" d="M916.94,-714.13C840.38,-677.08 560.02,-538.68 346,-396.75 312.56,-374.58 276.46,-345.01 255.2,-326.95"/>
<polygon fill="midnightblue" stroke="midnightblue" points="257.43,-324.26 247.56,-320.41 252.88,-329.57 257.43,-324.26"/>
</g>
<!-- Node21 -->
<g id="node21" class="node">
<title>Node21</title>
<g id="a_node21"><a xlink:href="classslljit_1_1_parser.html#a4c93eea2333b7705c6aea18df2105196" target="_top" xlink:title=" ">
<polygon fill="none" stroke="black" points="1089.5,-752.75 1089.5,-782.75 1178.5,-782.75 1178.5,-752.75 1089.5,-752.75"/>
<text text-anchor="start" x="1097.5" y="-770.75" font-family="Helvetica,sans-Serif" font-size="10.00">slljit::Parser::find</text>
<text text-anchor="middle" x="1134" y="-759.75" font-family="Helvetica,sans-Serif" font-size="10.00">_var_in_scope</text>
</a>
</g>
</g>
<!-- Node20&#45;&gt;Node21 -->
<g id="edge31" class="edge">
<title>Node20&#45;&gt;Node21</title>
<path fill="none" stroke="midnightblue" d="M981.1,-733.3C1009.95,-739.84 1048.48,-748.58 1079.52,-755.62"/>
<polygon fill="midnightblue" stroke="midnightblue" points="1078.78,-759.04 1089.31,-757.84 1080.33,-752.21 1078.78,-759.04"/>
</g>
<!-- Node22 -->
<g id="node22" class="node">
<title>Node22</title>
<g id="a_node22"><a xlink:href="classslljit_1_1_parser.html#aee4666b5cca40f389e2458033d9006e3" target="_top" xlink:title=" ">
<polygon fill="none" stroke="black" points="1073,-840.75 1073,-870.75 1195,-870.75 1195,-840.75 1073,-840.75"/>
<text text-anchor="start" x="1081" y="-858.75" font-family="Helvetica,sans-Serif" font-size="10.00">slljit::Parser::get</text>
<text text-anchor="middle" x="1134" y="-847.75" font-family="Helvetica,sans-Serif" font-size="10.00">_current_function_scope</text>
</a>
</g>
</g>
<!-- Node20&#45;&gt;Node22 -->
<g id="edge33" class="edge">
<title>Node20&#45;&gt;Node22</title>
<path fill="none" stroke="midnightblue" d="M947.41,-733.51C964.99,-753.38 1007.69,-798.92 1052,-825.75 1058.84,-829.89 1066.34,-833.61 1073.94,-836.9"/>
<polygon fill="midnightblue" stroke="midnightblue" points="1072.63,-840.15 1083.21,-840.7 1075.29,-833.67 1072.63,-840.15"/>
</g>
<!-- Node23 -->
<g id="node23" class="node">
<title>Node23</title>
<g id="a_node23"><a xlink:href="classslljit_1_1_tokenizer.html#a6270acd003b9e0a1323c1fdd54cd2fe2" target="_top" xlink:title=" ">
<polygon fill="none" stroke="black" points="1090,-664.75 1090,-694.75 1178,-694.75 1178,-664.75 1090,-664.75"/>
<text text-anchor="start" x="1098" y="-682.75" font-family="Helvetica,sans-Serif" font-size="10.00">slljit::Tokenizer::</text>
<text text-anchor="middle" x="1134" y="-671.75" font-family="Helvetica,sans-Serif" font-size="10.00">get_identifier</text>
</a>
</g>
</g>
<!-- Node20&#45;&gt;Node23 -->
<g id="edge34" class="edge">
<title>Node20&#45;&gt;Node23</title>
<path fill="none" stroke="midnightblue" d="M981.1,-714.2C1010.16,-707.61 1049.02,-698.8 1080.16,-691.73"/>
<polygon fill="midnightblue" stroke="midnightblue" points="1081,-695.13 1089.98,-689.51 1079.45,-688.31 1081,-695.13"/>
</g>
<!-- Node21&#45;&gt;Node2 -->
<g id="edge32" class="edge">
<title>Node21&#45;&gt;Node2</title>
<path fill="none" stroke="midnightblue" d="M1178.52,-758.08C1191.66,-753.55 1205.4,-747.04 1216,-737.75 1269.09,-691.22 1298.93,-610.21 1311.24,-569.54"/>
<polygon fill="midnightblue" stroke="midnightblue" points="1314.61,-570.47 1314.06,-559.89 1307.9,-568.5 1314.61,-570.47"/>
</g>
<!-- Node24&#45;&gt;Node2 -->
<g id="edge41" class="edge">
<title>Node24&#45;&gt;Node2</title>
<path fill="none" stroke="midnightblue" d="M1181.14,-432.31C1192.97,-435.84 1205.35,-440.56 1216,-446.75 1249.69,-466.34 1280.82,-499.31 1299.6,-521.54"/>
<polygon fill="midnightblue" stroke="midnightblue" points="1297.11,-524.01 1306.18,-529.48 1302.5,-519.55 1297.11,-524.01"/>
</g>
<!-- Node24&#45;&gt;Node3 -->
<g id="edge42" class="edge">
<title>Node24&#45;&gt;Node3</title>
<path fill="none" stroke="midnightblue" d="M1180.12,-413.14C1192.2,-409.57 1204.96,-404.86 1216,-398.75 1251.05,-379.35 1284.43,-346.14 1302.97,-325.95"/>
<polygon fill="midnightblue" stroke="midnightblue" points="1305.67,-328.18 1309.75,-318.41 1300.46,-323.5 1305.67,-328.18"/>
</g>
<!-- Node25 -->
<g id="node25" class="node">
<title>Node25</title>
<g id="a_node25"><a xlink:href="classslljit_1_1_tokenizer.html#a69d29df7401c1f268a754725c4561470" target="_top" xlink:title=" ">
<polygon fill="none" stroke="black" points="1275,-407.75 1275,-437.75 1363,-437.75 1363,-407.75 1275,-407.75"/>
<text text-anchor="start" x="1283" y="-425.75" font-family="Helvetica,sans-Serif" font-size="10.00">slljit::Tokenizer::</text>
<text text-anchor="middle" x="1319" y="-414.75" font-family="Helvetica,sans-Serif" font-size="10.00">get_literal_string</text>
</a>
</g>
</g>
<!-- Node24&#45;&gt;Node25 -->
<g id="edge40" class="edge">
<title>Node24&#45;&gt;Node25</title>
<path fill="none" stroke="midnightblue" d="M1207.06,-422.75C1226.3,-422.75 1246.74,-422.75 1264.76,-422.75"/>
<polygon fill="midnightblue" stroke="midnightblue" points="1264.78,-426.25 1274.78,-422.75 1264.78,-419.25 1264.78,-426.25"/>
</g>
<!-- Node26&#45;&gt;Node2 -->
<g id="edge44" class="edge">
<title>Node26&#45;&gt;Node2</title>
<path fill="none" stroke="midnightblue" d="M956.96,-398.43C978.9,-409.95 1017.36,-429.21 1052,-441.75 1122.85,-467.41 1146.42,-455.82 1216,-484.75 1241.33,-495.28 1267.99,-511.16 1287.7,-523.93"/>
<polygon fill="midnightblue" stroke="midnightblue" points="1285.96,-526.97 1296.24,-529.55 1289.81,-521.13 1285.96,-526.97"/>
</g>
<!-- Node26&#45;&gt;Node3 -->
<g id="edge45" class="edge">
<title>Node26&#45;&gt;Node3</title>
<path fill="none" stroke="midnightblue" d="M984.34,-379.18C1054.05,-364.46 1187.38,-336.32 1262.68,-320.43"/>
<polygon fill="midnightblue" stroke="midnightblue" points="1263.84,-323.76 1272.9,-318.27 1262.4,-316.91 1263.84,-323.76"/>
</g>
<!-- Node26&#45;&gt;Node11 -->
<g id="edge46" class="edge">
<title>Node26&#45;&gt;Node11</title>
<path fill="none" stroke="midnightblue" d="M864.88,-388.69C777.29,-387.8 625.22,-383.65 496,-366.75 428.41,-357.91 412.63,-349.16 346,-334.75 327.63,-330.78 307.53,-326.39 289.63,-322.46"/>
<polygon fill="midnightblue" stroke="midnightblue" points="290.17,-318.99 279.65,-320.27 288.67,-325.83 290.17,-318.99"/>
</g>
<!-- Node27&#45;&gt;Node2 -->
<g id="edge49" class="edge">
<title>Node27&#45;&gt;Node2</title>
<path fill="none" stroke="midnightblue" d="M949.17,-552.3C967.81,-569.07 1009.44,-603.2 1052,-615.75 1121.91,-636.37 1146.45,-637.57 1216,-615.75 1246.44,-606.2 1275.75,-583.99 1295.07,-566.94"/>
<polygon fill="midnightblue" stroke="midnightblue" points="1297.67,-569.31 1302.72,-559.99 1292.96,-564.12 1297.67,-569.31"/>
</g>
<!-- Node27&#45;&gt;Node3 -->
<g id="edge51" class="edge">
<title>Node27&#45;&gt;Node3</title>
<path fill="none" stroke="midnightblue" d="M943.88,-533.24C957.36,-507.92 997.78,-438.46 1052,-403.75 1115.37,-363.18 1145.71,-388.6 1216,-361.75 1243.52,-351.24 1273.22,-335.22 1293.43,-323.55"/>
<polygon fill="midnightblue" stroke="midnightblue" points="1295.42,-326.44 1302.28,-318.37 1291.88,-320.4 1295.42,-326.44"/>
</g>
<!-- Node27&#45;&gt;Node11 -->
<g id="edge52" class="edge">
<title>Node27&#45;&gt;Node11</title>
<path fill="none" stroke="midnightblue" d="M898.66,-533.18C803.56,-508.99 549.79,-441.67 346,-362.75 317.28,-351.63 285.61,-336.23 263.75,-325.08"/>
<polygon fill="midnightblue" stroke="midnightblue" points="265.23,-321.9 254.73,-320.43 262.02,-328.12 265.23,-321.9"/>
</g>
<!-- Node27&#45;&gt;Node23 -->
<g id="edge48" class="edge">
<title>Node27&#45;&gt;Node23</title>
<path fill="none" stroke="midnightblue" d="M946.78,-552.39C963.82,-572.94 1006.57,-621.5 1052,-649.75 1060.69,-655.16 1070.5,-659.81 1080.23,-663.73"/>
<polygon fill="midnightblue" stroke="midnightblue" points="1079.28,-667.12 1089.87,-667.41 1081.77,-660.58 1079.28,-667.12"/>
</g>
<!-- Node28 -->
<g id="node28" class="node">
<title>Node28</title>
<g id="a_node28"><a xlink:href="classslljit_1_1_tokenizer.html#a9dcee05dc292fa291e6b9644d12c1907" target="_top" xlink:title=" ">
<polygon fill="none" stroke="black" points="1086.5,-527.75 1086.5,-557.75 1181.5,-557.75 1181.5,-527.75 1086.5,-527.75"/>
<text text-anchor="start" x="1094.5" y="-545.75" font-family="Helvetica,sans-Serif" font-size="10.00">slljit::Tokenizer::</text>
<text text-anchor="middle" x="1134" y="-534.75" font-family="Helvetica,sans-Serif" font-size="10.00">get_type_identifier</text>
</a>
</g>
</g>
<!-- Node27&#45;&gt;Node28 -->
<g id="edge50" class="edge">
<title>Node27&#45;&gt;Node28</title>
<path fill="none" stroke="midnightblue" d="M1005.76,-542.75C1028.66,-542.75 1054.06,-542.75 1076.1,-542.75"/>
<polygon fill="midnightblue" stroke="midnightblue" points="1076.3,-546.25 1086.3,-542.75 1076.3,-539.25 1076.3,-546.25"/>
</g>
<!-- Node29 -->
<g id="node29" class="node">
<title>Node29</title>
<g id="a_node29"><a xlink:href="classslljit_1_1_parser.html#acad3f159608acb847e0f693fc07fdd28" target="_top" xlink:title=" ">
<polygon fill="none" stroke="black" points="1086.5,-576.75 1086.5,-606.75 1181.5,-606.75 1181.5,-576.75 1086.5,-576.75"/>
<text text-anchor="start" x="1094.5" y="-594.75" font-family="Helvetica,sans-Serif" font-size="10.00">slljit::Parser::push</text>
<text text-anchor="middle" x="1134" y="-583.75" font-family="Helvetica,sans-Serif" font-size="10.00">_var_into_scope</text>
</a>
</g>
</g>
<!-- Node27&#45;&gt;Node29 -->
<g id="edge53" class="edge">
<title>Node27&#45;&gt;Node29</title>
<path fill="none" stroke="midnightblue" d="M976.87,-552.31C1005.25,-559.48 1044.55,-569.41 1076.62,-577.51"/>
<polygon fill="midnightblue" stroke="midnightblue" points="1075.77,-580.9 1086.32,-579.96 1077.48,-574.12 1075.77,-580.9"/>
</g>
<!-- Node29&#45;&gt;Node2 -->
<g id="edge54" class="edge">
<title>Node29&#45;&gt;Node2</title>
<path fill="none" stroke="midnightblue" d="M1181.65,-579.77C1204.55,-573.89 1232.42,-566.73 1256.98,-560.42"/>
<polygon fill="midnightblue" stroke="midnightblue" points="1258.11,-563.74 1266.93,-557.87 1256.37,-556.96 1258.11,-563.74"/>
</g>
</g>
</svg>
