<?xml version="1.0" encoding="UTF-8" standalone="no"?>
<!DOCTYPE svg PUBLIC "-//W3C//DTD SVG 1.1//EN"
 "http://www.w3.org/Graphics/SVG/1.1/DTD/svg11.dtd">
<!-- Generated by graphviz version 3.0.0 (20220226.1711)
 -->
<!-- Title: slljit::Parser::push_scope Pages: 1 -->
<svg width="1905pt" height="446pt"
 viewBox="0.00 0.00 1905.00 445.66" xmlns="http://www.w3.org/2000/svg" xmlns:xlink="http://www.w3.org/1999/xlink">
<g id="graph0" class="graph" transform="scale(1 1) rotate(0) translate(4 441.66)">
<title>slljit::Parser::push_scope</title>
<!-- Node1 -->
<g id="node1" class="node">
<title>Node1</title>
<g id="a_node1"><a xlink:title=" ">
<polygon fill="#bfbfbf" stroke="black" points="1802,-63.5 1802,-93.5 1897,-93.5 1897,-63.5 1802,-63.5"/>
<text text-anchor="start" x="1810" y="-81.5" font-family="Helvetica,sans-Serif" font-size="10.00">slljit::Parser::push</text>
<text text-anchor="middle" x="1849.5" y="-70.5" font-family="Helvetica,sans-Serif" font-size="10.00">_scope</text>
</a>
</g>
</g>
<!-- Node2 -->
<g id="node2" class="node">
<title>Node2</title>
<g id="a_node2"><a xlink:href="classslljit_1_1_parser.html#a81023e7a6221eb6b92027bd21433c9dd" target="_top" xlink:title="forexpr ::= &#39;for&#39; identifier &#39;=&#39; expr &#39;,&#39; expr (&#39;,&#39; expr)? &#39;in&#39; expression">
<polygon fill="none" stroke="black" points="1632,-164 1632,-183 1766,-183 1766,-164 1632,-164"/>
<text text-anchor="middle" x="1699" y="-171" font-family="Helvetica,sans-Serif" font-size="10.00">slljit::Parser::ParseForExpr</text>
</a>
</g>
</g>
<!-- Node1&#45;&gt;Node2 -->
<g id="edge1" class="edge">
<title>Node1&#45;&gt;Node2</title>
<path fill="none" stroke="midnightblue" d="M1816.18,-99.18C1784.92,-119.18 1738.9,-148.61 1715.26,-163.74"/>
<polygon fill="midnightblue" stroke="midnightblue" points="1818.43,-101.89 1824.97,-93.55 1814.66,-95.99 1818.43,-101.89"/>
</g>
<!-- Node8 -->
<g id="node8" class="node">
<title>Node8</title>
<g id="a_node8"><a xlink:href="classslljit_1_1_parser.html#a149f5e88cb03aa08c388e6320c6c1bac" target="_top" xlink:title="ifexpr ::= &#39;if&#39; expression &#39;then&#39; expression &#39;else&#39; expression">
<polygon fill="none" stroke="black" points="605,-164 605,-183 730,-183 730,-164 605,-164"/>
<text text-anchor="middle" x="667.5" y="-171" font-family="Helvetica,sans-Serif" font-size="10.00">slljit::Parser::ParseIfExpr</text>
</a>
</g>
</g>
<!-- Node1&#45;&gt;Node8 -->
<g id="edge26" class="edge">
<title>Node1&#45;&gt;Node8</title>
<path fill="none" stroke="midnightblue" d="M1791.64,-83.94C1727.98,-89.56 1621.7,-97.5 1530,-97.5 1530,-97.5 1530,-97.5 1039.5,-97.5 917.65,-97.5 882.44,-80.59 766,-116.5 732.46,-126.84 698.16,-150.59 680.55,-163.94"/>
<polygon fill="midnightblue" stroke="midnightblue" points="1792.22,-87.4 1801.87,-83.03 1791.6,-80.43 1792.22,-87.4"/>
</g>
<!-- Node9 -->
<g id="node9" class="node">
<title>Node9</title>
<g id="a_node9"><a xlink:href="classslljit_1_1_parser.html#aa9a9ce164e114ad7f347f32329f5a5a2" target="_top" xlink:title="definition ::= &#39;def&#39; prototype expression">
<polygon fill="none" stroke="black" points="609.5,-44.5 609.5,-74.5 725.5,-74.5 725.5,-44.5 609.5,-44.5"/>
<text text-anchor="start" x="617.5" y="-62.5" font-family="Helvetica,sans-Serif" font-size="10.00">slljit::Parser::ParseTop</text>
<text text-anchor="middle" x="667.5" y="-51.5" font-family="Helvetica,sans-Serif" font-size="10.00">LevelTypedExpression</text>
</a>
</g>
</g>
<!-- Node1&#45;&gt;Node9 -->
<g id="edge27" class="edge">
<title>Node1&#45;&gt;Node9</title>
<path fill="none" stroke="midnightblue" d="M1791.64,-73.06C1727.98,-67.44 1621.7,-59.5 1530,-59.5 1530,-59.5 1530,-59.5 1039.5,-59.5 928.39,-59.5 798.57,-59.5 725.7,-59.5"/>
<polygon fill="midnightblue" stroke="midnightblue" points="1791.6,-76.57 1801.87,-73.97 1792.22,-69.6 1791.6,-76.57"/>
</g>
<!-- Node17 -->
<g id="node17" class="node">
<title>Node17</title>
<g id="a_node17"><a xlink:href="classslljit_1_1_parser.html#a3da23d78669853ac1f1d38a709475c5c" target="_top" xlink:title=" ">
<polygon fill="none" stroke="black" points="1485,-0.5 1485,-30.5 1573,-30.5 1573,-0.5 1485,-0.5"/>
<text text-anchor="start" x="1493" y="-18.5" font-family="Helvetica,sans-Serif" font-size="10.00">slljit::Parser::set</text>
<text text-anchor="middle" x="1529" y="-7.5" font-family="Helvetica,sans-Serif" font-size="10.00">_variables</text>
</a>
</g>
</g>
<!-- Node1&#45;&gt;Node17 -->
<g id="edge28" class="edge">
<title>Node1&#45;&gt;Node17</title>
<path fill="none" stroke="midnightblue" d="M1806.73,-59.41C1793.89,-54.19 1779.57,-49.01 1766,-45.5 1700.03,-28.41 1621.06,-20.89 1573.25,-17.7"/>
<polygon fill="midnightblue" stroke="midnightblue" points="1805.65,-62.75 1816.22,-63.37 1808.35,-56.29 1805.65,-62.75"/>
</g>
<!-- Node3 -->
<g id="node3" class="node">
<title>Node3</title>
<g id="a_node3"><a xlink:href="classslljit_1_1_parser.html#a45cb3e4f600e8e2c253490e7d878e8cd" target="_top" xlink:title=" ">
<polygon fill="none" stroke="black" points="1462,-315 1462,-334 1596,-334 1596,-315 1462,-315"/>
<text text-anchor="middle" x="1529" y="-322" font-family="Helvetica,sans-Serif" font-size="10.00">slljit::Parser::ParsePrimary</text>
</a>
</g>
</g>
<!-- Node2&#45;&gt;Node3 -->
<g id="edge2" class="edge">
<title>Node2&#45;&gt;Node3</title>
<path fill="none" stroke="midnightblue" d="M1679.63,-190.02C1644.55,-221.54 1569.06,-289.39 1540.89,-314.71"/>
<polygon fill="midnightblue" stroke="midnightblue" points="1682.14,-192.46 1687.24,-183.18 1677.46,-187.26 1682.14,-192.46"/>
</g>
<!-- Node4 -->
<g id="node4" class="node">
<title>Node4</title>
<g id="a_node4"><a xlink:href="classslljit_1_1_parser.html#af8579896f39ac563d2edd14404d70f41" target="_top" xlink:title=" ">
<polygon fill="none" stroke="black" points="1301,-284 1301,-303 1426,-303 1426,-284 1301,-284"/>
<text text-anchor="middle" x="1363.5" y="-291" font-family="Helvetica,sans-Serif" font-size="10.00">slljit::Parser::ParseUnary</text>
</a>
</g>
</g>
<!-- Node3&#45;&gt;Node4 -->
<g id="edge3" class="edge">
<title>Node3&#45;&gt;Node4</title>
<path fill="none" stroke="midnightblue" d="M1467.56,-313.04C1450.18,-309.75 1431.42,-306.19 1414.72,-303.02"/>
<polygon fill="midnightblue" stroke="midnightblue" points="1467.13,-316.52 1477.61,-314.95 1468.44,-309.64 1467.13,-316.52"/>
</g>
<!-- Node4&#45;&gt;Node4 -->
<g id="edge25" class="edge">
<title>Node4&#45;&gt;Node4</title>
<path fill="none" stroke="midnightblue" d="M1392.25,-312.15C1391.04,-317.44 1381.46,-321.5 1363.5,-321.5 1336.13,-321.5 1328.22,-312.07 1339.76,-303.26"/>
<polygon fill="midnightblue" stroke="midnightblue" points="1395.19,-310.25 1387.24,-303.26 1389.09,-313.69 1395.19,-310.25"/>
</g>
<!-- Node5 -->
<g id="node5" class="node">
<title>Node5</title>
<g id="a_node5"><a xlink:href="classslljit_1_1_parser.html#ae387c9672ec50720d8cb969558aedbe9" target="_top" xlink:title=" ">
<polygon fill="none" stroke="black" points="1151,-278.5 1151,-308.5 1265,-308.5 1265,-278.5 1151,-278.5"/>
<text text-anchor="start" x="1159" y="-296.5" font-family="Helvetica,sans-Serif" font-size="10.00">slljit::Parser::ParseBin</text>
<text text-anchor="middle" x="1208" y="-285.5" font-family="Helvetica,sans-Serif" font-size="10.00">OpRHS</text>
</a>
</g>
</g>
<!-- Node4&#45;&gt;Node5 -->
<g id="edge4" class="edge">
<title>Node4&#45;&gt;Node5</title>
<path fill="none" stroke="midnightblue" d="M1290.86,-293.5C1282.22,-293.5 1273.48,-293.5 1265.1,-293.5"/>
<polygon fill="midnightblue" stroke="midnightblue" points="1290.95,-297 1300.95,-293.5 1290.95,-290 1290.95,-297"/>
</g>
<!-- Node6 -->
<g id="node6" class="node">
<title>Node6</title>
<g id="a_node6"><a xlink:href="classslljit_1_1_parser.html#a79461bf414d03dcabb49d3bbd6f89607" target="_top" xlink:title=" ">
<polygon fill="none" stroke="black" points="966,-221 966,-240 1115,-240 1115,-221 966,-221"/>
<text text-anchor="middle" x="1040.5" y="-228" font-family="Helvetica,sans-Serif" font-size="10.00">slljit::Parser::ParseExpression</text>
</a>
</g>
</g>
<!-- Node4&#45;&gt;Node6 -->
<g id="edge24" class="edge">
<title>Node4&#45;&gt;Node6</title>
<path fill="none" stroke="midnightblue" d="M1316.3,-281.44C1300.13,-277.4 1281.81,-273.03 1265,-269.5 1210.46,-258.04 1147.93,-247.34 1102.9,-240.05"/>
<polygon fill="midnightblue" stroke="midnightblue" points="1315.51,-284.85 1326.06,-283.9 1317.22,-278.06 1315.51,-284.85"/>
</g>
<!-- Node5&#45;&gt;Node5 -->
<g id="edge5" class="edge">
<title>Node5&#45;&gt;Node5</title>
<path fill="none" stroke="midnightblue" d="M1235.36,-318.96C1231.97,-323.68 1222.85,-327 1208,-327 1183.64,-327 1174.69,-318.06 1181.16,-308.66"/>
<polygon fill="midnightblue" stroke="midnightblue" points="1238.84,-318.47 1234.84,-308.66 1231.85,-318.82 1238.84,-318.47"/>
</g>
<!-- Node5&#45;&gt;Node6 -->
<g id="edge6" class="edge">
<title>Node5&#45;&gt;Node6</title>
<path fill="none" stroke="midnightblue" d="M1157.93,-274.82C1128.03,-263.44 1091.07,-249.37 1066.92,-240.18"/>
<polygon fill="midnightblue" stroke="midnightblue" points="1156.77,-278.12 1167.36,-278.41 1159.26,-271.58 1156.77,-278.12"/>
</g>
<!-- Node6&#45;&gt;Node2 -->
<g id="edge16" class="edge">
<title>Node6&#45;&gt;Node2</title>
<path fill="none" stroke="midnightblue" d="M1125.13,-223.24C1257.2,-211.77 1511.41,-189.7 1631.74,-179.25"/>
<polygon fill="midnightblue" stroke="midnightblue" points="1124.72,-219.76 1115.06,-224.11 1125.33,-226.74 1124.72,-219.76"/>
</g>
<!-- Node7 -->
<g id="node7" class="node">
<title>Node7</title>
<g id="a_node7"><a xlink:href="classslljit_1_1_parser.html#acc431005ac3dd38732083d7a1bb0eab2" target="_top" xlink:title=" ">
<polygon fill="none" stroke="black" points="766,-126 766,-145 930,-145 930,-126 766,-126"/>
<text text-anchor="middle" x="848" y="-133" font-family="Helvetica,sans-Serif" font-size="10.00">slljit::Parser::ParseExpressionList</text>
</a>
</g>
</g>
<!-- Node6&#45;&gt;Node7 -->
<g id="edge7" class="edge">
<title>Node6&#45;&gt;Node7</title>
<path fill="none" stroke="midnightblue" d="M1020.81,-214.2C1000.01,-196.89 964.75,-169.96 930,-154.5 921.42,-150.68 911.98,-147.58 902.66,-145.07"/>
<polygon fill="midnightblue" stroke="midnightblue" points="1018.65,-216.95 1028.54,-220.75 1023.17,-211.61 1018.65,-216.95"/>
</g>
<!-- Node6&#45;&gt;Node8 -->
<g id="edge19" class="edge">
<title>Node6&#45;&gt;Node8</title>
<path fill="none" stroke="midnightblue" d="M955.66,-220.05C901.44,-213 829.41,-203.08 766,-192.5 749.16,-189.69 730.76,-186.21 714.53,-183"/>
<polygon fill="midnightblue" stroke="midnightblue" points="955.55,-223.57 965.91,-221.38 956.44,-216.62 955.55,-223.57"/>
</g>
<!-- Node14 -->
<g id="node14" class="node">
<title>Node14</title>
<g id="a_node14"><a xlink:href="classslljit_1_1_parser.html#a25cfefcbeea85744e23370d3a6f8ad5b" target="_top" xlink:title=" ">
<polygon fill="none" stroke="black" points="770,-357 770,-376 926,-376 926,-357 770,-357"/>
<text text-anchor="middle" x="848" y="-364" font-family="Helvetica,sans-Serif" font-size="10.00">slljit::Parser::ParseIdentifierExpr</text>
</a>
</g>
</g>
<!-- Node6&#45;&gt;Node14 -->
<g id="edge17" class="edge">
<title>Node6&#45;&gt;Node14</title>
<path fill="none" stroke="midnightblue" d="M1021.63,-247.14C1000.6,-266.28 964.21,-298.08 930,-321.5 909.95,-335.22 885.38,-348.41 868.59,-356.92"/>
<polygon fill="midnightblue" stroke="midnightblue" points="1024.15,-249.58 1029.15,-240.24 1019.41,-244.42 1024.15,-249.58"/>
</g>
<!-- Node15 -->
<g id="node15" class="node">
<title>Node15</title>
<g id="a_node15"><a xlink:href="classslljit_1_1_parser.html#a6e2e0f6a2cc445f3a956db59c8d2da66" target="_top" xlink:title="parenexpr ::= &#39;(&#39; expression &#39;)&#39;">
<polygon fill="none" stroke="black" points="775,-293 775,-312 921,-312 921,-293 775,-293"/>
<text text-anchor="middle" x="848" y="-300" font-family="Helvetica,sans-Serif" font-size="10.00">slljit::Parser::ParseParenExpr</text>
</a>
</g>
</g>
<!-- Node6&#45;&gt;Node15 -->
<g id="edge20" class="edge">
<title>Node6&#45;&gt;Node15</title>
<path fill="none" stroke="midnightblue" d="M1004.66,-243.67C967,-257.9 907.9,-280.24 874.4,-292.9"/>
<polygon fill="midnightblue" stroke="midnightblue" points="1006.09,-246.87 1014.2,-240.06 1003.61,-240.32 1006.09,-246.87"/>
</g>
<!-- Node16 -->
<g id="node16" class="node">
<title>Node16</title>
<g id="a_node16"><a xlink:href="classslljit_1_1_parser.html#a435877d3f2869d140a7cca646546a114" target="_top" xlink:title="varexpr ::= &#39;g_var&#39; identifier (&#39;=&#39; expression)?">
<polygon fill="none" stroke="black" points="780.5,-164 780.5,-183 915.5,-183 915.5,-164 780.5,-164"/>
<text text-anchor="middle" x="848" y="-171" font-family="Helvetica,sans-Serif" font-size="10.00">slljit::Parser::ParseVarExpr</text>
</a>
</g>
</g>
<!-- Node6&#45;&gt;Node16 -->
<g id="edge22" class="edge">
<title>Node6&#45;&gt;Node16</title>
<path fill="none" stroke="midnightblue" d="M998.22,-218.01C977.72,-211.82 952.56,-204.24 930,-197.5 913.98,-192.71 896.17,-187.43 881.33,-183.04"/>
<polygon fill="midnightblue" stroke="midnightblue" points="997.3,-221.39 1007.89,-220.93 999.33,-214.69 997.3,-221.39"/>
</g>
<!-- Node7&#45;&gt;Node2 -->
<g id="edge8" class="edge">
<title>Node7&#45;&gt;Node2</title>
<path fill="none" stroke="midnightblue" d="M940.48,-135.5C1012.82,-135.5 1116.36,-135.5 1207,-135.5 1364.5,-135.5 1364.5,-135.5 1364.5,-135.5 1464.88,-135.5 1581.16,-152.7 1646.5,-163.96"/>
<polygon fill="midnightblue" stroke="midnightblue" points="940.04,-132 930.04,-135.5 940.04,-139 940.04,-132"/>
</g>
<!-- Node7&#45;&gt;Node8 -->
<g id="edge9" class="edge">
<title>Node7&#45;&gt;Node8</title>
<path fill="none" stroke="midnightblue" d="M792.13,-147.18C766.82,-152.57 737.15,-158.89 713.22,-163.98"/>
<polygon fill="midnightblue" stroke="midnightblue" points="792.9,-150.59 801.96,-145.09 791.45,-143.75 792.9,-150.59"/>
</g>
<!-- Node7&#45;&gt;Node9 -->
<g id="edge11" class="edge">
<title>Node7&#45;&gt;Node9</title>
<path fill="none" stroke="midnightblue" d="M814.84,-121.81C783.56,-108.49 736.15,-88.3 703.83,-74.54"/>
<polygon fill="midnightblue" stroke="midnightblue" points="813.82,-125.18 824.39,-125.87 816.56,-118.74 813.82,-125.18"/>
</g>
<!-- Node8&#45;&gt;Node3 -->
<g id="edge10" class="edge">
<title>Node8&#45;&gt;Node3</title>
<path fill="none" stroke="midnightblue" d="M671.3,-192.94C678.53,-235.38 701.91,-336.46 766,-385.5 863.89,-460.41 916.24,-431.5 1039.5,-431.5 1209,-431.5 1209,-431.5 1209,-431.5 1330.79,-431.5 1465.8,-360.52 1511.71,-334.18"/>
<polygon fill="midnightblue" stroke="midnightblue" points="674.76,-192.37 669.74,-183.04 667.85,-193.47 674.76,-192.37"/>
</g>
<!-- Node10 -->
<g id="node10" class="node">
<title>Node10</title>
<g id="a_node10"><a xlink:href="classslljit_1_1_parser.html#af0cac4623fc05b8b7ae9884b0aeb3d3f" target="_top" xlink:title=" ">
<polygon fill="none" stroke="black" points="438,-44.5 438,-74.5 569,-74.5 569,-44.5 438,-44.5"/>
<text text-anchor="start" x="446" y="-62.5" font-family="Helvetica,sans-Serif" font-size="10.00">slljit::Parser::HandleTyped</text>
<text text-anchor="middle" x="503.5" y="-51.5" font-family="Helvetica,sans-Serif" font-size="10.00">Expression</text>
</a>
</g>
</g>
<!-- Node9&#45;&gt;Node10 -->
<g id="edge12" class="edge">
<title>Node9&#45;&gt;Node10</title>
<path fill="none" stroke="midnightblue" d="M599.16,-59.5C589.22,-59.5 578.99,-59.5 569.11,-59.5"/>
<polygon fill="midnightblue" stroke="midnightblue" points="599.38,-63 609.38,-59.5 599.38,-56 599.38,-63"/>
</g>
<!-- Node11 -->
<g id="node11" class="node">
<title>Node11</title>
<g id="a_node11"><a xlink:href="classslljit_1_1_parser.html#ae2d3d6534b87da7f237c19129a464bda" target="_top" xlink:title="top ::= definition | external | expression | &#39;;&#39;">
<polygon fill="none" stroke="black" points="286,-48 286,-67 402,-67 402,-48 286,-48"/>
<text text-anchor="middle" x="344" y="-55" font-family="Helvetica,sans-Serif" font-size="10.00">slljit::Parser::MainLoop</text>
</a>
</g>
</g>
<!-- Node10&#45;&gt;Node11 -->
<g id="edge13" class="edge">
<title>Node10&#45;&gt;Node11</title>
<path fill="none" stroke="midnightblue" d="M427.87,-58.55C419.2,-58.44 410.47,-58.33 402.09,-58.23"/>
<polygon fill="midnightblue" stroke="midnightblue" points="427.94,-62.05 437.98,-58.68 428.03,-55.05 427.94,-62.05"/>
</g>
<!-- Node12 -->
<g id="node12" class="node">
<title>Node12</title>
<g id="a_node12"><a xlink:href="classslljit_1_1_parser.html#a2429935f3c870648f9f895a7b2361cfb" target="_top" xlink:title=" ">
<polygon fill="none" stroke="black" points="152,-47 152,-66 250,-66 250,-47 152,-47"/>
<text text-anchor="middle" x="201" y="-54" font-family="Helvetica,sans-Serif" font-size="10.00">slljit::Parser::parse</text>
</a>
</g>
</g>
<!-- Node11&#45;&gt;Node12 -->
<g id="edge14" class="edge">
<title>Node11&#45;&gt;Node12</title>
<path fill="none" stroke="midnightblue" d="M275.37,-57.02C266.9,-56.96 258.37,-56.9 250.28,-56.84"/>
<polygon fill="midnightblue" stroke="midnightblue" points="275.63,-60.52 285.65,-57.09 275.68,-53.52 275.63,-60.52"/>
</g>
<!-- Node13 -->
<g id="node13" class="node">
<title>Node13</title>
<g id="a_node13"><a xlink:href="classslljit_1_1_program.html#ae4d26526a7dd9c69ebe92fb43736696b" target="_top" xlink:title=" ">
<polygon fill="none" stroke="black" points="0,-25 0,-44 116,-44 116,-25 0,-25"/>
<text text-anchor="middle" x="58" y="-32" font-family="Helvetica,sans-Serif" font-size="10.00">slljit::Program::compile</text>
</a>
</g>
</g>
<!-- Node12&#45;&gt;Node13 -->
<g id="edge15" class="edge">
<title>Node12&#45;&gt;Node13</title>
<path fill="none" stroke="midnightblue" d="M141.72,-47.41C133.27,-46.09 124.58,-44.73 116.16,-43.42"/>
<polygon fill="midnightblue" stroke="midnightblue" points="141.45,-50.91 151.87,-48.99 142.53,-43.99 141.45,-50.91"/>
</g>
<!-- Node14&#45;&gt;Node3 -->
<g id="edge18" class="edge">
<title>Node14&#45;&gt;Node3</title>
<path fill="none" stroke="midnightblue" d="M936.35,-368.28C1049.71,-369.5 1253.41,-367.93 1426,-346.5 1447.93,-343.78 1472.13,-338.65 1491.44,-334.03"/>
<polygon fill="midnightblue" stroke="midnightblue" points="936.38,-364.78 926.34,-368.17 936.3,-371.78 936.38,-364.78"/>
</g>
<!-- Node15&#45;&gt;Node3 -->
<g id="edge21" class="edge">
<title>Node15&#45;&gt;Node3</title>
<path fill="none" stroke="midnightblue" d="M924.43,-313.37C985.4,-321.58 1073.53,-332.15 1151,-336.5 1201.59,-339.34 1214.34,-337.44 1265,-336.5 1336.59,-335.17 1354.48,-333.94 1426,-330.5 1437.61,-329.94 1449.95,-329.28 1461.89,-328.6"/>
<polygon fill="midnightblue" stroke="midnightblue" points="924.89,-309.9 914.51,-312.02 923.95,-316.83 924.89,-309.9"/>
</g>
<!-- Node16&#45;&gt;Node3 -->
<g id="edge23" class="edge">
<title>Node16&#45;&gt;Node3</title>
<path fill="none" stroke="midnightblue" d="M925.76,-179.36C1038.12,-189.61 1252.81,-215.6 1426,-274.5 1457.55,-285.23 1491.9,-303.58 1511.6,-314.82"/>
<polygon fill="midnightblue" stroke="midnightblue" points="925.81,-175.85 915.54,-178.44 925.19,-182.82 925.81,-175.85"/>
</g>
<!-- Node17&#45;&gt;Node13 -->
<g id="edge29" class="edge">
<title>Node17&#45;&gt;Node13</title>
<path fill="none" stroke="midnightblue" d="M1474.77,-15.5C1411.44,-15.5 1302.51,-15.5 1209,-15.5 1209,-15.5 1209,-15.5 343,-15.5 264.18,-15.5 173.33,-22.88 116.04,-28.44"/>
<polygon fill="midnightblue" stroke="midnightblue" points="1474.92,-19 1484.92,-15.5 1474.92,-12 1474.92,-19"/>
</g>
</g>
</svg>
