<?xml version="1.0" encoding="UTF-8" standalone="no"?>
<!DOCTYPE svg PUBLIC "-//W3C//DTD SVG 1.1//EN"
 "http://www.w3.org/Graphics/SVG/1.1/DTD/svg11.dtd">
<!-- Generated by graphviz version 3.0.0 (20220226.1711)
 -->
<!-- Title: slljit::Parser::ParseExpression Pages: 1 -->
<svg width="1161pt" height="298pt"
 viewBox="0.00 0.00 1161.00 297.66" xmlns="http://www.w3.org/2000/svg" xmlns:xlink="http://www.w3.org/1999/xlink">
<g id="graph0" class="graph" transform="scale(1 1) rotate(0) translate(4 293.66)">
<title>slljit::Parser::ParseExpression</title>
<!-- Node1 -->
<g id="node1" class="node">
<title>Node1</title>
<g id="a_node1"><a xlink:title=" ">
<polygon fill="#bfbfbf" stroke="black" points="1004,-125.16 1004,-144.16 1153,-144.16 1153,-125.16 1004,-125.16"/>
<text text-anchor="middle" x="1078.5" y="-132.16" font-family="Helvetica,sans-Serif" font-size="10.00">slljit::Parser::ParseExpression</text>
</a>
</g>
</g>
<!-- Node2 -->
<g id="node2" class="node">
<title>Node2</title>
<g id="a_node2"><a xlink:href="classslljit_1_1_parser.html#acc431005ac3dd38732083d7a1bb0eab2" target="_top" xlink:title=" ">
<polygon fill="none" stroke="black" points="804,-223.16 804,-242.16 968,-242.16 968,-223.16 804,-223.16"/>
<text text-anchor="middle" x="886" y="-230.16" font-family="Helvetica,sans-Serif" font-size="10.00">slljit::Parser::ParseExpressionList</text>
</a>
</g>
</g>
<!-- Node1&#45;&gt;Node2 -->
<g id="edge1" class="edge">
<title>Node1&#45;&gt;Node2</title>
<path fill="none" stroke="midnightblue" d="M1056.68,-150.46C1035.33,-166.1 1000.69,-189.93 968,-205.66 953.44,-212.67 936.6,-218.61 922.05,-223.11"/>
<polygon fill="midnightblue" stroke="midnightblue" points="1059.03,-153.08 1064.98,-144.31 1054.86,-147.45 1059.03,-153.08"/>
</g>
<!-- Node3 -->
<g id="node3" class="node">
<title>Node3</title>
<g id="a_node3"><a xlink:href="classslljit_1_1_parser.html#a81023e7a6221eb6b92027bd21433c9dd" target="_top" xlink:title="forexpr ::= &#39;for&#39; identifier &#39;=&#39; expr &#39;,&#39; expr (&#39;,&#39; expr)? &#39;in&#39; expression">
<polygon fill="none" stroke="black" points="633.5,-270.16 633.5,-289.16 767.5,-289.16 767.5,-270.16 633.5,-270.16"/>
<text text-anchor="middle" x="700.5" y="-277.16" font-family="Helvetica,sans-Serif" font-size="10.00">slljit::Parser::ParseForExpr</text>
</a>
</g>
</g>
<!-- Node1&#45;&gt;Node3 -->
<g id="edge17" class="edge">
<title>Node1&#45;&gt;Node3</title>
<path fill="none" stroke="midnightblue" d="M1066.36,-153.22C1049.07,-180.15 1013.04,-229.26 968,-251.66 905.21,-282.9 823.96,-287.06 767.76,-285.2"/>
<polygon fill="midnightblue" stroke="midnightblue" points="1069.54,-154.74 1071.87,-144.4 1063.6,-151.03 1069.54,-154.74"/>
</g>
<!-- Node7 -->
<g id="node7" class="node">
<title>Node7</title>
<g id="a_node7"><a xlink:href="classslljit_1_1_parser.html#a149f5e88cb03aa08c388e6320c6c1bac" target="_top" xlink:title="ifexpr ::= &#39;if&#39; expression &#39;then&#39; expression &#39;else&#39; expression">
<polygon fill="none" stroke="black" points="638,-182.16 638,-201.16 763,-201.16 763,-182.16 638,-182.16"/>
<text text-anchor="middle" x="700.5" y="-189.16" font-family="Helvetica,sans-Serif" font-size="10.00">slljit::Parser::ParseIfExpr</text>
</a>
</g>
</g>
<!-- Node1&#45;&gt;Node7 -->
<g id="edge20" class="edge">
<title>Node1&#45;&gt;Node7</title>
<path fill="none" stroke="midnightblue" d="M1046.03,-148.07C1024.47,-156.62 995.01,-167.12 968,-172.66 898.82,-186.88 817.67,-190.9 763.25,-191.83"/>
<polygon fill="midnightblue" stroke="midnightblue" points="1047.38,-151.29 1055.34,-144.29 1044.75,-144.8 1047.38,-151.29"/>
</g>
<!-- Node13 -->
<g id="node13" class="node">
<title>Node13</title>
<g id="a_node13"><a xlink:href="classslljit_1_1_parser.html#a25cfefcbeea85744e23370d3a6f8ad5b" target="_top" xlink:title=" ">
<polygon fill="none" stroke="black" points="808,-144.16 808,-163.16 964,-163.16 964,-144.16 808,-144.16"/>
<text text-anchor="middle" x="886" y="-151.16" font-family="Helvetica,sans-Serif" font-size="10.00">slljit::Parser::ParseIdentifierExpr</text>
</a>
</g>
</g>
<!-- Node1&#45;&gt;Node13 -->
<g id="edge18" class="edge">
<title>Node1&#45;&gt;Node13</title>
<path fill="none" stroke="midnightblue" d="M993.71,-143.02C983.91,-144 973.95,-144.99 964.24,-145.96"/>
<polygon fill="midnightblue" stroke="midnightblue" points="994.24,-146.49 1003.85,-142.01 993.55,-139.52 994.24,-146.49"/>
</g>
<!-- Node14 -->
<g id="node14" class="node">
<title>Node14</title>
<g id="a_node14"><a xlink:href="classslljit_1_1_parser.html#a6e2e0f6a2cc445f3a956db59c8d2da66" target="_top" xlink:title="parenexpr ::= &#39;(&#39; expression &#39;)&#39;">
<polygon fill="none" stroke="black" points="813,-106.16 813,-125.16 959,-125.16 959,-106.16 813,-106.16"/>
<text text-anchor="middle" x="886" y="-113.16" font-family="Helvetica,sans-Serif" font-size="10.00">slljit::Parser::ParseParenExpr</text>
</a>
</g>
</g>
<!-- Node1&#45;&gt;Node14 -->
<g id="edge21" class="edge">
<title>Node1&#45;&gt;Node14</title>
<path fill="none" stroke="midnightblue" d="M993.79,-126.32C982.26,-125.17 970.5,-123.99 959.2,-122.87"/>
<polygon fill="midnightblue" stroke="midnightblue" points="993.55,-129.81 1003.85,-127.32 994.24,-122.84 993.55,-129.81"/>
</g>
<!-- Node15 -->
<g id="node15" class="node">
<title>Node15</title>
<g id="a_node15"><a xlink:href="classslljit_1_1_parser.html#a435877d3f2869d140a7cca646546a114" target="_top" xlink:title="varexpr ::= &#39;g_var&#39; identifier (&#39;=&#39; expression)?">
<polygon fill="none" stroke="black" points="633,-68.16 633,-87.16 768,-87.16 768,-68.16 633,-68.16"/>
<text text-anchor="middle" x="700.5" y="-75.16" font-family="Helvetica,sans-Serif" font-size="10.00">slljit::Parser::ParseVarExpr</text>
</a>
</g>
</g>
<!-- Node1&#45;&gt;Node15 -->
<g id="edge23" class="edge">
<title>Node1&#45;&gt;Node15</title>
<path fill="none" stroke="midnightblue" d="M1046.03,-121.26C1024.47,-112.71 995.01,-102.21 968,-96.66 900.87,-82.87 822.46,-78.67 768.14,-77.59"/>
<polygon fill="midnightblue" stroke="midnightblue" points="1044.75,-124.52 1055.34,-125.03 1047.38,-118.04 1044.75,-124.52"/>
</g>
<!-- Node2&#45;&gt;Node3 -->
<g id="edge2" class="edge">
<title>Node2&#45;&gt;Node3</title>
<path fill="none" stroke="midnightblue" d="M837.8,-244.75C807.05,-252.63 767.47,-262.77 738.89,-270.09"/>
<polygon fill="midnightblue" stroke="midnightblue" points="839.05,-248.05 847.87,-242.18 837.31,-241.27 839.05,-248.05"/>
</g>
<!-- Node2&#45;&gt;Node7 -->
<g id="edge10" class="edge">
<title>Node2&#45;&gt;Node7</title>
<path fill="none" stroke="midnightblue" d="M832.43,-220.92C804.44,-214.67 770.47,-207.08 744.15,-201.19"/>
<polygon fill="midnightblue" stroke="midnightblue" points="831.92,-224.39 842.44,-223.16 833.44,-217.56 831.92,-224.39"/>
</g>
<!-- Node8 -->
<g id="node8" class="node">
<title>Node8</title>
<g id="a_node8"><a xlink:href="classslljit_1_1_parser.html#aa9a9ce164e114ad7f347f32329f5a5a2" target="_top" xlink:title="definition ::= &#39;def&#39; prototype expression">
<polygon fill="none" stroke="black" points="642.5,-220.66 642.5,-250.66 758.5,-250.66 758.5,-220.66 642.5,-220.66"/>
<text text-anchor="start" x="650.5" y="-238.66" font-family="Helvetica,sans-Serif" font-size="10.00">slljit::Parser::ParseTop</text>
<text text-anchor="middle" x="700.5" y="-227.66" font-family="Helvetica,sans-Serif" font-size="10.00">LevelTypedExpression</text>
</a>
</g>
</g>
<!-- Node2&#45;&gt;Node8 -->
<g id="edge12" class="edge">
<title>Node2&#45;&gt;Node8</title>
<path fill="none" stroke="midnightblue" d="M793.92,-234.15C781.92,-234.35 769.91,-234.55 758.7,-234.73"/>
<polygon fill="midnightblue" stroke="midnightblue" points="794.04,-237.65 803.98,-233.99 793.92,-230.65 794.04,-237.65"/>
</g>
<!-- Node4 -->
<g id="node4" class="node">
<title>Node4</title>
<g id="a_node4"><a xlink:href="classslljit_1_1_parser.html#a45cb3e4f600e8e2c253490e7d878e8cd" target="_top" xlink:title=" ">
<polygon fill="none" stroke="black" points="463,-125.16 463,-144.16 597,-144.16 597,-125.16 463,-125.16"/>
<text text-anchor="middle" x="530" y="-132.16" font-family="Helvetica,sans-Serif" font-size="10.00">slljit::Parser::ParsePrimary</text>
</a>
</g>
</g>
<!-- Node3&#45;&gt;Node4 -->
<g id="edge3" class="edge">
<title>Node3&#45;&gt;Node4</title>
<path fill="none" stroke="midnightblue" d="M642.05,-266.04C638.88,-264.44 635.84,-262.66 633,-260.66 610.6,-244.92 613.99,-232.14 597,-210.66 577.48,-186 552.78,-158.45 539.84,-144.26"/>
<polygon fill="midnightblue" stroke="midnightblue" points="640.66,-269.26 651.23,-270.07 643.48,-262.85 640.66,-269.26"/>
</g>
<!-- Node5 -->
<g id="node5" class="node">
<title>Node5</title>
<g id="a_node5"><a xlink:href="classslljit_1_1_parser.html#af8579896f39ac563d2edd14404d70f41" target="_top" xlink:title=" ">
<polygon fill="none" stroke="black" points="302,-30.16 302,-49.16 427,-49.16 427,-30.16 302,-30.16"/>
<text text-anchor="middle" x="364.5" y="-37.16" font-family="Helvetica,sans-Serif" font-size="10.00">slljit::Parser::ParseUnary</text>
</a>
</g>
</g>
<!-- Node4&#45;&gt;Node5 -->
<g id="edge4" class="edge">
<title>Node4&#45;&gt;Node5</title>
<path fill="none" stroke="midnightblue" d="M503.59,-119.9C469.74,-100.23 410.8,-65.98 382.12,-49.32"/>
<polygon fill="midnightblue" stroke="midnightblue" points="502.02,-123.04 512.42,-125.03 505.53,-116.98 502.02,-123.04"/>
</g>
<!-- Node5&#45;&gt;Node1 -->
<g id="edge8" class="edge">
<title>Node5&#45;&gt;Node1</title>
<path fill="none" stroke="midnightblue" d="M437.46,-33.57C552.33,-26.12 783.02,-20.57 968,-75.66 1005.25,-86.76 1044.25,-111.42 1064.13,-125.09"/>
<polygon fill="midnightblue" stroke="midnightblue" points="437.12,-30.08 427.38,-34.25 437.59,-37.07 437.12,-30.08"/>
</g>
<!-- Node5&#45;&gt;Node5 -->
<g id="edge9" class="edge">
<title>Node5&#45;&gt;Node5</title>
<path fill="none" stroke="midnightblue" d="M393.25,-58.32C392.04,-63.6 382.46,-67.66 364.5,-67.66 337.13,-67.66 329.22,-58.23 340.76,-49.42"/>
<polygon fill="midnightblue" stroke="midnightblue" points="396.19,-56.42 388.24,-49.42 390.09,-59.85 396.19,-56.42"/>
</g>
<!-- Node6 -->
<g id="node6" class="node">
<title>Node6</title>
<g id="a_node6"><a xlink:href="classslljit_1_1_parser.html#ae387c9672ec50720d8cb969558aedbe9" target="_top" xlink:title=" ">
<polygon fill="none" stroke="black" points="152,-5.66 152,-35.66 266,-35.66 266,-5.66 152,-5.66"/>
<text text-anchor="start" x="160" y="-23.66" font-family="Helvetica,sans-Serif" font-size="10.00">slljit::Parser::ParseBin</text>
<text text-anchor="middle" x="209" y="-12.66" font-family="Helvetica,sans-Serif" font-size="10.00">OpRHS</text>
</a>
</g>
</g>
<!-- Node5&#45;&gt;Node6 -->
<g id="edge5" class="edge">
<title>Node5&#45;&gt;Node6</title>
<path fill="none" stroke="midnightblue" d="M291.86,-30.8C283.22,-29.73 274.48,-28.65 266.1,-27.61"/>
<polygon fill="midnightblue" stroke="midnightblue" points="291.6,-34.29 301.95,-32.05 292.46,-27.34 291.6,-34.29"/>
</g>
<!-- Node6&#45;&gt;Node1 -->
<g id="edge7" class="edge">
<title>Node6&#45;&gt;Node1</title>
<path fill="none" stroke="midnightblue" d="M276.15,-14.42C340.62,-8.88 441.45,-1.66 529,-1.66 701.5,-1.66 701.5,-1.66 701.5,-1.66 821.08,-1.66 859.25,11.06 968,-38.66 1013.29,-59.38 1053.72,-105.06 1069.95,-125.02"/>
<polygon fill="midnightblue" stroke="midnightblue" points="275.78,-10.94 266.12,-15.3 276.39,-17.92 275.78,-10.94"/>
</g>
<!-- Node6&#45;&gt;Node6 -->
<g id="edge6" class="edge">
<title>Node6&#45;&gt;Node6</title>
<path fill="none" stroke="midnightblue" d="M235.65,-46.12C232.35,-50.84 223.46,-54.16 209,-54.16 185.27,-54.16 176.56,-45.22 182.86,-35.82"/>
<polygon fill="midnightblue" stroke="midnightblue" points="239.13,-45.64 235.14,-35.82 232.14,-45.99 239.13,-45.64"/>
</g>
<!-- Node7&#45;&gt;Node4 -->
<g id="edge11" class="edge">
<title>Node7&#45;&gt;Node4</title>
<path fill="none" stroke="midnightblue" d="M661.69,-178.87C630.65,-168.38 587.39,-153.74 559.3,-144.24"/>
<polygon fill="midnightblue" stroke="midnightblue" points="660.7,-182.24 671.3,-182.12 662.95,-175.6 660.7,-182.24"/>
</g>
<!-- Node9 -->
<g id="node9" class="node">
<title>Node9</title>
<g id="a_node9"><a xlink:href="classslljit_1_1_parser.html#af0cac4623fc05b8b7ae9884b0aeb3d3f" target="_top" xlink:title=" ">
<polygon fill="none" stroke="black" points="464.5,-220.66 464.5,-250.66 595.5,-250.66 595.5,-220.66 464.5,-220.66"/>
<text text-anchor="start" x="472.5" y="-238.66" font-family="Helvetica,sans-Serif" font-size="10.00">slljit::Parser::HandleTyped</text>
<text text-anchor="middle" x="530" y="-227.66" font-family="Helvetica,sans-Serif" font-size="10.00">Expression</text>
</a>
</g>
</g>
<!-- Node8&#45;&gt;Node9 -->
<g id="edge13" class="edge">
<title>Node8&#45;&gt;Node9</title>
<path fill="none" stroke="midnightblue" d="M632.39,-235.66C620.24,-235.66 607.6,-235.66 595.53,-235.66"/>
<polygon fill="midnightblue" stroke="midnightblue" points="632.45,-239.16 642.45,-235.66 632.45,-232.16 632.45,-239.16"/>
</g>
<!-- Node10 -->
<g id="node10" class="node">
<title>Node10</title>
<g id="a_node10"><a xlink:href="classslljit_1_1_parser.html#ae2d3d6534b87da7f237c19129a464bda" target="_top" xlink:title="top ::= definition | external | expression | &#39;;&#39;">
<polygon fill="none" stroke="black" points="306.5,-226.16 306.5,-245.16 422.5,-245.16 422.5,-226.16 306.5,-226.16"/>
<text text-anchor="middle" x="364.5" y="-233.16" font-family="Helvetica,sans-Serif" font-size="10.00">slljit::Parser::MainLoop</text>
</a>
</g>
</g>
<!-- Node9&#45;&gt;Node10 -->
<g id="edge14" class="edge">
<title>Node9&#45;&gt;Node10</title>
<path fill="none" stroke="midnightblue" d="M454.23,-235.66C443.57,-235.66 432.75,-235.66 422.5,-235.66"/>
<polygon fill="midnightblue" stroke="midnightblue" points="454.38,-239.16 464.38,-235.66 454.38,-232.16 454.38,-239.16"/>
</g>
<!-- Node11 -->
<g id="node11" class="node">
<title>Node11</title>
<g id="a_node11"><a xlink:href="classslljit_1_1_parser.html#a2429935f3c870648f9f895a7b2361cfb" target="_top" xlink:title=" ">
<polygon fill="none" stroke="black" points="160,-226.16 160,-245.16 258,-245.16 258,-226.16 160,-226.16"/>
<text text-anchor="middle" x="209" y="-233.16" font-family="Helvetica,sans-Serif" font-size="10.00">slljit::Parser::parse</text>
</a>
</g>
</g>
<!-- Node10&#45;&gt;Node11 -->
<g id="edge15" class="edge">
<title>Node10&#45;&gt;Node11</title>
<path fill="none" stroke="midnightblue" d="M296.18,-235.66C283.37,-235.66 270.21,-235.66 258.15,-235.66"/>
<polygon fill="midnightblue" stroke="midnightblue" points="296.34,-239.16 306.34,-235.66 296.34,-232.16 296.34,-239.16"/>
</g>
<!-- Node12 -->
<g id="node12" class="node">
<title>Node12</title>
<g id="a_node12"><a xlink:href="classslljit_1_1_program.html#ae4d26526a7dd9c69ebe92fb43736696b" target="_top" xlink:title=" ">
<polygon fill="none" stroke="black" points="0,-226.16 0,-245.16 116,-245.16 116,-226.16 0,-226.16"/>
<text text-anchor="middle" x="58" y="-233.16" font-family="Helvetica,sans-Serif" font-size="10.00">slljit::Program::compile</text>
</a>
</g>
</g>
<!-- Node11&#45;&gt;Node12 -->
<g id="edge16" class="edge">
<title>Node11&#45;&gt;Node12</title>
<path fill="none" stroke="midnightblue" d="M149.35,-235.66C138.45,-235.66 127.07,-235.66 116.22,-235.66"/>
<polygon fill="midnightblue" stroke="midnightblue" points="149.62,-239.16 159.62,-235.66 149.62,-232.16 149.62,-239.16"/>
</g>
<!-- Node13&#45;&gt;Node4 -->
<g id="edge19" class="edge">
<title>Node13&#45;&gt;Node4</title>
<path fill="none" stroke="midnightblue" d="M797.59,-148.97C735.59,-145.65 653.67,-141.25 597.08,-138.21"/>
<polygon fill="midnightblue" stroke="midnightblue" points="797.58,-152.48 807.75,-149.52 797.95,-145.49 797.58,-152.48"/>
</g>
<!-- Node14&#45;&gt;Node4 -->
<g id="edge22" class="edge">
<title>Node14&#45;&gt;Node4</title>
<path fill="none" stroke="midnightblue" d="M802.72,-120.08C740.24,-123.43 655.44,-127.99 597.28,-131.11"/>
<polygon fill="midnightblue" stroke="midnightblue" points="803.14,-123.56 812.94,-119.53 802.76,-116.57 803.14,-123.56"/>
</g>
<!-- Node15&#45;&gt;Node4 -->
<g id="edge24" class="edge">
<title>Node15&#45;&gt;Node4</title>
<path fill="none" stroke="midnightblue" d="M661.69,-90.46C630.65,-100.95 587.39,-115.59 559.3,-125.09"/>
<polygon fill="midnightblue" stroke="midnightblue" points="662.95,-93.73 671.3,-87.21 660.7,-87.09 662.95,-93.73"/>
</g>
</g>
</svg>
