<?xml version="1.0" encoding="UTF-8" standalone="no"?>
<!DOCTYPE svg PUBLIC "-//W3C//DTD SVG 1.1//EN"
 "http://www.w3.org/Graphics/SVG/1.1/DTD/svg11.dtd">
<!-- Generated by graphviz version 3.0.0 (20220226.1711)
 -->
<!-- Title: slljit::Parser Pages: 1 -->
<svg width="712pt" height="601pt"
 viewBox="0.00 0.00 712.00 601.00" xmlns="http://www.w3.org/2000/svg" xmlns:xlink="http://www.w3.org/1999/xlink">
<g id="graph0" class="graph" transform="scale(1 1) rotate(0) translate(4 597)">
<title>slljit::Parser</title>
<!-- Node1 -->
<g id="node1" class="node">
<title>Node1</title>
<g id="a_node1"><a xlink:title="Used to parse source into AST.">
<polygon fill="#bfbfbf" stroke="black" points="636,-414.5 636,-433.5 704,-433.5 704,-414.5 636,-414.5"/>
<text text-anchor="middle" x="670" y="-421.5" font-family="Helvetica,sans-Serif" font-size="10.00">slljit::Parser</text>
</a>
</g>
</g>
<!-- Node2 -->
<g id="node2" class="node">
<title>Node2</title>
<g id="a_node2"><a xlink:title=" ">
<polygon fill="none" stroke="black" points="387,-573.5 387,-592.5 485,-592.5 485,-573.5 387,-573.5"/>
<text text-anchor="middle" x="436" y="-580.5" font-family="Helvetica,sans-Serif" font-size="10.00">map&lt; char, int &gt; &amp;</text>
</a>
</g>
</g>
<!-- Node2&#45;&gt;Node1 -->
<g id="edge1" class="edge">
<title>Node2&#45;&gt;Node1</title>
<path fill="none" stroke="#9a32cd" stroke-dasharray="5,2" d="M495.37,-583.38C534.09,-580.7 583.87,-571.26 618,-543 652.97,-514.04 664.51,-456.69 667.82,-433.79"/>
<polygon fill="#9a32cd" stroke="#9a32cd" points="495.06,-579.89 485.28,-583.94 495.46,-586.88 495.06,-579.89"/>
<text text-anchor="middle" x="568" y="-583" font-family="Helvetica,sans-Serif" font-size="10.00"> BinopPrecedence</text>
</g>
<!-- Node3 -->
<g id="node3" class="node">
<title>Node3</title>
<g id="a_node3"><a xlink:title=" ">
<polygon fill="none" stroke="black" points="374.5,-524 374.5,-554 497.5,-554 497.5,-524 374.5,-524"/>
<text text-anchor="start" x="382.5" y="-542" font-family="Helvetica,sans-Serif" font-size="10.00">list&lt; std::unique_ptr</text>
<text text-anchor="middle" x="436" y="-531" font-family="Helvetica,sans-Serif" font-size="10.00">&lt; slljit::FunctionAST &gt; &gt;</text>
</a>
</g>
</g>
<!-- Node3&#45;&gt;Node1 -->
<g id="edge2" class="edge">
<title>Node3&#45;&gt;Node1</title>
<path fill="none" stroke="#9a32cd" stroke-dasharray="5,2" d="M508,-531.22C543.36,-524.72 585.42,-512.8 618,-491 640.11,-476.2 656.56,-448.58 664.22,-433.85"/>
<polygon fill="#9a32cd" stroke="#9a32cd" points="506.99,-527.84 497.73,-532.99 508.18,-534.74 506.99,-527.84"/>
<text text-anchor="middle" x="568" y="-531" font-family="Helvetica,sans-Serif" font-size="10.00"> FunctionAST_list</text>
</g>
<!-- Node4 -->
<g id="node4" class="node">
<title>Node4</title>
<g id="a_node4"><a xlink:title=" ">
<polygon fill="none" stroke="black" points="372,-475 372,-505 500,-505 500,-475 372,-475"/>
<text text-anchor="start" x="380" y="-493" font-family="Helvetica,sans-Serif" font-size="10.00">list&lt; std::unique_ptr</text>
<text text-anchor="middle" x="436" y="-482" font-family="Helvetica,sans-Serif" font-size="10.00">&lt; slljit::PrototypeAST &gt; &gt;</text>
</a>
</g>
</g>
<!-- Node4&#45;&gt;Node1 -->
<g id="edge3" class="edge">
<title>Node4&#45;&gt;Node1</title>
<path fill="none" stroke="#9a32cd" stroke-dasharray="5,2" d="M510.25,-478.2C543.67,-471.71 583.41,-462.41 618,-450 630.16,-445.64 643.12,-439 652.94,-433.52"/>
<polygon fill="#9a32cd" stroke="#9a32cd" points="509.27,-474.82 500.09,-480.13 510.57,-481.7 509.27,-474.82"/>
<text text-anchor="middle" x="568" y="-479" font-family="Helvetica,sans-Serif" font-size="10.00"> PrototypeAST_list</text>
</g>
<!-- Node5 -->
<g id="node5" class="node">
<title>Node5</title>
<g id="a_node5"><a xlink:title=" ">
<polygon fill="none" stroke="black" points="380.5,-426 380.5,-456 491.5,-456 491.5,-426 380.5,-426"/>
<text text-anchor="start" x="388.5" y="-444" font-family="Helvetica,sans-Serif" font-size="10.00">map&lt; std::string, slljit</text>
<text text-anchor="middle" x="436" y="-433" font-family="Helvetica,sans-Serif" font-size="10.00">::PrototypeAST &amp; &gt;</text>
</a>
</g>
</g>
<!-- Node5&#45;&gt;Node1 -->
<g id="edge4" class="edge">
<title>Node5&#45;&gt;Node1</title>
<path fill="none" stroke="#9a32cd" stroke-dasharray="5,2" d="M501.91,-436.24C545.47,-433.05 601.04,-428.98 635.83,-426.43"/>
<polygon fill="#9a32cd" stroke="#9a32cd" points="501.4,-432.77 491.69,-436.99 501.92,-439.75 501.4,-432.77"/>
<text text-anchor="middle" x="568" y="-438" font-family="Helvetica,sans-Serif" font-size="10.00"> function_proto_table</text>
</g>
<!-- Node6 -->
<g id="node6" class="node">
<title>Node6</title>
<g id="a_node6"><a xlink:href="classslljit_1_1_prototype_a_s_t.html" target="_top" xlink:title="Expression class for function prototypes.">
<polygon fill="none" stroke="black" points="385.5,-387.5 385.5,-406.5 486.5,-406.5 486.5,-387.5 385.5,-387.5"/>
<text text-anchor="middle" x="436" y="-394.5" font-family="Helvetica,sans-Serif" font-size="10.00">slljit::PrototypeAST</text>
</a>
</g>
</g>
<!-- Node6&#45;&gt;Node1 -->
<g id="edge5" class="edge">
<title>Node6&#45;&gt;Node1</title>
<path fill="none" stroke="#9a32cd" stroke-dasharray="5,2" d="M496.91,-400.42C532.27,-402.9 577.83,-406.92 618,-413 623.82,-413.88 629.97,-415.02 635.92,-416.24"/>
<polygon fill="#9a32cd" stroke="#9a32cd" points="496.96,-396.92 486.75,-399.73 496.49,-403.9 496.96,-396.92"/>
<text text-anchor="middle" x="568" y="-416" font-family="Helvetica,sans-Serif" font-size="10.00"> current_function_proto</text>
</g>
<!-- Node7 -->
<g id="node7" class="node">
<title>Node7</title>
<g id="a_node7"><a xlink:href="classslljit_1_1_expr_a_s_t.html" target="_top" xlink:title="Base class for all expression nodes.">
<polygon fill="none" stroke="black" points="134,-539.5 134,-558.5 213,-558.5 213,-539.5 134,-539.5"/>
<text text-anchor="middle" x="173.5" y="-546.5" font-family="Helvetica,sans-Serif" font-size="10.00">slljit::ExprAST</text>
</a>
</g>
</g>
<!-- Node7&#45;&gt;Node6 -->
<g id="edge6" class="edge">
<title>Node7&#45;&gt;Node6</title>
<path fill="none" stroke="midnightblue" d="M223.5,-558.2C263.87,-562.74 319.85,-561.53 354,-529 390.5,-494.22 339.08,-455.19 372,-417 375.75,-412.65 380.43,-409.24 385.55,-406.57"/>
<polygon fill="midnightblue" stroke="midnightblue" points="223.69,-554.7 213.33,-556.9 222.81,-561.64 223.69,-554.7"/>
</g>
<!-- Node8 -->
<g id="node8" class="node">
<title>Node8</title>
<g id="a_node8"><a xlink:title=" ">
<polygon fill="none" stroke="black" points="0,-539.5 0,-558.5 47,-558.5 47,-539.5 0,-539.5"/>
<text text-anchor="middle" x="23.5" y="-546.5" font-family="Helvetica,sans-Serif" font-size="10.00">TypeID</text>
</a>
</g>
</g>
<!-- Node8&#45;&gt;Node7 -->
<g id="edge7" class="edge">
<title>Node8&#45;&gt;Node7</title>
<path fill="none" stroke="#9a32cd" stroke-dasharray="5,2" d="M57.42,-549C80.01,-549 110.09,-549 133.83,-549"/>
<polygon fill="#9a32cd" stroke="#9a32cd" points="57.3,-545.5 47.3,-549 57.3,-552.5 57.3,-545.5"/>
<text text-anchor="middle" x="79" y="-552" font-family="Helvetica,sans-Serif" font-size="10.00"> type_</text>
</g>
<!-- Node9 -->
<g id="node9" class="node">
<title>Node9</title>
<g id="a_node9"><a xlink:title=" ">
<polygon fill="none" stroke="black" points="153,-501.5 153,-520.5 194,-520.5 194,-501.5 153,-501.5"/>
<text text-anchor="middle" x="173.5" y="-508.5" font-family="Helvetica,sans-Serif" font-size="10.00">string</text>
</a>
</g>
</g>
<!-- Node9&#45;&gt;Node6 -->
<g id="edge8" class="edge">
<title>Node9&#45;&gt;Node6</title>
<path fill="none" stroke="#9a32cd" stroke-dasharray="5,2" d="M204.09,-515.78C243.4,-520.34 312.66,-521.85 354,-485 377.34,-464.2 350.44,-439.64 372,-417 376.12,-412.68 381.16,-409.29 386.58,-406.63"/>
<polygon fill="#9a32cd" stroke="#9a32cd" points="204.45,-512.3 194.08,-514.48 203.55,-519.24 204.45,-512.3"/>
<text text-anchor="middle" x="304" y="-520" font-family="Helvetica,sans-Serif" font-size="10.00"> Name</text>
</g>
<!-- Node10 -->
<g id="node10" class="node">
<title>Node10</title>
<g id="a_node10"><a xlink:title=" ">
<polygon fill="none" stroke="black" points="121.5,-463.5 121.5,-482.5 225.5,-482.5 225.5,-463.5 121.5,-463.5"/>
<text text-anchor="middle" x="173.5" y="-470.5" font-family="Helvetica,sans-Serif" font-size="10.00">vector&lt; std::string &gt;</text>
</a>
</g>
</g>
<!-- Node10&#45;&gt;Node6 -->
<g id="edge9" class="edge">
<title>Node10&#45;&gt;Node6</title>
<path fill="none" stroke="#9a32cd" stroke-dasharray="5,2" d="M235.94,-472.43C272.52,-469.59 318.57,-461.45 354,-440 365.1,-433.28 361.34,-424.4 372,-417 378.22,-412.68 385.42,-409.26 392.68,-406.56"/>
<polygon fill="#9a32cd" stroke="#9a32cd" points="235.63,-468.95 225.89,-473.1 236.1,-475.93 235.63,-468.95"/>
<text text-anchor="middle" x="304" y="-473" font-family="Helvetica,sans-Serif" font-size="10.00"> Args</text>
</g>
<!-- Node11 -->
<g id="node11" class="node">
<title>Node11</title>
<g id="a_node11"><a xlink:title=" ">
<polygon fill="none" stroke="black" points="128.5,-425.5 128.5,-444.5 218.5,-444.5 218.5,-425.5 128.5,-425.5"/>
<text text-anchor="middle" x="173.5" y="-432.5" font-family="Helvetica,sans-Serif" font-size="10.00">vector&lt; TypeID &gt;</text>
</a>
</g>
</g>
<!-- Node11&#45;&gt;Node6 -->
<g id="edge10" class="edge">
<title>Node11&#45;&gt;Node6</title>
<path fill="none" stroke="#9a32cd" stroke-dasharray="5,2" d="M229.05,-428.81C264.68,-424.57 312.19,-418.55 354,-412 364.31,-410.39 375.33,-408.47 385.82,-406.56"/>
<polygon fill="#9a32cd" stroke="#9a32cd" points="228.38,-425.37 218.86,-430.01 229.2,-432.32 228.38,-425.37"/>
<text text-anchor="middle" x="304" y="-428" font-family="Helvetica,sans-Serif" font-size="10.00"> ArgTypes</text>
</g>
<!-- Node12 -->
<g id="node12" class="node">
<title>Node12</title>
<g id="a_node12"><a xlink:title=" ">
<polygon fill="none" stroke="black" points="136.5,-387.5 136.5,-406.5 210.5,-406.5 210.5,-387.5 136.5,-387.5"/>
<text text-anchor="middle" x="173.5" y="-394.5" font-family="Helvetica,sans-Serif" font-size="10.00">const TypeID</text>
</a>
</g>
</g>
<!-- Node12&#45;&gt;Node6 -->
<g id="edge11" class="edge">
<title>Node12&#45;&gt;Node6</title>
<path fill="none" stroke="#9a32cd" stroke-dasharray="5,2" d="M220.77,-397C267.01,-397 337.86,-397 385.28,-397"/>
<polygon fill="#9a32cd" stroke="#9a32cd" points="220.72,-393.5 210.72,-397 220.72,-400.5 220.72,-393.5"/>
<text text-anchor="middle" x="304" y="-400" font-family="Helvetica,sans-Serif" font-size="10.00"> ret_type_</text>
</g>
<!-- Node13 -->
<g id="node13" class="node">
<title>Node13</title>
<g id="a_node13"><a xlink:title=" ">
<polygon fill="none" stroke="black" points="156,-349.5 156,-368.5 191,-368.5 191,-349.5 156,-349.5"/>
<text text-anchor="middle" x="173.5" y="-356.5" font-family="Helvetica,sans-Serif" font-size="10.00">bool</text>
</a>
</g>
</g>
<!-- Node13&#45;&gt;Node6 -->
<g id="edge12" class="edge">
<title>Node13&#45;&gt;Node6</title>
<path fill="none" stroke="#9a32cd" stroke-dasharray="5,2" d="M201.33,-361.97C236.48,-365.96 299.99,-373.55 354,-382 364.31,-383.61 375.33,-385.53 385.82,-387.44"/>
<polygon fill="#9a32cd" stroke="#9a32cd" points="201.7,-358.49 191.37,-360.84 200.92,-365.44 201.7,-358.49"/>
<text text-anchor="middle" x="304" y="-385" font-family="Helvetica,sans-Serif" font-size="10.00"> IsOperator</text>
</g>
<!-- Node14 -->
<g id="node14" class="node">
<title>Node14</title>
<g id="a_node14"><a xlink:title=" ">
<polygon fill="none" stroke="black" points="132,-311.5 132,-330.5 215,-330.5 215,-311.5 132,-311.5"/>
<text text-anchor="middle" x="173.5" y="-318.5" font-family="Helvetica,sans-Serif" font-size="10.00">const unsigned</text>
</a>
</g>
</g>
<!-- Node14&#45;&gt;Node6 -->
<g id="edge13" class="edge">
<title>Node14&#45;&gt;Node6</title>
<path fill="none" stroke="#9a32cd" stroke-dasharray="5,2" d="M225.38,-320.08C263.47,-321.64 315.43,-328.73 354,-353 365.59,-360.29 360.86,-370.05 372,-378 377.39,-381.85 383.58,-384.93 389.92,-387.39"/>
<polygon fill="#9a32cd" stroke="#9a32cd" points="225.13,-316.57 215.03,-319.77 224.92,-323.57 225.13,-316.57"/>
<text text-anchor="middle" x="304" y="-356" font-family="Helvetica,sans-Serif" font-size="10.00"> Precedence</text>
</g>
<!-- Node15 -->
<g id="node15" class="node">
<title>Node15</title>
<g id="a_node15"><a xlink:title=" ">
<polygon fill="none" stroke="black" points="389.5,-338 389.5,-368 482.5,-368 482.5,-338 389.5,-338"/>
<text text-anchor="start" x="397.5" y="-356" font-family="Helvetica,sans-Serif" font-size="10.00">list&lt; map&lt; string,</text>
<text text-anchor="middle" x="436" y="-345" font-family="Helvetica,sans-Serif" font-size="10.00"> TypeID &gt; &gt;</text>
</a>
</g>
</g>
<!-- Node15&#45;&gt;Node1 -->
<g id="edge14" class="edge">
<title>Node15&#45;&gt;Node1</title>
<path fill="none" stroke="#9a32cd" stroke-dasharray="5,2" d="M492.91,-357.1C529.66,-361.31 578.14,-369.83 618,-387 633.47,-393.66 648.79,-405.7 658.53,-414.23"/>
<polygon fill="#9a32cd" stroke="#9a32cd" points="493.19,-353.61 482.88,-356.02 492.44,-360.56 493.19,-353.61"/>
<text text-anchor="middle" x="568" y="-390" font-family="Helvetica,sans-Serif" font-size="10.00"> scope_list</text>
</g>
<!-- Node16 -->
<g id="node16" class="node">
<title>Node16</title>
<g id="a_node16"><a xlink:href="classslljit_1_1_tokenizer.html" target="_top" xlink:title="Used to transform source into token stream.">
<polygon fill="none" stroke="black" points="395,-154.5 395,-173.5 477,-173.5 477,-154.5 395,-154.5"/>
<text text-anchor="middle" x="436" y="-161.5" font-family="Helvetica,sans-Serif" font-size="10.00">slljit::Tokenizer</text>
</a>
</g>
</g>
<!-- Node16&#45;&gt;Node1 -->
<g id="edge15" class="edge">
<title>Node16&#45;&gt;Node1</title>
<path fill="none" stroke="#9a32cd" stroke-dasharray="5,2" d="M455.81,-180.53C490.17,-211.23 564.47,-279.92 618,-346 636.74,-369.13 654.89,-399.31 663.61,-414.45"/>
<polygon fill="#9a32cd" stroke="#9a32cd" points="457.77,-177.6 447.97,-173.57 453.13,-182.83 457.77,-177.6"/>
<text text-anchor="middle" x="568" y="-349" font-family="Helvetica,sans-Serif" font-size="10.00"> m_tokenizer</text>
</g>
<!-- Node17 -->
<g id="node17" class="node">
<title>Node17</title>
<g id="a_node17"><a xlink:title=" ">
<polygon fill="none" stroke="black" points="153,-263.5 153,-282.5 194,-282.5 194,-263.5 153,-263.5"/>
<text text-anchor="middle" x="173.5" y="-270.5" font-family="Helvetica,sans-Serif" font-size="10.00">string</text>
</a>
</g>
</g>
<!-- Node17&#45;&gt;Node16 -->
<g id="edge16" class="edge">
<title>Node17&#45;&gt;Node16</title>
<path fill="none" stroke="#9a32cd" stroke-dasharray="5,2" d="M204.19,-274.37C241.28,-274.86 305.72,-271.57 354,-247 388.45,-229.47 416.79,-191.55 428.8,-173.68"/>
<polygon fill="#9a32cd" stroke="#9a32cd" points="204.13,-270.87 194.05,-274.14 203.97,-277.87 204.13,-270.87"/>
<text text-anchor="middle" x="304" y="-297" font-family="Helvetica,sans-Serif" font-size="10.00"> IdentifierStr</text>
<text text-anchor="middle" x="304" y="-286" font-family="Helvetica,sans-Serif" font-size="10.00">LiteralStr</text>
<text text-anchor="middle" x="304" y="-275" font-family="Helvetica,sans-Serif" font-size="10.00">TypeIdentifierStr</text>
</g>
<!-- Node18 -->
<g id="node18" class="node">
<title>Node18</title>
<g id="a_node18"><a xlink:title=" ">
<polygon fill="none" stroke="black" points="141.5,-225.5 141.5,-244.5 205.5,-244.5 205.5,-225.5 141.5,-225.5"/>
<text text-anchor="middle" x="173.5" y="-232.5" font-family="Helvetica,sans-Serif" font-size="10.00">string_view</text>
</a>
</g>
</g>
<!-- Node18&#45;&gt;Node16 -->
<g id="edge17" class="edge">
<title>Node18&#45;&gt;Node16</title>
<path fill="none" stroke="#9a32cd" stroke-dasharray="5,2" d="M215.98,-234.82C253.09,-233.52 308.5,-228.74 354,-213 380.56,-203.81 407.78,-185.04 422.92,-173.58"/>
<polygon fill="#9a32cd" stroke="#9a32cd" points="215.45,-231.33 205.55,-235.11 215.65,-238.33 215.45,-231.33"/>
<text text-anchor="middle" x="304" y="-235" font-family="Helvetica,sans-Serif" font-size="10.00"> source_code</text>
</g>
<!-- Node19 -->
<g id="node19" class="node">
<title>Node19</title>
<g id="a_node19"><a xlink:title=" ">
<polygon fill="none" stroke="black" points="152,-173.5 152,-192.5 195,-192.5 195,-173.5 152,-173.5"/>
<text text-anchor="middle" x="173.5" y="-180.5" font-family="Helvetica,sans-Serif" font-size="10.00">size_t</text>
</a>
</g>
</g>
<!-- Node19&#45;&gt;Node16 -->
<g id="edge18" class="edge">
<title>Node19&#45;&gt;Node16</title>
<path fill="none" stroke="#9a32cd" stroke-dasharray="5,2" d="M205.6,-180.73C252.82,-177.29 342.59,-170.74 394.74,-166.94"/>
<polygon fill="#9a32cd" stroke="#9a32cd" points="205.1,-177.26 195.38,-181.48 205.61,-184.24 205.1,-177.26"/>
<text text-anchor="middle" x="304" y="-201" font-family="Helvetica,sans-Serif" font-size="10.00"> line_char_count</text>
<text text-anchor="middle" x="304" y="-190" font-family="Helvetica,sans-Serif" font-size="10.00">line_count</text>
<text text-anchor="middle" x="304" y="-179" font-family="Helvetica,sans-Serif" font-size="10.00">source_idx</text>
</g>
<!-- Node20 -->
<g id="node20" class="node">
<title>Node20</title>
<g id="a_node20"><a xlink:title=" ">
<polygon fill="none" stroke="black" points="119,-135.5 119,-154.5 228,-154.5 228,-135.5 119,-135.5"/>
<text text-anchor="middle" x="173.5" y="-142.5" font-family="Helvetica,sans-Serif" font-size="10.00">pair&lt; size_t, size_t &gt;</text>
</a>
</g>
</g>
<!-- Node20&#45;&gt;Node16 -->
<g id="edge19" class="edge">
<title>Node20&#45;&gt;Node16</title>
<path fill="none" stroke="#9a32cd" stroke-dasharray="5,2" d="M238.7,-147.72C272.95,-149.39 315.81,-151.82 354,-155 367.25,-156.1 381.7,-157.61 394.67,-159.08"/>
<polygon fill="#9a32cd" stroke="#9a32cd" points="238.51,-144.21 228.36,-147.23 238.18,-151.2 238.51,-144.21"/>
<text text-anchor="middle" x="304" y="-158" font-family="Helvetica,sans-Serif" font-size="10.00"> tok_location</text>
</g>
<!-- Node21 -->
<g id="node21" class="node">
<title>Node21</title>
<g id="a_node21"><a xlink:title=" ">
<polygon fill="none" stroke="black" points="113,-94.5 113,-113.5 234,-113.5 234,-94.5 113,-94.5"/>
<text text-anchor="middle" x="173.5" y="-101.5" font-family="Helvetica,sans-Serif" font-size="10.00">static const set&lt; char &gt;</text>
</a>
</g>
</g>
<!-- Node21&#45;&gt;Node16 -->
<g id="edge20" class="edge">
<title>Node21&#45;&gt;Node16</title>
<path fill="none" stroke="#9a32cd" stroke-dasharray="5,2" d="M244.42,-104.9C278.12,-106.87 318.77,-111.52 354,-122 378.9,-129.41 405.14,-144.56 420.78,-154.5"/>
<polygon fill="#9a32cd" stroke="#9a32cd" points="244.36,-101.39 234.2,-104.37 244,-108.38 244.36,-101.39"/>
<text text-anchor="middle" x="304" y="-136" font-family="Helvetica,sans-Serif" font-size="10.00"> identifier_charset</text>
<text text-anchor="middle" x="304" y="-125" font-family="Helvetica,sans-Serif" font-size="10.00">identifier_start_charset</text>
</g>
<!-- Node22 -->
<g id="node22" class="node">
<title>Node22</title>
<g id="a_node22"><a xlink:title=" ">
<polygon fill="none" stroke="black" points="111,-45 111,-75 236,-75 236,-45 111,-45"/>
<text text-anchor="start" x="119" y="-63" font-family="Helvetica,sans-Serif" font-size="10.00">static const map&lt; string,</text>
<text text-anchor="middle" x="173.5" y="-52" font-family="Helvetica,sans-Serif" font-size="10.00"> Token &gt;</text>
</a>
</g>
</g>
<!-- Node22&#45;&gt;Node16 -->
<g id="edge21" class="edge">
<title>Node22&#45;&gt;Node16</title>
<path fill="none" stroke="#9a32cd" stroke-dasharray="5,2" d="M246.47,-62.63C280.48,-66.18 320.79,-73.84 354,-90 386.2,-105.67 414.79,-138.23 427.71,-154.43"/>
<polygon fill="#9a32cd" stroke="#9a32cd" points="246.42,-59.11 236.14,-61.66 245.77,-66.08 246.42,-59.11"/>
<text text-anchor="middle" x="304" y="-93" font-family="Helvetica,sans-Serif" font-size="10.00"> reserved_identifier_set</text>
</g>
<!-- Node23 -->
<g id="node23" class="node">
<title>Node23</title>
<g id="a_node23"><a xlink:title=" ">
<polygon fill="none" stroke="black" points="159,-0.5 159,-19.5 188,-19.5 188,-0.5 159,-0.5"/>
<text text-anchor="middle" x="173.5" y="-7.5" font-family="Helvetica,sans-Serif" font-size="10.00">int</text>
</a>
</g>
</g>
<!-- Node23&#45;&gt;Node1 -->
<g id="edge23" class="edge">
<title>Node23&#45;&gt;Node1</title>
<path fill="none" stroke="#9a32cd" stroke-dasharray="5,2" d="M198.38,-5.93C233.68,-0.95 301.26,4.6 354,-15 497.16,-68.21 536.45,-105.86 618,-235 656.29,-295.63 666.11,-384.71 668.38,-414.15"/>
<polygon fill="#9a32cd" stroke="#9a32cd" points="197.48,-2.53 188.12,-7.49 198.53,-9.45 197.48,-2.53"/>
<text text-anchor="middle" x="436" y="-91" font-family="Helvetica,sans-Serif" font-size="10.00"> CurTok</text>
</g>
<!-- Node23&#45;&gt;Node16 -->
<g id="edge22" class="edge">
<title>Node23&#45;&gt;Node16</title>
<path fill="none" stroke="#9a32cd" stroke-dasharray="5,2" d="M198.61,-9.66C235.21,-10.28 305.62,-15.96 354,-48 395.37,-75.4 421.88,-131.78 431.23,-154.35"/>
<polygon fill="#9a32cd" stroke="#9a32cd" points="198.42,-6.16 188.4,-9.61 198.39,-13.16 198.42,-6.16"/>
<text text-anchor="middle" x="304" y="-51" font-family="Helvetica,sans-Serif" font-size="10.00"> LastChar</text>
</g>
</g>
</svg>
