<?xml version="1.0" encoding="UTF-8" standalone="no"?>
<!DOCTYPE svg PUBLIC "-//W3C//DTD SVG 1.1//EN"
 "http://www.w3.org/Graphics/SVG/1.1/DTD/svg11.dtd">
<!-- Generated by graphviz version 3.0.0 (20220226.1711)
 -->
<!-- Title: slljit::Program&lt; T, R &gt; Pages: 1 -->
<svg width="848pt" height="378pt"
 viewBox="0.00 0.00 848.00 377.50" xmlns="http://www.w3.org/2000/svg" xmlns:xlink="http://www.w3.org/1999/xlink">
<g id="graph0" class="graph" transform="scale(1 1) rotate(0) translate(4 373.5)">
<title>slljit::Program&lt; T, R &gt;</title>
<!-- Node1 -->
<g id="node1" class="node">
<title>Node1</title>
<g id="a_node1"><a xlink:title="Used to compile, hold and run a shader program.">
<polygon fill="#bfbfbf" stroke="black" points="727,-165.5 727,-184.5 840,-184.5 840,-165.5 727,-165.5"/>
<text text-anchor="middle" x="783.5" y="-172.5" font-family="Helvetica,sans-Serif" font-size="10.00">slljit::Program&lt; T, R &gt;</text>
</a>
</g>
</g>
<!-- Node2 -->
<g id="node2" class="node">
<title>Node2</title>
<g id="a_node2"><a xlink:href="classslljit_1_1_context.html" target="_top" xlink:title="Used to hold global compilation and execution context.">
<polygon fill="none" stroke="black" points="530.5,-284.5 530.5,-303.5 604.5,-303.5 604.5,-284.5 530.5,-284.5"/>
<text text-anchor="middle" x="567.5" y="-291.5" font-family="Helvetica,sans-Serif" font-size="10.00">slljit::Context</text>
</a>
</g>
</g>
<!-- Node2&#45;&gt;Node1 -->
<g id="edge1" class="edge">
<title>Node2&#45;&gt;Node1</title>
<path fill="none" stroke="#9a32cd" stroke-dasharray="5,2" d="M594.66,-279.45C639.03,-254.78 727.86,-205.38 765.27,-184.58"/>
<polygon fill="#9a32cd" stroke="#9a32cd" points="592.69,-276.54 585.65,-284.46 596.09,-282.66 592.69,-276.54"/>
<text text-anchor="middle" x="671.5" y="-258" font-family="Helvetica,sans-Serif" font-size="10.00"> m_context</text>
</g>
<!-- Node3 -->
<g id="node3" class="node">
<title>Node3</title>
<g id="a_node3"><a xlink:title=" ">
<polygon fill="none" stroke="black" points="289.5,-339 289.5,-369 377.5,-369 377.5,-339 289.5,-339"/>
<text text-anchor="start" x="297.5" y="-357" font-family="Helvetica,sans-Serif" font-size="10.00">unique_ptr&lt; slljit</text>
<text text-anchor="middle" x="333.5" y="-346" font-family="Helvetica,sans-Serif" font-size="10.00">::ShaderJIT &gt;</text>
</a>
</g>
</g>
<!-- Node3&#45;&gt;Node2 -->
<g id="edge2" class="edge">
<title>Node3&#45;&gt;Node2</title>
<path fill="none" stroke="#9a32cd" stroke-dasharray="5,2" d="M387.63,-348.46C420.77,-344.09 464,-336.74 501,-325 518.15,-319.56 536.58,-310.52 549.5,-303.61"/>
<polygon fill="#9a32cd" stroke="#9a32cd" points="387.17,-344.99 377.69,-349.71 388.05,-351.93 387.17,-344.99"/>
<text text-anchor="middle" x="461" y="-345" font-family="Helvetica,sans-Serif" font-size="10.00"> shllJIT</text>
</g>
<!-- Node4 -->
<g id="node4" class="node">
<title>Node4</title>
<g id="a_node4"><a xlink:href="classslljit_1_1_local_context.html" target="_top" xlink:title="Used to define context for a single Program.">
<polygon fill="none" stroke="black" points="519,-186.5 519,-205.5 616,-205.5 616,-186.5 519,-186.5"/>
<text text-anchor="middle" x="567.5" y="-193.5" font-family="Helvetica,sans-Serif" font-size="10.00">slljit::LocalContext</text>
</a>
</g>
</g>
<!-- Node4&#45;&gt;Node1 -->
<g id="edge3" class="edge">
<title>Node4&#45;&gt;Node1</title>
<path fill="none" stroke="#9a32cd" stroke-dasharray="5,2" d="M626.56,-190.3C657.79,-187.24 696.1,-183.48 726.94,-180.45"/>
<polygon fill="#9a32cd" stroke="#9a32cd" points="625.87,-186.85 616.26,-191.31 626.55,-193.82 625.87,-186.85"/>
<text text-anchor="middle" x="671.5" y="-192" font-family="Helvetica,sans-Serif" font-size="10.00"> m_local_context</text>
</g>
<!-- Node5 -->
<g id="node5" class="node">
<title>Node5</title>
<g id="a_node5"><a xlink:title=" ">
<polygon fill="none" stroke="black" points="264,-300.5 264,-319.5 403,-319.5 403,-300.5 264,-300.5"/>
<text text-anchor="middle" x="333.5" y="-307.5" font-family="Helvetica,sans-Serif" font-size="10.00">unique_ptr&lt; LLVMContext &gt;</text>
</a>
</g>
</g>
<!-- Node5&#45;&gt;Node4 -->
<g id="edge4" class="edge">
<title>Node5&#45;&gt;Node4</title>
<path fill="none" stroke="#9a32cd" stroke-dasharray="5,2" d="M413.23,-303.76C442.39,-298.76 474.72,-289.85 501,-274 529.62,-256.74 551.68,-222.45 561.27,-205.69"/>
<polygon fill="#9a32cd" stroke="#9a32cd" points="412.39,-300.35 403.06,-305.37 413.49,-307.26 412.39,-300.35"/>
<text text-anchor="middle" x="461" y="-304" font-family="Helvetica,sans-Serif" font-size="10.00"> LLVM_Context</text>
</g>
<!-- Node6 -->
<g id="node6" class="node">
<title>Node6</title>
<g id="a_node6"><a xlink:title=" ">
<polygon fill="none" stroke="black" points="268,-262.5 268,-281.5 399,-281.5 399,-262.5 268,-262.5"/>
<text text-anchor="middle" x="333.5" y="-269.5" font-family="Helvetica,sans-Serif" font-size="10.00">unique_ptr&lt; IRBuilder&lt;&gt; &gt;</text>
</a>
</g>
</g>
<!-- Node6&#45;&gt;Node4 -->
<g id="edge5" class="edge">
<title>Node6&#45;&gt;Node4</title>
<path fill="none" stroke="#9a32cd" stroke-dasharray="5,2" d="M409.53,-262.72C438.78,-257.55 472.15,-249.72 501,-238 521.02,-229.87 541.6,-215.49 554.22,-205.86"/>
<polygon fill="#9a32cd" stroke="#9a32cd" points="408.65,-259.32 399.37,-264.43 409.81,-266.22 408.65,-259.32"/>
<text text-anchor="middle" x="461" y="-262" font-family="Helvetica,sans-Serif" font-size="10.00"> LLVM_Builder</text>
</g>
<!-- Node7 -->
<g id="node7" class="node">
<title>Node7</title>
<g id="a_node7"><a xlink:title=" ">
<polygon fill="none" stroke="black" points="278,-224.5 278,-243.5 389,-243.5 389,-224.5 278,-224.5"/>
<text text-anchor="middle" x="333.5" y="-231.5" font-family="Helvetica,sans-Serif" font-size="10.00">unique_ptr&lt; Module &gt;</text>
</a>
</g>
</g>
<!-- Node7&#45;&gt;Node4 -->
<g id="edge6" class="edge">
<title>Node7&#45;&gt;Node4</title>
<path fill="none" stroke="#9a32cd" stroke-dasharray="5,2" d="M399.27,-226.4C430.17,-222.43 467.6,-217.12 501,-211 509.61,-209.42 518.79,-207.48 527.48,-205.53"/>
<polygon fill="#9a32cd" stroke="#9a32cd" points="398.54,-222.96 389.06,-227.69 399.42,-229.91 398.54,-222.96"/>
<text text-anchor="middle" x="461" y="-226" font-family="Helvetica,sans-Serif" font-size="10.00"> LLVM_Module</text>
</g>
<!-- Node8 -->
<g id="node8" class="node">
<title>Node8</title>
<g id="a_node8"><a xlink:title=" ">
<polygon fill="none" stroke="black" points="303.5,-186.5 303.5,-205.5 363.5,-205.5 363.5,-186.5 303.5,-186.5"/>
<text text-anchor="middle" x="333.5" y="-193.5" font-family="Helvetica,sans-Serif" font-size="10.00">JITDylib &amp;</text>
</a>
</g>
</g>
<!-- Node8&#45;&gt;Node4 -->
<g id="edge7" class="edge">
<title>Node8&#45;&gt;Node4</title>
<path fill="none" stroke="#9a32cd" stroke-dasharray="5,2" d="M374.07,-196C414.13,-196 476.11,-196 518.85,-196"/>
<polygon fill="#9a32cd" stroke="#9a32cd" points="373.88,-192.5 363.88,-196 373.88,-199.5 373.88,-192.5"/>
<text text-anchor="middle" x="461" y="-199" font-family="Helvetica,sans-Serif" font-size="10.00"> JD</text>
</g>
<!-- Node9 -->
<g id="node9" class="node">
<title>Node9</title>
<g id="a_node9"><a xlink:href="classslljit_1_1_layout.html" target="_top" xlink:title=" ">
<polygon fill="none" stroke="black" points="299,-148.5 299,-167.5 368,-167.5 368,-148.5 299,-148.5"/>
<text text-anchor="middle" x="333.5" y="-155.5" font-family="Helvetica,sans-Serif" font-size="10.00">slljit::Layout</text>
</a>
</g>
</g>
<!-- Node9&#45;&gt;Node4 -->
<g id="edge8" class="edge">
<title>Node9&#45;&gt;Node4</title>
<path fill="none" stroke="#9a32cd" stroke-dasharray="5,2" d="M378.11,-162.96C411.79,-167.05 459.51,-173.4 501,-181 509.61,-182.58 518.79,-184.52 527.48,-186.47"/>
<polygon fill="#9a32cd" stroke="#9a32cd" points="378.47,-159.48 368.12,-161.77 377.64,-166.43 378.47,-159.48"/>
<text text-anchor="middle" x="461" y="-184" font-family="Helvetica,sans-Serif" font-size="10.00"> layout</text>
</g>
<!-- Node10 -->
<g id="node10" class="node">
<title>Node10</title>
<g id="a_node10"><a xlink:title=" ">
<polygon fill="none" stroke="black" points="39.5,-205.5 39.5,-224.5 111.5,-224.5 111.5,-205.5 39.5,-205.5"/>
<text text-anchor="middle" x="75.5" y="-212.5" font-family="Helvetica,sans-Serif" font-size="10.00">set&lt; string &gt;</text>
</a>
</g>
</g>
<!-- Node10&#45;&gt;Node9 -->
<g id="edge9" class="edge">
<title>Node10&#45;&gt;Node9</title>
<path fill="none" stroke="#9a32cd" stroke-dasharray="5,2" d="M121.9,-209.09C156.34,-204.03 204.65,-195.71 246,-184 254.26,-181.66 255.85,-179.71 264,-177 275.24,-173.26 287.69,-169.66 298.85,-166.61"/>
<polygon fill="#9a32cd" stroke="#9a32cd" points="121.08,-205.67 111.68,-210.56 122.07,-212.6 121.08,-205.67"/>
<text text-anchor="middle" x="207.5" y="-203" font-family="Helvetica,sans-Serif" font-size="10.00"> names</text>
</g>
<!-- Node11 -->
<g id="node11" class="node">
<title>Node11</title>
<g id="a_node11"><a xlink:title=" ">
<polygon fill="none" stroke="black" points="0,-167.5 0,-186.5 151,-186.5 151,-167.5 0,-167.5"/>
<text text-anchor="middle" x="75.5" y="-174.5" font-family="Helvetica,sans-Serif" font-size="10.00">vector&lt; slljit::GlobalDefinition &gt;</text>
</a>
</g>
</g>
<!-- Node11&#45;&gt;Node9 -->
<g id="edge10" class="edge">
<title>Node11&#45;&gt;Node9</title>
<path fill="none" stroke="#9a32cd" stroke-dasharray="5,2" d="M161.42,-170.7C208.37,-167.21 264.08,-163.08 298.87,-160.5"/>
<polygon fill="#9a32cd" stroke="#9a32cd" points="160.95,-167.22 151.23,-171.45 161.47,-174.2 160.95,-167.22"/>
<text text-anchor="middle" x="207.5" y="-172" font-family="Helvetica,sans-Serif" font-size="10.00"> globals</text>
</g>
<!-- Node12 -->
<g id="node12" class="node">
<title>Node12</title>
<g id="a_node12"><a xlink:title=" ">
<polygon fill="none" stroke="black" points="32.5,-129.5 32.5,-148.5 118.5,-148.5 118.5,-129.5 32.5,-129.5"/>
<text text-anchor="middle" x="75.5" y="-136.5" font-family="Helvetica,sans-Serif" font-size="10.00">vector&lt; size_t &gt;</text>
</a>
</g>
</g>
<!-- Node12&#45;&gt;Node9 -->
<g id="edge11" class="edge">
<title>Node12&#45;&gt;Node9</title>
<path fill="none" stroke="#9a32cd" stroke-dasharray="5,2" d="M128.72,-141.48C162.25,-143.22 206.73,-145.8 246,-149 263.46,-150.42 282.85,-152.4 298.85,-154.15"/>
<polygon fill="#9a32cd" stroke="#9a32cd" points="128.84,-137.98 118.68,-140.96 128.49,-144.97 128.84,-137.98"/>
<text text-anchor="middle" x="207.5" y="-152" font-family="Helvetica,sans-Serif" font-size="10.00"> global_offsets</text>
</g>
<!-- Node13 -->
<g id="node13" class="node">
<title>Node13</title>
<g id="a_node13"><a xlink:title=" ">
<polygon fill="none" stroke="black" points="6.5,-80 6.5,-110 144.5,-110 144.5,-80 6.5,-80"/>
<text text-anchor="start" x="14.5" y="-98" font-family="Helvetica,sans-Serif" font-size="10.00">map&lt; string, slljit</text>
<text text-anchor="middle" x="75.5" y="-87" font-family="Helvetica,sans-Serif" font-size="10.00">::ConstantGlobalDefinition &gt;</text>
</a>
</g>
</g>
<!-- Node13&#45;&gt;Node9 -->
<g id="edge12" class="edge">
<title>Node13&#45;&gt;Node9</title>
<path fill="none" stroke="#9a32cd" stroke-dasharray="5,2" d="M154.92,-106.25C183.98,-111.58 216.93,-119.02 246,-129 254.46,-131.91 255.67,-134.73 264,-138 275.19,-142.39 287.73,-146.32 299,-149.52"/>
<polygon fill="#9a32cd" stroke="#9a32cd" points="155.28,-102.76 144.82,-104.45 154.05,-109.65 155.28,-102.76"/>
<text text-anchor="middle" x="207.5" y="-132" font-family="Helvetica,sans-Serif" font-size="10.00"> constant_globals</text>
</g>
<!-- Node14 -->
<g id="node14" class="node">
<title>Node14</title>
<g id="a_node14"><a xlink:title=" ">
<polygon fill="none" stroke="black" points="287,-99 287,-129 380,-129 380,-99 287,-99"/>
<text text-anchor="start" x="295" y="-117" font-family="Helvetica,sans-Serif" font-size="10.00">list&lt; map&lt; string,</text>
<text text-anchor="middle" x="333.5" y="-106" font-family="Helvetica,sans-Serif" font-size="10.00"> AllocaInst * &gt; &gt;</text>
</a>
</g>
</g>
<!-- Node14&#45;&gt;Node4 -->
<g id="edge13" class="edge">
<title>Node14&#45;&gt;Node4</title>
<path fill="none" stroke="#9a32cd" stroke-dasharray="5,2" d="M390.51,-117.47C424.75,-121.82 468.11,-131.52 501,-153 512.16,-160.29 508.42,-168.89 519,-177 523.93,-180.78 529.72,-183.92 535.53,-186.47"/>
<polygon fill="#9a32cd" stroke="#9a32cd" points="390.54,-113.95 380.21,-116.28 389.74,-120.9 390.54,-113.95"/>
<text text-anchor="middle" x="461" y="-156" font-family="Helvetica,sans-Serif" font-size="10.00"> scope_list</text>
</g>
<!-- Node15 -->
<g id="node15" class="node">
<title>Node15</title>
<g id="a_node15"><a xlink:title=" ">
<polygon fill="none" stroke="black" points="280,-38.5 280,-79.5 387,-79.5 387,-38.5 280,-38.5"/>
<text text-anchor="start" x="288" y="-67.5" font-family="Helvetica,sans-Serif" font-size="10.00">map&lt; std::string, std</text>
<text text-anchor="start" x="288" y="-56.5" font-family="Helvetica,sans-Serif" font-size="10.00">::unique_ptr&lt; slljit</text>
<text text-anchor="middle" x="333.5" y="-45.5" font-family="Helvetica,sans-Serif" font-size="10.00">::PrototypeAST &gt; &gt;</text>
</a>
</g>
</g>
<!-- Node15&#45;&gt;Node4 -->
<g id="edge14" class="edge">
<title>Node15&#45;&gt;Node4</title>
<path fill="none" stroke="#9a32cd" stroke-dasharray="5,2" d="M397.33,-63.13C432.3,-68.67 474.07,-81.16 501,-109 522.74,-131.47 498.28,-153.59 519,-177 522.41,-180.86 526.72,-183.94 531.34,-186.41"/>
<polygon fill="#9a32cd" stroke="#9a32cd" points="397.59,-59.64 387.2,-61.69 396.6,-66.57 397.59,-59.64"/>
<text text-anchor="middle" x="461" y="-112" font-family="Helvetica,sans-Serif" font-size="10.00"> FunctionProtos</text>
</g>
<!-- Node16 -->
<g id="node16" class="node">
<title>Node16</title>
<g id="a_node16"><a xlink:title=" ">
<polygon fill="none" stroke="black" points="289,-0.5 289,-19.5 378,-19.5 378,-0.5 289,-0.5"/>
<text text-anchor="middle" x="333.5" y="-7.5" font-family="Helvetica,sans-Serif" font-size="10.00">map&lt; char, int &gt;</text>
</a>
</g>
</g>
<!-- Node16&#45;&gt;Node4 -->
<g id="edge15" class="edge">
<title>Node16&#45;&gt;Node4</title>
<path fill="none" stroke="#9a32cd" stroke-dasharray="5,2" d="M388.3,-9.64C425.42,-12.43 472.97,-22.61 501,-54 537.8,-95.21 484.79,-133.62 519,-177 522.08,-180.91 526.09,-184.01 530.46,-186.48"/>
<polygon fill="#9a32cd" stroke="#9a32cd" points="388.32,-6.13 378.13,-9.03 387.9,-13.12 388.32,-6.13"/>
<text text-anchor="middle" x="461" y="-57" font-family="Helvetica,sans-Serif" font-size="10.00"> BinopPrecedence</text>
</g>
<!-- Node17 -->
<g id="node17" class="node">
<title>Node17</title>
<g id="a_node17"><a xlink:title=" ">
<polygon fill="none" stroke="black" points="547,-148.5 547,-167.5 588,-167.5 588,-148.5 547,-148.5"/>
<text text-anchor="middle" x="567.5" y="-155.5" font-family="Helvetica,sans-Serif" font-size="10.00">string</text>
</a>
</g>
</g>
<!-- Node17&#45;&gt;Node1 -->
<g id="edge16" class="edge">
<title>Node17&#45;&gt;Node1</title>
<path fill="none" stroke="#9a32cd" stroke-dasharray="5,2" d="M598.22,-157.2C626.72,-156.77 670.92,-156.99 709,-161 718.69,-162.02 729.01,-163.64 738.76,-165.43"/>
<polygon fill="#9a32cd" stroke="#9a32cd" points="598.04,-153.7 588.11,-157.39 598.18,-160.7 598.04,-153.7"/>
<text text-anchor="middle" x="671.5" y="-164" font-family="Helvetica,sans-Serif" font-size="10.00"> m_body</text>
</g>
<!-- Node18 -->
<g id="node18" class="node">
<title>Node18</title>
<g id="a_node18"><a xlink:title=" ">
<polygon fill="none" stroke="black" points="542,-110.5 542,-129.5 593,-129.5 593,-110.5 542,-110.5"/>
<text text-anchor="middle" x="567.5" y="-117.5" font-family="Helvetica,sans-Serif" font-size="10.00">R(*)(T *)</text>
</a>
</g>
</g>
<!-- Node18&#45;&gt;Node1 -->
<g id="edge17" class="edge">
<title>Node18&#45;&gt;Node1</title>
<path fill="none" stroke="#9a32cd" stroke-dasharray="5,2" d="M603.03,-122.82C631.82,-125.78 673.69,-131.52 709,-142 728.85,-147.89 750.31,-158 764.89,-165.48"/>
<polygon fill="#9a32cd" stroke="#9a32cd" points="603.34,-119.33 593.05,-121.85 602.67,-126.3 603.34,-119.33"/>
<text text-anchor="middle" x="671.5" y="-145" font-family="Helvetica,sans-Serif" font-size="10.00"> main_func</text>
</g>
</g>
</svg>
