<?xml version="1.0" encoding="UTF-8" standalone="no"?>
<!DOCTYPE svg PUBLIC "-//W3C//DTD SVG 1.1//EN"
 "http://www.w3.org/Graphics/SVG/1.1/DTD/svg11.dtd">
<!-- Generated by graphviz version 3.0.0 (20220226.1711)
 -->
<!-- Title: slljit::LocalContext::getBuilder Pages: 1 -->
<svg width="707pt" height="791pt"
 viewBox="0.00 0.00 707.00 791.00" xmlns="http://www.w3.org/2000/svg" xmlns:xlink="http://www.w3.org/1999/xlink">
<g id="graph0" class="graph" transform="scale(1 1) rotate(0) translate(4 787)">
<title>slljit::LocalContext::getBuilder</title>
<!-- Node1 -->
<g id="node1" class="node">
<title>Node1</title>
<g id="a_node1"><a xlink:title=" ">
<polygon fill="#bfbfbf" stroke="black" points="602,-425.5 602,-455.5 699,-455.5 699,-425.5 602,-425.5"/>
<text text-anchor="start" x="610" y="-443.5" font-family="Helvetica,sans-Serif" font-size="10.00">slljit::LocalContext</text>
<text text-anchor="middle" x="650.5" y="-432.5" font-family="Helvetica,sans-Serif" font-size="10.00">::getBuilder</text>
</a>
</g>
</g>
<!-- Node2 -->
<g id="node2" class="node">
<title>Node2</title>
<g id="a_node2"><a xlink:href="classslljit_1_1_variable_expr_a_s_t.html#aa67fa1ad8e3e12f0272ff1fda1674f99" target="_top" xlink:title=" ">
<polygon fill="none" stroke="black" points="452,-752.5 452,-782.5 566,-782.5 566,-752.5 452,-752.5"/>
<text text-anchor="start" x="460" y="-770.5" font-family="Helvetica,sans-Serif" font-size="10.00">slljit::VariableExprAST</text>
<text text-anchor="middle" x="509" y="-759.5" font-family="Helvetica,sans-Serif" font-size="10.00">::codegen</text>
</a>
</g>
</g>
<!-- Node1&#45;&gt;Node2 -->
<g id="edge1" class="edge">
<title>Node1&#45;&gt;Node2</title>
<path fill="none" stroke="midnightblue" d="M649.56,-465.72C648.37,-522.37 637.8,-661.2 566,-743.5 563.01,-746.93 559.44,-749.88 555.58,-752.42"/>
<polygon fill="midnightblue" stroke="midnightblue" points="653.07,-465.57 649.69,-455.52 646.07,-465.48 653.07,-465.57"/>
</g>
<!-- Node3 -->
<g id="node3" class="node">
<title>Node3</title>
<g id="a_node3"><a xlink:href="classslljit_1_1_unary_expr_a_s_t.html#a6f0dae838e2c5cde27bad14f9fea1cf1" target="_top" xlink:title=" ">
<polygon fill="none" stroke="black" points="457,-703.5 457,-733.5 561,-733.5 561,-703.5 457,-703.5"/>
<text text-anchor="start" x="465" y="-721.5" font-family="Helvetica,sans-Serif" font-size="10.00">slljit::UnaryExprAST</text>
<text text-anchor="middle" x="509" y="-710.5" font-family="Helvetica,sans-Serif" font-size="10.00">::codegen</text>
</a>
</g>
</g>
<!-- Node1&#45;&gt;Node3 -->
<g id="edge2" class="edge">
<title>Node1&#45;&gt;Node3</title>
<path fill="none" stroke="midnightblue" d="M647.79,-465.88C643.15,-515.61 626.26,-626.82 566,-693.5 562.5,-697.37 558.29,-700.68 553.77,-703.49"/>
<polygon fill="midnightblue" stroke="midnightblue" points="651.29,-465.96 648.64,-455.7 644.32,-465.37 651.29,-465.96"/>
</g>
<!-- Node4 -->
<g id="node4" class="node">
<title>Node4</title>
<g id="a_node4"><a xlink:href="classslljit_1_1_return_expr_a_s_t.html#ae28b151f271dec2884361a2d46556f87" target="_top" xlink:title=" ">
<polygon fill="none" stroke="black" points="148,-660.5 148,-690.5 255,-690.5 255,-660.5 148,-660.5"/>
<text text-anchor="start" x="156" y="-678.5" font-family="Helvetica,sans-Serif" font-size="10.00">slljit::ReturnExprAST</text>
<text text-anchor="middle" x="201.5" y="-667.5" font-family="Helvetica,sans-Serif" font-size="10.00">::codegen</text>
</a>
</g>
</g>
<!-- Node1&#45;&gt;Node4 -->
<g id="edge3" class="edge">
<title>Node1&#45;&gt;Node4</title>
<path fill="none" stroke="midnightblue" d="M640.85,-465.32C628.86,-496.06 604.25,-547.84 566,-576.5 472.04,-646.9 331.13,-667.25 255.31,-673.12"/>
<polygon fill="midnightblue" stroke="midnightblue" points="644.2,-466.36 644.44,-455.77 637.65,-463.9 644.2,-466.36"/>
</g>
<!-- Node5 -->
<g id="node5" class="node">
<title>Node5</title>
<g id="a_node5"><a xlink:href="classslljit_1_1_binary_expr_a_s_t.html#a4e15cb62043e37beafadeb7faf94d7ba" target="_top" xlink:title=" ">
<polygon fill="none" stroke="black" points="0,-324.5 0,-354.5 107,-354.5 107,-324.5 0,-324.5"/>
<text text-anchor="start" x="8" y="-342.5" font-family="Helvetica,sans-Serif" font-size="10.00">slljit::BinaryExprAST</text>
<text text-anchor="middle" x="53.5" y="-331.5" font-family="Helvetica,sans-Serif" font-size="10.00">::codegen</text>
</a>
</g>
</g>
<!-- Node1&#45;&gt;Node5 -->
<g id="edge4" class="edge">
<title>Node1&#45;&gt;Node5</title>
<path fill="none" stroke="midnightblue" d="M641.65,-415.75C630.37,-384.81 606.39,-333.07 566,-309.5 410.04,-218.48 179.79,-290.67 91.14,-324.47"/>
<polygon fill="midnightblue" stroke="midnightblue" points="638.4,-417.07 644.99,-425.37 645.01,-414.78 638.4,-417.07"/>
</g>
<!-- Node6 -->
<g id="node6" class="node">
<title>Node6</title>
<g id="a_node6"><a xlink:href="classslljit_1_1_call_expr_a_s_t.html#a0d196837649e9e0205fafddf2cd95068" target="_top" xlink:title=" ">
<polygon fill="none" stroke="black" points="154,-611.5 154,-641.5 249,-641.5 249,-611.5 154,-611.5"/>
<text text-anchor="start" x="162" y="-629.5" font-family="Helvetica,sans-Serif" font-size="10.00">slljit::CallExprAST</text>
<text text-anchor="middle" x="201.5" y="-618.5" font-family="Helvetica,sans-Serif" font-size="10.00">::codegen</text>
</a>
</g>
</g>
<!-- Node1&#45;&gt;Node6 -->
<g id="edge5" class="edge">
<title>Node1&#45;&gt;Node6</title>
<path fill="none" stroke="midnightblue" d="M636.69,-464.34C622.57,-488.31 597.6,-524.47 566,-544.5 513.48,-577.79 334.84,-607.33 249.13,-619.97"/>
<polygon fill="midnightblue" stroke="midnightblue" points="639.82,-465.93 641.73,-455.51 633.74,-462.46 639.82,-465.93"/>
</g>
<!-- Node7 -->
<g id="node7" class="node">
<title>Node7</title>
<g id="a_node7"><a xlink:href="classslljit_1_1_if_expr_a_s_t.html#a376bb50f865a795316ebf0710b4ac135" target="_top" xlink:title=" ">
<polygon fill="none" stroke="black" points="157,-562.5 157,-592.5 246,-592.5 246,-562.5 157,-562.5"/>
<text text-anchor="start" x="165" y="-580.5" font-family="Helvetica,sans-Serif" font-size="10.00">slljit::IfExprAST::</text>
<text text-anchor="middle" x="201.5" y="-569.5" font-family="Helvetica,sans-Serif" font-size="10.00">codegen</text>
</a>
</g>
</g>
<!-- Node1&#45;&gt;Node7 -->
<g id="edge6" class="edge">
<title>Node1&#45;&gt;Node7</title>
<path fill="none" stroke="midnightblue" d="M629.67,-463.15C614.04,-479.5 590.8,-500.69 566,-512.5 458.91,-563.47 316.77,-574.72 246.16,-577.04"/>
<polygon fill="midnightblue" stroke="midnightblue" points="632.46,-465.28 636.71,-455.57 627.34,-460.52 632.46,-465.28"/>
</g>
<!-- Node8 -->
<g id="node8" class="node">
<title>Node8</title>
<g id="a_node8"><a xlink:href="classslljit_1_1_for_expr_a_s_t.html#a0e8a98570a1b8c55617ee52b41922289" target="_top" xlink:title=" ">
<polygon fill="none" stroke="black" points="155,-513.5 155,-543.5 248,-543.5 248,-513.5 155,-513.5"/>
<text text-anchor="start" x="163" y="-531.5" font-family="Helvetica,sans-Serif" font-size="10.00">slljit::ForExprAST</text>
<text text-anchor="middle" x="201.5" y="-520.5" font-family="Helvetica,sans-Serif" font-size="10.00">::codegen</text>
</a>
</g>
</g>
<!-- Node1&#45;&gt;Node8 -->
<g id="edge7" class="edge">
<title>Node1&#45;&gt;Node8</title>
<path fill="none" stroke="midnightblue" d="M619.03,-461.04C603.75,-470.34 584.58,-480.56 566,-486.5 455.71,-521.74 318.23,-528.09 248.16,-528.83"/>
<polygon fill="midnightblue" stroke="midnightblue" points="620.93,-463.98 627.55,-455.71 617.21,-458.05 620.93,-463.98"/>
</g>
<!-- Node9 -->
<g id="node9" class="node">
<title>Node9</title>
<g id="a_node9"><a xlink:href="classslljit_1_1_var_expr_a_s_t.html#a6898396b719dec46fd30ab9cc9dfb7ac" target="_top" xlink:title=" ">
<polygon fill="none" stroke="black" points="154.5,-387.5 154.5,-417.5 248.5,-417.5 248.5,-387.5 154.5,-387.5"/>
<text text-anchor="start" x="162.5" y="-405.5" font-family="Helvetica,sans-Serif" font-size="10.00">slljit::VarExprAST</text>
<text text-anchor="middle" x="201.5" y="-394.5" font-family="Helvetica,sans-Serif" font-size="10.00">::codegen</text>
</a>
</g>
</g>
<!-- Node1&#45;&gt;Node9 -->
<g id="edge8" class="edge">
<title>Node1&#45;&gt;Node9</title>
<path fill="none" stroke="midnightblue" d="M594.72,-422.72C585.23,-420.23 575.4,-418.01 566,-416.5 453.14,-398.38 318.16,-398.88 248.76,-400.74"/>
<polygon fill="midnightblue" stroke="midnightblue" points="593.88,-426.12 604.45,-425.4 595.73,-419.37 593.88,-426.12"/>
</g>
<!-- Node10 -->
<g id="node10" class="node">
<title>Node10</title>
<g id="a_node10"><a xlink:href="classslljit_1_1_function_a_s_t.html#ad9580c93bf3b4c4cdce1606d2e1a7be5" target="_top" xlink:title=" ">
<polygon fill="none" stroke="black" points="461,-425.5 461,-455.5 557,-455.5 557,-425.5 461,-425.5"/>
<text text-anchor="start" x="469" y="-443.5" font-family="Helvetica,sans-Serif" font-size="10.00">slljit::FunctionAST</text>
<text text-anchor="middle" x="509" y="-432.5" font-family="Helvetica,sans-Serif" font-size="10.00">::codegen</text>
</a>
</g>
</g>
<!-- Node1&#45;&gt;Node10 -->
<g id="edge9" class="edge">
<title>Node1&#45;&gt;Node10</title>
<path fill="none" stroke="midnightblue" d="M591.59,-440.5C580.21,-440.5 568.39,-440.5 557.4,-440.5"/>
<polygon fill="midnightblue" stroke="midnightblue" points="591.88,-444 601.88,-440.5 591.88,-437 591.88,-444"/>
</g>
<!-- Node11 -->
<g id="node11" class="node">
<title>Node11</title>
<g id="a_node11"><a xlink:href="classslljit_1_1_code_gen.html#a0a1cd67519cb6405422e53cc87a1eb87" target="_top" xlink:title=" ">
<polygon fill="none" stroke="black" points="296,-147.5 296,-177.5 416,-177.5 416,-147.5 296,-147.5"/>
<text text-anchor="start" x="304" y="-165.5" font-family="Helvetica,sans-Serif" font-size="10.00">slljit::CodeGen::compile</text>
<text text-anchor="middle" x="356" y="-154.5" font-family="Helvetica,sans-Serif" font-size="10.00">_layout</text>
</a>
</g>
</g>
<!-- Node1&#45;&gt;Node11 -->
<g id="edge10" class="edge">
<title>Node1&#45;&gt;Node11</title>
<path fill="none" stroke="midnightblue" d="M649.47,-415.19C647.9,-363.33 636.36,-245.05 566,-187.5 524.56,-153.61 462.1,-150.32 416.26,-153.71"/>
<polygon fill="midnightblue" stroke="midnightblue" points="645.97,-415.28 649.67,-425.21 652.97,-415.14 645.97,-415.28"/>
</g>
<!-- Node14 -->
<g id="node14" class="node">
<title>Node14</title>
<g id="a_node14"><a xlink:href="namespaceslljit.html#aea3939a2e43afb64178ab98111878842" target="_top" xlink:title=" ">
<polygon fill="none" stroke="black" points="313,-235 313,-254 399,-254 399,-235 313,-235"/>
<text text-anchor="middle" x="356" y="-242" font-family="Helvetica,sans-Serif" font-size="10.00">slljit::CreateAdd</text>
</a>
</g>
</g>
<!-- Node1&#45;&gt;Node14 -->
<g id="edge13" class="edge">
<title>Node1&#45;&gt;Node14</title>
<path fill="none" stroke="midnightblue" d="M645.19,-415.55C637.1,-377 615.76,-303.77 566,-268.5 516.98,-233.76 444.66,-233.76 399.23,-238.19"/>
<polygon fill="midnightblue" stroke="midnightblue" points="641.77,-416.3 647.13,-425.44 648.64,-414.95 641.77,-416.3"/>
</g>
<!-- Node15 -->
<g id="node15" class="node">
<title>Node15</title>
<g id="a_node15"><a xlink:href="namespaceslljit.html#a3ebbdd40e29c1767c6b93fc3ed055a66" target="_top" xlink:title=" ">
<polygon fill="none" stroke="black" points="468.5,-197 468.5,-216 549.5,-216 549.5,-197 468.5,-197"/>
<text text-anchor="middle" x="509" y="-204" font-family="Helvetica,sans-Serif" font-size="10.00">slljit::CreateDiv</text>
</a>
</g>
</g>
<!-- Node1&#45;&gt;Node15 -->
<g id="edge15" class="edge">
<title>Node1&#45;&gt;Node15</title>
<path fill="none" stroke="midnightblue" d="M645.91,-415.47C638.49,-372.32 617.61,-283.49 566,-230.5 559.95,-224.29 552.03,-219.59 544.06,-216.08"/>
<polygon fill="midnightblue" stroke="midnightblue" points="642.47,-416.09 647.52,-425.4 649.38,-414.97 642.47,-416.09"/>
</g>
<!-- Node16 -->
<g id="node16" class="node">
<title>Node16</title>
<g id="a_node16"><a xlink:href="namespaceslljit.html#a35fd5437fe4da3972add655696b4ba1e" target="_top" xlink:title="Creates explict cast.">
<polygon fill="none" stroke="black" points="296.5,-475 296.5,-494 415.5,-494 415.5,-475 296.5,-475"/>
<text text-anchor="middle" x="356" y="-482" font-family="Helvetica,sans-Serif" font-size="10.00">slljit::CreateExplictCast</text>
</a>
</g>
</g>
<!-- Node1&#45;&gt;Node16 -->
<g id="edge17" class="edge">
<title>Node1&#45;&gt;Node16</title>
<path fill="none" stroke="midnightblue" d="M595.66,-458.34C585.87,-461.09 575.69,-463.63 566,-465.5 515.74,-475.21 457.69,-479.98 415.55,-482.32"/>
<polygon fill="midnightblue" stroke="midnightblue" points="596.65,-461.69 605.28,-455.54 594.7,-454.97 596.65,-461.69"/>
</g>
<!-- Node18 -->
<g id="node18" class="node">
<title>Node18</title>
<g id="a_node18"><a xlink:href="namespaceslljit.html#a5789671a8efffcee32738c80bafe9bd1" target="_top" xlink:title=" ">
<polygon fill="none" stroke="black" points="467,-665 467,-684 551,-684 551,-665 467,-665"/>
<text text-anchor="middle" x="509" y="-672" font-family="Helvetica,sans-Serif" font-size="10.00">slljit::CreateMul</text>
</a>
</g>
</g>
<!-- Node1&#45;&gt;Node18 -->
<g id="edge26" class="edge">
<title>Node1&#45;&gt;Node18</title>
<path fill="none" stroke="midnightblue" d="M645.91,-465.53C638.49,-508.68 617.61,-597.51 566,-650.5 559.95,-656.71 552.03,-661.41 544.06,-664.92"/>
<polygon fill="midnightblue" stroke="midnightblue" points="649.38,-466.03 647.52,-455.6 642.47,-464.91 649.38,-466.03"/>
</g>
<!-- Node19 -->
<g id="node19" class="node">
<title>Node19</title>
<g id="a_node19"><a xlink:href="namespaceslljit.html#a8803eadca4f0a1a6b5f7b8e4129cadd5" target="_top" xlink:title=" ">
<polygon fill="none" stroke="black" points="466,-349 466,-368 552,-368 552,-349 466,-349"/>
<text text-anchor="middle" x="509" y="-356" font-family="Helvetica,sans-Serif" font-size="10.00">slljit::CreateSub</text>
</a>
</g>
</g>
<!-- Node1&#45;&gt;Node19 -->
<g id="edge28" class="edge">
<title>Node1&#45;&gt;Node19</title>
<path fill="none" stroke="midnightblue" d="M621.71,-419.08C605.89,-407.43 585.41,-393.26 566,-382.5 556.29,-377.12 545.12,-372.11 535.33,-368.08"/>
<polygon fill="midnightblue" stroke="midnightblue" points="619.88,-422.08 629.99,-425.25 624.07,-416.47 619.88,-422.08"/>
</g>
<!-- Node20 -->
<g id="node20" class="node">
<title>Node20</title>
<g id="a_node20"><a xlink:href="namespaceslljit.html#a7fdacdf77d9c64b4680b66cfca539736" target="_top" xlink:title=" ">
<polygon fill="none" stroke="black" points="309.5,-311 309.5,-330 402.5,-330 402.5,-311 309.5,-311"/>
<text text-anchor="middle" x="356" y="-318" font-family="Helvetica,sans-Serif" font-size="10.00">slljit::CtreateCMP</text>
</a>
</g>
</g>
<!-- Node1&#45;&gt;Node20 -->
<g id="edge30" class="edge">
<title>Node1&#45;&gt;Node20</title>
<path fill="none" stroke="midnightblue" d="M637.07,-416.4C623.24,-392.37 598.51,-356.65 566,-339.5 514.92,-312.56 446.97,-311.7 402.63,-314.95"/>
<polygon fill="midnightblue" stroke="midnightblue" points="634.08,-418.23 641.99,-425.28 640.2,-414.84 634.08,-418.23"/>
</g>
<!-- Node21 -->
<g id="node21" class="node">
<title>Node21</title>
<g id="a_node21"><a xlink:href="namespaceslljit.html#ab200d7cf320fef1a4045511b03b4168b" target="_top" xlink:title="Translates TypeID types to llvm types.">
<polygon fill="none" stroke="black" points="459.5,-110 459.5,-129 558.5,-129 558.5,-110 459.5,-110"/>
<text text-anchor="middle" x="509" y="-117" font-family="Helvetica,sans-Serif" font-size="10.00">slljit::get_llvm_type</text>
</a>
</g>
</g>
<!-- Node1&#45;&gt;Node21 -->
<g id="edge32" class="edge">
<title>Node1&#45;&gt;Node21</title>
<path fill="none" stroke="midnightblue" d="M648.42,-415.13C644.9,-361.04 629.88,-232.73 566,-151.5 558.25,-141.64 546.56,-134.29 535.86,-129.13"/>
<polygon fill="midnightblue" stroke="midnightblue" points="644.93,-415.43 649,-425.21 651.92,-415.03 644.93,-415.43"/>
</g>
<!-- Node12 -->
<g id="node12" class="node">
<title>Node12</title>
<g id="a_node12"><a xlink:href="classslljit_1_1_program.html#ae4d26526a7dd9c69ebe92fb43736696b" target="_top" xlink:title=" ">
<polygon fill="none" stroke="black" points="143.5,-153 143.5,-172 259.5,-172 259.5,-153 143.5,-153"/>
<text text-anchor="middle" x="201.5" y="-160" font-family="Helvetica,sans-Serif" font-size="10.00">slljit::Program::compile</text>
</a>
</g>
</g>
<!-- Node11&#45;&gt;Node12 -->
<g id="edge11" class="edge">
<title>Node11&#45;&gt;Node12</title>
<path fill="none" stroke="midnightblue" d="M285.34,-162.5C276.85,-162.5 268.26,-162.5 259.98,-162.5"/>
<polygon fill="midnightblue" stroke="midnightblue" points="285.6,-166 295.6,-162.5 285.6,-159 285.6,-166"/>
</g>
<!-- Node13 -->
<g id="node13" class="node">
<title>Node13</title>
<g id="a_node13"><a xlink:href="compiler__cli_8cpp.html#a3c04138a5bfe5d72780bb7e82a18e627" target="_top" xlink:title=" ">
<polygon fill="none" stroke="black" points="34.5,-153 34.5,-172 72.5,-172 72.5,-153 34.5,-153"/>
<text text-anchor="middle" x="53.5" y="-160" font-family="Helvetica,sans-Serif" font-size="10.00">main</text>
</a>
</g>
</g>
<!-- Node12&#45;&gt;Node13 -->
<g id="edge12" class="edge">
<title>Node12&#45;&gt;Node13</title>
<path fill="none" stroke="midnightblue" d="M133.11,-162.5C110.95,-162.5 88.1,-162.5 72.79,-162.5"/>
<polygon fill="midnightblue" stroke="midnightblue" points="133.22,-166 143.22,-162.5 133.22,-159 133.22,-166"/>
</g>
<!-- Node14&#45;&gt;Node5 -->
<g id="edge14" class="edge">
<title>Node14&#45;&gt;Node5</title>
<path fill="none" stroke="midnightblue" d="M302.42,-242.46C258.24,-242.58 194.29,-247.15 143,-268.5 112.63,-281.14 84.22,-307.5 68.14,-324.31"/>
<polygon fill="midnightblue" stroke="midnightblue" points="302.63,-245.96 312.65,-242.5 302.67,-238.96 302.63,-245.96"/>
</g>
<!-- Node15&#45;&gt;Node5 -->
<g id="edge16" class="edge">
<title>Node15&#45;&gt;Node5</title>
<path fill="none" stroke="midnightblue" d="M458.07,-199.86C384.7,-192.48 245.39,-187.65 143,-239.5 105.15,-258.67 76.19,-301.53 62.75,-324.42"/>
<polygon fill="midnightblue" stroke="midnightblue" points="458.09,-203.39 468.41,-200.96 458.83,-196.42 458.09,-203.39"/>
</g>
<!-- Node16&#45;&gt;Node4 -->
<g id="edge18" class="edge">
<title>Node16&#45;&gt;Node4</title>
<path fill="none" stroke="midnightblue" d="M348.68,-503.98C336.64,-538.23 307.33,-609.61 260,-651.5 256.19,-654.87 251.85,-657.81 247.28,-660.37"/>
<polygon fill="midnightblue" stroke="midnightblue" points="352.08,-504.84 351.98,-494.24 345.45,-502.59 352.08,-504.84"/>
</g>
<!-- Node16&#45;&gt;Node5 -->
<g id="edge19" class="edge">
<title>Node16&#45;&gt;Node5</title>
<path fill="none" stroke="midnightblue" d="M286.17,-492.53C242.39,-494.35 186.04,-490.37 143,-465.5 98.79,-439.96 71.29,-382.39 60.17,-354.8"/>
<polygon fill="midnightblue" stroke="midnightblue" points="286.36,-496.02 296.16,-492 285.99,-489.03 286.36,-496.02"/>
</g>
<!-- Node16&#45;&gt;Node6 -->
<g id="edge20" class="edge">
<title>Node16&#45;&gt;Node6</title>
<path fill="none" stroke="midnightblue" d="M344.4,-502.76C328.82,-528.2 297.48,-574.35 260,-602.5 255.59,-605.81 250.65,-608.76 245.58,-611.35"/>
<polygon fill="midnightblue" stroke="midnightblue" points="347.45,-504.48 349.58,-494.1 341.44,-500.89 347.45,-504.48"/>
</g>
<!-- Node16&#45;&gt;Node7 -->
<g id="edge21" class="edge">
<title>Node16&#45;&gt;Node7</title>
<path fill="none" stroke="midnightblue" d="M335.62,-500.66C317.03,-515.64 287.77,-537.9 260,-553.5 254.34,-556.68 248.18,-559.69 242.05,-562.43"/>
<polygon fill="midnightblue" stroke="midnightblue" points="338.07,-503.18 343.6,-494.14 333.64,-497.76 338.07,-503.18"/>
</g>
<!-- Node16&#45;&gt;Node8 -->
<g id="edge22" class="edge">
<title>Node16&#45;&gt;Node8</title>
<path fill="none" stroke="midnightblue" d="M312.17,-496.86C292.25,-502.61 268.53,-509.45 248.25,-515.3"/>
<polygon fill="midnightblue" stroke="midnightblue" points="313.27,-500.18 321.91,-494.05 311.33,-493.46 313.27,-500.18"/>
</g>
<!-- Node16&#45;&gt;Node9 -->
<g id="edge23" class="edge">
<title>Node16&#45;&gt;Node9</title>
<path fill="none" stroke="midnightblue" d="M331.65,-469.32C312.72,-457.3 285.13,-440.43 260,-427.5 253.32,-424.06 246.07,-420.66 239.03,-417.53"/>
<polygon fill="midnightblue" stroke="midnightblue" points="329.9,-472.36 340.21,-474.8 333.67,-466.46 329.9,-472.36"/>
</g>
<!-- Node17 -->
<g id="node17" class="node">
<title>Node17</title>
<g id="a_node17"><a xlink:href="namespaceslljit.html#a998468289a7b7f80ec1b49aa930d5143" target="_top" xlink:title="Creates implict cast.">
<polygon fill="none" stroke="black" points="143,-437 143,-456 260,-456 260,-437 143,-437"/>
<text text-anchor="middle" x="201.5" y="-444" font-family="Helvetica,sans-Serif" font-size="10.00">slljit::CreateImplictCast</text>
</a>
</g>
</g>
<!-- Node16&#45;&gt;Node17 -->
<g id="edge24" class="edge">
<title>Node16&#45;&gt;Node17</title>
<path fill="none" stroke="midnightblue" d="M306.68,-472.46C285.38,-467.15 260.7,-461 240.71,-456.02"/>
<polygon fill="midnightblue" stroke="midnightblue" points="305.97,-475.89 316.52,-474.91 307.66,-469.1 305.97,-475.89"/>
</g>
<!-- Node17&#45;&gt;Node5 -->
<g id="edge25" class="edge">
<title>Node17&#45;&gt;Node5</title>
<path fill="none" stroke="midnightblue" d="M153.75,-433.15C150.01,-431.45 146.38,-429.58 143,-427.5 110.88,-407.77 81.54,-374.2 66.04,-354.73"/>
<polygon fill="midnightblue" stroke="midnightblue" points="152.59,-436.45 163.17,-436.97 155.23,-429.97 152.59,-436.45"/>
</g>
<!-- Node18&#45;&gt;Node5 -->
<g id="edge27" class="edge">
<title>Node18&#45;&gt;Node5</title>
<path fill="none" stroke="midnightblue" d="M457.44,-686.17C368.86,-705.33 190.53,-737.78 143,-700.5 86.64,-656.29 61.48,-417.28 55.79,-354.57"/>
<polygon fill="midnightblue" stroke="midnightblue" points="458.24,-689.58 467.26,-684.02 456.75,-682.74 458.24,-689.58"/>
</g>
<!-- Node19&#45;&gt;Node5 -->
<g id="edge29" class="edge">
<title>Node19&#45;&gt;Node5</title>
<path fill="none" stroke="midnightblue" d="M455.84,-356.42C385,-353.59 254.42,-348.31 143,-343.5 131.48,-343 119.11,-342.45 107.38,-341.93"/>
<polygon fill="midnightblue" stroke="midnightblue" points="455.71,-359.92 465.85,-356.82 455.99,-352.93 455.71,-359.92"/>
</g>
<!-- Node20&#45;&gt;Node5 -->
<g id="edge31" class="edge">
<title>Node20&#45;&gt;Node5</title>
<path fill="none" stroke="midnightblue" d="M299.11,-324.03C244.17,-327.51 160.95,-332.77 107.16,-336.17"/>
<polygon fill="midnightblue" stroke="midnightblue" points="299.6,-327.51 309.36,-323.39 299.16,-320.52 299.6,-327.51"/>
</g>
<!-- Node21&#45;&gt;Node11 -->
<g id="edge35" class="edge">
<title>Node21&#45;&gt;Node11</title>
<path fill="none" stroke="midnightblue" d="M464.74,-131.82C447.58,-136.71 427.68,-142.37 409.7,-147.49"/>
<polygon fill="midnightblue" stroke="midnightblue" points="465.83,-135.15 474.49,-129.04 463.91,-128.42 465.83,-135.15"/>
</g>
<!-- Node21&#45;&gt;Node16 -->
<g id="edge37" class="edge">
<title>Node21&#45;&gt;Node16</title>
<path fill="none" stroke="midnightblue" d="M490.43,-136.25C477.93,-149.14 461.69,-167.99 452,-187.5 421.13,-249.69 437.15,-273.37 416,-339.5 399.28,-391.79 372.21,-451.84 361.54,-474.85"/>
<polygon fill="midnightblue" stroke="midnightblue" points="493.05,-138.59 497.65,-129.05 488.1,-133.64 493.05,-138.59"/>
</g>
<!-- Node22 -->
<g id="node22" class="node">
<title>Node22</title>
<g id="a_node22"><a xlink:href="classslljit_1_1_number_expr_a_s_t.html#ad79c11f8409e5546997b0a45df15c400" target="_top" xlink:title=" ">
<polygon fill="none" stroke="black" points="299.5,-98.5 299.5,-128.5 412.5,-128.5 412.5,-98.5 299.5,-98.5"/>
<text text-anchor="start" x="307.5" y="-116.5" font-family="Helvetica,sans-Serif" font-size="10.00">slljit::NumberExprAST</text>
<text text-anchor="middle" x="356" y="-105.5" font-family="Helvetica,sans-Serif" font-size="10.00">::codegen</text>
</a>
</g>
</g>
<!-- Node21&#45;&gt;Node22 -->
<g id="edge33" class="edge">
<title>Node21&#45;&gt;Node22</title>
<path fill="none" stroke="midnightblue" d="M449.04,-117.16C437.05,-116.68 424.47,-116.18 412.61,-115.71"/>
<polygon fill="midnightblue" stroke="midnightblue" points="449.26,-120.67 459.39,-117.57 449.54,-113.67 449.26,-120.67"/>
</g>
<!-- Node23 -->
<g id="node23" class="node">
<title>Node23</title>
<g id="a_node23"><a xlink:href="classslljit_1_1_prototype_a_s_t.html#a1d3904bd14007f251959a6d795fe5564" target="_top" xlink:title=" ">
<polygon fill="none" stroke="black" points="305.5,-49.5 305.5,-79.5 406.5,-79.5 406.5,-49.5 305.5,-49.5"/>
<text text-anchor="start" x="313.5" y="-67.5" font-family="Helvetica,sans-Serif" font-size="10.00">slljit::PrototypeAST</text>
<text text-anchor="middle" x="356" y="-56.5" font-family="Helvetica,sans-Serif" font-size="10.00">::codegen</text>
</a>
</g>
</g>
<!-- Node21&#45;&gt;Node23 -->
<g id="edge34" class="edge">
<title>Node21&#45;&gt;Node23</title>
<path fill="none" stroke="midnightblue" d="M472.01,-106.39C449.87,-98.33 421.43,-87.97 398.36,-79.57"/>
<polygon fill="midnightblue" stroke="midnightblue" points="471.1,-109.79 481.7,-109.92 473.5,-103.21 471.1,-109.79"/>
</g>
<!-- Node24 -->
<g id="node24" class="node">
<title>Node24</title>
<g id="a_node24"><a xlink:href="group___a_s_t.html#gabcb945acbdbc0f45bff6200e7b52fea7" target="_top" xlink:title=" ">
<polygon fill="none" stroke="black" points="298,-0.5 298,-30.5 414,-30.5 414,-0.5 298,-0.5"/>
<text text-anchor="start" x="306" y="-18.5" font-family="Helvetica,sans-Serif" font-size="10.00">slljit::CreateEntryBlock</text>
<text text-anchor="middle" x="356" y="-7.5" font-family="Helvetica,sans-Serif" font-size="10.00">Alloca</text>
</a>
</g>
</g>
<!-- Node21&#45;&gt;Node24 -->
<g id="edge36" class="edge">
<title>Node21&#45;&gt;Node24</title>
<path fill="none" stroke="midnightblue" d="M492.04,-102.66C474.67,-85.07 445.4,-57.57 416,-39.5 410.72,-36.26 404.93,-33.29 399.1,-30.62"/>
<polygon fill="midnightblue" stroke="midnightblue" points="489.67,-105.24 499.15,-109.98 494.69,-100.36 489.67,-105.24"/>
</g>
</g>
</svg>
