<?xml version="1.0" encoding="UTF-8" standalone="no"?>
<!DOCTYPE svg PUBLIC "-//W3C//DTD SVG 1.1//EN"
 "http://www.w3.org/Graphics/SVG/1.1/DTD/svg11.dtd">
<!-- Generated by graphviz version 3.0.0 (20220226.1711)
 -->
<!-- Title: slljit::LocalContext::getJITDylib Pages: 1 -->
<svg width="487pt" height="53pt"
 viewBox="0.00 0.00 487.00 52.50" xmlns="http://www.w3.org/2000/svg" xmlns:xlink="http://www.w3.org/1999/xlink">
<g id="graph0" class="graph" transform="scale(1 1) rotate(0) translate(4 48.5)">
<title>slljit::LocalContext::getJITDylib</title>
<!-- Node1 -->
<g id="node1" class="node">
<title>Node1</title>
<g id="a_node1"><a xlink:title=" ">
<polygon fill="#bfbfbf" stroke="black" points="382,-14 382,-44 479,-44 479,-14 382,-14"/>
<text text-anchor="start" x="390" y="-32" font-family="Helvetica,sans-Serif" font-size="10.00">slljit::LocalContext</text>
<text text-anchor="middle" x="430.5" y="-21" font-family="Helvetica,sans-Serif" font-size="10.00">::getJITDylib</text>
</a>
</g>
</g>
<!-- Node2 -->
<g id="node2" class="node">
<title>Node2</title>
<g id="a_node2"><a xlink:href="classslljit_1_1_program.html#ae4d26526a7dd9c69ebe92fb43736696b" target="_top" xlink:title=" ">
<polygon fill="none" stroke="black" points="74,-19.5 74,-38.5 190,-38.5 190,-19.5 74,-19.5"/>
<text text-anchor="middle" x="132" y="-26.5" font-family="Helvetica,sans-Serif" font-size="10.00">slljit::Program::compile</text>
</a>
</g>
</g>
<!-- Node1&#45;&gt;Node2 -->
<g id="edge1" class="edge">
<title>Node1&#45;&gt;Node2</title>
<path fill="none" stroke="midnightblue" d="M371.72,-29C319.28,-29 242.41,-29 190.17,-29"/>
<polygon fill="midnightblue" stroke="midnightblue" points="371.86,-32.5 381.86,-29 371.86,-25.5 371.86,-32.5"/>
</g>
<!-- Node4 -->
<g id="node4" class="node">
<title>Node4</title>
<g id="a_node4"><a xlink:href="classslljit_1_1_code_gen.html#a2f9a2e9e55e24a7aee76846e055d1dae" target="_top" xlink:title=" ">
<polygon fill="none" stroke="black" points="226,-0.5 226,-19.5 346,-19.5 346,-0.5 226,-0.5"/>
<text text-anchor="middle" x="286" y="-7.5" font-family="Helvetica,sans-Serif" font-size="10.00">slljit::CodeGen::compile</text>
</a>
</g>
</g>
<!-- Node1&#45;&gt;Node4 -->
<g id="edge3" class="edge">
<title>Node1&#45;&gt;Node4</title>
<path fill="none" stroke="midnightblue" d="M371.57,-21.28C363.18,-20.16 354.53,-19 346.11,-17.88"/>
<polygon fill="midnightblue" stroke="midnightblue" points="371.28,-24.77 381.65,-22.62 372.2,-17.83 371.28,-24.77"/>
</g>
<!-- Node3 -->
<g id="node3" class="node">
<title>Node3</title>
<g id="a_node3"><a xlink:href="compiler__cli_8cpp.html#a3c04138a5bfe5d72780bb7e82a18e627" target="_top" xlink:title=" ">
<polygon fill="none" stroke="black" points="0,-19.5 0,-38.5 38,-38.5 38,-19.5 0,-19.5"/>
<text text-anchor="middle" x="19" y="-26.5" font-family="Helvetica,sans-Serif" font-size="10.00">main</text>
</a>
</g>
</g>
<!-- Node2&#45;&gt;Node3 -->
<g id="edge2" class="edge">
<title>Node2&#45;&gt;Node3</title>
<path fill="none" stroke="midnightblue" d="M63.62,-29C54.3,-29 45.44,-29 38.18,-29"/>
<polygon fill="midnightblue" stroke="midnightblue" points="63.87,-32.5 73.87,-29 63.87,-25.5 63.87,-32.5"/>
</g>
<!-- Node4&#45;&gt;Node2 -->
<g id="edge4" class="edge">
<title>Node4&#45;&gt;Node2</title>
<path fill="none" stroke="midnightblue" d="M215.85,-18.64C207.3,-19.71 198.64,-20.8 190.3,-21.84"/>
<polygon fill="midnightblue" stroke="midnightblue" points="216.31,-22.11 225.8,-17.4 215.44,-15.17 216.31,-22.11"/>
</g>
</g>
</svg>
