<?xml version="1.0" encoding="UTF-8" standalone="no"?>
<!DOCTYPE svg PUBLIC "-//W3C//DTD SVG 1.1//EN"
 "http://www.w3.org/Graphics/SVG/1.1/DTD/svg11.dtd">
<!-- Generated by graphviz version 3.0.0 (20220226.1711)
 -->
<!-- Title: slljit::Tokenizer::get_identifier Pages: 1 -->
<svg width="1931pt" height="350pt"
 viewBox="0.00 0.00 1931.00 349.78" xmlns="http://www.w3.org/2000/svg" xmlns:xlink="http://www.w3.org/1999/xlink">
<g id="graph0" class="graph" transform="scale(1 1) rotate(0) translate(4 345.78)">
<title>slljit::Tokenizer::get_identifier</title>
<!-- Node1 -->
<g id="node1" class="node">
<title>Node1</title>
<g id="a_node1"><a xlink:title=" ">
<polygon fill="#bfbfbf" stroke="black" points="1835,-23 1835,-53 1923,-53 1923,-23 1835,-23"/>
<text text-anchor="start" x="1843" y="-41" font-family="Helvetica,sans-Serif" font-size="10.00">slljit::Tokenizer::</text>
<text text-anchor="middle" x="1879" y="-30" font-family="Helvetica,sans-Serif" font-size="10.00">get_identifier</text>
</a>
</g>
</g>
<!-- Node2 -->
<g id="node2" class="node">
<title>Node2</title>
<g id="a_node2"><a xlink:href="classslljit_1_1_parser.html#a25cfefcbeea85744e23370d3a6f8ad5b" target="_top" xlink:title=" ">
<polygon fill="none" stroke="black" points="1643,-104.5 1643,-123.5 1799,-123.5 1799,-104.5 1643,-104.5"/>
<text text-anchor="middle" x="1721" y="-111.5" font-family="Helvetica,sans-Serif" font-size="10.00">slljit::Parser::ParseIdentifierExpr</text>
</a>
</g>
</g>
<!-- Node1&#45;&gt;Node2 -->
<g id="edge1" class="edge">
<title>Node1&#45;&gt;Node2</title>
<path fill="none" stroke="midnightblue" d="M1837.99,-57.49C1807.21,-72.49 1765.98,-92.57 1741.88,-104.32"/>
<polygon fill="midnightblue" stroke="midnightblue" points="1839.72,-60.54 1847.18,-53.02 1836.66,-54.25 1839.72,-60.54"/>
</g>
<!-- Node16 -->
<g id="node16" class="node">
<title>Node16</title>
<g id="a_node16"><a xlink:href="classslljit_1_1_parser.html#a435877d3f2869d140a7cca646546a114" target="_top" xlink:title="varexpr ::= &#39;g_var&#39; identifier (&#39;=&#39; expression)?">
<polygon fill="none" stroke="black" points="791.5,-66.5 791.5,-85.5 926.5,-85.5 926.5,-66.5 791.5,-66.5"/>
<text text-anchor="middle" x="859" y="-73.5" font-family="Helvetica,sans-Serif" font-size="10.00">slljit::Parser::ParseVarExpr</text>
</a>
</g>
</g>
<!-- Node1&#45;&gt;Node16 -->
<g id="edge31" class="edge">
<title>Node1&#45;&gt;Node16</title>
<path fill="none" stroke="midnightblue" d="M1824.69,-38C1758.26,-38 1641.24,-38 1541,-38 1541,-38 1541,-38 1218,-38 1110.34,-38 985.48,-55.2 915.31,-66.46"/>
<polygon fill="midnightblue" stroke="midnightblue" points="1824.91,-41.5 1834.91,-38 1824.91,-34.5 1824.91,-41.5"/>
</g>
<!-- Node17 -->
<g id="node17" class="node">
<title>Node17</title>
<g id="a_node17"><a xlink:href="classslljit_1_1_parser.html#ad51a4352241881b5c6d118db9ccdec46" target="_top" xlink:title=" ">
<polygon fill="none" stroke="black" points="788,-9.5 788,-28.5 930,-28.5 930,-9.5 788,-9.5"/>
<text text-anchor="middle" x="859" y="-16.5" font-family="Helvetica,sans-Serif" font-size="10.00">slljit::Parser::ParsePrototype</text>
</a>
</g>
</g>
<!-- Node1&#45;&gt;Node17 -->
<g id="edge26" class="edge">
<title>Node1&#45;&gt;Node17</title>
<path fill="none" stroke="midnightblue" d="M1824.71,-27.94C1816.13,-26.5 1807.33,-25.12 1799,-24 1684.87,-8.61 1656.16,0 1541,0 1541,0 1541,0 1218,0 1117.95,0 1002.39,-7.49 930.25,-13.07"/>
<polygon fill="midnightblue" stroke="midnightblue" points="1824.19,-31.4 1834.64,-29.65 1825.38,-24.5 1824.19,-31.4"/>
</g>
<!-- Node3 -->
<g id="node3" class="node">
<title>Node3</title>
<g id="a_node3"><a xlink:href="classslljit_1_1_parser.html#a45cb3e4f600e8e2c253490e7d878e8cd" target="_top" xlink:title=" ">
<polygon fill="none" stroke="black" points="1473,-220.5 1473,-239.5 1607,-239.5 1607,-220.5 1473,-220.5"/>
<text text-anchor="middle" x="1540" y="-227.5" font-family="Helvetica,sans-Serif" font-size="10.00">slljit::Parser::ParsePrimary</text>
</a>
</g>
</g>
<!-- Node2&#45;&gt;Node3 -->
<g id="edge2" class="edge">
<title>Node2&#45;&gt;Node3</title>
<path fill="none" stroke="midnightblue" d="M1696.3,-129.36C1658.77,-153.68 1586.78,-200.33 1555.79,-220.42"/>
<polygon fill="midnightblue" stroke="midnightblue" points="1698.56,-132.07 1705.05,-123.69 1694.75,-126.19 1698.56,-132.07"/>
</g>
<!-- Node4 -->
<g id="node4" class="node">
<title>Node4</title>
<g id="a_node4"><a xlink:href="classslljit_1_1_parser.html#af8579896f39ac563d2edd14404d70f41" target="_top" xlink:title=" ">
<polygon fill="none" stroke="black" points="1312,-192.5 1312,-211.5 1437,-211.5 1437,-192.5 1312,-192.5"/>
<text text-anchor="middle" x="1374.5" y="-199.5" font-family="Helvetica,sans-Serif" font-size="10.00">slljit::Parser::ParseUnary</text>
</a>
</g>
</g>
<!-- Node3&#45;&gt;Node4 -->
<g id="edge3" class="edge">
<title>Node3&#45;&gt;Node4</title>
<path fill="none" stroke="midnightblue" d="M1473.16,-218.72C1459.2,-216.33 1444.59,-213.83 1431.06,-211.51"/>
<polygon fill="midnightblue" stroke="midnightblue" points="1472.74,-222.2 1483.19,-220.44 1473.92,-215.3 1472.74,-222.2"/>
</g>
<!-- Node4&#45;&gt;Node4 -->
<g id="edge25" class="edge">
<title>Node4&#45;&gt;Node4</title>
<path fill="none" stroke="midnightblue" d="M1403.25,-220.65C1402.04,-225.94 1392.46,-230 1374.5,-230 1347.13,-230 1339.22,-220.57 1350.76,-211.76"/>
<polygon fill="midnightblue" stroke="midnightblue" points="1406.19,-218.75 1398.24,-211.76 1400.09,-222.19 1406.19,-218.75"/>
</g>
<!-- Node5 -->
<g id="node5" class="node">
<title>Node5</title>
<g id="a_node5"><a xlink:href="classslljit_1_1_parser.html#ae387c9672ec50720d8cb969558aedbe9" target="_top" xlink:title=" ">
<polygon fill="none" stroke="black" points="1162,-143 1162,-173 1276,-173 1276,-143 1162,-143"/>
<text text-anchor="start" x="1170" y="-161" font-family="Helvetica,sans-Serif" font-size="10.00">slljit::Parser::ParseBin</text>
<text text-anchor="middle" x="1219" y="-150" font-family="Helvetica,sans-Serif" font-size="10.00">OpRHS</text>
</a>
</g>
</g>
<!-- Node4&#45;&gt;Node5 -->
<g id="edge4" class="edge">
<title>Node4&#45;&gt;Node5</title>
<path fill="none" stroke="midnightblue" d="M1330.55,-189.69C1312.56,-184.53 1291.47,-178.49 1272.56,-173.07"/>
<polygon fill="midnightblue" stroke="midnightblue" points="1329.62,-193.06 1340.19,-192.45 1331.54,-186.33 1329.62,-193.06"/>
</g>
<!-- Node6 -->
<g id="node6" class="node">
<title>Node6</title>
<g id="a_node6"><a xlink:href="classslljit_1_1_parser.html#a79461bf414d03dcabb49d3bbd6f89607" target="_top" xlink:title=" ">
<polygon fill="none" stroke="black" points="977,-151.5 977,-170.5 1126,-170.5 1126,-151.5 977,-151.5"/>
<text text-anchor="middle" x="1051.5" y="-158.5" font-family="Helvetica,sans-Serif" font-size="10.00">slljit::Parser::ParseExpression</text>
</a>
</g>
</g>
<!-- Node4&#45;&gt;Node6 -->
<g id="edge24" class="edge">
<title>Node4&#45;&gt;Node6</title>
<path fill="none" stroke="midnightblue" d="M1301.69,-207.76C1260.49,-209.54 1207.98,-209.25 1162,-201 1129.33,-195.14 1093.58,-180.37 1072.1,-170.51"/>
<polygon fill="midnightblue" stroke="midnightblue" points="1302.09,-211.24 1311.91,-207.26 1301.75,-204.25 1302.09,-211.24"/>
</g>
<!-- Node5&#45;&gt;Node5 -->
<g id="edge5" class="edge">
<title>Node5&#45;&gt;Node5</title>
<path fill="none" stroke="midnightblue" d="M1246.36,-183.46C1242.97,-188.18 1233.85,-191.5 1219,-191.5 1194.64,-191.5 1185.69,-182.56 1192.16,-173.16"/>
<polygon fill="midnightblue" stroke="midnightblue" points="1249.84,-182.97 1245.84,-173.16 1242.85,-183.32 1249.84,-182.97"/>
</g>
<!-- Node5&#45;&gt;Node6 -->
<g id="edge6" class="edge">
<title>Node5&#45;&gt;Node6</title>
<path fill="none" stroke="midnightblue" d="M1151.8,-159.2C1143.34,-159.35 1134.64,-159.51 1126.08,-159.67"/>
<polygon fill="midnightblue" stroke="midnightblue" points="1152.03,-162.7 1161.97,-159.02 1151.91,-155.7 1152.03,-162.7"/>
</g>
<!-- Node6&#45;&gt;Node2 -->
<g id="edge18" class="edge">
<title>Node6&#45;&gt;Node2</title>
<path fill="none" stroke="midnightblue" d="M1093.68,-148.72C1114.04,-143.19 1139.11,-137.2 1162,-134 1332.41,-110.2 1534.77,-109.79 1642.84,-111.77"/>
<polygon fill="midnightblue" stroke="midnightblue" points="1092.49,-145.41 1083.79,-151.46 1094.36,-152.16 1092.49,-145.41"/>
</g>
<!-- Node7 -->
<g id="node7" class="node">
<title>Node7</title>
<g id="a_node7"><a xlink:href="classslljit_1_1_parser.html#acc431005ac3dd38732083d7a1bb0eab2" target="_top" xlink:title=" ">
<polygon fill="none" stroke="black" points="777,-119.5 777,-138.5 941,-138.5 941,-119.5 777,-119.5"/>
<text text-anchor="middle" x="859" y="-126.5" font-family="Helvetica,sans-Serif" font-size="10.00">slljit::Parser::ParseExpressionList</text>
</a>
</g>
</g>
<!-- Node6&#45;&gt;Node7 -->
<g id="edge7" class="edge">
<title>Node6&#45;&gt;Node7</title>
<path fill="none" stroke="midnightblue" d="M983.96,-149.82C962.04,-146.14 937.88,-142.08 916.75,-138.53"/>
<polygon fill="midnightblue" stroke="midnightblue" points="983.42,-153.28 993.86,-151.49 984.58,-146.38 983.42,-153.28"/>
</g>
<!-- Node8 -->
<g id="node8" class="node">
<title>Node8</title>
<g id="a_node8"><a xlink:href="classslljit_1_1_parser.html#a81023e7a6221eb6b92027bd21433c9dd" target="_top" xlink:title="forexpr ::= &#39;for&#39; identifier &#39;=&#39; expr &#39;,&#39; expr (&#39;,&#39; expr)? &#39;in&#39; expression">
<polygon fill="none" stroke="black" points="607,-195.5 607,-214.5 741,-214.5 741,-195.5 607,-195.5"/>
<text text-anchor="middle" x="674" y="-202.5" font-family="Helvetica,sans-Serif" font-size="10.00">slljit::Parser::ParseForExpr</text>
</a>
</g>
</g>
<!-- Node6&#45;&gt;Node8 -->
<g id="edge17" class="edge">
<title>Node6&#45;&gt;Node8</title>
<path fill="none" stroke="midnightblue" d="M982.95,-172.06C969.09,-174.17 954.59,-176.26 941,-178 873.09,-186.71 795.13,-194.35 741.25,-199.26"/>
<polygon fill="midnightblue" stroke="midnightblue" points="983.55,-175.51 992.9,-170.53 982.48,-168.59 983.55,-175.51"/>
</g>
<!-- Node9 -->
<g id="node9" class="node">
<title>Node9</title>
<g id="a_node9"><a xlink:href="classslljit_1_1_parser.html#a149f5e88cb03aa08c388e6320c6c1bac" target="_top" xlink:title="ifexpr ::= &#39;if&#39; expression &#39;then&#39; expression &#39;else&#39; expression">
<polygon fill="none" stroke="black" points="611.5,-157.5 611.5,-176.5 736.5,-176.5 736.5,-157.5 611.5,-157.5"/>
<text text-anchor="middle" x="674" y="-164.5" font-family="Helvetica,sans-Serif" font-size="10.00">slljit::Parser::ParseIfExpr</text>
</a>
</g>
</g>
<!-- Node6&#45;&gt;Node9 -->
<g id="edge19" class="edge">
<title>Node6&#45;&gt;Node9</title>
<path fill="none" stroke="midnightblue" d="M966.69,-162.34C897.03,-163.45 799.48,-165.01 736.76,-166.01"/>
<polygon fill="midnightblue" stroke="midnightblue" points="966.82,-165.84 976.76,-162.18 966.71,-158.84 966.82,-165.84"/>
</g>
<!-- Node15 -->
<g id="node15" class="node">
<title>Node15</title>
<g id="a_node15"><a xlink:href="classslljit_1_1_parser.html#a6e2e0f6a2cc445f3a956db59c8d2da66" target="_top" xlink:title="parenexpr ::= &#39;(&#39; expression &#39;)&#39;">
<polygon fill="none" stroke="black" points="786,-245.5 786,-264.5 932,-264.5 932,-245.5 786,-245.5"/>
<text text-anchor="middle" x="859" y="-252.5" font-family="Helvetica,sans-Serif" font-size="10.00">slljit::Parser::ParseParenExpr</text>
</a>
</g>
</g>
<!-- Node6&#45;&gt;Node15 -->
<g id="edge20" class="edge">
<title>Node6&#45;&gt;Node15</title>
<path fill="none" stroke="midnightblue" d="M1024.19,-175.59C1002.17,-187.64 969.82,-204.98 941,-219 921.49,-228.49 898.9,-238.45 882.54,-245.48"/>
<polygon fill="midnightblue" stroke="midnightblue" points="1026.16,-178.5 1033.24,-170.62 1022.79,-172.36 1026.16,-178.5"/>
</g>
<!-- Node6&#45;&gt;Node16 -->
<g id="edge22" class="edge">
<title>Node6&#45;&gt;Node16</title>
<path fill="none" stroke="midnightblue" d="M1021.29,-147.03C999.32,-136.6 968.4,-122.12 941,-110 921.75,-101.48 899.72,-92.27 883.5,-85.58"/>
<polygon fill="midnightblue" stroke="midnightblue" points="1019.89,-150.23 1030.42,-151.37 1022.9,-143.91 1019.89,-150.23"/>
</g>
<!-- Node7&#45;&gt;Node8 -->
<g id="edge8" class="edge">
<title>Node7&#45;&gt;Node8</title>
<path fill="none" stroke="midnightblue" d="M831.66,-143.47C808.32,-155.89 773.07,-173.68 741,-186 731.87,-189.51 721.82,-192.72 712.37,-195.46"/>
<polygon fill="midnightblue" stroke="midnightblue" points="833.43,-146.49 840.59,-138.67 830.12,-140.32 833.43,-146.49"/>
</g>
<!-- Node7&#45;&gt;Node9 -->
<g id="edge10" class="edge">
<title>Node7&#45;&gt;Node9</title>
<path fill="none" stroke="midnightblue" d="M801.75,-140.68C775.79,-146.07 745.38,-152.39 720.85,-157.48"/>
<polygon fill="midnightblue" stroke="midnightblue" points="802.74,-144.05 811.82,-138.59 801.32,-137.2 802.74,-144.05"/>
</g>
<!-- Node10 -->
<g id="node10" class="node">
<title>Node10</title>
<g id="a_node10"><a xlink:href="classslljit_1_1_parser.html#aa9a9ce164e114ad7f347f32329f5a5a2" target="_top" xlink:title="definition ::= &#39;def&#39; prototype expression">
<polygon fill="none" stroke="black" points="616,-48 616,-78 732,-78 732,-48 616,-48"/>
<text text-anchor="start" x="624" y="-66" font-family="Helvetica,sans-Serif" font-size="10.00">slljit::Parser::ParseTop</text>
<text text-anchor="middle" x="674" y="-55" font-family="Helvetica,sans-Serif" font-size="10.00">LevelTypedExpression</text>
</a>
</g>
</g>
<!-- Node7&#45;&gt;Node10 -->
<g id="edge12" class="edge">
<title>Node7&#45;&gt;Node10</title>
<path fill="none" stroke="midnightblue" d="M821.68,-115.9C791.49,-105.01 748.52,-89.52 716.89,-78.11"/>
<polygon fill="midnightblue" stroke="midnightblue" points="820.8,-119.3 831.39,-119.4 823.17,-112.72 820.8,-119.3"/>
</g>
<!-- Node8&#45;&gt;Node3 -->
<g id="edge9" class="edge">
<title>Node8&#45;&gt;Node3</title>
<path fill="none" stroke="midnightblue" d="M686.44,-223.17C703.04,-247.72 736.29,-290.65 777,-310 887.21,-362.38 928.48,-334 1050.5,-334 1220,-334 1220,-334 1220,-334 1317.03,-334 1347.17,-346.68 1437,-310 1476.8,-293.75 1513.99,-257.22 1530.31,-239.71"/>
<polygon fill="midnightblue" stroke="midnightblue" points="689.33,-221.19 680.92,-214.74 683.47,-225.02 689.33,-221.19"/>
</g>
<!-- Node9&#45;&gt;Node3 -->
<g id="edge11" class="edge">
<title>Node9&#45;&gt;Node3</title>
<path fill="none" stroke="midnightblue" d="M735.36,-181.63C737.34,-182.96 739.23,-184.41 741,-186 772.45,-214.22 742.89,-249.06 777,-274 826.22,-309.99 989.53,-296 1050.5,-296 1220,-296 1220,-296 1220,-296 1330,-296 1456.99,-257.9 1511.66,-239.6"/>
<polygon fill="midnightblue" stroke="midnightblue" points="736.59,-178.31 726.14,-176.52 733.19,-184.43 736.59,-178.31"/>
</g>
<!-- Node11 -->
<g id="node11" class="node">
<title>Node11</title>
<g id="a_node11"><a xlink:href="classslljit_1_1_parser.html#af0cac4623fc05b8b7ae9884b0aeb3d3f" target="_top" xlink:title=" ">
<polygon fill="none" stroke="black" points="439,-48 439,-78 570,-78 570,-48 439,-48"/>
<text text-anchor="start" x="447" y="-66" font-family="Helvetica,sans-Serif" font-size="10.00">slljit::Parser::HandleTyped</text>
<text text-anchor="middle" x="504.5" y="-55" font-family="Helvetica,sans-Serif" font-size="10.00">Expression</text>
</a>
</g>
</g>
<!-- Node10&#45;&gt;Node11 -->
<g id="edge13" class="edge">
<title>Node10&#45;&gt;Node11</title>
<path fill="none" stroke="midnightblue" d="M605.68,-63C593.97,-63 581.82,-63 570.19,-63"/>
<polygon fill="midnightblue" stroke="midnightblue" points="605.82,-66.5 615.82,-63 605.82,-59.5 605.82,-66.5"/>
</g>
<!-- Node12 -->
<g id="node12" class="node">
<title>Node12</title>
<g id="a_node12"><a xlink:href="classslljit_1_1_parser.html#ae2d3d6534b87da7f237c19129a464bda" target="_top" xlink:title="top ::= definition | external | expression | &#39;;&#39;">
<polygon fill="none" stroke="black" points="286,-31.5 286,-50.5 402,-50.5 402,-31.5 286,-31.5"/>
<text text-anchor="middle" x="344" y="-38.5" font-family="Helvetica,sans-Serif" font-size="10.00">slljit::Parser::MainLoop</text>
</a>
</g>
</g>
<!-- Node11&#45;&gt;Node12 -->
<g id="edge14" class="edge">
<title>Node11&#45;&gt;Node12</title>
<path fill="none" stroke="midnightblue" d="M428.61,-52.6C419.73,-51.37 410.78,-50.13 402.21,-48.94"/>
<polygon fill="midnightblue" stroke="midnightblue" points="428.19,-56.08 438.57,-53.99 429.15,-49.15 428.19,-56.08"/>
</g>
<!-- Node13 -->
<g id="node13" class="node">
<title>Node13</title>
<g id="a_node13"><a xlink:href="classslljit_1_1_parser.html#a2429935f3c870648f9f895a7b2361cfb" target="_top" xlink:title=" ">
<polygon fill="none" stroke="black" points="152,-31.5 152,-50.5 250,-50.5 250,-31.5 152,-31.5"/>
<text text-anchor="middle" x="201" y="-38.5" font-family="Helvetica,sans-Serif" font-size="10.00">slljit::Parser::parse</text>
</a>
</g>
</g>
<!-- Node12&#45;&gt;Node13 -->
<g id="edge15" class="edge">
<title>Node12&#45;&gt;Node13</title>
<path fill="none" stroke="midnightblue" d="M275.37,-41C266.9,-41 258.37,-41 250.28,-41"/>
<polygon fill="midnightblue" stroke="midnightblue" points="275.65,-44.5 285.65,-41 275.65,-37.5 275.65,-44.5"/>
</g>
<!-- Node14 -->
<g id="node14" class="node">
<title>Node14</title>
<g id="a_node14"><a xlink:href="classslljit_1_1_program.html#ae4d26526a7dd9c69ebe92fb43736696b" target="_top" xlink:title=" ">
<polygon fill="none" stroke="black" points="0,-31.5 0,-50.5 116,-50.5 116,-31.5 0,-31.5"/>
<text text-anchor="middle" x="58" y="-38.5" font-family="Helvetica,sans-Serif" font-size="10.00">slljit::Program::compile</text>
</a>
</g>
</g>
<!-- Node13&#45;&gt;Node14 -->
<g id="edge16" class="edge">
<title>Node13&#45;&gt;Node14</title>
<path fill="none" stroke="midnightblue" d="M141.72,-41C133.27,-41 124.58,-41 116.16,-41"/>
<polygon fill="midnightblue" stroke="midnightblue" points="141.87,-44.5 151.87,-41 141.87,-37.5 141.87,-44.5"/>
</g>
<!-- Node15&#45;&gt;Node3 -->
<g id="edge21" class="edge">
<title>Node15&#45;&gt;Node3</title>
<path fill="none" stroke="midnightblue" d="M942.23,-254.28C1054.22,-252.94 1260.92,-249.2 1437,-239 1448.62,-238.33 1460.98,-237.41 1472.93,-236.42"/>
<polygon fill="midnightblue" stroke="midnightblue" points="941.98,-250.78 932.02,-254.4 942.06,-257.78 941.98,-250.78"/>
</g>
<!-- Node16&#45;&gt;Node3 -->
<g id="edge23" class="edge">
<title>Node16&#45;&gt;Node3</title>
<path fill="none" stroke="midnightblue" d="M936.82,-83.06C1020.79,-91.63 1158.99,-108.2 1276,-134 1349.04,-150.1 1367.09,-156.4 1437,-183 1466.7,-194.3 1499.93,-210.27 1520.16,-220.37"/>
<polygon fill="midnightblue" stroke="midnightblue" points="937.16,-79.58 926.86,-82.06 936.46,-86.54 937.16,-79.58"/>
</g>
<!-- Node17&#45;&gt;Node10 -->
<g id="edge30" class="edge">
<title>Node17&#45;&gt;Node10</title>
<path fill="none" stroke="midnightblue" d="M808.53,-30.89C785.02,-36.55 756.78,-43.34 732.34,-49.21"/>
<polygon fill="midnightblue" stroke="midnightblue" points="809.39,-34.29 818.29,-28.55 807.75,-27.48 809.39,-34.29"/>
</g>
<!-- Node18 -->
<g id="node18" class="node">
<title>Node18</title>
<g id="a_node18"><a xlink:href="classslljit_1_1_parser.html#af6e239a609e8a3812838b53f9a8356ce" target="_top" xlink:title="external ::= &#39;extern&#39; prototype">
<polygon fill="none" stroke="black" points="610,-9.5 610,-28.5 738,-28.5 738,-9.5 610,-9.5"/>
<text text-anchor="middle" x="674" y="-16.5" font-family="Helvetica,sans-Serif" font-size="10.00">slljit::Parser::ParseExtern</text>
</a>
</g>
</g>
<!-- Node17&#45;&gt;Node18 -->
<g id="edge27" class="edge">
<title>Node17&#45;&gt;Node18</title>
<path fill="none" stroke="midnightblue" d="M777.72,-19C764.47,-19 750.91,-19 738.15,-19"/>
<polygon fill="midnightblue" stroke="midnightblue" points="777.77,-22.5 787.77,-19 777.77,-15.5 777.77,-22.5"/>
</g>
<!-- Node19 -->
<g id="node19" class="node">
<title>Node19</title>
<g id="a_node19"><a xlink:href="classslljit_1_1_parser.html#a5ff2f693f00fe32c8ee836e9139cb93e" target="_top" xlink:title=" ">
<polygon fill="none" stroke="black" points="438,-9.5 438,-28.5 571,-28.5 571,-9.5 438,-9.5"/>
<text text-anchor="middle" x="504.5" y="-16.5" font-family="Helvetica,sans-Serif" font-size="10.00">slljit::Parser::HandleExtern</text>
</a>
</g>
</g>
<!-- Node18&#45;&gt;Node19 -->
<g id="edge28" class="edge">
<title>Node18&#45;&gt;Node19</title>
<path fill="none" stroke="midnightblue" d="M599.52,-19C590.07,-19 580.45,-19 571.14,-19"/>
<polygon fill="midnightblue" stroke="midnightblue" points="599.68,-22.5 609.68,-19 599.68,-15.5 599.68,-22.5"/>
</g>
<!-- Node19&#45;&gt;Node12 -->
<g id="edge29" class="edge">
<title>Node19&#45;&gt;Node12</title>
<path fill="none" stroke="midnightblue" d="M427.68,-29.52C419.14,-30.71 410.55,-31.9 402.3,-33.05"/>
<polygon fill="midnightblue" stroke="midnightblue" points="428.23,-32.98 437.66,-28.14 427.27,-26.05 428.23,-32.98"/>
</g>
</g>
</svg>
