<?xml version="1.0" encoding="UTF-8" standalone="no"?>
<!DOCTYPE svg PUBLIC "-//W3C//DTD SVG 1.1//EN"
 "http://www.w3.org/Graphics/SVG/1.1/DTD/svg11.dtd">
<!-- Generated by graphviz version 3.0.0 (20220226.1711)
 -->
<!-- Title: slljit::LocalContext::getModule Pages: 1 -->
<svg width="413pt" height="291pt"
 viewBox="0.00 0.00 413.00 290.50" xmlns="http://www.w3.org/2000/svg" xmlns:xlink="http://www.w3.org/1999/xlink">
<g id="graph0" class="graph" transform="scale(1 1) rotate(0) translate(4 286.5)">
<title>slljit::LocalContext::getModule</title>
<!-- Node1 -->
<g id="node1" class="node">
<title>Node1</title>
<g id="a_node1"><a xlink:title=" ">
<polygon fill="#bfbfbf" stroke="black" points="308,-132 308,-162 405,-162 405,-132 308,-132"/>
<text text-anchor="start" x="316" y="-150" font-family="Helvetica,sans-Serif" font-size="10.00">slljit::LocalContext</text>
<text text-anchor="middle" x="356.5" y="-139" font-family="Helvetica,sans-Serif" font-size="10.00">::getModule</text>
</a>
</g>
</g>
<!-- Node2 -->
<g id="node2" class="node">
<title>Node2</title>
<g id="a_node2"><a xlink:href="classslljit_1_1_variable_expr_a_s_t.html#aa67fa1ad8e3e12f0272ff1fda1674f99" target="_top" xlink:title=" ">
<polygon fill="none" stroke="black" points="155,-252 155,-282 269,-282 269,-252 155,-252"/>
<text text-anchor="start" x="163" y="-270" font-family="Helvetica,sans-Serif" font-size="10.00">slljit::VariableExprAST</text>
<text text-anchor="middle" x="212" y="-259" font-family="Helvetica,sans-Serif" font-size="10.00">::codegen</text>
</a>
</g>
</g>
<!-- Node1&#45;&gt;Node2 -->
<g id="edge1" class="edge">
<title>Node1&#45;&gt;Node2</title>
<path fill="none" stroke="midnightblue" d="M337.75,-170.33C322.02,-189.89 297.64,-217.65 272,-237 264.57,-242.61 255.94,-247.67 247.6,-251.97"/>
<polygon fill="midnightblue" stroke="midnightblue" points="340.69,-172.26 344.14,-162.24 335.2,-167.92 340.69,-172.26"/>
</g>
<!-- Node3 -->
<g id="node3" class="node">
<title>Node3</title>
<g id="a_node3"><a xlink:href="classslljit_1_1_binary_expr_a_s_t.html#a4e15cb62043e37beafadeb7faf94d7ba" target="_top" xlink:title=" ">
<polygon fill="none" stroke="black" points="4.5,-213 4.5,-243 111.5,-243 111.5,-213 4.5,-213"/>
<text text-anchor="start" x="12.5" y="-231" font-family="Helvetica,sans-Serif" font-size="10.00">slljit::BinaryExprAST</text>
<text text-anchor="middle" x="58" y="-220" font-family="Helvetica,sans-Serif" font-size="10.00">::codegen</text>
</a>
</g>
</g>
<!-- Node1&#45;&gt;Node3 -->
<g id="edge2" class="edge">
<title>Node1&#45;&gt;Node3</title>
<path fill="none" stroke="midnightblue" d="M317.46,-166.52C303.45,-173.12 287.27,-180.06 272,-185 218.7,-202.26 155.57,-213.96 111.94,-220.75"/>
<polygon fill="midnightblue" stroke="midnightblue" points="319.29,-169.53 326.78,-162.04 316.25,-163.22 319.29,-169.53"/>
</g>
<!-- Node4 -->
<g id="node4" class="node">
<title>Node4</title>
<g id="a_node4"><a xlink:href="classslljit_1_1_prototype_a_s_t.html#a1d3904bd14007f251959a6d795fe5564" target="_top" xlink:title=" ">
<polygon fill="none" stroke="black" points="161.5,-88 161.5,-118 262.5,-118 262.5,-88 161.5,-88"/>
<text text-anchor="start" x="169.5" y="-106" font-family="Helvetica,sans-Serif" font-size="10.00">slljit::PrototypeAST</text>
<text text-anchor="middle" x="212" y="-95" font-family="Helvetica,sans-Serif" font-size="10.00">::codegen</text>
</a>
</g>
</g>
<!-- Node1&#45;&gt;Node4 -->
<g id="edge3" class="edge">
<title>Node1&#45;&gt;Node4</title>
<path fill="none" stroke="midnightblue" d="M297.81,-129.19C285.91,-125.51 273.49,-121.68 261.94,-118.11"/>
<polygon fill="midnightblue" stroke="midnightblue" points="297.07,-132.62 307.65,-132.23 299.13,-125.93 297.07,-132.62"/>
</g>
<!-- Node5 -->
<g id="node5" class="node">
<title>Node5</title>
<g id="a_node5"><a xlink:href="classslljit_1_1_function_a_s_t.html#ad9580c93bf3b4c4cdce1606d2e1a7be5" target="_top" xlink:title=" ">
<polygon fill="none" stroke="black" points="10,-164 10,-194 106,-194 106,-164 10,-164"/>
<text text-anchor="start" x="18" y="-182" font-family="Helvetica,sans-Serif" font-size="10.00">slljit::FunctionAST</text>
<text text-anchor="middle" x="58" y="-171" font-family="Helvetica,sans-Serif" font-size="10.00">::codegen</text>
</a>
</g>
</g>
<!-- Node1&#45;&gt;Node5 -->
<g id="edge4" class="edge">
<title>Node1&#45;&gt;Node5</title>
<path fill="none" stroke="midnightblue" d="M297.68,-161.43C289.11,-163.2 280.36,-164.8 272,-166 215.34,-174.12 149.49,-177.17 106.18,-178.32"/>
<polygon fill="midnightblue" stroke="midnightblue" points="298.58,-164.82 307.62,-159.3 297.11,-157.98 298.58,-164.82"/>
</g>
<!-- Node6 -->
<g id="node6" class="node">
<title>Node6</title>
<g id="a_node6"><a xlink:href="classslljit_1_1_code_gen.html#a2f9a2e9e55e24a7aee76846e055d1dae" target="_top" xlink:title=" ">
<polygon fill="none" stroke="black" points="152,-0.5 152,-19.5 272,-19.5 272,-0.5 152,-0.5"/>
<text text-anchor="middle" x="212" y="-7.5" font-family="Helvetica,sans-Serif" font-size="10.00">slljit::CodeGen::compile</text>
</a>
</g>
</g>
<!-- Node1&#45;&gt;Node6 -->
<g id="edge5" class="edge">
<title>Node1&#45;&gt;Node6</title>
<path fill="none" stroke="midnightblue" d="M344.38,-122.91C330.89,-96.23 305.69,-53.73 272,-29 266.71,-25.12 260.59,-22 254.34,-19.52"/>
<polygon fill="midnightblue" stroke="midnightblue" points="341.27,-124.52 348.82,-131.96 347.56,-121.44 341.27,-124.52"/>
</g>
<!-- Node8 -->
<g id="node8" class="node">
<title>Node8</title>
<g id="a_node8"><a xlink:href="classslljit_1_1_code_gen.html#a0a1cd67519cb6405422e53cc87a1eb87" target="_top" xlink:title=" ">
<polygon fill="none" stroke="black" points="152,-39 152,-69 272,-69 272,-39 152,-39"/>
<text text-anchor="start" x="160" y="-57" font-family="Helvetica,sans-Serif" font-size="10.00">slljit::CodeGen::compile</text>
<text text-anchor="middle" x="212" y="-46" font-family="Helvetica,sans-Serif" font-size="10.00">_layout</text>
</a>
</g>
</g>
<!-- Node1&#45;&gt;Node8 -->
<g id="edge7" class="edge">
<title>Node1&#45;&gt;Node8</title>
<path fill="none" stroke="midnightblue" d="M332.96,-125.13C316.92,-110.42 294.34,-91.34 272,-78 266.59,-74.77 260.66,-71.78 254.72,-69.1"/>
<polygon fill="midnightblue" stroke="midnightblue" points="330.58,-127.7 340.28,-131.96 335.35,-122.58 330.58,-127.7"/>
</g>
<!-- Node9 -->
<g id="node9" class="node">
<title>Node9</title>
<g id="a_node9"><a xlink:href="group___a_s_t.html#ga43bd4527a94e16e6fb1be89c3b4fc678" target="_top" xlink:title=" ">
<polygon fill="none" stroke="black" points="166.5,-137.5 166.5,-156.5 257.5,-156.5 257.5,-137.5 166.5,-137.5"/>
<text text-anchor="middle" x="212" y="-144.5" font-family="Helvetica,sans-Serif" font-size="10.00">slljit::getFunction</text>
</a>
</g>
</g>
<!-- Node1&#45;&gt;Node9 -->
<g id="edge9" class="edge">
<title>Node1&#45;&gt;Node9</title>
<path fill="none" stroke="midnightblue" d="M297.61,-147C284.26,-147 270.27,-147 257.59,-147"/>
<polygon fill="midnightblue" stroke="midnightblue" points="297.65,-150.5 307.65,-147 297.65,-143.5 297.65,-150.5"/>
</g>
<!-- Node7 -->
<g id="node7" class="node">
<title>Node7</title>
<g id="a_node7"><a xlink:href="classslljit_1_1_program.html#ae4d26526a7dd9c69ebe92fb43736696b" target="_top" xlink:title=" ">
<polygon fill="none" stroke="black" points="0,-16.5 0,-35.5 116,-35.5 116,-16.5 0,-16.5"/>
<text text-anchor="middle" x="58" y="-23.5" font-family="Helvetica,sans-Serif" font-size="10.00">slljit::Program::compile</text>
</a>
</g>
</g>
<!-- Node6&#45;&gt;Node7 -->
<g id="edge6" class="edge">
<title>Node6&#45;&gt;Node7</title>
<path fill="none" stroke="midnightblue" d="M141.85,-17.28C133.3,-18.18 124.64,-19.09 116.3,-19.97"/>
<polygon fill="midnightblue" stroke="midnightblue" points="142.22,-20.76 151.8,-16.23 141.49,-13.8 142.22,-20.76"/>
</g>
<!-- Node8&#45;&gt;Node7 -->
<g id="edge8" class="edge">
<title>Node8&#45;&gt;Node7</title>
<path fill="none" stroke="midnightblue" d="M141.88,-41.27C131.46,-39.35 120.86,-37.39 110.87,-35.56"/>
<polygon fill="midnightblue" stroke="midnightblue" points="141.33,-44.72 151.8,-43.09 142.6,-37.84 141.33,-44.72"/>
</g>
<!-- Node9&#45;&gt;Node3 -->
<g id="edge11" class="edge">
<title>Node9&#45;&gt;Node3</title>
<path fill="none" stroke="midnightblue" d="M188.03,-162.04C169.1,-174.13 141.35,-191.14 116,-204 109.87,-207.11 103.24,-210.16 96.75,-213"/>
<polygon fill="midnightblue" stroke="midnightblue" points="190.04,-164.91 196.56,-156.55 186.25,-159.02 190.04,-164.91"/>
</g>
<!-- Node9&#45;&gt;Node5 -->
<g id="edge13" class="edge">
<title>Node9&#45;&gt;Node5</title>
<path fill="none" stroke="midnightblue" d="M156.22,-158.53C139.81,-161.99 121.97,-165.74 106.1,-169.08"/>
<polygon fill="midnightblue" stroke="midnightblue" points="157.15,-161.91 166.22,-156.43 155.71,-155.06 157.15,-161.91"/>
</g>
<!-- Node10 -->
<g id="node10" class="node">
<title>Node10</title>
<g id="a_node10"><a xlink:href="classslljit_1_1_unary_expr_a_s_t.html#a6f0dae838e2c5cde27bad14f9fea1cf1" target="_top" xlink:title=" ">
<polygon fill="none" stroke="black" points="6,-66 6,-96 110,-96 110,-66 6,-66"/>
<text text-anchor="start" x="14" y="-84" font-family="Helvetica,sans-Serif" font-size="10.00">slljit::UnaryExprAST</text>
<text text-anchor="middle" x="58" y="-73" font-family="Helvetica,sans-Serif" font-size="10.00">::codegen</text>
</a>
</g>
</g>
<!-- Node9&#45;&gt;Node10 -->
<g id="edge10" class="edge">
<title>Node9&#45;&gt;Node10</title>
<path fill="none" stroke="midnightblue" d="M168.99,-134.05C163.2,-131.89 157.4,-129.53 152,-127 135.02,-119.05 132.69,-113.55 116,-105 109.98,-101.92 103.47,-98.9 97.08,-96.09"/>
<polygon fill="midnightblue" stroke="midnightblue" points="168.05,-137.43 178.65,-137.47 170.39,-130.83 168.05,-137.43"/>
</g>
<!-- Node11 -->
<g id="node11" class="node">
<title>Node11</title>
<g id="a_node11"><a xlink:href="classslljit_1_1_call_expr_a_s_t.html#a0d196837649e9e0205fafddf2cd95068" target="_top" xlink:title=" ">
<polygon fill="none" stroke="black" points="10.5,-115 10.5,-145 105.5,-145 105.5,-115 10.5,-115"/>
<text text-anchor="start" x="18.5" y="-133" font-family="Helvetica,sans-Serif" font-size="10.00">slljit::CallExprAST</text>
<text text-anchor="middle" x="58" y="-122" font-family="Helvetica,sans-Serif" font-size="10.00">::codegen</text>
</a>
</g>
</g>
<!-- Node9&#45;&gt;Node11 -->
<g id="edge12" class="edge">
<title>Node9&#45;&gt;Node11</title>
<path fill="none" stroke="midnightblue" d="M156.12,-140.86C139.56,-139.01 121.54,-136.99 105.57,-135.21"/>
<polygon fill="midnightblue" stroke="midnightblue" points="155.89,-144.36 166.22,-141.99 156.67,-137.4 155.89,-144.36"/>
</g>
</g>
</svg>
