<?xml version="1.0" encoding="UTF-8" standalone="no"?>
<!DOCTYPE svg PUBLIC "-//W3C//DTD SVG 1.1//EN"
 "http://www.w3.org/Graphics/SVG/1.1/DTD/svg11.dtd">
<!-- Generated by graphviz version 3.0.0 (20220226.1711)
 -->
<!-- Title: slljit::Layout Pages: 1 -->
<svg width="341pt" height="154pt"
 viewBox="0.00 0.00 341.00 153.50" xmlns="http://www.w3.org/2000/svg" xmlns:xlink="http://www.w3.org/1999/xlink">
<g id="graph0" class="graph" transform="scale(1 1) rotate(0) translate(4 149.5)">
<title>slljit::Layout</title>
<!-- Node1 -->
<g id="node1" class="node">
<title>Node1</title>
<g id="a_node1"><a xlink:title=" ">
<polygon fill="#bfbfbf" stroke="black" points="264,-69 264,-88 333,-88 333,-69 264,-69"/>
<text text-anchor="middle" x="298.5" y="-76" font-family="Helvetica,sans-Serif" font-size="10.00">slljit::Layout</text>
</a>
</g>
</g>
<!-- Node2 -->
<g id="node2" class="node">
<title>Node2</title>
<g id="a_node2"><a xlink:title=" ">
<polygon fill="none" stroke="black" points="39.5,-126 39.5,-145 111.5,-145 111.5,-126 39.5,-126"/>
<text text-anchor="middle" x="75.5" y="-133" font-family="Helvetica,sans-Serif" font-size="10.00">set&lt; string &gt;</text>
</a>
</g>
</g>
<!-- Node2&#45;&gt;Node1 -->
<g id="edge1" class="edge">
<title>Node2&#45;&gt;Node1</title>
<path fill="none" stroke="#9a32cd" stroke-dasharray="5,2" d="M121.86,-130.27C156.48,-125.48 205.03,-117.04 246,-103.5 258.08,-99.51 270.95,-93.26 280.81,-88.01"/>
<polygon fill="#9a32cd" stroke="#9a32cd" points="121.04,-126.84 111.59,-131.64 121.97,-133.78 121.04,-126.84"/>
<text text-anchor="middle" x="207.5" y="-124.5" font-family="Helvetica,sans-Serif" font-size="10.00"> names</text>
</g>
<!-- Node3 -->
<g id="node3" class="node">
<title>Node3</title>
<g id="a_node3"><a xlink:title=" ">
<polygon fill="none" stroke="black" points="0,-88 0,-107 151,-107 151,-88 0,-88"/>
<text text-anchor="middle" x="75.5" y="-95" font-family="Helvetica,sans-Serif" font-size="10.00">vector&lt; slljit::GlobalDefinition &gt;</text>
</a>
</g>
</g>
<!-- Node3&#45;&gt;Node1 -->
<g id="edge2" class="edge">
<title>Node3&#45;&gt;Node1</title>
<path fill="none" stroke="#9a32cd" stroke-dasharray="5,2" d="M161,-90.24C196.8,-87.16 236.47,-83.75 263.77,-81.4"/>
<polygon fill="#9a32cd" stroke="#9a32cd" points="160.68,-86.75 151.01,-91.09 161.28,-93.72 160.68,-86.75"/>
<text text-anchor="middle" x="207.5" y="-91.5" font-family="Helvetica,sans-Serif" font-size="10.00"> globals</text>
</g>
<!-- Node4 -->
<g id="node4" class="node">
<title>Node4</title>
<g id="a_node4"><a xlink:title=" ">
<polygon fill="none" stroke="black" points="32.5,-50 32.5,-69 118.5,-69 118.5,-50 32.5,-50"/>
<text text-anchor="middle" x="75.5" y="-57" font-family="Helvetica,sans-Serif" font-size="10.00">vector&lt; size_t &gt;</text>
</a>
</g>
</g>
<!-- Node4&#45;&gt;Node1 -->
<g id="edge3" class="edge">
<title>Node4&#45;&gt;Node1</title>
<path fill="none" stroke="#9a32cd" stroke-dasharray="5,2" d="M128.87,-59.77C162.46,-60.49 206.95,-62.44 246,-67.5 251.8,-68.25 257.92,-69.31 263.84,-70.49"/>
<polygon fill="#9a32cd" stroke="#9a32cd" points="128.87,-56.27 118.81,-59.59 128.74,-63.27 128.87,-56.27"/>
<text text-anchor="middle" x="207.5" y="-70.5" font-family="Helvetica,sans-Serif" font-size="10.00"> global_offsets</text>
</g>
<!-- Node5 -->
<g id="node5" class="node">
<title>Node5</title>
<g id="a_node5"><a xlink:title=" ">
<polygon fill="none" stroke="black" points="6.5,-0.5 6.5,-30.5 144.5,-30.5 144.5,-0.5 6.5,-0.5"/>
<text text-anchor="start" x="14.5" y="-18.5" font-family="Helvetica,sans-Serif" font-size="10.00">map&lt; string, slljit</text>
<text text-anchor="middle" x="75.5" y="-7.5" font-family="Helvetica,sans-Serif" font-size="10.00">::ConstantGlobalDefinition &gt;</text>
</a>
</g>
</g>
<!-- Node5&#45;&gt;Node1 -->
<g id="edge4" class="edge">
<title>Node5&#45;&gt;Node1</title>
<path fill="none" stroke="#9a32cd" stroke-dasharray="5,2" d="M154.77,-22.79C184.09,-27.21 217.24,-34.26 246,-45.5 260.64,-51.22 275.56,-61.36 285.55,-68.89"/>
<polygon fill="#9a32cd" stroke="#9a32cd" points="154.97,-19.29 144.57,-21.34 153.98,-26.22 154.97,-19.29"/>
<text text-anchor="middle" x="207.5" y="-48.5" font-family="Helvetica,sans-Serif" font-size="10.00"> constant_globals</text>
</g>
</g>
</svg>
