<?xml version="1.0" encoding="UTF-8" standalone="no"?>
<!DOCTYPE svg PUBLIC "-//W3C//DTD SVG 1.1//EN"
 "http://www.w3.org/Graphics/SVG/1.1/DTD/svg11.dtd">
<!-- Generated by graphviz version 3.0.0 (20220226.1711)
 -->
<!-- Title: slljit::LocalContext::push_scope Pages: 1 -->
<svg width="238pt" height="186pt"
 viewBox="0.00 0.00 238.00 186.00" xmlns="http://www.w3.org/2000/svg" xmlns:xlink="http://www.w3.org/1999/xlink">
<g id="graph0" class="graph" transform="scale(1 1) rotate(0) translate(4 182)">
<title>slljit::LocalContext::push_scope</title>
<!-- Node1 -->
<g id="node1" class="node">
<title>Node1</title>
<g id="a_node1"><a xlink:title=" ">
<polygon fill="#bfbfbf" stroke="black" points="133,-73.5 133,-103.5 230,-103.5 230,-73.5 133,-73.5"/>
<text text-anchor="start" x="141" y="-91.5" font-family="Helvetica,sans-Serif" font-size="10.00">slljit::LocalContext</text>
<text text-anchor="middle" x="181.5" y="-80.5" font-family="Helvetica,sans-Serif" font-size="10.00">::push_scope</text>
</a>
</g>
</g>
<!-- Node2 -->
<g id="node2" class="node">
<title>Node2</title>
<g id="a_node2"><a xlink:href="classslljit_1_1_if_expr_a_s_t.html#a376bb50f865a795316ebf0710b4ac135" target="_top" xlink:title=" ">
<polygon fill="none" stroke="black" points="4,-147.5 4,-177.5 93,-177.5 93,-147.5 4,-147.5"/>
<text text-anchor="start" x="12" y="-165.5" font-family="Helvetica,sans-Serif" font-size="10.00">slljit::IfExprAST::</text>
<text text-anchor="middle" x="48.5" y="-154.5" font-family="Helvetica,sans-Serif" font-size="10.00">codegen</text>
</a>
</g>
</g>
<!-- Node1&#45;&gt;Node2 -->
<g id="edge1" class="edge">
<title>Node1&#45;&gt;Node2</title>
<path fill="none" stroke="midnightblue" d="M147.71,-108.88C132.44,-118.17 113.95,-129.16 97,-138.5 91.58,-141.49 85.74,-144.56 80.08,-147.46"/>
<polygon fill="midnightblue" stroke="midnightblue" points="149.59,-111.83 156.29,-103.62 145.93,-105.86 149.59,-111.83"/>
</g>
<!-- Node3 -->
<g id="node3" class="node">
<title>Node3</title>
<g id="a_node3"><a xlink:href="classslljit_1_1_for_expr_a_s_t.html#a0e8a98570a1b8c55617ee52b41922289" target="_top" xlink:title=" ">
<polygon fill="none" stroke="black" points="2,-98.5 2,-128.5 95,-128.5 95,-98.5 2,-98.5"/>
<text text-anchor="start" x="10" y="-116.5" font-family="Helvetica,sans-Serif" font-size="10.00">slljit::ForExprAST</text>
<text text-anchor="middle" x="48.5" y="-105.5" font-family="Helvetica,sans-Serif" font-size="10.00">::codegen</text>
</a>
</g>
</g>
<!-- Node1&#45;&gt;Node3 -->
<g id="edge2" class="edge">
<title>Node1&#45;&gt;Node3</title>
<path fill="none" stroke="midnightblue" d="M122.89,-99.5C113.61,-101.27 104.11,-103.08 95.16,-104.79"/>
<polygon fill="midnightblue" stroke="midnightblue" points="123.67,-102.91 132.84,-97.6 122.36,-96.03 123.67,-102.91"/>
</g>
<!-- Node4 -->
<g id="node4" class="node">
<title>Node4</title>
<g id="a_node4"><a xlink:href="classslljit_1_1_function_a_s_t.html#ad9580c93bf3b4c4cdce1606d2e1a7be5" target="_top" xlink:title=" ">
<polygon fill="none" stroke="black" points="0.5,-49.5 0.5,-79.5 96.5,-79.5 96.5,-49.5 0.5,-49.5"/>
<text text-anchor="start" x="8.5" y="-67.5" font-family="Helvetica,sans-Serif" font-size="10.00">slljit::FunctionAST</text>
<text text-anchor="middle" x="48.5" y="-56.5" font-family="Helvetica,sans-Serif" font-size="10.00">::codegen</text>
</a>
</g>
</g>
<!-- Node1&#45;&gt;Node4 -->
<g id="edge3" class="edge">
<title>Node1&#45;&gt;Node4</title>
<path fill="none" stroke="midnightblue" d="M122.8,-77.93C114.15,-76.34 105.31,-74.73 96.91,-73.19"/>
<polygon fill="midnightblue" stroke="midnightblue" points="122.37,-81.41 132.84,-79.77 123.63,-74.52 122.37,-81.41"/>
</g>
<!-- Node5 -->
<g id="node5" class="node">
<title>Node5</title>
<g id="a_node5"><a xlink:href="classslljit_1_1_local_context.html#a0f86d02649ee7d0cf8944c3a42290002" target="_top" xlink:title=" ">
<polygon fill="none" stroke="black" points="0,-0.5 0,-30.5 97,-30.5 97,-0.5 0,-0.5"/>
<text text-anchor="start" x="8" y="-18.5" font-family="Helvetica,sans-Serif" font-size="10.00">slljit::LocalContext</text>
<text text-anchor="middle" x="48.5" y="-7.5" font-family="Helvetica,sans-Serif" font-size="10.00">::LocalContext</text>
</a>
</g>
</g>
<!-- Node1&#45;&gt;Node5 -->
<g id="edge4" class="edge">
<title>Node1&#45;&gt;Node5</title>
<path fill="none" stroke="midnightblue" d="M145.78,-68.16C130.84,-59.5 113.13,-49.38 97,-40.5 91.04,-37.22 84.62,-33.78 78.48,-30.53"/>
<polygon fill="midnightblue" stroke="midnightblue" points="144.28,-71.33 154.69,-73.33 147.8,-65.28 144.28,-71.33"/>
</g>
</g>
</svg>
