<?xml version="1.0" encoding="UTF-8" standalone="no"?>
<!DOCTYPE svg PUBLIC "-//W3C//DTD SVG 1.1//EN"
 "http://www.w3.org/Graphics/SVG/1.1/DTD/svg11.dtd">
<!-- Generated by graphviz version 3.0.0 (20220226.1711)
 -->
<!-- Title: slljit::Parser::ParseTopLevelTypedExpression Pages: 1 -->
<svg width="803pt" height="39pt"
 viewBox="0.00 0.00 803.00 39.00" xmlns="http://www.w3.org/2000/svg" xmlns:xlink="http://www.w3.org/1999/xlink">
<g id="graph0" class="graph" transform="scale(1 1) rotate(0) translate(4 35)">
<title>slljit::Parser::ParseTopLevelTypedExpression</title>
<!-- Node1 -->
<g id="node1" class="node">
<title>Node1</title>
<g id="a_node1"><a xlink:title="definition ::= &#39;def&#39; prototype expression">
<polygon fill="#bfbfbf" stroke="black" points="679,-0.5 679,-30.5 795,-30.5 795,-0.5 679,-0.5"/>
<text text-anchor="start" x="687" y="-18.5" font-family="Helvetica,sans-Serif" font-size="10.00">slljit::Parser::ParseTop</text>
<text text-anchor="middle" x="737" y="-7.5" font-family="Helvetica,sans-Serif" font-size="10.00">LevelTypedExpression</text>
</a>
</g>
</g>
<!-- Node2 -->
<g id="node2" class="node">
<title>Node2</title>
<g id="a_node2"><a xlink:href="classslljit_1_1_parser.html#af0cac4623fc05b8b7ae9884b0aeb3d3f" target="_top" xlink:title=" ">
<polygon fill="none" stroke="black" points="512,-0.5 512,-30.5 643,-30.5 643,-0.5 512,-0.5"/>
<text text-anchor="start" x="520" y="-18.5" font-family="Helvetica,sans-Serif" font-size="10.00">slljit::Parser::HandleTyped</text>
<text text-anchor="middle" x="577.5" y="-7.5" font-family="Helvetica,sans-Serif" font-size="10.00">Expression</text>
</a>
</g>
</g>
<!-- Node1&#45;&gt;Node2 -->
<g id="edge1" class="edge">
<title>Node1&#45;&gt;Node2</title>
<path fill="none" stroke="midnightblue" d="M668.56,-15.5C660.16,-15.5 651.59,-15.5 643.23,-15.5"/>
<polygon fill="midnightblue" stroke="midnightblue" points="668.69,-19 678.69,-15.5 668.69,-12 668.69,-19"/>
</g>
<!-- Node3 -->
<g id="node3" class="node">
<title>Node3</title>
<g id="a_node3"><a xlink:href="classslljit_1_1_parser.html#ae2d3d6534b87da7f237c19129a464bda" target="_top" xlink:title="top ::= definition | external | expression | &#39;;&#39;">
<polygon fill="none" stroke="black" points="360,-6 360,-25 476,-25 476,-6 360,-6"/>
<text text-anchor="middle" x="418" y="-13" font-family="Helvetica,sans-Serif" font-size="10.00">slljit::Parser::MainLoop</text>
</a>
</g>
</g>
<!-- Node2&#45;&gt;Node3 -->
<g id="edge2" class="edge">
<title>Node2&#45;&gt;Node3</title>
<path fill="none" stroke="midnightblue" d="M501.87,-15.5C493.2,-15.5 484.47,-15.5 476.09,-15.5"/>
<polygon fill="midnightblue" stroke="midnightblue" points="501.98,-19 511.98,-15.5 501.98,-12 501.98,-19"/>
</g>
<!-- Node4 -->
<g id="node4" class="node">
<title>Node4</title>
<g id="a_node4"><a xlink:href="classslljit_1_1_parser.html#a2429935f3c870648f9f895a7b2361cfb" target="_top" xlink:title=" ">
<polygon fill="none" stroke="black" points="226,-6 226,-25 324,-25 324,-6 226,-6"/>
<text text-anchor="middle" x="275" y="-13" font-family="Helvetica,sans-Serif" font-size="10.00">slljit::Parser::parse</text>
</a>
</g>
</g>
<!-- Node3&#45;&gt;Node4 -->
<g id="edge3" class="edge">
<title>Node3&#45;&gt;Node4</title>
<path fill="none" stroke="midnightblue" d="M349.37,-15.5C340.9,-15.5 332.37,-15.5 324.28,-15.5"/>
<polygon fill="midnightblue" stroke="midnightblue" points="349.65,-19 359.65,-15.5 349.65,-12 349.65,-19"/>
</g>
<!-- Node5 -->
<g id="node5" class="node">
<title>Node5</title>
<g id="a_node5"><a xlink:href="classslljit_1_1_program.html#ae4d26526a7dd9c69ebe92fb43736696b" target="_top" xlink:title=" ">
<polygon fill="none" stroke="black" points="74,-6 74,-25 190,-25 190,-6 74,-6"/>
<text text-anchor="middle" x="132" y="-13" font-family="Helvetica,sans-Serif" font-size="10.00">slljit::Program::compile</text>
</a>
</g>
</g>
<!-- Node4&#45;&gt;Node5 -->
<g id="edge4" class="edge">
<title>Node4&#45;&gt;Node5</title>
<path fill="none" stroke="midnightblue" d="M215.72,-15.5C207.27,-15.5 198.58,-15.5 190.16,-15.5"/>
<polygon fill="midnightblue" stroke="midnightblue" points="215.87,-19 225.87,-15.5 215.87,-12 215.87,-19"/>
</g>
<!-- Node6 -->
<g id="node6" class="node">
<title>Node6</title>
<g id="a_node6"><a xlink:href="compiler__cli_8cpp.html#a3c04138a5bfe5d72780bb7e82a18e627" target="_top" xlink:title=" ">
<polygon fill="none" stroke="black" points="0,-6 0,-25 38,-25 38,-6 0,-6"/>
<text text-anchor="middle" x="19" y="-13" font-family="Helvetica,sans-Serif" font-size="10.00">main</text>
</a>
</g>
</g>
<!-- Node5&#45;&gt;Node6 -->
<g id="edge5" class="edge">
<title>Node5&#45;&gt;Node6</title>
<path fill="none" stroke="midnightblue" d="M63.62,-15.5C54.3,-15.5 45.44,-15.5 38.18,-15.5"/>
<polygon fill="midnightblue" stroke="midnightblue" points="63.87,-19 73.87,-15.5 63.87,-12 63.87,-19"/>
</g>
</g>
</svg>
