<?xml version="1.0" encoding="UTF-8" standalone="no"?>
<!DOCTYPE svg PUBLIC "-//W3C//DTD SVG 1.1//EN"
 "http://www.w3.org/Graphics/SVG/1.1/DTD/svg11.dtd">
<!-- Generated by graphviz version 3.0.0 (20220226.1711)
 -->
<!-- Title: slljit::Parser::HandleTypedExpression Pages: 1 -->
<svg width="1854pt" height="804pt"
 viewBox="0.00 0.00 1854.00 803.70" xmlns="http://www.w3.org/2000/svg" xmlns:xlink="http://www.w3.org/1999/xlink">
<g id="graph0" class="graph" transform="scale(1 1) rotate(0) translate(4 799.7)">
<title>slljit::Parser::HandleTypedExpression</title>
<!-- Node1 -->
<g id="node1" class="node">
<title>Node1</title>
<g id="a_node1"><a xlink:title=" ">
<polygon fill="#bfbfbf" stroke="black" points="0,-421.42 0,-451.42 131,-451.42 131,-421.42 0,-421.42"/>
<text text-anchor="start" x="8" y="-439.42" font-family="Helvetica,sans-Serif" font-size="10.00">slljit::Parser::HandleTyped</text>
<text text-anchor="middle" x="65.5" y="-428.42" font-family="Helvetica,sans-Serif" font-size="10.00">Expression</text>
</a>
</g>
</g>
<!-- Node2 -->
<g id="node2" class="node">
<title>Node2</title>
<g id="a_node2"><a xlink:href="classslljit_1_1_parser.html#a9fcfefd86a6000dcb40fa737361ea55b" target="_top" xlink:title="GetTokPrecedence &#45; Get the precedence of the pending binary operator token.">
<polygon fill="none" stroke="black" points="1410,-558.92 1410,-577.92 1544,-577.92 1544,-558.92 1410,-558.92"/>
<text text-anchor="middle" x="1477" y="-565.92" font-family="Helvetica,sans-Serif" font-size="10.00">slljit::Parser::getNextToken</text>
</a>
</g>
</g>
<!-- Node1&#45;&gt;Node2 -->
<g id="edge1" class="edge">
<title>Node1&#45;&gt;Node2</title>
<path fill="none" stroke="midnightblue" d="M79.62,-451.51C114.11,-489.89 212.07,-590.68 319,-626.42 577.4,-712.78 659.56,-626.42 932,-626.42 932,-626.42 932,-626.42 1116,-626.42 1231.49,-626.42 1260.57,-617.14 1374,-595.42 1394.19,-591.55 1416.28,-585.89 1434.72,-580.75"/>
<polygon fill="midnightblue" stroke="midnightblue" points="1435.89,-584.05 1444.56,-577.96 1433.98,-577.32 1435.89,-584.05"/>
</g>
<!-- Node10 -->
<g id="node10" class="node">
<title>Node10</title>
<g id="a_node10"><a xlink:href="classslljit_1_1_parser.html#aa9a9ce164e114ad7f347f32329f5a5a2" target="_top" xlink:title="definition ::= &#39;def&#39; prototype expression">
<polygon fill="none" stroke="black" points="167,-231.42 167,-261.42 283,-261.42 283,-231.42 167,-231.42"/>
<text text-anchor="start" x="175" y="-249.42" font-family="Helvetica,sans-Serif" font-size="10.00">slljit::Parser::ParseTop</text>
<text text-anchor="middle" x="225" y="-238.42" font-family="Helvetica,sans-Serif" font-size="10.00">LevelTypedExpression</text>
</a>
</g>
</g>
<!-- Node1&#45;&gt;Node10 -->
<g id="edge10" class="edge">
<title>Node1&#45;&gt;Node10</title>
<path fill="none" stroke="midnightblue" d="M79.12,-421.19C106.72,-387.9 172.57,-308.46 205.12,-269.19"/>
<polygon fill="midnightblue" stroke="midnightblue" points="207.85,-271.39 211.54,-261.46 202.46,-266.92 207.85,-271.39"/>
</g>
<!-- Node3 -->
<g id="node3" class="node">
<title>Node3</title>
<g id="a_node3"><a xlink:href="classslljit_1_1_tokenizer.html#a4f0b343321f5e4561a80e47a5cec05d2" target="_top" xlink:title=" ">
<polygon fill="none" stroke="black" points="1588,-553.42 1588,-583.42 1676,-583.42 1676,-553.42 1588,-553.42"/>
<text text-anchor="start" x="1596" y="-571.42" font-family="Helvetica,sans-Serif" font-size="10.00">slljit::Tokenizer::</text>
<text text-anchor="middle" x="1632" y="-560.42" font-family="Helvetica,sans-Serif" font-size="10.00">gettok</text>
</a>
</g>
</g>
<!-- Node2&#45;&gt;Node3 -->
<g id="edge2" class="edge">
<title>Node2&#45;&gt;Node3</title>
<path fill="none" stroke="midnightblue" d="M1544.22,-568.42C1555.36,-568.42 1566.79,-568.42 1577.56,-568.42"/>
<polygon fill="midnightblue" stroke="midnightblue" points="1577.64,-571.92 1587.64,-568.42 1577.64,-564.92 1577.64,-571.92"/>
</g>
<!-- Node3&#45;&gt;Node3 -->
<g id="edge4" class="edge">
<title>Node3&#45;&gt;Node3</title>
<path fill="none" stroke="midnightblue" d="M1605.86,-583.58C1599.56,-592.98 1608.27,-601.92 1632,-601.92 1646.46,-601.92 1655.35,-598.6 1658.65,-593.88"/>
<polygon fill="midnightblue" stroke="midnightblue" points="1662.13,-593.39 1658.14,-583.58 1655.14,-593.74 1662.13,-593.39"/>
</g>
<!-- Node4 -->
<g id="node4" class="node">
<title>Node4</title>
<g id="a_node4"><a xlink:href="classslljit_1_1_tokenizer.html#aebe79ebb0da26fa5e89963683d474402" target="_top" xlink:title=" ">
<polygon fill="none" stroke="black" points="1739,-676.42 1739,-706.42 1827,-706.42 1827,-676.42 1739,-676.42"/>
<text text-anchor="start" x="1747" y="-694.42" font-family="Helvetica,sans-Serif" font-size="10.00">slljit::Tokenizer::</text>
<text text-anchor="middle" x="1783" y="-683.42" font-family="Helvetica,sans-Serif" font-size="10.00">_getchar</text>
</a>
</g>
</g>
<!-- Node3&#45;&gt;Node4 -->
<g id="edge3" class="edge">
<title>Node3&#45;&gt;Node4</title>
<path fill="none" stroke="midnightblue" d="M1642.76,-583.54C1657.26,-604.91 1686.42,-643.97 1720,-667.42 1723.07,-669.56 1726.35,-671.54 1729.75,-673.38"/>
<polygon fill="midnightblue" stroke="midnightblue" points="1728.41,-676.62 1738.93,-677.87 1731.49,-670.33 1728.41,-676.62"/>
</g>
<!-- Node5 -->
<g id="node5" class="node">
<title>Node5</title>
<g id="a_node5"><a xlink:href="classslljit_1_1_tokenizer.html#ac5b5748065cb054e0f34d995d1f3edce" target="_top" xlink:title=" ">
<polygon fill="none" stroke="black" points="1739,-627.42 1739,-657.42 1827,-657.42 1827,-627.42 1739,-627.42"/>
<text text-anchor="start" x="1747" y="-645.42" font-family="Helvetica,sans-Serif" font-size="10.00">slljit::Tokenizer::</text>
<text text-anchor="middle" x="1783" y="-634.42" font-family="Helvetica,sans-Serif" font-size="10.00">is_id_char</text>
</a>
</g>
</g>
<!-- Node3&#45;&gt;Node5 -->
<g id="edge5" class="edge">
<title>Node3&#45;&gt;Node5</title>
<path fill="none" stroke="midnightblue" d="M1656.84,-583.44C1674.04,-593.94 1697.99,-607.91 1720,-618.42 1723.59,-620.13 1727.33,-621.82 1731.13,-623.46"/>
<polygon fill="midnightblue" stroke="midnightblue" points="1730.03,-626.79 1740.61,-627.41 1732.72,-620.33 1730.03,-626.79"/>
</g>
<!-- Node6 -->
<g id="node6" class="node">
<title>Node6</title>
<g id="a_node6"><a xlink:href="classslljit_1_1_tokenizer.html#afddb21e93063a4c2338c2d42e23d18d2" target="_top" xlink:title=" ">
<polygon fill="none" stroke="black" points="1739,-578.42 1739,-608.42 1827,-608.42 1827,-578.42 1739,-578.42"/>
<text text-anchor="start" x="1747" y="-596.42" font-family="Helvetica,sans-Serif" font-size="10.00">slljit::Tokenizer::</text>
<text text-anchor="middle" x="1783" y="-585.42" font-family="Helvetica,sans-Serif" font-size="10.00">is_id_start_char</text>
</a>
</g>
</g>
<!-- Node3&#45;&gt;Node6 -->
<g id="edge6" class="edge">
<title>Node3&#45;&gt;Node6</title>
<path fill="none" stroke="midnightblue" d="M1676.1,-575.65C1692.62,-578.42 1711.67,-581.62 1729.02,-584.53"/>
<polygon fill="midnightblue" stroke="midnightblue" points="1728.56,-588 1739,-586.2 1729.72,-581.1 1728.56,-588"/>
</g>
<!-- Node7 -->
<g id="node7" class="node">
<title>Node7</title>
<g id="a_node7"><a xlink:href="classslljit_1_1_tokenizer.html#ada986d1651ab242c370288c198cd726d" target="_top" xlink:title=" ">
<polygon fill="none" stroke="black" points="1720,-529.42 1720,-559.42 1846,-559.42 1846,-529.42 1720,-529.42"/>
<text text-anchor="start" x="1728" y="-547.42" font-family="Helvetica,sans-Serif" font-size="10.00">slljit::Tokenizer::</text>
<text text-anchor="middle" x="1783" y="-536.42" font-family="Helvetica,sans-Serif" font-size="10.00">is_reserved_command_id</text>
</a>
</g>
</g>
<!-- Node3&#45;&gt;Node7 -->
<g id="edge7" class="edge">
<title>Node3&#45;&gt;Node7</title>
<path fill="none" stroke="midnightblue" d="M1676.1,-561.48C1686.67,-559.78 1698.27,-557.91 1709.8,-556.05"/>
<polygon fill="midnightblue" stroke="midnightblue" points="1710.56,-559.47 1719.88,-554.43 1709.45,-552.56 1710.56,-559.47"/>
</g>
<!-- Node8 -->
<g id="node8" class="node">
<title>Node8</title>
<g id="a_node8"><a xlink:href="classslljit_1_1_tokenizer.html#ab29a7d2f06bb354a3f748106f5ea3e6c" target="_top" xlink:title=" ">
<polygon fill="none" stroke="black" points="1738.5,-480.42 1738.5,-510.42 1827.5,-510.42 1827.5,-480.42 1738.5,-480.42"/>
<text text-anchor="start" x="1746.5" y="-498.42" font-family="Helvetica,sans-Serif" font-size="10.00">slljit::Tokenizer::</text>
<text text-anchor="middle" x="1783" y="-487.42" font-family="Helvetica,sans-Serif" font-size="10.00">is_special_literal</text>
</a>
</g>
</g>
<!-- Node3&#45;&gt;Node8 -->
<g id="edge8" class="edge">
<title>Node3&#45;&gt;Node8</title>
<path fill="none" stroke="midnightblue" d="M1658.46,-553.31C1675.58,-543.41 1698.81,-530.49 1720,-520.42 1724.29,-518.38 1728.8,-516.35 1733.34,-514.38"/>
<polygon fill="midnightblue" stroke="midnightblue" points="1734.81,-517.56 1742.66,-510.45 1732.09,-511.11 1734.81,-517.56"/>
</g>
<!-- Node9 -->
<g id="node9" class="node">
<title>Node9</title>
<g id="a_node9"><a xlink:href="classslljit_1_1_tokenizer.html#ae5cc0911ed858f6bc7bf206928cd66ae" target="_top" xlink:title=" ">
<polygon fill="none" stroke="black" points="1739,-431.42 1739,-461.42 1827,-461.42 1827,-431.42 1739,-431.42"/>
<text text-anchor="start" x="1747" y="-449.42" font-family="Helvetica,sans-Serif" font-size="10.00">slljit::Tokenizer::</text>
<text text-anchor="middle" x="1783" y="-438.42" font-family="Helvetica,sans-Serif" font-size="10.00">set_lok_location</text>
</a>
</g>
</g>
<!-- Node3&#45;&gt;Node9 -->
<g id="edge9" class="edge">
<title>Node3&#45;&gt;Node9</title>
<path fill="none" stroke="midnightblue" d="M1643.13,-553.33C1657.85,-532.4 1687.03,-494.54 1720,-471.42 1723.08,-469.26 1726.37,-467.25 1729.78,-465.38"/>
<polygon fill="midnightblue" stroke="midnightblue" points="1731.61,-468.38 1738.97,-460.76 1728.47,-462.12 1731.61,-468.38"/>
</g>
<!-- Node11 -->
<g id="node11" class="node">
<title>Node11</title>
<g id="a_node11"><a xlink:href="classslljit_1_1_tokenizer.html#a0baa2e9dbe626f0475ee4206f16bbb4e" target="_top" xlink:title=" ">
<polygon fill="none" stroke="black" points="1580,-367.42 1580,-397.42 1684,-397.42 1684,-367.42 1580,-367.42"/>
<text text-anchor="start" x="1588" y="-385.42" font-family="Helvetica,sans-Serif" font-size="10.00">slljit::Tokenizer::</text>
<text text-anchor="middle" x="1632" y="-374.42" font-family="Helvetica,sans-Serif" font-size="10.00">get_source_location</text>
</a>
</g>
</g>
<!-- Node10&#45;&gt;Node11 -->
<g id="edge11" class="edge">
<title>Node10&#45;&gt;Node11</title>
<path fill="none" stroke="midnightblue" d="M230.66,-231.36C241.11,-200.1 269.5,-127.95 319,-90.42 419.34,-14.34 466.57,-16.42 592.5,-16.42 592.5,-16.42 592.5,-16.42 1297,-16.42 1407.25,-16.42 1460.22,32.25 1544,-39.42 1593.07,-81.39 1620.21,-285.7 1628.35,-357.45"/>
<polygon fill="midnightblue" stroke="midnightblue" points="1624.88,-357.86 1629.46,-367.41 1631.84,-357.09 1624.88,-357.86"/>
</g>
<!-- Node12 -->
<g id="node12" class="node">
<title>Node12</title>
<g id="a_node12"><a xlink:href="classslljit_1_1_parser.html#acc431005ac3dd38732083d7a1bb0eab2" target="_top" xlink:title=" ">
<polygon fill="none" stroke="black" points="319,-236.92 319,-255.92 483,-255.92 483,-236.92 319,-236.92"/>
<text text-anchor="middle" x="401" y="-243.92" font-family="Helvetica,sans-Serif" font-size="10.00">slljit::Parser::ParseExpressionList</text>
</a>
</g>
</g>
<!-- Node10&#45;&gt;Node12 -->
<g id="edge12" class="edge">
<title>Node10&#45;&gt;Node12</title>
<path fill="none" stroke="midnightblue" d="M283.46,-246.42C291.64,-246.42 300.22,-246.42 308.85,-246.42"/>
<polygon fill="midnightblue" stroke="midnightblue" points="308.99,-249.92 318.99,-246.42 308.99,-242.92 308.99,-249.92"/>
</g>
<!-- Node19 -->
<g id="node19" class="node">
<title>Node19</title>
<g id="a_node19"><a xlink:href="classslljit_1_1_parser.html#ae7a9c738da8b5802b80001e306ad668b" target="_top" xlink:title=" ">
<polygon fill="none" stroke="black" points="1432,-170.42 1432,-200.42 1522,-200.42 1522,-170.42 1432,-170.42"/>
<text text-anchor="start" x="1440" y="-188.42" font-family="Helvetica,sans-Serif" font-size="10.00">slljit::Parser::pop</text>
<text text-anchor="middle" x="1477" y="-177.42" font-family="Helvetica,sans-Serif" font-size="10.00">_scope</text>
</a>
</g>
</g>
<!-- Node10&#45;&gt;Node19 -->
<g id="edge70" class="edge">
<title>Node10&#45;&gt;Node19</title>
<path fill="none" stroke="midnightblue" d="M254.05,-231.28C314.22,-200.27 460.89,-132.42 592.5,-132.42 592.5,-132.42 592.5,-132.42 1116,-132.42 1225.59,-132.42 1351.96,-156.75 1422.05,-172.45"/>
<polygon fill="midnightblue" stroke="midnightblue" points="1421.44,-175.9 1431.97,-174.69 1422.99,-169.07 1421.44,-175.9"/>
</g>
<!-- Node20 -->
<g id="node20" class="node">
<title>Node20</title>
<g id="a_node20"><a xlink:href="classslljit_1_1_parser.html#a07488f6e4f1ec72ba5c6f04ad550b7a3" target="_top" xlink:title=" ">
<polygon fill="none" stroke="black" points="1429.5,-121.42 1429.5,-151.42 1524.5,-151.42 1524.5,-121.42 1429.5,-121.42"/>
<text text-anchor="start" x="1437.5" y="-139.42" font-family="Helvetica,sans-Serif" font-size="10.00">slljit::Parser::push</text>
<text text-anchor="middle" x="1477" y="-128.42" font-family="Helvetica,sans-Serif" font-size="10.00">_scope</text>
</a>
</g>
</g>
<!-- Node10&#45;&gt;Node20 -->
<g id="edge71" class="edge">
<title>Node10&#45;&gt;Node20</title>
<path fill="none" stroke="midnightblue" d="M234.97,-231.29C249.49,-208.26 280.45,-164.82 319,-143.42 426.97,-83.48 469.01,-94.42 592.5,-94.42 592.5,-94.42 592.5,-94.42 1116,-94.42 1223.8,-94.42 1348.55,-113.23 1419.28,-125.67"/>
<polygon fill="midnightblue" stroke="midnightblue" points="1418.86,-129.15 1429.32,-127.46 1420.08,-122.26 1418.86,-129.15"/>
</g>
<!-- Node32 -->
<g id="node32" class="node">
<title>Node32</title>
<g id="a_node32"><a xlink:href="classslljit_1_1_parser.html#ad51a4352241881b5c6d118db9ccdec46" target="_top" xlink:title=" ">
<polygon fill="none" stroke="black" points="1225,-692.92 1225,-711.92 1367,-711.92 1367,-692.92 1225,-692.92"/>
<text text-anchor="middle" x="1296" y="-699.92" font-family="Helvetica,sans-Serif" font-size="10.00">slljit::Parser::ParsePrototype</text>
</a>
</g>
</g>
<!-- Node10&#45;&gt;Node32 -->
<g id="edge64" class="edge">
<title>Node10&#45;&gt;Node32</title>
<path fill="none" stroke="midnightblue" d="M243.04,-261.58C286.9,-300.23 408.04,-404.47 519,-477.42 656.71,-567.96 695.12,-592.6 854,-636.42 938.24,-659.65 961.6,-655.35 1048,-668.42 1103.64,-676.84 1166.47,-685.47 1214.83,-691.94"/>
<polygon fill="midnightblue" stroke="midnightblue" points="1214.55,-695.43 1224.93,-693.28 1215.48,-688.49 1214.55,-695.43"/>
</g>
<!-- Node33 -->
<g id="node33" class="node">
<title>Node33</title>
<g id="a_node33"><a xlink:href="classslljit_1_1_parser.html#a0396f92b1fa56e2919cdb664a4ebeab9" target="_top" xlink:title=" ">
<polygon fill="none" stroke="black" points="340,-586.42 340,-616.42 462,-616.42 462,-586.42 340,-586.42"/>
<text text-anchor="start" x="348" y="-604.42" font-family="Helvetica,sans-Serif" font-size="10.00">slljit::Parser::set</text>
<text text-anchor="middle" x="401" y="-593.42" font-family="Helvetica,sans-Serif" font-size="10.00">_current_function_scope</text>
</a>
</g>
</g>
<!-- Node10&#45;&gt;Node33 -->
<g id="edge72" class="edge">
<title>Node10&#45;&gt;Node33</title>
<path fill="none" stroke="midnightblue" d="M225.79,-261.64C225.93,-312.54 233.23,-478.87 319,-571.42 322.54,-575.24 326.61,-578.58 331,-581.49"/>
<polygon fill="midnightblue" stroke="midnightblue" points="329.38,-584.6 339.79,-586.58 332.9,-578.54 329.38,-584.6"/>
</g>
<!-- Node12&#45;&gt;Node2 -->
<g id="edge14" class="edge">
<title>Node12&#45;&gt;Node2</title>
<path fill="none" stroke="midnightblue" d="M407.68,-256.03C423.21,-281.78 468.6,-353.73 519,-402.42 663.79,-542.29 730.69,-588.42 932,-588.42 932,-588.42 932,-588.42 1116,-588.42 1214.05,-588.42 1326.88,-580.93 1399.71,-575.12"/>
<polygon fill="midnightblue" stroke="midnightblue" points="1400.02,-578.61 1409.71,-574.31 1399.46,-571.63 1400.02,-578.61"/>
</g>
<!-- Node12&#45;&gt;Node11 -->
<g id="edge13" class="edge">
<title>Node12&#45;&gt;Node11</title>
<path fill="none" stroke="midnightblue" d="M426.27,-236.85C449.67,-227.97 486.26,-215.03 519,-207.42 742.4,-155.5 1360.37,51.01 1544,-86.42 1588.19,-119.49 1617.61,-291.13 1627.41,-356.81"/>
<polygon fill="midnightblue" stroke="midnightblue" points="1624,-357.71 1628.91,-367.1 1630.93,-356.7 1624,-357.71"/>
</g>
<!-- Node13 -->
<g id="node13" class="node">
<title>Node13</title>
<g id="a_node13"><a xlink:href="classslljit_1_1_parser.html#a79461bf414d03dcabb49d3bbd6f89607" target="_top" xlink:title=" ">
<polygon fill="none" stroke="black" points="519,-373.92 519,-392.92 668,-392.92 668,-373.92 519,-373.92"/>
<text text-anchor="middle" x="593.5" y="-380.92" font-family="Helvetica,sans-Serif" font-size="10.00">slljit::Parser::ParseExpression</text>
</a>
</g>
</g>
<!-- Node12&#45;&gt;Node13 -->
<g id="edge15" class="edge">
<title>Node12&#45;&gt;Node13</title>
<path fill="none" stroke="midnightblue" d="M415.4,-256.05C447.91,-279.44 531.26,-339.38 570.91,-367.9"/>
<polygon fill="midnightblue" stroke="midnightblue" points="568.96,-370.8 579.12,-373.8 573.04,-365.12 568.96,-370.8"/>
</g>
<!-- Node14 -->
<g id="node14" class="node">
<title>Node14</title>
<g id="a_node14"><a xlink:href="classslljit_1_1_parser.html#ae387c9672ec50720d8cb969558aedbe9" target="_top" xlink:title=" ">
<polygon fill="none" stroke="black" points="704,-473.42 704,-503.42 818,-503.42 818,-473.42 704,-473.42"/>
<text text-anchor="start" x="712" y="-491.42" font-family="Helvetica,sans-Serif" font-size="10.00">slljit::Parser::ParseBin</text>
<text text-anchor="middle" x="761" y="-480.42" font-family="Helvetica,sans-Serif" font-size="10.00">OpRHS</text>
</a>
</g>
</g>
<!-- Node13&#45;&gt;Node14 -->
<g id="edge16" class="edge">
<title>Node13&#45;&gt;Node14</title>
<path fill="none" stroke="midnightblue" d="M607.68,-393.14C627.94,-407.92 668.16,-436.64 704,-458.42 709.5,-461.77 715.41,-465.15 721.25,-468.37"/>
<polygon fill="midnightblue" stroke="midnightblue" points="719.85,-471.59 730.31,-473.29 723.19,-465.44 719.85,-471.59"/>
</g>
<!-- Node16 -->
<g id="node16" class="node">
<title>Node16</title>
<g id="a_node16"><a xlink:href="classslljit_1_1_parser.html#af8579896f39ac563d2edd14404d70f41" target="_top" xlink:title=" ">
<polygon fill="none" stroke="black" points="870.5,-434.92 870.5,-453.92 995.5,-453.92 995.5,-434.92 870.5,-434.92"/>
<text text-anchor="middle" x="933" y="-441.92" font-family="Helvetica,sans-Serif" font-size="10.00">slljit::Parser::ParseUnary</text>
</a>
</g>
</g>
<!-- Node13&#45;&gt;Node16 -->
<g id="edge63" class="edge">
<title>Node13&#45;&gt;Node16</title>
<path fill="none" stroke="midnightblue" d="M618,-393.05C639.88,-401.61 673.62,-413.77 704,-420.42 755.69,-431.73 815.18,-437.76 860.43,-440.95"/>
<polygon fill="midnightblue" stroke="midnightblue" points="860.23,-444.45 870.45,-441.63 860.71,-437.46 860.23,-444.45"/>
</g>
<!-- Node14&#45;&gt;Node2 -->
<g id="edge17" class="edge">
<title>Node14&#45;&gt;Node2</title>
<path fill="none" stroke="midnightblue" d="M799.92,-503.54C816.3,-509.46 835.84,-515.7 854,-519.42 1047.86,-559.08 1281.77,-567.09 1399.86,-568.42"/>
<polygon fill="midnightblue" stroke="midnightblue" points="1399.85,-571.92 1409.89,-568.52 1399.92,-564.92 1399.85,-571.92"/>
</g>
<!-- Node14&#45;&gt;Node14 -->
<g id="edge19" class="edge">
<title>Node14&#45;&gt;Node14</title>
<path fill="none" stroke="midnightblue" d="M732.07,-503.58C725.1,-512.98 734.74,-521.92 761,-521.92 777,-521.92 786.84,-518.6 790.5,-513.88"/>
<polygon fill="midnightblue" stroke="midnightblue" points="793.97,-513.37 789.93,-503.58 786.98,-513.76 793.97,-513.37"/>
</g>
<!-- Node15 -->
<g id="node15" class="node">
<title>Node15</title>
<g id="a_node15"><a xlink:href="classslljit_1_1_parser.html#a8485bea3e380a80c8296092996c9ef96" target="_top" xlink:title="Get the precedence of the pending binary operator token.">
<polygon fill="none" stroke="black" points="854,-490.92 854,-509.92 1012,-509.92 1012,-490.92 854,-490.92"/>
<text text-anchor="middle" x="933" y="-497.92" font-family="Helvetica,sans-Serif" font-size="10.00">slljit::Parser::GetTokPrecedence</text>
</a>
</g>
</g>
<!-- Node14&#45;&gt;Node15 -->
<g id="edge18" class="edge">
<title>Node14&#45;&gt;Node15</title>
<path fill="none" stroke="midnightblue" d="M818.14,-492.38C826.34,-492.96 834.95,-493.57 843.6,-494.18"/>
<polygon fill="midnightblue" stroke="midnightblue" points="843.54,-497.68 853.77,-494.9 844.04,-490.7 843.54,-497.68"/>
</g>
<!-- Node14&#45;&gt;Node16 -->
<g id="edge20" class="edge">
<title>Node14&#45;&gt;Node16</title>
<path fill="none" stroke="midnightblue" d="M818.14,-473.89C839.91,-468.25 864.55,-461.88 885.33,-456.5"/>
<polygon fill="midnightblue" stroke="midnightblue" points="886.39,-459.84 895.19,-453.95 884.63,-453.06 886.39,-459.84"/>
</g>
<!-- Node16&#45;&gt;Node2 -->
<g id="edge21" class="edge">
<title>Node16&#45;&gt;Node2</title>
<path fill="none" stroke="midnightblue" d="M987.9,-453.93C1071.25,-469.03 1236.18,-500.49 1374,-536.42 1395.56,-542.04 1419.34,-549.43 1438.51,-555.69"/>
<polygon fill="midnightblue" stroke="midnightblue" points="1437.48,-559.04 1448.07,-558.85 1439.67,-552.39 1437.48,-559.04"/>
</g>
<!-- Node16&#45;&gt;Node16 -->
<g id="edge62" class="edge">
<title>Node16&#45;&gt;Node16</title>
<path fill="none" stroke="midnightblue" d="M906.49,-454.18C893.59,-462.98 902.43,-472.42 933,-472.42 953.54,-472.42 964.27,-468.16 965.19,-462.69"/>
<polygon fill="midnightblue" stroke="midnightblue" points="967.97,-460.56 959.51,-454.18 962.14,-464.44 967.97,-460.56"/>
</g>
<!-- Node17 -->
<g id="node17" class="node">
<title>Node17</title>
<g id="a_node17"><a xlink:href="classslljit_1_1_parser.html#a45cb3e4f600e8e2c253490e7d878e8cd" target="_top" xlink:title=" ">
<polygon fill="none" stroke="black" points="1048,-388.92 1048,-407.92 1182,-407.92 1182,-388.92 1048,-388.92"/>
<text text-anchor="middle" x="1115" y="-395.92" font-family="Helvetica,sans-Serif" font-size="10.00">slljit::Parser::ParsePrimary</text>
</a>
</g>
</g>
<!-- Node16&#45;&gt;Node17 -->
<g id="edge22" class="edge">
<title>Node16&#45;&gt;Node17</title>
<path fill="none" stroke="midnightblue" d="M971.3,-434.89C999.05,-427.8 1037.13,-418.06 1066.97,-410.44"/>
<polygon fill="midnightblue" stroke="midnightblue" points="1067.93,-413.81 1076.75,-407.94 1066.2,-407.02 1067.93,-413.81"/>
</g>
<!-- Node17&#45;&gt;Node11 -->
<g id="edge23" class="edge">
<title>Node17&#45;&gt;Node11</title>
<path fill="none" stroke="midnightblue" d="M1182.36,-396.49C1266.49,-394.02 1416.02,-389.57 1544,-385.42 1552.36,-385.15 1561.17,-384.85 1569.85,-384.56"/>
<polygon fill="midnightblue" stroke="midnightblue" points="1570.06,-388.05 1579.94,-384.22 1569.82,-381.06 1570.06,-388.05"/>
</g>
<!-- Node18 -->
<g id="node18" class="node">
<title>Node18</title>
<g id="a_node18"><a xlink:href="classslljit_1_1_parser.html#a81023e7a6221eb6b92027bd21433c9dd" target="_top" xlink:title="forexpr ::= &#39;for&#39; identifier &#39;=&#39; expr &#39;,&#39; expr (&#39;,&#39; expr)? &#39;in&#39; expression">
<polygon fill="none" stroke="black" points="1229,-198.92 1229,-217.92 1363,-217.92 1363,-198.92 1229,-198.92"/>
<text text-anchor="middle" x="1296" y="-205.92" font-family="Helvetica,sans-Serif" font-size="10.00">slljit::Parser::ParseForExpr</text>
</a>
</g>
</g>
<!-- Node17&#45;&gt;Node18 -->
<g id="edge24" class="edge">
<title>Node17&#45;&gt;Node18</title>
<path fill="none" stroke="midnightblue" d="M1122.11,-388.66C1136.81,-365.61 1176.08,-306.63 1218,-265.42 1234.16,-249.53 1254.93,-234.41 1270.83,-223.74"/>
<polygon fill="midnightblue" stroke="midnightblue" points="1273.12,-226.42 1279.55,-218 1269.27,-220.57 1273.12,-226.42"/>
</g>
<!-- Node21 -->
<g id="node21" class="node">
<title>Node21</title>
<g id="a_node21"><a xlink:href="classslljit_1_1_parser.html#a25cfefcbeea85744e23370d3a6f8ad5b" target="_top" xlink:title=" ">
<polygon fill="none" stroke="black" points="1218,-350.92 1218,-369.92 1374,-369.92 1374,-350.92 1218,-350.92"/>
<text text-anchor="middle" x="1296" y="-357.92" font-family="Helvetica,sans-Serif" font-size="10.00">slljit::Parser::ParseIdentifierExpr</text>
</a>
</g>
</g>
<!-- Node17&#45;&gt;Node21 -->
<g id="edge31" class="edge">
<title>Node17&#45;&gt;Node21</title>
<path fill="none" stroke="midnightblue" d="M1161.17,-388.83C1185.22,-383.73 1214.97,-377.41 1240.32,-372.03"/>
<polygon fill="midnightblue" stroke="midnightblue" points="1241.1,-375.44 1250.16,-369.94 1239.65,-368.59 1241.1,-375.44"/>
</g>
<!-- Node25 -->
<g id="node25" class="node">
<title>Node25</title>
<g id="a_node25"><a xlink:href="classslljit_1_1_parser.html#a149f5e88cb03aa08c388e6320c6c1bac" target="_top" xlink:title="ifexpr ::= &#39;if&#39; expression &#39;then&#39; expression &#39;else&#39; expression">
<polygon fill="none" stroke="black" points="1233.5,-274.92 1233.5,-293.92 1358.5,-293.92 1358.5,-274.92 1233.5,-274.92"/>
<text text-anchor="middle" x="1296" y="-281.92" font-family="Helvetica,sans-Serif" font-size="10.00">slljit::Parser::ParseIfExpr</text>
</a>
</g>
</g>
<!-- Node17&#45;&gt;Node25 -->
<g id="edge39" class="edge">
<title>Node17&#45;&gt;Node25</title>
<path fill="none" stroke="midnightblue" d="M1130.95,-388.9C1161.94,-369.16 1233.38,-323.66 1270.94,-299.74"/>
<polygon fill="midnightblue" stroke="midnightblue" points="1273.16,-302.48 1279.71,-294.16 1269.39,-296.58 1273.16,-302.48"/>
</g>
<!-- Node26 -->
<g id="node26" class="node">
<title>Node26</title>
<g id="a_node26"><a xlink:href="classslljit_1_1_parser.html#af9ccc5948e2cf9051c2569cc42dc3bb7" target="_top" xlink:title="numberexpr ::= number">
<polygon fill="none" stroke="black" points="1223,-426.92 1223,-445.92 1369,-445.92 1369,-426.92 1223,-426.92"/>
<text text-anchor="middle" x="1296" y="-433.92" font-family="Helvetica,sans-Serif" font-size="10.00">slljit::Parser::ParseLiteralExpr</text>
</a>
</g>
</g>
<!-- Node17&#45;&gt;Node26 -->
<g id="edge46" class="edge">
<title>Node17&#45;&gt;Node26</title>
<path fill="none" stroke="midnightblue" d="M1161.17,-408.01C1185.22,-413.11 1214.97,-419.43 1240.32,-424.81"/>
<polygon fill="midnightblue" stroke="midnightblue" points="1239.65,-428.25 1250.16,-426.9 1241.1,-421.4 1239.65,-428.25"/>
</g>
<!-- Node28 -->
<g id="node28" class="node">
<title>Node28</title>
<g id="a_node28"><a xlink:href="classslljit_1_1_parser.html#a6e2e0f6a2cc445f3a956db59c8d2da66" target="_top" xlink:title="parenexpr ::= &#39;(&#39; expression &#39;)&#39;">
<polygon fill="none" stroke="black" points="1223,-464.92 1223,-483.92 1369,-483.92 1369,-464.92 1223,-464.92"/>
<text text-anchor="middle" x="1296" y="-471.92" font-family="Helvetica,sans-Serif" font-size="10.00">slljit::Parser::ParseParenExpr</text>
</a>
</g>
</g>
<!-- Node17&#45;&gt;Node28 -->
<g id="edge50" class="edge">
<title>Node17&#45;&gt;Node28</title>
<path fill="none" stroke="midnightblue" d="M1150.07,-407.95C1160.7,-411.66 1172.2,-416.47 1182,-422.42 1200.56,-433.68 1198.87,-445.17 1218,-455.42 1222.25,-457.7 1226.78,-459.71 1231.43,-461.48"/>
<polygon fill="midnightblue" stroke="midnightblue" points="1230.51,-464.87 1241.11,-464.8 1232.78,-458.24 1230.51,-464.87"/>
</g>
<!-- Node29 -->
<g id="node29" class="node">
<title>Node29</title>
<g id="a_node29"><a xlink:href="classslljit_1_1_parser.html#a435877d3f2869d140a7cca646546a114" target="_top" xlink:title="varexpr ::= &#39;g_var&#39; identifier (&#39;=&#39; expression)?">
<polygon fill="none" stroke="black" points="1228.5,-654.92 1228.5,-673.92 1363.5,-673.92 1363.5,-654.92 1228.5,-654.92"/>
<text text-anchor="middle" x="1296" y="-661.92" font-family="Helvetica,sans-Serif" font-size="10.00">slljit::Parser::ParseVarExpr</text>
</a>
</g>
</g>
<!-- Node17&#45;&gt;Node29 -->
<g id="edge54" class="edge">
<title>Node17&#45;&gt;Node29</title>
<path fill="none" stroke="midnightblue" d="M1122.58,-408.2C1149.07,-447.56 1248.06,-594.67 1282.83,-646.34"/>
<polygon fill="midnightblue" stroke="midnightblue" points="1280.06,-648.49 1288.55,-654.83 1285.87,-644.58 1280.06,-648.49"/>
</g>
<!-- Node18&#45;&gt;Node2 -->
<g id="edge26" class="edge">
<title>Node18&#45;&gt;Node2</title>
<path fill="none" stroke="midnightblue" d="M1318.02,-218.07C1335.98,-227.49 1360.93,-243.59 1374,-265.42 1430.76,-360.23 1356.84,-414.55 1410,-511.42 1419.47,-528.68 1436.34,-543.11 1450.66,-553.13"/>
<polygon fill="midnightblue" stroke="midnightblue" points="1448.89,-556.16 1459.15,-558.79 1452.77,-550.33 1448.89,-556.16"/>
</g>
<!-- Node18&#45;&gt;Node11 -->
<g id="edge25" class="edge">
<title>Node18&#45;&gt;Node11</title>
<path fill="none" stroke="midnightblue" d="M1304.14,-198.79C1320.23,-177.99 1361.75,-129.29 1410,-111.42 1465.85,-90.74 1495.88,-76.33 1544,-111.42 1623.73,-169.56 1632.01,-301.89 1631.8,-357.29"/>
<polygon fill="midnightblue" stroke="midnightblue" points="1628.3,-357.25 1631.66,-367.3 1635.3,-357.35 1628.3,-357.25"/>
</g>
<!-- Node18&#45;&gt;Node12 -->
<g id="edge28" class="edge">
<title>Node18&#45;&gt;Node12</title>
<path fill="none" stroke="midnightblue" d="M1228.8,-208.42C1156.39,-208.42 1036.94,-208.42 934,-208.42 760,-208.42 760,-208.42 760,-208.42 657.39,-208.42 539.15,-224.05 467.53,-235.26"/>
<polygon fill="midnightblue" stroke="midnightblue" points="466.64,-231.86 457.31,-236.88 467.73,-238.77 466.64,-231.86"/>
</g>
<!-- Node18&#45;&gt;Node13 -->
<g id="edge27" class="edge">
<title>Node18&#45;&gt;Node13</title>
<path fill="none" stroke="midnightblue" d="M1249.47,-217.96C1149.92,-239.08 905.67,-292.39 704,-348.42 679.76,-355.15 652.85,-363.74 631.77,-370.72"/>
<polygon fill="midnightblue" stroke="midnightblue" points="630.61,-367.42 622.23,-373.91 632.82,-374.06 630.61,-367.42"/>
</g>
<!-- Node18&#45;&gt;Node19 -->
<g id="edge29" class="edge">
<title>Node18&#45;&gt;Node19</title>
<path fill="none" stroke="midnightblue" d="M1363.14,-199.92C1382.47,-197.44 1403.36,-194.75 1421.85,-192.38"/>
<polygon fill="midnightblue" stroke="midnightblue" points="1422.38,-195.84 1431.85,-191.09 1421.49,-188.9 1422.38,-195.84"/>
</g>
<!-- Node18&#45;&gt;Node20 -->
<g id="edge30" class="edge">
<title>Node18&#45;&gt;Node20</title>
<path fill="none" stroke="midnightblue" d="M1318.52,-198.88C1341.16,-188.93 1377.87,-173.07 1410,-160.42 1414.51,-158.64 1419.22,-156.84 1423.94,-155.06"/>
<polygon fill="midnightblue" stroke="midnightblue" points="1425.47,-158.22 1433.62,-151.45 1423.03,-151.66 1425.47,-158.22"/>
</g>
<!-- Node21&#45;&gt;Node2 -->
<g id="edge37" class="edge">
<title>Node21&#45;&gt;Node2</title>
<path fill="none" stroke="midnightblue" d="M1315.55,-370.07C1332.82,-379.9 1358.2,-396.63 1374,-417.42 1401.06,-453.04 1384.3,-474.8 1410,-511.42 1421.53,-527.84 1438.8,-542.53 1452.79,-552.89"/>
<polygon fill="midnightblue" stroke="midnightblue" points="1450.82,-555.78 1460.99,-558.75 1454.89,-550.09 1450.82,-555.78"/>
</g>
<!-- Node21&#45;&gt;Node11 -->
<g id="edge36" class="edge">
<title>Node21&#45;&gt;Node11</title>
<path fill="none" stroke="midnightblue" d="M1309.85,-350.78C1334.58,-332.45 1388.27,-293.83 1410,-287.42 1467.12,-270.57 1489.49,-263.43 1544,-287.42 1576.89,-301.9 1602.76,-335.62 1617.47,-358.73"/>
<polygon fill="midnightblue" stroke="midnightblue" points="1614.52,-360.61 1622.73,-367.31 1620.49,-356.95 1614.52,-360.61"/>
</g>
<!-- Node21&#45;&gt;Node13 -->
<g id="edge38" class="edge">
<title>Node21&#45;&gt;Node13</title>
<path fill="none" stroke="midnightblue" d="M1217.84,-362.95C1085.22,-367.31 815.14,-376.18 678.17,-380.67"/>
<polygon fill="midnightblue" stroke="midnightblue" points="678.02,-377.18 668.14,-381 678.25,-384.17 678.02,-377.18"/>
</g>
<!-- Node22 -->
<g id="node22" class="node">
<title>Node22</title>
<g id="a_node22"><a xlink:href="classslljit_1_1_parser.html#a4c93eea2333b7705c6aea18df2105196" target="_top" xlink:title=" ">
<polygon fill="none" stroke="black" points="1432.5,-345.42 1432.5,-375.42 1521.5,-375.42 1521.5,-345.42 1432.5,-345.42"/>
<text text-anchor="start" x="1440.5" y="-363.42" font-family="Helvetica,sans-Serif" font-size="10.00">slljit::Parser::find</text>
<text text-anchor="middle" x="1477" y="-352.42" font-family="Helvetica,sans-Serif" font-size="10.00">_var_in_scope</text>
</a>
</g>
</g>
<!-- Node21&#45;&gt;Node22 -->
<g id="edge32" class="edge">
<title>Node21&#45;&gt;Node22</title>
<path fill="none" stroke="midnightblue" d="M1374.21,-360.42C1390.36,-360.42 1407.04,-360.42 1422.12,-360.42"/>
<polygon fill="midnightblue" stroke="midnightblue" points="1422.28,-363.92 1432.28,-360.42 1422.28,-356.92 1422.28,-363.92"/>
</g>
<!-- Node23 -->
<g id="node23" class="node">
<title>Node23</title>
<g id="a_node23"><a xlink:href="classslljit_1_1_parser.html#aee4666b5cca40f389e2458033d9006e3" target="_top" xlink:title=" ">
<polygon fill="none" stroke="black" points="1416,-296.42 1416,-326.42 1538,-326.42 1538,-296.42 1416,-296.42"/>
<text text-anchor="start" x="1424" y="-314.42" font-family="Helvetica,sans-Serif" font-size="10.00">slljit::Parser::get</text>
<text text-anchor="middle" x="1477" y="-303.42" font-family="Helvetica,sans-Serif" font-size="10.00">_current_function_scope</text>
</a>
</g>
</g>
<!-- Node21&#45;&gt;Node23 -->
<g id="edge34" class="edge">
<title>Node21&#45;&gt;Node23</title>
<path fill="none" stroke="midnightblue" d="M1331.94,-350.86C1354.5,-344.68 1384.55,-336.45 1411.36,-329.12"/>
<polygon fill="midnightblue" stroke="midnightblue" points="1412.35,-332.47 1421.07,-326.46 1410.5,-325.72 1412.35,-332.47"/>
</g>
<!-- Node24 -->
<g id="node24" class="node">
<title>Node24</title>
<g id="a_node24"><a xlink:href="classslljit_1_1_tokenizer.html#a6270acd003b9e0a1323c1fdd54cd2fe2" target="_top" xlink:title=" ">
<polygon fill="none" stroke="black" points="1433,-597.42 1433,-627.42 1521,-627.42 1521,-597.42 1433,-597.42"/>
<text text-anchor="start" x="1441" y="-615.42" font-family="Helvetica,sans-Serif" font-size="10.00">slljit::Tokenizer::</text>
<text text-anchor="middle" x="1477" y="-604.42" font-family="Helvetica,sans-Serif" font-size="10.00">get_identifier</text>
</a>
</g>
</g>
<!-- Node21&#45;&gt;Node24 -->
<g id="edge35" class="edge">
<title>Node21&#45;&gt;Node24</title>
<path fill="none" stroke="midnightblue" d="M1317.34,-370.09C1335.1,-379.62 1360.15,-395.87 1374,-417.42 1415.75,-482.39 1359.73,-528.78 1410,-587.42 1413.88,-591.95 1418.68,-595.66 1423.89,-598.7"/>
<polygon fill="midnightblue" stroke="midnightblue" points="1422.47,-601.9 1432.99,-603.21 1425.58,-595.63 1422.47,-601.9"/>
</g>
<!-- Node22&#45;&gt;Node11 -->
<g id="edge33" class="edge">
<title>Node22&#45;&gt;Node11</title>
<path fill="none" stroke="midnightblue" d="M1521.84,-366.72C1536.69,-368.86 1553.56,-371.28 1569.53,-373.58"/>
<polygon fill="midnightblue" stroke="midnightblue" points="1569.46,-377.11 1579.85,-375.07 1570.45,-370.18 1569.46,-377.11"/>
</g>
<!-- Node25&#45;&gt;Node2 -->
<g id="edge41" class="edge">
<title>Node25&#45;&gt;Node2</title>
<path fill="none" stroke="midnightblue" d="M1317.34,-294.09C1335.1,-303.62 1360.15,-319.87 1374,-341.42 1415.75,-406.39 1370.72,-444.92 1410,-511.42 1420.08,-528.48 1437.09,-542.99 1451.32,-553.1"/>
<polygon fill="midnightblue" stroke="midnightblue" points="1449.5,-556.09 1459.74,-558.81 1453.43,-550.3 1449.5,-556.09"/>
</g>
<!-- Node25&#45;&gt;Node11 -->
<g id="edge40" class="edge">
<title>Node25&#45;&gt;Node11</title>
<path fill="none" stroke="midnightblue" d="M1321.74,-274.87C1368.12,-258.6 1470.11,-230.67 1544,-267.42 1581.73,-286.19 1607.46,-329.99 1620.65,-357.8"/>
<polygon fill="midnightblue" stroke="midnightblue" points="1617.62,-359.59 1624.95,-367.24 1623.99,-356.69 1617.62,-359.59"/>
</g>
<!-- Node25&#45;&gt;Node12 -->
<g id="edge43" class="edge">
<title>Node25&#45;&gt;Node12</title>
<path fill="none" stroke="midnightblue" d="M1233.32,-281.8C1078.95,-275.23 675.28,-258.05 493.3,-250.3"/>
<polygon fill="midnightblue" stroke="midnightblue" points="493.36,-246.8 483.22,-249.88 493.06,-253.8 493.36,-246.8"/>
</g>
<!-- Node25&#45;&gt;Node13 -->
<g id="edge42" class="edge">
<title>Node25&#45;&gt;Node13</title>
<path fill="none" stroke="midnightblue" d="M1233.15,-293.16C1105.38,-311.22 812.53,-352.61 672.23,-372.43"/>
<polygon fill="midnightblue" stroke="midnightblue" points="671.4,-369.02 661.98,-373.88 672.38,-375.95 671.4,-369.02"/>
</g>
<!-- Node25&#45;&gt;Node19 -->
<g id="edge44" class="edge">
<title>Node25&#45;&gt;Node19</title>
<path fill="none" stroke="midnightblue" d="M1311.3,-274.91C1332.43,-261.04 1373.44,-234.8 1410,-215.42 1416.88,-211.77 1424.29,-208.14 1431.57,-204.72"/>
<polygon fill="midnightblue" stroke="midnightblue" points="1433.06,-207.88 1440.68,-200.52 1430.13,-201.53 1433.06,-207.88"/>
</g>
<!-- Node25&#45;&gt;Node20 -->
<g id="edge45" class="edge">
<title>Node25&#45;&gt;Node20</title>
<path fill="none" stroke="midnightblue" d="M1314.02,-274.87C1330.86,-264.78 1356.59,-247.54 1374,-227.42 1396.12,-201.86 1384.44,-182.54 1410,-160.42 1413.08,-157.76 1416.47,-155.38 1420.05,-153.26"/>
<polygon fill="midnightblue" stroke="midnightblue" points="1421.97,-156.21 1429.25,-148.51 1418.76,-149.99 1421.97,-156.21"/>
</g>
<!-- Node26&#45;&gt;Node2 -->
<g id="edge49" class="edge">
<title>Node26&#45;&gt;Node2</title>
<path fill="none" stroke="midnightblue" d="M1356.25,-446.05C1362.56,-448.51 1368.62,-451.58 1374,-455.42 1398.07,-472.63 1390.6,-489.08 1410,-511.42 1423.48,-526.95 1441.23,-542.04 1454.93,-552.79"/>
<polygon fill="midnightblue" stroke="midnightblue" points="1452.8,-555.57 1462.86,-558.89 1457.07,-550.02 1452.8,-555.57"/>
</g>
<!-- Node26&#45;&gt;Node11 -->
<g id="edge48" class="edge">
<title>Node26&#45;&gt;Node11</title>
<path fill="none" stroke="midnightblue" d="M1369.26,-437.19C1419,-436.26 1486.26,-432.09 1544,-418.42 1560.18,-414.59 1577.24,-408.12 1591.92,-401.71"/>
<polygon fill="midnightblue" stroke="midnightblue" points="1593.51,-404.83 1601.19,-397.54 1590.64,-398.45 1593.51,-404.83"/>
</g>
<!-- Node27 -->
<g id="node27" class="node">
<title>Node27</title>
<g id="a_node27"><a xlink:href="classslljit_1_1_tokenizer.html#a69d29df7401c1f268a754725c4561470" target="_top" xlink:title=" ">
<polygon fill="none" stroke="black" points="1433,-471.42 1433,-501.42 1521,-501.42 1521,-471.42 1433,-471.42"/>
<text text-anchor="start" x="1441" y="-489.42" font-family="Helvetica,sans-Serif" font-size="10.00">slljit::Tokenizer::</text>
<text text-anchor="middle" x="1477" y="-478.42" font-family="Helvetica,sans-Serif" font-size="10.00">get_literal_string</text>
</a>
</g>
</g>
<!-- Node26&#45;&gt;Node27 -->
<g id="edge47" class="edge">
<title>Node26&#45;&gt;Node27</title>
<path fill="none" stroke="midnightblue" d="M1337.47,-445.98C1349.28,-448.88 1362.18,-452.17 1374,-455.42 1390.11,-459.85 1407.54,-465.01 1423.35,-469.84"/>
<polygon fill="midnightblue" stroke="midnightblue" points="1422.38,-473.2 1432.97,-472.79 1424.44,-466.51 1422.38,-473.2"/>
</g>
<!-- Node28&#45;&gt;Node2 -->
<g id="edge52" class="edge">
<title>Node28&#45;&gt;Node2</title>
<path fill="none" stroke="midnightblue" d="M1343.47,-483.96C1354.08,-487.44 1364.9,-492.13 1374,-498.42 1395.36,-513.17 1388.99,-529.17 1410,-544.42 1415.7,-548.56 1422.19,-552.05 1428.82,-554.98"/>
<polygon fill="midnightblue" stroke="midnightblue" points="1427.98,-558.41 1438.57,-558.87 1430.58,-551.91 1427.98,-558.41"/>
</g>
<!-- Node28&#45;&gt;Node11 -->
<g id="edge51" class="edge">
<title>Node28&#45;&gt;Node11</title>
<path fill="none" stroke="midnightblue" d="M1328.95,-484.03C1342.83,-488.3 1359.27,-493.47 1374,-498.42 1390.12,-503.84 1393.24,-508.49 1410,-511.42 1468.66,-521.69 1491.42,-539.38 1544,-511.42 1585.36,-489.43 1610.6,-438.04 1622.59,-407.17"/>
<polygon fill="midnightblue" stroke="midnightblue" points="1625.96,-408.16 1626.15,-397.56 1619.39,-405.73 1625.96,-408.16"/>
</g>
<!-- Node28&#45;&gt;Node13 -->
<g id="edge53" class="edge">
<title>Node28&#45;&gt;Node13</title>
<path fill="none" stroke="midnightblue" d="M1246.34,-464.91C1190.08,-454.17 1094.63,-436.71 1012,-425.42 896.69,-409.66 762.71,-397.21 678.27,-390.08"/>
<polygon fill="midnightblue" stroke="midnightblue" points="678.48,-386.59 668.22,-389.24 677.89,-393.56 678.48,-386.59"/>
</g>
<!-- Node29&#45;&gt;Node2 -->
<g id="edge58" class="edge">
<title>Node29&#45;&gt;Node2</title>
<path fill="none" stroke="midnightblue" d="M1344.95,-654.86C1355.15,-651.4 1365.42,-646.72 1374,-640.42 1396.65,-623.78 1387.28,-604.97 1410,-588.42 1413.37,-585.96 1417.05,-583.8 1420.89,-581.9"/>
<polygon fill="midnightblue" stroke="midnightblue" points="1422.28,-585.12 1430.07,-577.94 1419.51,-578.69 1422.28,-585.12"/>
</g>
<!-- Node29&#45;&gt;Node11 -->
<g id="edge56" class="edge">
<title>Node29&#45;&gt;Node11</title>
<path fill="none" stroke="midnightblue" d="M1363.79,-664.98C1427.32,-664.15 1517.07,-659 1544,-637.42 1553.38,-629.9 1603.81,-469.97 1623.3,-407.3"/>
<polygon fill="midnightblue" stroke="midnightblue" points="1626.74,-408.04 1626.36,-397.45 1620.05,-405.96 1626.74,-408.04"/>
</g>
<!-- Node29&#45;&gt;Node13 -->
<g id="edge59" class="edge">
<title>Node29&#45;&gt;Node13</title>
<path fill="none" stroke="midnightblue" d="M1228.04,-664.13C1112.01,-660.61 870.09,-639.66 704,-531.42 653.74,-498.67 618.32,-434.39 602.99,-402.41"/>
<polygon fill="midnightblue" stroke="midnightblue" points="606.12,-400.84 598.73,-393.25 599.78,-403.79 606.12,-400.84"/>
</g>
<!-- Node29&#45;&gt;Node24 -->
<g id="edge55" class="edge">
<title>Node29&#45;&gt;Node24</title>
<path fill="none" stroke="midnightblue" d="M1329.83,-654.88C1355.86,-647.32 1392.74,-636.61 1422.95,-627.83"/>
<polygon fill="midnightblue" stroke="midnightblue" points="1424.28,-631.09 1432.91,-624.94 1422.33,-624.37 1424.28,-631.09"/>
</g>
<!-- Node30 -->
<g id="node30" class="node">
<title>Node30</title>
<g id="a_node30"><a xlink:href="classslljit_1_1_tokenizer.html#a9dcee05dc292fa291e6b9644d12c1907" target="_top" xlink:title=" ">
<polygon fill="none" stroke="black" points="1429.5,-685.42 1429.5,-715.42 1524.5,-715.42 1524.5,-685.42 1429.5,-685.42"/>
<text text-anchor="start" x="1437.5" y="-703.42" font-family="Helvetica,sans-Serif" font-size="10.00">slljit::Tokenizer::</text>
<text text-anchor="middle" x="1477" y="-692.42" font-family="Helvetica,sans-Serif" font-size="10.00">get_type_identifier</text>
</a>
</g>
</g>
<!-- Node29&#45;&gt;Node30 -->
<g id="edge57" class="edge">
<title>Node29&#45;&gt;Node30</title>
<path fill="none" stroke="midnightblue" d="M1344.5,-673.97C1367.43,-678.58 1395.11,-684.15 1419.15,-688.99"/>
<polygon fill="midnightblue" stroke="midnightblue" points="1418.72,-692.47 1429.21,-691.01 1420.1,-685.61 1418.72,-692.47"/>
</g>
<!-- Node31 -->
<g id="node31" class="node">
<title>Node31</title>
<g id="a_node31"><a xlink:href="classslljit_1_1_parser.html#acad3f159608acb847e0f693fc07fdd28" target="_top" xlink:title=" ">
<polygon fill="none" stroke="black" points="1429.5,-734.42 1429.5,-764.42 1524.5,-764.42 1524.5,-734.42 1429.5,-734.42"/>
<text text-anchor="start" x="1437.5" y="-752.42" font-family="Helvetica,sans-Serif" font-size="10.00">slljit::Parser::push</text>
<text text-anchor="middle" x="1477" y="-741.42" font-family="Helvetica,sans-Serif" font-size="10.00">_var_into_scope</text>
</a>
</g>
</g>
<!-- Node29&#45;&gt;Node31 -->
<g id="edge60" class="edge">
<title>Node29&#45;&gt;Node31</title>
<path fill="none" stroke="midnightblue" d="M1353.34,-673.96C1360.58,-676.42 1367.67,-679.52 1374,-683.42 1394.93,-696.31 1389.78,-711.43 1410,-725.42 1413.23,-727.66 1416.7,-729.71 1420.29,-731.6"/>
<polygon fill="midnightblue" stroke="midnightblue" points="1418.87,-734.8 1429.41,-735.93 1421.88,-728.48 1418.87,-734.8"/>
</g>
<!-- Node31&#45;&gt;Node11 -->
<g id="edge61" class="edge">
<title>Node31&#45;&gt;Node11</title>
<path fill="none" stroke="midnightblue" d="M1524.78,-739.32C1532.04,-735.94 1538.84,-731.43 1544,-725.42 1597.41,-663.17 1559.66,-623.88 1580,-544.42 1592.62,-495.15 1611.39,-438.72 1622.29,-407.15"/>
<polygon fill="midnightblue" stroke="midnightblue" points="1625.69,-408.04 1625.66,-397.45 1619.07,-405.74 1625.69,-408.04"/>
</g>
<!-- Node32&#45;&gt;Node2 -->
<g id="edge68" class="edge">
<title>Node32&#45;&gt;Node2</title>
<path fill="none" stroke="midnightblue" d="M1359.39,-692.83C1364.69,-690.34 1369.67,-687.26 1374,-683.42 1407.79,-653.47 1377.01,-619.24 1410,-588.42 1412.17,-586.39 1414.55,-584.56 1417.06,-582.92"/>
<polygon fill="midnightblue" stroke="midnightblue" points="1418.95,-585.88 1426.06,-578.03 1415.61,-579.73 1418.95,-585.88"/>
</g>
<!-- Node32&#45;&gt;Node11 -->
<g id="edge66" class="edge">
<title>Node32&#45;&gt;Node11</title>
<path fill="none" stroke="midnightblue" d="M1308.1,-711.95C1345.83,-743.2 1470.86,-837 1544,-774.42 1583.31,-740.79 1568.2,-594.79 1580,-544.42 1591.54,-495.16 1610.53,-439.15 1621.79,-407.57"/>
<polygon fill="midnightblue" stroke="midnightblue" points="1625.2,-408.44 1625.29,-397.84 1618.61,-406.07 1625.2,-408.44"/>
</g>
<!-- Node32&#45;&gt;Node24 -->
<g id="edge65" class="edge">
<title>Node32&#45;&gt;Node24</title>
<path fill="none" stroke="midnightblue" d="M1347.2,-692.86C1356.32,-690.34 1365.6,-687.22 1374,-683.42 1402.21,-670.65 1430.84,-649.89 1450.56,-634.11"/>
<polygon fill="midnightblue" stroke="midnightblue" points="1452.9,-636.72 1458.44,-627.68 1448.48,-631.29 1452.9,-636.72"/>
</g>
<!-- Node32&#45;&gt;Node30 -->
<g id="edge67" class="edge">
<title>Node32&#45;&gt;Node30</title>
<path fill="none" stroke="midnightblue" d="M1367.23,-701.63C1384.51,-701.44 1402.79,-701.24 1419.33,-701.05"/>
<polygon fill="midnightblue" stroke="midnightblue" points="1419.43,-704.55 1429.39,-700.94 1419.35,-697.55 1419.43,-704.55"/>
</g>
<!-- Node32&#45;&gt;Node31 -->
<g id="edge69" class="edge">
<title>Node32&#45;&gt;Node31</title>
<path fill="none" stroke="midnightblue" d="M1333.22,-711.93C1357.99,-718.43 1391.31,-727.18 1419.53,-734.59"/>
<polygon fill="midnightblue" stroke="midnightblue" points="1418.72,-738 1429.28,-737.15 1420.5,-731.23 1418.72,-738"/>
</g>
</g>
</svg>
