<?xml version="1.0" encoding="UTF-8" standalone="no"?>
<!DOCTYPE svg PUBLIC "-//W3C//DTD SVG 1.1//EN"
 "http://www.w3.org/Graphics/SVG/1.1/DTD/svg11.dtd">
<!-- Generated by graphviz version 3.0.0 (20220226.1711)
 -->
<!-- Title: slljit::UnaryExprAST::codegen Pages: 1 -->
<svg width="378pt" height="83pt"
 viewBox="0.00 0.00 378.00 83.00" xmlns="http://www.w3.org/2000/svg" xmlns:xlink="http://www.w3.org/1999/xlink">
<g id="graph0" class="graph" transform="scale(1 1) rotate(0) translate(4 79)">
<title>slljit::UnaryExprAST::codegen</title>
<!-- Node1 -->
<g id="node1" class="node">
<title>Node1</title>
<g id="a_node1"><a xlink:title=" ">
<polygon fill="#bfbfbf" stroke="black" points="0,-22.5 0,-52.5 104,-52.5 104,-22.5 0,-22.5"/>
<text text-anchor="start" x="8" y="-40.5" font-family="Helvetica,sans-Serif" font-size="10.00">slljit::UnaryExprAST</text>
<text text-anchor="middle" x="52" y="-29.5" font-family="Helvetica,sans-Serif" font-size="10.00">::codegen</text>
</a>
</g>
</g>
<!-- Node2 -->
<g id="node2" class="node">
<title>Node2</title>
<g id="a_node2"><a xlink:href="classslljit_1_1_local_context.html#acd5a146c139b01ff0c5d1be79e187749" target="_top" xlink:title=" ">
<polygon fill="none" stroke="black" points="140,-44.5 140,-74.5 237,-74.5 237,-44.5 140,-44.5"/>
<text text-anchor="start" x="148" y="-62.5" font-family="Helvetica,sans-Serif" font-size="10.00">slljit::LocalContext</text>
<text text-anchor="middle" x="188.5" y="-51.5" font-family="Helvetica,sans-Serif" font-size="10.00">::getBuilder</text>
</a>
</g>
</g>
<!-- Node1&#45;&gt;Node2 -->
<g id="edge1" class="edge">
<title>Node1&#45;&gt;Node2</title>
<path fill="none" stroke="midnightblue" d="M104.23,-45.88C112.66,-47.26 121.45,-48.7 130.02,-50.1"/>
<polygon fill="midnightblue" stroke="midnightblue" points="129.51,-53.56 139.95,-51.72 130.64,-46.65 129.51,-53.56"/>
</g>
<!-- Node3 -->
<g id="node3" class="node">
<title>Node3</title>
<g id="a_node3"><a xlink:href="group___a_s_t.html#ga43bd4527a94e16e6fb1be89c3b4fc678" target="_top" xlink:title=" ">
<polygon fill="none" stroke="black" points="143,-6 143,-25 234,-25 234,-6 143,-6"/>
<text text-anchor="middle" x="188.5" y="-13" font-family="Helvetica,sans-Serif" font-size="10.00">slljit::getFunction</text>
</a>
</g>
</g>
<!-- Node1&#45;&gt;Node3 -->
<g id="edge2" class="edge">
<title>Node1&#45;&gt;Node3</title>
<path fill="none" stroke="midnightblue" d="M104.23,-29.12C113.5,-27.6 123.2,-26.02 132.57,-24.49"/>
<polygon fill="midnightblue" stroke="midnightblue" points="133.26,-27.92 142.57,-22.85 132.13,-21.01 133.26,-27.92"/>
</g>
<!-- Node4 -->
<g id="node4" class="node">
<title>Node4</title>
<g id="a_node4"><a xlink:href="classslljit_1_1_local_context.html#abb9845ccd33f6c425e174f0090e92fbe" target="_top" xlink:title=" ">
<polygon fill="none" stroke="black" points="273,-0.5 273,-30.5 370,-30.5 370,-0.5 273,-0.5"/>
<text text-anchor="start" x="281" y="-18.5" font-family="Helvetica,sans-Serif" font-size="10.00">slljit::LocalContext</text>
<text text-anchor="middle" x="321.5" y="-7.5" font-family="Helvetica,sans-Serif" font-size="10.00">::getModule</text>
</a>
</g>
</g>
<!-- Node3&#45;&gt;Node4 -->
<g id="edge3" class="edge">
<title>Node3&#45;&gt;Node4</title>
<path fill="none" stroke="midnightblue" d="M234.22,-15.5C243.36,-15.5 253.11,-15.5 262.64,-15.5"/>
<polygon fill="midnightblue" stroke="midnightblue" points="262.85,-19 272.85,-15.5 262.85,-12 262.85,-19"/>
</g>
</g>
</svg>
