<?xml version="1.0" encoding="UTF-8" standalone="no"?>
<!DOCTYPE svg PUBLIC "-//W3C//DTD SVG 1.1//EN"
 "http://www.w3.org/Graphics/SVG/1.1/DTD/svg11.dtd">
<!-- Generated by graphviz version 3.0.0 (20220226.1711)
 -->
<!-- Title: slljit::Parser::ParseExpression Pages: 1 -->
<svg width="1519pt" height="909pt"
 viewBox="0.00 0.00 1519.00 908.62" xmlns="http://www.w3.org/2000/svg" xmlns:xlink="http://www.w3.org/1999/xlink">
<g id="graph0" class="graph" transform="scale(1 1) rotate(0) translate(4 904.62)">
<title>slljit::Parser::ParseExpression</title>
<!-- Node1 -->
<g id="node1" class="node">
<title>Node1</title>
<g id="a_node1"><a xlink:title=" ">
<polygon fill="#bfbfbf" stroke="black" points="0,-495 0,-514 149,-514 149,-495 0,-495"/>
<text text-anchor="middle" x="74.5" y="-502" font-family="Helvetica,sans-Serif" font-size="10.00">slljit::Parser::ParseExpression</text>
</a>
</g>
</g>
<!-- Node2 -->
<g id="node2" class="node">
<title>Node2</title>
<g id="a_node2"><a xlink:href="classslljit_1_1_parser.html#ae387c9672ec50720d8cb969558aedbe9" target="_top" xlink:title=" ">
<polygon fill="none" stroke="black" points="185,-653.5 185,-683.5 299,-683.5 299,-653.5 185,-653.5"/>
<text text-anchor="start" x="193" y="-671.5" font-family="Helvetica,sans-Serif" font-size="10.00">slljit::Parser::ParseBin</text>
<text text-anchor="middle" x="242" y="-660.5" font-family="Helvetica,sans-Serif" font-size="10.00">OpRHS</text>
</a>
</g>
</g>
<!-- Node1&#45;&gt;Node2 -->
<g id="edge1" class="edge">
<title>Node1&#45;&gt;Node2</title>
<path fill="none" stroke="midnightblue" d="M82.12,-514C98.04,-536.42 140.48,-593.67 185,-632.5 191.19,-637.9 198.25,-643.07 205.23,-647.72"/>
<polygon fill="midnightblue" stroke="midnightblue" points="203.64,-650.87 213.95,-653.33 207.43,-644.98 203.64,-650.87"/>
</g>
<!-- Node12 -->
<g id="node12" class="node">
<title>Node12</title>
<g id="a_node12"><a xlink:href="classslljit_1_1_parser.html#af8579896f39ac563d2edd14404d70f41" target="_top" xlink:title=" ">
<polygon fill="none" stroke="black" points="351.5,-609 351.5,-628 476.5,-628 476.5,-609 351.5,-609"/>
<text text-anchor="middle" x="414" y="-616" font-family="Helvetica,sans-Serif" font-size="10.00">slljit::Parser::ParseUnary</text>
</a>
</g>
</g>
<!-- Node1&#45;&gt;Node12 -->
<g id="edge59" class="edge">
<title>Node1&#45;&gt;Node12</title>
<path fill="none" stroke="midnightblue" d="M83.65,-514.24C100.37,-533.45 140.74,-575.97 185,-594.5 234.32,-615.15 294.67,-620.73 340.88,-621.38"/>
<polygon fill="midnightblue" stroke="midnightblue" points="341.09,-624.88 351.11,-621.45 341.14,-617.88 341.09,-624.88"/>
</g>
<!-- Node2&#45;&gt;Node2 -->
<g id="edge12" class="edge">
<title>Node2&#45;&gt;Node2</title>
<path fill="none" stroke="midnightblue" d="M213.07,-683.66C206.1,-693.06 215.74,-702 242,-702 258,-702 267.84,-698.68 271.5,-693.96"/>
<polygon fill="midnightblue" stroke="midnightblue" points="274.97,-693.45 270.93,-683.66 267.98,-693.84 274.97,-693.45"/>
</g>
<!-- Node3 -->
<g id="node3" class="node">
<title>Node3</title>
<g id="a_node3"><a xlink:href="classslljit_1_1_parser.html#a9fcfefd86a6000dcb40fa737361ea55b" target="_top" xlink:title="GetTokPrecedence &#45; Get the precedence of the pending binary operator token.">
<polygon fill="none" stroke="black" points="1091,-590 1091,-609 1225,-609 1225,-590 1091,-590"/>
<text text-anchor="middle" x="1158" y="-597" font-family="Helvetica,sans-Serif" font-size="10.00">slljit::Parser::getNextToken</text>
</a>
</g>
</g>
<!-- Node2&#45;&gt;Node3 -->
<g id="edge2" class="edge">
<title>Node2&#45;&gt;Node3</title>
<path fill="none" stroke="midnightblue" d="M255.27,-683.62C297.09,-733.33 440.06,-888.5 595,-888.5 595,-888.5 595,-888.5 778,-888.5 901.98,-888.5 956.68,-931.04 1055,-855.5 1075.05,-840.1 1131.53,-675.6 1150.61,-618.72"/>
<polygon fill="midnightblue" stroke="midnightblue" points="1153.96,-619.73 1153.81,-609.13 1147.33,-617.51 1153.96,-619.73"/>
</g>
<!-- Node11 -->
<g id="node11" class="node">
<title>Node11</title>
<g id="a_node11"><a xlink:href="classslljit_1_1_parser.html#a8485bea3e380a80c8296092996c9ef96" target="_top" xlink:title="Get the precedence of the pending binary operator token.">
<polygon fill="none" stroke="black" points="335,-665 335,-684 493,-684 493,-665 335,-665"/>
<text text-anchor="middle" x="414" y="-672" font-family="Helvetica,sans-Serif" font-size="10.00">slljit::Parser::GetTokPrecedence</text>
</a>
</g>
</g>
<!-- Node2&#45;&gt;Node11 -->
<g id="edge11" class="edge">
<title>Node2&#45;&gt;Node11</title>
<path fill="none" stroke="midnightblue" d="M299.14,-670.48C307.34,-670.77 315.95,-671.07 324.6,-671.38"/>
<polygon fill="midnightblue" stroke="midnightblue" points="324.65,-674.88 334.77,-671.74 324.9,-667.89 324.65,-674.88"/>
</g>
<!-- Node2&#45;&gt;Node12 -->
<g id="edge13" class="edge">
<title>Node2&#45;&gt;Node12</title>
<path fill="none" stroke="midnightblue" d="M294.01,-653.5C318.46,-646.31 347.4,-637.79 370.62,-630.96"/>
<polygon fill="midnightblue" stroke="midnightblue" points="371.91,-634.23 380.52,-628.05 369.94,-627.52 371.91,-634.23"/>
</g>
<!-- Node4 -->
<g id="node4" class="node">
<title>Node4</title>
<g id="a_node4"><a xlink:href="classslljit_1_1_tokenizer.html#a4f0b343321f5e4561a80e47a5cec05d2" target="_top" xlink:title=" ">
<polygon fill="none" stroke="black" points="1261,-584.5 1261,-614.5 1349,-614.5 1349,-584.5 1261,-584.5"/>
<text text-anchor="start" x="1269" y="-602.5" font-family="Helvetica,sans-Serif" font-size="10.00">slljit::Tokenizer::</text>
<text text-anchor="middle" x="1305" y="-591.5" font-family="Helvetica,sans-Serif" font-size="10.00">gettok</text>
</a>
</g>
</g>
<!-- Node3&#45;&gt;Node4 -->
<g id="edge3" class="edge">
<title>Node3&#45;&gt;Node4</title>
<path fill="none" stroke="midnightblue" d="M1225.14,-599.5C1233.64,-599.5 1242.27,-599.5 1250.54,-599.5"/>
<polygon fill="midnightblue" stroke="midnightblue" points="1250.79,-603 1260.79,-599.5 1250.79,-596 1250.79,-603"/>
</g>
<!-- Node4&#45;&gt;Node4 -->
<g id="edge5" class="edge">
<title>Node4&#45;&gt;Node4</title>
<path fill="none" stroke="midnightblue" d="M1280.25,-614.66C1274.29,-624.06 1282.54,-633 1305,-633 1318.69,-633 1327.1,-629.68 1330.23,-624.96"/>
<polygon fill="midnightblue" stroke="midnightblue" points="1333.71,-624.48 1329.75,-614.66 1326.72,-624.81 1333.71,-624.48"/>
</g>
<!-- Node5 -->
<g id="node5" class="node">
<title>Node5</title>
<g id="a_node5"><a xlink:href="classslljit_1_1_tokenizer.html#aebe79ebb0da26fa5e89963683d474402" target="_top" xlink:title=" ">
<polygon fill="none" stroke="black" points="1404,-707.5 1404,-737.5 1492,-737.5 1492,-707.5 1404,-707.5"/>
<text text-anchor="start" x="1412" y="-725.5" font-family="Helvetica,sans-Serif" font-size="10.00">slljit::Tokenizer::</text>
<text text-anchor="middle" x="1448" y="-714.5" font-family="Helvetica,sans-Serif" font-size="10.00">_getchar</text>
</a>
</g>
</g>
<!-- Node4&#45;&gt;Node5 -->
<g id="edge4" class="edge">
<title>Node4&#45;&gt;Node5</title>
<path fill="none" stroke="midnightblue" d="M1314.53,-614.66C1327.29,-636.09 1353.27,-675.21 1385,-698.5 1388.02,-700.71 1391.26,-702.75 1394.63,-704.62"/>
<polygon fill="midnightblue" stroke="midnightblue" points="1393.25,-707.85 1403.76,-709.19 1396.38,-701.59 1393.25,-707.85"/>
</g>
<!-- Node6 -->
<g id="node6" class="node">
<title>Node6</title>
<g id="a_node6"><a xlink:href="classslljit_1_1_tokenizer.html#ac5b5748065cb054e0f34d995d1f3edce" target="_top" xlink:title=" ">
<polygon fill="none" stroke="black" points="1404,-658.5 1404,-688.5 1492,-688.5 1492,-658.5 1404,-658.5"/>
<text text-anchor="start" x="1412" y="-676.5" font-family="Helvetica,sans-Serif" font-size="10.00">slljit::Tokenizer::</text>
<text text-anchor="middle" x="1448" y="-665.5" font-family="Helvetica,sans-Serif" font-size="10.00">is_id_char</text>
</a>
</g>
</g>
<!-- Node4&#45;&gt;Node6 -->
<g id="edge6" class="edge">
<title>Node4&#45;&gt;Node6</title>
<path fill="none" stroke="midnightblue" d="M1327.46,-614.7C1342.98,-625.28 1364.71,-639.27 1385,-649.5 1388.34,-651.18 1391.83,-652.83 1395.37,-654.41"/>
<polygon fill="midnightblue" stroke="midnightblue" points="1394.26,-657.74 1404.83,-658.45 1397.01,-651.3 1394.26,-657.74"/>
</g>
<!-- Node7 -->
<g id="node7" class="node">
<title>Node7</title>
<g id="a_node7"><a xlink:href="classslljit_1_1_tokenizer.html#afddb21e93063a4c2338c2d42e23d18d2" target="_top" xlink:title=" ">
<polygon fill="none" stroke="black" points="1404,-609.5 1404,-639.5 1492,-639.5 1492,-609.5 1404,-609.5"/>
<text text-anchor="start" x="1412" y="-627.5" font-family="Helvetica,sans-Serif" font-size="10.00">slljit::Tokenizer::</text>
<text text-anchor="middle" x="1448" y="-616.5" font-family="Helvetica,sans-Serif" font-size="10.00">is_id_start_char</text>
</a>
</g>
</g>
<!-- Node4&#45;&gt;Node7 -->
<g id="edge7" class="edge">
<title>Node4&#45;&gt;Node7</title>
<path fill="none" stroke="midnightblue" d="M1349.07,-607.14C1363.15,-609.63 1378.96,-612.44 1393.71,-615.05"/>
<polygon fill="midnightblue" stroke="midnightblue" points="1393.25,-618.52 1403.71,-616.82 1394.47,-611.63 1393.25,-618.52"/>
</g>
<!-- Node8 -->
<g id="node8" class="node">
<title>Node8</title>
<g id="a_node8"><a xlink:href="classslljit_1_1_tokenizer.html#ada986d1651ab242c370288c198cd726d" target="_top" xlink:title=" ">
<polygon fill="none" stroke="black" points="1385,-560.5 1385,-590.5 1511,-590.5 1511,-560.5 1385,-560.5"/>
<text text-anchor="start" x="1393" y="-578.5" font-family="Helvetica,sans-Serif" font-size="10.00">slljit::Tokenizer::</text>
<text text-anchor="middle" x="1448" y="-567.5" font-family="Helvetica,sans-Serif" font-size="10.00">is_reserved_command_id</text>
</a>
</g>
</g>
<!-- Node4&#45;&gt;Node8 -->
<g id="edge8" class="edge">
<title>Node4&#45;&gt;Node8</title>
<path fill="none" stroke="midnightblue" d="M1349.07,-592.17C1357.31,-590.77 1366.14,-589.26 1375,-587.76"/>
<polygon fill="midnightblue" stroke="midnightblue" points="1375.72,-591.18 1384.99,-586.06 1374.54,-584.28 1375.72,-591.18"/>
</g>
<!-- Node9 -->
<g id="node9" class="node">
<title>Node9</title>
<g id="a_node9"><a xlink:href="classslljit_1_1_tokenizer.html#ab29a7d2f06bb354a3f748106f5ea3e6c" target="_top" xlink:title=" ">
<polygon fill="none" stroke="black" points="1403.5,-511.5 1403.5,-541.5 1492.5,-541.5 1492.5,-511.5 1403.5,-511.5"/>
<text text-anchor="start" x="1411.5" y="-529.5" font-family="Helvetica,sans-Serif" font-size="10.00">slljit::Tokenizer::</text>
<text text-anchor="middle" x="1448" y="-518.5" font-family="Helvetica,sans-Serif" font-size="10.00">is_special_literal</text>
</a>
</g>
</g>
<!-- Node4&#45;&gt;Node9 -->
<g id="edge9" class="edge">
<title>Node4&#45;&gt;Node9</title>
<path fill="none" stroke="midnightblue" d="M1328.6,-584.41C1344.1,-574.41 1365.34,-561.35 1385,-551.5 1389.02,-549.49 1393.24,-547.51 1397.51,-545.6"/>
<polygon fill="midnightblue" stroke="midnightblue" points="1399.09,-548.74 1406.88,-541.56 1396.32,-542.31 1399.09,-548.74"/>
</g>
<!-- Node10 -->
<g id="node10" class="node">
<title>Node10</title>
<g id="a_node10"><a xlink:href="classslljit_1_1_tokenizer.html#ae5cc0911ed858f6bc7bf206928cd66ae" target="_top" xlink:title=" ">
<polygon fill="none" stroke="black" points="1404,-462.5 1404,-492.5 1492,-492.5 1492,-462.5 1404,-462.5"/>
<text text-anchor="start" x="1412" y="-480.5" font-family="Helvetica,sans-Serif" font-size="10.00">slljit::Tokenizer::</text>
<text text-anchor="middle" x="1448" y="-469.5" font-family="Helvetica,sans-Serif" font-size="10.00">set_lok_location</text>
</a>
</g>
</g>
<!-- Node4&#45;&gt;Node10 -->
<g id="edge10" class="edge">
<title>Node4&#45;&gt;Node10</title>
<path fill="none" stroke="midnightblue" d="M1314.87,-584.36C1327.84,-563.38 1353.88,-525.44 1385,-502.5 1388.03,-500.27 1391.28,-498.2 1394.66,-496.29"/>
<polygon fill="midnightblue" stroke="midnightblue" points="1396.5,-499.28 1403.8,-491.61 1393.31,-493.05 1396.5,-499.28"/>
</g>
<!-- Node12&#45;&gt;Node3 -->
<g id="edge14" class="edge">
<title>Node12&#45;&gt;Node3</title>
<path fill="none" stroke="midnightblue" d="M435.76,-628.08C524.21,-668.87 866.35,-826.24 891,-831.5 962.28,-846.72 993.96,-871.34 1055,-831.5 1093.19,-806.57 1136.41,-669.9 1151.47,-618.79"/>
<polygon fill="midnightblue" stroke="midnightblue" points="1154.89,-619.58 1154.32,-609 1148.17,-617.63 1154.89,-619.58"/>
</g>
<!-- Node12&#45;&gt;Node12 -->
<g id="edge58" class="edge">
<title>Node12&#45;&gt;Node12</title>
<path fill="none" stroke="midnightblue" d="M387.49,-628.26C374.59,-637.07 383.43,-646.5 414,-646.5 434.54,-646.5 445.27,-642.24 446.19,-636.77"/>
<polygon fill="midnightblue" stroke="midnightblue" points="448.97,-634.64 440.51,-628.26 443.14,-638.52 448.97,-634.64"/>
</g>
<!-- Node13 -->
<g id="node13" class="node">
<title>Node13</title>
<g id="a_node13"><a xlink:href="classslljit_1_1_parser.html#a45cb3e4f600e8e2c253490e7d878e8cd" target="_top" xlink:title=" ">
<polygon fill="none" stroke="black" points="529,-495 529,-514 663,-514 663,-495 529,-495"/>
<text text-anchor="middle" x="596" y="-502" font-family="Helvetica,sans-Serif" font-size="10.00">slljit::Parser::ParsePrimary</text>
</a>
</g>
</g>
<!-- Node12&#45;&gt;Node13 -->
<g id="edge15" class="edge">
<title>Node12&#45;&gt;Node13</title>
<path fill="none" stroke="midnightblue" d="M430.04,-608.98C461.27,-589.19 533.4,-543.51 571.09,-519.65"/>
<polygon fill="midnightblue" stroke="midnightblue" points="573.3,-522.38 579.88,-514.08 569.56,-516.47 573.3,-522.38"/>
</g>
<!-- Node14 -->
<g id="node14" class="node">
<title>Node14</title>
<g id="a_node14"><a xlink:href="classslljit_1_1_tokenizer.html#a0baa2e9dbe626f0475ee4206f16bbb4e" target="_top" xlink:title=" ">
<polygon fill="none" stroke="black" points="1106,-432.5 1106,-462.5 1210,-462.5 1210,-432.5 1106,-432.5"/>
<text text-anchor="start" x="1114" y="-450.5" font-family="Helvetica,sans-Serif" font-size="10.00">slljit::Tokenizer::</text>
<text text-anchor="middle" x="1158" y="-439.5" font-family="Helvetica,sans-Serif" font-size="10.00">get_source_location</text>
</a>
</g>
</g>
<!-- Node13&#45;&gt;Node14 -->
<g id="edge16" class="edge">
<title>Node13&#45;&gt;Node14</title>
<path fill="none" stroke="midnightblue" d="M663.16,-497.77C772.54,-486.63 989.5,-464.55 1095.64,-453.75"/>
<polygon fill="midnightblue" stroke="midnightblue" points="1096.27,-457.2 1105.86,-452.7 1095.56,-450.24 1096.27,-457.2"/>
</g>
<!-- Node15 -->
<g id="node15" class="node">
<title>Node15</title>
<g id="a_node15"><a xlink:href="classslljit_1_1_parser.html#a81023e7a6221eb6b92027bd21433c9dd" target="_top" xlink:title="forexpr ::= &#39;for&#39; identifier &#39;=&#39; expr &#39;,&#39; expr (&#39;,&#39; expr)? &#39;in&#39; expression">
<polygon fill="none" stroke="black" points="710,-552 710,-571 844,-571 844,-552 710,-552"/>
<text text-anchor="middle" x="777" y="-559" font-family="Helvetica,sans-Serif" font-size="10.00">slljit::Parser::ParseForExpr</text>
</a>
</g>
</g>
<!-- Node13&#45;&gt;Node15 -->
<g id="edge17" class="edge">
<title>Node13&#45;&gt;Node15</title>
<path fill="none" stroke="midnightblue" d="M626.96,-514.04C656.91,-523.58 703.12,-538.29 736.15,-548.81"/>
<polygon fill="midnightblue" stroke="midnightblue" points="735.35,-552.23 745.94,-551.93 737.48,-545.56 735.35,-552.23"/>
</g>
<!-- Node19 -->
<g id="node19" class="node">
<title>Node19</title>
<g id="a_node19"><a xlink:href="classslljit_1_1_parser.html#a25cfefcbeea85744e23370d3a6f8ad5b" target="_top" xlink:title=" ">
<polygon fill="none" stroke="black" points="699,-137 699,-156 855,-156 855,-137 699,-137"/>
<text text-anchor="middle" x="777" y="-144" font-family="Helvetica,sans-Serif" font-size="10.00">slljit::Parser::ParseIdentifierExpr</text>
</a>
</g>
</g>
<!-- Node13&#45;&gt;Node19 -->
<g id="edge27" class="edge">
<title>Node13&#45;&gt;Node19</title>
<path fill="none" stroke="midnightblue" d="M601.79,-494.92C625.85,-446.79 733.74,-231.02 766.52,-165.46"/>
<polygon fill="midnightblue" stroke="midnightblue" points="769.77,-166.78 771.11,-156.27 763.51,-163.65 769.77,-166.78"/>
</g>
<!-- Node23 -->
<g id="node23" class="node">
<title>Node23</title>
<g id="a_node23"><a xlink:href="classslljit_1_1_parser.html#a149f5e88cb03aa08c388e6320c6c1bac" target="_top" xlink:title="ifexpr ::= &#39;if&#39; expression &#39;then&#39; expression &#39;else&#39; expression">
<polygon fill="none" stroke="black" points="714.5,-634 714.5,-653 839.5,-653 839.5,-634 714.5,-634"/>
<text text-anchor="middle" x="777" y="-641" font-family="Helvetica,sans-Serif" font-size="10.00">slljit::Parser::ParseIfExpr</text>
</a>
</g>
</g>
<!-- Node13&#45;&gt;Node23 -->
<g id="edge35" class="edge">
<title>Node13&#45;&gt;Node23</title>
<path fill="none" stroke="midnightblue" d="M609.3,-514.05C639.58,-537.56 717.94,-598.41 755.43,-627.53"/>
<polygon fill="midnightblue" stroke="midnightblue" points="753.57,-630.51 763.61,-633.88 757.86,-624.98 753.57,-630.51"/>
</g>
<!-- Node24 -->
<g id="node24" class="node">
<title>Node24</title>
<g id="a_node24"><a xlink:href="classslljit_1_1_parser.html#af9ccc5948e2cf9051c2569cc42dc3bb7" target="_top" xlink:title="numberexpr ::= number">
<polygon fill="none" stroke="black" points="900,-803 900,-822 1046,-822 1046,-803 900,-803"/>
<text text-anchor="middle" x="973" y="-810" font-family="Helvetica,sans-Serif" font-size="10.00">slljit::Parser::ParseLiteralExpr</text>
</a>
</g>
</g>
<!-- Node13&#45;&gt;Node24 -->
<g id="edge42" class="edge">
<title>Node13&#45;&gt;Node24</title>
<path fill="none" stroke="midnightblue" d="M601.24,-514.12C613.29,-540.56 650,-615.48 699,-662.5 770.23,-730.85 878.68,-777.99 935.06,-799.42"/>
<polygon fill="midnightblue" stroke="midnightblue" points="934.04,-802.77 944.63,-803 936.49,-796.22 934.04,-802.77"/>
</g>
<!-- Node26 -->
<g id="node26" class="node">
<title>Node26</title>
<g id="a_node26"><a xlink:href="classslljit_1_1_parser.html#a6e2e0f6a2cc445f3a956db59c8d2da66" target="_top" xlink:title="parenexpr ::= &#39;(&#39; expression &#39;)&#39;">
<polygon fill="none" stroke="black" points="704,-419 704,-438 850,-438 850,-419 704,-419"/>
<text text-anchor="middle" x="777" y="-426" font-family="Helvetica,sans-Serif" font-size="10.00">slljit::Parser::ParseParenExpr</text>
</a>
</g>
</g>
<!-- Node13&#45;&gt;Node26 -->
<g id="edge46" class="edge">
<title>Node13&#45;&gt;Node26</title>
<path fill="none" stroke="midnightblue" d="M619.67,-494.87C651.14,-481.51 708.23,-457.27 744.02,-442.08"/>
<polygon fill="midnightblue" stroke="midnightblue" points="745.68,-445.18 753.51,-438.05 742.94,-438.73 745.68,-445.18"/>
</g>
<!-- Node27 -->
<g id="node27" class="node">
<title>Node27</title>
<g id="a_node27"><a xlink:href="classslljit_1_1_parser.html#a435877d3f2869d140a7cca646546a114" target="_top" xlink:title="varexpr ::= &#39;g_var&#39; identifier (&#39;=&#39; expression)?">
<polygon fill="none" stroke="black" points="709.5,-318 709.5,-337 844.5,-337 844.5,-318 709.5,-318"/>
<text text-anchor="middle" x="777" y="-325" font-family="Helvetica,sans-Serif" font-size="10.00">slljit::Parser::ParseVarExpr</text>
</a>
</g>
</g>
<!-- Node13&#45;&gt;Node27 -->
<g id="edge50" class="edge">
<title>Node13&#45;&gt;Node27</title>
<path fill="none" stroke="midnightblue" d="M606.62,-494.98C635.52,-466.41 721.8,-381.09 758.82,-344.49"/>
<polygon fill="midnightblue" stroke="midnightblue" points="761.68,-346.58 766.33,-337.06 756.76,-341.61 761.68,-346.58"/>
</g>
<!-- Node15&#45;&gt;Node1 -->
<g id="edge20" class="edge">
<title>Node15&#45;&gt;Node1</title>
<path fill="none" stroke="midnightblue" d="M709.77,-556.11C581.72,-545.69 300.4,-522.8 159.46,-511.33"/>
<polygon fill="midnightblue" stroke="midnightblue" points="159.39,-507.81 149.14,-510.49 158.82,-514.79 159.39,-507.81"/>
</g>
<!-- Node15&#45;&gt;Node3 -->
<g id="edge19" class="edge">
<title>Node15&#45;&gt;Node3</title>
<path fill="none" stroke="midnightblue" d="M828.48,-571.04C847.96,-574.45 870.46,-578.04 891,-580.5 954.81,-588.13 1027.62,-593.07 1080.92,-595.99"/>
<polygon fill="midnightblue" stroke="midnightblue" points="1080.8,-599.49 1090.97,-596.54 1081.17,-592.5 1080.8,-599.49"/>
</g>
<!-- Node15&#45;&gt;Node14 -->
<g id="edge18" class="edge">
<title>Node15&#45;&gt;Node14</title>
<path fill="none" stroke="midnightblue" d="M827.41,-551.99C895.27,-538.67 1013.62,-514.41 1055,-499.5 1078.57,-491.01 1103.66,-478.27 1123.05,-467.53"/>
<polygon fill="midnightblue" stroke="midnightblue" points="1124.81,-470.56 1131.81,-462.6 1121.38,-464.46 1124.81,-470.56"/>
</g>
<!-- Node16 -->
<g id="node16" class="node">
<title>Node16</title>
<g id="a_node16"><a xlink:href="classslljit_1_1_parser.html#acc431005ac3dd38732083d7a1bb0eab2" target="_top" xlink:title=" ">
<polygon fill="none" stroke="black" points="891,-552 891,-571 1055,-571 1055,-552 891,-552"/>
<text text-anchor="middle" x="973" y="-559" font-family="Helvetica,sans-Serif" font-size="10.00">slljit::Parser::ParseExpressionList</text>
</a>
</g>
</g>
<!-- Node15&#45;&gt;Node16 -->
<g id="edge21" class="edge">
<title>Node15&#45;&gt;Node16</title>
<path fill="none" stroke="midnightblue" d="M844.22,-561.5C855.97,-561.5 868.39,-561.5 880.69,-561.5"/>
<polygon fill="midnightblue" stroke="midnightblue" points="880.97,-565 890.97,-561.5 880.97,-558 880.97,-565"/>
</g>
<!-- Node17 -->
<g id="node17" class="node">
<title>Node17</title>
<g id="a_node17"><a xlink:href="classslljit_1_1_parser.html#ae7a9c738da8b5802b80001e306ad668b" target="_top" xlink:title=" ">
<polygon fill="none" stroke="black" points="928,-628.5 928,-658.5 1018,-658.5 1018,-628.5 928,-628.5"/>
<text text-anchor="start" x="936" y="-646.5" font-family="Helvetica,sans-Serif" font-size="10.00">slljit::Parser::pop</text>
<text text-anchor="middle" x="973" y="-635.5" font-family="Helvetica,sans-Serif" font-size="10.00">_scope</text>
</a>
</g>
</g>
<!-- Node15&#45;&gt;Node17 -->
<g id="edge25" class="edge">
<title>Node15&#45;&gt;Node17</title>
<path fill="none" stroke="midnightblue" d="M797.8,-571.17C820.2,-581.98 857.88,-599.77 891,-613.5 900.25,-617.33 910.18,-621.21 919.81,-624.84"/>
<polygon fill="midnightblue" stroke="midnightblue" points="918.71,-628.17 929.3,-628.38 921.16,-621.61 918.71,-628.17"/>
</g>
<!-- Node18 -->
<g id="node18" class="node">
<title>Node18</title>
<g id="a_node18"><a xlink:href="classslljit_1_1_parser.html#a07488f6e4f1ec72ba5c6f04ad550b7a3" target="_top" xlink:title=" ">
<polygon fill="none" stroke="black" points="925.5,-677.5 925.5,-707.5 1020.5,-707.5 1020.5,-677.5 925.5,-677.5"/>
<text text-anchor="start" x="933.5" y="-695.5" font-family="Helvetica,sans-Serif" font-size="10.00">slljit::Parser::push</text>
<text text-anchor="middle" x="973" y="-684.5" font-family="Helvetica,sans-Serif" font-size="10.00">_scope</text>
</a>
</g>
</g>
<!-- Node15&#45;&gt;Node18 -->
<g id="edge26" class="edge">
<title>Node15&#45;&gt;Node18</title>
<path fill="none" stroke="midnightblue" d="M791.2,-571.02C807.09,-582.77 834.24,-603.74 855,-624.5 872.87,-642.37 869.96,-654.51 891,-668.5 898.46,-673.45 906.96,-677.41 915.59,-680.56"/>
<polygon fill="midnightblue" stroke="midnightblue" points="914.74,-683.97 925.34,-683.79 916.94,-677.32 914.74,-683.97"/>
</g>
<!-- Node16&#45;&gt;Node1 -->
<g id="edge24" class="edge">
<title>Node16&#45;&gt;Node1</title>
<path fill="none" stroke="midnightblue" d="M950.09,-551.87C893.09,-527.72 735.02,-466.5 597,-466.5 413,-466.5 413,-466.5 413,-466.5 316.39,-466.5 205.2,-482.06 137.67,-493.27"/>
<polygon fill="midnightblue" stroke="midnightblue" points="136.9,-489.85 127.62,-494.96 138.06,-496.75 136.9,-489.85"/>
</g>
<!-- Node16&#45;&gt;Node3 -->
<g id="edge23" class="edge">
<title>Node16&#45;&gt;Node3</title>
<path fill="none" stroke="midnightblue" d="M1020.18,-571.09C1044.76,-576.19 1075.19,-582.51 1101.1,-587.89"/>
<polygon fill="midnightblue" stroke="midnightblue" points="1100.65,-591.37 1111.15,-589.98 1102.07,-584.52 1100.65,-591.37"/>
</g>
<!-- Node16&#45;&gt;Node14 -->
<g id="edge22" class="edge">
<title>Node16&#45;&gt;Node14</title>
<path fill="none" stroke="midnightblue" d="M1019.12,-551.89C1031.2,-548.32 1043.96,-543.61 1055,-537.5 1086.92,-519.83 1117.46,-490.71 1136.66,-470.4"/>
<polygon fill="midnightblue" stroke="midnightblue" points="1139.46,-472.53 1143.69,-462.82 1134.32,-467.77 1139.46,-472.53"/>
</g>
<!-- Node19&#45;&gt;Node1 -->
<g id="edge34" class="edge">
<title>Node19&#45;&gt;Node1</title>
<path fill="none" stroke="midnightblue" d="M737.26,-156.05C638.53,-181.64 372.11,-258.71 185,-387.5 144.18,-415.6 107.15,-461.24 88.4,-486.41"/>
<polygon fill="midnightblue" stroke="midnightblue" points="85.43,-484.55 82.35,-494.68 91.08,-488.68 85.43,-484.55"/>
</g>
<!-- Node19&#45;&gt;Node3 -->
<g id="edge33" class="edge">
<title>Node19&#45;&gt;Node3</title>
<path fill="none" stroke="midnightblue" d="M855.22,-141.23C927.12,-138.14 1027.26,-139.06 1055,-165.5 1104.73,-212.89 1070.83,-406.84 1091,-472.5 1103.69,-513.81 1129.6,-557.6 1144.91,-581.44"/>
<polygon fill="midnightblue" stroke="midnightblue" points="1141.99,-583.37 1150.39,-589.83 1147.85,-579.54 1141.99,-583.37"/>
</g>
<!-- Node19&#45;&gt;Node14 -->
<g id="edge32" class="edge">
<title>Node19&#45;&gt;Node14</title>
<path fill="none" stroke="midnightblue" d="M800.02,-136.96C850.61,-116.67 976.73,-75.57 1055,-132.5 1149.73,-201.4 1158.28,-360.18 1157.82,-422.11"/>
<polygon fill="midnightblue" stroke="midnightblue" points="1154.32,-422.13 1157.66,-432.18 1161.32,-422.24 1154.32,-422.13"/>
</g>
<!-- Node20 -->
<g id="node20" class="node">
<title>Node20</title>
<g id="a_node20"><a xlink:href="classslljit_1_1_parser.html#a4c93eea2333b7705c6aea18df2105196" target="_top" xlink:title=" ">
<polygon fill="none" stroke="black" points="928.5,-0.5 928.5,-30.5 1017.5,-30.5 1017.5,-0.5 928.5,-0.5"/>
<text text-anchor="start" x="936.5" y="-18.5" font-family="Helvetica,sans-Serif" font-size="10.00">slljit::Parser::find</text>
<text text-anchor="middle" x="973" y="-7.5" font-family="Helvetica,sans-Serif" font-size="10.00">_var_in_scope</text>
</a>
</g>
</g>
<!-- Node19&#45;&gt;Node20 -->
<g id="edge28" class="edge">
<title>Node19&#45;&gt;Node20</title>
<path fill="none" stroke="midnightblue" d="M785.38,-136.94C801.98,-116.12 844.42,-66.36 891,-39.5 899.49,-34.61 909.06,-30.63 918.57,-27.43"/>
<polygon fill="midnightblue" stroke="midnightblue" points="919.91,-30.68 928.42,-24.37 917.83,-24 919.91,-30.68"/>
</g>
<!-- Node21 -->
<g id="node21" class="node">
<title>Node21</title>
<g id="a_node21"><a xlink:href="classslljit_1_1_parser.html#aee4666b5cca40f389e2458033d9006e3" target="_top" xlink:title=" ">
<polygon fill="none" stroke="black" points="912,-49.5 912,-79.5 1034,-79.5 1034,-49.5 912,-49.5"/>
<text text-anchor="start" x="920" y="-67.5" font-family="Helvetica,sans-Serif" font-size="10.00">slljit::Parser::get</text>
<text text-anchor="middle" x="973" y="-56.5" font-family="Helvetica,sans-Serif" font-size="10.00">_current_function_scope</text>
</a>
</g>
</g>
<!-- Node19&#45;&gt;Node21 -->
<g id="edge30" class="edge">
<title>Node19&#45;&gt;Node21</title>
<path fill="none" stroke="midnightblue" d="M797.8,-136.83C820.2,-126.02 857.88,-108.23 891,-94.5 900.25,-90.67 910.18,-86.79 919.81,-83.16"/>
<polygon fill="midnightblue" stroke="midnightblue" points="921.16,-86.39 929.3,-79.62 918.71,-79.83 921.16,-86.39"/>
</g>
<!-- Node22 -->
<g id="node22" class="node">
<title>Node22</title>
<g id="a_node22"><a xlink:href="classslljit_1_1_tokenizer.html#a6270acd003b9e0a1323c1fdd54cd2fe2" target="_top" xlink:title=" ">
<polygon fill="none" stroke="black" points="929,-175.5 929,-205.5 1017,-205.5 1017,-175.5 929,-175.5"/>
<text text-anchor="start" x="937" y="-193.5" font-family="Helvetica,sans-Serif" font-size="10.00">slljit::Tokenizer::</text>
<text text-anchor="middle" x="973" y="-182.5" font-family="Helvetica,sans-Serif" font-size="10.00">get_identifier</text>
</a>
</g>
</g>
<!-- Node19&#45;&gt;Node22 -->
<g id="edge31" class="edge">
<title>Node19&#45;&gt;Node22</title>
<path fill="none" stroke="midnightblue" d="M820.1,-156.05C849.16,-162.64 888.02,-171.45 919.16,-178.52"/>
<polygon fill="midnightblue" stroke="midnightblue" points="918.45,-181.94 928.98,-180.74 920,-175.12 918.45,-181.94"/>
</g>
<!-- Node20&#45;&gt;Node14 -->
<g id="edge29" class="edge">
<title>Node20&#45;&gt;Node14</title>
<path fill="none" stroke="midnightblue" d="M1017.54,-19.88C1031.15,-23.29 1045.16,-29.23 1055,-39.5 1108.9,-95.78 1143.83,-341.87 1153.95,-422.11"/>
<polygon fill="midnightblue" stroke="midnightblue" points="1150.51,-422.8 1155.21,-432.29 1157.46,-421.94 1150.51,-422.8"/>
</g>
<!-- Node23&#45;&gt;Node1 -->
<g id="edge38" class="edge">
<title>Node23&#45;&gt;Node1</title>
<path fill="none" stroke="midnightblue" d="M719.98,-633.93C614.78,-615.73 380.66,-574.13 185,-531.5 164.23,-526.97 141.38,-521.43 121.95,-516.55"/>
<polygon fill="midnightblue" stroke="midnightblue" points="122.69,-513.12 112.13,-514.06 120.97,-519.91 122.69,-513.12"/>
</g>
<!-- Node23&#45;&gt;Node3 -->
<g id="edge37" class="edge">
<title>Node23&#45;&gt;Node3</title>
<path fill="none" stroke="midnightblue" d="M784.19,-653.08C799.25,-675.36 840.3,-730.3 891,-750.5 958.71,-777.47 990.63,-784.7 1055,-750.5 1107.94,-722.37 1138.39,-653.15 1150.64,-619.08"/>
<polygon fill="midnightblue" stroke="midnightblue" points="1154.05,-619.95 1153.99,-609.36 1147.43,-617.67 1154.05,-619.95"/>
</g>
<!-- Node23&#45;&gt;Node14 -->
<g id="edge36" class="edge">
<title>Node23&#45;&gt;Node14</title>
<path fill="none" stroke="midnightblue" d="M788.15,-653.18C806.74,-670.17 848.3,-704.76 891,-717.5 960.85,-738.34 997.28,-762.01 1055,-717.5 1104.85,-679.05 1068.89,-639.45 1091,-580.5 1105.83,-540.95 1128.72,-497.53 1143.27,-471.41"/>
<polygon fill="midnightblue" stroke="midnightblue" points="1146.37,-473.04 1148.23,-462.61 1140.27,-469.6 1146.37,-473.04"/>
</g>
<!-- Node23&#45;&gt;Node16 -->
<g id="edge39" class="edge">
<title>Node23&#45;&gt;Node16</title>
<path fill="none" stroke="midnightblue" d="M800.63,-633.93C835.1,-619.37 900.85,-591.57 940.13,-574.97"/>
<polygon fill="midnightblue" stroke="midnightblue" points="941.66,-578.12 949.51,-571.01 938.94,-571.68 941.66,-578.12"/>
</g>
<!-- Node23&#45;&gt;Node17 -->
<g id="edge40" class="edge">
<title>Node23&#45;&gt;Node17</title>
<path fill="none" stroke="midnightblue" d="M839.65,-643.5C864.7,-643.5 893.39,-643.5 917.64,-643.5"/>
<polygon fill="midnightblue" stroke="midnightblue" points="917.73,-647 927.73,-643.5 917.73,-640 917.73,-647"/>
</g>
<!-- Node23&#45;&gt;Node18 -->
<g id="edge41" class="edge">
<title>Node23&#45;&gt;Node18</title>
<path fill="none" stroke="midnightblue" d="M815.87,-653.06C844.25,-660.23 883.55,-670.16 915.62,-678.26"/>
<polygon fill="midnightblue" stroke="midnightblue" points="914.77,-681.65 925.32,-680.71 916.48,-674.87 914.77,-681.65"/>
</g>
<!-- Node24&#45;&gt;Node3 -->
<g id="edge45" class="edge">
<title>Node24&#45;&gt;Node3</title>
<path fill="none" stroke="midnightblue" d="M1028.36,-802.85C1037.91,-799.43 1047.26,-794.79 1055,-788.5 1111.38,-742.72 1141.01,-657.2 1151.96,-618.91"/>
<polygon fill="midnightblue" stroke="midnightblue" points="1155.4,-619.6 1154.67,-609.03 1148.65,-617.75 1155.4,-619.6"/>
</g>
<!-- Node24&#45;&gt;Node14 -->
<g id="edge44" class="edge">
<title>Node24&#45;&gt;Node14</title>
<path fill="none" stroke="midnightblue" d="M993.25,-802.99C1012.02,-792.69 1039.87,-774.46 1055,-750.5 1096.23,-685.19 1065.63,-653.45 1091,-580.5 1104.87,-540.6 1128.03,-497.28 1142.9,-471.27"/>
<polygon fill="midnightblue" stroke="midnightblue" points="1145.99,-472.92 1147.97,-462.51 1139.93,-469.41 1145.99,-472.92"/>
</g>
<!-- Node25 -->
<g id="node25" class="node">
<title>Node25</title>
<g id="a_node25"><a xlink:href="classslljit_1_1_tokenizer.html#a69d29df7401c1f268a754725c4561470" target="_top" xlink:title=" ">
<polygon fill="none" stroke="black" points="1114,-797.5 1114,-827.5 1202,-827.5 1202,-797.5 1114,-797.5"/>
<text text-anchor="start" x="1122" y="-815.5" font-family="Helvetica,sans-Serif" font-size="10.00">slljit::Tokenizer::</text>
<text text-anchor="middle" x="1158" y="-804.5" font-family="Helvetica,sans-Serif" font-size="10.00">get_literal_string</text>
</a>
</g>
</g>
<!-- Node24&#45;&gt;Node25 -->
<g id="edge43" class="edge">
<title>Node24&#45;&gt;Node25</title>
<path fill="none" stroke="midnightblue" d="M1046.06,-812.5C1065.3,-812.5 1085.74,-812.5 1103.76,-812.5"/>
<polygon fill="midnightblue" stroke="midnightblue" points="1103.78,-816 1113.78,-812.5 1103.78,-809 1103.78,-816"/>
</g>
<!-- Node26&#45;&gt;Node1 -->
<g id="edge49" class="edge">
<title>Node26&#45;&gt;Node1</title>
<path fill="none" stroke="midnightblue" d="M703.74,-422.26C591.05,-414.56 367.45,-407.47 185,-452.5 153.85,-460.19 120.97,-477.16 99.47,-489.63"/>
<polygon fill="midnightblue" stroke="midnightblue" points="97.52,-486.71 90.71,-494.83 101.1,-492.73 97.52,-486.71"/>
</g>
<!-- Node26&#45;&gt;Node3 -->
<g id="edge48" class="edge">
<title>Node26&#45;&gt;Node3</title>
<path fill="none" stroke="midnightblue" d="M811.65,-438.03C825.24,-442.12 840.99,-447.19 855,-452.5 946.14,-487.07 967.93,-498.68 1055,-542.5 1081.87,-556.02 1111.84,-573 1132.3,-584.9"/>
<polygon fill="midnightblue" stroke="midnightblue" points="1130.58,-587.95 1140.98,-589.98 1134.11,-581.91 1130.58,-587.95"/>
</g>
<!-- Node26&#45;&gt;Node14 -->
<g id="edge47" class="edge">
<title>Node26&#45;&gt;Node14</title>
<path fill="none" stroke="midnightblue" d="M850.14,-427.47C906.11,-427.23 985.59,-428.13 1055,-433.5 1068.21,-434.52 1082.32,-436.13 1095.7,-437.89"/>
<polygon fill="midnightblue" stroke="midnightblue" points="1095.38,-441.38 1105.76,-439.26 1096.33,-434.44 1095.38,-441.38"/>
</g>
<!-- Node27&#45;&gt;Node1 -->
<g id="edge55" class="edge">
<title>Node27&#45;&gt;Node1</title>
<path fill="none" stroke="midnightblue" d="M709.16,-329.53C596.86,-334.96 364.94,-354.96 185,-428.5 149.61,-442.97 114.28,-470.42 93.69,-488.07"/>
<polygon fill="midnightblue" stroke="midnightblue" points="91.27,-485.53 86.05,-494.75 95.88,-490.8 91.27,-485.53"/>
</g>
<!-- Node27&#45;&gt;Node3 -->
<g id="edge54" class="edge">
<title>Node27&#45;&gt;Node3</title>
<path fill="none" stroke="midnightblue" d="M808.11,-337.01C862,-355.1 976.61,-398.56 1055,-463.5 1096.47,-497.86 1130.65,-552.34 1146.86,-580.8"/>
<polygon fill="midnightblue" stroke="midnightblue" points="1143.9,-582.67 1151.82,-589.7 1150.01,-579.26 1143.9,-582.67"/>
</g>
<!-- Node27&#45;&gt;Node14 -->
<g id="edge52" class="edge">
<title>Node27&#45;&gt;Node14</title>
<path fill="none" stroke="midnightblue" d="M788.15,-317.82C806.74,-300.83 848.3,-266.24 891,-253.5 960.85,-232.66 992.61,-215.81 1055,-253.5 1116.56,-290.68 1142.81,-378.69 1152.34,-422.22"/>
<polygon fill="midnightblue" stroke="midnightblue" points="1148.97,-423.18 1154.42,-432.27 1155.83,-421.77 1148.97,-423.18"/>
</g>
<!-- Node27&#45;&gt;Node22 -->
<g id="edge51" class="edge">
<title>Node27&#45;&gt;Node22</title>
<path fill="none" stroke="midnightblue" d="M785.78,-317.86C802.82,-297.31 845.57,-248.75 891,-220.5 899.69,-215.09 909.5,-210.44 919.23,-206.52"/>
<polygon fill="midnightblue" stroke="midnightblue" points="920.77,-209.67 928.87,-202.84 918.28,-203.13 920.77,-209.67"/>
</g>
<!-- Node28 -->
<g id="node28" class="node">
<title>Node28</title>
<g id="a_node28"><a xlink:href="classslljit_1_1_tokenizer.html#a9dcee05dc292fa291e6b9644d12c1907" target="_top" xlink:title=" ">
<polygon fill="none" stroke="black" points="925.5,-312.5 925.5,-342.5 1020.5,-342.5 1020.5,-312.5 925.5,-312.5"/>
<text text-anchor="start" x="933.5" y="-330.5" font-family="Helvetica,sans-Serif" font-size="10.00">slljit::Tokenizer::</text>
<text text-anchor="middle" x="973" y="-319.5" font-family="Helvetica,sans-Serif" font-size="10.00">get_type_identifier</text>
</a>
</g>
</g>
<!-- Node27&#45;&gt;Node28 -->
<g id="edge53" class="edge">
<title>Node27&#45;&gt;Node28</title>
<path fill="none" stroke="midnightblue" d="M844.76,-327.5C867.66,-327.5 893.06,-327.5 915.1,-327.5"/>
<polygon fill="midnightblue" stroke="midnightblue" points="915.3,-331 925.3,-327.5 915.3,-324 915.3,-331"/>
</g>
<!-- Node29 -->
<g id="node29" class="node">
<title>Node29</title>
<g id="a_node29"><a xlink:href="classslljit_1_1_parser.html#acad3f159608acb847e0f693fc07fdd28" target="_top" xlink:title=" ">
<polygon fill="none" stroke="black" points="925.5,-263.5 925.5,-293.5 1020.5,-293.5 1020.5,-263.5 925.5,-263.5"/>
<text text-anchor="start" x="933.5" y="-281.5" font-family="Helvetica,sans-Serif" font-size="10.00">slljit::Parser::push</text>
<text text-anchor="middle" x="973" y="-270.5" font-family="Helvetica,sans-Serif" font-size="10.00">_var_into_scope</text>
</a>
</g>
</g>
<!-- Node27&#45;&gt;Node29 -->
<g id="edge56" class="edge">
<title>Node27&#45;&gt;Node29</title>
<path fill="none" stroke="midnightblue" d="M815.87,-317.94C844.25,-310.77 883.55,-300.84 915.62,-292.74"/>
<polygon fill="midnightblue" stroke="midnightblue" points="916.48,-296.13 925.32,-290.29 914.77,-289.35 916.48,-296.13"/>
</g>
<!-- Node29&#45;&gt;Node14 -->
<g id="edge57" class="edge">
<title>Node29&#45;&gt;Node14</title>
<path fill="none" stroke="midnightblue" d="M1020.59,-286.58C1032.54,-290.14 1044.87,-295.23 1055,-302.5 1098.95,-334.07 1130.64,-390.67 1146.18,-423.02"/>
<polygon fill="midnightblue" stroke="midnightblue" points="1143.08,-424.65 1150.48,-432.23 1149.42,-421.69 1143.08,-424.65"/>
</g>
</g>
</svg>
