<?xml version="1.0" encoding="UTF-8" standalone="no"?>
<!DOCTYPE svg PUBLIC "-//W3C//DTD SVG 1.1//EN"
 "http://www.w3.org/Graphics/SVG/1.1/DTD/svg11.dtd">
<!-- Generated by graphviz version 3.0.0 (20220226.1711)
 -->
<!-- Title: slljit::Parser::ParseForExpr Pages: 1 -->
<svg width="1689pt" height="910pt"
 viewBox="0.00 0.00 1689.00 909.92" xmlns="http://www.w3.org/2000/svg" xmlns:xlink="http://www.w3.org/1999/xlink">
<g id="graph0" class="graph" transform="scale(1 1) rotate(0) translate(4 905.92)">
<title>slljit::Parser::ParseForExpr</title>
<!-- Node1 -->
<g id="node1" class="node">
<title>Node1</title>
<g id="a_node1"><a xlink:title="forexpr ::= &#39;for&#39; identifier &#39;=&#39; expr &#39;,&#39; expr (&#39;,&#39; expr)? &#39;in&#39; expression">
<polygon fill="#bfbfbf" stroke="black" points="0,-289.42 0,-308.42 134,-308.42 134,-289.42 0,-289.42"/>
<text text-anchor="middle" x="67" y="-296.42" font-family="Helvetica,sans-Serif" font-size="10.00">slljit::Parser::ParseForExpr</text>
</a>
</g>
</g>
<!-- Node2 -->
<g id="node2" class="node">
<title>Node2</title>
<g id="a_node2"><a xlink:href="classslljit_1_1_tokenizer.html#a0baa2e9dbe626f0475ee4206f16bbb4e" target="_top" xlink:title=" ">
<polygon fill="none" stroke="black" points="1276,-589.92 1276,-619.92 1380,-619.92 1380,-589.92 1276,-589.92"/>
<text text-anchor="start" x="1284" y="-607.92" font-family="Helvetica,sans-Serif" font-size="10.00">slljit::Tokenizer::</text>
<text text-anchor="middle" x="1328" y="-596.92" font-family="Helvetica,sans-Serif" font-size="10.00">get_source_location</text>
</a>
</g>
</g>
<!-- Node1&#45;&gt;Node2 -->
<g id="edge1" class="edge">
<title>Node1&#45;&gt;Node2</title>
<path fill="none" stroke="midnightblue" d="M68.79,-308.66C75.58,-385.38 130.79,-888.92 411,-888.92 411,-888.92 411,-888.92 948,-888.92 1071.88,-888.92 1126.34,-932.84 1225,-857.92 1299.3,-801.49 1319.65,-682.1 1325.08,-630.06"/>
<polygon fill="midnightblue" stroke="midnightblue" points="1328.57,-630.3 1326.03,-620.02 1321.61,-629.65 1328.57,-630.3"/>
</g>
<!-- Node3 -->
<g id="node3" class="node">
<title>Node3</title>
<g id="a_node3"><a xlink:href="classslljit_1_1_parser.html#a9fcfefd86a6000dcb40fa737361ea55b" target="_top" xlink:title="GetTokPrecedence &#45; Get the precedence of the pending binary operator token.">
<polygon fill="none" stroke="black" points="1261,-251.42 1261,-270.42 1395,-270.42 1395,-251.42 1261,-251.42"/>
<text text-anchor="middle" x="1328" y="-258.42" font-family="Helvetica,sans-Serif" font-size="10.00">slljit::Parser::getNextToken</text>
</a>
</g>
</g>
<!-- Node1&#45;&gt;Node3 -->
<g id="edge2" class="edge">
<title>Node1&#45;&gt;Node3</title>
<path fill="none" stroke="midnightblue" d="M68.67,-289.24C71.87,-251.37 88.93,-112.23 170,-47.92 254.95,19.47 302.57,-9.92 411,-9.92 411,-9.92 411,-9.92 948,-9.92 1072.09,-9.92 1124.56,27.95 1225,-44.92 1292.01,-93.53 1316.53,-197.67 1324.09,-241.18"/>
<polygon fill="midnightblue" stroke="midnightblue" points="1320.64,-241.77 1325.69,-251.08 1327.55,-240.65 1320.64,-241.77"/>
</g>
<!-- Node11 -->
<g id="node11" class="node">
<title>Node11</title>
<g id="a_node11"><a xlink:href="classslljit_1_1_parser.html#a79461bf414d03dcabb49d3bbd6f89607" target="_top" xlink:title=" ">
<polygon fill="none" stroke="black" points="170,-289.42 170,-308.42 319,-308.42 319,-289.42 170,-289.42"/>
<text text-anchor="middle" x="244.5" y="-296.42" font-family="Helvetica,sans-Serif" font-size="10.00">slljit::Parser::ParseExpression</text>
</a>
</g>
</g>
<!-- Node1&#45;&gt;Node11 -->
<g id="edge11" class="edge">
<title>Node1&#45;&gt;Node11</title>
<path fill="none" stroke="midnightblue" d="M134.35,-298.92C142.56,-298.92 151.04,-298.92 159.47,-298.92"/>
<polygon fill="midnightblue" stroke="midnightblue" points="159.71,-302.42 169.71,-298.92 159.71,-295.42 159.71,-302.42"/>
</g>
<!-- Node21 -->
<g id="node21" class="node">
<title>Node21</title>
<g id="a_node21"><a xlink:href="classslljit_1_1_parser.html#acc431005ac3dd38732083d7a1bb0eab2" target="_top" xlink:title=" ">
<polygon fill="none" stroke="black" points="1061,-251.42 1061,-270.42 1225,-270.42 1225,-251.42 1061,-251.42"/>
<text text-anchor="middle" x="1143" y="-258.42" font-family="Helvetica,sans-Serif" font-size="10.00">slljit::Parser::ParseExpressionList</text>
</a>
</g>
</g>
<!-- Node1&#45;&gt;Node21 -->
<g id="edge57" class="edge">
<title>Node1&#45;&gt;Node21</title>
<path fill="none" stroke="midnightblue" d="M109.44,-308.43C127.88,-312.19 149.91,-316.06 170,-317.92 235.94,-324.01 252.78,-318.24 319,-317.92 632.85,-316.39 728.29,-404.25 1025,-301.92 1043.42,-295.57 1043.07,-284.52 1061,-276.92 1063.88,-275.7 1066.85,-274.57 1069.88,-273.53"/>
<polygon fill="midnightblue" stroke="midnightblue" points="1071.22,-276.78 1079.73,-270.48 1069.14,-270.09 1071.22,-276.78"/>
</g>
<!-- Node22 -->
<g id="node22" class="node">
<title>Node22</title>
<g id="a_node22"><a xlink:href="classslljit_1_1_parser.html#ae7a9c738da8b5802b80001e306ad668b" target="_top" xlink:title=" ">
<polygon fill="none" stroke="black" points="1098,-125.92 1098,-155.92 1188,-155.92 1188,-125.92 1098,-125.92"/>
<text text-anchor="start" x="1106" y="-143.92" font-family="Helvetica,sans-Serif" font-size="10.00">slljit::Parser::pop</text>
<text text-anchor="middle" x="1143" y="-132.92" font-family="Helvetica,sans-Serif" font-size="10.00">_scope</text>
</a>
</g>
</g>
<!-- Node1&#45;&gt;Node22 -->
<g id="edge58" class="edge">
<title>Node1&#45;&gt;Node22</title>
<path fill="none" stroke="midnightblue" d="M76.12,-289.16C111.34,-248.04 256.05,-90.92 411,-90.92 411,-90.92 411,-90.92 767,-90.92 882.11,-90.92 1015.36,-114.35 1087.97,-129.13"/>
<polygon fill="midnightblue" stroke="midnightblue" points="1087.3,-132.57 1097.81,-131.16 1088.72,-125.71 1087.3,-132.57"/>
</g>
<!-- Node23 -->
<g id="node23" class="node">
<title>Node23</title>
<g id="a_node23"><a xlink:href="classslljit_1_1_parser.html#a07488f6e4f1ec72ba5c6f04ad550b7a3" target="_top" xlink:title=" ">
<polygon fill="none" stroke="black" points="1095.5,-76.92 1095.5,-106.92 1190.5,-106.92 1190.5,-76.92 1095.5,-76.92"/>
<text text-anchor="start" x="1103.5" y="-94.92" font-family="Helvetica,sans-Serif" font-size="10.00">slljit::Parser::push</text>
<text text-anchor="middle" x="1143" y="-83.92" font-family="Helvetica,sans-Serif" font-size="10.00">_scope</text>
</a>
</g>
</g>
<!-- Node1&#45;&gt;Node23 -->
<g id="edge59" class="edge">
<title>Node1&#45;&gt;Node23</title>
<path fill="none" stroke="midnightblue" d="M70,-289.39C77.19,-257.6 104.85,-154.4 170,-104.92 257.26,-38.64 301.42,-52.92 411,-52.92 411,-52.92 411,-52.92 767,-52.92 880.46,-52.92 1012.21,-70.8 1085.45,-82.35"/>
<polygon fill="midnightblue" stroke="midnightblue" points="1084.97,-85.81 1095.39,-83.93 1086.07,-78.9 1084.97,-85.81"/>
</g>
<!-- Node4 -->
<g id="node4" class="node">
<title>Node4</title>
<g id="a_node4"><a xlink:href="classslljit_1_1_tokenizer.html#a4f0b343321f5e4561a80e47a5cec05d2" target="_top" xlink:title=" ">
<polygon fill="none" stroke="black" points="1431,-245.92 1431,-275.92 1519,-275.92 1519,-245.92 1431,-245.92"/>
<text text-anchor="start" x="1439" y="-263.92" font-family="Helvetica,sans-Serif" font-size="10.00">slljit::Tokenizer::</text>
<text text-anchor="middle" x="1475" y="-252.92" font-family="Helvetica,sans-Serif" font-size="10.00">gettok</text>
</a>
</g>
</g>
<!-- Node3&#45;&gt;Node4 -->
<g id="edge3" class="edge">
<title>Node3&#45;&gt;Node4</title>
<path fill="none" stroke="midnightblue" d="M1395.14,-260.92C1403.64,-260.92 1412.27,-260.92 1420.54,-260.92"/>
<polygon fill="midnightblue" stroke="midnightblue" points="1420.79,-264.42 1430.79,-260.92 1420.79,-257.42 1420.79,-264.42"/>
</g>
<!-- Node4&#45;&gt;Node4 -->
<g id="edge5" class="edge">
<title>Node4&#45;&gt;Node4</title>
<path fill="none" stroke="midnightblue" d="M1450.25,-276.08C1444.29,-285.47 1452.54,-294.42 1475,-294.42 1488.69,-294.42 1497.1,-291.1 1500.23,-286.37"/>
<polygon fill="midnightblue" stroke="midnightblue" points="1503.71,-285.9 1499.75,-276.08 1496.72,-286.23 1503.71,-285.9"/>
</g>
<!-- Node5 -->
<g id="node5" class="node">
<title>Node5</title>
<g id="a_node5"><a xlink:href="classslljit_1_1_tokenizer.html#aebe79ebb0da26fa5e89963683d474402" target="_top" xlink:title=" ">
<polygon fill="none" stroke="black" points="1574,-368.92 1574,-398.92 1662,-398.92 1662,-368.92 1574,-368.92"/>
<text text-anchor="start" x="1582" y="-386.92" font-family="Helvetica,sans-Serif" font-size="10.00">slljit::Tokenizer::</text>
<text text-anchor="middle" x="1618" y="-375.92" font-family="Helvetica,sans-Serif" font-size="10.00">_getchar</text>
</a>
</g>
</g>
<!-- Node4&#45;&gt;Node5 -->
<g id="edge4" class="edge">
<title>Node4&#45;&gt;Node5</title>
<path fill="none" stroke="midnightblue" d="M1484.83,-276.22C1497.76,-297.42 1523.75,-335.75 1555,-358.92 1558.02,-361.16 1561.27,-363.23 1564.64,-365.14"/>
<polygon fill="midnightblue" stroke="midnightblue" points="1563.29,-368.38 1573.78,-369.84 1566.49,-362.15 1563.29,-368.38"/>
</g>
<!-- Node6 -->
<g id="node6" class="node">
<title>Node6</title>
<g id="a_node6"><a xlink:href="classslljit_1_1_tokenizer.html#ac5b5748065cb054e0f34d995d1f3edce" target="_top" xlink:title=" ">
<polygon fill="none" stroke="black" points="1574,-319.92 1574,-349.92 1662,-349.92 1662,-319.92 1574,-319.92"/>
<text text-anchor="start" x="1582" y="-337.92" font-family="Helvetica,sans-Serif" font-size="10.00">slljit::Tokenizer::</text>
<text text-anchor="middle" x="1618" y="-326.92" font-family="Helvetica,sans-Serif" font-size="10.00">is_id_char</text>
</a>
</g>
</g>
<!-- Node4&#45;&gt;Node6 -->
<g id="edge6" class="edge">
<title>Node4&#45;&gt;Node6</title>
<path fill="none" stroke="midnightblue" d="M1498.22,-276.13C1513.73,-286.39 1535.14,-299.84 1555,-309.92 1559.01,-311.95 1563.23,-313.94 1567.49,-315.85"/>
<polygon fill="midnightblue" stroke="midnightblue" points="1566.29,-319.15 1576.86,-319.91 1569.07,-312.72 1566.29,-319.15"/>
</g>
<!-- Node7 -->
<g id="node7" class="node">
<title>Node7</title>
<g id="a_node7"><a xlink:href="classslljit_1_1_tokenizer.html#afddb21e93063a4c2338c2d42e23d18d2" target="_top" xlink:title=" ">
<polygon fill="none" stroke="black" points="1574,-270.92 1574,-300.92 1662,-300.92 1662,-270.92 1574,-270.92"/>
<text text-anchor="start" x="1582" y="-288.92" font-family="Helvetica,sans-Serif" font-size="10.00">slljit::Tokenizer::</text>
<text text-anchor="middle" x="1618" y="-277.92" font-family="Helvetica,sans-Serif" font-size="10.00">is_id_start_char</text>
</a>
</g>
</g>
<!-- Node4&#45;&gt;Node7 -->
<g id="edge7" class="edge">
<title>Node4&#45;&gt;Node7</title>
<path fill="none" stroke="midnightblue" d="M1519.07,-268.55C1533.15,-271.05 1548.96,-273.85 1563.71,-276.47"/>
<polygon fill="midnightblue" stroke="midnightblue" points="1563.25,-279.94 1573.71,-278.24 1564.47,-273.05 1563.25,-279.94"/>
</g>
<!-- Node8 -->
<g id="node8" class="node">
<title>Node8</title>
<g id="a_node8"><a xlink:href="classslljit_1_1_tokenizer.html#ada986d1651ab242c370288c198cd726d" target="_top" xlink:title=" ">
<polygon fill="none" stroke="black" points="1555,-221.92 1555,-251.92 1681,-251.92 1681,-221.92 1555,-221.92"/>
<text text-anchor="start" x="1563" y="-239.92" font-family="Helvetica,sans-Serif" font-size="10.00">slljit::Tokenizer::</text>
<text text-anchor="middle" x="1618" y="-228.92" font-family="Helvetica,sans-Serif" font-size="10.00">is_reserved_command_id</text>
</a>
</g>
</g>
<!-- Node4&#45;&gt;Node8 -->
<g id="edge8" class="edge">
<title>Node4&#45;&gt;Node8</title>
<path fill="none" stroke="midnightblue" d="M1519.07,-253.59C1527.31,-252.18 1536.14,-250.68 1545,-249.17"/>
<polygon fill="midnightblue" stroke="midnightblue" points="1545.72,-252.6 1554.99,-247.47 1544.54,-245.7 1545.72,-252.6"/>
</g>
<!-- Node9 -->
<g id="node9" class="node">
<title>Node9</title>
<g id="a_node9"><a xlink:href="classslljit_1_1_tokenizer.html#ab29a7d2f06bb354a3f748106f5ea3e6c" target="_top" xlink:title=" ">
<polygon fill="none" stroke="black" points="1573.5,-172.92 1573.5,-202.92 1662.5,-202.92 1662.5,-172.92 1573.5,-172.92"/>
<text text-anchor="start" x="1581.5" y="-190.92" font-family="Helvetica,sans-Serif" font-size="10.00">slljit::Tokenizer::</text>
<text text-anchor="middle" x="1618" y="-179.92" font-family="Helvetica,sans-Serif" font-size="10.00">is_special_literal</text>
</a>
</g>
</g>
<!-- Node4&#45;&gt;Node9 -->
<g id="edge9" class="edge">
<title>Node4&#45;&gt;Node9</title>
<path fill="none" stroke="midnightblue" d="M1497.84,-245.84C1513.36,-235.51 1534.92,-221.92 1555,-211.92 1558.35,-210.25 1561.84,-208.62 1565.39,-207.04"/>
<polygon fill="midnightblue" stroke="midnightblue" points="1567.02,-210.15 1574.85,-203.01 1564.28,-203.71 1567.02,-210.15"/>
</g>
<!-- Node10 -->
<g id="node10" class="node">
<title>Node10</title>
<g id="a_node10"><a xlink:href="classslljit_1_1_tokenizer.html#ae5cc0911ed858f6bc7bf206928cd66ae" target="_top" xlink:title=" ">
<polygon fill="none" stroke="black" points="1574,-123.92 1574,-153.92 1662,-153.92 1662,-123.92 1574,-123.92"/>
<text text-anchor="start" x="1582" y="-141.92" font-family="Helvetica,sans-Serif" font-size="10.00">slljit::Tokenizer::</text>
<text text-anchor="middle" x="1618" y="-130.92" font-family="Helvetica,sans-Serif" font-size="10.00">set_lok_location</text>
</a>
</g>
</g>
<!-- Node4&#45;&gt;Node10 -->
<g id="edge10" class="edge">
<title>Node4&#45;&gt;Node10</title>
<path fill="none" stroke="midnightblue" d="M1484.57,-245.91C1497.37,-224.71 1523.41,-185.99 1555,-162.92 1558.02,-160.71 1561.27,-158.68 1564.64,-156.81"/>
<polygon fill="midnightblue" stroke="midnightblue" points="1566.4,-159.85 1573.78,-152.25 1563.27,-153.58 1566.4,-159.85"/>
</g>
<!-- Node12 -->
<g id="node12" class="node">
<title>Node12</title>
<g id="a_node12"><a xlink:href="classslljit_1_1_parser.html#ae387c9672ec50720d8cb969558aedbe9" target="_top" xlink:title=" ">
<polygon fill="none" stroke="black" points="355,-215.92 355,-245.92 469,-245.92 469,-215.92 355,-215.92"/>
<text text-anchor="start" x="363" y="-233.92" font-family="Helvetica,sans-Serif" font-size="10.00">slljit::Parser::ParseBin</text>
<text text-anchor="middle" x="412" y="-222.92" font-family="Helvetica,sans-Serif" font-size="10.00">OpRHS</text>
</a>
</g>
</g>
<!-- Node11&#45;&gt;Node12 -->
<g id="edge12" class="edge">
<title>Node11&#45;&gt;Node12</title>
<path fill="none" stroke="midnightblue" d="M268.86,-289.32C293.73,-279.1 333.73,-262.67 364.97,-249.83"/>
<polygon fill="midnightblue" stroke="midnightblue" points="366.44,-253.01 374.36,-245.97 363.78,-246.54 366.44,-253.01"/>
</g>
<!-- Node14 -->
<g id="node14" class="node">
<title>Node14</title>
<g id="a_node14"><a xlink:href="classslljit_1_1_parser.html#af8579896f39ac563d2edd14404d70f41" target="_top" xlink:title=" ">
<polygon fill="none" stroke="black" points="521.5,-157.42 521.5,-176.42 646.5,-176.42 646.5,-157.42 521.5,-157.42"/>
<text text-anchor="middle" x="584" y="-164.42" font-family="Helvetica,sans-Serif" font-size="10.00">slljit::Parser::ParseUnary</text>
</a>
</g>
</g>
<!-- Node11&#45;&gt;Node14 -->
<g id="edge56" class="edge">
<title>Node11&#45;&gt;Node14</title>
<path fill="none" stroke="midnightblue" d="M253.43,-289.39C270.05,-270.12 310.7,-226.6 355,-205.92 404.16,-182.97 464.92,-173.38 511.36,-169.44"/>
<polygon fill="midnightblue" stroke="midnightblue" points="511.64,-172.93 521.34,-168.66 511.09,-165.95 511.64,-172.93"/>
</g>
<!-- Node12&#45;&gt;Node3 -->
<g id="edge13" class="edge">
<title>Node12&#45;&gt;Node3</title>
<path fill="none" stroke="midnightblue" d="M469.08,-228.86C538.53,-226.49 660.47,-222.92 765,-222.92 765,-222.92 765,-222.92 948,-222.92 1071.4,-222.92 1102.58,-226.37 1225,-241.92 1240.24,-243.85 1256.66,-246.61 1271.76,-249.42"/>
<polygon fill="midnightblue" stroke="midnightblue" points="1271.51,-252.94 1281.99,-251.37 1272.82,-246.06 1271.51,-252.94"/>
</g>
<!-- Node12&#45;&gt;Node12 -->
<g id="edge15" class="edge">
<title>Node12&#45;&gt;Node12</title>
<path fill="none" stroke="midnightblue" d="M383.07,-246.08C376.1,-255.47 385.74,-264.42 412,-264.42 428,-264.42 437.84,-261.1 441.5,-256.37"/>
<polygon fill="midnightblue" stroke="midnightblue" points="444.97,-255.87 440.93,-246.08 437.98,-256.25 444.97,-255.87"/>
</g>
<!-- Node13 -->
<g id="node13" class="node">
<title>Node13</title>
<g id="a_node13"><a xlink:href="classslljit_1_1_parser.html#a8485bea3e380a80c8296092996c9ef96" target="_top" xlink:title="Get the precedence of the pending binary operator token.">
<polygon fill="none" stroke="black" points="505,-251.42 505,-270.42 663,-270.42 663,-251.42 505,-251.42"/>
<text text-anchor="middle" x="584" y="-258.42" font-family="Helvetica,sans-Serif" font-size="10.00">slljit::Parser::GetTokPrecedence</text>
</a>
</g>
</g>
<!-- Node12&#45;&gt;Node13 -->
<g id="edge14" class="edge">
<title>Node12&#45;&gt;Node13</title>
<path fill="none" stroke="midnightblue" d="M469.14,-240.82C485.07,-243.64 502.55,-246.72 518.92,-249.61"/>
<polygon fill="midnightblue" stroke="midnightblue" points="518.49,-253.09 528.95,-251.38 519.71,-246.19 518.49,-253.09"/>
</g>
<!-- Node12&#45;&gt;Node14 -->
<g id="edge16" class="edge">
<title>Node12&#45;&gt;Node14</title>
<path fill="none" stroke="midnightblue" d="M452.86,-215.91C481.7,-205.05 520.31,-190.52 547.98,-180.1"/>
<polygon fill="midnightblue" stroke="midnightblue" points="549.51,-183.26 557.63,-176.47 547.04,-176.71 549.51,-183.26"/>
</g>
<!-- Node14&#45;&gt;Node3 -->
<g id="edge17" class="edge">
<title>Node14&#45;&gt;Node3</title>
<path fill="none" stroke="midnightblue" d="M614.26,-157.39C725.26,-121.97 1119.47,-3.18 1225,-66.92 1289.45,-105.84 1315.2,-200.48 1323.58,-241.47"/>
<polygon fill="midnightblue" stroke="midnightblue" points="1320.14,-242.14 1325.46,-251.3 1327.02,-240.82 1320.14,-242.14"/>
</g>
<!-- Node14&#45;&gt;Node14 -->
<g id="edge55" class="edge">
<title>Node14&#45;&gt;Node14</title>
<path fill="none" stroke="midnightblue" d="M557.49,-176.67C544.59,-185.48 553.43,-194.92 584,-194.92 604.54,-194.92 615.27,-190.66 616.19,-185.19"/>
<polygon fill="midnightblue" stroke="midnightblue" points="618.97,-183.05 610.51,-176.67 613.14,-186.94 618.97,-183.05"/>
</g>
<!-- Node15 -->
<g id="node15" class="node">
<title>Node15</title>
<g id="a_node15"><a xlink:href="classslljit_1_1_parser.html#a45cb3e4f600e8e2c253490e7d878e8cd" target="_top" xlink:title=" ">
<polygon fill="none" stroke="black" points="699,-403.42 699,-422.42 833,-422.42 833,-403.42 699,-403.42"/>
<text text-anchor="middle" x="766" y="-410.42" font-family="Helvetica,sans-Serif" font-size="10.00">slljit::Parser::ParsePrimary</text>
</a>
</g>
</g>
<!-- Node14&#45;&gt;Node15 -->
<g id="edge18" class="edge">
<title>Node14&#45;&gt;Node15</title>
<path fill="none" stroke="midnightblue" d="M596.79,-176.5C612.95,-190 642.31,-215.88 663,-241.92 703.36,-292.71 739.37,-360.94 755.71,-393.74"/>
<polygon fill="midnightblue" stroke="midnightblue" points="752.75,-395.65 760.3,-403.07 759.03,-392.56 752.75,-395.65"/>
</g>
<!-- Node15&#45;&gt;Node1 -->
<g id="edge20" class="edge">
<title>Node15&#45;&gt;Node1</title>
<path fill="none" stroke="midnightblue" d="M710.38,-422.46C602.49,-438.82 356.37,-463.71 170,-388.92 132.24,-373.76 99.11,-338.25 81.48,-316.64"/>
<polygon fill="midnightblue" stroke="midnightblue" points="84.06,-314.25 75.1,-308.59 78.57,-318.6 84.06,-314.25"/>
</g>
<!-- Node15&#45;&gt;Node2 -->
<g id="edge19" class="edge">
<title>Node15&#45;&gt;Node2</title>
<path fill="none" stroke="midnightblue" d="M777.93,-422.61C822.85,-462.21 994.01,-610.63 1061,-632.92 1132.55,-656.72 1220.36,-639.06 1275.01,-622.96"/>
<polygon fill="midnightblue" stroke="midnightblue" points="1276.27,-626.24 1284.82,-619.98 1274.24,-619.54 1276.27,-626.24"/>
</g>
<!-- Node16 -->
<g id="node16" class="node">
<title>Node16</title>
<g id="a_node16"><a xlink:href="classslljit_1_1_parser.html#a25cfefcbeea85744e23370d3a6f8ad5b" target="_top" xlink:title=" ">
<polygon fill="none" stroke="black" points="869,-699.42 869,-718.42 1025,-718.42 1025,-699.42 869,-699.42"/>
<text text-anchor="middle" x="947" y="-706.42" font-family="Helvetica,sans-Serif" font-size="10.00">slljit::Parser::ParseIdentifierExpr</text>
</a>
</g>
</g>
<!-- Node15&#45;&gt;Node16 -->
<g id="edge21" class="edge">
<title>Node15&#45;&gt;Node16</title>
<path fill="none" stroke="midnightblue" d="M781.98,-422.59C797.39,-433.4 820.81,-452.37 833,-474.92 876.79,-555.9 810.61,-607.73 869,-678.92 874.62,-685.77 882.01,-691.06 889.99,-695.14"/>
<polygon fill="midnightblue" stroke="midnightblue" points="888.62,-698.37 899.18,-699.26 891.49,-691.98 888.62,-698.37"/>
</g>
<!-- Node20 -->
<g id="node20" class="node">
<title>Node20</title>
<g id="a_node20"><a xlink:href="classslljit_1_1_parser.html#a149f5e88cb03aa08c388e6320c6c1bac" target="_top" xlink:title="ifexpr ::= &#39;if&#39; expression &#39;then&#39; expression &#39;else&#39; expression">
<polygon fill="none" stroke="black" points="884.5,-175.42 884.5,-194.42 1009.5,-194.42 1009.5,-175.42 884.5,-175.42"/>
<text text-anchor="middle" x="947" y="-182.42" font-family="Helvetica,sans-Serif" font-size="10.00">slljit::Parser::ParseIfExpr</text>
</a>
</g>
</g>
<!-- Node15&#45;&gt;Node20 -->
<g id="edge29" class="edge">
<title>Node15&#45;&gt;Node20</title>
<path fill="none" stroke="midnightblue" d="M774.46,-403.41C801.76,-368.64 896.42,-248.07 932.18,-202.53"/>
<polygon fill="midnightblue" stroke="midnightblue" points="935.08,-204.49 938.5,-194.46 929.58,-200.17 935.08,-204.49"/>
</g>
<!-- Node24 -->
<g id="node24" class="node">
<title>Node24</title>
<g id="a_node24"><a xlink:href="classslljit_1_1_parser.html#af9ccc5948e2cf9051c2569cc42dc3bb7" target="_top" xlink:title="numberexpr ::= number">
<polygon fill="none" stroke="black" points="1070,-453.42 1070,-472.42 1216,-472.42 1216,-453.42 1070,-453.42"/>
<text text-anchor="middle" x="1143" y="-460.42" font-family="Helvetica,sans-Serif" font-size="10.00">slljit::Parser::ParseLiteralExpr</text>
</a>
</g>
</g>
<!-- Node15&#45;&gt;Node24 -->
<g id="edge39" class="edge">
<title>Node15&#45;&gt;Node24</title>
<path fill="none" stroke="midnightblue" d="M833.15,-414.41C885.51,-416.41 960.33,-421.06 1025,-431.92 1051.06,-436.29 1079.75,-443.85 1102.19,-450.4"/>
<polygon fill="midnightblue" stroke="midnightblue" points="1101.45,-453.83 1112.03,-453.33 1103.45,-447.12 1101.45,-453.83"/>
</g>
<!-- Node26 -->
<g id="node26" class="node">
<title>Node26</title>
<g id="a_node26"><a xlink:href="classslljit_1_1_parser.html#a6e2e0f6a2cc445f3a956db59c8d2da66" target="_top" xlink:title="parenexpr ::= &#39;(&#39; expression &#39;)&#39;">
<polygon fill="none" stroke="black" points="874,-365.42 874,-384.42 1020,-384.42 1020,-365.42 874,-365.42"/>
<text text-anchor="middle" x="947" y="-372.42" font-family="Helvetica,sans-Serif" font-size="10.00">slljit::Parser::ParseParenExpr</text>
</a>
</g>
</g>
<!-- Node15&#45;&gt;Node26 -->
<g id="edge43" class="edge">
<title>Node15&#45;&gt;Node26</title>
<path fill="none" stroke="midnightblue" d="M812.17,-403.33C836.22,-398.22 865.97,-391.91 891.32,-386.52"/>
<polygon fill="midnightblue" stroke="midnightblue" points="892.1,-389.94 901.16,-384.44 890.65,-383.09 892.1,-389.94"/>
</g>
<!-- Node27 -->
<g id="node27" class="node">
<title>Node27</title>
<g id="a_node27"><a xlink:href="classslljit_1_1_parser.html#a435877d3f2869d140a7cca646546a114" target="_top" xlink:title="varexpr ::= &#39;g_var&#39; identifier (&#39;=&#39; expression)?">
<polygon fill="none" stroke="black" points="879.5,-441.42 879.5,-460.42 1014.5,-460.42 1014.5,-441.42 879.5,-441.42"/>
<text text-anchor="middle" x="947" y="-448.42" font-family="Helvetica,sans-Serif" font-size="10.00">slljit::Parser::ParseVarExpr</text>
</a>
</g>
</g>
<!-- Node15&#45;&gt;Node27 -->
<g id="edge47" class="edge">
<title>Node15&#45;&gt;Node27</title>
<path fill="none" stroke="midnightblue" d="M812.17,-422.51C836.22,-427.61 865.97,-433.93 891.32,-439.31"/>
<polygon fill="midnightblue" stroke="midnightblue" points="890.65,-442.74 901.16,-441.4 892.1,-435.9 890.65,-442.74"/>
</g>
<!-- Node16&#45;&gt;Node2 -->
<g id="edge26" class="edge">
<title>Node16&#45;&gt;Node2</title>
<path fill="none" stroke="midnightblue" d="M953.19,-718.77C966.85,-743.52 1006.57,-808.01 1061,-831.92 1127.73,-861.23 1163.8,-871.51 1225,-831.92 1295.48,-786.31 1317.73,-679.17 1324.36,-630.17"/>
<polygon fill="midnightblue" stroke="midnightblue" points="1327.86,-630.46 1325.61,-620.1 1320.91,-629.59 1327.86,-630.46"/>
</g>
<!-- Node16&#45;&gt;Node3 -->
<g id="edge27" class="edge">
<title>Node16&#45;&gt;Node3</title>
<path fill="none" stroke="midnightblue" d="M949.02,-699.41C953.68,-660.89 976.5,-515.17 1061,-443.92 1118.27,-395.62 1162.91,-446.85 1225,-404.92 1272.45,-372.87 1304.98,-310.88 1319.08,-279.74"/>
<polygon fill="midnightblue" stroke="midnightblue" points="1322.35,-281.01 1323.16,-270.44 1315.94,-278.2 1322.35,-281.01"/>
</g>
<!-- Node16&#45;&gt;Node11 -->
<g id="edge28" class="edge">
<title>Node16&#45;&gt;Node11</title>
<path fill="none" stroke="midnightblue" d="M928.96,-699.31C858.14,-659.34 580.19,-501.95 355,-366.92 325.28,-349.09 291.44,-327.95 269.35,-314.02"/>
<polygon fill="midnightblue" stroke="midnightblue" points="270.97,-310.91 260.64,-308.53 267.23,-316.83 270.97,-310.91"/>
</g>
<!-- Node17 -->
<g id="node17" class="node">
<title>Node17</title>
<g id="a_node17"><a xlink:href="classslljit_1_1_parser.html#a4c93eea2333b7705c6aea18df2105196" target="_top" xlink:title=" ">
<polygon fill="none" stroke="black" points="1098.5,-791.92 1098.5,-821.92 1187.5,-821.92 1187.5,-791.92 1098.5,-791.92"/>
<text text-anchor="start" x="1106.5" y="-809.92" font-family="Helvetica,sans-Serif" font-size="10.00">slljit::Parser::find</text>
<text text-anchor="middle" x="1143" y="-798.92" font-family="Helvetica,sans-Serif" font-size="10.00">_var_in_scope</text>
</a>
</g>
</g>
<!-- Node16&#45;&gt;Node17 -->
<g id="edge22" class="edge">
<title>Node16&#45;&gt;Node17</title>
<path fill="none" stroke="midnightblue" d="M960.22,-718.43C980.27,-733.66 1021.84,-763.65 1061,-781.92 1069.71,-785.98 1079.25,-789.6 1088.63,-792.73"/>
<polygon fill="midnightblue" stroke="midnightblue" points="1087.71,-796.11 1098.3,-795.82 1089.84,-789.44 1087.71,-796.11"/>
</g>
<!-- Node18 -->
<g id="node18" class="node">
<title>Node18</title>
<g id="a_node18"><a xlink:href="classslljit_1_1_parser.html#aee4666b5cca40f389e2458033d9006e3" target="_top" xlink:title=" ">
<polygon fill="none" stroke="black" points="1082,-742.92 1082,-772.92 1204,-772.92 1204,-742.92 1082,-742.92"/>
<text text-anchor="start" x="1090" y="-760.92" font-family="Helvetica,sans-Serif" font-size="10.00">slljit::Parser::get</text>
<text text-anchor="middle" x="1143" y="-749.92" font-family="Helvetica,sans-Serif" font-size="10.00">_current_function_scope</text>
</a>
</g>
</g>
<!-- Node16&#45;&gt;Node18 -->
<g id="edge24" class="edge">
<title>Node16&#45;&gt;Node18</title>
<path fill="none" stroke="midnightblue" d="M985.87,-718.48C1010.53,-724.71 1043.45,-733.03 1072.7,-740.41"/>
<polygon fill="midnightblue" stroke="midnightblue" points="1071.91,-743.82 1082.47,-742.88 1073.63,-737.04 1071.91,-743.82"/>
</g>
<!-- Node19 -->
<g id="node19" class="node">
<title>Node19</title>
<g id="a_node19"><a xlink:href="classslljit_1_1_tokenizer.html#a6270acd003b9e0a1323c1fdd54cd2fe2" target="_top" xlink:title=" ">
<polygon fill="none" stroke="black" points="1099,-693.92 1099,-723.92 1187,-723.92 1187,-693.92 1099,-693.92"/>
<text text-anchor="start" x="1107" y="-711.92" font-family="Helvetica,sans-Serif" font-size="10.00">slljit::Tokenizer::</text>
<text text-anchor="middle" x="1143" y="-700.92" font-family="Helvetica,sans-Serif" font-size="10.00">get_identifier</text>
</a>
</g>
</g>
<!-- Node16&#45;&gt;Node19 -->
<g id="edge25" class="edge">
<title>Node16&#45;&gt;Node19</title>
<path fill="none" stroke="midnightblue" d="M1025.23,-708.92C1046.46,-708.92 1069.01,-708.92 1088.57,-708.92"/>
<polygon fill="midnightblue" stroke="midnightblue" points="1088.8,-712.42 1098.8,-708.92 1088.8,-705.42 1088.8,-712.42"/>
</g>
<!-- Node17&#45;&gt;Node2 -->
<g id="edge23" class="edge">
<title>Node17&#45;&gt;Node2</title>
<path fill="none" stroke="midnightblue" d="M1187.69,-799.8C1200.69,-796.09 1214.3,-790.46 1225,-781.92 1275.8,-741.37 1306.14,-668.16 1319.28,-629.84"/>
<polygon fill="midnightblue" stroke="midnightblue" points="1322.71,-630.6 1322.53,-620.01 1316.07,-628.41 1322.71,-630.6"/>
</g>
<!-- Node20&#45;&gt;Node2 -->
<g id="edge30" class="edge">
<title>Node20&#45;&gt;Node2</title>
<path fill="none" stroke="midnightblue" d="M953.03,-194.73C966.14,-220.59 1001.96,-292.93 1025,-355.92 1045.01,-410.61 1018.21,-442.41 1061,-481.92 1115.63,-532.35 1158.4,-481.86 1225,-514.92 1258.05,-531.32 1288.76,-561.23 1307.67,-582.05"/>
<polygon fill="midnightblue" stroke="midnightblue" points="1305.3,-584.65 1314.55,-589.8 1310.53,-580 1305.3,-584.65"/>
</g>
<!-- Node20&#45;&gt;Node3 -->
<g id="edge31" class="edge">
<title>Node20&#45;&gt;Node3</title>
<path fill="none" stroke="midnightblue" d="M1009.74,-183.56C1066.7,-183.86 1153.07,-188.32 1225,-208.92 1253.7,-217.14 1283.84,-233.61 1303.85,-245.83"/>
<polygon fill="midnightblue" stroke="midnightblue" points="1302.21,-248.93 1312.54,-251.26 1305.92,-242.99 1302.21,-248.93"/>
</g>
<!-- Node20&#45;&gt;Node11 -->
<g id="edge32" class="edge">
<title>Node20&#45;&gt;Node11</title>
<path fill="none" stroke="midnightblue" d="M918.98,-175.34C830.92,-145.89 546.79,-64.9 355,-171.92 308.38,-197.93 272.36,-251.84 255.68,-280.33"/>
<polygon fill="midnightblue" stroke="midnightblue" points="252.5,-278.84 250.6,-289.27 258.59,-282.3 252.5,-278.84"/>
</g>
<!-- Node20&#45;&gt;Node21 -->
<g id="edge33" class="edge">
<title>Node20&#45;&gt;Node21</title>
<path fill="none" stroke="midnightblue" d="M972.57,-194.54C1006.83,-207.96 1069.08,-232.35 1107.84,-247.53"/>
<polygon fill="midnightblue" stroke="midnightblue" points="1107.04,-250.98 1117.63,-251.37 1109.59,-244.46 1107.04,-250.98"/>
</g>
<!-- Node20&#45;&gt;Node22 -->
<g id="edge37" class="edge">
<title>Node20&#45;&gt;Node22</title>
<path fill="none" stroke="midnightblue" d="M990.1,-175.37C1018.85,-168.85 1057.21,-160.15 1088.19,-153.12"/>
<polygon fill="midnightblue" stroke="midnightblue" points="1088.99,-156.53 1097.97,-150.9 1087.44,-149.7 1088.99,-156.53"/>
</g>
<!-- Node20&#45;&gt;Node23 -->
<g id="edge38" class="edge">
<title>Node20&#45;&gt;Node23</title>
<path fill="none" stroke="midnightblue" d="M977.5,-175.3C992.43,-169.69 1010.43,-161.78 1025,-151.92 1043.74,-139.23 1041.55,-127.49 1061,-115.92 1068.6,-111.39 1077.12,-107.67 1085.69,-104.62"/>
<polygon fill="midnightblue" stroke="midnightblue" points="1086.94,-107.89 1095.36,-101.46 1084.76,-101.24 1086.94,-107.89"/>
</g>
<!-- Node21&#45;&gt;Node2 -->
<g id="edge34" class="edge">
<title>Node21&#45;&gt;Node2</title>
<path fill="none" stroke="midnightblue" d="M1154.9,-270.61C1172.29,-286.65 1206.23,-320.48 1225,-355.92 1253.26,-409.27 1238.1,-431.05 1261,-486.92 1275.07,-521.24 1296.92,-558.15 1311.58,-581.38"/>
<polygon fill="midnightblue" stroke="midnightblue" points="1308.67,-583.32 1317,-589.86 1314.57,-579.55 1308.67,-583.32"/>
</g>
<!-- Node21&#45;&gt;Node3 -->
<g id="edge35" class="edge">
<title>Node21&#45;&gt;Node3</title>
<path fill="none" stroke="midnightblue" d="M1225.07,-260.92C1233.56,-260.92 1242.18,-260.92 1250.62,-260.92"/>
<polygon fill="midnightblue" stroke="midnightblue" points="1250.81,-264.42 1260.81,-260.92 1250.81,-257.42 1250.81,-264.42"/>
</g>
<!-- Node21&#45;&gt;Node11 -->
<g id="edge36" class="edge">
<title>Node21&#45;&gt;Node11</title>
<path fill="none" stroke="midnightblue" d="M1084.05,-270.46C1010.52,-281.71 879.72,-298.92 767,-298.92 583,-298.92 583,-298.92 583,-298.92 496.61,-298.92 397.79,-298.92 329.51,-298.92"/>
<polygon fill="midnightblue" stroke="midnightblue" points="329.24,-295.42 319.24,-298.92 329.24,-302.42 329.24,-295.42"/>
</g>
<!-- Node24&#45;&gt;Node2 -->
<g id="edge41" class="edge">
<title>Node24&#45;&gt;Node2</title>
<path fill="none" stroke="midnightblue" d="M1192.66,-472.46C1203.82,-475.94 1215.26,-480.63 1225,-486.92 1263.06,-511.48 1294.93,-554.32 1312.45,-581.07"/>
<polygon fill="midnightblue" stroke="midnightblue" points="1309.7,-583.26 1318.04,-589.8 1315.6,-579.49 1309.7,-583.26"/>
</g>
<!-- Node24&#45;&gt;Node3 -->
<g id="edge42" class="edge">
<title>Node24&#45;&gt;Node3</title>
<path fill="none" stroke="midnightblue" d="M1197.39,-453.41C1207.24,-449.97 1216.95,-445.29 1225,-438.92 1278.67,-396.46 1309.23,-317.48 1321.14,-280.7"/>
<polygon fill="midnightblue" stroke="midnightblue" points="1324.62,-281.32 1324.24,-270.73 1317.93,-279.24 1324.62,-281.32"/>
</g>
<!-- Node25 -->
<g id="node25" class="node">
<title>Node25</title>
<g id="a_node25"><a xlink:href="classslljit_1_1_tokenizer.html#a69d29df7401c1f268a754725c4561470" target="_top" xlink:title=" ">
<polygon fill="none" stroke="black" points="1284,-447.92 1284,-477.92 1372,-477.92 1372,-447.92 1284,-447.92"/>
<text text-anchor="start" x="1292" y="-465.92" font-family="Helvetica,sans-Serif" font-size="10.00">slljit::Tokenizer::</text>
<text text-anchor="middle" x="1328" y="-454.92" font-family="Helvetica,sans-Serif" font-size="10.00">get_literal_string</text>
</a>
</g>
</g>
<!-- Node24&#45;&gt;Node25 -->
<g id="edge40" class="edge">
<title>Node24&#45;&gt;Node25</title>
<path fill="none" stroke="midnightblue" d="M1216.06,-462.92C1235.3,-462.92 1255.74,-462.92 1273.76,-462.92"/>
<polygon fill="midnightblue" stroke="midnightblue" points="1273.78,-466.42 1283.78,-462.92 1273.78,-459.42 1273.78,-466.42"/>
</g>
<!-- Node26&#45;&gt;Node2 -->
<g id="edge44" class="edge">
<title>Node26&#45;&gt;Node2</title>
<path fill="none" stroke="midnightblue" d="M966.03,-384.53C983.15,-394.45 1008.65,-411.34 1025,-431.92 1050.01,-463.4 1030.48,-488.74 1061,-514.92 1118.19,-563.98 1154.06,-532.5 1225,-557.92 1246.51,-565.63 1269.71,-576.13 1288.53,-585.25"/>
<polygon fill="midnightblue" stroke="midnightblue" points="1287.15,-588.47 1297.67,-589.73 1290.24,-582.19 1287.15,-588.47"/>
</g>
<!-- Node26&#45;&gt;Node3 -->
<g id="edge45" class="edge">
<title>Node26&#45;&gt;Node3</title>
<path fill="none" stroke="midnightblue" d="M988.26,-365.33C1000.43,-361.66 1013.58,-356.88 1025,-350.92 1042.96,-341.53 1042.7,-331.64 1061,-322.92 1096.42,-306.02 1197.22,-285.06 1264.06,-272.35"/>
<polygon fill="midnightblue" stroke="midnightblue" points="1264.89,-275.75 1274.07,-270.46 1263.59,-268.88 1264.89,-275.75"/>
</g>
<!-- Node26&#45;&gt;Node11 -->
<g id="edge46" class="edge">
<title>Node26&#45;&gt;Node11</title>
<path fill="none" stroke="midnightblue" d="M873.61,-367.86C762.14,-356.86 541.76,-334.65 355,-312.92 346.36,-311.91 337.33,-310.82 328.34,-309.71"/>
<polygon fill="midnightblue" stroke="midnightblue" points="328.57,-306.21 318.21,-308.45 327.7,-313.16 328.57,-306.21"/>
</g>
<!-- Node27&#45;&gt;Node2 -->
<g id="edge49" class="edge">
<title>Node27&#45;&gt;Node2</title>
<path fill="none" stroke="midnightblue" d="M951.42,-460.71C962.14,-489.66 998.15,-574.84 1061,-606.92 1125.03,-639.6 1209.53,-631.8 1265.94,-620.66"/>
<polygon fill="midnightblue" stroke="midnightblue" points="1266.7,-624.08 1275.79,-618.63 1265.29,-617.22 1266.7,-624.08"/>
</g>
<!-- Node27&#45;&gt;Node3 -->
<g id="edge51" class="edge">
<title>Node27&#45;&gt;Node3</title>
<path fill="none" stroke="midnightblue" d="M962.48,-441.33C978.41,-430.53 1004.46,-412.11 1025,-393.92 1042.42,-378.49 1040.88,-367.59 1061,-355.92 1125.89,-318.26 1154.97,-342.83 1225,-315.92 1253.17,-305.09 1283.36,-288.06 1303.52,-275.82"/>
<polygon fill="midnightblue" stroke="midnightblue" points="1305.36,-278.8 1312.03,-270.57 1301.68,-272.84 1305.36,-278.8"/>
</g>
<!-- Node27&#45;&gt;Node11 -->
<g id="edge52" class="edge">
<title>Node27&#45;&gt;Node11</title>
<path fill="none" stroke="midnightblue" d="M879.5,-449.41C829.52,-447.41 759.54,-442.75 699,-431.92 542.52,-403.9 507.18,-379.9 355,-333.92 331.52,-326.82 305.35,-318.47 284.48,-311.71"/>
<polygon fill="midnightblue" stroke="midnightblue" points="285.29,-308.29 274.7,-308.53 283.13,-314.95 285.29,-308.29"/>
</g>
<!-- Node27&#45;&gt;Node19 -->
<g id="edge48" class="edge">
<title>Node27&#45;&gt;Node19</title>
<path fill="none" stroke="midnightblue" d="M952.39,-460.75C965.8,-490.15 1008.55,-579.21 1061,-640.92 1075.99,-658.55 1095.85,-675.3 1112.15,-687.77"/>
<polygon fill="midnightblue" stroke="midnightblue" points="1110.21,-690.68 1120.31,-693.88 1114.41,-685.08 1110.21,-690.68"/>
</g>
<!-- Node28 -->
<g id="node28" class="node">
<title>Node28</title>
<g id="a_node28"><a xlink:href="classslljit_1_1_tokenizer.html#a9dcee05dc292fa291e6b9644d12c1907" target="_top" xlink:title=" ">
<polygon fill="none" stroke="black" points="1095.5,-365.92 1095.5,-395.92 1190.5,-395.92 1190.5,-365.92 1095.5,-365.92"/>
<text text-anchor="start" x="1103.5" y="-383.92" font-family="Helvetica,sans-Serif" font-size="10.00">slljit::Tokenizer::</text>
<text text-anchor="middle" x="1143" y="-372.92" font-family="Helvetica,sans-Serif" font-size="10.00">get_type_identifier</text>
</a>
</g>
</g>
<!-- Node27&#45;&gt;Node28 -->
<g id="edge50" class="edge">
<title>Node27&#45;&gt;Node28</title>
<path fill="none" stroke="midnightblue" d="M974.57,-441.33C1004.29,-430.61 1053.15,-412.98 1090.44,-399.52"/>
<polygon fill="midnightblue" stroke="midnightblue" points="1091.92,-402.71 1100.14,-396.02 1089.54,-396.12 1091.92,-402.71"/>
</g>
<!-- Node29 -->
<g id="node29" class="node">
<title>Node29</title>
<g id="a_node29"><a xlink:href="classslljit_1_1_parser.html#acad3f159608acb847e0f693fc07fdd28" target="_top" xlink:title=" ">
<polygon fill="none" stroke="black" points="1095.5,-567.92 1095.5,-597.92 1190.5,-597.92 1190.5,-567.92 1095.5,-567.92"/>
<text text-anchor="start" x="1103.5" y="-585.92" font-family="Helvetica,sans-Serif" font-size="10.00">slljit::Parser::push</text>
<text text-anchor="middle" x="1143" y="-574.92" font-family="Helvetica,sans-Serif" font-size="10.00">_var_into_scope</text>
</a>
</g>
</g>
<!-- Node27&#45;&gt;Node29 -->
<g id="edge53" class="edge">
<title>Node27&#45;&gt;Node29</title>
<path fill="none" stroke="midnightblue" d="M956.41,-460.68C973.99,-480.55 1016.69,-526.09 1061,-552.92 1068.64,-557.54 1077.11,-561.64 1085.62,-565.21"/>
<polygon fill="midnightblue" stroke="midnightblue" points="1084.6,-568.57 1095.19,-569.01 1087.18,-562.06 1084.6,-568.57"/>
</g>
<!-- Node29&#45;&gt;Node2 -->
<g id="edge54" class="edge">
<title>Node29&#45;&gt;Node2</title>
<path fill="none" stroke="midnightblue" d="M1190.65,-588.52C1213.55,-591.28 1241.42,-594.63 1265.98,-597.58"/>
<polygon fill="midnightblue" stroke="midnightblue" points="1265.58,-601.06 1275.93,-598.78 1266.42,-594.11 1265.58,-601.06"/>
</g>
</g>
</svg>
