<?xml version="1.0" encoding="UTF-8" standalone="no"?>
<!DOCTYPE svg PUBLIC "-//W3C//DTD SVG 1.1//EN"
 "http://www.w3.org/Graphics/SVG/1.1/DTD/svg11.dtd">
<!-- Generated by graphviz version 3.0.0 (20220226.1711)
 -->
<!-- Title: slljit::LocalContext::getBuilder Pages: 1 -->
<svg width="707pt" height="792pt"
 viewBox="0.00 0.00 707.00 792.00" xmlns="http://www.w3.org/2000/svg" xmlns:xlink="http://www.w3.org/1999/xlink">
<g id="graph0" class="graph" transform="scale(1 1) rotate(0) translate(4 788)">
<title>slljit::LocalContext::getBuilder</title>
<!-- Node1 -->
<g id="node1" class="node">
<title>Node1</title>
<g id="a_node1"><a xlink:title=" ">
<polygon fill="#bfbfbf" stroke="black" points="602,-322.5 602,-352.5 699,-352.5 699,-322.5 602,-322.5"/>
<text text-anchor="start" x="610" y="-340.5" font-family="Helvetica,sans-Serif" font-size="10.00">slljit::LocalContext</text>
<text text-anchor="middle" x="650.5" y="-329.5" font-family="Helvetica,sans-Serif" font-size="10.00">::getBuilder</text>
</a>
</g>
</g>
<!-- Node2 -->
<g id="node2" class="node">
<title>Node2</title>
<g id="a_node2"><a xlink:href="classslljit_1_1_variable_expr_a_s_t.html#aa67fa1ad8e3e12f0272ff1fda1674f99" target="_top" xlink:title=" ">
<polygon fill="none" stroke="black" points="452,-753.5 452,-783.5 566,-783.5 566,-753.5 452,-753.5"/>
<text text-anchor="start" x="460" y="-771.5" font-family="Helvetica,sans-Serif" font-size="10.00">slljit::VariableExprAST</text>
<text text-anchor="middle" x="509" y="-760.5" font-family="Helvetica,sans-Serif" font-size="10.00">::codegen</text>
</a>
</g>
</g>
<!-- Node1&#45;&gt;Node2 -->
<g id="edge1" class="edge">
<title>Node1&#45;&gt;Node2</title>
<path fill="none" stroke="midnightblue" d="M647.33,-363.07C640.11,-442.78 614.55,-684.97 566,-744.5 563.19,-747.94 559.8,-750.9 556.09,-753.44"/>
<polygon fill="midnightblue" stroke="midnightblue" points="650.83,-363.21 648.23,-352.94 643.86,-362.59 650.83,-363.21"/>
</g>
<!-- Node3 -->
<g id="node3" class="node">
<title>Node3</title>
<g id="a_node3"><a xlink:href="classslljit_1_1_unary_expr_a_s_t.html#a6f0dae838e2c5cde27bad14f9fea1cf1" target="_top" xlink:title=" ">
<polygon fill="none" stroke="black" points="457,-704.5 457,-734.5 561,-734.5 561,-704.5 457,-704.5"/>
<text text-anchor="start" x="465" y="-722.5" font-family="Helvetica,sans-Serif" font-size="10.00">slljit::UnaryExprAST</text>
<text text-anchor="middle" x="509" y="-711.5" font-family="Helvetica,sans-Serif" font-size="10.00">::codegen</text>
</a>
</g>
</g>
<!-- Node1&#45;&gt;Node3 -->
<g id="edge2" class="edge">
<title>Node1&#45;&gt;Node3</title>
<path fill="none" stroke="midnightblue" d="M650.24,-362.82C650.75,-425.1 644.06,-588.08 566,-689.5 561.43,-695.44 555.33,-700.35 548.84,-704.34"/>
<polygon fill="midnightblue" stroke="midnightblue" points="653.74,-362.67 650.08,-352.72 646.74,-362.77 653.74,-362.67"/>
</g>
<!-- Node4 -->
<g id="node4" class="node">
<title>Node4</title>
<g id="a_node4"><a xlink:href="classslljit_1_1_return_expr_a_s_t.html#ae28b151f271dec2884361a2d46556f87" target="_top" xlink:title=" ">
<polygon fill="none" stroke="black" points="148,-562.5 148,-592.5 255,-592.5 255,-562.5 148,-562.5"/>
<text text-anchor="start" x="156" y="-580.5" font-family="Helvetica,sans-Serif" font-size="10.00">slljit::ReturnExprAST</text>
<text text-anchor="middle" x="201.5" y="-569.5" font-family="Helvetica,sans-Serif" font-size="10.00">::codegen</text>
</a>
</g>
</g>
<!-- Node1&#45;&gt;Node4 -->
<g id="edge3" class="edge">
<title>Node1&#45;&gt;Node4</title>
<path fill="none" stroke="midnightblue" d="M642.54,-362.34C631.62,-397.13 607.32,-460.39 566,-498.5 479.84,-577.97 333.13,-584.46 255.05,-581.51"/>
<polygon fill="midnightblue" stroke="midnightblue" points="645.97,-363.1 645.5,-352.51 639.27,-361.08 645.97,-363.1"/>
</g>
<!-- Node5 -->
<g id="node5" class="node">
<title>Node5</title>
<g id="a_node5"><a xlink:href="classslljit_1_1_binary_expr_a_s_t.html#a4e15cb62043e37beafadeb7faf94d7ba" target="_top" xlink:title=" ">
<polygon fill="none" stroke="black" points="0,-270.5 0,-300.5 107,-300.5 107,-270.5 0,-270.5"/>
<text text-anchor="start" x="8" y="-288.5" font-family="Helvetica,sans-Serif" font-size="10.00">slljit::BinaryExprAST</text>
<text text-anchor="middle" x="53.5" y="-277.5" font-family="Helvetica,sans-Serif" font-size="10.00">::codegen</text>
</a>
</g>
</g>
<!-- Node1&#45;&gt;Node5 -->
<g id="edge4" class="edge">
<title>Node1&#45;&gt;Node5</title>
<path fill="none" stroke="midnightblue" d="M646.27,-362.49C639.39,-405.47 619.31,-493.44 566,-542.5 496.13,-606.78 218.62,-659.9 143,-602.5 93.05,-564.58 63.69,-358.64 56.34,-300.68"/>
<polygon fill="midnightblue" stroke="midnightblue" points="649.73,-363 647.74,-352.59 642.81,-361.97 649.73,-363"/>
</g>
<!-- Node6 -->
<g id="node6" class="node">
<title>Node6</title>
<g id="a_node6"><a xlink:href="classslljit_1_1_call_expr_a_s_t.html#a0d196837649e9e0205fafddf2cd95068" target="_top" xlink:title=" ">
<polygon fill="none" stroke="black" points="154,-481.5 154,-511.5 249,-511.5 249,-481.5 154,-481.5"/>
<text text-anchor="start" x="162" y="-499.5" font-family="Helvetica,sans-Serif" font-size="10.00">slljit::CallExprAST</text>
<text text-anchor="middle" x="201.5" y="-488.5" font-family="Helvetica,sans-Serif" font-size="10.00">::codegen</text>
</a>
</g>
</g>
<!-- Node1&#45;&gt;Node6 -->
<g id="edge5" class="edge">
<title>Node1&#45;&gt;Node6</title>
<path fill="none" stroke="midnightblue" d="M633.56,-360.78C599.97,-407.35 516.63,-510.29 416,-542.5 365.21,-558.76 347.95,-554.59 296,-542.5 270.45,-536.56 243.85,-522.59 225.58,-511.59"/>
<polygon fill="midnightblue" stroke="midnightblue" points="636.5,-362.69 639.43,-352.51 630.79,-358.64 636.5,-362.69"/>
</g>
<!-- Node7 -->
<g id="node7" class="node">
<title>Node7</title>
<g id="a_node7"><a xlink:href="classslljit_1_1_if_expr_a_s_t.html#a376bb50f865a795316ebf0710b4ac135" target="_top" xlink:title=" ">
<polygon fill="none" stroke="black" points="157,-338.5 157,-368.5 246,-368.5 246,-338.5 157,-338.5"/>
<text text-anchor="start" x="165" y="-356.5" font-family="Helvetica,sans-Serif" font-size="10.00">slljit::IfExprAST::</text>
<text text-anchor="middle" x="201.5" y="-345.5" font-family="Helvetica,sans-Serif" font-size="10.00">codegen</text>
</a>
</g>
</g>
<!-- Node1&#45;&gt;Node7 -->
<g id="edge6" class="edge">
<title>Node1&#45;&gt;Node7</title>
<path fill="none" stroke="midnightblue" d="M591.54,-339.57C500.75,-342.82 326.98,-349.04 246.02,-351.94"/>
<polygon fill="midnightblue" stroke="midnightblue" points="591.79,-343.07 601.66,-339.21 591.54,-336.07 591.79,-343.07"/>
</g>
<!-- Node8 -->
<g id="node8" class="node">
<title>Node8</title>
<g id="a_node8"><a xlink:href="classslljit_1_1_for_expr_a_s_t.html#a0e8a98570a1b8c55617ee52b41922289" target="_top" xlink:title=" ">
<polygon fill="none" stroke="black" points="155,-289.5 155,-319.5 248,-319.5 248,-289.5 155,-289.5"/>
<text text-anchor="start" x="163" y="-307.5" font-family="Helvetica,sans-Serif" font-size="10.00">slljit::ForExprAST</text>
<text text-anchor="middle" x="201.5" y="-296.5" font-family="Helvetica,sans-Serif" font-size="10.00">::codegen</text>
</a>
</g>
</g>
<!-- Node1&#45;&gt;Node8 -->
<g id="edge7" class="edge">
<title>Node1&#45;&gt;Node8</title>
<path fill="none" stroke="midnightblue" d="M608.15,-318.43C594.88,-312.78 579.99,-306.93 566,-302.5 450.75,-266 414.96,-247.96 296,-269.5 284.66,-271.55 259.86,-280.92 238.66,-289.45"/>
<polygon fill="midnightblue" stroke="midnightblue" points="606.93,-321.72 617.49,-322.49 609.71,-315.29 606.93,-321.72"/>
</g>
<!-- Node9 -->
<g id="node9" class="node">
<title>Node9</title>
<g id="a_node9"><a xlink:href="classslljit_1_1_var_expr_a_s_t.html#a6898396b719dec46fd30ab9cc9dfb7ac" target="_top" xlink:title=" ">
<polygon fill="none" stroke="black" points="154.5,-240.5 154.5,-270.5 248.5,-270.5 248.5,-240.5 154.5,-240.5"/>
<text text-anchor="start" x="162.5" y="-258.5" font-family="Helvetica,sans-Serif" font-size="10.00">slljit::VarExprAST</text>
<text text-anchor="middle" x="201.5" y="-247.5" font-family="Helvetica,sans-Serif" font-size="10.00">::codegen</text>
</a>
</g>
</g>
<!-- Node1&#45;&gt;Node9 -->
<g id="edge8" class="edge">
<title>Node1&#45;&gt;Node9</title>
<path fill="none" stroke="midnightblue" d="M631.02,-314.23C615.67,-296.82 592.18,-274.24 566,-263.5 459.27,-219.73 319.68,-234.37 248.54,-246.34"/>
<polygon fill="midnightblue" stroke="midnightblue" points="628.73,-316.94 637.88,-322.29 634.06,-312.4 628.73,-316.94"/>
</g>
<!-- Node10 -->
<g id="node10" class="node">
<title>Node10</title>
<g id="a_node10"><a xlink:href="classslljit_1_1_function_a_s_t.html#ad9580c93bf3b4c4cdce1606d2e1a7be5" target="_top" xlink:title=" ">
<polygon fill="none" stroke="black" points="461,-0.5 461,-30.5 557,-30.5 557,-0.5 461,-0.5"/>
<text text-anchor="start" x="469" y="-18.5" font-family="Helvetica,sans-Serif" font-size="10.00">slljit::FunctionAST</text>
<text text-anchor="middle" x="509" y="-7.5" font-family="Helvetica,sans-Serif" font-size="10.00">::codegen</text>
</a>
</g>
</g>
<!-- Node1&#45;&gt;Node10 -->
<g id="edge9" class="edge">
<title>Node1&#45;&gt;Node10</title>
<path fill="none" stroke="midnightblue" d="M648.69,-312.12C645.7,-257.44 631.66,-126.9 566,-45.5 561.22,-39.58 554.95,-34.67 548.34,-30.65"/>
<polygon fill="midnightblue" stroke="midnightblue" points="645.2,-312.47 649.17,-322.3 652.2,-312.15 645.2,-312.47"/>
</g>
<!-- Node11 -->
<g id="node11" class="node">
<title>Node11</title>
<g id="a_node11"><a xlink:href="classslljit_1_1_code_gen.html#a0a1cd67519cb6405422e53cc87a1eb87" target="_top" xlink:title=" ">
<polygon fill="none" stroke="black" points="296,-278.5 296,-308.5 416,-308.5 416,-278.5 296,-278.5"/>
<text text-anchor="start" x="304" y="-296.5" font-family="Helvetica,sans-Serif" font-size="10.00">slljit::CodeGen::compile</text>
<text text-anchor="middle" x="356" y="-285.5" font-family="Helvetica,sans-Serif" font-size="10.00">_layout</text>
</a>
</g>
</g>
<!-- Node1&#45;&gt;Node11 -->
<g id="edge10" class="edge">
<title>Node1&#45;&gt;Node11</title>
<path fill="none" stroke="midnightblue" d="M591.81,-327.65C583.16,-326.22 574.35,-324.8 566,-323.5 515.47,-315.64 457.95,-307.44 416.06,-301.6"/>
<polygon fill="midnightblue" stroke="midnightblue" points="591.4,-331.13 601.84,-329.31 592.55,-324.22 591.4,-331.13"/>
</g>
<!-- Node13 -->
<g id="node13" class="node">
<title>Node13</title>
<g id="a_node13"><a xlink:href="namespaceslljit.html#aea3939a2e43afb64178ab98111878842" target="_top" xlink:title=" ">
<polygon fill="none" stroke="black" points="466,-164 466,-183 552,-183 552,-164 466,-164"/>
<text text-anchor="middle" x="509" y="-171" font-family="Helvetica,sans-Serif" font-size="10.00">slljit::CreateAdd</text>
</a>
</g>
</g>
<!-- Node1&#45;&gt;Node13 -->
<g id="edge12" class="edge">
<title>Node1&#45;&gt;Node13</title>
<path fill="none" stroke="midnightblue" d="M640.37,-312.79C627.88,-282.04 602.74,-229.65 566,-197.5 559,-191.37 550.19,-186.62 541.65,-183.02"/>
<polygon fill="midnightblue" stroke="midnightblue" points="637.2,-314.31 644.12,-322.33 643.72,-311.75 637.2,-314.31"/>
</g>
<!-- Node14 -->
<g id="node14" class="node">
<title>Node14</title>
<g id="a_node14"><a xlink:href="namespaceslljit.html#a3ebbdd40e29c1767c6b93fc3ed055a66" target="_top" xlink:title=" ">
<polygon fill="none" stroke="black" points="468.5,-126 468.5,-145 549.5,-145 549.5,-126 468.5,-126"/>
<text text-anchor="middle" x="509" y="-133" font-family="Helvetica,sans-Serif" font-size="10.00">slljit::CreateDiv</text>
</a>
</g>
</g>
<!-- Node1&#45;&gt;Node14 -->
<g id="edge14" class="edge">
<title>Node1&#45;&gt;Node14</title>
<path fill="none" stroke="midnightblue" d="M644.73,-312.52C635.98,-273.37 613.7,-197.61 566,-154.5 561.28,-150.23 555.56,-146.92 549.6,-144.34"/>
<polygon fill="midnightblue" stroke="midnightblue" points="641.31,-313.25 646.8,-322.31 648.16,-311.8 641.31,-313.25"/>
</g>
<!-- Node15 -->
<g id="node15" class="node">
<title>Node15</title>
<g id="a_node15"><a xlink:href="namespaceslljit.html#a35fd5437fe4da3972add655696b4ba1e" target="_top" xlink:title="Creates explict cast.">
<polygon fill="none" stroke="black" points="296.5,-366 296.5,-385 415.5,-385 415.5,-366 296.5,-366"/>
<text text-anchor="middle" x="356" y="-373" font-family="Helvetica,sans-Serif" font-size="10.00">slljit::CreateExplictCast</text>
</a>
</g>
</g>
<!-- Node1&#45;&gt;Node15 -->
<g id="edge16" class="edge">
<title>Node1&#45;&gt;Node15</title>
<path fill="none" stroke="midnightblue" d="M591.84,-347.57C583.19,-348.96 574.37,-350.32 566,-351.5 515.37,-358.65 457.61,-365.15 415.66,-369.58"/>
<polygon fill="midnightblue" stroke="midnightblue" points="592.57,-350.99 601.88,-345.92 591.44,-344.09 592.57,-350.99"/>
</g>
<!-- Node17 -->
<g id="node17" class="node">
<title>Node17</title>
<g id="a_node17"><a xlink:href="namespaceslljit.html#a5789671a8efffcee32738c80bafe9bd1" target="_top" xlink:title=" ">
<polygon fill="none" stroke="black" points="467,-88 467,-107 551,-107 551,-88 467,-88"/>
<text text-anchor="middle" x="509" y="-95" font-family="Helvetica,sans-Serif" font-size="10.00">slljit::CreateMul</text>
</a>
</g>
</g>
<!-- Node1&#45;&gt;Node17 -->
<g id="edge25" class="edge">
<title>Node1&#45;&gt;Node17</title>
<path fill="none" stroke="midnightblue" d="M646.91,-312.03C640.95,-266.47 622.13,-170.74 566,-116.5 561.79,-112.43 556.68,-109.24 551.28,-106.72"/>
<polygon fill="midnightblue" stroke="midnightblue" points="643.47,-312.71 648.14,-322.22 650.42,-311.87 643.47,-312.71"/>
</g>
<!-- Node18 -->
<g id="node18" class="node">
<title>Node18</title>
<g id="a_node18"><a xlink:href="namespaceslljit.html#a8803eadca4f0a1a6b5f7b8e4129cadd5" target="_top" xlink:title=" ">
<polygon fill="none" stroke="black" points="313,-50 313,-69 399,-69 399,-50 313,-50"/>
<text text-anchor="middle" x="356" y="-57" font-family="Helvetica,sans-Serif" font-size="10.00">slljit::CreateSub</text>
</a>
</g>
</g>
<!-- Node1&#45;&gt;Node18 -->
<g id="edge27" class="edge">
<title>Node1&#45;&gt;Node18</title>
<path fill="none" stroke="midnightblue" d="M649.83,-312.2C648.99,-259.24 638.84,-136.78 566,-78.5 518.92,-40.83 445.36,-43.92 399.24,-50.82"/>
<polygon fill="midnightblue" stroke="midnightblue" points="646.33,-312.42 649.88,-322.4 653.33,-312.38 646.33,-312.42"/>
</g>
<!-- Node19 -->
<g id="node19" class="node">
<title>Node19</title>
<g id="a_node19"><a xlink:href="namespaceslljit.html#a7fdacdf77d9c64b4680b66cfca539736" target="_top" xlink:title=" ">
<polygon fill="none" stroke="black" points="309.5,-666 309.5,-685 402.5,-685 402.5,-666 309.5,-666"/>
<text text-anchor="middle" x="356" y="-673" font-family="Helvetica,sans-Serif" font-size="10.00">slljit::CtreateCMP</text>
</a>
</g>
</g>
<!-- Node1&#45;&gt;Node19 -->
<g id="edge29" class="edge">
<title>Node1&#45;&gt;Node19</title>
<path fill="none" stroke="midnightblue" d="M646.41,-362.97C637.62,-430.79 610.27,-613.25 566,-651.5 521.23,-690.18 449.43,-689.52 402.73,-683.82"/>
<polygon fill="midnightblue" stroke="midnightblue" points="649.92,-363.11 647.7,-352.75 642.97,-362.23 649.92,-363.11"/>
</g>
<!-- Node20 -->
<g id="node20" class="node">
<title>Node20</title>
<g id="a_node20"><a xlink:href="namespaceslljit.html#ab200d7cf320fef1a4045511b03b4168b" target="_top" xlink:title="Translates TypeID types to llvm types.">
<polygon fill="none" stroke="black" points="459.5,-407 459.5,-426 558.5,-426 558.5,-407 459.5,-407"/>
<text text-anchor="middle" x="509" y="-414" font-family="Helvetica,sans-Serif" font-size="10.00">slljit::get_llvm_type</text>
</a>
</g>
</g>
<!-- Node1&#45;&gt;Node20 -->
<g id="edge31" class="edge">
<title>Node1&#45;&gt;Node20</title>
<path fill="none" stroke="midnightblue" d="M618.21,-358.1C602.73,-368 583.63,-379.79 566,-389.5 554.75,-395.69 541.86,-401.96 531.28,-406.9"/>
<polygon fill="midnightblue" stroke="midnightblue" points="620.35,-360.88 626.86,-352.52 616.56,-355 620.35,-360.88"/>
</g>
<!-- Node12 -->
<g id="node12" class="node">
<title>Node12</title>
<g id="a_node12"><a xlink:href="classslljit_1_1_program.html#ae4d26526a7dd9c69ebe92fb43736696b" target="_top" xlink:title=" ">
<polygon fill="none" stroke="black" points="143.5,-202 143.5,-221 259.5,-221 259.5,-202 143.5,-202"/>
<text text-anchor="middle" x="201.5" y="-209" font-family="Helvetica,sans-Serif" font-size="10.00">slljit::Program::compile</text>
</a>
</g>
</g>
<!-- Node11&#45;&gt;Node12 -->
<g id="edge11" class="edge">
<title>Node11&#45;&gt;Node12</title>
<path fill="none" stroke="midnightblue" d="M326.65,-272.37C308.31,-259.38 283.55,-243.06 260,-231.5 251.94,-227.54 242.89,-224 234.4,-221.05"/>
<polygon fill="midnightblue" stroke="midnightblue" points="324.94,-275.45 335.1,-278.45 329.02,-269.77 324.94,-275.45"/>
</g>
<!-- Node13&#45;&gt;Node5 -->
<g id="edge13" class="edge">
<title>Node13&#45;&gt;Node5</title>
<path fill="none" stroke="midnightblue" d="M456.02,-164.63C382.55,-154.59 245.82,-145.21 143,-192.5 106.55,-209.26 77.61,-248.43 63.63,-270.21"/>
<polygon fill="midnightblue" stroke="midnightblue" points="455.56,-168.1 465.96,-166.05 456.55,-161.17 455.56,-168.1"/>
</g>
<!-- Node14&#45;&gt;Node5 -->
<g id="edge15" class="edge">
<title>Node14&#45;&gt;Node5</title>
<path fill="none" stroke="midnightblue" d="M458.43,-125.58C384.47,-113.49 243.24,-101.03 143,-157.5 97.81,-182.96 70.62,-242.23 59.85,-270.27"/>
<polygon fill="midnightblue" stroke="midnightblue" points="457.96,-129.05 468.4,-127.28 459.13,-122.15 457.96,-129.05"/>
</g>
<!-- Node15&#45;&gt;Node4 -->
<g id="edge17" class="edge">
<title>Node15&#45;&gt;Node4</title>
<path fill="none" stroke="midnightblue" d="M302,-390.28C299.85,-391.85 297.83,-393.58 296,-395.5 255.83,-437.67 289.87,-471.5 260,-521.5 250.42,-537.53 235.12,-552.12 222.71,-562.39"/>
<polygon fill="midnightblue" stroke="midnightblue" points="304.06,-393.13 310.88,-385.02 300.5,-387.1 304.06,-393.13"/>
</g>
<!-- Node15&#45;&gt;Node5 -->
<g id="edge18" class="edge">
<title>Node15&#45;&gt;Node5</title>
<path fill="none" stroke="midnightblue" d="M306.87,-386.97C262.43,-395.11 195.57,-401.04 143,-378.5 105.92,-362.6 77.03,-322.69 63.29,-300.68"/>
<polygon fill="midnightblue" stroke="midnightblue" points="307.67,-390.38 316.83,-385.04 306.34,-383.51 307.67,-390.38"/>
</g>
<!-- Node15&#45;&gt;Node6 -->
<g id="edge19" class="edge">
<title>Node15&#45;&gt;Node6</title>
<path fill="none" stroke="midnightblue" d="M305.03,-389.51C301.84,-391.28 298.79,-393.27 296,-395.5 272.02,-414.69 280.8,-431.9 260,-454.5 250.54,-464.78 238.23,-474.17 227.43,-481.45"/>
<polygon fill="midnightblue" stroke="midnightblue" points="306.82,-392.54 314.34,-385.08 303.81,-386.22 306.82,-392.54"/>
</g>
<!-- Node15&#45;&gt;Node7 -->
<g id="edge20" class="edge">
<title>Node15&#45;&gt;Node7</title>
<path fill="none" stroke="midnightblue" d="M286.22,-365.58C272.7,-363.63 258.85,-361.63 246.42,-359.84"/>
<polygon fill="midnightblue" stroke="midnightblue" points="286.08,-369.09 296.48,-367.06 287.08,-362.17 286.08,-369.09"/>
</g>
<!-- Node15&#45;&gt;Node8 -->
<g id="edge21" class="edge">
<title>Node15&#45;&gt;Node8</title>
<path fill="none" stroke="midnightblue" d="M326.63,-361.39C307.82,-352.12 282.55,-339.86 260,-329.5 252.88,-326.23 245.21,-322.82 237.88,-319.61"/>
<polygon fill="midnightblue" stroke="midnightblue" points="325.31,-364.64 335.82,-365.93 328.41,-358.36 325.31,-364.64"/>
</g>
<!-- Node15&#45;&gt;Node9 -->
<g id="edge22" class="edge">
<title>Node15&#45;&gt;Node9</title>
<path fill="none" stroke="midnightblue" d="M337.38,-358.86C325.55,-347.6 309.68,-332.31 296,-318.5 279.63,-301.97 279.05,-293.85 260,-280.5 254.74,-276.81 248.85,-273.5 242.9,-270.58"/>
<polygon fill="midnightblue" stroke="midnightblue" points="335.18,-361.61 344.85,-365.95 340,-356.53 335.18,-361.61"/>
</g>
<!-- Node16 -->
<g id="node16" class="node">
<title>Node16</title>
<g id="a_node16"><a xlink:href="namespaceslljit.html#a998468289a7b7f80ec1b49aa930d5143" target="_top" xlink:title="Creates implict cast.">
<polygon fill="none" stroke="black" points="143,-426 143,-445 260,-445 260,-426 143,-426"/>
<text text-anchor="middle" x="201.5" y="-433" font-family="Helvetica,sans-Serif" font-size="10.00">slljit::CreateImplictCast</text>
</a>
</g>
</g>
<!-- Node15&#45;&gt;Node16 -->
<g id="edge23" class="edge">
<title>Node15&#45;&gt;Node16</title>
<path fill="none" stroke="midnightblue" d="M315.62,-388.29C309.03,-390.59 302.29,-393.04 296,-395.5 279.69,-401.87 276.08,-404.57 260,-411.5 248.77,-416.34 236.26,-421.58 225.77,-425.93"/>
<polygon fill="midnightblue" stroke="midnightblue" points="316.77,-391.6 325.1,-385.05 314.5,-384.97 316.77,-391.6"/>
</g>
<!-- Node16&#45;&gt;Node5 -->
<g id="edge24" class="edge">
<title>Node16&#45;&gt;Node5</title>
<path fill="none" stroke="midnightblue" d="M159.42,-421.75C153.6,-418.86 147.92,-415.46 143,-411.5 103.83,-380.02 74.46,-326.82 61.62,-300.78"/>
<polygon fill="midnightblue" stroke="midnightblue" points="158.04,-424.97 168.6,-425.88 160.92,-418.59 158.04,-424.97"/>
</g>
<!-- Node17&#45;&gt;Node5 -->
<g id="edge26" class="edge">
<title>Node17&#45;&gt;Node5</title>
<path fill="none" stroke="midnightblue" d="M456.81,-94.26C368.84,-89.66 193.55,-85.08 143,-117.5 87.37,-153.19 64.59,-236.03 57.33,-270.27"/>
<polygon fill="midnightblue" stroke="midnightblue" points="456.66,-97.75 466.84,-94.8 457.04,-90.76 456.66,-97.75"/>
</g>
<!-- Node18&#45;&gt;Node5 -->
<g id="edge28" class="edge">
<title>Node18&#45;&gt;Node5</title>
<path fill="none" stroke="midnightblue" d="M302.6,-51.76C256.19,-47.84 188.87,-49.68 143,-83.5 79.67,-130.19 60.99,-232.09 56.08,-270.47"/>
<polygon fill="midnightblue" stroke="midnightblue" points="302.46,-55.27 312.75,-52.74 303.13,-48.3 302.46,-55.27"/>
</g>
<!-- Node19&#45;&gt;Node5 -->
<g id="edge30" class="edge">
<title>Node19&#45;&gt;Node5</title>
<path fill="none" stroke="midnightblue" d="M299.23,-685.3C251.91,-690.23 185.17,-688.72 143,-651.5 88.6,-603.48 62,-363.51 55.89,-300.61"/>
<polygon fill="midnightblue" stroke="midnightblue" points="299.79,-688.75 309.31,-684.12 298.98,-681.8 299.79,-688.75"/>
</g>
<!-- Node20&#45;&gt;Node11 -->
<g id="edge34" class="edge">
<title>Node20&#45;&gt;Node11</title>
<path fill="none" stroke="midnightblue" d="M488.27,-400.43C458.98,-376.57 404.39,-332.1 375.7,-308.74"/>
<polygon fill="midnightblue" stroke="midnightblue" points="486.19,-403.25 496.15,-406.85 490.61,-397.82 486.19,-403.25"/>
</g>
<!-- Node20&#45;&gt;Node15 -->
<g id="edge36" class="edge">
<title>Node20&#45;&gt;Node15</title>
<path fill="none" stroke="midnightblue" d="M463.22,-404.34C440.49,-398.17 413.28,-390.78 392.09,-385.03"/>
<polygon fill="midnightblue" stroke="midnightblue" points="462.41,-407.75 472.98,-406.99 464.24,-400.99 462.41,-407.75"/>
</g>
<!-- Node21 -->
<g id="node21" class="node">
<title>Node21</title>
<g id="a_node21"><a xlink:href="classslljit_1_1_number_expr_a_s_t.html#ad79c11f8409e5546997b0a45df15c400" target="_top" xlink:title=" ">
<polygon fill="none" stroke="black" points="299.5,-453.5 299.5,-483.5 412.5,-483.5 412.5,-453.5 299.5,-453.5"/>
<text text-anchor="start" x="307.5" y="-471.5" font-family="Helvetica,sans-Serif" font-size="10.00">slljit::NumberExprAST</text>
<text text-anchor="middle" x="356" y="-460.5" font-family="Helvetica,sans-Serif" font-size="10.00">::codegen</text>
</a>
</g>
</g>
<!-- Node20&#45;&gt;Node21 -->
<g id="edge32" class="edge">
<title>Node20&#45;&gt;Node21</title>
<path fill="none" stroke="midnightblue" d="M470.7,-429.34C449.55,-436.63 422.97,-445.78 400.82,-453.41"/>
<polygon fill="midnightblue" stroke="midnightblue" points="471.99,-432.6 480.3,-426.04 469.71,-425.98 471.99,-432.6"/>
</g>
<!-- Node22 -->
<g id="node22" class="node">
<title>Node22</title>
<g id="a_node22"><a xlink:href="classslljit_1_1_prototype_a_s_t.html#a1d3904bd14007f251959a6d795fe5564" target="_top" xlink:title=" ">
<polygon fill="none" stroke="black" points="305.5,-404.5 305.5,-434.5 406.5,-434.5 406.5,-404.5 305.5,-404.5"/>
<text text-anchor="start" x="313.5" y="-422.5" font-family="Helvetica,sans-Serif" font-size="10.00">slljit::PrototypeAST</text>
<text text-anchor="middle" x="356" y="-411.5" font-family="Helvetica,sans-Serif" font-size="10.00">::codegen</text>
</a>
</g>
</g>
<!-- Node20&#45;&gt;Node22 -->
<g id="edge33" class="edge">
<title>Node20&#45;&gt;Node22</title>
<path fill="none" stroke="midnightblue" d="M449.28,-417.67C435.16,-417.95 420.21,-418.24 406.55,-418.52"/>
<polygon fill="midnightblue" stroke="midnightblue" points="449.46,-421.16 459.39,-417.47 449.32,-414.17 449.46,-421.16"/>
</g>
<!-- Node23 -->
<g id="node23" class="node">
<title>Node23</title>
<g id="a_node23"><a xlink:href="group___a_s_t.html#gabcb945acbdbc0f45bff6200e7b52fea7" target="_top" xlink:title=" ">
<polygon fill="none" stroke="black" points="298,-502.5 298,-532.5 414,-532.5 414,-502.5 298,-502.5"/>
<text text-anchor="start" x="306" y="-520.5" font-family="Helvetica,sans-Serif" font-size="10.00">slljit::CreateEntryBlock</text>
<text text-anchor="middle" x="356" y="-509.5" font-family="Helvetica,sans-Serif" font-size="10.00">Alloca</text>
</a>
</g>
</g>
<!-- Node20&#45;&gt;Node23 -->
<g id="edge35" class="edge">
<title>Node20&#45;&gt;Node23</title>
<path fill="none" stroke="midnightblue" d="M491.36,-433.21C473.82,-450.12 444.79,-476.18 416,-493.5 410.6,-496.75 404.68,-499.74 398.74,-502.43"/>
<polygon fill="midnightblue" stroke="midnightblue" points="493.88,-435.64 498.57,-426.14 488.98,-430.64 493.88,-435.64"/>
</g>
</g>
</svg>
