<?xml version="1.0" encoding="UTF-8" standalone="no"?>
<!DOCTYPE svg PUBLIC "-//W3C//DTD SVG 1.1//EN"
 "http://www.w3.org/Graphics/SVG/1.1/DTD/svg11.dtd">
<!-- Generated by graphviz version 3.0.0 (20220226.1711)
 -->
<!-- Title: slljit::Tokenizer::get_identifier Pages: 1 -->
<svg width="2005pt" height="350pt"
 viewBox="0.00 0.00 2005.00 349.78" xmlns="http://www.w3.org/2000/svg" xmlns:xlink="http://www.w3.org/1999/xlink">
<g id="graph0" class="graph" transform="scale(1 1) rotate(0) translate(4 345.78)">
<title>slljit::Tokenizer::get_identifier</title>
<!-- Node1 -->
<g id="node1" class="node">
<title>Node1</title>
<g id="a_node1"><a xlink:title=" ">
<polygon fill="#bfbfbf" stroke="black" points="1909,-23 1909,-53 1997,-53 1997,-23 1909,-23"/>
<text text-anchor="start" x="1917" y="-41" font-family="Helvetica,sans-Serif" font-size="10.00">slljit::Tokenizer::</text>
<text text-anchor="middle" x="1953" y="-30" font-family="Helvetica,sans-Serif" font-size="10.00">get_identifier</text>
</a>
</g>
</g>
<!-- Node2 -->
<g id="node2" class="node">
<title>Node2</title>
<g id="a_node2"><a xlink:href="classslljit_1_1_parser.html#a25cfefcbeea85744e23370d3a6f8ad5b" target="_top" xlink:title=" ">
<polygon fill="none" stroke="black" points="1717,-104.5 1717,-123.5 1873,-123.5 1873,-104.5 1717,-104.5"/>
<text text-anchor="middle" x="1795" y="-111.5" font-family="Helvetica,sans-Serif" font-size="10.00">slljit::Parser::ParseIdentifierExpr</text>
</a>
</g>
</g>
<!-- Node1&#45;&gt;Node2 -->
<g id="edge1" class="edge">
<title>Node1&#45;&gt;Node2</title>
<path fill="none" stroke="midnightblue" d="M1911.99,-57.49C1881.21,-72.49 1839.98,-92.57 1815.88,-104.32"/>
<polygon fill="midnightblue" stroke="midnightblue" points="1913.72,-60.54 1921.18,-53.02 1910.66,-54.25 1913.72,-60.54"/>
</g>
<!-- Node17 -->
<g id="node17" class="node">
<title>Node17</title>
<g id="a_node17"><a xlink:href="classslljit_1_1_parser.html#a435877d3f2869d140a7cca646546a114" target="_top" xlink:title="varexpr ::= &#39;g_var&#39; identifier (&#39;=&#39; expression)?">
<polygon fill="none" stroke="black" points="865.5,-66.5 865.5,-85.5 1000.5,-85.5 1000.5,-66.5 865.5,-66.5"/>
<text text-anchor="middle" x="933" y="-73.5" font-family="Helvetica,sans-Serif" font-size="10.00">slljit::Parser::ParseVarExpr</text>
</a>
</g>
</g>
<!-- Node1&#45;&gt;Node17 -->
<g id="edge32" class="edge">
<title>Node1&#45;&gt;Node17</title>
<path fill="none" stroke="midnightblue" d="M1898.69,-38C1832.26,-38 1715.24,-38 1615,-38 1615,-38 1615,-38 1292,-38 1184.34,-38 1059.48,-55.2 989.31,-66.46"/>
<polygon fill="midnightblue" stroke="midnightblue" points="1898.91,-41.5 1908.91,-38 1898.91,-34.5 1898.91,-41.5"/>
</g>
<!-- Node18 -->
<g id="node18" class="node">
<title>Node18</title>
<g id="a_node18"><a xlink:href="classslljit_1_1_parser.html#ad51a4352241881b5c6d118db9ccdec46" target="_top" xlink:title=" ">
<polygon fill="none" stroke="black" points="862,-9.5 862,-28.5 1004,-28.5 1004,-9.5 862,-9.5"/>
<text text-anchor="middle" x="933" y="-16.5" font-family="Helvetica,sans-Serif" font-size="10.00">slljit::Parser::ParsePrototype</text>
</a>
</g>
</g>
<!-- Node1&#45;&gt;Node18 -->
<g id="edge27" class="edge">
<title>Node1&#45;&gt;Node18</title>
<path fill="none" stroke="midnightblue" d="M1898.71,-27.94C1890.13,-26.5 1881.33,-25.12 1873,-24 1758.87,-8.61 1730.16,0 1615,0 1615,0 1615,0 1292,0 1191.95,0 1076.39,-7.49 1004.25,-13.07"/>
<polygon fill="midnightblue" stroke="midnightblue" points="1898.19,-31.4 1908.64,-29.65 1899.38,-24.5 1898.19,-31.4"/>
</g>
<!-- Node3 -->
<g id="node3" class="node">
<title>Node3</title>
<g id="a_node3"><a xlink:href="classslljit_1_1_parser.html#a45cb3e4f600e8e2c253490e7d878e8cd" target="_top" xlink:title=" ">
<polygon fill="none" stroke="black" points="1547,-220.5 1547,-239.5 1681,-239.5 1681,-220.5 1547,-220.5"/>
<text text-anchor="middle" x="1614" y="-227.5" font-family="Helvetica,sans-Serif" font-size="10.00">slljit::Parser::ParsePrimary</text>
</a>
</g>
</g>
<!-- Node2&#45;&gt;Node3 -->
<g id="edge2" class="edge">
<title>Node2&#45;&gt;Node3</title>
<path fill="none" stroke="midnightblue" d="M1770.3,-129.36C1732.77,-153.68 1660.78,-200.33 1629.79,-220.42"/>
<polygon fill="midnightblue" stroke="midnightblue" points="1772.56,-132.07 1779.05,-123.69 1768.75,-126.19 1772.56,-132.07"/>
</g>
<!-- Node4 -->
<g id="node4" class="node">
<title>Node4</title>
<g id="a_node4"><a xlink:href="classslljit_1_1_parser.html#af8579896f39ac563d2edd14404d70f41" target="_top" xlink:title=" ">
<polygon fill="none" stroke="black" points="1386,-192.5 1386,-211.5 1511,-211.5 1511,-192.5 1386,-192.5"/>
<text text-anchor="middle" x="1448.5" y="-199.5" font-family="Helvetica,sans-Serif" font-size="10.00">slljit::Parser::ParseUnary</text>
</a>
</g>
</g>
<!-- Node3&#45;&gt;Node4 -->
<g id="edge3" class="edge">
<title>Node3&#45;&gt;Node4</title>
<path fill="none" stroke="midnightblue" d="M1547.16,-218.72C1533.2,-216.33 1518.59,-213.83 1505.06,-211.51"/>
<polygon fill="midnightblue" stroke="midnightblue" points="1546.74,-222.2 1557.19,-220.44 1547.92,-215.3 1546.74,-222.2"/>
</g>
<!-- Node4&#45;&gt;Node4 -->
<g id="edge26" class="edge">
<title>Node4&#45;&gt;Node4</title>
<path fill="none" stroke="midnightblue" d="M1477.25,-220.65C1476.04,-225.94 1466.46,-230 1448.5,-230 1421.13,-230 1413.22,-220.57 1424.76,-211.76"/>
<polygon fill="midnightblue" stroke="midnightblue" points="1480.19,-218.75 1472.24,-211.76 1474.09,-222.19 1480.19,-218.75"/>
</g>
<!-- Node5 -->
<g id="node5" class="node">
<title>Node5</title>
<g id="a_node5"><a xlink:href="classslljit_1_1_parser.html#ae387c9672ec50720d8cb969558aedbe9" target="_top" xlink:title=" ">
<polygon fill="none" stroke="black" points="1236,-143 1236,-173 1350,-173 1350,-143 1236,-143"/>
<text text-anchor="start" x="1244" y="-161" font-family="Helvetica,sans-Serif" font-size="10.00">slljit::Parser::ParseBin</text>
<text text-anchor="middle" x="1293" y="-150" font-family="Helvetica,sans-Serif" font-size="10.00">OpRHS</text>
</a>
</g>
</g>
<!-- Node4&#45;&gt;Node5 -->
<g id="edge4" class="edge">
<title>Node4&#45;&gt;Node5</title>
<path fill="none" stroke="midnightblue" d="M1404.55,-189.69C1386.56,-184.53 1365.47,-178.49 1346.56,-173.07"/>
<polygon fill="midnightblue" stroke="midnightblue" points="1403.62,-193.06 1414.19,-192.45 1405.54,-186.33 1403.62,-193.06"/>
</g>
<!-- Node6 -->
<g id="node6" class="node">
<title>Node6</title>
<g id="a_node6"><a xlink:href="classslljit_1_1_parser.html#a79461bf414d03dcabb49d3bbd6f89607" target="_top" xlink:title=" ">
<polygon fill="none" stroke="black" points="1051,-151.5 1051,-170.5 1200,-170.5 1200,-151.5 1051,-151.5"/>
<text text-anchor="middle" x="1125.5" y="-158.5" font-family="Helvetica,sans-Serif" font-size="10.00">slljit::Parser::ParseExpression</text>
</a>
</g>
</g>
<!-- Node4&#45;&gt;Node6 -->
<g id="edge25" class="edge">
<title>Node4&#45;&gt;Node6</title>
<path fill="none" stroke="midnightblue" d="M1375.69,-207.76C1334.49,-209.54 1281.98,-209.25 1236,-201 1203.33,-195.14 1167.58,-180.37 1146.1,-170.51"/>
<polygon fill="midnightblue" stroke="midnightblue" points="1376.09,-211.24 1385.91,-207.26 1375.75,-204.25 1376.09,-211.24"/>
</g>
<!-- Node5&#45;&gt;Node5 -->
<g id="edge5" class="edge">
<title>Node5&#45;&gt;Node5</title>
<path fill="none" stroke="midnightblue" d="M1320.36,-183.46C1316.97,-188.18 1307.85,-191.5 1293,-191.5 1268.64,-191.5 1259.69,-182.56 1266.16,-173.16"/>
<polygon fill="midnightblue" stroke="midnightblue" points="1323.84,-182.97 1319.84,-173.16 1316.85,-183.32 1323.84,-182.97"/>
</g>
<!-- Node5&#45;&gt;Node6 -->
<g id="edge6" class="edge">
<title>Node5&#45;&gt;Node6</title>
<path fill="none" stroke="midnightblue" d="M1225.8,-159.2C1217.34,-159.35 1208.64,-159.51 1200.08,-159.67"/>
<polygon fill="midnightblue" stroke="midnightblue" points="1226.03,-162.7 1235.97,-159.02 1225.91,-155.7 1226.03,-162.7"/>
</g>
<!-- Node6&#45;&gt;Node2 -->
<g id="edge19" class="edge">
<title>Node6&#45;&gt;Node2</title>
<path fill="none" stroke="midnightblue" d="M1167.68,-148.72C1188.04,-143.19 1213.11,-137.2 1236,-134 1406.41,-110.2 1608.77,-109.79 1716.84,-111.77"/>
<polygon fill="midnightblue" stroke="midnightblue" points="1166.49,-145.41 1157.79,-151.46 1168.36,-152.16 1166.49,-145.41"/>
</g>
<!-- Node7 -->
<g id="node7" class="node">
<title>Node7</title>
<g id="a_node7"><a xlink:href="classslljit_1_1_parser.html#acc431005ac3dd38732083d7a1bb0eab2" target="_top" xlink:title=" ">
<polygon fill="none" stroke="black" points="851,-119.5 851,-138.5 1015,-138.5 1015,-119.5 851,-119.5"/>
<text text-anchor="middle" x="933" y="-126.5" font-family="Helvetica,sans-Serif" font-size="10.00">slljit::Parser::ParseExpressionList</text>
</a>
</g>
</g>
<!-- Node6&#45;&gt;Node7 -->
<g id="edge7" class="edge">
<title>Node6&#45;&gt;Node7</title>
<path fill="none" stroke="midnightblue" d="M1057.96,-149.82C1036.04,-146.14 1011.88,-142.08 990.75,-138.53"/>
<polygon fill="midnightblue" stroke="midnightblue" points="1057.42,-153.28 1067.86,-151.49 1058.58,-146.38 1057.42,-153.28"/>
</g>
<!-- Node8 -->
<g id="node8" class="node">
<title>Node8</title>
<g id="a_node8"><a xlink:href="classslljit_1_1_parser.html#a81023e7a6221eb6b92027bd21433c9dd" target="_top" xlink:title="forexpr ::= &#39;for&#39; identifier &#39;=&#39; expr &#39;,&#39; expr (&#39;,&#39; expr)? &#39;in&#39; expression">
<polygon fill="none" stroke="black" points="681,-195.5 681,-214.5 815,-214.5 815,-195.5 681,-195.5"/>
<text text-anchor="middle" x="748" y="-202.5" font-family="Helvetica,sans-Serif" font-size="10.00">slljit::Parser::ParseForExpr</text>
</a>
</g>
</g>
<!-- Node6&#45;&gt;Node8 -->
<g id="edge18" class="edge">
<title>Node6&#45;&gt;Node8</title>
<path fill="none" stroke="midnightblue" d="M1056.95,-172.06C1043.09,-174.17 1028.59,-176.26 1015,-178 947.09,-186.71 869.13,-194.35 815.25,-199.26"/>
<polygon fill="midnightblue" stroke="midnightblue" points="1057.55,-175.51 1066.9,-170.53 1056.48,-168.59 1057.55,-175.51"/>
</g>
<!-- Node9 -->
<g id="node9" class="node">
<title>Node9</title>
<g id="a_node9"><a xlink:href="classslljit_1_1_parser.html#a149f5e88cb03aa08c388e6320c6c1bac" target="_top" xlink:title="ifexpr ::= &#39;if&#39; expression &#39;then&#39; expression &#39;else&#39; expression">
<polygon fill="none" stroke="black" points="685.5,-157.5 685.5,-176.5 810.5,-176.5 810.5,-157.5 685.5,-157.5"/>
<text text-anchor="middle" x="748" y="-164.5" font-family="Helvetica,sans-Serif" font-size="10.00">slljit::Parser::ParseIfExpr</text>
</a>
</g>
</g>
<!-- Node6&#45;&gt;Node9 -->
<g id="edge20" class="edge">
<title>Node6&#45;&gt;Node9</title>
<path fill="none" stroke="midnightblue" d="M1040.69,-162.34C971.03,-163.45 873.48,-165.01 810.76,-166.01"/>
<polygon fill="midnightblue" stroke="midnightblue" points="1040.82,-165.84 1050.76,-162.18 1040.71,-158.84 1040.82,-165.84"/>
</g>
<!-- Node16 -->
<g id="node16" class="node">
<title>Node16</title>
<g id="a_node16"><a xlink:href="classslljit_1_1_parser.html#a6e2e0f6a2cc445f3a956db59c8d2da66" target="_top" xlink:title="parenexpr ::= &#39;(&#39; expression &#39;)&#39;">
<polygon fill="none" stroke="black" points="860,-245.5 860,-264.5 1006,-264.5 1006,-245.5 860,-245.5"/>
<text text-anchor="middle" x="933" y="-252.5" font-family="Helvetica,sans-Serif" font-size="10.00">slljit::Parser::ParseParenExpr</text>
</a>
</g>
</g>
<!-- Node6&#45;&gt;Node16 -->
<g id="edge21" class="edge">
<title>Node6&#45;&gt;Node16</title>
<path fill="none" stroke="midnightblue" d="M1098.19,-175.59C1076.17,-187.64 1043.82,-204.98 1015,-219 995.49,-228.49 972.9,-238.45 956.54,-245.48"/>
<polygon fill="midnightblue" stroke="midnightblue" points="1100.16,-178.5 1107.24,-170.62 1096.79,-172.36 1100.16,-178.5"/>
</g>
<!-- Node6&#45;&gt;Node17 -->
<g id="edge23" class="edge">
<title>Node6&#45;&gt;Node17</title>
<path fill="none" stroke="midnightblue" d="M1095.29,-147.03C1073.32,-136.6 1042.4,-122.12 1015,-110 995.75,-101.48 973.72,-92.27 957.5,-85.58"/>
<polygon fill="midnightblue" stroke="midnightblue" points="1093.89,-150.23 1104.42,-151.37 1096.9,-143.91 1093.89,-150.23"/>
</g>
<!-- Node7&#45;&gt;Node8 -->
<g id="edge8" class="edge">
<title>Node7&#45;&gt;Node8</title>
<path fill="none" stroke="midnightblue" d="M905.66,-143.47C882.32,-155.89 847.07,-173.68 815,-186 805.87,-189.51 795.82,-192.72 786.37,-195.46"/>
<polygon fill="midnightblue" stroke="midnightblue" points="907.43,-146.49 914.59,-138.67 904.12,-140.32 907.43,-146.49"/>
</g>
<!-- Node7&#45;&gt;Node9 -->
<g id="edge10" class="edge">
<title>Node7&#45;&gt;Node9</title>
<path fill="none" stroke="midnightblue" d="M875.75,-140.68C849.79,-146.07 819.38,-152.39 794.85,-157.48"/>
<polygon fill="midnightblue" stroke="midnightblue" points="876.74,-144.05 885.82,-138.59 875.32,-137.2 876.74,-144.05"/>
</g>
<!-- Node10 -->
<g id="node10" class="node">
<title>Node10</title>
<g id="a_node10"><a xlink:href="classslljit_1_1_parser.html#aa9a9ce164e114ad7f347f32329f5a5a2" target="_top" xlink:title="definition ::= &#39;def&#39; prototype expression">
<polygon fill="none" stroke="black" points="690,-48 690,-78 806,-78 806,-48 690,-48"/>
<text text-anchor="start" x="698" y="-66" font-family="Helvetica,sans-Serif" font-size="10.00">slljit::Parser::ParseTop</text>
<text text-anchor="middle" x="748" y="-55" font-family="Helvetica,sans-Serif" font-size="10.00">LevelTypedExpression</text>
</a>
</g>
</g>
<!-- Node7&#45;&gt;Node10 -->
<g id="edge12" class="edge">
<title>Node7&#45;&gt;Node10</title>
<path fill="none" stroke="midnightblue" d="M895.68,-115.9C865.49,-105.01 822.52,-89.52 790.89,-78.11"/>
<polygon fill="midnightblue" stroke="midnightblue" points="894.8,-119.3 905.39,-119.4 897.17,-112.72 894.8,-119.3"/>
</g>
<!-- Node8&#45;&gt;Node3 -->
<g id="edge9" class="edge">
<title>Node8&#45;&gt;Node3</title>
<path fill="none" stroke="midnightblue" d="M760.44,-223.17C777.04,-247.72 810.29,-290.65 851,-310 961.21,-362.38 1002.48,-334 1124.5,-334 1294,-334 1294,-334 1294,-334 1391.03,-334 1421.17,-346.68 1511,-310 1550.8,-293.75 1587.99,-257.22 1604.31,-239.71"/>
<polygon fill="midnightblue" stroke="midnightblue" points="763.33,-221.19 754.92,-214.74 757.47,-225.02 763.33,-221.19"/>
</g>
<!-- Node9&#45;&gt;Node3 -->
<g id="edge11" class="edge">
<title>Node9&#45;&gt;Node3</title>
<path fill="none" stroke="midnightblue" d="M809.36,-181.63C811.34,-182.96 813.23,-184.41 815,-186 846.45,-214.22 816.89,-249.06 851,-274 900.22,-309.99 1063.53,-296 1124.5,-296 1294,-296 1294,-296 1294,-296 1404,-296 1530.99,-257.9 1585.66,-239.6"/>
<polygon fill="midnightblue" stroke="midnightblue" points="810.59,-178.31 800.14,-176.52 807.19,-184.43 810.59,-178.31"/>
</g>
<!-- Node11 -->
<g id="node11" class="node">
<title>Node11</title>
<g id="a_node11"><a xlink:href="classslljit_1_1_parser.html#af0cac4623fc05b8b7ae9884b0aeb3d3f" target="_top" xlink:title=" ">
<polygon fill="none" stroke="black" points="513,-48 513,-78 644,-78 644,-48 513,-48"/>
<text text-anchor="start" x="521" y="-66" font-family="Helvetica,sans-Serif" font-size="10.00">slljit::Parser::HandleTyped</text>
<text text-anchor="middle" x="578.5" y="-55" font-family="Helvetica,sans-Serif" font-size="10.00">Expression</text>
</a>
</g>
</g>
<!-- Node10&#45;&gt;Node11 -->
<g id="edge13" class="edge">
<title>Node10&#45;&gt;Node11</title>
<path fill="none" stroke="midnightblue" d="M679.68,-63C667.97,-63 655.82,-63 644.19,-63"/>
<polygon fill="midnightblue" stroke="midnightblue" points="679.82,-66.5 689.82,-63 679.82,-59.5 679.82,-66.5"/>
</g>
<!-- Node12 -->
<g id="node12" class="node">
<title>Node12</title>
<g id="a_node12"><a xlink:href="classslljit_1_1_parser.html#ae2d3d6534b87da7f237c19129a464bda" target="_top" xlink:title="top ::= definition | external | expression | &#39;;&#39;">
<polygon fill="none" stroke="black" points="360,-31.5 360,-50.5 476,-50.5 476,-31.5 360,-31.5"/>
<text text-anchor="middle" x="418" y="-38.5" font-family="Helvetica,sans-Serif" font-size="10.00">slljit::Parser::MainLoop</text>
</a>
</g>
</g>
<!-- Node11&#45;&gt;Node12 -->
<g id="edge14" class="edge">
<title>Node11&#45;&gt;Node12</title>
<path fill="none" stroke="midnightblue" d="M502.61,-52.6C493.73,-51.37 484.78,-50.13 476.21,-48.94"/>
<polygon fill="midnightblue" stroke="midnightblue" points="502.19,-56.08 512.57,-53.99 503.15,-49.15 502.19,-56.08"/>
</g>
<!-- Node13 -->
<g id="node13" class="node">
<title>Node13</title>
<g id="a_node13"><a xlink:href="classslljit_1_1_parser.html#a2429935f3c870648f9f895a7b2361cfb" target="_top" xlink:title=" ">
<polygon fill="none" stroke="black" points="226,-31.5 226,-50.5 324,-50.5 324,-31.5 226,-31.5"/>
<text text-anchor="middle" x="275" y="-38.5" font-family="Helvetica,sans-Serif" font-size="10.00">slljit::Parser::parse</text>
</a>
</g>
</g>
<!-- Node12&#45;&gt;Node13 -->
<g id="edge15" class="edge">
<title>Node12&#45;&gt;Node13</title>
<path fill="none" stroke="midnightblue" d="M349.37,-41C340.9,-41 332.37,-41 324.28,-41"/>
<polygon fill="midnightblue" stroke="midnightblue" points="349.65,-44.5 359.65,-41 349.65,-37.5 349.65,-44.5"/>
</g>
<!-- Node14 -->
<g id="node14" class="node">
<title>Node14</title>
<g id="a_node14"><a xlink:href="classslljit_1_1_program.html#ae4d26526a7dd9c69ebe92fb43736696b" target="_top" xlink:title=" ">
<polygon fill="none" stroke="black" points="74,-31.5 74,-50.5 190,-50.5 190,-31.5 74,-31.5"/>
<text text-anchor="middle" x="132" y="-38.5" font-family="Helvetica,sans-Serif" font-size="10.00">slljit::Program::compile</text>
</a>
</g>
</g>
<!-- Node13&#45;&gt;Node14 -->
<g id="edge16" class="edge">
<title>Node13&#45;&gt;Node14</title>
<path fill="none" stroke="midnightblue" d="M215.72,-41C207.27,-41 198.58,-41 190.16,-41"/>
<polygon fill="midnightblue" stroke="midnightblue" points="215.87,-44.5 225.87,-41 215.87,-37.5 215.87,-44.5"/>
</g>
<!-- Node15 -->
<g id="node15" class="node">
<title>Node15</title>
<g id="a_node15"><a xlink:href="compiler__cli_8cpp.html#a3c04138a5bfe5d72780bb7e82a18e627" target="_top" xlink:title=" ">
<polygon fill="none" stroke="black" points="0,-31.5 0,-50.5 38,-50.5 38,-31.5 0,-31.5"/>
<text text-anchor="middle" x="19" y="-38.5" font-family="Helvetica,sans-Serif" font-size="10.00">main</text>
</a>
</g>
</g>
<!-- Node14&#45;&gt;Node15 -->
<g id="edge17" class="edge">
<title>Node14&#45;&gt;Node15</title>
<path fill="none" stroke="midnightblue" d="M63.62,-41C54.3,-41 45.44,-41 38.18,-41"/>
<polygon fill="midnightblue" stroke="midnightblue" points="63.87,-44.5 73.87,-41 63.87,-37.5 63.87,-44.5"/>
</g>
<!-- Node16&#45;&gt;Node3 -->
<g id="edge22" class="edge">
<title>Node16&#45;&gt;Node3</title>
<path fill="none" stroke="midnightblue" d="M1016.23,-254.28C1128.22,-252.94 1334.92,-249.2 1511,-239 1522.62,-238.33 1534.98,-237.41 1546.93,-236.42"/>
<polygon fill="midnightblue" stroke="midnightblue" points="1015.98,-250.78 1006.02,-254.4 1016.06,-257.78 1015.98,-250.78"/>
</g>
<!-- Node17&#45;&gt;Node3 -->
<g id="edge24" class="edge">
<title>Node17&#45;&gt;Node3</title>
<path fill="none" stroke="midnightblue" d="M1010.82,-83.06C1094.79,-91.63 1232.99,-108.2 1350,-134 1423.04,-150.1 1441.09,-156.4 1511,-183 1540.7,-194.3 1573.93,-210.27 1594.16,-220.37"/>
<polygon fill="midnightblue" stroke="midnightblue" points="1011.16,-79.58 1000.86,-82.06 1010.46,-86.54 1011.16,-79.58"/>
</g>
<!-- Node18&#45;&gt;Node10 -->
<g id="edge31" class="edge">
<title>Node18&#45;&gt;Node10</title>
<path fill="none" stroke="midnightblue" d="M882.53,-30.89C859.02,-36.55 830.78,-43.34 806.34,-49.21"/>
<polygon fill="midnightblue" stroke="midnightblue" points="883.39,-34.29 892.29,-28.55 881.75,-27.48 883.39,-34.29"/>
</g>
<!-- Node19 -->
<g id="node19" class="node">
<title>Node19</title>
<g id="a_node19"><a xlink:href="classslljit_1_1_parser.html#af6e239a609e8a3812838b53f9a8356ce" target="_top" xlink:title="external ::= &#39;extern&#39; prototype">
<polygon fill="none" stroke="black" points="684,-9.5 684,-28.5 812,-28.5 812,-9.5 684,-9.5"/>
<text text-anchor="middle" x="748" y="-16.5" font-family="Helvetica,sans-Serif" font-size="10.00">slljit::Parser::ParseExtern</text>
</a>
</g>
</g>
<!-- Node18&#45;&gt;Node19 -->
<g id="edge28" class="edge">
<title>Node18&#45;&gt;Node19</title>
<path fill="none" stroke="midnightblue" d="M851.72,-19C838.47,-19 824.91,-19 812.15,-19"/>
<polygon fill="midnightblue" stroke="midnightblue" points="851.77,-22.5 861.77,-19 851.77,-15.5 851.77,-22.5"/>
</g>
<!-- Node20 -->
<g id="node20" class="node">
<title>Node20</title>
<g id="a_node20"><a xlink:href="classslljit_1_1_parser.html#a5ff2f693f00fe32c8ee836e9139cb93e" target="_top" xlink:title=" ">
<polygon fill="none" stroke="black" points="512,-9.5 512,-28.5 645,-28.5 645,-9.5 512,-9.5"/>
<text text-anchor="middle" x="578.5" y="-16.5" font-family="Helvetica,sans-Serif" font-size="10.00">slljit::Parser::HandleExtern</text>
</a>
</g>
</g>
<!-- Node19&#45;&gt;Node20 -->
<g id="edge29" class="edge">
<title>Node19&#45;&gt;Node20</title>
<path fill="none" stroke="midnightblue" d="M673.52,-19C664.07,-19 654.45,-19 645.14,-19"/>
<polygon fill="midnightblue" stroke="midnightblue" points="673.68,-22.5 683.68,-19 673.68,-15.5 673.68,-22.5"/>
</g>
<!-- Node20&#45;&gt;Node12 -->
<g id="edge30" class="edge">
<title>Node20&#45;&gt;Node12</title>
<path fill="none" stroke="midnightblue" d="M501.68,-29.52C493.14,-30.71 484.55,-31.9 476.3,-33.05"/>
<polygon fill="midnightblue" stroke="midnightblue" points="502.23,-32.98 511.66,-28.14 501.27,-26.05 502.23,-32.98"/>
</g>
</g>
</svg>
