<?xml version="1.0" encoding="UTF-8" standalone="no"?>
<!DOCTYPE svg PUBLIC "-//W3C//DTD SVG 1.1//EN"
 "http://www.w3.org/Graphics/SVG/1.1/DTD/svg11.dtd">
<!-- Generated by graphviz version 3.0.0 (20220226.1711)
 -->
<!-- Title: slljit::CodeGen::compile_layout Pages: 1 -->
<svg width="396pt" height="214pt"
 viewBox="0.00 0.00 396.00 213.50" xmlns="http://www.w3.org/2000/svg" xmlns:xlink="http://www.w3.org/1999/xlink">
<g id="graph0" class="graph" transform="scale(1 1) rotate(0) translate(4 209.5)">
<title>slljit::CodeGen::compile_layout</title>
<!-- Node1 -->
<g id="node1" class="node">
<title>Node1</title>
<g id="a_node1"><a xlink:title=" ">
<polygon fill="#bfbfbf" stroke="black" points="0,-98.5 0,-128.5 120,-128.5 120,-98.5 0,-98.5"/>
<text text-anchor="start" x="8" y="-116.5" font-family="Helvetica,sans-Serif" font-size="10.00">slljit::CodeGen::compile</text>
<text text-anchor="middle" x="60" y="-105.5" font-family="Helvetica,sans-Serif" font-size="10.00">_layout</text>
</a>
</g>
</g>
<!-- Node2 -->
<g id="node2" class="node">
<title>Node2</title>
<g id="a_node2"><a xlink:href="namespaceslljit.html#ab200d7cf320fef1a4045511b03b4168b" target="_top" xlink:title="Translates TypeID types to llvm types.">
<polygon fill="none" stroke="black" points="156,-186 156,-205 255,-205 255,-186 156,-186"/>
<text text-anchor="middle" x="205.5" y="-193" font-family="Helvetica,sans-Serif" font-size="10.00">slljit::get_llvm_type</text>
</a>
</g>
</g>
<!-- Node1&#45;&gt;Node2 -->
<g id="edge1" class="edge">
<title>Node1&#45;&gt;Node2</title>
<path fill="none" stroke="midnightblue" d="M84.47,-128.63C103.49,-140.7 131.12,-157.79 156,-171.5 162.08,-174.85 168.69,-178.27 175.02,-181.43"/>
<polygon fill="midnightblue" stroke="midnightblue" points="173.48,-184.58 184,-185.85 176.57,-178.3 173.48,-184.58"/>
</g>
<!-- Node3 -->
<g id="node3" class="node">
<title>Node3</title>
<g id="a_node3"><a xlink:href="classslljit_1_1_local_context.html#acd5a146c139b01ff0c5d1be79e187749" target="_top" xlink:title=" ">
<polygon fill="none" stroke="black" points="291,-161.5 291,-191.5 388,-191.5 388,-161.5 291,-161.5"/>
<text text-anchor="start" x="299" y="-179.5" font-family="Helvetica,sans-Serif" font-size="10.00">slljit::LocalContext</text>
<text text-anchor="middle" x="339.5" y="-168.5" font-family="Helvetica,sans-Serif" font-size="10.00">::getBuilder</text>
</a>
</g>
</g>
<!-- Node1&#45;&gt;Node3 -->
<g id="edge3" class="edge">
<title>Node1&#45;&gt;Node3</title>
<path fill="none" stroke="midnightblue" d="M116.14,-128.53C129.17,-131.94 143.05,-135.45 156,-138.5 197.61,-148.3 244.86,-158.1 280.86,-165.3"/>
<polygon fill="midnightblue" stroke="midnightblue" points="280.21,-168.74 290.7,-167.25 281.58,-161.87 280.21,-168.74"/>
</g>
<!-- Node4 -->
<g id="node4" class="node">
<title>Node4</title>
<g id="a_node4"><a xlink:href="classslljit_1_1_local_context.html#a7b1975b6c4314126ab18642dc180d596" target="_top" xlink:title=" ">
<polygon fill="none" stroke="black" points="157,-98.5 157,-128.5 254,-128.5 254,-98.5 157,-98.5"/>
<text text-anchor="start" x="165" y="-116.5" font-family="Helvetica,sans-Serif" font-size="10.00">slljit::LocalContext</text>
<text text-anchor="middle" x="205.5" y="-105.5" font-family="Helvetica,sans-Serif" font-size="10.00">::getContext</text>
</a>
</g>
</g>
<!-- Node1&#45;&gt;Node4 -->
<g id="edge4" class="edge">
<title>Node1&#45;&gt;Node4</title>
<path fill="none" stroke="midnightblue" d="M120.2,-113.5C128.96,-113.5 137.99,-113.5 146.73,-113.5"/>
<polygon fill="midnightblue" stroke="midnightblue" points="146.82,-117 156.82,-113.5 146.82,-110 146.82,-117"/>
</g>
<!-- Node5 -->
<g id="node5" class="node">
<title>Node5</title>
<g id="a_node5"><a xlink:href="classslljit_1_1_local_context.html#a776934c87f66bfe5f7181c6bc3896c4b" target="_top" xlink:title=" ">
<polygon fill="none" stroke="black" points="157,-49.5 157,-79.5 254,-79.5 254,-49.5 157,-49.5"/>
<text text-anchor="start" x="165" y="-67.5" font-family="Helvetica,sans-Serif" font-size="10.00">slljit::LocalContext</text>
<text text-anchor="middle" x="205.5" y="-56.5" font-family="Helvetica,sans-Serif" font-size="10.00">::getLayout</text>
</a>
</g>
</g>
<!-- Node1&#45;&gt;Node5 -->
<g id="edge5" class="edge">
<title>Node1&#45;&gt;Node5</title>
<path fill="none" stroke="midnightblue" d="M105.23,-98.4C119.55,-93.51 135.59,-88.03 150.54,-82.93"/>
<polygon fill="midnightblue" stroke="midnightblue" points="151.84,-86.18 160.17,-79.64 149.58,-79.56 151.84,-86.18"/>
</g>
<!-- Node6 -->
<g id="node6" class="node">
<title>Node6</title>
<g id="a_node6"><a xlink:href="classslljit_1_1_local_context.html#abb9845ccd33f6c425e174f0090e92fbe" target="_top" xlink:title=" ">
<polygon fill="none" stroke="black" points="157,-0.5 157,-30.5 254,-30.5 254,-0.5 157,-0.5"/>
<text text-anchor="start" x="165" y="-18.5" font-family="Helvetica,sans-Serif" font-size="10.00">slljit::LocalContext</text>
<text text-anchor="middle" x="205.5" y="-7.5" font-family="Helvetica,sans-Serif" font-size="10.00">::getModule</text>
</a>
</g>
</g>
<!-- Node1&#45;&gt;Node6 -->
<g id="edge6" class="edge">
<title>Node1&#45;&gt;Node6</title>
<path fill="none" stroke="midnightblue" d="M78.86,-98.22C97.44,-82.69 127.73,-58.45 156,-40.5 158.72,-38.77 161.57,-37.07 164.47,-35.4"/>
<polygon fill="midnightblue" stroke="midnightblue" points="166.18,-38.46 173.25,-30.56 162.8,-32.33 166.18,-38.46"/>
</g>
<!-- Node2&#45;&gt;Node3 -->
<g id="edge2" class="edge">
<title>Node2&#45;&gt;Node3</title>
<path fill="none" stroke="midnightblue" d="M255.28,-188.48C263.62,-187.28 272.35,-186.02 280.9,-184.79"/>
<polygon fill="midnightblue" stroke="midnightblue" points="281.4,-188.25 290.8,-183.37 280.41,-181.33 281.4,-188.25"/>
</g>
</g>
</svg>
