<?xml version="1.0" encoding="UTF-8" standalone="no"?>
<!DOCTYPE svg PUBLIC "-//W3C//DTD SVG 1.1//EN"
 "http://www.w3.org/Graphics/SVG/1.1/DTD/svg11.dtd">
<!-- Generated by graphviz version 3.0.0 (20220226.1711)
 -->
<!-- Title: slljit::VariableExprAST Pages: 1 -->
<svg width="163pt" height="162pt"
 viewBox="0.00 0.00 162.50 162.00" xmlns="http://www.w3.org/2000/svg" xmlns:xlink="http://www.w3.org/1999/xlink">
<g id="graph0" class="graph" transform="scale(1 1) rotate(0) translate(4 158)">
<title>slljit::VariableExprAST</title>
<!-- Node1 -->
<g id="node1" class="node">
<title>Node1</title>
<g id="a_node1"><a xlink:title="Expression class for referencing a variable, like &quot;a&quot;.">
<polygon fill="#bfbfbf" stroke="black" points="40.5,-0.5 40.5,-19.5 154.5,-19.5 154.5,-0.5 40.5,-0.5"/>
<text text-anchor="middle" x="97.5" y="-7.5" font-family="Helvetica,sans-Serif" font-size="10.00">slljit::VariableExprAST</text>
</a>
</g>
</g>
<!-- Node2 -->
<g id="node2" class="node">
<title>Node2</title>
<g id="a_node2"><a xlink:href="classslljit_1_1_expr_a_s_t.html" target="_top" xlink:title="Base class for all expression nodes.">
<polygon fill="none" stroke="black" points="0,-67.5 0,-86.5 79,-86.5 79,-67.5 0,-67.5"/>
<text text-anchor="middle" x="39.5" y="-74.5" font-family="Helvetica,sans-Serif" font-size="10.00">slljit::ExprAST</text>
</a>
</g>
</g>
<!-- Node2&#45;&gt;Node1 -->
<g id="edge1" class="edge">
<title>Node2&#45;&gt;Node1</title>
<path fill="none" stroke="midnightblue" d="M54.1,-59.63C65.45,-46.92 80.73,-29.8 89.8,-19.63"/>
<polygon fill="midnightblue" stroke="midnightblue" points="51.37,-57.44 47.32,-67.23 56.59,-62.1 51.37,-57.44"/>
</g>
<!-- Node3 -->
<g id="node3" class="node">
<title>Node3</title>
<g id="a_node3"><a xlink:title=" ">
<polygon fill="none" stroke="black" points="16,-134.5 16,-153.5 63,-153.5 63,-134.5 16,-134.5"/>
<text text-anchor="middle" x="39.5" y="-141.5" font-family="Helvetica,sans-Serif" font-size="10.00">TypeID</text>
</a>
</g>
</g>
<!-- Node3&#45;&gt;Node2 -->
<g id="edge2" class="edge">
<title>Node3&#45;&gt;Node2</title>
<path fill="none" stroke="#9a32cd" stroke-dasharray="5,2" d="M39.5,-124.04C39.5,-111.67 39.5,-96.12 39.5,-86.63"/>
<polygon fill="#9a32cd" stroke="#9a32cd" points="36,-124.23 39.5,-134.23 43,-124.23 36,-124.23"/>
<text text-anchor="middle" x="53.5" y="-108" font-family="Helvetica,sans-Serif" font-size="10.00"> type_</text>
</g>
<!-- Node4 -->
<g id="node4" class="node">
<title>Node4</title>
<g id="a_node4"><a xlink:title=" ">
<polygon fill="none" stroke="black" points="97,-67.5 97,-86.5 138,-86.5 138,-67.5 97,-67.5"/>
<text text-anchor="middle" x="117.5" y="-74.5" font-family="Helvetica,sans-Serif" font-size="10.00">string</text>
</a>
</g>
</g>
<!-- Node4&#45;&gt;Node1 -->
<g id="edge3" class="edge">
<title>Node4&#45;&gt;Node1</title>
<path fill="none" stroke="#9a32cd" stroke-dasharray="5,2" d="M111.78,-57.41C107.96,-44.99 103.11,-29.22 100.15,-19.63"/>
<polygon fill="#9a32cd" stroke="#9a32cd" points="108.52,-58.71 114.8,-67.23 115.21,-56.65 108.52,-58.71"/>
<text text-anchor="middle" x="123" y="-41" font-family="Helvetica,sans-Serif" font-size="10.00"> Name</text>
</g>
</g>
</svg>
