<?xml version="1.0" encoding="UTF-8" standalone="no"?>
<!DOCTYPE svg PUBLIC "-//W3C//DTD SVG 1.1//EN"
 "http://www.w3.org/Graphics/SVG/1.1/DTD/svg11.dtd">
<!-- Generated by graphviz version 3.0.0 (20220226.1711)
 -->
<!-- Title: slljit::Tokenizer::set_source Pages: 1 -->
<svg width="446pt" height="39pt"
 viewBox="0.00 0.00 446.00 39.00" xmlns="http://www.w3.org/2000/svg" xmlns:xlink="http://www.w3.org/1999/xlink">
<g id="graph0" class="graph" transform="scale(1 1) rotate(0) translate(4 35)">
<title>slljit::Tokenizer::set_source</title>
<!-- Node1 -->
<g id="node1" class="node">
<title>Node1</title>
<g id="a_node1"><a xlink:title=" ">
<polygon fill="#bfbfbf" stroke="black" points="350,-0.5 350,-30.5 438,-30.5 438,-0.5 350,-0.5"/>
<text text-anchor="start" x="358" y="-18.5" font-family="Helvetica,sans-Serif" font-size="10.00">slljit::Tokenizer::</text>
<text text-anchor="middle" x="394" y="-7.5" font-family="Helvetica,sans-Serif" font-size="10.00">set_source</text>
</a>
</g>
</g>
<!-- Node2 -->
<g id="node2" class="node">
<title>Node2</title>
<g id="a_node2"><a xlink:href="classslljit_1_1_parser.html#a21a8e61fa506eba01fc73f5fb3c35420" target="_top" xlink:title=" ">
<polygon fill="none" stroke="black" points="226,-0.5 226,-30.5 314,-30.5 314,-0.5 226,-0.5"/>
<text text-anchor="start" x="234" y="-18.5" font-family="Helvetica,sans-Serif" font-size="10.00">slljit::Parser::set</text>
<text text-anchor="middle" x="270" y="-7.5" font-family="Helvetica,sans-Serif" font-size="10.00">_source</text>
</a>
</g>
</g>
<!-- Node1&#45;&gt;Node2 -->
<g id="edge1" class="edge">
<title>Node1&#45;&gt;Node2</title>
<path fill="none" stroke="midnightblue" d="M339.96,-15.5C331.3,-15.5 322.42,-15.5 314.04,-15.5"/>
<polygon fill="midnightblue" stroke="midnightblue" points="339.99,-19 349.99,-15.5 339.99,-12 339.99,-19"/>
</g>
<!-- Node3 -->
<g id="node3" class="node">
<title>Node3</title>
<g id="a_node3"><a xlink:href="classslljit_1_1_program.html#ae4d26526a7dd9c69ebe92fb43736696b" target="_top" xlink:title=" ">
<polygon fill="none" stroke="black" points="74,-6 74,-25 190,-25 190,-6 74,-6"/>
<text text-anchor="middle" x="132" y="-13" font-family="Helvetica,sans-Serif" font-size="10.00">slljit::Program::compile</text>
</a>
</g>
</g>
<!-- Node2&#45;&gt;Node3 -->
<g id="edge2" class="edge">
<title>Node2&#45;&gt;Node3</title>
<path fill="none" stroke="midnightblue" d="M215.88,-15.5C207.45,-15.5 198.7,-15.5 190.18,-15.5"/>
<polygon fill="midnightblue" stroke="midnightblue" points="215.97,-19 225.97,-15.5 215.97,-12 215.97,-19"/>
</g>
<!-- Node4 -->
<g id="node4" class="node">
<title>Node4</title>
<g id="a_node4"><a xlink:href="compiler__cli_8cpp.html#a3c04138a5bfe5d72780bb7e82a18e627" target="_top" xlink:title=" ">
<polygon fill="none" stroke="black" points="0,-6 0,-25 38,-25 38,-6 0,-6"/>
<text text-anchor="middle" x="19" y="-13" font-family="Helvetica,sans-Serif" font-size="10.00">main</text>
</a>
</g>
</g>
<!-- Node3&#45;&gt;Node4 -->
<g id="edge3" class="edge">
<title>Node3&#45;&gt;Node4</title>
<path fill="none" stroke="midnightblue" d="M63.62,-15.5C54.3,-15.5 45.44,-15.5 38.18,-15.5"/>
<polygon fill="midnightblue" stroke="midnightblue" points="63.87,-19 73.87,-15.5 63.87,-12 63.87,-19"/>
</g>
</g>
</svg>
