<?xml version="1.0" encoding="UTF-8" standalone="no"?>
<!DOCTYPE svg PUBLIC "-//W3C//DTD SVG 1.1//EN"
 "http://www.w3.org/Graphics/SVG/1.1/DTD/svg11.dtd">
<!-- Generated by graphviz version 3.0.0 (20220226.1711)
 -->
<!-- Title: ErrorInfo Pages: 1 -->
<svg width="212pt" height="95pt"
 viewBox="0.00 0.00 211.50 95.00" xmlns="http://www.w3.org/2000/svg" xmlns:xlink="http://www.w3.org/1999/xlink">
<g id="graph0" class="graph" transform="scale(1 1) rotate(0) translate(4 91)">
<title>ErrorInfo</title>
<!-- Node1 -->
<g id="node1" class="node">
<title>Node1</title>
<g id="a_node1"><a xlink:title=" ">
<polygon fill="#bfbfbf" stroke="black" points="76.5,-67.5 76.5,-86.5 129.5,-86.5 129.5,-67.5 76.5,-67.5"/>
<text text-anchor="middle" x="103" y="-74.5" font-family="Helvetica,sans-Serif" font-size="10.00">ErrorInfo</text>
</a>
</g>
</g>
<!-- Node2 -->
<g id="node2" class="node">
<title>Node2</title>
<g id="a_node2"><a xlink:href="classslljit_1_1_compile_error.html" target="_top" xlink:title="Used to repseresnt CodeGen and compile() errors.">
<polygon fill="none" stroke="black" points="0,-0.5 0,-30.5 96,-30.5 96,-0.5 0,-0.5"/>
<text text-anchor="start" x="8" y="-18.5" font-family="Helvetica,sans-Serif" font-size="10.00">slljit::CompileError</text>
<text text-anchor="middle" x="48" y="-7.5" font-family="Helvetica,sans-Serif" font-size="10.00">&lt; CompileError &gt;</text>
</a>
</g>
</g>
<!-- Node1&#45;&gt;Node2 -->
<g id="edge1" class="edge">
<title>Node1&#45;&gt;Node2</title>
<path fill="none" stroke="midnightblue" d="M88.29,-60.09C79.78,-50.88 69.16,-39.39 60.96,-30.52"/>
<polygon fill="midnightblue" stroke="midnightblue" points="85.76,-62.51 95.12,-67.48 90.9,-57.76 85.76,-62.51"/>
</g>
<!-- Node3 -->
<g id="node3" class="node">
<title>Node3</title>
<g id="a_node3"><a xlink:href="classslljit_1_1_parser_error.html" target="_top" xlink:title="Used to represent Parser errors.">
<polygon fill="none" stroke="black" points="114.5,-0.5 114.5,-30.5 203.5,-30.5 203.5,-0.5 114.5,-0.5"/>
<text text-anchor="start" x="122.5" y="-18.5" font-family="Helvetica,sans-Serif" font-size="10.00">slljit::ParserError</text>
<text text-anchor="middle" x="159" y="-7.5" font-family="Helvetica,sans-Serif" font-size="10.00">&lt; ParserError &gt;</text>
</a>
</g>
</g>
<!-- Node1&#45;&gt;Node3 -->
<g id="edge2" class="edge">
<title>Node1&#45;&gt;Node3</title>
<path fill="none" stroke="midnightblue" d="M117.97,-60.09C126.64,-50.88 137.45,-39.39 145.8,-30.52"/>
<polygon fill="midnightblue" stroke="midnightblue" points="115.33,-57.79 111.02,-67.48 120.43,-62.59 115.33,-57.79"/>
</g>
</g>
</svg>
