<?xml version="1.0" encoding="UTF-8" standalone="no"?>
<!DOCTYPE svg PUBLIC "-//W3C//DTD SVG 1.1//EN"
 "http://www.w3.org/Graphics/SVG/1.1/DTD/svg11.dtd">
<!-- Generated by graphviz version 3.0.0 (20220226.1711)
 -->
<!-- Title: slljit::Parser::getNextToken Pages: 1 -->
<svg width="428pt" height="284pt"
 viewBox="0.00 0.00 428.00 284.00" xmlns="http://www.w3.org/2000/svg" xmlns:xlink="http://www.w3.org/1999/xlink">
<g id="graph0" class="graph" transform="scale(1 1) rotate(0) translate(4 280)">
<title>slljit::Parser::getNextToken</title>
<!-- Node1 -->
<g id="node1" class="node">
<title>Node1</title>
<g id="a_node1"><a xlink:title="GetTokPrecedence &#45; Get the precedence of the pending binary operator token.">
<polygon fill="#bfbfbf" stroke="black" points="0,-128 0,-147 134,-147 134,-128 0,-128"/>
<text text-anchor="middle" x="67" y="-135" font-family="Helvetica,sans-Serif" font-size="10.00">slljit::Parser::getNextToken</text>
</a>
</g>
</g>
<!-- Node2 -->
<g id="node2" class="node">
<title>Node2</title>
<g id="a_node2"><a xlink:href="classslljit_1_1_tokenizer.html#a4f0b343321f5e4561a80e47a5cec05d2" target="_top" xlink:title=" ">
<polygon fill="none" stroke="black" points="170,-122.5 170,-152.5 258,-152.5 258,-122.5 170,-122.5"/>
<text text-anchor="start" x="178" y="-140.5" font-family="Helvetica,sans-Serif" font-size="10.00">slljit::Tokenizer::</text>
<text text-anchor="middle" x="214" y="-129.5" font-family="Helvetica,sans-Serif" font-size="10.00">gettok</text>
</a>
</g>
</g>
<!-- Node1&#45;&gt;Node2 -->
<g id="edge1" class="edge">
<title>Node1&#45;&gt;Node2</title>
<path fill="none" stroke="midnightblue" d="M134.14,-137.5C142.64,-137.5 151.27,-137.5 159.54,-137.5"/>
<polygon fill="midnightblue" stroke="midnightblue" points="159.79,-141 169.79,-137.5 159.79,-134 159.79,-141"/>
</g>
<!-- Node2&#45;&gt;Node2 -->
<g id="edge3" class="edge">
<title>Node2&#45;&gt;Node2</title>
<path fill="none" stroke="midnightblue" d="M189.25,-152.66C183.29,-162.06 191.54,-171 214,-171 227.69,-171 236.1,-167.68 239.23,-162.96"/>
<polygon fill="midnightblue" stroke="midnightblue" points="242.71,-162.48 238.75,-152.66 235.72,-162.81 242.71,-162.48"/>
</g>
<!-- Node3 -->
<g id="node3" class="node">
<title>Node3</title>
<g id="a_node3"><a xlink:href="classslljit_1_1_tokenizer.html#aebe79ebb0da26fa5e89963683d474402" target="_top" xlink:title=" ">
<polygon fill="none" stroke="black" points="313,-245.5 313,-275.5 401,-275.5 401,-245.5 313,-245.5"/>
<text text-anchor="start" x="321" y="-263.5" font-family="Helvetica,sans-Serif" font-size="10.00">slljit::Tokenizer::</text>
<text text-anchor="middle" x="357" y="-252.5" font-family="Helvetica,sans-Serif" font-size="10.00">_getchar</text>
</a>
</g>
</g>
<!-- Node2&#45;&gt;Node3 -->
<g id="edge2" class="edge">
<title>Node2&#45;&gt;Node3</title>
<path fill="none" stroke="midnightblue" d="M223.53,-152.66C236.29,-174.09 262.27,-213.21 294,-236.5 297.02,-238.71 300.26,-240.75 303.63,-242.62"/>
<polygon fill="midnightblue" stroke="midnightblue" points="302.25,-245.85 312.76,-247.19 305.38,-239.59 302.25,-245.85"/>
</g>
<!-- Node4 -->
<g id="node4" class="node">
<title>Node4</title>
<g id="a_node4"><a xlink:href="classslljit_1_1_tokenizer.html#ac5b5748065cb054e0f34d995d1f3edce" target="_top" xlink:title=" ">
<polygon fill="none" stroke="black" points="313,-196.5 313,-226.5 401,-226.5 401,-196.5 313,-196.5"/>
<text text-anchor="start" x="321" y="-214.5" font-family="Helvetica,sans-Serif" font-size="10.00">slljit::Tokenizer::</text>
<text text-anchor="middle" x="357" y="-203.5" font-family="Helvetica,sans-Serif" font-size="10.00">is_id_char</text>
</a>
</g>
</g>
<!-- Node2&#45;&gt;Node4 -->
<g id="edge4" class="edge">
<title>Node2&#45;&gt;Node4</title>
<path fill="none" stroke="midnightblue" d="M236.46,-152.7C251.98,-163.28 273.71,-177.27 294,-187.5 297.34,-189.18 300.83,-190.83 304.37,-192.41"/>
<polygon fill="midnightblue" stroke="midnightblue" points="303.26,-195.74 313.83,-196.45 306.01,-189.3 303.26,-195.74"/>
</g>
<!-- Node5 -->
<g id="node5" class="node">
<title>Node5</title>
<g id="a_node5"><a xlink:href="classslljit_1_1_tokenizer.html#afddb21e93063a4c2338c2d42e23d18d2" target="_top" xlink:title=" ">
<polygon fill="none" stroke="black" points="313,-147.5 313,-177.5 401,-177.5 401,-147.5 313,-147.5"/>
<text text-anchor="start" x="321" y="-165.5" font-family="Helvetica,sans-Serif" font-size="10.00">slljit::Tokenizer::</text>
<text text-anchor="middle" x="357" y="-154.5" font-family="Helvetica,sans-Serif" font-size="10.00">is_id_start_char</text>
</a>
</g>
</g>
<!-- Node2&#45;&gt;Node5 -->
<g id="edge5" class="edge">
<title>Node2&#45;&gt;Node5</title>
<path fill="none" stroke="midnightblue" d="M258.07,-145.14C272.15,-147.63 287.96,-150.44 302.71,-153.05"/>
<polygon fill="midnightblue" stroke="midnightblue" points="302.25,-156.52 312.71,-154.82 303.47,-149.63 302.25,-156.52"/>
</g>
<!-- Node6 -->
<g id="node6" class="node">
<title>Node6</title>
<g id="a_node6"><a xlink:href="classslljit_1_1_tokenizer.html#ada986d1651ab242c370288c198cd726d" target="_top" xlink:title=" ">
<polygon fill="none" stroke="black" points="294,-98.5 294,-128.5 420,-128.5 420,-98.5 294,-98.5"/>
<text text-anchor="start" x="302" y="-116.5" font-family="Helvetica,sans-Serif" font-size="10.00">slljit::Tokenizer::</text>
<text text-anchor="middle" x="357" y="-105.5" font-family="Helvetica,sans-Serif" font-size="10.00">is_reserved_command_id</text>
</a>
</g>
</g>
<!-- Node2&#45;&gt;Node6 -->
<g id="edge6" class="edge">
<title>Node2&#45;&gt;Node6</title>
<path fill="none" stroke="midnightblue" d="M258.07,-130.17C266.31,-128.77 275.14,-127.26 284,-125.76"/>
<polygon fill="midnightblue" stroke="midnightblue" points="284.72,-129.18 293.99,-124.06 283.54,-122.28 284.72,-129.18"/>
</g>
<!-- Node7 -->
<g id="node7" class="node">
<title>Node7</title>
<g id="a_node7"><a xlink:href="classslljit_1_1_tokenizer.html#ab29a7d2f06bb354a3f748106f5ea3e6c" target="_top" xlink:title=" ">
<polygon fill="none" stroke="black" points="312.5,-49.5 312.5,-79.5 401.5,-79.5 401.5,-49.5 312.5,-49.5"/>
<text text-anchor="start" x="320.5" y="-67.5" font-family="Helvetica,sans-Serif" font-size="10.00">slljit::Tokenizer::</text>
<text text-anchor="middle" x="357" y="-56.5" font-family="Helvetica,sans-Serif" font-size="10.00">is_special_literal</text>
</a>
</g>
</g>
<!-- Node2&#45;&gt;Node7 -->
<g id="edge7" class="edge">
<title>Node2&#45;&gt;Node7</title>
<path fill="none" stroke="midnightblue" d="M237.6,-122.41C253.1,-112.41 274.34,-99.35 294,-89.5 298.02,-87.49 302.24,-85.51 306.51,-83.6"/>
<polygon fill="midnightblue" stroke="midnightblue" points="308.09,-86.74 315.88,-79.56 305.32,-80.31 308.09,-86.74"/>
</g>
<!-- Node8 -->
<g id="node8" class="node">
<title>Node8</title>
<g id="a_node8"><a xlink:href="classslljit_1_1_tokenizer.html#ae5cc0911ed858f6bc7bf206928cd66ae" target="_top" xlink:title=" ">
<polygon fill="none" stroke="black" points="313,-0.5 313,-30.5 401,-30.5 401,-0.5 313,-0.5"/>
<text text-anchor="start" x="321" y="-18.5" font-family="Helvetica,sans-Serif" font-size="10.00">slljit::Tokenizer::</text>
<text text-anchor="middle" x="357" y="-7.5" font-family="Helvetica,sans-Serif" font-size="10.00">set_lok_location</text>
</a>
</g>
</g>
<!-- Node2&#45;&gt;Node8 -->
<g id="edge8" class="edge">
<title>Node2&#45;&gt;Node8</title>
<path fill="none" stroke="midnightblue" d="M223.87,-122.36C236.84,-101.38 262.88,-63.44 294,-40.5 297.03,-38.27 300.28,-36.2 303.66,-34.29"/>
<polygon fill="midnightblue" stroke="midnightblue" points="305.5,-37.28 312.8,-29.61 302.31,-31.05 305.5,-37.28"/>
</g>
</g>
</svg>
