<?xml version="1.0" encoding="UTF-8" standalone="no"?>
<!DOCTYPE svg PUBLIC "-//W3C//DTD SVG 1.1//EN"
 "http://www.w3.org/Graphics/SVG/1.1/DTD/svg11.dtd">
<!-- Generated by graphviz version 3.0.0 (20220226.1711)
 -->
<!-- Title: slljit::PrototypeAST::codegen Pages: 1 -->
<svg width="379pt" height="230pt"
 viewBox="0.00 0.00 379.00 230.00" xmlns="http://www.w3.org/2000/svg" xmlns:xlink="http://www.w3.org/1999/xlink">
<g id="graph0" class="graph" transform="scale(1 1) rotate(0) translate(4 226)">
<title>slljit::PrototypeAST::codegen</title>
<!-- Node1 -->
<g id="node1" class="node">
<title>Node1</title>
<g id="a_node1"><a xlink:title=" ">
<polygon fill="#bfbfbf" stroke="black" points="0,-98.5 0,-128.5 101,-128.5 101,-98.5 0,-98.5"/>
<text text-anchor="start" x="8" y="-116.5" font-family="Helvetica,sans-Serif" font-size="10.00">slljit::PrototypeAST</text>
<text text-anchor="middle" x="50.5" y="-105.5" font-family="Helvetica,sans-Serif" font-size="10.00">::codegen</text>
</a>
</g>
</g>
<!-- Node2 -->
<g id="node2" class="node">
<title>Node2</title>
<g id="a_node2"><a xlink:href="namespaceslljit.html#ab200d7cf320fef1a4045511b03b4168b" target="_top" xlink:title="Translates TypeID types to llvm types.">
<polygon fill="none" stroke="black" points="138,-197 138,-216 237,-216 237,-197 138,-197"/>
<text text-anchor="middle" x="187.5" y="-204" font-family="Helvetica,sans-Serif" font-size="10.00">slljit::get_llvm_type</text>
</a>
</g>
</g>
<!-- Node1&#45;&gt;Node2 -->
<g id="edge1" class="edge">
<title>Node1&#45;&gt;Node2</title>
<path fill="none" stroke="midnightblue" d="M65.7,-128.59C81.73,-144.92 109.22,-170.85 137,-187.5 140.23,-189.44 143.69,-191.24 147.23,-192.9"/>
<polygon fill="midnightblue" stroke="midnightblue" points="146.09,-196.22 156.66,-196.97 148.86,-189.79 146.09,-196.22"/>
</g>
<!-- Node4 -->
<g id="node4" class="node">
<title>Node4</title>
<g id="a_node4"><a xlink:href="classslljit_1_1_local_context.html#a7b1975b6c4314126ab18642dc180d596" target="_top" xlink:title=" ">
<polygon fill="none" stroke="black" points="139,-147.5 139,-177.5 236,-177.5 236,-147.5 139,-147.5"/>
<text text-anchor="start" x="147" y="-165.5" font-family="Helvetica,sans-Serif" font-size="10.00">slljit::LocalContext</text>
<text text-anchor="middle" x="187.5" y="-154.5" font-family="Helvetica,sans-Serif" font-size="10.00">::getContext</text>
</a>
</g>
</g>
<!-- Node1&#45;&gt;Node4 -->
<g id="edge3" class="edge">
<title>Node1&#45;&gt;Node4</title>
<path fill="none" stroke="midnightblue" d="M93.11,-128.6C106.45,-133.45 121.39,-138.87 135.33,-143.93"/>
<polygon fill="midnightblue" stroke="midnightblue" points="134.2,-147.24 144.8,-147.36 136.59,-140.66 134.2,-147.24"/>
</g>
<!-- Node5 -->
<g id="node5" class="node">
<title>Node5</title>
<g id="a_node5"><a xlink:href="classslljit_1_1_local_context.html#a776934c87f66bfe5f7181c6bc3896c4b" target="_top" xlink:title=" ">
<polygon fill="none" stroke="black" points="139,-98.5 139,-128.5 236,-128.5 236,-98.5 139,-98.5"/>
<text text-anchor="start" x="147" y="-116.5" font-family="Helvetica,sans-Serif" font-size="10.00">slljit::LocalContext</text>
<text text-anchor="middle" x="187.5" y="-105.5" font-family="Helvetica,sans-Serif" font-size="10.00">::getLayout</text>
</a>
</g>
</g>
<!-- Node1&#45;&gt;Node5 -->
<g id="edge4" class="edge">
<title>Node1&#45;&gt;Node5</title>
<path fill="none" stroke="midnightblue" d="M101,-113.5C109.97,-113.5 119.39,-113.5 128.58,-113.5"/>
<polygon fill="midnightblue" stroke="midnightblue" points="128.8,-117 138.8,-113.5 128.8,-110 128.8,-117"/>
</g>
<!-- Node6 -->
<g id="node6" class="node">
<title>Node6</title>
<g id="a_node6"><a xlink:href="classslljit_1_1_local_context.html#abb9845ccd33f6c425e174f0090e92fbe" target="_top" xlink:title=" ">
<polygon fill="none" stroke="black" points="139,-49.5 139,-79.5 236,-79.5 236,-49.5 139,-49.5"/>
<text text-anchor="start" x="147" y="-67.5" font-family="Helvetica,sans-Serif" font-size="10.00">slljit::LocalContext</text>
<text text-anchor="middle" x="187.5" y="-56.5" font-family="Helvetica,sans-Serif" font-size="10.00">::getModule</text>
</a>
</g>
</g>
<!-- Node1&#45;&gt;Node6 -->
<g id="edge5" class="edge">
<title>Node1&#45;&gt;Node6</title>
<path fill="none" stroke="midnightblue" d="M93.11,-98.4C106.45,-93.55 121.39,-88.13 135.33,-83.07"/>
<polygon fill="midnightblue" stroke="midnightblue" points="136.59,-86.34 144.8,-79.64 134.2,-79.76 136.59,-86.34"/>
</g>
<!-- Node7 -->
<g id="node7" class="node">
<title>Node7</title>
<g id="a_node7"><a xlink:href="classslljit_1_1_prototype_a_s_t.html#a57ae69a40a3c07e0d75caa0a13f51240" target="_top" xlink:title=" ">
<polygon fill="none" stroke="black" points="137,-0.5 137,-30.5 238,-30.5 238,-0.5 137,-0.5"/>
<text text-anchor="start" x="145" y="-18.5" font-family="Helvetica,sans-Serif" font-size="10.00">slljit::PrototypeAST</text>
<text text-anchor="middle" x="187.5" y="-7.5" font-family="Helvetica,sans-Serif" font-size="10.00">::isMain</text>
</a>
</g>
</g>
<!-- Node1&#45;&gt;Node7 -->
<g id="edge6" class="edge">
<title>Node1&#45;&gt;Node7</title>
<path fill="none" stroke="midnightblue" d="M66.97,-98.29C83.43,-82.6 110.68,-58.02 137,-40.5 139.56,-38.79 142.26,-37.13 145.01,-35.51"/>
<polygon fill="midnightblue" stroke="midnightblue" points="146.88,-38.48 153.92,-30.55 143.48,-32.36 146.88,-38.48"/>
</g>
<!-- Node3 -->
<g id="node3" class="node">
<title>Node3</title>
<g id="a_node3"><a xlink:href="classslljit_1_1_local_context.html#acd5a146c139b01ff0c5d1be79e187749" target="_top" xlink:title=" ">
<polygon fill="none" stroke="black" points="274,-191.5 274,-221.5 371,-221.5 371,-191.5 274,-191.5"/>
<text text-anchor="start" x="282" y="-209.5" font-family="Helvetica,sans-Serif" font-size="10.00">slljit::LocalContext</text>
<text text-anchor="middle" x="322.5" y="-198.5" font-family="Helvetica,sans-Serif" font-size="10.00">::getBuilder</text>
</a>
</g>
</g>
<!-- Node2&#45;&gt;Node3 -->
<g id="edge2" class="edge">
<title>Node2&#45;&gt;Node3</title>
<path fill="none" stroke="midnightblue" d="M237.27,-206.5C245.79,-206.5 254.74,-206.5 263.49,-206.5"/>
<polygon fill="midnightblue" stroke="midnightblue" points="263.62,-210 273.62,-206.5 263.62,-203 263.62,-210"/>
</g>
</g>
</svg>
