<?xml version="1.0" encoding="UTF-8" standalone="no"?>
<!DOCTYPE svg PUBLIC "-//W3C//DTD SVG 1.1//EN"
 "http://www.w3.org/Graphics/SVG/1.1/DTD/svg11.dtd">
<!-- Generated by graphviz version 3.0.0 (20220226.1711)
 -->
<!-- Title: slljit::Parser::ParseIfExpr Pages: 1 -->
<svg width="1848pt" height="317pt"
 viewBox="0.00 0.00 1848.00 317.15" xmlns="http://www.w3.org/2000/svg" xmlns:xlink="http://www.w3.org/1999/xlink">
<g id="graph0" class="graph" transform="scale(1 1) rotate(0) translate(4 313.15)">
<title>slljit::Parser::ParseIfExpr</title>
<!-- Node1 -->
<g id="node1" class="node">
<title>Node1</title>
<g id="a_node1"><a xlink:title="ifexpr ::= &#39;if&#39; expression &#39;then&#39; expression &#39;else&#39; expression">
<polygon fill="#bfbfbf" stroke="black" points="1715,-261.65 1715,-280.65 1840,-280.65 1840,-261.65 1715,-261.65"/>
<text text-anchor="middle" x="1777.5" y="-268.65" font-family="Helvetica,sans-Serif" font-size="10.00">slljit::Parser::ParseIfExpr</text>
</a>
</g>
</g>
<!-- Node2 -->
<g id="node2" class="node">
<title>Node2</title>
<g id="a_node2"><a xlink:href="classslljit_1_1_parser.html#a45cb3e4f600e8e2c253490e7d878e8cd" target="_top" xlink:title=" ">
<polygon fill="none" stroke="black" points="1545,-98.65 1545,-117.65 1679,-117.65 1679,-98.65 1545,-98.65"/>
<text text-anchor="middle" x="1612" y="-105.65" font-family="Helvetica,sans-Serif" font-size="10.00">slljit::Parser::ParsePrimary</text>
</a>
</g>
</g>
<!-- Node1&#45;&gt;Node2 -->
<g id="edge1" class="edge">
<title>Node1&#45;&gt;Node2</title>
<path fill="none" stroke="midnightblue" d="M1759.41,-254.11C1725.35,-220.15 1649.94,-144.97 1622.89,-118.01"/>
<polygon fill="midnightblue" stroke="midnightblue" points="1757.21,-256.86 1766.76,-261.44 1762.15,-251.9 1757.21,-256.86"/>
</g>
<!-- Node3 -->
<g id="node3" class="node">
<title>Node3</title>
<g id="a_node3"><a xlink:href="classslljit_1_1_parser.html#af8579896f39ac563d2edd14404d70f41" target="_top" xlink:title=" ">
<polygon fill="none" stroke="black" points="1384,-161.65 1384,-180.65 1509,-180.65 1509,-161.65 1384,-161.65"/>
<text text-anchor="middle" x="1446.5" y="-168.65" font-family="Helvetica,sans-Serif" font-size="10.00">slljit::Parser::ParseUnary</text>
</a>
</g>
</g>
<!-- Node2&#45;&gt;Node3 -->
<g id="edge2" class="edge">
<title>Node2&#45;&gt;Node3</title>
<path fill="none" stroke="midnightblue" d="M1576.57,-121.42C1545.35,-133.45 1500.09,-150.88 1472.3,-161.59"/>
<polygon fill="midnightblue" stroke="midnightblue" points="1578.1,-124.58 1586.17,-117.72 1575.58,-118.05 1578.1,-124.58"/>
</g>
<!-- Node3&#45;&gt;Node3 -->
<g id="edge25" class="edge">
<title>Node3&#45;&gt;Node3</title>
<path fill="none" stroke="midnightblue" d="M1475.25,-189.8C1474.04,-195.09 1464.46,-199.15 1446.5,-199.15 1419.13,-199.15 1411.22,-189.71 1422.76,-180.91"/>
<polygon fill="midnightblue" stroke="midnightblue" points="1478.19,-187.9 1470.24,-180.91 1472.09,-191.34 1478.19,-187.9"/>
</g>
<!-- Node4 -->
<g id="node4" class="node">
<title>Node4</title>
<g id="a_node4"><a xlink:href="classslljit_1_1_parser.html#ae387c9672ec50720d8cb969558aedbe9" target="_top" xlink:title=" ">
<polygon fill="none" stroke="black" points="1234,-156.15 1234,-186.15 1348,-186.15 1348,-156.15 1234,-156.15"/>
<text text-anchor="start" x="1242" y="-174.15" font-family="Helvetica,sans-Serif" font-size="10.00">slljit::Parser::ParseBin</text>
<text text-anchor="middle" x="1291" y="-163.15" font-family="Helvetica,sans-Serif" font-size="10.00">OpRHS</text>
</a>
</g>
</g>
<!-- Node3&#45;&gt;Node4 -->
<g id="edge3" class="edge">
<title>Node3&#45;&gt;Node4</title>
<path fill="none" stroke="midnightblue" d="M1373.86,-171.15C1365.22,-171.15 1356.48,-171.15 1348.1,-171.15"/>
<polygon fill="midnightblue" stroke="midnightblue" points="1373.95,-174.65 1383.95,-171.15 1373.95,-167.65 1373.95,-174.65"/>
</g>
<!-- Node5 -->
<g id="node5" class="node">
<title>Node5</title>
<g id="a_node5"><a xlink:href="classslljit_1_1_parser.html#a79461bf414d03dcabb49d3bbd6f89607" target="_top" xlink:title=" ">
<polygon fill="none" stroke="black" points="1049,-160.65 1049,-179.65 1198,-179.65 1198,-160.65 1049,-160.65"/>
<text text-anchor="middle" x="1123.5" y="-167.65" font-family="Helvetica,sans-Serif" font-size="10.00">slljit::Parser::ParseExpression</text>
</a>
</g>
</g>
<!-- Node3&#45;&gt;Node5 -->
<g id="edge24" class="edge">
<title>Node3&#45;&gt;Node5</title>
<path fill="none" stroke="midnightblue" d="M1419.97,-185.57C1400.83,-195.52 1373.63,-207.86 1348,-213.15 1298.38,-223.38 1283.78,-222.57 1234,-213.15 1200.49,-206.81 1164.1,-190.44 1142.85,-179.83"/>
<polygon fill="midnightblue" stroke="midnightblue" points="1421.76,-188.58 1428.93,-180.78 1418.46,-182.41 1421.76,-188.58"/>
</g>
<!-- Node4&#45;&gt;Node4 -->
<g id="edge4" class="edge">
<title>Node4&#45;&gt;Node4</title>
<path fill="none" stroke="midnightblue" d="M1318.36,-196.61C1314.97,-201.33 1305.85,-204.65 1291,-204.65 1266.64,-204.65 1257.69,-195.71 1264.16,-186.31"/>
<polygon fill="midnightblue" stroke="midnightblue" points="1321.84,-196.12 1317.84,-186.31 1314.85,-196.47 1321.84,-196.12"/>
</g>
<!-- Node4&#45;&gt;Node5 -->
<g id="edge5" class="edge">
<title>Node4&#45;&gt;Node5</title>
<path fill="none" stroke="midnightblue" d="M1223.8,-170.75C1215.34,-170.7 1206.64,-170.65 1198.08,-170.59"/>
<polygon fill="midnightblue" stroke="midnightblue" points="1223.95,-174.25 1233.97,-170.81 1223.99,-167.25 1223.95,-174.25"/>
</g>
<!-- Node5&#45;&gt;Node1 -->
<g id="edge19" class="edge">
<title>Node5&#45;&gt;Node1</title>
<path fill="none" stroke="midnightblue" d="M1145.72,-185.68C1166.91,-200.26 1200.98,-221.26 1234,-231.15 1402.28,-281.54 1612.41,-279.82 1714.74,-275.11"/>
<polygon fill="midnightblue" stroke="midnightblue" points="1147.67,-182.77 1137.47,-179.88 1143.64,-188.5 1147.67,-182.77"/>
</g>
<!-- Node6 -->
<g id="node6" class="node">
<title>Node6</title>
<g id="a_node6"><a xlink:href="classslljit_1_1_parser.html#acc431005ac3dd38732083d7a1bb0eab2" target="_top" xlink:title=" ">
<polygon fill="none" stroke="black" points="849,-201.65 849,-220.65 1013,-220.65 1013,-201.65 849,-201.65"/>
<text text-anchor="middle" x="931" y="-208.65" font-family="Helvetica,sans-Serif" font-size="10.00">slljit::Parser::ParseExpressionList</text>
</a>
</g>
</g>
<!-- Node5&#45;&gt;Node6 -->
<g id="edge6" class="edge">
<title>Node5&#45;&gt;Node6</title>
<path fill="none" stroke="midnightblue" d="M1068.3,-181.81C1039.18,-188.08 1003.72,-195.71 976.27,-201.62"/>
<polygon fill="midnightblue" stroke="midnightblue" points="1069.28,-185.18 1078.32,-179.66 1067.8,-178.34 1069.28,-185.18"/>
</g>
<!-- Node7 -->
<g id="node7" class="node">
<title>Node7</title>
<g id="a_node7"><a xlink:href="classslljit_1_1_parser.html#a81023e7a6221eb6b92027bd21433c9dd" target="_top" xlink:title="forexpr ::= &#39;for&#39; identifier &#39;=&#39; expr &#39;,&#39; expr (&#39;,&#39; expr)? &#39;in&#39; expression">
<polygon fill="none" stroke="black" points="679,-158.65 679,-177.65 813,-177.65 813,-158.65 679,-158.65"/>
<text text-anchor="middle" x="746" y="-165.65" font-family="Helvetica,sans-Serif" font-size="10.00">slljit::Parser::ParseForExpr</text>
</a>
</g>
</g>
<!-- Node5&#45;&gt;Node7 -->
<g id="edge16" class="edge">
<title>Node5&#45;&gt;Node7</title>
<path fill="none" stroke="midnightblue" d="M1038.49,-169.7C970.4,-169.34 875.77,-168.84 813.03,-168.5"/>
<polygon fill="midnightblue" stroke="midnightblue" points="1038.74,-173.2 1048.76,-169.76 1038.78,-166.2 1038.74,-173.2"/>
</g>
<!-- Node14 -->
<g id="node14" class="node">
<title>Node14</title>
<g id="a_node14"><a xlink:href="classslljit_1_1_parser.html#a25cfefcbeea85744e23370d3a6f8ad5b" target="_top" xlink:title=" ">
<polygon fill="none" stroke="black" points="853,-41.65 853,-60.65 1009,-60.65 1009,-41.65 853,-41.65"/>
<text text-anchor="middle" x="931" y="-48.65" font-family="Helvetica,sans-Serif" font-size="10.00">slljit::Parser::ParseIdentifierExpr</text>
</a>
</g>
</g>
<!-- Node5&#45;&gt;Node14 -->
<g id="edge17" class="edge">
<title>Node5&#45;&gt;Node14</title>
<path fill="none" stroke="midnightblue" d="M1107.64,-152.77C1088.09,-131 1051.67,-94.03 1013,-73.15 1003.26,-67.89 992.16,-63.81 981.37,-60.68"/>
<polygon fill="midnightblue" stroke="midnightblue" points="1105.26,-155.36 1114.49,-160.56 1110.51,-150.74 1105.26,-155.36"/>
</g>
<!-- Node15 -->
<g id="node15" class="node">
<title>Node15</title>
<g id="a_node15"><a xlink:href="classslljit_1_1_parser.html#a6e2e0f6a2cc445f3a956db59c8d2da66" target="_top" xlink:title="parenexpr ::= &#39;(&#39; expression &#39;)&#39;">
<polygon fill="none" stroke="black" points="858,-121.65 858,-140.65 1004,-140.65 1004,-121.65 858,-121.65"/>
<text text-anchor="middle" x="931" y="-128.65" font-family="Helvetica,sans-Serif" font-size="10.00">slljit::Parser::ParseParenExpr</text>
</a>
</g>
</g>
<!-- Node5&#45;&gt;Node15 -->
<g id="edge20" class="edge">
<title>Node5&#45;&gt;Node15</title>
<path fill="none" stroke="midnightblue" d="M1065.89,-158.56C1038.01,-152.85 1004.81,-146.06 978.45,-140.66"/>
<polygon fill="midnightblue" stroke="midnightblue" points="1065.4,-162.03 1075.9,-160.61 1066.8,-155.17 1065.4,-162.03"/>
</g>
<!-- Node16 -->
<g id="node16" class="node">
<title>Node16</title>
<g id="a_node16"><a xlink:href="classslljit_1_1_parser.html#a435877d3f2869d140a7cca646546a114" target="_top" xlink:title="varexpr ::= &#39;g_var&#39; identifier (&#39;=&#39; expression)?">
<polygon fill="none" stroke="black" points="863.5,-82.65 863.5,-101.65 998.5,-101.65 998.5,-82.65 863.5,-82.65"/>
<text text-anchor="middle" x="931" y="-89.65" font-family="Helvetica,sans-Serif" font-size="10.00">slljit::Parser::ParseVarExpr</text>
</a>
</g>
</g>
<!-- Node5&#45;&gt;Node16 -->
<g id="edge22" class="edge">
<title>Node5&#45;&gt;Node16</title>
<path fill="none" stroke="midnightblue" d="M1098.28,-155.1C1076.62,-142.18 1043.64,-123.84 1013,-112.15 1002.17,-108.02 990.2,-104.51 978.86,-101.65"/>
<polygon fill="midnightblue" stroke="midnightblue" points="1096.75,-158.26 1107.11,-160.44 1100.37,-152.27 1096.75,-158.26"/>
</g>
<!-- Node6&#45;&gt;Node1 -->
<g id="edge9" class="edge">
<title>Node6&#45;&gt;Node1</title>
<path fill="none" stroke="midnightblue" d="M961.32,-224.94C1021.51,-251.93 1163.95,-309.15 1290,-309.15 1447.5,-309.15 1447.5,-309.15 1447.5,-309.15 1550.7,-309.15 1576.81,-305.55 1679,-291.15 1697.82,-288.5 1718.47,-284.43 1735.9,-280.66"/>
<polygon fill="midnightblue" stroke="midnightblue" points="962.61,-221.67 952.05,-220.72 959.71,-228.05 962.61,-221.67"/>
</g>
<!-- Node6&#45;&gt;Node7 -->
<g id="edge7" class="edge">
<title>Node6&#45;&gt;Node7</title>
<path fill="none" stroke="midnightblue" d="M879.45,-199.27C850.48,-192.46 814.6,-184.03 787.5,-177.67"/>
<polygon fill="midnightblue" stroke="midnightblue" points="878.85,-202.73 889.39,-201.61 880.45,-195.91 878.85,-202.73"/>
</g>
<!-- Node8 -->
<g id="node8" class="node">
<title>Node8</title>
<g id="a_node8"><a xlink:href="classslljit_1_1_parser.html#aa9a9ce164e114ad7f347f32329f5a5a2" target="_top" xlink:title="definition ::= &#39;def&#39; prototype expression">
<polygon fill="none" stroke="black" points="688,-197.15 688,-227.15 804,-227.15 804,-197.15 688,-197.15"/>
<text text-anchor="start" x="696" y="-215.15" font-family="Helvetica,sans-Serif" font-size="10.00">slljit::Parser::ParseTop</text>
<text text-anchor="middle" x="746" y="-204.15" font-family="Helvetica,sans-Serif" font-size="10.00">LevelTypedExpression</text>
</a>
</g>
</g>
<!-- Node6&#45;&gt;Node8 -->
<g id="edge10" class="edge">
<title>Node6&#45;&gt;Node8</title>
<path fill="none" stroke="midnightblue" d="M838.63,-211.65C826.88,-211.71 815.12,-211.78 804.14,-211.84"/>
<polygon fill="midnightblue" stroke="midnightblue" points="838.95,-215.15 848.93,-211.59 838.92,-208.15 838.95,-215.15"/>
</g>
<!-- Node7&#45;&gt;Node2 -->
<g id="edge8" class="edge">
<title>Node7&#45;&gt;Node2</title>
<path fill="none" stroke="midnightblue" d="M754.9,-149.08C768.79,-118.28 800.79,-58.38 849,-32.15 956.03,26.09 1000.65,-13.15 1122.5,-13.15 1292,-13.15 1292,-13.15 1292,-13.15 1410.75,-13.15 1544.41,-74.37 1592.52,-98.52"/>
<polygon fill="midnightblue" stroke="midnightblue" points="751.66,-147.75 750.88,-158.32 758.08,-150.54 751.66,-147.75"/>
</g>
<!-- Node9 -->
<g id="node9" class="node">
<title>Node9</title>
<g id="a_node9"><a xlink:href="classslljit_1_1_parser.html#af0cac4623fc05b8b7ae9884b0aeb3d3f" target="_top" xlink:title=" ">
<polygon fill="none" stroke="black" points="512,-197.15 512,-227.15 643,-227.15 643,-197.15 512,-197.15"/>
<text text-anchor="start" x="520" y="-215.15" font-family="Helvetica,sans-Serif" font-size="10.00">slljit::Parser::HandleTyped</text>
<text text-anchor="middle" x="577.5" y="-204.15" font-family="Helvetica,sans-Serif" font-size="10.00">Expression</text>
</a>
</g>
</g>
<!-- Node8&#45;&gt;Node9 -->
<g id="edge11" class="edge">
<title>Node8&#45;&gt;Node9</title>
<path fill="none" stroke="midnightblue" d="M677.42,-212.15C666.07,-212.15 654.32,-212.15 643.05,-212.15"/>
<polygon fill="midnightblue" stroke="midnightblue" points="677.7,-215.65 687.7,-212.15 677.7,-208.65 677.7,-215.65"/>
</g>
<!-- Node10 -->
<g id="node10" class="node">
<title>Node10</title>
<g id="a_node10"><a xlink:href="classslljit_1_1_parser.html#ae2d3d6534b87da7f237c19129a464bda" target="_top" xlink:title="top ::= definition | external | expression | &#39;;&#39;">
<polygon fill="none" stroke="black" points="360,-202.65 360,-221.65 476,-221.65 476,-202.65 360,-202.65"/>
<text text-anchor="middle" x="418" y="-209.65" font-family="Helvetica,sans-Serif" font-size="10.00">slljit::Parser::MainLoop</text>
</a>
</g>
</g>
<!-- Node9&#45;&gt;Node10 -->
<g id="edge12" class="edge">
<title>Node9&#45;&gt;Node10</title>
<path fill="none" stroke="midnightblue" d="M501.87,-212.15C493.2,-212.15 484.47,-212.15 476.09,-212.15"/>
<polygon fill="midnightblue" stroke="midnightblue" points="501.98,-215.65 511.98,-212.15 501.98,-208.65 501.98,-215.65"/>
</g>
<!-- Node11 -->
<g id="node11" class="node">
<title>Node11</title>
<g id="a_node11"><a xlink:href="classslljit_1_1_parser.html#a2429935f3c870648f9f895a7b2361cfb" target="_top" xlink:title=" ">
<polygon fill="none" stroke="black" points="226,-202.65 226,-221.65 324,-221.65 324,-202.65 226,-202.65"/>
<text text-anchor="middle" x="275" y="-209.65" font-family="Helvetica,sans-Serif" font-size="10.00">slljit::Parser::parse</text>
</a>
</g>
</g>
<!-- Node10&#45;&gt;Node11 -->
<g id="edge13" class="edge">
<title>Node10&#45;&gt;Node11</title>
<path fill="none" stroke="midnightblue" d="M349.37,-212.15C340.9,-212.15 332.37,-212.15 324.28,-212.15"/>
<polygon fill="midnightblue" stroke="midnightblue" points="349.65,-215.65 359.65,-212.15 349.65,-208.65 349.65,-215.65"/>
</g>
<!-- Node12 -->
<g id="node12" class="node">
<title>Node12</title>
<g id="a_node12"><a xlink:href="classslljit_1_1_program.html#ae4d26526a7dd9c69ebe92fb43736696b" target="_top" xlink:title=" ">
<polygon fill="none" stroke="black" points="74,-202.65 74,-221.65 190,-221.65 190,-202.65 74,-202.65"/>
<text text-anchor="middle" x="132" y="-209.65" font-family="Helvetica,sans-Serif" font-size="10.00">slljit::Program::compile</text>
</a>
</g>
</g>
<!-- Node11&#45;&gt;Node12 -->
<g id="edge14" class="edge">
<title>Node11&#45;&gt;Node12</title>
<path fill="none" stroke="midnightblue" d="M215.72,-212.15C207.27,-212.15 198.58,-212.15 190.16,-212.15"/>
<polygon fill="midnightblue" stroke="midnightblue" points="215.87,-215.65 225.87,-212.15 215.87,-208.65 215.87,-215.65"/>
</g>
<!-- Node13 -->
<g id="node13" class="node">
<title>Node13</title>
<g id="a_node13"><a xlink:href="compiler__cli_8cpp.html#a3c04138a5bfe5d72780bb7e82a18e627" target="_top" xlink:title=" ">
<polygon fill="none" stroke="black" points="0,-202.65 0,-221.65 38,-221.65 38,-202.65 0,-202.65"/>
<text text-anchor="middle" x="19" y="-209.65" font-family="Helvetica,sans-Serif" font-size="10.00">main</text>
</a>
</g>
</g>
<!-- Node12&#45;&gt;Node13 -->
<g id="edge15" class="edge">
<title>Node12&#45;&gt;Node13</title>
<path fill="none" stroke="midnightblue" d="M63.62,-212.15C54.3,-212.15 45.44,-212.15 38.18,-212.15"/>
<polygon fill="midnightblue" stroke="midnightblue" points="63.87,-215.65 73.87,-212.15 63.87,-208.65 63.87,-215.65"/>
</g>
<!-- Node14&#45;&gt;Node2 -->
<g id="edge18" class="edge">
<title>Node14&#45;&gt;Node2</title>
<path fill="none" stroke="midnightblue" d="M1018.99,-58.25C1131.94,-67.5 1335.22,-84.25 1509,-99.15 1520.6,-100.14 1532.94,-101.22 1544.89,-102.27"/>
<polygon fill="midnightblue" stroke="midnightblue" points="1019.26,-54.76 1009.01,-57.43 1018.69,-61.74 1019.26,-54.76"/>
</g>
<!-- Node15&#45;&gt;Node2 -->
<g id="edge21" class="edge">
<title>Node15&#45;&gt;Node2</title>
<path fill="none" stroke="midnightblue" d="M1014.64,-129.03C1126.68,-126.06 1332.99,-120.21 1509,-113.15 1520.6,-112.68 1532.95,-112.13 1544.89,-111.56"/>
<polygon fill="midnightblue" stroke="midnightblue" points="1014.33,-125.54 1004.43,-129.3 1014.52,-132.54 1014.33,-125.54"/>
</g>
<!-- Node16&#45;&gt;Node2 -->
<g id="edge23" class="edge">
<title>Node16&#45;&gt;Node2</title>
<path fill="none" stroke="midnightblue" d="M1008.9,-93.96C1143.3,-97.13 1418.62,-103.62 1544.97,-106.59"/>
<polygon fill="midnightblue" stroke="midnightblue" points="1008.77,-90.46 998.69,-93.72 1008.6,-97.46 1008.77,-90.46"/>
</g>
</g>
</svg>
