<?xml version="1.0" encoding="UTF-8" standalone="no"?>
<!DOCTYPE svg PUBLIC "-//W3C//DTD SVG 1.1//EN"
 "http://www.w3.org/Graphics/SVG/1.1/DTD/svg11.dtd">
<!-- Generated by graphviz version 3.0.0 (20220226.1711)
 -->
<!-- Title: slljit::ExprAST Pages: 1 -->
<svg width="237pt" height="446pt"
 viewBox="0.00 0.00 237.00 446.00" xmlns="http://www.w3.org/2000/svg" xmlns:xlink="http://www.w3.org/1999/xlink">
<g id="graph0" class="graph" transform="scale(1 1) rotate(0) translate(4 442)">
<title>slljit::ExprAST</title>
<!-- Node1 -->
<g id="node1" class="node">
<title>Node1</title>
<g id="a_node1"><a xlink:title="Base class for all expression nodes.">
<polygon fill="#bfbfbf" stroke="black" points="0,-209.5 0,-228.5 79,-228.5 79,-209.5 0,-209.5"/>
<text text-anchor="middle" x="39.5" y="-216.5" font-family="Helvetica,sans-Serif" font-size="10.00">slljit::ExprAST</text>
</a>
</g>
</g>
<!-- Node2 -->
<g id="node2" class="node">
<title>Node2</title>
<g id="a_node2"><a xlink:href="classslljit_1_1_binary_expr_a_s_t.html" target="_top" xlink:title="Expression class for a binary operator.">
<polygon fill="none" stroke="black" points="118.5,-418.5 118.5,-437.5 225.5,-437.5 225.5,-418.5 118.5,-418.5"/>
<text text-anchor="middle" x="172" y="-425.5" font-family="Helvetica,sans-Serif" font-size="10.00">slljit::BinaryExprAST</text>
</a>
</g>
</g>
<!-- Node1&#45;&gt;Node2 -->
<g id="edge1" class="edge">
<title>Node1&#45;&gt;Node2</title>
<path fill="none" stroke="midnightblue" d="M42.82,-239.26C48.3,-277.74 65.53,-361.78 115,-409 119.08,-412.9 124,-416 129.2,-418.46"/>
<polygon fill="midnightblue" stroke="midnightblue" points="46.23,-238.34 41.48,-228.87 39.29,-239.24 46.23,-238.34"/>
</g>
<!-- Node3 -->
<g id="node3" class="node">
<title>Node3</title>
<g id="a_node3"><a xlink:href="classslljit_1_1_call_expr_a_s_t.html" target="_top" xlink:title="Expression class for function calls.">
<polygon fill="none" stroke="black" points="124.5,-380.5 124.5,-399.5 219.5,-399.5 219.5,-380.5 124.5,-380.5"/>
<text text-anchor="middle" x="172" y="-387.5" font-family="Helvetica,sans-Serif" font-size="10.00">slljit::CallExprAST</text>
</a>
</g>
</g>
<!-- Node1&#45;&gt;Node3 -->
<g id="edge2" class="edge">
<title>Node1&#45;&gt;Node3</title>
<path fill="none" stroke="midnightblue" d="M44.95,-238.75C53.21,-270.98 73.93,-334.9 115,-371 119.4,-374.86 124.61,-377.95 130.06,-380.41"/>
<polygon fill="midnightblue" stroke="midnightblue" points="48.29,-237.67 42.53,-228.77 41.48,-239.31 48.29,-237.67"/>
</g>
<!-- Node4 -->
<g id="node4" class="node">
<title>Node4</title>
<g id="a_node4"><a xlink:href="classslljit_1_1_for_expr_a_s_t.html" target="_top" xlink:title="Expression class for for/in.">
<polygon fill="none" stroke="black" points="125.5,-342.5 125.5,-361.5 218.5,-361.5 218.5,-342.5 125.5,-342.5"/>
<text text-anchor="middle" x="172" y="-349.5" font-family="Helvetica,sans-Serif" font-size="10.00">slljit::ForExprAST</text>
</a>
</g>
</g>
<!-- Node1&#45;&gt;Node4 -->
<g id="edge3" class="edge">
<title>Node1&#45;&gt;Node4</title>
<path fill="none" stroke="midnightblue" d="M48.19,-238.06C59.29,-263.29 82.16,-307.53 115,-333 119.95,-336.84 125.72,-339.92 131.64,-342.4"/>
<polygon fill="midnightblue" stroke="midnightblue" points="51.39,-236.66 44.27,-228.82 44.95,-239.39 51.39,-236.66"/>
</g>
<!-- Node5 -->
<g id="node5" class="node">
<title>Node5</title>
<g id="a_node5"><a xlink:href="classslljit_1_1_function_a_s_t.html" target="_top" xlink:title="This class represents a function definition itself.">
<polygon fill="none" stroke="black" points="124,-304.5 124,-323.5 220,-323.5 220,-304.5 124,-304.5"/>
<text text-anchor="middle" x="172" y="-311.5" font-family="Helvetica,sans-Serif" font-size="10.00">slljit::FunctionAST</text>
</a>
</g>
</g>
<!-- Node1&#45;&gt;Node5 -->
<g id="edge4" class="edge">
<title>Node1&#45;&gt;Node5</title>
<path fill="none" stroke="midnightblue" d="M53.71,-236.65C67.34,-253.76 90.09,-279.34 115,-295 121,-298.77 127.83,-301.89 134.61,-304.43"/>
<polygon fill="midnightblue" stroke="midnightblue" points="56.34,-234.33 47.44,-228.58 50.81,-238.63 56.34,-234.33"/>
</g>
<!-- Node6 -->
<g id="node6" class="node">
<title>Node6</title>
<g id="a_node6"><a xlink:href="classslljit_1_1_if_expr_a_s_t.html" target="_top" xlink:title="Expression class for if/else.">
<polygon fill="none" stroke="black" points="130.5,-266.5 130.5,-285.5 213.5,-285.5 213.5,-266.5 130.5,-266.5"/>
<text text-anchor="middle" x="172" y="-273.5" font-family="Helvetica,sans-Serif" font-size="10.00">slljit::IfExprAST</text>
</a>
</g>
</g>
<!-- Node1&#45;&gt;Node6 -->
<g id="edge5" class="edge">
<title>Node1&#45;&gt;Node6</title>
<path fill="none" stroke="midnightblue" d="M66.72,-233.55C80.8,-241.06 98.59,-250.07 115,-257 123.04,-260.39 131.91,-263.63 140.18,-266.44"/>
<polygon fill="midnightblue" stroke="midnightblue" points="68.09,-230.31 57.62,-228.63 64.76,-236.47 68.09,-230.31"/>
</g>
<!-- Node7 -->
<g id="node7" class="node">
<title>Node7</title>
<g id="a_node7"><a xlink:href="classslljit_1_1_no_op_a_s_t.html" target="_top" xlink:title="Expression class to represent NoOp.">
<polygon fill="none" stroke="black" points="130.5,-228.5 130.5,-247.5 213.5,-247.5 213.5,-228.5 130.5,-228.5"/>
<text text-anchor="middle" x="172" y="-235.5" font-family="Helvetica,sans-Serif" font-size="10.00">slljit::NoOpAST</text>
</a>
</g>
</g>
<!-- Node1&#45;&gt;Node7 -->
<g id="edge6" class="edge">
<title>Node1&#45;&gt;Node7</title>
<path fill="none" stroke="midnightblue" d="M89.38,-226.12C102.86,-228.08 117.34,-230.19 130.31,-232.08"/>
<polygon fill="midnightblue" stroke="midnightblue" points="89.7,-222.63 79.3,-224.65 88.69,-229.55 89.7,-222.63"/>
</g>
<!-- Node8 -->
<g id="node8" class="node">
<title>Node8</title>
<g id="a_node8"><a xlink:href="classslljit_1_1_number_expr_a_s_t.html" target="_top" xlink:title="Expression class for numeric literals like &quot;1.0&quot;.">
<polygon fill="none" stroke="black" points="115.5,-190.5 115.5,-209.5 228.5,-209.5 228.5,-190.5 115.5,-190.5"/>
<text text-anchor="middle" x="172" y="-197.5" font-family="Helvetica,sans-Serif" font-size="10.00">slljit::NumberExprAST</text>
</a>
</g>
</g>
<!-- Node1&#45;&gt;Node8 -->
<g id="edge7" class="edge">
<title>Node1&#45;&gt;Node8</title>
<path fill="none" stroke="midnightblue" d="M89.35,-211.89C97.78,-210.66 106.6,-209.38 115.2,-208.12"/>
<polygon fill="midnightblue" stroke="midnightblue" points="88.69,-208.45 79.3,-213.35 89.7,-215.37 88.69,-208.45"/>
</g>
<!-- Node9 -->
<g id="node9" class="node">
<title>Node9</title>
<g id="a_node9"><a xlink:href="classslljit_1_1_prototype_a_s_t.html" target="_top" xlink:title="Expression class for function prototypes.">
<polygon fill="none" stroke="black" points="121.5,-152.5 121.5,-171.5 222.5,-171.5 222.5,-152.5 121.5,-152.5"/>
<text text-anchor="middle" x="172" y="-159.5" font-family="Helvetica,sans-Serif" font-size="10.00">slljit::PrototypeAST</text>
</a>
</g>
</g>
<!-- Node1&#45;&gt;Node9 -->
<g id="edge8" class="edge">
<title>Node1&#45;&gt;Node9</title>
<path fill="none" stroke="midnightblue" d="M66.72,-204.45C80.8,-196.94 98.59,-187.93 115,-181 123.04,-177.61 131.91,-174.37 140.18,-171.56"/>
<polygon fill="midnightblue" stroke="midnightblue" points="64.76,-201.53 57.62,-209.37 68.09,-207.69 64.76,-201.53"/>
</g>
<!-- Node10 -->
<g id="node10" class="node">
<title>Node10</title>
<g id="a_node10"><a xlink:href="classslljit_1_1_return_expr_a_s_t.html" target="_top" xlink:title="Expression class for a unary operator.">
<polygon fill="none" stroke="black" points="118.5,-114.5 118.5,-133.5 225.5,-133.5 225.5,-114.5 118.5,-114.5"/>
<text text-anchor="middle" x="172" y="-121.5" font-family="Helvetica,sans-Serif" font-size="10.00">slljit::ReturnExprAST</text>
</a>
</g>
</g>
<!-- Node1&#45;&gt;Node10 -->
<g id="edge9" class="edge">
<title>Node1&#45;&gt;Node10</title>
<path fill="none" stroke="midnightblue" d="M53.71,-201.35C67.34,-184.24 90.09,-158.66 115,-143 121,-139.23 127.83,-136.11 134.61,-133.57"/>
<polygon fill="midnightblue" stroke="midnightblue" points="50.81,-199.37 47.44,-209.42 56.34,-203.67 50.81,-199.37"/>
</g>
<!-- Node11 -->
<g id="node11" class="node">
<title>Node11</title>
<g id="a_node11"><a xlink:href="classslljit_1_1_unary_expr_a_s_t.html" target="_top" xlink:title="Expression class for a unary operator.">
<polygon fill="none" stroke="black" points="120,-76.5 120,-95.5 224,-95.5 224,-76.5 120,-76.5"/>
<text text-anchor="middle" x="172" y="-83.5" font-family="Helvetica,sans-Serif" font-size="10.00">slljit::UnaryExprAST</text>
</a>
</g>
</g>
<!-- Node1&#45;&gt;Node11 -->
<g id="edge10" class="edge">
<title>Node1&#45;&gt;Node11</title>
<path fill="none" stroke="midnightblue" d="M48.19,-199.94C59.29,-174.71 82.16,-130.47 115,-105 119.95,-101.16 125.72,-98.08 131.64,-95.6"/>
<polygon fill="midnightblue" stroke="midnightblue" points="44.95,-198.61 44.27,-209.18 51.39,-201.34 44.95,-198.61"/>
</g>
<!-- Node12 -->
<g id="node12" class="node">
<title>Node12</title>
<g id="a_node12"><a xlink:href="classslljit_1_1_var_expr_a_s_t.html" target="_top" xlink:title="Expression class for g_var/in.">
<polygon fill="none" stroke="black" points="125,-38.5 125,-57.5 219,-57.5 219,-38.5 125,-38.5"/>
<text text-anchor="middle" x="172" y="-45.5" font-family="Helvetica,sans-Serif" font-size="10.00">slljit::VarExprAST</text>
</a>
</g>
</g>
<!-- Node1&#45;&gt;Node12 -->
<g id="edge11" class="edge">
<title>Node1&#45;&gt;Node12</title>
<path fill="none" stroke="midnightblue" d="M44.95,-199.25C53.21,-167.02 73.93,-103.1 115,-67 119.4,-63.14 124.61,-60.05 130.06,-57.59"/>
<polygon fill="midnightblue" stroke="midnightblue" points="41.48,-198.69 42.53,-209.23 48.29,-200.33 41.48,-198.69"/>
</g>
<!-- Node13 -->
<g id="node13" class="node">
<title>Node13</title>
<g id="a_node13"><a xlink:href="classslljit_1_1_variable_expr_a_s_t.html" target="_top" xlink:title="Expression class for referencing a variable, like &quot;a&quot;.">
<polygon fill="none" stroke="black" points="115,-0.5 115,-19.5 229,-19.5 229,-0.5 115,-0.5"/>
<text text-anchor="middle" x="172" y="-7.5" font-family="Helvetica,sans-Serif" font-size="10.00">slljit::VariableExprAST</text>
</a>
</g>
</g>
<!-- Node1&#45;&gt;Node13 -->
<g id="edge12" class="edge">
<title>Node1&#45;&gt;Node13</title>
<path fill="none" stroke="midnightblue" d="M42.82,-198.74C48.3,-160.26 65.53,-76.22 115,-29 119.08,-25.1 124,-22 129.2,-19.54"/>
<polygon fill="midnightblue" stroke="midnightblue" points="39.29,-198.76 41.48,-209.13 46.23,-199.66 39.29,-198.76"/>
</g>
</g>
</svg>
