<?xml version="1.0" encoding="UTF-8" standalone="no"?>
<!DOCTYPE svg PUBLIC "-//W3C//DTD SVG 1.1//EN"
 "http://www.w3.org/Graphics/SVG/1.1/DTD/svg11.dtd">
<!-- Generated by graphviz version 3.0.0 (20220226.1711)
 -->
<!-- Title: slljit::IfExprAST Pages: 1 -->
<svg width="315pt" height="184pt"
 viewBox="0.00 0.00 315.00 184.00" xmlns="http://www.w3.org/2000/svg" xmlns:xlink="http://www.w3.org/1999/xlink">
<g id="graph0" class="graph" transform="scale(1 1) rotate(0) translate(4 180)">
<title>slljit::IfExprAST</title>
<!-- Node1 -->
<g id="node1" class="node">
<title>Node1</title>
<g id="a_node1"><a xlink:title="Expression class for if/else.">
<polygon fill="#bfbfbf" stroke="black" points="100,-0.5 100,-19.5 183,-19.5 183,-0.5 100,-0.5"/>
<text text-anchor="middle" x="141.5" y="-7.5" font-family="Helvetica,sans-Serif" font-size="10.00">slljit::IfExprAST</text>
</a>
</g>
</g>
<!-- Node2 -->
<g id="node2" class="node">
<title>Node2</title>
<g id="a_node2"><a xlink:href="classslljit_1_1_expr_a_s_t.html" target="_top" xlink:title="Base class for all expression nodes.">
<polygon fill="none" stroke="black" points="0,-84 0,-103 79,-103 79,-84 0,-84"/>
<text text-anchor="middle" x="39.5" y="-91" font-family="Helvetica,sans-Serif" font-size="10.00">slljit::ExprAST</text>
</a>
</g>
</g>
<!-- Node2&#45;&gt;Node1 -->
<g id="edge1" class="edge">
<title>Node2&#45;&gt;Node1</title>
<path fill="none" stroke="midnightblue" d="M58.41,-77.39C79.67,-60.4 113.46,-33.41 130.66,-19.66"/>
<polygon fill="midnightblue" stroke="midnightblue" points="56.04,-74.8 50.42,-83.78 60.41,-80.27 56.04,-74.8"/>
</g>
<!-- Node3 -->
<g id="node3" class="node">
<title>Node3</title>
<g id="a_node3"><a xlink:title=" ">
<polygon fill="none" stroke="black" points="16,-156.5 16,-175.5 63,-175.5 63,-156.5 16,-156.5"/>
<text text-anchor="middle" x="39.5" y="-163.5" font-family="Helvetica,sans-Serif" font-size="10.00">TypeID</text>
</a>
</g>
</g>
<!-- Node3&#45;&gt;Node2 -->
<g id="edge2" class="edge">
<title>Node3&#45;&gt;Node2</title>
<path fill="none" stroke="#9a32cd" stroke-dasharray="5,2" d="M39.5,-145.94C39.5,-132.03 39.5,-113.82 39.5,-103.22"/>
<polygon fill="#9a32cd" stroke="#9a32cd" points="36,-146.36 39.5,-156.36 43,-146.36 36,-146.36"/>
<text text-anchor="middle" x="53.5" y="-130" font-family="Helvetica,sans-Serif" font-size="10.00"> type_</text>
</g>
<!-- Node4 -->
<g id="node4" class="node">
<title>Node4</title>
<g id="a_node4"><a xlink:title=" ">
<polygon fill="none" stroke="black" points="97.5,-78.5 97.5,-108.5 185.5,-108.5 185.5,-78.5 97.5,-78.5"/>
<text text-anchor="start" x="105.5" y="-96.5" font-family="Helvetica,sans-Serif" font-size="10.00">unique_ptr&lt; slljit</text>
<text text-anchor="middle" x="141.5" y="-85.5" font-family="Helvetica,sans-Serif" font-size="10.00">::ExprAST &gt;</text>
</a>
</g>
</g>
<!-- Node4&#45;&gt;Node1 -->
<g id="edge3" class="edge">
<title>Node4&#45;&gt;Node1</title>
<path fill="none" stroke="#9a32cd" stroke-dasharray="5,2" d="M141.5,-68.25C141.5,-51.78 141.5,-30.99 141.5,-19.54"/>
<polygon fill="#9a32cd" stroke="#9a32cd" points="138,-68.3 141.5,-78.3 145,-68.3 138,-68.3"/>
<text text-anchor="middle" x="154.5" y="-46.5" font-family="Helvetica,sans-Serif" font-size="10.00"> Cond</text>
</g>
<!-- Node5 -->
<g id="node5" class="node">
<title>Node5</title>
<g id="a_node5"><a xlink:title=" ">
<polygon fill="none" stroke="black" points="204,-78.5 204,-108.5 307,-108.5 307,-78.5 204,-78.5"/>
<text text-anchor="start" x="212" y="-96.5" font-family="Helvetica,sans-Serif" font-size="10.00">list&lt; std::unique_ptr</text>
<text text-anchor="middle" x="255.5" y="-85.5" font-family="Helvetica,sans-Serif" font-size="10.00">&lt; ExprAST &gt; &gt;</text>
</a>
</g>
</g>
<!-- Node5&#45;&gt;Node1 -->
<g id="edge4" class="edge">
<title>Node5&#45;&gt;Node1</title>
<path fill="none" stroke="#9a32cd" stroke-dasharray="5,2" d="M227.62,-72.57C203.9,-55.61 170.97,-32.07 153.5,-19.58"/>
<polygon fill="#9a32cd" stroke="#9a32cd" points="225.73,-75.52 235.9,-78.49 229.8,-69.83 225.73,-75.52"/>
<text text-anchor="middle" x="220" y="-52" font-family="Helvetica,sans-Serif" font-size="10.00"> Else</text>
<text text-anchor="middle" x="220" y="-41" font-family="Helvetica,sans-Serif" font-size="10.00">Then</text>
</g>
</g>
</svg>
