<?xml version="1.0" encoding="UTF-8" standalone="no"?>
<!DOCTYPE svg PUBLIC "-//W3C//DTD SVG 1.1//EN"
 "http://www.w3.org/Graphics/SVG/1.1/DTD/svg11.dtd">
<!-- Generated by graphviz version 3.0.0 (20220226.1711)
 -->
<!-- Title: slljit::Parser::ParseIdentifierExpr Pages: 1 -->
<svg width="1701pt" height="901pt"
 viewBox="0.00 0.00 1701.00 901.12" xmlns="http://www.w3.org/2000/svg" xmlns:xlink="http://www.w3.org/1999/xlink">
<g id="graph0" class="graph" transform="scale(1 1) rotate(0) translate(4 897.12)">
<title>slljit::Parser::ParseIdentifierExpr</title>
<!-- Node1 -->
<g id="node1" class="node">
<title>Node1</title>
<g id="a_node1"><a xlink:title=" ">
<polygon fill="#bfbfbf" stroke="black" points="0,-529 0,-548 156,-548 156,-529 0,-529"/>
<text text-anchor="middle" x="78" y="-536" font-family="Helvetica,sans-Serif" font-size="10.00">slljit::Parser::ParseIdentifierExpr</text>
</a>
</g>
</g>
<!-- Node2 -->
<g id="node2" class="node">
<title>Node2</title>
<g id="a_node2"><a xlink:href="classslljit_1_1_parser.html#a4c93eea2333b7705c6aea18df2105196" target="_top" xlink:title=" ">
<polygon fill="none" stroke="black" points="389.5,-795.5 389.5,-825.5 478.5,-825.5 478.5,-795.5 389.5,-795.5"/>
<text text-anchor="start" x="397.5" y="-813.5" font-family="Helvetica,sans-Serif" font-size="10.00">slljit::Parser::find</text>
<text text-anchor="middle" x="434" y="-802.5" font-family="Helvetica,sans-Serif" font-size="10.00">_var_in_scope</text>
</a>
</g>
</g>
<!-- Node1&#45;&gt;Node2 -->
<g id="edge1" class="edge">
<title>Node1&#45;&gt;Node2</title>
<path fill="none" stroke="midnightblue" d="M81.83,-548.35C91.53,-580.27 126.46,-681.87 192,-734.5 246.52,-778.28 326.56,-797.01 379.22,-804.9"/>
<polygon fill="midnightblue" stroke="midnightblue" points="378.97,-808.4 389.37,-806.34 379.96,-801.47 378.97,-808.4"/>
</g>
<!-- Node3 -->
<g id="node3" class="node">
<title>Node3</title>
<g id="a_node3"><a xlink:href="classslljit_1_1_tokenizer.html#a0baa2e9dbe626f0475ee4206f16bbb4e" target="_top" xlink:title=" ">
<polygon fill="none" stroke="black" points="1288,-580.5 1288,-610.5 1392,-610.5 1392,-580.5 1288,-580.5"/>
<text text-anchor="start" x="1296" y="-598.5" font-family="Helvetica,sans-Serif" font-size="10.00">slljit::Tokenizer::</text>
<text text-anchor="middle" x="1340" y="-587.5" font-family="Helvetica,sans-Serif" font-size="10.00">get_source_location</text>
</a>
</g>
</g>
<!-- Node1&#45;&gt;Node3 -->
<g id="edge5" class="edge">
<title>Node1&#45;&gt;Node3</title>
<path fill="none" stroke="midnightblue" d="M80.88,-548.32C88.27,-584.37 118.61,-710.99 192,-780.5 275.83,-859.9 317.54,-877.5 433,-877.5 433,-877.5 433,-877.5 965,-877.5 1086.4,-877.5 1139.79,-925.22 1237,-852.5 1312.9,-795.72 1332.4,-673.64 1337.34,-620.77"/>
<polygon fill="midnightblue" stroke="midnightblue" points="1340.85,-620.84 1338.19,-610.58 1333.87,-620.26 1340.85,-620.84"/>
</g>
<!-- Node4 -->
<g id="node4" class="node">
<title>Node4</title>
<g id="a_node4"><a xlink:href="classslljit_1_1_parser.html#aee4666b5cca40f389e2458033d9006e3" target="_top" xlink:title=" ">
<polygon fill="none" stroke="black" points="205.5,-0.5 205.5,-30.5 327.5,-30.5 327.5,-0.5 205.5,-0.5"/>
<text text-anchor="start" x="213.5" y="-18.5" font-family="Helvetica,sans-Serif" font-size="10.00">slljit::Parser::get</text>
<text text-anchor="middle" x="266.5" y="-7.5" font-family="Helvetica,sans-Serif" font-size="10.00">_current_function_scope</text>
</a>
</g>
</g>
<!-- Node1&#45;&gt;Node4 -->
<g id="edge3" class="edge">
<title>Node1&#45;&gt;Node4</title>
<path fill="none" stroke="midnightblue" d="M80.01,-528.77C86.66,-466.42 125.9,-123.29 192,-45.5 194.99,-41.98 198.46,-38.86 202.23,-36.11"/>
<polygon fill="midnightblue" stroke="midnightblue" points="204.31,-38.94 210.9,-30.65 200.57,-33.02 204.31,-38.94"/>
</g>
<!-- Node5 -->
<g id="node5" class="node">
<title>Node5</title>
<g id="a_node5"><a xlink:href="classslljit_1_1_tokenizer.html#a6270acd003b9e0a1323c1fdd54cd2fe2" target="_top" xlink:title=" ">
<polygon fill="none" stroke="black" points="1111,-780.5 1111,-810.5 1199,-810.5 1199,-780.5 1111,-780.5"/>
<text text-anchor="start" x="1119" y="-798.5" font-family="Helvetica,sans-Serif" font-size="10.00">slljit::Tokenizer::</text>
<text text-anchor="middle" x="1155" y="-787.5" font-family="Helvetica,sans-Serif" font-size="10.00">get_identifier</text>
</a>
</g>
</g>
<!-- Node1&#45;&gt;Node5 -->
<g id="edge4" class="edge">
<title>Node1&#45;&gt;Node5</title>
<path fill="none" stroke="midnightblue" d="M88.74,-548.03C128.11,-585.48 280.62,-720.5 433,-720.5 433,-720.5 433,-720.5 789,-720.5 902.07,-720.5 1030.88,-755.46 1101.24,-777.64"/>
<polygon fill="midnightblue" stroke="midnightblue" points="1100.18,-780.98 1110.77,-780.68 1102.3,-774.31 1100.18,-780.98"/>
</g>
<!-- Node6 -->
<g id="node6" class="node">
<title>Node6</title>
<g id="a_node6"><a xlink:href="classslljit_1_1_parser.html#a9fcfefd86a6000dcb40fa737361ea55b" target="_top" xlink:title="GetTokPrecedence &#45; Get the precedence of the pending binary operator token.">
<polygon fill="none" stroke="black" points="1273,-301 1273,-320 1407,-320 1407,-301 1273,-301"/>
<text text-anchor="middle" x="1340" y="-308" font-family="Helvetica,sans-Serif" font-size="10.00">slljit::Parser::getNextToken</text>
</a>
</g>
</g>
<!-- Node1&#45;&gt;Node6 -->
<g id="edge6" class="edge">
<title>Node1&#45;&gt;Node6</title>
<path fill="none" stroke="midnightblue" d="M80.94,-528.93C95.23,-461.42 190.51,-59.5 433,-59.5 433,-59.5 433,-59.5 965,-59.5 1086.78,-59.5 1138.38,-21.06 1237,-92.5 1304.55,-141.44 1328.77,-246.61 1336.17,-290.56"/>
<polygon fill="midnightblue" stroke="midnightblue" points="1332.73,-291.23 1337.73,-300.57 1339.64,-290.15 1332.73,-291.23"/>
</g>
<!-- Node14 -->
<g id="node14" class="node">
<title>Node14</title>
<g id="a_node14"><a xlink:href="classslljit_1_1_parser.html#a79461bf414d03dcabb49d3bbd6f89607" target="_top" xlink:title=" ">
<polygon fill="none" stroke="black" points="192,-358 192,-377 341,-377 341,-358 192,-358"/>
<text text-anchor="middle" x="266.5" y="-365" font-family="Helvetica,sans-Serif" font-size="10.00">slljit::Parser::ParseExpression</text>
</a>
</g>
</g>
<!-- Node1&#45;&gt;Node14 -->
<g id="edge15" class="edge">
<title>Node1&#45;&gt;Node14</title>
<path fill="none" stroke="midnightblue" d="M89.56,-528.82C120.08,-500.83 208.66,-419.62 247.21,-384.27"/>
<polygon fill="midnightblue" stroke="midnightblue" points="250.05,-386.42 255.05,-377.08 245.32,-381.26 250.05,-386.42"/>
</g>
<!-- Node2&#45;&gt;Node3 -->
<g id="edge2" class="edge">
<title>Node2&#45;&gt;Node3</title>
<path fill="none" stroke="midnightblue" d="M478.53,-816.4C544.93,-824.88 675.55,-839.5 787,-839.5 787,-839.5 787,-839.5 965,-839.5 1086.18,-839.5 1137.5,-889.67 1237,-820.5 1305.12,-773.15 1328.53,-668.9 1335.91,-620.76"/>
<polygon fill="midnightblue" stroke="midnightblue" points="1339.41,-620.99 1337.35,-610.59 1332.48,-620 1339.41,-620.99"/>
</g>
<!-- Node7 -->
<g id="node7" class="node">
<title>Node7</title>
<g id="a_node7"><a xlink:href="classslljit_1_1_tokenizer.html#a4f0b343321f5e4561a80e47a5cec05d2" target="_top" xlink:title=" ">
<polygon fill="none" stroke="black" points="1443,-295.5 1443,-325.5 1531,-325.5 1531,-295.5 1443,-295.5"/>
<text text-anchor="start" x="1451" y="-313.5" font-family="Helvetica,sans-Serif" font-size="10.00">slljit::Tokenizer::</text>
<text text-anchor="middle" x="1487" y="-302.5" font-family="Helvetica,sans-Serif" font-size="10.00">gettok</text>
</a>
</g>
</g>
<!-- Node6&#45;&gt;Node7 -->
<g id="edge7" class="edge">
<title>Node6&#45;&gt;Node7</title>
<path fill="none" stroke="midnightblue" d="M1407.14,-310.5C1415.64,-310.5 1424.27,-310.5 1432.54,-310.5"/>
<polygon fill="midnightblue" stroke="midnightblue" points="1432.79,-314 1442.79,-310.5 1432.79,-307 1432.79,-314"/>
</g>
<!-- Node7&#45;&gt;Node7 -->
<g id="edge9" class="edge">
<title>Node7&#45;&gt;Node7</title>
<path fill="none" stroke="midnightblue" d="M1462.25,-325.66C1456.29,-335.06 1464.54,-344 1487,-344 1500.69,-344 1509.1,-340.68 1512.23,-335.96"/>
<polygon fill="midnightblue" stroke="midnightblue" points="1515.71,-335.48 1511.75,-325.66 1508.72,-335.81 1515.71,-335.48"/>
</g>
<!-- Node8 -->
<g id="node8" class="node">
<title>Node8</title>
<g id="a_node8"><a xlink:href="classslljit_1_1_tokenizer.html#aebe79ebb0da26fa5e89963683d474402" target="_top" xlink:title=" ">
<polygon fill="none" stroke="black" points="1586,-418.5 1586,-448.5 1674,-448.5 1674,-418.5 1586,-418.5"/>
<text text-anchor="start" x="1594" y="-436.5" font-family="Helvetica,sans-Serif" font-size="10.00">slljit::Tokenizer::</text>
<text text-anchor="middle" x="1630" y="-425.5" font-family="Helvetica,sans-Serif" font-size="10.00">_getchar</text>
</a>
</g>
</g>
<!-- Node7&#45;&gt;Node8 -->
<g id="edge8" class="edge">
<title>Node7&#45;&gt;Node8</title>
<path fill="none" stroke="midnightblue" d="M1496.83,-325.8C1509.76,-347.01 1535.75,-385.34 1567,-408.5 1570.02,-410.74 1573.27,-412.81 1576.64,-414.73"/>
<polygon fill="midnightblue" stroke="midnightblue" points="1575.29,-417.96 1585.78,-419.42 1578.49,-411.74 1575.29,-417.96"/>
</g>
<!-- Node9 -->
<g id="node9" class="node">
<title>Node9</title>
<g id="a_node9"><a xlink:href="classslljit_1_1_tokenizer.html#ac5b5748065cb054e0f34d995d1f3edce" target="_top" xlink:title=" ">
<polygon fill="none" stroke="black" points="1586,-369.5 1586,-399.5 1674,-399.5 1674,-369.5 1586,-369.5"/>
<text text-anchor="start" x="1594" y="-387.5" font-family="Helvetica,sans-Serif" font-size="10.00">slljit::Tokenizer::</text>
<text text-anchor="middle" x="1630" y="-376.5" font-family="Helvetica,sans-Serif" font-size="10.00">is_id_char</text>
</a>
</g>
</g>
<!-- Node7&#45;&gt;Node9 -->
<g id="edge10" class="edge">
<title>Node7&#45;&gt;Node9</title>
<path fill="none" stroke="midnightblue" d="M1510.22,-325.72C1525.73,-335.98 1547.14,-349.43 1567,-359.5 1571.01,-361.53 1575.23,-363.52 1579.49,-365.44"/>
<polygon fill="midnightblue" stroke="midnightblue" points="1578.29,-368.73 1588.86,-369.49 1581.07,-362.31 1578.29,-368.73"/>
</g>
<!-- Node10 -->
<g id="node10" class="node">
<title>Node10</title>
<g id="a_node10"><a xlink:href="classslljit_1_1_tokenizer.html#afddb21e93063a4c2338c2d42e23d18d2" target="_top" xlink:title=" ">
<polygon fill="none" stroke="black" points="1586,-320.5 1586,-350.5 1674,-350.5 1674,-320.5 1586,-320.5"/>
<text text-anchor="start" x="1594" y="-338.5" font-family="Helvetica,sans-Serif" font-size="10.00">slljit::Tokenizer::</text>
<text text-anchor="middle" x="1630" y="-327.5" font-family="Helvetica,sans-Serif" font-size="10.00">is_id_start_char</text>
</a>
</g>
</g>
<!-- Node7&#45;&gt;Node10 -->
<g id="edge11" class="edge">
<title>Node7&#45;&gt;Node10</title>
<path fill="none" stroke="midnightblue" d="M1531.07,-318.14C1545.15,-320.63 1560.96,-323.44 1575.71,-326.05"/>
<polygon fill="midnightblue" stroke="midnightblue" points="1575.25,-329.52 1585.71,-327.82 1576.47,-322.63 1575.25,-329.52"/>
</g>
<!-- Node11 -->
<g id="node11" class="node">
<title>Node11</title>
<g id="a_node11"><a xlink:href="classslljit_1_1_tokenizer.html#ada986d1651ab242c370288c198cd726d" target="_top" xlink:title=" ">
<polygon fill="none" stroke="black" points="1567,-271.5 1567,-301.5 1693,-301.5 1693,-271.5 1567,-271.5"/>
<text text-anchor="start" x="1575" y="-289.5" font-family="Helvetica,sans-Serif" font-size="10.00">slljit::Tokenizer::</text>
<text text-anchor="middle" x="1630" y="-278.5" font-family="Helvetica,sans-Serif" font-size="10.00">is_reserved_command_id</text>
</a>
</g>
</g>
<!-- Node7&#45;&gt;Node11 -->
<g id="edge12" class="edge">
<title>Node7&#45;&gt;Node11</title>
<path fill="none" stroke="midnightblue" d="M1531.07,-303.17C1539.31,-301.77 1548.14,-300.26 1557,-298.76"/>
<polygon fill="midnightblue" stroke="midnightblue" points="1557.72,-302.18 1566.99,-297.06 1556.54,-295.28 1557.72,-302.18"/>
</g>
<!-- Node12 -->
<g id="node12" class="node">
<title>Node12</title>
<g id="a_node12"><a xlink:href="classslljit_1_1_tokenizer.html#ab29a7d2f06bb354a3f748106f5ea3e6c" target="_top" xlink:title=" ">
<polygon fill="none" stroke="black" points="1585.5,-222.5 1585.5,-252.5 1674.5,-252.5 1674.5,-222.5 1585.5,-222.5"/>
<text text-anchor="start" x="1593.5" y="-240.5" font-family="Helvetica,sans-Serif" font-size="10.00">slljit::Tokenizer::</text>
<text text-anchor="middle" x="1630" y="-229.5" font-family="Helvetica,sans-Serif" font-size="10.00">is_special_literal</text>
</a>
</g>
</g>
<!-- Node7&#45;&gt;Node12 -->
<g id="edge13" class="edge">
<title>Node7&#45;&gt;Node12</title>
<path fill="none" stroke="midnightblue" d="M1509.84,-295.42C1525.36,-285.09 1546.92,-271.5 1567,-261.5 1570.35,-259.83 1573.84,-258.2 1577.39,-256.63"/>
<polygon fill="midnightblue" stroke="midnightblue" points="1579.02,-259.73 1586.85,-252.6 1576.28,-253.29 1579.02,-259.73"/>
</g>
<!-- Node13 -->
<g id="node13" class="node">
<title>Node13</title>
<g id="a_node13"><a xlink:href="classslljit_1_1_tokenizer.html#ae5cc0911ed858f6bc7bf206928cd66ae" target="_top" xlink:title=" ">
<polygon fill="none" stroke="black" points="1586,-173.5 1586,-203.5 1674,-203.5 1674,-173.5 1586,-173.5"/>
<text text-anchor="start" x="1594" y="-191.5" font-family="Helvetica,sans-Serif" font-size="10.00">slljit::Tokenizer::</text>
<text text-anchor="middle" x="1630" y="-180.5" font-family="Helvetica,sans-Serif" font-size="10.00">set_lok_location</text>
</a>
</g>
</g>
<!-- Node7&#45;&gt;Node13 -->
<g id="edge14" class="edge">
<title>Node7&#45;&gt;Node13</title>
<path fill="none" stroke="midnightblue" d="M1496.57,-295.5C1509.37,-274.29 1535.41,-235.57 1567,-212.5 1570.02,-210.29 1573.27,-208.26 1576.64,-206.39"/>
<polygon fill="midnightblue" stroke="midnightblue" points="1578.4,-209.43 1585.78,-201.83 1575.27,-203.17 1578.4,-209.43"/>
</g>
<!-- Node15 -->
<g id="node15" class="node">
<title>Node15</title>
<g id="a_node15"><a xlink:href="classslljit_1_1_parser.html#ae387c9672ec50720d8cb969558aedbe9" target="_top" xlink:title=" ">
<polygon fill="none" stroke="black" points="377,-233.5 377,-263.5 491,-263.5 491,-233.5 377,-233.5"/>
<text text-anchor="start" x="385" y="-251.5" font-family="Helvetica,sans-Serif" font-size="10.00">slljit::Parser::ParseBin</text>
<text text-anchor="middle" x="434" y="-240.5" font-family="Helvetica,sans-Serif" font-size="10.00">OpRHS</text>
</a>
</g>
</g>
<!-- Node14&#45;&gt;Node15 -->
<g id="edge16" class="edge">
<title>Node14&#45;&gt;Node15</title>
<path fill="none" stroke="midnightblue" d="M280.76,-357.96C307.32,-338.87 367.58,-295.54 403.81,-269.49"/>
<polygon fill="midnightblue" stroke="midnightblue" points="405.96,-272.25 412.04,-263.57 401.87,-266.57 405.96,-272.25"/>
</g>
<!-- Node17 -->
<g id="node17" class="node">
<title>Node17</title>
<g id="a_node17"><a xlink:href="classslljit_1_1_parser.html#af8579896f39ac563d2edd14404d70f41" target="_top" xlink:title=" ">
<polygon fill="none" stroke="black" points="543.5,-280 543.5,-299 668.5,-299 668.5,-280 543.5,-280"/>
<text text-anchor="middle" x="606" y="-287" font-family="Helvetica,sans-Serif" font-size="10.00">slljit::Parser::ParseUnary</text>
</a>
</g>
</g>
<!-- Node14&#45;&gt;Node17 -->
<g id="edge59" class="edge">
<title>Node14&#45;&gt;Node17</title>
<path fill="none" stroke="midnightblue" d="M296.56,-357.89C318.51,-350.85 349.45,-341.35 377,-334.5 430.87,-321.1 492.7,-309.1 538.37,-300.88"/>
<polygon fill="midnightblue" stroke="midnightblue" points="539.21,-304.28 548.44,-299.07 537.98,-297.39 539.21,-304.28"/>
</g>
<!-- Node15&#45;&gt;Node6 -->
<g id="edge17" class="edge">
<title>Node15&#45;&gt;Node6</title>
<path fill="none" stroke="midnightblue" d="M454.36,-233.47C505.56,-195.28 650.02,-97.5 787,-97.5 787,-97.5 787,-97.5 965,-97.5 1088.08,-97.5 1135.24,-80.26 1237,-149.5 1289.08,-184.94 1320.12,-256.72 1332.6,-291.18"/>
<polygon fill="midnightblue" stroke="midnightblue" points="1329.41,-292.67 1336,-300.97 1336.02,-290.37 1329.41,-292.67"/>
</g>
<!-- Node15&#45;&gt;Node15 -->
<g id="edge19" class="edge">
<title>Node15&#45;&gt;Node15</title>
<path fill="none" stroke="midnightblue" d="M405.07,-263.66C398.1,-273.06 407.74,-282 434,-282 450,-282 459.84,-278.68 463.5,-273.96"/>
<polygon fill="midnightblue" stroke="midnightblue" points="466.97,-273.45 462.93,-263.66 459.98,-273.84 466.97,-273.45"/>
</g>
<!-- Node16 -->
<g id="node16" class="node">
<title>Node16</title>
<g id="a_node16"><a xlink:href="classslljit_1_1_parser.html#a8485bea3e380a80c8296092996c9ef96" target="_top" xlink:title="Get the precedence of the pending binary operator token.">
<polygon fill="none" stroke="black" points="527,-239 527,-258 685,-258 685,-239 527,-239"/>
<text text-anchor="middle" x="606" y="-246" font-family="Helvetica,sans-Serif" font-size="10.00">slljit::Parser::GetTokPrecedence</text>
</a>
</g>
</g>
<!-- Node15&#45;&gt;Node16 -->
<g id="edge18" class="edge">
<title>Node15&#45;&gt;Node16</title>
<path fill="none" stroke="midnightblue" d="M491.14,-248.5C499.34,-248.5 507.95,-248.5 516.6,-248.5"/>
<polygon fill="midnightblue" stroke="midnightblue" points="516.77,-252 526.77,-248.5 516.77,-245 516.77,-252"/>
</g>
<!-- Node15&#45;&gt;Node17 -->
<g id="edge20" class="edge">
<title>Node15&#45;&gt;Node17</title>
<path fill="none" stroke="midnightblue" d="M491.14,-262.04C511.98,-267.07 535.46,-272.73 555.66,-277.6"/>
<polygon fill="midnightblue" stroke="midnightblue" points="555.05,-281.05 565.59,-279.99 556.69,-274.25 555.05,-281.05"/>
</g>
<!-- Node17&#45;&gt;Node6 -->
<g id="edge21" class="edge">
<title>Node17&#45;&gt;Node6</title>
<path fill="none" stroke="midnightblue" d="M641.8,-280C742.42,-252.6 1029.38,-175.03 1073,-169.5 1145.31,-160.34 1172.09,-136.34 1237,-169.5 1287.52,-195.31 1318.81,-259.12 1331.89,-291.29"/>
<polygon fill="midnightblue" stroke="midnightblue" points="1328.74,-292.85 1335.63,-300.89 1335.26,-290.3 1328.74,-292.85"/>
</g>
<!-- Node17&#45;&gt;Node17 -->
<g id="edge58" class="edge">
<title>Node17&#45;&gt;Node17</title>
<path fill="none" stroke="midnightblue" d="M579.49,-299.26C566.59,-308.07 575.43,-317.5 606,-317.5 626.54,-317.5 637.27,-313.24 638.19,-307.77"/>
<polygon fill="midnightblue" stroke="midnightblue" points="640.97,-305.64 632.51,-299.26 635.14,-309.52 640.97,-305.64"/>
</g>
<!-- Node18 -->
<g id="node18" class="node">
<title>Node18</title>
<g id="a_node18"><a xlink:href="classslljit_1_1_parser.html#a45cb3e4f600e8e2c253490e7d878e8cd" target="_top" xlink:title=" ">
<polygon fill="none" stroke="black" points="721,-453 721,-472 855,-472 855,-453 721,-453"/>
<text text-anchor="middle" x="788" y="-460" font-family="Helvetica,sans-Serif" font-size="10.00">slljit::Parser::ParsePrimary</text>
</a>
</g>
</g>
<!-- Node17&#45;&gt;Node18 -->
<g id="edge22" class="edge">
<title>Node17&#45;&gt;Node18</title>
<path fill="none" stroke="midnightblue" d="M616.93,-299.05C646.12,-327.1 731.91,-409.56 769.27,-445.46"/>
<polygon fill="midnightblue" stroke="midnightblue" points="767.24,-448.36 776.87,-452.77 772.09,-443.32 767.24,-448.36"/>
</g>
<!-- Node18&#45;&gt;Node1 -->
<g id="edge34" class="edge">
<title>Node18&#45;&gt;Node1</title>
<path fill="none" stroke="midnightblue" d="M720.92,-469.59C592.61,-483.37 309.74,-513.73 166.21,-529.14"/>
<polygon fill="midnightblue" stroke="midnightblue" points="165.69,-525.67 156.12,-530.22 166.43,-532.63 165.69,-525.67"/>
</g>
<!-- Node18&#45;&gt;Node3 -->
<g id="edge23" class="edge">
<title>Node18&#45;&gt;Node3</title>
<path fill="none" stroke="midnightblue" d="M816.83,-472C828.68,-476.21 842.61,-481.36 855,-486.5 953.81,-527.49 968.9,-563.91 1073,-588.5 1141.64,-604.71 1223,-604.08 1277.51,-600.92"/>
<polygon fill="midnightblue" stroke="midnightblue" points="1277.94,-604.4 1287.71,-600.29 1277.51,-597.42 1277.94,-604.4"/>
</g>
<!-- Node19 -->
<g id="node19" class="node">
<title>Node19</title>
<g id="a_node19"><a xlink:href="classslljit_1_1_parser.html#a81023e7a6221eb6b92027bd21433c9dd" target="_top" xlink:title="forexpr ::= &#39;for&#39; identifier &#39;=&#39; expr &#39;,&#39; expr (&#39;,&#39; expr)? &#39;in&#39; expression">
<polygon fill="none" stroke="black" points="897,-257 897,-276 1031,-276 1031,-257 897,-257"/>
<text text-anchor="middle" x="964" y="-264" font-family="Helvetica,sans-Serif" font-size="10.00">slljit::Parser::ParseForExpr</text>
</a>
</g>
</g>
<!-- Node18&#45;&gt;Node19 -->
<g id="edge24" class="edge">
<title>Node18&#45;&gt;Node19</title>
<path fill="none" stroke="midnightblue" d="M795.33,-452.97C810.53,-430.4 850.8,-372.38 891,-329.5 907.14,-312.28 927.55,-294.76 942.51,-282.59"/>
<polygon fill="midnightblue" stroke="midnightblue" points="945.01,-285.07 950.62,-276.08 940.63,-279.61 945.01,-285.07"/>
</g>
<!-- Node23 -->
<g id="node23" class="node">
<title>Node23</title>
<g id="a_node23"><a xlink:href="classslljit_1_1_parser.html#a149f5e88cb03aa08c388e6320c6c1bac" target="_top" xlink:title="ifexpr ::= &#39;if&#39; expression &#39;then&#39; expression &#39;else&#39; expression">
<polygon fill="none" stroke="black" points="901.5,-339 901.5,-358 1026.5,-358 1026.5,-339 901.5,-339"/>
<text text-anchor="middle" x="964" y="-346" font-family="Helvetica,sans-Serif" font-size="10.00">slljit::Parser::ParseIfExpr</text>
</a>
</g>
</g>
<!-- Node18&#45;&gt;Node23 -->
<g id="edge35" class="edge">
<title>Node18&#45;&gt;Node23</title>
<path fill="none" stroke="midnightblue" d="M803.54,-452.98C833.65,-433.24 903.1,-387.74 939.61,-363.82"/>
<polygon fill="midnightblue" stroke="midnightblue" points="941.69,-366.65 948.14,-358.24 937.85,-360.79 941.69,-366.65"/>
</g>
<!-- Node24 -->
<g id="node24" class="node">
<title>Node24</title>
<g id="a_node24"><a xlink:href="classslljit_1_1_parser.html#af9ccc5948e2cf9051c2569cc42dc3bb7" target="_top" xlink:title="numberexpr ::= number">
<polygon fill="none" stroke="black" points="1082,-453 1082,-472 1228,-472 1228,-453 1082,-453"/>
<text text-anchor="middle" x="1155" y="-460" font-family="Helvetica,sans-Serif" font-size="10.00">slljit::Parser::ParseLiteralExpr</text>
</a>
</g>
</g>
<!-- Node18&#45;&gt;Node24 -->
<g id="edge42" class="edge">
<title>Node18&#45;&gt;Node24</title>
<path fill="none" stroke="midnightblue" d="M855.1,-462.5C915.84,-462.5 1006.11,-462.5 1071.55,-462.5"/>
<polygon fill="midnightblue" stroke="midnightblue" points="1071.83,-466 1081.83,-462.5 1071.83,-459 1071.83,-466"/>
</g>
<!-- Node26 -->
<g id="node26" class="node">
<title>Node26</title>
<g id="a_node26"><a xlink:href="classslljit_1_1_parser.html#a6e2e0f6a2cc445f3a956db59c8d2da66" target="_top" xlink:title="parenexpr ::= &#39;(&#39; expression &#39;)&#39;">
<polygon fill="none" stroke="black" points="891,-415 891,-434 1037,-434 1037,-415 891,-415"/>
<text text-anchor="middle" x="964" y="-422" font-family="Helvetica,sans-Serif" font-size="10.00">slljit::Parser::ParseParenExpr</text>
</a>
</g>
</g>
<!-- Node18&#45;&gt;Node26 -->
<g id="edge46" class="edge">
<title>Node18&#45;&gt;Node26</title>
<path fill="none" stroke="midnightblue" d="M832.91,-452.91C856.18,-447.83 884.95,-441.54 909.52,-436.18"/>
<polygon fill="midnightblue" stroke="midnightblue" points="910.39,-439.57 919.41,-434.02 908.89,-432.73 910.39,-439.57"/>
</g>
<!-- Node27 -->
<g id="node27" class="node">
<title>Node27</title>
<g id="a_node27"><a xlink:href="classslljit_1_1_parser.html#a435877d3f2869d140a7cca646546a114" target="_top" xlink:title="varexpr ::= &#39;g_var&#39; identifier (&#39;=&#39; expression)?">
<polygon fill="none" stroke="black" points="896.5,-649 896.5,-668 1031.5,-668 1031.5,-649 896.5,-649"/>
<text text-anchor="middle" x="964" y="-656" font-family="Helvetica,sans-Serif" font-size="10.00">slljit::Parser::ParseVarExpr</text>
</a>
</g>
</g>
<!-- Node18&#45;&gt;Node27 -->
<g id="edge50" class="edge">
<title>Node18&#45;&gt;Node27</title>
<path fill="none" stroke="midnightblue" d="M833.83,-472.07C841.75,-475.51 849.28,-480.17 855,-486.5 898.67,-534.79 848.45,-579.22 891,-628.5 896.91,-635.35 904.65,-640.67 912.85,-644.79"/>
<polygon fill="midnightblue" stroke="midnightblue" points="911.68,-648.1 922.24,-648.95 914.51,-641.7 911.68,-648.1"/>
</g>
<!-- Node19&#45;&gt;Node3 -->
<g id="edge25" class="edge">
<title>Node19&#45;&gt;Node3</title>
<path fill="none" stroke="midnightblue" d="M980.77,-276.02C997.35,-286.87 1022.94,-306.17 1037,-329.5 1072.83,-388.97 1023.08,-433.25 1073,-481.5 1126.46,-533.17 1169.57,-483.18 1237,-514.5 1268,-528.9 1297.96,-554.54 1317.29,-573.12"/>
<polygon fill="midnightblue" stroke="midnightblue" points="1315.07,-575.84 1324.65,-580.35 1319.97,-570.85 1315.07,-575.84"/>
</g>
<!-- Node19&#45;&gt;Node6 -->
<g id="edge26" class="edge">
<title>Node19&#45;&gt;Node6</title>
<path fill="none" stroke="midnightblue" d="M974.61,-256.83C992.24,-239.85 1031.75,-205.28 1073,-192.5 1142.63,-170.94 1170.72,-162.18 1237,-192.5 1281.74,-212.96 1314.35,-263.82 1329.52,-291.62"/>
<polygon fill="midnightblue" stroke="midnightblue" points="1326.55,-293.5 1334.3,-300.72 1332.74,-290.24 1326.55,-293.5"/>
</g>
<!-- Node19&#45;&gt;Node14 -->
<g id="edge27" class="edge">
<title>Node19&#45;&gt;Node14</title>
<path fill="none" stroke="midnightblue" d="M940.15,-256.96C858.48,-224.43 575.32,-125.16 377,-223.5 323.94,-249.81 289.63,-315.51 275.24,-348.28"/>
<polygon fill="midnightblue" stroke="midnightblue" points="271.94,-347.1 271.27,-357.67 278.39,-349.82 271.94,-347.1"/>
</g>
<!-- Node20 -->
<g id="node20" class="node">
<title>Node20</title>
<g id="a_node20"><a xlink:href="classslljit_1_1_parser.html#acc431005ac3dd38732083d7a1bb0eab2" target="_top" xlink:title=" ">
<polygon fill="none" stroke="black" points="1073,-339 1073,-358 1237,-358 1237,-339 1073,-339"/>
<text text-anchor="middle" x="1155" y="-346" font-family="Helvetica,sans-Serif" font-size="10.00">slljit::Parser::ParseExpressionList</text>
</a>
</g>
</g>
<!-- Node19&#45;&gt;Node20 -->
<g id="edge28" class="edge">
<title>Node19&#45;&gt;Node20</title>
<path fill="none" stroke="midnightblue" d="M987.05,-276.07C1020.48,-290.57 1084.14,-318.19 1122.46,-334.82"/>
<polygon fill="midnightblue" stroke="midnightblue" points="1121.52,-338.22 1132.09,-338.99 1124.31,-331.8 1121.52,-338.22"/>
</g>
<!-- Node21 -->
<g id="node21" class="node">
<title>Node21</title>
<g id="a_node21"><a xlink:href="classslljit_1_1_parser.html#ae7a9c738da8b5802b80001e306ad668b" target="_top" xlink:title=" ">
<polygon fill="none" stroke="black" points="1110,-251.5 1110,-281.5 1200,-281.5 1200,-251.5 1110,-251.5"/>
<text text-anchor="start" x="1118" y="-269.5" font-family="Helvetica,sans-Serif" font-size="10.00">slljit::Parser::pop</text>
<text text-anchor="middle" x="1155" y="-258.5" font-family="Helvetica,sans-Serif" font-size="10.00">_scope</text>
</a>
</g>
</g>
<!-- Node19&#45;&gt;Node21 -->
<g id="edge32" class="edge">
<title>Node19&#45;&gt;Node21</title>
<path fill="none" stroke="midnightblue" d="M1031.1,-266.5C1053.52,-266.5 1078.28,-266.5 1099.67,-266.5"/>
<polygon fill="midnightblue" stroke="midnightblue" points="1099.87,-270 1109.87,-266.5 1099.87,-263 1099.87,-270"/>
</g>
<!-- Node22 -->
<g id="node22" class="node">
<title>Node22</title>
<g id="a_node22"><a xlink:href="classslljit_1_1_parser.html#a07488f6e4f1ec72ba5c6f04ad550b7a3" target="_top" xlink:title=" ">
<polygon fill="none" stroke="black" points="1107.5,-202.5 1107.5,-232.5 1202.5,-232.5 1202.5,-202.5 1107.5,-202.5"/>
<text text-anchor="start" x="1115.5" y="-220.5" font-family="Helvetica,sans-Serif" font-size="10.00">slljit::Parser::push</text>
<text text-anchor="middle" x="1155" y="-209.5" font-family="Helvetica,sans-Serif" font-size="10.00">_scope</text>
</a>
</g>
</g>
<!-- Node19&#45;&gt;Node22 -->
<g id="edge33" class="edge">
<title>Node19&#45;&gt;Node22</title>
<path fill="none" stroke="midnightblue" d="M1001.89,-256.94C1029.13,-249.87 1066.69,-240.13 1097.68,-232.1"/>
<polygon fill="midnightblue" stroke="midnightblue" points="1098.68,-235.46 1107.48,-229.56 1096.93,-228.68 1098.68,-235.46"/>
</g>
<!-- Node20&#45;&gt;Node3 -->
<g id="edge29" class="edge">
<title>Node20&#45;&gt;Node3</title>
<path fill="none" stroke="midnightblue" d="M1164.9,-358.17C1180.24,-375.01 1212.39,-411.03 1237,-443.5 1270.23,-487.34 1305.15,-541.39 1324.29,-571.79"/>
<polygon fill="midnightblue" stroke="midnightblue" points="1321.43,-573.82 1329.7,-580.43 1327.36,-570.1 1321.43,-573.82"/>
</g>
<!-- Node20&#45;&gt;Node6 -->
<g id="edge30" class="edge">
<title>Node20&#45;&gt;Node6</title>
<path fill="none" stroke="midnightblue" d="M1202.18,-338.91C1226.76,-333.81 1257.19,-327.49 1283.1,-322.11"/>
<polygon fill="midnightblue" stroke="midnightblue" points="1284.07,-325.48 1293.15,-320.02 1282.65,-318.63 1284.07,-325.48"/>
</g>
<!-- Node20&#45;&gt;Node14 -->
<g id="edge31" class="edge">
<title>Node20&#45;&gt;Node14</title>
<path fill="none" stroke="midnightblue" d="M1101.42,-358.01C1081.32,-361.39 1058.15,-364.98 1037,-367.5 927.23,-380.59 899.55,-386.5 789,-386.5 605,-386.5 605,-386.5 605,-386.5 518.48,-386.5 419.68,-380.2 351.43,-374.85"/>
<polygon fill="midnightblue" stroke="midnightblue" points="351.42,-371.34 341.17,-374.04 350.86,-378.32 351.42,-371.34"/>
</g>
<!-- Node23&#45;&gt;Node3 -->
<g id="edge36" class="edge">
<title>Node23&#45;&gt;Node3</title>
<path fill="none" stroke="midnightblue" d="M982.23,-358.09C998.52,-367.98 1022.57,-384.85 1037,-405.5 1066.23,-447.31 1035.32,-480.11 1073,-514.5 1128.27,-564.94 1165.82,-529.44 1237,-552.5 1257.39,-559.11 1279.38,-568.12 1297.7,-576.19"/>
<polygon fill="midnightblue" stroke="midnightblue" points="1296.36,-579.43 1306.92,-580.31 1299.22,-573.03 1296.36,-579.43"/>
</g>
<!-- Node23&#45;&gt;Node6 -->
<g id="edge37" class="edge">
<title>Node23&#45;&gt;Node6</title>
<path fill="none" stroke="midnightblue" d="M1012.96,-338.97C1031.63,-335.55 1053.25,-331.94 1073,-329.5 1136.78,-321.63 1209.6,-316.71 1262.9,-313.85"/>
<polygon fill="midnightblue" stroke="midnightblue" points="1263.15,-317.35 1272.96,-313.33 1262.79,-310.36 1263.15,-317.35"/>
</g>
<!-- Node23&#45;&gt;Node14 -->
<g id="edge38" class="edge">
<title>Node23&#45;&gt;Node14</title>
<path fill="none" stroke="midnightblue" d="M901.1,-350.19C776.07,-353.61 493.27,-361.33 351.64,-365.2"/>
<polygon fill="midnightblue" stroke="midnightblue" points="351.17,-361.71 341.27,-365.48 351.36,-368.71 351.17,-361.71"/>
</g>
<!-- Node23&#45;&gt;Node20 -->
<g id="edge39" class="edge">
<title>Node23&#45;&gt;Node20</title>
<path fill="none" stroke="midnightblue" d="M1026.62,-348.5C1038.15,-348.5 1050.43,-348.5 1062.64,-348.5"/>
<polygon fill="midnightblue" stroke="midnightblue" points="1062.85,-352 1072.85,-348.5 1062.85,-345 1062.85,-352"/>
</g>
<!-- Node23&#45;&gt;Node21 -->
<g id="edge40" class="edge">
<title>Node23&#45;&gt;Node21</title>
<path fill="none" stroke="midnightblue" d="M983.49,-338.94C1004.8,-328.08 1041.01,-310.09 1073,-296.5 1082.11,-292.63 1091.91,-288.76 1101.43,-285.15"/>
<polygon fill="midnightblue" stroke="midnightblue" points="1102.69,-288.42 1110.83,-281.64 1100.23,-281.86 1102.69,-288.42"/>
</g>
<!-- Node23&#45;&gt;Node22 -->
<g id="edge41" class="edge">
<title>Node23&#45;&gt;Node22</title>
<path fill="none" stroke="midnightblue" d="M977.27,-338.82C992.06,-326.92 1017.37,-305.79 1037,-285.5 1054.57,-267.34 1051.96,-255.49 1073,-241.5 1080.46,-236.55 1088.96,-232.59 1097.59,-229.44"/>
<polygon fill="midnightblue" stroke="midnightblue" points="1098.94,-232.68 1107.34,-226.21 1096.74,-226.03 1098.94,-232.68"/>
</g>
<!-- Node24&#45;&gt;Node3 -->
<g id="edge44" class="edge">
<title>Node24&#45;&gt;Node3</title>
<path fill="none" stroke="midnightblue" d="M1203.63,-472.06C1215.07,-475.56 1226.89,-480.26 1237,-486.5 1273.13,-508.82 1304.8,-547.23 1322.92,-571.98"/>
<polygon fill="midnightblue" stroke="midnightblue" points="1320.3,-574.33 1328.96,-580.43 1325.99,-570.26 1320.3,-574.33"/>
</g>
<!-- Node24&#45;&gt;Node6 -->
<g id="edge45" class="edge">
<title>Node24&#45;&gt;Node6</title>
<path fill="none" stroke="midnightblue" d="M1205.69,-452.96C1216.58,-449.5 1227.63,-444.81 1237,-438.5 1279.81,-409.65 1313.23,-357.28 1329.03,-329.3"/>
<polygon fill="midnightblue" stroke="midnightblue" points="1332.29,-330.64 1334.03,-320.19 1326.15,-327.27 1332.29,-330.64"/>
</g>
<!-- Node25 -->
<g id="node25" class="node">
<title>Node25</title>
<g id="a_node25"><a xlink:href="classslljit_1_1_tokenizer.html#a69d29df7401c1f268a754725c4561470" target="_top" xlink:title=" ">
<polygon fill="none" stroke="black" points="1296,-447.5 1296,-477.5 1384,-477.5 1384,-447.5 1296,-447.5"/>
<text text-anchor="start" x="1304" y="-465.5" font-family="Helvetica,sans-Serif" font-size="10.00">slljit::Tokenizer::</text>
<text text-anchor="middle" x="1340" y="-454.5" font-family="Helvetica,sans-Serif" font-size="10.00">get_literal_string</text>
</a>
</g>
</g>
<!-- Node24&#45;&gt;Node25 -->
<g id="edge43" class="edge">
<title>Node24&#45;&gt;Node25</title>
<path fill="none" stroke="midnightblue" d="M1228.06,-462.5C1247.3,-462.5 1267.74,-462.5 1285.76,-462.5"/>
<polygon fill="midnightblue" stroke="midnightblue" points="1285.78,-466 1295.78,-462.5 1285.78,-459 1285.78,-466"/>
</g>
<!-- Node26&#45;&gt;Node3 -->
<g id="edge47" class="edge">
<title>Node26&#45;&gt;Node3</title>
<path fill="none" stroke="midnightblue" d="M969.98,-434.22C983.08,-458.72 1021.13,-523.14 1073,-552.5 1136.33,-588.35 1220.92,-596.51 1277.54,-597.39"/>
<polygon fill="midnightblue" stroke="midnightblue" points="1277.75,-600.89 1287.78,-597.48 1277.81,-593.89 1277.75,-600.89"/>
</g>
<!-- Node26&#45;&gt;Node6 -->
<g id="edge48" class="edge">
<title>Node26&#45;&gt;Node6</title>
<path fill="none" stroke="midnightblue" d="M1037.11,-415.47C1092.92,-407.05 1171.48,-392.02 1237,-367.5 1266,-356.65 1296.67,-338.48 1316.72,-325.57"/>
<polygon fill="midnightblue" stroke="midnightblue" points="1318.69,-328.46 1325.14,-320.05 1314.86,-322.61 1318.69,-328.46"/>
</g>
<!-- Node26&#45;&gt;Node14 -->
<g id="edge49" class="edge">
<title>Node26&#45;&gt;Node14</title>
<path fill="none" stroke="midnightblue" d="M890.68,-427.34C779.43,-430.42 559.99,-431.31 377,-400.5 351.48,-396.2 323.56,-387.72 302.29,-380.44"/>
<polygon fill="midnightblue" stroke="midnightblue" points="303.33,-377.09 292.73,-377.09 301.01,-383.7 303.33,-377.09"/>
</g>
<!-- Node27&#45;&gt;Node3 -->
<g id="edge52" class="edge">
<title>Node27&#45;&gt;Node3</title>
<path fill="none" stroke="midnightblue" d="M979.67,-668.16C994.26,-677.8 1017.25,-693.06 1037,-706.5 1053.1,-717.46 1054.41,-725.68 1073,-731.5 1142.56,-753.28 1171.81,-764.1 1237,-731.5 1283.65,-708.17 1314.5,-652.25 1329.13,-619.84"/>
<polygon fill="midnightblue" stroke="midnightblue" points="1332.37,-621.17 1333.15,-610.6 1325.95,-618.37 1332.37,-621.17"/>
</g>
<!-- Node27&#45;&gt;Node5 -->
<g id="edge51" class="edge">
<title>Node27&#45;&gt;Node5</title>
<path fill="none" stroke="midnightblue" d="M983.78,-668.01C999.35,-676.56 1021.39,-690.25 1037,-706.5 1058.28,-728.65 1049.29,-745.97 1073,-765.5 1081.25,-772.29 1091.18,-777.62 1101.21,-781.79"/>
<polygon fill="midnightblue" stroke="midnightblue" points="1100.22,-785.16 1110.82,-785.43 1102.71,-778.61 1100.22,-785.16"/>
</g>
<!-- Node27&#45;&gt;Node6 -->
<g id="edge54" class="edge">
<title>Node27&#45;&gt;Node6</title>
<path fill="none" stroke="midnightblue" d="M966.83,-649C973.84,-615.24 1002.24,-500.15 1073,-443.5 1131.65,-396.54 1170.69,-437.82 1237,-402.5 1272.89,-383.38 1306.22,-348.92 1324.48,-328.03"/>
<polygon fill="midnightblue" stroke="midnightblue" points="1327.3,-330.12 1331.13,-320.25 1321.98,-325.57 1327.3,-330.12"/>
</g>
<!-- Node27&#45;&gt;Node14 -->
<g id="edge55" class="edge">
<title>Node27&#45;&gt;Node14</title>
<path fill="none" stroke="midnightblue" d="M936.98,-648.9C854.2,-618.18 589.91,-518.65 377,-422.5 348.46,-409.61 316.53,-393.36 294.55,-381.87"/>
<polygon fill="midnightblue" stroke="midnightblue" points="295.97,-378.66 285.49,-377.11 292.72,-384.86 295.97,-378.66"/>
</g>
<!-- Node28 -->
<g id="node28" class="node">
<title>Node28</title>
<g id="a_node28"><a xlink:href="classslljit_1_1_tokenizer.html#a9dcee05dc292fa291e6b9644d12c1907" target="_top" xlink:title=" ">
<polygon fill="none" stroke="black" points="1107.5,-643.5 1107.5,-673.5 1202.5,-673.5 1202.5,-643.5 1107.5,-643.5"/>
<text text-anchor="start" x="1115.5" y="-661.5" font-family="Helvetica,sans-Serif" font-size="10.00">slljit::Tokenizer::</text>
<text text-anchor="middle" x="1155" y="-650.5" font-family="Helvetica,sans-Serif" font-size="10.00">get_type_identifier</text>
</a>
</g>
</g>
<!-- Node27&#45;&gt;Node28 -->
<g id="edge53" class="edge">
<title>Node27&#45;&gt;Node28</title>
<path fill="none" stroke="midnightblue" d="M1031.63,-658.5C1053,-658.5 1076.45,-658.5 1097.06,-658.5"/>
<polygon fill="midnightblue" stroke="midnightblue" points="1097.24,-662 1107.24,-658.5 1097.24,-655 1097.24,-662"/>
</g>
<!-- Node29 -->
<g id="node29" class="node">
<title>Node29</title>
<g id="a_node29"><a xlink:href="classslljit_1_1_parser.html#acad3f159608acb847e0f693fc07fdd28" target="_top" xlink:title=" ">
<polygon fill="none" stroke="black" points="1107.5,-692.5 1107.5,-722.5 1202.5,-722.5 1202.5,-692.5 1107.5,-692.5"/>
<text text-anchor="start" x="1115.5" y="-710.5" font-family="Helvetica,sans-Serif" font-size="10.00">slljit::Parser::push</text>
<text text-anchor="middle" x="1155" y="-699.5" font-family="Helvetica,sans-Serif" font-size="10.00">_var_into_scope</text>
</a>
</g>
</g>
<!-- Node27&#45;&gt;Node29 -->
<g id="edge56" class="edge">
<title>Node27&#45;&gt;Node29</title>
<path fill="none" stroke="midnightblue" d="M1001.89,-668.06C1029.13,-675.13 1066.69,-684.87 1097.68,-692.9"/>
<polygon fill="midnightblue" stroke="midnightblue" points="1096.93,-696.32 1107.48,-695.44 1098.68,-689.54 1096.93,-696.32"/>
</g>
<!-- Node29&#45;&gt;Node3 -->
<g id="edge57" class="edge">
<title>Node29&#45;&gt;Node3</title>
<path fill="none" stroke="midnightblue" d="M1202.74,-696.61C1214.31,-692.97 1226.43,-688.32 1237,-682.5 1268.33,-665.27 1298.78,-637.4 1318.14,-617.85"/>
<polygon fill="midnightblue" stroke="midnightblue" points="1320.77,-620.16 1325.23,-610.55 1315.75,-615.28 1320.77,-620.16"/>
</g>
</g>
</svg>
