<?xml version="1.0" encoding="UTF-8" standalone="no"?>
<!DOCTYPE svg PUBLIC "-//W3C//DTD SVG 1.1//EN"
 "http://www.w3.org/Graphics/SVG/1.1/DTD/svg11.dtd">
<!-- Generated by graphviz version 3.0.0 (20220226.1711)
 -->
<!-- Title: slljit::Parser::GetTokPrecedence Pages: 1 -->
<svg width="1489pt" height="296pt"
 viewBox="0.00 0.00 1489.00 296.00" xmlns="http://www.w3.org/2000/svg" xmlns:xlink="http://www.w3.org/1999/xlink">
<g id="graph0" class="graph" transform="scale(1 1) rotate(0) translate(4 292)">
<title>slljit::Parser::GetTokPrecedence</title>
<!-- Node1 -->
<g id="node1" class="node">
<title>Node1</title>
<g id="a_node1"><a xlink:title="Get the precedence of the pending binary operator token.">
<polygon fill="#bfbfbf" stroke="black" points="1323,-47.5 1323,-66.5 1481,-66.5 1481,-47.5 1323,-47.5"/>
<text text-anchor="middle" x="1402" y="-54.5" font-family="Helvetica,sans-Serif" font-size="10.00">slljit::Parser::GetTokPrecedence</text>
</a>
</g>
</g>
<!-- Node2 -->
<g id="node2" class="node">
<title>Node2</title>
<g id="a_node2"><a xlink:href="classslljit_1_1_parser.html#ae387c9672ec50720d8cb969558aedbe9" target="_top" xlink:title=" ">
<polygon fill="none" stroke="black" points="1173,-42 1173,-72 1287,-72 1287,-42 1173,-42"/>
<text text-anchor="start" x="1181" y="-60" font-family="Helvetica,sans-Serif" font-size="10.00">slljit::Parser::ParseBin</text>
<text text-anchor="middle" x="1230" y="-49" font-family="Helvetica,sans-Serif" font-size="10.00">OpRHS</text>
</a>
</g>
</g>
<!-- Node1&#45;&gt;Node2 -->
<g id="edge1" class="edge">
<title>Node1&#45;&gt;Node2</title>
<path fill="none" stroke="midnightblue" d="M1312.78,-57C1304.1,-57 1295.47,-57 1287.24,-57"/>
<polygon fill="midnightblue" stroke="midnightblue" points="1312.97,-60.5 1322.97,-57 1312.97,-53.5 1312.97,-60.5"/>
</g>
<!-- Node2&#45;&gt;Node2 -->
<g id="edge2" class="edge">
<title>Node2&#45;&gt;Node2</title>
<path fill="none" stroke="midnightblue" d="M1259.5,-82.46C1255.84,-87.18 1246,-90.5 1230,-90.5 1203.74,-90.5 1194.1,-81.56 1201.07,-72.16"/>
<polygon fill="midnightblue" stroke="midnightblue" points="1262.97,-81.95 1258.93,-72.16 1255.98,-82.34 1262.97,-81.95"/>
</g>
<!-- Node3 -->
<g id="node3" class="node">
<title>Node3</title>
<g id="a_node3"><a xlink:href="classslljit_1_1_parser.html#a79461bf414d03dcabb49d3bbd6f89607" target="_top" xlink:title=" ">
<polygon fill="none" stroke="black" points="988,-123.5 988,-142.5 1137,-142.5 1137,-123.5 988,-123.5"/>
<text text-anchor="middle" x="1062.5" y="-130.5" font-family="Helvetica,sans-Serif" font-size="10.00">slljit::Parser::ParseExpression</text>
</a>
</g>
</g>
<!-- Node2&#45;&gt;Node3 -->
<g id="edge3" class="edge">
<title>Node2&#45;&gt;Node3</title>
<path fill="none" stroke="midnightblue" d="M1186.98,-76.3C1154.28,-91.31 1110.27,-111.52 1084.59,-123.32"/>
<polygon fill="midnightblue" stroke="midnightblue" points="1188.68,-79.37 1196.3,-72.02 1185.75,-73.01 1188.68,-79.37"/>
</g>
<!-- Node4 -->
<g id="node4" class="node">
<title>Node4</title>
<g id="a_node4"><a xlink:href="classslljit_1_1_parser.html#acc431005ac3dd38732083d7a1bb0eab2" target="_top" xlink:title=" ">
<polygon fill="none" stroke="black" points="788,-221.5 788,-240.5 952,-240.5 952,-221.5 788,-221.5"/>
<text text-anchor="middle" x="870" y="-228.5" font-family="Helvetica,sans-Serif" font-size="10.00">slljit::Parser::ParseExpressionList</text>
</a>
</g>
</g>
<!-- Node3&#45;&gt;Node4 -->
<g id="edge4" class="edge">
<title>Node3&#45;&gt;Node4</title>
<path fill="none" stroke="midnightblue" d="M1040.68,-148.8C1019.33,-164.44 984.69,-188.27 952,-204 937.44,-211.01 920.6,-216.94 906.05,-221.45"/>
<polygon fill="midnightblue" stroke="midnightblue" points="1043.03,-151.41 1048.98,-142.64 1038.86,-145.79 1043.03,-151.41"/>
</g>
<!-- Node5 -->
<g id="node5" class="node">
<title>Node5</title>
<g id="a_node5"><a xlink:href="classslljit_1_1_parser.html#a81023e7a6221eb6b92027bd21433c9dd" target="_top" xlink:title="forexpr ::= &#39;for&#39; identifier &#39;=&#39; expr &#39;,&#39; expr (&#39;,&#39; expr)? &#39;in&#39; expression">
<polygon fill="none" stroke="black" points="617.5,-268.5 617.5,-287.5 751.5,-287.5 751.5,-268.5 617.5,-268.5"/>
<text text-anchor="middle" x="684.5" y="-275.5" font-family="Helvetica,sans-Serif" font-size="10.00">slljit::Parser::ParseForExpr</text>
</a>
</g>
</g>
<!-- Node3&#45;&gt;Node5 -->
<g id="edge18" class="edge">
<title>Node3&#45;&gt;Node5</title>
<path fill="none" stroke="midnightblue" d="M1050.36,-151.56C1033.07,-178.48 997.04,-227.6 952,-250 889.21,-281.23 807.96,-285.39 751.76,-283.53"/>
<polygon fill="midnightblue" stroke="midnightblue" points="1053.54,-153.07 1055.87,-142.73 1047.6,-149.37 1053.54,-153.07"/>
</g>
<!-- Node8 -->
<g id="node8" class="node">
<title>Node8</title>
<g id="a_node8"><a xlink:href="classslljit_1_1_parser.html#a149f5e88cb03aa08c388e6320c6c1bac" target="_top" xlink:title="ifexpr ::= &#39;if&#39; expression &#39;then&#39; expression &#39;else&#39; expression">
<polygon fill="none" stroke="black" points="622,-180.5 622,-199.5 747,-199.5 747,-180.5 622,-180.5"/>
<text text-anchor="middle" x="684.5" y="-187.5" font-family="Helvetica,sans-Serif" font-size="10.00">slljit::Parser::ParseIfExpr</text>
</a>
</g>
</g>
<!-- Node3&#45;&gt;Node8 -->
<g id="edge21" class="edge">
<title>Node3&#45;&gt;Node8</title>
<path fill="none" stroke="midnightblue" d="M1012.31,-144.8C993.52,-149.04 971.84,-153.61 952,-157 882.15,-168.95 801.3,-178.35 747.13,-184"/>
<polygon fill="midnightblue" stroke="midnightblue" points="1013.17,-148.19 1022.14,-142.55 1011.61,-141.37 1013.17,-148.19"/>
</g>
<!-- Node14 -->
<g id="node14" class="node">
<title>Node14</title>
<g id="a_node14"><a xlink:href="classslljit_1_1_parser.html#a25cfefcbeea85744e23370d3a6f8ad5b" target="_top" xlink:title=" ">
<polygon fill="none" stroke="black" points="792,-104.5 792,-123.5 948,-123.5 948,-104.5 792,-104.5"/>
<text text-anchor="middle" x="870" y="-111.5" font-family="Helvetica,sans-Serif" font-size="10.00">slljit::Parser::ParseIdentifierExpr</text>
</a>
</g>
</g>
<!-- Node3&#45;&gt;Node14 -->
<g id="edge19" class="edge">
<title>Node3&#45;&gt;Node14</title>
<path fill="none" stroke="midnightblue" d="M977.71,-124.64C967.91,-123.67 957.95,-122.67 948.24,-121.7"/>
<polygon fill="midnightblue" stroke="midnightblue" points="977.55,-128.14 987.85,-125.65 978.24,-121.18 977.55,-128.14"/>
</g>
<!-- Node15 -->
<g id="node15" class="node">
<title>Node15</title>
<g id="a_node15"><a xlink:href="classslljit_1_1_parser.html#a6e2e0f6a2cc445f3a956db59c8d2da66" target="_top" xlink:title="parenexpr ::= &#39;(&#39; expression &#39;)&#39;">
<polygon fill="none" stroke="black" points="797,-66.5 797,-85.5 943,-85.5 943,-66.5 797,-66.5"/>
<text text-anchor="middle" x="870" y="-73.5" font-family="Helvetica,sans-Serif" font-size="10.00">slljit::Parser::ParseParenExpr</text>
</a>
</g>
</g>
<!-- Node3&#45;&gt;Node15 -->
<g id="edge22" class="edge">
<title>Node3&#45;&gt;Node15</title>
<path fill="none" stroke="midnightblue" d="M1026.89,-119.96C1005.49,-112.15 977.36,-102.35 952,-95 940.21,-91.58 927.32,-88.34 915.36,-85.53"/>
<polygon fill="midnightblue" stroke="midnightblue" points="1025.92,-123.33 1036.51,-123.5 1028.34,-116.76 1025.92,-123.33"/>
</g>
<!-- Node16 -->
<g id="node16" class="node">
<title>Node16</title>
<g id="a_node16"><a xlink:href="classslljit_1_1_parser.html#a435877d3f2869d140a7cca646546a114" target="_top" xlink:title="varexpr ::= &#39;g_var&#39; identifier (&#39;=&#39; expression)?">
<polygon fill="none" stroke="black" points="617,-142.5 617,-161.5 752,-161.5 752,-142.5 617,-142.5"/>
<text text-anchor="middle" x="684.5" y="-149.5" font-family="Helvetica,sans-Serif" font-size="10.00">slljit::Parser::ParseVarExpr</text>
</a>
</g>
</g>
<!-- Node3&#45;&gt;Node16 -->
<g id="edge24" class="edge">
<title>Node3&#45;&gt;Node16</title>
<path fill="none" stroke="midnightblue" d="M977.41,-137.25C909.45,-140.68 815.08,-145.45 752.23,-148.63"/>
<polygon fill="midnightblue" stroke="midnightblue" points="977.85,-140.73 987.66,-136.73 977.5,-133.74 977.85,-140.73"/>
</g>
<!-- Node4&#45;&gt;Node5 -->
<g id="edge5" class="edge">
<title>Node4&#45;&gt;Node5</title>
<path fill="none" stroke="midnightblue" d="M821.8,-243.09C791.05,-250.97 751.47,-261.1 722.89,-268.42"/>
<polygon fill="midnightblue" stroke="midnightblue" points="823.05,-246.38 831.87,-240.51 821.31,-239.6 823.05,-246.38"/>
</g>
<!-- Node4&#45;&gt;Node8 -->
<g id="edge11" class="edge">
<title>Node4&#45;&gt;Node8</title>
<path fill="none" stroke="midnightblue" d="M816.43,-219.25C788.44,-213 754.47,-205.41 728.15,-199.53"/>
<polygon fill="midnightblue" stroke="midnightblue" points="815.92,-222.73 826.44,-221.49 817.44,-215.89 815.92,-222.73"/>
</g>
<!-- Node9 -->
<g id="node9" class="node">
<title>Node9</title>
<g id="a_node9"><a xlink:href="classslljit_1_1_parser.html#aa9a9ce164e114ad7f347f32329f5a5a2" target="_top" xlink:title="definition ::= &#39;def&#39; prototype expression">
<polygon fill="none" stroke="black" points="626.5,-219 626.5,-249 742.5,-249 742.5,-219 626.5,-219"/>
<text text-anchor="start" x="634.5" y="-237" font-family="Helvetica,sans-Serif" font-size="10.00">slljit::Parser::ParseTop</text>
<text text-anchor="middle" x="684.5" y="-226" font-family="Helvetica,sans-Serif" font-size="10.00">LevelTypedExpression</text>
</a>
</g>
</g>
<!-- Node4&#45;&gt;Node9 -->
<g id="edge13" class="edge">
<title>Node4&#45;&gt;Node9</title>
<path fill="none" stroke="midnightblue" d="M777.92,-232.49C765.92,-232.69 753.91,-232.88 742.7,-233.06"/>
<polygon fill="midnightblue" stroke="midnightblue" points="778.04,-235.99 787.98,-232.32 777.92,-228.99 778.04,-235.99"/>
</g>
<!-- Node6 -->
<g id="node6" class="node">
<title>Node6</title>
<g id="a_node6"><a xlink:href="classslljit_1_1_parser.html#a45cb3e4f600e8e2c253490e7d878e8cd" target="_top" xlink:title=" ">
<polygon fill="none" stroke="black" points="447,-123.5 447,-142.5 581,-142.5 581,-123.5 447,-123.5"/>
<text text-anchor="middle" x="514" y="-130.5" font-family="Helvetica,sans-Serif" font-size="10.00">slljit::Parser::ParsePrimary</text>
</a>
</g>
</g>
<!-- Node5&#45;&gt;Node6 -->
<g id="edge6" class="edge">
<title>Node5&#45;&gt;Node6</title>
<path fill="none" stroke="midnightblue" d="M626.05,-264.38C622.88,-262.78 619.84,-260.99 617,-259 594.6,-243.26 597.99,-230.47 581,-209 561.48,-184.34 536.78,-156.78 523.84,-142.6"/>
<polygon fill="midnightblue" stroke="midnightblue" points="624.66,-267.59 635.23,-268.41 627.48,-261.18 624.66,-267.59"/>
</g>
<!-- Node7 -->
<g id="node7" class="node">
<title>Node7</title>
<g id="a_node7"><a xlink:href="classslljit_1_1_parser.html#af8579896f39ac563d2edd14404d70f41" target="_top" xlink:title=" ">
<polygon fill="none" stroke="black" points="286,-28.5 286,-47.5 411,-47.5 411,-28.5 286,-28.5"/>
<text text-anchor="middle" x="348.5" y="-35.5" font-family="Helvetica,sans-Serif" font-size="10.00">slljit::Parser::ParseUnary</text>
</a>
</g>
</g>
<!-- Node6&#45;&gt;Node7 -->
<g id="edge7" class="edge">
<title>Node6&#45;&gt;Node7</title>
<path fill="none" stroke="midnightblue" d="M487.59,-118.23C453.74,-98.57 394.8,-64.32 366.12,-47.66"/>
<polygon fill="midnightblue" stroke="midnightblue" points="486.02,-121.37 496.42,-123.37 489.53,-115.32 486.02,-121.37"/>
</g>
<!-- Node7&#45;&gt;Node2 -->
<g id="edge8" class="edge">
<title>Node7&#45;&gt;Node2</title>
<path fill="none" stroke="midnightblue" d="M411.02,-26.77C477.85,-15.56 587.88,0 683.5,0 871,0 871,0 871,0 978.78,0 1102.56,-25.51 1172.71,-42.4"/>
<polygon fill="midnightblue" stroke="midnightblue" points="410.35,-23.33 401.07,-28.46 411.52,-30.24 410.35,-23.33"/>
</g>
<!-- Node7&#45;&gt;Node3 -->
<g id="edge9" class="edge">
<title>Node7&#45;&gt;Node3</title>
<path fill="none" stroke="midnightblue" d="M421.14,-35.21C558.88,-30.67 855.54,-25.13 952,-57 993.97,-70.87 1034.27,-106.35 1052.02,-123.47"/>
<polygon fill="midnightblue" stroke="midnightblue" points="420.98,-31.71 411.1,-35.55 421.21,-38.71 420.98,-31.71"/>
</g>
<!-- Node7&#45;&gt;Node7 -->
<g id="edge10" class="edge">
<title>Node7&#45;&gt;Node7</title>
<path fill="none" stroke="midnightblue" d="M375.75,-56.65C374.61,-61.94 365.53,-66 348.5,-66 322.55,-66 315.05,-56.57 326,-47.76"/>
<polygon fill="midnightblue" stroke="midnightblue" points="378.8,-54.93 371,-47.76 372.62,-58.23 378.8,-54.93"/>
</g>
<!-- Node8&#45;&gt;Node6 -->
<g id="edge12" class="edge">
<title>Node8&#45;&gt;Node6</title>
<path fill="none" stroke="midnightblue" d="M638.46,-177.65C631.25,-175.52 623.9,-173.27 617,-171 590.07,-162.15 559.68,-150.63 539.13,-142.6"/>
<polygon fill="midnightblue" stroke="midnightblue" points="637.56,-181.03 648.14,-180.45 639.51,-174.31 637.56,-181.03"/>
</g>
<!-- Node10 -->
<g id="node10" class="node">
<title>Node10</title>
<g id="a_node10"><a xlink:href="classslljit_1_1_parser.html#af0cac4623fc05b8b7ae9884b0aeb3d3f" target="_top" xlink:title=" ">
<polygon fill="none" stroke="black" points="448.5,-219 448.5,-249 579.5,-249 579.5,-219 448.5,-219"/>
<text text-anchor="start" x="456.5" y="-237" font-family="Helvetica,sans-Serif" font-size="10.00">slljit::Parser::HandleTyped</text>
<text text-anchor="middle" x="514" y="-226" font-family="Helvetica,sans-Serif" font-size="10.00">Expression</text>
</a>
</g>
</g>
<!-- Node9&#45;&gt;Node10 -->
<g id="edge14" class="edge">
<title>Node9&#45;&gt;Node10</title>
<path fill="none" stroke="midnightblue" d="M616.39,-234C604.24,-234 591.6,-234 579.53,-234"/>
<polygon fill="midnightblue" stroke="midnightblue" points="616.45,-237.5 626.45,-234 616.45,-230.5 616.45,-237.5"/>
</g>
<!-- Node11 -->
<g id="node11" class="node">
<title>Node11</title>
<g id="a_node11"><a xlink:href="classslljit_1_1_parser.html#ae2d3d6534b87da7f237c19129a464bda" target="_top" xlink:title="top ::= definition | external | expression | &#39;;&#39;">
<polygon fill="none" stroke="black" points="290.5,-224.5 290.5,-243.5 406.5,-243.5 406.5,-224.5 290.5,-224.5"/>
<text text-anchor="middle" x="348.5" y="-231.5" font-family="Helvetica,sans-Serif" font-size="10.00">slljit::Parser::MainLoop</text>
</a>
</g>
</g>
<!-- Node10&#45;&gt;Node11 -->
<g id="edge15" class="edge">
<title>Node10&#45;&gt;Node11</title>
<path fill="none" stroke="midnightblue" d="M438.23,-234C427.57,-234 416.75,-234 406.5,-234"/>
<polygon fill="midnightblue" stroke="midnightblue" points="438.38,-237.5 448.38,-234 438.38,-230.5 438.38,-237.5"/>
</g>
<!-- Node12 -->
<g id="node12" class="node">
<title>Node12</title>
<g id="a_node12"><a xlink:href="classslljit_1_1_parser.html#a2429935f3c870648f9f895a7b2361cfb" target="_top" xlink:title=" ">
<polygon fill="none" stroke="black" points="152,-224.5 152,-243.5 250,-243.5 250,-224.5 152,-224.5"/>
<text text-anchor="middle" x="201" y="-231.5" font-family="Helvetica,sans-Serif" font-size="10.00">slljit::Parser::parse</text>
</a>
</g>
</g>
<!-- Node11&#45;&gt;Node12 -->
<g id="edge16" class="edge">
<title>Node11&#45;&gt;Node12</title>
<path fill="none" stroke="midnightblue" d="M280.39,-234C270.3,-234 260.05,-234 250.45,-234"/>
<polygon fill="midnightblue" stroke="midnightblue" points="280.41,-237.5 290.41,-234 280.41,-230.5 280.41,-237.5"/>
</g>
<!-- Node13 -->
<g id="node13" class="node">
<title>Node13</title>
<g id="a_node13"><a xlink:href="classslljit_1_1_program.html#ae4d26526a7dd9c69ebe92fb43736696b" target="_top" xlink:title=" ">
<polygon fill="none" stroke="black" points="0,-224.5 0,-243.5 116,-243.5 116,-224.5 0,-224.5"/>
<text text-anchor="middle" x="58" y="-231.5" font-family="Helvetica,sans-Serif" font-size="10.00">slljit::Program::compile</text>
</a>
</g>
</g>
<!-- Node12&#45;&gt;Node13 -->
<g id="edge17" class="edge">
<title>Node12&#45;&gt;Node13</title>
<path fill="none" stroke="midnightblue" d="M141.72,-234C133.27,-234 124.58,-234 116.16,-234"/>
<polygon fill="midnightblue" stroke="midnightblue" points="141.87,-237.5 151.87,-234 141.87,-230.5 141.87,-237.5"/>
</g>
<!-- Node14&#45;&gt;Node6 -->
<g id="edge20" class="edge">
<title>Node14&#45;&gt;Node6</title>
<path fill="none" stroke="midnightblue" d="M781.59,-118.69C719.59,-122.02 637.67,-126.42 581.08,-129.45"/>
<polygon fill="midnightblue" stroke="midnightblue" points="781.95,-122.18 791.75,-118.15 781.58,-115.19 781.95,-122.18"/>
</g>
<!-- Node15&#45;&gt;Node6 -->
<g id="edge23" class="edge">
<title>Node15&#45;&gt;Node6</title>
<path fill="none" stroke="midnightblue" d="M799.48,-87.19C733.77,-97.77 636.23,-113.48 574.15,-123.48"/>
<polygon fill="midnightblue" stroke="midnightblue" points="800.43,-90.59 809.75,-85.54 799.32,-83.67 800.43,-90.59"/>
</g>
<!-- Node16&#45;&gt;Node6 -->
<g id="edge25" class="edge">
<title>Node16&#45;&gt;Node6</title>
<path fill="none" stroke="midnightblue" d="M606.88,-143.36C598.27,-142.39 589.57,-141.41 581.11,-140.45"/>
<polygon fill="midnightblue" stroke="midnightblue" points="606.58,-146.85 616.9,-144.49 607.36,-139.89 606.58,-146.85"/>
</g>
</g>
</svg>
