<?xml version="1.0" encoding="UTF-8" standalone="no"?>
<!DOCTYPE svg PUBLIC "-//W3C//DTD SVG 1.1//EN"
 "http://www.w3.org/Graphics/SVG/1.1/DTD/svg11.dtd">
<!-- Generated by graphviz version 3.0.0 (20220226.1711)
 -->
<!-- Title: slljit::LocalContext::getContext Pages: 1 -->
<svg width="439pt" height="470pt"
 viewBox="0.00 0.00 439.00 469.50" xmlns="http://www.w3.org/2000/svg" xmlns:xlink="http://www.w3.org/1999/xlink">
<g id="graph0" class="graph" transform="scale(1 1) rotate(0) translate(4 465.5)">
<title>slljit::LocalContext::getContext</title>
<!-- Node1 -->
<g id="node1" class="node">
<title>Node1</title>
<g id="a_node1"><a xlink:title=" ">
<polygon fill="#bfbfbf" stroke="black" points="334,-220.5 334,-250.5 431,-250.5 431,-220.5 334,-220.5"/>
<text text-anchor="start" x="342" y="-238.5" font-family="Helvetica,sans-Serif" font-size="10.00">slljit::LocalContext</text>
<text text-anchor="middle" x="382.5" y="-227.5" font-family="Helvetica,sans-Serif" font-size="10.00">::getContext</text>
</a>
</g>
</g>
<!-- Node2 -->
<g id="node2" class="node">
<title>Node2</title>
<g id="a_node2"><a xlink:href="classslljit_1_1_no_op_a_s_t.html#aa814bbbf82fcdbecae7cfc60ddf531e5" target="_top" xlink:title=" ">
<polygon fill="none" stroke="black" points="162,-442 162,-461 288,-461 288,-442 162,-442"/>
<text text-anchor="middle" x="225" y="-449" font-family="Helvetica,sans-Serif" font-size="10.00">slljit::NoOpAST::codegen</text>
</a>
</g>
</g>
<!-- Node1&#45;&gt;Node2 -->
<g id="edge1" class="edge">
<title>Node1&#45;&gt;Node2</title>
<path fill="none" stroke="midnightblue" d="M378.04,-260.67C370.9,-302.68 350.56,-386.96 298,-432.5 293.51,-436.39 288.3,-439.5 282.79,-441.98"/>
<polygon fill="midnightblue" stroke="midnightblue" points="381.51,-261.14 379.61,-250.71 374.59,-260.04 381.51,-261.14"/>
</g>
<!-- Node3 -->
<g id="node3" class="node">
<title>Node3</title>
<g id="a_node3"><a xlink:href="classslljit_1_1_number_expr_a_s_t.html#ad79c11f8409e5546997b0a45df15c400" target="_top" xlink:title=" ">
<polygon fill="none" stroke="black" points="168.5,-392.5 168.5,-422.5 281.5,-422.5 281.5,-392.5 168.5,-392.5"/>
<text text-anchor="start" x="176.5" y="-410.5" font-family="Helvetica,sans-Serif" font-size="10.00">slljit::NumberExprAST</text>
<text text-anchor="middle" x="225" y="-399.5" font-family="Helvetica,sans-Serif" font-size="10.00">::codegen</text>
</a>
</g>
</g>
<!-- Node1&#45;&gt;Node3 -->
<g id="edge2" class="edge">
<title>Node1&#45;&gt;Node3</title>
<path fill="none" stroke="midnightblue" d="M373.69,-260.68C362.24,-293.52 337.85,-350.65 298,-383.5 293.12,-387.52 287.54,-390.88 281.69,-393.68"/>
<polygon fill="midnightblue" stroke="midnightblue" points="377.09,-261.53 376.95,-250.93 370.46,-259.3 377.09,-261.53"/>
</g>
<!-- Node4 -->
<g id="node4" class="node">
<title>Node4</title>
<g id="a_node4"><a xlink:href="classslljit_1_1_binary_expr_a_s_t.html#a4e15cb62043e37beafadeb7faf94d7ba" target="_top" xlink:title=" ">
<polygon fill="none" stroke="black" points="171.5,-343.5 171.5,-373.5 278.5,-373.5 278.5,-343.5 171.5,-343.5"/>
<text text-anchor="start" x="179.5" y="-361.5" font-family="Helvetica,sans-Serif" font-size="10.00">slljit::BinaryExprAST</text>
<text text-anchor="middle" x="225" y="-350.5" font-family="Helvetica,sans-Serif" font-size="10.00">::codegen</text>
</a>
</g>
</g>
<!-- Node1&#45;&gt;Node4 -->
<g id="edge3" class="edge">
<title>Node1&#45;&gt;Node4</title>
<path fill="none" stroke="midnightblue" d="M366.9,-259.44C352.1,-281.8 327.28,-314.65 298,-334.5 292.11,-338.49 285.5,-341.87 278.74,-344.71"/>
<polygon fill="midnightblue" stroke="midnightblue" points="369.95,-261.15 372.42,-250.85 364.07,-257.36 369.95,-261.15"/>
</g>
<!-- Node5 -->
<g id="node5" class="node">
<title>Node5</title>
<g id="a_node5"><a xlink:href="classslljit_1_1_if_expr_a_s_t.html#a376bb50f865a795316ebf0710b4ac135" target="_top" xlink:title=" ">
<polygon fill="none" stroke="black" points="180.5,-294.5 180.5,-324.5 269.5,-324.5 269.5,-294.5 180.5,-294.5"/>
<text text-anchor="start" x="188.5" y="-312.5" font-family="Helvetica,sans-Serif" font-size="10.00">slljit::IfExprAST::</text>
<text text-anchor="middle" x="225" y="-301.5" font-family="Helvetica,sans-Serif" font-size="10.00">codegen</text>
</a>
</g>
</g>
<!-- Node1&#45;&gt;Node5 -->
<g id="edge4" class="edge">
<title>Node1&#45;&gt;Node5</title>
<path fill="none" stroke="midnightblue" d="M350.61,-256.2C335.23,-265.93 316.1,-277.19 298,-285.5 289.02,-289.63 279.12,-293.39 269.61,-296.66"/>
<polygon fill="midnightblue" stroke="midnightblue" points="352.67,-259.03 359.19,-250.68 348.89,-253.15 352.67,-259.03"/>
</g>
<!-- Node6 -->
<g id="node6" class="node">
<title>Node6</title>
<g id="a_node6"><a xlink:href="classslljit_1_1_for_expr_a_s_t.html#a0e8a98570a1b8c55617ee52b41922289" target="_top" xlink:title=" ">
<polygon fill="none" stroke="black" points="178.5,-245.5 178.5,-275.5 271.5,-275.5 271.5,-245.5 178.5,-245.5"/>
<text text-anchor="start" x="186.5" y="-263.5" font-family="Helvetica,sans-Serif" font-size="10.00">slljit::ForExprAST</text>
<text text-anchor="middle" x="225" y="-252.5" font-family="Helvetica,sans-Serif" font-size="10.00">::codegen</text>
</a>
</g>
</g>
<!-- Node1&#45;&gt;Node6 -->
<g id="edge5" class="edge">
<title>Node1&#45;&gt;Node6</title>
<path fill="none" stroke="midnightblue" d="M324.02,-244.74C306.73,-247.52 288.01,-250.53 271.61,-253.17"/>
<polygon fill="midnightblue" stroke="midnightblue" points="324.68,-248.18 334,-243.14 323.57,-241.27 324.68,-248.18"/>
</g>
<!-- Node7 -->
<g id="node7" class="node">
<title>Node7</title>
<g id="a_node7"><a xlink:href="classslljit_1_1_var_expr_a_s_t.html#a6898396b719dec46fd30ab9cc9dfb7ac" target="_top" xlink:title=" ">
<polygon fill="none" stroke="black" points="178,-196.5 178,-226.5 272,-226.5 272,-196.5 178,-196.5"/>
<text text-anchor="start" x="186" y="-214.5" font-family="Helvetica,sans-Serif" font-size="10.00">slljit::VarExprAST</text>
<text text-anchor="middle" x="225" y="-203.5" font-family="Helvetica,sans-Serif" font-size="10.00">::codegen</text>
</a>
</g>
</g>
<!-- Node1&#45;&gt;Node7 -->
<g id="edge6" class="edge">
<title>Node1&#45;&gt;Node7</title>
<path fill="none" stroke="midnightblue" d="M324.11,-226.64C306.99,-224 288.45,-221.14 272.14,-218.62"/>
<polygon fill="midnightblue" stroke="midnightblue" points="323.58,-230.1 334,-228.17 324.65,-223.18 323.58,-230.1"/>
</g>
<!-- Node8 -->
<g id="node8" class="node">
<title>Node8</title>
<g id="a_node8"><a xlink:href="classslljit_1_1_prototype_a_s_t.html#a1d3904bd14007f251959a6d795fe5564" target="_top" xlink:title=" ">
<polygon fill="none" stroke="black" points="174.5,-147.5 174.5,-177.5 275.5,-177.5 275.5,-147.5 174.5,-147.5"/>
<text text-anchor="start" x="182.5" y="-165.5" font-family="Helvetica,sans-Serif" font-size="10.00">slljit::PrototypeAST</text>
<text text-anchor="middle" x="225" y="-154.5" font-family="Helvetica,sans-Serif" font-size="10.00">::codegen</text>
</a>
</g>
</g>
<!-- Node1&#45;&gt;Node8 -->
<g id="edge7" class="edge">
<title>Node1&#45;&gt;Node8</title>
<path fill="none" stroke="midnightblue" d="M349.48,-215.2C334.24,-206.04 315.55,-195.51 298,-187.5 290.17,-183.93 281.68,-180.56 273.36,-177.52"/>
<polygon fill="midnightblue" stroke="midnightblue" points="347.65,-218.19 358.01,-220.41 351.3,-212.22 347.65,-218.19"/>
</g>
<!-- Node9 -->
<g id="node9" class="node">
<title>Node9</title>
<g id="a_node9"><a xlink:href="classslljit_1_1_function_a_s_t.html#ad9580c93bf3b4c4cdce1606d2e1a7be5" target="_top" xlink:title=" ">
<polygon fill="none" stroke="black" points="177,-98.5 177,-128.5 273,-128.5 273,-98.5 177,-98.5"/>
<text text-anchor="start" x="185" y="-116.5" font-family="Helvetica,sans-Serif" font-size="10.00">slljit::FunctionAST</text>
<text text-anchor="middle" x="225" y="-105.5" font-family="Helvetica,sans-Serif" font-size="10.00">::codegen</text>
</a>
</g>
</g>
<!-- Node1&#45;&gt;Node9 -->
<g id="edge8" class="edge">
<title>Node1&#45;&gt;Node9</title>
<path fill="none" stroke="midnightblue" d="M366.48,-211.77C351.54,-189.93 326.75,-158.05 298,-138.5 290.45,-133.37 281.74,-129.18 273.04,-125.81"/>
<polygon fill="midnightblue" stroke="midnightblue" points="363.62,-213.79 372.08,-220.17 369.44,-209.9 363.62,-213.79"/>
</g>
<!-- Node10 -->
<g id="node10" class="node">
<title>Node10</title>
<g id="a_node10"><a xlink:href="classslljit_1_1_code_gen.html#a0a1cd67519cb6405422e53cc87a1eb87" target="_top" xlink:title=" ">
<polygon fill="none" stroke="black" points="165,-49.5 165,-79.5 285,-79.5 285,-49.5 165,-49.5"/>
<text text-anchor="start" x="173" y="-67.5" font-family="Helvetica,sans-Serif" font-size="10.00">slljit::CodeGen::compile</text>
<text text-anchor="middle" x="225" y="-56.5" font-family="Helvetica,sans-Serif" font-size="10.00">_layout</text>
</a>
</g>
</g>
<!-- Node1&#45;&gt;Node10 -->
<g id="edge9" class="edge">
<title>Node1&#45;&gt;Node10</title>
<path fill="none" stroke="midnightblue" d="M373.53,-210.73C361.92,-178.41 337.33,-122.14 298,-89.5 293.32,-85.61 287.99,-82.32 282.41,-79.52"/>
<polygon fill="midnightblue" stroke="midnightblue" points="370.27,-212.02 376.85,-220.32 376.89,-209.73 370.27,-212.02"/>
</g>
<!-- Node12 -->
<g id="node12" class="node">
<title>Node12</title>
<g id="a_node12"><a xlink:href="structslljit_1_1_constant_global_definition.html#ae4448484f0147ba508124fb4d23d3630" target="_top" xlink:title=" ">
<polygon fill="none" stroke="black" points="152,-0.5 152,-30.5 298,-30.5 298,-0.5 152,-0.5"/>
<text text-anchor="start" x="160" y="-18.5" font-family="Helvetica,sans-Serif" font-size="10.00">slljit::ConstantGlobalDefinition</text>
<text text-anchor="middle" x="225" y="-7.5" font-family="Helvetica,sans-Serif" font-size="10.00">::get_init_val</text>
</a>
</g>
</g>
<!-- Node1&#45;&gt;Node12 -->
<g id="edge11" class="edge">
<title>Node1&#45;&gt;Node12</title>
<path fill="none" stroke="midnightblue" d="M377.47,-210.44C369.56,-169.29 348.2,-87.29 298,-40.5 293.84,-36.62 289.04,-33.34 283.94,-30.56"/>
<polygon fill="midnightblue" stroke="midnightblue" points="374.05,-211.22 379.28,-220.44 380.94,-209.98 374.05,-211.22"/>
</g>
<!-- Node11 -->
<g id="node11" class="node">
<title>Node11</title>
<g id="a_node11"><a xlink:href="classslljit_1_1_program.html#ae4d26526a7dd9c69ebe92fb43736696b" target="_top" xlink:title=" ">
<polygon fill="none" stroke="black" points="0,-55 0,-74 116,-74 116,-55 0,-55"/>
<text text-anchor="middle" x="58" y="-62" font-family="Helvetica,sans-Serif" font-size="10.00">slljit::Program::compile</text>
</a>
</g>
</g>
<!-- Node10&#45;&gt;Node11 -->
<g id="edge10" class="edge">
<title>Node10&#45;&gt;Node11</title>
<path fill="none" stroke="midnightblue" d="M154.69,-64.5C141.81,-64.5 128.49,-64.5 116.03,-64.5"/>
<polygon fill="midnightblue" stroke="midnightblue" points="154.9,-68 164.9,-64.5 154.9,-61 154.9,-68"/>
</g>
</g>
</svg>
