<?xml version="1.0" encoding="UTF-8" standalone="no"?>
<!DOCTYPE svg PUBLIC "-//W3C//DTD SVG 1.1//EN"
 "http://www.w3.org/Graphics/SVG/1.1/DTD/svg11.dtd">
<!-- Generated by graphviz version 3.0.0 (20220226.1711)
 -->
<!-- Title: slljit::Parser::ParsePrototype Pages: 1 -->
<svg width="622pt" height="342pt"
 viewBox="0.00 0.00 622.00 342.00" xmlns="http://www.w3.org/2000/svg" xmlns:xlink="http://www.w3.org/1999/xlink">
<g id="graph0" class="graph" transform="scale(1 1) rotate(0) translate(4 338)">
<title>slljit::Parser::ParsePrototype</title>
<!-- Node1 -->
<g id="node1" class="node">
<title>Node1</title>
<g id="a_node1"><a xlink:title=" ">
<polygon fill="#bfbfbf" stroke="black" points="0,-221 0,-240 142,-240 142,-221 0,-221"/>
<text text-anchor="middle" x="71" y="-228" font-family="Helvetica,sans-Serif" font-size="10.00">slljit::Parser::ParsePrototype</text>
</a>
</g>
</g>
<!-- Node2 -->
<g id="node2" class="node">
<title>Node2</title>
<g id="a_node2"><a xlink:href="classslljit_1_1_tokenizer.html#a6270acd003b9e0a1323c1fdd54cd2fe2" target="_top" xlink:title=" ">
<polygon fill="none" stroke="black" points="201,-303.5 201,-333.5 289,-333.5 289,-303.5 201,-303.5"/>
<text text-anchor="start" x="209" y="-321.5" font-family="Helvetica,sans-Serif" font-size="10.00">slljit::Tokenizer::</text>
<text text-anchor="middle" x="245" y="-310.5" font-family="Helvetica,sans-Serif" font-size="10.00">get_identifier</text>
</a>
</g>
</g>
<!-- Node1&#45;&gt;Node2 -->
<g id="edge1" class="edge">
<title>Node1&#45;&gt;Node2</title>
<path fill="none" stroke="midnightblue" d="M88.69,-240.13C109.4,-251.97 145.92,-272.46 178,-288.5 185.12,-292.06 192.76,-295.7 200.22,-299.15"/>
<polygon fill="midnightblue" stroke="midnightblue" points="198.97,-302.43 209.52,-303.41 201.88,-296.06 198.97,-302.43"/>
</g>
<!-- Node3 -->
<g id="node3" class="node">
<title>Node3</title>
<g id="a_node3"><a xlink:href="classslljit_1_1_tokenizer.html#a0baa2e9dbe626f0475ee4206f16bbb4e" target="_top" xlink:title=" ">
<polygon fill="none" stroke="black" points="348,-224.5 348,-254.5 452,-254.5 452,-224.5 348,-224.5"/>
<text text-anchor="start" x="356" y="-242.5" font-family="Helvetica,sans-Serif" font-size="10.00">slljit::Tokenizer::</text>
<text text-anchor="middle" x="400" y="-231.5" font-family="Helvetica,sans-Serif" font-size="10.00">get_source_location</text>
</a>
</g>
</g>
<!-- Node1&#45;&gt;Node3 -->
<g id="edge2" class="edge">
<title>Node1&#45;&gt;Node3</title>
<path fill="none" stroke="midnightblue" d="M104.13,-240.13C124.97,-245.86 152.83,-252.57 178,-255.5 237.16,-262.38 252.69,-260.91 312,-255.5 320.35,-254.74 329.1,-253.57 337.7,-252.21"/>
<polygon fill="midnightblue" stroke="midnightblue" points="338.41,-255.64 347.69,-250.53 337.25,-248.74 338.41,-255.64"/>
</g>
<!-- Node4 -->
<g id="node4" class="node">
<title>Node4</title>
<g id="a_node4"><a xlink:href="classslljit_1_1_tokenizer.html#a9dcee05dc292fa291e6b9644d12c1907" target="_top" xlink:title=" ">
<polygon fill="none" stroke="black" points="197.5,-215.5 197.5,-245.5 292.5,-245.5 292.5,-215.5 197.5,-215.5"/>
<text text-anchor="start" x="205.5" y="-233.5" font-family="Helvetica,sans-Serif" font-size="10.00">slljit::Tokenizer::</text>
<text text-anchor="middle" x="245" y="-222.5" font-family="Helvetica,sans-Serif" font-size="10.00">get_type_identifier</text>
</a>
</g>
</g>
<!-- Node1&#45;&gt;Node4 -->
<g id="edge3" class="edge">
<title>Node1&#45;&gt;Node4</title>
<path fill="none" stroke="midnightblue" d="M142.46,-230.5C157.31,-230.5 172.81,-230.5 187.09,-230.5"/>
<polygon fill="midnightblue" stroke="midnightblue" points="187.25,-234 197.25,-230.5 187.25,-227 187.25,-234"/>
</g>
<!-- Node5 -->
<g id="node5" class="node">
<title>Node5</title>
<g id="a_node5"><a xlink:href="classslljit_1_1_parser.html#a9fcfefd86a6000dcb40fa737361ea55b" target="_top" xlink:title="GetTokPrecedence &#45; Get the precedence of the pending binary operator token.">
<polygon fill="none" stroke="black" points="178,-128 178,-147 312,-147 312,-128 178,-128"/>
<text text-anchor="middle" x="245" y="-135" font-family="Helvetica,sans-Serif" font-size="10.00">slljit::Parser::getNextToken</text>
</a>
</g>
</g>
<!-- Node1&#45;&gt;Node5 -->
<g id="edge4" class="edge">
<title>Node1&#45;&gt;Node5</title>
<path fill="none" stroke="midnightblue" d="M83.34,-220.91C101.98,-205.57 140.75,-175.43 178,-157.5 183.59,-154.81 189.63,-152.39 195.69,-150.23"/>
<polygon fill="midnightblue" stroke="midnightblue" points="196.81,-153.55 205.2,-147.08 194.61,-146.91 196.81,-153.55"/>
</g>
<!-- Node13 -->
<g id="node13" class="node">
<title>Node13</title>
<g id="a_node13"><a xlink:href="classslljit_1_1_parser.html#acad3f159608acb847e0f693fc07fdd28" target="_top" xlink:title=" ">
<polygon fill="none" stroke="black" points="197.5,-166.5 197.5,-196.5 292.5,-196.5 292.5,-166.5 197.5,-166.5"/>
<text text-anchor="start" x="205.5" y="-184.5" font-family="Helvetica,sans-Serif" font-size="10.00">slljit::Parser::push</text>
<text text-anchor="middle" x="245" y="-173.5" font-family="Helvetica,sans-Serif" font-size="10.00">_var_into_scope</text>
</a>
</g>
</g>
<!-- Node1&#45;&gt;Node13 -->
<g id="edge13" class="edge">
<title>Node1&#45;&gt;Node13</title>
<path fill="none" stroke="midnightblue" d="M105.57,-220.94C128.82,-214.31 160.33,-205.34 187.42,-197.62"/>
<polygon fill="midnightblue" stroke="midnightblue" points="188.52,-200.95 197.18,-194.84 186.6,-194.21 188.52,-200.95"/>
</g>
<!-- Node6 -->
<g id="node6" class="node">
<title>Node6</title>
<g id="a_node6"><a xlink:href="classslljit_1_1_tokenizer.html#a4f0b343321f5e4561a80e47a5cec05d2" target="_top" xlink:title=" ">
<polygon fill="none" stroke="black" points="356,-122.5 356,-152.5 444,-152.5 444,-122.5 356,-122.5"/>
<text text-anchor="start" x="364" y="-140.5" font-family="Helvetica,sans-Serif" font-size="10.00">slljit::Tokenizer::</text>
<text text-anchor="middle" x="400" y="-129.5" font-family="Helvetica,sans-Serif" font-size="10.00">gettok</text>
</a>
</g>
</g>
<!-- Node5&#45;&gt;Node6 -->
<g id="edge5" class="edge">
<title>Node5&#45;&gt;Node6</title>
<path fill="none" stroke="midnightblue" d="M312.22,-137.5C323.36,-137.5 334.79,-137.5 345.56,-137.5"/>
<polygon fill="midnightblue" stroke="midnightblue" points="345.64,-141 355.64,-137.5 345.64,-134 345.64,-141"/>
</g>
<!-- Node6&#45;&gt;Node6 -->
<g id="edge7" class="edge">
<title>Node6&#45;&gt;Node6</title>
<path fill="none" stroke="midnightblue" d="M373.86,-152.66C367.56,-162.06 376.27,-171 400,-171 414.46,-171 423.35,-167.68 426.65,-162.96"/>
<polygon fill="midnightblue" stroke="midnightblue" points="430.13,-162.47 426.14,-152.66 423.14,-162.82 430.13,-162.47"/>
</g>
<!-- Node7 -->
<g id="node7" class="node">
<title>Node7</title>
<g id="a_node7"><a xlink:href="classslljit_1_1_tokenizer.html#aebe79ebb0da26fa5e89963683d474402" target="_top" xlink:title=" ">
<polygon fill="none" stroke="black" points="507,-245.5 507,-275.5 595,-275.5 595,-245.5 507,-245.5"/>
<text text-anchor="start" x="515" y="-263.5" font-family="Helvetica,sans-Serif" font-size="10.00">slljit::Tokenizer::</text>
<text text-anchor="middle" x="551" y="-252.5" font-family="Helvetica,sans-Serif" font-size="10.00">_getchar</text>
</a>
</g>
</g>
<!-- Node6&#45;&gt;Node7 -->
<g id="edge6" class="edge">
<title>Node6&#45;&gt;Node7</title>
<path fill="none" stroke="midnightblue" d="M410.76,-152.62C425.26,-173.99 454.42,-213.05 488,-236.5 491.07,-238.64 494.35,-240.63 497.75,-242.46"/>
<polygon fill="midnightblue" stroke="midnightblue" points="496.41,-245.7 506.93,-246.96 499.49,-239.41 496.41,-245.7"/>
</g>
<!-- Node8 -->
<g id="node8" class="node">
<title>Node8</title>
<g id="a_node8"><a xlink:href="classslljit_1_1_tokenizer.html#ac5b5748065cb054e0f34d995d1f3edce" target="_top" xlink:title=" ">
<polygon fill="none" stroke="black" points="507,-196.5 507,-226.5 595,-226.5 595,-196.5 507,-196.5"/>
<text text-anchor="start" x="515" y="-214.5" font-family="Helvetica,sans-Serif" font-size="10.00">slljit::Tokenizer::</text>
<text text-anchor="middle" x="551" y="-203.5" font-family="Helvetica,sans-Serif" font-size="10.00">is_id_char</text>
</a>
</g>
</g>
<!-- Node6&#45;&gt;Node8 -->
<g id="edge8" class="edge">
<title>Node6&#45;&gt;Node8</title>
<path fill="none" stroke="midnightblue" d="M424.84,-152.52C442.04,-163.02 465.99,-176.99 488,-187.5 491.59,-189.21 495.33,-190.9 499.13,-192.54"/>
<polygon fill="midnightblue" stroke="midnightblue" points="498.03,-195.87 508.61,-196.49 500.72,-189.41 498.03,-195.87"/>
</g>
<!-- Node9 -->
<g id="node9" class="node">
<title>Node9</title>
<g id="a_node9"><a xlink:href="classslljit_1_1_tokenizer.html#afddb21e93063a4c2338c2d42e23d18d2" target="_top" xlink:title=" ">
<polygon fill="none" stroke="black" points="507,-147.5 507,-177.5 595,-177.5 595,-147.5 507,-147.5"/>
<text text-anchor="start" x="515" y="-165.5" font-family="Helvetica,sans-Serif" font-size="10.00">slljit::Tokenizer::</text>
<text text-anchor="middle" x="551" y="-154.5" font-family="Helvetica,sans-Serif" font-size="10.00">is_id_start_char</text>
</a>
</g>
</g>
<!-- Node6&#45;&gt;Node9 -->
<g id="edge9" class="edge">
<title>Node6&#45;&gt;Node9</title>
<path fill="none" stroke="midnightblue" d="M444.1,-144.73C460.62,-147.5 479.67,-150.7 497.02,-153.61"/>
<polygon fill="midnightblue" stroke="midnightblue" points="496.56,-157.08 507,-155.29 497.72,-150.18 496.56,-157.08"/>
</g>
<!-- Node10 -->
<g id="node10" class="node">
<title>Node10</title>
<g id="a_node10"><a xlink:href="classslljit_1_1_tokenizer.html#ada986d1651ab242c370288c198cd726d" target="_top" xlink:title=" ">
<polygon fill="none" stroke="black" points="488,-98.5 488,-128.5 614,-128.5 614,-98.5 488,-98.5"/>
<text text-anchor="start" x="496" y="-116.5" font-family="Helvetica,sans-Serif" font-size="10.00">slljit::Tokenizer::</text>
<text text-anchor="middle" x="551" y="-105.5" font-family="Helvetica,sans-Serif" font-size="10.00">is_reserved_command_id</text>
</a>
</g>
</g>
<!-- Node6&#45;&gt;Node10 -->
<g id="edge10" class="edge">
<title>Node6&#45;&gt;Node10</title>
<path fill="none" stroke="midnightblue" d="M444.1,-130.56C454.67,-128.86 466.27,-126.99 477.8,-125.13"/>
<polygon fill="midnightblue" stroke="midnightblue" points="478.56,-128.55 487.88,-123.51 477.45,-121.64 478.56,-128.55"/>
</g>
<!-- Node11 -->
<g id="node11" class="node">
<title>Node11</title>
<g id="a_node11"><a xlink:href="classslljit_1_1_tokenizer.html#ab29a7d2f06bb354a3f748106f5ea3e6c" target="_top" xlink:title=" ">
<polygon fill="none" stroke="black" points="506.5,-49.5 506.5,-79.5 595.5,-79.5 595.5,-49.5 506.5,-49.5"/>
<text text-anchor="start" x="514.5" y="-67.5" font-family="Helvetica,sans-Serif" font-size="10.00">slljit::Tokenizer::</text>
<text text-anchor="middle" x="551" y="-56.5" font-family="Helvetica,sans-Serif" font-size="10.00">is_special_literal</text>
</a>
</g>
</g>
<!-- Node6&#45;&gt;Node11 -->
<g id="edge11" class="edge">
<title>Node6&#45;&gt;Node11</title>
<path fill="none" stroke="midnightblue" d="M426.46,-122.39C443.58,-112.49 466.81,-99.57 488,-89.5 492.29,-87.46 496.8,-85.43 501.34,-83.46"/>
<polygon fill="midnightblue" stroke="midnightblue" points="502.81,-86.64 510.66,-79.53 500.09,-80.19 502.81,-86.64"/>
</g>
<!-- Node12 -->
<g id="node12" class="node">
<title>Node12</title>
<g id="a_node12"><a xlink:href="classslljit_1_1_tokenizer.html#ae5cc0911ed858f6bc7bf206928cd66ae" target="_top" xlink:title=" ">
<polygon fill="none" stroke="black" points="507,-0.5 507,-30.5 595,-30.5 595,-0.5 507,-0.5"/>
<text text-anchor="start" x="515" y="-18.5" font-family="Helvetica,sans-Serif" font-size="10.00">slljit::Tokenizer::</text>
<text text-anchor="middle" x="551" y="-7.5" font-family="Helvetica,sans-Serif" font-size="10.00">set_lok_location</text>
</a>
</g>
</g>
<!-- Node6&#45;&gt;Node12 -->
<g id="edge12" class="edge">
<title>Node6&#45;&gt;Node12</title>
<path fill="none" stroke="midnightblue" d="M411.04,-122.18C425.67,-100.96 454.74,-62.6 488,-39.5 491.07,-37.37 494.36,-35.39 497.76,-33.56"/>
<polygon fill="midnightblue" stroke="midnightblue" points="499.5,-36.61 506.95,-29.07 496.43,-30.32 499.5,-36.61"/>
</g>
<!-- Node13&#45;&gt;Node3 -->
<g id="edge14" class="edge">
<title>Node13&#45;&gt;Node3</title>
<path fill="none" stroke="midnightblue" d="M285.79,-196.57C294.43,-199.84 303.52,-203.29 312,-206.5 324.16,-211.11 337.27,-216.08 349.54,-220.73"/>
<polygon fill="midnightblue" stroke="midnightblue" points="348.56,-224.11 359.16,-224.38 351.05,-217.56 348.56,-224.11"/>
</g>
</g>
</svg>
