<?xml version="1.0" encoding="UTF-8" standalone="no"?>
<!DOCTYPE svg PUBLIC "-//W3C//DTD SVG 1.1//EN"
 "http://www.w3.org/Graphics/SVG/1.1/DTD/svg11.dtd">
<!-- Generated by graphviz version 3.0.0 (20220226.1711)
 -->
<!-- Title: slljit::ShaderJIT Pages: 1 -->
<svg width="348pt" height="218pt"
 viewBox="0.00 0.00 348.00 218.00" xmlns="http://www.w3.org/2000/svg" xmlns:xlink="http://www.w3.org/1999/xlink">
<g id="graph0" class="graph" transform="scale(1 1) rotate(0) translate(4 214)">
<title>slljit::ShaderJIT</title>
<!-- Node1 -->
<g id="node1" class="node">
<title>Node1</title>
<g id="a_node1"><a xlink:title=" ">
<polygon fill="#bfbfbf" stroke="black" points="257,-95.5 257,-114.5 340,-114.5 340,-95.5 257,-95.5"/>
<text text-anchor="middle" x="298.5" y="-102.5" font-family="Helvetica,sans-Serif" font-size="10.00">slljit::ShaderJIT</text>
</a>
</g>
</g>
<!-- Node2 -->
<g id="node2" class="node">
<title>Node2</title>
<g id="a_node2"><a xlink:title=" ">
<polygon fill="none" stroke="black" points="36,-190.5 36,-209.5 122,-209.5 122,-190.5 36,-190.5"/>
<text text-anchor="middle" x="79" y="-197.5" font-family="Helvetica,sans-Serif" font-size="10.00">atomic_uint64_t</text>
</a>
</g>
</g>
<!-- Node2&#45;&gt;Node1 -->
<g id="edge1" class="edge">
<title>Node2&#45;&gt;Node1</title>
<path fill="none" stroke="#9a32cd" stroke-dasharray="5,2" d="M132.15,-193.79C164.45,-188.31 205.94,-178.24 239,-160 260.24,-148.28 279.63,-127.09 289.88,-114.71"/>
<polygon fill="#9a32cd" stroke="#9a32cd" points="131.33,-190.38 122,-195.41 132.43,-197.29 131.33,-190.38"/>
<text text-anchor="middle" x="207.5" y="-187" font-family="Helvetica,sans-Serif" font-size="10.00"> JD_counter</text>
</g>
<!-- Node3 -->
<g id="node3" class="node">
<title>Node3</title>
<g id="a_node3"><a xlink:title=" ">
<polygon fill="none" stroke="black" points="0,-152.5 0,-171.5 158,-171.5 158,-152.5 0,-152.5"/>
<text text-anchor="middle" x="79" y="-159.5" font-family="Helvetica,sans-Serif" font-size="10.00">unique_ptr&lt; ExecutionSession &gt;</text>
</a>
</g>
</g>
<!-- Node3&#45;&gt;Node1 -->
<g id="edge2" class="edge">
<title>Node3&#45;&gt;Node1</title>
<path fill="none" stroke="#9a32cd" stroke-dasharray="5,2" d="M152.57,-150.64C179.97,-145.51 211.22,-138.63 239,-130 252.29,-125.87 266.67,-119.75 277.85,-114.6"/>
<polygon fill="#9a32cd" stroke="#9a32cd" points="151.87,-147.21 142.66,-152.45 153.13,-154.1 151.87,-147.21"/>
<text text-anchor="middle" x="207.5" y="-148" font-family="Helvetica,sans-Serif" font-size="10.00"> ES</text>
</g>
<!-- Node4 -->
<g id="node4" class="node">
<title>Node4</title>
<g id="a_node4"><a xlink:title=" ">
<polygon fill="none" stroke="black" points="46,-114.5 46,-133.5 112,-133.5 112,-114.5 46,-114.5"/>
<text text-anchor="middle" x="79" y="-121.5" font-family="Helvetica,sans-Serif" font-size="10.00">DataLayout</text>
</a>
</g>
</g>
<!-- Node4&#45;&gt;Node1 -->
<g id="edge3" class="edge">
<title>Node4&#45;&gt;Node1</title>
<path fill="none" stroke="#9a32cd" stroke-dasharray="5,2" d="M122.54,-120.28C161.39,-116.89 218.45,-111.91 256.74,-108.56"/>
<polygon fill="#9a32cd" stroke="#9a32cd" points="121.75,-116.84 112.09,-121.2 122.36,-123.81 121.75,-116.84"/>
<text text-anchor="middle" x="207.5" y="-118" font-family="Helvetica,sans-Serif" font-size="10.00"> DL</text>
</g>
<!-- Node5 -->
<g id="node5" class="node">
<title>Node5</title>
<g id="a_node5"><a xlink:title=" ">
<polygon fill="none" stroke="black" points="30,-76.5 30,-95.5 128,-95.5 128,-76.5 30,-76.5"/>
<text text-anchor="middle" x="79" y="-83.5" font-family="Helvetica,sans-Serif" font-size="10.00">MangleAndInterner</text>
</a>
</g>
</g>
<!-- Node5&#45;&gt;Node1 -->
<g id="edge4" class="edge">
<title>Node5&#45;&gt;Node1</title>
<path fill="none" stroke="#9a32cd" stroke-dasharray="5,2" d="M138.46,-87.73C168.57,-89.02 205.82,-91.24 239,-95 244.84,-95.66 250.97,-96.52 256.99,-97.47"/>
<polygon fill="#9a32cd" stroke="#9a32cd" points="138.26,-84.22 128.13,-87.31 137.98,-91.21 138.26,-84.22"/>
<text text-anchor="middle" x="207.5" y="-98" font-family="Helvetica,sans-Serif" font-size="10.00"> Mangle</text>
</g>
<!-- Node6 -->
<g id="node6" class="node">
<title>Node6</title>
<g id="a_node6"><a xlink:title=" ">
<polygon fill="none" stroke="black" points="13.5,-38.5 13.5,-57.5 144.5,-57.5 144.5,-38.5 13.5,-38.5"/>
<text text-anchor="middle" x="79" y="-45.5" font-family="Helvetica,sans-Serif" font-size="10.00">RTDyldObjectLinkingLayer</text>
</a>
</g>
</g>
<!-- Node6&#45;&gt;Node1 -->
<g id="edge5" class="edge">
<title>Node6&#45;&gt;Node1</title>
<path fill="none" stroke="#9a32cd" stroke-dasharray="5,2" d="M154.77,-55.13C181.78,-59.03 212.2,-64.98 239,-74 254.69,-79.28 271.24,-88.43 282.71,-95.42"/>
<polygon fill="#9a32cd" stroke="#9a32cd" points="154.98,-51.63 144.6,-53.73 154.03,-58.56 154.98,-51.63"/>
<text text-anchor="middle" x="207.5" y="-77" font-family="Helvetica,sans-Serif" font-size="10.00"> ObjectLayer</text>
</g>
<!-- Node7 -->
<g id="node7" class="node">
<title>Node7</title>
<g id="a_node7"><a xlink:title=" ">
<polygon fill="none" stroke="black" points="36.5,-0.5 36.5,-19.5 121.5,-19.5 121.5,-0.5 36.5,-0.5"/>
<text text-anchor="middle" x="79" y="-7.5" font-family="Helvetica,sans-Serif" font-size="10.00">IRCompileLayer</text>
</a>
</g>
</g>
<!-- Node7&#45;&gt;Node1 -->
<g id="edge6" class="edge">
<title>Node7&#45;&gt;Node1</title>
<path fill="none" stroke="#9a32cd" stroke-dasharray="5,2" d="M131.73,-13.3C164.23,-17.19 206.07,-25.65 239,-44 262.07,-56.86 281.62,-81.79 291.19,-95.46"/>
<polygon fill="#9a32cd" stroke="#9a32cd" points="131.85,-9.79 121.53,-12.19 131.1,-16.75 131.85,-9.79"/>
<text text-anchor="middle" x="207.5" y="-47" font-family="Helvetica,sans-Serif" font-size="10.00"> CompileLayer</text>
</g>
</g>
</svg>
