<?xml version="1.0" encoding="UTF-8" standalone="no"?>
<!DOCTYPE svg PUBLIC "-//W3C//DTD SVG 1.1//EN"
 "http://www.w3.org/Graphics/SVG/1.1/DTD/svg11.dtd">
<!-- Generated by graphviz version 3.0.0 (20220226.1711)
 -->
<!-- Title: slljit::Parser::ParseBinOpRHS Pages: 1 -->
<svg width="1369pt" height="296pt"
 viewBox="0.00 0.00 1369.00 296.00" xmlns="http://www.w3.org/2000/svg" xmlns:xlink="http://www.w3.org/1999/xlink">
<g id="graph0" class="graph" transform="scale(1 1) rotate(0) translate(4 292)">
<title>slljit::Parser::ParseBinOpRHS</title>
<!-- Node1 -->
<g id="node1" class="node">
<title>Node1</title>
<g id="a_node1"><a xlink:title=" ">
<polygon fill="#bfbfbf" stroke="black" points="1247,-42 1247,-72 1361,-72 1361,-42 1247,-42"/>
<text text-anchor="start" x="1255" y="-60" font-family="Helvetica,sans-Serif" font-size="10.00">slljit::Parser::ParseBin</text>
<text text-anchor="middle" x="1304" y="-49" font-family="Helvetica,sans-Serif" font-size="10.00">OpRHS</text>
</a>
</g>
</g>
<!-- Node1&#45;&gt;Node1 -->
<g id="edge1" class="edge">
<title>Node1&#45;&gt;Node1</title>
<path fill="none" stroke="midnightblue" d="M1333.5,-82.46C1329.84,-87.18 1320,-90.5 1304,-90.5 1277.74,-90.5 1268.1,-81.56 1275.07,-72.16"/>
<polygon fill="midnightblue" stroke="midnightblue" points="1336.97,-81.95 1332.93,-72.16 1329.98,-82.34 1336.97,-81.95"/>
</g>
<!-- Node2 -->
<g id="node2" class="node">
<title>Node2</title>
<g id="a_node2"><a xlink:href="classslljit_1_1_parser.html#a79461bf414d03dcabb49d3bbd6f89607" target="_top" xlink:title=" ">
<polygon fill="none" stroke="black" points="1062,-123.5 1062,-142.5 1211,-142.5 1211,-123.5 1062,-123.5"/>
<text text-anchor="middle" x="1136.5" y="-130.5" font-family="Helvetica,sans-Serif" font-size="10.00">slljit::Parser::ParseExpression</text>
</a>
</g>
</g>
<!-- Node1&#45;&gt;Node2 -->
<g id="edge2" class="edge">
<title>Node1&#45;&gt;Node2</title>
<path fill="none" stroke="midnightblue" d="M1260.98,-76.3C1228.28,-91.31 1184.27,-111.52 1158.59,-123.32"/>
<polygon fill="midnightblue" stroke="midnightblue" points="1262.68,-79.37 1270.3,-72.02 1259.75,-73.01 1262.68,-79.37"/>
</g>
<!-- Node3 -->
<g id="node3" class="node">
<title>Node3</title>
<g id="a_node3"><a xlink:href="classslljit_1_1_parser.html#acc431005ac3dd38732083d7a1bb0eab2" target="_top" xlink:title=" ">
<polygon fill="none" stroke="black" points="862,-221.5 862,-240.5 1026,-240.5 1026,-221.5 862,-221.5"/>
<text text-anchor="middle" x="944" y="-228.5" font-family="Helvetica,sans-Serif" font-size="10.00">slljit::Parser::ParseExpressionList</text>
</a>
</g>
</g>
<!-- Node2&#45;&gt;Node3 -->
<g id="edge3" class="edge">
<title>Node2&#45;&gt;Node3</title>
<path fill="none" stroke="midnightblue" d="M1114.68,-148.8C1093.33,-164.44 1058.69,-188.27 1026,-204 1011.44,-211.01 994.6,-216.94 980.05,-221.45"/>
<polygon fill="midnightblue" stroke="midnightblue" points="1117.03,-151.41 1122.98,-142.64 1112.86,-145.79 1117.03,-151.41"/>
</g>
<!-- Node4 -->
<g id="node4" class="node">
<title>Node4</title>
<g id="a_node4"><a xlink:href="classslljit_1_1_parser.html#a81023e7a6221eb6b92027bd21433c9dd" target="_top" xlink:title="forexpr ::= &#39;for&#39; identifier &#39;=&#39; expr &#39;,&#39; expr (&#39;,&#39; expr)? &#39;in&#39; expression">
<polygon fill="none" stroke="black" points="691.5,-268.5 691.5,-287.5 825.5,-287.5 825.5,-268.5 691.5,-268.5"/>
<text text-anchor="middle" x="758.5" y="-275.5" font-family="Helvetica,sans-Serif" font-size="10.00">slljit::Parser::ParseForExpr</text>
</a>
</g>
</g>
<!-- Node2&#45;&gt;Node4 -->
<g id="edge18" class="edge">
<title>Node2&#45;&gt;Node4</title>
<path fill="none" stroke="midnightblue" d="M1124.36,-151.56C1107.07,-178.48 1071.04,-227.6 1026,-250 963.21,-281.23 881.96,-285.39 825.76,-283.53"/>
<polygon fill="midnightblue" stroke="midnightblue" points="1127.54,-153.07 1129.87,-142.73 1121.6,-149.37 1127.54,-153.07"/>
</g>
<!-- Node7 -->
<g id="node7" class="node">
<title>Node7</title>
<g id="a_node7"><a xlink:href="classslljit_1_1_parser.html#a149f5e88cb03aa08c388e6320c6c1bac" target="_top" xlink:title="ifexpr ::= &#39;if&#39; expression &#39;then&#39; expression &#39;else&#39; expression">
<polygon fill="none" stroke="black" points="696,-180.5 696,-199.5 821,-199.5 821,-180.5 696,-180.5"/>
<text text-anchor="middle" x="758.5" y="-187.5" font-family="Helvetica,sans-Serif" font-size="10.00">slljit::Parser::ParseIfExpr</text>
</a>
</g>
</g>
<!-- Node2&#45;&gt;Node7 -->
<g id="edge21" class="edge">
<title>Node2&#45;&gt;Node7</title>
<path fill="none" stroke="midnightblue" d="M1086.31,-144.8C1067.52,-149.04 1045.84,-153.61 1026,-157 956.15,-168.95 875.3,-178.35 821.13,-184"/>
<polygon fill="midnightblue" stroke="midnightblue" points="1087.17,-148.19 1096.14,-142.55 1085.61,-141.37 1087.17,-148.19"/>
</g>
<!-- Node14 -->
<g id="node14" class="node">
<title>Node14</title>
<g id="a_node14"><a xlink:href="classslljit_1_1_parser.html#a25cfefcbeea85744e23370d3a6f8ad5b" target="_top" xlink:title=" ">
<polygon fill="none" stroke="black" points="866,-104.5 866,-123.5 1022,-123.5 1022,-104.5 866,-104.5"/>
<text text-anchor="middle" x="944" y="-111.5" font-family="Helvetica,sans-Serif" font-size="10.00">slljit::Parser::ParseIdentifierExpr</text>
</a>
</g>
</g>
<!-- Node2&#45;&gt;Node14 -->
<g id="edge19" class="edge">
<title>Node2&#45;&gt;Node14</title>
<path fill="none" stroke="midnightblue" d="M1051.71,-124.64C1041.91,-123.67 1031.95,-122.67 1022.24,-121.7"/>
<polygon fill="midnightblue" stroke="midnightblue" points="1051.55,-128.14 1061.85,-125.65 1052.24,-121.18 1051.55,-128.14"/>
</g>
<!-- Node15 -->
<g id="node15" class="node">
<title>Node15</title>
<g id="a_node15"><a xlink:href="classslljit_1_1_parser.html#a6e2e0f6a2cc445f3a956db59c8d2da66" target="_top" xlink:title="parenexpr ::= &#39;(&#39; expression &#39;)&#39;">
<polygon fill="none" stroke="black" points="871,-66.5 871,-85.5 1017,-85.5 1017,-66.5 871,-66.5"/>
<text text-anchor="middle" x="944" y="-73.5" font-family="Helvetica,sans-Serif" font-size="10.00">slljit::Parser::ParseParenExpr</text>
</a>
</g>
</g>
<!-- Node2&#45;&gt;Node15 -->
<g id="edge22" class="edge">
<title>Node2&#45;&gt;Node15</title>
<path fill="none" stroke="midnightblue" d="M1100.89,-119.96C1079.49,-112.15 1051.36,-102.35 1026,-95 1014.21,-91.58 1001.32,-88.34 989.36,-85.53"/>
<polygon fill="midnightblue" stroke="midnightblue" points="1099.92,-123.33 1110.51,-123.5 1102.34,-116.76 1099.92,-123.33"/>
</g>
<!-- Node16 -->
<g id="node16" class="node">
<title>Node16</title>
<g id="a_node16"><a xlink:href="classslljit_1_1_parser.html#a435877d3f2869d140a7cca646546a114" target="_top" xlink:title="varexpr ::= &#39;g_var&#39; identifier (&#39;=&#39; expression)?">
<polygon fill="none" stroke="black" points="691,-142.5 691,-161.5 826,-161.5 826,-142.5 691,-142.5"/>
<text text-anchor="middle" x="758.5" y="-149.5" font-family="Helvetica,sans-Serif" font-size="10.00">slljit::Parser::ParseVarExpr</text>
</a>
</g>
</g>
<!-- Node2&#45;&gt;Node16 -->
<g id="edge24" class="edge">
<title>Node2&#45;&gt;Node16</title>
<path fill="none" stroke="midnightblue" d="M1051.41,-137.25C983.45,-140.68 889.08,-145.45 826.23,-148.63"/>
<polygon fill="midnightblue" stroke="midnightblue" points="1051.85,-140.73 1061.66,-136.73 1051.5,-133.74 1051.85,-140.73"/>
</g>
<!-- Node3&#45;&gt;Node4 -->
<g id="edge4" class="edge">
<title>Node3&#45;&gt;Node4</title>
<path fill="none" stroke="midnightblue" d="M895.8,-243.09C865.05,-250.97 825.47,-261.1 796.89,-268.42"/>
<polygon fill="midnightblue" stroke="midnightblue" points="897.05,-246.38 905.87,-240.51 895.31,-239.6 897.05,-246.38"/>
</g>
<!-- Node3&#45;&gt;Node7 -->
<g id="edge10" class="edge">
<title>Node3&#45;&gt;Node7</title>
<path fill="none" stroke="midnightblue" d="M890.43,-219.25C862.44,-213 828.47,-205.41 802.15,-199.53"/>
<polygon fill="midnightblue" stroke="midnightblue" points="889.92,-222.73 900.44,-221.49 891.44,-215.89 889.92,-222.73"/>
</g>
<!-- Node8 -->
<g id="node8" class="node">
<title>Node8</title>
<g id="a_node8"><a xlink:href="classslljit_1_1_parser.html#aa9a9ce164e114ad7f347f32329f5a5a2" target="_top" xlink:title="definition ::= &#39;def&#39; prototype expression">
<polygon fill="none" stroke="black" points="700.5,-219 700.5,-249 816.5,-249 816.5,-219 700.5,-219"/>
<text text-anchor="start" x="708.5" y="-237" font-family="Helvetica,sans-Serif" font-size="10.00">slljit::Parser::ParseTop</text>
<text text-anchor="middle" x="758.5" y="-226" font-family="Helvetica,sans-Serif" font-size="10.00">LevelTypedExpression</text>
</a>
</g>
</g>
<!-- Node3&#45;&gt;Node8 -->
<g id="edge12" class="edge">
<title>Node3&#45;&gt;Node8</title>
<path fill="none" stroke="midnightblue" d="M851.92,-232.49C839.92,-232.69 827.91,-232.88 816.7,-233.06"/>
<polygon fill="midnightblue" stroke="midnightblue" points="852.04,-235.99 861.98,-232.32 851.92,-228.99 852.04,-235.99"/>
</g>
<!-- Node5 -->
<g id="node5" class="node">
<title>Node5</title>
<g id="a_node5"><a xlink:href="classslljit_1_1_parser.html#a45cb3e4f600e8e2c253490e7d878e8cd" target="_top" xlink:title=" ">
<polygon fill="none" stroke="black" points="521,-123.5 521,-142.5 655,-142.5 655,-123.5 521,-123.5"/>
<text text-anchor="middle" x="588" y="-130.5" font-family="Helvetica,sans-Serif" font-size="10.00">slljit::Parser::ParsePrimary</text>
</a>
</g>
</g>
<!-- Node4&#45;&gt;Node5 -->
<g id="edge5" class="edge">
<title>Node4&#45;&gt;Node5</title>
<path fill="none" stroke="midnightblue" d="M700.05,-264.38C696.88,-262.78 693.84,-260.99 691,-259 668.6,-243.26 671.99,-230.47 655,-209 635.48,-184.34 610.78,-156.78 597.84,-142.6"/>
<polygon fill="midnightblue" stroke="midnightblue" points="698.66,-267.59 709.23,-268.41 701.48,-261.18 698.66,-267.59"/>
</g>
<!-- Node6 -->
<g id="node6" class="node">
<title>Node6</title>
<g id="a_node6"><a xlink:href="classslljit_1_1_parser.html#af8579896f39ac563d2edd14404d70f41" target="_top" xlink:title=" ">
<polygon fill="none" stroke="black" points="360,-28.5 360,-47.5 485,-47.5 485,-28.5 360,-28.5"/>
<text text-anchor="middle" x="422.5" y="-35.5" font-family="Helvetica,sans-Serif" font-size="10.00">slljit::Parser::ParseUnary</text>
</a>
</g>
</g>
<!-- Node5&#45;&gt;Node6 -->
<g id="edge6" class="edge">
<title>Node5&#45;&gt;Node6</title>
<path fill="none" stroke="midnightblue" d="M561.59,-118.23C527.74,-98.57 468.8,-64.32 440.12,-47.66"/>
<polygon fill="midnightblue" stroke="midnightblue" points="560.02,-121.37 570.42,-123.37 563.53,-115.32 560.02,-121.37"/>
</g>
<!-- Node6&#45;&gt;Node1 -->
<g id="edge7" class="edge">
<title>Node6&#45;&gt;Node1</title>
<path fill="none" stroke="midnightblue" d="M485.02,-26.77C551.85,-15.56 661.88,0 757.5,0 945,0 945,0 945,0 1052.78,0 1176.56,-25.51 1246.71,-42.4"/>
<polygon fill="midnightblue" stroke="midnightblue" points="484.35,-23.33 475.07,-28.46 485.52,-30.24 484.35,-23.33"/>
</g>
<!-- Node6&#45;&gt;Node2 -->
<g id="edge8" class="edge">
<title>Node6&#45;&gt;Node2</title>
<path fill="none" stroke="midnightblue" d="M495.14,-35.21C632.88,-30.67 929.54,-25.13 1026,-57 1067.97,-70.87 1108.27,-106.35 1126.02,-123.47"/>
<polygon fill="midnightblue" stroke="midnightblue" points="494.98,-31.71 485.1,-35.55 495.21,-38.71 494.98,-31.71"/>
</g>
<!-- Node6&#45;&gt;Node6 -->
<g id="edge9" class="edge">
<title>Node6&#45;&gt;Node6</title>
<path fill="none" stroke="midnightblue" d="M449.75,-56.65C448.61,-61.94 439.53,-66 422.5,-66 396.55,-66 389.05,-56.57 400,-47.76"/>
<polygon fill="midnightblue" stroke="midnightblue" points="452.8,-54.93 445,-47.76 446.62,-58.23 452.8,-54.93"/>
</g>
<!-- Node7&#45;&gt;Node5 -->
<g id="edge11" class="edge">
<title>Node7&#45;&gt;Node5</title>
<path fill="none" stroke="midnightblue" d="M712.46,-177.65C705.25,-175.52 697.9,-173.27 691,-171 664.07,-162.15 633.68,-150.63 613.13,-142.6"/>
<polygon fill="midnightblue" stroke="midnightblue" points="711.56,-181.03 722.14,-180.45 713.51,-174.31 711.56,-181.03"/>
</g>
<!-- Node9 -->
<g id="node9" class="node">
<title>Node9</title>
<g id="a_node9"><a xlink:href="classslljit_1_1_parser.html#af0cac4623fc05b8b7ae9884b0aeb3d3f" target="_top" xlink:title=" ">
<polygon fill="none" stroke="black" points="522.5,-219 522.5,-249 653.5,-249 653.5,-219 522.5,-219"/>
<text text-anchor="start" x="530.5" y="-237" font-family="Helvetica,sans-Serif" font-size="10.00">slljit::Parser::HandleTyped</text>
<text text-anchor="middle" x="588" y="-226" font-family="Helvetica,sans-Serif" font-size="10.00">Expression</text>
</a>
</g>
</g>
<!-- Node8&#45;&gt;Node9 -->
<g id="edge13" class="edge">
<title>Node8&#45;&gt;Node9</title>
<path fill="none" stroke="midnightblue" d="M690.39,-234C678.24,-234 665.6,-234 653.53,-234"/>
<polygon fill="midnightblue" stroke="midnightblue" points="690.45,-237.5 700.45,-234 690.45,-230.5 690.45,-237.5"/>
</g>
<!-- Node10 -->
<g id="node10" class="node">
<title>Node10</title>
<g id="a_node10"><a xlink:href="classslljit_1_1_parser.html#ae2d3d6534b87da7f237c19129a464bda" target="_top" xlink:title="top ::= definition | external | expression | &#39;;&#39;">
<polygon fill="none" stroke="black" points="364.5,-224.5 364.5,-243.5 480.5,-243.5 480.5,-224.5 364.5,-224.5"/>
<text text-anchor="middle" x="422.5" y="-231.5" font-family="Helvetica,sans-Serif" font-size="10.00">slljit::Parser::MainLoop</text>
</a>
</g>
</g>
<!-- Node9&#45;&gt;Node10 -->
<g id="edge14" class="edge">
<title>Node9&#45;&gt;Node10</title>
<path fill="none" stroke="midnightblue" d="M512.23,-234C501.57,-234 490.75,-234 480.5,-234"/>
<polygon fill="midnightblue" stroke="midnightblue" points="512.38,-237.5 522.38,-234 512.38,-230.5 512.38,-237.5"/>
</g>
<!-- Node11 -->
<g id="node11" class="node">
<title>Node11</title>
<g id="a_node11"><a xlink:href="classslljit_1_1_parser.html#a2429935f3c870648f9f895a7b2361cfb" target="_top" xlink:title=" ">
<polygon fill="none" stroke="black" points="226,-224.5 226,-243.5 324,-243.5 324,-224.5 226,-224.5"/>
<text text-anchor="middle" x="275" y="-231.5" font-family="Helvetica,sans-Serif" font-size="10.00">slljit::Parser::parse</text>
</a>
</g>
</g>
<!-- Node10&#45;&gt;Node11 -->
<g id="edge15" class="edge">
<title>Node10&#45;&gt;Node11</title>
<path fill="none" stroke="midnightblue" d="M354.39,-234C344.3,-234 334.05,-234 324.45,-234"/>
<polygon fill="midnightblue" stroke="midnightblue" points="354.41,-237.5 364.41,-234 354.41,-230.5 354.41,-237.5"/>
</g>
<!-- Node12 -->
<g id="node12" class="node">
<title>Node12</title>
<g id="a_node12"><a xlink:href="classslljit_1_1_program.html#ae4d26526a7dd9c69ebe92fb43736696b" target="_top" xlink:title=" ">
<polygon fill="none" stroke="black" points="74,-224.5 74,-243.5 190,-243.5 190,-224.5 74,-224.5"/>
<text text-anchor="middle" x="132" y="-231.5" font-family="Helvetica,sans-Serif" font-size="10.00">slljit::Program::compile</text>
</a>
</g>
</g>
<!-- Node11&#45;&gt;Node12 -->
<g id="edge16" class="edge">
<title>Node11&#45;&gt;Node12</title>
<path fill="none" stroke="midnightblue" d="M215.72,-234C207.27,-234 198.58,-234 190.16,-234"/>
<polygon fill="midnightblue" stroke="midnightblue" points="215.87,-237.5 225.87,-234 215.87,-230.5 215.87,-237.5"/>
</g>
<!-- Node13 -->
<g id="node13" class="node">
<title>Node13</title>
<g id="a_node13"><a xlink:href="compiler__cli_8cpp.html#a3c04138a5bfe5d72780bb7e82a18e627" target="_top" xlink:title=" ">
<polygon fill="none" stroke="black" points="0,-224.5 0,-243.5 38,-243.5 38,-224.5 0,-224.5"/>
<text text-anchor="middle" x="19" y="-231.5" font-family="Helvetica,sans-Serif" font-size="10.00">main</text>
</a>
</g>
</g>
<!-- Node12&#45;&gt;Node13 -->
<g id="edge17" class="edge">
<title>Node12&#45;&gt;Node13</title>
<path fill="none" stroke="midnightblue" d="M63.62,-234C54.3,-234 45.44,-234 38.18,-234"/>
<polygon fill="midnightblue" stroke="midnightblue" points="63.87,-237.5 73.87,-234 63.87,-230.5 63.87,-237.5"/>
</g>
<!-- Node14&#45;&gt;Node5 -->
<g id="edge20" class="edge">
<title>Node14&#45;&gt;Node5</title>
<path fill="none" stroke="midnightblue" d="M855.59,-118.69C793.59,-122.02 711.67,-126.42 655.08,-129.45"/>
<polygon fill="midnightblue" stroke="midnightblue" points="855.95,-122.18 865.75,-118.15 855.58,-115.19 855.95,-122.18"/>
</g>
<!-- Node15&#45;&gt;Node5 -->
<g id="edge23" class="edge">
<title>Node15&#45;&gt;Node5</title>
<path fill="none" stroke="midnightblue" d="M873.48,-87.19C807.77,-97.77 710.23,-113.48 648.15,-123.48"/>
<polygon fill="midnightblue" stroke="midnightblue" points="874.43,-90.59 883.75,-85.54 873.32,-83.67 874.43,-90.59"/>
</g>
<!-- Node16&#45;&gt;Node5 -->
<g id="edge25" class="edge">
<title>Node16&#45;&gt;Node5</title>
<path fill="none" stroke="midnightblue" d="M680.88,-143.36C672.27,-142.39 663.57,-141.41 655.11,-140.45"/>
<polygon fill="midnightblue" stroke="midnightblue" points="680.58,-146.85 690.9,-144.49 681.36,-139.89 680.58,-146.85"/>
</g>
</g>
</svg>
