<?xml version="1.0" encoding="UTF-8" standalone="no"?>
<!DOCTYPE svg PUBLIC "-//W3C//DTD SVG 1.1//EN"
 "http://www.w3.org/Graphics/SVG/1.1/DTD/svg11.dtd">
<!-- Generated by graphviz version 3.0.0 (20220226.1711)
 -->
<!-- Title: slljit::Parser::get_current_function_scope Pages: 1 -->
<svg width="1963pt" height="269pt"
 viewBox="0.00 0.00 1963.00 269.27" xmlns="http://www.w3.org/2000/svg" xmlns:xlink="http://www.w3.org/1999/xlink">
<g id="graph0" class="graph" transform="scale(1 1) rotate(0) translate(4 265.27)">
<title>slljit::Parser::get_current_function_scope</title>
<!-- Node1 -->
<g id="node1" class="node">
<title>Node1</title>
<g id="a_node1"><a xlink:title=" ">
<polygon fill="#bfbfbf" stroke="black" points="1833,-42 1833,-72 1955,-72 1955,-42 1833,-42"/>
<text text-anchor="start" x="1841" y="-60" font-family="Helvetica,sans-Serif" font-size="10.00">slljit::Parser::get</text>
<text text-anchor="middle" x="1894" y="-49" font-family="Helvetica,sans-Serif" font-size="10.00">_current_function_scope</text>
</a>
</g>
</g>
<!-- Node2 -->
<g id="node2" class="node">
<title>Node2</title>
<g id="a_node2"><a xlink:href="classslljit_1_1_parser.html#a25cfefcbeea85744e23370d3a6f8ad5b" target="_top" xlink:title=" ">
<polygon fill="none" stroke="black" points="1641,-47.5 1641,-66.5 1797,-66.5 1797,-47.5 1641,-47.5"/>
<text text-anchor="middle" x="1719" y="-54.5" font-family="Helvetica,sans-Serif" font-size="10.00">slljit::Parser::ParseIdentifierExpr</text>
</a>
</g>
</g>
<!-- Node1&#45;&gt;Node2 -->
<g id="edge1" class="edge">
<title>Node1&#45;&gt;Node2</title>
<path fill="none" stroke="midnightblue" d="M1822.84,-57C1814.42,-57 1805.79,-57 1797.28,-57"/>
<polygon fill="midnightblue" stroke="midnightblue" points="1822.98,-60.5 1832.98,-57 1822.98,-53.5 1822.98,-60.5"/>
</g>
<!-- Node3 -->
<g id="node3" class="node">
<title>Node3</title>
<g id="a_node3"><a xlink:href="classslljit_1_1_parser.html#a45cb3e4f600e8e2c253490e7d878e8cd" target="_top" xlink:title=" ">
<polygon fill="none" stroke="black" points="1471,-85.5 1471,-104.5 1605,-104.5 1605,-85.5 1471,-85.5"/>
<text text-anchor="middle" x="1538" y="-92.5" font-family="Helvetica,sans-Serif" font-size="10.00">slljit::Parser::ParsePrimary</text>
</a>
</g>
</g>
<!-- Node2&#45;&gt;Node3 -->
<g id="edge2" class="edge">
<title>Node2&#45;&gt;Node3</title>
<path fill="none" stroke="midnightblue" d="M1662.98,-68.68C1637.59,-74.07 1607.84,-80.39 1583.84,-85.48"/>
<polygon fill="midnightblue" stroke="midnightblue" points="1663.78,-72.09 1672.83,-66.59 1662.32,-65.24 1663.78,-72.09"/>
</g>
<!-- Node4 -->
<g id="node4" class="node">
<title>Node4</title>
<g id="a_node4"><a xlink:href="classslljit_1_1_parser.html#af8579896f39ac563d2edd14404d70f41" target="_top" xlink:title=" ">
<polygon fill="none" stroke="black" points="1310,-104.5 1310,-123.5 1435,-123.5 1435,-104.5 1310,-104.5"/>
<text text-anchor="middle" x="1372.5" y="-111.5" font-family="Helvetica,sans-Serif" font-size="10.00">slljit::Parser::ParseUnary</text>
</a>
</g>
</g>
<!-- Node3&#45;&gt;Node4 -->
<g id="edge3" class="edge">
<title>Node3&#45;&gt;Node4</title>
<path fill="none" stroke="midnightblue" d="M1460.86,-103.85C1452.2,-104.85 1443.46,-105.87 1435.02,-106.85"/>
<polygon fill="midnightblue" stroke="midnightblue" points="1461.44,-107.3 1470.97,-102.67 1460.63,-100.35 1461.44,-107.3"/>
</g>
<!-- Node4&#45;&gt;Node4 -->
<g id="edge25" class="edge">
<title>Node4&#45;&gt;Node4</title>
<path fill="none" stroke="midnightblue" d="M1401.25,-132.65C1400.04,-137.94 1390.46,-142 1372.5,-142 1345.13,-142 1337.22,-132.57 1348.76,-123.76"/>
<polygon fill="midnightblue" stroke="midnightblue" points="1404.19,-130.75 1396.24,-123.76 1398.09,-134.19 1404.19,-130.75"/>
</g>
<!-- Node5 -->
<g id="node5" class="node">
<title>Node5</title>
<g id="a_node5"><a xlink:href="classslljit_1_1_parser.html#ae387c9672ec50720d8cb969558aedbe9" target="_top" xlink:title=" ">
<polygon fill="none" stroke="black" points="1160,-143 1160,-173 1274,-173 1274,-143 1160,-143"/>
<text text-anchor="start" x="1168" y="-161" font-family="Helvetica,sans-Serif" font-size="10.00">slljit::Parser::ParseBin</text>
<text text-anchor="middle" x="1217" y="-150" font-family="Helvetica,sans-Serif" font-size="10.00">OpRHS</text>
</a>
</g>
</g>
<!-- Node4&#45;&gt;Node5 -->
<g id="edge4" class="edge">
<title>Node4&#45;&gt;Node5</title>
<path fill="none" stroke="midnightblue" d="M1328.55,-126.31C1310.56,-131.47 1289.47,-137.51 1270.56,-142.93"/>
<polygon fill="midnightblue" stroke="midnightblue" points="1329.54,-129.67 1338.19,-123.55 1327.62,-122.94 1329.54,-129.67"/>
</g>
<!-- Node6 -->
<g id="node6" class="node">
<title>Node6</title>
<g id="a_node6"><a xlink:href="classslljit_1_1_parser.html#a79461bf414d03dcabb49d3bbd6f89607" target="_top" xlink:title=" ">
<polygon fill="none" stroke="black" points="975,-119.5 975,-138.5 1124,-138.5 1124,-119.5 975,-119.5"/>
<text text-anchor="middle" x="1049.5" y="-126.5" font-family="Helvetica,sans-Serif" font-size="10.00">slljit::Parser::ParseExpression</text>
</a>
</g>
</g>
<!-- Node4&#45;&gt;Node6 -->
<g id="edge24" class="edge">
<title>Node4&#45;&gt;Node6</title>
<path fill="none" stroke="midnightblue" d="M1299.79,-117.35C1247.52,-119.79 1176.92,-123.09 1124.19,-125.56"/>
<polygon fill="midnightblue" stroke="midnightblue" points="1300.16,-120.84 1309.99,-116.87 1299.84,-113.85 1300.16,-120.84"/>
</g>
<!-- Node5&#45;&gt;Node5 -->
<g id="edge5" class="edge">
<title>Node5&#45;&gt;Node5</title>
<path fill="none" stroke="midnightblue" d="M1244.36,-183.46C1240.97,-188.18 1231.85,-191.5 1217,-191.5 1192.64,-191.5 1183.69,-182.56 1190.16,-173.16"/>
<polygon fill="midnightblue" stroke="midnightblue" points="1247.84,-182.97 1243.84,-173.16 1240.85,-183.32 1247.84,-182.97"/>
</g>
<!-- Node5&#45;&gt;Node6 -->
<g id="edge6" class="edge">
<title>Node5&#45;&gt;Node6</title>
<path fill="none" stroke="midnightblue" d="M1149.78,-146.4C1134.85,-143.78 1119.17,-141.03 1104.79,-138.51"/>
<polygon fill="midnightblue" stroke="midnightblue" points="1149.52,-149.9 1159.97,-148.18 1150.72,-143.01 1149.52,-149.9"/>
</g>
<!-- Node6&#45;&gt;Node2 -->
<g id="edge18" class="edge">
<title>Node6&#45;&gt;Node2</title>
<path fill="none" stroke="midnightblue" d="M1129.04,-118.14C1139.45,-116.73 1149.98,-115.32 1160,-114 1298.06,-95.8 1332.41,-89.5 1471,-76 1527.82,-70.46 1592.13,-65.56 1640.89,-62.12"/>
<polygon fill="midnightblue" stroke="midnightblue" points="1128.56,-114.68 1119.12,-119.49 1129.5,-121.61 1128.56,-114.68"/>
</g>
<!-- Node7 -->
<g id="node7" class="node">
<title>Node7</title>
<g id="a_node7"><a xlink:href="classslljit_1_1_parser.html#acc431005ac3dd38732083d7a1bb0eab2" target="_top" xlink:title=" ">
<polygon fill="none" stroke="black" points="775,-134.5 775,-153.5 939,-153.5 939,-134.5 775,-134.5"/>
<text text-anchor="middle" x="857" y="-141.5" font-family="Helvetica,sans-Serif" font-size="10.00">slljit::Parser::ParseExpressionList</text>
</a>
</g>
</g>
<!-- Node6&#45;&gt;Node7 -->
<g id="edge7" class="edge">
<title>Node6&#45;&gt;Node7</title>
<path fill="none" stroke="midnightblue" d="M964.86,-135.59C956.29,-136.26 947.59,-136.95 939.05,-137.62"/>
<polygon fill="midnightblue" stroke="midnightblue" points="965.15,-139.07 974.85,-134.8 964.6,-132.1 965.15,-139.07"/>
</g>
<!-- Node8 -->
<g id="node8" class="node">
<title>Node8</title>
<g id="a_node8"><a xlink:href="classslljit_1_1_parser.html#a81023e7a6221eb6b92027bd21433c9dd" target="_top" xlink:title="forexpr ::= &#39;for&#39; identifier &#39;=&#39; expr &#39;,&#39; expr (&#39;,&#39; expr)? &#39;in&#39; expression">
<polygon fill="none" stroke="black" points="605,-178.5 605,-197.5 739,-197.5 739,-178.5 605,-178.5"/>
<text text-anchor="middle" x="672" y="-185.5" font-family="Helvetica,sans-Serif" font-size="10.00">slljit::Parser::ParseForExpr</text>
</a>
</g>
</g>
<!-- Node6&#45;&gt;Node8 -->
<g id="edge17" class="edge">
<title>Node6&#45;&gt;Node8</title>
<path fill="none" stroke="midnightblue" d="M1013.22,-142C992,-149.3 964.28,-157.95 939,-163 871.68,-176.46 793.3,-182.71 739.14,-185.59"/>
<polygon fill="midnightblue" stroke="midnightblue" points="1014.51,-145.26 1022.79,-138.65 1012.19,-138.65 1014.51,-145.26"/>
</g>
<!-- Node9 -->
<g id="node9" class="node">
<title>Node9</title>
<g id="a_node9"><a xlink:href="classslljit_1_1_parser.html#a149f5e88cb03aa08c388e6320c6c1bac" target="_top" xlink:title="ifexpr ::= &#39;if&#39; expression &#39;then&#39; expression &#39;else&#39; expression">
<polygon fill="none" stroke="black" points="609.5,-90.5 609.5,-109.5 734.5,-109.5 734.5,-90.5 609.5,-90.5"/>
<text text-anchor="middle" x="672" y="-97.5" font-family="Helvetica,sans-Serif" font-size="10.00">slljit::Parser::ParseIfExpr</text>
</a>
</g>
</g>
<!-- Node6&#45;&gt;Node9 -->
<g id="edge19" class="edge">
<title>Node6&#45;&gt;Node9</title>
<path fill="none" stroke="midnightblue" d="M964.69,-122.53C895.03,-117.15 797.48,-109.61 734.76,-104.77"/>
<polygon fill="midnightblue" stroke="midnightblue" points="964.52,-126.02 974.76,-123.31 965.06,-119.05 964.52,-126.02"/>
</g>
<!-- Node15 -->
<g id="node15" class="node">
<title>Node15</title>
<g id="a_node15"><a xlink:href="classslljit_1_1_parser.html#a6e2e0f6a2cc445f3a956db59c8d2da66" target="_top" xlink:title="parenexpr ::= &#39;(&#39; expression &#39;)&#39;">
<polygon fill="none" stroke="black" points="784,-210.5 784,-229.5 930,-229.5 930,-210.5 784,-210.5"/>
<text text-anchor="middle" x="857" y="-217.5" font-family="Helvetica,sans-Serif" font-size="10.00">slljit::Parser::ParseParenExpr</text>
</a>
</g>
</g>
<!-- Node6&#45;&gt;Node15 -->
<g id="edge20" class="edge">
<title>Node6&#45;&gt;Node15</title>
<path fill="none" stroke="midnightblue" d="M1026.94,-144.54C1005.51,-159.41 971.25,-181.65 939,-196 926,-201.78 911.22,-206.63 897.88,-210.42"/>
<polygon fill="midnightblue" stroke="midnightblue" points="1029.14,-147.28 1035.3,-138.66 1025.11,-141.55 1029.14,-147.28"/>
</g>
<!-- Node16 -->
<g id="node16" class="node">
<title>Node16</title>
<g id="a_node16"><a xlink:href="classslljit_1_1_parser.html#a435877d3f2869d140a7cca646546a114" target="_top" xlink:title="varexpr ::= &#39;g_var&#39; identifier (&#39;=&#39; expression)?">
<polygon fill="none" stroke="black" points="789.5,-58.5 789.5,-77.5 924.5,-77.5 924.5,-58.5 789.5,-58.5"/>
<text text-anchor="middle" x="857" y="-65.5" font-family="Helvetica,sans-Serif" font-size="10.00">slljit::Parser::ParseVarExpr</text>
</a>
</g>
</g>
<!-- Node6&#45;&gt;Node16 -->
<g id="edge22" class="edge">
<title>Node6&#45;&gt;Node16</title>
<path fill="none" stroke="midnightblue" d="M1011.57,-116.13C990.39,-108.85 963.27,-99.69 939,-92 923.34,-87.04 905.88,-81.82 891.19,-77.53"/>
<polygon fill="midnightblue" stroke="midnightblue" points="1010.55,-119.48 1021.14,-119.44 1012.83,-112.87 1010.55,-119.48"/>
</g>
<!-- Node7&#45;&gt;Node8 -->
<g id="edge8" class="edge">
<title>Node7&#45;&gt;Node8</title>
<path fill="none" stroke="midnightblue" d="M806.22,-155.97C776.81,-163.04 740.07,-171.87 712.63,-178.47"/>
<polygon fill="midnightblue" stroke="midnightblue" points="807.39,-159.29 816.29,-153.55 805.75,-152.48 807.39,-159.29"/>
</g>
<!-- Node7&#45;&gt;Node9 -->
<g id="edge10" class="edge">
<title>Node7&#45;&gt;Node9</title>
<path fill="none" stroke="midnightblue" d="M806.22,-132.03C776.81,-124.96 740.07,-116.13 712.63,-109.53"/>
<polygon fill="midnightblue" stroke="midnightblue" points="805.75,-135.52 816.29,-134.45 807.39,-128.71 805.75,-135.52"/>
</g>
<!-- Node10 -->
<g id="node10" class="node">
<title>Node10</title>
<g id="a_node10"><a xlink:href="classslljit_1_1_parser.html#aa9a9ce164e114ad7f347f32329f5a5a2" target="_top" xlink:title="definition ::= &#39;def&#39; prototype expression">
<polygon fill="none" stroke="black" points="614,-129 614,-159 730,-159 730,-129 614,-129"/>
<text text-anchor="start" x="622" y="-147" font-family="Helvetica,sans-Serif" font-size="10.00">slljit::Parser::ParseTop</text>
<text text-anchor="middle" x="672" y="-136" font-family="Helvetica,sans-Serif" font-size="10.00">LevelTypedExpression</text>
</a>
</g>
</g>
<!-- Node7&#45;&gt;Node10 -->
<g id="edge12" class="edge">
<title>Node7&#45;&gt;Node10</title>
<path fill="none" stroke="midnightblue" d="M764.63,-144C752.88,-144 741.12,-144 730.14,-144"/>
<polygon fill="midnightblue" stroke="midnightblue" points="764.93,-147.5 774.93,-144 764.93,-140.5 764.93,-147.5"/>
</g>
<!-- Node8&#45;&gt;Node3 -->
<g id="edge9" class="edge">
<title>Node8&#45;&gt;Node3</title>
<path fill="none" stroke="midnightblue" d="M696.16,-202.92C716.17,-214.97 746.31,-231.17 775,-239 892.55,-271.09 926.65,-258 1048.5,-258 1218,-258 1218,-258 1218,-258 1319.61,-258 1347.04,-236.88 1435,-186 1474.65,-163.07 1512.49,-122.99 1528.71,-104.65"/>
<polygon fill="midnightblue" stroke="midnightblue" points="697.81,-199.82 687.46,-197.55 694.14,-205.78 697.81,-199.82"/>
</g>
<!-- Node9&#45;&gt;Node3 -->
<g id="edge11" class="edge">
<title>Node9&#45;&gt;Node3</title>
<path fill="none" stroke="midnightblue" d="M697.45,-85.27C717.6,-73.75 747.26,-58.21 775,-49 892.2,-10.1 925.01,0 1048.5,0 1218,0 1218,0 1218,0 1336.75,0 1470.41,-61.22 1518.52,-85.37"/>
<polygon fill="midnightblue" stroke="midnightblue" points="695.52,-82.34 688.64,-90.39 699.04,-88.39 695.52,-82.34"/>
</g>
<!-- Node11 -->
<g id="node11" class="node">
<title>Node11</title>
<g id="a_node11"><a xlink:href="classslljit_1_1_parser.html#af0cac4623fc05b8b7ae9884b0aeb3d3f" target="_top" xlink:title=" ">
<polygon fill="none" stroke="black" points="438,-129 438,-159 569,-159 569,-129 438,-129"/>
<text text-anchor="start" x="446" y="-147" font-family="Helvetica,sans-Serif" font-size="10.00">slljit::Parser::HandleTyped</text>
<text text-anchor="middle" x="503.5" y="-136" font-family="Helvetica,sans-Serif" font-size="10.00">Expression</text>
</a>
</g>
</g>
<!-- Node10&#45;&gt;Node11 -->
<g id="edge13" class="edge">
<title>Node10&#45;&gt;Node11</title>
<path fill="none" stroke="midnightblue" d="M603.42,-144C592.07,-144 580.32,-144 569.05,-144"/>
<polygon fill="midnightblue" stroke="midnightblue" points="603.7,-147.5 613.7,-144 603.7,-140.5 603.7,-147.5"/>
</g>
<!-- Node12 -->
<g id="node12" class="node">
<title>Node12</title>
<g id="a_node12"><a xlink:href="classslljit_1_1_parser.html#ae2d3d6534b87da7f237c19129a464bda" target="_top" xlink:title="top ::= definition | external | expression | &#39;;&#39;">
<polygon fill="none" stroke="black" points="286,-134.5 286,-153.5 402,-153.5 402,-134.5 286,-134.5"/>
<text text-anchor="middle" x="344" y="-141.5" font-family="Helvetica,sans-Serif" font-size="10.00">slljit::Parser::MainLoop</text>
</a>
</g>
</g>
<!-- Node11&#45;&gt;Node12 -->
<g id="edge14" class="edge">
<title>Node11&#45;&gt;Node12</title>
<path fill="none" stroke="midnightblue" d="M427.87,-144C419.2,-144 410.47,-144 402.09,-144"/>
<polygon fill="midnightblue" stroke="midnightblue" points="427.98,-147.5 437.98,-144 427.98,-140.5 427.98,-147.5"/>
</g>
<!-- Node13 -->
<g id="node13" class="node">
<title>Node13</title>
<g id="a_node13"><a xlink:href="classslljit_1_1_parser.html#a2429935f3c870648f9f895a7b2361cfb" target="_top" xlink:title=" ">
<polygon fill="none" stroke="black" points="152,-134.5 152,-153.5 250,-153.5 250,-134.5 152,-134.5"/>
<text text-anchor="middle" x="201" y="-141.5" font-family="Helvetica,sans-Serif" font-size="10.00">slljit::Parser::parse</text>
</a>
</g>
</g>
<!-- Node12&#45;&gt;Node13 -->
<g id="edge15" class="edge">
<title>Node12&#45;&gt;Node13</title>
<path fill="none" stroke="midnightblue" d="M275.37,-144C266.9,-144 258.37,-144 250.28,-144"/>
<polygon fill="midnightblue" stroke="midnightblue" points="275.65,-147.5 285.65,-144 275.65,-140.5 275.65,-147.5"/>
</g>
<!-- Node14 -->
<g id="node14" class="node">
<title>Node14</title>
<g id="a_node14"><a xlink:href="classslljit_1_1_program.html#ae4d26526a7dd9c69ebe92fb43736696b" target="_top" xlink:title=" ">
<polygon fill="none" stroke="black" points="0,-134.5 0,-153.5 116,-153.5 116,-134.5 0,-134.5"/>
<text text-anchor="middle" x="58" y="-141.5" font-family="Helvetica,sans-Serif" font-size="10.00">slljit::Program::compile</text>
</a>
</g>
</g>
<!-- Node13&#45;&gt;Node14 -->
<g id="edge16" class="edge">
<title>Node13&#45;&gt;Node14</title>
<path fill="none" stroke="midnightblue" d="M141.72,-144C133.27,-144 124.58,-144 116.16,-144"/>
<polygon fill="midnightblue" stroke="midnightblue" points="141.87,-147.5 151.87,-144 141.87,-140.5 141.87,-147.5"/>
</g>
<!-- Node15&#45;&gt;Node3 -->
<g id="edge21" class="edge">
<title>Node15&#45;&gt;Node3</title>
<path fill="none" stroke="midnightblue" d="M940.05,-222.39C1024.44,-223.42 1159.38,-221.07 1274,-201 1347.8,-188.07 1366.03,-180.29 1435,-151 1467.17,-137.34 1502.44,-116.57 1521.93,-104.53"/>
<polygon fill="midnightblue" stroke="midnightblue" points="940.06,-218.89 930.01,-222.25 939.96,-225.89 940.06,-218.89"/>
</g>
<!-- Node16&#45;&gt;Node3 -->
<g id="edge23" class="edge">
<title>Node16&#45;&gt;Node3</title>
<path fill="none" stroke="midnightblue" d="M934.9,-71.06C1069.3,-76.4 1344.62,-87.35 1470.97,-92.37"/>
<polygon fill="midnightblue" stroke="midnightblue" points="934.82,-67.55 924.69,-70.65 934.54,-74.55 934.82,-67.55"/>
</g>
</g>
</svg>
