<?xml version="1.0" encoding="UTF-8" standalone="no"?>
<!DOCTYPE svg PUBLIC "-//W3C//DTD SVG 1.1//EN"
 "http://www.w3.org/Graphics/SVG/1.1/DTD/svg11.dtd">
<!-- Generated by graphviz version 3.0.0 (20220226.1711)
 -->
<!-- Title: slljit::Parser::push_scope Pages: 1 -->
<svg width="1979pt" height="446pt"
 viewBox="0.00 0.00 1979.00 445.66" xmlns="http://www.w3.org/2000/svg" xmlns:xlink="http://www.w3.org/1999/xlink">
<g id="graph0" class="graph" transform="scale(1 1) rotate(0) translate(4 441.66)">
<title>slljit::Parser::push_scope</title>
<!-- Node1 -->
<g id="node1" class="node">
<title>Node1</title>
<g id="a_node1"><a xlink:title=" ">
<polygon fill="#bfbfbf" stroke="black" points="1876,-63.5 1876,-93.5 1971,-93.5 1971,-63.5 1876,-63.5"/>
<text text-anchor="start" x="1884" y="-81.5" font-family="Helvetica,sans-Serif" font-size="10.00">slljit::Parser::push</text>
<text text-anchor="middle" x="1923.5" y="-70.5" font-family="Helvetica,sans-Serif" font-size="10.00">_scope</text>
</a>
</g>
</g>
<!-- Node2 -->
<g id="node2" class="node">
<title>Node2</title>
<g id="a_node2"><a xlink:href="classslljit_1_1_parser.html#a81023e7a6221eb6b92027bd21433c9dd" target="_top" xlink:title="forexpr ::= &#39;for&#39; identifier &#39;=&#39; expr &#39;,&#39; expr (&#39;,&#39; expr)? &#39;in&#39; expression">
<polygon fill="none" stroke="black" points="1706,-164 1706,-183 1840,-183 1840,-164 1706,-164"/>
<text text-anchor="middle" x="1773" y="-171" font-family="Helvetica,sans-Serif" font-size="10.00">slljit::Parser::ParseForExpr</text>
</a>
</g>
</g>
<!-- Node1&#45;&gt;Node2 -->
<g id="edge1" class="edge">
<title>Node1&#45;&gt;Node2</title>
<path fill="none" stroke="midnightblue" d="M1890.18,-99.18C1858.92,-119.18 1812.9,-148.61 1789.26,-163.74"/>
<polygon fill="midnightblue" stroke="midnightblue" points="1892.43,-101.89 1898.97,-93.55 1888.66,-95.99 1892.43,-101.89"/>
</g>
<!-- Node8 -->
<g id="node8" class="node">
<title>Node8</title>
<g id="a_node8"><a xlink:href="classslljit_1_1_parser.html#a149f5e88cb03aa08c388e6320c6c1bac" target="_top" xlink:title="ifexpr ::= &#39;if&#39; expression &#39;then&#39; expression &#39;else&#39; expression">
<polygon fill="none" stroke="black" points="679,-164 679,-183 804,-183 804,-164 679,-164"/>
<text text-anchor="middle" x="741.5" y="-171" font-family="Helvetica,sans-Serif" font-size="10.00">slljit::Parser::ParseIfExpr</text>
</a>
</g>
</g>
<!-- Node1&#45;&gt;Node8 -->
<g id="edge27" class="edge">
<title>Node1&#45;&gt;Node8</title>
<path fill="none" stroke="midnightblue" d="M1865.64,-83.94C1801.98,-89.56 1695.7,-97.5 1604,-97.5 1604,-97.5 1604,-97.5 1113.5,-97.5 991.65,-97.5 956.44,-80.59 840,-116.5 806.46,-126.84 772.16,-150.59 754.55,-163.94"/>
<polygon fill="midnightblue" stroke="midnightblue" points="1866.22,-87.4 1875.87,-83.03 1865.6,-80.43 1866.22,-87.4"/>
</g>
<!-- Node9 -->
<g id="node9" class="node">
<title>Node9</title>
<g id="a_node9"><a xlink:href="classslljit_1_1_parser.html#aa9a9ce164e114ad7f347f32329f5a5a2" target="_top" xlink:title="definition ::= &#39;def&#39; prototype expression">
<polygon fill="none" stroke="black" points="683.5,-44.5 683.5,-74.5 799.5,-74.5 799.5,-44.5 683.5,-44.5"/>
<text text-anchor="start" x="691.5" y="-62.5" font-family="Helvetica,sans-Serif" font-size="10.00">slljit::Parser::ParseTop</text>
<text text-anchor="middle" x="741.5" y="-51.5" font-family="Helvetica,sans-Serif" font-size="10.00">LevelTypedExpression</text>
</a>
</g>
</g>
<!-- Node1&#45;&gt;Node9 -->
<g id="edge28" class="edge">
<title>Node1&#45;&gt;Node9</title>
<path fill="none" stroke="midnightblue" d="M1865.64,-73.06C1801.98,-67.44 1695.7,-59.5 1604,-59.5 1604,-59.5 1604,-59.5 1113.5,-59.5 1002.39,-59.5 872.57,-59.5 799.7,-59.5"/>
<polygon fill="midnightblue" stroke="midnightblue" points="1865.6,-76.57 1875.87,-73.97 1866.22,-69.6 1865.6,-76.57"/>
</g>
<!-- Node18 -->
<g id="node18" class="node">
<title>Node18</title>
<g id="a_node18"><a xlink:href="classslljit_1_1_parser.html#a3da23d78669853ac1f1d38a709475c5c" target="_top" xlink:title=" ">
<polygon fill="none" stroke="black" points="1559,-0.5 1559,-30.5 1647,-30.5 1647,-0.5 1559,-0.5"/>
<text text-anchor="start" x="1567" y="-18.5" font-family="Helvetica,sans-Serif" font-size="10.00">slljit::Parser::set</text>
<text text-anchor="middle" x="1603" y="-7.5" font-family="Helvetica,sans-Serif" font-size="10.00">_variables</text>
</a>
</g>
</g>
<!-- Node1&#45;&gt;Node18 -->
<g id="edge29" class="edge">
<title>Node1&#45;&gt;Node18</title>
<path fill="none" stroke="midnightblue" d="M1880.73,-59.41C1867.89,-54.19 1853.57,-49.01 1840,-45.5 1774.03,-28.41 1695.06,-20.89 1647.25,-17.7"/>
<polygon fill="midnightblue" stroke="midnightblue" points="1879.65,-62.75 1890.22,-63.37 1882.35,-56.29 1879.65,-62.75"/>
</g>
<!-- Node3 -->
<g id="node3" class="node">
<title>Node3</title>
<g id="a_node3"><a xlink:href="classslljit_1_1_parser.html#a45cb3e4f600e8e2c253490e7d878e8cd" target="_top" xlink:title=" ">
<polygon fill="none" stroke="black" points="1536,-315 1536,-334 1670,-334 1670,-315 1536,-315"/>
<text text-anchor="middle" x="1603" y="-322" font-family="Helvetica,sans-Serif" font-size="10.00">slljit::Parser::ParsePrimary</text>
</a>
</g>
</g>
<!-- Node2&#45;&gt;Node3 -->
<g id="edge2" class="edge">
<title>Node2&#45;&gt;Node3</title>
<path fill="none" stroke="midnightblue" d="M1753.63,-190.02C1718.55,-221.54 1643.06,-289.39 1614.89,-314.71"/>
<polygon fill="midnightblue" stroke="midnightblue" points="1756.14,-192.46 1761.24,-183.18 1751.46,-187.26 1756.14,-192.46"/>
</g>
<!-- Node4 -->
<g id="node4" class="node">
<title>Node4</title>
<g id="a_node4"><a xlink:href="classslljit_1_1_parser.html#af8579896f39ac563d2edd14404d70f41" target="_top" xlink:title=" ">
<polygon fill="none" stroke="black" points="1375,-284 1375,-303 1500,-303 1500,-284 1375,-284"/>
<text text-anchor="middle" x="1437.5" y="-291" font-family="Helvetica,sans-Serif" font-size="10.00">slljit::Parser::ParseUnary</text>
</a>
</g>
</g>
<!-- Node3&#45;&gt;Node4 -->
<g id="edge3" class="edge">
<title>Node3&#45;&gt;Node4</title>
<path fill="none" stroke="midnightblue" d="M1541.56,-313.04C1524.18,-309.75 1505.42,-306.19 1488.72,-303.02"/>
<polygon fill="midnightblue" stroke="midnightblue" points="1541.13,-316.52 1551.61,-314.95 1542.44,-309.64 1541.13,-316.52"/>
</g>
<!-- Node4&#45;&gt;Node4 -->
<g id="edge26" class="edge">
<title>Node4&#45;&gt;Node4</title>
<path fill="none" stroke="midnightblue" d="M1466.25,-312.15C1465.04,-317.44 1455.46,-321.5 1437.5,-321.5 1410.13,-321.5 1402.22,-312.07 1413.76,-303.26"/>
<polygon fill="midnightblue" stroke="midnightblue" points="1469.19,-310.25 1461.24,-303.26 1463.09,-313.69 1469.19,-310.25"/>
</g>
<!-- Node5 -->
<g id="node5" class="node">
<title>Node5</title>
<g id="a_node5"><a xlink:href="classslljit_1_1_parser.html#ae387c9672ec50720d8cb969558aedbe9" target="_top" xlink:title=" ">
<polygon fill="none" stroke="black" points="1225,-278.5 1225,-308.5 1339,-308.5 1339,-278.5 1225,-278.5"/>
<text text-anchor="start" x="1233" y="-296.5" font-family="Helvetica,sans-Serif" font-size="10.00">slljit::Parser::ParseBin</text>
<text text-anchor="middle" x="1282" y="-285.5" font-family="Helvetica,sans-Serif" font-size="10.00">OpRHS</text>
</a>
</g>
</g>
<!-- Node4&#45;&gt;Node5 -->
<g id="edge4" class="edge">
<title>Node4&#45;&gt;Node5</title>
<path fill="none" stroke="midnightblue" d="M1364.86,-293.5C1356.22,-293.5 1347.48,-293.5 1339.1,-293.5"/>
<polygon fill="midnightblue" stroke="midnightblue" points="1364.95,-297 1374.95,-293.5 1364.95,-290 1364.95,-297"/>
</g>
<!-- Node6 -->
<g id="node6" class="node">
<title>Node6</title>
<g id="a_node6"><a xlink:href="classslljit_1_1_parser.html#a79461bf414d03dcabb49d3bbd6f89607" target="_top" xlink:title=" ">
<polygon fill="none" stroke="black" points="1040,-221 1040,-240 1189,-240 1189,-221 1040,-221"/>
<text text-anchor="middle" x="1114.5" y="-228" font-family="Helvetica,sans-Serif" font-size="10.00">slljit::Parser::ParseExpression</text>
</a>
</g>
</g>
<!-- Node4&#45;&gt;Node6 -->
<g id="edge25" class="edge">
<title>Node4&#45;&gt;Node6</title>
<path fill="none" stroke="midnightblue" d="M1390.3,-281.44C1374.13,-277.4 1355.81,-273.03 1339,-269.5 1284.46,-258.04 1221.93,-247.34 1176.9,-240.05"/>
<polygon fill="midnightblue" stroke="midnightblue" points="1389.51,-284.85 1400.06,-283.9 1391.22,-278.06 1389.51,-284.85"/>
</g>
<!-- Node5&#45;&gt;Node5 -->
<g id="edge5" class="edge">
<title>Node5&#45;&gt;Node5</title>
<path fill="none" stroke="midnightblue" d="M1309.36,-318.96C1305.97,-323.68 1296.85,-327 1282,-327 1257.64,-327 1248.69,-318.06 1255.16,-308.66"/>
<polygon fill="midnightblue" stroke="midnightblue" points="1312.84,-318.47 1308.84,-308.66 1305.85,-318.82 1312.84,-318.47"/>
</g>
<!-- Node5&#45;&gt;Node6 -->
<g id="edge6" class="edge">
<title>Node5&#45;&gt;Node6</title>
<path fill="none" stroke="midnightblue" d="M1231.93,-274.82C1202.03,-263.44 1165.07,-249.37 1140.92,-240.18"/>
<polygon fill="midnightblue" stroke="midnightblue" points="1230.77,-278.12 1241.36,-278.41 1233.26,-271.58 1230.77,-278.12"/>
</g>
<!-- Node6&#45;&gt;Node2 -->
<g id="edge17" class="edge">
<title>Node6&#45;&gt;Node2</title>
<path fill="none" stroke="midnightblue" d="M1199.13,-223.24C1331.2,-211.77 1585.41,-189.7 1705.74,-179.25"/>
<polygon fill="midnightblue" stroke="midnightblue" points="1198.72,-219.76 1189.06,-224.11 1199.33,-226.74 1198.72,-219.76"/>
</g>
<!-- Node7 -->
<g id="node7" class="node">
<title>Node7</title>
<g id="a_node7"><a xlink:href="classslljit_1_1_parser.html#acc431005ac3dd38732083d7a1bb0eab2" target="_top" xlink:title=" ">
<polygon fill="none" stroke="black" points="840,-126 840,-145 1004,-145 1004,-126 840,-126"/>
<text text-anchor="middle" x="922" y="-133" font-family="Helvetica,sans-Serif" font-size="10.00">slljit::Parser::ParseExpressionList</text>
</a>
</g>
</g>
<!-- Node6&#45;&gt;Node7 -->
<g id="edge7" class="edge">
<title>Node6&#45;&gt;Node7</title>
<path fill="none" stroke="midnightblue" d="M1094.81,-214.2C1074.01,-196.89 1038.75,-169.96 1004,-154.5 995.42,-150.68 985.98,-147.58 976.66,-145.07"/>
<polygon fill="midnightblue" stroke="midnightblue" points="1092.65,-216.95 1102.54,-220.75 1097.17,-211.61 1092.65,-216.95"/>
</g>
<!-- Node6&#45;&gt;Node8 -->
<g id="edge20" class="edge">
<title>Node6&#45;&gt;Node8</title>
<path fill="none" stroke="midnightblue" d="M1029.66,-220.05C975.44,-213 903.41,-203.08 840,-192.5 823.16,-189.69 804.76,-186.21 788.53,-183"/>
<polygon fill="midnightblue" stroke="midnightblue" points="1029.55,-223.57 1039.91,-221.38 1030.44,-216.62 1029.55,-223.57"/>
</g>
<!-- Node15 -->
<g id="node15" class="node">
<title>Node15</title>
<g id="a_node15"><a xlink:href="classslljit_1_1_parser.html#a25cfefcbeea85744e23370d3a6f8ad5b" target="_top" xlink:title=" ">
<polygon fill="none" stroke="black" points="844,-357 844,-376 1000,-376 1000,-357 844,-357"/>
<text text-anchor="middle" x="922" y="-364" font-family="Helvetica,sans-Serif" font-size="10.00">slljit::Parser::ParseIdentifierExpr</text>
</a>
</g>
</g>
<!-- Node6&#45;&gt;Node15 -->
<g id="edge18" class="edge">
<title>Node6&#45;&gt;Node15</title>
<path fill="none" stroke="midnightblue" d="M1095.63,-247.14C1074.6,-266.28 1038.21,-298.08 1004,-321.5 983.95,-335.22 959.38,-348.41 942.59,-356.92"/>
<polygon fill="midnightblue" stroke="midnightblue" points="1098.15,-249.58 1103.15,-240.24 1093.41,-244.42 1098.15,-249.58"/>
</g>
<!-- Node16 -->
<g id="node16" class="node">
<title>Node16</title>
<g id="a_node16"><a xlink:href="classslljit_1_1_parser.html#a6e2e0f6a2cc445f3a956db59c8d2da66" target="_top" xlink:title="parenexpr ::= &#39;(&#39; expression &#39;)&#39;">
<polygon fill="none" stroke="black" points="849,-293 849,-312 995,-312 995,-293 849,-293"/>
<text text-anchor="middle" x="922" y="-300" font-family="Helvetica,sans-Serif" font-size="10.00">slljit::Parser::ParseParenExpr</text>
</a>
</g>
</g>
<!-- Node6&#45;&gt;Node16 -->
<g id="edge21" class="edge">
<title>Node6&#45;&gt;Node16</title>
<path fill="none" stroke="midnightblue" d="M1078.66,-243.67C1041,-257.9 981.9,-280.24 948.4,-292.9"/>
<polygon fill="midnightblue" stroke="midnightblue" points="1080.09,-246.87 1088.2,-240.06 1077.61,-240.32 1080.09,-246.87"/>
</g>
<!-- Node17 -->
<g id="node17" class="node">
<title>Node17</title>
<g id="a_node17"><a xlink:href="classslljit_1_1_parser.html#a435877d3f2869d140a7cca646546a114" target="_top" xlink:title="varexpr ::= &#39;g_var&#39; identifier (&#39;=&#39; expression)?">
<polygon fill="none" stroke="black" points="854.5,-164 854.5,-183 989.5,-183 989.5,-164 854.5,-164"/>
<text text-anchor="middle" x="922" y="-171" font-family="Helvetica,sans-Serif" font-size="10.00">slljit::Parser::ParseVarExpr</text>
</a>
</g>
</g>
<!-- Node6&#45;&gt;Node17 -->
<g id="edge23" class="edge">
<title>Node6&#45;&gt;Node17</title>
<path fill="none" stroke="midnightblue" d="M1072.22,-218.01C1051.72,-211.82 1026.56,-204.24 1004,-197.5 987.98,-192.71 970.17,-187.43 955.33,-183.04"/>
<polygon fill="midnightblue" stroke="midnightblue" points="1071.3,-221.39 1081.89,-220.93 1073.33,-214.69 1071.3,-221.39"/>
</g>
<!-- Node7&#45;&gt;Node2 -->
<g id="edge8" class="edge">
<title>Node7&#45;&gt;Node2</title>
<path fill="none" stroke="midnightblue" d="M1014.48,-135.5C1086.82,-135.5 1190.36,-135.5 1281,-135.5 1438.5,-135.5 1438.5,-135.5 1438.5,-135.5 1538.88,-135.5 1655.16,-152.7 1720.5,-163.96"/>
<polygon fill="midnightblue" stroke="midnightblue" points="1014.04,-132 1004.04,-135.5 1014.04,-139 1014.04,-132"/>
</g>
<!-- Node7&#45;&gt;Node8 -->
<g id="edge9" class="edge">
<title>Node7&#45;&gt;Node8</title>
<path fill="none" stroke="midnightblue" d="M866.13,-147.18C840.82,-152.57 811.15,-158.89 787.22,-163.98"/>
<polygon fill="midnightblue" stroke="midnightblue" points="866.9,-150.59 875.96,-145.09 865.45,-143.75 866.9,-150.59"/>
</g>
<!-- Node7&#45;&gt;Node9 -->
<g id="edge11" class="edge">
<title>Node7&#45;&gt;Node9</title>
<path fill="none" stroke="midnightblue" d="M888.84,-121.81C857.56,-108.49 810.15,-88.3 777.83,-74.54"/>
<polygon fill="midnightblue" stroke="midnightblue" points="887.82,-125.18 898.39,-125.87 890.56,-118.74 887.82,-125.18"/>
</g>
<!-- Node8&#45;&gt;Node3 -->
<g id="edge10" class="edge">
<title>Node8&#45;&gt;Node3</title>
<path fill="none" stroke="midnightblue" d="M745.3,-192.94C752.53,-235.38 775.91,-336.46 840,-385.5 937.89,-460.41 990.24,-431.5 1113.5,-431.5 1283,-431.5 1283,-431.5 1283,-431.5 1404.79,-431.5 1539.8,-360.52 1585.71,-334.18"/>
<polygon fill="midnightblue" stroke="midnightblue" points="748.76,-192.37 743.74,-183.04 741.85,-193.47 748.76,-192.37"/>
</g>
<!-- Node10 -->
<g id="node10" class="node">
<title>Node10</title>
<g id="a_node10"><a xlink:href="classslljit_1_1_parser.html#af0cac4623fc05b8b7ae9884b0aeb3d3f" target="_top" xlink:title=" ">
<polygon fill="none" stroke="black" points="512,-44.5 512,-74.5 643,-74.5 643,-44.5 512,-44.5"/>
<text text-anchor="start" x="520" y="-62.5" font-family="Helvetica,sans-Serif" font-size="10.00">slljit::Parser::HandleTyped</text>
<text text-anchor="middle" x="577.5" y="-51.5" font-family="Helvetica,sans-Serif" font-size="10.00">Expression</text>
</a>
</g>
</g>
<!-- Node9&#45;&gt;Node10 -->
<g id="edge12" class="edge">
<title>Node9&#45;&gt;Node10</title>
<path fill="none" stroke="midnightblue" d="M673.16,-59.5C663.22,-59.5 652.99,-59.5 643.11,-59.5"/>
<polygon fill="midnightblue" stroke="midnightblue" points="673.38,-63 683.38,-59.5 673.38,-56 673.38,-63"/>
</g>
<!-- Node11 -->
<g id="node11" class="node">
<title>Node11</title>
<g id="a_node11"><a xlink:href="classslljit_1_1_parser.html#ae2d3d6534b87da7f237c19129a464bda" target="_top" xlink:title="top ::= definition | external | expression | &#39;;&#39;">
<polygon fill="none" stroke="black" points="360,-48 360,-67 476,-67 476,-48 360,-48"/>
<text text-anchor="middle" x="418" y="-55" font-family="Helvetica,sans-Serif" font-size="10.00">slljit::Parser::MainLoop</text>
</a>
</g>
</g>
<!-- Node10&#45;&gt;Node11 -->
<g id="edge13" class="edge">
<title>Node10&#45;&gt;Node11</title>
<path fill="none" stroke="midnightblue" d="M501.87,-58.55C493.2,-58.44 484.47,-58.33 476.09,-58.23"/>
<polygon fill="midnightblue" stroke="midnightblue" points="501.94,-62.05 511.98,-58.68 502.03,-55.05 501.94,-62.05"/>
</g>
<!-- Node12 -->
<g id="node12" class="node">
<title>Node12</title>
<g id="a_node12"><a xlink:href="classslljit_1_1_parser.html#a2429935f3c870648f9f895a7b2361cfb" target="_top" xlink:title=" ">
<polygon fill="none" stroke="black" points="226,-47 226,-66 324,-66 324,-47 226,-47"/>
<text text-anchor="middle" x="275" y="-54" font-family="Helvetica,sans-Serif" font-size="10.00">slljit::Parser::parse</text>
</a>
</g>
</g>
<!-- Node11&#45;&gt;Node12 -->
<g id="edge14" class="edge">
<title>Node11&#45;&gt;Node12</title>
<path fill="none" stroke="midnightblue" d="M349.37,-57.02C340.9,-56.96 332.37,-56.9 324.28,-56.84"/>
<polygon fill="midnightblue" stroke="midnightblue" points="349.63,-60.52 359.65,-57.09 349.68,-53.52 349.63,-60.52"/>
</g>
<!-- Node13 -->
<g id="node13" class="node">
<title>Node13</title>
<g id="a_node13"><a xlink:href="classslljit_1_1_program.html#ae4d26526a7dd9c69ebe92fb43736696b" target="_top" xlink:title=" ">
<polygon fill="none" stroke="black" points="74,-25 74,-44 190,-44 190,-25 74,-25"/>
<text text-anchor="middle" x="132" y="-32" font-family="Helvetica,sans-Serif" font-size="10.00">slljit::Program::compile</text>
</a>
</g>
</g>
<!-- Node12&#45;&gt;Node13 -->
<g id="edge15" class="edge">
<title>Node12&#45;&gt;Node13</title>
<path fill="none" stroke="midnightblue" d="M215.72,-47.41C207.27,-46.09 198.58,-44.73 190.16,-43.42"/>
<polygon fill="midnightblue" stroke="midnightblue" points="215.45,-50.91 225.87,-48.99 216.53,-43.99 215.45,-50.91"/>
</g>
<!-- Node14 -->
<g id="node14" class="node">
<title>Node14</title>
<g id="a_node14"><a xlink:href="compiler__cli_8cpp.html#a3c04138a5bfe5d72780bb7e82a18e627" target="_top" xlink:title=" ">
<polygon fill="none" stroke="black" points="0,-25 0,-44 38,-44 38,-25 0,-25"/>
<text text-anchor="middle" x="19" y="-32" font-family="Helvetica,sans-Serif" font-size="10.00">main</text>
</a>
</g>
</g>
<!-- Node13&#45;&gt;Node14 -->
<g id="edge16" class="edge">
<title>Node13&#45;&gt;Node14</title>
<path fill="none" stroke="midnightblue" d="M63.62,-34.5C54.3,-34.5 45.44,-34.5 38.18,-34.5"/>
<polygon fill="midnightblue" stroke="midnightblue" points="63.87,-38 73.87,-34.5 63.87,-31 63.87,-38"/>
</g>
<!-- Node15&#45;&gt;Node3 -->
<g id="edge19" class="edge">
<title>Node15&#45;&gt;Node3</title>
<path fill="none" stroke="midnightblue" d="M1010.35,-368.28C1123.71,-369.5 1327.41,-367.93 1500,-346.5 1521.93,-343.78 1546.13,-338.65 1565.44,-334.03"/>
<polygon fill="midnightblue" stroke="midnightblue" points="1010.38,-364.78 1000.34,-368.17 1010.3,-371.78 1010.38,-364.78"/>
</g>
<!-- Node16&#45;&gt;Node3 -->
<g id="edge22" class="edge">
<title>Node16&#45;&gt;Node3</title>
<path fill="none" stroke="midnightblue" d="M998.43,-313.37C1059.4,-321.58 1147.53,-332.15 1225,-336.5 1275.59,-339.34 1288.34,-337.44 1339,-336.5 1410.59,-335.17 1428.48,-333.94 1500,-330.5 1511.61,-329.94 1523.95,-329.28 1535.89,-328.6"/>
<polygon fill="midnightblue" stroke="midnightblue" points="998.89,-309.9 988.51,-312.02 997.95,-316.83 998.89,-309.9"/>
</g>
<!-- Node17&#45;&gt;Node3 -->
<g id="edge24" class="edge">
<title>Node17&#45;&gt;Node3</title>
<path fill="none" stroke="midnightblue" d="M999.76,-179.36C1112.12,-189.61 1326.81,-215.6 1500,-274.5 1531.55,-285.23 1565.9,-303.58 1585.6,-314.82"/>
<polygon fill="midnightblue" stroke="midnightblue" points="999.81,-175.85 989.54,-178.44 999.19,-182.82 999.81,-175.85"/>
</g>
<!-- Node18&#45;&gt;Node13 -->
<g id="edge30" class="edge">
<title>Node18&#45;&gt;Node13</title>
<path fill="none" stroke="midnightblue" d="M1548.77,-15.5C1485.44,-15.5 1376.51,-15.5 1283,-15.5 1283,-15.5 1283,-15.5 417,-15.5 338.18,-15.5 247.33,-22.88 190.04,-28.44"/>
<polygon fill="midnightblue" stroke="midnightblue" points="1548.92,-19 1558.92,-15.5 1548.92,-12 1548.92,-19"/>
</g>
</g>
</svg>
