<?xml version="1.0" encoding="UTF-8" standalone="no"?>
<!DOCTYPE svg PUBLIC "-//W3C//DTD SVG 1.1//EN"
 "http://www.w3.org/Graphics/SVG/1.1/DTD/svg11.dtd">
<!-- Generated by graphviz version 3.0.0 (20220226.1711)
 -->
<!-- Title: slljit::Parser::ParseUnary Pages: 1 -->
<svg width="1510pt" height="1071pt"
 viewBox="0.00 0.00 1510.00 1070.50" xmlns="http://www.w3.org/2000/svg" xmlns:xlink="http://www.w3.org/1999/xlink">
<g id="graph0" class="graph" transform="scale(1 1) rotate(0) translate(4 1066.5)">
<title>slljit::Parser::ParseUnary</title>
<!-- Node1 -->
<g id="node1" class="node">
<title>Node1</title>
<g id="a_node1"><a xlink:title=" ">
<polygon fill="#bfbfbf" stroke="black" points="0,-386 0,-405 125,-405 125,-386 0,-386"/>
<text text-anchor="middle" x="62.5" y="-393" font-family="Helvetica,sans-Serif" font-size="10.00">slljit::Parser::ParseUnary</text>
</a>
</g>
</g>
<!-- Node1&#45;&gt;Node1 -->
<g id="edge59" class="edge">
<title>Node1&#45;&gt;Node1</title>
<path fill="none" stroke="midnightblue" d="M37.22,-405.26C24.93,-414.07 33.35,-423.5 62.5,-423.5 82.08,-423.5 92.31,-419.24 93.19,-413.77"/>
<polygon fill="midnightblue" stroke="midnightblue" points="96.09,-411.82 87.78,-405.26 90.19,-415.57 96.09,-411.82"/>
</g>
<!-- Node2 -->
<g id="node2" class="node">
<title>Node2</title>
<g id="a_node2"><a xlink:href="classslljit_1_1_parser.html#a9fcfefd86a6000dcb40fa737361ea55b" target="_top" xlink:title="GetTokPrecedence &#45; Get the precedence of the pending binary operator token.">
<polygon fill="none" stroke="black" points="1070,-462 1070,-481 1204,-481 1204,-462 1070,-462"/>
<text text-anchor="middle" x="1137" y="-469" font-family="Helvetica,sans-Serif" font-size="10.00">slljit::Parser::getNextToken</text>
</a>
</g>
</g>
<!-- Node1&#45;&gt;Node2 -->
<g id="edge1" class="edge">
<title>Node1&#45;&gt;Node2</title>
<path fill="none" stroke="midnightblue" d="M63.78,-405.19C66.69,-487.21 98.14,-1062.5 408,-1062.5 408,-1062.5 408,-1062.5 798.5,-1062.5 904.31,-1062.5 954.1,-1061.65 1022,-980.5 1086.73,-903.14 1125.13,-575.01 1134.01,-491.1"/>
<polygon fill="midnightblue" stroke="midnightblue" points="1137.49,-491.44 1135.04,-481.13 1130.53,-490.71 1137.49,-491.44"/>
</g>
<!-- Node10 -->
<g id="node10" class="node">
<title>Node10</title>
<g id="a_node10"><a xlink:href="classslljit_1_1_parser.html#a45cb3e4f600e8e2c253490e7d878e8cd" target="_top" xlink:title=" ">
<polygon fill="none" stroke="black" points="161,-634 161,-653 295,-653 295,-634 161,-634"/>
<text text-anchor="middle" x="228" y="-641" font-family="Helvetica,sans-Serif" font-size="10.00">slljit::Parser::ParsePrimary</text>
</a>
</g>
</g>
<!-- Node1&#45;&gt;Node10 -->
<g id="edge10" class="edge">
<title>Node1&#45;&gt;Node10</title>
<path fill="none" stroke="midnightblue" d="M69.91,-405.22C94.43,-442.41 182.53,-576.05 214.93,-625.2"/>
<polygon fill="midnightblue" stroke="midnightblue" points="212.21,-627.42 220.63,-633.85 218.05,-623.57 212.21,-627.42"/>
</g>
<!-- Node3 -->
<g id="node3" class="node">
<title>Node3</title>
<g id="a_node3"><a xlink:href="classslljit_1_1_tokenizer.html#a4f0b343321f5e4561a80e47a5cec05d2" target="_top" xlink:title=" ">
<polygon fill="none" stroke="black" points="1252,-456.5 1252,-486.5 1340,-486.5 1340,-456.5 1252,-456.5"/>
<text text-anchor="start" x="1260" y="-474.5" font-family="Helvetica,sans-Serif" font-size="10.00">slljit::Tokenizer::</text>
<text text-anchor="middle" x="1296" y="-463.5" font-family="Helvetica,sans-Serif" font-size="10.00">gettok</text>
</a>
</g>
</g>
<!-- Node2&#45;&gt;Node3 -->
<g id="edge2" class="edge">
<title>Node2&#45;&gt;Node3</title>
<path fill="none" stroke="midnightblue" d="M1204.13,-471.5C1216.57,-471.5 1229.44,-471.5 1241.44,-471.5"/>
<polygon fill="midnightblue" stroke="midnightblue" points="1241.74,-475 1251.74,-471.5 1241.74,-468 1241.74,-475"/>
</g>
<!-- Node3&#45;&gt;Node3 -->
<g id="edge4" class="edge">
<title>Node3&#45;&gt;Node3</title>
<path fill="none" stroke="midnightblue" d="M1271.25,-486.66C1265.29,-496.06 1273.54,-505 1296,-505 1309.69,-505 1318.1,-501.68 1321.23,-496.96"/>
<polygon fill="midnightblue" stroke="midnightblue" points="1324.71,-496.48 1320.75,-486.66 1317.72,-496.81 1324.71,-496.48"/>
</g>
<!-- Node4 -->
<g id="node4" class="node">
<title>Node4</title>
<g id="a_node4"><a xlink:href="classslljit_1_1_tokenizer.html#aebe79ebb0da26fa5e89963683d474402" target="_top" xlink:title=" ">
<polygon fill="none" stroke="black" points="1395,-579.5 1395,-609.5 1483,-609.5 1483,-579.5 1395,-579.5"/>
<text text-anchor="start" x="1403" y="-597.5" font-family="Helvetica,sans-Serif" font-size="10.00">slljit::Tokenizer::</text>
<text text-anchor="middle" x="1439" y="-586.5" font-family="Helvetica,sans-Serif" font-size="10.00">_getchar</text>
</a>
</g>
</g>
<!-- Node3&#45;&gt;Node4 -->
<g id="edge3" class="edge">
<title>Node3&#45;&gt;Node4</title>
<path fill="none" stroke="midnightblue" d="M1305.83,-486.8C1318.76,-508.01 1344.75,-546.34 1376,-569.5 1379.02,-571.74 1382.27,-573.81 1385.64,-575.73"/>
<polygon fill="midnightblue" stroke="midnightblue" points="1384.29,-578.96 1394.78,-580.42 1387.49,-572.74 1384.29,-578.96"/>
</g>
<!-- Node5 -->
<g id="node5" class="node">
<title>Node5</title>
<g id="a_node5"><a xlink:href="classslljit_1_1_tokenizer.html#ac5b5748065cb054e0f34d995d1f3edce" target="_top" xlink:title=" ">
<polygon fill="none" stroke="black" points="1395,-530.5 1395,-560.5 1483,-560.5 1483,-530.5 1395,-530.5"/>
<text text-anchor="start" x="1403" y="-548.5" font-family="Helvetica,sans-Serif" font-size="10.00">slljit::Tokenizer::</text>
<text text-anchor="middle" x="1439" y="-537.5" font-family="Helvetica,sans-Serif" font-size="10.00">is_id_char</text>
</a>
</g>
</g>
<!-- Node3&#45;&gt;Node5 -->
<g id="edge5" class="edge">
<title>Node3&#45;&gt;Node5</title>
<path fill="none" stroke="midnightblue" d="M1319.22,-486.72C1334.73,-496.98 1356.14,-510.43 1376,-520.5 1380.01,-522.53 1384.23,-524.52 1388.49,-526.44"/>
<polygon fill="midnightblue" stroke="midnightblue" points="1387.29,-529.73 1397.86,-530.49 1390.07,-523.31 1387.29,-529.73"/>
</g>
<!-- Node6 -->
<g id="node6" class="node">
<title>Node6</title>
<g id="a_node6"><a xlink:href="classslljit_1_1_tokenizer.html#afddb21e93063a4c2338c2d42e23d18d2" target="_top" xlink:title=" ">
<polygon fill="none" stroke="black" points="1395,-481.5 1395,-511.5 1483,-511.5 1483,-481.5 1395,-481.5"/>
<text text-anchor="start" x="1403" y="-499.5" font-family="Helvetica,sans-Serif" font-size="10.00">slljit::Tokenizer::</text>
<text text-anchor="middle" x="1439" y="-488.5" font-family="Helvetica,sans-Serif" font-size="10.00">is_id_start_char</text>
</a>
</g>
</g>
<!-- Node3&#45;&gt;Node6 -->
<g id="edge6" class="edge">
<title>Node3&#45;&gt;Node6</title>
<path fill="none" stroke="midnightblue" d="M1340.07,-479.14C1354.15,-481.63 1369.96,-484.44 1384.71,-487.05"/>
<polygon fill="midnightblue" stroke="midnightblue" points="1384.25,-490.52 1394.71,-488.82 1385.47,-483.63 1384.25,-490.52"/>
</g>
<!-- Node7 -->
<g id="node7" class="node">
<title>Node7</title>
<g id="a_node7"><a xlink:href="classslljit_1_1_tokenizer.html#ada986d1651ab242c370288c198cd726d" target="_top" xlink:title=" ">
<polygon fill="none" stroke="black" points="1376,-432.5 1376,-462.5 1502,-462.5 1502,-432.5 1376,-432.5"/>
<text text-anchor="start" x="1384" y="-450.5" font-family="Helvetica,sans-Serif" font-size="10.00">slljit::Tokenizer::</text>
<text text-anchor="middle" x="1439" y="-439.5" font-family="Helvetica,sans-Serif" font-size="10.00">is_reserved_command_id</text>
</a>
</g>
</g>
<!-- Node3&#45;&gt;Node7 -->
<g id="edge7" class="edge">
<title>Node3&#45;&gt;Node7</title>
<path fill="none" stroke="midnightblue" d="M1340.07,-464.17C1348.31,-462.77 1357.14,-461.26 1366,-459.76"/>
<polygon fill="midnightblue" stroke="midnightblue" points="1366.72,-463.18 1375.99,-458.06 1365.54,-456.28 1366.72,-463.18"/>
</g>
<!-- Node8 -->
<g id="node8" class="node">
<title>Node8</title>
<g id="a_node8"><a xlink:href="classslljit_1_1_tokenizer.html#ab29a7d2f06bb354a3f748106f5ea3e6c" target="_top" xlink:title=" ">
<polygon fill="none" stroke="black" points="1394.5,-383.5 1394.5,-413.5 1483.5,-413.5 1483.5,-383.5 1394.5,-383.5"/>
<text text-anchor="start" x="1402.5" y="-401.5" font-family="Helvetica,sans-Serif" font-size="10.00">slljit::Tokenizer::</text>
<text text-anchor="middle" x="1439" y="-390.5" font-family="Helvetica,sans-Serif" font-size="10.00">is_special_literal</text>
</a>
</g>
</g>
<!-- Node3&#45;&gt;Node8 -->
<g id="edge8" class="edge">
<title>Node3&#45;&gt;Node8</title>
<path fill="none" stroke="midnightblue" d="M1318.84,-456.42C1334.36,-446.09 1355.92,-432.5 1376,-422.5 1379.35,-420.83 1382.84,-419.2 1386.39,-417.63"/>
<polygon fill="midnightblue" stroke="midnightblue" points="1388.02,-420.73 1395.85,-413.6 1385.28,-414.29 1388.02,-420.73"/>
</g>
<!-- Node9 -->
<g id="node9" class="node">
<title>Node9</title>
<g id="a_node9"><a xlink:href="classslljit_1_1_tokenizer.html#ae5cc0911ed858f6bc7bf206928cd66ae" target="_top" xlink:title=" ">
<polygon fill="none" stroke="black" points="1395,-334.5 1395,-364.5 1483,-364.5 1483,-334.5 1395,-334.5"/>
<text text-anchor="start" x="1403" y="-352.5" font-family="Helvetica,sans-Serif" font-size="10.00">slljit::Tokenizer::</text>
<text text-anchor="middle" x="1439" y="-341.5" font-family="Helvetica,sans-Serif" font-size="10.00">set_lok_location</text>
</a>
</g>
</g>
<!-- Node3&#45;&gt;Node9 -->
<g id="edge9" class="edge">
<title>Node3&#45;&gt;Node9</title>
<path fill="none" stroke="midnightblue" d="M1305.57,-456.5C1318.37,-435.29 1344.41,-396.57 1376,-373.5 1379.02,-371.29 1382.27,-369.26 1385.64,-367.39"/>
<polygon fill="midnightblue" stroke="midnightblue" points="1387.4,-370.43 1394.78,-362.83 1384.27,-364.17 1387.4,-370.43"/>
</g>
<!-- Node11 -->
<g id="node11" class="node">
<title>Node11</title>
<g id="a_node11"><a xlink:href="classslljit_1_1_tokenizer.html#a0baa2e9dbe626f0475ee4206f16bbb4e" target="_top" xlink:title=" ">
<polygon fill="none" stroke="black" points="745.5,-650.5 745.5,-680.5 849.5,-680.5 849.5,-650.5 745.5,-650.5"/>
<text text-anchor="start" x="753.5" y="-668.5" font-family="Helvetica,sans-Serif" font-size="10.00">slljit::Tokenizer::</text>
<text text-anchor="middle" x="797.5" y="-657.5" font-family="Helvetica,sans-Serif" font-size="10.00">get_source_location</text>
</a>
</g>
</g>
<!-- Node10&#45;&gt;Node11 -->
<g id="edge11" class="edge">
<title>Node10&#45;&gt;Node11</title>
<path fill="none" stroke="midnightblue" d="M295.21,-646.07C406.1,-650.37 627.77,-658.96 735.25,-663.13"/>
<polygon fill="midnightblue" stroke="midnightblue" points="735.16,-666.62 745.29,-663.51 735.43,-659.63 735.16,-666.62"/>
</g>
<!-- Node12 -->
<g id="node12" class="node">
<title>Node12</title>
<g id="a_node12"><a xlink:href="classslljit_1_1_parser.html#a81023e7a6221eb6b92027bd21433c9dd" target="_top" xlink:title="forexpr ::= &#39;for&#39; identifier &#39;=&#39; expr &#39;,&#39; expr (&#39;,&#39; expr)? &#39;in&#39; expression">
<polygon fill="none" stroke="black" points="342,-211 342,-230 476,-230 476,-211 342,-211"/>
<text text-anchor="middle" x="409" y="-218" font-family="Helvetica,sans-Serif" font-size="10.00">slljit::Parser::ParseForExpr</text>
</a>
</g>
</g>
<!-- Node10&#45;&gt;Node12 -->
<g id="edge12" class="edge">
<title>Node10&#45;&gt;Node12</title>
<path fill="none" stroke="midnightblue" d="M231.25,-633.93C240.46,-595.51 277.4,-449.33 331,-338.5 349.25,-300.76 377.58,-260.66 394.31,-238.28"/>
<polygon fill="midnightblue" stroke="midnightblue" points="397.26,-240.18 400.51,-230.09 391.68,-235.95 397.26,-240.18"/>
</g>
<!-- Node19 -->
<g id="node19" class="node">
<title>Node19</title>
<g id="a_node19"><a xlink:href="classslljit_1_1_parser.html#a25cfefcbeea85744e23370d3a6f8ad5b" target="_top" xlink:title=" ">
<polygon fill="none" stroke="black" points="331,-593 331,-612 487,-612 487,-593 331,-593"/>
<text text-anchor="middle" x="409" y="-600" font-family="Helvetica,sans-Serif" font-size="10.00">slljit::Parser::ParseIdentifierExpr</text>
</a>
</g>
</g>
<!-- Node10&#45;&gt;Node19 -->
<g id="edge28" class="edge">
<title>Node10&#45;&gt;Node19</title>
<path fill="none" stroke="midnightblue" d="M270.52,-633.99C296.18,-628.11 329.32,-620.52 356.63,-614.27"/>
<polygon fill="midnightblue" stroke="midnightblue" points="357.43,-617.67 366.4,-612.03 355.87,-610.85 357.43,-617.67"/>
</g>
<!-- Node23 -->
<g id="node23" class="node">
<title>Node23</title>
<g id="a_node23"><a xlink:href="classslljit_1_1_parser.html#a149f5e88cb03aa08c388e6320c6c1bac" target="_top" xlink:title="ifexpr ::= &#39;if&#39; expression &#39;then&#39; expression &#39;else&#39; expression">
<polygon fill="none" stroke="black" points="346.5,-348 346.5,-367 471.5,-367 471.5,-348 346.5,-348"/>
<text text-anchor="middle" x="409" y="-355" font-family="Helvetica,sans-Serif" font-size="10.00">slljit::Parser::ParseIfExpr</text>
</a>
</g>
</g>
<!-- Node10&#45;&gt;Node23 -->
<g id="edge36" class="edge">
<title>Node10&#45;&gt;Node23</title>
<path fill="none" stroke="midnightblue" d="M234.96,-633.98C260.65,-592.93 362.26,-430.58 396.6,-375.72"/>
<polygon fill="midnightblue" stroke="midnightblue" points="399.68,-377.39 402.02,-367.05 393.75,-373.67 399.68,-377.39"/>
</g>
<!-- Node24 -->
<g id="node24" class="node">
<title>Node24</title>
<g id="a_node24"><a xlink:href="classslljit_1_1_parser.html#af9ccc5948e2cf9051c2569cc42dc3bb7" target="_top" xlink:title="numberexpr ::= number">
<polygon fill="none" stroke="black" points="532,-1015 532,-1034 678,-1034 678,-1015 532,-1015"/>
<text text-anchor="middle" x="605" y="-1022" font-family="Helvetica,sans-Serif" font-size="10.00">slljit::Parser::ParseLiteralExpr</text>
</a>
</g>
</g>
<!-- Node10&#45;&gt;Node24 -->
<g id="edge43" class="edge">
<title>Node10&#45;&gt;Node24</title>
<path fill="none" stroke="midnightblue" d="M230.31,-653C235.81,-689.7 260.17,-824.06 331,-903.5 386.56,-965.81 480.24,-997.61 542.11,-1012.63"/>
<polygon fill="midnightblue" stroke="midnightblue" points="541.59,-1016.1 552.13,-1014.98 543.19,-1009.29 541.59,-1016.1"/>
</g>
<!-- Node26 -->
<g id="node26" class="node">
<title>Node26</title>
<g id="a_node26"><a xlink:href="classslljit_1_1_parser.html#a6e2e0f6a2cc445f3a956db59c8d2da66" target="_top" xlink:title="parenexpr ::= &#39;(&#39; expression &#39;)&#39;">
<polygon fill="none" stroke="black" points="532,-977 532,-996 678,-996 678,-977 532,-977"/>
<text text-anchor="middle" x="605" y="-984" font-family="Helvetica,sans-Serif" font-size="10.00">slljit::Parser::ParseParenExpr</text>
</a>
</g>
</g>
<!-- Node10&#45;&gt;Node26 -->
<g id="edge47" class="edge">
<title>Node10&#45;&gt;Node26</title>
<path fill="none" stroke="midnightblue" d="M232.57,-653.33C243.6,-682.69 279.49,-771.31 331,-829.5 400.66,-908.19 427.34,-924 523,-967.5 528.39,-969.95 534.13,-972.11 539.97,-973.99"/>
<polygon fill="midnightblue" stroke="midnightblue" points="539.27,-977.44 549.86,-976.93 541.27,-970.73 539.27,-977.44"/>
</g>
<!-- Node27 -->
<g id="node27" class="node">
<title>Node27</title>
<g id="a_node27"><a xlink:href="classslljit_1_1_parser.html#a435877d3f2869d140a7cca646546a114" target="_top" xlink:title="varexpr ::= &#39;g_var&#39; identifier (&#39;=&#39; expression)?">
<polygon fill="none" stroke="black" points="341.5,-801 341.5,-820 476.5,-820 476.5,-801 341.5,-801"/>
<text text-anchor="middle" x="409" y="-808" font-family="Helvetica,sans-Serif" font-size="10.00">slljit::Parser::ParseVarExpr</text>
</a>
</g>
</g>
<!-- Node10&#45;&gt;Node27 -->
<g id="edge51" class="edge">
<title>Node10&#45;&gt;Node27</title>
<path fill="none" stroke="midnightblue" d="M239.4,-653.2C268.81,-680.64 352.87,-759.07 390,-793.71"/>
<polygon fill="midnightblue" stroke="midnightblue" points="387.87,-796.51 397.57,-800.77 392.65,-791.39 387.87,-796.51"/>
</g>
<!-- Node12&#45;&gt;Node2 -->
<g id="edge14" class="edge">
<title>Node12&#45;&gt;Node2</title>
<path fill="none" stroke="midnightblue" d="M419.44,-210.74C437.52,-192.84 479.16,-155.3 523,-141.5 592.52,-119.61 615.24,-128.73 687,-141.5 847.08,-169.99 902.95,-177.76 1022,-288.5 1074.88,-337.69 1112.81,-416.69 1128.29,-452.62"/>
<polygon fill="midnightblue" stroke="midnightblue" points="1125.1,-454.07 1132.2,-461.93 1131.55,-451.36 1125.1,-454.07"/>
</g>
<!-- Node12&#45;&gt;Node11 -->
<g id="edge13" class="edge">
<title>Node12&#45;&gt;Node11</title>
<path fill="none" stroke="midnightblue" d="M476.26,-216.45C547.93,-213.52 656.1,-213.8 687,-239.5 718.81,-265.96 775.24,-552.95 791.81,-640.37"/>
<polygon fill="midnightblue" stroke="midnightblue" points="788.42,-641.28 793.71,-650.46 795.29,-639.98 788.42,-641.28"/>
</g>
<!-- Node13 -->
<g id="node13" class="node">
<title>Node13</title>
<g id="a_node13"><a xlink:href="classslljit_1_1_parser.html#a79461bf414d03dcabb49d3bbd6f89607" target="_top" xlink:title=" ">
<polygon fill="none" stroke="black" points="723,-280 723,-299 872,-299 872,-280 723,-280"/>
<text text-anchor="middle" x="797.5" y="-287" font-family="Helvetica,sans-Serif" font-size="10.00">slljit::Parser::ParseExpression</text>
</a>
</g>
</g>
<!-- Node12&#45;&gt;Node13 -->
<g id="edge15" class="edge">
<title>Node12&#45;&gt;Node13</title>
<path fill="none" stroke="midnightblue" d="M423.79,-210.83C444.29,-197.12 484.52,-172.65 523,-163.5 593.91,-146.63 620.68,-133.27 687,-163.5 735.59,-185.65 770.97,-241.2 786.97,-270.59"/>
<polygon fill="midnightblue" stroke="midnightblue" points="784.06,-272.57 791.82,-279.79 790.26,-269.31 784.06,-272.57"/>
</g>
<!-- Node16 -->
<g id="node16" class="node">
<title>Node16</title>
<g id="a_node16"><a xlink:href="classslljit_1_1_parser.html#acc431005ac3dd38732083d7a1bb0eab2" target="_top" xlink:title=" ">
<polygon fill="none" stroke="black" points="523,-173 523,-192 687,-192 687,-173 523,-173"/>
<text text-anchor="middle" x="605" y="-180" font-family="Helvetica,sans-Serif" font-size="10.00">slljit::Parser::ParseExpressionList</text>
</a>
</g>
</g>
<!-- Node12&#45;&gt;Node16 -->
<g id="edge22" class="edge">
<title>Node12&#45;&gt;Node16</title>
<path fill="none" stroke="midnightblue" d="M458.95,-210.91C485.25,-205.76 517.84,-199.38 545.47,-193.97"/>
<polygon fill="midnightblue" stroke="midnightblue" points="546.26,-197.38 555.4,-192.02 544.91,-190.51 546.26,-197.38"/>
</g>
<!-- Node17 -->
<g id="node17" class="node">
<title>Node17</title>
<g id="a_node17"><a xlink:href="classslljit_1_1_parser.html#ae7a9c738da8b5802b80001e306ad668b" target="_top" xlink:title=" ">
<polygon fill="none" stroke="black" points="560,-298.5 560,-328.5 650,-328.5 650,-298.5 560,-298.5"/>
<text text-anchor="start" x="568" y="-316.5" font-family="Helvetica,sans-Serif" font-size="10.00">slljit::Parser::pop</text>
<text text-anchor="middle" x="605" y="-305.5" font-family="Helvetica,sans-Serif" font-size="10.00">_scope</text>
</a>
</g>
</g>
<!-- Node12&#45;&gt;Node17 -->
<g id="edge26" class="edge">
<title>Node12&#45;&gt;Node17</title>
<path fill="none" stroke="midnightblue" d="M423.67,-230.23C444.35,-244.59 485.17,-271.58 523,-288.5 531.67,-292.38 541.13,-295.89 550.41,-298.98"/>
<polygon fill="midnightblue" stroke="midnightblue" points="549.4,-302.33 559.99,-302.03 551.53,-295.66 549.4,-302.33"/>
</g>
<!-- Node18 -->
<g id="node18" class="node">
<title>Node18</title>
<g id="a_node18"><a xlink:href="classslljit_1_1_parser.html#a07488f6e4f1ec72ba5c6f04ad550b7a3" target="_top" xlink:title=" ">
<polygon fill="none" stroke="black" points="557.5,-249.5 557.5,-279.5 652.5,-279.5 652.5,-249.5 557.5,-249.5"/>
<text text-anchor="start" x="565.5" y="-267.5" font-family="Helvetica,sans-Serif" font-size="10.00">slljit::Parser::push</text>
<text text-anchor="middle" x="605" y="-256.5" font-family="Helvetica,sans-Serif" font-size="10.00">_scope</text>
</a>
</g>
</g>
<!-- Node12&#45;&gt;Node18 -->
<g id="edge27" class="edge">
<title>Node12&#45;&gt;Node18</title>
<path fill="none" stroke="midnightblue" d="M452.1,-230.05C479.93,-236.36 516.76,-244.71 547.18,-251.61"/>
<polygon fill="midnightblue" stroke="midnightblue" points="546.7,-255.09 557.23,-253.89 548.25,-248.27 546.7,-255.09"/>
</g>
<!-- Node13&#45;&gt;Node1 -->
<g id="edge21" class="edge">
<title>Node13&#45;&gt;Node1</title>
<path fill="none" stroke="midnightblue" d="M792.97,-279.81C782.22,-251.95 746.94,-171.71 687,-141.5 621.91,-108.69 595.05,-130.5 523,-141.5 434.62,-154.99 410.9,-161.4 331,-201.5 228.35,-253.02 122.65,-342.61 81.45,-379.21"/>
<polygon fill="midnightblue" stroke="midnightblue" points="78.99,-376.72 73.88,-385.99 83.66,-381.93 78.99,-376.72"/>
</g>
<!-- Node14 -->
<g id="node14" class="node">
<title>Node14</title>
<g id="a_node14"><a xlink:href="classslljit_1_1_parser.html#ae387c9672ec50720d8cb969558aedbe9" target="_top" xlink:title=" ">
<polygon fill="none" stroke="black" points="908,-0.5 908,-30.5 1022,-30.5 1022,-0.5 908,-0.5"/>
<text text-anchor="start" x="916" y="-18.5" font-family="Helvetica,sans-Serif" font-size="10.00">slljit::Parser::ParseBin</text>
<text text-anchor="middle" x="965" y="-7.5" font-family="Helvetica,sans-Serif" font-size="10.00">OpRHS</text>
</a>
</g>
</g>
<!-- Node13&#45;&gt;Node14 -->
<g id="edge16" class="edge">
<title>Node13&#45;&gt;Node14</title>
<path fill="none" stroke="midnightblue" d="M804.39,-279.75C827.84,-240.92 915,-96.63 949.65,-39.25"/>
<polygon fill="midnightblue" stroke="midnightblue" points="952.76,-40.88 954.93,-30.51 946.77,-37.26 952.76,-40.88"/>
</g>
<!-- Node14&#45;&gt;Node1 -->
<g id="edge20" class="edge">
<title>Node14&#45;&gt;Node1</title>
<path fill="none" stroke="midnightblue" d="M907.9,-18.54C837.44,-22.1 712.81,-27.5 606,-27.5 408,-27.5 408,-27.5 408,-27.5 215.32,-27.5 99.25,-299.7 70.53,-375.89"/>
<polygon fill="midnightblue" stroke="midnightblue" points="67.11,-375.06 66.93,-385.66 73.68,-377.49 67.11,-375.06"/>
</g>
<!-- Node14&#45;&gt;Node2 -->
<g id="edge17" class="edge">
<title>Node14&#45;&gt;Node2</title>
<path fill="none" stroke="midnightblue" d="M989.35,-30.57C1000.71,-39 1013.67,-50.43 1022,-63.5 1106.09,-195.46 1129.15,-389.89 1134.54,-451.8"/>
<polygon fill="midnightblue" stroke="midnightblue" points="1131.05,-452.1 1135.35,-461.78 1138.03,-451.53 1131.05,-452.1"/>
</g>
<!-- Node14&#45;&gt;Node14 -->
<g id="edge19" class="edge">
<title>Node14&#45;&gt;Node14</title>
<path fill="none" stroke="midnightblue" d="M936.07,-30.66C929.1,-40.06 938.74,-49 965,-49 981,-49 990.84,-45.68 994.5,-40.96"/>
<polygon fill="midnightblue" stroke="midnightblue" points="997.97,-40.45 993.93,-30.66 990.98,-40.84 997.97,-40.45"/>
</g>
<!-- Node15 -->
<g id="node15" class="node">
<title>Node15</title>
<g id="a_node15"><a xlink:href="classslljit_1_1_parser.html#a8485bea3e380a80c8296092996c9ef96" target="_top" xlink:title="Get the precedence of the pending binary operator token.">
<polygon fill="none" stroke="black" points="1058,-6 1058,-25 1216,-25 1216,-6 1058,-6"/>
<text text-anchor="middle" x="1137" y="-13" font-family="Helvetica,sans-Serif" font-size="10.00">slljit::Parser::GetTokPrecedence</text>
</a>
</g>
</g>
<!-- Node14&#45;&gt;Node15 -->
<g id="edge18" class="edge">
<title>Node14&#45;&gt;Node15</title>
<path fill="none" stroke="midnightblue" d="M1022.14,-15.5C1030.34,-15.5 1038.95,-15.5 1047.6,-15.5"/>
<polygon fill="midnightblue" stroke="midnightblue" points="1047.77,-19 1057.77,-15.5 1047.77,-12 1047.77,-19"/>
</g>
<!-- Node16&#45;&gt;Node2 -->
<g id="edge24" class="edge">
<title>Node16&#45;&gt;Node2</title>
<path fill="none" stroke="midnightblue" d="M648.19,-192.04C702.08,-205.2 797.29,-231.77 872,-270.5 945.63,-308.67 956.11,-331.13 1022,-381.5 1055.4,-407.03 1093.64,-437.47 1116.25,-455.61"/>
<polygon fill="midnightblue" stroke="midnightblue" points="1114.13,-458.39 1124.11,-461.92 1118.51,-452.93 1114.13,-458.39"/>
</g>
<!-- Node16&#45;&gt;Node11 -->
<g id="edge23" class="edge">
<title>Node16&#45;&gt;Node11</title>
<path fill="none" stroke="midnightblue" d="M665.5,-192.1C673.54,-195.56 681.05,-200.22 687,-206.5 702.41,-222.77 771.49,-546.63 791.22,-640.32"/>
<polygon fill="midnightblue" stroke="midnightblue" points="787.84,-641.26 793.33,-650.33 794.69,-639.82 787.84,-641.26"/>
</g>
<!-- Node16&#45;&gt;Node13 -->
<g id="edge25" class="edge">
<title>Node16&#45;&gt;Node13</title>
<path fill="none" stroke="midnightblue" d="M648.73,-192.05C661.41,-195.7 675.09,-200.48 687,-206.5 705.84,-216.03 750.97,-252.06 777.03,-273.39"/>
<polygon fill="midnightblue" stroke="midnightblue" points="775.13,-276.35 785.07,-280 779.57,-270.94 775.13,-276.35"/>
</g>
<!-- Node19&#45;&gt;Node2 -->
<g id="edge34" class="edge">
<title>Node19&#45;&gt;Node2</title>
<path fill="none" stroke="midnightblue" d="M420.57,-592.95C439.51,-576.49 481.16,-543.12 523,-528.5 707.56,-463.99 941.34,-462.57 1059.77,-467.01"/>
<polygon fill="midnightblue" stroke="midnightblue" points="1059.7,-470.51 1069.83,-467.41 1059.98,-463.52 1059.7,-470.51"/>
</g>
<!-- Node19&#45;&gt;Node11 -->
<g id="edge33" class="edge">
<title>Node19&#45;&gt;Node11</title>
<path fill="none" stroke="midnightblue" d="M451.46,-612.01C472.77,-616.72 499.2,-622.28 523,-626.5 595.69,-639.39 679.84,-650.88 735.39,-657.99"/>
<polygon fill="midnightblue" stroke="midnightblue" points="735.06,-661.48 745.42,-659.27 735.95,-654.53 735.06,-661.48"/>
</g>
<!-- Node19&#45;&gt;Node13 -->
<g id="edge35" class="edge">
<title>Node19&#45;&gt;Node13</title>
<path fill="none" stroke="midnightblue" d="M415.8,-592.65C430.89,-567.61 473.68,-500.49 523,-457.5 586.5,-402.15 615.48,-407 687,-362.5 717.86,-343.3 752.65,-319.77 774.57,-304.71"/>
<polygon fill="midnightblue" stroke="midnightblue" points="776.61,-307.56 782.85,-299 772.63,-301.8 776.61,-307.56"/>
</g>
<!-- Node20 -->
<g id="node20" class="node">
<title>Node20</title>
<g id="a_node20"><a xlink:href="classslljit_1_1_parser.html#a4c93eea2333b7705c6aea18df2105196" target="_top" xlink:title=" ">
<polygon fill="none" stroke="black" points="560.5,-587.5 560.5,-617.5 649.5,-617.5 649.5,-587.5 560.5,-587.5"/>
<text text-anchor="start" x="568.5" y="-605.5" font-family="Helvetica,sans-Serif" font-size="10.00">slljit::Parser::find</text>
<text text-anchor="middle" x="605" y="-594.5" font-family="Helvetica,sans-Serif" font-size="10.00">_var_in_scope</text>
</a>
</g>
</g>
<!-- Node19&#45;&gt;Node20 -->
<g id="edge29" class="edge">
<title>Node19&#45;&gt;Node20</title>
<path fill="none" stroke="midnightblue" d="M487.23,-602.5C508.28,-602.5 530.62,-602.5 550.07,-602.5"/>
<polygon fill="midnightblue" stroke="midnightblue" points="550.25,-606 560.25,-602.5 550.25,-599 550.25,-606"/>
</g>
<!-- Node21 -->
<g id="node21" class="node">
<title>Node21</title>
<g id="a_node21"><a xlink:href="classslljit_1_1_parser.html#aee4666b5cca40f389e2458033d9006e3" target="_top" xlink:title=" ">
<polygon fill="none" stroke="black" points="544,-538.5 544,-568.5 666,-568.5 666,-538.5 544,-538.5"/>
<text text-anchor="start" x="552" y="-556.5" font-family="Helvetica,sans-Serif" font-size="10.00">slljit::Parser::get</text>
<text text-anchor="middle" x="605" y="-545.5" font-family="Helvetica,sans-Serif" font-size="10.00">_current_function_scope</text>
</a>
</g>
</g>
<!-- Node19&#45;&gt;Node21 -->
<g id="edge31" class="edge">
<title>Node19&#45;&gt;Node21</title>
<path fill="none" stroke="midnightblue" d="M447.87,-592.94C472.53,-586.71 505.45,-578.39 534.7,-571"/>
<polygon fill="midnightblue" stroke="midnightblue" points="535.63,-574.38 544.47,-568.54 533.91,-567.59 535.63,-574.38"/>
</g>
<!-- Node22 -->
<g id="node22" class="node">
<title>Node22</title>
<g id="a_node22"><a xlink:href="classslljit_1_1_tokenizer.html#a6270acd003b9e0a1323c1fdd54cd2fe2" target="_top" xlink:title=" ">
<polygon fill="none" stroke="black" points="561,-713.5 561,-743.5 649,-743.5 649,-713.5 561,-713.5"/>
<text text-anchor="start" x="569" y="-731.5" font-family="Helvetica,sans-Serif" font-size="10.00">slljit::Tokenizer::</text>
<text text-anchor="middle" x="605" y="-720.5" font-family="Helvetica,sans-Serif" font-size="10.00">get_identifier</text>
</a>
</g>
</g>
<!-- Node19&#45;&gt;Node22 -->
<g id="edge32" class="edge">
<title>Node19&#45;&gt;Node22</title>
<path fill="none" stroke="midnightblue" d="M424.9,-612.18C456.29,-632.57 529.83,-680.33 572.27,-707.89"/>
<polygon fill="midnightblue" stroke="midnightblue" points="570.54,-710.94 580.83,-713.45 574.35,-705.07 570.54,-710.94"/>
</g>
<!-- Node20&#45;&gt;Node11 -->
<g id="edge30" class="edge">
<title>Node20&#45;&gt;Node11</title>
<path fill="none" stroke="midnightblue" d="M649.7,-616.95C676.94,-625.96 712.23,-637.63 741.38,-647.27"/>
<polygon fill="midnightblue" stroke="midnightblue" points="740.42,-650.64 751.01,-650.46 742.62,-643.99 740.42,-650.64"/>
</g>
<!-- Node23&#45;&gt;Node2 -->
<g id="edge38" class="edge">
<title>Node23&#45;&gt;Node2</title>
<path fill="none" stroke="midnightblue" d="M470.65,-367.02C604.19,-387.99 923.04,-438.06 1065.33,-460.4"/>
<polygon fill="midnightblue" stroke="midnightblue" points="1064.85,-463.87 1075.27,-461.96 1065.93,-456.95 1064.85,-463.87"/>
</g>
<!-- Node23&#45;&gt;Node11 -->
<g id="edge37" class="edge">
<title>Node23&#45;&gt;Node11</title>
<path fill="none" stroke="midnightblue" d="M430.37,-367.01C478.48,-390.1 601.53,-452.81 687,-528.5 725.88,-562.93 761.55,-612.29 781.04,-641.4"/>
<polygon fill="midnightblue" stroke="midnightblue" points="778.35,-643.68 786.78,-650.1 784.19,-639.83 778.35,-643.68"/>
</g>
<!-- Node23&#45;&gt;Node13 -->
<g id="edge39" class="edge">
<title>Node23&#45;&gt;Node13</title>
<path fill="none" stroke="midnightblue" d="M471.73,-359C528.49,-358.99 614.57,-355.42 687,-337.5 717.01,-330.07 749.17,-315.04 770.82,-303.76"/>
<polygon fill="midnightblue" stroke="midnightblue" points="772.51,-306.83 779.7,-299.04 769.22,-300.65 772.51,-306.83"/>
</g>
<!-- Node23&#45;&gt;Node16 -->
<g id="edge40" class="edge">
<title>Node23&#45;&gt;Node16</title>
<path fill="none" stroke="midnightblue" d="M418.21,-347.71C436.11,-326.68 480.41,-276.11 523,-239.5 541.04,-223.99 563.25,-208.59 579.84,-197.72"/>
<polygon fill="midnightblue" stroke="midnightblue" points="581.92,-200.54 588.42,-192.17 578.12,-194.66 581.92,-200.54"/>
</g>
<!-- Node23&#45;&gt;Node17 -->
<g id="edge41" class="edge">
<title>Node23&#45;&gt;Node17</title>
<path fill="none" stroke="midnightblue" d="M452.1,-347.95C480.85,-341.43 519.21,-332.73 550.19,-325.7"/>
<polygon fill="midnightblue" stroke="midnightblue" points="550.99,-329.11 559.97,-323.49 549.44,-322.29 550.99,-329.11"/>
</g>
<!-- Node23&#45;&gt;Node18 -->
<g id="edge42" class="edge">
<title>Node23&#45;&gt;Node18</title>
<path fill="none" stroke="midnightblue" d="M423.28,-347.79C443.78,-333.2 484.77,-305.49 523,-288.5 530.8,-285.03 539.25,-281.9 547.64,-279.13"/>
<polygon fill="midnightblue" stroke="midnightblue" points="548.93,-282.39 557.42,-276.05 546.83,-275.72 548.93,-282.39"/>
</g>
<!-- Node24&#45;&gt;Node2 -->
<g id="edge46" class="edge">
<title>Node24&#45;&gt;Node2</title>
<path fill="none" stroke="midnightblue" d="M649.01,-1014.97C661.32,-1012.09 674.73,-1008.81 687,-1005.5 703.15,-1001.14 706.73,-998.39 723,-994.5 854.2,-963.18 923.56,-1034.71 1022,-942.5 1089.89,-878.91 1125.55,-573.76 1134.01,-491.8"/>
<polygon fill="midnightblue" stroke="midnightblue" points="1137.54,-491.68 1135.06,-481.38 1130.57,-490.98 1137.54,-491.68"/>
</g>
<!-- Node24&#45;&gt;Node11 -->
<g id="edge45" class="edge">
<title>Node24&#45;&gt;Node11</title>
<path fill="none" stroke="midnightblue" d="M673.01,-1014.92C678.1,-1012.41 682.86,-1009.32 687,-1005.5 734.81,-961.42 777.78,-761.36 791.75,-690.48"/>
<polygon fill="midnightblue" stroke="midnightblue" points="795.19,-691.11 793.67,-680.63 788.32,-689.77 795.19,-691.11"/>
</g>
<!-- Node25 -->
<g id="node25" class="node">
<title>Node25</title>
<g id="a_node25"><a xlink:href="classslljit_1_1_tokenizer.html#a69d29df7401c1f268a754725c4561470" target="_top" xlink:title=" ">
<polygon fill="none" stroke="black" points="753.5,-1003.5 753.5,-1033.5 841.5,-1033.5 841.5,-1003.5 753.5,-1003.5"/>
<text text-anchor="start" x="761.5" y="-1021.5" font-family="Helvetica,sans-Serif" font-size="10.00">slljit::Tokenizer::</text>
<text text-anchor="middle" x="797.5" y="-1010.5" font-family="Helvetica,sans-Serif" font-size="10.00">get_literal_string</text>
</a>
</g>
</g>
<!-- Node24&#45;&gt;Node25 -->
<g id="edge44" class="edge">
<title>Node24&#45;&gt;Node25</title>
<path fill="none" stroke="midnightblue" d="M678.02,-1022.23C699.64,-1021.55 722.97,-1020.82 743.16,-1020.18"/>
<polygon fill="midnightblue" stroke="midnightblue" points="743.52,-1023.67 753.4,-1019.86 743.3,-1016.67 743.52,-1023.67"/>
</g>
<!-- Node26&#45;&gt;Node2 -->
<g id="edge49" class="edge">
<title>Node26&#45;&gt;Node2</title>
<path fill="none" stroke="midnightblue" d="M646.22,-976.94C668.73,-971.75 697.35,-965.4 723,-960.5 789.1,-947.86 972.24,-957.8 1022,-912.5 1086.38,-853.89 1124.35,-569.83 1133.71,-491.53"/>
<polygon fill="midnightblue" stroke="midnightblue" points="1137.24,-491.49 1134.93,-481.15 1130.29,-490.68 1137.24,-491.49"/>
</g>
<!-- Node26&#45;&gt;Node11 -->
<g id="edge48" class="edge">
<title>Node26&#45;&gt;Node11</title>
<path fill="none" stroke="midnightblue" d="M672.46,-976.94C677.74,-974.44 682.68,-971.34 687,-967.5 730.04,-929.24 774.89,-756.2 790.63,-690.71"/>
<polygon fill="midnightblue" stroke="midnightblue" points="794.07,-691.36 792.98,-680.82 787.26,-689.74 794.07,-691.36"/>
</g>
<!-- Node26&#45;&gt;Node13 -->
<g id="edge50" class="edge">
<title>Node26&#45;&gt;Node13</title>
<path fill="none" stroke="midnightblue" d="M675.38,-976.93C679.7,-974.39 683.65,-971.28 687,-967.5 735.48,-912.78 711.49,-712.69 723,-640.5 743.31,-513.07 778.91,-361.91 791.73,-308.97"/>
<polygon fill="midnightblue" stroke="midnightblue" points="795.14,-309.75 794.11,-299.21 788.34,-308.1 795.14,-309.75"/>
</g>
<!-- Node27&#45;&gt;Node2 -->
<g id="edge55" class="edge">
<title>Node27&#45;&gt;Node2</title>
<path fill="none" stroke="midnightblue" d="M476.51,-819.8C480.18,-821.42 483.71,-823.31 487,-825.5 511.01,-841.49 497.57,-865.89 523,-879.5 587.26,-913.89 619.01,-905.78 687,-879.5 901.87,-796.46 1077.32,-557.51 1123.87,-489.66"/>
<polygon fill="midnightblue" stroke="midnightblue" points="1126.86,-491.5 1129.58,-481.26 1121.07,-487.57 1126.86,-491.5"/>
</g>
<!-- Node27&#45;&gt;Node11 -->
<g id="edge53" class="edge">
<title>Node27&#45;&gt;Node11</title>
<path fill="none" stroke="midnightblue" d="M476.6,-817.94C535.11,-821.49 620.96,-819.29 687,-786.5 730.51,-764.9 764.85,-717.96 782.79,-689.31"/>
<polygon fill="midnightblue" stroke="midnightblue" points="785.82,-691.07 788.03,-680.71 779.84,-687.43 785.82,-691.07"/>
</g>
<!-- Node27&#45;&gt;Node13 -->
<g id="edge56" class="edge">
<title>Node27&#45;&gt;Node13</title>
<path fill="none" stroke="midnightblue" d="M454.25,-800.99C475.1,-796.53 500.32,-791.19 523,-786.5 595.81,-771.44 633.56,-805.19 687,-753.5 703.63,-737.41 774.81,-395.16 792.5,-309.03"/>
<polygon fill="midnightblue" stroke="midnightblue" points="795.93,-309.73 794.51,-299.23 789.08,-308.33 795.93,-309.73"/>
</g>
<!-- Node27&#45;&gt;Node22 -->
<g id="edge52" class="edge">
<title>Node27&#45;&gt;Node22</title>
<path fill="none" stroke="midnightblue" d="M429.8,-800.83C452.2,-790.02 489.88,-772.23 523,-758.5 532.25,-754.67 542.18,-750.79 551.81,-747.16"/>
<polygon fill="midnightblue" stroke="midnightblue" points="553.16,-750.39 561.3,-743.62 550.71,-743.83 553.16,-750.39"/>
</g>
<!-- Node28 -->
<g id="node28" class="node">
<title>Node28</title>
<g id="a_node28"><a xlink:href="classslljit_1_1_tokenizer.html#a9dcee05dc292fa291e6b9644d12c1907" target="_top" xlink:title=" ">
<polygon fill="none" stroke="black" points="557.5,-927.5 557.5,-957.5 652.5,-957.5 652.5,-927.5 557.5,-927.5"/>
<text text-anchor="start" x="565.5" y="-945.5" font-family="Helvetica,sans-Serif" font-size="10.00">slljit::Tokenizer::</text>
<text text-anchor="middle" x="605" y="-934.5" font-family="Helvetica,sans-Serif" font-size="10.00">get_type_identifier</text>
</a>
</g>
</g>
<!-- Node27&#45;&gt;Node28 -->
<g id="edge54" class="edge">
<title>Node27&#45;&gt;Node28</title>
<path fill="none" stroke="midnightblue" d="M424.37,-820.08C440.43,-831.1 466.81,-850.16 487,-869.5 505,-886.74 502.63,-898.14 523,-912.5 530.56,-917.83 539.18,-922.34 547.91,-926.1"/>
<polygon fill="midnightblue" stroke="midnightblue" points="546.8,-929.43 557.38,-929.9 549.4,-922.93 546.8,-929.43"/>
</g>
<!-- Node29 -->
<g id="node29" class="node">
<title>Node29</title>
<g id="a_node29"><a xlink:href="classslljit_1_1_parser.html#acad3f159608acb847e0f693fc07fdd28" target="_top" xlink:title=" ">
<polygon fill="none" stroke="black" points="557.5,-839.5 557.5,-869.5 652.5,-869.5 652.5,-839.5 557.5,-839.5"/>
<text text-anchor="start" x="565.5" y="-857.5" font-family="Helvetica,sans-Serif" font-size="10.00">slljit::Parser::push</text>
<text text-anchor="middle" x="605" y="-846.5" font-family="Helvetica,sans-Serif" font-size="10.00">_var_into_scope</text>
</a>
</g>
</g>
<!-- Node27&#45;&gt;Node29 -->
<g id="edge57" class="edge">
<title>Node27&#45;&gt;Node29</title>
<path fill="none" stroke="midnightblue" d="M452.1,-820.05C479.93,-826.36 516.76,-834.71 547.18,-841.61"/>
<polygon fill="midnightblue" stroke="midnightblue" points="546.7,-845.09 557.23,-843.89 548.25,-838.27 546.7,-845.09"/>
</g>
<!-- Node29&#45;&gt;Node11 -->
<g id="edge58" class="edge">
<title>Node29&#45;&gt;Node11</title>
<path fill="none" stroke="midnightblue" d="M652.67,-842.7C664.63,-838.26 676.94,-832.33 687,-824.5 734.19,-787.78 768.78,-725.03 785.42,-690.36"/>
<polygon fill="midnightblue" stroke="midnightblue" points="788.75,-691.5 789.82,-680.96 782.41,-688.53 788.75,-691.5"/>
</g>
</g>
</svg>
