<?xml version="1.0" encoding="UTF-8" standalone="no"?>
<!DOCTYPE svg PUBLIC "-//W3C//DTD SVG 1.1//EN"
 "http://www.w3.org/Graphics/SVG/1.1/DTD/svg11.dtd">
<!-- Generated by graphviz version 3.0.0 (20220226.1711)
 -->
<!-- Title: slljit::Tokenizer::get_source_location Pages: 1 -->
<svg width="2072pt" height="627pt"
 viewBox="0.00 0.00 2072.00 627.31" xmlns="http://www.w3.org/2000/svg" xmlns:xlink="http://www.w3.org/1999/xlink">
<g id="graph0" class="graph" transform="scale(1 1) rotate(0) translate(4 623.31)">
<title>slljit::Tokenizer::get_source_location</title>
<!-- Node1 -->
<g id="node1" class="node">
<title>Node1</title>
<g id="a_node1"><a xlink:title=" ">
<polygon fill="#bfbfbf" stroke="black" points="1960,-232.31 1960,-262.31 2064,-262.31 2064,-232.31 1960,-232.31"/>
<text text-anchor="start" x="1968" y="-250.31" font-family="Helvetica,sans-Serif" font-size="10.00">slljit::Tokenizer::</text>
<text text-anchor="middle" x="2012" y="-239.31" font-family="Helvetica,sans-Serif" font-size="10.00">get_source_location</text>
</a>
</g>
</g>
<!-- Node2 -->
<g id="node2" class="node">
<title>Node2</title>
<g id="a_node2"><a xlink:href="classslljit_1_1_parser.html#a4c93eea2333b7705c6aea18df2105196" target="_top" xlink:title=" ">
<polygon fill="none" stroke="black" points="1835,-314.31 1835,-344.31 1924,-344.31 1924,-314.31 1835,-314.31"/>
<text text-anchor="start" x="1843" y="-332.31" font-family="Helvetica,sans-Serif" font-size="10.00">slljit::Parser::find</text>
<text text-anchor="middle" x="1879.5" y="-321.31" font-family="Helvetica,sans-Serif" font-size="10.00">_var_in_scope</text>
</a>
</g>
</g>
<!-- Node1&#45;&gt;Node2 -->
<g id="edge1" class="edge">
<title>Node1&#45;&gt;Node2</title>
<path fill="none" stroke="midnightblue" d="M1978.38,-267.81C1955.52,-282.17 1925.47,-301.06 1904.73,-314.09"/>
<polygon fill="midnightblue" stroke="midnightblue" points="1980.46,-270.64 1987.06,-262.35 1976.73,-264.71 1980.46,-270.64"/>
</g>
<!-- Node3 -->
<g id="node3" class="node">
<title>Node3</title>
<g id="a_node3"><a xlink:href="classslljit_1_1_parser.html#a25cfefcbeea85744e23370d3a6f8ad5b" target="_top" xlink:title=" ">
<polygon fill="none" stroke="black" points="1643,-297.81 1643,-316.81 1799,-316.81 1799,-297.81 1643,-297.81"/>
<text text-anchor="middle" x="1721" y="-304.81" font-family="Helvetica,sans-Serif" font-size="10.00">slljit::Parser::ParseIdentifierExpr</text>
</a>
</g>
</g>
<!-- Node1&#45;&gt;Node3 -->
<g id="edge30" class="edge">
<title>Node1&#45;&gt;Node3</title>
<path fill="none" stroke="midnightblue" d="M1950.15,-259.95C1895.85,-271.22 1817.51,-287.48 1768.2,-297.72"/>
<polygon fill="midnightblue" stroke="midnightblue" points="1950.92,-263.36 1960,-257.9 1949.5,-256.51 1950.92,-263.36"/>
</g>
<!-- Node4 -->
<g id="node4" class="node">
<title>Node4</title>
<g id="a_node4"><a xlink:href="classslljit_1_1_parser.html#a45cb3e4f600e8e2c253490e7d878e8cd" target="_top" xlink:title=" ">
<polygon fill="none" stroke="black" points="1473,-379.81 1473,-398.81 1607,-398.81 1607,-379.81 1473,-379.81"/>
<text text-anchor="middle" x="1540" y="-386.81" font-family="Helvetica,sans-Serif" font-size="10.00">slljit::Parser::ParsePrimary</text>
</a>
</g>
</g>
<!-- Node1&#45;&gt;Node4 -->
<g id="edge35" class="edge">
<title>Node1&#45;&gt;Node4</title>
<path fill="none" stroke="midnightblue" d="M2002.38,-271.96C1990.16,-302.81 1964.68,-354.61 1924,-379.31 1812.15,-447.25 1646,-416.67 1575.08,-398.87"/>
<polygon fill="midnightblue" stroke="midnightblue" points="2005.74,-272.96 2006.01,-262.37 1999.19,-270.48 2005.74,-272.96"/>
</g>
<!-- Node8 -->
<g id="node8" class="node">
<title>Node8</title>
<g id="a_node8"><a xlink:href="classslljit_1_1_parser.html#acc431005ac3dd38732083d7a1bb0eab2" target="_top" xlink:title=" ">
<polygon fill="none" stroke="black" points="777,-313.81 777,-332.81 941,-332.81 941,-313.81 777,-313.81"/>
<text text-anchor="middle" x="859" y="-320.81" font-family="Helvetica,sans-Serif" font-size="10.00">slljit::Parser::ParseExpressionList</text>
</a>
</g>
</g>
<!-- Node1&#45;&gt;Node8 -->
<g id="edge28" class="edge">
<title>Node1&#45;&gt;Node8</title>
<path fill="none" stroke="midnightblue" d="M1949.66,-247.31C1891.16,-247.31 1800.57,-247.31 1722,-247.31 1722,-247.31 1722,-247.31 1218,-247.31 1091.56,-247.31 945.37,-293.24 886.54,-313.69"/>
<polygon fill="midnightblue" stroke="midnightblue" points="1949.84,-250.81 1959.84,-247.31 1949.84,-243.81 1949.84,-250.81"/>
</g>
<!-- Node9 -->
<g id="node9" class="node">
<title>Node9</title>
<g id="a_node9"><a xlink:href="classslljit_1_1_parser.html#a81023e7a6221eb6b92027bd21433c9dd" target="_top" xlink:title="forexpr ::= &#39;for&#39; identifier &#39;=&#39; expr &#39;,&#39; expr (&#39;,&#39; expr)? &#39;in&#39; expression">
<polygon fill="none" stroke="black" points="607,-487.81 607,-506.81 741,-506.81 741,-487.81 607,-487.81"/>
<text text-anchor="middle" x="674" y="-494.81" font-family="Helvetica,sans-Serif" font-size="10.00">slljit::Parser::ParseForExpr</text>
</a>
</g>
</g>
<!-- Node1&#45;&gt;Node9 -->
<g id="edge29" class="edge">
<title>Node1&#45;&gt;Node9</title>
<path fill="none" stroke="midnightblue" d="M2008.1,-272.41C2001.28,-321.73 1980.35,-432.78 1924,-505.31 1860.75,-586.72 1825.09,-619.31 1722,-619.31 1722,-619.31 1722,-619.31 1050.5,-619.31 905.18,-619.31 743.03,-535.65 691.59,-506.89"/>
<polygon fill="midnightblue" stroke="midnightblue" points="2011.59,-272.69 2009.41,-262.32 2004.65,-271.78 2011.59,-272.69"/>
</g>
<!-- Node10 -->
<g id="node10" class="node">
<title>Node10</title>
<g id="a_node10"><a xlink:href="classslljit_1_1_parser.html#a149f5e88cb03aa08c388e6320c6c1bac" target="_top" xlink:title="ifexpr ::= &#39;if&#39; expression &#39;then&#39; expression &#39;else&#39; expression">
<polygon fill="none" stroke="black" points="611.5,-332.81 611.5,-351.81 736.5,-351.81 736.5,-332.81 611.5,-332.81"/>
<text text-anchor="middle" x="674" y="-339.81" font-family="Helvetica,sans-Serif" font-size="10.00">slljit::Parser::ParseIfExpr</text>
</a>
</g>
</g>
<!-- Node1&#45;&gt;Node10 -->
<g id="edge31" class="edge">
<title>Node1&#45;&gt;Node10</title>
<path fill="none" stroke="midnightblue" d="M1949.7,-234.53C1891.41,-223.49 1801.13,-209.31 1722,-209.31 1722,-209.31 1722,-209.31 1218,-209.31 1010.3,-209.31 770.4,-302.25 697.28,-332.75"/>
<polygon fill="midnightblue" stroke="midnightblue" points="1949.36,-238.02 1959.85,-236.48 1950.69,-231.15 1949.36,-238.02"/>
</g>
<!-- Node11 -->
<g id="node11" class="node">
<title>Node11</title>
<g id="a_node11"><a xlink:href="classslljit_1_1_parser.html#aa9a9ce164e114ad7f347f32329f5a5a2" target="_top" xlink:title="definition ::= &#39;def&#39; prototype expression">
<polygon fill="none" stroke="black" points="616,-112.31 616,-142.31 732,-142.31 732,-112.31 616,-112.31"/>
<text text-anchor="start" x="624" y="-130.31" font-family="Helvetica,sans-Serif" font-size="10.00">slljit::Parser::ParseTop</text>
<text text-anchor="middle" x="674" y="-119.31" font-family="Helvetica,sans-Serif" font-size="10.00">LevelTypedExpression</text>
</a>
</g>
</g>
<!-- Node1&#45;&gt;Node11 -->
<g id="edge41" class="edge">
<title>Node1&#45;&gt;Node11</title>
<path fill="none" stroke="midnightblue" d="M2008.68,-221.95C2003.04,-176.34 1984.3,-80.91 1924,-34.31 1852.33,21.07 1812.58,-7.31 1722,-7.31 1722,-7.31 1722,-7.31 1050.5,-7.31 914.31,-7.31 762.95,-79.83 702.3,-112.12"/>
<polygon fill="midnightblue" stroke="midnightblue" points="2005.23,-222.61 2009.82,-232.16 2012.19,-221.83 2005.23,-222.61"/>
</g>
<!-- Node13 -->
<g id="node13" class="node">
<title>Node13</title>
<g id="a_node13"><a xlink:href="classslljit_1_1_parser.html#ae2d3d6534b87da7f237c19129a464bda" target="_top" xlink:title="top ::= definition | external | expression | &#39;;&#39;">
<polygon fill="none" stroke="black" points="286,-136.81 286,-155.81 402,-155.81 402,-136.81 286,-136.81"/>
<text text-anchor="middle" x="344" y="-143.81" font-family="Helvetica,sans-Serif" font-size="10.00">slljit::Parser::MainLoop</text>
</a>
</g>
</g>
<!-- Node1&#45;&gt;Node13 -->
<g id="edge27" class="edge">
<title>Node1&#45;&gt;Node13</title>
<path fill="none" stroke="midnightblue" d="M2000.39,-223.21C1986.82,-195.33 1960.62,-150.23 1924,-126.31 1847.15,-76.12 1813.79,-83.31 1722,-83.31 1722,-83.31 1722,-83.31 673,-83.31 568.21,-83.31 539.23,-75.24 438,-102.31 409.36,-109.97 378.76,-126.2 360.78,-136.66"/>
<polygon fill="midnightblue" stroke="midnightblue" points="1997.23,-224.72 2004.65,-232.28 2003.57,-221.74 1997.23,-224.72"/>
</g>
<!-- Node16 -->
<g id="node16" class="node">
<title>Node16</title>
<g id="a_node16"><a xlink:href="classslljit_1_1_parser.html#a6e2e0f6a2cc445f3a956db59c8d2da66" target="_top" xlink:title="parenexpr ::= &#39;(&#39; expression &#39;)&#39;">
<polygon fill="none" stroke="black" points="786,-495.81 786,-514.81 932,-514.81 932,-495.81 786,-495.81"/>
<text text-anchor="middle" x="859" y="-502.81" font-family="Helvetica,sans-Serif" font-size="10.00">slljit::Parser::ParseParenExpr</text>
</a>
</g>
</g>
<!-- Node1&#45;&gt;Node16 -->
<g id="edge34" class="edge">
<title>Node1&#45;&gt;Node16</title>
<path fill="none" stroke="midnightblue" d="M2003.1,-272.44C1976.92,-350.13 1885.31,-581.31 1722,-581.31 1722,-581.31 1722,-581.31 1218,-581.31 1091.56,-581.31 945.37,-535.39 886.54,-514.94"/>
<polygon fill="midnightblue" stroke="midnightblue" points="2006.55,-273.13 2006.36,-262.53 1999.9,-270.94 2006.55,-273.13"/>
</g>
<!-- Node17 -->
<g id="node17" class="node">
<title>Node17</title>
<g id="a_node17"><a xlink:href="classslljit_1_1_parser.html#a435877d3f2869d140a7cca646546a114" target="_top" xlink:title="varexpr ::= &#39;g_var&#39; identifier (&#39;=&#39; expression)?">
<polygon fill="none" stroke="black" points="791.5,-215.81 791.5,-234.81 926.5,-234.81 926.5,-215.81 791.5,-215.81"/>
<text text-anchor="middle" x="859" y="-222.81" font-family="Helvetica,sans-Serif" font-size="10.00">slljit::Parser::ParseVarExpr</text>
</a>
</g>
</g>
<!-- Node1&#45;&gt;Node17 -->
<g id="edge42" class="edge">
<title>Node1&#45;&gt;Node17</title>
<path fill="none" stroke="midnightblue" d="M1982.61,-226.16C1966.29,-215.12 1944.94,-202.45 1924,-195.31 1838.42,-166.15 1812.41,-171.31 1722,-171.31 1722,-171.31 1722,-171.31 1218,-171.31 1110.36,-171.31 1082.99,-176.56 977,-195.31 947.89,-200.47 915.35,-209.04 891.99,-215.71"/>
<polygon fill="midnightblue" stroke="midnightblue" points="1980.91,-229.25 1991.12,-232.09 1984.91,-223.5 1980.91,-229.25"/>
</g>
<!-- Node18 -->
<g id="node18" class="node">
<title>Node18</title>
<g id="a_node18"><a xlink:href="classslljit_1_1_parser.html#af9ccc5948e2cf9051c2569cc42dc3bb7" target="_top" xlink:title="numberexpr ::= number">
<polygon fill="none" stroke="black" points="1648,-363.81 1648,-382.81 1794,-382.81 1794,-363.81 1648,-363.81"/>
<text text-anchor="middle" x="1721" y="-370.81" font-family="Helvetica,sans-Serif" font-size="10.00">slljit::Parser::ParseLiteralExpr</text>
</a>
</g>
</g>
<!-- Node1&#45;&gt;Node18 -->
<g id="edge32" class="edge">
<title>Node1&#45;&gt;Node18</title>
<path fill="none" stroke="midnightblue" d="M1998.8,-271.65C1984.61,-297.07 1958.64,-335.8 1924,-354.31 1884.55,-375.4 1834.53,-380.25 1794.13,-379.77"/>
<polygon fill="midnightblue" stroke="midnightblue" points="2001.99,-273.09 2003.65,-262.62 1995.83,-269.77 2001.99,-273.09"/>
</g>
<!-- Node19 -->
<g id="node19" class="node">
<title>Node19</title>
<g id="a_node19"><a xlink:href="classslljit_1_1_parser.html#ad51a4352241881b5c6d118db9ccdec46" target="_top" xlink:title=" ">
<polygon fill="none" stroke="black" points="788,-117.81 788,-136.81 930,-136.81 930,-117.81 788,-117.81"/>
<text text-anchor="middle" x="859" y="-124.81" font-family="Helvetica,sans-Serif" font-size="10.00">slljit::Parser::ParsePrototype</text>
</a>
</g>
</g>
<!-- Node1&#45;&gt;Node19 -->
<g id="edge36" class="edge">
<title>Node1&#45;&gt;Node19</title>
<path fill="none" stroke="midnightblue" d="M2006.62,-222.35C1998.23,-182.73 1975.9,-106.15 1924,-69.31 1850.27,-16.99 1812.41,-45.31 1722,-45.31 1722,-45.31 1722,-45.31 1218,-45.31 1089.52,-45.31 941.5,-96.12 884.3,-117.75"/>
<polygon fill="midnightblue" stroke="midnightblue" points="2003.2,-223.14 2008.58,-232.26 2010.07,-221.77 2003.2,-223.14"/>
</g>
<!-- Node22 -->
<g id="node22" class="node">
<title>Node22</title>
<g id="a_node22"><a xlink:href="classslljit_1_1_parser.html#acad3f159608acb847e0f693fc07fdd28" target="_top" xlink:title=" ">
<polygon fill="none" stroke="black" points="1004,-112.31 1004,-142.31 1099,-142.31 1099,-112.31 1004,-112.31"/>
<text text-anchor="start" x="1012" y="-130.31" font-family="Helvetica,sans-Serif" font-size="10.00">slljit::Parser::push</text>
<text text-anchor="middle" x="1051.5" y="-119.31" font-family="Helvetica,sans-Serif" font-size="10.00">_var_into_scope</text>
</a>
</g>
</g>
<!-- Node1&#45;&gt;Node22 -->
<g id="edge43" class="edge">
<title>Node1&#45;&gt;Node22</title>
<path fill="none" stroke="midnightblue" d="M1995.53,-224.02C1980.1,-202.84 1954.35,-172.64 1924,-157.31 1843.15,-116.49 1812.58,-130.31 1722,-130.31 1722,-130.31 1722,-130.31 1373.5,-130.31 1275.83,-130.31 1161.45,-128.91 1099.01,-128.02"/>
<polygon fill="midnightblue" stroke="midnightblue" points="1992.68,-226.05 2001.31,-232.2 1998.4,-222.01 1992.68,-226.05"/>
</g>
<!-- Node2&#45;&gt;Node3 -->
<g id="edge2" class="edge">
<title>Node2&#45;&gt;Node3</title>
<path fill="none" stroke="midnightblue" d="M1824.77,-321.76C1813.47,-320.17 1801.42,-318.48 1789.68,-316.83"/>
<polygon fill="midnightblue" stroke="midnightblue" points="1824.52,-325.26 1834.91,-323.19 1825.49,-318.33 1824.52,-325.26"/>
</g>
<!-- Node3&#45;&gt;Node4 -->
<g id="edge3" class="edge">
<title>Node3&#45;&gt;Node4</title>
<path fill="none" stroke="midnightblue" d="M1689.98,-321.07C1653.62,-337.72 1593.33,-365.34 1561.75,-379.81"/>
<polygon fill="midnightblue" stroke="midnightblue" points="1691.48,-324.23 1699.12,-316.88 1688.57,-317.86 1691.48,-324.23"/>
</g>
<!-- Node5 -->
<g id="node5" class="node">
<title>Node5</title>
<g id="a_node5"><a xlink:href="classslljit_1_1_parser.html#af8579896f39ac563d2edd14404d70f41" target="_top" xlink:title=" ">
<polygon fill="none" stroke="black" points="1312,-395.81 1312,-414.81 1437,-414.81 1437,-395.81 1312,-395.81"/>
<text text-anchor="middle" x="1374.5" y="-402.81" font-family="Helvetica,sans-Serif" font-size="10.00">slljit::Parser::ParseUnary</text>
</a>
</g>
</g>
<!-- Node4&#45;&gt;Node5 -->
<g id="edge4" class="edge">
<title>Node4&#45;&gt;Node5</title>
<path fill="none" stroke="midnightblue" d="M1462.86,-396.76C1454.2,-397.61 1445.46,-398.47 1437.02,-399.29"/>
<polygon fill="midnightblue" stroke="midnightblue" points="1463.36,-400.23 1472.97,-395.78 1462.68,-393.27 1463.36,-400.23"/>
</g>
<!-- Node5&#45;&gt;Node5 -->
<g id="edge26" class="edge">
<title>Node5&#45;&gt;Node5</title>
<path fill="none" stroke="midnightblue" d="M1403.25,-423.97C1402.04,-429.25 1392.46,-433.31 1374.5,-433.31 1347.13,-433.31 1339.22,-423.88 1350.76,-415.07"/>
<polygon fill="midnightblue" stroke="midnightblue" points="1406.19,-422.07 1398.24,-415.07 1400.09,-425.5 1406.19,-422.07"/>
</g>
<!-- Node6 -->
<g id="node6" class="node">
<title>Node6</title>
<g id="a_node6"><a xlink:href="classslljit_1_1_parser.html#ae387c9672ec50720d8cb969558aedbe9" target="_top" xlink:title=" ">
<polygon fill="none" stroke="black" points="1162,-390.31 1162,-420.31 1276,-420.31 1276,-390.31 1162,-390.31"/>
<text text-anchor="start" x="1170" y="-408.31" font-family="Helvetica,sans-Serif" font-size="10.00">slljit::Parser::ParseBin</text>
<text text-anchor="middle" x="1219" y="-397.31" font-family="Helvetica,sans-Serif" font-size="10.00">OpRHS</text>
</a>
</g>
</g>
<!-- Node5&#45;&gt;Node6 -->
<g id="edge5" class="edge">
<title>Node5&#45;&gt;Node6</title>
<path fill="none" stroke="midnightblue" d="M1301.86,-405.31C1293.22,-405.31 1284.48,-405.31 1276.1,-405.31"/>
<polygon fill="midnightblue" stroke="midnightblue" points="1301.95,-408.81 1311.95,-405.31 1301.95,-401.81 1301.95,-408.81"/>
</g>
<!-- Node7 -->
<g id="node7" class="node">
<title>Node7</title>
<g id="a_node7"><a xlink:href="classslljit_1_1_parser.html#a79461bf414d03dcabb49d3bbd6f89607" target="_top" xlink:title=" ">
<polygon fill="none" stroke="black" points="977,-392.81 977,-411.81 1126,-411.81 1126,-392.81 977,-392.81"/>
<text text-anchor="middle" x="1051.5" y="-399.81" font-family="Helvetica,sans-Serif" font-size="10.00">slljit::Parser::ParseExpression</text>
</a>
</g>
</g>
<!-- Node5&#45;&gt;Node7 -->
<g id="edge25" class="edge">
<title>Node5&#45;&gt;Node7</title>
<path fill="none" stroke="midnightblue" d="M1348.36,-419.89C1329.22,-430.11 1301.86,-442.86 1276,-448.31 1226.42,-458.76 1211.67,-458.32 1162,-448.31 1127.44,-441.35 1090.19,-423.16 1069.27,-411.86"/>
<polygon fill="midnightblue" stroke="midnightblue" points="1350.22,-422.86 1357.3,-414.98 1346.85,-416.73 1350.22,-422.86"/>
</g>
<!-- Node6&#45;&gt;Node6 -->
<g id="edge6" class="edge">
<title>Node6&#45;&gt;Node6</title>
<path fill="none" stroke="midnightblue" d="M1246.36,-430.77C1242.97,-435.49 1233.85,-438.81 1219,-438.81 1194.64,-438.81 1185.69,-429.87 1192.16,-420.47"/>
<polygon fill="midnightblue" stroke="midnightblue" points="1249.84,-430.28 1245.84,-420.47 1242.85,-430.64 1249.84,-430.28"/>
</g>
<!-- Node6&#45;&gt;Node7 -->
<g id="edge7" class="edge">
<title>Node6&#45;&gt;Node7</title>
<path fill="none" stroke="midnightblue" d="M1151.8,-404.11C1143.34,-403.96 1134.64,-403.8 1126.08,-403.65"/>
<polygon fill="midnightblue" stroke="midnightblue" points="1151.91,-407.62 1161.97,-404.3 1152.03,-400.62 1151.91,-407.62"/>
</g>
<!-- Node7&#45;&gt;Node3 -->
<g id="edge19" class="edge">
<title>Node7&#45;&gt;Node3</title>
<path fill="none" stroke="midnightblue" d="M1109.31,-390.77C1126.23,-387.51 1144.83,-384.1 1162,-381.31 1332.98,-353.6 1534.7,-328.79 1642.62,-316.15"/>
<polygon fill="midnightblue" stroke="midnightblue" points="1108.16,-387.43 1099.02,-392.78 1109.5,-394.3 1108.16,-387.43"/>
</g>
<!-- Node7&#45;&gt;Node8 -->
<g id="edge8" class="edge">
<title>Node7&#45;&gt;Node8</title>
<path fill="none" stroke="midnightblue" d="M1017.85,-388.77C979.46,-372.85 916.72,-346.83 883.06,-332.88"/>
<polygon fill="midnightblue" stroke="midnightblue" points="1016.94,-392.19 1027.52,-392.78 1019.62,-385.72 1016.94,-392.19"/>
</g>
<!-- Node7&#45;&gt;Node9 -->
<g id="edge18" class="edge">
<title>Node7&#45;&gt;Node9</title>
<path fill="none" stroke="midnightblue" d="M1003.05,-414.32C927.54,-433.42 781.56,-470.35 712.7,-487.78"/>
<polygon fill="midnightblue" stroke="midnightblue" points="1003.94,-417.7 1012.78,-411.86 1002.22,-410.92 1003.94,-417.7"/>
</g>
<!-- Node7&#45;&gt;Node10 -->
<g id="edge20" class="edge">
<title>Node7&#45;&gt;Node10</title>
<path fill="none" stroke="midnightblue" d="M966.42,-398.68C911.96,-395.19 839.75,-388.4 777,-375.31 749.85,-369.65 719.75,-359.4 699.33,-351.82"/>
<polygon fill="midnightblue" stroke="midnightblue" points="966.52,-402.2 976.72,-399.32 966.95,-395.21 966.52,-402.2"/>
</g>
<!-- Node7&#45;&gt;Node16 -->
<g id="edge21" class="edge">
<title>Node7&#45;&gt;Node16</title>
<path fill="none" stroke="midnightblue" d="M1026.46,-417.11C1004.48,-430.46 970.94,-450.39 941,-466.31 921.02,-476.94 897.69,-488.04 881.21,-495.67"/>
<polygon fill="midnightblue" stroke="midnightblue" points="1028.41,-420.02 1035.13,-411.83 1024.77,-414.05 1028.41,-420.02"/>
</g>
<!-- Node7&#45;&gt;Node17 -->
<g id="edge23" class="edge">
<title>Node7&#45;&gt;Node17</title>
<path fill="none" stroke="midnightblue" d="M1031.84,-386.17C1016.87,-373.14 995.4,-354.25 977,-337.31 936.65,-300.19 889.89,-254.64 869.89,-235.04"/>
<polygon fill="midnightblue" stroke="midnightblue" points="1029.58,-388.84 1039.42,-392.76 1034.17,-383.56 1029.58,-388.84"/>
</g>
<!-- Node8&#45;&gt;Node9 -->
<g id="edge9" class="edge">
<title>Node8&#45;&gt;Node9</title>
<path fill="none" stroke="midnightblue" d="M840.23,-340.21C802.46,-376.12 715.22,-459.07 685.29,-487.53"/>
<polygon fill="midnightblue" stroke="midnightblue" points="843.07,-342.34 847.9,-332.92 838.24,-337.27 843.07,-342.34"/>
</g>
<!-- Node8&#45;&gt;Node10 -->
<g id="edge11" class="edge">
<title>Node8&#45;&gt;Node10</title>
<path fill="none" stroke="midnightblue" d="M766.79,-332.78C756.62,-333.84 746.44,-334.9 736.77,-335.9"/>
<polygon fill="midnightblue" stroke="midnightblue" points="767.35,-336.24 776.93,-331.73 766.63,-329.28 767.35,-336.24"/>
</g>
<!-- Node8&#45;&gt;Node11 -->
<g id="edge13" class="edge">
<title>Node8&#45;&gt;Node11</title>
<path fill="none" stroke="midnightblue" d="M836.96,-307.15C819,-292.42 793.51,-269.22 777,-244.31 752.74,-207.72 772.22,-183.19 741,-152.31 737.08,-148.44 732.5,-145.15 727.61,-142.37"/>
<polygon fill="midnightblue" stroke="midnightblue" points="835.11,-310.15 845.11,-313.67 839.49,-304.68 835.11,-310.15"/>
</g>
<!-- Node9&#45;&gt;Node4 -->
<g id="edge10" class="edge">
<title>Node9&#45;&gt;Node4</title>
<path fill="none" stroke="midnightblue" d="M714.69,-509.69C733.41,-515.05 756.17,-520.86 777,-524.31 897.21,-544.21 928.65,-543.31 1050.5,-543.31 1220,-543.31 1220,-543.31 1220,-543.31 1321.61,-543.31 1347.76,-519.92 1437,-471.31 1474.71,-450.77 1512.34,-415.87 1529.45,-399"/>
<polygon fill="midnightblue" stroke="midnightblue" points="715.6,-506.31 705.02,-506.87 713.64,-513.03 715.6,-506.31"/>
</g>
<!-- Node10&#45;&gt;Node4 -->
<g id="edge12" class="edge">
<title>Node10&#45;&gt;Node4</title>
<path fill="none" stroke="midnightblue" d="M747.09,-348.13C822.65,-353.72 944.83,-361.31 1050.5,-361.31 1220,-361.31 1220,-361.31 1220,-361.31 1307.7,-361.31 1408.45,-371.95 1472.86,-380.11"/>
<polygon fill="midnightblue" stroke="midnightblue" points="746.98,-344.61 736.75,-347.36 746.46,-351.59 746.98,-344.61"/>
</g>
<!-- Node12 -->
<g id="node12" class="node">
<title>Node12</title>
<g id="a_node12"><a xlink:href="classslljit_1_1_parser.html#af0cac4623fc05b8b7ae9884b0aeb3d3f" target="_top" xlink:title=" ">
<polygon fill="none" stroke="black" points="439,-112.31 439,-142.31 570,-142.31 570,-112.31 439,-112.31"/>
<text text-anchor="start" x="447" y="-130.31" font-family="Helvetica,sans-Serif" font-size="10.00">slljit::Parser::HandleTyped</text>
<text text-anchor="middle" x="504.5" y="-119.31" font-family="Helvetica,sans-Serif" font-size="10.00">Expression</text>
</a>
</g>
</g>
<!-- Node11&#45;&gt;Node12 -->
<g id="edge14" class="edge">
<title>Node11&#45;&gt;Node12</title>
<path fill="none" stroke="midnightblue" d="M605.68,-127.31C593.97,-127.31 581.82,-127.31 570.19,-127.31"/>
<polygon fill="midnightblue" stroke="midnightblue" points="605.82,-130.81 615.82,-127.31 605.82,-123.81 605.82,-130.81"/>
</g>
<!-- Node12&#45;&gt;Node13 -->
<g id="edge15" class="edge">
<title>Node12&#45;&gt;Node13</title>
<path fill="none" stroke="midnightblue" d="M428.61,-136.29C419.73,-137.36 410.78,-138.43 402.21,-139.46"/>
<polygon fill="midnightblue" stroke="midnightblue" points="429.06,-139.76 438.57,-135.1 428.23,-132.81 429.06,-139.76"/>
</g>
<!-- Node14 -->
<g id="node14" class="node">
<title>Node14</title>
<g id="a_node14"><a xlink:href="classslljit_1_1_parser.html#a2429935f3c870648f9f895a7b2361cfb" target="_top" xlink:title=" ">
<polygon fill="none" stroke="black" points="152,-139.81 152,-158.81 250,-158.81 250,-139.81 152,-139.81"/>
<text text-anchor="middle" x="201" y="-146.81" font-family="Helvetica,sans-Serif" font-size="10.00">slljit::Parser::parse</text>
</a>
</g>
</g>
<!-- Node13&#45;&gt;Node14 -->
<g id="edge16" class="edge">
<title>Node13&#45;&gt;Node14</title>
<path fill="none" stroke="midnightblue" d="M275.37,-147.75C266.9,-147.93 258.37,-148.11 250.28,-148.29"/>
<polygon fill="midnightblue" stroke="midnightblue" points="275.73,-151.25 285.65,-147.53 275.58,-144.25 275.73,-151.25"/>
</g>
<!-- Node15 -->
<g id="node15" class="node">
<title>Node15</title>
<g id="a_node15"><a xlink:href="classslljit_1_1_program.html#ae4d26526a7dd9c69ebe92fb43736696b" target="_top" xlink:title=" ">
<polygon fill="none" stroke="black" points="0,-158.81 0,-177.81 116,-177.81 116,-158.81 0,-158.81"/>
<text text-anchor="middle" x="58" y="-165.81" font-family="Helvetica,sans-Serif" font-size="10.00">slljit::Program::compile</text>
</a>
</g>
</g>
<!-- Node14&#45;&gt;Node15 -->
<g id="edge17" class="edge">
<title>Node14&#45;&gt;Node15</title>
<path fill="none" stroke="midnightblue" d="M141.72,-157.17C133.27,-158.31 124.58,-159.48 116.16,-160.61"/>
<polygon fill="midnightblue" stroke="midnightblue" points="142.43,-160.6 151.87,-155.8 141.49,-153.67 142.43,-160.6"/>
</g>
<!-- Node16&#45;&gt;Node4 -->
<g id="edge22" class="edge">
<title>Node16&#45;&gt;Node4</title>
<path fill="none" stroke="midnightblue" d="M942.12,-506.59C1055.99,-506.09 1267.02,-496.87 1437,-442.31 1470.06,-431.7 1505.3,-411.03 1524.49,-398.88"/>
<polygon fill="midnightblue" stroke="midnightblue" points="942.07,-503.09 932.07,-506.61 942.08,-510.09 942.07,-503.09"/>
</g>
<!-- Node17&#45;&gt;Node4 -->
<g id="edge24" class="edge">
<title>Node17&#45;&gt;Node4</title>
<path fill="none" stroke="midnightblue" d="M933.78,-236.48C1044.58,-254.25 1259.83,-292.61 1437,-347.31 1466.09,-356.3 1498.4,-370.32 1518.7,-379.66"/>
<polygon fill="midnightblue" stroke="midnightblue" points="934.14,-233 923.72,-234.88 933.04,-239.91 934.14,-233"/>
</g>
<!-- Node18&#45;&gt;Node4 -->
<g id="edge33" class="edge">
<title>Node18&#45;&gt;Node4</title>
<path fill="none" stroke="midnightblue" d="M1637.76,-380.66C1627.48,-381.58 1617.08,-382.51 1607.1,-383.41"/>
<polygon fill="midnightblue" stroke="midnightblue" points="1638.32,-384.13 1647.97,-379.75 1637.7,-377.16 1638.32,-384.13"/>
</g>
<!-- Node19&#45;&gt;Node11 -->
<g id="edge40" class="edge">
<title>Node19&#45;&gt;Node11</title>
<path fill="none" stroke="midnightblue" d="M777.73,-127.31C762.32,-127.31 746.49,-127.31 732,-127.31"/>
<polygon fill="midnightblue" stroke="midnightblue" points="777.77,-130.81 787.77,-127.31 777.77,-123.81 777.77,-130.81"/>
</g>
<!-- Node20 -->
<g id="node20" class="node">
<title>Node20</title>
<g id="a_node20"><a xlink:href="classslljit_1_1_parser.html#af6e239a609e8a3812838b53f9a8356ce" target="_top" xlink:title="external ::= &#39;extern&#39; prototype">
<polygon fill="none" stroke="black" points="610,-161.81 610,-180.81 738,-180.81 738,-161.81 610,-161.81"/>
<text text-anchor="middle" x="674" y="-168.81" font-family="Helvetica,sans-Serif" font-size="10.00">slljit::Parser::ParseExtern</text>
</a>
</g>
</g>
<!-- Node19&#45;&gt;Node20 -->
<g id="edge37" class="edge">
<title>Node19&#45;&gt;Node20</title>
<path fill="none" stroke="midnightblue" d="M808.22,-139.28C778.81,-146.35 742.07,-155.19 714.63,-161.78"/>
<polygon fill="midnightblue" stroke="midnightblue" points="809.39,-142.6 818.29,-136.86 807.75,-135.8 809.39,-142.6"/>
</g>
<!-- Node21 -->
<g id="node21" class="node">
<title>Node21</title>
<g id="a_node21"><a xlink:href="classslljit_1_1_parser.html#a5ff2f693f00fe32c8ee836e9139cb93e" target="_top" xlink:title=" ">
<polygon fill="none" stroke="black" points="438,-161.81 438,-180.81 571,-180.81 571,-161.81 438,-161.81"/>
<text text-anchor="middle" x="504.5" y="-168.81" font-family="Helvetica,sans-Serif" font-size="10.00">slljit::Parser::HandleExtern</text>
</a>
</g>
</g>
<!-- Node20&#45;&gt;Node21 -->
<g id="edge38" class="edge">
<title>Node20&#45;&gt;Node21</title>
<path fill="none" stroke="midnightblue" d="M599.52,-171.31C590.07,-171.31 580.45,-171.31 571.14,-171.31"/>
<polygon fill="midnightblue" stroke="midnightblue" points="599.68,-174.81 609.68,-171.31 599.68,-167.81 599.68,-174.81"/>
</g>
<!-- Node21&#45;&gt;Node13 -->
<g id="edge39" class="edge">
<title>Node21&#45;&gt;Node13</title>
<path fill="none" stroke="midnightblue" d="M433.23,-160.23C422.81,-158.59 412.18,-156.91 402.07,-155.32"/>
<polygon fill="midnightblue" stroke="midnightblue" points="432.7,-163.69 443.13,-161.79 433.79,-156.78 432.7,-163.69"/>
</g>
<!-- Node22&#45;&gt;Node17 -->
<g id="edge45" class="edge">
<title>Node22&#45;&gt;Node17</title>
<path fill="none" stroke="midnightblue" d="M994.72,-146.56C988.49,-149.72 982.44,-153.3 977,-157.31 956.68,-172.33 962.04,-187.33 941,-201.31 931.59,-207.56 920.52,-212.23 909.63,-215.69"/>
<polygon fill="midnightblue" stroke="midnightblue" points="996.37,-149.65 1003.93,-142.22 993.39,-143.31 996.37,-149.65"/>
</g>
<!-- Node22&#45;&gt;Node19 -->
<g id="edge44" class="edge">
<title>Node22&#45;&gt;Node19</title>
<path fill="none" stroke="midnightblue" d="M993.75,-127.31C973.81,-127.31 951.18,-127.31 930.27,-127.31"/>
<polygon fill="midnightblue" stroke="midnightblue" points="993.9,-130.81 1003.9,-127.31 993.9,-123.81 993.9,-130.81"/>
</g>
<!-- Node23 -->
<g id="node23" class="node">
<title>Node23</title>
<g id="a_node23"><a xlink:href="classslljit_1_1_parser.html#a3da23d78669853ac1f1d38a709475c5c" target="_top" xlink:title=" ">
<polygon fill="none" stroke="black" points="300,-184.31 300,-214.31 388,-214.31 388,-184.31 300,-184.31"/>
<text text-anchor="start" x="308" y="-202.31" font-family="Helvetica,sans-Serif" font-size="10.00">slljit::Parser::set</text>
<text text-anchor="middle" x="344" y="-191.31" font-family="Helvetica,sans-Serif" font-size="10.00">_variables</text>
</a>
</g>
</g>
<!-- Node22&#45;&gt;Node23 -->
<g id="edge46" class="edge">
<title>Node22&#45;&gt;Node23</title>
<path fill="none" stroke="midnightblue" d="M994.07,-141.96C932.39,-157.22 830.43,-180.28 741,-190.31 613.38,-204.64 461.22,-202.85 388.24,-200.84"/>
<polygon fill="midnightblue" stroke="midnightblue" points="995.13,-145.3 1003.98,-139.48 993.43,-138.51 995.13,-145.3"/>
</g>
<!-- Node23&#45;&gt;Node15 -->
<g id="edge47" class="edge">
<title>Node23&#45;&gt;Node15</title>
<path fill="none" stroke="midnightblue" d="M289.68,-193.49C240.19,-188.09 166.72,-180.07 116.05,-174.54"/>
<polygon fill="midnightblue" stroke="midnightblue" points="289.55,-197 299.87,-194.61 290.31,-190.04 289.55,-197"/>
</g>
</g>
</svg>
