<?xml version="1.0" encoding="UTF-8" standalone="no"?>
<!DOCTYPE svg PUBLIC "-//W3C//DTD SVG 1.1//EN"
 "http://www.w3.org/Graphics/SVG/1.1/DTD/svg11.dtd">
<!-- Generated by graphviz version 3.0.0 (20220226.1711)
 -->
<!-- Title: slljit::BinaryExprAST::codegen Pages: 1 -->
<svg width="709pt" height="613pt"
 viewBox="0.00 0.00 709.00 612.61" xmlns="http://www.w3.org/2000/svg" xmlns:xlink="http://www.w3.org/1999/xlink">
<g id="graph0" class="graph" transform="scale(1 1) rotate(0) translate(4 608.61)">
<title>slljit::BinaryExprAST::codegen</title>
<!-- Node1 -->
<g id="node1" class="node">
<title>Node1</title>
<g id="a_node1"><a xlink:title=" ">
<polygon fill="#bfbfbf" stroke="black" points="0,-277 0,-307 107,-307 107,-277 0,-277"/>
<text text-anchor="start" x="8" y="-295" font-family="Helvetica,sans-Serif" font-size="10.00">slljit::BinaryExprAST</text>
<text text-anchor="middle" x="53.5" y="-284" font-family="Helvetica,sans-Serif" font-size="10.00">::codegen</text>
</a>
</g>
</g>
<!-- Node2 -->
<g id="node2" class="node">
<title>Node2</title>
<g id="a_node2"><a xlink:href="namespaceslljit.html#aea3939a2e43afb64178ab98111878842" target="_top" xlink:title=" ">
<polygon fill="none" stroke="black" points="314.5,-377.5 314.5,-396.5 400.5,-396.5 400.5,-377.5 314.5,-377.5"/>
<text text-anchor="middle" x="357.5" y="-384.5" font-family="Helvetica,sans-Serif" font-size="10.00">slljit::CreateAdd</text>
</a>
</g>
</g>
<!-- Node1&#45;&gt;Node2 -->
<g id="edge1" class="edge">
<title>Node1&#45;&gt;Node2</title>
<path fill="none" stroke="midnightblue" d="M82.58,-307.1C99.68,-315.85 122.18,-326.56 143,-334 196.88,-353.26 260.83,-368.13 304.6,-377.15"/>
<polygon fill="midnightblue" stroke="midnightblue" points="303.95,-380.59 314.44,-379.15 305.34,-373.73 303.95,-380.59"/>
</g>
<!-- Node3 -->
<g id="node3" class="node">
<title>Node3</title>
<g id="a_node3"><a xlink:href="classslljit_1_1_local_context.html#acd5a146c139b01ff0c5d1be79e187749" target="_top" xlink:title=" ">
<polygon fill="none" stroke="black" points="604,-410 604,-440 701,-440 701,-410 604,-410"/>
<text text-anchor="start" x="612" y="-428" font-family="Helvetica,sans-Serif" font-size="10.00">slljit::LocalContext</text>
<text text-anchor="middle" x="652.5" y="-417" font-family="Helvetica,sans-Serif" font-size="10.00">::getBuilder</text>
</a>
</g>
</g>
<!-- Node1&#45;&gt;Node3 -->
<g id="edge30" class="edge">
<title>Node1&#45;&gt;Node3</title>
<path fill="none" stroke="midnightblue" d="M59.51,-307.41C70.02,-337.27 97.27,-403.14 143,-438 199.95,-481.41 227.07,-472.13 298,-482 416.87,-498.54 453.21,-513.01 568,-478 589.2,-471.53 610.25,-458.11 625.92,-446.39"/>
<polygon fill="midnightblue" stroke="midnightblue" points="628.26,-449 634.03,-440.11 623.98,-443.47 628.26,-449"/>
</g>
<!-- Node6 -->
<g id="node6" class="node">
<title>Node6</title>
<g id="a_node6"><a xlink:href="namespaceslljit.html#a3ebbdd40e29c1767c6b93fc3ed055a66" target="_top" xlink:title=" ">
<polygon fill="none" stroke="black" points="317,-339.5 317,-358.5 398,-358.5 398,-339.5 317,-339.5"/>
<text text-anchor="middle" x="357.5" y="-346.5" font-family="Helvetica,sans-Serif" font-size="10.00">slljit::CreateDiv</text>
</a>
</g>
</g>
<!-- Node1&#45;&gt;Node6 -->
<g id="edge5" class="edge">
<title>Node1&#45;&gt;Node6</title>
<path fill="none" stroke="midnightblue" d="M107.37,-302.2C119.1,-304.45 131.47,-306.81 143,-309 199.08,-319.64 263.48,-331.68 306.76,-339.75"/>
<polygon fill="midnightblue" stroke="midnightblue" points="306.28,-343.22 316.75,-341.61 307.56,-336.34 306.28,-343.22"/>
</g>
<!-- Node8 -->
<g id="node8" class="node">
<title>Node8</title>
<g id="a_node8"><a xlink:href="namespaceslljit.html#a35fd5437fe4da3972add655696b4ba1e" target="_top" xlink:title="Creates explict cast.">
<polygon fill="none" stroke="black" points="298,-263.5 298,-282.5 417,-282.5 417,-263.5 298,-263.5"/>
<text text-anchor="middle" x="357.5" y="-270.5" font-family="Helvetica,sans-Serif" font-size="10.00">slljit::CreateExplictCast</text>
</a>
</g>
</g>
<!-- Node1&#45;&gt;Node8 -->
<g id="edge10" class="edge">
<title>Node1&#45;&gt;Node8</title>
<path fill="none" stroke="midnightblue" d="M107.09,-294.87C149.12,-296.47 209.48,-297.23 262,-292 277.15,-290.49 293.47,-287.65 308.22,-284.62"/>
<polygon fill="midnightblue" stroke="midnightblue" points="309.09,-288.02 318.14,-282.51 307.63,-281.17 309.09,-288.02"/>
</g>
<!-- Node10 -->
<g id="node10" class="node">
<title>Node10</title>
<g id="a_node10"><a xlink:href="namespaceslljit.html#a998468289a7b7f80ec1b49aa930d5143" target="_top" xlink:title="Creates implict cast.">
<polygon fill="none" stroke="black" points="144,-263.5 144,-282.5 261,-282.5 261,-263.5 144,-263.5"/>
<text text-anchor="middle" x="202.5" y="-270.5" font-family="Helvetica,sans-Serif" font-size="10.00">slljit::CreateImplictCast</text>
</a>
</g>
</g>
<!-- Node1&#45;&gt;Node10 -->
<g id="edge17" class="edge">
<title>Node1&#45;&gt;Node10</title>
<path fill="none" stroke="midnightblue" d="M107.16,-285.19C115.83,-284.07 124.94,-282.9 133.92,-281.73"/>
<polygon fill="midnightblue" stroke="midnightblue" points="134.51,-285.19 143.98,-280.43 133.62,-278.25 134.51,-285.19"/>
</g>
<!-- Node11 -->
<g id="node11" class="node">
<title>Node11</title>
<g id="a_node11"><a xlink:href="namespaceslljit.html#a5789671a8efffcee32738c80bafe9bd1" target="_top" xlink:title=" ">
<polygon fill="none" stroke="black" points="315.5,-415.5 315.5,-434.5 399.5,-434.5 399.5,-415.5 315.5,-415.5"/>
<text text-anchor="middle" x="357.5" y="-422.5" font-family="Helvetica,sans-Serif" font-size="10.00">slljit::CreateMul</text>
</a>
</g>
</g>
<!-- Node1&#45;&gt;Node11 -->
<g id="edge19" class="edge">
<title>Node1&#45;&gt;Node11</title>
<path fill="none" stroke="midnightblue" d="M68.76,-307.04C85.19,-323.53 113.7,-349.68 143,-365 194.91,-392.15 260.53,-408.22 305.23,-416.79"/>
<polygon fill="midnightblue" stroke="midnightblue" points="304.81,-420.27 315.28,-418.66 306.09,-413.39 304.81,-420.27"/>
</g>
<!-- Node12 -->
<g id="node12" class="node">
<title>Node12</title>
<g id="a_node12"><a xlink:href="namespaceslljit.html#a8803eadca4f0a1a6b5f7b8e4129cadd5" target="_top" xlink:title=" ">
<polygon fill="none" stroke="black" points="314.5,-453.5 314.5,-472.5 400.5,-472.5 400.5,-453.5 314.5,-453.5"/>
<text text-anchor="middle" x="357.5" y="-460.5" font-family="Helvetica,sans-Serif" font-size="10.00">slljit::CreateSub</text>
</a>
</g>
</g>
<!-- Node1&#45;&gt;Node12 -->
<g id="edge23" class="edge">
<title>Node1&#45;&gt;Node12</title>
<path fill="none" stroke="midnightblue" d="M62.69,-307.13C76.26,-330.74 105.62,-376.21 143,-401 192.19,-433.63 258.8,-449.4 304.47,-456.81"/>
<polygon fill="midnightblue" stroke="midnightblue" points="304.03,-460.29 314.45,-458.35 305.1,-453.37 304.03,-460.29"/>
</g>
<!-- Node13 -->
<g id="node13" class="node">
<title>Node13</title>
<g id="a_node13"><a xlink:href="namespaceslljit.html#a7fdacdf77d9c64b4680b66cfca539736" target="_top" xlink:title=" ">
<polygon fill="none" stroke="black" points="464,-567.5 464,-586.5 557,-586.5 557,-567.5 464,-567.5"/>
<text text-anchor="middle" x="510.5" y="-574.5" font-family="Helvetica,sans-Serif" font-size="10.00">slljit::CtreateCMP</text>
</a>
</g>
</g>
<!-- Node1&#45;&gt;Node13 -->
<g id="edge27" class="edge">
<title>Node1&#45;&gt;Node13</title>
<path fill="none" stroke="midnightblue" d="M54.31,-307.01C54.65,-352.78 62.53,-491.24 143,-553 237.08,-625.21 387.93,-605.16 463.38,-588.8"/>
<polygon fill="midnightblue" stroke="midnightblue" points="464.53,-592.13 473.52,-586.52 462.99,-585.3 464.53,-592.13"/>
</g>
<!-- Node14 -->
<g id="node14" class="node">
<title>Node14</title>
<g id="a_node14"><a xlink:href="classslljit_1_1_local_context.html#ab016baa6ada1f596ee0428db4e9c4fc4" target="_top" xlink:title=" ">
<polygon fill="none" stroke="black" points="153,-214 153,-244 252,-244 252,-214 153,-214"/>
<text text-anchor="start" x="161" y="-232" font-family="Helvetica,sans-Serif" font-size="10.00">slljit::LocalContext</text>
<text text-anchor="middle" x="202.5" y="-221" font-family="Helvetica,sans-Serif" font-size="10.00">::find_var_in_scope</text>
</a>
</g>
</g>
<!-- Node1&#45;&gt;Node14 -->
<g id="edge29" class="edge">
<title>Node1&#45;&gt;Node14</title>
<path fill="none" stroke="midnightblue" d="M89.81,-276.82C106.01,-269.86 125.48,-261.51 143,-254 147.46,-252.09 152.11,-250.1 156.76,-248.11"/>
<polygon fill="midnightblue" stroke="midnightblue" points="158.41,-251.21 166.23,-244.06 155.66,-244.77 158.41,-251.21"/>
</g>
<!-- Node15 -->
<g id="node15" class="node">
<title>Node15</title>
<g id="a_node15"><a xlink:href="classslljit_1_1_local_context.html#a7b1975b6c4314126ab18642dc180d596" target="_top" xlink:title=" ">
<polygon fill="none" stroke="black" points="154,-165 154,-195 251,-195 251,-165 154,-165"/>
<text text-anchor="start" x="162" y="-183" font-family="Helvetica,sans-Serif" font-size="10.00">slljit::LocalContext</text>
<text text-anchor="middle" x="202.5" y="-172" font-family="Helvetica,sans-Serif" font-size="10.00">::getContext</text>
</a>
</g>
</g>
<!-- Node1&#45;&gt;Node15 -->
<g id="edge31" class="edge">
<title>Node1&#45;&gt;Node15</title>
<path fill="none" stroke="midnightblue" d="M66.53,-276.78C82.33,-257.63 111.77,-224.73 143,-204 145.16,-202.57 147.42,-201.19 149.74,-199.88"/>
<polygon fill="midnightblue" stroke="midnightblue" points="151.66,-202.83 158.94,-195.12 148.45,-196.61 151.66,-202.83"/>
</g>
<!-- Node16 -->
<g id="node16" class="node">
<title>Node16</title>
<g id="a_node16"><a xlink:href="group___a_s_t.html#ga43bd4527a94e16e6fb1be89c3b4fc678" target="_top" xlink:title=" ">
<polygon fill="none" stroke="black" points="157,-88.5 157,-107.5 248,-107.5 248,-88.5 157,-88.5"/>
<text text-anchor="middle" x="202.5" y="-95.5" font-family="Helvetica,sans-Serif" font-size="10.00">slljit::getFunction</text>
</a>
</g>
</g>
<!-- Node1&#45;&gt;Node16 -->
<g id="edge32" class="edge">
<title>Node1&#45;&gt;Node16</title>
<path fill="none" stroke="midnightblue" d="M58.58,-276.62C68.01,-243.83 94.35,-166.43 143,-122 147.36,-118.02 152.48,-114.65 157.83,-111.81"/>
<polygon fill="midnightblue" stroke="midnightblue" points="159.41,-114.93 166.98,-107.52 156.44,-108.6 159.41,-114.93"/>
</g>
<!-- Node17 -->
<g id="node17" class="node">
<title>Node17</title>
<g id="a_node17"><a xlink:href="classslljit_1_1_local_context.html#abb9845ccd33f6c425e174f0090e92fbe" target="_top" xlink:title=" ">
<polygon fill="none" stroke="black" points="309,-102 309,-132 406,-132 406,-102 309,-102"/>
<text text-anchor="start" x="317" y="-120" font-family="Helvetica,sans-Serif" font-size="10.00">slljit::LocalContext</text>
<text text-anchor="middle" x="357.5" y="-109" font-family="Helvetica,sans-Serif" font-size="10.00">::getModule</text>
</a>
</g>
</g>
<!-- Node1&#45;&gt;Node17 -->
<g id="edge34" class="edge">
<title>Node1&#45;&gt;Node17</title>
<path fill="none" stroke="midnightblue" d="M59.67,-276.69C70.3,-247.76 97.49,-185.25 143,-155 189.2,-124.29 252.95,-116.34 298.74,-115.13"/>
<polygon fill="midnightblue" stroke="midnightblue" points="298.87,-118.63 308.81,-114.96 298.75,-111.63 298.87,-118.63"/>
</g>
<!-- Node18 -->
<g id="node18" class="node">
<title>Node18</title>
<g id="a_node18"><a xlink:href="classslljit_1_1_variable_expr_a_s_t.html#a450da9db3d399e15caca74a33b88ab2b" target="_top" xlink:title=" ">
<polygon fill="none" stroke="black" points="145.5,-39 145.5,-69 259.5,-69 259.5,-39 145.5,-39"/>
<text text-anchor="start" x="153.5" y="-57" font-family="Helvetica,sans-Serif" font-size="10.00">slljit::VariableExprAST</text>
<text text-anchor="middle" x="202.5" y="-46" font-family="Helvetica,sans-Serif" font-size="10.00">::getName</text>
</a>
</g>
</g>
<!-- Node1&#45;&gt;Node18 -->
<g id="edge35" class="edge">
<title>Node1&#45;&gt;Node18</title>
<path fill="none" stroke="midnightblue" d="M56.76,-276.95C63.24,-238.83 85.25,-137.34 143,-79 144.43,-77.56 145.95,-76.19 147.55,-74.9"/>
<polygon fill="midnightblue" stroke="midnightblue" points="149.81,-77.6 156.08,-69.06 145.85,-71.83 149.81,-77.6"/>
</g>
<!-- Node19 -->
<g id="node19" class="node">
<title>Node19</title>
<g id="a_node19"><a xlink:href="classslljit_1_1_expr_a_s_t.html#a22ae30dc097ccd2f50b0d8ab9a399792" target="_top" xlink:title=" ">
<polygon fill="none" stroke="black" points="143,-0.5 143,-19.5 262,-19.5 262,-0.5 143,-0.5"/>
<text text-anchor="middle" x="202.5" y="-7.5" font-family="Helvetica,sans-Serif" font-size="10.00">slljit::ExprAST::getType</text>
</a>
</g>
</g>
<!-- Node1&#45;&gt;Node19 -->
<g id="edge36" class="edge">
<title>Node1&#45;&gt;Node19</title>
<path fill="none" stroke="midnightblue" d="M55.06,-276.79C57.54,-232.17 70.92,-100.33 143,-29 144.48,-27.54 146.07,-26.18 147.76,-24.94"/>
<polygon fill="midnightblue" stroke="midnightblue" points="150,-27.67 156.78,-19.53 146.4,-21.67 150,-27.67"/>
</g>
<!-- Node2&#45;&gt;Node3 -->
<g id="edge2" class="edge">
<title>Node2&#45;&gt;Node3</title>
<path fill="none" stroke="midnightblue" d="M400.84,-389.18C443.3,-391.75 510.47,-396.89 568,-406 576.34,-407.32 585.08,-408.99 593.65,-410.79"/>
<polygon fill="midnightblue" stroke="midnightblue" points="593.07,-414.24 603.58,-412.95 594.55,-407.4 593.07,-414.24"/>
</g>
<!-- Node4 -->
<g id="node4" class="node">
<title>Node4</title>
<g id="a_node4"><a xlink:href="namespaceslljit.html#a8fff8c5a53d6ca4875a058b06b6d60e6" target="_top" xlink:title="Checks if value type is floating point type.">
<polygon fill="none" stroke="black" points="453,-339.5 453,-358.5 568,-358.5 568,-339.5 453,-339.5"/>
<text text-anchor="middle" x="510.5" y="-346.5" font-family="Helvetica,sans-Serif" font-size="10.00">slljit::isFloatingPointTy</text>
</a>
</g>
</g>
<!-- Node2&#45;&gt;Node4 -->
<g id="edge3" class="edge">
<title>Node2&#45;&gt;Node4</title>
<path fill="none" stroke="midnightblue" d="M396.6,-377.41C416.44,-372.42 440.88,-366.27 461.95,-360.97"/>
<polygon fill="midnightblue" stroke="midnightblue" points="462.83,-364.35 471.67,-358.52 461.12,-357.57 462.83,-364.35"/>
</g>
<!-- Node5 -->
<g id="node5" class="node">
<title>Node5</title>
<g id="a_node5"><a xlink:href="namespaceslljit.html#a3a3394e16b561f11dd00a8532ee034e4" target="_top" xlink:title="Checks if value type is integer type.">
<polygon fill="none" stroke="black" points="467,-415.5 467,-434.5 554,-434.5 554,-415.5 467,-415.5"/>
<text text-anchor="middle" x="510.5" y="-422.5" font-family="Helvetica,sans-Serif" font-size="10.00">slljit::isIntegerTy</text>
</a>
</g>
</g>
<!-- Node2&#45;&gt;Node5 -->
<g id="edge4" class="edge">
<title>Node2&#45;&gt;Node5</title>
<path fill="none" stroke="midnightblue" d="M396.6,-396.59C416.44,-401.58 440.88,-407.73 461.95,-413.03"/>
<polygon fill="midnightblue" stroke="midnightblue" points="461.12,-416.43 471.67,-415.48 462.83,-409.65 461.12,-416.43"/>
</g>
<!-- Node6&#45;&gt;Node3 -->
<g id="edge6" class="edge">
<title>Node6&#45;&gt;Node3</title>
<path fill="none" stroke="midnightblue" d="M382.39,-339.47C422.67,-324.96 505.78,-301.85 568,-330 600,-344.48 624.61,-377.95 638.57,-401.03"/>
<polygon fill="midnightblue" stroke="midnightblue" points="635.68,-403.02 643.73,-409.9 641.73,-399.5 635.68,-403.02"/>
</g>
<!-- Node6&#45;&gt;Node4 -->
<g id="edge7" class="edge">
<title>Node6&#45;&gt;Node4</title>
<path fill="none" stroke="midnightblue" d="M398.17,-349C411.73,-349 427.3,-349 442.41,-349"/>
<polygon fill="midnightblue" stroke="midnightblue" points="442.77,-352.5 452.77,-349 442.77,-345.5 442.77,-352.5"/>
</g>
<!-- Node6&#45;&gt;Node5 -->
<g id="edge8" class="edge">
<title>Node6&#45;&gt;Node5</title>
<path fill="none" stroke="midnightblue" d="M392.44,-358.51C400.63,-361.21 409.25,-364.41 417,-368 442.37,-379.73 469.36,-396.98 487.59,-409.43"/>
<polygon fill="midnightblue" stroke="midnightblue" points="486.06,-412.62 496.28,-415.44 490.05,-406.87 486.06,-412.62"/>
</g>
<!-- Node7 -->
<g id="node7" class="node">
<title>Node7</title>
<g id="a_node7"><a xlink:href="namespaceslljit.html#a4a92e29091af0a9f6c8d1499beccc810" target="_top" xlink:title=" ">
<polygon fill="none" stroke="black" points="472,-263.5 472,-282.5 549,-282.5 549,-263.5 472,-263.5"/>
<text text-anchor="middle" x="510.5" y="-270.5" font-family="Helvetica,sans-Serif" font-size="10.00">slljit::isSigned</text>
</a>
</g>
</g>
<!-- Node6&#45;&gt;Node7 -->
<g id="edge9" class="edge">
<title>Node6&#45;&gt;Node7</title>
<path fill="none" stroke="midnightblue" d="M374.62,-339.47C393.23,-328.63 424.87,-310.67 453,-297 460.41,-293.4 468.5,-289.78 476.19,-286.49"/>
<polygon fill="midnightblue" stroke="midnightblue" points="477.76,-289.62 485.62,-282.51 475.04,-283.17 477.76,-289.62"/>
</g>
<!-- Node8&#45;&gt;Node3 -->
<g id="edge13" class="edge">
<title>Node8&#45;&gt;Node3</title>
<path fill="none" stroke="midnightblue" d="M379.15,-263.46C419.04,-246.58 508.06,-216.57 568,-254 619.61,-286.23 640.18,-360.6 647.66,-399.79"/>
<polygon fill="midnightblue" stroke="midnightblue" points="644.25,-400.61 649.44,-409.84 651.14,-399.39 644.25,-400.61"/>
</g>
<!-- Node8&#45;&gt;Node4 -->
<g id="edge14" class="edge">
<title>Node8&#45;&gt;Node4</title>
<path fill="none" stroke="midnightblue" d="M377.62,-282.63C403.83,-295.82 451.1,-319.61 481.35,-334.83"/>
<polygon fill="midnightblue" stroke="midnightblue" points="480.03,-338.08 490.53,-339.45 483.17,-331.83 480.03,-338.08"/>
</g>
<!-- Node8&#45;&gt;Node5 -->
<g id="edge15" class="edge">
<title>Node8&#45;&gt;Node5</title>
<path fill="none" stroke="midnightblue" d="M368.56,-282.56C380.31,-293.79 400.27,-313.04 417,-330 433.33,-346.57 436.81,-351.29 453,-368 466.24,-381.66 481.42,-396.96 492.71,-408.26"/>
<polygon fill="midnightblue" stroke="midnightblue" points="490.29,-410.79 499.84,-415.38 495.24,-405.84 490.29,-410.79"/>
</g>
<!-- Node8&#45;&gt;Node7 -->
<g id="edge16" class="edge">
<title>Node8&#45;&gt;Node7</title>
<path fill="none" stroke="midnightblue" d="M417.31,-273C432.11,-273 447.8,-273 461.96,-273"/>
<polygon fill="midnightblue" stroke="midnightblue" points="461.97,-276.5 471.97,-273 461.97,-269.5 461.97,-276.5"/>
</g>
<!-- Node9 -->
<g id="node9" class="node">
<title>Node9</title>
<g id="a_node9"><a xlink:href="namespaceslljit.html#ab200d7cf320fef1a4045511b03b4168b" target="_top" xlink:title="Translates TypeID types to llvm types.">
<polygon fill="none" stroke="black" points="461,-187.5 461,-206.5 560,-206.5 560,-187.5 461,-187.5"/>
<text text-anchor="middle" x="510.5" y="-194.5" font-family="Helvetica,sans-Serif" font-size="10.00">slljit::get_llvm_type</text>
</a>
</g>
</g>
<!-- Node8&#45;&gt;Node9 -->
<g id="edge11" class="edge">
<title>Node8&#45;&gt;Node9</title>
<path fill="none" stroke="midnightblue" d="M374.62,-263.47C393.23,-252.63 424.87,-234.67 453,-221 460.41,-217.4 468.5,-213.78 476.19,-210.49"/>
<polygon fill="midnightblue" stroke="midnightblue" points="477.76,-213.62 485.62,-206.51 475.04,-207.17 477.76,-213.62"/>
</g>
<!-- Node9&#45;&gt;Node3 -->
<g id="edge12" class="edge">
<title>Node9&#45;&gt;Node3</title>
<path fill="none" stroke="midnightblue" d="M545.82,-206.57C553.86,-210.08 561.86,-214.78 568,-221 618.32,-271.99 639.7,-357.49 647.55,-399.77"/>
<polygon fill="midnightblue" stroke="midnightblue" points="644.13,-400.53 649.31,-409.77 651.03,-399.32 644.13,-400.53"/>
</g>
<!-- Node10&#45;&gt;Node8 -->
<g id="edge18" class="edge">
<title>Node10&#45;&gt;Node8</title>
<path fill="none" stroke="midnightblue" d="M261.34,-273C269.92,-273 278.83,-273 287.6,-273"/>
<polygon fill="midnightblue" stroke="midnightblue" points="287.81,-276.5 297.81,-273 287.81,-269.5 287.81,-276.5"/>
</g>
<!-- Node11&#45;&gt;Node3 -->
<g id="edge20" class="edge">
<title>Node11&#45;&gt;Node3</title>
<path fill="none" stroke="midnightblue" d="M396.86,-434.51C413.93,-438.27 434.35,-442.14 453,-444 503.86,-449.06 517.21,-449.71 568,-444 576.39,-443.06 585.16,-441.6 593.74,-439.9"/>
<polygon fill="midnightblue" stroke="midnightblue" points="594.62,-443.29 603.69,-437.81 593.18,-436.44 594.62,-443.29"/>
</g>
<!-- Node11&#45;&gt;Node4 -->
<g id="edge21" class="edge">
<title>Node11&#45;&gt;Node4</title>
<path fill="none" stroke="midnightblue" d="M392.44,-415.49C400.63,-412.79 409.25,-409.59 417,-406 442.37,-394.27 469.36,-377.02 487.59,-364.57"/>
<polygon fill="midnightblue" stroke="midnightblue" points="490.05,-367.13 496.28,-358.56 486.06,-361.38 490.05,-367.13"/>
</g>
<!-- Node11&#45;&gt;Node5 -->
<g id="edge22" class="edge">
<title>Node11&#45;&gt;Node5</title>
<path fill="none" stroke="midnightblue" d="M399.76,-425C417.37,-425 438.13,-425 456.83,-425"/>
<polygon fill="midnightblue" stroke="midnightblue" points="456.97,-428.5 466.97,-425 456.97,-421.5 456.97,-428.5"/>
</g>
<!-- Node12&#45;&gt;Node3 -->
<g id="edge24" class="edge">
<title>Node12&#45;&gt;Node3</title>
<path fill="none" stroke="midnightblue" d="M400.75,-467.06C443.43,-470.08 511.03,-471.88 568,-460 583.5,-456.77 599.74,-450.66 613.72,-444.44"/>
<polygon fill="midnightblue" stroke="midnightblue" points="615.4,-447.52 623.01,-440.15 612.47,-441.16 615.4,-447.52"/>
</g>
<!-- Node12&#45;&gt;Node4 -->
<g id="edge25" class="edge">
<title>Node12&#45;&gt;Node4</title>
<path fill="none" stroke="midnightblue" d="M397.18,-453.47C404.06,-450.94 410.95,-447.82 417,-444 436.67,-431.58 436.81,-422.71 453,-406 466.24,-392.34 481.42,-377.04 492.71,-365.74"/>
<polygon fill="midnightblue" stroke="midnightblue" points="495.24,-368.16 499.84,-358.62 490.29,-363.21 495.24,-368.16"/>
</g>
<!-- Node12&#45;&gt;Node5 -->
<g id="edge26" class="edge">
<title>Node12&#45;&gt;Node5</title>
<path fill="none" stroke="midnightblue" d="M396.6,-453.41C416.44,-448.42 440.88,-442.27 461.95,-436.97"/>
<polygon fill="midnightblue" stroke="midnightblue" points="462.83,-440.35 471.67,-434.52 461.12,-433.57 462.83,-440.35"/>
</g>
<!-- Node13&#45;&gt;Node3 -->
<g id="edge28" class="edge">
<title>Node13&#45;&gt;Node3</title>
<path fill="none" stroke="midnightblue" d="M542.98,-567.46C551.68,-563.85 560.73,-559.09 568,-553 602.39,-524.2 627.77,-477.61 641.05,-449.29"/>
<polygon fill="midnightblue" stroke="midnightblue" points="644.28,-450.65 645.24,-440.1 637.91,-447.75 644.28,-450.65"/>
</g>
<!-- Node16&#45;&gt;Node17 -->
<g id="edge33" class="edge">
<title>Node16&#45;&gt;Node17</title>
<path fill="none" stroke="midnightblue" d="M248.17,-103.55C263.94,-105.51 281.92,-107.74 298.63,-109.81"/>
<polygon fill="midnightblue" stroke="midnightblue" points="298.49,-113.32 308.84,-111.08 299.35,-106.38 298.49,-113.32"/>
</g>
</g>
</svg>
