<?xml version="1.0" encoding="UTF-8" standalone="no"?>
<!DOCTYPE svg PUBLIC "-//W3C//DTD SVG 1.1//EN"
 "http://www.w3.org/Graphics/SVG/1.1/DTD/svg11.dtd">
<!-- Generated by graphviz version 3.0.0 (20220226.1711)
 -->
<!-- Title: slljit::PrototypeAST::isBinaryOp Pages: 1 -->
<svg width="378pt" height="61pt"
 viewBox="0.00 0.00 378.00 61.00" xmlns="http://www.w3.org/2000/svg" xmlns:xlink="http://www.w3.org/1999/xlink">
<g id="graph0" class="graph" transform="scale(1 1) rotate(0) translate(4 57)">
<title>slljit::PrototypeAST::isBinaryOp</title>
<!-- Node1 -->
<g id="node1" class="node">
<title>Node1</title>
<g id="a_node1"><a xlink:title=" ">
<polygon fill="#bfbfbf" stroke="black" points="269,-22.5 269,-52.5 370,-52.5 370,-22.5 269,-22.5"/>
<text text-anchor="start" x="277" y="-40.5" font-family="Helvetica,sans-Serif" font-size="10.00">slljit::PrototypeAST</text>
<text text-anchor="middle" x="319.5" y="-29.5" font-family="Helvetica,sans-Serif" font-size="10.00">::isBinaryOp</text>
</a>
</g>
</g>
<!-- Node2 -->
<g id="node2" class="node">
<title>Node2</title>
<g id="a_node2"><a xlink:href="classslljit_1_1_function_a_s_t.html#ad9580c93bf3b4c4cdce1606d2e1a7be5" target="_top" xlink:title=" ">
<polygon fill="none" stroke="black" points="0,-22.5 0,-52.5 96,-52.5 96,-22.5 0,-22.5"/>
<text text-anchor="start" x="8" y="-40.5" font-family="Helvetica,sans-Serif" font-size="10.00">slljit::FunctionAST</text>
<text text-anchor="middle" x="48" y="-29.5" font-family="Helvetica,sans-Serif" font-size="10.00">::codegen</text>
</a>
</g>
</g>
<!-- Node1&#45;&gt;Node2 -->
<g id="edge1" class="edge">
<title>Node1&#45;&gt;Node2</title>
<path fill="none" stroke="midnightblue" d="M258.74,-39.86C250.11,-40.13 241.33,-40.35 233,-40.5 188.12,-41.29 176.88,-41.31 132,-40.5 120.47,-40.29 108.04,-39.92 96.4,-39.51"/>
<polygon fill="midnightblue" stroke="midnightblue" points="258.89,-43.36 268.78,-39.54 258.67,-36.36 258.89,-43.36"/>
</g>
<!-- Node3 -->
<g id="node3" class="node">
<title>Node3</title>
<g id="a_node3"><a xlink:href="classslljit_1_1_prototype_a_s_t.html#abdb93d6f640dba2d44ffc858d4e4bee0" target="_top" xlink:title=" ">
<polygon fill="none" stroke="black" points="132,-0.5 132,-30.5 233,-30.5 233,-0.5 132,-0.5"/>
<text text-anchor="start" x="140" y="-18.5" font-family="Helvetica,sans-Serif" font-size="10.00">slljit::PrototypeAST</text>
<text text-anchor="middle" x="182.5" y="-7.5" font-family="Helvetica,sans-Serif" font-size="10.00">::getOperatorName</text>
</a>
</g>
</g>
<!-- Node1&#45;&gt;Node3 -->
<g id="edge2" class="edge">
<title>Node1&#45;&gt;Node3</title>
<path fill="none" stroke="midnightblue" d="M259.07,-27.82C250.52,-26.42 241.79,-25 233.45,-23.64"/>
<polygon fill="midnightblue" stroke="midnightblue" points="258.56,-31.28 269,-29.43 259.69,-24.37 258.56,-31.28"/>
</g>
<!-- Node3&#45;&gt;Node2 -->
<g id="edge3" class="edge">
<title>Node3&#45;&gt;Node2</title>
<path fill="none" stroke="midnightblue" d="M121.86,-25.4C113.32,-26.82 104.62,-28.26 96.36,-29.64"/>
<polygon fill="midnightblue" stroke="midnightblue" points="122.49,-28.85 131.78,-23.75 121.35,-21.94 122.49,-28.85"/>
</g>
</g>
</svg>
