<?xml version="1.0" encoding="UTF-8" standalone="no"?>
<!DOCTYPE svg PUBLIC "-//W3C//DTD SVG 1.1//EN"
 "http://www.w3.org/Graphics/SVG/1.1/DTD/svg11.dtd">
<!-- Generated by graphviz version 3.0.0 (20220226.1711)
 -->
<!-- Title: slljit::Parser::ParsePrototype Pages: 1 -->
<svg width="995pt" height="78pt"
 viewBox="0.00 0.00 995.00 77.50" xmlns="http://www.w3.org/2000/svg" xmlns:xlink="http://www.w3.org/1999/xlink">
<g id="graph0" class="graph" transform="scale(1 1) rotate(0) translate(4 73.5)">
<title>slljit::Parser::ParsePrototype</title>
<!-- Node1 -->
<g id="node1" class="node">
<title>Node1</title>
<g id="a_node1"><a xlink:title=" ">
<polygon fill="#bfbfbf" stroke="black" points="845,-28 845,-47 987,-47 987,-28 845,-28"/>
<text text-anchor="middle" x="916" y="-35" font-family="Helvetica,sans-Serif" font-size="10.00">slljit::Parser::ParsePrototype</text>
</a>
</g>
</g>
<!-- Node2 -->
<g id="node2" class="node">
<title>Node2</title>
<g id="a_node2"><a xlink:href="classslljit_1_1_parser.html#af6e239a609e8a3812838b53f9a8356ce" target="_top" xlink:title="external ::= &#39;extern&#39; prototype">
<polygon fill="none" stroke="black" points="681,-50 681,-69 809,-69 809,-50 681,-50"/>
<text text-anchor="middle" x="745" y="-57" font-family="Helvetica,sans-Serif" font-size="10.00">slljit::Parser::ParseExtern</text>
</a>
</g>
</g>
<!-- Node1&#45;&gt;Node2 -->
<g id="edge1" class="edge">
<title>Node1&#45;&gt;Node2</title>
<path fill="none" stroke="midnightblue" d="M834.78,-47.94C826.21,-49.06 817.57,-50.18 809.24,-51.27"/>
<polygon fill="midnightblue" stroke="midnightblue" points="835.33,-51.4 844.8,-46.64 834.43,-44.46 835.33,-51.4"/>
</g>
<!-- Node8 -->
<g id="node8" class="node">
<title>Node8</title>
<g id="a_node8"><a xlink:href="classslljit_1_1_parser.html#aa9a9ce164e114ad7f347f32329f5a5a2" target="_top" xlink:title="definition ::= &#39;def&#39; prototype expression">
<polygon fill="none" stroke="black" points="687,-0.5 687,-30.5 803,-30.5 803,-0.5 687,-0.5"/>
<text text-anchor="start" x="695" y="-18.5" font-family="Helvetica,sans-Serif" font-size="10.00">slljit::Parser::ParseTop</text>
<text text-anchor="middle" x="745" y="-7.5" font-family="Helvetica,sans-Serif" font-size="10.00">LevelTypedExpression</text>
</a>
</g>
</g>
<!-- Node1&#45;&gt;Node8 -->
<g id="edge7" class="edge">
<title>Node1&#45;&gt;Node8</title>
<path fill="none" stroke="midnightblue" d="M834.64,-27.04C824,-25.65 813.28,-24.26 803.14,-22.94"/>
<polygon fill="midnightblue" stroke="midnightblue" points="834.43,-30.54 844.8,-28.36 835.33,-23.6 834.43,-30.54"/>
</g>
<!-- Node3 -->
<g id="node3" class="node">
<title>Node3</title>
<g id="a_node3"><a xlink:href="classslljit_1_1_parser.html#a5ff2f693f00fe32c8ee836e9139cb93e" target="_top" xlink:title=" ">
<polygon fill="none" stroke="black" points="512,-50 512,-69 645,-69 645,-50 512,-50"/>
<text text-anchor="middle" x="578.5" y="-57" font-family="Helvetica,sans-Serif" font-size="10.00">slljit::Parser::HandleExtern</text>
</a>
</g>
</g>
<!-- Node2&#45;&gt;Node3 -->
<g id="edge2" class="edge">
<title>Node2&#45;&gt;Node3</title>
<path fill="none" stroke="midnightblue" d="M670.62,-59.5C662.15,-59.5 653.55,-59.5 645.19,-59.5"/>
<polygon fill="midnightblue" stroke="midnightblue" points="670.87,-63 680.87,-59.5 670.87,-56 670.87,-63"/>
</g>
<!-- Node4 -->
<g id="node4" class="node">
<title>Node4</title>
<g id="a_node4"><a xlink:href="classslljit_1_1_parser.html#ae2d3d6534b87da7f237c19129a464bda" target="_top" xlink:title="top ::= definition | external | expression | &#39;;&#39;">
<polygon fill="none" stroke="black" points="360,-28 360,-47 476,-47 476,-28 360,-28"/>
<text text-anchor="middle" x="418" y="-35" font-family="Helvetica,sans-Serif" font-size="10.00">slljit::Parser::MainLoop</text>
</a>
</g>
</g>
<!-- Node3&#45;&gt;Node4 -->
<g id="edge3" class="edge">
<title>Node3&#45;&gt;Node4</title>
<path fill="none" stroke="midnightblue" d="M501.68,-48.98C493.14,-47.79 484.55,-46.6 476.3,-45.45"/>
<polygon fill="midnightblue" stroke="midnightblue" points="501.27,-52.45 511.66,-50.36 502.23,-45.52 501.27,-52.45"/>
</g>
<!-- Node5 -->
<g id="node5" class="node">
<title>Node5</title>
<g id="a_node5"><a xlink:href="classslljit_1_1_parser.html#a2429935f3c870648f9f895a7b2361cfb" target="_top" xlink:title=" ">
<polygon fill="none" stroke="black" points="226,-28 226,-47 324,-47 324,-28 226,-28"/>
<text text-anchor="middle" x="275" y="-35" font-family="Helvetica,sans-Serif" font-size="10.00">slljit::Parser::parse</text>
</a>
</g>
</g>
<!-- Node4&#45;&gt;Node5 -->
<g id="edge4" class="edge">
<title>Node4&#45;&gt;Node5</title>
<path fill="none" stroke="midnightblue" d="M349.37,-37.5C340.9,-37.5 332.37,-37.5 324.28,-37.5"/>
<polygon fill="midnightblue" stroke="midnightblue" points="349.65,-41 359.65,-37.5 349.65,-34 349.65,-41"/>
</g>
<!-- Node6 -->
<g id="node6" class="node">
<title>Node6</title>
<g id="a_node6"><a xlink:href="classslljit_1_1_program.html#ae4d26526a7dd9c69ebe92fb43736696b" target="_top" xlink:title=" ">
<polygon fill="none" stroke="black" points="74,-28 74,-47 190,-47 190,-28 74,-28"/>
<text text-anchor="middle" x="132" y="-35" font-family="Helvetica,sans-Serif" font-size="10.00">slljit::Program::compile</text>
</a>
</g>
</g>
<!-- Node5&#45;&gt;Node6 -->
<g id="edge5" class="edge">
<title>Node5&#45;&gt;Node6</title>
<path fill="none" stroke="midnightblue" d="M215.72,-37.5C207.27,-37.5 198.58,-37.5 190.16,-37.5"/>
<polygon fill="midnightblue" stroke="midnightblue" points="215.87,-41 225.87,-37.5 215.87,-34 215.87,-41"/>
</g>
<!-- Node7 -->
<g id="node7" class="node">
<title>Node7</title>
<g id="a_node7"><a xlink:href="compiler__cli_8cpp.html#a3c04138a5bfe5d72780bb7e82a18e627" target="_top" xlink:title=" ">
<polygon fill="none" stroke="black" points="0,-28 0,-47 38,-47 38,-28 0,-28"/>
<text text-anchor="middle" x="19" y="-35" font-family="Helvetica,sans-Serif" font-size="10.00">main</text>
</a>
</g>
</g>
<!-- Node6&#45;&gt;Node7 -->
<g id="edge6" class="edge">
<title>Node6&#45;&gt;Node7</title>
<path fill="none" stroke="midnightblue" d="M63.62,-37.5C54.3,-37.5 45.44,-37.5 38.18,-37.5"/>
<polygon fill="midnightblue" stroke="midnightblue" points="63.87,-41 73.87,-37.5 63.87,-34 63.87,-41"/>
</g>
<!-- Node9 -->
<g id="node9" class="node">
<title>Node9</title>
<g id="a_node9"><a xlink:href="classslljit_1_1_parser.html#af0cac4623fc05b8b7ae9884b0aeb3d3f" target="_top" xlink:title=" ">
<polygon fill="none" stroke="black" points="513,-0.5 513,-30.5 644,-30.5 644,-0.5 513,-0.5"/>
<text text-anchor="start" x="521" y="-18.5" font-family="Helvetica,sans-Serif" font-size="10.00">slljit::Parser::HandleTyped</text>
<text text-anchor="middle" x="578.5" y="-7.5" font-family="Helvetica,sans-Serif" font-size="10.00">Expression</text>
</a>
</g>
</g>
<!-- Node8&#45;&gt;Node9 -->
<g id="edge8" class="edge">
<title>Node8&#45;&gt;Node9</title>
<path fill="none" stroke="midnightblue" d="M676.72,-15.5C665.94,-15.5 654.8,-15.5 644.08,-15.5"/>
<polygon fill="midnightblue" stroke="midnightblue" points="676.93,-19 686.93,-15.5 676.93,-12 676.93,-19"/>
</g>
<!-- Node9&#45;&gt;Node4 -->
<g id="edge9" class="edge">
<title>Node9&#45;&gt;Node4</title>
<path fill="none" stroke="midnightblue" d="M502.61,-25.9C493.73,-27.13 484.78,-28.37 476.21,-29.56"/>
<polygon fill="midnightblue" stroke="midnightblue" points="503.15,-29.35 512.57,-24.51 502.19,-22.42 503.15,-29.35"/>
</g>
</g>
</svg>
