<?xml version="1.0" encoding="UTF-8" standalone="no"?>
<!DOCTYPE svg PUBLIC "-//W3C//DTD SVG 1.1//EN"
 "http://www.w3.org/Graphics/SVG/1.1/DTD/svg11.dtd">
<!-- Generated by graphviz version 3.0.0 (20220226.1711)
 -->
<!-- Title: slljit::Tokenizer::get_literal_string Pages: 1 -->
<svg width="1993pt" height="286pt"
 viewBox="0.00 0.00 1993.00 285.56" xmlns="http://www.w3.org/2000/svg" xmlns:xlink="http://www.w3.org/1999/xlink">
<g id="graph0" class="graph" transform="scale(1 1) rotate(0) translate(4 281.56)">
<title>slljit::Tokenizer::get_literal_string</title>
<!-- Node1 -->
<g id="node1" class="node">
<title>Node1</title>
<g id="a_node1"><a xlink:title=" ">
<polygon fill="#bfbfbf" stroke="black" points="1897,-88.29 1897,-118.29 1985,-118.29 1985,-88.29 1897,-88.29"/>
<text text-anchor="start" x="1905" y="-106.29" font-family="Helvetica,sans-Serif" font-size="10.00">slljit::Tokenizer::</text>
<text text-anchor="middle" x="1941" y="-95.29" font-family="Helvetica,sans-Serif" font-size="10.00">get_literal_string</text>
</a>
</g>
</g>
<!-- Node2 -->
<g id="node2" class="node">
<title>Node2</title>
<g id="a_node2"><a xlink:href="classslljit_1_1_parser.html#af9ccc5948e2cf9051c2569cc42dc3bb7" target="_top" xlink:title="numberexpr ::= number">
<polygon fill="none" stroke="black" points="1715,-93.79 1715,-112.79 1861,-112.79 1861,-93.79 1715,-93.79"/>
<text text-anchor="middle" x="1788" y="-100.79" font-family="Helvetica,sans-Serif" font-size="10.00">slljit::Parser::ParseLiteralExpr</text>
</a>
</g>
</g>
<!-- Node1&#45;&gt;Node2 -->
<g id="edge1" class="edge">
<title>Node1&#45;&gt;Node2</title>
<path fill="none" stroke="midnightblue" d="M1886.52,-103.29C1878.28,-103.29 1869.64,-103.29 1861.07,-103.29"/>
<polygon fill="midnightblue" stroke="midnightblue" points="1886.73,-106.79 1896.73,-103.29 1886.73,-99.79 1886.73,-106.79"/>
</g>
<!-- Node3 -->
<g id="node3" class="node">
<title>Node3</title>
<g id="a_node3"><a xlink:href="classslljit_1_1_parser.html#a45cb3e4f600e8e2c253490e7d878e8cd" target="_top" xlink:title=" ">
<polygon fill="none" stroke="black" points="1545,-93.79 1545,-112.79 1679,-112.79 1679,-93.79 1545,-93.79"/>
<text text-anchor="middle" x="1612" y="-100.79" font-family="Helvetica,sans-Serif" font-size="10.00">slljit::Parser::ParsePrimary</text>
</a>
</g>
</g>
<!-- Node2&#45;&gt;Node3 -->
<g id="edge2" class="edge">
<title>Node2&#45;&gt;Node3</title>
<path fill="none" stroke="midnightblue" d="M1704.88,-103.29C1696.25,-103.29 1687.54,-103.29 1679.12,-103.29"/>
<polygon fill="midnightblue" stroke="midnightblue" points="1704.97,-106.79 1714.97,-103.29 1704.97,-99.79 1704.97,-106.79"/>
</g>
<!-- Node4 -->
<g id="node4" class="node">
<title>Node4</title>
<g id="a_node4"><a xlink:href="classslljit_1_1_parser.html#af8579896f39ac563d2edd14404d70f41" target="_top" xlink:title=" ">
<polygon fill="none" stroke="black" points="1384,-112.79 1384,-131.79 1509,-131.79 1509,-112.79 1384,-112.79"/>
<text text-anchor="middle" x="1446.5" y="-119.79" font-family="Helvetica,sans-Serif" font-size="10.00">slljit::Parser::ParseUnary</text>
</a>
</g>
</g>
<!-- Node3&#45;&gt;Node4 -->
<g id="edge3" class="edge">
<title>Node3&#45;&gt;Node4</title>
<path fill="none" stroke="midnightblue" d="M1534.86,-112.14C1526.2,-113.14 1517.46,-114.16 1509.02,-115.14"/>
<polygon fill="midnightblue" stroke="midnightblue" points="1535.44,-115.59 1544.97,-110.96 1534.63,-108.64 1535.44,-115.59"/>
</g>
<!-- Node4&#45;&gt;Node4 -->
<g id="edge27" class="edge">
<title>Node4&#45;&gt;Node4</title>
<path fill="none" stroke="midnightblue" d="M1475.25,-140.94C1474.04,-146.22 1464.46,-150.29 1446.5,-150.29 1419.13,-150.29 1411.22,-140.85 1422.76,-132.04"/>
<polygon fill="midnightblue" stroke="midnightblue" points="1478.19,-139.04 1470.24,-132.04 1472.09,-142.48 1478.19,-139.04"/>
</g>
<!-- Node5 -->
<g id="node5" class="node">
<title>Node5</title>
<g id="a_node5"><a xlink:href="classslljit_1_1_parser.html#ae387c9672ec50720d8cb969558aedbe9" target="_top" xlink:title=" ">
<polygon fill="none" stroke="black" points="1234,-151.29 1234,-181.29 1348,-181.29 1348,-151.29 1234,-151.29"/>
<text text-anchor="start" x="1242" y="-169.29" font-family="Helvetica,sans-Serif" font-size="10.00">slljit::Parser::ParseBin</text>
<text text-anchor="middle" x="1291" y="-158.29" font-family="Helvetica,sans-Serif" font-size="10.00">OpRHS</text>
</a>
</g>
</g>
<!-- Node4&#45;&gt;Node5 -->
<g id="edge4" class="edge">
<title>Node4&#45;&gt;Node5</title>
<path fill="none" stroke="midnightblue" d="M1402.55,-134.6C1384.56,-139.76 1363.47,-145.8 1344.56,-151.22"/>
<polygon fill="midnightblue" stroke="midnightblue" points="1403.54,-137.96 1412.19,-131.84 1401.62,-131.23 1403.54,-137.96"/>
</g>
<!-- Node6 -->
<g id="node6" class="node">
<title>Node6</title>
<g id="a_node6"><a xlink:href="classslljit_1_1_parser.html#a79461bf414d03dcabb49d3bbd6f89607" target="_top" xlink:title=" ">
<polygon fill="none" stroke="black" points="1049,-131.79 1049,-150.79 1198,-150.79 1198,-131.79 1049,-131.79"/>
<text text-anchor="middle" x="1123.5" y="-138.79" font-family="Helvetica,sans-Serif" font-size="10.00">slljit::Parser::ParseExpression</text>
</a>
</g>
</g>
<!-- Node4&#45;&gt;Node6 -->
<g id="edge26" class="edge">
<title>Node4&#45;&gt;Node6</title>
<path fill="none" stroke="midnightblue" d="M1373.79,-126.53C1321.52,-129.63 1250.92,-133.81 1198.19,-136.93"/>
<polygon fill="midnightblue" stroke="midnightblue" points="1374.21,-130.01 1383.99,-125.93 1373.8,-123.03 1374.21,-130.01"/>
</g>
<!-- Node5&#45;&gt;Node5 -->
<g id="edge5" class="edge">
<title>Node5&#45;&gt;Node5</title>
<path fill="none" stroke="midnightblue" d="M1318.36,-191.75C1314.97,-196.47 1305.85,-199.79 1291,-199.79 1266.64,-199.79 1257.69,-190.84 1264.16,-181.45"/>
<polygon fill="midnightblue" stroke="midnightblue" points="1321.84,-191.26 1317.84,-181.45 1314.85,-191.61 1321.84,-191.26"/>
</g>
<!-- Node5&#45;&gt;Node6 -->
<g id="edge6" class="edge">
<title>Node5&#45;&gt;Node6</title>
<path fill="none" stroke="midnightblue" d="M1224.02,-156.32C1212.01,-154.51 1199.51,-152.62 1187.59,-150.82"/>
<polygon fill="midnightblue" stroke="midnightblue" points="1223.56,-159.79 1233.97,-157.82 1224.6,-152.87 1223.56,-159.79"/>
</g>
<!-- Node7 -->
<g id="node7" class="node">
<title>Node7</title>
<g id="a_node7"><a xlink:href="classslljit_1_1_parser.html#acc431005ac3dd38732083d7a1bb0eab2" target="_top" xlink:title=" ">
<polygon fill="none" stroke="black" points="849,-150.79 849,-169.79 1013,-169.79 1013,-150.79 849,-150.79"/>
<text text-anchor="middle" x="931" y="-157.79" font-family="Helvetica,sans-Serif" font-size="10.00">slljit::Parser::ParseExpressionList</text>
</a>
</g>
</g>
<!-- Node6&#45;&gt;Node7 -->
<g id="edge7" class="edge">
<title>Node6&#45;&gt;Node7</title>
<path fill="none" stroke="midnightblue" d="M1038.86,-149.63C1030.29,-150.48 1021.59,-151.35 1013.05,-152.2"/>
<polygon fill="midnightblue" stroke="midnightblue" points="1039.24,-153.11 1048.85,-148.63 1038.55,-146.14 1039.24,-153.11"/>
</g>
<!-- Node8 -->
<g id="node8" class="node">
<title>Node8</title>
<g id="a_node8"><a xlink:href="classslljit_1_1_parser.html#a81023e7a6221eb6b92027bd21433c9dd" target="_top" xlink:title="forexpr ::= &#39;for&#39; identifier &#39;=&#39; expr &#39;,&#39; expr (&#39;,&#39; expr)? &#39;in&#39; expression">
<polygon fill="none" stroke="black" points="679,-106.79 679,-125.79 813,-125.79 813,-106.79 679,-106.79"/>
<text text-anchor="middle" x="746" y="-113.79" font-family="Helvetica,sans-Serif" font-size="10.00">slljit::Parser::ParseForExpr</text>
</a>
</g>
</g>
<!-- Node6&#45;&gt;Node8 -->
<g id="edge18" class="edge">
<title>Node6&#45;&gt;Node8</title>
<path fill="none" stroke="midnightblue" d="M1038.49,-135.69C970.4,-131.16 875.77,-124.86 813.03,-120.68"/>
<polygon fill="midnightblue" stroke="midnightblue" points="1038.55,-139.21 1048.76,-136.38 1039.02,-132.22 1038.55,-139.21"/>
</g>
<!-- Node9 -->
<g id="node9" class="node">
<title>Node9</title>
<g id="a_node9"><a xlink:href="classslljit_1_1_parser.html#a149f5e88cb03aa08c388e6320c6c1bac" target="_top" xlink:title="ifexpr ::= &#39;if&#39; expression &#39;then&#39; expression &#39;else&#39; expression">
<polygon fill="none" stroke="black" points="683.5,-194.79 683.5,-213.79 808.5,-213.79 808.5,-194.79 683.5,-194.79"/>
<text text-anchor="middle" x="746" y="-201.79" font-family="Helvetica,sans-Serif" font-size="10.00">slljit::Parser::ParseIfExpr</text>
</a>
</g>
</g>
<!-- Node6&#45;&gt;Node9 -->
<g id="edge21" class="edge">
<title>Node6&#45;&gt;Node9</title>
<path fill="none" stroke="midnightblue" d="M1090.58,-154.65C1069.04,-163.1 1039.77,-173.47 1013,-179.29 943.99,-194.28 862.98,-200.28 808.65,-202.68"/>
<polygon fill="midnightblue" stroke="midnightblue" points="1091.9,-157.89 1099.89,-150.93 1089.3,-151.39 1091.9,-157.89"/>
</g>
<!-- Node16 -->
<g id="node16" class="node">
<title>Node16</title>
<g id="a_node16"><a xlink:href="classslljit_1_1_parser.html#a25cfefcbeea85744e23370d3a6f8ad5b" target="_top" xlink:title=" ">
<polygon fill="none" stroke="black" points="853,-226.79 853,-245.79 1009,-245.79 1009,-226.79 853,-226.79"/>
<text text-anchor="middle" x="931" y="-233.79" font-family="Helvetica,sans-Serif" font-size="10.00">slljit::Parser::ParseIdentifierExpr</text>
</a>
</g>
</g>
<!-- Node6&#45;&gt;Node16 -->
<g id="edge19" class="edge">
<title>Node6&#45;&gt;Node16</title>
<path fill="none" stroke="midnightblue" d="M1102.14,-157.06C1080.9,-172.88 1046.13,-197.03 1013,-212.29 1000.21,-218.18 985.62,-223.03 972.38,-226.78"/>
<polygon fill="midnightblue" stroke="midnightblue" points="1104.5,-159.66 1110.37,-150.84 1100.28,-154.07 1104.5,-159.66"/>
</g>
<!-- Node17 -->
<g id="node17" class="node">
<title>Node17</title>
<g id="a_node17"><a xlink:href="classslljit_1_1_parser.html#a6e2e0f6a2cc445f3a956db59c8d2da66" target="_top" xlink:title="parenexpr ::= &#39;(&#39; expression &#39;)&#39;">
<polygon fill="none" stroke="black" points="858,-74.79 858,-93.79 1004,-93.79 1004,-74.79 858,-74.79"/>
<text text-anchor="middle" x="931" y="-81.79" font-family="Helvetica,sans-Serif" font-size="10.00">slljit::Parser::ParseParenExpr</text>
</a>
</g>
</g>
<!-- Node6&#45;&gt;Node17 -->
<g id="edge22" class="edge">
<title>Node6&#45;&gt;Node17</title>
<path fill="none" stroke="midnightblue" d="M1081.22,-128.8C1060.72,-122.61 1035.56,-115.03 1013,-108.29 996.98,-103.5 979.17,-98.22 964.33,-93.83"/>
<polygon fill="midnightblue" stroke="midnightblue" points="1080.3,-132.18 1090.89,-131.72 1082.33,-125.48 1080.3,-132.18"/>
</g>
<!-- Node18 -->
<g id="node18" class="node">
<title>Node18</title>
<g id="a_node18"><a xlink:href="classslljit_1_1_parser.html#a435877d3f2869d140a7cca646546a114" target="_top" xlink:title="varexpr ::= &#39;g_var&#39; identifier (&#39;=&#39; expression)?">
<polygon fill="none" stroke="black" points="863.5,-36.79 863.5,-55.79 998.5,-55.79 998.5,-36.79 863.5,-36.79"/>
<text text-anchor="middle" x="931" y="-43.79" font-family="Helvetica,sans-Serif" font-size="10.00">slljit::Parser::ParseVarExpr</text>
</a>
</g>
</g>
<!-- Node6&#45;&gt;Node18 -->
<g id="edge24" class="edge">
<title>Node6&#45;&gt;Node18</title>
<path fill="none" stroke="midnightblue" d="M1103.81,-124.99C1083.01,-107.68 1047.75,-80.75 1013,-65.29 1004.42,-61.47 994.98,-58.37 985.66,-55.86"/>
<polygon fill="midnightblue" stroke="midnightblue" points="1101.65,-127.74 1111.54,-131.53 1106.17,-122.4 1101.65,-127.74"/>
</g>
<!-- Node7&#45;&gt;Node8 -->
<g id="edge8" class="edge">
<title>Node7&#45;&gt;Node8</title>
<path fill="none" stroke="midnightblue" d="M880.22,-148.32C850.81,-141.25 814.07,-132.41 786.63,-125.82"/>
<polygon fill="midnightblue" stroke="midnightblue" points="879.75,-151.81 890.29,-150.74 881.39,-145 879.75,-151.81"/>
</g>
<!-- Node7&#45;&gt;Node9 -->
<g id="edge10" class="edge">
<title>Node7&#45;&gt;Node9</title>
<path fill="none" stroke="midnightblue" d="M880.22,-172.26C850.81,-179.33 814.07,-188.16 786.63,-194.76"/>
<polygon fill="midnightblue" stroke="midnightblue" points="881.39,-175.58 890.29,-169.84 879.75,-168.77 881.39,-175.58"/>
</g>
<!-- Node10 -->
<g id="node10" class="node">
<title>Node10</title>
<g id="a_node10"><a xlink:href="classslljit_1_1_parser.html#aa9a9ce164e114ad7f347f32329f5a5a2" target="_top" xlink:title="definition ::= &#39;def&#39; prototype expression">
<polygon fill="none" stroke="black" points="688,-145.29 688,-175.29 804,-175.29 804,-145.29 688,-145.29"/>
<text text-anchor="start" x="696" y="-163.29" font-family="Helvetica,sans-Serif" font-size="10.00">slljit::Parser::ParseTop</text>
<text text-anchor="middle" x="746" y="-152.29" font-family="Helvetica,sans-Serif" font-size="10.00">LevelTypedExpression</text>
</a>
</g>
</g>
<!-- Node7&#45;&gt;Node10 -->
<g id="edge12" class="edge">
<title>Node7&#45;&gt;Node10</title>
<path fill="none" stroke="midnightblue" d="M838.63,-160.29C826.88,-160.29 815.12,-160.29 804.14,-160.29"/>
<polygon fill="midnightblue" stroke="midnightblue" points="838.93,-163.79 848.93,-160.29 838.93,-156.79 838.93,-163.79"/>
</g>
<!-- Node8&#45;&gt;Node3 -->
<g id="edge9" class="edge">
<title>Node8&#45;&gt;Node3</title>
<path fill="none" stroke="midnightblue" d="M760.87,-98.61C778.69,-77.38 811.8,-42.73 849,-27.29 961.54,19.42 1000.65,-8.29 1122.5,-8.29 1292,-8.29 1292,-8.29 1292,-8.29 1410.75,-8.29 1544.41,-69.5 1592.52,-93.66"/>
<polygon fill="midnightblue" stroke="midnightblue" points="758.02,-96.57 754.4,-106.53 763.44,-100.99 758.02,-96.57"/>
</g>
<!-- Node9&#45;&gt;Node3 -->
<g id="edge11" class="edge">
<title>Node9&#45;&gt;Node3</title>
<path fill="none" stroke="midnightblue" d="M770.16,-219.2C790.17,-231.26 820.31,-247.46 849,-255.29 966.55,-287.38 1000.65,-274.29 1122.5,-274.29 1292,-274.29 1292,-274.29 1292,-274.29 1394.79,-274.29 1420.88,-247.21 1509,-194.29 1548.26,-170.71 1586.3,-130.96 1602.64,-112.82"/>
<polygon fill="midnightblue" stroke="midnightblue" points="771.81,-216.11 761.46,-213.84 768.14,-222.07 771.81,-216.11"/>
</g>
<!-- Node11 -->
<g id="node11" class="node">
<title>Node11</title>
<g id="a_node11"><a xlink:href="classslljit_1_1_parser.html#af0cac4623fc05b8b7ae9884b0aeb3d3f" target="_top" xlink:title=" ">
<polygon fill="none" stroke="black" points="512,-145.29 512,-175.29 643,-175.29 643,-145.29 512,-145.29"/>
<text text-anchor="start" x="520" y="-163.29" font-family="Helvetica,sans-Serif" font-size="10.00">slljit::Parser::HandleTyped</text>
<text text-anchor="middle" x="577.5" y="-152.29" font-family="Helvetica,sans-Serif" font-size="10.00">Expression</text>
</a>
</g>
</g>
<!-- Node10&#45;&gt;Node11 -->
<g id="edge13" class="edge">
<title>Node10&#45;&gt;Node11</title>
<path fill="none" stroke="midnightblue" d="M677.42,-160.29C666.07,-160.29 654.32,-160.29 643.05,-160.29"/>
<polygon fill="midnightblue" stroke="midnightblue" points="677.7,-163.79 687.7,-160.29 677.7,-156.79 677.7,-163.79"/>
</g>
<!-- Node12 -->
<g id="node12" class="node">
<title>Node12</title>
<g id="a_node12"><a xlink:href="classslljit_1_1_parser.html#ae2d3d6534b87da7f237c19129a464bda" target="_top" xlink:title="top ::= definition | external | expression | &#39;;&#39;">
<polygon fill="none" stroke="black" points="360,-150.79 360,-169.79 476,-169.79 476,-150.79 360,-150.79"/>
<text text-anchor="middle" x="418" y="-157.79" font-family="Helvetica,sans-Serif" font-size="10.00">slljit::Parser::MainLoop</text>
</a>
</g>
</g>
<!-- Node11&#45;&gt;Node12 -->
<g id="edge14" class="edge">
<title>Node11&#45;&gt;Node12</title>
<path fill="none" stroke="midnightblue" d="M501.87,-160.29C493.2,-160.29 484.47,-160.29 476.09,-160.29"/>
<polygon fill="midnightblue" stroke="midnightblue" points="501.98,-163.79 511.98,-160.29 501.98,-156.79 501.98,-163.79"/>
</g>
<!-- Node13 -->
<g id="node13" class="node">
<title>Node13</title>
<g id="a_node13"><a xlink:href="classslljit_1_1_parser.html#a2429935f3c870648f9f895a7b2361cfb" target="_top" xlink:title=" ">
<polygon fill="none" stroke="black" points="226,-150.79 226,-169.79 324,-169.79 324,-150.79 226,-150.79"/>
<text text-anchor="middle" x="275" y="-157.79" font-family="Helvetica,sans-Serif" font-size="10.00">slljit::Parser::parse</text>
</a>
</g>
</g>
<!-- Node12&#45;&gt;Node13 -->
<g id="edge15" class="edge">
<title>Node12&#45;&gt;Node13</title>
<path fill="none" stroke="midnightblue" d="M349.37,-160.29C340.9,-160.29 332.37,-160.29 324.28,-160.29"/>
<polygon fill="midnightblue" stroke="midnightblue" points="349.65,-163.79 359.65,-160.29 349.65,-156.79 349.65,-163.79"/>
</g>
<!-- Node14 -->
<g id="node14" class="node">
<title>Node14</title>
<g id="a_node14"><a xlink:href="classslljit_1_1_program.html#ae4d26526a7dd9c69ebe92fb43736696b" target="_top" xlink:title=" ">
<polygon fill="none" stroke="black" points="74,-150.79 74,-169.79 190,-169.79 190,-150.79 74,-150.79"/>
<text text-anchor="middle" x="132" y="-157.79" font-family="Helvetica,sans-Serif" font-size="10.00">slljit::Program::compile</text>
</a>
</g>
</g>
<!-- Node13&#45;&gt;Node14 -->
<g id="edge16" class="edge">
<title>Node13&#45;&gt;Node14</title>
<path fill="none" stroke="midnightblue" d="M215.72,-160.29C207.27,-160.29 198.58,-160.29 190.16,-160.29"/>
<polygon fill="midnightblue" stroke="midnightblue" points="215.87,-163.79 225.87,-160.29 215.87,-156.79 215.87,-163.79"/>
</g>
<!-- Node15 -->
<g id="node15" class="node">
<title>Node15</title>
<g id="a_node15"><a xlink:href="compiler__cli_8cpp.html#a3c04138a5bfe5d72780bb7e82a18e627" target="_top" xlink:title=" ">
<polygon fill="none" stroke="black" points="0,-150.79 0,-169.79 38,-169.79 38,-150.79 0,-150.79"/>
<text text-anchor="middle" x="19" y="-157.79" font-family="Helvetica,sans-Serif" font-size="10.00">main</text>
</a>
</g>
</g>
<!-- Node14&#45;&gt;Node15 -->
<g id="edge17" class="edge">
<title>Node14&#45;&gt;Node15</title>
<path fill="none" stroke="midnightblue" d="M63.62,-160.29C54.3,-160.29 45.44,-160.29 38.18,-160.29"/>
<polygon fill="midnightblue" stroke="midnightblue" points="63.87,-163.79 73.87,-160.29 63.87,-156.79 63.87,-163.79"/>
</g>
<!-- Node16&#45;&gt;Node3 -->
<g id="edge20" class="edge">
<title>Node16&#45;&gt;Node3</title>
<path fill="none" stroke="midnightblue" d="M1019.43,-236.59C1104.13,-235.47 1235.85,-230.04 1348,-209.29 1421.68,-195.66 1440.03,-188.58 1509,-159.29 1541.17,-145.63 1576.44,-124.86 1595.93,-112.82"/>
<polygon fill="midnightblue" stroke="midnightblue" points="1019.3,-233.09 1009.34,-236.7 1019.38,-240.09 1019.3,-233.09"/>
</g>
<!-- Node17&#45;&gt;Node3 -->
<g id="edge23" class="edge">
<title>Node17&#45;&gt;Node3</title>
<path fill="none" stroke="midnightblue" d="M1014.42,-86.59C1150.7,-90.41 1420.33,-97.95 1544.97,-101.44"/>
<polygon fill="midnightblue" stroke="midnightblue" points="1014.13,-83.08 1004.04,-86.3 1013.94,-90.08 1014.13,-83.08"/>
</g>
<!-- Node18&#45;&gt;Node3 -->
<g id="edge25" class="edge">
<title>Node18&#45;&gt;Node3</title>
<path fill="none" stroke="midnightblue" d="M1008.75,-51.72C1119.37,-59.71 1329.99,-75.5 1509,-92.29 1520.62,-93.38 1532.96,-94.63 1544.91,-95.89"/>
<polygon fill="midnightblue" stroke="midnightblue" points="1008.91,-48.23 998.69,-51 1008.41,-55.21 1008.91,-48.23"/>
</g>
</g>
</svg>
