<?xml version="1.0" encoding="UTF-8" standalone="no"?>
<!DOCTYPE svg PUBLIC "-//W3C//DTD SVG 1.1//EN"
 "http://www.w3.org/Graphics/SVG/1.1/DTD/svg11.dtd">
<!-- Generated by graphviz version 3.0.0 (20220226.1711)
 -->
<!-- Title: slljit::Parser::ParseExtern Pages: 1 -->
<svg width="786pt" height="343pt"
 viewBox="0.00 0.00 786.00 343.00" xmlns="http://www.w3.org/2000/svg" xmlns:xlink="http://www.w3.org/1999/xlink">
<g id="graph0" class="graph" transform="scale(1 1) rotate(0) translate(4 339)">
<title>slljit::Parser::ParseExtern</title>
<!-- Node1 -->
<g id="node1" class="node">
<title>Node1</title>
<g id="a_node1"><a xlink:title="external ::= &#39;extern&#39; prototype">
<polygon fill="#bfbfbf" stroke="black" points="0,-140 0,-159 128,-159 128,-140 0,-140"/>
<text text-anchor="middle" x="64" y="-147" font-family="Helvetica,sans-Serif" font-size="10.00">slljit::Parser::ParseExtern</text>
</a>
</g>
</g>
<!-- Node2 -->
<g id="node2" class="node">
<title>Node2</title>
<g id="a_node2"><a xlink:href="classslljit_1_1_parser.html#a9fcfefd86a6000dcb40fa737361ea55b" target="_top" xlink:title="GetTokPrecedence &#45; Get the precedence of the pending binary operator token.">
<polygon fill="none" stroke="black" points="342,-187 342,-206 476,-206 476,-187 342,-187"/>
<text text-anchor="middle" x="409" y="-194" font-family="Helvetica,sans-Serif" font-size="10.00">slljit::Parser::getNextToken</text>
</a>
</g>
</g>
<!-- Node1&#45;&gt;Node2 -->
<g id="edge1" class="edge">
<title>Node1&#45;&gt;Node2</title>
<path fill="none" stroke="midnightblue" d="M128.31,-158.18C185.8,-166.05 270.69,-177.68 331.86,-186.07"/>
<polygon fill="midnightblue" stroke="midnightblue" points="331.46,-189.54 341.84,-187.43 332.41,-182.61 331.46,-189.54"/>
</g>
<!-- Node10 -->
<g id="node10" class="node">
<title>Node10</title>
<g id="a_node10"><a xlink:href="classslljit_1_1_parser.html#ad51a4352241881b5c6d118db9ccdec46" target="_top" xlink:title=" ">
<polygon fill="none" stroke="black" points="164,-121 164,-140 306,-140 306,-121 164,-121"/>
<text text-anchor="middle" x="235" y="-128" font-family="Helvetica,sans-Serif" font-size="10.00">slljit::Parser::ParsePrototype</text>
</a>
</g>
</g>
<!-- Node1&#45;&gt;Node10 -->
<g id="edge10" class="edge">
<title>Node1&#45;&gt;Node10</title>
<path fill="none" stroke="midnightblue" d="M128.41,-142.37C136.76,-141.43 145.4,-140.46 153.98,-139.5"/>
<polygon fill="midnightblue" stroke="midnightblue" points="154.45,-142.97 164,-138.37 153.67,-136.01 154.45,-142.97"/>
</g>
<!-- Node3 -->
<g id="node3" class="node">
<title>Node3</title>
<g id="a_node3"><a xlink:href="classslljit_1_1_tokenizer.html#a4f0b343321f5e4561a80e47a5cec05d2" target="_top" xlink:title=" ">
<polygon fill="none" stroke="black" points="520,-181.5 520,-211.5 608,-211.5 608,-181.5 520,-181.5"/>
<text text-anchor="start" x="528" y="-199.5" font-family="Helvetica,sans-Serif" font-size="10.00">slljit::Tokenizer::</text>
<text text-anchor="middle" x="564" y="-188.5" font-family="Helvetica,sans-Serif" font-size="10.00">gettok</text>
</a>
</g>
</g>
<!-- Node2&#45;&gt;Node3 -->
<g id="edge2" class="edge">
<title>Node2&#45;&gt;Node3</title>
<path fill="none" stroke="midnightblue" d="M476.22,-196.5C487.36,-196.5 498.79,-196.5 509.56,-196.5"/>
<polygon fill="midnightblue" stroke="midnightblue" points="509.64,-200 519.64,-196.5 509.64,-193 509.64,-200"/>
</g>
<!-- Node3&#45;&gt;Node3 -->
<g id="edge4" class="edge">
<title>Node3&#45;&gt;Node3</title>
<path fill="none" stroke="midnightblue" d="M537.86,-211.66C531.56,-221.06 540.27,-230 564,-230 578.46,-230 587.35,-226.68 590.65,-221.96"/>
<polygon fill="midnightblue" stroke="midnightblue" points="594.13,-221.47 590.14,-211.66 587.14,-221.82 594.13,-221.47"/>
</g>
<!-- Node4 -->
<g id="node4" class="node">
<title>Node4</title>
<g id="a_node4"><a xlink:href="classslljit_1_1_tokenizer.html#aebe79ebb0da26fa5e89963683d474402" target="_top" xlink:title=" ">
<polygon fill="none" stroke="black" points="671,-304.5 671,-334.5 759,-334.5 759,-304.5 671,-304.5"/>
<text text-anchor="start" x="679" y="-322.5" font-family="Helvetica,sans-Serif" font-size="10.00">slljit::Tokenizer::</text>
<text text-anchor="middle" x="715" y="-311.5" font-family="Helvetica,sans-Serif" font-size="10.00">_getchar</text>
</a>
</g>
</g>
<!-- Node3&#45;&gt;Node4 -->
<g id="edge3" class="edge">
<title>Node3&#45;&gt;Node4</title>
<path fill="none" stroke="midnightblue" d="M574.76,-211.62C589.26,-232.99 618.42,-272.05 652,-295.5 655.07,-297.64 658.35,-299.63 661.75,-301.46"/>
<polygon fill="midnightblue" stroke="midnightblue" points="660.41,-304.7 670.93,-305.96 663.49,-298.41 660.41,-304.7"/>
</g>
<!-- Node5 -->
<g id="node5" class="node">
<title>Node5</title>
<g id="a_node5"><a xlink:href="classslljit_1_1_tokenizer.html#ac5b5748065cb054e0f34d995d1f3edce" target="_top" xlink:title=" ">
<polygon fill="none" stroke="black" points="671,-255.5 671,-285.5 759,-285.5 759,-255.5 671,-255.5"/>
<text text-anchor="start" x="679" y="-273.5" font-family="Helvetica,sans-Serif" font-size="10.00">slljit::Tokenizer::</text>
<text text-anchor="middle" x="715" y="-262.5" font-family="Helvetica,sans-Serif" font-size="10.00">is_id_char</text>
</a>
</g>
</g>
<!-- Node3&#45;&gt;Node5 -->
<g id="edge5" class="edge">
<title>Node3&#45;&gt;Node5</title>
<path fill="none" stroke="midnightblue" d="M588.84,-211.52C606.04,-222.02 629.99,-235.99 652,-246.5 655.59,-248.21 659.33,-249.9 663.13,-251.54"/>
<polygon fill="midnightblue" stroke="midnightblue" points="662.03,-254.87 672.61,-255.49 664.72,-248.41 662.03,-254.87"/>
</g>
<!-- Node6 -->
<g id="node6" class="node">
<title>Node6</title>
<g id="a_node6"><a xlink:href="classslljit_1_1_tokenizer.html#afddb21e93063a4c2338c2d42e23d18d2" target="_top" xlink:title=" ">
<polygon fill="none" stroke="black" points="671,-206.5 671,-236.5 759,-236.5 759,-206.5 671,-206.5"/>
<text text-anchor="start" x="679" y="-224.5" font-family="Helvetica,sans-Serif" font-size="10.00">slljit::Tokenizer::</text>
<text text-anchor="middle" x="715" y="-213.5" font-family="Helvetica,sans-Serif" font-size="10.00">is_id_start_char</text>
</a>
</g>
</g>
<!-- Node3&#45;&gt;Node6 -->
<g id="edge6" class="edge">
<title>Node3&#45;&gt;Node6</title>
<path fill="none" stroke="midnightblue" d="M608.1,-203.73C624.62,-206.5 643.67,-209.7 661.02,-212.61"/>
<polygon fill="midnightblue" stroke="midnightblue" points="660.56,-216.08 671,-214.29 661.72,-209.18 660.56,-216.08"/>
</g>
<!-- Node7 -->
<g id="node7" class="node">
<title>Node7</title>
<g id="a_node7"><a xlink:href="classslljit_1_1_tokenizer.html#ada986d1651ab242c370288c198cd726d" target="_top" xlink:title=" ">
<polygon fill="none" stroke="black" points="652,-157.5 652,-187.5 778,-187.5 778,-157.5 652,-157.5"/>
<text text-anchor="start" x="660" y="-175.5" font-family="Helvetica,sans-Serif" font-size="10.00">slljit::Tokenizer::</text>
<text text-anchor="middle" x="715" y="-164.5" font-family="Helvetica,sans-Serif" font-size="10.00">is_reserved_command_id</text>
</a>
</g>
</g>
<!-- Node3&#45;&gt;Node7 -->
<g id="edge7" class="edge">
<title>Node3&#45;&gt;Node7</title>
<path fill="none" stroke="midnightblue" d="M608.1,-189.56C618.67,-187.86 630.27,-185.99 641.8,-184.13"/>
<polygon fill="midnightblue" stroke="midnightblue" points="642.56,-187.55 651.88,-182.51 641.45,-180.64 642.56,-187.55"/>
</g>
<!-- Node8 -->
<g id="node8" class="node">
<title>Node8</title>
<g id="a_node8"><a xlink:href="classslljit_1_1_tokenizer.html#ab29a7d2f06bb354a3f748106f5ea3e6c" target="_top" xlink:title=" ">
<polygon fill="none" stroke="black" points="670.5,-108.5 670.5,-138.5 759.5,-138.5 759.5,-108.5 670.5,-108.5"/>
<text text-anchor="start" x="678.5" y="-126.5" font-family="Helvetica,sans-Serif" font-size="10.00">slljit::Tokenizer::</text>
<text text-anchor="middle" x="715" y="-115.5" font-family="Helvetica,sans-Serif" font-size="10.00">is_special_literal</text>
</a>
</g>
</g>
<!-- Node3&#45;&gt;Node8 -->
<g id="edge8" class="edge">
<title>Node3&#45;&gt;Node8</title>
<path fill="none" stroke="midnightblue" d="M590.46,-181.39C607.58,-171.49 630.81,-158.57 652,-148.5 656.29,-146.46 660.8,-144.43 665.34,-142.46"/>
<polygon fill="midnightblue" stroke="midnightblue" points="666.81,-145.64 674.66,-138.53 664.09,-139.19 666.81,-145.64"/>
</g>
<!-- Node9 -->
<g id="node9" class="node">
<title>Node9</title>
<g id="a_node9"><a xlink:href="classslljit_1_1_tokenizer.html#ae5cc0911ed858f6bc7bf206928cd66ae" target="_top" xlink:title=" ">
<polygon fill="none" stroke="black" points="671,-59.5 671,-89.5 759,-89.5 759,-59.5 671,-59.5"/>
<text text-anchor="start" x="679" y="-77.5" font-family="Helvetica,sans-Serif" font-size="10.00">slljit::Tokenizer::</text>
<text text-anchor="middle" x="715" y="-66.5" font-family="Helvetica,sans-Serif" font-size="10.00">set_lok_location</text>
</a>
</g>
</g>
<!-- Node3&#45;&gt;Node9 -->
<g id="edge9" class="edge">
<title>Node3&#45;&gt;Node9</title>
<path fill="none" stroke="midnightblue" d="M575.13,-181.41C589.85,-160.48 619.03,-122.62 652,-99.5 655.08,-97.34 658.37,-95.33 661.78,-93.46"/>
<polygon fill="midnightblue" stroke="midnightblue" points="663.61,-96.46 670.97,-88.84 660.47,-90.2 663.61,-96.46"/>
</g>
<!-- Node10&#45;&gt;Node2 -->
<g id="edge14" class="edge">
<title>Node10&#45;&gt;Node2</title>
<path fill="none" stroke="midnightblue" d="M255.59,-140.16C276.62,-150.3 311.16,-166.28 342,-177.5 348.32,-179.8 355.07,-182.01 361.74,-184.06"/>
<polygon fill="midnightblue" stroke="midnightblue" points="360.82,-187.43 371.4,-186.93 362.81,-180.72 360.82,-187.43"/>
</g>
<!-- Node11 -->
<g id="node11" class="node">
<title>Node11</title>
<g id="a_node11"><a xlink:href="classslljit_1_1_tokenizer.html#a6270acd003b9e0a1323c1fdd54cd2fe2" target="_top" xlink:title=" ">
<polygon fill="none" stroke="black" points="365,-137.5 365,-167.5 453,-167.5 453,-137.5 365,-137.5"/>
<text text-anchor="start" x="373" y="-155.5" font-family="Helvetica,sans-Serif" font-size="10.00">slljit::Tokenizer::</text>
<text text-anchor="middle" x="409" y="-144.5" font-family="Helvetica,sans-Serif" font-size="10.00">get_identifier</text>
</a>
</g>
</g>
<!-- Node10&#45;&gt;Node11 -->
<g id="edge11" class="edge">
<title>Node10&#45;&gt;Node11</title>
<path fill="none" stroke="midnightblue" d="M306.46,-139.51C322.44,-141.56 339.16,-143.69 354.31,-145.63"/>
<polygon fill="midnightblue" stroke="midnightblue" points="354.16,-149.14 364.52,-146.94 355.05,-142.2 354.16,-149.14"/>
</g>
<!-- Node12 -->
<g id="node12" class="node">
<title>Node12</title>
<g id="a_node12"><a xlink:href="classslljit_1_1_tokenizer.html#a0baa2e9dbe626f0475ee4206f16bbb4e" target="_top" xlink:title=" ">
<polygon fill="none" stroke="black" points="512,-47.5 512,-77.5 616,-77.5 616,-47.5 512,-47.5"/>
<text text-anchor="start" x="520" y="-65.5" font-family="Helvetica,sans-Serif" font-size="10.00">slljit::Tokenizer::</text>
<text text-anchor="middle" x="564" y="-54.5" font-family="Helvetica,sans-Serif" font-size="10.00">get_source_location</text>
</a>
</g>
</g>
<!-- Node10&#45;&gt;Node12 -->
<g id="edge12" class="edge">
<title>Node10&#45;&gt;Node12</title>
<path fill="none" stroke="midnightblue" d="M306.07,-121.02C354.2,-113.9 419.37,-103.06 476,-89.5 486.72,-86.93 498.04,-83.76 508.85,-80.51"/>
<polygon fill="midnightblue" stroke="midnightblue" points="510.08,-83.8 518.61,-77.51 508.02,-77.11 510.08,-83.8"/>
</g>
<!-- Node13 -->
<g id="node13" class="node">
<title>Node13</title>
<g id="a_node13"><a xlink:href="classslljit_1_1_tokenizer.html#a9dcee05dc292fa291e6b9644d12c1907" target="_top" xlink:title=" ">
<polygon fill="none" stroke="black" points="361.5,-49.5 361.5,-79.5 456.5,-79.5 456.5,-49.5 361.5,-49.5"/>
<text text-anchor="start" x="369.5" y="-67.5" font-family="Helvetica,sans-Serif" font-size="10.00">slljit::Tokenizer::</text>
<text text-anchor="middle" x="409" y="-56.5" font-family="Helvetica,sans-Serif" font-size="10.00">get_type_identifier</text>
</a>
</g>
</g>
<!-- Node10&#45;&gt;Node13 -->
<g id="edge13" class="edge">
<title>Node10&#45;&gt;Node13</title>
<path fill="none" stroke="midnightblue" d="M261.01,-120.9C286.59,-111.09 327.02,-95.58 359,-83.3"/>
<polygon fill="midnightblue" stroke="midnightblue" points="360.55,-86.46 368.63,-79.61 358.04,-79.92 360.55,-86.46"/>
</g>
<!-- Node14 -->
<g id="node14" class="node">
<title>Node14</title>
<g id="a_node14"><a xlink:href="classslljit_1_1_parser.html#acad3f159608acb847e0f693fc07fdd28" target="_top" xlink:title=" ">
<polygon fill="none" stroke="black" points="361.5,-0.5 361.5,-30.5 456.5,-30.5 456.5,-0.5 361.5,-0.5"/>
<text text-anchor="start" x="369.5" y="-18.5" font-family="Helvetica,sans-Serif" font-size="10.00">slljit::Parser::push</text>
<text text-anchor="middle" x="409" y="-7.5" font-family="Helvetica,sans-Serif" font-size="10.00">_var_into_scope</text>
</a>
</g>
</g>
<!-- Node10&#45;&gt;Node14 -->
<g id="edge15" class="edge">
<title>Node10&#45;&gt;Node14</title>
<path fill="none" stroke="midnightblue" d="M245.08,-120.85C262.41,-102.9 302.08,-64.05 342,-40.5 345.41,-38.49 349,-36.59 352.68,-34.81"/>
<polygon fill="midnightblue" stroke="midnightblue" points="354.3,-37.92 361.96,-30.6 351.41,-31.54 354.3,-37.92"/>
</g>
<!-- Node14&#45;&gt;Node12 -->
<g id="edge16" class="edge">
<title>Node14&#45;&gt;Node12</title>
<path fill="none" stroke="midnightblue" d="M456.74,-29.86C471.8,-34.48 488.69,-39.67 504.49,-44.53"/>
<polygon fill="midnightblue" stroke="midnightblue" points="503.58,-47.91 514.17,-47.5 505.63,-41.22 503.58,-47.91"/>
</g>
</g>
</svg>
