<?xml version="1.0" encoding="UTF-8" standalone="no"?>
<!DOCTYPE svg PUBLIC "-//W3C//DTD SVG 1.1//EN"
 "http://www.w3.org/Graphics/SVG/1.1/DTD/svg11.dtd">
<!-- Generated by graphviz version 3.0.0 (20220226.1711)
 -->
<!-- Title: slljit::Parser::ParseBinOpRHS Pages: 1 -->
<svg width="1349pt" height="1139pt"
 viewBox="0.00 0.00 1349.00 1138.80" xmlns="http://www.w3.org/2000/svg" xmlns:xlink="http://www.w3.org/1999/xlink">
<g id="graph0" class="graph" transform="scale(1 1) rotate(0) translate(4 1134.8)">
<title>slljit::Parser::ParseBinOpRHS</title>
<!-- Node1 -->
<g id="node1" class="node">
<title>Node1</title>
<g id="a_node1"><a xlink:title=" ">
<polygon fill="#bfbfbf" stroke="black" points="0,-52 0,-82 114,-82 114,-52 0,-52"/>
<text text-anchor="start" x="8" y="-70" font-family="Helvetica,sans-Serif" font-size="10.00">slljit::Parser::ParseBin</text>
<text text-anchor="middle" x="57" y="-59" font-family="Helvetica,sans-Serif" font-size="10.00">OpRHS</text>
</a>
</g>
</g>
<!-- Node1&#45;&gt;Node1 -->
<g id="edge11" class="edge">
<title>Node1&#45;&gt;Node1</title>
<path fill="none" stroke="midnightblue" d="M27.03,-82.16C19.8,-91.56 29.79,-100.5 57,-100.5 73.58,-100.5 83.77,-97.18 87.56,-92.46"/>
<polygon fill="midnightblue" stroke="midnightblue" points="91.04,-91.94 86.97,-82.16 84.05,-92.34 91.04,-91.94"/>
</g>
<!-- Node2 -->
<g id="node2" class="node">
<title>Node2</title>
<g id="a_node2"><a xlink:href="classslljit_1_1_parser.html#a9fcfefd86a6000dcb40fa737361ea55b" target="_top" xlink:title="GetTokPrecedence &#45; Get the precedence of the pending binary operator token.">
<polygon fill="none" stroke="black" points="913.5,-956.5 913.5,-975.5 1047.5,-975.5 1047.5,-956.5 913.5,-956.5"/>
<text text-anchor="middle" x="980.5" y="-963.5" font-family="Helvetica,sans-Serif" font-size="10.00">slljit::Parser::getNextToken</text>
</a>
</g>
</g>
<!-- Node1&#45;&gt;Node2 -->
<g id="edge1" class="edge">
<title>Node1&#45;&gt;Node2</title>
<path fill="none" stroke="midnightblue" d="M59.62,-82.26C73.78,-211.51 181.25,-1118 410,-1118 410,-1118 410,-1118 593,-1118 716.74,-1118 768.15,-1160.27 870,-1090 899.45,-1069.68 882.7,-1045.15 906,-1018 918.9,-1002.97 937.04,-990.08 952.06,-980.89"/>
<polygon fill="midnightblue" stroke="midnightblue" points="954.1,-983.76 960.94,-975.67 950.55,-977.72 954.1,-983.76"/>
</g>
<!-- Node10 -->
<g id="node10" class="node">
<title>Node10</title>
<g id="a_node10"><a xlink:href="classslljit_1_1_parser.html#a8485bea3e380a80c8296092996c9ef96" target="_top" xlink:title="Get the precedence of the pending binary operator token.">
<polygon fill="none" stroke="black" points="150,-0.5 150,-19.5 308,-19.5 308,-0.5 150,-0.5"/>
<text text-anchor="middle" x="229" y="-7.5" font-family="Helvetica,sans-Serif" font-size="10.00">slljit::Parser::GetTokPrecedence</text>
</a>
</g>
</g>
<!-- Node1&#45;&gt;Node10 -->
<g id="edge10" class="edge">
<title>Node1&#45;&gt;Node10</title>
<path fill="none" stroke="midnightblue" d="M98.62,-51.98C114.58,-46.19 133.1,-39.63 150,-34 161.54,-30.16 174.11,-26.19 185.73,-22.62"/>
<polygon fill="midnightblue" stroke="midnightblue" points="187.09,-25.86 195.64,-19.59 185.05,-19.17 187.09,-25.86"/>
</g>
<!-- Node11 -->
<g id="node11" class="node">
<title>Node11</title>
<g id="a_node11"><a xlink:href="classslljit_1_1_parser.html#af8579896f39ac563d2edd14404d70f41" target="_top" xlink:title=" ">
<polygon fill="none" stroke="black" points="166.5,-343.5 166.5,-362.5 291.5,-362.5 291.5,-343.5 166.5,-343.5"/>
<text text-anchor="middle" x="229" y="-350.5" font-family="Helvetica,sans-Serif" font-size="10.00">slljit::Parser::ParseUnary</text>
</a>
</g>
</g>
<!-- Node1&#45;&gt;Node11 -->
<g id="edge12" class="edge">
<title>Node1&#45;&gt;Node11</title>
<path fill="none" stroke="midnightblue" d="M67.14,-82.38C96.1,-131.09 185.74,-281.9 217.06,-334.6"/>
<polygon fill="midnightblue" stroke="midnightblue" points="214.09,-336.44 222.2,-343.25 220.1,-332.86 214.09,-336.44"/>
</g>
<!-- Node3 -->
<g id="node3" class="node">
<title>Node3</title>
<g id="a_node3"><a xlink:href="classslljit_1_1_tokenizer.html#a4f0b343321f5e4561a80e47a5cec05d2" target="_top" xlink:title=" ">
<polygon fill="none" stroke="black" points="1091,-951 1091,-981 1179,-981 1179,-951 1091,-951"/>
<text text-anchor="start" x="1099" y="-969" font-family="Helvetica,sans-Serif" font-size="10.00">slljit::Tokenizer::</text>
<text text-anchor="middle" x="1135" y="-958" font-family="Helvetica,sans-Serif" font-size="10.00">gettok</text>
</a>
</g>
</g>
<!-- Node2&#45;&gt;Node3 -->
<g id="edge2" class="edge">
<title>Node2&#45;&gt;Node3</title>
<path fill="none" stroke="midnightblue" d="M1047.5,-966C1058.6,-966 1070,-966 1080.73,-966"/>
<polygon fill="midnightblue" stroke="midnightblue" points="1080.78,-969.5 1090.78,-966 1080.78,-962.5 1080.78,-969.5"/>
</g>
<!-- Node3&#45;&gt;Node3 -->
<g id="edge4" class="edge">
<title>Node3&#45;&gt;Node3</title>
<path fill="none" stroke="midnightblue" d="M1110.25,-981.16C1104.29,-990.56 1112.54,-999.5 1135,-999.5 1148.69,-999.5 1157.1,-996.18 1160.23,-991.46"/>
<polygon fill="midnightblue" stroke="midnightblue" points="1163.71,-990.98 1159.75,-981.16 1156.72,-991.31 1163.71,-990.98"/>
</g>
<!-- Node4 -->
<g id="node4" class="node">
<title>Node4</title>
<g id="a_node4"><a xlink:href="classslljit_1_1_tokenizer.html#aebe79ebb0da26fa5e89963683d474402" target="_top" xlink:title=" ">
<polygon fill="none" stroke="black" points="1234,-1074 1234,-1104 1322,-1104 1322,-1074 1234,-1074"/>
<text text-anchor="start" x="1242" y="-1092" font-family="Helvetica,sans-Serif" font-size="10.00">slljit::Tokenizer::</text>
<text text-anchor="middle" x="1278" y="-1081" font-family="Helvetica,sans-Serif" font-size="10.00">_getchar</text>
</a>
</g>
</g>
<!-- Node3&#45;&gt;Node4 -->
<g id="edge3" class="edge">
<title>Node3&#45;&gt;Node4</title>
<path fill="none" stroke="midnightblue" d="M1144.53,-981.16C1157.29,-1002.59 1183.27,-1041.71 1215,-1065 1218.02,-1067.21 1221.26,-1069.25 1224.63,-1071.12"/>
<polygon fill="midnightblue" stroke="midnightblue" points="1223.25,-1074.35 1233.76,-1075.69 1226.38,-1068.09 1223.25,-1074.35"/>
</g>
<!-- Node5 -->
<g id="node5" class="node">
<title>Node5</title>
<g id="a_node5"><a xlink:href="classslljit_1_1_tokenizer.html#ac5b5748065cb054e0f34d995d1f3edce" target="_top" xlink:title=" ">
<polygon fill="none" stroke="black" points="1234,-1025 1234,-1055 1322,-1055 1322,-1025 1234,-1025"/>
<text text-anchor="start" x="1242" y="-1043" font-family="Helvetica,sans-Serif" font-size="10.00">slljit::Tokenizer::</text>
<text text-anchor="middle" x="1278" y="-1032" font-family="Helvetica,sans-Serif" font-size="10.00">is_id_char</text>
</a>
</g>
</g>
<!-- Node3&#45;&gt;Node5 -->
<g id="edge5" class="edge">
<title>Node3&#45;&gt;Node5</title>
<path fill="none" stroke="midnightblue" d="M1157.46,-981.2C1172.98,-991.78 1194.71,-1005.77 1215,-1016 1218.34,-1017.68 1221.83,-1019.33 1225.37,-1020.91"/>
<polygon fill="midnightblue" stroke="midnightblue" points="1224.26,-1024.24 1234.83,-1024.95 1227.01,-1017.8 1224.26,-1024.24"/>
</g>
<!-- Node6 -->
<g id="node6" class="node">
<title>Node6</title>
<g id="a_node6"><a xlink:href="classslljit_1_1_tokenizer.html#afddb21e93063a4c2338c2d42e23d18d2" target="_top" xlink:title=" ">
<polygon fill="none" stroke="black" points="1234,-976 1234,-1006 1322,-1006 1322,-976 1234,-976"/>
<text text-anchor="start" x="1242" y="-994" font-family="Helvetica,sans-Serif" font-size="10.00">slljit::Tokenizer::</text>
<text text-anchor="middle" x="1278" y="-983" font-family="Helvetica,sans-Serif" font-size="10.00">is_id_start_char</text>
</a>
</g>
</g>
<!-- Node3&#45;&gt;Node6 -->
<g id="edge6" class="edge">
<title>Node3&#45;&gt;Node6</title>
<path fill="none" stroke="midnightblue" d="M1179.07,-973.64C1193.15,-976.13 1208.96,-978.94 1223.71,-981.55"/>
<polygon fill="midnightblue" stroke="midnightblue" points="1223.25,-985.02 1233.71,-983.32 1224.47,-978.13 1223.25,-985.02"/>
</g>
<!-- Node7 -->
<g id="node7" class="node">
<title>Node7</title>
<g id="a_node7"><a xlink:href="classslljit_1_1_tokenizer.html#ada986d1651ab242c370288c198cd726d" target="_top" xlink:title=" ">
<polygon fill="none" stroke="black" points="1215,-927 1215,-957 1341,-957 1341,-927 1215,-927"/>
<text text-anchor="start" x="1223" y="-945" font-family="Helvetica,sans-Serif" font-size="10.00">slljit::Tokenizer::</text>
<text text-anchor="middle" x="1278" y="-934" font-family="Helvetica,sans-Serif" font-size="10.00">is_reserved_command_id</text>
</a>
</g>
</g>
<!-- Node3&#45;&gt;Node7 -->
<g id="edge7" class="edge">
<title>Node3&#45;&gt;Node7</title>
<path fill="none" stroke="midnightblue" d="M1179.07,-958.67C1187.31,-957.27 1196.14,-955.76 1205,-954.26"/>
<polygon fill="midnightblue" stroke="midnightblue" points="1205.72,-957.68 1214.99,-952.56 1204.54,-950.78 1205.72,-957.68"/>
</g>
<!-- Node8 -->
<g id="node8" class="node">
<title>Node8</title>
<g id="a_node8"><a xlink:href="classslljit_1_1_tokenizer.html#ab29a7d2f06bb354a3f748106f5ea3e6c" target="_top" xlink:title=" ">
<polygon fill="none" stroke="black" points="1233.5,-878 1233.5,-908 1322.5,-908 1322.5,-878 1233.5,-878"/>
<text text-anchor="start" x="1241.5" y="-896" font-family="Helvetica,sans-Serif" font-size="10.00">slljit::Tokenizer::</text>
<text text-anchor="middle" x="1278" y="-885" font-family="Helvetica,sans-Serif" font-size="10.00">is_special_literal</text>
</a>
</g>
</g>
<!-- Node3&#45;&gt;Node8 -->
<g id="edge8" class="edge">
<title>Node3&#45;&gt;Node8</title>
<path fill="none" stroke="midnightblue" d="M1158.6,-950.91C1174.1,-940.91 1195.34,-927.85 1215,-918 1219.02,-915.99 1223.24,-914.01 1227.51,-912.1"/>
<polygon fill="midnightblue" stroke="midnightblue" points="1229.09,-915.24 1236.88,-908.06 1226.32,-908.81 1229.09,-915.24"/>
</g>
<!-- Node9 -->
<g id="node9" class="node">
<title>Node9</title>
<g id="a_node9"><a xlink:href="classslljit_1_1_tokenizer.html#ae5cc0911ed858f6bc7bf206928cd66ae" target="_top" xlink:title=" ">
<polygon fill="none" stroke="black" points="1234,-829 1234,-859 1322,-859 1322,-829 1234,-829"/>
<text text-anchor="start" x="1242" y="-847" font-family="Helvetica,sans-Serif" font-size="10.00">slljit::Tokenizer::</text>
<text text-anchor="middle" x="1278" y="-836" font-family="Helvetica,sans-Serif" font-size="10.00">set_lok_location</text>
</a>
</g>
</g>
<!-- Node3&#45;&gt;Node9 -->
<g id="edge9" class="edge">
<title>Node3&#45;&gt;Node9</title>
<path fill="none" stroke="midnightblue" d="M1144.87,-950.86C1157.84,-929.88 1183.88,-891.94 1215,-869 1218.03,-866.77 1221.28,-864.7 1224.66,-862.79"/>
<polygon fill="midnightblue" stroke="midnightblue" points="1226.5,-865.78 1233.8,-858.11 1223.31,-859.55 1226.5,-865.78"/>
</g>
<!-- Node11&#45;&gt;Node2 -->
<g id="edge13" class="edge">
<title>Node11&#45;&gt;Node2</title>
<path fill="none" stroke="midnightblue" d="M231.4,-362.72C241.17,-426.78 304.94,-791.28 514,-969 638.51,-1074.85 721.93,-1130.15 870,-1061 892.58,-1050.45 887.67,-1034.89 906,-1018 921.04,-1004.14 939.9,-990.86 954.76,-981.19"/>
<polygon fill="midnightblue" stroke="midnightblue" points="956.87,-984 963.42,-975.67 953.1,-978.1 956.87,-984"/>
</g>
<!-- Node11&#45;&gt;Node11 -->
<g id="edge59" class="edge">
<title>Node11&#45;&gt;Node11</title>
<path fill="none" stroke="midnightblue" d="M202.49,-362.76C189.59,-371.57 198.43,-381 229,-381 249.54,-381 260.27,-376.74 261.19,-371.27"/>
<polygon fill="midnightblue" stroke="midnightblue" points="263.97,-369.14 255.51,-362.76 258.14,-373.02 263.97,-369.14"/>
</g>
<!-- Node12 -->
<g id="node12" class="node">
<title>Node12</title>
<g id="a_node12"><a xlink:href="classslljit_1_1_parser.html#a45cb3e4f600e8e2c253490e7d878e8cd" target="_top" xlink:title=" ">
<polygon fill="none" stroke="black" points="344,-696.5 344,-715.5 478,-715.5 478,-696.5 344,-696.5"/>
<text text-anchor="middle" x="411" y="-703.5" font-family="Helvetica,sans-Serif" font-size="10.00">slljit::Parser::ParsePrimary</text>
</a>
</g>
</g>
<!-- Node11&#45;&gt;Node12 -->
<g id="edge14" class="edge">
<title>Node11&#45;&gt;Node12</title>
<path fill="none" stroke="midnightblue" d="M235,-362.81C259.58,-411.01 367.67,-622.99 400.51,-687.38"/>
<polygon fill="midnightblue" stroke="midnightblue" points="397.45,-689.09 405.11,-696.4 403.68,-685.91 397.45,-689.09"/>
</g>
<!-- Node13 -->
<g id="node13" class="node">
<title>Node13</title>
<g id="a_node13"><a xlink:href="classslljit_1_1_tokenizer.html#a0baa2e9dbe626f0475ee4206f16bbb4e" target="_top" xlink:title=" ">
<polygon fill="none" stroke="black" points="928.5,-669 928.5,-699 1032.5,-699 1032.5,-669 928.5,-669"/>
<text text-anchor="start" x="936.5" y="-687" font-family="Helvetica,sans-Serif" font-size="10.00">slljit::Tokenizer::</text>
<text text-anchor="middle" x="980.5" y="-676" font-family="Helvetica,sans-Serif" font-size="10.00">get_source_location</text>
</a>
</g>
</g>
<!-- Node12&#45;&gt;Node13 -->
<g id="edge15" class="edge">
<title>Node12&#45;&gt;Node13</title>
<path fill="none" stroke="midnightblue" d="M452.37,-715.53C532.83,-732.96 718.49,-765.35 870,-733 896.44,-727.35 924.21,-714.84 945.18,-703.87"/>
<polygon fill="midnightblue" stroke="midnightblue" points="946.85,-706.94 954.01,-699.13 943.54,-700.77 946.85,-706.94"/>
</g>
<!-- Node14 -->
<g id="node14" class="node">
<title>Node14</title>
<g id="a_node14"><a xlink:href="classslljit_1_1_parser.html#a81023e7a6221eb6b92027bd21433c9dd" target="_top" xlink:title="forexpr ::= &#39;for&#39; identifier &#39;=&#39; expr &#39;,&#39; expr (&#39;,&#39; expr)? &#39;in&#39; expression">
<polygon fill="none" stroke="black" points="525,-365.5 525,-384.5 659,-384.5 659,-365.5 525,-365.5"/>
<text text-anchor="middle" x="592" y="-372.5" font-family="Helvetica,sans-Serif" font-size="10.00">slljit::Parser::ParseForExpr</text>
</a>
</g>
</g>
<!-- Node12&#45;&gt;Node14 -->
<g id="edge16" class="edge">
<title>Node12&#45;&gt;Node14</title>
<path fill="none" stroke="midnightblue" d="M417.16,-696.45C441.82,-650.87 547.7,-455.07 580.96,-393.56"/>
<polygon fill="midnightblue" stroke="midnightblue" points="584.14,-395.05 585.81,-384.59 577.98,-391.72 584.14,-395.05"/>
</g>
<!-- Node19 -->
<g id="node19" class="node">
<title>Node19</title>
<g id="a_node19"><a xlink:href="classslljit_1_1_parser.html#a25cfefcbeea85744e23370d3a6f8ad5b" target="_top" xlink:title=" ">
<polygon fill="none" stroke="black" points="514,-825.5 514,-844.5 670,-844.5 670,-825.5 514,-825.5"/>
<text text-anchor="middle" x="592" y="-832.5" font-family="Helvetica,sans-Serif" font-size="10.00">slljit::Parser::ParseIdentifierExpr</text>
</a>
</g>
</g>
<!-- Node12&#45;&gt;Node19 -->
<g id="edge28" class="edge">
<title>Node12&#45;&gt;Node19</title>
<path fill="none" stroke="midnightblue" d="M419.72,-715.75C435.52,-735.16 473.51,-778.99 514,-805 524.56,-811.78 536.9,-817.44 548.56,-821.94"/>
<polygon fill="midnightblue" stroke="midnightblue" points="547.56,-825.3 558.15,-825.45 549.96,-818.72 547.56,-825.3"/>
</g>
<!-- Node23 -->
<g id="node23" class="node">
<title>Node23</title>
<g id="a_node23"><a xlink:href="classslljit_1_1_parser.html#a149f5e88cb03aa08c388e6320c6c1bac" target="_top" xlink:title="ifexpr ::= &#39;if&#39; expression &#39;then&#39; expression &#39;else&#39; expression">
<polygon fill="none" stroke="black" points="529.5,-228.5 529.5,-247.5 654.5,-247.5 654.5,-228.5 529.5,-228.5"/>
<text text-anchor="middle" x="592" y="-235.5" font-family="Helvetica,sans-Serif" font-size="10.00">slljit::Parser::ParseIfExpr</text>
</a>
</g>
</g>
<!-- Node12&#45;&gt;Node23 -->
<g id="edge36" class="edge">
<title>Node12&#45;&gt;Node23</title>
<path fill="none" stroke="midnightblue" d="M413.71,-696.44C421.4,-654.64 455.05,-484.24 514,-356 531.51,-317.91 560.09,-277.93 577.06,-255.67"/>
<polygon fill="midnightblue" stroke="midnightblue" points="580.01,-257.58 583.36,-247.52 574.47,-253.29 580.01,-257.58"/>
</g>
<!-- Node24 -->
<g id="node24" class="node">
<title>Node24</title>
<g id="a_node24"><a xlink:href="classslljit_1_1_parser.html#af9ccc5948e2cf9051c2569cc42dc3bb7" target="_top" xlink:title="numberexpr ::= number">
<polygon fill="none" stroke="black" points="715,-1032.5 715,-1051.5 861,-1051.5 861,-1032.5 715,-1032.5"/>
<text text-anchor="middle" x="788" y="-1039.5" font-family="Helvetica,sans-Serif" font-size="10.00">slljit::Parser::ParseLiteralExpr</text>
</a>
</g>
</g>
<!-- Node12&#45;&gt;Node24 -->
<g id="edge43" class="edge">
<title>Node12&#45;&gt;Node24</title>
<path fill="none" stroke="midnightblue" d="M414.58,-715.69C423.38,-747.18 455.05,-848.06 514,-908 578.22,-973.3 680.75,-1011.63 740.19,-1029.56"/>
<polygon fill="midnightblue" stroke="midnightblue" points="739.48,-1033 750.06,-1032.47 741.46,-1026.28 739.48,-1033"/>
</g>
<!-- Node26 -->
<g id="node26" class="node">
<title>Node26</title>
<g id="a_node26"><a xlink:href="classslljit_1_1_parser.html#a6e2e0f6a2cc445f3a956db59c8d2da66" target="_top" xlink:title="parenexpr ::= &#39;(&#39; expression &#39;)&#39;">
<polygon fill="none" stroke="black" points="715,-956.5 715,-975.5 861,-975.5 861,-956.5 715,-956.5"/>
<text text-anchor="middle" x="788" y="-963.5" font-family="Helvetica,sans-Serif" font-size="10.00">slljit::Parser::ParseParenExpr</text>
</a>
</g>
</g>
<!-- Node12&#45;&gt;Node26 -->
<g id="edge47" class="edge">
<title>Node12&#45;&gt;Node26</title>
<path fill="none" stroke="midnightblue" d="M416.26,-715.72C428.1,-741.66 463.82,-813.33 514,-854 579.84,-907.36 674.59,-938.53 733.39,-953.9"/>
<polygon fill="midnightblue" stroke="midnightblue" points="732.67,-957.33 743.22,-956.41 734.4,-950.55 732.67,-957.33"/>
</g>
<!-- Node27 -->
<g id="node27" class="node">
<title>Node27</title>
<g id="a_node27"><a xlink:href="classslljit_1_1_parser.html#a435877d3f2869d140a7cca646546a114" target="_top" xlink:title="varexpr ::= &#39;g_var&#39; identifier (&#39;=&#39; expression)?">
<polygon fill="none" stroke="black" points="524.5,-611.5 524.5,-630.5 659.5,-630.5 659.5,-611.5 524.5,-611.5"/>
<text text-anchor="middle" x="592" y="-618.5" font-family="Helvetica,sans-Serif" font-size="10.00">slljit::Parser::ParseVarExpr</text>
</a>
</g>
</g>
<!-- Node12&#45;&gt;Node27 -->
<g id="edge51" class="edge">
<title>Node12&#45;&gt;Node27</title>
<path fill="none" stroke="midnightblue" d="M432.19,-696.41C463.83,-681.39 525.25,-652.22 561.74,-634.89"/>
<polygon fill="midnightblue" stroke="midnightblue" points="563.36,-638 570.89,-630.55 560.35,-631.68 563.36,-638"/>
</g>
<!-- Node14&#45;&gt;Node2 -->
<g id="edge18" class="edge">
<title>Node14&#45;&gt;Node2</title>
<path fill="none" stroke="midnightblue" d="M598.39,-384.67C612.82,-409.83 654.78,-478.24 706,-519 769.01,-569.14 817.53,-534.92 870,-596 876,-602.98 952.36,-870.54 973.89,-946.23"/>
<polygon fill="midnightblue" stroke="midnightblue" points="970.65,-947.65 976.75,-956.31 977.38,-945.74 970.65,-947.65"/>
</g>
<!-- Node14&#45;&gt;Node13 -->
<g id="edge17" class="edge">
<title>Node14&#45;&gt;Node13</title>
<path fill="none" stroke="midnightblue" d="M659.05,-383.33C720.03,-394.06 809.97,-417.97 870,-470 929.87,-521.89 961.16,-614.51 973.34,-658.91"/>
<polygon fill="midnightblue" stroke="midnightblue" points="970.03,-660.08 975.96,-668.86 976.8,-658.3 970.03,-660.08"/>
</g>
<!-- Node15 -->
<g id="node15" class="node">
<title>Node15</title>
<g id="a_node15"><a xlink:href="classslljit_1_1_parser.html#a79461bf414d03dcabb49d3bbd6f89607" target="_top" xlink:title=" ">
<polygon fill="none" stroke="black" points="906,-278.5 906,-297.5 1055,-297.5 1055,-278.5 906,-278.5"/>
<text text-anchor="middle" x="980.5" y="-285.5" font-family="Helvetica,sans-Serif" font-size="10.00">slljit::Parser::ParseExpression</text>
</a>
</g>
</g>
<!-- Node14&#45;&gt;Node15 -->
<g id="edge19" class="edge">
<title>Node14&#45;&gt;Node15</title>
<path fill="none" stroke="midnightblue" d="M659.02,-378.88C716.21,-380.23 800.45,-377.32 870,-355 904.35,-343.97 939.04,-320.1 959.91,-304.04"/>
<polygon fill="midnightblue" stroke="midnightblue" points="962.27,-306.63 967.96,-297.69 957.94,-301.13 962.27,-306.63"/>
</g>
<!-- Node16 -->
<g id="node16" class="node">
<title>Node16</title>
<g id="a_node16"><a xlink:href="classslljit_1_1_parser.html#acc431005ac3dd38732083d7a1bb0eab2" target="_top" xlink:title=" ">
<polygon fill="none" stroke="black" points="706,-190.5 706,-209.5 870,-209.5 870,-190.5 706,-190.5"/>
<text text-anchor="middle" x="788" y="-197.5" font-family="Helvetica,sans-Serif" font-size="10.00">slljit::Parser::ParseExpressionList</text>
</a>
</g>
</g>
<!-- Node14&#45;&gt;Node16 -->
<g id="edge22" class="edge">
<title>Node14&#45;&gt;Node16</title>
<path fill="none" stroke="midnightblue" d="M601.21,-365.21C619.11,-344.18 663.41,-293.61 706,-257 724.04,-241.49 746.25,-226.09 762.84,-215.22"/>
<polygon fill="midnightblue" stroke="midnightblue" points="764.92,-218.04 771.42,-209.67 761.12,-212.16 764.92,-218.04"/>
</g>
<!-- Node17 -->
<g id="node17" class="node">
<title>Node17</title>
<g id="a_node17"><a xlink:href="classslljit_1_1_parser.html#ae7a9c738da8b5802b80001e306ad668b" target="_top" xlink:title=" ">
<polygon fill="none" stroke="black" points="743,-267 743,-297 833,-297 833,-267 743,-267"/>
<text text-anchor="start" x="751" y="-285" font-family="Helvetica,sans-Serif" font-size="10.00">slljit::Parser::pop</text>
<text text-anchor="middle" x="788" y="-274" font-family="Helvetica,sans-Serif" font-size="10.00">_scope</text>
</a>
</g>
</g>
<!-- Node14&#45;&gt;Node17 -->
<g id="edge26" class="edge">
<title>Node14&#45;&gt;Node17</title>
<path fill="none" stroke="midnightblue" d="M606.28,-365.29C626.78,-350.7 667.77,-322.99 706,-306 714.65,-302.15 724.1,-298.72 733.38,-295.74"/>
<polygon fill="midnightblue" stroke="midnightblue" points="734.42,-299.08 742.95,-292.79 732.37,-292.39 734.42,-299.08"/>
</g>
<!-- Node18 -->
<g id="node18" class="node">
<title>Node18</title>
<g id="a_node18"><a xlink:href="classslljit_1_1_parser.html#a07488f6e4f1ec72ba5c6f04ad550b7a3" target="_top" xlink:title=" ">
<polygon fill="none" stroke="black" points="740.5,-316 740.5,-346 835.5,-346 835.5,-316 740.5,-316"/>
<text text-anchor="start" x="748.5" y="-334" font-family="Helvetica,sans-Serif" font-size="10.00">slljit::Parser::push</text>
<text text-anchor="middle" x="788" y="-323" font-family="Helvetica,sans-Serif" font-size="10.00">_scope</text>
</a>
</g>
</g>
<!-- Node14&#45;&gt;Node18 -->
<g id="edge27" class="edge">
<title>Node14&#45;&gt;Node18</title>
<path fill="none" stroke="midnightblue" d="M635.1,-365.45C662.93,-359.14 699.76,-350.79 730.18,-343.89"/>
<polygon fill="midnightblue" stroke="midnightblue" points="731.25,-347.23 740.23,-341.61 729.7,-340.41 731.25,-347.23"/>
</g>
<!-- Node15&#45;&gt;Node1 -->
<g id="edge20" class="edge">
<title>Node15&#45;&gt;Node1</title>
<path fill="none" stroke="midnightblue" d="M976.96,-278.24C968.19,-246.66 936.05,-146.6 870,-100 767.65,-27.78 718.26,-48 593,-48 410,-48 410,-48 410,-48 310.25,-48 194.84,-55.7 124.14,-61.3"/>
<polygon fill="midnightblue" stroke="midnightblue" points="123.73,-57.82 114.04,-62.11 124.28,-64.8 123.73,-57.82"/>
</g>
<!-- Node15&#45;&gt;Node11 -->
<g id="edge21" class="edge">
<title>Node15&#45;&gt;Node11</title>
<path fill="none" stroke="midnightblue" d="M976.6,-278.11C967.17,-248 934.23,-157.46 870,-123 805.77,-88.54 777.05,-106.73 706,-123 518.02,-166.04 317.95,-293.37 252.28,-337.63"/>
<polygon fill="midnightblue" stroke="midnightblue" points="250.22,-334.79 243.91,-343.31 254.15,-340.59 250.22,-334.79"/>
</g>
<!-- Node16&#45;&gt;Node2 -->
<g id="edge24" class="edge">
<title>Node16&#45;&gt;Node2</title>
<path fill="none" stroke="midnightblue" d="M851.03,-209.54C858.31,-213.03 864.94,-217.72 870,-224 903.85,-265.98 896.56,-654.91 906,-708 922.19,-799.12 957.53,-904.22 972.54,-946.71"/>
<polygon fill="midnightblue" stroke="midnightblue" points="969.31,-948.08 975.97,-956.33 975.9,-945.73 969.31,-948.08"/>
</g>
<!-- Node16&#45;&gt;Node13 -->
<g id="edge23" class="edge">
<title>Node16&#45;&gt;Node13</title>
<path fill="none" stroke="midnightblue" d="M848.51,-209.6C856.54,-213.06 864.05,-217.72 870,-224 900.78,-256.5 958.61,-567.6 975.04,-658.92"/>
<polygon fill="midnightblue" stroke="midnightblue" points="971.63,-659.7 976.84,-668.93 978.52,-658.47 971.63,-659.7"/>
</g>
<!-- Node16&#45;&gt;Node15 -->
<g id="edge25" class="edge">
<title>Node16&#45;&gt;Node15</title>
<path fill="none" stroke="midnightblue" d="M827.99,-209.5C841.54,-213.34 856.67,-218.23 870,-224 901.65,-237.7 935.56,-258.59 957.12,-272.75"/>
<polygon fill="midnightblue" stroke="midnightblue" points="955.29,-275.74 965.56,-278.36 959.17,-269.91 955.29,-275.74"/>
</g>
<!-- Node19&#45;&gt;Node2 -->
<g id="edge34" class="edge">
<title>Node19&#45;&gt;Node2</title>
<path fill="none" stroke="midnightblue" d="M596.7,-844.83C607.94,-873.08 644.73,-954.45 706,-985 784.43,-1024.11 891.53,-997.13 945.48,-978.9"/>
<polygon fill="midnightblue" stroke="midnightblue" points="946.94,-982.1 955.23,-975.5 944.63,-975.49 946.94,-982.1"/>
</g>
<!-- Node19&#45;&gt;Node13 -->
<g id="edge33" class="edge">
<title>Node19&#45;&gt;Node13</title>
<path fill="none" stroke="midnightblue" d="M603.15,-844.68C621.74,-861.67 663.3,-896.26 706,-909 775.85,-929.84 808.2,-947.65 870,-909 941.57,-864.24 967.58,-757.81 975.96,-709.11"/>
<polygon fill="midnightblue" stroke="midnightblue" points="979.43,-709.53 977.57,-699.1 972.52,-708.42 979.43,-709.53"/>
</g>
<!-- Node19&#45;&gt;Node15 -->
<g id="edge35" class="edge">
<title>Node19&#45;&gt;Node15</title>
<path fill="none" stroke="midnightblue" d="M632,-825.46C700.32,-808 837.5,-769.34 870,-733 899.44,-700.08 960.19,-389.45 975.79,-307.66"/>
<polygon fill="midnightblue" stroke="midnightblue" points="979.25,-308.17 977.68,-297.69 972.38,-306.86 979.25,-308.17"/>
</g>
<!-- Node20 -->
<g id="node20" class="node">
<title>Node20</title>
<g id="a_node20"><a xlink:href="classslljit_1_1_parser.html#a4c93eea2333b7705c6aea18df2105196" target="_top" xlink:title=" ">
<polygon fill="none" stroke="black" points="743.5,-820 743.5,-850 832.5,-850 832.5,-820 743.5,-820"/>
<text text-anchor="start" x="751.5" y="-838" font-family="Helvetica,sans-Serif" font-size="10.00">slljit::Parser::find</text>
<text text-anchor="middle" x="788" y="-827" font-family="Helvetica,sans-Serif" font-size="10.00">_var_in_scope</text>
</a>
</g>
</g>
<!-- Node19&#45;&gt;Node20 -->
<g id="edge29" class="edge">
<title>Node19&#45;&gt;Node20</title>
<path fill="none" stroke="midnightblue" d="M670.23,-835C691.28,-835 713.62,-835 733.07,-835"/>
<polygon fill="midnightblue" stroke="midnightblue" points="733.25,-838.5 743.25,-835 733.25,-831.5 733.25,-838.5"/>
</g>
<!-- Node21 -->
<g id="node21" class="node">
<title>Node21</title>
<g id="a_node21"><a xlink:href="classslljit_1_1_parser.html#aee4666b5cca40f389e2458033d9006e3" target="_top" xlink:title=" ">
<polygon fill="none" stroke="black" points="727,-869 727,-899 849,-899 849,-869 727,-869"/>
<text text-anchor="start" x="735" y="-887" font-family="Helvetica,sans-Serif" font-size="10.00">slljit::Parser::get</text>
<text text-anchor="middle" x="788" y="-876" font-family="Helvetica,sans-Serif" font-size="10.00">_current_function_scope</text>
</a>
</g>
</g>
<!-- Node19&#45;&gt;Node21 -->
<g id="edge31" class="edge">
<title>Node19&#45;&gt;Node21</title>
<path fill="none" stroke="midnightblue" d="M630.87,-844.56C655.53,-850.79 688.45,-859.11 717.7,-866.5"/>
<polygon fill="midnightblue" stroke="midnightblue" points="716.91,-869.91 727.47,-868.96 718.63,-863.12 716.91,-869.91"/>
</g>
<!-- Node22 -->
<g id="node22" class="node">
<title>Node22</title>
<g id="a_node22"><a xlink:href="classslljit_1_1_tokenizer.html#a6270acd003b9e0a1323c1fdd54cd2fe2" target="_top" xlink:title=" ">
<polygon fill="none" stroke="black" points="744,-694 744,-724 832,-724 832,-694 744,-694"/>
<text text-anchor="start" x="752" y="-712" font-family="Helvetica,sans-Serif" font-size="10.00">slljit::Tokenizer::</text>
<text text-anchor="middle" x="788" y="-701" font-family="Helvetica,sans-Serif" font-size="10.00">get_identifier</text>
</a>
</g>
</g>
<!-- Node19&#45;&gt;Node22 -->
<g id="edge32" class="edge">
<title>Node19&#45;&gt;Node22</title>
<path fill="none" stroke="midnightblue" d="M602.09,-825.27C620.23,-806.35 662.9,-764.22 706,-739 714.74,-733.89 724.5,-729.39 734.13,-725.53"/>
<polygon fill="midnightblue" stroke="midnightblue" points="735.59,-728.72 743.69,-721.88 733.1,-722.18 735.59,-728.72"/>
</g>
<!-- Node20&#45;&gt;Node13 -->
<g id="edge30" class="edge">
<title>Node20&#45;&gt;Node13</title>
<path fill="none" stroke="midnightblue" d="M832.91,-823.06C845.49,-818.52 858.82,-812.56 870,-805 909.42,-778.32 944.26,-734.54 963.55,-707.6"/>
<polygon fill="midnightblue" stroke="midnightblue" points="966.6,-709.36 969.49,-699.16 960.87,-705.33 966.6,-709.36"/>
</g>
<!-- Node23&#45;&gt;Node2 -->
<g id="edge38" class="edge">
<title>Node23&#45;&gt;Node2</title>
<path fill="none" stroke="midnightblue" d="M654.64,-233.31C726.95,-229.28 840.7,-228.02 870,-257 905.74,-292.35 897.07,-658.53 906,-708 922.44,-799.07 957.64,-904.2 972.57,-946.7"/>
<polygon fill="midnightblue" stroke="midnightblue" points="969.34,-948.07 975.99,-956.32 975.94,-945.73 969.34,-948.07"/>
</g>
<!-- Node23&#45;&gt;Node13 -->
<g id="edge37" class="edge">
<title>Node23&#45;&gt;Node13</title>
<path fill="none" stroke="midnightblue" d="M606.62,-228.37C650.24,-198.81 788.37,-115.23 870,-181 889.2,-196.47 956.69,-559.2 974.93,-658.86"/>
<polygon fill="midnightblue" stroke="midnightblue" points="971.53,-659.72 976.77,-668.93 978.41,-658.46 971.53,-659.72"/>
</g>
<!-- Node23&#45;&gt;Node15 -->
<g id="edge39" class="edge">
<title>Node23&#45;&gt;Node15</title>
<path fill="none" stroke="midnightblue" d="M600.81,-228.46C617.59,-208.81 659.36,-164.3 706,-148 774.81,-123.95 804.48,-116.07 870,-148 922.08,-173.39 956.67,-236.85 971.41,-268.88"/>
<polygon fill="midnightblue" stroke="midnightblue" points="968.39,-270.71 975.64,-278.43 974.79,-267.87 968.39,-270.71"/>
</g>
<!-- Node23&#45;&gt;Node16 -->
<g id="edge40" class="edge">
<title>Node23&#45;&gt;Node16</title>
<path fill="none" stroke="midnightblue" d="M641.95,-228.41C668.25,-223.26 700.84,-216.88 728.47,-211.47"/>
<polygon fill="midnightblue" stroke="midnightblue" points="729.26,-214.88 738.4,-209.52 727.91,-208.01 729.26,-214.88"/>
</g>
<!-- Node23&#45;&gt;Node17 -->
<g id="edge41" class="edge">
<title>Node23&#45;&gt;Node17</title>
<path fill="none" stroke="midnightblue" d="M635.1,-247.55C663.85,-254.07 702.21,-262.77 733.19,-269.8"/>
<polygon fill="midnightblue" stroke="midnightblue" points="732.44,-273.21 742.97,-272.01 733.99,-266.39 732.44,-273.21"/>
</g>
<!-- Node23&#45;&gt;Node18 -->
<g id="edge42" class="edge">
<title>Node23&#45;&gt;Node18</title>
<path fill="none" stroke="midnightblue" d="M606.67,-247.73C627.35,-262.09 668.17,-289.08 706,-306 713.91,-309.54 722.46,-312.77 730.94,-315.65"/>
<polygon fill="midnightblue" stroke="midnightblue" points="729.86,-318.98 740.45,-318.75 732.03,-312.32 729.86,-318.98"/>
</g>
<!-- Node24&#45;&gt;Node2 -->
<g id="edge46" class="edge">
<title>Node24&#45;&gt;Node2</title>
<path fill="none" stroke="midnightblue" d="M825.69,-1032.43C839.72,-1028.44 855.76,-1023.45 870,-1018 898.93,-1006.92 930.8,-991.39 952.66,-980.19"/>
<polygon fill="midnightblue" stroke="midnightblue" points="954.39,-983.23 961.66,-975.53 951.17,-977.02 954.39,-983.23"/>
</g>
<!-- Node24&#45;&gt;Node13 -->
<g id="edge45" class="edge">
<title>Node24&#45;&gt;Node13</title>
<path fill="none" stroke="midnightblue" d="M808.96,-1032.45C827.18,-1022.81 853.7,-1006.3 870,-985 937.17,-897.23 966.04,-764.32 975.6,-709.26"/>
<polygon fill="midnightblue" stroke="midnightblue" points="979.06,-709.76 977.26,-699.32 972.16,-708.61 979.06,-709.76"/>
</g>
<!-- Node25 -->
<g id="node25" class="node">
<title>Node25</title>
<g id="a_node25"><a xlink:href="classslljit_1_1_tokenizer.html#a69d29df7401c1f268a754725c4561470" target="_top" xlink:title=" ">
<polygon fill="none" stroke="black" points="936.5,-1027 936.5,-1057 1024.5,-1057 1024.5,-1027 936.5,-1027"/>
<text text-anchor="start" x="944.5" y="-1045" font-family="Helvetica,sans-Serif" font-size="10.00">slljit::Tokenizer::</text>
<text text-anchor="middle" x="980.5" y="-1034" font-family="Helvetica,sans-Serif" font-size="10.00">get_literal_string</text>
</a>
</g>
</g>
<!-- Node24&#45;&gt;Node25 -->
<g id="edge44" class="edge">
<title>Node24&#45;&gt;Node25</title>
<path fill="none" stroke="midnightblue" d="M861.02,-1042C882.64,-1042 905.97,-1042 926.16,-1042"/>
<polygon fill="midnightblue" stroke="midnightblue" points="926.4,-1045.5 936.4,-1042 926.4,-1038.5 926.4,-1045.5"/>
</g>
<!-- Node26&#45;&gt;Node2 -->
<g id="edge49" class="edge">
<title>Node26&#45;&gt;Node2</title>
<path fill="none" stroke="midnightblue" d="M861.02,-966C874.84,-966 889.35,-966 903.3,-966"/>
<polygon fill="midnightblue" stroke="midnightblue" points="903.34,-969.5 913.34,-966 903.34,-962.5 903.34,-969.5"/>
</g>
<!-- Node26&#45;&gt;Node13 -->
<g id="edge48" class="edge">
<title>Node26&#45;&gt;Node13</title>
<path fill="none" stroke="midnightblue" d="M845.11,-956.46C854.17,-953.02 862.89,-948.35 870,-942 941.34,-878.32 967.68,-760.37 976.07,-709"/>
<polygon fill="midnightblue" stroke="midnightblue" points="979.53,-709.51 977.59,-699.09 972.61,-708.44 979.53,-709.51"/>
</g>
<!-- Node26&#45;&gt;Node15 -->
<g id="edge50" class="edge">
<title>Node26&#45;&gt;Node15</title>
<path fill="none" stroke="midnightblue" d="M811.48,-956.45C830.34,-947.2 856.33,-931.28 870,-909 928.7,-813.32 887.09,-769.65 906,-659 929.08,-523.97 963.36,-362.63 975.25,-307.54"/>
<polygon fill="midnightblue" stroke="midnightblue" points="978.68,-308.22 977.38,-297.71 971.84,-306.74 978.68,-308.22"/>
</g>
<!-- Node27&#45;&gt;Node2 -->
<g id="edge55" class="edge">
<title>Node27&#45;&gt;Node2</title>
<path fill="none" stroke="midnightblue" d="M637.25,-630.51C714.34,-647.15 865.55,-680.16 870,-684 952.06,-754.82 972.98,-894.74 978,-946.31"/>
<polygon fill="midnightblue" stroke="midnightblue" points="974.53,-946.77 978.89,-956.43 981.5,-946.16 974.53,-946.77"/>
</g>
<!-- Node27&#45;&gt;Node13 -->
<g id="edge53" class="edge">
<title>Node27&#45;&gt;Node13</title>
<path fill="none" stroke="midnightblue" d="M619.49,-611.45C669.88,-594.82 782.32,-565.14 870,-596 906.67,-608.91 940.14,-639.87 960.16,-661.39"/>
<polygon fill="midnightblue" stroke="midnightblue" points="957.61,-663.78 966.92,-668.84 962.79,-659.08 957.61,-663.78"/>
</g>
<!-- Node27&#45;&gt;Node15 -->
<g id="edge56" class="edge">
<title>Node27&#45;&gt;Node15</title>
<path fill="none" stroke="midnightblue" d="M598.2,-611.39C612.49,-585.69 654.72,-514.32 706,-470 768.74,-415.77 801.59,-427.87 870,-381 904.69,-357.23 941.19,-324.43 962.06,-304.8"/>
<polygon fill="midnightblue" stroke="midnightblue" points="964.66,-307.16 969.51,-297.73 959.85,-302.08 964.66,-307.16"/>
</g>
<!-- Node27&#45;&gt;Node22 -->
<g id="edge52" class="edge">
<title>Node27&#45;&gt;Node22</title>
<path fill="none" stroke="midnightblue" d="M610.3,-630.7C632.21,-642.79 671.28,-663.73 706,-679 715.06,-682.99 724.83,-686.91 734.35,-690.54"/>
<polygon fill="midnightblue" stroke="midnightblue" points="733.15,-693.83 743.74,-694.06 735.61,-687.27 733.15,-693.83"/>
</g>
<!-- Node28 -->
<g id="node28" class="node">
<title>Node28</title>
<g id="a_node28"><a xlink:href="classslljit_1_1_tokenizer.html#a9dcee05dc292fa291e6b9644d12c1907" target="_top" xlink:title=" ">
<polygon fill="none" stroke="black" points="740.5,-606 740.5,-636 835.5,-636 835.5,-606 740.5,-606"/>
<text text-anchor="start" x="748.5" y="-624" font-family="Helvetica,sans-Serif" font-size="10.00">slljit::Tokenizer::</text>
<text text-anchor="middle" x="788" y="-613" font-family="Helvetica,sans-Serif" font-size="10.00">get_type_identifier</text>
</a>
</g>
</g>
<!-- Node27&#45;&gt;Node28 -->
<g id="edge54" class="edge">
<title>Node27&#45;&gt;Node28</title>
<path fill="none" stroke="midnightblue" d="M659.76,-621C682.66,-621 708.06,-621 730.1,-621"/>
<polygon fill="midnightblue" stroke="midnightblue" points="730.3,-624.5 740.3,-621 730.3,-617.5 730.3,-624.5"/>
</g>
<!-- Node29 -->
<g id="node29" class="node">
<title>Node29</title>
<g id="a_node29"><a xlink:href="classslljit_1_1_parser.html#acad3f159608acb847e0f693fc07fdd28" target="_top" xlink:title=" ">
<polygon fill="none" stroke="black" points="740.5,-480 740.5,-510 835.5,-510 835.5,-480 740.5,-480"/>
<text text-anchor="start" x="748.5" y="-498" font-family="Helvetica,sans-Serif" font-size="10.00">slljit::Parser::push</text>
<text text-anchor="middle" x="788" y="-487" font-family="Helvetica,sans-Serif" font-size="10.00">_var_into_scope</text>
</a>
</g>
</g>
<!-- Node27&#45;&gt;Node29 -->
<g id="edge57" class="edge">
<title>Node27&#45;&gt;Node29</title>
<path fill="none" stroke="midnightblue" d="M607.9,-611.32C639.29,-590.93 712.83,-543.17 755.27,-515.61"/>
<polygon fill="midnightblue" stroke="midnightblue" points="757.35,-518.43 763.83,-510.05 753.54,-512.56 757.35,-518.43"/>
</g>
<!-- Node29&#45;&gt;Node13 -->
<g id="edge58" class="edge">
<title>Node29&#45;&gt;Node13</title>
<path fill="none" stroke="midnightblue" d="M835.67,-506.8C847.63,-511.24 859.94,-517.17 870,-525 917.19,-561.72 951.78,-624.47 968.42,-659.14"/>
<polygon fill="midnightblue" stroke="midnightblue" points="965.41,-660.97 972.82,-668.54 971.75,-658 965.41,-660.97"/>
</g>
</g>
</svg>
