<?xml version="1.0" encoding="UTF-8" standalone="no"?>
<!DOCTYPE svg PUBLIC "-//W3C//DTD SVG 1.1//EN"
 "http://www.w3.org/Graphics/SVG/1.1/DTD/svg11.dtd">
<!-- Generated by graphviz version 3.0.0 (20220226.1711)
 -->
<!-- Title: slljit::LocalContext::getModule Pages: 1 -->
<svg width="487pt" height="291pt"
 viewBox="0.00 0.00 487.00 290.50" xmlns="http://www.w3.org/2000/svg" xmlns:xlink="http://www.w3.org/1999/xlink">
<g id="graph0" class="graph" transform="scale(1 1) rotate(0) translate(4 286.5)">
<title>slljit::LocalContext::getModule</title>
<!-- Node1 -->
<g id="node1" class="node">
<title>Node1</title>
<g id="a_node1"><a xlink:title=" ">
<polygon fill="#bfbfbf" stroke="black" points="382,-132 382,-162 479,-162 479,-132 382,-132"/>
<text text-anchor="start" x="390" y="-150" font-family="Helvetica,sans-Serif" font-size="10.00">slljit::LocalContext</text>
<text text-anchor="middle" x="430.5" y="-139" font-family="Helvetica,sans-Serif" font-size="10.00">::getModule</text>
</a>
</g>
</g>
<!-- Node2 -->
<g id="node2" class="node">
<title>Node2</title>
<g id="a_node2"><a xlink:href="classslljit_1_1_variable_expr_a_s_t.html#aa67fa1ad8e3e12f0272ff1fda1674f99" target="_top" xlink:title=" ">
<polygon fill="none" stroke="black" points="229,-252 229,-282 343,-282 343,-252 229,-252"/>
<text text-anchor="start" x="237" y="-270" font-family="Helvetica,sans-Serif" font-size="10.00">slljit::VariableExprAST</text>
<text text-anchor="middle" x="286" y="-259" font-family="Helvetica,sans-Serif" font-size="10.00">::codegen</text>
</a>
</g>
</g>
<!-- Node1&#45;&gt;Node2 -->
<g id="edge1" class="edge">
<title>Node1&#45;&gt;Node2</title>
<path fill="none" stroke="midnightblue" d="M411.75,-170.33C396.02,-189.89 371.64,-217.65 346,-237 338.57,-242.61 329.94,-247.67 321.6,-251.97"/>
<polygon fill="midnightblue" stroke="midnightblue" points="414.69,-172.26 418.14,-162.24 409.2,-167.92 414.69,-172.26"/>
</g>
<!-- Node3 -->
<g id="node3" class="node">
<title>Node3</title>
<g id="a_node3"><a xlink:href="classslljit_1_1_binary_expr_a_s_t.html#a4e15cb62043e37beafadeb7faf94d7ba" target="_top" xlink:title=" ">
<polygon fill="none" stroke="black" points="78.5,-213 78.5,-243 185.5,-243 185.5,-213 78.5,-213"/>
<text text-anchor="start" x="86.5" y="-231" font-family="Helvetica,sans-Serif" font-size="10.00">slljit::BinaryExprAST</text>
<text text-anchor="middle" x="132" y="-220" font-family="Helvetica,sans-Serif" font-size="10.00">::codegen</text>
</a>
</g>
</g>
<!-- Node1&#45;&gt;Node3 -->
<g id="edge2" class="edge">
<title>Node1&#45;&gt;Node3</title>
<path fill="none" stroke="midnightblue" d="M391.46,-166.52C377.45,-173.12 361.27,-180.06 346,-185 292.7,-202.26 229.57,-213.96 185.94,-220.75"/>
<polygon fill="midnightblue" stroke="midnightblue" points="393.29,-169.53 400.78,-162.04 390.25,-163.22 393.29,-169.53"/>
</g>
<!-- Node4 -->
<g id="node4" class="node">
<title>Node4</title>
<g id="a_node4"><a xlink:href="classslljit_1_1_prototype_a_s_t.html#a1d3904bd14007f251959a6d795fe5564" target="_top" xlink:title=" ">
<polygon fill="none" stroke="black" points="235.5,-88 235.5,-118 336.5,-118 336.5,-88 235.5,-88"/>
<text text-anchor="start" x="243.5" y="-106" font-family="Helvetica,sans-Serif" font-size="10.00">slljit::PrototypeAST</text>
<text text-anchor="middle" x="286" y="-95" font-family="Helvetica,sans-Serif" font-size="10.00">::codegen</text>
</a>
</g>
</g>
<!-- Node1&#45;&gt;Node4 -->
<g id="edge3" class="edge">
<title>Node1&#45;&gt;Node4</title>
<path fill="none" stroke="midnightblue" d="M371.81,-129.19C359.91,-125.51 347.49,-121.68 335.94,-118.11"/>
<polygon fill="midnightblue" stroke="midnightblue" points="371.07,-132.62 381.65,-132.23 373.13,-125.93 371.07,-132.62"/>
</g>
<!-- Node5 -->
<g id="node5" class="node">
<title>Node5</title>
<g id="a_node5"><a xlink:href="classslljit_1_1_function_a_s_t.html#ad9580c93bf3b4c4cdce1606d2e1a7be5" target="_top" xlink:title=" ">
<polygon fill="none" stroke="black" points="84,-164 84,-194 180,-194 180,-164 84,-164"/>
<text text-anchor="start" x="92" y="-182" font-family="Helvetica,sans-Serif" font-size="10.00">slljit::FunctionAST</text>
<text text-anchor="middle" x="132" y="-171" font-family="Helvetica,sans-Serif" font-size="10.00">::codegen</text>
</a>
</g>
</g>
<!-- Node1&#45;&gt;Node5 -->
<g id="edge4" class="edge">
<title>Node1&#45;&gt;Node5</title>
<path fill="none" stroke="midnightblue" d="M371.68,-161.43C363.11,-163.2 354.36,-164.8 346,-166 289.34,-174.12 223.49,-177.17 180.18,-178.32"/>
<polygon fill="midnightblue" stroke="midnightblue" points="372.58,-164.82 381.62,-159.3 371.11,-157.98 372.58,-164.82"/>
</g>
<!-- Node6 -->
<g id="node6" class="node">
<title>Node6</title>
<g id="a_node6"><a xlink:href="classslljit_1_1_code_gen.html#a2f9a2e9e55e24a7aee76846e055d1dae" target="_top" xlink:title=" ">
<polygon fill="none" stroke="black" points="226,-0.5 226,-19.5 346,-19.5 346,-0.5 226,-0.5"/>
<text text-anchor="middle" x="286" y="-7.5" font-family="Helvetica,sans-Serif" font-size="10.00">slljit::CodeGen::compile</text>
</a>
</g>
</g>
<!-- Node1&#45;&gt;Node6 -->
<g id="edge5" class="edge">
<title>Node1&#45;&gt;Node6</title>
<path fill="none" stroke="midnightblue" d="M418.38,-122.91C404.89,-96.23 379.69,-53.73 346,-29 340.71,-25.12 334.59,-22 328.34,-19.52"/>
<polygon fill="midnightblue" stroke="midnightblue" points="415.27,-124.52 422.82,-131.96 421.56,-121.44 415.27,-124.52"/>
</g>
<!-- Node9 -->
<g id="node9" class="node">
<title>Node9</title>
<g id="a_node9"><a xlink:href="classslljit_1_1_code_gen.html#a0a1cd67519cb6405422e53cc87a1eb87" target="_top" xlink:title=" ">
<polygon fill="none" stroke="black" points="226,-39 226,-69 346,-69 346,-39 226,-39"/>
<text text-anchor="start" x="234" y="-57" font-family="Helvetica,sans-Serif" font-size="10.00">slljit::CodeGen::compile</text>
<text text-anchor="middle" x="286" y="-46" font-family="Helvetica,sans-Serif" font-size="10.00">_layout</text>
</a>
</g>
</g>
<!-- Node1&#45;&gt;Node9 -->
<g id="edge8" class="edge">
<title>Node1&#45;&gt;Node9</title>
<path fill="none" stroke="midnightblue" d="M406.96,-125.13C390.92,-110.42 368.34,-91.34 346,-78 340.59,-74.77 334.66,-71.78 328.72,-69.1"/>
<polygon fill="midnightblue" stroke="midnightblue" points="404.58,-127.7 414.28,-131.96 409.35,-122.58 404.58,-127.7"/>
</g>
<!-- Node10 -->
<g id="node10" class="node">
<title>Node10</title>
<g id="a_node10"><a xlink:href="group___a_s_t.html#ga43bd4527a94e16e6fb1be89c3b4fc678" target="_top" xlink:title=" ">
<polygon fill="none" stroke="black" points="240.5,-137.5 240.5,-156.5 331.5,-156.5 331.5,-137.5 240.5,-137.5"/>
<text text-anchor="middle" x="286" y="-144.5" font-family="Helvetica,sans-Serif" font-size="10.00">slljit::getFunction</text>
</a>
</g>
</g>
<!-- Node1&#45;&gt;Node10 -->
<g id="edge10" class="edge">
<title>Node1&#45;&gt;Node10</title>
<path fill="none" stroke="midnightblue" d="M371.61,-147C358.26,-147 344.27,-147 331.59,-147"/>
<polygon fill="midnightblue" stroke="midnightblue" points="371.65,-150.5 381.65,-147 371.65,-143.5 371.65,-150.5"/>
</g>
<!-- Node7 -->
<g id="node7" class="node">
<title>Node7</title>
<g id="a_node7"><a xlink:href="classslljit_1_1_program.html#ae4d26526a7dd9c69ebe92fb43736696b" target="_top" xlink:title=" ">
<polygon fill="none" stroke="black" points="74,-16.5 74,-35.5 190,-35.5 190,-16.5 74,-16.5"/>
<text text-anchor="middle" x="132" y="-23.5" font-family="Helvetica,sans-Serif" font-size="10.00">slljit::Program::compile</text>
</a>
</g>
</g>
<!-- Node6&#45;&gt;Node7 -->
<g id="edge6" class="edge">
<title>Node6&#45;&gt;Node7</title>
<path fill="none" stroke="midnightblue" d="M215.85,-17.28C207.3,-18.18 198.64,-19.09 190.3,-19.97"/>
<polygon fill="midnightblue" stroke="midnightblue" points="216.22,-20.76 225.8,-16.23 215.49,-13.8 216.22,-20.76"/>
</g>
<!-- Node8 -->
<g id="node8" class="node">
<title>Node8</title>
<g id="a_node8"><a xlink:href="compiler__cli_8cpp.html#a3c04138a5bfe5d72780bb7e82a18e627" target="_top" xlink:title=" ">
<polygon fill="none" stroke="black" points="0,-16.5 0,-35.5 38,-35.5 38,-16.5 0,-16.5"/>
<text text-anchor="middle" x="19" y="-23.5" font-family="Helvetica,sans-Serif" font-size="10.00">main</text>
</a>
</g>
</g>
<!-- Node7&#45;&gt;Node8 -->
<g id="edge7" class="edge">
<title>Node7&#45;&gt;Node8</title>
<path fill="none" stroke="midnightblue" d="M63.62,-26C54.3,-26 45.44,-26 38.18,-26"/>
<polygon fill="midnightblue" stroke="midnightblue" points="63.87,-29.5 73.87,-26 63.87,-22.5 63.87,-29.5"/>
</g>
<!-- Node9&#45;&gt;Node7 -->
<g id="edge9" class="edge">
<title>Node9&#45;&gt;Node7</title>
<path fill="none" stroke="midnightblue" d="M215.88,-41.27C205.46,-39.35 194.86,-37.39 184.87,-35.56"/>
<polygon fill="midnightblue" stroke="midnightblue" points="215.33,-44.72 225.8,-43.09 216.6,-37.84 215.33,-44.72"/>
</g>
<!-- Node10&#45;&gt;Node3 -->
<g id="edge12" class="edge">
<title>Node10&#45;&gt;Node3</title>
<path fill="none" stroke="midnightblue" d="M262.03,-162.04C243.1,-174.13 215.35,-191.14 190,-204 183.87,-207.11 177.24,-210.16 170.75,-213"/>
<polygon fill="midnightblue" stroke="midnightblue" points="264.04,-164.91 270.56,-156.55 260.25,-159.02 264.04,-164.91"/>
</g>
<!-- Node10&#45;&gt;Node5 -->
<g id="edge14" class="edge">
<title>Node10&#45;&gt;Node5</title>
<path fill="none" stroke="midnightblue" d="M230.22,-158.53C213.81,-161.99 195.97,-165.74 180.1,-169.08"/>
<polygon fill="midnightblue" stroke="midnightblue" points="231.15,-161.91 240.22,-156.43 229.71,-155.06 231.15,-161.91"/>
</g>
<!-- Node11 -->
<g id="node11" class="node">
<title>Node11</title>
<g id="a_node11"><a xlink:href="classslljit_1_1_unary_expr_a_s_t.html#a6f0dae838e2c5cde27bad14f9fea1cf1" target="_top" xlink:title=" ">
<polygon fill="none" stroke="black" points="80,-66 80,-96 184,-96 184,-66 80,-66"/>
<text text-anchor="start" x="88" y="-84" font-family="Helvetica,sans-Serif" font-size="10.00">slljit::UnaryExprAST</text>
<text text-anchor="middle" x="132" y="-73" font-family="Helvetica,sans-Serif" font-size="10.00">::codegen</text>
</a>
</g>
</g>
<!-- Node10&#45;&gt;Node11 -->
<g id="edge11" class="edge">
<title>Node10&#45;&gt;Node11</title>
<path fill="none" stroke="midnightblue" d="M242.99,-134.05C237.2,-131.89 231.4,-129.53 226,-127 209.02,-119.05 206.69,-113.55 190,-105 183.98,-101.92 177.47,-98.9 171.08,-96.09"/>
<polygon fill="midnightblue" stroke="midnightblue" points="242.05,-137.43 252.65,-137.47 244.39,-130.83 242.05,-137.43"/>
</g>
<!-- Node12 -->
<g id="node12" class="node">
<title>Node12</title>
<g id="a_node12"><a xlink:href="classslljit_1_1_call_expr_a_s_t.html#a0d196837649e9e0205fafddf2cd95068" target="_top" xlink:title=" ">
<polygon fill="none" stroke="black" points="84.5,-115 84.5,-145 179.5,-145 179.5,-115 84.5,-115"/>
<text text-anchor="start" x="92.5" y="-133" font-family="Helvetica,sans-Serif" font-size="10.00">slljit::CallExprAST</text>
<text text-anchor="middle" x="132" y="-122" font-family="Helvetica,sans-Serif" font-size="10.00">::codegen</text>
</a>
</g>
</g>
<!-- Node10&#45;&gt;Node12 -->
<g id="edge13" class="edge">
<title>Node10&#45;&gt;Node12</title>
<path fill="none" stroke="midnightblue" d="M230.12,-140.86C213.56,-139.01 195.54,-136.99 179.57,-135.21"/>
<polygon fill="midnightblue" stroke="midnightblue" points="229.89,-144.36 240.22,-141.99 230.67,-137.4 229.89,-144.36"/>
</g>
</g>
</svg>
