<?xml version="1.0" encoding="UTF-8" standalone="no"?>
<!DOCTYPE svg PUBLIC "-//W3C//DTD SVG 1.1//EN"
 "http://www.w3.org/Graphics/SVG/1.1/DTD/svg11.dtd">
<!-- Generated by graphviz version 3.0.0 (20220226.1711)
 -->
<!-- Title: slljit::Parser::ParsePrimary Pages: 1 -->
<svg width="1519pt" height="984pt"
 viewBox="0.00 0.00 1519.00 983.98" xmlns="http://www.w3.org/2000/svg" xmlns:xlink="http://www.w3.org/1999/xlink">
<g id="graph0" class="graph" transform="scale(1 1) rotate(0) translate(4 979.98)">
<title>slljit::Parser::ParsePrimary</title>
<!-- Node1 -->
<g id="node1" class="node">
<title>Node1</title>
<g id="a_node1"><a xlink:title=" ">
<polygon fill="#bfbfbf" stroke="black" points="0,-760.98 0,-779.98 134,-779.98 134,-760.98 0,-760.98"/>
<text text-anchor="middle" x="67" y="-767.98" font-family="Helvetica,sans-Serif" font-size="10.00">slljit::Parser::ParsePrimary</text>
</a>
</g>
</g>
<!-- Node2 -->
<g id="node2" class="node">
<title>Node2</title>
<g id="a_node2"><a xlink:href="classslljit_1_1_tokenizer.html#a0baa2e9dbe626f0475ee4206f16bbb4e" target="_top" xlink:title=" ">
<polygon fill="none" stroke="black" points="584.5,-659.48 584.5,-689.48 688.5,-689.48 688.5,-659.48 584.5,-659.48"/>
<text text-anchor="start" x="592.5" y="-677.48" font-family="Helvetica,sans-Serif" font-size="10.00">slljit::Tokenizer::</text>
<text text-anchor="middle" x="636.5" y="-666.48" font-family="Helvetica,sans-Serif" font-size="10.00">get_source_location</text>
</a>
</g>
</g>
<!-- Node1&#45;&gt;Node2 -->
<g id="edge1" class="edge">
<title>Node1&#45;&gt;Node2</title>
<path fill="none" stroke="midnightblue" d="M86.78,-780.02C151.84,-811.63 372.07,-906.61 526,-827.48 578.58,-800.45 611.54,-735.17 626.35,-699.23"/>
<polygon fill="midnightblue" stroke="midnightblue" points="629.6,-700.52 630.04,-689.93 623.1,-697.93 629.6,-700.52"/>
</g>
<!-- Node3 -->
<g id="node3" class="node">
<title>Node3</title>
<g id="a_node3"><a xlink:href="classslljit_1_1_parser.html#a81023e7a6221eb6b92027bd21433c9dd" target="_top" xlink:title="forexpr ::= &#39;for&#39; identifier &#39;=&#39; expr &#39;,&#39; expr (&#39;,&#39; expr)? &#39;in&#39; expression">
<polygon fill="none" stroke="black" points="181,-722.98 181,-741.98 315,-741.98 315,-722.98 181,-722.98"/>
<text text-anchor="middle" x="248" y="-729.98" font-family="Helvetica,sans-Serif" font-size="10.00">slljit::Parser::ParseForExpr</text>
</a>
</g>
</g>
<!-- Node1&#45;&gt;Node3 -->
<g id="edge2" class="edge">
<title>Node1&#45;&gt;Node3</title>
<path fill="none" stroke="midnightblue" d="M113.17,-760.89C137.22,-755.79 166.97,-749.47 192.32,-744.09"/>
<polygon fill="midnightblue" stroke="midnightblue" points="193.1,-747.5 202.16,-742 191.65,-740.65 193.1,-747.5"/>
</g>
<!-- Node19 -->
<g id="node19" class="node">
<title>Node19</title>
<g id="a_node19"><a xlink:href="classslljit_1_1_parser.html#a25cfefcbeea85744e23370d3a6f8ad5b" target="_top" xlink:title=" ">
<polygon fill="none" stroke="black" points="170,-383.98 170,-402.98 326,-402.98 326,-383.98 170,-383.98"/>
<text text-anchor="middle" x="248" y="-390.98" font-family="Helvetica,sans-Serif" font-size="10.00">slljit::Parser::ParseIdentifierExpr</text>
</a>
</g>
</g>
<!-- Node1&#45;&gt;Node19 -->
<g id="edge29" class="edge">
<title>Node1&#45;&gt;Node19</title>
<path fill="none" stroke="midnightblue" d="M72.6,-760.78C96.44,-710.57 205.97,-479.9 238.11,-412.2"/>
<polygon fill="midnightblue" stroke="midnightblue" points="241.3,-413.65 242.43,-403.11 234.97,-410.65 241.3,-413.65"/>
</g>
<!-- Node23 -->
<g id="node23" class="node">
<title>Node23</title>
<g id="a_node23"><a xlink:href="classslljit_1_1_parser.html#a149f5e88cb03aa08c388e6320c6c1bac" target="_top" xlink:title="ifexpr ::= &#39;if&#39; expression &#39;then&#39; expression &#39;else&#39; expression">
<polygon fill="none" stroke="black" points="185.5,-591.98 185.5,-610.98 310.5,-610.98 310.5,-591.98 185.5,-591.98"/>
<text text-anchor="middle" x="248" y="-598.98" font-family="Helvetica,sans-Serif" font-size="10.00">slljit::Parser::ParseIfExpr</text>
</a>
</g>
</g>
<!-- Node1&#45;&gt;Node23 -->
<g id="edge37" class="edge">
<title>Node1&#45;&gt;Node23</title>
<path fill="none" stroke="midnightblue" d="M78.14,-760.91C107.29,-733.39 191.65,-653.74 228.92,-618.55"/>
<polygon fill="midnightblue" stroke="midnightblue" points="231.66,-620.78 236.53,-611.37 226.85,-615.69 231.66,-620.78"/>
</g>
<!-- Node24 -->
<g id="node24" class="node">
<title>Node24</title>
<g id="a_node24"><a xlink:href="classslljit_1_1_parser.html#af9ccc5948e2cf9051c2569cc42dc3bb7" target="_top" xlink:title="numberexpr ::= number">
<polygon fill="none" stroke="black" points="371,-950.98 371,-969.98 517,-969.98 517,-950.98 371,-950.98"/>
<text text-anchor="middle" x="444" y="-957.98" font-family="Helvetica,sans-Serif" font-size="10.00">slljit::Parser::ParseLiteralExpr</text>
</a>
</g>
</g>
<!-- Node1&#45;&gt;Node24 -->
<g id="edge44" class="edge">
<title>Node1&#45;&gt;Node24</title>
<path fill="none" stroke="midnightblue" d="M70.6,-780.16C79.08,-809.68 109.01,-898.77 170,-936.48 230.32,-973.77 312.94,-975.78 371.45,-970.94"/>
<polygon fill="midnightblue" stroke="midnightblue" points="372.08,-974.4 381.72,-970 371.44,-967.43 372.08,-974.4"/>
</g>
<!-- Node26 -->
<g id="node26" class="node">
<title>Node26</title>
<g id="a_node26"><a xlink:href="classslljit_1_1_parser.html#a6e2e0f6a2cc445f3a956db59c8d2da66" target="_top" xlink:title="parenexpr ::= &#39;(&#39; expression &#39;)&#39;">
<polygon fill="none" stroke="black" points="371,-798.98 371,-817.98 517,-817.98 517,-798.98 371,-798.98"/>
<text text-anchor="middle" x="444" y="-805.98" font-family="Helvetica,sans-Serif" font-size="10.00">slljit::Parser::ParseParenExpr</text>
</a>
</g>
</g>
<!-- Node1&#45;&gt;Node26 -->
<g id="edge48" class="edge">
<title>Node1&#45;&gt;Node26</title>
<path fill="none" stroke="midnightblue" d="M134.18,-777.19C197.28,-783.58 292.5,-793.23 360.52,-800.12"/>
<polygon fill="midnightblue" stroke="midnightblue" points="360.46,-803.63 370.77,-801.16 361.17,-796.67 360.46,-803.63"/>
</g>
<!-- Node27 -->
<g id="node27" class="node">
<title>Node27</title>
<g id="a_node27"><a xlink:href="classslljit_1_1_parser.html#a435877d3f2869d140a7cca646546a114" target="_top" xlink:title="varexpr ::= &#39;g_var&#39; identifier (&#39;=&#39; expression)?">
<polygon fill="none" stroke="black" points="180.5,-126.98 180.5,-145.98 315.5,-145.98 315.5,-126.98 180.5,-126.98"/>
<text text-anchor="middle" x="248" y="-133.98" font-family="Helvetica,sans-Serif" font-size="10.00">slljit::Parser::ParseVarExpr</text>
</a>
</g>
</g>
<!-- Node1&#45;&gt;Node27 -->
<g id="edge52" class="edge">
<title>Node1&#45;&gt;Node27</title>
<path fill="none" stroke="midnightblue" d="M70.23,-760.92C80.62,-716.69 125.57,-527.54 170,-374.48 193.73,-292.72 226.27,-196.62 240.21,-156.09"/>
<polygon fill="midnightblue" stroke="midnightblue" points="243.6,-156.98 243.55,-146.39 236.98,-154.7 243.6,-156.98"/>
</g>
<!-- Node3&#45;&gt;Node2 -->
<g id="edge3" class="edge">
<title>Node3&#45;&gt;Node2</title>
<path fill="none" stroke="midnightblue" d="M280.63,-742.03C333.03,-756.24 440.52,-778.53 526,-751.48 559.84,-740.77 592.28,-715.44 612.94,-696.74"/>
<polygon fill="midnightblue" stroke="midnightblue" points="615.58,-699.06 620.52,-689.69 610.81,-693.93 615.58,-699.06"/>
</g>
<!-- Node4 -->
<g id="node4" class="node">
<title>Node4</title>
<g id="a_node4"><a xlink:href="classslljit_1_1_parser.html#a9fcfefd86a6000dcb40fa737361ea55b" target="_top" xlink:title="GetTokPrecedence &#45; Get the precedence of the pending binary operator token.">
<polygon fill="none" stroke="black" points="1091,-655.98 1091,-674.98 1225,-674.98 1225,-655.98 1091,-655.98"/>
<text text-anchor="middle" x="1158" y="-662.98" font-family="Helvetica,sans-Serif" font-size="10.00">slljit::Parser::getNextToken</text>
</a>
</g>
</g>
<!-- Node3&#45;&gt;Node4 -->
<g id="edge4" class="edge">
<title>Node3&#45;&gt;Node4</title>
<path fill="none" stroke="midnightblue" d="M256.43,-742.22C272.8,-762.78 314.32,-810.1 362,-827.48 430.48,-852.44 453.14,-829.45 526,-827.48 762.74,-821.09 844.6,-872.2 1055,-763.48 1092.94,-743.87 1126.41,-705.68 1143.97,-683.2"/>
<polygon fill="midnightblue" stroke="midnightblue" points="1146.82,-685.23 1150.09,-675.16 1141.25,-680.99 1146.82,-685.23"/>
</g>
<!-- Node12 -->
<g id="node12" class="node">
<title>Node12</title>
<g id="a_node12"><a xlink:href="classslljit_1_1_parser.html#a79461bf414d03dcabb49d3bbd6f89607" target="_top" xlink:title=" ">
<polygon fill="none" stroke="black" points="562,-614.98 562,-633.98 711,-633.98 711,-614.98 562,-614.98"/>
<text text-anchor="middle" x="636.5" y="-621.98" font-family="Helvetica,sans-Serif" font-size="10.00">slljit::Parser::ParseExpression</text>
</a>
</g>
</g>
<!-- Node3&#45;&gt;Node12 -->
<g id="edge13" class="edge">
<title>Node3&#45;&gt;Node12</title>
<path fill="none" stroke="midnightblue" d="M299.91,-722.96C374.13,-708.91 505.47,-683.32 526,-674.48 543.89,-666.77 544.61,-658.26 562,-649.48 571.2,-644.83 581.47,-640.73 591.34,-637.26"/>
<polygon fill="midnightblue" stroke="midnightblue" points="592.67,-640.51 601.03,-634.01 590.44,-633.88 592.67,-640.51"/>
</g>
<!-- Node16 -->
<g id="node16" class="node">
<title>Node16</title>
<g id="a_node16"><a xlink:href="classslljit_1_1_parser.html#acc431005ac3dd38732083d7a1bb0eab2" target="_top" xlink:title=" ">
<polygon fill="none" stroke="black" points="362,-722.98 362,-741.98 526,-741.98 526,-722.98 362,-722.98"/>
<text text-anchor="middle" x="444" y="-729.98" font-family="Helvetica,sans-Serif" font-size="10.00">slljit::Parser::ParseExpressionList</text>
</a>
</g>
</g>
<!-- Node3&#45;&gt;Node16 -->
<g id="edge23" class="edge">
<title>Node3&#45;&gt;Node16</title>
<path fill="none" stroke="midnightblue" d="M315.22,-732.48C326.97,-732.48 339.39,-732.48 351.69,-732.48"/>
<polygon fill="midnightblue" stroke="midnightblue" points="351.97,-735.98 361.97,-732.48 351.97,-728.98 351.97,-735.98"/>
</g>
<!-- Node17 -->
<g id="node17" class="node">
<title>Node17</title>
<g id="a_node17"><a xlink:href="classslljit_1_1_parser.html#ae7a9c738da8b5802b80001e306ad668b" target="_top" xlink:title=" ">
<polygon fill="none" stroke="black" points="399,-586.48 399,-616.48 489,-616.48 489,-586.48 399,-586.48"/>
<text text-anchor="start" x="407" y="-604.48" font-family="Helvetica,sans-Serif" font-size="10.00">slljit::Parser::pop</text>
<text text-anchor="middle" x="444" y="-593.48" font-family="Helvetica,sans-Serif" font-size="10.00">_scope</text>
</a>
</g>
</g>
<!-- Node3&#45;&gt;Node17 -->
<g id="edge27" class="edge">
<title>Node3&#45;&gt;Node17</title>
<path fill="none" stroke="midnightblue" d="M256.38,-722.92C272.98,-702.1 315.42,-652.34 362,-625.48 370.39,-620.64 379.85,-616.7 389.26,-613.52"/>
<polygon fill="midnightblue" stroke="midnightblue" points="390.5,-616.8 399,-610.47 388.41,-610.12 390.5,-616.8"/>
</g>
<!-- Node18 -->
<g id="node18" class="node">
<title>Node18</title>
<g id="a_node18"><a xlink:href="classslljit_1_1_parser.html#a07488f6e4f1ec72ba5c6f04ad550b7a3" target="_top" xlink:title=" ">
<polygon fill="none" stroke="black" points="396.5,-635.48 396.5,-665.48 491.5,-665.48 491.5,-635.48 396.5,-635.48"/>
<text text-anchor="start" x="404.5" y="-653.48" font-family="Helvetica,sans-Serif" font-size="10.00">slljit::Parser::push</text>
<text text-anchor="middle" x="444" y="-642.48" font-family="Helvetica,sans-Serif" font-size="10.00">_scope</text>
</a>
</g>
</g>
<!-- Node3&#45;&gt;Node18 -->
<g id="edge28" class="edge">
<title>Node3&#45;&gt;Node18</title>
<path fill="none" stroke="midnightblue" d="M268.8,-722.81C291.2,-712 328.88,-694.21 362,-680.48 371.25,-676.65 381.18,-672.77 390.81,-669.14"/>
<polygon fill="midnightblue" stroke="midnightblue" points="392.16,-672.37 400.3,-665.6 389.71,-665.81 392.16,-672.37"/>
</g>
<!-- Node5 -->
<g id="node5" class="node">
<title>Node5</title>
<g id="a_node5"><a xlink:href="classslljit_1_1_tokenizer.html#a4f0b343321f5e4561a80e47a5cec05d2" target="_top" xlink:title=" ">
<polygon fill="none" stroke="black" points="1261,-650.48 1261,-680.48 1349,-680.48 1349,-650.48 1261,-650.48"/>
<text text-anchor="start" x="1269" y="-668.48" font-family="Helvetica,sans-Serif" font-size="10.00">slljit::Tokenizer::</text>
<text text-anchor="middle" x="1305" y="-657.48" font-family="Helvetica,sans-Serif" font-size="10.00">gettok</text>
</a>
</g>
</g>
<!-- Node4&#45;&gt;Node5 -->
<g id="edge5" class="edge">
<title>Node4&#45;&gt;Node5</title>
<path fill="none" stroke="midnightblue" d="M1225.14,-665.48C1233.64,-665.48 1242.27,-665.48 1250.54,-665.48"/>
<polygon fill="midnightblue" stroke="midnightblue" points="1250.79,-668.98 1260.79,-665.48 1250.79,-661.98 1250.79,-668.98"/>
</g>
<!-- Node5&#45;&gt;Node5 -->
<g id="edge7" class="edge">
<title>Node5&#45;&gt;Node5</title>
<path fill="none" stroke="midnightblue" d="M1280.25,-680.64C1274.29,-690.04 1282.54,-698.98 1305,-698.98 1318.69,-698.98 1327.1,-695.66 1330.23,-690.94"/>
<polygon fill="midnightblue" stroke="midnightblue" points="1333.71,-690.46 1329.75,-680.64 1326.72,-690.79 1333.71,-690.46"/>
</g>
<!-- Node6 -->
<g id="node6" class="node">
<title>Node6</title>
<g id="a_node6"><a xlink:href="classslljit_1_1_tokenizer.html#aebe79ebb0da26fa5e89963683d474402" target="_top" xlink:title=" ">
<polygon fill="none" stroke="black" points="1404,-773.48 1404,-803.48 1492,-803.48 1492,-773.48 1404,-773.48"/>
<text text-anchor="start" x="1412" y="-791.48" font-family="Helvetica,sans-Serif" font-size="10.00">slljit::Tokenizer::</text>
<text text-anchor="middle" x="1448" y="-780.48" font-family="Helvetica,sans-Serif" font-size="10.00">_getchar</text>
</a>
</g>
</g>
<!-- Node5&#45;&gt;Node6 -->
<g id="edge6" class="edge">
<title>Node5&#45;&gt;Node6</title>
<path fill="none" stroke="midnightblue" d="M1314.83,-680.78C1327.76,-701.99 1353.75,-740.32 1385,-763.48 1388.02,-765.72 1391.27,-767.79 1394.64,-769.71"/>
<polygon fill="midnightblue" stroke="midnightblue" points="1393.29,-772.94 1403.78,-774.4 1396.49,-766.72 1393.29,-772.94"/>
</g>
<!-- Node7 -->
<g id="node7" class="node">
<title>Node7</title>
<g id="a_node7"><a xlink:href="classslljit_1_1_tokenizer.html#ac5b5748065cb054e0f34d995d1f3edce" target="_top" xlink:title=" ">
<polygon fill="none" stroke="black" points="1404,-724.48 1404,-754.48 1492,-754.48 1492,-724.48 1404,-724.48"/>
<text text-anchor="start" x="1412" y="-742.48" font-family="Helvetica,sans-Serif" font-size="10.00">slljit::Tokenizer::</text>
<text text-anchor="middle" x="1448" y="-731.48" font-family="Helvetica,sans-Serif" font-size="10.00">is_id_char</text>
</a>
</g>
</g>
<!-- Node5&#45;&gt;Node7 -->
<g id="edge8" class="edge">
<title>Node5&#45;&gt;Node7</title>
<path fill="none" stroke="midnightblue" d="M1328.22,-680.7C1343.73,-690.96 1365.14,-704.41 1385,-714.48 1389.01,-716.51 1393.23,-718.5 1397.49,-720.42"/>
<polygon fill="midnightblue" stroke="midnightblue" points="1396.29,-723.71 1406.86,-724.47 1399.07,-717.29 1396.29,-723.71"/>
</g>
<!-- Node8 -->
<g id="node8" class="node">
<title>Node8</title>
<g id="a_node8"><a xlink:href="classslljit_1_1_tokenizer.html#afddb21e93063a4c2338c2d42e23d18d2" target="_top" xlink:title=" ">
<polygon fill="none" stroke="black" points="1404,-675.48 1404,-705.48 1492,-705.48 1492,-675.48 1404,-675.48"/>
<text text-anchor="start" x="1412" y="-693.48" font-family="Helvetica,sans-Serif" font-size="10.00">slljit::Tokenizer::</text>
<text text-anchor="middle" x="1448" y="-682.48" font-family="Helvetica,sans-Serif" font-size="10.00">is_id_start_char</text>
</a>
</g>
</g>
<!-- Node5&#45;&gt;Node8 -->
<g id="edge9" class="edge">
<title>Node5&#45;&gt;Node8</title>
<path fill="none" stroke="midnightblue" d="M1349.07,-673.12C1363.15,-675.61 1378.96,-678.42 1393.71,-681.03"/>
<polygon fill="midnightblue" stroke="midnightblue" points="1393.25,-684.5 1403.71,-682.8 1394.47,-677.61 1393.25,-684.5"/>
</g>
<!-- Node9 -->
<g id="node9" class="node">
<title>Node9</title>
<g id="a_node9"><a xlink:href="classslljit_1_1_tokenizer.html#ada986d1651ab242c370288c198cd726d" target="_top" xlink:title=" ">
<polygon fill="none" stroke="black" points="1385,-626.48 1385,-656.48 1511,-656.48 1511,-626.48 1385,-626.48"/>
<text text-anchor="start" x="1393" y="-644.48" font-family="Helvetica,sans-Serif" font-size="10.00">slljit::Tokenizer::</text>
<text text-anchor="middle" x="1448" y="-633.48" font-family="Helvetica,sans-Serif" font-size="10.00">is_reserved_command_id</text>
</a>
</g>
</g>
<!-- Node5&#45;&gt;Node9 -->
<g id="edge10" class="edge">
<title>Node5&#45;&gt;Node9</title>
<path fill="none" stroke="midnightblue" d="M1349.07,-658.15C1357.31,-656.75 1366.14,-655.24 1375,-653.74"/>
<polygon fill="midnightblue" stroke="midnightblue" points="1375.72,-657.16 1384.99,-652.04 1374.54,-650.26 1375.72,-657.16"/>
</g>
<!-- Node10 -->
<g id="node10" class="node">
<title>Node10</title>
<g id="a_node10"><a xlink:href="classslljit_1_1_tokenizer.html#ab29a7d2f06bb354a3f748106f5ea3e6c" target="_top" xlink:title=" ">
<polygon fill="none" stroke="black" points="1403.5,-577.48 1403.5,-607.48 1492.5,-607.48 1492.5,-577.48 1403.5,-577.48"/>
<text text-anchor="start" x="1411.5" y="-595.48" font-family="Helvetica,sans-Serif" font-size="10.00">slljit::Tokenizer::</text>
<text text-anchor="middle" x="1448" y="-584.48" font-family="Helvetica,sans-Serif" font-size="10.00">is_special_literal</text>
</a>
</g>
</g>
<!-- Node5&#45;&gt;Node10 -->
<g id="edge11" class="edge">
<title>Node5&#45;&gt;Node10</title>
<path fill="none" stroke="midnightblue" d="M1327.84,-650.4C1343.36,-640.07 1364.92,-626.49 1385,-616.48 1388.35,-614.81 1391.84,-613.18 1395.39,-611.61"/>
<polygon fill="midnightblue" stroke="midnightblue" points="1397.02,-614.72 1404.85,-607.58 1394.28,-608.28 1397.02,-614.72"/>
</g>
<!-- Node11 -->
<g id="node11" class="node">
<title>Node11</title>
<g id="a_node11"><a xlink:href="classslljit_1_1_tokenizer.html#ae5cc0911ed858f6bc7bf206928cd66ae" target="_top" xlink:title=" ">
<polygon fill="none" stroke="black" points="1404,-528.48 1404,-558.48 1492,-558.48 1492,-528.48 1404,-528.48"/>
<text text-anchor="start" x="1412" y="-546.48" font-family="Helvetica,sans-Serif" font-size="10.00">slljit::Tokenizer::</text>
<text text-anchor="middle" x="1448" y="-535.48" font-family="Helvetica,sans-Serif" font-size="10.00">set_lok_location</text>
</a>
</g>
</g>
<!-- Node5&#45;&gt;Node11 -->
<g id="edge12" class="edge">
<title>Node5&#45;&gt;Node11</title>
<path fill="none" stroke="midnightblue" d="M1314.57,-650.48C1327.37,-629.27 1353.41,-590.55 1385,-567.48 1388.02,-565.27 1391.27,-563.24 1394.64,-561.38"/>
<polygon fill="midnightblue" stroke="midnightblue" points="1396.4,-564.41 1403.78,-556.81 1393.27,-558.15 1396.4,-564.41"/>
</g>
<!-- Node13 -->
<g id="node13" class="node">
<title>Node13</title>
<g id="a_node13"><a xlink:href="classslljit_1_1_parser.html#ae387c9672ec50720d8cb969558aedbe9" target="_top" xlink:title=" ">
<polygon fill="none" stroke="black" points="747,-597.48 747,-627.48 861,-627.48 861,-597.48 747,-597.48"/>
<text text-anchor="start" x="755" y="-615.48" font-family="Helvetica,sans-Serif" font-size="10.00">slljit::Parser::ParseBin</text>
<text text-anchor="middle" x="804" y="-604.48" font-family="Helvetica,sans-Serif" font-size="10.00">OpRHS</text>
</a>
</g>
</g>
<!-- Node12&#45;&gt;Node13 -->
<g id="edge14" class="edge">
<title>Node12&#45;&gt;Node13</title>
<path fill="none" stroke="midnightblue" d="M711.05,-619.15C719.52,-618.53 728.12,-617.91 736.49,-617.3"/>
<polygon fill="midnightblue" stroke="midnightblue" points="736.84,-620.79 746.56,-616.57 736.34,-613.8 736.84,-620.79"/>
</g>
<!-- Node15 -->
<g id="node15" class="node">
<title>Node15</title>
<g id="a_node15"><a xlink:href="classslljit_1_1_parser.html#af8579896f39ac563d2edd14404d70f41" target="_top" xlink:title=" ">
<polygon fill="none" stroke="black" points="913.5,-655.98 913.5,-674.98 1038.5,-674.98 1038.5,-655.98 913.5,-655.98"/>
<text text-anchor="middle" x="976" y="-662.98" font-family="Helvetica,sans-Serif" font-size="10.00">slljit::Parser::ParseUnary</text>
</a>
</g>
</g>
<!-- Node12&#45;&gt;Node15 -->
<g id="edge22" class="edge">
<title>Node12&#45;&gt;Node15</title>
<path fill="none" stroke="midnightblue" d="M665.94,-634.12C687.83,-641.09 718.97,-650.02 747,-654.48 798.74,-662.71 857.85,-665.38 902.91,-666.03"/>
<polygon fill="midnightblue" stroke="midnightblue" points="903.14,-669.53 913.18,-666.14 903.22,-662.53 903.14,-669.53"/>
</g>
<!-- Node13&#45;&gt;Node4 -->
<g id="edge15" class="edge">
<title>Node13&#45;&gt;Node4</title>
<path fill="none" stroke="midnightblue" d="M861.13,-603.12C912.48,-596.53 990.1,-591.58 1055,-608.48 1085.64,-616.46 1116.84,-635.9 1136.52,-649.86"/>
<polygon fill="midnightblue" stroke="midnightblue" points="1134.57,-652.77 1144.71,-655.83 1138.69,-647.11 1134.57,-652.77"/>
</g>
<!-- Node13&#45;&gt;Node13 -->
<g id="edge17" class="edge">
<title>Node13&#45;&gt;Node13</title>
<path fill="none" stroke="midnightblue" d="M775.07,-627.64C768.1,-637.04 777.74,-645.98 804,-645.98 820,-645.98 829.84,-642.66 833.5,-637.94"/>
<polygon fill="midnightblue" stroke="midnightblue" points="836.97,-637.43 832.93,-627.64 829.98,-637.82 836.97,-637.43"/>
</g>
<!-- Node14 -->
<g id="node14" class="node">
<title>Node14</title>
<g id="a_node14"><a xlink:href="classslljit_1_1_parser.html#a8485bea3e380a80c8296092996c9ef96" target="_top" xlink:title="Get the precedence of the pending binary operator token.">
<polygon fill="none" stroke="black" points="897,-617.98 897,-636.98 1055,-636.98 1055,-617.98 897,-617.98"/>
<text text-anchor="middle" x="976" y="-624.98" font-family="Helvetica,sans-Serif" font-size="10.00">slljit::Parser::GetTokPrecedence</text>
</a>
</g>
</g>
<!-- Node13&#45;&gt;Node14 -->
<g id="edge16" class="edge">
<title>Node13&#45;&gt;Node14</title>
<path fill="none" stroke="midnightblue" d="M861.14,-617.43C869.34,-618.16 877.95,-618.92 886.6,-619.68"/>
<polygon fill="midnightblue" stroke="midnightblue" points="886.5,-623.18 896.77,-620.58 887.11,-616.21 886.5,-623.18"/>
</g>
<!-- Node13&#45;&gt;Node15 -->
<g id="edge18" class="edge">
<title>Node13&#45;&gt;Node15</title>
<path fill="none" stroke="midnightblue" d="M842.71,-627.53C859.23,-633.83 878.92,-640.96 897,-646.48 905.05,-648.94 913.64,-651.29 922.07,-653.46"/>
<polygon fill="midnightblue" stroke="midnightblue" points="921.3,-656.87 931.85,-655.91 923,-650.08 921.3,-656.87"/>
</g>
<!-- Node15&#45;&gt;Node1 -->
<g id="edge20" class="edge">
<title>Node15&#45;&gt;Node1</title>
<path fill="none" stroke="midnightblue" d="M959.07,-675.15C902.62,-708.79 705.81,-820.65 526,-857.48 370.97,-889.24 318.62,-904.86 170,-850.48 134.49,-837.49 101.66,-807.1 83.29,-787.74"/>
<polygon fill="midnightblue" stroke="midnightblue" points="85.68,-785.17 76.33,-780.2 80.54,-789.92 85.68,-785.17"/>
</g>
<!-- Node15&#45;&gt;Node4 -->
<g id="edge19" class="edge">
<title>Node15&#45;&gt;Node4</title>
<path fill="none" stroke="midnightblue" d="M1038.69,-665.48C1052.21,-665.48 1066.67,-665.48 1080.67,-665.48"/>
<polygon fill="midnightblue" stroke="midnightblue" points="1080.77,-668.98 1090.77,-665.48 1080.77,-661.98 1080.77,-668.98"/>
</g>
<!-- Node15&#45;&gt;Node15 -->
<g id="edge21" class="edge">
<title>Node15&#45;&gt;Node15</title>
<path fill="none" stroke="midnightblue" d="M949.49,-675.24C936.59,-684.05 945.43,-693.48 976,-693.48 996.54,-693.48 1007.27,-689.22 1008.19,-683.76"/>
<polygon fill="midnightblue" stroke="midnightblue" points="1010.97,-681.62 1002.51,-675.24 1005.14,-685.5 1010.97,-681.62"/>
</g>
<!-- Node16&#45;&gt;Node2 -->
<g id="edge24" class="edge">
<title>Node16&#45;&gt;Node2</title>
<path fill="none" stroke="midnightblue" d="M477.74,-722.88C492.5,-718.53 510.14,-713.29 526,-708.48 542.88,-703.36 561.19,-697.71 577.92,-692.51"/>
<polygon fill="midnightblue" stroke="midnightblue" points="579.06,-695.82 587.57,-689.51 576.98,-689.14 579.06,-695.82"/>
</g>
<!-- Node16&#45;&gt;Node4 -->
<g id="edge25" class="edge">
<title>Node16&#45;&gt;Node4</title>
<path fill="none" stroke="midnightblue" d="M526.37,-736.12C644.21,-739.67 868.67,-739.97 1055,-702.48 1080.08,-697.43 1107.25,-687.33 1127.23,-678.96"/>
<polygon fill="midnightblue" stroke="midnightblue" points="1128.62,-682.17 1136.43,-675.01 1125.86,-675.74 1128.62,-682.17"/>
</g>
<!-- Node16&#45;&gt;Node12 -->
<g id="edge26" class="edge">
<title>Node16&#45;&gt;Node12</title>
<path fill="none" stroke="midnightblue" d="M497.83,-722.94C507.84,-719.5 517.74,-714.83 526,-708.48 550.35,-689.76 538.03,-668.69 562,-649.48 567.86,-644.79 574.65,-640.95 581.68,-637.83"/>
<polygon fill="midnightblue" stroke="midnightblue" points="583.36,-640.93 591.36,-633.99 580.78,-634.42 583.36,-640.93"/>
</g>
<!-- Node19&#45;&gt;Node2 -->
<g id="edge34" class="edge">
<title>Node19&#45;&gt;Node2</title>
<path fill="none" stroke="midnightblue" d="M303.09,-403.02C381.47,-417.06 518.18,-442.51 526,-450.48 587.13,-512.75 507.27,-575.52 562,-643.48 565.78,-648.18 570.41,-652.18 575.48,-655.57"/>
<polygon fill="midnightblue" stroke="midnightblue" points="573.96,-658.74 584.36,-660.75 577.48,-652.69 573.96,-658.74"/>
</g>
<!-- Node19&#45;&gt;Node4 -->
<g id="edge35" class="edge">
<title>Node19&#45;&gt;Node4</title>
<path fill="none" stroke="midnightblue" d="M277.71,-383.85C341.35,-363.4 499.41,-317.48 635.5,-317.48 635.5,-317.48 635.5,-317.48 805,-317.48 918.86,-317.48 969.97,-297.76 1055,-373.48 1138.13,-447.51 1153.51,-593.1 1156.36,-645.83"/>
<polygon fill="midnightblue" stroke="midnightblue" points="1152.86,-646.04 1156.8,-655.87 1159.85,-645.72 1152.86,-646.04"/>
</g>
<!-- Node19&#45;&gt;Node12 -->
<g id="edge36" class="edge">
<title>Node19&#45;&gt;Node12</title>
<path fill="none" stroke="midnightblue" d="M302.33,-383.95C361.99,-376.28 459.01,-373.08 526,-417.48 593.5,-462.22 622.25,-562.67 631.69,-605.04"/>
<polygon fill="midnightblue" stroke="midnightblue" points="628.29,-605.86 633.77,-614.93 635.14,-604.42 628.29,-605.86"/>
</g>
<!-- Node20 -->
<g id="node20" class="node">
<title>Node20</title>
<g id="a_node20"><a xlink:href="classslljit_1_1_parser.html#a4c93eea2333b7705c6aea18df2105196" target="_top" xlink:title=" ">
<polygon fill="none" stroke="black" points="399.5,-460.48 399.5,-490.48 488.5,-490.48 488.5,-460.48 399.5,-460.48"/>
<text text-anchor="start" x="407.5" y="-478.48" font-family="Helvetica,sans-Serif" font-size="10.00">slljit::Parser::find</text>
<text text-anchor="middle" x="444" y="-467.48" font-family="Helvetica,sans-Serif" font-size="10.00">_var_in_scope</text>
</a>
</g>
</g>
<!-- Node19&#45;&gt;Node20 -->
<g id="edge30" class="edge">
<title>Node19&#45;&gt;Node20</title>
<path fill="none" stroke="midnightblue" d="M268.8,-403.15C291.2,-413.96 328.88,-431.75 362,-445.48 371.25,-449.31 381.18,-453.19 390.81,-456.82"/>
<polygon fill="midnightblue" stroke="midnightblue" points="389.71,-460.15 400.3,-460.36 392.16,-453.59 389.71,-460.15"/>
</g>
<!-- Node21 -->
<g id="node21" class="node">
<title>Node21</title>
<g id="a_node21"><a xlink:href="classslljit_1_1_parser.html#aee4666b5cca40f389e2458033d9006e3" target="_top" xlink:title=" ">
<polygon fill="none" stroke="black" points="383,-258.48 383,-288.48 505,-288.48 505,-258.48 383,-258.48"/>
<text text-anchor="start" x="391" y="-276.48" font-family="Helvetica,sans-Serif" font-size="10.00">slljit::Parser::get</text>
<text text-anchor="middle" x="444" y="-265.48" font-family="Helvetica,sans-Serif" font-size="10.00">_current_function_scope</text>
</a>
</g>
</g>
<!-- Node19&#45;&gt;Node21 -->
<g id="edge32" class="edge">
<title>Node19&#45;&gt;Node21</title>
<path fill="none" stroke="midnightblue" d="M258.79,-383.85C277.47,-365.94 320.06,-327.14 362,-303.48 369.32,-299.35 377.32,-295.59 385.35,-292.24"/>
<polygon fill="midnightblue" stroke="midnightblue" points="386.76,-295.44 394.75,-288.49 384.17,-288.94 386.76,-295.44"/>
</g>
<!-- Node22 -->
<g id="node22" class="node">
<title>Node22</title>
<g id="a_node22"><a xlink:href="classslljit_1_1_tokenizer.html#a6270acd003b9e0a1323c1fdd54cd2fe2" target="_top" xlink:title=" ">
<polygon fill="none" stroke="black" points="400,-209.48 400,-239.48 488,-239.48 488,-209.48 400,-209.48"/>
<text text-anchor="start" x="408" y="-227.48" font-family="Helvetica,sans-Serif" font-size="10.00">slljit::Tokenizer::</text>
<text text-anchor="middle" x="444" y="-216.48" font-family="Helvetica,sans-Serif" font-size="10.00">get_identifier</text>
</a>
</g>
</g>
<!-- Node19&#45;&gt;Node22 -->
<g id="edge33" class="edge">
<title>Node19&#45;&gt;Node22</title>
<path fill="none" stroke="midnightblue" d="M253.84,-383.67C267.22,-357.53 307.42,-285.7 362,-248.48 370.36,-242.78 380.1,-238.41 389.87,-235.06"/>
<polygon fill="midnightblue" stroke="midnightblue" points="391.07,-238.35 399.59,-232.05 389,-231.67 391.07,-238.35"/>
</g>
<!-- Node20&#45;&gt;Node2 -->
<g id="edge31" class="edge">
<title>Node20&#45;&gt;Node2</title>
<path fill="none" stroke="midnightblue" d="M469.26,-490.69C487.14,-502.99 510.88,-521.79 526,-543.48 553.02,-582.23 529.51,-609.2 562,-643.48 565.87,-647.56 570.36,-651.13 575.18,-654.25"/>
<polygon fill="midnightblue" stroke="midnightblue" points="573.73,-657.45 584.15,-659.37 577.21,-651.37 573.73,-657.45"/>
</g>
<!-- Node23&#45;&gt;Node2 -->
<g id="edge38" class="edge">
<title>Node23&#45;&gt;Node2</title>
<path fill="none" stroke="midnightblue" d="M269.6,-591.93C318.22,-570.93 442.29,-526.43 526,-576.48 555.01,-593.83 537,-620.73 562,-643.48 566.64,-647.7 571.93,-651.4 577.51,-654.63"/>
<polygon fill="midnightblue" stroke="midnightblue" points="575.97,-657.77 586.45,-659.32 579.22,-651.57 575.97,-657.77"/>
</g>
<!-- Node23&#45;&gt;Node4 -->
<g id="edge39" class="edge">
<title>Node23&#45;&gt;Node4</title>
<path fill="none" stroke="midnightblue" d="M253.63,-591.78C266.79,-565.24 307.02,-490.68 362,-450.48 465.88,-374.53 506.82,-355.48 635.5,-355.48 635.5,-355.48 635.5,-355.48 805,-355.48 982.37,-355.48 1112.74,-579.91 1147.68,-646.85"/>
<polygon fill="midnightblue" stroke="midnightblue" points="1144.63,-648.56 1152.3,-655.86 1150.86,-645.37 1144.63,-648.56"/>
</g>
<!-- Node23&#45;&gt;Node12 -->
<g id="edge40" class="edge">
<title>Node23&#45;&gt;Node12</title>
<path fill="none" stroke="midnightblue" d="M262.42,-591.88C282.78,-577.97 323.2,-552.86 362,-543.48 432.85,-526.36 456.78,-520.66 526,-543.48 564.09,-556.04 599.78,-587.52 619.53,-607.33"/>
<polygon fill="midnightblue" stroke="midnightblue" points="617.27,-610.03 626.74,-614.77 622.3,-605.16 617.27,-610.03"/>
</g>
<!-- Node23&#45;&gt;Node16 -->
<g id="edge41" class="edge">
<title>Node23&#45;&gt;Node16</title>
<path fill="none" stroke="midnightblue" d="M263.27,-611.11C296.62,-633.64 379.93,-689.89 420.32,-717.17"/>
<polygon fill="midnightblue" stroke="midnightblue" points="418.47,-720.14 428.71,-722.83 422.38,-714.34 418.47,-720.14"/>
</g>
<!-- Node23&#45;&gt;Node17 -->
<g id="edge42" class="edge">
<title>Node23&#45;&gt;Node17</title>
<path fill="none" stroke="midnightblue" d="M310.65,-601.48C335.7,-601.48 364.39,-601.48 388.64,-601.48"/>
<polygon fill="midnightblue" stroke="midnightblue" points="388.73,-604.98 398.73,-601.48 388.73,-597.98 388.73,-604.98"/>
</g>
<!-- Node23&#45;&gt;Node18 -->
<g id="edge43" class="edge">
<title>Node23&#45;&gt;Node18</title>
<path fill="none" stroke="midnightblue" d="M286.87,-611.04C315.25,-618.21 354.55,-628.14 386.62,-636.24"/>
<polygon fill="midnightblue" stroke="midnightblue" points="385.77,-639.63 396.32,-638.69 387.48,-632.85 385.77,-639.63"/>
</g>
<!-- Node24&#45;&gt;Node2 -->
<g id="edge46" class="edge">
<title>Node24&#45;&gt;Node2</title>
<path fill="none" stroke="midnightblue" d="M461.74,-950.92C479.53,-940.08 507.6,-920.95 526,-898.48 577.92,-835.07 612.93,-742.94 627.65,-699.25"/>
<polygon fill="midnightblue" stroke="midnightblue" points="630.99,-700.31 630.8,-689.71 624.34,-698.11 630.99,-700.31"/>
</g>
<!-- Node24&#45;&gt;Node4 -->
<g id="edge47" class="edge">
<title>Node24&#45;&gt;Node4</title>
<path fill="none" stroke="midnightblue" d="M486,-950.93C508.38,-945.91 536.63,-939.91 562,-935.48 779.83,-897.46 875.05,-996.98 1055,-868.48 1118.51,-823.13 1144.78,-726.62 1153.43,-685.12"/>
<polygon fill="midnightblue" stroke="midnightblue" points="1156.89,-685.66 1155.39,-675.17 1150.03,-684.31 1156.89,-685.66"/>
</g>
<!-- Node25 -->
<g id="node25" class="node">
<title>Node25</title>
<g id="a_node25"><a xlink:href="classslljit_1_1_tokenizer.html#a69d29df7401c1f268a754725c4561470" target="_top" xlink:title=" ">
<polygon fill="none" stroke="black" points="592.5,-945.48 592.5,-975.48 680.5,-975.48 680.5,-945.48 592.5,-945.48"/>
<text text-anchor="start" x="600.5" y="-963.48" font-family="Helvetica,sans-Serif" font-size="10.00">slljit::Tokenizer::</text>
<text text-anchor="middle" x="636.5" y="-952.48" font-family="Helvetica,sans-Serif" font-size="10.00">get_literal_string</text>
</a>
</g>
</g>
<!-- Node24&#45;&gt;Node25 -->
<g id="edge45" class="edge">
<title>Node24&#45;&gt;Node25</title>
<path fill="none" stroke="midnightblue" d="M517.02,-960.48C538.64,-960.48 561.97,-960.48 582.16,-960.48"/>
<polygon fill="midnightblue" stroke="midnightblue" points="582.4,-963.98 592.4,-960.48 582.4,-956.98 582.4,-963.98"/>
</g>
<!-- Node26&#45;&gt;Node2 -->
<g id="edge49" class="edge">
<title>Node26&#45;&gt;Node2</title>
<path fill="none" stroke="midnightblue" d="M491.65,-798.96C503.36,-795.43 515.55,-790.72 526,-784.48 564.09,-761.76 598.46,-722.78 618.16,-697.85"/>
<polygon fill="midnightblue" stroke="midnightblue" points="621.14,-699.71 624.49,-689.66 615.6,-695.43 621.14,-699.71"/>
</g>
<!-- Node26&#45;&gt;Node4 -->
<g id="edge50" class="edge">
<title>Node26&#45;&gt;Node4</title>
<path fill="none" stroke="midnightblue" d="M517.25,-808.71C633.81,-806.97 869.09,-794.63 1055,-728.48 1085.95,-717.47 1117.51,-696.09 1137.16,-681.31"/>
<polygon fill="midnightblue" stroke="midnightblue" points="1139.51,-683.92 1145.31,-675.05 1135.24,-678.37 1139.51,-683.92"/>
</g>
<!-- Node26&#45;&gt;Node12 -->
<g id="edge51" class="edge">
<title>Node26&#45;&gt;Node12</title>
<path fill="none" stroke="midnightblue" d="M465.01,-798.97C483.26,-789.35 509.8,-772.86 526,-751.48 555.03,-713.16 527.81,-683.28 562,-649.48 566.53,-645 571.89,-641.33 577.62,-638.31"/>
<polygon fill="midnightblue" stroke="midnightblue" points="579.22,-641.42 586.87,-634.09 576.32,-635.06 579.22,-641.42"/>
</g>
<!-- Node27&#45;&gt;Node2 -->
<g id="edge54" class="edge">
<title>Node27&#45;&gt;Node2</title>
<path fill="none" stroke="midnightblue" d="M293.98,-146C371.44,-162.5 522.16,-195.05 526,-199.48 590.83,-274.29 503.98,-563.28 562,-643.48 565.73,-648.63 570.49,-652.94 575.78,-656.53"/>
<polygon fill="midnightblue" stroke="midnightblue" points="574.08,-659.59 584.48,-661.61 577.61,-653.54 574.08,-659.59"/>
</g>
<!-- Node27&#45;&gt;Node4 -->
<g id="edge56" class="edge">
<title>Node27&#45;&gt;Node4</title>
<path fill="none" stroke="midnightblue" d="M255.87,-126.86C271.74,-105.49 313.34,-54.28 362,-32.48 473.47,17.46 513.35,-5.48 635.5,-5.48 635.5,-5.48 635.5,-5.48 805,-5.48 1103.19,-5.48 1149.65,-536.48 1156.06,-645.91"/>
<polygon fill="midnightblue" stroke="midnightblue" points="1152.56,-646.1 1156.6,-655.9 1159.55,-645.72 1152.56,-646.1"/>
</g>
<!-- Node27&#45;&gt;Node12 -->
<g id="edge57" class="edge">
<title>Node27&#45;&gt;Node12</title>
<path fill="none" stroke="midnightblue" d="M259.15,-126.8C277.74,-109.81 319.3,-75.22 362,-62.48 431.85,-41.65 469.75,-16.13 526,-62.48 612.26,-133.56 631.47,-513.44 634.86,-604.74"/>
<polygon fill="midnightblue" stroke="midnightblue" points="631.37,-604.95 635.22,-614.82 638.36,-604.71 631.37,-604.95"/>
</g>
<!-- Node27&#45;&gt;Node22 -->
<g id="edge53" class="edge">
<title>Node27&#45;&gt;Node22</title>
<path fill="none" stroke="midnightblue" d="M266.3,-146.18C288.21,-158.28 327.28,-179.21 362,-194.48 371.06,-198.47 380.83,-202.39 390.35,-206.02"/>
<polygon fill="midnightblue" stroke="midnightblue" points="389.15,-209.31 399.74,-209.54 391.61,-202.75 389.15,-209.31"/>
</g>
<!-- Node28 -->
<g id="node28" class="node">
<title>Node28</title>
<g id="a_node28"><a xlink:href="classslljit_1_1_tokenizer.html#a9dcee05dc292fa291e6b9644d12c1907" target="_top" xlink:title=" ">
<polygon fill="none" stroke="black" points="396.5,-72.48 396.5,-102.48 491.5,-102.48 491.5,-72.48 396.5,-72.48"/>
<text text-anchor="start" x="404.5" y="-90.48" font-family="Helvetica,sans-Serif" font-size="10.00">slljit::Tokenizer::</text>
<text text-anchor="middle" x="444" y="-79.48" font-family="Helvetica,sans-Serif" font-size="10.00">get_type_identifier</text>
</a>
</g>
</g>
<!-- Node27&#45;&gt;Node28 -->
<g id="edge55" class="edge">
<title>Node27&#45;&gt;Node28</title>
<path fill="none" stroke="midnightblue" d="M286.87,-126.92C315.25,-119.75 354.55,-109.82 386.62,-101.72"/>
<polygon fill="midnightblue" stroke="midnightblue" points="387.48,-105.11 396.32,-99.27 385.77,-98.33 387.48,-105.11"/>
</g>
<!-- Node29 -->
<g id="node29" class="node">
<title>Node29</title>
<g id="a_node29"><a xlink:href="classslljit_1_1_parser.html#acad3f159608acb847e0f693fc07fdd28" target="_top" xlink:title=" ">
<polygon fill="none" stroke="black" points="396.5,-121.48 396.5,-151.48 491.5,-151.48 491.5,-121.48 396.5,-121.48"/>
<text text-anchor="start" x="404.5" y="-139.48" font-family="Helvetica,sans-Serif" font-size="10.00">slljit::Parser::push</text>
<text text-anchor="middle" x="444" y="-128.48" font-family="Helvetica,sans-Serif" font-size="10.00">_var_into_scope</text>
</a>
</g>
</g>
<!-- Node27&#45;&gt;Node29 -->
<g id="edge58" class="edge">
<title>Node27&#45;&gt;Node29</title>
<path fill="none" stroke="midnightblue" d="M315.76,-136.48C338.66,-136.48 364.06,-136.48 386.1,-136.48"/>
<polygon fill="midnightblue" stroke="midnightblue" points="386.3,-139.98 396.3,-136.48 386.3,-132.98 386.3,-139.98"/>
</g>
<!-- Node29&#45;&gt;Node2 -->
<g id="edge59" class="edge">
<title>Node29&#45;&gt;Node2</title>
<path fill="none" stroke="midnightblue" d="M491.91,-144.08C504.9,-148.49 517.7,-155.46 526,-166.48 589.97,-251.38 499.93,-557.18 562,-643.48 565.71,-648.65 570.46,-652.95 575.75,-656.55"/>
<polygon fill="midnightblue" stroke="midnightblue" points="574.05,-659.6 584.45,-661.63 577.58,-653.56 574.05,-659.6"/>
</g>
</g>
</svg>
