<?xml version="1.0" encoding="UTF-8" standalone="no"?>
<!DOCTYPE svg PUBLIC "-//W3C//DTD SVG 1.1//EN"
 "http://www.w3.org/Graphics/SVG/1.1/DTD/svg11.dtd">
<!-- Generated by graphviz version 3.0.0 (20220226.1711)
 -->
<!-- Title: slljit::FunctionAST::codegen Pages: 1 -->
<svg width="393pt" height="645pt"
 viewBox="0.00 0.00 393.00 645.00" xmlns="http://www.w3.org/2000/svg" xmlns:xlink="http://www.w3.org/1999/xlink">
<g id="graph0" class="graph" transform="scale(1 1) rotate(0) translate(4 641)">
<title>slljit::FunctionAST::codegen</title>
<!-- Node1 -->
<g id="node1" class="node">
<title>Node1</title>
<g id="a_node1"><a xlink:title=" ">
<polygon fill="#bfbfbf" stroke="black" points="0,-308.5 0,-338.5 96,-338.5 96,-308.5 0,-308.5"/>
<text text-anchor="start" x="8" y="-326.5" font-family="Helvetica,sans-Serif" font-size="10.00">slljit::FunctionAST</text>
<text text-anchor="middle" x="48" y="-315.5" font-family="Helvetica,sans-Serif" font-size="10.00">::codegen</text>
</a>
</g>
</g>
<!-- Node2 -->
<g id="node2" class="node">
<title>Node2</title>
<g id="a_node2"><a xlink:href="namespaceslljit.html#a83987510d9773007d15d8ee14694003a" target="_top" xlink:title=" ">
<polygon fill="none" stroke="black" points="132,-606.5 132,-636.5 248,-636.5 248,-606.5 132,-606.5"/>
<text text-anchor="start" x="140" y="-624.5" font-family="Helvetica,sans-Serif" font-size="10.00">slljit::CreateEntryBlock</text>
<text text-anchor="middle" x="190" y="-613.5" font-family="Helvetica,sans-Serif" font-size="10.00">Alloca</text>
</a>
</g>
</g>
<!-- Node1&#45;&gt;Node2 -->
<g id="edge1" class="edge">
<title>Node1&#45;&gt;Node2</title>
<path fill="none" stroke="midnightblue" d="M49.29,-338.7C50.94,-383.97 61.81,-519.57 132,-597.5 132.87,-598.46 133.78,-599.39 134.74,-600.28"/>
<polygon fill="midnightblue" stroke="midnightblue" points="132.65,-603.09 142.7,-606.43 136.92,-597.55 132.65,-603.09"/>
</g>
<!-- Node3 -->
<g id="node3" class="node">
<title>Node3</title>
<g id="a_node3"><a xlink:href="classslljit_1_1_prototype_a_s_t.html#a1cfba0bffdde972dd7932db6b7f25c55" target="_top" xlink:title=" ">
<polygon fill="none" stroke="black" points="132,-557.5 132,-587.5 248,-587.5 248,-557.5 132,-557.5"/>
<text text-anchor="start" x="140" y="-575.5" font-family="Helvetica,sans-Serif" font-size="10.00">slljit::PrototypeAST</text>
<text text-anchor="middle" x="190" y="-564.5" font-family="Helvetica,sans-Serif" font-size="10.00">::getBinaryPrecedence</text>
</a>
</g>
</g>
<!-- Node1&#45;&gt;Node3 -->
<g id="edge2" class="edge">
<title>Node1&#45;&gt;Node3</title>
<path fill="none" stroke="midnightblue" d="M50.45,-338.51C55.02,-378.06 72.59,-486.35 132,-548.5 132.92,-549.46 133.88,-550.38 134.88,-551.27"/>
<polygon fill="midnightblue" stroke="midnightblue" points="133.07,-554.28 143.19,-557.41 137.23,-548.65 133.07,-554.28"/>
</g>
<!-- Node4 -->
<g id="node4" class="node">
<title>Node4</title>
<g id="a_node4"><a xlink:href="classslljit_1_1_local_context.html#acd5a146c139b01ff0c5d1be79e187749" target="_top" xlink:title=" ">
<polygon fill="none" stroke="black" points="141.5,-508.5 141.5,-538.5 238.5,-538.5 238.5,-508.5 141.5,-508.5"/>
<text text-anchor="start" x="149.5" y="-526.5" font-family="Helvetica,sans-Serif" font-size="10.00">slljit::LocalContext</text>
<text text-anchor="middle" x="190" y="-515.5" font-family="Helvetica,sans-Serif" font-size="10.00">::getBuilder</text>
</a>
</g>
</g>
<!-- Node1&#45;&gt;Node4 -->
<g id="edge3" class="edge">
<title>Node1&#45;&gt;Node4</title>
<path fill="none" stroke="midnightblue" d="M52.23,-338.62C60.12,-372.03 83.35,-452.86 132,-499.5 133.11,-500.57 134.28,-501.59 135.5,-502.57"/>
<polygon fill="midnightblue" stroke="midnightblue" points="133.83,-505.68 144.06,-508.45 137.79,-499.9 133.83,-505.68"/>
</g>
<!-- Node5 -->
<g id="node5" class="node">
<title>Node5</title>
<g id="a_node5"><a xlink:href="classslljit_1_1_local_context.html#a7b1975b6c4314126ab18642dc180d596" target="_top" xlink:title=" ">
<polygon fill="none" stroke="black" points="141.5,-459.5 141.5,-489.5 238.5,-489.5 238.5,-459.5 141.5,-459.5"/>
<text text-anchor="start" x="149.5" y="-477.5" font-family="Helvetica,sans-Serif" font-size="10.00">slljit::LocalContext</text>
<text text-anchor="middle" x="190" y="-466.5" font-family="Helvetica,sans-Serif" font-size="10.00">::getContext</text>
</a>
</g>
</g>
<!-- Node1&#45;&gt;Node5 -->
<g id="edge4" class="edge">
<title>Node1&#45;&gt;Node5</title>
<path fill="none" stroke="midnightblue" d="M55.49,-338.73C67.24,-364.68 94.36,-417.74 132,-449.5 133.95,-451.15 136.03,-452.7 138.19,-454.17"/>
<polygon fill="midnightblue" stroke="midnightblue" points="136.5,-457.23 146.87,-459.4 140.11,-451.24 136.5,-457.23"/>
</g>
<!-- Node6 -->
<g id="node6" class="node">
<title>Node6</title>
<g id="a_node6"><a xlink:href="group___a_s_t.html#ga43bd4527a94e16e6fb1be89c3b4fc678" target="_top" xlink:title=" ">
<polygon fill="none" stroke="black" points="144.5,-421 144.5,-440 235.5,-440 235.5,-421 144.5,-421"/>
<text text-anchor="middle" x="190" y="-428" font-family="Helvetica,sans-Serif" font-size="10.00">slljit::getFunction</text>
</a>
</g>
</g>
<!-- Node1&#45;&gt;Node6 -->
<g id="edge5" class="edge">
<title>Node1&#45;&gt;Node6</title>
<path fill="none" stroke="midnightblue" d="M61.07,-338.76C76.08,-356.91 103.25,-387.17 132,-406.5 137.81,-410.4 144.35,-413.88 150.88,-416.88"/>
<polygon fill="midnightblue" stroke="midnightblue" points="149.78,-420.22 160.35,-420.95 152.54,-413.79 149.78,-420.22"/>
</g>
<!-- Node7 -->
<g id="node7" class="node">
<title>Node7</title>
<g id="a_node7"><a xlink:href="classslljit_1_1_local_context.html#abb9845ccd33f6c425e174f0090e92fbe" target="_top" xlink:title=" ">
<polygon fill="none" stroke="black" points="286,-396.5 286,-426.5 383,-426.5 383,-396.5 286,-396.5"/>
<text text-anchor="start" x="294" y="-414.5" font-family="Helvetica,sans-Serif" font-size="10.00">slljit::LocalContext</text>
<text text-anchor="middle" x="334.5" y="-403.5" font-family="Helvetica,sans-Serif" font-size="10.00">::getModule</text>
</a>
</g>
</g>
<!-- Node1&#45;&gt;Node7 -->
<g id="edge8" class="edge">
<title>Node1&#45;&gt;Node7</title>
<path fill="none" stroke="midnightblue" d="M69.43,-338.65C85.61,-349.92 109.21,-364.81 132,-373.5 178.61,-391.27 234.57,-400.97 275.67,-406.12"/>
<polygon fill="midnightblue" stroke="midnightblue" points="275.44,-409.61 285.79,-407.33 276.27,-402.66 275.44,-409.61"/>
</g>
<!-- Node8 -->
<g id="node8" class="node">
<title>Node8</title>
<g id="a_node8"><a xlink:href="classslljit_1_1_local_context.html#a776934c87f66bfe5f7181c6bc3896c4b" target="_top" xlink:title=" ">
<polygon fill="none" stroke="black" points="141.5,-333.5 141.5,-363.5 238.5,-363.5 238.5,-333.5 141.5,-333.5"/>
<text text-anchor="start" x="149.5" y="-351.5" font-family="Helvetica,sans-Serif" font-size="10.00">slljit::LocalContext</text>
<text text-anchor="middle" x="190" y="-340.5" font-family="Helvetica,sans-Serif" font-size="10.00">::getLayout</text>
</a>
</g>
</g>
<!-- Node1&#45;&gt;Node8 -->
<g id="edge7" class="edge">
<title>Node1&#45;&gt;Node8</title>
<path fill="none" stroke="midnightblue" d="M96.01,-331.89C107.31,-333.91 119.52,-336.09 131.25,-338.19"/>
<polygon fill="midnightblue" stroke="midnightblue" points="130.94,-341.69 141.4,-340 132.17,-334.8 130.94,-341.69"/>
</g>
<!-- Node9 -->
<g id="node9" class="node">
<title>Node9</title>
<g id="a_node9"><a xlink:href="classslljit_1_1_prototype_a_s_t.html#a5117c4038b6b471b23632b8ab00eec59" target="_top" xlink:title=" ">
<polygon fill="none" stroke="black" points="139.5,-284.5 139.5,-314.5 240.5,-314.5 240.5,-284.5 139.5,-284.5"/>
<text text-anchor="start" x="147.5" y="-302.5" font-family="Helvetica,sans-Serif" font-size="10.00">slljit::PrototypeAST</text>
<text text-anchor="middle" x="190" y="-291.5" font-family="Helvetica,sans-Serif" font-size="10.00">::getName</text>
</a>
</g>
</g>
<!-- Node1&#45;&gt;Node9 -->
<g id="edge9" class="edge">
<title>Node1&#45;&gt;Node9</title>
<path fill="none" stroke="midnightblue" d="M96.01,-315.44C106.71,-313.61 118.22,-311.63 129.37,-309.72"/>
<polygon fill="midnightblue" stroke="midnightblue" points="130.22,-313.13 139.48,-307.99 129.03,-306.23 130.22,-313.13"/>
</g>
<!-- Node10 -->
<g id="node10" class="node">
<title>Node10</title>
<g id="a_node10"><a xlink:href="classslljit_1_1_prototype_a_s_t.html#abdb93d6f640dba2d44ffc858d4e4bee0" target="_top" xlink:title=" ">
<polygon fill="none" stroke="black" points="139.5,-196.5 139.5,-226.5 240.5,-226.5 240.5,-196.5 139.5,-196.5"/>
<text text-anchor="start" x="147.5" y="-214.5" font-family="Helvetica,sans-Serif" font-size="10.00">slljit::PrototypeAST</text>
<text text-anchor="middle" x="190" y="-203.5" font-family="Helvetica,sans-Serif" font-size="10.00">::getOperatorName</text>
</a>
</g>
</g>
<!-- Node1&#45;&gt;Node10 -->
<g id="edge10" class="edge">
<title>Node1&#45;&gt;Node10</title>
<path fill="none" stroke="midnightblue" d="M61.95,-308.22C77.38,-290.63 104.54,-261.6 132,-241.5 136.8,-237.99 142.06,-234.64 147.39,-231.54"/>
<polygon fill="midnightblue" stroke="midnightblue" points="149.3,-234.48 156.35,-226.57 145.91,-228.36 149.3,-234.48"/>
</g>
<!-- Node11 -->
<g id="node11" class="node">
<title>Node11</title>
<g id="a_node11"><a xlink:href="classslljit_1_1_prototype_a_s_t.html#a2b32d086c432270455fe4faeabdb3dfc" target="_top" xlink:title=" ">
<polygon fill="none" stroke="black" points="284,-243.5 284,-273.5 385,-273.5 385,-243.5 284,-243.5"/>
<text text-anchor="start" x="292" y="-261.5" font-family="Helvetica,sans-Serif" font-size="10.00">slljit::PrototypeAST</text>
<text text-anchor="middle" x="334.5" y="-250.5" font-family="Helvetica,sans-Serif" font-size="10.00">::isBinaryOp</text>
</a>
</g>
</g>
<!-- Node1&#45;&gt;Node11 -->
<g id="edge13" class="edge">
<title>Node1&#45;&gt;Node11</title>
<path fill="none" stroke="midnightblue" d="M69.29,-308.33C85.4,-297.17 108.97,-282.73 132,-275.5 178.16,-261.01 233.02,-257.19 273.83,-256.76"/>
<polygon fill="midnightblue" stroke="midnightblue" points="273.91,-260.26 283.89,-256.72 273.88,-253.26 273.91,-260.26"/>
</g>
<!-- Node13 -->
<g id="node13" class="node">
<title>Node13</title>
<g id="a_node13"><a xlink:href="classslljit_1_1_function_a_s_t.html#a3166dcba3acf7e27425e3baad9938d5b" target="_top" xlink:title=" ">
<polygon fill="none" stroke="black" points="142,-147.5 142,-177.5 238,-177.5 238,-147.5 142,-147.5"/>
<text text-anchor="start" x="150" y="-165.5" font-family="Helvetica,sans-Serif" font-size="10.00">slljit::FunctionAST</text>
<text text-anchor="middle" x="190" y="-154.5" font-family="Helvetica,sans-Serif" font-size="10.00">::isMain</text>
</a>
</g>
</g>
<!-- Node1&#45;&gt;Node13 -->
<g id="edge14" class="edge">
<title>Node1&#45;&gt;Node13</title>
<path fill="none" stroke="midnightblue" d="M54.56,-308.2C65.38,-280.39 91.8,-221.22 132,-186.5 133.34,-185.34 134.75,-184.23 136.2,-183.17"/>
<polygon fill="midnightblue" stroke="midnightblue" points="138.41,-185.92 144.99,-177.61 134.66,-180 138.41,-185.92"/>
</g>
<!-- Node15 -->
<g id="node15" class="node">
<title>Node15</title>
<g id="a_node15"><a xlink:href="classslljit_1_1_local_context.html#a832383a341ab8f0c965a2459a42a0a31" target="_top" xlink:title=" ">
<polygon fill="none" stroke="black" points="141.5,-98.5 141.5,-128.5 238.5,-128.5 238.5,-98.5 141.5,-98.5"/>
<text text-anchor="start" x="149.5" y="-116.5" font-family="Helvetica,sans-Serif" font-size="10.00">slljit::LocalContext</text>
<text text-anchor="middle" x="190" y="-105.5" font-family="Helvetica,sans-Serif" font-size="10.00">::pop_scope</text>
</a>
</g>
</g>
<!-- Node1&#45;&gt;Node15 -->
<g id="edge16" class="edge">
<title>Node1&#45;&gt;Node15</title>
<path fill="none" stroke="midnightblue" d="M51.81,-308.32C59.01,-273.53 81.21,-187.22 132,-137.5 133.08,-136.44 134.21,-135.43 135.39,-134.46"/>
<polygon fill="midnightblue" stroke="midnightblue" points="137.51,-137.25 143.7,-128.65 133.5,-131.51 137.51,-137.25"/>
</g>
<!-- Node16 -->
<g id="node16" class="node">
<title>Node16</title>
<g id="a_node16"><a xlink:href="classslljit_1_1_local_context.html#acf26c98f0241214747f19870934ee7b1" target="_top" xlink:title=" ">
<polygon fill="none" stroke="black" points="141.5,-49.5 141.5,-79.5 238.5,-79.5 238.5,-49.5 141.5,-49.5"/>
<text text-anchor="start" x="149.5" y="-67.5" font-family="Helvetica,sans-Serif" font-size="10.00">slljit::LocalContext</text>
<text text-anchor="middle" x="190" y="-56.5" font-family="Helvetica,sans-Serif" font-size="10.00">::push_scope</text>
</a>
</g>
</g>
<!-- Node1&#45;&gt;Node16 -->
<g id="edge17" class="edge">
<title>Node1&#45;&gt;Node16</title>
<path fill="none" stroke="midnightblue" d="M50.18,-308.43C54.14,-267.65 70.41,-153.83 132,-88.5 132.91,-87.53 133.87,-86.6 134.86,-85.71"/>
<polygon fill="midnightblue" stroke="midnightblue" points="137.21,-88.33 143.14,-79.54 133.03,-82.71 137.21,-88.33"/>
</g>
<!-- Node17 -->
<g id="node17" class="node">
<title>Node17</title>
<g id="a_node17"><a xlink:href="classslljit_1_1_local_context.html#aa40a5e52e398faf36dd738a66c2ea503" target="_top" xlink:title=" ">
<polygon fill="none" stroke="black" points="133.5,-0.5 133.5,-30.5 246.5,-30.5 246.5,-0.5 133.5,-0.5"/>
<text text-anchor="start" x="141.5" y="-18.5" font-family="Helvetica,sans-Serif" font-size="10.00">slljit::LocalContext</text>
<text text-anchor="middle" x="190" y="-7.5" font-family="Helvetica,sans-Serif" font-size="10.00">::push_var_into_scope</text>
</a>
</g>
</g>
<!-- Node1&#45;&gt;Node17 -->
<g id="edge18" class="edge">
<title>Node1&#45;&gt;Node17</title>
<path fill="none" stroke="midnightblue" d="M49.09,-308.42C50.16,-262.2 59.52,-120.77 132,-39.5 132.86,-38.53 133.77,-37.6 134.72,-36.71"/>
<polygon fill="midnightblue" stroke="midnightblue" points="136.91,-39.44 142.67,-30.54 132.62,-33.91 136.91,-39.44"/>
</g>
<!-- Node6&#45;&gt;Node7 -->
<g id="edge6" class="edge">
<title>Node6&#45;&gt;Node7</title>
<path fill="none" stroke="midnightblue" d="M235.7,-424.54C248.32,-422.86 262.23,-421 275.51,-419.23"/>
<polygon fill="midnightblue" stroke="midnightblue" points="276.06,-422.69 285.51,-417.9 275.13,-415.75 276.06,-422.69"/>
</g>
<!-- Node10&#45;&gt;Node11 -->
<g id="edge11" class="edge">
<title>Node10&#45;&gt;Node11</title>
<path fill="none" stroke="midnightblue" d="M236.48,-226.5C249.72,-230.87 264.33,-235.69 278.11,-240.23"/>
<polygon fill="midnightblue" stroke="midnightblue" points="277.37,-243.67 287.96,-243.48 279.56,-237.02 277.37,-243.67"/>
</g>
<!-- Node12 -->
<g id="node12" class="node">
<title>Node12</title>
<g id="a_node12"><a xlink:href="classslljit_1_1_prototype_a_s_t.html#adade8d7279de8de62553d0a377c3c398" target="_top" xlink:title=" ">
<polygon fill="none" stroke="black" points="284,-194.5 284,-224.5 385,-224.5 385,-194.5 284,-194.5"/>
<text text-anchor="start" x="292" y="-212.5" font-family="Helvetica,sans-Serif" font-size="10.00">slljit::PrototypeAST</text>
<text text-anchor="middle" x="334.5" y="-201.5" font-family="Helvetica,sans-Serif" font-size="10.00">::isUnaryOp</text>
</a>
</g>
</g>
<!-- Node10&#45;&gt;Node12 -->
<g id="edge12" class="edge">
<title>Node10&#45;&gt;Node12</title>
<path fill="none" stroke="midnightblue" d="M240.84,-210.8C251.42,-210.65 262.7,-210.49 273.61,-210.34"/>
<polygon fill="midnightblue" stroke="midnightblue" points="273.98,-213.84 283.93,-210.2 273.88,-206.84 273.98,-213.84"/>
</g>
<!-- Node14 -->
<g id="node14" class="node">
<title>Node14</title>
<g id="a_node14"><a xlink:href="classslljit_1_1_prototype_a_s_t.html#a57ae69a40a3c07e0d75caa0a13f51240" target="_top" xlink:title=" ">
<polygon fill="none" stroke="black" points="284,-145.5 284,-175.5 385,-175.5 385,-145.5 284,-145.5"/>
<text text-anchor="start" x="292" y="-163.5" font-family="Helvetica,sans-Serif" font-size="10.00">slljit::PrototypeAST</text>
<text text-anchor="middle" x="334.5" y="-152.5" font-family="Helvetica,sans-Serif" font-size="10.00">::isMain</text>
</a>
</g>
</g>
<!-- Node13&#45;&gt;Node14 -->
<g id="edge15" class="edge">
<title>Node13&#45;&gt;Node14</title>
<path fill="none" stroke="midnightblue" d="M238.05,-161.84C249.34,-161.68 261.55,-161.51 273.34,-161.34"/>
<polygon fill="midnightblue" stroke="midnightblue" points="273.61,-164.84 283.56,-161.2 273.51,-157.84 273.61,-164.84"/>
</g>
</g>
</svg>
