<?xml version="1.0" encoding="UTF-8" standalone="no"?>
<!DOCTYPE svg PUBLIC "-//W3C//DTD SVG 1.1//EN"
 "http://www.w3.org/Graphics/SVG/1.1/DTD/svg11.dtd">
<!-- Generated by graphviz version 3.0.0 (20220226.1711)
 -->
<!-- Title: slljit::CompileError Pages: 1 -->
<svg width="328pt" height="95pt"
 viewBox="0.00 0.00 327.50 95.00" xmlns="http://www.w3.org/2000/svg" xmlns:xlink="http://www.w3.org/1999/xlink">
<g id="graph0" class="graph" transform="scale(1 1) rotate(0) translate(4 91)">
<title>slljit::CompileError</title>
<!-- Node1 -->
<g id="node1" class="node">
<title>Node1</title>
<g id="a_node1"><a xlink:title="Used to repseresnt CodeGen and compile() errors.">
<polygon fill="#bfbfbf" stroke="black" points="142.5,-0.5 142.5,-19.5 238.5,-19.5 238.5,-0.5 142.5,-0.5"/>
<text text-anchor="middle" x="190.5" y="-7.5" font-family="Helvetica,sans-Serif" font-size="10.00">slljit::CompileError</text>
</a>
</g>
</g>
<!-- Node2 -->
<g id="node2" class="node">
<title>Node2</title>
<g id="a_node2"><a xlink:href="class_error_info.html" target="_top" xlink:title=" ">
<polygon fill="none" stroke="black" points="0,-67.5 0,-86.5 127,-86.5 127,-67.5 0,-67.5"/>
<text text-anchor="middle" x="63.5" y="-74.5" font-family="Helvetica,sans-Serif" font-size="10.00">ErrorInfo&lt; CompileError &gt;</text>
</a>
</g>
</g>
<!-- Node2&#45;&gt;Node1 -->
<g id="edge1" class="edge">
<title>Node2&#45;&gt;Node1</title>
<path fill="none" stroke="midnightblue" d="M89.34,-62.77C114.5,-49.9 151.99,-30.71 173.57,-19.67"/>
<polygon fill="midnightblue" stroke="midnightblue" points="87.67,-59.7 80.36,-67.37 90.86,-65.93 87.67,-59.7"/>
</g>
<!-- Node3 -->
<g id="node3" class="node">
<title>Node3</title>
<g id="a_node3"><a xlink:title=" ">
<polygon fill="none" stroke="black" points="145,-67.5 145,-86.5 180,-86.5 180,-67.5 145,-67.5"/>
<text text-anchor="middle" x="162.5" y="-74.5" font-family="Helvetica,sans-Serif" font-size="10.00">char</text>
</a>
</g>
</g>
<!-- Node3&#45;&gt;Node1 -->
<g id="edge2" class="edge">
<title>Node3&#45;&gt;Node1</title>
<path fill="none" stroke="#9a32cd" stroke-dasharray="5,2" d="M170.34,-57.79C175.72,-45.31 182.61,-29.31 186.78,-19.63"/>
<polygon fill="#9a32cd" stroke="#9a32cd" points="167.02,-56.66 166.28,-67.23 173.45,-59.43 167.02,-56.66"/>
<text text-anchor="middle" x="184" y="-41" font-family="Helvetica,sans-Serif" font-size="10.00"> ID</text>
</g>
<!-- Node4 -->
<g id="node4" class="node">
<title>Node4</title>
<g id="a_node4"><a xlink:title=" ">
<polygon fill="none" stroke="black" points="198,-67.5 198,-86.5 239,-86.5 239,-67.5 198,-67.5"/>
<text text-anchor="middle" x="218.5" y="-74.5" font-family="Helvetica,sans-Serif" font-size="10.00">string</text>
</a>
</g>
</g>
<!-- Node4&#45;&gt;Node1 -->
<g id="edge3" class="edge">
<title>Node4&#45;&gt;Node1</title>
<path fill="none" stroke="#9a32cd" stroke-dasharray="5,2" d="M210.66,-57.79C205.28,-45.31 198.39,-29.31 194.22,-19.63"/>
<polygon fill="#9a32cd" stroke="#9a32cd" points="207.55,-59.43 214.72,-67.23 213.98,-56.66 207.55,-59.43"/>
<text text-anchor="middle" x="216.5" y="-41" font-family="Helvetica,sans-Serif" font-size="10.00"> Msg</text>
</g>
<!-- Node5 -->
<g id="node5" class="node">
<title>Node5</title>
<g id="a_node5"><a xlink:title=" ">
<polygon fill="none" stroke="black" points="257.5,-67.5 257.5,-86.5 319.5,-86.5 319.5,-67.5 257.5,-67.5"/>
<text text-anchor="middle" x="288.5" y="-74.5" font-family="Helvetica,sans-Serif" font-size="10.00">error_code</text>
</a>
</g>
</g>
<!-- Node5&#45;&gt;Node1 -->
<g id="edge4" class="edge">
<title>Node5&#45;&gt;Node1</title>
<path fill="none" stroke="#9a32cd" stroke-dasharray="5,2" d="M266.75,-61.46C256.13,-54.37 243.16,-45.72 231.5,-38 222.26,-31.88 211.84,-25.01 203.81,-19.74"/>
<polygon fill="#9a32cd" stroke="#9a32cd" points="265.12,-64.58 275.38,-67.22 269.01,-58.76 265.12,-64.58"/>
<text text-anchor="middle" x="255" y="-41" font-family="Helvetica,sans-Serif" font-size="10.00"> EC</text>
</g>
</g>
</svg>
