<?xml version="1.0" encoding="UTF-8" standalone="no"?>
<!DOCTYPE svg PUBLIC "-//W3C//DTD SVG 1.1//EN"
 "http://www.w3.org/Graphics/SVG/1.1/DTD/svg11.dtd">
<!-- Generated by graphviz version 3.0.0 (20220226.1711)
 -->
<!-- Title: slljit::NoOpAST Pages: 1 -->
<svg width="91pt" height="152pt"
 viewBox="0.00 0.00 91.00 152.00" xmlns="http://www.w3.org/2000/svg" xmlns:xlink="http://www.w3.org/1999/xlink">
<g id="graph0" class="graph" transform="scale(1 1) rotate(0) translate(4 148)">
<title>slljit::NoOpAST</title>
<!-- Node1 -->
<g id="node1" class="node">
<title>Node1</title>
<g id="a_node1"><a xlink:title="Expression class to represent NoOp.">
<polygon fill="#bfbfbf" stroke="black" points="0,-0.5 0,-19.5 83,-19.5 83,-0.5 0,-0.5"/>
<text text-anchor="middle" x="41.5" y="-7.5" font-family="Helvetica,sans-Serif" font-size="10.00">slljit::NoOpAST</text>
</a>
</g>
</g>
<!-- Node2 -->
<g id="node2" class="node">
<title>Node2</title>
<g id="a_node2"><a xlink:href="classslljit_1_1_expr_a_s_t.html" target="_top" xlink:title="Base class for all expression nodes.">
<polygon fill="none" stroke="black" points="2,-57.5 2,-76.5 81,-76.5 81,-57.5 2,-57.5"/>
<text text-anchor="middle" x="41.5" y="-64.5" font-family="Helvetica,sans-Serif" font-size="10.00">slljit::ExprAST</text>
</a>
</g>
</g>
<!-- Node2&#45;&gt;Node1 -->
<g id="edge1" class="edge">
<title>Node2&#45;&gt;Node1</title>
<path fill="none" stroke="midnightblue" d="M41.5,-47.12C41.5,-37.82 41.5,-27.06 41.5,-19.71"/>
<polygon fill="midnightblue" stroke="midnightblue" points="38,-47.41 41.5,-57.41 45,-47.41 38,-47.41"/>
</g>
<!-- Node3 -->
<g id="node3" class="node">
<title>Node3</title>
<g id="a_node3"><a xlink:title=" ">
<polygon fill="none" stroke="black" points="18,-124.5 18,-143.5 65,-143.5 65,-124.5 18,-124.5"/>
<text text-anchor="middle" x="41.5" y="-131.5" font-family="Helvetica,sans-Serif" font-size="10.00">TypeID</text>
</a>
</g>
</g>
<!-- Node3&#45;&gt;Node2 -->
<g id="edge2" class="edge">
<title>Node3&#45;&gt;Node2</title>
<path fill="none" stroke="#9a32cd" stroke-dasharray="5,2" d="M41.5,-114.04C41.5,-101.67 41.5,-86.12 41.5,-76.63"/>
<polygon fill="#9a32cd" stroke="#9a32cd" points="38,-114.23 41.5,-124.23 45,-114.23 38,-114.23"/>
<text text-anchor="middle" x="55.5" y="-98" font-family="Helvetica,sans-Serif" font-size="10.00"> type_</text>
</g>
</g>
</svg>
