<?xml version="1.0" encoding="UTF-8" standalone="no"?>
<!DOCTYPE svg PUBLIC "-//W3C//DTD SVG 1.1//EN"
 "http://www.w3.org/Graphics/SVG/1.1/DTD/svg11.dtd">
<!-- Generated by graphviz version 3.0.0 (20220226.1711)
 -->
<!-- Title: slljit::Parser::ParseExpressionList Pages: 1 -->
<svg width="1535pt" height="727pt"
 viewBox="0.00 0.00 1535.00 727.22" xmlns="http://www.w3.org/2000/svg" xmlns:xlink="http://www.w3.org/1999/xlink">
<g id="graph0" class="graph" transform="scale(1 1) rotate(0) translate(4 723.22)">
<title>slljit::Parser::ParseExpressionList</title>
<!-- Node1 -->
<g id="node1" class="node">
<title>Node1</title>
<g id="a_node1"><a xlink:title=" ">
<polygon fill="#bfbfbf" stroke="black" points="0,-213.22 0,-232.22 164,-232.22 164,-213.22 0,-213.22"/>
<text text-anchor="middle" x="82" y="-220.22" font-family="Helvetica,sans-Serif" font-size="10.00">slljit::Parser::ParseExpressionList</text>
</a>
</g>
</g>
<!-- Node2 -->
<g id="node2" class="node">
<title>Node2</title>
<g id="a_node2"><a xlink:href="classslljit_1_1_tokenizer.html#a0baa2e9dbe626f0475ee4206f16bbb4e" target="_top" xlink:title=" ">
<polygon fill="none" stroke="black" points="1261,-322.72 1261,-352.72 1365,-352.72 1365,-322.72 1261,-322.72"/>
<text text-anchor="start" x="1269" y="-340.72" font-family="Helvetica,sans-Serif" font-size="10.00">slljit::Tokenizer::</text>
<text text-anchor="middle" x="1313" y="-329.72" font-family="Helvetica,sans-Serif" font-size="10.00">get_source_location</text>
</a>
</g>
</g>
<!-- Node1&#45;&gt;Node2 -->
<g id="edge1" class="edge">
<title>Node1&#45;&gt;Node2</title>
<path fill="none" stroke="midnightblue" d="M100.83,-213.16C179.82,-171.71 506.95,-9.72 795,-9.72 795,-9.72 795,-9.72 978,-9.72 1088.87,-9.72 1141.02,27.67 1225,-44.72 1305.63,-114.23 1313.32,-254.75 1312.87,-312.28"/>
<polygon fill="midnightblue" stroke="midnightblue" points="1309.36,-312.58 1312.69,-322.64 1316.36,-312.7 1309.36,-312.58"/>
</g>
<!-- Node3 -->
<g id="node3" class="node">
<title>Node3</title>
<g id="a_node3"><a xlink:href="classslljit_1_1_parser.html#a9fcfefd86a6000dcb40fa737361ea55b" target="_top" xlink:title="GetTokPrecedence &#45; Get the precedence of the pending binary operator token.">
<polygon fill="none" stroke="black" points="1091,-475.22 1091,-494.22 1225,-494.22 1225,-475.22 1091,-475.22"/>
<text text-anchor="middle" x="1158" y="-482.22" font-family="Helvetica,sans-Serif" font-size="10.00">slljit::Parser::getNextToken</text>
</a>
</g>
</g>
<!-- Node1&#45;&gt;Node3 -->
<g id="edge2" class="edge">
<title>Node1&#45;&gt;Node3</title>
<path fill="none" stroke="midnightblue" d="M88.18,-232.54C102.79,-259.51 146.75,-336.02 200,-384.72 270.58,-449.29 297.07,-457.06 385,-494.72 659.31,-612.23 766.34,-614.42 1055,-538.72 1084.75,-530.92 1115.49,-513.06 1135.34,-500.01"/>
<polygon fill="midnightblue" stroke="midnightblue" points="1137.32,-502.9 1143.66,-494.41 1133.41,-497.1 1137.32,-502.9"/>
</g>
<!-- Node11 -->
<g id="node11" class="node">
<title>Node11</title>
<g id="a_node11"><a xlink:href="classslljit_1_1_parser.html#a79461bf414d03dcabb49d3bbd6f89607" target="_top" xlink:title=" ">
<polygon fill="none" stroke="black" points="200,-356.22 200,-375.22 349,-375.22 349,-356.22 200,-356.22"/>
<text text-anchor="middle" x="274.5" y="-363.22" font-family="Helvetica,sans-Serif" font-size="10.00">slljit::Parser::ParseExpression</text>
</a>
</g>
</g>
<!-- Node1&#45;&gt;Node11 -->
<g id="edge11" class="edge">
<title>Node1&#45;&gt;Node11</title>
<path fill="none" stroke="midnightblue" d="M95.8,-232.33C128.06,-256.55 212.98,-320.29 252.59,-350.03"/>
<polygon fill="midnightblue" stroke="midnightblue" points="250.66,-352.96 260.76,-356.16 254.86,-347.36 250.66,-352.96"/>
</g>
<!-- Node4 -->
<g id="node4" class="node">
<title>Node4</title>
<g id="a_node4"><a xlink:href="classslljit_1_1_tokenizer.html#a4f0b343321f5e4561a80e47a5cec05d2" target="_top" xlink:title=" ">
<polygon fill="none" stroke="black" points="1269,-469.72 1269,-499.72 1357,-499.72 1357,-469.72 1269,-469.72"/>
<text text-anchor="start" x="1277" y="-487.72" font-family="Helvetica,sans-Serif" font-size="10.00">slljit::Tokenizer::</text>
<text text-anchor="middle" x="1313" y="-476.72" font-family="Helvetica,sans-Serif" font-size="10.00">gettok</text>
</a>
</g>
</g>
<!-- Node3&#45;&gt;Node4 -->
<g id="edge3" class="edge">
<title>Node3&#45;&gt;Node4</title>
<path fill="none" stroke="midnightblue" d="M1225.22,-484.72C1236.36,-484.72 1247.79,-484.72 1258.56,-484.72"/>
<polygon fill="midnightblue" stroke="midnightblue" points="1258.64,-488.22 1268.64,-484.72 1258.64,-481.22 1258.64,-488.22"/>
</g>
<!-- Node4&#45;&gt;Node4 -->
<g id="edge5" class="edge">
<title>Node4&#45;&gt;Node4</title>
<path fill="none" stroke="midnightblue" d="M1286.86,-499.88C1280.56,-509.28 1289.27,-518.22 1313,-518.22 1327.46,-518.22 1336.35,-514.9 1339.65,-510.18"/>
<polygon fill="midnightblue" stroke="midnightblue" points="1343.13,-509.7 1339.14,-499.88 1336.14,-510.04 1343.13,-509.7"/>
</g>
<!-- Node5 -->
<g id="node5" class="node">
<title>Node5</title>
<g id="a_node5"><a xlink:href="classslljit_1_1_tokenizer.html#aebe79ebb0da26fa5e89963683d474402" target="_top" xlink:title=" ">
<polygon fill="none" stroke="black" points="1420,-592.72 1420,-622.72 1508,-622.72 1508,-592.72 1420,-592.72"/>
<text text-anchor="start" x="1428" y="-610.72" font-family="Helvetica,sans-Serif" font-size="10.00">slljit::Tokenizer::</text>
<text text-anchor="middle" x="1464" y="-599.72" font-family="Helvetica,sans-Serif" font-size="10.00">_getchar</text>
</a>
</g>
</g>
<!-- Node4&#45;&gt;Node5 -->
<g id="edge4" class="edge">
<title>Node4&#45;&gt;Node5</title>
<path fill="none" stroke="midnightblue" d="M1323.76,-499.84C1338.26,-521.21 1367.42,-560.27 1401,-583.72 1404.07,-585.86 1407.35,-587.85 1410.75,-589.68"/>
<polygon fill="midnightblue" stroke="midnightblue" points="1409.41,-592.92 1419.93,-594.18 1412.49,-586.64 1409.41,-592.92"/>
</g>
<!-- Node6 -->
<g id="node6" class="node">
<title>Node6</title>
<g id="a_node6"><a xlink:href="classslljit_1_1_tokenizer.html#ac5b5748065cb054e0f34d995d1f3edce" target="_top" xlink:title=" ">
<polygon fill="none" stroke="black" points="1420,-543.72 1420,-573.72 1508,-573.72 1508,-543.72 1420,-543.72"/>
<text text-anchor="start" x="1428" y="-561.72" font-family="Helvetica,sans-Serif" font-size="10.00">slljit::Tokenizer::</text>
<text text-anchor="middle" x="1464" y="-550.72" font-family="Helvetica,sans-Serif" font-size="10.00">is_id_char</text>
</a>
</g>
</g>
<!-- Node4&#45;&gt;Node6 -->
<g id="edge6" class="edge">
<title>Node4&#45;&gt;Node6</title>
<path fill="none" stroke="midnightblue" d="M1337.84,-499.74C1355.04,-510.25 1378.99,-524.21 1401,-534.72 1404.59,-536.44 1408.33,-538.12 1412.13,-539.76"/>
<polygon fill="midnightblue" stroke="midnightblue" points="1411.03,-543.09 1421.61,-543.71 1413.72,-536.63 1411.03,-543.09"/>
</g>
<!-- Node7 -->
<g id="node7" class="node">
<title>Node7</title>
<g id="a_node7"><a xlink:href="classslljit_1_1_tokenizer.html#afddb21e93063a4c2338c2d42e23d18d2" target="_top" xlink:title=" ">
<polygon fill="none" stroke="black" points="1420,-494.72 1420,-524.72 1508,-524.72 1508,-494.72 1420,-494.72"/>
<text text-anchor="start" x="1428" y="-512.72" font-family="Helvetica,sans-Serif" font-size="10.00">slljit::Tokenizer::</text>
<text text-anchor="middle" x="1464" y="-501.72" font-family="Helvetica,sans-Serif" font-size="10.00">is_id_start_char</text>
</a>
</g>
</g>
<!-- Node4&#45;&gt;Node7 -->
<g id="edge7" class="edge">
<title>Node4&#45;&gt;Node7</title>
<path fill="none" stroke="midnightblue" d="M1357.1,-491.95C1373.62,-494.73 1392.67,-497.92 1410.02,-500.83"/>
<polygon fill="midnightblue" stroke="midnightblue" points="1409.56,-504.3 1420,-502.51 1410.72,-497.4 1409.56,-504.3"/>
</g>
<!-- Node8 -->
<g id="node8" class="node">
<title>Node8</title>
<g id="a_node8"><a xlink:href="classslljit_1_1_tokenizer.html#ada986d1651ab242c370288c198cd726d" target="_top" xlink:title=" ">
<polygon fill="none" stroke="black" points="1401,-445.72 1401,-475.72 1527,-475.72 1527,-445.72 1401,-445.72"/>
<text text-anchor="start" x="1409" y="-463.72" font-family="Helvetica,sans-Serif" font-size="10.00">slljit::Tokenizer::</text>
<text text-anchor="middle" x="1464" y="-452.72" font-family="Helvetica,sans-Serif" font-size="10.00">is_reserved_command_id</text>
</a>
</g>
</g>
<!-- Node4&#45;&gt;Node8 -->
<g id="edge8" class="edge">
<title>Node4&#45;&gt;Node8</title>
<path fill="none" stroke="midnightblue" d="M1357.1,-477.78C1367.67,-476.08 1379.27,-474.21 1390.8,-472.35"/>
<polygon fill="midnightblue" stroke="midnightblue" points="1391.56,-475.77 1400.88,-470.73 1390.45,-468.86 1391.56,-475.77"/>
</g>
<!-- Node9 -->
<g id="node9" class="node">
<title>Node9</title>
<g id="a_node9"><a xlink:href="classslljit_1_1_tokenizer.html#ab29a7d2f06bb354a3f748106f5ea3e6c" target="_top" xlink:title=" ">
<polygon fill="none" stroke="black" points="1419.5,-396.72 1419.5,-426.72 1508.5,-426.72 1508.5,-396.72 1419.5,-396.72"/>
<text text-anchor="start" x="1427.5" y="-414.72" font-family="Helvetica,sans-Serif" font-size="10.00">slljit::Tokenizer::</text>
<text text-anchor="middle" x="1464" y="-403.72" font-family="Helvetica,sans-Serif" font-size="10.00">is_special_literal</text>
</a>
</g>
</g>
<!-- Node4&#45;&gt;Node9 -->
<g id="edge9" class="edge">
<title>Node4&#45;&gt;Node9</title>
<path fill="none" stroke="midnightblue" d="M1339.46,-469.61C1356.58,-459.71 1379.81,-446.79 1401,-436.72 1405.29,-434.68 1409.8,-432.65 1414.34,-430.69"/>
<polygon fill="midnightblue" stroke="midnightblue" points="1415.81,-433.87 1423.66,-426.75 1413.09,-427.42 1415.81,-433.87"/>
</g>
<!-- Node10 -->
<g id="node10" class="node">
<title>Node10</title>
<g id="a_node10"><a xlink:href="classslljit_1_1_tokenizer.html#ae5cc0911ed858f6bc7bf206928cd66ae" target="_top" xlink:title=" ">
<polygon fill="none" stroke="black" points="1420,-347.72 1420,-377.72 1508,-377.72 1508,-347.72 1420,-347.72"/>
<text text-anchor="start" x="1428" y="-365.72" font-family="Helvetica,sans-Serif" font-size="10.00">slljit::Tokenizer::</text>
<text text-anchor="middle" x="1464" y="-354.72" font-family="Helvetica,sans-Serif" font-size="10.00">set_lok_location</text>
</a>
</g>
</g>
<!-- Node4&#45;&gt;Node10 -->
<g id="edge10" class="edge">
<title>Node4&#45;&gt;Node10</title>
<path fill="none" stroke="midnightblue" d="M1324.13,-469.63C1338.85,-448.7 1368.03,-410.84 1401,-387.72 1404.08,-385.56 1407.37,-383.55 1410.78,-381.68"/>
<polygon fill="midnightblue" stroke="midnightblue" points="1412.61,-384.68 1419.97,-377.07 1409.47,-378.42 1412.61,-384.68"/>
</g>
<!-- Node12 -->
<g id="node12" class="node">
<title>Node12</title>
<g id="a_node12"><a xlink:href="classslljit_1_1_parser.html#ae387c9672ec50720d8cb969558aedbe9" target="_top" xlink:title=" ">
<polygon fill="none" stroke="black" points="385,-376.72 385,-406.72 499,-406.72 499,-376.72 385,-376.72"/>
<text text-anchor="start" x="393" y="-394.72" font-family="Helvetica,sans-Serif" font-size="10.00">slljit::Parser::ParseBin</text>
<text text-anchor="middle" x="442" y="-383.72" font-family="Helvetica,sans-Serif" font-size="10.00">OpRHS</text>
</a>
</g>
</g>
<!-- Node11&#45;&gt;Node12 -->
<g id="edge12" class="edge">
<title>Node11&#45;&gt;Node12</title>
<path fill="none" stroke="midnightblue" d="M336.19,-375.26C348.78,-377.23 362.11,-379.33 374.89,-381.34"/>
<polygon fill="midnightblue" stroke="midnightblue" points="374.57,-384.83 384.99,-382.92 375.65,-377.91 374.57,-384.83"/>
</g>
<!-- Node14 -->
<g id="node14" class="node">
<title>Node14</title>
<g id="a_node14"><a xlink:href="classslljit_1_1_parser.html#af8579896f39ac563d2edd14404d70f41" target="_top" xlink:title=" ">
<polygon fill="none" stroke="black" points="551.5,-454.22 551.5,-473.22 676.5,-473.22 676.5,-454.22 551.5,-454.22"/>
<text text-anchor="middle" x="614" y="-461.22" font-family="Helvetica,sans-Serif" font-size="10.00">slljit::Parser::ParseUnary</text>
</a>
</g>
</g>
<!-- Node11&#45;&gt;Node14 -->
<g id="edge59" class="edge">
<title>Node11&#45;&gt;Node14</title>
<path fill="none" stroke="midnightblue" d="M287.07,-375.46C306.11,-390.9 345.87,-420.69 385,-434.72 435.28,-452.76 495.33,-459.86 541.17,-462.53"/>
<polygon fill="midnightblue" stroke="midnightblue" points="541.15,-466.04 551.32,-463.07 541.52,-459.05 541.15,-466.04"/>
</g>
<!-- Node12&#45;&gt;Node3 -->
<g id="edge13" class="edge">
<title>Node12&#45;&gt;Node3</title>
<path fill="none" stroke="midnightblue" d="M499.39,-401.27C511.14,-403.17 523.47,-405.07 535,-406.72 765.51,-439.69 824.09,-440.67 1055,-470.72 1063.34,-471.81 1072.07,-472.97 1080.75,-474.14"/>
<polygon fill="midnightblue" stroke="midnightblue" points="1080.52,-477.64 1090.9,-475.51 1081.46,-470.7 1080.52,-477.64"/>
</g>
<!-- Node12&#45;&gt;Node12 -->
<g id="edge15" class="edge">
<title>Node12&#45;&gt;Node12</title>
<path fill="none" stroke="midnightblue" d="M413.07,-406.88C406.1,-416.28 415.74,-425.22 442,-425.22 458,-425.22 467.84,-421.9 471.5,-417.18"/>
<polygon fill="midnightblue" stroke="midnightblue" points="474.97,-416.67 470.93,-406.88 467.98,-417.06 474.97,-416.67"/>
</g>
<!-- Node13 -->
<g id="node13" class="node">
<title>Node13</title>
<g id="a_node13"><a xlink:href="classslljit_1_1_parser.html#a8485bea3e380a80c8296092996c9ef96" target="_top" xlink:title="Get the precedence of the pending binary operator token.">
<polygon fill="none" stroke="black" points="535,-378.22 535,-397.22 693,-397.22 693,-378.22 535,-378.22"/>
<text text-anchor="middle" x="614" y="-385.22" font-family="Helvetica,sans-Serif" font-size="10.00">slljit::Parser::GetTokPrecedence</text>
</a>
</g>
</g>
<!-- Node12&#45;&gt;Node13 -->
<g id="edge14" class="edge">
<title>Node12&#45;&gt;Node13</title>
<path fill="none" stroke="midnightblue" d="M499.14,-390.4C507.34,-390.21 515.95,-390.01 524.6,-389.8"/>
<polygon fill="midnightblue" stroke="midnightblue" points="524.85,-393.3 534.77,-389.56 524.69,-386.3 524.85,-393.3"/>
</g>
<!-- Node12&#45;&gt;Node14 -->
<g id="edge16" class="edge">
<title>Node12&#45;&gt;Node14</title>
<path fill="none" stroke="midnightblue" d="M468.96,-406.9C487.07,-417.07 512,-430.28 535,-439.72 545.34,-443.97 556.7,-447.87 567.49,-451.25"/>
<polygon fill="midnightblue" stroke="midnightblue" points="566.6,-454.64 577.18,-454.19 568.63,-447.94 566.6,-454.64"/>
</g>
<!-- Node14&#45;&gt;Node3 -->
<g id="edge17" class="edge">
<title>Node14&#45;&gt;Node3</title>
<path fill="none" stroke="midnightblue" d="M676.65,-466.11C776.23,-469.97 972.25,-477.56 1080.57,-481.76"/>
<polygon fill="midnightblue" stroke="midnightblue" points="1080.64,-485.27 1090.77,-482.16 1080.91,-478.27 1080.64,-485.27"/>
</g>
<!-- Node14&#45;&gt;Node14 -->
<g id="edge58" class="edge">
<title>Node14&#45;&gt;Node14</title>
<path fill="none" stroke="midnightblue" d="M587.49,-473.48C574.59,-482.29 583.43,-491.72 614,-491.72 634.54,-491.72 645.27,-487.46 646.19,-482"/>
<polygon fill="midnightblue" stroke="midnightblue" points="648.97,-479.86 640.51,-473.48 643.14,-483.74 648.97,-479.86"/>
</g>
<!-- Node15 -->
<g id="node15" class="node">
<title>Node15</title>
<g id="a_node15"><a xlink:href="classslljit_1_1_parser.html#a45cb3e4f600e8e2c253490e7d878e8cd" target="_top" xlink:title=" ">
<polygon fill="none" stroke="black" points="729,-382.22 729,-401.22 863,-401.22 863,-382.22 729,-382.22"/>
<text text-anchor="middle" x="796" y="-389.22" font-family="Helvetica,sans-Serif" font-size="10.00">slljit::Parser::ParsePrimary</text>
</a>
</g>
</g>
<!-- Node14&#45;&gt;Node15 -->
<g id="edge18" class="edge">
<title>Node14&#45;&gt;Node15</title>
<path fill="none" stroke="midnightblue" d="M638.9,-454.16C670.37,-441.57 725.87,-419.38 761.51,-405.12"/>
<polygon fill="midnightblue" stroke="midnightblue" points="763.01,-408.29 771,-401.32 760.41,-401.79 763.01,-408.29"/>
</g>
<!-- Node15&#45;&gt;Node2 -->
<g id="edge19" class="edge">
<title>Node15&#45;&gt;Node2</title>
<path fill="none" stroke="midnightblue" d="M863.37,-400.1C966.55,-412.15 1160.3,-430.52 1225,-407.72 1251.4,-398.42 1275.69,-377.35 1291.86,-360.74"/>
<polygon fill="midnightblue" stroke="midnightblue" points="1294.82,-362.7 1299.12,-353.01 1289.72,-357.9 1294.82,-362.7"/>
</g>
<!-- Node16 -->
<g id="node16" class="node">
<title>Node16</title>
<g id="a_node16"><a xlink:href="classslljit_1_1_parser.html#a81023e7a6221eb6b92027bd21433c9dd" target="_top" xlink:title="forexpr ::= &#39;for&#39; identifier &#39;=&#39; expr &#39;,&#39; expr (&#39;,&#39; expr)? &#39;in&#39; expression">
<polygon fill="none" stroke="black" points="910,-213.22 910,-232.22 1044,-232.22 1044,-213.22 910,-213.22"/>
<text text-anchor="middle" x="977" y="-220.22" font-family="Helvetica,sans-Serif" font-size="10.00">slljit::Parser::ParseForExpr</text>
</a>
</g>
</g>
<!-- Node15&#45;&gt;Node16 -->
<g id="edge20" class="edge">
<title>Node15&#45;&gt;Node16</title>
<path fill="none" stroke="midnightblue" d="M807.14,-382.15C836.29,-354.63 920.65,-274.98 957.92,-239.79"/>
<polygon fill="midnightblue" stroke="midnightblue" points="960.66,-242.02 965.53,-232.61 955.85,-236.93 960.66,-242.02"/>
</g>
<!-- Node19 -->
<g id="node19" class="node">
<title>Node19</title>
<g id="a_node19"><a xlink:href="classslljit_1_1_parser.html#a25cfefcbeea85744e23370d3a6f8ad5b" target="_top" xlink:title=" ">
<polygon fill="none" stroke="black" points="899,-320.22 899,-339.22 1055,-339.22 1055,-320.22 899,-320.22"/>
<text text-anchor="middle" x="977" y="-327.22" font-family="Helvetica,sans-Serif" font-size="10.00">slljit::Parser::ParseIdentifierExpr</text>
</a>
</g>
</g>
<!-- Node15&#45;&gt;Node19 -->
<g id="edge27" class="edge">
<title>Node15&#45;&gt;Node19</title>
<path fill="none" stroke="midnightblue" d="M816.96,-382.2C837.27,-372.78 869.82,-358.41 899,-348.72 906.44,-346.25 914.38,-343.94 922.24,-341.84"/>
<polygon fill="midnightblue" stroke="midnightblue" points="923.28,-345.19 932.09,-339.3 921.53,-338.41 923.28,-345.19"/>
</g>
<!-- Node23 -->
<g id="node23" class="node">
<title>Node23</title>
<g id="a_node23"><a xlink:href="classslljit_1_1_parser.html#a149f5e88cb03aa08c388e6320c6c1bac" target="_top" xlink:title="ifexpr ::= &#39;if&#39; expression &#39;then&#39; expression &#39;else&#39; expression">
<polygon fill="none" stroke="black" points="914.5,-131.22 914.5,-150.22 1039.5,-150.22 1039.5,-131.22 914.5,-131.22"/>
<text text-anchor="middle" x="977" y="-138.22" font-family="Helvetica,sans-Serif" font-size="10.00">slljit::Parser::ParseIfExpr</text>
</a>
</g>
</g>
<!-- Node15&#45;&gt;Node23 -->
<g id="edge35" class="edge">
<title>Node15&#45;&gt;Node23</title>
<path fill="none" stroke="midnightblue" d="M800.72,-381.93C812.15,-352.66 849.06,-264.1 899,-203.72 914.42,-185.08 936.02,-167.98 952.41,-156.31"/>
<polygon fill="midnightblue" stroke="midnightblue" points="954.69,-158.99 960.92,-150.42 950.71,-153.24 954.69,-158.99"/>
</g>
<!-- Node24 -->
<g id="node24" class="node">
<title>Node24</title>
<g id="a_node24"><a xlink:href="classslljit_1_1_parser.html#af9ccc5948e2cf9051c2569cc42dc3bb7" target="_top" xlink:title="numberexpr ::= number">
<polygon fill="none" stroke="black" points="904,-358.22 904,-377.22 1050,-377.22 1050,-358.22 904,-358.22"/>
<text text-anchor="middle" x="977" y="-365.22" font-family="Helvetica,sans-Serif" font-size="10.00">slljit::Parser::ParseLiteralExpr</text>
</a>
</g>
</g>
<!-- Node15&#45;&gt;Node24 -->
<g id="edge42" class="edge">
<title>Node15&#45;&gt;Node24</title>
<path fill="none" stroke="midnightblue" d="M863.14,-382.85C873.48,-381.47 884.27,-380.02 894.9,-378.6"/>
<polygon fill="midnightblue" stroke="midnightblue" points="895.57,-382.04 905.02,-377.24 894.64,-375.1 895.57,-382.04"/>
</g>
<!-- Node26 -->
<g id="node26" class="node">
<title>Node26</title>
<g id="a_node26"><a xlink:href="classslljit_1_1_parser.html#a6e2e0f6a2cc445f3a956db59c8d2da66" target="_top" xlink:title="parenexpr ::= &#39;(&#39; expression &#39;)&#39;">
<polygon fill="none" stroke="black" points="904,-510.22 904,-529.22 1050,-529.22 1050,-510.22 904,-510.22"/>
<text text-anchor="middle" x="977" y="-517.22" font-family="Helvetica,sans-Serif" font-size="10.00">slljit::Parser::ParseParenExpr</text>
</a>
</g>
</g>
<!-- Node15&#45;&gt;Node26 -->
<g id="edge46" class="edge">
<title>Node15&#45;&gt;Node26</title>
<path fill="none" stroke="midnightblue" d="M810.45,-401.34C841.16,-423.3 916.66,-477.29 954.15,-504.1"/>
<polygon fill="midnightblue" stroke="midnightblue" points="952.22,-507.02 962.39,-509.99 956.29,-501.33 952.22,-507.02"/>
</g>
<!-- Node27 -->
<g id="node27" class="node">
<title>Node27</title>
<g id="a_node27"><a xlink:href="classslljit_1_1_parser.html#a435877d3f2869d140a7cca646546a114" target="_top" xlink:title="varexpr ::= &#39;g_var&#39; identifier (&#39;=&#39; expression)?">
<polygon fill="none" stroke="black" points="909.5,-586.22 909.5,-605.22 1044.5,-605.22 1044.5,-586.22 909.5,-586.22"/>
<text text-anchor="middle" x="977" y="-593.22" font-family="Helvetica,sans-Serif" font-size="10.00">slljit::Parser::ParseVarExpr</text>
</a>
</g>
</g>
<!-- Node15&#45;&gt;Node27 -->
<g id="edge50" class="edge">
<title>Node15&#45;&gt;Node27</title>
<path fill="none" stroke="midnightblue" d="M802.25,-401.46C815.93,-426.25 854.67,-493.01 899,-538.72 914.68,-554.89 935.32,-569.9 951.28,-580.46"/>
<polygon fill="midnightblue" stroke="midnightblue" points="949.77,-583.65 960.07,-586.13 953.57,-577.77 949.77,-583.65"/>
</g>
<!-- Node16&#45;&gt;Node1 -->
<g id="edge24" class="edge">
<title>Node16&#45;&gt;Node1</title>
<path fill="none" stroke="midnightblue" d="M909.8,-222.72C837.39,-222.72 717.94,-222.72 615,-222.72 441,-222.72 441,-222.72 441,-222.72 350.36,-222.72 246.82,-222.72 174.48,-222.72"/>
<polygon fill="midnightblue" stroke="midnightblue" points="174.04,-219.22 164.04,-222.72 174.04,-226.22 174.04,-219.22"/>
</g>
<!-- Node16&#45;&gt;Node2 -->
<g id="edge21" class="edge">
<title>Node16&#45;&gt;Node2</title>
<path fill="none" stroke="midnightblue" d="M1012.96,-213.19C1062.94,-201.56 1156.34,-187.39 1225,-221.72 1263.07,-240.76 1288.8,-285.24 1301.89,-313.26"/>
<polygon fill="midnightblue" stroke="midnightblue" points="1298.7,-314.72 1305.99,-322.42 1305.09,-311.86 1298.7,-314.72"/>
</g>
<!-- Node16&#45;&gt;Node3 -->
<g id="edge22" class="edge">
<title>Node16&#45;&gt;Node3</title>
<path fill="none" stroke="midnightblue" d="M988.04,-232.24C1003.83,-247.61 1034.74,-279.34 1055,-310.72 1075.93,-343.14 1071.92,-356.19 1091,-389.72 1107.05,-417.92 1129.13,-448.37 1143.23,-466.99"/>
<polygon fill="midnightblue" stroke="midnightblue" points="1140.6,-469.31 1149.46,-475.12 1146.16,-465.05 1140.6,-469.31"/>
</g>
<!-- Node16&#45;&gt;Node11 -->
<g id="edge23" class="edge">
<title>Node16&#45;&gt;Node11</title>
<path fill="none" stroke="midnightblue" d="M929.1,-232.3C804.84,-257.66 467.37,-326.55 332.41,-354.11"/>
<polygon fill="midnightblue" stroke="midnightblue" points="331.37,-350.74 322.28,-356.17 332.77,-357.6 331.37,-350.74"/>
</g>
<!-- Node17 -->
<g id="node17" class="node">
<title>Node17</title>
<g id="a_node17"><a xlink:href="classslljit_1_1_parser.html#ae7a9c738da8b5802b80001e306ad668b" target="_top" xlink:title=" ">
<polygon fill="none" stroke="black" points="1113,-125.72 1113,-155.72 1203,-155.72 1203,-125.72 1113,-125.72"/>
<text text-anchor="start" x="1121" y="-143.72" font-family="Helvetica,sans-Serif" font-size="10.00">slljit::Parser::pop</text>
<text text-anchor="middle" x="1158" y="-132.72" font-family="Helvetica,sans-Serif" font-size="10.00">_scope</text>
</a>
</g>
</g>
<!-- Node16&#45;&gt;Node17 -->
<g id="edge25" class="edge">
<title>Node16&#45;&gt;Node17</title>
<path fill="none" stroke="midnightblue" d="M998.81,-213.11C1021.48,-202.65 1058.79,-185.45 1091,-170.72 1098.57,-167.26 1106.63,-163.59 1114.42,-160.04"/>
<polygon fill="midnightblue" stroke="midnightblue" points="1116.09,-163.13 1123.75,-155.8 1113.2,-156.75 1116.09,-163.13"/>
</g>
<!-- Node18 -->
<g id="node18" class="node">
<title>Node18</title>
<g id="a_node18"><a xlink:href="classslljit_1_1_parser.html#a07488f6e4f1ec72ba5c6f04ad550b7a3" target="_top" xlink:title=" ">
<polygon fill="none" stroke="black" points="1110.5,-76.72 1110.5,-106.72 1205.5,-106.72 1205.5,-76.72 1110.5,-76.72"/>
<text text-anchor="start" x="1118.5" y="-94.72" font-family="Helvetica,sans-Serif" font-size="10.00">slljit::Parser::push</text>
<text text-anchor="middle" x="1158" y="-83.72" font-family="Helvetica,sans-Serif" font-size="10.00">_scope</text>
</a>
</g>
</g>
<!-- Node16&#45;&gt;Node18 -->
<g id="edge26" class="edge">
<title>Node16&#45;&gt;Node18</title>
<path fill="none" stroke="midnightblue" d="M991.2,-213.2C1007.09,-201.45 1034.24,-180.49 1055,-159.72 1072.87,-141.86 1070.39,-130.34 1091,-115.72 1094.21,-113.45 1097.66,-111.36 1101.23,-109.46"/>
<polygon fill="midnightblue" stroke="midnightblue" points="1102.83,-112.58 1110.32,-105.09 1099.8,-106.27 1102.83,-112.58"/>
</g>
<!-- Node19&#45;&gt;Node2 -->
<g id="edge32" class="edge">
<title>Node19&#45;&gt;Node2</title>
<path fill="none" stroke="midnightblue" d="M986.12,-320.1C1003.16,-300.73 1044.91,-257.55 1091,-241.72 1147.33,-222.38 1170.55,-217.59 1225,-241.72 1258.04,-256.37 1283.88,-290.45 1298.54,-313.79"/>
<polygon fill="midnightblue" stroke="midnightblue" points="1295.6,-315.71 1303.78,-322.45 1301.59,-312.09 1295.6,-315.71"/>
</g>
<!-- Node19&#45;&gt;Node3 -->
<g id="edge33" class="edge">
<title>Node19&#45;&gt;Node3</title>
<path fill="none" stroke="midnightblue" d="M1035.78,-339.31C1042.57,-341.76 1049.14,-344.85 1055,-348.72 1066.97,-356.65 1119.69,-431.12 1144.28,-466.38"/>
<polygon fill="midnightblue" stroke="midnightblue" points="1141.57,-468.61 1150.15,-474.82 1147.31,-464.61 1141.57,-468.61"/>
</g>
<!-- Node19&#45;&gt;Node11 -->
<g id="edge34" class="edge">
<title>Node19&#45;&gt;Node11</title>
<path fill="none" stroke="midnightblue" d="M898.84,-333.69C766.22,-340.5 496.14,-354.38 359.17,-361.42"/>
<polygon fill="midnightblue" stroke="midnightblue" points="358.95,-357.93 349.14,-361.94 359.31,-364.92 358.95,-357.93"/>
</g>
<!-- Node20 -->
<g id="node20" class="node">
<title>Node20</title>
<g id="a_node20"><a xlink:href="classslljit_1_1_parser.html#a4c93eea2333b7705c6aea18df2105196" target="_top" xlink:title=" ">
<polygon fill="none" stroke="black" points="1113.5,-251.72 1113.5,-281.72 1202.5,-281.72 1202.5,-251.72 1113.5,-251.72"/>
<text text-anchor="start" x="1121.5" y="-269.72" font-family="Helvetica,sans-Serif" font-size="10.00">slljit::Parser::find</text>
<text text-anchor="middle" x="1158" y="-258.72" font-family="Helvetica,sans-Serif" font-size="10.00">_var_in_scope</text>
</a>
</g>
</g>
<!-- Node19&#45;&gt;Node20 -->
<g id="edge28" class="edge">
<title>Node19&#45;&gt;Node20</title>
<path fill="none" stroke="midnightblue" d="M1005.19,-320.15C1031.42,-310.92 1071.84,-296.7 1104.38,-285.24"/>
<polygon fill="midnightblue" stroke="midnightblue" points="1105.93,-288.41 1114.2,-281.79 1103.6,-281.81 1105.93,-288.41"/>
</g>
<!-- Node21 -->
<g id="node21" class="node">
<title>Node21</title>
<g id="a_node21"><a xlink:href="classslljit_1_1_parser.html#aee4666b5cca40f389e2458033d9006e3" target="_top" xlink:title=" ">
<polygon fill="none" stroke="black" points="1097,-300.72 1097,-330.72 1219,-330.72 1219,-300.72 1097,-300.72"/>
<text text-anchor="start" x="1105" y="-318.72" font-family="Helvetica,sans-Serif" font-size="10.00">slljit::Parser::get</text>
<text text-anchor="middle" x="1158" y="-307.72" font-family="Helvetica,sans-Serif" font-size="10.00">_current_function_scope</text>
</a>
</g>
</g>
<!-- Node19&#45;&gt;Node21 -->
<g id="edge30" class="edge">
<title>Node19&#45;&gt;Node21</title>
<path fill="none" stroke="midnightblue" d="M1055.21,-323.68C1065.64,-322.87 1076.3,-322.03 1086.61,-321.23"/>
<polygon fill="midnightblue" stroke="midnightblue" points="1087.07,-324.7 1096.77,-320.43 1086.53,-317.72 1087.07,-324.7"/>
</g>
<!-- Node22 -->
<g id="node22" class="node">
<title>Node22</title>
<g id="a_node22"><a xlink:href="classslljit_1_1_tokenizer.html#a6270acd003b9e0a1323c1fdd54cd2fe2" target="_top" xlink:title=" ">
<polygon fill="none" stroke="black" points="1114,-551.72 1114,-581.72 1202,-581.72 1202,-551.72 1114,-551.72"/>
<text text-anchor="start" x="1122" y="-569.72" font-family="Helvetica,sans-Serif" font-size="10.00">slljit::Tokenizer::</text>
<text text-anchor="middle" x="1158" y="-558.72" font-family="Helvetica,sans-Serif" font-size="10.00">get_identifier</text>
</a>
</g>
</g>
<!-- Node19&#45;&gt;Node22 -->
<g id="edge31" class="edge">
<title>Node19&#45;&gt;Node22</title>
<path fill="none" stroke="midnightblue" d="M1042.05,-339.29C1046.82,-341.8 1051.23,-344.9 1055,-348.72 1104.66,-399.07 1055.96,-442.29 1091,-503.72 1100.1,-519.67 1114.49,-534.1 1127.52,-545.11"/>
<polygon fill="midnightblue" stroke="midnightblue" points="1125.43,-547.92 1135.4,-551.5 1129.84,-542.48 1125.43,-547.92"/>
</g>
<!-- Node20&#45;&gt;Node2 -->
<g id="edge29" class="edge">
<title>Node20&#45;&gt;Node2</title>
<path fill="none" stroke="midnightblue" d="M1201.22,-281.82C1209.19,-284.92 1217.41,-288.29 1225,-291.72 1242.31,-299.54 1261,-309.25 1276.6,-317.72"/>
<polygon fill="midnightblue" stroke="midnightblue" points="1274.94,-320.81 1285.39,-322.55 1278.31,-314.67 1274.94,-320.81"/>
</g>
<!-- Node23&#45;&gt;Node1 -->
<g id="edge39" class="edge">
<title>Node23&#45;&gt;Node1</title>
<path fill="none" stroke="midnightblue" d="M954.52,-131.12C899.35,-107.36 747.68,-47.72 615,-47.72 441,-47.72 441,-47.72 441,-47.72 297.45,-47.72 151.41,-162.69 101.23,-206.26"/>
<polygon fill="midnightblue" stroke="midnightblue" points="98.69,-203.83 93.5,-213.06 103.31,-209.08 98.69,-203.83"/>
</g>
<!-- Node23&#45;&gt;Node2 -->
<g id="edge36" class="edge">
<title>Node23&#45;&gt;Node2</title>
<path fill="none" stroke="midnightblue" d="M989.25,-131.06C1026.44,-100.33 1147.42,-10.15 1225,-66.72 1304.73,-124.86 1313.01,-257.19 1312.8,-312.59"/>
<polygon fill="midnightblue" stroke="midnightblue" points="1309.3,-312.56 1312.66,-322.6 1316.3,-312.65 1309.3,-312.56"/>
</g>
<!-- Node23&#45;&gt;Node3 -->
<g id="edge37" class="edge">
<title>Node23&#45;&gt;Node3</title>
<path fill="none" stroke="midnightblue" d="M995.72,-150.25C1013.63,-160.85 1040.66,-179.7 1055,-203.72 1098.16,-276.02 1058.27,-312.14 1091,-389.72 1103.48,-419.3 1126.1,-448.98 1141.34,-467.1"/>
<polygon fill="midnightblue" stroke="midnightblue" points="1138.98,-469.72 1148.15,-475.02 1144.28,-465.15 1138.98,-469.72"/>
</g>
<!-- Node23&#45;&gt;Node11 -->
<g id="edge38" class="edge">
<title>Node23&#45;&gt;Node11</title>
<path fill="none" stroke="midnightblue" d="M937.72,-150.23C842.74,-174.22 589.24,-240.85 385,-317.72 357.42,-328.1 326.75,-341.74 304.9,-351.82"/>
<polygon fill="midnightblue" stroke="midnightblue" points="303.41,-348.65 295.82,-356.04 306.36,-355 303.41,-348.65"/>
</g>
<!-- Node23&#45;&gt;Node17 -->
<g id="edge40" class="edge">
<title>Node23&#45;&gt;Node17</title>
<path fill="none" stroke="midnightblue" d="M1039.6,-140.72C1060.1,-140.72 1082.76,-140.72 1102.67,-140.72"/>
<polygon fill="midnightblue" stroke="midnightblue" points="1102.8,-144.22 1112.8,-140.72 1102.8,-137.22 1102.8,-144.22"/>
</g>
<!-- Node23&#45;&gt;Node18 -->
<g id="edge41" class="edge">
<title>Node23&#45;&gt;Node18</title>
<path fill="none" stroke="midnightblue" d="M1012.94,-131.16C1037.78,-124.36 1071.7,-115.07 1100.39,-107.22"/>
<polygon fill="midnightblue" stroke="midnightblue" points="1101.57,-110.53 1110.29,-104.51 1099.72,-103.77 1101.57,-110.53"/>
</g>
<!-- Node24&#45;&gt;Node2 -->
<g id="edge44" class="edge">
<title>Node24&#45;&gt;Node2</title>
<path fill="none" stroke="midnightblue" d="M1008.66,-377.29C1055.98,-390.55 1149.26,-410.63 1225,-389.72 1246.9,-383.68 1268.83,-370.51 1285.2,-358.93"/>
<polygon fill="midnightblue" stroke="midnightblue" points="1287.68,-361.45 1293.69,-352.72 1283.55,-355.8 1287.68,-361.45"/>
</g>
<!-- Node24&#45;&gt;Node3 -->
<g id="edge45" class="edge">
<title>Node24&#45;&gt;Node3</title>
<path fill="none" stroke="midnightblue" d="M992.65,-377.3C1023.67,-397.57 1096.21,-444.99 1133.68,-469.48"/>
<polygon fill="midnightblue" stroke="midnightblue" points="1132.11,-472.64 1142.4,-475.18 1135.94,-466.78 1132.11,-472.64"/>
</g>
<!-- Node25 -->
<g id="node25" class="node">
<title>Node25</title>
<g id="a_node25"><a xlink:href="classslljit_1_1_tokenizer.html#a69d29df7401c1f268a754725c4561470" target="_top" xlink:title=" ">
<polygon fill="none" stroke="black" points="1114,-349.72 1114,-379.72 1202,-379.72 1202,-349.72 1114,-349.72"/>
<text text-anchor="start" x="1122" y="-367.72" font-family="Helvetica,sans-Serif" font-size="10.00">slljit::Tokenizer::</text>
<text text-anchor="middle" x="1158" y="-356.72" font-family="Helvetica,sans-Serif" font-size="10.00">get_literal_string</text>
</a>
</g>
</g>
<!-- Node24&#45;&gt;Node25 -->
<g id="edge43" class="edge">
<title>Node24&#45;&gt;Node25</title>
<path fill="none" stroke="midnightblue" d="M1050.03,-366.52C1067.97,-366.21 1086.89,-365.9 1103.74,-365.62"/>
<polygon fill="midnightblue" stroke="midnightblue" points="1104,-369.11 1113.94,-365.44 1103.88,-362.11 1104,-369.11"/>
</g>
<!-- Node26&#45;&gt;Node2 -->
<g id="edge47" class="edge">
<title>Node26&#45;&gt;Node2</title>
<path fill="none" stroke="midnightblue" d="M1023.56,-529.22C1076.49,-537.63 1164.29,-543.18 1225,-503.72 1250.77,-486.97 1285.89,-404.54 1302.52,-362.49"/>
<polygon fill="midnightblue" stroke="midnightblue" points="1305.86,-363.56 1306.24,-352.97 1299.34,-361.01 1305.86,-363.56"/>
</g>
<!-- Node26&#45;&gt;Node3 -->
<g id="edge48" class="edge">
<title>Node26&#45;&gt;Node3</title>
<path fill="none" stroke="midnightblue" d="M1026.91,-510.16C1048.91,-505.86 1075.07,-500.74 1098.13,-496.23"/>
<polygon fill="midnightblue" stroke="midnightblue" points="1099,-499.63 1108.15,-494.28 1097.66,-492.76 1099,-499.63"/>
</g>
<!-- Node26&#45;&gt;Node11 -->
<g id="edge49" class="edge">
<title>Node26&#45;&gt;Node11</title>
<path fill="none" stroke="midnightblue" d="M903.72,-529.08C787.11,-540.69 553.51,-549.19 385,-459.72 346.91,-439.5 310.53,-403.97 290.79,-382.86"/>
<polygon fill="midnightblue" stroke="midnightblue" points="293.18,-380.29 283.84,-375.29 288.02,-385.02 293.18,-380.29"/>
</g>
<!-- Node27&#45;&gt;Node2 -->
<g id="edge52" class="edge">
<title>Node27&#45;&gt;Node2</title>
<path fill="none" stroke="midnightblue" d="M1006.74,-605.25C1056.84,-619.9 1160.94,-641.38 1225,-591.72 1272.72,-554.73 1241.4,-517.83 1261,-460.72 1272.94,-425.94 1289.73,-386.89 1300.74,-362.31"/>
<polygon fill="midnightblue" stroke="midnightblue" points="1304.01,-363.57 1304.93,-353.02 1297.63,-360.69 1304.01,-363.57"/>
</g>
<!-- Node27&#45;&gt;Node3 -->
<g id="edge54" class="edge">
<title>Node27&#45;&gt;Node3</title>
<path fill="none" stroke="midnightblue" d="M1019.22,-586.22C1031.17,-582.58 1043.97,-577.81 1055,-571.72 1059.68,-569.14 1110.25,-525.39 1138.38,-500.94"/>
<polygon fill="midnightblue" stroke="midnightblue" points="1140.74,-503.53 1145.99,-494.32 1136.14,-498.25 1140.74,-503.53"/>
</g>
<!-- Node27&#45;&gt;Node11 -->
<g id="edge55" class="edge">
<title>Node27&#45;&gt;Node11</title>
<path fill="none" stroke="midnightblue" d="M909.32,-600.42C793.18,-605.33 550.41,-600.74 385,-494.72 339.87,-465.79 303.44,-412.56 286.24,-384.37"/>
<polygon fill="midnightblue" stroke="midnightblue" points="289.1,-382.33 280.97,-375.53 283.08,-385.91 289.1,-382.33"/>
</g>
<!-- Node27&#45;&gt;Node22 -->
<g id="edge51" class="edge">
<title>Node27&#45;&gt;Node22</title>
<path fill="none" stroke="midnightblue" d="M1037.11,-586.15C1058.64,-582.66 1082.83,-578.74 1103.81,-575.34"/>
<polygon fill="midnightblue" stroke="midnightblue" points="1104.52,-578.77 1113.83,-573.72 1103.4,-571.86 1104.52,-578.77"/>
</g>
<!-- Node28 -->
<g id="node28" class="node">
<title>Node28</title>
<g id="a_node28"><a xlink:href="classslljit_1_1_tokenizer.html#a9dcee05dc292fa291e6b9644d12c1907" target="_top" xlink:title=" ">
<polygon fill="none" stroke="black" points="1110.5,-688.72 1110.5,-718.72 1205.5,-718.72 1205.5,-688.72 1110.5,-688.72"/>
<text text-anchor="start" x="1118.5" y="-706.72" font-family="Helvetica,sans-Serif" font-size="10.00">slljit::Tokenizer::</text>
<text text-anchor="middle" x="1158" y="-695.72" font-family="Helvetica,sans-Serif" font-size="10.00">get_type_identifier</text>
</a>
</g>
</g>
<!-- Node27&#45;&gt;Node28 -->
<g id="edge53" class="edge">
<title>Node27&#45;&gt;Node28</title>
<path fill="none" stroke="midnightblue" d="M988.81,-605.47C1008.12,-622.47 1050.32,-657.82 1091,-679.72 1094.25,-681.47 1097.66,-683.15 1101.13,-684.73"/>
<polygon fill="midnightblue" stroke="midnightblue" points="1099.88,-688.01 1110.45,-688.74 1102.64,-681.57 1099.88,-688.01"/>
</g>
<!-- Node29 -->
<g id="node29" class="node">
<title>Node29</title>
<g id="a_node29"><a xlink:href="classslljit_1_1_parser.html#acad3f159608acb847e0f693fc07fdd28" target="_top" xlink:title=" ">
<polygon fill="none" stroke="black" points="1110.5,-639.72 1110.5,-669.72 1205.5,-669.72 1205.5,-639.72 1110.5,-639.72"/>
<text text-anchor="start" x="1118.5" y="-657.72" font-family="Helvetica,sans-Serif" font-size="10.00">slljit::Parser::push</text>
<text text-anchor="middle" x="1158" y="-646.72" font-family="Helvetica,sans-Serif" font-size="10.00">_var_into_scope</text>
</a>
</g>
</g>
<!-- Node27&#45;&gt;Node29 -->
<g id="edge56" class="edge">
<title>Node27&#45;&gt;Node29</title>
<path fill="none" stroke="midnightblue" d="M1007.16,-605.33C1032.63,-613.73 1070.32,-626.15 1101.53,-636.44"/>
<polygon fill="midnightblue" stroke="midnightblue" points="1100.81,-639.89 1111.4,-639.69 1103,-633.24 1100.81,-639.89"/>
</g>
<!-- Node29&#45;&gt;Node2 -->
<g id="edge57" class="edge">
<title>Node29&#45;&gt;Node2</title>
<path fill="none" stroke="midnightblue" d="M1205.8,-640.17C1213.07,-636.15 1219.85,-631.08 1225,-624.72 1271.93,-566.7 1238.62,-531.91 1261,-460.72 1272.03,-425.64 1289.04,-386.66 1300.35,-362.18"/>
<polygon fill="midnightblue" stroke="midnightblue" points="1303.61,-363.47 1304.66,-352.93 1297.26,-360.51 1303.61,-363.47"/>
</g>
</g>
</svg>
