<?xml version="1.0" encoding="UTF-8" standalone="no"?>
<!DOCTYPE svg PUBLIC "-//W3C//DTD SVG 1.1//EN"
 "http://www.w3.org/Graphics/SVG/1.1/DTD/svg11.dtd">
<!-- Generated by graphviz version 3.0.0 (20220226.1711)
 -->
<!-- Title: slljit::Tokenizer::set_lok_location Pages: 1 -->
<svg width="1740pt" height="682pt"
 viewBox="0.00 0.00 1740.00 681.92" xmlns="http://www.w3.org/2000/svg" xmlns:xlink="http://www.w3.org/1999/xlink">
<g id="graph0" class="graph" transform="scale(1 1) rotate(0) translate(4 677.92)">
<title>slljit::Tokenizer::set_lok_location</title>
<!-- Node1 -->
<g id="node1" class="node">
<title>Node1</title>
<g id="a_node1"><a xlink:title=" ">
<polygon fill="#bfbfbf" stroke="black" points="1644,-380.94 1644,-410.94 1732,-410.94 1732,-380.94 1644,-380.94"/>
<text text-anchor="start" x="1652" y="-398.94" font-family="Helvetica,sans-Serif" font-size="10.00">slljit::Tokenizer::</text>
<text text-anchor="middle" x="1688" y="-387.94" font-family="Helvetica,sans-Serif" font-size="10.00">set_lok_location</text>
</a>
</g>
</g>
<!-- Node2 -->
<g id="node2" class="node">
<title>Node2</title>
<g id="a_node2"><a xlink:href="classslljit_1_1_tokenizer.html#a4f0b343321f5e4561a80e47a5cec05d2" target="_top" xlink:title=" ">
<polygon fill="none" stroke="black" points="1520,-380.94 1520,-410.94 1608,-410.94 1608,-380.94 1520,-380.94"/>
<text text-anchor="start" x="1528" y="-398.94" font-family="Helvetica,sans-Serif" font-size="10.00">slljit::Tokenizer::</text>
<text text-anchor="middle" x="1564" y="-387.94" font-family="Helvetica,sans-Serif" font-size="10.00">gettok</text>
</a>
</g>
</g>
<!-- Node1&#45;&gt;Node2 -->
<g id="edge1" class="edge">
<title>Node1&#45;&gt;Node2</title>
<path fill="none" stroke="midnightblue" d="M1633.96,-395.94C1625.3,-395.94 1616.42,-395.94 1608.04,-395.94"/>
<polygon fill="midnightblue" stroke="midnightblue" points="1633.99,-399.44 1643.99,-395.94 1633.99,-392.44 1633.99,-399.44"/>
</g>
<!-- Node2&#45;&gt;Node2 -->
<g id="edge48" class="edge">
<title>Node2&#45;&gt;Node2</title>
<path fill="none" stroke="midnightblue" d="M1586.03,-421.4C1583.3,-426.12 1575.95,-429.44 1564,-429.44 1544.38,-429.44 1537.18,-420.5 1542.39,-411.1"/>
<polygon fill="midnightblue" stroke="midnightblue" points="1589.52,-420.95 1585.61,-411.1 1582.52,-421.23 1589.52,-420.95"/>
</g>
<!-- Node3 -->
<g id="node3" class="node">
<title>Node3</title>
<g id="a_node3"><a xlink:href="classslljit_1_1_parser.html#a9fcfefd86a6000dcb40fa737361ea55b" target="_top" xlink:title="GetTokPrecedence &#45; Get the precedence of the pending binary operator token.">
<polygon fill="none" stroke="black" points="1350,-386.44 1350,-405.44 1484,-405.44 1484,-386.44 1350,-386.44"/>
<text text-anchor="middle" x="1417" y="-393.44" font-family="Helvetica,sans-Serif" font-size="10.00">slljit::Parser::getNextToken</text>
</a>
</g>
</g>
<!-- Node2&#45;&gt;Node3 -->
<g id="edge2" class="edge">
<title>Node2&#45;&gt;Node3</title>
<path fill="none" stroke="midnightblue" d="M1509.86,-395.94C1501.46,-395.94 1492.69,-395.94 1484.04,-395.94"/>
<polygon fill="midnightblue" stroke="midnightblue" points="1509.89,-399.44 1519.89,-395.94 1509.89,-392.44 1509.89,-399.44"/>
</g>
<!-- Node4 -->
<g id="node4" class="node">
<title>Node4</title>
<g id="a_node4"><a xlink:href="classslljit_1_1_parser.html#a5ff2f693f00fe32c8ee836e9139cb93e" target="_top" xlink:title=" ">
<polygon fill="none" stroke="black" points="802.5,-526.44 802.5,-545.44 935.5,-545.44 935.5,-526.44 802.5,-526.44"/>
<text text-anchor="middle" x="869" y="-533.44" font-family="Helvetica,sans-Serif" font-size="10.00">slljit::Parser::HandleExtern</text>
</a>
</g>
</g>
<!-- Node3&#45;&gt;Node4 -->
<g id="edge3" class="edge">
<title>Node3&#45;&gt;Node4</title>
<path fill="none" stroke="midnightblue" d="M1402.06,-413.56C1384.17,-434.75 1351,-469.53 1314,-485.94 1280.23,-500.92 1050.86,-521.29 935.69,-530.74"/>
<polygon fill="midnightblue" stroke="midnightblue" points="1404.91,-415.6 1408.56,-405.65 1399.5,-411.16 1404.91,-415.6"/>
</g>
<!-- Node5 -->
<g id="node5" class="node">
<title>Node5</title>
<g id="a_node5"><a xlink:href="classslljit_1_1_parser.html#ae2d3d6534b87da7f237c19129a464bda" target="_top" xlink:title="top ::= definition | external | expression | &#39;;&#39;">
<polygon fill="none" stroke="black" points="290.5,-548.44 290.5,-567.44 406.5,-567.44 406.5,-548.44 290.5,-548.44"/>
<text text-anchor="middle" x="348.5" y="-555.44" font-family="Helvetica,sans-Serif" font-size="10.00">slljit::Parser::MainLoop</text>
</a>
</g>
</g>
<!-- Node3&#45;&gt;Node5 -->
<g id="edge9" class="edge">
<title>Node3&#45;&gt;Node5</title>
<path fill="none" stroke="midnightblue" d="M1414.14,-415.58C1408.57,-462.35 1387.53,-580.51 1314,-634.94 1223.64,-701.82 1174.92,-661.94 1062.5,-661.94 1062.5,-661.94 1062.5,-661.94 683,-661.94 556.85,-661.94 415.53,-593.28 366.97,-567.54"/>
<polygon fill="midnightblue" stroke="midnightblue" points="1417.63,-415.85 1415.22,-405.54 1410.67,-415.1 1417.63,-415.85"/>
</g>
<!-- Node8 -->
<g id="node8" class="node">
<title>Node8</title>
<g id="a_node8"><a xlink:href="classslljit_1_1_parser.html#af0cac4623fc05b8b7ae9884b0aeb3d3f" target="_top" xlink:title=" ">
<polygon fill="none" stroke="black" points="448.5,-564.94 448.5,-594.94 579.5,-594.94 579.5,-564.94 448.5,-564.94"/>
<text text-anchor="start" x="456.5" y="-582.94" font-family="Helvetica,sans-Serif" font-size="10.00">slljit::Parser::HandleTyped</text>
<text text-anchor="middle" x="514" y="-571.94" font-family="Helvetica,sans-Serif" font-size="10.00">Expression</text>
</a>
</g>
</g>
<!-- Node3&#45;&gt;Node8 -->
<g id="edge7" class="edge">
<title>Node3&#45;&gt;Node8</title>
<path fill="none" stroke="midnightblue" d="M1412.99,-415.57C1405.29,-458.36 1380.56,-559.79 1314,-604.94 1221.24,-667.87 1174.6,-623.94 1062.5,-623.94 1062.5,-623.94 1062.5,-623.94 868,-623.94 756.13,-623.94 727.48,-622.54 617,-604.94 601.34,-602.44 584.54,-598.76 569.19,-594.98"/>
<polygon fill="midnightblue" stroke="midnightblue" points="1416.47,-416.03 1414.67,-405.59 1409.56,-414.87 1416.47,-416.03"/>
</g>
<!-- Node9 -->
<g id="node9" class="node">
<title>Node9</title>
<g id="a_node9"><a xlink:href="classslljit_1_1_parser.html#ae387c9672ec50720d8cb969558aedbe9" target="_top" xlink:title=" ">
<polygon fill="none" stroke="black" points="1186,-318.94 1186,-348.94 1300,-348.94 1300,-318.94 1186,-318.94"/>
<text text-anchor="start" x="1194" y="-336.94" font-family="Helvetica,sans-Serif" font-size="10.00">slljit::Parser::ParseBin</text>
<text text-anchor="middle" x="1243" y="-325.94" font-family="Helvetica,sans-Serif" font-size="10.00">OpRHS</text>
</a>
</g>
</g>
<!-- Node3&#45;&gt;Node9 -->
<g id="edge10" class="edge">
<title>Node3&#45;&gt;Node9</title>
<path fill="none" stroke="midnightblue" d="M1379.9,-382.93C1352.48,-373.04 1314.7,-359.42 1285.93,-349.05"/>
<polygon fill="midnightblue" stroke="midnightblue" points="1378.91,-386.29 1389.5,-386.39 1381.28,-379.7 1378.91,-386.29"/>
</g>
<!-- Node11 -->
<g id="node11" class="node">
<title>Node11</title>
<g id="a_node11"><a xlink:href="classslljit_1_1_parser.html#acc431005ac3dd38732083d7a1bb0eab2" target="_top" xlink:title=" ">
<polygon fill="none" stroke="black" points="787,-310.44 787,-329.44 951,-329.44 951,-310.44 787,-310.44"/>
<text text-anchor="middle" x="869" y="-317.44" font-family="Helvetica,sans-Serif" font-size="10.00">slljit::Parser::ParseExpressionList</text>
</a>
</g>
</g>
<!-- Node3&#45;&gt;Node11 -->
<g id="edge32" class="edge">
<title>Node3&#45;&gt;Node11</title>
<path fill="none" stroke="midnightblue" d="M1402.2,-378.23C1384.46,-357.05 1351.43,-322.73 1314,-308.94 1170.75,-256.14 983.49,-291.6 905.99,-310.37"/>
<polygon fill="midnightblue" stroke="midnightblue" points="1399.62,-380.6 1408.64,-386.15 1405.05,-376.18 1399.62,-380.6"/>
</g>
<!-- Node12 -->
<g id="node12" class="node">
<title>Node12</title>
<g id="a_node12"><a xlink:href="classslljit_1_1_parser.html#a81023e7a6221eb6b92027bd21433c9dd" target="_top" xlink:title="forexpr ::= &#39;for&#39; identifier &#39;=&#39; expr &#39;,&#39; expr (&#39;,&#39; expr)? &#39;in&#39; expression">
<polygon fill="none" stroke="black" points="617,-291.44 617,-310.44 751,-310.44 751,-291.44 617,-291.44"/>
<text text-anchor="middle" x="684" y="-298.44" font-family="Helvetica,sans-Serif" font-size="10.00">slljit::Parser::ParseForExpr</text>
</a>
</g>
</g>
<!-- Node3&#45;&gt;Node12 -->
<g id="edge35" class="edge">
<title>Node3&#45;&gt;Node12</title>
<path fill="none" stroke="midnightblue" d="M1339.75,-395.66C1220.36,-393.75 982.72,-383.98 787,-338.94 758.09,-332.28 726.27,-319.5 705.99,-310.61"/>
<polygon fill="midnightblue" stroke="midnightblue" points="1339.83,-399.16 1349.88,-395.81 1339.93,-392.16 1339.83,-399.16"/>
</g>
<!-- Node14 -->
<g id="node14" class="node">
<title>Node14</title>
<g id="a_node14"><a xlink:href="classslljit_1_1_parser.html#af8579896f39ac563d2edd14404d70f41" target="_top" xlink:title=" ">
<polygon fill="none" stroke="black" points="286,-310.44 286,-329.44 411,-329.44 411,-310.44 286,-310.44"/>
<text text-anchor="middle" x="348.5" y="-317.44" font-family="Helvetica,sans-Serif" font-size="10.00">slljit::Parser::ParseUnary</text>
</a>
</g>
</g>
<!-- Node3&#45;&gt;Node14 -->
<g id="edge44" class="edge">
<title>Node3&#45;&gt;Node14</title>
<path fill="none" stroke="midnightblue" d="M1351.3,-407.1C1280.58,-418.31 1163.84,-433.94 1062.5,-433.94 1062.5,-433.94 1062.5,-433.94 683,-433.94 554.2,-433.94 411.73,-356.86 365.15,-329.46"/>
<polygon fill="midnightblue" stroke="midnightblue" points="1352.07,-410.52 1361.39,-405.48 1350.96,-403.61 1352.07,-410.52"/>
</g>
<!-- Node15 -->
<g id="node15" class="node">
<title>Node15</title>
<g id="a_node15"><a xlink:href="classslljit_1_1_parser.html#a149f5e88cb03aa08c388e6320c6c1bac" target="_top" xlink:title="ifexpr ::= &#39;if&#39; expression &#39;then&#39; expression &#39;else&#39; expression">
<polygon fill="none" stroke="black" points="621.5,-196.44 621.5,-215.44 746.5,-215.44 746.5,-196.44 621.5,-196.44"/>
<text text-anchor="middle" x="684" y="-203.44" font-family="Helvetica,sans-Serif" font-size="10.00">slljit::Parser::ParseIfExpr</text>
</a>
</g>
</g>
<!-- Node3&#45;&gt;Node15 -->
<g id="edge37" class="edge">
<title>Node3&#45;&gt;Node15</title>
<path fill="none" stroke="midnightblue" d="M1414.53,-376.35C1409.76,-328.03 1390.27,-202.81 1314,-143.94 1221.11,-72.24 896.19,-67.97 787,-110.94 742.41,-128.49 705.78,-175.72 691.47,-196.22"/>
<polygon fill="midnightblue" stroke="midnightblue" points="1411.05,-376.76 1415.41,-386.41 1418.02,-376.15 1411.05,-376.76"/>
</g>
<!-- Node17 -->
<g id="node17" class="node">
<title>Node17</title>
<g id="a_node17"><a xlink:href="classslljit_1_1_parser.html#a25cfefcbeea85744e23370d3a6f8ad5b" target="_top" xlink:title=" ">
<polygon fill="none" stroke="black" points="791,-120.44 791,-139.44 947,-139.44 947,-120.44 791,-120.44"/>
<text text-anchor="middle" x="869" y="-127.44" font-family="Helvetica,sans-Serif" font-size="10.00">slljit::Parser::ParseIdentifierExpr</text>
</a>
</g>
</g>
<!-- Node3&#45;&gt;Node17 -->
<g id="edge36" class="edge">
<title>Node3&#45;&gt;Node17</title>
<path fill="none" stroke="midnightblue" d="M1410.93,-376.16C1400.06,-337.99 1370.79,-254.23 1314,-211.94 1205.87,-131.4 1042.61,-122.07 947.11,-124.62"/>
<polygon fill="midnightblue" stroke="midnightblue" points="1407.61,-377.31 1413.61,-386.04 1414.37,-375.47 1407.61,-377.31"/>
</g>
<!-- Node18 -->
<g id="node18" class="node">
<title>Node18</title>
<g id="a_node18"><a xlink:href="classslljit_1_1_parser.html#a6e2e0f6a2cc445f3a956db59c8d2da66" target="_top" xlink:title="parenexpr ::= &#39;(&#39; expression &#39;)&#39;">
<polygon fill="none" stroke="black" points="796,-44.44 796,-63.44 942,-63.44 942,-44.44 796,-44.44"/>
<text text-anchor="middle" x="869" y="-51.44" font-family="Helvetica,sans-Serif" font-size="10.00">slljit::Parser::ParseParenExpr</text>
</a>
</g>
</g>
<!-- Node3&#45;&gt;Node18 -->
<g id="edge40" class="edge">
<title>Node3&#45;&gt;Node18</title>
<path fill="none" stroke="midnightblue" d="M1416.64,-376.06C1417.28,-318.7 1410.41,-152.33 1314,-77.94 1257.77,-34.55 1053,-41.14 942.26,-48.27"/>
<polygon fill="midnightblue" stroke="midnightblue" points="1413.14,-376.22 1416.43,-386.29 1420.13,-376.37 1413.14,-376.22"/>
</g>
<!-- Node19 -->
<g id="node19" class="node">
<title>Node19</title>
<g id="a_node19"><a xlink:href="classslljit_1_1_parser.html#a435877d3f2869d140a7cca646546a114" target="_top" xlink:title="varexpr ::= &#39;g_var&#39; identifier (&#39;=&#39; expression)?">
<polygon fill="none" stroke="black" points="801.5,-158.44 801.5,-177.44 936.5,-177.44 936.5,-158.44 801.5,-158.44"/>
<text text-anchor="middle" x="869" y="-165.44" font-family="Helvetica,sans-Serif" font-size="10.00">slljit::Parser::ParseVarExpr</text>
</a>
</g>
</g>
<!-- Node3&#45;&gt;Node19 -->
<g id="edge45" class="edge">
<title>Node3&#45;&gt;Node19</title>
<path fill="none" stroke="midnightblue" d="M1404.55,-377.47C1387.74,-351.81 1353.99,-305.54 1314,-278.94 1196.57,-200.83 1028.53,-177.68 936.52,-170.82"/>
<polygon fill="midnightblue" stroke="midnightblue" points="1401.81,-379.67 1410.14,-386.21 1407.7,-375.9 1401.81,-379.67"/>
</g>
<!-- Node20 -->
<g id="node20" class="node">
<title>Node20</title>
<g id="a_node20"><a xlink:href="classslljit_1_1_parser.html#af6e239a609e8a3812838b53f9a8356ce" target="_top" xlink:title="external ::= &#39;extern&#39; prototype">
<polygon fill="none" stroke="black" points="997.5,-538.44 997.5,-557.44 1125.5,-557.44 1125.5,-538.44 997.5,-538.44"/>
<text text-anchor="middle" x="1061.5" y="-545.44" font-family="Helvetica,sans-Serif" font-size="10.00">slljit::Parser::ParseExtern</text>
</a>
</g>
</g>
<!-- Node3&#45;&gt;Node20 -->
<g id="edge33" class="edge">
<title>Node3&#45;&gt;Node20</title>
<path fill="none" stroke="midnightblue" d="M1407.31,-414.58C1392.65,-443.64 1360.04,-498.99 1314,-523.94 1255.86,-555.44 1178.99,-558.16 1125.6,-555.08"/>
<polygon fill="midnightblue" stroke="midnightblue" points="1410.5,-416.01 1411.74,-405.49 1404.21,-412.95 1410.5,-416.01"/>
</g>
<!-- Node21 -->
<g id="node21" class="node">
<title>Node21</title>
<g id="a_node21"><a xlink:href="classslljit_1_1_parser.html#af9ccc5948e2cf9051c2569cc42dc3bb7" target="_top" xlink:title="numberexpr ::= number">
<polygon fill="none" stroke="black" points="988.5,-6.44 988.5,-25.44 1134.5,-25.44 1134.5,-6.44 988.5,-6.44"/>
<text text-anchor="middle" x="1061.5" y="-13.44" font-family="Helvetica,sans-Serif" font-size="10.00">slljit::Parser::ParseLiteralExpr</text>
</a>
</g>
</g>
<!-- Node3&#45;&gt;Node21 -->
<g id="edge38" class="edge">
<title>Node3&#45;&gt;Node21</title>
<path fill="none" stroke="midnightblue" d="M1413.22,-375.84C1403.3,-307.26 1367.4,-84.32 1314,-39.94 1255.98,8.28 1162.39,2.54 1107.22,-6.42"/>
<polygon fill="midnightblue" stroke="midnightblue" points="1409.81,-376.71 1414.68,-386.12 1416.74,-375.73 1409.81,-376.71"/>
</g>
<!-- Node22 -->
<g id="node22" class="node">
<title>Node22</title>
<g id="a_node22"><a xlink:href="classslljit_1_1_parser.html#ad51a4352241881b5c6d118db9ccdec46" target="_top" xlink:title=" ">
<polygon fill="none" stroke="black" points="1172,-576.44 1172,-595.44 1314,-595.44 1314,-576.44 1172,-576.44"/>
<text text-anchor="middle" x="1243" y="-583.44" font-family="Helvetica,sans-Serif" font-size="10.00">slljit::Parser::ParsePrototype</text>
</a>
</g>
</g>
<!-- Node3&#45;&gt;Node22 -->
<g id="edge41" class="edge">
<title>Node3&#45;&gt;Node22</title>
<path fill="none" stroke="midnightblue" d="M1409.06,-415.62C1395.89,-450.17 1364.04,-521.88 1314,-561.94 1306.18,-568.2 1296.62,-572.88 1287.12,-576.35"/>
<polygon fill="midnightblue" stroke="midnightblue" points="1412.5,-416.39 1412.67,-405.79 1405.93,-413.97 1412.5,-416.39"/>
</g>
<!-- Node23 -->
<g id="node23" class="node">
<title>Node23</title>
<g id="a_node23"><a xlink:href="classslljit_1_1_parser.html#a21a8e61fa506eba01fc73f5fb3c35420" target="_top" xlink:title=" ">
<polygon fill="none" stroke="black" points="157,-467.94 157,-497.94 245,-497.94 245,-467.94 157,-467.94"/>
<text text-anchor="start" x="165" y="-485.94" font-family="Helvetica,sans-Serif" font-size="10.00">slljit::Parser::set</text>
<text text-anchor="middle" x="201" y="-474.94" font-family="Helvetica,sans-Serif" font-size="10.00">_source</text>
</a>
</g>
</g>
<!-- Node3&#45;&gt;Node23 -->
<g id="edge46" class="edge">
<title>Node3&#45;&gt;Node23</title>
<path fill="none" stroke="midnightblue" d="M1386.55,-409.59C1366.49,-418.36 1339.13,-429.31 1314,-435.94 1204.82,-464.74 1175.42,-471.94 1062.5,-471.94 1062.5,-471.94 1062.5,-471.94 513,-471.94 417.37,-471.94 305.31,-477.2 245.25,-480.44"/>
<polygon fill="midnightblue" stroke="midnightblue" points="1388.05,-412.76 1395.76,-405.49 1385.2,-406.36 1388.05,-412.76"/>
</g>
<!-- Node4&#45;&gt;Node5 -->
<g id="edge4" class="edge">
<title>Node4&#45;&gt;Node5</title>
<path fill="none" stroke="midnightblue" d="M792.14,-539.16C687.33,-543.6 500.56,-551.53 406.69,-555.51"/>
<polygon fill="midnightblue" stroke="midnightblue" points="792.49,-542.65 802.33,-538.73 792.19,-535.65 792.49,-542.65"/>
</g>
<!-- Node6 -->
<g id="node6" class="node">
<title>Node6</title>
<g id="a_node6"><a xlink:href="classslljit_1_1_parser.html#a2429935f3c870648f9f895a7b2361cfb" target="_top" xlink:title=" ">
<polygon fill="none" stroke="black" points="152,-538.44 152,-557.44 250,-557.44 250,-538.44 152,-538.44"/>
<text text-anchor="middle" x="201" y="-545.44" font-family="Helvetica,sans-Serif" font-size="10.00">slljit::Parser::parse</text>
</a>
</g>
</g>
<!-- Node5&#45;&gt;Node6 -->
<g id="edge5" class="edge">
<title>Node5&#45;&gt;Node6</title>
<path fill="none" stroke="midnightblue" d="M280.39,-553.33C270.3,-552.63 260.05,-551.93 250.45,-551.27"/>
<polygon fill="midnightblue" stroke="midnightblue" points="280.2,-556.82 290.41,-554.02 280.68,-549.84 280.2,-556.82"/>
</g>
<!-- Node7 -->
<g id="node7" class="node">
<title>Node7</title>
<g id="a_node7"><a xlink:href="classslljit_1_1_program.html#ae4d26526a7dd9c69ebe92fb43736696b" target="_top" xlink:title=" ">
<polygon fill="none" stroke="black" points="0,-495.44 0,-514.44 116,-514.44 116,-495.44 0,-495.44"/>
<text text-anchor="middle" x="58" y="-502.44" font-family="Helvetica,sans-Serif" font-size="10.00">slljit::Program::compile</text>
</a>
</g>
</g>
<!-- Node6&#45;&gt;Node7 -->
<g id="edge6" class="edge">
<title>Node6&#45;&gt;Node7</title>
<path fill="none" stroke="midnightblue" d="M158.99,-535.43C137.05,-528.74 110.45,-520.63 90.2,-514.46"/>
<polygon fill="midnightblue" stroke="midnightblue" points="158.12,-538.83 168.71,-538.4 160.16,-532.13 158.12,-538.83"/>
</g>
<!-- Node8&#45;&gt;Node5 -->
<g id="edge8" class="edge">
<title>Node8&#45;&gt;Node5</title>
<path fill="none" stroke="midnightblue" d="M438.23,-569.88C427.57,-568.44 416.75,-566.99 406.5,-565.61"/>
<polygon fill="midnightblue" stroke="midnightblue" points="438,-573.38 448.38,-571.24 438.94,-566.44 438,-573.38"/>
</g>
<!-- Node9&#45;&gt;Node9 -->
<g id="edge11" class="edge">
<title>Node9&#45;&gt;Node9</title>
<path fill="none" stroke="midnightblue" d="M1273.92,-359.4C1270.08,-364.12 1259.77,-367.44 1243,-367.44 1215.47,-367.44 1205.36,-358.5 1212.68,-349.1"/>
<polygon fill="midnightblue" stroke="midnightblue" points="1277.39,-358.88 1273.32,-349.1 1270.41,-359.28 1277.39,-358.88"/>
</g>
<!-- Node10 -->
<g id="node10" class="node">
<title>Node10</title>
<g id="a_node10"><a xlink:href="classslljit_1_1_parser.html#a79461bf414d03dcabb49d3bbd6f89607" target="_top" xlink:title=" ">
<polygon fill="none" stroke="black" points="987,-229.44 987,-248.44 1136,-248.44 1136,-229.44 987,-229.44"/>
<text text-anchor="middle" x="1061.5" y="-236.44" font-family="Helvetica,sans-Serif" font-size="10.00">slljit::Parser::ParseExpression</text>
</a>
</g>
</g>
<!-- Node9&#45;&gt;Node10 -->
<g id="edge12" class="edge">
<title>Node9&#45;&gt;Node10</title>
<path fill="none" stroke="midnightblue" d="M1204.38,-314.03C1166.58,-294.02 1109.89,-264.02 1080.94,-248.7"/>
<polygon fill="midnightblue" stroke="midnightblue" points="1203.08,-317.3 1213.56,-318.89 1206.36,-311.11 1203.08,-317.3"/>
</g>
<!-- Node10&#45;&gt;Node11 -->
<g id="edge13" class="edge">
<title>Node10&#45;&gt;Node11</title>
<path fill="none" stroke="midnightblue" d="M1031.69,-253.1C1018.08,-259.88 1001.63,-268.2 987,-275.94 970.82,-284.5 967.88,-288.85 951,-295.94 937.48,-301.62 922.16,-306.52 908.51,-310.39"/>
<polygon fill="midnightblue" stroke="midnightblue" points="1033.64,-256.04 1041.05,-248.46 1030.53,-249.77 1033.64,-256.04"/>
</g>
<!-- Node10&#45;&gt;Node12 -->
<g id="edge24" class="edge">
<title>Node10&#45;&gt;Node12</title>
<path fill="none" stroke="midnightblue" d="M996.12,-250.24C981.31,-252.8 965.61,-255.49 951,-257.94 880.41,-269.77 799.18,-282.82 745.25,-291.4"/>
<polygon fill="midnightblue" stroke="midnightblue" points="996.96,-253.64 1006.22,-248.49 995.77,-246.75 996.96,-253.64"/>
</g>
<!-- Node10&#45;&gt;Node15 -->
<g id="edge27" class="edge">
<title>Node10&#45;&gt;Node15</title>
<path fill="none" stroke="midnightblue" d="M976.69,-231.57C907.03,-225.45 809.48,-216.88 746.76,-211.37"/>
<polygon fill="midnightblue" stroke="midnightblue" points="976.49,-235.07 986.76,-232.46 977.11,-228.1 976.49,-235.07"/>
</g>
<!-- Node10&#45;&gt;Node17 -->
<g id="edge25" class="edge">
<title>Node10&#45;&gt;Node17</title>
<path fill="none" stroke="midnightblue" d="M1044.87,-222.03C1025.02,-201.59 988.78,-167.62 951,-148.94 943.23,-145.1 934.65,-142.01 926.08,-139.54"/>
<polygon fill="midnightblue" stroke="midnightblue" points="1042.44,-224.55 1051.87,-229.38 1047.51,-219.73 1042.44,-224.55"/>
</g>
<!-- Node10&#45;&gt;Node18 -->
<g id="edge28" class="edge">
<title>Node10&#45;&gt;Node18</title>
<path fill="none" stroke="midnightblue" d="M1047.51,-221.07C1028.17,-195.14 989.89,-146.32 951,-110.94 930.27,-92.08 903.1,-74.13 886.09,-63.57"/>
<polygon fill="midnightblue" stroke="midnightblue" points="1044.78,-223.26 1053.53,-229.23 1050.41,-219.11 1044.78,-223.26"/>
</g>
<!-- Node10&#45;&gt;Node19 -->
<g id="edge30" class="edge">
<title>Node10&#45;&gt;Node19</title>
<path fill="none" stroke="midnightblue" d="M1030.83,-225.08C1009.02,-215.17 978.5,-201.88 951,-191.94 936.24,-186.61 919.67,-181.54 905.38,-177.45"/>
<polygon fill="midnightblue" stroke="midnightblue" points="1029.65,-228.39 1040.2,-229.37 1032.57,-222.03 1029.65,-228.39"/>
</g>
<!-- Node11&#45;&gt;Node12 -->
<g id="edge14" class="edge">
<title>Node11&#45;&gt;Node12</title>
<path fill="none" stroke="midnightblue" d="M776.81,-310.47C768.17,-309.57 759.53,-308.68 751.19,-307.81"/>
<polygon fill="midnightblue" stroke="midnightblue" points="776.63,-313.97 786.93,-311.52 777.35,-307.01 776.63,-313.97"/>
</g>
<!-- Node11&#45;&gt;Node15 -->
<g id="edge20" class="edge">
<title>Node11&#45;&gt;Node15</title>
<path fill="none" stroke="midnightblue" d="M843.79,-304.86C805.54,-281.03 732.2,-235.34 700.37,-215.52"/>
<polygon fill="midnightblue" stroke="midnightblue" points="842.37,-308.1 852.71,-310.42 846.08,-302.16 842.37,-308.1"/>
</g>
<!-- Node16 -->
<g id="node16" class="node">
<title>Node16</title>
<g id="a_node16"><a xlink:href="classslljit_1_1_parser.html#aa9a9ce164e114ad7f347f32329f5a5a2" target="_top" xlink:title="definition ::= &#39;def&#39; prototype expression">
<polygon fill="none" stroke="black" points="626,-564.94 626,-594.94 742,-594.94 742,-564.94 626,-564.94"/>
<text text-anchor="start" x="634" y="-582.94" font-family="Helvetica,sans-Serif" font-size="10.00">slljit::Parser::ParseTop</text>
<text text-anchor="middle" x="684" y="-571.94" font-family="Helvetica,sans-Serif" font-size="10.00">LevelTypedExpression</text>
</a>
</g>
</g>
<!-- Node11&#45;&gt;Node16 -->
<g id="edge22" class="edge">
<title>Node11&#45;&gt;Node16</title>
<path fill="none" stroke="midnightblue" d="M855.46,-337.76C821.37,-386.18 727.48,-519.59 695.68,-564.76"/>
<polygon fill="midnightblue" stroke="midnightblue" points="858.38,-339.69 861.27,-329.5 852.65,-335.66 858.38,-339.69"/>
</g>
<!-- Node13 -->
<g id="node13" class="node">
<title>Node13</title>
<g id="a_node13"><a xlink:href="classslljit_1_1_parser.html#a45cb3e4f600e8e2c253490e7d878e8cd" target="_top" xlink:title=" ">
<polygon fill="none" stroke="black" points="447,-158.44 447,-177.44 581,-177.44 581,-158.44 447,-158.44"/>
<text text-anchor="middle" x="514" y="-165.44" font-family="Helvetica,sans-Serif" font-size="10.00">slljit::Parser::ParsePrimary</text>
</a>
</g>
</g>
<!-- Node12&#45;&gt;Node13 -->
<g id="edge15" class="edge">
<title>Node12&#45;&gt;Node13</title>
<path fill="none" stroke="midnightblue" d="M662.81,-284.96C627.65,-257.12 556.21,-200.56 527.43,-177.78"/>
<polygon fill="midnightblue" stroke="midnightblue" points="660.9,-287.91 670.92,-291.37 665.25,-282.42 660.9,-287.91"/>
</g>
<!-- Node13&#45;&gt;Node14 -->
<g id="edge16" class="edge">
<title>Node13&#45;&gt;Node14</title>
<path fill="none" stroke="midnightblue" d="M495.37,-184.33C461.2,-216.1 386.9,-285.17 359.72,-310.43"/>
<polygon fill="midnightblue" stroke="midnightblue" points="497.83,-186.82 502.77,-177.45 493.07,-181.69 497.83,-186.82"/>
</g>
<!-- Node14&#45;&gt;Node9 -->
<g id="edge17" class="edge">
<title>Node14&#45;&gt;Node9</title>
<path fill="none" stroke="midnightblue" d="M421.3,-324.01C507.95,-328.71 658.09,-336.14 787,-338.94 859.87,-340.52 878.11,-339.57 951,-338.94 1032.73,-338.24 1127.35,-336.43 1185.95,-335.19"/>
<polygon fill="midnightblue" stroke="midnightblue" points="421.23,-320.51 411.06,-323.46 420.85,-327.49 421.23,-320.51"/>
</g>
<!-- Node14&#45;&gt;Node10 -->
<g id="edge18" class="edge">
<title>Node14&#45;&gt;Node10</title>
<path fill="none" stroke="midnightblue" d="M421.26,-309.73C475.12,-302.07 550.68,-291.33 617,-281.94 692.55,-271.24 711.11,-265.92 787,-257.94 854.57,-250.83 931.83,-245.74 986.95,-242.63"/>
<polygon fill="midnightblue" stroke="midnightblue" points="420.53,-306.3 411.12,-311.17 421.51,-313.23 420.53,-306.3"/>
</g>
<!-- Node14&#45;&gt;Node14 -->
<g id="edge19" class="edge">
<title>Node14&#45;&gt;Node14</title>
<path fill="none" stroke="midnightblue" d="M375.75,-338.59C374.61,-343.88 365.53,-347.94 348.5,-347.94 322.55,-347.94 315.05,-338.5 326,-329.7"/>
<polygon fill="midnightblue" stroke="midnightblue" points="378.8,-336.87 371,-329.7 372.62,-340.17 378.8,-336.87"/>
</g>
<!-- Node15&#45;&gt;Node13 -->
<g id="edge21" class="edge">
<title>Node15&#45;&gt;Node13</title>
<path fill="none" stroke="midnightblue" d="M630.72,-194.11C607.04,-188.76 579.41,-182.51 557.09,-177.46"/>
<polygon fill="midnightblue" stroke="midnightblue" points="630.08,-197.56 640.61,-196.35 631.63,-190.73 630.08,-197.56"/>
</g>
<!-- Node16&#45;&gt;Node8 -->
<g id="edge23" class="edge">
<title>Node16&#45;&gt;Node8</title>
<path fill="none" stroke="midnightblue" d="M615.41,-579.94C603.59,-579.94 591.32,-579.94 579.59,-579.94"/>
<polygon fill="midnightblue" stroke="midnightblue" points="615.65,-583.44 625.65,-579.94 615.65,-576.44 615.65,-583.44"/>
</g>
<!-- Node17&#45;&gt;Node13 -->
<g id="edge26" class="edge">
<title>Node17&#45;&gt;Node13</title>
<path fill="none" stroke="midnightblue" d="M780.85,-139.32C719.13,-145.96 637.6,-154.74 581.18,-160.81"/>
<polygon fill="midnightblue" stroke="midnightblue" points="781.4,-142.78 790.97,-138.23 780.65,-135.82 781.4,-142.78"/>
</g>
<!-- Node18&#45;&gt;Node13 -->
<g id="edge29" class="edge">
<title>Node18&#45;&gt;Node13</title>
<path fill="none" stroke="midnightblue" d="M825.2,-66.35C812.85,-70 799.37,-74.06 787,-77.94 697.53,-105.99 592.35,-141.53 543.1,-158.32"/>
<polygon fill="midnightblue" stroke="midnightblue" points="826.22,-69.69 834.82,-63.51 824.24,-62.98 826.22,-69.69"/>
</g>
<!-- Node19&#45;&gt;Node13 -->
<g id="edge31" class="edge">
<title>Node19&#45;&gt;Node13</title>
<path fill="none" stroke="midnightblue" d="M790.96,-167.94C728.3,-167.94 640.8,-167.94 581.24,-167.94"/>
<polygon fill="midnightblue" stroke="midnightblue" points="791.19,-171.44 801.19,-167.94 791.19,-164.44 791.19,-171.44"/>
</g>
<!-- Node20&#45;&gt;Node4 -->
<g id="edge34" class="edge">
<title>Node20&#45;&gt;Node4</title>
<path fill="none" stroke="midnightblue" d="M986.95,-543.31C970.03,-542.24 952.16,-541.11 935.61,-540.07"/>
<polygon fill="midnightblue" stroke="midnightblue" points="987.13,-546.82 997.33,-543.96 987.57,-539.84 987.13,-546.82"/>
</g>
<!-- Node21&#45;&gt;Node13 -->
<g id="edge39" class="edge">
<title>Node21&#45;&gt;Node13</title>
<path fill="none" stroke="midnightblue" d="M977.91,-13.47C884.93,-14.08 731.87,-25.51 617,-85.94 578.79,-106.04 541.11,-141.47 524.22,-158.41"/>
<polygon fill="midnightblue" stroke="midnightblue" points="978.12,-16.97 988.11,-13.44 978.1,-9.97 978.12,-16.97"/>
</g>
<!-- Node22&#45;&gt;Node16 -->
<g id="edge43" class="edge">
<title>Node22&#45;&gt;Node16</title>
<path fill="none" stroke="midnightblue" d="M1161.68,-585.07C1047.8,-583.85 842.18,-581.63 742.4,-580.56"/>
<polygon fill="midnightblue" stroke="midnightblue" points="1161.7,-588.57 1171.74,-585.18 1161.78,-581.57 1161.7,-588.57"/>
</g>
<!-- Node22&#45;&gt;Node20 -->
<g id="edge42" class="edge">
<title>Node22&#45;&gt;Node20</title>
<path fill="none" stroke="midnightblue" d="M1186.82,-574.26C1161.37,-568.87 1131.53,-562.55 1107.47,-557.46"/>
<polygon fill="midnightblue" stroke="midnightblue" points="1186.2,-577.7 1196.7,-576.35 1187.65,-570.85 1186.2,-577.7"/>
</g>
<!-- Node23&#45;&gt;Node7 -->
<g id="edge47" class="edge">
<title>Node23&#45;&gt;Node7</title>
<path fill="none" stroke="midnightblue" d="M147.03,-491.2C136.93,-492.78 126.32,-494.43 116.1,-496.03"/>
<polygon fill="midnightblue" stroke="midnightblue" points="147.59,-494.66 156.93,-489.66 146.51,-487.74 147.59,-494.66"/>
</g>
</g>
</svg>
