<?xml version="1.0" encoding="UTF-8" standalone="no"?>
<!DOCTYPE svg PUBLIC "-//W3C//DTD SVG 1.1//EN"
 "http://www.w3.org/Graphics/SVG/1.1/DTD/svg11.dtd">
<!-- Generated by graphviz version 3.0.0 (20220226.1711)
 -->
<!-- Title: slljit::Parser::ParseTopLevelTypedExpression Pages: 1 -->
<svg width="1687pt" height="814pt"
 viewBox="0.00 0.00 1687.00 814.33" xmlns="http://www.w3.org/2000/svg" xmlns:xlink="http://www.w3.org/1999/xlink">
<g id="graph0" class="graph" transform="scale(1 1) rotate(0) translate(4 810.33)">
<title>slljit::Parser::ParseTopLevelTypedExpression</title>
<!-- Node1 -->
<g id="node1" class="node">
<title>Node1</title>
<g id="a_node1"><a xlink:title="definition ::= &#39;def&#39; prototype expression">
<polygon fill="#bfbfbf" stroke="black" points="0,-481.5 0,-511.5 116,-511.5 116,-481.5 0,-481.5"/>
<text text-anchor="start" x="8" y="-499.5" font-family="Helvetica,sans-Serif" font-size="10.00">slljit::Parser::ParseTop</text>
<text text-anchor="middle" x="58" y="-488.5" font-family="Helvetica,sans-Serif" font-size="10.00">LevelTypedExpression</text>
</a>
</g>
</g>
<!-- Node2 -->
<g id="node2" class="node">
<title>Node2</title>
<g id="a_node2"><a xlink:href="classslljit_1_1_tokenizer.html#a0baa2e9dbe626f0475ee4206f16bbb4e" target="_top" xlink:title=" ">
<polygon fill="none" stroke="black" points="1413,-413.5 1413,-443.5 1517,-443.5 1517,-413.5 1413,-413.5"/>
<text text-anchor="start" x="1421" y="-431.5" font-family="Helvetica,sans-Serif" font-size="10.00">slljit::Tokenizer::</text>
<text text-anchor="middle" x="1465" y="-420.5" font-family="Helvetica,sans-Serif" font-size="10.00">get_source_location</text>
</a>
</g>
</g>
<!-- Node1&#45;&gt;Node2 -->
<g id="edge1" class="edge">
<title>Node1&#45;&gt;Node2</title>
<path fill="none" stroke="midnightblue" d="M67.2,-511.58C101.77,-572.92 242.39,-800.5 425.5,-800.5 425.5,-800.5 425.5,-800.5 1130,-800.5 1241.83,-800.5 1295.19,-828.75 1377,-752.5 1421.39,-711.13 1451.15,-522.48 1460.69,-453.69"/>
<polygon fill="midnightblue" stroke="midnightblue" points="1464.17,-454.1 1462.05,-443.72 1457.23,-453.16 1464.17,-454.1"/>
</g>
<!-- Node3 -->
<g id="node3" class="node">
<title>Node3</title>
<g id="a_node3"><a xlink:href="classslljit_1_1_parser.html#acc431005ac3dd38732083d7a1bb0eab2" target="_top" xlink:title=" ">
<polygon fill="none" stroke="black" points="152,-297 152,-316 316,-316 316,-297 152,-297"/>
<text text-anchor="middle" x="234" y="-304" font-family="Helvetica,sans-Serif" font-size="10.00">slljit::Parser::ParseExpressionList</text>
</a>
</g>
</g>
<!-- Node1&#45;&gt;Node3 -->
<g id="edge2" class="edge">
<title>Node1&#45;&gt;Node3</title>
<path fill="none" stroke="midnightblue" d="M72.95,-481.27C105.03,-446.23 183.92,-360.1 217.48,-323.45"/>
<polygon fill="midnightblue" stroke="midnightblue" points="220.1,-325.76 224.28,-316.03 214.94,-321.04 220.1,-325.76"/>
</g>
<!-- Node18 -->
<g id="node18" class="node">
<title>Node18</title>
<g id="a_node18"><a xlink:href="classslljit_1_1_parser.html#ae7a9c738da8b5802b80001e306ad668b" target="_top" xlink:title=" ">
<polygon fill="none" stroke="black" points="1265,-101.5 1265,-131.5 1355,-131.5 1355,-101.5 1265,-101.5"/>
<text text-anchor="start" x="1273" y="-119.5" font-family="Helvetica,sans-Serif" font-size="10.00">slljit::Parser::pop</text>
<text text-anchor="middle" x="1310" y="-108.5" font-family="Helvetica,sans-Serif" font-size="10.00">_scope</text>
</a>
</g>
</g>
<!-- Node1&#45;&gt;Node18 -->
<g id="edge68" class="edge">
<title>Node1&#45;&gt;Node18</title>
<path fill="none" stroke="midnightblue" d="M93.1,-511.55C156.99,-538.34 299.62,-591.5 425.5,-591.5 425.5,-591.5 425.5,-591.5 595,-591.5 624.57,-591.5 996.61,-287.66 1015,-264.5 1037.25,-236.48 1023.02,-214.8 1051,-192.5 1106.8,-148.02 1138.78,-175.44 1207,-154.5 1225.12,-148.94 1244.7,-141.9 1261.82,-135.4"/>
<polygon fill="midnightblue" stroke="midnightblue" points="1263.5,-138.5 1271.58,-131.65 1260.99,-131.97 1263.5,-138.5"/>
</g>
<!-- Node19 -->
<g id="node19" class="node">
<title>Node19</title>
<g id="a_node19"><a xlink:href="classslljit_1_1_parser.html#a07488f6e4f1ec72ba5c6f04ad550b7a3" target="_top" xlink:title=" ">
<polygon fill="none" stroke="black" points="1262.5,-13.5 1262.5,-43.5 1357.5,-43.5 1357.5,-13.5 1262.5,-13.5"/>
<text text-anchor="start" x="1270.5" y="-31.5" font-family="Helvetica,sans-Serif" font-size="10.00">slljit::Parser::push</text>
<text text-anchor="middle" x="1310" y="-20.5" font-family="Helvetica,sans-Serif" font-size="10.00">_scope</text>
</a>
</g>
</g>
<!-- Node1&#45;&gt;Node19 -->
<g id="edge69" class="edge">
<title>Node1&#45;&gt;Node19</title>
<path fill="none" stroke="midnightblue" d="M63.24,-481.46C85.9,-404.62 200.23,-59.5 425.5,-59.5 425.5,-59.5 425.5,-59.5 949,-59.5 1056.47,-59.5 1181.33,-45.62 1252.17,-36.43"/>
<polygon fill="midnightblue" stroke="midnightblue" points="1252.76,-39.88 1262.22,-35.11 1251.85,-32.94 1252.76,-39.88"/>
</g>
<!-- Node31 -->
<g id="node31" class="node">
<title>Node31</title>
<g id="a_node31"><a xlink:href="classslljit_1_1_parser.html#ad51a4352241881b5c6d118db9ccdec46" target="_top" xlink:title=" ">
<polygon fill="none" stroke="black" points="1058,-621 1058,-640 1200,-640 1200,-621 1058,-621"/>
<text text-anchor="middle" x="1129" y="-628" font-family="Helvetica,sans-Serif" font-size="10.00">slljit::Parser::ParsePrototype</text>
</a>
</g>
</g>
<!-- Node1&#45;&gt;Node31 -->
<g id="edge62" class="edge">
<title>Node1&#45;&gt;Node31</title>
<path fill="none" stroke="midnightblue" d="M66.84,-511.72C80.44,-536.32 110.91,-584.22 152,-605.5 260.39,-661.63 303.44,-630.5 425.5,-630.5 425.5,-630.5 425.5,-630.5 767,-630.5 863.52,-630.5 974.56,-630.5 1047.72,-630.5"/>
<polygon fill="midnightblue" stroke="midnightblue" points="1047.78,-634 1057.78,-630.5 1047.78,-627 1047.78,-634"/>
</g>
<!-- Node32 -->
<g id="node32" class="node">
<title>Node32</title>
<g id="a_node32"><a xlink:href="classslljit_1_1_parser.html#a0396f92b1fa56e2919cdb664a4ebeab9" target="_top" xlink:title=" ">
<polygon fill="none" stroke="black" points="173,-0.5 173,-30.5 295,-30.5 295,-0.5 173,-0.5"/>
<text text-anchor="start" x="181" y="-18.5" font-family="Helvetica,sans-Serif" font-size="10.00">slljit::Parser::set</text>
<text text-anchor="middle" x="234" y="-7.5" font-family="Helvetica,sans-Serif" font-size="10.00">_current_function_scope</text>
</a>
</g>
</g>
<!-- Node1&#45;&gt;Node32 -->
<g id="edge70" class="edge">
<title>Node1&#45;&gt;Node32</title>
<path fill="none" stroke="midnightblue" d="M60.18,-481.26C65.97,-410.41 93.39,-113.72 152,-45.5 155.45,-41.48 159.5,-38 163.9,-34.98"/>
<polygon fill="midnightblue" stroke="midnightblue" points="165.94,-37.84 172.76,-29.74 162.37,-31.82 165.94,-37.84"/>
</g>
<!-- Node3&#45;&gt;Node2 -->
<g id="edge3" class="edge">
<title>Node3&#45;&gt;Node2</title>
<path fill="none" stroke="midnightblue" d="M247.55,-316.04C287.67,-346.14 417.15,-440.28 537,-494.5 838.3,-630.82 916.55,-676.6 1243,-729.5 1301.79,-739.03 1329.4,-765.29 1377,-729.5 1421.99,-695.67 1451.1,-519.78 1460.6,-453.66"/>
<polygon fill="midnightblue" stroke="midnightblue" points="1464.08,-454.08 1462,-443.69 1457.15,-453.1 1464.08,-454.08"/>
</g>
<!-- Node4 -->
<g id="node4" class="node">
<title>Node4</title>
<g id="a_node4"><a xlink:href="classslljit_1_1_parser.html#a9fcfefd86a6000dcb40fa737361ea55b" target="_top" xlink:title="GetTokPrecedence &#45; Get the precedence of the pending binary operator token.">
<polygon fill="none" stroke="black" points="1243,-277 1243,-296 1377,-296 1377,-277 1243,-277"/>
<text text-anchor="middle" x="1310" y="-284" font-family="Helvetica,sans-Serif" font-size="10.00">slljit::Parser::getNextToken</text>
</a>
</g>
</g>
<!-- Node3&#45;&gt;Node4 -->
<g id="edge4" class="edge">
<title>Node3&#45;&gt;Node4</title>
<path fill="none" stroke="midnightblue" d="M255.87,-296.87C310.18,-272.72 460.86,-211.5 593,-211.5 593,-211.5 593,-211.5 767,-211.5 949.16,-211.5 1162.54,-253.58 1258.16,-274.7"/>
<polygon fill="midnightblue" stroke="midnightblue" points="1257.61,-278.17 1268.13,-276.93 1259.13,-271.33 1257.61,-278.17"/>
</g>
<!-- Node12 -->
<g id="node12" class="node">
<title>Node12</title>
<g id="a_node12"><a xlink:href="classslljit_1_1_parser.html#a79461bf414d03dcabb49d3bbd6f89607" target="_top" xlink:title=" ">
<polygon fill="none" stroke="black" points="352,-358 352,-377 501,-377 501,-358 352,-358"/>
<text text-anchor="middle" x="426.5" y="-365" font-family="Helvetica,sans-Serif" font-size="10.00">slljit::Parser::ParseExpression</text>
</a>
</g>
</g>
<!-- Node3&#45;&gt;Node12 -->
<g id="edge13" class="edge">
<title>Node3&#45;&gt;Node12</title>
<path fill="none" stroke="midnightblue" d="M264.77,-316.03C297.38,-326.48 349.86,-343.28 385.92,-354.83"/>
<polygon fill="midnightblue" stroke="midnightblue" points="385.04,-358.22 395.63,-357.94 387.17,-351.55 385.04,-358.22"/>
</g>
<!-- Node5 -->
<g id="node5" class="node">
<title>Node5</title>
<g id="a_node5"><a xlink:href="classslljit_1_1_tokenizer.html#a4f0b343321f5e4561a80e47a5cec05d2" target="_top" xlink:title=" ">
<polygon fill="none" stroke="black" points="1421,-271.5 1421,-301.5 1509,-301.5 1509,-271.5 1421,-271.5"/>
<text text-anchor="start" x="1429" y="-289.5" font-family="Helvetica,sans-Serif" font-size="10.00">slljit::Tokenizer::</text>
<text text-anchor="middle" x="1465" y="-278.5" font-family="Helvetica,sans-Serif" font-size="10.00">gettok</text>
</a>
</g>
</g>
<!-- Node4&#45;&gt;Node5 -->
<g id="edge5" class="edge">
<title>Node4&#45;&gt;Node5</title>
<path fill="none" stroke="midnightblue" d="M1377.22,-286.5C1388.36,-286.5 1399.79,-286.5 1410.56,-286.5"/>
<polygon fill="midnightblue" stroke="midnightblue" points="1410.64,-290 1420.64,-286.5 1410.64,-283 1410.64,-290"/>
</g>
<!-- Node5&#45;&gt;Node5 -->
<g id="edge7" class="edge">
<title>Node5&#45;&gt;Node5</title>
<path fill="none" stroke="midnightblue" d="M1438.86,-301.66C1432.56,-311.06 1441.27,-320 1465,-320 1479.46,-320 1488.35,-316.68 1491.65,-311.96"/>
<polygon fill="midnightblue" stroke="midnightblue" points="1495.13,-311.47 1491.14,-301.66 1488.14,-311.82 1495.13,-311.47"/>
</g>
<!-- Node6 -->
<g id="node6" class="node">
<title>Node6</title>
<g id="a_node6"><a xlink:href="classslljit_1_1_tokenizer.html#aebe79ebb0da26fa5e89963683d474402" target="_top" xlink:title=" ">
<polygon fill="none" stroke="black" points="1572,-394.5 1572,-424.5 1660,-424.5 1660,-394.5 1572,-394.5"/>
<text text-anchor="start" x="1580" y="-412.5" font-family="Helvetica,sans-Serif" font-size="10.00">slljit::Tokenizer::</text>
<text text-anchor="middle" x="1616" y="-401.5" font-family="Helvetica,sans-Serif" font-size="10.00">_getchar</text>
</a>
</g>
</g>
<!-- Node5&#45;&gt;Node6 -->
<g id="edge6" class="edge">
<title>Node5&#45;&gt;Node6</title>
<path fill="none" stroke="midnightblue" d="M1475.76,-301.62C1490.26,-322.99 1519.42,-362.05 1553,-385.5 1556.07,-387.64 1559.35,-389.63 1562.75,-391.46"/>
<polygon fill="midnightblue" stroke="midnightblue" points="1561.41,-394.7 1571.93,-395.96 1564.49,-388.41 1561.41,-394.7"/>
</g>
<!-- Node7 -->
<g id="node7" class="node">
<title>Node7</title>
<g id="a_node7"><a xlink:href="classslljit_1_1_tokenizer.html#ac5b5748065cb054e0f34d995d1f3edce" target="_top" xlink:title=" ">
<polygon fill="none" stroke="black" points="1572,-345.5 1572,-375.5 1660,-375.5 1660,-345.5 1572,-345.5"/>
<text text-anchor="start" x="1580" y="-363.5" font-family="Helvetica,sans-Serif" font-size="10.00">slljit::Tokenizer::</text>
<text text-anchor="middle" x="1616" y="-352.5" font-family="Helvetica,sans-Serif" font-size="10.00">is_id_char</text>
</a>
</g>
</g>
<!-- Node5&#45;&gt;Node7 -->
<g id="edge8" class="edge">
<title>Node5&#45;&gt;Node7</title>
<path fill="none" stroke="midnightblue" d="M1489.84,-301.52C1507.04,-312.02 1530.99,-325.99 1553,-336.5 1556.59,-338.21 1560.33,-339.9 1564.13,-341.54"/>
<polygon fill="midnightblue" stroke="midnightblue" points="1563.03,-344.87 1573.61,-345.49 1565.72,-338.41 1563.03,-344.87"/>
</g>
<!-- Node8 -->
<g id="node8" class="node">
<title>Node8</title>
<g id="a_node8"><a xlink:href="classslljit_1_1_tokenizer.html#afddb21e93063a4c2338c2d42e23d18d2" target="_top" xlink:title=" ">
<polygon fill="none" stroke="black" points="1572,-296.5 1572,-326.5 1660,-326.5 1660,-296.5 1572,-296.5"/>
<text text-anchor="start" x="1580" y="-314.5" font-family="Helvetica,sans-Serif" font-size="10.00">slljit::Tokenizer::</text>
<text text-anchor="middle" x="1616" y="-303.5" font-family="Helvetica,sans-Serif" font-size="10.00">is_id_start_char</text>
</a>
</g>
</g>
<!-- Node5&#45;&gt;Node8 -->
<g id="edge9" class="edge">
<title>Node5&#45;&gt;Node8</title>
<path fill="none" stroke="midnightblue" d="M1509.1,-293.73C1525.62,-296.5 1544.67,-299.7 1562.02,-302.61"/>
<polygon fill="midnightblue" stroke="midnightblue" points="1561.56,-306.08 1572,-304.29 1562.72,-299.18 1561.56,-306.08"/>
</g>
<!-- Node9 -->
<g id="node9" class="node">
<title>Node9</title>
<g id="a_node9"><a xlink:href="classslljit_1_1_tokenizer.html#ada986d1651ab242c370288c198cd726d" target="_top" xlink:title=" ">
<polygon fill="none" stroke="black" points="1553,-247.5 1553,-277.5 1679,-277.5 1679,-247.5 1553,-247.5"/>
<text text-anchor="start" x="1561" y="-265.5" font-family="Helvetica,sans-Serif" font-size="10.00">slljit::Tokenizer::</text>
<text text-anchor="middle" x="1616" y="-254.5" font-family="Helvetica,sans-Serif" font-size="10.00">is_reserved_command_id</text>
</a>
</g>
</g>
<!-- Node5&#45;&gt;Node9 -->
<g id="edge10" class="edge">
<title>Node5&#45;&gt;Node9</title>
<path fill="none" stroke="midnightblue" d="M1509.1,-279.56C1519.67,-277.86 1531.27,-275.99 1542.8,-274.13"/>
<polygon fill="midnightblue" stroke="midnightblue" points="1543.56,-277.55 1552.88,-272.51 1542.45,-270.64 1543.56,-277.55"/>
</g>
<!-- Node10 -->
<g id="node10" class="node">
<title>Node10</title>
<g id="a_node10"><a xlink:href="classslljit_1_1_tokenizer.html#ab29a7d2f06bb354a3f748106f5ea3e6c" target="_top" xlink:title=" ">
<polygon fill="none" stroke="black" points="1571.5,-198.5 1571.5,-228.5 1660.5,-228.5 1660.5,-198.5 1571.5,-198.5"/>
<text text-anchor="start" x="1579.5" y="-216.5" font-family="Helvetica,sans-Serif" font-size="10.00">slljit::Tokenizer::</text>
<text text-anchor="middle" x="1616" y="-205.5" font-family="Helvetica,sans-Serif" font-size="10.00">is_special_literal</text>
</a>
</g>
</g>
<!-- Node5&#45;&gt;Node10 -->
<g id="edge11" class="edge">
<title>Node5&#45;&gt;Node10</title>
<path fill="none" stroke="midnightblue" d="M1490.62,-271.38C1507.78,-261.15 1531.37,-247.71 1553,-237.5 1556.6,-235.8 1560.35,-234.13 1564.15,-232.5"/>
<polygon fill="midnightblue" stroke="midnightblue" points="1565.73,-235.63 1573.63,-228.56 1563.05,-229.16 1565.73,-235.63"/>
</g>
<!-- Node11 -->
<g id="node11" class="node">
<title>Node11</title>
<g id="a_node11"><a xlink:href="classslljit_1_1_tokenizer.html#ae5cc0911ed858f6bc7bf206928cd66ae" target="_top" xlink:title=" ">
<polygon fill="none" stroke="black" points="1572,-149.5 1572,-179.5 1660,-179.5 1660,-149.5 1572,-149.5"/>
<text text-anchor="start" x="1580" y="-167.5" font-family="Helvetica,sans-Serif" font-size="10.00">slljit::Tokenizer::</text>
<text text-anchor="middle" x="1616" y="-156.5" font-family="Helvetica,sans-Serif" font-size="10.00">set_lok_location</text>
</a>
</g>
</g>
<!-- Node5&#45;&gt;Node11 -->
<g id="edge12" class="edge">
<title>Node5&#45;&gt;Node11</title>
<path fill="none" stroke="midnightblue" d="M1476.04,-271.18C1490.67,-249.96 1519.74,-211.6 1553,-188.5 1556.07,-186.37 1559.36,-184.39 1562.76,-182.56"/>
<polygon fill="midnightblue" stroke="midnightblue" points="1564.5,-185.61 1571.95,-178.07 1561.43,-179.32 1564.5,-185.61"/>
</g>
<!-- Node13 -->
<g id="node13" class="node">
<title>Node13</title>
<g id="a_node13"><a xlink:href="classslljit_1_1_parser.html#ae387c9672ec50720d8cb969558aedbe9" target="_top" xlink:title=" ">
<polygon fill="none" stroke="black" points="537,-318.5 537,-348.5 651,-348.5 651,-318.5 537,-318.5"/>
<text text-anchor="start" x="545" y="-336.5" font-family="Helvetica,sans-Serif" font-size="10.00">slljit::Parser::ParseBin</text>
<text text-anchor="middle" x="594" y="-325.5" font-family="Helvetica,sans-Serif" font-size="10.00">OpRHS</text>
</a>
</g>
</g>
<!-- Node12&#45;&gt;Node13 -->
<g id="edge14" class="edge">
<title>Node12&#45;&gt;Node13</title>
<path fill="none" stroke="midnightblue" d="M474.04,-357.94C490.35,-354.59 508.99,-350.76 526.6,-347.14"/>
<polygon fill="midnightblue" stroke="midnightblue" points="527.73,-350.48 536.82,-345.04 526.32,-343.63 527.73,-350.48"/>
</g>
<!-- Node15 -->
<g id="node15" class="node">
<title>Node15</title>
<g id="a_node15"><a xlink:href="classslljit_1_1_parser.html#af8579896f39ac563d2edd14404d70f41" target="_top" xlink:title=" ">
<polygon fill="none" stroke="black" points="703.5,-260 703.5,-279 828.5,-279 828.5,-260 703.5,-260"/>
<text text-anchor="middle" x="766" y="-267" font-family="Helvetica,sans-Serif" font-size="10.00">slljit::Parser::ParseUnary</text>
</a>
</g>
</g>
<!-- Node12&#45;&gt;Node15 -->
<g id="edge61" class="edge">
<title>Node12&#45;&gt;Node15</title>
<path fill="none" stroke="midnightblue" d="M442.06,-357.87C462.42,-344.85 500.98,-321.85 537,-309.5 587.72,-292.11 647.49,-281.98 693.11,-276.27"/>
<polygon fill="midnightblue" stroke="midnightblue" points="693.7,-279.72 703.21,-275.05 692.86,-272.77 693.7,-279.72"/>
</g>
<!-- Node13&#45;&gt;Node4 -->
<g id="edge15" class="edge">
<title>Node13&#45;&gt;Node4</title>
<path fill="none" stroke="midnightblue" d="M651.14,-330.5C758.95,-324.64 1002.39,-310.88 1207,-295.5 1215.35,-294.87 1224.07,-294.17 1232.75,-293.45"/>
<polygon fill="midnightblue" stroke="midnightblue" points="1233.24,-296.92 1242.9,-292.58 1232.64,-289.94 1233.24,-296.92"/>
</g>
<!-- Node13&#45;&gt;Node13 -->
<g id="edge17" class="edge">
<title>Node13&#45;&gt;Node13</title>
<path fill="none" stroke="midnightblue" d="M565.07,-348.66C558.1,-358.06 567.74,-367 594,-367 610,-367 619.84,-363.68 623.5,-358.96"/>
<polygon fill="midnightblue" stroke="midnightblue" points="626.97,-358.45 622.93,-348.66 619.98,-358.84 626.97,-358.45"/>
</g>
<!-- Node14 -->
<g id="node14" class="node">
<title>Node14</title>
<g id="a_node14"><a xlink:href="classslljit_1_1_parser.html#a8485bea3e380a80c8296092996c9ef96" target="_top" xlink:title="Get the precedence of the pending binary operator token.">
<polygon fill="none" stroke="black" points="687,-354 687,-373 845,-373 845,-354 687,-354"/>
<text text-anchor="middle" x="766" y="-361" font-family="Helvetica,sans-Serif" font-size="10.00">slljit::Parser::GetTokPrecedence</text>
</a>
</g>
</g>
<!-- Node13&#45;&gt;Node14 -->
<g id="edge16" class="edge">
<title>Node13&#45;&gt;Node14</title>
<path fill="none" stroke="midnightblue" d="M651.14,-343.41C667.07,-346.22 684.55,-349.3 700.92,-352.19"/>
<polygon fill="midnightblue" stroke="midnightblue" points="700.49,-355.67 710.95,-353.96 701.71,-348.78 700.49,-355.67"/>
</g>
<!-- Node13&#45;&gt;Node15 -->
<g id="edge18" class="edge">
<title>Node13&#45;&gt;Node15</title>
<path fill="none" stroke="midnightblue" d="M634.86,-318.49C663.7,-307.64 702.31,-293.1 729.98,-282.69"/>
<polygon fill="midnightblue" stroke="midnightblue" points="731.51,-285.85 739.63,-279.05 729.04,-279.3 731.51,-285.85"/>
</g>
<!-- Node15&#45;&gt;Node4 -->
<g id="edge19" class="edge">
<title>Node15&#45;&gt;Node4</title>
<path fill="none" stroke="midnightblue" d="M828.65,-271.43C928.23,-274.56 1124.25,-280.71 1232.57,-284.1"/>
<polygon fill="midnightblue" stroke="midnightblue" points="1232.66,-287.61 1242.77,-284.42 1232.88,-280.61 1232.66,-287.61"/>
</g>
<!-- Node15&#45;&gt;Node15 -->
<g id="edge60" class="edge">
<title>Node15&#45;&gt;Node15</title>
<path fill="none" stroke="midnightblue" d="M739.49,-279.26C726.59,-288.07 735.43,-297.5 766,-297.5 786.54,-297.5 797.27,-293.24 798.19,-287.77"/>
<polygon fill="midnightblue" stroke="midnightblue" points="800.97,-285.64 792.51,-279.26 795.14,-289.52 800.97,-285.64"/>
</g>
<!-- Node16 -->
<g id="node16" class="node">
<title>Node16</title>
<g id="a_node16"><a xlink:href="classslljit_1_1_parser.html#a45cb3e4f600e8e2c253490e7d878e8cd" target="_top" xlink:title=" ">
<polygon fill="none" stroke="black" points="881,-392 881,-411 1015,-411 1015,-392 881,-392"/>
<text text-anchor="middle" x="948" y="-399" font-family="Helvetica,sans-Serif" font-size="10.00">slljit::Parser::ParsePrimary</text>
</a>
</g>
</g>
<!-- Node15&#45;&gt;Node16 -->
<g id="edge20" class="edge">
<title>Node15&#45;&gt;Node16</title>
<path fill="none" stroke="midnightblue" d="M780.24,-279.21C811.05,-301.81 887.83,-358.11 925.49,-385.72"/>
<polygon fill="midnightblue" stroke="midnightblue" points="923.61,-388.69 933.74,-391.78 927.75,-383.04 923.61,-388.69"/>
</g>
<!-- Node16&#45;&gt;Node2 -->
<g id="edge21" class="edge">
<title>Node16&#45;&gt;Node2</title>
<path fill="none" stroke="midnightblue" d="M978.89,-391.93C1049.82,-370.78 1233.12,-325.31 1377,-369.5 1400.77,-376.8 1423.88,-393.04 1440.3,-406.64"/>
<polygon fill="midnightblue" stroke="midnightblue" points="1438.38,-409.6 1448.25,-413.45 1442.93,-404.28 1438.38,-409.6"/>
</g>
<!-- Node17 -->
<g id="node17" class="node">
<title>Node17</title>
<g id="a_node17"><a xlink:href="classslljit_1_1_parser.html#a81023e7a6221eb6b92027bd21433c9dd" target="_top" xlink:title="forexpr ::= &#39;for&#39; identifier &#39;=&#39; expr &#39;,&#39; expr (&#39;,&#39; expr)? &#39;in&#39; expression">
<polygon fill="none" stroke="black" points="1062,-88 1062,-107 1196,-107 1196,-88 1062,-88"/>
<text text-anchor="middle" x="1129" y="-95" font-family="Helvetica,sans-Serif" font-size="10.00">slljit::Parser::ParseForExpr</text>
</a>
</g>
</g>
<!-- Node16&#45;&gt;Node17 -->
<g id="edge22" class="edge">
<title>Node16&#45;&gt;Node17</title>
<path fill="none" stroke="midnightblue" d="M949.34,-391.89C951.3,-351.59 964.41,-194.69 1051,-116.5 1052.74,-114.93 1054.6,-113.48 1056.54,-112.14"/>
<polygon fill="midnightblue" stroke="midnightblue" points="1058.58,-115 1065.54,-107.01 1055.12,-108.92 1058.58,-115"/>
</g>
<!-- Node20 -->
<g id="node20" class="node">
<title>Node20</title>
<g id="a_node20"><a xlink:href="classslljit_1_1_parser.html#a25cfefcbeea85744e23370d3a6f8ad5b" target="_top" xlink:title=" ">
<polygon fill="none" stroke="black" points="1051,-441 1051,-460 1207,-460 1207,-441 1051,-441"/>
<text text-anchor="middle" x="1129" y="-448" font-family="Helvetica,sans-Serif" font-size="10.00">slljit::Parser::ParseIdentifierExpr</text>
</a>
</g>
</g>
<!-- Node16&#45;&gt;Node20 -->
<g id="edge29" class="edge">
<title>Node16&#45;&gt;Node20</title>
<path fill="none" stroke="midnightblue" d="M983.94,-411.06C1012.27,-418.82 1052.41,-429.81 1083.13,-438.22"/>
<polygon fill="midnightblue" stroke="midnightblue" points="1082.58,-441.7 1093.15,-440.96 1084.43,-434.94 1082.58,-441.7"/>
</g>
<!-- Node24 -->
<g id="node24" class="node">
<title>Node24</title>
<g id="a_node24"><a xlink:href="classslljit_1_1_parser.html#a149f5e88cb03aa08c388e6320c6c1bac" target="_top" xlink:title="ifexpr ::= &#39;if&#39; expression &#39;then&#39; expression &#39;else&#39; expression">
<polygon fill="none" stroke="black" points="1066.5,-126 1066.5,-145 1191.5,-145 1191.5,-126 1066.5,-126"/>
<text text-anchor="middle" x="1129" y="-133" font-family="Helvetica,sans-Serif" font-size="10.00">slljit::Parser::ParseIfExpr</text>
</a>
</g>
</g>
<!-- Node16&#45;&gt;Node24 -->
<g id="edge37" class="edge">
<title>Node16&#45;&gt;Node24</title>
<path fill="none" stroke="midnightblue" d="M956.67,-391.81C970.05,-374.53 997.86,-336.88 1015,-301.5 1037.25,-255.59 1021.1,-233.84 1051,-192.5 1063.83,-174.76 1083.82,-160.2 1100.22,-150.23"/>
<polygon fill="midnightblue" stroke="midnightblue" points="1102.02,-153.23 1108.89,-145.17 1098.49,-147.19 1102.02,-153.23"/>
</g>
<!-- Node25 -->
<g id="node25" class="node">
<title>Node25</title>
<g id="a_node25"><a xlink:href="classslljit_1_1_parser.html#af9ccc5948e2cf9051c2569cc42dc3bb7" target="_top" xlink:title="numberexpr ::= number">
<polygon fill="none" stroke="black" points="1056,-202 1056,-221 1202,-221 1202,-202 1056,-202"/>
<text text-anchor="middle" x="1129" y="-209" font-family="Helvetica,sans-Serif" font-size="10.00">slljit::Parser::ParseLiteralExpr</text>
</a>
</g>
</g>
<!-- Node16&#45;&gt;Node25 -->
<g id="edge44" class="edge">
<title>Node16&#45;&gt;Node25</title>
<path fill="none" stroke="midnightblue" d="M960.04,-391.71C973.4,-379.73 996.4,-358.69 1015,-339.5 1051.92,-301.42 1092.42,-254.05 1113.47,-228.97"/>
<polygon fill="midnightblue" stroke="midnightblue" points="1116.34,-231 1120.07,-221.09 1110.97,-226.51 1116.34,-231"/>
</g>
<!-- Node27 -->
<g id="node27" class="node">
<title>Node27</title>
<g id="a_node27"><a xlink:href="classslljit_1_1_parser.html#a6e2e0f6a2cc445f3a956db59c8d2da66" target="_top" xlink:title="parenexpr ::= &#39;(&#39; expression &#39;)&#39;">
<polygon fill="none" stroke="black" points="1056,-392 1056,-411 1202,-411 1202,-392 1056,-392"/>
<text text-anchor="middle" x="1129" y="-399" font-family="Helvetica,sans-Serif" font-size="10.00">slljit::Parser::ParseParenExpr</text>
</a>
</g>
</g>
<!-- Node16&#45;&gt;Node27 -->
<g id="edge48" class="edge">
<title>Node16&#45;&gt;Node27</title>
<path fill="none" stroke="midnightblue" d="M1015.14,-401.5C1025.08,-401.5 1035.43,-401.5 1045.65,-401.5"/>
<polygon fill="midnightblue" stroke="midnightblue" points="1045.81,-405 1055.81,-401.5 1045.81,-398 1045.81,-405"/>
</g>
<!-- Node28 -->
<g id="node28" class="node">
<title>Node28</title>
<g id="a_node28"><a xlink:href="classslljit_1_1_parser.html#a435877d3f2869d140a7cca646546a114" target="_top" xlink:title="varexpr ::= &#39;g_var&#39; identifier (&#39;=&#39; expression)?">
<polygon fill="none" stroke="black" points="1061.5,-529 1061.5,-548 1196.5,-548 1196.5,-529 1061.5,-529"/>
<text text-anchor="middle" x="1129" y="-536" font-family="Helvetica,sans-Serif" font-size="10.00">slljit::Parser::ParseVarExpr</text>
</a>
</g>
</g>
<!-- Node16&#45;&gt;Node28 -->
<g id="edge52" class="edge">
<title>Node16&#45;&gt;Node28</title>
<path fill="none" stroke="midnightblue" d="M961.59,-411.13C991.94,-434.36 1069.42,-493.67 1106.97,-522.41"/>
<polygon fill="midnightblue" stroke="midnightblue" points="1105.12,-525.4 1115.19,-528.69 1109.37,-519.84 1105.12,-525.4"/>
</g>
<!-- Node17&#45;&gt;Node2 -->
<g id="edge23" class="edge">
<title>Node17&#45;&gt;Node2</title>
<path fill="none" stroke="midnightblue" d="M1184.97,-87.96C1248.92,-78.23 1349.28,-67.65 1377,-91.5 1417.55,-126.38 1396.53,-278.61 1413,-329.5 1421.75,-356.53 1437.26,-385.15 1448.88,-404.63"/>
<polygon fill="midnightblue" stroke="midnightblue" points="1446.04,-406.69 1454.23,-413.41 1452.02,-403.05 1446.04,-406.69"/>
</g>
<!-- Node17&#45;&gt;Node3 -->
<g id="edge26" class="edge">
<title>Node17&#45;&gt;Node3</title>
<path fill="none" stroke="midnightblue" d="M1061.8,-97.5C989.39,-97.5 869.94,-97.5 767,-97.5 593,-97.5 593,-97.5 593,-97.5 481.71,-97.5 445.3,-104.83 352,-165.5 302.41,-197.75 263.12,-257.56 245.34,-287.86"/>
<polygon fill="midnightblue" stroke="midnightblue" points="242.08,-286.51 240.15,-296.93 248.16,-289.99 242.08,-286.51"/>
</g>
<!-- Node17&#45;&gt;Node4 -->
<g id="edge24" class="edge">
<title>Node17&#45;&gt;Node4</title>
<path fill="none" stroke="midnightblue" d="M1194.02,-107.1C1198.8,-109.6 1203.22,-112.69 1207,-116.5 1255.32,-165.13 1195.96,-216.62 1243,-266.5 1244.8,-268.41 1246.77,-270.13 1248.87,-271.69"/>
<polygon fill="midnightblue" stroke="midnightblue" points="1247.18,-274.76 1257.55,-276.95 1250.81,-268.78 1247.18,-274.76"/>
</g>
<!-- Node17&#45;&gt;Node12 -->
<g id="edge25" class="edge">
<title>Node17&#45;&gt;Node12</title>
<path fill="none" stroke="midnightblue" d="M1070.31,-107.04C960.83,-126.87 717.74,-179.28 537,-279.5 501.04,-299.44 464.94,-331.29 444.49,-350.71"/>
<polygon fill="midnightblue" stroke="midnightblue" points="441.98,-348.27 437.21,-357.73 446.84,-353.31 441.98,-348.27"/>
</g>
<!-- Node17&#45;&gt;Node18 -->
<g id="edge27" class="edge">
<title>Node17&#45;&gt;Node18</title>
<path fill="none" stroke="midnightblue" d="M1196.14,-104.52C1215.47,-106.57 1236.36,-108.79 1254.85,-110.75"/>
<polygon fill="midnightblue" stroke="midnightblue" points="1254.54,-114.24 1264.85,-111.81 1255.28,-107.28 1254.54,-114.24"/>
</g>
<!-- Node17&#45;&gt;Node19 -->
<g id="edge28" class="edge">
<title>Node17&#45;&gt;Node19</title>
<path fill="none" stroke="midnightblue" d="M1163.63,-87.92C1177.22,-83.82 1192.97,-78.76 1207,-73.5 1218.63,-69.14 1244.23,-57.84 1266.87,-47.66"/>
<polygon fill="midnightblue" stroke="midnightblue" points="1268.34,-50.84 1276.01,-43.54 1265.46,-44.46 1268.34,-50.84"/>
</g>
<!-- Node20&#45;&gt;Node2 -->
<g id="edge34" class="edge">
<title>Node20&#45;&gt;Node2</title>
<path fill="none" stroke="midnightblue" d="M1207.05,-445.43C1266.41,-441.51 1347.39,-436.18 1402.47,-432.55"/>
<polygon fill="midnightblue" stroke="midnightblue" points="1403.03,-436.02 1412.78,-431.87 1402.57,-429.04 1403.03,-436.02"/>
</g>
<!-- Node20&#45;&gt;Node4 -->
<g id="edge35" class="edge">
<title>Node20&#45;&gt;Node4</title>
<path fill="none" stroke="midnightblue" d="M1166.21,-440.96C1179.85,-436.24 1194.97,-429.57 1207,-420.5 1229.31,-403.68 1275.17,-337.28 1296.97,-304.71"/>
<polygon fill="midnightblue" stroke="midnightblue" points="1300.05,-306.4 1302.68,-296.14 1294.22,-302.52 1300.05,-306.4"/>
</g>
<!-- Node20&#45;&gt;Node12 -->
<g id="edge36" class="edge">
<title>Node20&#45;&gt;Node12</title>
<path fill="none" stroke="midnightblue" d="M1075.89,-460C970.52,-476.97 726.07,-504.84 537,-438.5 501.86,-426.17 466.71,-400.41 446.04,-383.54"/>
<polygon fill="midnightblue" stroke="midnightblue" points="448.28,-380.85 438.36,-377.14 443.8,-386.23 448.28,-380.85"/>
</g>
<!-- Node21 -->
<g id="node21" class="node">
<title>Node21</title>
<g id="a_node21"><a xlink:href="classslljit_1_1_parser.html#a4c93eea2333b7705c6aea18df2105196" target="_top" xlink:title=" ">
<polygon fill="none" stroke="black" points="1265.5,-391.5 1265.5,-421.5 1354.5,-421.5 1354.5,-391.5 1265.5,-391.5"/>
<text text-anchor="start" x="1273.5" y="-409.5" font-family="Helvetica,sans-Serif" font-size="10.00">slljit::Parser::find</text>
<text text-anchor="middle" x="1310" y="-398.5" font-family="Helvetica,sans-Serif" font-size="10.00">_var_in_scope</text>
</a>
</g>
</g>
<!-- Node20&#45;&gt;Node21 -->
<g id="edge30" class="edge">
<title>Node20&#45;&gt;Node21</title>
<path fill="none" stroke="midnightblue" d="M1168.84,-440.95C1194.12,-434.74 1227.43,-426.55 1255.23,-419.72"/>
<polygon fill="midnightblue" stroke="midnightblue" points="1256.33,-423.05 1265.2,-417.27 1254.66,-416.25 1256.33,-423.05"/>
</g>
<!-- Node22 -->
<g id="node22" class="node">
<title>Node22</title>
<g id="a_node22"><a xlink:href="classslljit_1_1_parser.html#aee4666b5cca40f389e2458033d9006e3" target="_top" xlink:title=" ">
<polygon fill="none" stroke="black" points="1249,-479.5 1249,-509.5 1371,-509.5 1371,-479.5 1249,-479.5"/>
<text text-anchor="start" x="1257" y="-497.5" font-family="Helvetica,sans-Serif" font-size="10.00">slljit::Parser::get</text>
<text text-anchor="middle" x="1310" y="-486.5" font-family="Helvetica,sans-Serif" font-size="10.00">_current_function_scope</text>
</a>
</g>
</g>
<!-- Node20&#45;&gt;Node22 -->
<g id="edge32" class="edge">
<title>Node20&#45;&gt;Node22</title>
<path fill="none" stroke="midnightblue" d="M1168.84,-460.05C1189.35,-465.09 1215.16,-471.43 1239.03,-477.3"/>
<polygon fill="midnightblue" stroke="midnightblue" points="1238.21,-480.7 1248.76,-479.69 1239.88,-473.91 1238.21,-480.7"/>
</g>
<!-- Node23 -->
<g id="node23" class="node">
<title>Node23</title>
<g id="a_node23"><a xlink:href="classslljit_1_1_tokenizer.html#a6270acd003b9e0a1323c1fdd54cd2fe2" target="_top" xlink:title=" ">
<polygon fill="none" stroke="black" points="1266,-567.5 1266,-597.5 1354,-597.5 1354,-567.5 1266,-567.5"/>
<text text-anchor="start" x="1274" y="-585.5" font-family="Helvetica,sans-Serif" font-size="10.00">slljit::Tokenizer::</text>
<text text-anchor="middle" x="1310" y="-574.5" font-family="Helvetica,sans-Serif" font-size="10.00">get_identifier</text>
</a>
</g>
</g>
<!-- Node20&#45;&gt;Node23 -->
<g id="edge33" class="edge">
<title>Node20&#45;&gt;Node23</title>
<path fill="none" stroke="midnightblue" d="M1143.16,-460.21C1171.91,-481.41 1240.88,-532.27 1280.22,-561.28"/>
<polygon fill="midnightblue" stroke="midnightblue" points="1278.49,-564.35 1288.61,-567.46 1282.64,-558.71 1278.49,-564.35"/>
</g>
<!-- Node21&#45;&gt;Node2 -->
<g id="edge31" class="edge">
<title>Node21&#45;&gt;Node2</title>
<path fill="none" stroke="midnightblue" d="M1354.84,-412.8C1369.69,-414.94 1386.56,-417.37 1402.53,-419.66"/>
<polygon fill="midnightblue" stroke="midnightblue" points="1402.46,-423.19 1412.85,-421.15 1403.45,-416.26 1402.46,-423.19"/>
</g>
<!-- Node24&#45;&gt;Node2 -->
<g id="edge38" class="edge">
<title>Node24&#45;&gt;Node2</title>
<path fill="none" stroke="midnightblue" d="M1191.54,-139.97C1255.83,-145.9 1350.89,-158.66 1377,-183.5 1425.42,-229.57 1389.54,-266.92 1413,-329.5 1422.97,-356.1 1438.3,-384.79 1449.55,-404.4"/>
<polygon fill="midnightblue" stroke="midnightblue" points="1446.65,-406.36 1454.71,-413.24 1452.7,-402.84 1446.65,-406.36"/>
</g>
<!-- Node24&#45;&gt;Node3 -->
<g id="edge41" class="edge">
<title>Node24&#45;&gt;Node3</title>
<path fill="none" stroke="midnightblue" d="M1072.22,-145.04C1001.46,-156.3 875.55,-173.5 767,-173.5 593,-173.5 593,-173.5 593,-173.5 485.36,-173.5 450.08,-153.15 352,-197.5 306.52,-218.06 267.21,-263.51 247.84,-288.74"/>
<polygon fill="midnightblue" stroke="midnightblue" points="245.03,-286.65 241.84,-296.75 250.64,-290.85 245.03,-286.65"/>
</g>
<!-- Node24&#45;&gt;Node4 -->
<g id="edge39" class="edge">
<title>Node24&#45;&gt;Node4</title>
<path fill="none" stroke="midnightblue" d="M1147.51,-145.09C1164.49,-155.1 1190.1,-172.16 1207,-192.5 1230.37,-220.63 1215.17,-242.77 1243,-266.5 1245.55,-268.68 1248.33,-270.61 1251.27,-272.34"/>
<polygon fill="midnightblue" stroke="midnightblue" points="1249.92,-275.58 1260.43,-276.92 1253.05,-269.32 1249.92,-275.58"/>
</g>
<!-- Node24&#45;&gt;Node12 -->
<g id="edge40" class="edge">
<title>Node24&#45;&gt;Node12</title>
<path fill="none" stroke="midnightblue" d="M1085.89,-145.09C1074.17,-148.69 1061.72,-153.42 1051,-159.5 1028.96,-172 896.44,-291.41 881,-311.5 859.44,-339.55 875.15,-363.98 845,-382.5 788.03,-417.49 596.59,-394.3 493.9,-378.59"/>
<polygon fill="midnightblue" stroke="midnightblue" points="494.36,-375.12 483.95,-377.04 493.29,-382.03 494.36,-375.12"/>
</g>
<!-- Node24&#45;&gt;Node18 -->
<g id="edge42" class="edge">
<title>Node24&#45;&gt;Node18</title>
<path fill="none" stroke="midnightblue" d="M1191.6,-128.96C1212.1,-126.79 1234.76,-124.38 1254.67,-122.27"/>
<polygon fill="midnightblue" stroke="midnightblue" points="1255.22,-125.73 1264.8,-121.19 1254.49,-118.77 1255.22,-125.73"/>
</g>
<!-- Node24&#45;&gt;Node19 -->
<g id="edge43" class="edge">
<title>Node24&#45;&gt;Node19</title>
<path fill="none" stroke="midnightblue" d="M1182.98,-125.93C1191.26,-123.45 1199.54,-120.36 1207,-116.5 1224.06,-107.68 1261.21,-73.96 1285.65,-50.92"/>
<polygon fill="midnightblue" stroke="midnightblue" points="1288.25,-53.28 1293.1,-43.86 1283.43,-48.2 1288.25,-53.28"/>
</g>
<!-- Node25&#45;&gt;Node2 -->
<g id="edge46" class="edge">
<title>Node25&#45;&gt;Node2</title>
<path fill="none" stroke="midnightblue" d="M1160.56,-201.99C1211.12,-188.3 1312.93,-169.59 1377,-217.5 1418.87,-248.81 1392.96,-281.21 1413,-329.5 1423.95,-355.9 1439.26,-384.81 1450.24,-404.54"/>
<polygon fill="midnightblue" stroke="midnightblue" points="1447.29,-406.44 1455.25,-413.44 1453.39,-403.01 1447.29,-406.44"/>
</g>
<!-- Node25&#45;&gt;Node4 -->
<g id="edge47" class="edge">
<title>Node25&#45;&gt;Node4</title>
<path fill="none" stroke="midnightblue" d="M1171.64,-221.1C1183.48,-224.71 1196.1,-229.45 1207,-235.5 1225.46,-245.74 1224.5,-256.33 1243,-266.5 1247.79,-269.13 1252.96,-271.46 1258.24,-273.51"/>
<polygon fill="midnightblue" stroke="midnightblue" points="1257.19,-276.85 1267.78,-276.91 1259.53,-270.26 1257.19,-276.85"/>
</g>
<!-- Node26 -->
<g id="node26" class="node">
<title>Node26</title>
<g id="a_node26"><a xlink:href="classslljit_1_1_tokenizer.html#a69d29df7401c1f268a754725c4561470" target="_top" xlink:title=" ">
<polygon fill="none" stroke="black" points="1266,-227.5 1266,-257.5 1354,-257.5 1354,-227.5 1266,-227.5"/>
<text text-anchor="start" x="1274" y="-245.5" font-family="Helvetica,sans-Serif" font-size="10.00">slljit::Tokenizer::</text>
<text text-anchor="middle" x="1310" y="-234.5" font-family="Helvetica,sans-Serif" font-size="10.00">get_literal_string</text>
</a>
</g>
</g>
<!-- Node25&#45;&gt;Node26 -->
<g id="edge45" class="edge">
<title>Node25&#45;&gt;Node26</title>
<path fill="none" stroke="midnightblue" d="M1185.17,-221.05C1207.7,-224.96 1233.66,-229.45 1255.98,-233.32"/>
<polygon fill="midnightblue" stroke="midnightblue" points="1255.5,-236.79 1265.95,-235.04 1256.69,-229.89 1255.5,-236.79"/>
</g>
<!-- Node27&#45;&gt;Node2 -->
<g id="edge49" class="edge">
<title>Node27&#45;&gt;Node2</title>
<path fill="none" stroke="midnightblue" d="M1164.94,-391.95C1213.32,-380.27 1303.11,-364.17 1377,-382.5 1397.29,-387.53 1418.05,-398.26 1434.21,-408.09"/>
<polygon fill="midnightblue" stroke="midnightblue" points="1432.35,-411.06 1442.68,-413.42 1436.08,-405.13 1432.35,-411.06"/>
</g>
<!-- Node27&#45;&gt;Node4 -->
<g id="edge50" class="edge">
<title>Node27&#45;&gt;Node4</title>
<path fill="none" stroke="midnightblue" d="M1144.95,-391.89C1175.94,-371.99 1247.38,-326.09 1284.94,-301.96"/>
<polygon fill="midnightblue" stroke="midnightblue" points="1287.19,-304.67 1293.71,-296.32 1283.4,-298.78 1287.19,-304.67"/>
</g>
<!-- Node27&#45;&gt;Node12 -->
<g id="edge51" class="edge">
<title>Node27&#45;&gt;Node12</title>
<path fill="none" stroke="midnightblue" d="M1082.04,-411.01C1061.61,-414.78 1037.2,-418.65 1015,-420.5 803.28,-438.18 744.62,-460.58 537,-415.5 506.61,-408.9 474.28,-393.58 452.7,-382.01"/>
<polygon fill="midnightblue" stroke="midnightblue" points="454.31,-378.91 443.86,-377.17 450.95,-385.05 454.31,-378.91"/>
</g>
<!-- Node28&#45;&gt;Node2 -->
<g id="edge54" class="edge">
<title>Node28&#45;&gt;Node2</title>
<path fill="none" stroke="midnightblue" d="M1196.72,-545.91C1248.39,-548.76 1320.44,-546.29 1377,-519.5 1408.08,-504.78 1433.81,-473.79 1449.04,-452.08"/>
<polygon fill="midnightblue" stroke="midnightblue" points="1452,-453.94 1454.72,-443.7 1446.21,-450.01 1452,-453.94"/>
</g>
<!-- Node28&#45;&gt;Node4 -->
<g id="edge56" class="edge">
<title>Node28&#45;&gt;Node4</title>
<path fill="none" stroke="midnightblue" d="M1144.26,-528.8C1161.19,-516.66 1189.36,-494.4 1207,-469.5 1231.19,-435.35 1223.04,-419.28 1243,-382.5 1258.66,-353.65 1280.99,-322.8 1295.24,-304.07"/>
<polygon fill="midnightblue" stroke="midnightblue" points="1298.02,-306.21 1301.34,-296.15 1292.47,-301.94 1298.02,-306.21"/>
</g>
<!-- Node28&#45;&gt;Node12 -->
<g id="edge57" class="edge">
<title>Node28&#45;&gt;Node12</title>
<path fill="none" stroke="midnightblue" d="M1061.39,-535.73C927.01,-529.27 628.47,-510.33 537,-466.5 496.42,-447.06 460,-407.72 441.12,-384.92"/>
<polygon fill="midnightblue" stroke="midnightblue" points="443.78,-382.64 434.77,-377.07 438.33,-387.04 443.78,-382.64"/>
</g>
<!-- Node28&#45;&gt;Node23 -->
<g id="edge53" class="edge">
<title>Node28&#45;&gt;Node23</title>
<path fill="none" stroke="midnightblue" d="M1168.84,-548.05C1194.3,-554.31 1227.91,-562.57 1255.84,-569.43"/>
<polygon fill="midnightblue" stroke="midnightblue" points="1255.3,-572.9 1265.84,-571.89 1256.97,-566.11 1255.3,-572.9"/>
</g>
<!-- Node29 -->
<g id="node29" class="node">
<title>Node29</title>
<g id="a_node29"><a xlink:href="classslljit_1_1_tokenizer.html#a9dcee05dc292fa291e6b9644d12c1907" target="_top" xlink:title=" ">
<polygon fill="none" stroke="black" points="1262.5,-665.5 1262.5,-695.5 1357.5,-695.5 1357.5,-665.5 1262.5,-665.5"/>
<text text-anchor="start" x="1270.5" y="-683.5" font-family="Helvetica,sans-Serif" font-size="10.00">slljit::Tokenizer::</text>
<text text-anchor="middle" x="1310" y="-672.5" font-family="Helvetica,sans-Serif" font-size="10.00">get_type_identifier</text>
</a>
</g>
</g>
<!-- Node28&#45;&gt;Node29 -->
<g id="edge55" class="edge">
<title>Node28&#45;&gt;Node29</title>
<path fill="none" stroke="midnightblue" d="M1141.17,-548.21C1156.57,-561.79 1184.93,-587.5 1207,-611.5 1224.33,-630.36 1222.19,-641.57 1243,-656.5 1246.2,-658.79 1249.64,-660.89 1253.2,-662.8"/>
<polygon fill="midnightblue" stroke="midnightblue" points="1251.76,-665.99 1262.28,-667.19 1254.8,-659.69 1251.76,-665.99"/>
</g>
<!-- Node30 -->
<g id="node30" class="node">
<title>Node30</title>
<g id="a_node30"><a xlink:href="classslljit_1_1_parser.html#acad3f159608acb847e0f693fc07fdd28" target="_top" xlink:title=" ">
<polygon fill="none" stroke="black" points="1262.5,-616.5 1262.5,-646.5 1357.5,-646.5 1357.5,-616.5 1262.5,-616.5"/>
<text text-anchor="start" x="1270.5" y="-634.5" font-family="Helvetica,sans-Serif" font-size="10.00">slljit::Parser::push</text>
<text text-anchor="middle" x="1310" y="-623.5" font-family="Helvetica,sans-Serif" font-size="10.00">_var_into_scope</text>
</a>
</g>
</g>
<!-- Node28&#45;&gt;Node30 -->
<g id="edge58" class="edge">
<title>Node28&#45;&gt;Node30</title>
<path fill="none" stroke="midnightblue" d="M1143.76,-548.15C1164.54,-562.44 1205.51,-589.46 1243,-607.5 1246.6,-609.23 1250.37,-610.92 1254.2,-612.54"/>
<polygon fill="midnightblue" stroke="midnightblue" points="1253.19,-615.9 1263.77,-616.42 1255.81,-609.42 1253.19,-615.9"/>
</g>
<!-- Node30&#45;&gt;Node2 -->
<g id="edge59" class="edge">
<title>Node30&#45;&gt;Node2</title>
<path fill="none" stroke="midnightblue" d="M1357.59,-619.76C1364.62,-616.58 1371.39,-612.56 1377,-607.5 1424.04,-565.1 1448.31,-491.67 1458.31,-453.37"/>
<polygon fill="midnightblue" stroke="midnightblue" points="1461.74,-454.1 1460.76,-443.55 1454.95,-452.41 1461.74,-454.1"/>
</g>
<!-- Node31&#45;&gt;Node2 -->
<g id="edge64" class="edge">
<title>Node31&#45;&gt;Node2</title>
<path fill="none" stroke="midnightblue" d="M1139.83,-640.04C1158.23,-657.16 1199.94,-692.51 1243,-705.5 1300.02,-722.7 1328.99,-740.74 1377,-705.5 1418.59,-674.97 1449.3,-516.14 1459.93,-453.73"/>
<polygon fill="midnightblue" stroke="midnightblue" points="1463.43,-454.01 1461.63,-443.57 1456.53,-452.86 1463.43,-454.01"/>
</g>
<!-- Node31&#45;&gt;Node4 -->
<g id="edge66" class="edge">
<title>Node31&#45;&gt;Node4</title>
<path fill="none" stroke="midnightblue" d="M1144.77,-620.81C1162.48,-608.35 1191.69,-585.03 1207,-557.5 1245.59,-488.1 1211.89,-455.56 1243,-382.5 1255.73,-352.6 1278.49,-322.41 1293.67,-304.07"/>
<polygon fill="midnightblue" stroke="midnightblue" points="1296.64,-305.97 1300.43,-296.08 1291.3,-301.45 1296.64,-305.97"/>
</g>
<!-- Node31&#45;&gt;Node23 -->
<g id="edge63" class="edge">
<title>Node31&#45;&gt;Node23</title>
<path fill="none" stroke="midnightblue" d="M1165.79,-620.9C1191.53,-614 1226.67,-604.58 1255.7,-596.79"/>
<polygon fill="midnightblue" stroke="midnightblue" points="1256.93,-600.09 1265.69,-594.12 1255.12,-593.32 1256.93,-600.09"/>
</g>
<!-- Node31&#45;&gt;Node29 -->
<g id="edge65" class="edge">
<title>Node31&#45;&gt;Node29</title>
<path fill="none" stroke="midnightblue" d="M1164.09,-640.02C1188.95,-646.97 1223.22,-656.54 1252.19,-664.63"/>
<polygon fill="midnightblue" stroke="midnightblue" points="1251.62,-668.11 1262.19,-667.42 1253.5,-661.36 1251.62,-668.11"/>
</g>
<!-- Node31&#45;&gt;Node30 -->
<g id="edge67" class="edge">
<title>Node31&#45;&gt;Node30</title>
<path fill="none" stroke="midnightblue" d="M1200.23,-630.89C1217.51,-630.99 1235.79,-631.09 1252.33,-631.18"/>
<polygon fill="midnightblue" stroke="midnightblue" points="1252.37,-634.68 1262.39,-631.24 1252.41,-627.68 1252.37,-634.68"/>
</g>
</g>
</svg>
