<?xml version="1.0" encoding="UTF-8" standalone="no"?>
<!DOCTYPE svg PUBLIC "-//W3C//DTD SVG 1.1//EN"
 "http://www.w3.org/Graphics/SVG/1.1/DTD/svg11.dtd">
<!-- Generated by graphviz version 3.0.0 (20220226.1711)
 -->
<!-- Title: slljit::ReturnExprAST::codegen Pages: 1 -->
<svg width="554pt" height="256pt"
 viewBox="0.00 0.00 554.00 256.00" xmlns="http://www.w3.org/2000/svg" xmlns:xlink="http://www.w3.org/1999/xlink">
<g id="graph0" class="graph" transform="scale(1 1) rotate(0) translate(4 252)">
<title>slljit::ReturnExprAST::codegen</title>
<!-- Node1 -->
<g id="node1" class="node">
<title>Node1</title>
<g id="a_node1"><a xlink:title=" ">
<polygon fill="#bfbfbf" stroke="black" points="0,-33 0,-63 107,-63 107,-33 0,-33"/>
<text text-anchor="start" x="8" y="-51" font-family="Helvetica,sans-Serif" font-size="10.00">slljit::ReturnExprAST</text>
<text text-anchor="middle" x="53.5" y="-40" font-family="Helvetica,sans-Serif" font-size="10.00">::codegen</text>
</a>
</g>
</g>
<!-- Node2 -->
<g id="node2" class="node">
<title>Node2</title>
<g id="a_node2"><a xlink:href="namespaceslljit.html#a35fd5437fe4da3972add655696b4ba1e" target="_top" xlink:title="Creates explict cast.">
<polygon fill="none" stroke="black" points="143,-133.5 143,-152.5 262,-152.5 262,-133.5 143,-133.5"/>
<text text-anchor="middle" x="202.5" y="-140.5" font-family="Helvetica,sans-Serif" font-size="10.00">slljit::CreateExplictCast</text>
</a>
</g>
</g>
<!-- Node1&#45;&gt;Node2 -->
<g id="edge1" class="edge">
<title>Node1&#45;&gt;Node2</title>
<path fill="none" stroke="midnightblue" d="M77.79,-63.05C105.14,-80.73 150.25,-109.88 177.78,-127.67"/>
<polygon fill="midnightblue" stroke="midnightblue" points="176.1,-130.75 186.4,-133.24 179.9,-124.87 176.1,-130.75"/>
</g>
<!-- Node4 -->
<g id="node4" class="node">
<title>Node4</title>
<g id="a_node4"><a xlink:href="classslljit_1_1_local_context.html#acd5a146c139b01ff0c5d1be79e187749" target="_top" xlink:title=" ">
<polygon fill="none" stroke="black" points="449,-185 449,-215 546,-215 546,-185 449,-185"/>
<text text-anchor="start" x="457" y="-203" font-family="Helvetica,sans-Serif" font-size="10.00">slljit::LocalContext</text>
<text text-anchor="middle" x="497.5" y="-192" font-family="Helvetica,sans-Serif" font-size="10.00">::getBuilder</text>
</a>
</g>
</g>
<!-- Node1&#45;&gt;Node4 -->
<g id="edge8" class="edge">
<title>Node1&#45;&gt;Node4</title>
<path fill="none" stroke="midnightblue" d="M107.3,-44.98C194.18,-40.95 362.7,-37.42 413,-67 453.75,-90.96 477.61,-143.48 488.76,-174.88"/>
<polygon fill="midnightblue" stroke="midnightblue" points="485.54,-176.29 492.06,-184.65 492.17,-174.05 485.54,-176.29"/>
</g>
<!-- Node8 -->
<g id="node8" class="node">
<title>Node8</title>
<g id="a_node8"><a xlink:href="classslljit_1_1_expr_a_s_t.html#a22ae30dc097ccd2f50b0d8ab9a399792" target="_top" xlink:title=" ">
<polygon fill="none" stroke="black" points="143,-0.5 143,-19.5 262,-19.5 262,-0.5 143,-0.5"/>
<text text-anchor="middle" x="202.5" y="-7.5" font-family="Helvetica,sans-Serif" font-size="10.00">slljit::ExprAST::getType</text>
</a>
</g>
</g>
<!-- Node1&#45;&gt;Node8 -->
<g id="edge9" class="edge">
<title>Node1&#45;&gt;Node8</title>
<path fill="none" stroke="midnightblue" d="M107.16,-34.39C122.55,-30.41 139.28,-26.09 154.31,-22.2"/>
<polygon fill="midnightblue" stroke="midnightblue" points="155.6,-25.48 164.41,-19.59 153.85,-18.7 155.6,-25.48"/>
</g>
<!-- Node3 -->
<g id="node3" class="node">
<title>Node3</title>
<g id="a_node3"><a xlink:href="namespaceslljit.html#ab200d7cf320fef1a4045511b03b4168b" target="_top" xlink:title="Translates TypeID types to llvm types.">
<polygon fill="none" stroke="black" points="306,-228.5 306,-247.5 405,-247.5 405,-228.5 306,-228.5"/>
<text text-anchor="middle" x="355.5" y="-235.5" font-family="Helvetica,sans-Serif" font-size="10.00">slljit::get_llvm_type</text>
</a>
</g>
</g>
<!-- Node2&#45;&gt;Node3 -->
<g id="edge2" class="edge">
<title>Node2&#45;&gt;Node3</title>
<path fill="none" stroke="midnightblue" d="M214.51,-152.69C231.53,-167.33 265.64,-195.34 298,-214 304.54,-217.77 311.78,-221.29 318.84,-224.41"/>
<polygon fill="midnightblue" stroke="midnightblue" points="317.7,-227.73 328.27,-228.4 320.43,-221.28 317.7,-227.73"/>
</g>
<!-- Node2&#45;&gt;Node4 -->
<g id="edge4" class="edge">
<title>Node2&#45;&gt;Node4</title>
<path fill="none" stroke="midnightblue" d="M222.51,-152.54C241.22,-161.46 270.85,-174.39 298,-181 344.57,-192.34 398.82,-196.97 438.83,-198.83"/>
<polygon fill="midnightblue" stroke="midnightblue" points="438.8,-202.34 448.94,-199.26 439.1,-195.34 438.8,-202.34"/>
</g>
<!-- Node5 -->
<g id="node5" class="node">
<title>Node5</title>
<g id="a_node5"><a xlink:href="namespaceslljit.html#a8fff8c5a53d6ca4875a058b06b6d60e6" target="_top" xlink:title="Checks if value type is floating point type.">
<polygon fill="none" stroke="black" points="298,-152.5 298,-171.5 413,-171.5 413,-152.5 298,-152.5"/>
<text text-anchor="middle" x="355.5" y="-159.5" font-family="Helvetica,sans-Serif" font-size="10.00">slljit::isFloatingPointTy</text>
</a>
</g>
</g>
<!-- Node2&#45;&gt;Node5 -->
<g id="edge5" class="edge">
<title>Node2&#45;&gt;Node5</title>
<path fill="none" stroke="midnightblue" d="M262.31,-150.4C270.56,-151.44 279.08,-152.51 287.46,-153.56"/>
<polygon fill="midnightblue" stroke="midnightblue" points="287.22,-157.06 297.58,-154.84 288.1,-150.12 287.22,-157.06"/>
</g>
<!-- Node6 -->
<g id="node6" class="node">
<title>Node6</title>
<g id="a_node6"><a xlink:href="namespaceslljit.html#a3a3394e16b561f11dd00a8532ee034e4" target="_top" xlink:title="Checks if value type is integer type.">
<polygon fill="none" stroke="black" points="312,-114.5 312,-133.5 399,-133.5 399,-114.5 312,-114.5"/>
<text text-anchor="middle" x="355.5" y="-121.5" font-family="Helvetica,sans-Serif" font-size="10.00">slljit::isIntegerTy</text>
</a>
</g>
</g>
<!-- Node2&#45;&gt;Node6 -->
<g id="edge6" class="edge">
<title>Node2&#45;&gt;Node6</title>
<path fill="none" stroke="midnightblue" d="M262.31,-135.6C275.38,-133.96 289.15,-132.22 301.95,-130.61"/>
<polygon fill="midnightblue" stroke="midnightblue" points="302.49,-134.07 311.97,-129.35 301.61,-127.13 302.49,-134.07"/>
</g>
<!-- Node7 -->
<g id="node7" class="node">
<title>Node7</title>
<g id="a_node7"><a xlink:href="namespaceslljit.html#a4a92e29091af0a9f6c8d1499beccc810" target="_top" xlink:title=" ">
<polygon fill="none" stroke="black" points="317,-76.5 317,-95.5 394,-95.5 394,-76.5 317,-76.5"/>
<text text-anchor="middle" x="355.5" y="-83.5" font-family="Helvetica,sans-Serif" font-size="10.00">slljit::isSigned</text>
</a>
</g>
</g>
<!-- Node2&#45;&gt;Node7 -->
<g id="edge7" class="edge">
<title>Node2&#45;&gt;Node7</title>
<path fill="none" stroke="midnightblue" d="M226.27,-133.41C245.32,-125.49 273.28,-114.12 298,-105 303.6,-102.94 309.54,-100.84 315.39,-98.82"/>
<polygon fill="midnightblue" stroke="midnightblue" points="316.72,-102.07 325.06,-95.54 314.47,-95.44 316.72,-102.07"/>
</g>
<!-- Node3&#45;&gt;Node4 -->
<g id="edge3" class="edge">
<title>Node3&#45;&gt;Node4</title>
<path fill="none" stroke="midnightblue" d="M391.83,-228.41C406.12,-224.53 422.98,-219.95 438.96,-215.62"/>
<polygon fill="midnightblue" stroke="midnightblue" points="440.02,-218.96 448.75,-212.96 438.19,-212.2 440.02,-218.96"/>
</g>
</g>
</svg>
