<?xml version="1.0" encoding="UTF-8" standalone="no"?>
<!DOCTYPE svg PUBLIC "-//W3C//DTD SVG 1.1//EN"
 "http://www.w3.org/Graphics/SVG/1.1/DTD/svg11.dtd">
<!-- Generated by graphviz version 3.0.0 (20220226.1711)
 -->
<!-- Title: slljit::getFunction Pages: 1 -->
<svg width="242pt" height="186pt"
 viewBox="0.00 0.00 242.00 186.00" xmlns="http://www.w3.org/2000/svg" xmlns:xlink="http://www.w3.org/1999/xlink">
<g id="graph0" class="graph" transform="scale(1 1) rotate(0) translate(4 182)">
<title>slljit::getFunction</title>
<!-- Node1 -->
<g id="node1" class="node">
<title>Node1</title>
<g id="a_node1"><a xlink:title=" ">
<polygon fill="#bfbfbf" stroke="black" points="143,-79 143,-98 234,-98 234,-79 143,-79"/>
<text text-anchor="middle" x="188.5" y="-86" font-family="Helvetica,sans-Serif" font-size="10.00">slljit::getFunction</text>
</a>
</g>
</g>
<!-- Node2 -->
<g id="node2" class="node">
<title>Node2</title>
<g id="a_node2"><a xlink:href="classslljit_1_1_unary_expr_a_s_t.html#a6f0dae838e2c5cde27bad14f9fea1cf1" target="_top" xlink:title=" ">
<polygon fill="none" stroke="black" points="1.5,-147.5 1.5,-177.5 105.5,-177.5 105.5,-147.5 1.5,-147.5"/>
<text text-anchor="start" x="9.5" y="-165.5" font-family="Helvetica,sans-Serif" font-size="10.00">slljit::UnaryExprAST</text>
<text text-anchor="middle" x="53.5" y="-154.5" font-family="Helvetica,sans-Serif" font-size="10.00">::codegen</text>
</a>
</g>
</g>
<!-- Node1&#45;&gt;Node2 -->
<g id="edge1" class="edge">
<title>Node1&#45;&gt;Node2</title>
<path fill="none" stroke="midnightblue" d="M164.69,-103.75C148.81,-114.09 127,-127.77 107,-138.5 101.26,-141.58 95.05,-144.64 88.98,-147.5"/>
<polygon fill="midnightblue" stroke="midnightblue" points="166.85,-106.52 173.28,-98.1 163.01,-100.67 166.85,-106.52"/>
</g>
<!-- Node3 -->
<g id="node3" class="node">
<title>Node3</title>
<g id="a_node3"><a xlink:href="classslljit_1_1_binary_expr_a_s_t.html#a4e15cb62043e37beafadeb7faf94d7ba" target="_top" xlink:title=" ">
<polygon fill="none" stroke="black" points="0,-98.5 0,-128.5 107,-128.5 107,-98.5 0,-98.5"/>
<text text-anchor="start" x="8" y="-116.5" font-family="Helvetica,sans-Serif" font-size="10.00">slljit::BinaryExprAST</text>
<text text-anchor="middle" x="53.5" y="-105.5" font-family="Helvetica,sans-Serif" font-size="10.00">::codegen</text>
</a>
</g>
</g>
<!-- Node1&#45;&gt;Node3 -->
<g id="edge2" class="edge">
<title>Node1&#45;&gt;Node3</title>
<path fill="none" stroke="midnightblue" d="M132.97,-98.75C124.42,-100.36 115.6,-102.02 107.09,-103.61"/>
<polygon fill="midnightblue" stroke="midnightblue" points="133.66,-102.18 142.84,-96.89 132.37,-95.3 133.66,-102.18"/>
</g>
<!-- Node4 -->
<g id="node4" class="node">
<title>Node4</title>
<g id="a_node4"><a xlink:href="classslljit_1_1_call_expr_a_s_t.html#a0d196837649e9e0205fafddf2cd95068" target="_top" xlink:title=" ">
<polygon fill="none" stroke="black" points="6,-49.5 6,-79.5 101,-79.5 101,-49.5 6,-49.5"/>
<text text-anchor="start" x="14" y="-67.5" font-family="Helvetica,sans-Serif" font-size="10.00">slljit::CallExprAST</text>
<text text-anchor="middle" x="53.5" y="-56.5" font-family="Helvetica,sans-Serif" font-size="10.00">::codegen</text>
</a>
</g>
</g>
<!-- Node1&#45;&gt;Node4 -->
<g id="edge3" class="edge">
<title>Node1&#45;&gt;Node4</title>
<path fill="none" stroke="midnightblue" d="M132.88,-78.64C122.33,-76.74 111.36,-74.76 101.09,-72.91"/>
<polygon fill="midnightblue" stroke="midnightblue" points="132.38,-82.11 142.84,-80.44 133.62,-75.22 132.38,-82.11"/>
</g>
<!-- Node5 -->
<g id="node5" class="node">
<title>Node5</title>
<g id="a_node5"><a xlink:href="classslljit_1_1_function_a_s_t.html#ad9580c93bf3b4c4cdce1606d2e1a7be5" target="_top" xlink:title=" ">
<polygon fill="none" stroke="black" points="5.5,-0.5 5.5,-30.5 101.5,-30.5 101.5,-0.5 5.5,-0.5"/>
<text text-anchor="start" x="13.5" y="-18.5" font-family="Helvetica,sans-Serif" font-size="10.00">slljit::FunctionAST</text>
<text text-anchor="middle" x="53.5" y="-7.5" font-family="Helvetica,sans-Serif" font-size="10.00">::codegen</text>
</a>
</g>
</g>
<!-- Node1&#45;&gt;Node5 -->
<g id="edge4" class="edge">
<title>Node1&#45;&gt;Node5</title>
<path fill="none" stroke="midnightblue" d="M163.68,-73.5C147.83,-63.72 126.43,-50.89 107,-40.5 100.68,-37.12 93.83,-33.69 87.22,-30.5"/>
<polygon fill="midnightblue" stroke="midnightblue" points="161.97,-76.56 172.31,-78.87 165.67,-70.61 161.97,-76.56"/>
</g>
</g>
</svg>
