<?xml version="1.0" encoding="UTF-8" standalone="no"?>
<!DOCTYPE svg PUBLIC "-//W3C//DTD SVG 1.1//EN"
 "http://www.w3.org/Graphics/SVG/1.1/DTD/svg11.dtd">
<!-- Generated by graphviz version 3.0.0 (20220226.1711)
 -->
<!-- Title: Graphical Class Hierarchy Pages: 1 -->
<svg width="193pt" height="66pt"
 viewBox="0.00 0.00 193.00 66.00" xmlns="http://www.w3.org/2000/svg" xmlns:xlink="http://www.w3.org/1999/xlink">
<g id="graph0" class="graph" transform="scale(1 1) rotate(0) translate(4 62)">
<title>Graphical Class Hierarchy</title>
<!-- Node0 -->
<g id="node1" class="node">
<title>Node0</title>
<g id="a_node1"><a xlink:href="class_error_info.html" target="_top" xlink:title=" ">
<polygon fill="none" stroke="black" points="0,-19.5 0,-38.5 53,-38.5 53,-19.5 0,-19.5"/>
<text text-anchor="middle" x="26.5" y="-26.5" font-family="Helvetica,sans-Serif" font-size="10.00">ErrorInfo</text>
</a>
</g>
</g>
<!-- Node1 -->
<g id="node2" class="node">
<title>Node1</title>
<g id="a_node2"><a xlink:href="classslljit_1_1_compile_error.html" target="_top" xlink:title="Used to repseresnt CodeGen and compile() errors.">
<polygon fill="none" stroke="black" points="89,-38.5 89,-57.5 185,-57.5 185,-38.5 89,-38.5"/>
<text text-anchor="middle" x="137" y="-45.5" font-family="Helvetica,sans-Serif" font-size="10.00">slljit::CompileError</text>
</a>
</g>
</g>
<!-- Node0&#45;&gt;Node1 -->
<g id="edge1" class="edge">
<title>Node0&#45;&gt;Node1</title>
<path fill="none" stroke="midnightblue" d="M63.18,-35.25C71.37,-36.68 80.2,-38.23 88.79,-39.73"/>
<polygon fill="midnightblue" stroke="midnightblue" points="63.67,-31.78 53.21,-33.5 62.46,-38.68 63.67,-31.78"/>
</g>
<!-- Node2 -->
<g id="node3" class="node">
<title>Node2</title>
<g id="a_node3"><a xlink:href="classslljit_1_1_parser_error.html" target="_top" xlink:title="Used to represent Parser errors.">
<polygon fill="none" stroke="black" points="92.5,-0.5 92.5,-19.5 181.5,-19.5 181.5,-0.5 92.5,-0.5"/>
<text text-anchor="middle" x="137" y="-7.5" font-family="Helvetica,sans-Serif" font-size="10.00">slljit::ParserError</text>
</a>
</g>
</g>
<!-- Node0&#45;&gt;Node2 -->
<g id="edge2" class="edge">
<title>Node0&#45;&gt;Node2</title>
<path fill="none" stroke="midnightblue" d="M63.26,-22.74C72.52,-21.12 82.6,-19.35 92.23,-17.67"/>
<polygon fill="midnightblue" stroke="midnightblue" points="62.46,-19.32 53.21,-24.5 63.67,-26.22 62.46,-19.32"/>
</g>
</g>
</svg>
