<?xml version="1.0" encoding="UTF-8" standalone="no"?>
<!DOCTYPE svg PUBLIC "-//W3C//DTD SVG 1.1//EN"
 "http://www.w3.org/Graphics/SVG/1.1/DTD/svg11.dtd">
<!-- Generated by graphviz version 3.0.0 (20220226.1711)
 -->
<!-- Title: slljit::CreateExplictCast Pages: 1 -->
<svg width="411pt" height="180pt"
 viewBox="0.00 0.00 411.00 180.00" xmlns="http://www.w3.org/2000/svg" xmlns:xlink="http://www.w3.org/1999/xlink">
<g id="graph0" class="graph" transform="scale(1 1) rotate(0) translate(4 176)">
<title>slljit::CreateExplictCast</title>
<!-- Node1 -->
<g id="node1" class="node">
<title>Node1</title>
<g id="a_node1"><a xlink:title="Creates explict cast.">
<polygon fill="#bfbfbf" stroke="black" points="0,-76.5 0,-95.5 119,-95.5 119,-76.5 0,-76.5"/>
<text text-anchor="middle" x="59.5" y="-83.5" font-family="Helvetica,sans-Serif" font-size="10.00">slljit::CreateExplictCast</text>
</a>
</g>
</g>
<!-- Node2 -->
<g id="node2" class="node">
<title>Node2</title>
<g id="a_node2"><a xlink:href="namespaceslljit.html#ab200d7cf320fef1a4045511b03b4168b" target="_top" xlink:title="Translates TypeID types to llvm types.">
<polygon fill="none" stroke="black" points="163,-152.5 163,-171.5 262,-171.5 262,-152.5 163,-152.5"/>
<text text-anchor="middle" x="212.5" y="-159.5" font-family="Helvetica,sans-Serif" font-size="10.00">slljit::get_llvm_type</text>
</a>
</g>
</g>
<!-- Node1&#45;&gt;Node2 -->
<g id="edge1" class="edge">
<title>Node1&#45;&gt;Node2</title>
<path fill="none" stroke="midnightblue" d="M76.62,-95.53C95.23,-106.37 126.87,-124.33 155,-138 162.41,-141.6 170.5,-145.22 178.19,-148.51"/>
<polygon fill="midnightblue" stroke="midnightblue" points="177.04,-151.83 187.62,-152.49 179.76,-145.38 177.04,-151.83"/>
</g>
<!-- Node3 -->
<g id="node3" class="node">
<title>Node3</title>
<g id="a_node3"><a xlink:href="classslljit_1_1_local_context.html#acd5a146c139b01ff0c5d1be79e187749" target="_top" xlink:title=" ">
<polygon fill="none" stroke="black" points="306,-128 306,-158 403,-158 403,-128 306,-128"/>
<text text-anchor="start" x="314" y="-146" font-family="Helvetica,sans-Serif" font-size="10.00">slljit::LocalContext</text>
<text text-anchor="middle" x="354.5" y="-135" font-family="Helvetica,sans-Serif" font-size="10.00">::getBuilder</text>
</a>
</g>
</g>
<!-- Node1&#45;&gt;Node3 -->
<g id="edge3" class="edge">
<title>Node1&#45;&gt;Node3</title>
<path fill="none" stroke="midnightblue" d="M107.59,-95.56C122.72,-98.6 139.56,-101.97 155,-105 202.35,-114.29 256.12,-124.57 295.74,-132.09"/>
<polygon fill="midnightblue" stroke="midnightblue" points="295.27,-135.56 305.75,-133.99 296.57,-128.68 295.27,-135.56"/>
</g>
<!-- Node4 -->
<g id="node4" class="node">
<title>Node4</title>
<g id="a_node4"><a xlink:href="namespaceslljit.html#a8fff8c5a53d6ca4875a058b06b6d60e6" target="_top" xlink:title="Checks if value type is floating point type.">
<polygon fill="none" stroke="black" points="155,-76.5 155,-95.5 270,-95.5 270,-76.5 155,-76.5"/>
<text text-anchor="middle" x="212.5" y="-83.5" font-family="Helvetica,sans-Serif" font-size="10.00">slljit::isFloatingPointTy</text>
</a>
</g>
</g>
<!-- Node1&#45;&gt;Node4 -->
<g id="edge4" class="edge">
<title>Node1&#45;&gt;Node4</title>
<path fill="none" stroke="midnightblue" d="M119.31,-86C127.56,-86 136.08,-86 144.46,-86"/>
<polygon fill="midnightblue" stroke="midnightblue" points="144.58,-89.5 154.58,-86 144.58,-82.5 144.58,-89.5"/>
</g>
<!-- Node5 -->
<g id="node5" class="node">
<title>Node5</title>
<g id="a_node5"><a xlink:href="namespaceslljit.html#a3a3394e16b561f11dd00a8532ee034e4" target="_top" xlink:title="Checks if value type is integer type.">
<polygon fill="none" stroke="black" points="169,-38.5 169,-57.5 256,-57.5 256,-38.5 169,-38.5"/>
<text text-anchor="middle" x="212.5" y="-45.5" font-family="Helvetica,sans-Serif" font-size="10.00">slljit::isIntegerTy</text>
</a>
</g>
</g>
<!-- Node1&#45;&gt;Node5 -->
<g id="edge5" class="edge">
<title>Node1&#45;&gt;Node5</title>
<path fill="none" stroke="midnightblue" d="M98.6,-76.41C118.44,-71.42 142.88,-65.27 163.95,-59.97"/>
<polygon fill="midnightblue" stroke="midnightblue" points="164.83,-63.35 173.67,-57.52 163.12,-56.57 164.83,-63.35"/>
</g>
<!-- Node6 -->
<g id="node6" class="node">
<title>Node6</title>
<g id="a_node6"><a xlink:href="namespaceslljit.html#a4a92e29091af0a9f6c8d1499beccc810" target="_top" xlink:title=" ">
<polygon fill="none" stroke="black" points="174,-0.5 174,-19.5 251,-19.5 251,-0.5 174,-0.5"/>
<text text-anchor="middle" x="212.5" y="-7.5" font-family="Helvetica,sans-Serif" font-size="10.00">slljit::isSigned</text>
</a>
</g>
</g>
<!-- Node1&#45;&gt;Node6 -->
<g id="edge6" class="edge">
<title>Node1&#45;&gt;Node6</title>
<path fill="none" stroke="midnightblue" d="M74.37,-76.3C92.34,-64.06 124.92,-42.93 155,-29 159.64,-26.85 164.58,-24.83 169.55,-22.96"/>
<polygon fill="midnightblue" stroke="midnightblue" points="170.82,-26.22 179.05,-19.56 168.46,-19.63 170.82,-26.22"/>
</g>
<!-- Node2&#45;&gt;Node3 -->
<g id="edge2" class="edge">
<title>Node2&#45;&gt;Node3</title>
<path fill="none" stroke="midnightblue" d="M262.07,-155.41C272.96,-153.93 284.6,-152.35 295.82,-150.83"/>
<polygon fill="midnightblue" stroke="midnightblue" points="296.52,-154.27 305.96,-149.45 295.58,-147.33 296.52,-154.27"/>
</g>
</g>
</svg>
