<?xml version="1.0" encoding="UTF-8" standalone="no"?>
<!DOCTYPE svg PUBLIC "-//W3C//DTD SVG 1.1//EN"
 "http://www.w3.org/Graphics/SVG/1.1/DTD/svg11.dtd">
<!-- Generated by graphviz version 3.0.0 (20220226.1711)
 -->
<!-- Title: slljit::isSigned Pages: 1 -->
<svg width="536pt" height="341pt"
 viewBox="0.00 0.00 536.00 340.50" xmlns="http://www.w3.org/2000/svg" xmlns:xlink="http://www.w3.org/1999/xlink">
<g id="graph0" class="graph" transform="scale(1 1) rotate(0) translate(4 336.5)">
<title>slljit::isSigned</title>
<!-- Node1 -->
<g id="node1" class="node">
<title>Node1</title>
<g id="a_node1"><a xlink:title=" ">
<polygon fill="#bfbfbf" stroke="black" points="451,-263.5 451,-282.5 528,-282.5 528,-263.5 451,-263.5"/>
<text text-anchor="middle" x="489.5" y="-270.5" font-family="Helvetica,sans-Serif" font-size="10.00">slljit::isSigned</text>
</a>
</g>
</g>
<!-- Node2 -->
<g id="node2" class="node">
<title>Node2</title>
<g id="a_node2"><a xlink:href="classslljit_1_1_number_expr_a_s_t.html#ad79c11f8409e5546997b0a45df15c400" target="_top" xlink:title=" ">
<polygon fill="none" stroke="black" points="299,-302 299,-332 412,-332 412,-302 299,-302"/>
<text text-anchor="start" x="307" y="-320" font-family="Helvetica,sans-Serif" font-size="10.00">slljit::NumberExprAST</text>
<text text-anchor="middle" x="355.5" y="-309" font-family="Helvetica,sans-Serif" font-size="10.00">::codegen</text>
</a>
</g>
</g>
<!-- Node1&#45;&gt;Node2 -->
<g id="edge1" class="edge">
<title>Node1&#45;&gt;Node2</title>
<path fill="none" stroke="midnightblue" d="M450.27,-285.74C435.09,-290.8 417.5,-296.67 401.7,-301.93"/>
<polygon fill="midnightblue" stroke="midnightblue" points="451.48,-289.03 459.86,-282.55 449.26,-282.39 451.48,-289.03"/>
</g>
<!-- Node3 -->
<g id="node3" class="node">
<title>Node3</title>
<g id="a_node3"><a xlink:href="namespaceslljit.html#a3ebbdd40e29c1767c6b93fc3ed055a66" target="_top" xlink:title=" ">
<polygon fill="none" stroke="black" points="315,-263.5 315,-282.5 396,-282.5 396,-263.5 315,-263.5"/>
<text text-anchor="middle" x="355.5" y="-270.5" font-family="Helvetica,sans-Serif" font-size="10.00">slljit::CreateDiv</text>
</a>
</g>
</g>
<!-- Node1&#45;&gt;Node3 -->
<g id="edge2" class="edge">
<title>Node1&#45;&gt;Node3</title>
<path fill="none" stroke="midnightblue" d="M440.37,-273C425.84,-273 410.08,-273 396.17,-273"/>
<polygon fill="midnightblue" stroke="midnightblue" points="440.67,-276.5 450.67,-273 440.67,-269.5 440.67,-276.5"/>
</g>
<!-- Node5 -->
<g id="node5" class="node">
<title>Node5</title>
<g id="a_node5"><a xlink:href="namespaceslljit.html#a35fd5437fe4da3972add655696b4ba1e" target="_top" xlink:title="Creates explict cast.">
<polygon fill="none" stroke="black" points="296,-166.5 296,-185.5 415,-185.5 415,-166.5 296,-166.5"/>
<text text-anchor="middle" x="355.5" y="-173.5" font-family="Helvetica,sans-Serif" font-size="10.00">slljit::CreateExplictCast</text>
</a>
</g>
</g>
<!-- Node1&#45;&gt;Node5 -->
<g id="edge4" class="edge">
<title>Node1&#45;&gt;Node5</title>
<path fill="none" stroke="midnightblue" d="M467.15,-257.31C439.56,-237.04 392.38,-202.37 369.59,-185.62"/>
<polygon fill="midnightblue" stroke="midnightblue" points="465.23,-260.24 475.36,-263.34 469.38,-254.6 465.23,-260.24"/>
</g>
<!-- Node4 -->
<g id="node4" class="node">
<title>Node4</title>
<g id="a_node4"><a xlink:href="classslljit_1_1_binary_expr_a_s_t.html#a4e15cb62043e37beafadeb7faf94d7ba" target="_top" xlink:title=" ">
<polygon fill="none" stroke="black" points="0,-279 0,-309 107,-309 107,-279 0,-279"/>
<text text-anchor="start" x="8" y="-297" font-family="Helvetica,sans-Serif" font-size="10.00">slljit::BinaryExprAST</text>
<text text-anchor="middle" x="53.5" y="-286" font-family="Helvetica,sans-Serif" font-size="10.00">::codegen</text>
</a>
</g>
</g>
<!-- Node3&#45;&gt;Node4 -->
<g id="edge3" class="edge">
<title>Node3&#45;&gt;Node4</title>
<path fill="none" stroke="midnightblue" d="M315.72,-285.86C309.11,-288.16 302.34,-290.6 296,-293 279.79,-299.14 277,-304.6 260,-308 208.8,-318.24 149.16,-312.25 107.36,-305.2"/>
<polygon fill="midnightblue" stroke="midnightblue" points="316.89,-289.16 325.2,-282.6 314.61,-282.54 316.89,-289.16"/>
</g>
<!-- Node5&#45;&gt;Node4 -->
<g id="edge6" class="edge">
<title>Node5&#45;&gt;Node4</title>
<path fill="none" stroke="midnightblue" d="M343.09,-194.42C327.51,-217.72 297.23,-257 260,-275 211.94,-298.24 150.21,-300.86 107,-299"/>
<polygon fill="midnightblue" stroke="midnightblue" points="346.17,-196.09 348.67,-185.79 340.3,-192.28 346.17,-196.09"/>
</g>
<!-- Node6 -->
<g id="node6" class="node">
<title>Node6</title>
<g id="a_node6"><a xlink:href="classslljit_1_1_return_expr_a_s_t.html#ae28b151f271dec2884361a2d46556f87" target="_top" xlink:title=" ">
<polygon fill="none" stroke="black" points="148,-235 148,-265 255,-265 255,-235 148,-235"/>
<text text-anchor="start" x="156" y="-253" font-family="Helvetica,sans-Serif" font-size="10.00">slljit::ReturnExprAST</text>
<text text-anchor="middle" x="201.5" y="-242" font-family="Helvetica,sans-Serif" font-size="10.00">::codegen</text>
</a>
</g>
</g>
<!-- Node5&#45;&gt;Node6 -->
<g id="edge5" class="edge">
<title>Node5&#45;&gt;Node6</title>
<path fill="none" stroke="midnightblue" d="M328.81,-190.41C309.99,-200.76 283.69,-214.82 260,-226 253.54,-229.05 246.59,-232.12 239.84,-235"/>
<polygon fill="midnightblue" stroke="midnightblue" points="330.61,-193.41 337.67,-185.51 327.22,-187.29 330.61,-193.41"/>
</g>
<!-- Node7 -->
<g id="node7" class="node">
<title>Node7</title>
<g id="a_node7"><a xlink:href="classslljit_1_1_call_expr_a_s_t.html#a0d196837649e9e0205fafddf2cd95068" target="_top" xlink:title=" ">
<polygon fill="none" stroke="black" points="154,-186 154,-216 249,-216 249,-186 154,-186"/>
<text text-anchor="start" x="162" y="-204" font-family="Helvetica,sans-Serif" font-size="10.00">slljit::CallExprAST</text>
<text text-anchor="middle" x="201.5" y="-193" font-family="Helvetica,sans-Serif" font-size="10.00">::codegen</text>
</a>
</g>
</g>
<!-- Node5&#45;&gt;Node7 -->
<g id="edge7" class="edge">
<title>Node5&#45;&gt;Node7</title>
<path fill="none" stroke="midnightblue" d="M286.61,-187.17C274.04,-189.23 261.16,-191.35 249.39,-193.29"/>
<polygon fill="midnightblue" stroke="midnightblue" points="287.3,-190.6 296.6,-185.52 286.17,-183.69 287.3,-190.6"/>
</g>
<!-- Node8 -->
<g id="node8" class="node">
<title>Node8</title>
<g id="a_node8"><a xlink:href="classslljit_1_1_if_expr_a_s_t.html#a376bb50f865a795316ebf0710b4ac135" target="_top" xlink:title=" ">
<polygon fill="none" stroke="black" points="157,-137 157,-167 246,-167 246,-137 157,-137"/>
<text text-anchor="start" x="165" y="-155" font-family="Helvetica,sans-Serif" font-size="10.00">slljit::IfExprAST::</text>
<text text-anchor="middle" x="201.5" y="-144" font-family="Helvetica,sans-Serif" font-size="10.00">codegen</text>
</a>
</g>
</g>
<!-- Node5&#45;&gt;Node8 -->
<g id="edge8" class="edge">
<title>Node5&#45;&gt;Node8</title>
<path fill="none" stroke="midnightblue" d="M285.54,-165.11C272.1,-162.99 258.36,-160.82 246.02,-158.87"/>
<polygon fill="midnightblue" stroke="midnightblue" points="285.31,-168.62 295.73,-166.72 286.4,-161.7 285.31,-168.62"/>
</g>
<!-- Node9 -->
<g id="node9" class="node">
<title>Node9</title>
<g id="a_node9"><a xlink:href="classslljit_1_1_for_expr_a_s_t.html#a0e8a98570a1b8c55617ee52b41922289" target="_top" xlink:title=" ">
<polygon fill="none" stroke="black" points="155,-88 155,-118 248,-118 248,-88 155,-88"/>
<text text-anchor="start" x="163" y="-106" font-family="Helvetica,sans-Serif" font-size="10.00">slljit::ForExprAST</text>
<text text-anchor="middle" x="201.5" y="-95" font-family="Helvetica,sans-Serif" font-size="10.00">::codegen</text>
</a>
</g>
</g>
<!-- Node5&#45;&gt;Node9 -->
<g id="edge9" class="edge">
<title>Node5&#45;&gt;Node9</title>
<path fill="none" stroke="midnightblue" d="M327.66,-161.83C308.86,-152.03 283.07,-138.86 260,-128 252.91,-124.66 245.26,-121.22 237.92,-118.01"/>
<polygon fill="midnightblue" stroke="midnightblue" points="326.06,-164.94 336.54,-166.47 329.3,-158.74 326.06,-164.94"/>
</g>
<!-- Node10 -->
<g id="node10" class="node">
<title>Node10</title>
<g id="a_node10"><a xlink:href="classslljit_1_1_var_expr_a_s_t.html#a6898396b719dec46fd30ab9cc9dfb7ac" target="_top" xlink:title=" ">
<polygon fill="none" stroke="black" points="154.5,-39 154.5,-69 248.5,-69 248.5,-39 154.5,-39"/>
<text text-anchor="start" x="162.5" y="-57" font-family="Helvetica,sans-Serif" font-size="10.00">slljit::VarExprAST</text>
<text text-anchor="middle" x="201.5" y="-46" font-family="Helvetica,sans-Serif" font-size="10.00">::codegen</text>
</a>
</g>
</g>
<!-- Node5&#45;&gt;Node10 -->
<g id="edge10" class="edge">
<title>Node5&#45;&gt;Node10</title>
<path fill="none" stroke="midnightblue" d="M340.96,-158.39C323.96,-137.24 292.99,-101.78 260,-79 254.71,-75.35 248.81,-72.06 242.86,-69.15"/>
<polygon fill="midnightblue" stroke="midnightblue" points="338.22,-160.57 347.16,-166.25 343.71,-156.23 338.22,-160.57"/>
</g>
<!-- Node11 -->
<g id="node11" class="node">
<title>Node11</title>
<g id="a_node11"><a xlink:href="namespaceslljit.html#a998468289a7b7f80ec1b49aa930d5143" target="_top" xlink:title="Creates implict cast.">
<polygon fill="none" stroke="black" points="143,-0.5 143,-19.5 260,-19.5 260,-0.5 143,-0.5"/>
<text text-anchor="middle" x="201.5" y="-7.5" font-family="Helvetica,sans-Serif" font-size="10.00">slljit::CreateImplictCast</text>
</a>
</g>
</g>
<!-- Node5&#45;&gt;Node11 -->
<g id="edge11" class="edge">
<title>Node5&#45;&gt;Node11</title>
<path fill="none" stroke="midnightblue" d="M347.17,-156.78C334.27,-125.49 304.6,-63.56 260,-29 255.01,-25.14 249.21,-22.04 243.24,-19.56"/>
<polygon fill="midnightblue" stroke="midnightblue" points="343.94,-158.14 350.89,-166.13 350.44,-155.55 343.94,-158.14"/>
</g>
<!-- Node11&#45;&gt;Node4 -->
<g id="edge12" class="edge">
<title>Node11&#45;&gt;Node4</title>
<path fill="none" stroke="midnightblue" d="M147.67,-24.98C146.02,-26.22 144.45,-27.55 143,-29 70.69,-101.08 57.46,-233.8 55.04,-278.69"/>
<polygon fill="midnightblue" stroke="midnightblue" points="149.79,-27.79 156.53,-19.61 146.16,-21.8 149.79,-27.79"/>
</g>
</g>
</svg>
