<?xml version="1.0" encoding="UTF-8" standalone="no"?>
<!DOCTYPE svg PUBLIC "-//W3C//DTD SVG 1.1//EN"
 "http://www.w3.org/Graphics/SVG/1.1/DTD/svg11.dtd">
<!-- Generated by graphviz version 3.0.0 (20220226.1711)
 -->
<!-- Title: slljit::CreateMul Pages: 1 -->
<svg width="243pt" height="116pt"
 viewBox="0.00 0.00 243.00 115.50" xmlns="http://www.w3.org/2000/svg" xmlns:xlink="http://www.w3.org/1999/xlink">
<g id="graph0" class="graph" transform="scale(1 1) rotate(0) translate(4 111.5)">
<title>slljit::CreateMul</title>
<!-- Node1 -->
<g id="node1" class="node">
<title>Node1</title>
<g id="a_node1"><a xlink:title=" ">
<polygon fill="#bfbfbf" stroke="black" points="0,-38.5 0,-57.5 84,-57.5 84,-38.5 0,-38.5"/>
<text text-anchor="middle" x="42" y="-45.5" font-family="Helvetica,sans-Serif" font-size="10.00">slljit::CreateMul</text>
</a>
</g>
</g>
<!-- Node2 -->
<g id="node2" class="node">
<title>Node2</title>
<g id="a_node2"><a xlink:href="classslljit_1_1_local_context.html#acd5a146c139b01ff0c5d1be79e187749" target="_top" xlink:title=" ">
<polygon fill="none" stroke="black" points="129,-77 129,-107 226,-107 226,-77 129,-77"/>
<text text-anchor="start" x="137" y="-95" font-family="Helvetica,sans-Serif" font-size="10.00">slljit::LocalContext</text>
<text text-anchor="middle" x="177.5" y="-84" font-family="Helvetica,sans-Serif" font-size="10.00">::getBuilder</text>
</a>
</g>
</g>
<!-- Node1&#45;&gt;Node2 -->
<g id="edge1" class="edge">
<title>Node1&#45;&gt;Node2</title>
<path fill="none" stroke="midnightblue" d="M71.97,-57.55C86.33,-62.28 104.16,-68.16 121.02,-73.71"/>
<polygon fill="midnightblue" stroke="midnightblue" points="120.2,-77.13 130.79,-76.93 122.39,-70.48 120.2,-77.13"/>
</g>
<!-- Node3 -->
<g id="node3" class="node">
<title>Node3</title>
<g id="a_node3"><a xlink:href="namespaceslljit.html#a8fff8c5a53d6ca4875a058b06b6d60e6" target="_top" xlink:title="Checks if value type is floating point type.">
<polygon fill="none" stroke="black" points="120,-38.5 120,-57.5 235,-57.5 235,-38.5 120,-38.5"/>
<text text-anchor="middle" x="177.5" y="-45.5" font-family="Helvetica,sans-Serif" font-size="10.00">slljit::isFloatingPointTy</text>
</a>
</g>
</g>
<!-- Node1&#45;&gt;Node3 -->
<g id="edge2" class="edge">
<title>Node1&#45;&gt;Node3</title>
<path fill="none" stroke="midnightblue" d="M84.14,-48C92.18,-48 100.81,-48 109.44,-48"/>
<polygon fill="midnightblue" stroke="midnightblue" points="109.54,-51.5 119.54,-48 109.54,-44.5 109.54,-51.5"/>
</g>
<!-- Node4 -->
<g id="node4" class="node">
<title>Node4</title>
<g id="a_node4"><a xlink:href="namespaceslljit.html#a3a3394e16b561f11dd00a8532ee034e4" target="_top" xlink:title="Checks if value type is integer type.">
<polygon fill="none" stroke="black" points="134,-0.5 134,-19.5 221,-19.5 221,-0.5 134,-0.5"/>
<text text-anchor="middle" x="177.5" y="-7.5" font-family="Helvetica,sans-Serif" font-size="10.00">slljit::isIntegerTy</text>
</a>
</g>
</g>
<!-- Node1&#45;&gt;Node4 -->
<g id="edge3" class="edge">
<title>Node1&#45;&gt;Node4</title>
<path fill="none" stroke="midnightblue" d="M76.69,-38.41C93.76,-33.55 114.7,-27.59 132.98,-22.39"/>
<polygon fill="midnightblue" stroke="midnightblue" points="134.16,-25.69 142.82,-19.59 132.25,-18.96 134.16,-25.69"/>
</g>
</g>
</svg>
