<?xml version="1.0" encoding="UTF-8" standalone="no"?>
<!DOCTYPE svg PUBLIC "-//W3C//DTD SVG 1.1//EN"
 "http://www.w3.org/Graphics/SVG/1.1/DTD/svg11.dtd">
<!-- Generated by graphviz version 3.0.0 (20220226.1711)
 -->
<!-- Title: slljit::CreateDiv Pages: 1 -->
<svg width="240pt" height="154pt"
 viewBox="0.00 0.00 240.00 153.50" xmlns="http://www.w3.org/2000/svg" xmlns:xlink="http://www.w3.org/1999/xlink">
<g id="graph0" class="graph" transform="scale(1 1) rotate(0) translate(4 149.5)">
<title>slljit::CreateDiv</title>
<!-- Node1 -->
<g id="node1" class="node">
<title>Node1</title>
<g id="a_node1"><a xlink:title=" ">
<polygon fill="#bfbfbf" stroke="black" points="0,-57.5 0,-76.5 81,-76.5 81,-57.5 0,-57.5"/>
<text text-anchor="middle" x="40.5" y="-64.5" font-family="Helvetica,sans-Serif" font-size="10.00">slljit::CreateDiv</text>
</a>
</g>
</g>
<!-- Node2 -->
<g id="node2" class="node">
<title>Node2</title>
<g id="a_node2"><a xlink:href="classslljit_1_1_local_context.html#acd5a146c139b01ff0c5d1be79e187749" target="_top" xlink:title=" ">
<polygon fill="none" stroke="black" points="126,-115 126,-145 223,-145 223,-115 126,-115"/>
<text text-anchor="start" x="134" y="-133" font-family="Helvetica,sans-Serif" font-size="10.00">slljit::LocalContext</text>
<text text-anchor="middle" x="174.5" y="-122" font-family="Helvetica,sans-Serif" font-size="10.00">::getBuilder</text>
</a>
</g>
</g>
<!-- Node1&#45;&gt;Node2 -->
<g id="edge1" class="edge">
<title>Node1&#45;&gt;Node2</title>
<path fill="none" stroke="midnightblue" d="M59.99,-76.63C75.2,-84.47 97.36,-95.72 117,-105 121.04,-106.91 125.25,-108.86 129.49,-110.78"/>
<polygon fill="midnightblue" stroke="midnightblue" points="128.16,-114.02 138.72,-114.93 131.03,-107.64 128.16,-114.02"/>
</g>
<!-- Node3 -->
<g id="node3" class="node">
<title>Node3</title>
<g id="a_node3"><a xlink:href="namespaceslljit.html#a8fff8c5a53d6ca4875a058b06b6d60e6" target="_top" xlink:title="Checks if value type is floating point type.">
<polygon fill="none" stroke="black" points="117,-76.5 117,-95.5 232,-95.5 232,-76.5 117,-76.5"/>
<text text-anchor="middle" x="174.5" y="-83.5" font-family="Helvetica,sans-Serif" font-size="10.00">slljit::isFloatingPointTy</text>
</a>
</g>
</g>
<!-- Node1&#45;&gt;Node3 -->
<g id="edge2" class="edge">
<title>Node1&#45;&gt;Node3</title>
<path fill="none" stroke="midnightblue" d="M81.1,-72.7C89.27,-73.88 98.08,-75.14 106.91,-76.41"/>
<polygon fill="midnightblue" stroke="midnightblue" points="106.45,-79.88 116.84,-77.84 107.44,-72.96 106.45,-79.88"/>
</g>
<!-- Node4 -->
<g id="node4" class="node">
<title>Node4</title>
<g id="a_node4"><a xlink:href="namespaceslljit.html#a3a3394e16b561f11dd00a8532ee034e4" target="_top" xlink:title="Checks if value type is integer type.">
<polygon fill="none" stroke="black" points="131,-38.5 131,-57.5 218,-57.5 218,-38.5 131,-38.5"/>
<text text-anchor="middle" x="174.5" y="-45.5" font-family="Helvetica,sans-Serif" font-size="10.00">slljit::isIntegerTy</text>
</a>
</g>
</g>
<!-- Node1&#45;&gt;Node4 -->
<g id="edge3" class="edge">
<title>Node1&#45;&gt;Node4</title>
<path fill="none" stroke="midnightblue" d="M81.1,-61.3C93.57,-59.51 107.54,-57.49 120.77,-55.59"/>
<polygon fill="midnightblue" stroke="midnightblue" points="121.3,-59.05 130.7,-54.16 120.31,-52.12 121.3,-59.05"/>
</g>
<!-- Node5 -->
<g id="node5" class="node">
<title>Node5</title>
<g id="a_node5"><a xlink:href="namespaceslljit.html#a4a92e29091af0a9f6c8d1499beccc810" target="_top" xlink:title=" ">
<polygon fill="none" stroke="black" points="136,-0.5 136,-19.5 213,-19.5 213,-0.5 136,-0.5"/>
<text text-anchor="middle" x="174.5" y="-7.5" font-family="Helvetica,sans-Serif" font-size="10.00">slljit::isSigned</text>
</a>
</g>
</g>
<!-- Node1&#45;&gt;Node5 -->
<g id="edge4" class="edge">
<title>Node1&#45;&gt;Node5</title>
<path fill="none" stroke="midnightblue" d="M58.86,-57.37C73.96,-49.22 96.55,-37.53 117,-29 122.07,-26.88 127.47,-24.83 132.85,-22.9"/>
<polygon fill="midnightblue" stroke="midnightblue" points="134.12,-26.16 142.42,-19.57 131.82,-19.55 134.12,-26.16"/>
</g>
</g>
</svg>
