<?xml version="1.0" encoding="UTF-8" standalone="no"?>
<!DOCTYPE svg PUBLIC "-//W3C//DTD SVG 1.1//EN"
 "http://www.w3.org/Graphics/SVG/1.1/DTD/svg11.dtd">
<!-- Generated by graphviz version 3.0.0 (20220226.1711)
 -->
<!-- Title: slljit::CreateImplictCast Pages: 1 -->
<svg width="564pt" height="180pt"
 viewBox="0.00 0.00 564.00 180.00" xmlns="http://www.w3.org/2000/svg" xmlns:xlink="http://www.w3.org/1999/xlink">
<g id="graph0" class="graph" transform="scale(1 1) rotate(0) translate(4 176)">
<title>slljit::CreateImplictCast</title>
<!-- Node1 -->
<g id="node1" class="node">
<title>Node1</title>
<g id="a_node1"><a xlink:title="Creates implict cast.">
<polygon fill="#bfbfbf" stroke="black" points="0,-76.5 0,-95.5 117,-95.5 117,-76.5 0,-76.5"/>
<text text-anchor="middle" x="58.5" y="-83.5" font-family="Helvetica,sans-Serif" font-size="10.00">slljit::CreateImplictCast</text>
</a>
</g>
</g>
<!-- Node2 -->
<g id="node2" class="node">
<title>Node2</title>
<g id="a_node2"><a xlink:href="namespaceslljit.html#a35fd5437fe4da3972add655696b4ba1e" target="_top" xlink:title="Creates explict cast.">
<polygon fill="none" stroke="black" points="153,-76.5 153,-95.5 272,-95.5 272,-76.5 153,-76.5"/>
<text text-anchor="middle" x="212.5" y="-83.5" font-family="Helvetica,sans-Serif" font-size="10.00">slljit::CreateExplictCast</text>
</a>
</g>
</g>
<!-- Node1&#45;&gt;Node2 -->
<g id="edge1" class="edge">
<title>Node1&#45;&gt;Node2</title>
<path fill="none" stroke="midnightblue" d="M117.4,-86C125.63,-86 134.16,-86 142.58,-86"/>
<polygon fill="midnightblue" stroke="midnightblue" points="142.75,-89.5 152.75,-86 142.75,-82.5 142.75,-89.5"/>
</g>
<!-- Node3 -->
<g id="node3" class="node">
<title>Node3</title>
<g id="a_node3"><a xlink:href="namespaceslljit.html#ab200d7cf320fef1a4045511b03b4168b" target="_top" xlink:title="Translates TypeID types to llvm types.">
<polygon fill="none" stroke="black" points="316,-152.5 316,-171.5 415,-171.5 415,-152.5 316,-152.5"/>
<text text-anchor="middle" x="365.5" y="-159.5" font-family="Helvetica,sans-Serif" font-size="10.00">slljit::get_llvm_type</text>
</a>
</g>
</g>
<!-- Node2&#45;&gt;Node3 -->
<g id="edge2" class="edge">
<title>Node2&#45;&gt;Node3</title>
<path fill="none" stroke="midnightblue" d="M229.62,-95.53C248.23,-106.37 279.87,-124.33 308,-138 315.41,-141.6 323.5,-145.22 331.19,-148.51"/>
<polygon fill="midnightblue" stroke="midnightblue" points="330.04,-151.83 340.62,-152.49 332.76,-145.38 330.04,-151.83"/>
</g>
<!-- Node4 -->
<g id="node4" class="node">
<title>Node4</title>
<g id="a_node4"><a xlink:href="classslljit_1_1_local_context.html#acd5a146c139b01ff0c5d1be79e187749" target="_top" xlink:title=" ">
<polygon fill="none" stroke="black" points="459,-128 459,-158 556,-158 556,-128 459,-128"/>
<text text-anchor="start" x="467" y="-146" font-family="Helvetica,sans-Serif" font-size="10.00">slljit::LocalContext</text>
<text text-anchor="middle" x="507.5" y="-135" font-family="Helvetica,sans-Serif" font-size="10.00">::getBuilder</text>
</a>
</g>
</g>
<!-- Node2&#45;&gt;Node4 -->
<g id="edge4" class="edge">
<title>Node2&#45;&gt;Node4</title>
<path fill="none" stroke="midnightblue" d="M260.59,-95.56C275.72,-98.6 292.56,-101.97 308,-105 355.35,-114.29 409.12,-124.57 448.74,-132.09"/>
<polygon fill="midnightblue" stroke="midnightblue" points="448.27,-135.56 458.75,-133.99 449.57,-128.68 448.27,-135.56"/>
</g>
<!-- Node5 -->
<g id="node5" class="node">
<title>Node5</title>
<g id="a_node5"><a xlink:href="namespaceslljit.html#a8fff8c5a53d6ca4875a058b06b6d60e6" target="_top" xlink:title="Checks if value type is floating point type.">
<polygon fill="none" stroke="black" points="308,-76.5 308,-95.5 423,-95.5 423,-76.5 308,-76.5"/>
<text text-anchor="middle" x="365.5" y="-83.5" font-family="Helvetica,sans-Serif" font-size="10.00">slljit::isFloatingPointTy</text>
</a>
</g>
</g>
<!-- Node2&#45;&gt;Node5 -->
<g id="edge5" class="edge">
<title>Node2&#45;&gt;Node5</title>
<path fill="none" stroke="midnightblue" d="M272.31,-86C280.56,-86 289.08,-86 297.46,-86"/>
<polygon fill="midnightblue" stroke="midnightblue" points="297.58,-89.5 307.58,-86 297.58,-82.5 297.58,-89.5"/>
</g>
<!-- Node6 -->
<g id="node6" class="node">
<title>Node6</title>
<g id="a_node6"><a xlink:href="namespaceslljit.html#a3a3394e16b561f11dd00a8532ee034e4" target="_top" xlink:title="Checks if value type is integer type.">
<polygon fill="none" stroke="black" points="322,-38.5 322,-57.5 409,-57.5 409,-38.5 322,-38.5"/>
<text text-anchor="middle" x="365.5" y="-45.5" font-family="Helvetica,sans-Serif" font-size="10.00">slljit::isIntegerTy</text>
</a>
</g>
</g>
<!-- Node2&#45;&gt;Node6 -->
<g id="edge6" class="edge">
<title>Node2&#45;&gt;Node6</title>
<path fill="none" stroke="midnightblue" d="M251.6,-76.41C271.44,-71.42 295.88,-65.27 316.95,-59.97"/>
<polygon fill="midnightblue" stroke="midnightblue" points="317.83,-63.35 326.67,-57.52 316.12,-56.57 317.83,-63.35"/>
</g>
<!-- Node7 -->
<g id="node7" class="node">
<title>Node7</title>
<g id="a_node7"><a xlink:href="namespaceslljit.html#a4a92e29091af0a9f6c8d1499beccc810" target="_top" xlink:title=" ">
<polygon fill="none" stroke="black" points="327,-0.5 327,-19.5 404,-19.5 404,-0.5 327,-0.5"/>
<text text-anchor="middle" x="365.5" y="-7.5" font-family="Helvetica,sans-Serif" font-size="10.00">slljit::isSigned</text>
</a>
</g>
</g>
<!-- Node2&#45;&gt;Node7 -->
<g id="edge7" class="edge">
<title>Node2&#45;&gt;Node7</title>
<path fill="none" stroke="midnightblue" d="M227.37,-76.3C245.34,-64.06 277.92,-42.93 308,-29 312.64,-26.85 317.58,-24.83 322.55,-22.96"/>
<polygon fill="midnightblue" stroke="midnightblue" points="323.82,-26.22 332.05,-19.56 321.46,-19.63 323.82,-26.22"/>
</g>
<!-- Node3&#45;&gt;Node4 -->
<g id="edge3" class="edge">
<title>Node3&#45;&gt;Node4</title>
<path fill="none" stroke="midnightblue" d="M415.07,-155.41C425.96,-153.93 437.6,-152.35 448.82,-150.83"/>
<polygon fill="midnightblue" stroke="midnightblue" points="449.52,-154.27 458.96,-149.45 448.58,-147.33 449.52,-154.27"/>
</g>
</g>
</svg>
