<?xml version="1.0" encoding="UTF-8" standalone="no"?>
<!DOCTYPE svg PUBLIC "-//W3C//DTD SVG 1.1//EN"
 "http://www.w3.org/Graphics/SVG/1.1/DTD/svg11.dtd">
<!-- Generated by graphviz version 3.0.0 (20220226.1711)
 -->
<!-- Title: slljit::CreateExplictCast Pages: 1 -->
<svg width="423pt" height="313pt"
 viewBox="0.00 0.00 423.00 312.50" xmlns="http://www.w3.org/2000/svg" xmlns:xlink="http://www.w3.org/1999/xlink">
<g id="graph0" class="graph" transform="scale(1 1) rotate(0) translate(4 308.5)">
<title>slljit::CreateExplictCast</title>
<!-- Node1 -->
<g id="node1" class="node">
<title>Node1</title>
<g id="a_node1"><a xlink:title="Creates explict cast.">
<polygon fill="#bfbfbf" stroke="black" points="296,-142.5 296,-161.5 415,-161.5 415,-142.5 296,-142.5"/>
<text text-anchor="middle" x="355.5" y="-149.5" font-family="Helvetica,sans-Serif" font-size="10.00">slljit::CreateExplictCast</text>
</a>
</g>
</g>
<!-- Node2 -->
<g id="node2" class="node">
<title>Node2</title>
<g id="a_node2"><a xlink:href="classslljit_1_1_return_expr_a_s_t.html#ae28b151f271dec2884361a2d46556f87" target="_top" xlink:title=" ">
<polygon fill="none" stroke="black" points="148,-274 148,-304 255,-304 255,-274 148,-274"/>
<text text-anchor="start" x="156" y="-292" font-family="Helvetica,sans-Serif" font-size="10.00">slljit::ReturnExprAST</text>
<text text-anchor="middle" x="201.5" y="-281" font-family="Helvetica,sans-Serif" font-size="10.00">::codegen</text>
</a>
</g>
</g>
<!-- Node1&#45;&gt;Node2 -->
<g id="edge1" class="edge">
<title>Node1&#45;&gt;Node2</title>
<path fill="none" stroke="midnightblue" d="M341.83,-170.06C325.1,-192.93 293.79,-232.55 260,-259 252.82,-264.62 244.42,-269.69 236.31,-273.99"/>
<polygon fill="midnightblue" stroke="midnightblue" points="344.89,-171.8 347.88,-161.64 339.2,-167.71 344.89,-171.8"/>
</g>
<!-- Node3 -->
<g id="node3" class="node">
<title>Node3</title>
<g id="a_node3"><a xlink:href="classslljit_1_1_binary_expr_a_s_t.html#a4e15cb62043e37beafadeb7faf94d7ba" target="_top" xlink:title=" ">
<polygon fill="none" stroke="black" points="0,-112 0,-142 107,-142 107,-112 0,-112"/>
<text text-anchor="start" x="8" y="-130" font-family="Helvetica,sans-Serif" font-size="10.00">slljit::BinaryExprAST</text>
<text text-anchor="middle" x="53.5" y="-119" font-family="Helvetica,sans-Serif" font-size="10.00">::codegen</text>
</a>
</g>
</g>
<!-- Node1&#45;&gt;Node3 -->
<g id="edge2" class="edge">
<title>Node1&#45;&gt;Node3</title>
<path fill="none" stroke="midnightblue" d="M339.41,-169.23C322.28,-187.37 292.46,-214.8 260,-226 210.84,-242.96 190.47,-247.24 143,-226 104.49,-208.77 75.81,-165.59 62.59,-142.36"/>
<polygon fill="midnightblue" stroke="midnightblue" points="342.19,-171.38 346.36,-161.65 337.02,-166.66 342.19,-171.38"/>
</g>
<!-- Node4 -->
<g id="node4" class="node">
<title>Node4</title>
<g id="a_node4"><a xlink:href="classslljit_1_1_call_expr_a_s_t.html#a0d196837649e9e0205fafddf2cd95068" target="_top" xlink:title=" ">
<polygon fill="none" stroke="black" points="154,-186 154,-216 249,-216 249,-186 154,-186"/>
<text text-anchor="start" x="162" y="-204" font-family="Helvetica,sans-Serif" font-size="10.00">slljit::CallExprAST</text>
<text text-anchor="middle" x="201.5" y="-193" font-family="Helvetica,sans-Serif" font-size="10.00">::codegen</text>
</a>
</g>
</g>
<!-- Node1&#45;&gt;Node4 -->
<g id="edge3" class="edge">
<title>Node1&#45;&gt;Node4</title>
<path fill="none" stroke="midnightblue" d="M315.04,-164.72C294.89,-171.22 270.23,-179.16 249.15,-185.96"/>
<polygon fill="midnightblue" stroke="midnightblue" points="316.39,-167.96 324.83,-161.56 314.24,-161.3 316.39,-167.96"/>
</g>
<!-- Node5 -->
<g id="node5" class="node">
<title>Node5</title>
<g id="a_node5"><a xlink:href="classslljit_1_1_if_expr_a_s_t.html#a376bb50f865a795316ebf0710b4ac135" target="_top" xlink:title=" ">
<polygon fill="none" stroke="black" points="157,-137 157,-167 246,-167 246,-137 157,-137"/>
<text text-anchor="start" x="165" y="-155" font-family="Helvetica,sans-Serif" font-size="10.00">slljit::IfExprAST::</text>
<text text-anchor="middle" x="201.5" y="-144" font-family="Helvetica,sans-Serif" font-size="10.00">codegen</text>
</a>
</g>
</g>
<!-- Node1&#45;&gt;Node5 -->
<g id="edge4" class="edge">
<title>Node1&#45;&gt;Node5</title>
<path fill="none" stroke="midnightblue" d="M285.54,-152C272.1,-152 258.36,-152 246.02,-152"/>
<polygon fill="midnightblue" stroke="midnightblue" points="285.73,-155.5 295.73,-152 285.73,-148.5 285.73,-155.5"/>
</g>
<!-- Node6 -->
<g id="node6" class="node">
<title>Node6</title>
<g id="a_node6"><a xlink:href="classslljit_1_1_for_expr_a_s_t.html#a0e8a98570a1b8c55617ee52b41922289" target="_top" xlink:title=" ">
<polygon fill="none" stroke="black" points="155,-88 155,-118 248,-118 248,-88 155,-88"/>
<text text-anchor="start" x="163" y="-106" font-family="Helvetica,sans-Serif" font-size="10.00">slljit::ForExprAST</text>
<text text-anchor="middle" x="201.5" y="-95" font-family="Helvetica,sans-Serif" font-size="10.00">::codegen</text>
</a>
</g>
</g>
<!-- Node1&#45;&gt;Node6 -->
<g id="edge5" class="edge">
<title>Node1&#45;&gt;Node6</title>
<path fill="none" stroke="midnightblue" d="M315.2,-139.33C294.73,-132.73 269.59,-124.63 248.26,-117.75"/>
<polygon fill="midnightblue" stroke="midnightblue" points="314.24,-142.7 324.83,-142.44 316.39,-136.04 314.24,-142.7"/>
</g>
<!-- Node7 -->
<g id="node7" class="node">
<title>Node7</title>
<g id="a_node7"><a xlink:href="classslljit_1_1_var_expr_a_s_t.html#a6898396b719dec46fd30ab9cc9dfb7ac" target="_top" xlink:title=" ">
<polygon fill="none" stroke="black" points="154.5,-39 154.5,-69 248.5,-69 248.5,-39 154.5,-39"/>
<text text-anchor="start" x="162.5" y="-57" font-family="Helvetica,sans-Serif" font-size="10.00">slljit::VarExprAST</text>
<text text-anchor="middle" x="201.5" y="-46" font-family="Helvetica,sans-Serif" font-size="10.00">::codegen</text>
</a>
</g>
</g>
<!-- Node1&#45;&gt;Node7 -->
<g id="edge6" class="edge">
<title>Node1&#45;&gt;Node7</title>
<path fill="none" stroke="midnightblue" d="M336.2,-135.63C317.84,-119.78 288.32,-95.74 260,-79 254,-75.45 247.41,-72.12 240.9,-69.11"/>
<polygon fill="midnightblue" stroke="midnightblue" points="333.97,-138.34 343.8,-142.29 338.58,-133.07 333.97,-138.34"/>
</g>
<!-- Node8 -->
<g id="node8" class="node">
<title>Node8</title>
<g id="a_node8"><a xlink:href="namespaceslljit.html#a998468289a7b7f80ec1b49aa930d5143" target="_top" xlink:title="Creates implict cast.">
<polygon fill="none" stroke="black" points="143,-0.5 143,-19.5 260,-19.5 260,-0.5 143,-0.5"/>
<text text-anchor="middle" x="201.5" y="-7.5" font-family="Helvetica,sans-Serif" font-size="10.00">slljit::CreateImplictCast</text>
</a>
</g>
</g>
<!-- Node1&#45;&gt;Node8 -->
<g id="edge7" class="edge">
<title>Node1&#45;&gt;Node8</title>
<path fill="none" stroke="midnightblue" d="M344.59,-133.18C329.67,-106.55 298.97,-58.01 260,-30 254.08,-25.74 247.17,-22.33 240.24,-19.61"/>
<polygon fill="midnightblue" stroke="midnightblue" points="341.66,-135.12 349.53,-142.22 347.81,-131.77 341.66,-135.12"/>
</g>
<!-- Node8&#45;&gt;Node3 -->
<g id="edge8" class="edge">
<title>Node8&#45;&gt;Node3</title>
<path fill="none" stroke="midnightblue" d="M154.96,-23.41C150.78,-25.35 146.72,-27.54 143,-30 109.12,-52.34 79.57,-90.51 64.71,-111.69"/>
<polygon fill="midnightblue" stroke="midnightblue" points="156.36,-26.62 164.23,-19.54 153.66,-20.16 156.36,-26.62"/>
</g>
</g>
</svg>
