<?xml version="1.0" encoding="UTF-8" standalone="no"?>
<!DOCTYPE svg PUBLIC "-//W3C//DTD SVG 1.1//EN"
 "http://www.w3.org/Graphics/SVG/1.1/DTD/svg11.dtd">
<!-- Generated by graphviz version 3.0.0 (20220226.1711)
 -->
<!-- Title: slljit::get_llvm_type Pages: 1 -->
<svg width="559pt" height="423pt"
 viewBox="0.00 0.00 559.00 422.50" xmlns="http://www.w3.org/2000/svg" xmlns:xlink="http://www.w3.org/1999/xlink">
<g id="graph0" class="graph" transform="scale(1 1) rotate(0) translate(4 418.5)">
<title>slljit::get_llvm_type</title>
<!-- Node1 -->
<g id="node1" class="node">
<title>Node1</title>
<g id="a_node1"><a xlink:title="Translates TypeID types to llvm types.">
<polygon fill="#bfbfbf" stroke="black" points="452,-291.5 452,-310.5 551,-310.5 551,-291.5 452,-291.5"/>
<text text-anchor="middle" x="501.5" y="-298.5" font-family="Helvetica,sans-Serif" font-size="10.00">slljit::get_llvm_type</text>
</a>
</g>
</g>
<!-- Node2 -->
<g id="node2" class="node">
<title>Node2</title>
<g id="a_node2"><a xlink:href="classslljit_1_1_number_expr_a_s_t.html#ad79c11f8409e5546997b0a45df15c400" target="_top" xlink:title=" ">
<polygon fill="none" stroke="black" points="299.5,-384 299.5,-414 412.5,-414 412.5,-384 299.5,-384"/>
<text text-anchor="start" x="307.5" y="-402" font-family="Helvetica,sans-Serif" font-size="10.00">slljit::NumberExprAST</text>
<text text-anchor="middle" x="356" y="-391" font-family="Helvetica,sans-Serif" font-size="10.00">::codegen</text>
</a>
</g>
</g>
<!-- Node1&#45;&gt;Node2 -->
<g id="edge1" class="edge">
<title>Node1&#45;&gt;Node2</title>
<path fill="none" stroke="midnightblue" d="M484.4,-318.08C468.3,-334.39 442.24,-358.81 416,-375 410.73,-378.25 404.94,-381.23 399.12,-383.9"/>
<polygon fill="midnightblue" stroke="midnightblue" points="487.01,-320.41 491.45,-310.8 481.98,-315.54 487.01,-320.41"/>
</g>
<!-- Node3 -->
<g id="node3" class="node">
<title>Node3</title>
<g id="a_node3"><a xlink:href="classslljit_1_1_prototype_a_s_t.html#a1d3904bd14007f251959a6d795fe5564" target="_top" xlink:title=" ">
<polygon fill="none" stroke="black" points="305.5,-335 305.5,-365 406.5,-365 406.5,-335 305.5,-335"/>
<text text-anchor="start" x="313.5" y="-353" font-family="Helvetica,sans-Serif" font-size="10.00">slljit::PrototypeAST</text>
<text text-anchor="middle" x="356" y="-342" font-family="Helvetica,sans-Serif" font-size="10.00">::codegen</text>
</a>
</g>
</g>
<!-- Node1&#45;&gt;Node3 -->
<g id="edge2" class="edge">
<title>Node1&#45;&gt;Node3</title>
<path fill="none" stroke="midnightblue" d="M462.99,-313.81C444.01,-320.29 420.86,-328.2 401.04,-334.96"/>
<polygon fill="midnightblue" stroke="midnightblue" points="464.16,-317.11 472.49,-310.56 461.9,-310.48 464.16,-317.11"/>
</g>
<!-- Node4 -->
<g id="node4" class="node">
<title>Node4</title>
<g id="a_node4"><a xlink:href="classslljit_1_1_code_gen.html#a0a1cd67519cb6405422e53cc87a1eb87" target="_top" xlink:title=" ">
<polygon fill="none" stroke="black" points="296,-286 296,-316 416,-316 416,-286 296,-286"/>
<text text-anchor="start" x="304" y="-304" font-family="Helvetica,sans-Serif" font-size="10.00">slljit::CodeGen::compile</text>
<text text-anchor="middle" x="356" y="-293" font-family="Helvetica,sans-Serif" font-size="10.00">_layout</text>
</a>
</g>
</g>
<!-- Node1&#45;&gt;Node4 -->
<g id="edge3" class="edge">
<title>Node1&#45;&gt;Node4</title>
<path fill="none" stroke="midnightblue" d="M441.79,-301C433.35,-301 424.67,-301 416.23,-301"/>
<polygon fill="midnightblue" stroke="midnightblue" points="441.92,-304.5 451.92,-301 441.92,-297.5 441.92,-304.5"/>
</g>
<!-- Node6 -->
<g id="node6" class="node">
<title>Node6</title>
<g id="a_node6"><a xlink:href="group___a_s_t.html#gabcb945acbdbc0f45bff6200e7b52fea7" target="_top" xlink:title=" ">
<polygon fill="none" stroke="black" points="298,-237 298,-267 414,-267 414,-237 298,-237"/>
<text text-anchor="start" x="306" y="-255" font-family="Helvetica,sans-Serif" font-size="10.00">slljit::CreateEntryBlock</text>
<text text-anchor="middle" x="356" y="-244" font-family="Helvetica,sans-Serif" font-size="10.00">Alloca</text>
</a>
</g>
</g>
<!-- Node1&#45;&gt;Node6 -->
<g id="edge5" class="edge">
<title>Node1&#45;&gt;Node6</title>
<path fill="none" stroke="midnightblue" d="M462.99,-288.19C444.01,-281.71 420.86,-273.8 401.04,-267.04"/>
<polygon fill="midnightblue" stroke="midnightblue" points="461.9,-291.52 472.49,-291.44 464.16,-284.89 461.9,-291.52"/>
</g>
<!-- Node7 -->
<g id="node7" class="node">
<title>Node7</title>
<g id="a_node7"><a xlink:href="namespaceslljit.html#a35fd5437fe4da3972add655696b4ba1e" target="_top" xlink:title="Creates explict cast.">
<polygon fill="none" stroke="black" points="296.5,-166.5 296.5,-185.5 415.5,-185.5 415.5,-166.5 296.5,-166.5"/>
<text text-anchor="middle" x="356" y="-173.5" font-family="Helvetica,sans-Serif" font-size="10.00">slljit::CreateExplictCast</text>
</a>
</g>
</g>
<!-- Node1&#45;&gt;Node7 -->
<g id="edge6" class="edge">
<title>Node1&#45;&gt;Node7</title>
<path fill="none" stroke="midnightblue" d="M481.48,-284.43C451.12,-257.99 392.68,-207.08 368.21,-185.76"/>
<polygon fill="midnightblue" stroke="midnightblue" points="479.4,-287.26 489.24,-291.19 484,-281.98 479.4,-287.26"/>
</g>
<!-- Node5 -->
<g id="node5" class="node">
<title>Node5</title>
<g id="a_node5"><a xlink:href="classslljit_1_1_program.html#ae4d26526a7dd9c69ebe92fb43736696b" target="_top" xlink:title=" ">
<polygon fill="none" stroke="black" points="143.5,-323.5 143.5,-342.5 259.5,-342.5 259.5,-323.5 143.5,-323.5"/>
<text text-anchor="middle" x="201.5" y="-330.5" font-family="Helvetica,sans-Serif" font-size="10.00">slljit::Program::compile</text>
</a>
</g>
</g>
<!-- Node4&#45;&gt;Node5 -->
<g id="edge4" class="edge">
<title>Node4&#45;&gt;Node5</title>
<path fill="none" stroke="midnightblue" d="M285.44,-315.6C272.66,-318.28 259.63,-321.01 247.8,-323.49"/>
<polygon fill="midnightblue" stroke="midnightblue" points="286.53,-318.94 295.6,-313.46 285.1,-312.09 286.53,-318.94"/>
</g>
<!-- Node8 -->
<g id="node8" class="node">
<title>Node8</title>
<g id="a_node8"><a xlink:href="classslljit_1_1_return_expr_a_s_t.html#ae28b151f271dec2884361a2d46556f87" target="_top" xlink:title=" ">
<polygon fill="none" stroke="black" points="148,-274 148,-304 255,-304 255,-274 148,-274"/>
<text text-anchor="start" x="156" y="-292" font-family="Helvetica,sans-Serif" font-size="10.00">slljit::ReturnExprAST</text>
<text text-anchor="middle" x="201.5" y="-281" font-family="Helvetica,sans-Serif" font-size="10.00">::codegen</text>
</a>
</g>
</g>
<!-- Node7&#45;&gt;Node8 -->
<g id="edge7" class="edge">
<title>Node7&#45;&gt;Node8</title>
<path fill="none" stroke="midnightblue" d="M336.48,-192.38C310.01,-215.76 264.1,-256.2 260,-259 252.1,-264.4 243.1,-269.52 234.62,-273.95"/>
<polygon fill="midnightblue" stroke="midnightblue" points="338.82,-194.98 344,-185.73 334.19,-189.73 338.82,-194.98"/>
</g>
<!-- Node9 -->
<g id="node9" class="node">
<title>Node9</title>
<g id="a_node9"><a xlink:href="classslljit_1_1_binary_expr_a_s_t.html#a4e15cb62043e37beafadeb7faf94d7ba" target="_top" xlink:title=" ">
<polygon fill="none" stroke="black" points="0,-112 0,-142 107,-142 107,-112 0,-112"/>
<text text-anchor="start" x="8" y="-130" font-family="Helvetica,sans-Serif" font-size="10.00">slljit::BinaryExprAST</text>
<text text-anchor="middle" x="53.5" y="-119" font-family="Helvetica,sans-Serif" font-size="10.00">::codegen</text>
</a>
</g>
</g>
<!-- Node7&#45;&gt;Node9 -->
<g id="edge8" class="edge">
<title>Node7&#45;&gt;Node9</title>
<path fill="none" stroke="midnightblue" d="M333.16,-191.45C314.66,-203.52 286.93,-219.35 260,-226 209.52,-238.47 190.47,-247.24 143,-226 104.49,-208.77 75.81,-165.59 62.59,-142.36"/>
<polygon fill="midnightblue" stroke="midnightblue" points="335.35,-194.19 341.69,-185.71 331.44,-188.38 335.35,-194.19"/>
</g>
<!-- Node10 -->
<g id="node10" class="node">
<title>Node10</title>
<g id="a_node10"><a xlink:href="classslljit_1_1_call_expr_a_s_t.html#a0d196837649e9e0205fafddf2cd95068" target="_top" xlink:title=" ">
<polygon fill="none" stroke="black" points="154,-186 154,-216 249,-216 249,-186 154,-186"/>
<text text-anchor="start" x="162" y="-204" font-family="Helvetica,sans-Serif" font-size="10.00">slljit::CallExprAST</text>
<text text-anchor="middle" x="201.5" y="-193" font-family="Helvetica,sans-Serif" font-size="10.00">::codegen</text>
</a>
</g>
</g>
<!-- Node7&#45;&gt;Node10 -->
<g id="edge9" class="edge">
<title>Node7&#45;&gt;Node10</title>
<path fill="none" stroke="midnightblue" d="M286.78,-187.18C274.03,-189.27 260.97,-191.41 249.06,-193.37"/>
<polygon fill="midnightblue" stroke="midnightblue" points="287.61,-190.59 296.91,-185.52 286.48,-183.69 287.61,-190.59"/>
</g>
<!-- Node11 -->
<g id="node11" class="node">
<title>Node11</title>
<g id="a_node11"><a xlink:href="classslljit_1_1_if_expr_a_s_t.html#a376bb50f865a795316ebf0710b4ac135" target="_top" xlink:title=" ">
<polygon fill="none" stroke="black" points="157,-137 157,-167 246,-167 246,-137 157,-137"/>
<text text-anchor="start" x="165" y="-155" font-family="Helvetica,sans-Serif" font-size="10.00">slljit::IfExprAST::</text>
<text text-anchor="middle" x="201.5" y="-144" font-family="Helvetica,sans-Serif" font-size="10.00">codegen</text>
</a>
</g>
</g>
<!-- Node7&#45;&gt;Node11 -->
<g id="edge10" class="edge">
<title>Node7&#45;&gt;Node11</title>
<path fill="none" stroke="midnightblue" d="M286.22,-165.18C272.7,-163.05 258.85,-160.87 246.42,-158.91"/>
<polygon fill="midnightblue" stroke="midnightblue" points="286.05,-168.69 296.48,-166.79 287.14,-161.78 286.05,-168.69"/>
</g>
<!-- Node12 -->
<g id="node12" class="node">
<title>Node12</title>
<g id="a_node12"><a xlink:href="classslljit_1_1_for_expr_a_s_t.html#a0e8a98570a1b8c55617ee52b41922289" target="_top" xlink:title=" ">
<polygon fill="none" stroke="black" points="155,-88 155,-118 248,-118 248,-88 155,-88"/>
<text text-anchor="start" x="163" y="-106" font-family="Helvetica,sans-Serif" font-size="10.00">slljit::ForExprAST</text>
<text text-anchor="middle" x="201.5" y="-95" font-family="Helvetica,sans-Serif" font-size="10.00">::codegen</text>
</a>
</g>
</g>
<!-- Node7&#45;&gt;Node12 -->
<g id="edge11" class="edge">
<title>Node7&#45;&gt;Node12</title>
<path fill="none" stroke="midnightblue" d="M328.01,-161.84C309.1,-152.05 283.18,-138.88 260,-128 252.91,-124.67 245.25,-121.23 237.92,-118.02"/>
<polygon fill="midnightblue" stroke="midnightblue" points="326.45,-164.98 336.94,-166.48 329.68,-158.77 326.45,-164.98"/>
</g>
<!-- Node13 -->
<g id="node13" class="node">
<title>Node13</title>
<g id="a_node13"><a xlink:href="classslljit_1_1_var_expr_a_s_t.html#a6898396b719dec46fd30ab9cc9dfb7ac" target="_top" xlink:title=" ">
<polygon fill="none" stroke="black" points="154.5,-39 154.5,-69 248.5,-69 248.5,-39 154.5,-39"/>
<text text-anchor="start" x="162.5" y="-57" font-family="Helvetica,sans-Serif" font-size="10.00">slljit::VarExprAST</text>
<text text-anchor="middle" x="201.5" y="-46" font-family="Helvetica,sans-Serif" font-size="10.00">::codegen</text>
</a>
</g>
</g>
<!-- Node7&#45;&gt;Node13 -->
<g id="edge12" class="edge">
<title>Node7&#45;&gt;Node13</title>
<path fill="none" stroke="midnightblue" d="M341.72,-158.45C324.76,-137.04 293.56,-100.87 260,-78 255.17,-74.71 249.82,-71.74 244.39,-69.1"/>
<polygon fill="midnightblue" stroke="midnightblue" points="338.99,-160.64 347.89,-166.39 344.52,-156.35 338.99,-160.64"/>
</g>
<!-- Node14 -->
<g id="node14" class="node">
<title>Node14</title>
<g id="a_node14"><a xlink:href="namespaceslljit.html#a998468289a7b7f80ec1b49aa930d5143" target="_top" xlink:title="Creates implict cast.">
<polygon fill="none" stroke="black" points="143,-0.5 143,-19.5 260,-19.5 260,-0.5 143,-0.5"/>
<text text-anchor="middle" x="201.5" y="-7.5" font-family="Helvetica,sans-Serif" font-size="10.00">slljit::CreateImplictCast</text>
</a>
</g>
</g>
<!-- Node7&#45;&gt;Node14 -->
<g id="edge13" class="edge">
<title>Node7&#45;&gt;Node14</title>
<path fill="none" stroke="midnightblue" d="M347.6,-156.78C334.6,-125.49 304.71,-63.56 260,-29 255.01,-25.14 249.2,-22.05 243.23,-19.57"/>
<polygon fill="midnightblue" stroke="midnightblue" points="344.38,-158.16 351.36,-166.13 350.88,-155.55 344.38,-158.16"/>
</g>
<!-- Node14&#45;&gt;Node9 -->
<g id="edge14" class="edge">
<title>Node14&#45;&gt;Node9</title>
<path fill="none" stroke="midnightblue" d="M152.84,-23.53C149.41,-25.17 146.09,-26.99 143,-29 108.62,-51.41 79.05,-90.39 64.37,-111.82"/>
<polygon fill="midnightblue" stroke="midnightblue" points="154.26,-26.73 162.1,-19.6 151.53,-20.28 154.26,-26.73"/>
</g>
</g>
</svg>
