<?xml version="1.0" encoding="UTF-8" standalone="no"?>
<!DOCTYPE svg PUBLIC "-//W3C//DTD SVG 1.1//EN"
 "http://www.w3.org/Graphics/SVG/1.1/DTD/svg11.dtd">
<!-- Generated by graphviz version 3.0.0 (20220226.1711)
 -->
<!-- Title: slljit::isFloatingPointTy Pages: 1 -->
<svg width="574pt" height="407pt"
 viewBox="0.00 0.00 574.00 407.13" xmlns="http://www.w3.org/2000/svg" xmlns:xlink="http://www.w3.org/1999/xlink">
<g id="graph0" class="graph" transform="scale(1 1) rotate(0) translate(4 403.13)">
<title>slljit::isFloatingPointTy</title>
<!-- Node1 -->
<g id="node1" class="node">
<title>Node1</title>
<g id="a_node1"><a xlink:title="Checks if value type is floating point type.">
<polygon fill="#bfbfbf" stroke="black" points="451,-195.49 451,-214.49 566,-214.49 566,-195.49 451,-195.49"/>
<text text-anchor="middle" x="508.5" y="-202.49" font-family="Helvetica,sans-Serif" font-size="10.00">slljit::isFloatingPointTy</text>
</a>
</g>
</g>
<!-- Node2 -->
<g id="node2" class="node">
<title>Node2</title>
<g id="a_node2"><a xlink:href="namespaceslljit.html#aea3939a2e43afb64178ab98111878842" target="_top" xlink:title=" ">
<polygon fill="none" stroke="black" points="312.5,-377.49 312.5,-396.49 398.5,-396.49 398.5,-377.49 312.5,-377.49"/>
<text text-anchor="middle" x="355.5" y="-384.49" font-family="Helvetica,sans-Serif" font-size="10.00">slljit::CreateAdd</text>
</a>
</g>
</g>
<!-- Node1&#45;&gt;Node2 -->
<g id="edge1" class="edge">
<title>Node1&#45;&gt;Node2</title>
<path fill="none" stroke="midnightblue" d="M495.81,-223.51C479.22,-249.21 447.26,-296.61 415,-332.99 400.14,-349.74 380.66,-366.92 368.36,-377.27"/>
<polygon fill="midnightblue" stroke="midnightblue" points="498.94,-225.11 501.38,-214.8 493.05,-221.34 498.94,-225.11"/>
</g>
<!-- Node4 -->
<g id="node4" class="node">
<title>Node4</title>
<g id="a_node4"><a xlink:href="namespaceslljit.html#a3ebbdd40e29c1767c6b93fc3ed055a66" target="_top" xlink:title=" ">
<polygon fill="none" stroke="black" points="315,-304.49 315,-323.49 396,-323.49 396,-304.49 315,-304.49"/>
<text text-anchor="middle" x="355.5" y="-311.49" font-family="Helvetica,sans-Serif" font-size="10.00">slljit::CreateDiv</text>
</a>
</g>
</g>
<!-- Node1&#45;&gt;Node4 -->
<g id="edge3" class="edge">
<title>Node1&#45;&gt;Node4</title>
<path fill="none" stroke="midnightblue" d="M485.93,-220.56C454.34,-243.37 396.36,-285.21 370.09,-304.18"/>
<polygon fill="midnightblue" stroke="midnightblue" points="488.04,-223.35 494.1,-214.66 483.94,-217.68 488.04,-223.35"/>
</g>
<!-- Node5 -->
<g id="node5" class="node">
<title>Node5</title>
<g id="a_node5"><a xlink:href="namespaceslljit.html#a35fd5437fe4da3972add655696b4ba1e" target="_top" xlink:title="Creates explict cast.">
<polygon fill="none" stroke="black" points="296,-195.49 296,-214.49 415,-214.49 415,-195.49 296,-195.49"/>
<text text-anchor="middle" x="355.5" y="-202.49" font-family="Helvetica,sans-Serif" font-size="10.00">slljit::CreateExplictCast</text>
</a>
</g>
</g>
<!-- Node1&#45;&gt;Node5 -->
<g id="edge5" class="edge">
<title>Node1&#45;&gt;Node5</title>
<path fill="none" stroke="midnightblue" d="M440.63,-204.99C432.17,-204.99 423.56,-204.99 415.24,-204.99"/>
<polygon fill="midnightblue" stroke="midnightblue" points="440.84,-208.49 450.84,-204.99 440.84,-201.49 440.84,-208.49"/>
</g>
<!-- Node12 -->
<g id="node12" class="node">
<title>Node12</title>
<g id="a_node12"><a xlink:href="namespaceslljit.html#a5789671a8efffcee32738c80bafe9bd1" target="_top" xlink:title=" ">
<polygon fill="none" stroke="black" points="313.5,-122.49 313.5,-141.49 397.5,-141.49 397.5,-122.49 313.5,-122.49"/>
<text text-anchor="middle" x="355.5" y="-129.49" font-family="Helvetica,sans-Serif" font-size="10.00">slljit::CreateMul</text>
</a>
</g>
</g>
<!-- Node1&#45;&gt;Node12 -->
<g id="edge14" class="edge">
<title>Node1&#45;&gt;Node12</title>
<path fill="none" stroke="midnightblue" d="M478.62,-191.03C448.58,-176.51 402.36,-154.16 376.25,-141.54"/>
<polygon fill="midnightblue" stroke="midnightblue" points="477.23,-194.25 487.76,-195.45 480.28,-187.94 477.23,-194.25"/>
</g>
<!-- Node13 -->
<g id="node13" class="node">
<title>Node13</title>
<g id="a_node13"><a xlink:href="namespaceslljit.html#a8803eadca4f0a1a6b5f7b8e4129cadd5" target="_top" xlink:title=" ">
<polygon fill="none" stroke="black" points="312.5,-13.49 312.5,-32.49 398.5,-32.49 398.5,-13.49 312.5,-13.49"/>
<text text-anchor="middle" x="355.5" y="-20.49" font-family="Helvetica,sans-Serif" font-size="10.00">slljit::CreateSub</text>
</a>
</g>
</g>
<!-- Node1&#45;&gt;Node13 -->
<g id="edge16" class="edge">
<title>Node1&#45;&gt;Node13</title>
<path fill="none" stroke="midnightblue" d="M492.66,-187.11C461.27,-149.26 388.98,-62.14 364.66,-32.82"/>
<polygon fill="midnightblue" stroke="midnightblue" points="490.3,-189.74 499.38,-195.21 495.69,-185.27 490.3,-189.74"/>
</g>
<!-- Node3 -->
<g id="node3" class="node">
<title>Node3</title>
<g id="a_node3"><a xlink:href="classslljit_1_1_binary_expr_a_s_t.html#a4e15cb62043e37beafadeb7faf94d7ba" target="_top" xlink:title=" ">
<polygon fill="none" stroke="black" points="0,-189.99 0,-219.99 107,-219.99 107,-189.99 0,-189.99"/>
<text text-anchor="start" x="8" y="-207.99" font-family="Helvetica,sans-Serif" font-size="10.00">slljit::BinaryExprAST</text>
<text text-anchor="middle" x="53.5" y="-196.99" font-family="Helvetica,sans-Serif" font-size="10.00">::codegen</text>
</a>
</g>
</g>
<!-- Node2&#45;&gt;Node3 -->
<g id="edge2" class="edge">
<title>Node2&#45;&gt;Node3</title>
<path fill="none" stroke="midnightblue" d="M302.19,-396.27C256.45,-401.48 190.16,-401.77 143,-370.99 88.3,-335.29 65.05,-254.05 57.5,-220.22"/>
<polygon fill="midnightblue" stroke="midnightblue" points="302.71,-399.73 312.2,-395.01 301.84,-392.78 302.71,-399.73"/>
</g>
<!-- Node4&#45;&gt;Node3 -->
<g id="edge4" class="edge">
<title>Node4&#45;&gt;Node3</title>
<path fill="none" stroke="midnightblue" d="M328.95,-328.35C287.28,-349.7 203.27,-383.81 143,-349.99 92.33,-321.56 67.24,-251.02 58.36,-220.02"/>
<polygon fill="midnightblue" stroke="midnightblue" points="330.68,-331.4 337.89,-323.64 327.41,-325.21 330.68,-331.4"/>
</g>
<!-- Node5&#45;&gt;Node3 -->
<g id="edge7" class="edge">
<title>Node5&#45;&gt;Node3</title>
<path fill="none" stroke="midnightblue" d="M343.29,-223.34C323.63,-254.8 282.88,-316.72 260,-327.99 213.36,-350.98 189.28,-351.71 143,-327.99 98.28,-305.08 71.03,-247.89 60.07,-220.32"/>
<polygon fill="midnightblue" stroke="midnightblue" points="346.38,-224.99 348.67,-214.65 340.43,-221.31 346.38,-224.99"/>
</g>
<!-- Node6 -->
<g id="node6" class="node">
<title>Node6</title>
<g id="a_node6"><a xlink:href="classslljit_1_1_return_expr_a_s_t.html#ae28b151f271dec2884361a2d46556f87" target="_top" xlink:title=" ">
<polygon fill="none" stroke="black" points="148,-287.99 148,-317.99 255,-317.99 255,-287.99 148,-287.99"/>
<text text-anchor="start" x="156" y="-305.99" font-family="Helvetica,sans-Serif" font-size="10.00">slljit::ReturnExprAST</text>
<text text-anchor="middle" x="201.5" y="-294.99" font-family="Helvetica,sans-Serif" font-size="10.00">::codegen</text>
</a>
</g>
</g>
<!-- Node5&#45;&gt;Node6 -->
<g id="edge6" class="edge">
<title>Node5&#45;&gt;Node6</title>
<path fill="none" stroke="midnightblue" d="M336.59,-221.43C318.33,-237.58 288.69,-262.19 260,-278.99 254.49,-282.22 248.47,-285.23 242.46,-287.96"/>
<polygon fill="midnightblue" stroke="midnightblue" points="339.02,-223.94 344.13,-214.66 334.35,-218.73 339.02,-223.94"/>
</g>
<!-- Node7 -->
<g id="node7" class="node">
<title>Node7</title>
<g id="a_node7"><a xlink:href="classslljit_1_1_call_expr_a_s_t.html#a0d196837649e9e0205fafddf2cd95068" target="_top" xlink:title=" ">
<polygon fill="none" stroke="black" points="154,-238.99 154,-268.99 249,-268.99 249,-238.99 154,-238.99"/>
<text text-anchor="start" x="162" y="-256.99" font-family="Helvetica,sans-Serif" font-size="10.00">slljit::CallExprAST</text>
<text text-anchor="middle" x="201.5" y="-245.99" font-family="Helvetica,sans-Serif" font-size="10.00">::codegen</text>
</a>
</g>
</g>
<!-- Node5&#45;&gt;Node7 -->
<g id="edge8" class="edge">
<title>Node5&#45;&gt;Node7</title>
<path fill="none" stroke="midnightblue" d="M315.04,-217.71C294.89,-224.21 270.23,-232.16 249.15,-238.95"/>
<polygon fill="midnightblue" stroke="midnightblue" points="316.39,-220.95 324.83,-214.55 314.24,-214.29 316.39,-220.95"/>
</g>
<!-- Node8 -->
<g id="node8" class="node">
<title>Node8</title>
<g id="a_node8"><a xlink:href="classslljit_1_1_if_expr_a_s_t.html#a376bb50f865a795316ebf0710b4ac135" target="_top" xlink:title=" ">
<polygon fill="none" stroke="black" points="157,-189.99 157,-219.99 246,-219.99 246,-189.99 157,-189.99"/>
<text text-anchor="start" x="165" y="-207.99" font-family="Helvetica,sans-Serif" font-size="10.00">slljit::IfExprAST::</text>
<text text-anchor="middle" x="201.5" y="-196.99" font-family="Helvetica,sans-Serif" font-size="10.00">codegen</text>
</a>
</g>
</g>
<!-- Node5&#45;&gt;Node8 -->
<g id="edge9" class="edge">
<title>Node5&#45;&gt;Node8</title>
<path fill="none" stroke="midnightblue" d="M285.54,-204.99C272.1,-204.99 258.36,-204.99 246.02,-204.99"/>
<polygon fill="midnightblue" stroke="midnightblue" points="285.73,-208.49 295.73,-204.99 285.73,-201.49 285.73,-208.49"/>
</g>
<!-- Node9 -->
<g id="node9" class="node">
<title>Node9</title>
<g id="a_node9"><a xlink:href="classslljit_1_1_for_expr_a_s_t.html#a0e8a98570a1b8c55617ee52b41922289" target="_top" xlink:title=" ">
<polygon fill="none" stroke="black" points="155,-140.99 155,-170.99 248,-170.99 248,-140.99 155,-140.99"/>
<text text-anchor="start" x="163" y="-158.99" font-family="Helvetica,sans-Serif" font-size="10.00">slljit::ForExprAST</text>
<text text-anchor="middle" x="201.5" y="-147.99" font-family="Helvetica,sans-Serif" font-size="10.00">::codegen</text>
</a>
</g>
</g>
<!-- Node5&#45;&gt;Node9 -->
<g id="edge10" class="edge">
<title>Node5&#45;&gt;Node9</title>
<path fill="none" stroke="midnightblue" d="M315.2,-192.32C294.73,-185.72 269.59,-177.62 248.26,-170.74"/>
<polygon fill="midnightblue" stroke="midnightblue" points="314.24,-195.69 324.83,-195.43 316.39,-189.03 314.24,-195.69"/>
</g>
<!-- Node10 -->
<g id="node10" class="node">
<title>Node10</title>
<g id="a_node10"><a xlink:href="classslljit_1_1_var_expr_a_s_t.html#a6898396b719dec46fd30ab9cc9dfb7ac" target="_top" xlink:title=" ">
<polygon fill="none" stroke="black" points="154.5,-91.99 154.5,-121.99 248.5,-121.99 248.5,-91.99 154.5,-91.99"/>
<text text-anchor="start" x="162.5" y="-109.99" font-family="Helvetica,sans-Serif" font-size="10.00">slljit::VarExprAST</text>
<text text-anchor="middle" x="201.5" y="-98.99" font-family="Helvetica,sans-Serif" font-size="10.00">::codegen</text>
</a>
</g>
</g>
<!-- Node5&#45;&gt;Node10 -->
<g id="edge11" class="edge">
<title>Node5&#45;&gt;Node10</title>
<path fill="none" stroke="midnightblue" d="M336.2,-188.63C317.84,-172.77 288.32,-148.73 260,-131.99 254,-128.45 247.41,-125.11 240.9,-122.1"/>
<polygon fill="midnightblue" stroke="midnightblue" points="333.97,-191.33 343.8,-195.28 338.58,-186.06 333.97,-191.33"/>
</g>
<!-- Node11 -->
<g id="node11" class="node">
<title>Node11</title>
<g id="a_node11"><a xlink:href="namespaceslljit.html#a998468289a7b7f80ec1b49aa930d5143" target="_top" xlink:title="Creates implict cast.">
<polygon fill="none" stroke="black" points="143,-53.49 143,-72.49 260,-72.49 260,-53.49 143,-53.49"/>
<text text-anchor="middle" x="201.5" y="-60.49" font-family="Helvetica,sans-Serif" font-size="10.00">slljit::CreateImplictCast</text>
</a>
</g>
</g>
<!-- Node5&#45;&gt;Node11 -->
<g id="edge12" class="edge">
<title>Node5&#45;&gt;Node11</title>
<path fill="none" stroke="midnightblue" d="M333.9,-188.97C321.88,-178.93 306.96,-165.23 296,-150.99 275.14,-123.9 285.95,-105.26 260,-82.99 254.95,-78.65 248.9,-75.24 242.65,-72.56"/>
<polygon fill="midnightblue" stroke="midnightblue" points="331.72,-191.7 341.68,-195.3 336.13,-186.27 331.72,-191.7"/>
</g>
<!-- Node11&#45;&gt;Node3 -->
<g id="edge13" class="edge">
<title>Node11&#45;&gt;Node3</title>
<path fill="none" stroke="midnightblue" d="M153.2,-76.71C149.61,-78.56 146.15,-80.65 143,-82.99 103.51,-112.33 74.29,-164.37 61.56,-189.95"/>
<polygon fill="midnightblue" stroke="midnightblue" points="154.68,-79.88 162.35,-72.57 151.8,-73.5 154.68,-79.88"/>
</g>
<!-- Node12&#45;&gt;Node3 -->
<g id="edge15" class="edge">
<title>Node12&#45;&gt;Node3</title>
<path fill="none" stroke="midnightblue" d="M342.1,-114.16C326.03,-92.78 295.78,-58.07 260,-43.99 211.61,-24.95 187.76,-17.52 143,-43.99 88.09,-76.46 64.96,-156.46 57.47,-189.91"/>
<polygon fill="midnightblue" stroke="midnightblue" points="339.39,-116.38 348.1,-122.41 345.05,-112.26 339.39,-116.38"/>
</g>
<!-- Node13&#45;&gt;Node3 -->
<g id="edge17" class="edge">
<title>Node13&#45;&gt;Node3</title>
<path fill="none" stroke="midnightblue" d="M314.32,-10.87C269.02,0.25 194.91,10.57 143,-21.99 82.16,-60.15 62.12,-153.28 56.46,-189.87"/>
<polygon fill="midnightblue" stroke="midnightblue" points="313.53,-14.28 324.09,-13.39 315.28,-7.51 313.53,-14.28"/>
</g>
</g>
</svg>
