<?xml version="1.0" encoding="UTF-8" standalone="no"?>
<!DOCTYPE svg PUBLIC "-//W3C//DTD SVG 1.1//EN"
 "http://www.w3.org/Graphics/SVG/1.1/DTD/svg11.dtd">
<!-- Generated by graphviz version 3.0.0 (20220226.1711)
 -->
<!-- Title: src/pch.cpp Pages: 1 -->
<svg width="7203pt" height="151pt"
 viewBox="0.00 0.00 7202.50 151.00" xmlns="http://www.w3.org/2000/svg" xmlns:xlink="http://www.w3.org/1999/xlink">
<g id="graph0" class="graph" transform="scale(1 1) rotate(0) translate(4 147)">
<title>src/pch.cpp</title>
<!-- Node1 -->
<g id="node1" class="node">
<title>Node1</title>
<g id="a_node1"><a xlink:title=" ">
<polygon fill="#bfbfbf" stroke="black" points="4134,-123.5 4134,-142.5 4202,-142.5 4202,-123.5 4134,-123.5"/>
<text text-anchor="middle" x="4168" y="-130.5" font-family="Helvetica,sans-Serif" font-size="10.00">src/pch.cpp</text>
</a>
</g>
</g>
<!-- Node2 -->
<g id="node2" class="node">
<title>Node2</title>
<g id="a_node2"><a xlink:href="pch_8h.html" target="_top" xlink:title=" ">
<polygon fill="none" stroke="black" points="4147.5,-67.5 4147.5,-86.5 4188.5,-86.5 4188.5,-67.5 4147.5,-67.5"/>
<text text-anchor="middle" x="4168" y="-74.5" font-family="Helvetica,sans-Serif" font-size="10.00">pch.h</text>
</a>
</g>
</g>
<!-- Node1&#45;&gt;Node2 -->
<g id="edge1" class="edge">
<title>Node1&#45;&gt;Node2</title>
<path fill="none" stroke="midnightblue" d="M4168,-123.08C4168,-116.01 4168,-105.86 4168,-96.99"/>
<polygon fill="midnightblue" stroke="midnightblue" points="4171.5,-96.75 4168,-86.75 4164.5,-96.75 4171.5,-96.75"/>
</g>
<!-- Node3 -->
<g id="node3" class="node">
<title>Node3</title>
<g id="a_node3"><a xlink:title=" ">
<polygon fill="none" stroke="#bfbfbf" points="0,-6 0,-25 112,-25 112,-6 0,-6"/>
<text text-anchor="middle" x="56" y="-13" font-family="Helvetica,sans-Serif" font-size="10.00">llvm/ADT/STLExtras.h</text>
</a>
</g>
</g>
<!-- Node2&#45;&gt;Node3 -->
<g id="edge2" class="edge">
<title>Node2&#45;&gt;Node3</title>
<path fill="none" stroke="midnightblue" d="M4147.27,-76.03C3854.28,-76.48 547.86,-80.44 121,-31 113.49,-30.13 105.58,-28.76 97.96,-27.2"/>
<polygon fill="midnightblue" stroke="midnightblue" points="98.69,-23.78 88.17,-25.07 97.2,-30.62 98.69,-23.78"/>
</g>
<!-- Node4 -->
<g id="node4" class="node">
<title>Node4</title>
<g id="a_node4"><a xlink:title=" ">
<polygon fill="none" stroke="#bfbfbf" points="130.5,-6 130.5,-25 231.5,-25 231.5,-6 130.5,-6"/>
<text text-anchor="middle" x="181" y="-13" font-family="Helvetica,sans-Serif" font-size="10.00">llvm/ADT/APFloat.h</text>
</a>
</g>
</g>
<!-- Node2&#45;&gt;Node4 -->
<g id="edge3" class="edge">
<title>Node2&#45;&gt;Node4</title>
<path fill="none" stroke="midnightblue" d="M4147.44,-76.05C3860.26,-76.69 654.54,-82.67 241,-31 234.28,-30.16 227.23,-28.85 220.41,-27.36"/>
<polygon fill="midnightblue" stroke="midnightblue" points="221.2,-23.95 210.66,-25.07 219.6,-30.76 221.2,-23.95"/>
</g>
<!-- Node5 -->
<g id="node5" class="node">
<title>Node5</title>
<g id="a_node5"><a xlink:title=" ">
<polygon fill="none" stroke="#bfbfbf" points="250,-6 250,-25 406,-25 406,-6 250,-6"/>
<text text-anchor="middle" x="328" y="-13" font-family="Helvetica,sans-Serif" font-size="10.00">llvm/CodeGen/CommandFlags.h</text>
</a>
</g>
</g>
<!-- Node2&#45;&gt;Node5 -->
<g id="edge4" class="edge">
<title>Node2&#45;&gt;Node5</title>
<path fill="none" stroke="midnightblue" d="M4147.08,-75.95C3864.65,-75.19 811.13,-66.18 415,-31 404.02,-30.03 392.34,-28.45 381.22,-26.7"/>
<polygon fill="midnightblue" stroke="midnightblue" points="381.64,-23.22 371.2,-25.04 380.5,-30.12 381.64,-23.22"/>
</g>
<!-- Node6 -->
<g id="node6" class="node">
<title>Node6</title>
<g id="a_node6"><a xlink:title=" ">
<polygon fill="none" stroke="#bfbfbf" points="424,-6 424,-25 544,-25 544,-6 424,-6"/>
<text text-anchor="middle" x="484" y="-13" font-family="Helvetica,sans-Serif" font-size="10.00">llvm/Object/ObjectFile.h</text>
</a>
</g>
</g>
<!-- Node2&#45;&gt;Node6 -->
<g id="edge5" class="edge">
<title>Node2&#45;&gt;Node6</title>
<path fill="none" stroke="midnightblue" d="M4147.42,-75.99C3872.71,-75.81 933.56,-72.95 553,-31 544.87,-30.1 536.28,-28.69 528.03,-27.08"/>
<polygon fill="midnightblue" stroke="midnightblue" points="528.68,-23.64 518.18,-25.06 527.27,-30.5 528.68,-23.64"/>
</g>
<!-- Node7 -->
<g id="node7" class="node">
<title>Node7</title>
<g id="a_node7"><a xlink:title=" ">
<polygon fill="none" stroke="#bfbfbf" points="562,-0.5 562,-30.5 672,-30.5 672,-0.5 562,-0.5"/>
<text text-anchor="start" x="570" y="-18.5" font-family="Helvetica,sans-Serif" font-size="10.00">llvm/ExecutionEngine</text>
<text text-anchor="middle" x="617" y="-7.5" font-family="Helvetica,sans-Serif" font-size="10.00">/ExecutionEngine.h</text>
</a>
</g>
</g>
<!-- Node2&#45;&gt;Node7 -->
<g id="edge6" class="edge">
<title>Node2&#45;&gt;Node7</title>
<path fill="none" stroke="midnightblue" d="M4147.33,-76C3879.64,-75.95 1095.55,-74.41 682.19,-30.87"/>
<polygon fill="midnightblue" stroke="midnightblue" points="682.36,-27.37 672.03,-29.74 681.58,-34.33 682.36,-27.37"/>
</g>
<!-- Node8 -->
<g id="node8" class="node">
<title>Node8</title>
<g id="a_node8"><a xlink:title=" ">
<polygon fill="none" stroke="#bfbfbf" points="690,-0.5 690,-30.5 800,-30.5 800,-0.5 690,-0.5"/>
<text text-anchor="start" x="698" y="-18.5" font-family="Helvetica,sans-Serif" font-size="10.00">llvm/ExecutionEngine</text>
<text text-anchor="middle" x="745" y="-7.5" font-family="Helvetica,sans-Serif" font-size="10.00">/JITSymbol.h</text>
</a>
</g>
</g>
<!-- Node2&#45;&gt;Node8 -->
<g id="edge7" class="edge">
<title>Node2&#45;&gt;Node8</title>
<path fill="none" stroke="midnightblue" d="M4147.28,-75.99C3884.74,-75.8 1209.2,-72.88 810.11,-30.86"/>
<polygon fill="midnightblue" stroke="midnightblue" points="810.36,-27.37 800.03,-29.74 809.58,-34.33 810.36,-27.37"/>
</g>
<!-- Node9 -->
<g id="node9" class="node">
<title>Node9</title>
<g id="a_node9"><a xlink:title=" ">
<polygon fill="none" stroke="#bfbfbf" points="818,-0.5 818,-30.5 928,-30.5 928,-0.5 818,-0.5"/>
<text text-anchor="start" x="826" y="-18.5" font-family="Helvetica,sans-Serif" font-size="10.00">llvm/ExecutionEngine</text>
<text text-anchor="middle" x="873" y="-7.5" font-family="Helvetica,sans-Serif" font-size="10.00">/ObjectCache.h</text>
</a>
</g>
</g>
<!-- Node2&#45;&gt;Node9 -->
<g id="edge8" class="edge">
<title>Node2&#45;&gt;Node9</title>
<path fill="none" stroke="midnightblue" d="M4147.28,-75.98C3890.26,-75.65 1322.77,-71.36 938.01,-30.85"/>
<polygon fill="midnightblue" stroke="midnightblue" points="938.36,-27.37 928.03,-29.73 937.58,-34.33 938.36,-27.37"/>
</g>
<!-- Node10 -->
<g id="node10" class="node">
<title>Node10</title>
<g id="a_node10"><a xlink:title=" ">
<polygon fill="none" stroke="#bfbfbf" points="946,-0.5 946,-30.5 1056,-30.5 1056,-0.5 946,-0.5"/>
<text text-anchor="start" x="954" y="-18.5" font-family="Helvetica,sans-Serif" font-size="10.00">llvm/ExecutionEngine</text>
<text text-anchor="middle" x="1001" y="-7.5" font-family="Helvetica,sans-Serif" font-size="10.00">/Orc/CompileUtils.h</text>
</a>
</g>
</g>
<!-- Node2&#45;&gt;Node10 -->
<g id="edge9" class="edge">
<title>Node2&#45;&gt;Node10</title>
<path fill="none" stroke="midnightblue" d="M4147.32,-75.96C3896.27,-75.49 1437.48,-69.85 1066.16,-30.87"/>
<polygon fill="midnightblue" stroke="midnightblue" points="1066.36,-27.37 1056.03,-29.73 1065.58,-34.32 1066.36,-27.37"/>
</g>
<!-- Node11 -->
<g id="node11" class="node">
<title>Node11</title>
<g id="a_node11"><a xlink:title=" ">
<polygon fill="none" stroke="#bfbfbf" points="1074.5,-0.5 1074.5,-30.5 1189.5,-30.5 1189.5,-0.5 1074.5,-0.5"/>
<text text-anchor="start" x="1082.5" y="-18.5" font-family="Helvetica,sans-Serif" font-size="10.00">llvm/ExecutionEngine</text>
<text text-anchor="middle" x="1132" y="-7.5" font-family="Helvetica,sans-Serif" font-size="10.00">/Orc/IRCompileLayer.h</text>
</a>
</g>
</g>
<!-- Node2&#45;&gt;Node11 -->
<g id="edge10" class="edge">
<title>Node2&#45;&gt;Node11</title>
<path fill="none" stroke="midnightblue" d="M4147.46,-75.94C3903.2,-75.16 1556.31,-66.8 1199.59,-30.8"/>
<polygon fill="midnightblue" stroke="midnightblue" points="1199.94,-27.32 1189.62,-29.73 1199.19,-34.28 1199.94,-27.32"/>
</g>
<!-- Node12 -->
<g id="node12" class="node">
<title>Node12</title>
<g id="a_node12"><a xlink:title=" ">
<polygon fill="none" stroke="#bfbfbf" points="1208,-0.5 1208,-30.5 1330,-30.5 1330,-0.5 1208,-0.5"/>
<text text-anchor="start" x="1216" y="-18.5" font-family="Helvetica,sans-Serif" font-size="10.00">llvm/ExecutionEngine</text>
<text text-anchor="middle" x="1269" y="-7.5" font-family="Helvetica,sans-Serif" font-size="10.00">/Orc/IRTransformLayer.h</text>
</a>
</g>
</g>
<!-- Node2&#45;&gt;Node12 -->
<g id="edge11" class="edge">
<title>Node2&#45;&gt;Node12</title>
<path fill="none" stroke="midnightblue" d="M4147.33,-75.91C3908.84,-74.83 1681.21,-63.93 1340.34,-30.92"/>
<polygon fill="midnightblue" stroke="midnightblue" points="1340.66,-27.44 1330.36,-29.89 1339.94,-34.4 1340.66,-27.44"/>
</g>
<!-- Node13 -->
<g id="node13" class="node">
<title>Node13</title>
<g id="a_node13"><a xlink:title=" ">
<polygon fill="none" stroke="#bfbfbf" points="1348,-0.5 1348,-30.5 1458,-30.5 1458,-0.5 1348,-0.5"/>
<text text-anchor="start" x="1356" y="-18.5" font-family="Helvetica,sans-Serif" font-size="10.00">llvm/ExecutionEngine</text>
<text text-anchor="middle" x="1403" y="-7.5" font-family="Helvetica,sans-Serif" font-size="10.00">/Orc/IndirectionUtils.h</text>
</a>
</g>
</g>
<!-- Node2&#45;&gt;Node13 -->
<g id="edge12" class="edge">
<title>Node2&#45;&gt;Node13</title>
<path fill="none" stroke="midnightblue" d="M4147.18,-75.92C3914,-74.93 1794.95,-65.11 1468.04,-30.85"/>
<polygon fill="midnightblue" stroke="midnightblue" points="1468.36,-27.36 1458.03,-29.72 1467.58,-34.32 1468.36,-27.36"/>
</g>
<!-- Node14 -->
<g id="node14" class="node">
<title>Node14</title>
<g id="a_node14"><a xlink:title=" ">
<polygon fill="none" stroke="#bfbfbf" points="1476.5,-0.5 1476.5,-30.5 1637.5,-30.5 1637.5,-0.5 1476.5,-0.5"/>
<text text-anchor="start" x="1484.5" y="-18.5" font-family="Helvetica,sans-Serif" font-size="10.00">llvm/ExecutionEngine</text>
<text text-anchor="middle" x="1557" y="-7.5" font-family="Helvetica,sans-Serif" font-size="10.00">/Orc/RTDyldObjectLinkingLayer.h</text>
</a>
</g>
</g>
<!-- Node2&#45;&gt;Node14 -->
<g id="edge13" class="edge">
<title>Node2&#45;&gt;Node14</title>
<path fill="none" stroke="midnightblue" d="M4147.49,-76.04C3938.62,-76.36 2193.94,-77.69 1648.2,-30.99"/>
<polygon fill="midnightblue" stroke="midnightblue" points="1648.15,-27.47 1637.89,-30.09 1647.54,-34.44 1648.15,-27.47"/>
</g>
<!-- Node15 -->
<g id="node15" class="node">
<title>Node15</title>
<g id="a_node15"><a xlink:title=" ">
<polygon fill="none" stroke="#bfbfbf" points="1656,-0.5 1656,-30.5 1788,-30.5 1788,-0.5 1656,-0.5"/>
<text text-anchor="start" x="1664" y="-18.5" font-family="Helvetica,sans-Serif" font-size="10.00">llvm/ExecutionEngine</text>
<text text-anchor="middle" x="1722" y="-7.5" font-family="Helvetica,sans-Serif" font-size="10.00">/RTDyldMemoryManager.h</text>
</a>
</g>
</g>
<!-- Node2&#45;&gt;Node15 -->
<g id="edge14" class="edge">
<title>Node2&#45;&gt;Node15</title>
<path fill="none" stroke="midnightblue" d="M4147.45,-76.1C3945.37,-77.01 2310.35,-82.72 1798.21,-30.97"/>
<polygon fill="midnightblue" stroke="midnightblue" points="1798.47,-27.48 1788.16,-29.93 1797.75,-34.44 1798.47,-27.48"/>
</g>
<!-- Node16 -->
<g id="node16" class="node">
<title>Node16</title>
<g id="a_node16"><a xlink:title=" ">
<polygon fill="none" stroke="#bfbfbf" points="1806,-0.5 1806,-30.5 1940,-30.5 1940,-0.5 1806,-0.5"/>
<text text-anchor="start" x="1814" y="-18.5" font-family="Helvetica,sans-Serif" font-size="10.00">llvm/ExecutionEngine</text>
<text text-anchor="middle" x="1873" y="-7.5" font-family="Helvetica,sans-Serif" font-size="10.00">/SectionMemoryManager.h</text>
</a>
</g>
</g>
<!-- Node2&#45;&gt;Node16 -->
<g id="edge15" class="edge">
<title>Node2&#45;&gt;Node16</title>
<path fill="none" stroke="midnightblue" d="M4147.25,-76.06C3951.73,-76.58 2429.68,-79.05 1950.14,-30.96"/>
<polygon fill="midnightblue" stroke="midnightblue" points="1950.35,-27.46 1940.05,-29.93 1949.64,-34.43 1950.35,-27.46"/>
</g>
<!-- Node17 -->
<g id="node17" class="node">
<title>Node17</title>
<g id="a_node17"><a xlink:title=" ">
<polygon fill="none" stroke="#bfbfbf" points="1958.5,-6 1958.5,-25 2107.5,-25 2107.5,-6 1958.5,-6"/>
<text text-anchor="middle" x="2033" y="-13" font-family="Helvetica,sans-Serif" font-size="10.00">llvm/Support/DynamicLibrary.h</text>
</a>
</g>
</g>
<!-- Node2&#45;&gt;Node17 -->
<g id="edge16" class="edge">
<title>Node2&#45;&gt;Node17</title>
<path fill="none" stroke="midnightblue" d="M4147.38,-75.97C3959.42,-75.66 2540.41,-71.96 2117,-31 2106.62,-30 2095.59,-28.45 2085.05,-26.73"/>
<polygon fill="midnightblue" stroke="midnightblue" points="2085.58,-23.27 2075.14,-25.04 2084.41,-30.17 2085.58,-23.27"/>
</g>
<!-- Node18 -->
<g id="node18" class="node">
<title>Node18</title>
<g id="a_node18"><a xlink:title=" ">
<polygon fill="none" stroke="#bfbfbf" points="2126,-6 2126,-25 2228,-25 2228,-6 2126,-6"/>
<text text-anchor="middle" x="2177" y="-13" font-family="Helvetica,sans-Serif" font-size="10.00">llvm/Support/Error.h</text>
</a>
</g>
</g>
<!-- Node2&#45;&gt;Node18 -->
<g id="edge17" class="edge">
<title>Node2&#45;&gt;Node18</title>
<path fill="none" stroke="midnightblue" d="M4147.44,-76.13C3965.83,-77.16 2633.29,-82.89 2237,-31 2230.51,-30.15 2223.71,-28.88 2217.11,-27.44"/>
<polygon fill="midnightblue" stroke="midnightblue" points="2217.51,-23.94 2206.98,-25.08 2215.92,-30.76 2217.51,-23.94"/>
</g>
<!-- Node19 -->
<g id="node19" class="node">
<title>Node19</title>
<g id="a_node19"><a xlink:title=" ">
<polygon fill="none" stroke="#bfbfbf" points="2246.5,-6 2246.5,-25 2383.5,-25 2383.5,-6 2246.5,-6"/>
<text text-anchor="middle" x="2315" y="-13" font-family="Helvetica,sans-Serif" font-size="10.00">llvm/Support/raw_ostream.h</text>
</a>
</g>
</g>
<!-- Node2&#45;&gt;Node19 -->
<g id="edge18" class="edge">
<title>Node2&#45;&gt;Node19</title>
<path fill="none" stroke="midnightblue" d="M4147.23,-75.93C3973.34,-75.25 2757.06,-69.21 2393,-31 2383.64,-30.02 2373.73,-28.53 2364.22,-26.87"/>
<polygon fill="midnightblue" stroke="midnightblue" points="2364.57,-23.38 2354.1,-25.02 2363.31,-30.26 2364.57,-23.38"/>
</g>
<!-- Node20 -->
<g id="node20" class="node">
<title>Node20</title>
<g id="a_node20"><a xlink:title=" ">
<polygon fill="none" stroke="#bfbfbf" points="2402,-6 2402,-25 2538,-25 2538,-6 2402,-6"/>
<text text-anchor="middle" x="2470" y="-13" font-family="Helvetica,sans-Serif" font-size="10.00">llvm/Support/TargetSelect.h</text>
</a>
</g>
</g>
<!-- Node2&#45;&gt;Node20 -->
<g id="edge19" class="edge">
<title>Node2&#45;&gt;Node20</title>
<path fill="none" stroke="midnightblue" d="M4147.24,-75.88C3982.05,-74.83 2878.18,-66.55 2547,-31 2537.76,-30.01 2527.97,-28.51 2518.58,-26.86"/>
<polygon fill="midnightblue" stroke="midnightblue" points="2519.07,-23.39 2508.6,-25.01 2517.8,-30.27 2519.07,-23.39"/>
</g>
<!-- Node21 -->
<g id="node21" class="node">
<title>Node21</title>
<g id="a_node21"><a xlink:title=" ">
<polygon fill="none" stroke="#bfbfbf" points="2556.5,-6 2556.5,-25 2699.5,-25 2699.5,-6 2556.5,-6"/>
<text text-anchor="middle" x="2628" y="-13" font-family="Helvetica,sans-Serif" font-size="10.00">llvm/Support/CommandLine.h</text>
</a>
</g>
</g>
<!-- Node2&#45;&gt;Node21 -->
<g id="edge20" class="edge">
<title>Node2&#45;&gt;Node21</title>
<path fill="none" stroke="midnightblue" d="M4147.13,-75.78C3991.09,-74.1 3004.96,-62.31 2708,-31 2698.42,-29.99 2688.25,-28.49 2678.5,-26.83"/>
<polygon fill="midnightblue" stroke="midnightblue" points="2678.99,-23.36 2668.53,-25.05 2677.76,-30.25 2678.99,-23.36"/>
</g>
<!-- Node22 -->
<g id="node22" class="node">
<title>Node22</title>
<g id="a_node22"><a xlink:title=" ">
<polygon fill="none" stroke="#bfbfbf" points="2717.5,-6 2717.5,-25 2836.5,-25 2836.5,-6 2717.5,-6"/>
<text text-anchor="middle" x="2777" y="-13" font-family="Helvetica,sans-Serif" font-size="10.00">llvm/Support/InitLLVM.h</text>
</a>
</g>
</g>
<!-- Node2&#45;&gt;Node22 -->
<g id="edge21" class="edge">
<title>Node2&#45;&gt;Node22</title>
<path fill="none" stroke="midnightblue" d="M4147.23,-75.8C4000.03,-74.27 3112.46,-63.81 2845,-31 2837.34,-30.06 2829.26,-28.68 2821.45,-27.15"/>
<polygon fill="midnightblue" stroke="midnightblue" points="2821.9,-23.67 2811.39,-25.06 2820.47,-30.52 2821.9,-23.67"/>
</g>
<!-- Node23 -->
<g id="node23" class="node">
<title>Node23</title>
<g id="a_node23"><a xlink:title=" ">
<polygon fill="none" stroke="#bfbfbf" points="2854.5,-6 2854.5,-25 2955.5,-25 2955.5,-6 2854.5,-6"/>
<text text-anchor="middle" x="2905" y="-13" font-family="Helvetica,sans-Serif" font-size="10.00">llvm/Support/Host.h</text>
</a>
</g>
</g>
<!-- Node2&#45;&gt;Node23 -->
<g id="edge22" class="edge">
<title>Node2&#45;&gt;Node23</title>
<path fill="none" stroke="midnightblue" d="M4147.36,-75.79C4008.32,-74.31 3206.71,-64.39 2965,-31 2958.59,-30.11 2951.87,-28.84 2945.33,-27.41"/>
<polygon fill="midnightblue" stroke="midnightblue" points="2945.83,-23.93 2935.3,-25.07 2944.24,-30.75 2945.83,-23.93"/>
</g>
<!-- Node24 -->
<g id="node24" class="node">
<title>Node24</title>
<g id="a_node24"><a xlink:title=" ">
<polygon fill="none" stroke="#bfbfbf" points="2974,-6 2974,-25 3112,-25 3112,-6 2974,-6"/>
<text text-anchor="middle" x="3043" y="-13" font-family="Helvetica,sans-Serif" font-size="10.00">llvm/Target/TargetMachine.h</text>
</a>
</g>
</g>
<!-- Node2&#45;&gt;Node24 -->
<g id="edge23" class="edge">
<title>Node2&#45;&gt;Node24</title>
<path fill="none" stroke="midnightblue" d="M4147.25,-76.19C4039.42,-76.96 3532.25,-77.83 3121,-31 3111.85,-29.96 3102.17,-28.47 3092.85,-26.85"/>
<polygon fill="midnightblue" stroke="midnightblue" points="3093.38,-23.39 3082.92,-25.04 3092.13,-30.27 3093.38,-23.39"/>
</g>
<!-- Node25 -->
<g id="node25" class="node">
<title>Node25</title>
<g id="a_node25"><a xlink:title=" ">
<polygon fill="none" stroke="#bfbfbf" points="3130.5,-6 3130.5,-25 3265.5,-25 3265.5,-6 3130.5,-6"/>
<text text-anchor="middle" x="3198" y="-13" font-family="Helvetica,sans-Serif" font-size="10.00">llvm/Target/TargetOptions.h</text>
</a>
</g>
</g>
<!-- Node2&#45;&gt;Node25 -->
<g id="edge24" class="edge">
<title>Node2&#45;&gt;Node25</title>
<path fill="none" stroke="midnightblue" d="M4147.45,-76.01C4049.62,-75.86 3621.56,-72.7 3274,-31 3265.28,-29.95 3256.05,-28.5 3247.15,-26.9"/>
<polygon fill="midnightblue" stroke="midnightblue" points="3247.76,-23.46 3237.28,-25.07 3246.47,-30.34 3247.76,-23.46"/>
</g>
<!-- Node26 -->
<g id="node26" class="node">
<title>Node26</title>
<g id="a_node26"><a xlink:title=" ">
<polygon fill="none" stroke="#bfbfbf" points="3283.5,-0.5 3283.5,-30.5 3410.5,-30.5 3410.5,-0.5 3283.5,-0.5"/>
<text text-anchor="start" x="3291.5" y="-18.5" font-family="Helvetica,sans-Serif" font-size="10.00">llvm/Target/TargetIntrinsic</text>
<text text-anchor="middle" x="3347" y="-7.5" font-family="Helvetica,sans-Serif" font-size="10.00">Info.h</text>
</a>
</g>
</g>
<!-- Node2&#45;&gt;Node26 -->
<g id="edge25" class="edge">
<title>Node2&#45;&gt;Node26</title>
<path fill="none" stroke="midnightblue" d="M4147.35,-75.81C4060.22,-74.78 3714,-68.49 3420.5,-31.08"/>
<polygon fill="midnightblue" stroke="midnightblue" points="3420.89,-27.6 3410.52,-29.79 3419.99,-34.54 3420.89,-27.6"/>
</g>
<!-- Node27 -->
<g id="node27" class="node">
<title>Node27</title>
<g id="a_node27"><a xlink:title=" ">
<polygon fill="none" stroke="#bfbfbf" points="3428.5,-0.5 3428.5,-30.5 3569.5,-30.5 3569.5,-0.5 3428.5,-0.5"/>
<text text-anchor="start" x="3436.5" y="-18.5" font-family="Helvetica,sans-Serif" font-size="10.00">llvm/Transforms/InstCombine</text>
<text text-anchor="middle" x="3499" y="-7.5" font-family="Helvetica,sans-Serif" font-size="10.00">/InstCombine.h</text>
</a>
</g>
</g>
<!-- Node2&#45;&gt;Node27 -->
<g id="edge26" class="edge">
<title>Node2&#45;&gt;Node27</title>
<path fill="none" stroke="midnightblue" d="M4147.32,-75.19C4072.44,-72.11 3808.39,-59.82 3579.78,-31"/>
<polygon fill="midnightblue" stroke="midnightblue" points="3579.97,-27.5 3569.61,-29.71 3579.09,-34.44 3579.97,-27.5"/>
</g>
<!-- Node28 -->
<g id="node28" class="node">
<title>Node28</title>
<g id="a_node28"><a xlink:title=" ">
<polygon fill="none" stroke="#bfbfbf" points="3588,-6 3588,-25 3700,-25 3700,-6 3588,-6"/>
<text text-anchor="middle" x="3644" y="-13" font-family="Helvetica,sans-Serif" font-size="10.00">llvm/Transforms/IPO.h</text>
</a>
</g>
</g>
<!-- Node2&#45;&gt;Node28 -->
<g id="edge27" class="edge">
<title>Node2&#45;&gt;Node28</title>
<path fill="none" stroke="midnightblue" d="M4147.3,-74.87C4082.36,-71.14 3877.01,-57.87 3709,-31 3702.33,-29.93 3695.31,-28.6 3688.46,-27.17"/>
<polygon fill="midnightblue" stroke="midnightblue" points="3689.11,-23.73 3678.59,-25.04 3687.63,-30.57 3689.11,-23.73"/>
</g>
<!-- Node29 -->
<g id="node29" class="node">
<title>Node29</title>
<g id="a_node29"><a xlink:title=" ">
<polygon fill="none" stroke="#bfbfbf" points="3718,-0.5 3718,-30.5 3836,-30.5 3836,-0.5 3718,-0.5"/>
<text text-anchor="start" x="3726" y="-18.5" font-family="Helvetica,sans-Serif" font-size="10.00">llvm/Transforms/IPO</text>
<text text-anchor="middle" x="3777" y="-7.5" font-family="Helvetica,sans-Serif" font-size="10.00">/PassManagerBuilder.h</text>
</a>
</g>
</g>
<!-- Node2&#45;&gt;Node29 -->
<g id="edge28" class="edge">
<title>Node2&#45;&gt;Node29</title>
<path fill="none" stroke="midnightblue" d="M4147.14,-73.62C4097.05,-67.79 3965.91,-51.88 3846.34,-31.16"/>
<polygon fill="midnightblue" stroke="midnightblue" points="3846.74,-27.68 3836.29,-29.4 3845.54,-34.57 3846.74,-27.68"/>
</g>
<!-- Node30 -->
<g id="node30" class="node">
<title>Node30</title>
<g id="a_node30"><a xlink:title=" ">
<polygon fill="none" stroke="#bfbfbf" points="3854.5,-6 3854.5,-25 3969.5,-25 3969.5,-6 3854.5,-6"/>
<text text-anchor="middle" x="3912" y="-13" font-family="Helvetica,sans-Serif" font-size="10.00">llvm/Transforms/Utils.h</text>
</a>
</g>
</g>
<!-- Node2&#45;&gt;Node30 -->
<g id="edge29" class="edge">
<title>Node2&#45;&gt;Node30</title>
<path fill="none" stroke="midnightblue" d="M4147.48,-71.23C4106.83,-61.78 4015.11,-40.46 3958.89,-27.4"/>
<polygon fill="midnightblue" stroke="midnightblue" points="3959.36,-23.91 3948.83,-25.06 3957.78,-30.73 3959.36,-23.91"/>
</g>
<!-- Node31 -->
<g id="node31" class="node">
<title>Node31</title>
<g id="a_node31"><a xlink:title=" ">
<polygon fill="none" stroke="#bfbfbf" points="3987.5,-0.5 3987.5,-30.5 4170.5,-30.5 4170.5,-0.5 3987.5,-0.5"/>
<text text-anchor="start" x="3995.5" y="-18.5" font-family="Helvetica,sans-Serif" font-size="10.00">llvm/Transforms/Aggressive</text>
<text text-anchor="middle" x="4079" y="-7.5" font-family="Helvetica,sans-Serif" font-size="10.00">InstCombine/AggressiveInstCombine.h</text>
</a>
</g>
</g>
<!-- Node2&#45;&gt;Node31 -->
<g id="edge30" class="edge">
<title>Node2&#45;&gt;Node31</title>
<path fill="none" stroke="midnightblue" d="M4155.25,-67.48C4143.08,-59.34 4124.31,-46.79 4108.44,-36.18"/>
<polygon fill="midnightblue" stroke="midnightblue" points="4110.23,-33.17 4099.98,-30.52 4106.34,-38.99 4110.23,-33.17"/>
</g>
<!-- Node32 -->
<g id="node32" class="node">
<title>Node32</title>
<g id="a_node32"><a xlink:title=" ">
<polygon fill="none" stroke="#bfbfbf" points="4188.5,-6 4188.5,-25 4325.5,-25 4325.5,-6 4188.5,-6"/>
<text text-anchor="middle" x="4257" y="-13" font-family="Helvetica,sans-Serif" font-size="10.00">llvm/Transforms/Vectorize.h</text>
</a>
</g>
</g>
<!-- Node2&#45;&gt;Node32 -->
<g id="edge31" class="edge">
<title>Node2&#45;&gt;Node32</title>
<path fill="none" stroke="midnightblue" d="M4180.75,-67.48C4195.03,-57.93 4218.4,-42.31 4235.51,-30.87"/>
<polygon fill="midnightblue" stroke="midnightblue" points="4237.9,-33.48 4244.27,-25.01 4234.01,-27.66 4237.9,-33.48"/>
</g>
<!-- Node33 -->
<g id="node33" class="node">
<title>Node33</title>
<g id="a_node33"><a xlink:title=" ">
<polygon fill="none" stroke="#bfbfbf" points="4343.5,-6 4343.5,-25 4466.5,-25 4466.5,-6 4343.5,-6"/>
<text text-anchor="middle" x="4405" y="-13" font-family="Helvetica,sans-Serif" font-size="10.00">llvm/Transforms/Scalar.h</text>
</a>
</g>
</g>
<!-- Node2&#45;&gt;Node33 -->
<g id="edge32" class="edge">
<title>Node2&#45;&gt;Node33</title>
<path fill="none" stroke="midnightblue" d="M4188.62,-70.82C4226.94,-61.2 4309.92,-40.37 4361.25,-27.48"/>
<polygon fill="midnightblue" stroke="midnightblue" points="4362.23,-30.85 4371.08,-25.02 4360.52,-24.06 4362.23,-30.85"/>
</g>
<!-- Node34 -->
<g id="node34" class="node">
<title>Node34</title>
<g id="a_node34"><a xlink:title=" ">
<polygon fill="none" stroke="#bfbfbf" points="4484.5,-0.5 4484.5,-30.5 4599.5,-30.5 4599.5,-0.5 4484.5,-0.5"/>
<text text-anchor="start" x="4492.5" y="-18.5" font-family="Helvetica,sans-Serif" font-size="10.00">llvm/Transforms/Scalar</text>
<text text-anchor="middle" x="4542" y="-7.5" font-family="Helvetica,sans-Serif" font-size="10.00">/GVN.h</text>
</a>
</g>
</g>
<!-- Node2&#45;&gt;Node34 -->
<g id="edge33" class="edge">
<title>Node2&#45;&gt;Node34</title>
<path fill="none" stroke="midnightblue" d="M4188.63,-73.5C4236.88,-67.55 4361.05,-51.6 4474.56,-31.19"/>
<polygon fill="midnightblue" stroke="midnightblue" points="4475.24,-34.62 4484.46,-29.4 4473.99,-27.74 4475.24,-34.62"/>
</g>
<!-- Node35 -->
<g id="node35" class="node">
<title>Node35</title>
<g id="a_node35"><a xlink:title=" ">
<polygon fill="none" stroke="#bfbfbf" points="4617.5,-0.5 4617.5,-30.5 4740.5,-30.5 4740.5,-0.5 4617.5,-0.5"/>
<text text-anchor="start" x="4625.5" y="-18.5" font-family="Helvetica,sans-Serif" font-size="10.00">llvm/Analysis/BasicAlias</text>
<text text-anchor="middle" x="4679" y="-7.5" font-family="Helvetica,sans-Serif" font-size="10.00">Analysis.h</text>
</a>
</g>
</g>
<!-- Node2&#45;&gt;Node35 -->
<g id="edge34" class="edge">
<title>Node2&#45;&gt;Node35</title>
<path fill="none" stroke="midnightblue" d="M4188.76,-74.64C4250.83,-70.42 4440.52,-56.37 4607.29,-31.17"/>
<polygon fill="midnightblue" stroke="midnightblue" points="4607.87,-34.63 4617.23,-29.65 4606.81,-27.71 4607.87,-34.63"/>
</g>
<!-- Node36 -->
<g id="node36" class="node">
<title>Node36</title>
<g id="a_node36"><a xlink:title=" ">
<polygon fill="none" stroke="#bfbfbf" points="4758.5,-6 4758.5,-25 4859.5,-25 4859.5,-6 4758.5,-6"/>
<text text-anchor="middle" x="4809" y="-13" font-family="Helvetica,sans-Serif" font-size="10.00">llvm/Analysis/Lint.h</text>
</a>
</g>
</g>
<!-- Node2&#45;&gt;Node36 -->
<g id="edge35" class="edge">
<title>Node2&#45;&gt;Node36</title>
<path fill="none" stroke="midnightblue" d="M4188.5,-75.63C4263.81,-74 4532.11,-65.96 4750,-31 4755.94,-30.05 4762.16,-28.8 4768.24,-27.44"/>
<polygon fill="midnightblue" stroke="midnightblue" points="4769.34,-30.77 4778.27,-25.06 4767.73,-23.96 4769.34,-30.77"/>
</g>
<!-- Node37 -->
<g id="node37" class="node">
<title>Node37</title>
<g id="a_node37"><a xlink:title=" ">
<polygon fill="none" stroke="#bfbfbf" points="4878,-6 4878,-25 4994,-25 4994,-6 4878,-6"/>
<text text-anchor="middle" x="4936" y="-13" font-family="Helvetica,sans-Serif" font-size="10.00">llvm/IR/PassManager.h</text>
</a>
</g>
</g>
<!-- Node2&#45;&gt;Node37 -->
<g id="edge36" class="edge">
<title>Node2&#45;&gt;Node37</title>
<path fill="none" stroke="midnightblue" d="M4188.76,-75.79C4273.59,-74.72 4602.07,-68.24 4869,-31 4876.29,-29.98 4883.97,-28.61 4891.43,-27.11"/>
<polygon fill="midnightblue" stroke="midnightblue" points="4892.34,-30.5 4901.4,-25.02 4890.9,-23.65 4892.34,-30.5"/>
</g>
<!-- Node38 -->
<g id="node38" class="node">
<title>Node38</title>
<g id="a_node38"><a xlink:title=" ">
<polygon fill="none" stroke="#bfbfbf" points="5012,-6 5012,-25 5118,-25 5118,-6 5012,-6"/>
<text text-anchor="middle" x="5065" y="-13" font-family="Helvetica,sans-Serif" font-size="10.00">llvm/IR/DataLayout.h</text>
</a>
</g>
</g>
<!-- Node2&#45;&gt;Node38 -->
<g id="edge37" class="edge">
<title>Node2&#45;&gt;Node38</title>
<path fill="none" stroke="midnightblue" d="M4188.79,-76.22C4283.22,-76.94 4681.07,-76.96 5003,-31 5009.69,-30.04 5016.72,-28.72 5023.55,-27.25"/>
<polygon fill="midnightblue" stroke="midnightblue" points="5024.36,-30.66 5033.34,-25.03 5022.82,-23.83 5024.36,-30.66"/>
</g>
<!-- Node39 -->
<g id="node39" class="node">
<title>Node39</title>
<g id="a_node39"><a xlink:title=" ">
<polygon fill="none" stroke="#bfbfbf" points="5136,-6 5136,-25 5284,-25 5284,-6 5136,-6"/>
<text text-anchor="middle" x="5210" y="-13" font-family="Helvetica,sans-Serif" font-size="10.00">llvm/IR/LegacyPassManager.h</text>
</a>
</g>
</g>
<!-- Node2&#45;&gt;Node39 -->
<g id="edge38" class="edge">
<title>Node2&#45;&gt;Node39</title>
<path fill="none" stroke="midnightblue" d="M4188.66,-75.99C4290.82,-75.76 4752.17,-72.37 5127,-31 5136.71,-29.93 5147.01,-28.43 5156.92,-26.8"/>
<polygon fill="midnightblue" stroke="midnightblue" points="5157.8,-30.2 5167.07,-25.06 5156.62,-23.3 5157.8,-30.2"/>
</g>
<!-- Node40 -->
<g id="node40" class="node">
<title>Node40</title>
<g id="a_node40"><a xlink:title=" ">
<polygon fill="none" stroke="#bfbfbf" points="5302.5,-6 5302.5,-25 5393.5,-25 5393.5,-6 5302.5,-6"/>
<text text-anchor="middle" x="5348" y="-13" font-family="Helvetica,sans-Serif" font-size="10.00">llvm/IR/Mangler.h</text>
</a>
</g>
</g>
<!-- Node2&#45;&gt;Node40 -->
<g id="edge39" class="edge">
<title>Node2&#45;&gt;Node40</title>
<path fill="none" stroke="midnightblue" d="M4188.59,-75.79C4322.2,-74.33 5068.04,-64.74 5293,-31 5298.62,-30.16 5304.48,-28.96 5310.21,-27.61"/>
<polygon fill="midnightblue" stroke="midnightblue" points="5311.43,-30.92 5320.27,-25.07 5309.71,-24.13 5311.43,-30.92"/>
</g>
<!-- Node41 -->
<g id="node41" class="node">
<title>Node41</title>
<g id="a_node41"><a xlink:title=" ">
<polygon fill="none" stroke="#bfbfbf" points="5412,-6 5412,-25 5518,-25 5518,-6 5412,-6"/>
<text text-anchor="middle" x="5465" y="-13" font-family="Helvetica,sans-Serif" font-size="10.00">llvm/IR/BasicBlock.h</text>
</a>
</g>
</g>
<!-- Node2&#45;&gt;Node41 -->
<g id="edge40" class="edge">
<title>Node2&#45;&gt;Node41</title>
<path fill="none" stroke="midnightblue" d="M4188.73,-75.79C4330.15,-74.3 5154.46,-64.27 5403,-31 5409.77,-30.09 5416.89,-28.78 5423.79,-27.31"/>
<polygon fill="midnightblue" stroke="midnightblue" points="5424.7,-30.69 5433.68,-25.07 5423.15,-23.86 5424.7,-30.69"/>
</g>
<!-- Node42 -->
<g id="node42" class="node">
<title>Node42</title>
<g id="a_node42"><a xlink:title=" ">
<polygon fill="none" stroke="#bfbfbf" points="5536.5,-6 5536.5,-25 5637.5,-25 5637.5,-6 5536.5,-6"/>
<text text-anchor="middle" x="5587" y="-13" font-family="Helvetica,sans-Serif" font-size="10.00">llvm/IR/Constants.h</text>
</a>
</g>
</g>
<!-- Node2&#45;&gt;Node42 -->
<g id="edge41" class="edge">
<title>Node2&#45;&gt;Node42</title>
<path fill="none" stroke="midnightblue" d="M4188.86,-75.89C4338.67,-75.04 5252.44,-68.32 5527,-31 5533.48,-30.12 5540.28,-28.83 5546.88,-27.39"/>
<polygon fill="midnightblue" stroke="midnightblue" points="5548.07,-30.7 5557.01,-25.02 5546.48,-23.89 5548.07,-30.7"/>
</g>
<!-- Node43 -->
<g id="node43" class="node">
<title>Node43</title>
<g id="a_node43"><a xlink:title=" ">
<polygon fill="none" stroke="#bfbfbf" points="5656,-6 5656,-25 5770,-25 5770,-6 5656,-6"/>
<text text-anchor="middle" x="5713" y="-13" font-family="Helvetica,sans-Serif" font-size="10.00">llvm/IR/DerivedTypes.h</text>
</a>
</g>
</g>
<!-- Node2&#45;&gt;Node43 -->
<g id="edge42" class="edge">
<title>Node2&#45;&gt;Node43</title>
<path fill="none" stroke="midnightblue" d="M4188.66,-75.9C4345.19,-75.06 5346.49,-68.25 5647,-31 5654.53,-30.07 5662.46,-28.68 5670.12,-27.13"/>
<polygon fill="midnightblue" stroke="midnightblue" points="5670.93,-30.54 5679.97,-25.02 5669.46,-23.69 5670.93,-30.54"/>
</g>
<!-- Node44 -->
<g id="node44" class="node">
<title>Node44</title>
<g id="a_node44"><a xlink:title=" ">
<polygon fill="none" stroke="#bfbfbf" points="5788,-6 5788,-25 5882,-25 5882,-6 5788,-6"/>
<text text-anchor="middle" x="5835" y="-13" font-family="Helvetica,sans-Serif" font-size="10.00">llvm/IR/Function.h</text>
</a>
</g>
</g>
<!-- Node2&#45;&gt;Node44 -->
<g id="edge43" class="edge">
<title>Node2&#45;&gt;Node44</title>
<path fill="none" stroke="midnightblue" d="M4188.65,-76.06C4353.01,-76.47 5451.23,-77.4 5779,-31 5784.92,-30.16 5791.12,-28.93 5797.15,-27.53"/>
<polygon fill="midnightblue" stroke="midnightblue" points="5798.19,-30.87 5807.05,-25.06 5796.5,-24.08 5798.19,-30.87"/>
</g>
<!-- Node45 -->
<g id="node45" class="node">
<title>Node45</title>
<g id="a_node45"><a xlink:title=" ">
<polygon fill="none" stroke="#bfbfbf" points="5900.5,-6 5900.5,-25 5995.5,-25 5995.5,-6 5900.5,-6"/>
<text text-anchor="middle" x="5948" y="-13" font-family="Helvetica,sans-Serif" font-size="10.00">llvm/IR/IRBuilder.h</text>
</a>
</g>
</g>
<!-- Node2&#45;&gt;Node45 -->
<g id="edge44" class="edge">
<title>Node2&#45;&gt;Node45</title>
<path fill="none" stroke="midnightblue" d="M4188.72,-76.09C4359.64,-76.78 5539.39,-79.69 5891,-31 5897.03,-30.17 5903.33,-28.93 5909.47,-27.54"/>
<polygon fill="midnightblue" stroke="midnightblue" points="5910.66,-30.85 5919.54,-25.07 5909,-24.05 5910.66,-30.85"/>
</g>
<!-- Node46 -->
<g id="node46" class="node">
<title>Node46</title>
<g id="a_node46"><a xlink:title=" ">
<polygon fill="none" stroke="#bfbfbf" points="6013.5,-6 6013.5,-25 6120.5,-25 6120.5,-6 6013.5,-6"/>
<text text-anchor="middle" x="6067" y="-13" font-family="Helvetica,sans-Serif" font-size="10.00">llvm/IR/Instructions.h</text>
</a>
</g>
</g>
<!-- Node2&#45;&gt;Node46 -->
<g id="edge45" class="edge">
<title>Node2&#45;&gt;Node46</title>
<path fill="none" stroke="midnightblue" d="M4188.66,-76.08C4365.62,-76.66 5628.63,-79.1 6005,-31 6011.85,-30.12 6019.05,-28.81 6026.02,-27.33"/>
<polygon fill="midnightblue" stroke="midnightblue" points="6027.03,-30.69 6036,-25.06 6025.48,-23.86 6027.03,-30.69"/>
</g>
<!-- Node47 -->
<g id="node47" class="node">
<title>Node47</title>
<g id="a_node47"><a xlink:title=" ">
<polygon fill="none" stroke="#bfbfbf" points="6139,-6 6139,-25 6255,-25 6255,-6 6139,-6"/>
<text text-anchor="middle" x="6197" y="-13" font-family="Helvetica,sans-Serif" font-size="10.00">llvm/IR/LLVMContext.h</text>
</a>
</g>
</g>
<!-- Node2&#45;&gt;Node47 -->
<g id="edge46" class="edge">
<title>Node2&#45;&gt;Node47</title>
<path fill="none" stroke="midnightblue" d="M4188.6,-76.07C4371.91,-76.6 5726.52,-78.85 6130,-31 6137.64,-30.09 6145.7,-28.72 6153.47,-27.17"/>
<polygon fill="midnightblue" stroke="midnightblue" points="6154.41,-30.55 6163.47,-25.06 6152.96,-23.7 6154.41,-30.55"/>
</g>
<!-- Node48 -->
<g id="node48" class="node">
<title>Node48</title>
<g id="a_node48"><a xlink:title=" ">
<polygon fill="none" stroke="#bfbfbf" points="6273,-6 6273,-25 6361,-25 6361,-6 6273,-6"/>
<text text-anchor="middle" x="6317" y="-13" font-family="Helvetica,sans-Serif" font-size="10.00">llvm/IR/Module.h</text>
</a>
</g>
</g>
<!-- Node2&#45;&gt;Node48 -->
<g id="edge47" class="edge">
<title>Node2&#45;&gt;Node48</title>
<path fill="none" stroke="midnightblue" d="M4188.69,-75.86C4393.08,-74.49 6047.77,-62.41 6264,-31 6269.55,-30.19 6275.34,-28.99 6280.97,-27.62"/>
<polygon fill="midnightblue" stroke="midnightblue" points="6282.07,-30.95 6290.85,-25.02 6280.29,-24.18 6282.07,-30.95"/>
</g>
<!-- Node49 -->
<g id="node49" class="node">
<title>Node49</title>
<g id="a_node49"><a xlink:title=" ">
<polygon fill="none" stroke="#bfbfbf" points="6379.5,-6 6379.5,-25 6456.5,-25 6456.5,-6 6379.5,-6"/>
<text text-anchor="middle" x="6418" y="-13" font-family="Helvetica,sans-Serif" font-size="10.00">llvm/IR/Type.h</text>
</a>
</g>
</g>
<!-- Node2&#45;&gt;Node49 -->
<g id="edge48" class="edge">
<title>Node2&#45;&gt;Node49</title>
<path fill="none" stroke="midnightblue" d="M4188.74,-75.92C4399.08,-75.07 6142.92,-66.92 6370,-31 6374.8,-30.24 6379.79,-29.12 6384.65,-27.84"/>
<polygon fill="midnightblue" stroke="midnightblue" points="6385.74,-31.17 6394.37,-25.03 6383.79,-24.45 6385.74,-31.17"/>
</g>
<!-- Node50 -->
<g id="node50" class="node">
<title>Node50</title>
<g id="a_node50"><a xlink:title=" ">
<polygon fill="none" stroke="#bfbfbf" points="6475,-6 6475,-25 6561,-25 6561,-6 6475,-6"/>
<text text-anchor="middle" x="6518" y="-13" font-family="Helvetica,sans-Serif" font-size="10.00">llvm/IR/Verifier.h</text>
</a>
</g>
</g>
<!-- Node2&#45;&gt;Node50 -->
<g id="edge49" class="edge">
<title>Node2&#45;&gt;Node50</title>
<path fill="none" stroke="midnightblue" d="M4188.63,-75.91C4403.43,-74.96 6228.25,-65.9 6466,-31 6471.45,-30.2 6477.13,-29 6482.66,-27.64"/>
<polygon fill="midnightblue" stroke="midnightblue" points="6483.6,-31.01 6492.36,-25.03 6481.79,-24.25 6483.6,-31.01"/>
</g>
<!-- Node51 -->
<g id="node51" class="node">
<title>Node51</title>
<g id="a_node51"><a xlink:title=" ">
<polygon fill="none" stroke="#bfbfbf" points="6579,-6 6579,-25 6635,-25 6635,-6 6579,-6"/>
<text text-anchor="middle" x="6607" y="-13" font-family="Helvetica,sans-Serif" font-size="10.00">algorithm</text>
</a>
</g>
</g>
<!-- Node2&#45;&gt;Node51 -->
<g id="edge50" class="edge">
<title>Node2&#45;&gt;Node51</title>
<path fill="none" stroke="midnightblue" d="M4188.55,-76.06C4408.39,-76.61 6323.27,-80.02 6570,-31 6573.08,-30.39 6576.24,-29.53 6579.34,-28.55"/>
<polygon fill="midnightblue" stroke="midnightblue" points="6580.74,-31.76 6588.94,-25.05 6578.35,-25.18 6580.74,-31.76"/>
</g>
<!-- Node52 -->
<g id="node52" class="node">
<title>Node52</title>
<g id="a_node52"><a xlink:title=" ">
<polygon fill="none" stroke="#bfbfbf" points="6653.5,-6 6653.5,-25 6702.5,-25 6702.5,-6 6653.5,-6"/>
<text text-anchor="middle" x="6678" y="-13" font-family="Helvetica,sans-Serif" font-size="10.00">cassert</text>
</a>
</g>
</g>
<!-- Node2&#45;&gt;Node52 -->
<g id="edge51" class="edge">
<title>Node2&#45;&gt;Node52</title>
<path fill="none" stroke="midnightblue" d="M4188.62,-75.85C4419.67,-74.17 6516.89,-58.18 6644,-31 6646.67,-30.43 6649.4,-29.65 6652.08,-28.74"/>
<polygon fill="midnightblue" stroke="midnightblue" points="6653.44,-31.97 6661.47,-25.06 6650.88,-25.45 6653.44,-31.97"/>
</g>
<!-- Node53 -->
<g id="node53" class="node">
<title>Node53</title>
<g id="a_node53"><a xlink:title=" ">
<polygon fill="none" stroke="#bfbfbf" points="6720.5,-6 6720.5,-25 6765.5,-25 6765.5,-6 6720.5,-6"/>
<text text-anchor="middle" x="6743" y="-13" font-family="Helvetica,sans-Serif" font-size="10.00">cstdlib</text>
</a>
</g>
</g>
<!-- Node2&#45;&gt;Node53 -->
<g id="edge52" class="edge">
<title>Node2&#45;&gt;Node53</title>
<path fill="none" stroke="midnightblue" d="M4188.83,-75.88C4424.4,-74.51 6581.82,-61.15 6712,-31 6714.21,-30.49 6716.45,-29.81 6718.66,-29.02"/>
<polygon fill="midnightblue" stroke="midnightblue" points="6720.16,-32.18 6728.01,-25.06 6717.43,-25.74 6720.16,-32.18"/>
</g>
<!-- Node54 -->
<g id="node54" class="node">
<title>Node54</title>
<g id="a_node54"><a xlink:title=" ">
<polygon fill="none" stroke="#bfbfbf" points="6784,-6 6784,-25 6830,-25 6830,-6 6784,-6"/>
<text text-anchor="middle" x="6807" y="-13" font-family="Helvetica,sans-Serif" font-size="10.00">chrono</text>
</a>
</g>
</g>
<!-- Node2&#45;&gt;Node54 -->
<g id="edge53" class="edge">
<title>Node2&#45;&gt;Node54</title>
<path fill="none" stroke="midnightblue" d="M4188.6,-75.88C4426.16,-74.53 6641.27,-61.09 6775,-31 6777.36,-30.47 6779.76,-29.75 6782.12,-28.93"/>
<polygon fill="midnightblue" stroke="midnightblue" points="6783.59,-32.11 6791.49,-25.06 6780.92,-25.64 6783.59,-32.11"/>
</g>
<!-- Node55 -->
<g id="node55" class="node">
<title>Node55</title>
<g id="a_node55"><a xlink:title=" ">
<polygon fill="none" stroke="#bfbfbf" points="6848.5,-6 6848.5,-25 6883.5,-25 6883.5,-6 6848.5,-6"/>
<text text-anchor="middle" x="6866" y="-13" font-family="Helvetica,sans-Serif" font-size="10.00">map</text>
</a>
</g>
</g>
<!-- Node2&#45;&gt;Node55 -->
<g id="edge54" class="edge">
<title>Node2&#45;&gt;Node55</title>
<path fill="none" stroke="midnightblue" d="M4188.74,-75.93C4430.28,-75.11 6703.03,-66.42 6839,-31 6840.66,-30.57 6842.34,-30.01 6843.99,-29.37"/>
<polygon fill="midnightblue" stroke="midnightblue" points="6845.54,-32.51 6853.06,-25.06 6842.53,-26.19 6845.54,-32.51"/>
</g>
<!-- Node56 -->
<g id="node56" class="node">
<title>Node56</title>
<g id="a_node56"><a xlink:title=" ">
<polygon fill="none" stroke="#bfbfbf" points="6902,-6 6902,-25 6954,-25 6954,-6 6902,-6"/>
<text text-anchor="middle" x="6928" y="-13" font-family="Helvetica,sans-Serif" font-size="10.00">memory</text>
</a>
</g>
</g>
<!-- Node2&#45;&gt;Node56 -->
<g id="edge55" class="edge">
<title>Node2&#45;&gt;Node56</title>
<path fill="none" stroke="midnightblue" d="M4188.76,-75.88C4433.01,-74.45 6752.57,-60.15 6893,-31 6895.84,-30.41 6898.74,-29.6 6901.59,-28.65"/>
<polygon fill="midnightblue" stroke="midnightblue" points="6902.87,-31.9 6910.96,-25.06 6900.37,-25.37 6902.87,-31.9"/>
</g>
<!-- Node57 -->
<g id="node57" class="node">
<title>Node57</title>
<g id="a_node57"><a xlink:title=" ">
<polygon fill="none" stroke="#bfbfbf" points="6972.5,-6 6972.5,-25 7013.5,-25 7013.5,-6 6972.5,-6"/>
<text text-anchor="middle" x="6993" y="-13" font-family="Helvetica,sans-Serif" font-size="10.00">string</text>
</a>
</g>
</g>
<!-- Node2&#45;&gt;Node57 -->
<g id="edge56" class="edge">
<title>Node2&#45;&gt;Node57</title>
<path fill="none" stroke="midnightblue" d="M4188.54,-75.92C4435.01,-74.98 6819.72,-65.03 6963,-31 6964.98,-30.53 6966.99,-29.91 6968.98,-29.2"/>
<polygon fill="midnightblue" stroke="midnightblue" points="6970.74,-32.25 6978.52,-25.06 6967.95,-25.83 6970.74,-32.25"/>
</g>
<!-- Node58 -->
<g id="node58" class="node">
<title>Node58</title>
<g id="a_node58"><a xlink:title=" ">
<polygon fill="none" stroke="#bfbfbf" points="7032,-6 7032,-25 7074,-25 7074,-6 7032,-6"/>
<text text-anchor="middle" x="7053" y="-13" font-family="Helvetica,sans-Serif" font-size="10.00">vector</text>
</a>
</g>
</g>
<!-- Node2&#45;&gt;Node58 -->
<g id="edge57" class="edge">
<title>Node2&#45;&gt;Node58</title>
<path fill="none" stroke="midnightblue" d="M4188.59,-75.93C4438.23,-75.07 6876.57,-65.75 7023,-31 7024.98,-30.53 7026.99,-29.91 7028.98,-29.2"/>
<polygon fill="midnightblue" stroke="midnightblue" points="7030.74,-32.25 7038.52,-25.06 7027.95,-25.83 7030.74,-32.25"/>
</g>
<!-- Node59 -->
<g id="node59" class="node">
<title>Node59</title>
<g id="a_node59"><a xlink:title=" ">
<polygon fill="none" stroke="#bfbfbf" points="7092.5,-6 7092.5,-25 7147.5,-25 7147.5,-6 7092.5,-6"/>
<text text-anchor="middle" x="7120" y="-13" font-family="Helvetica,sans-Serif" font-size="10.00">charconv</text>
</a>
</g>
</g>
<!-- Node2&#45;&gt;Node59 -->
<g id="edge58" class="edge">
<title>Node2&#45;&gt;Node59</title>
<path fill="none" stroke="midnightblue" d="M4188.62,-75.89C4441.22,-74.56 6932.16,-60.71 7083,-31 7086.08,-30.39 7089.24,-29.54 7092.34,-28.56"/>
<polygon fill="midnightblue" stroke="midnightblue" points="7093.74,-31.77 7101.95,-25.07 7091.35,-25.19 7093.74,-31.77"/>
</g>
<!-- Node60 -->
<g id="node60" class="node">
<title>Node60</title>
<g id="a_node60"><a xlink:title=" ">
<polygon fill="none" stroke="#bfbfbf" points="7165.5,-6 7165.5,-25 7194.5,-25 7194.5,-6 7165.5,-6"/>
<text text-anchor="middle" x="7180" y="-13" font-family="Helvetica,sans-Serif" font-size="10.00">list</text>
</a>
</g>
</g>
<!-- Node2&#45;&gt;Node60 -->
<g id="edge59" class="edge">
<title>Node2&#45;&gt;Node60</title>
<path fill="none" stroke="midnightblue" d="M4188.77,-76.01C4445.88,-76.11 7005.81,-75.92 7157,-31 7157.91,-30.73 7158.82,-30.41 7159.72,-30.06"/>
<polygon fill="midnightblue" stroke="midnightblue" points="7161.7,-32.97 7168.9,-25.21 7158.43,-26.78 7161.7,-32.97"/>
</g>
</g>
</svg>
