<?xml version="1.0" encoding="UTF-8" standalone="no"?>
<!DOCTYPE svg PUBLIC "-//W3C//DTD SVG 1.1//EN"
 "http://www.w3.org/Graphics/SVG/1.1/DTD/svg11.dtd">
<!-- Generated by graphviz version 3.0.0 (20220226.1711)
 -->
<!-- Title: src/include/pch.h Pages: 1 -->
<svg width="1102pt" height="84pt"
 viewBox="0.00 0.00 1101.50 84.00" xmlns="http://www.w3.org/2000/svg" xmlns:xlink="http://www.w3.org/1999/xlink">
<g id="graph0" class="graph" transform="scale(1 1) rotate(0) translate(4 80)">
<title>src/include/pch.h</title>
<!-- Node1 -->
<g id="node1" class="node">
<title>Node1</title>
<g id="a_node1"><a xlink:title=" ">
<polygon fill="#bfbfbf" stroke="black" points="511,-56.5 511,-75.5 602,-75.5 602,-56.5 511,-56.5"/>
<text text-anchor="middle" x="556.5" y="-63.5" font-family="Helvetica,sans-Serif" font-size="10.00">src/include/pch.h</text>
</a>
</g>
</g>
<!-- Node2 -->
<g id="node2" class="node">
<title>Node2</title>
<g id="a_node2"><a xlink:href="_a_s_t_8cpp.html" target="_top" xlink:title=" ">
<polygon fill="none" stroke="black" points="0,-0.5 0,-19.5 71,-19.5 71,-0.5 0,-0.5"/>
<text text-anchor="middle" x="35.5" y="-7.5" font-family="Helvetica,sans-Serif" font-size="10.00">src/AST.cpp</text>
</a>
</g>
</g>
<!-- Node1&#45;&gt;Node2 -->
<g id="edge1" class="edge">
<title>Node1&#45;&gt;Node2</title>
<path fill="none" stroke="midnightblue" d="M500.53,-61.59C411.34,-55.73 231.58,-42.19 80.5,-20 77.5,-19.56 74.41,-19.05 71.3,-18.51"/>
<polygon fill="midnightblue" stroke="midnightblue" points="500.49,-65.09 510.69,-62.25 500.94,-58.11 500.49,-65.09"/>
</g>
<!-- Node3 -->
<g id="node3" class="node">
<title>Node3</title>
<g id="a_node3"><a xlink:href="_code_gen_8cpp.html" target="_top" xlink:title=" ">
<polygon fill="none" stroke="black" points="89.5,-0.5 89.5,-19.5 181.5,-19.5 181.5,-0.5 89.5,-0.5"/>
<text text-anchor="middle" x="135.5" y="-7.5" font-family="Helvetica,sans-Serif" font-size="10.00">src/CodeGen.cpp</text>
</a>
</g>
</g>
<!-- Node1&#45;&gt;Node3 -->
<g id="edge2" class="edge">
<title>Node1&#45;&gt;Node3</title>
<path fill="none" stroke="midnightblue" d="M500.59,-58.83C428.73,-50.73 300.13,-35.7 190.5,-20 187.63,-19.59 184.67,-19.15 181.69,-18.7"/>
<polygon fill="midnightblue" stroke="midnightblue" points="500.45,-62.33 510.78,-59.97 501.23,-55.38 500.45,-62.33"/>
</g>
<!-- Node4 -->
<g id="node4" class="node">
<title>Node4</title>
<g id="a_node4"><a xlink:href="_context_8cpp.html" target="_top" xlink:title=" ">
<polygon fill="none" stroke="black" points="199.5,-0.5 199.5,-19.5 285.5,-19.5 285.5,-0.5 199.5,-0.5"/>
<text text-anchor="middle" x="242.5" y="-7.5" font-family="Helvetica,sans-Serif" font-size="10.00">src/Context.cpp</text>
</a>
</g>
</g>
<!-- Node1&#45;&gt;Node4 -->
<g id="edge3" class="edge">
<title>Node1&#45;&gt;Node4</title>
<path fill="none" stroke="midnightblue" d="M500.7,-55.44C447.66,-46.34 365.64,-32.27 294.5,-20 291.61,-19.5 288.63,-18.99 285.63,-18.47"/>
<polygon fill="midnightblue" stroke="midnightblue" points="500.14,-58.89 510.59,-57.13 501.32,-51.99 500.14,-58.89"/>
</g>
<!-- Node5 -->
<g id="node5" class="node">
<title>Node5</title>
<g id="a_node5"><a xlink:href="_error_8cpp.html" target="_top" xlink:title=" ">
<polygon fill="none" stroke="black" points="304,-0.5 304,-19.5 377,-19.5 377,-0.5 304,-0.5"/>
<text text-anchor="middle" x="340.5" y="-7.5" font-family="Helvetica,sans-Serif" font-size="10.00">src/Error.cpp</text>
</a>
</g>
</g>
<!-- Node1&#45;&gt;Node5 -->
<g id="edge4" class="edge">
<title>Node1&#45;&gt;Node5</title>
<path fill="none" stroke="midnightblue" d="M512.34,-53.96C471.54,-43.76 411.79,-28.82 374.57,-19.52"/>
<polygon fill="midnightblue" stroke="midnightblue" points="511.72,-57.41 522.27,-56.44 513.42,-50.62 511.72,-57.41"/>
</g>
<!-- Node6 -->
<g id="node6" class="node">
<title>Node6</title>
<g id="a_node6"><a xlink:href="_instructions_8cpp.html" target="_top" xlink:title=" ">
<polygon fill="none" stroke="black" points="395.5,-0.5 395.5,-19.5 497.5,-19.5 497.5,-0.5 395.5,-0.5"/>
<text text-anchor="middle" x="446.5" y="-7.5" font-family="Helvetica,sans-Serif" font-size="10.00">src/Instructions.cpp</text>
</a>
</g>
</g>
<!-- Node1&#45;&gt;Node6 -->
<g id="edge5" class="edge">
<title>Node1&#45;&gt;Node6</title>
<path fill="none" stroke="midnightblue" d="M529.74,-51.86C509.34,-41.85 481.83,-28.35 464.13,-19.65"/>
<polygon fill="midnightblue" stroke="midnightblue" points="528.31,-55.06 538.83,-56.32 531.39,-48.78 528.31,-55.06"/>
</g>
<!-- Node7 -->
<g id="node7" class="node">
<title>Node7</title>
<g id="a_node7"><a xlink:href="_layout_8cpp.html" target="_top" xlink:title=" ">
<polygon fill="none" stroke="black" points="516,-0.5 516,-19.5 597,-19.5 597,-0.5 516,-0.5"/>
<text text-anchor="middle" x="556.5" y="-7.5" font-family="Helvetica,sans-Serif" font-size="10.00">src/Layout.cpp</text>
</a>
</g>
</g>
<!-- Node1&#45;&gt;Node7 -->
<g id="edge6" class="edge">
<title>Node1&#45;&gt;Node7</title>
<path fill="none" stroke="midnightblue" d="M556.5,-45.8C556.5,-36.91 556.5,-26.78 556.5,-19.75"/>
<polygon fill="midnightblue" stroke="midnightblue" points="553,-46.08 556.5,-56.08 560,-46.08 553,-46.08"/>
</g>
<!-- Node8 -->
<g id="node8" class="node">
<title>Node8</title>
<g id="a_node8"><a xlink:href="_options_8cpp.html" target="_top" xlink:title=" ">
<polygon fill="none" stroke="black" points="615.5,-0.5 615.5,-19.5 701.5,-19.5 701.5,-0.5 615.5,-0.5"/>
<text text-anchor="middle" x="658.5" y="-7.5" font-family="Helvetica,sans-Serif" font-size="10.00">src/Options.cpp</text>
</a>
</g>
</g>
<!-- Node1&#45;&gt;Node8 -->
<g id="edge7" class="edge">
<title>Node1&#45;&gt;Node8</title>
<path fill="none" stroke="midnightblue" d="M581.83,-51.59C600.69,-41.61 625.88,-28.27 642.15,-19.65"/>
<polygon fill="midnightblue" stroke="midnightblue" points="580.09,-48.55 572.89,-56.32 583.36,-54.74 580.09,-48.55"/>
</g>
<!-- Node9 -->
<g id="node9" class="node">
<title>Node9</title>
<g id="a_node9"><a xlink:href="_parser_8cpp.html" target="_top" xlink:title=" ">
<polygon fill="none" stroke="black" points="719.5,-0.5 719.5,-19.5 799.5,-19.5 799.5,-0.5 719.5,-0.5"/>
<text text-anchor="middle" x="759.5" y="-7.5" font-family="Helvetica,sans-Serif" font-size="10.00">src/Parser.cpp</text>
</a>
</g>
</g>
<!-- Node1&#45;&gt;Node9 -->
<g id="edge8" class="edge">
<title>Node1&#45;&gt;Node9</title>
<path fill="none" stroke="midnightblue" d="M598.49,-53.83C636.82,-43.63 692.65,-28.78 727.48,-19.52"/>
<polygon fill="midnightblue" stroke="midnightblue" points="597.43,-50.49 588.67,-56.44 599.23,-57.26 597.43,-50.49"/>
</g>
<!-- Node10 -->
<g id="node10" class="node">
<title>Node10</title>
<g id="a_node10"><a xlink:href="_tokenizer_8cpp.html" target="_top" xlink:title=" ">
<polygon fill="none" stroke="black" points="817.5,-0.5 817.5,-19.5 911.5,-19.5 911.5,-0.5 817.5,-0.5"/>
<text text-anchor="middle" x="864.5" y="-7.5" font-family="Helvetica,sans-Serif" font-size="10.00">src/Tokenizer.cpp</text>
</a>
</g>
</g>
<!-- Node1&#45;&gt;Node10 -->
<g id="edge9" class="edge">
<title>Node1&#45;&gt;Node10</title>
<path fill="none" stroke="midnightblue" d="M612.48,-55.18C671.17,-44.9 762.36,-28.91 817.46,-19.25"/>
<polygon fill="midnightblue" stroke="midnightblue" points="611.52,-51.8 602.28,-56.97 612.73,-58.69 611.52,-51.8"/>
</g>
<!-- Node11 -->
<g id="node11" class="node">
<title>Node11</title>
<g id="a_node11"><a xlink:href="_types_8cpp.html" target="_top" xlink:title=" ">
<polygon fill="none" stroke="black" points="929.5,-0.5 929.5,-19.5 1007.5,-19.5 1007.5,-0.5 929.5,-0.5"/>
<text text-anchor="middle" x="968.5" y="-7.5" font-family="Helvetica,sans-Serif" font-size="10.00">src/Types.cpp</text>
</a>
</g>
</g>
<!-- Node1&#45;&gt;Node11 -->
<g id="edge10" class="edge">
<title>Node1&#45;&gt;Node11</title>
<path fill="none" stroke="midnightblue" d="M612.16,-59.21C683.7,-51.52 811.65,-36.92 920.5,-20 923.35,-19.56 926.29,-19.07 929.24,-18.57"/>
<polygon fill="midnightblue" stroke="midnightblue" points="611.6,-55.75 602.02,-60.29 612.34,-62.71 611.6,-55.75"/>
</g>
<!-- Node12 -->
<g id="node12" class="node">
<title>Node12</title>
<g id="a_node12"><a xlink:href="pch_8cpp.html" target="_top" xlink:title=" ">
<polygon fill="none" stroke="black" points="1025.5,-0.5 1025.5,-19.5 1093.5,-19.5 1093.5,-0.5 1025.5,-0.5"/>
<text text-anchor="middle" x="1059.5" y="-7.5" font-family="Helvetica,sans-Serif" font-size="10.00">src/pch.cpp</text>
</a>
</g>
</g>
<!-- Node1&#45;&gt;Node12 -->
<g id="edge11" class="edge">
<title>Node1&#45;&gt;Node12</title>
<path fill="none" stroke="midnightblue" d="M612.23,-61.51C699,-55.64 871.49,-42.2 1016.5,-20 1019.36,-19.56 1022.33,-19.05 1025.29,-18.51"/>
<polygon fill="midnightblue" stroke="midnightblue" points="611.83,-58.03 602.08,-62.19 612.29,-65.02 611.83,-58.03"/>
</g>
</g>
</svg>
