<?xml version="1.0" encoding="UTF-8" standalone="no"?>
<!DOCTYPE svg PUBLIC "-//W3C//DTD SVG 1.1//EN"
 "http://www.w3.org/Graphics/SVG/1.1/DTD/svg11.dtd">
<!-- Generated by graphviz version 3.0.0 (20220226.1711)
 -->
<!-- Title: src/include/pch.h Pages: 1 -->
<svg width="1224pt" height="84pt"
 viewBox="0.00 0.00 1223.50 84.00" xmlns="http://www.w3.org/2000/svg" xmlns:xlink="http://www.w3.org/1999/xlink">
<g id="graph0" class="graph" transform="scale(1 1) rotate(0) translate(4 80)">
<title>src/include/pch.h</title>
<!-- Node1 -->
<g id="node1" class="node">
<title>Node1</title>
<g id="a_node1"><a xlink:title=" ">
<polygon fill="#bfbfbf" stroke="black" points="562,-56.5 562,-75.5 653,-75.5 653,-56.5 562,-56.5"/>
<text text-anchor="middle" x="607.5" y="-63.5" font-family="Helvetica,sans-Serif" font-size="10.00">src/include/pch.h</text>
</a>
</g>
</g>
<!-- Node2 -->
<g id="node2" class="node">
<title>Node2</title>
<g id="a_node2"><a xlink:href="_a_s_t_8cpp.html" target="_top" xlink:title=" ">
<polygon fill="none" stroke="black" points="0,-0.5 0,-19.5 71,-19.5 71,-0.5 0,-0.5"/>
<text text-anchor="middle" x="35.5" y="-7.5" font-family="Helvetica,sans-Serif" font-size="10.00">src/AST.cpp</text>
</a>
</g>
</g>
<!-- Node1&#45;&gt;Node2 -->
<g id="edge1" class="edge">
<title>Node1&#45;&gt;Node2</title>
<path fill="none" stroke="midnightblue" d="M551.73,-62.3C455.3,-57.17 251.32,-44.3 80.5,-20 77.5,-19.57 74.4,-19.08 71.3,-18.54"/>
<polygon fill="midnightblue" stroke="midnightblue" points="551.67,-65.8 561.84,-62.83 552.03,-58.81 551.67,-65.8"/>
</g>
<!-- Node3 -->
<g id="node3" class="node">
<title>Node3</title>
<g id="a_node3"><a xlink:href="_code_gen_8cpp.html" target="_top" xlink:title=" ">
<polygon fill="none" stroke="black" points="89.5,-0.5 89.5,-19.5 181.5,-19.5 181.5,-0.5 89.5,-0.5"/>
<text text-anchor="middle" x="135.5" y="-7.5" font-family="Helvetica,sans-Serif" font-size="10.00">src/CodeGen.cpp</text>
</a>
</g>
</g>
<!-- Node1&#45;&gt;Node3 -->
<g id="edge2" class="edge">
<title>Node1&#45;&gt;Node3</title>
<path fill="none" stroke="midnightblue" d="M551.38,-59.93C471.2,-52.46 319.29,-37.47 190.5,-20 187.62,-19.61 184.67,-19.19 181.69,-18.75"/>
<polygon fill="midnightblue" stroke="midnightblue" points="551.46,-63.45 561.74,-60.89 552.11,-56.48 551.46,-63.45"/>
</g>
<!-- Node4 -->
<g id="node4" class="node">
<title>Node4</title>
<g id="a_node4"><a xlink:href="_context_8cpp.html" target="_top" xlink:title=" ">
<polygon fill="none" stroke="black" points="199.5,-0.5 199.5,-19.5 285.5,-19.5 285.5,-0.5 199.5,-0.5"/>
<text text-anchor="middle" x="242.5" y="-7.5" font-family="Helvetica,sans-Serif" font-size="10.00">src/Context.cpp</text>
</a>
</g>
</g>
<!-- Node1&#45;&gt;Node4 -->
<g id="edge3" class="edge">
<title>Node1&#45;&gt;Node4</title>
<path fill="none" stroke="midnightblue" d="M551.76,-57.48C489.11,-48.91 384.39,-34.24 294.5,-20 291.6,-19.54 288.62,-19.06 285.61,-18.56"/>
<polygon fill="midnightblue" stroke="midnightblue" points="551.44,-60.96 561.82,-58.85 552.39,-54.03 551.44,-60.96"/>
</g>
<!-- Node5 -->
<g id="node5" class="node">
<title>Node5</title>
<g id="a_node5"><a xlink:href="_error_8cpp.html" target="_top" xlink:title=" ">
<polygon fill="none" stroke="black" points="304,-0.5 304,-19.5 377,-19.5 377,-0.5 304,-0.5"/>
<text text-anchor="middle" x="340.5" y="-7.5" font-family="Helvetica,sans-Serif" font-size="10.00">src/Error.cpp</text>
</a>
</g>
</g>
<!-- Node1&#45;&gt;Node5 -->
<g id="edge4" class="edge">
<title>Node1&#45;&gt;Node5</title>
<path fill="none" stroke="midnightblue" d="M555.07,-54.4C502.54,-43.77 423.08,-27.7 377.03,-18.39"/>
<polygon fill="midnightblue" stroke="midnightblue" points="554.7,-57.89 565.19,-56.44 556.09,-51.03 554.7,-57.89"/>
</g>
<!-- Node6 -->
<g id="node6" class="node">
<title>Node6</title>
<g id="a_node6"><a xlink:href="_instructions_8cpp.html" target="_top" xlink:title=" ">
<polygon fill="none" stroke="black" points="395.5,-0.5 395.5,-19.5 497.5,-19.5 497.5,-0.5 395.5,-0.5"/>
<text text-anchor="middle" x="446.5" y="-7.5" font-family="Helvetica,sans-Serif" font-size="10.00">src/Instructions.cpp</text>
</a>
</g>
</g>
<!-- Node1&#45;&gt;Node6 -->
<g id="edge5" class="edge">
<title>Node1&#45;&gt;Node6</title>
<path fill="none" stroke="midnightblue" d="M572.24,-53.17C541.92,-43 498.93,-28.59 471.89,-19.52"/>
<polygon fill="midnightblue" stroke="midnightblue" points="571.4,-56.58 581.99,-56.44 573.62,-49.95 571.4,-56.58"/>
</g>
<!-- Node7 -->
<g id="node7" class="node">
<title>Node7</title>
<g id="a_node7"><a xlink:href="_layout_8cpp.html" target="_top" xlink:title=" ">
<polygon fill="none" stroke="black" points="516,-0.5 516,-19.5 597,-19.5 597,-0.5 516,-0.5"/>
<text text-anchor="middle" x="556.5" y="-7.5" font-family="Helvetica,sans-Serif" font-size="10.00">src/Layout.cpp</text>
</a>
</g>
</g>
<!-- Node1&#45;&gt;Node7 -->
<g id="edge6" class="edge">
<title>Node1&#45;&gt;Node7</title>
<path fill="none" stroke="midnightblue" d="M592.12,-48.72C583.13,-39.2 572.14,-27.56 564.76,-19.75"/>
<polygon fill="midnightblue" stroke="midnightblue" points="589.67,-51.22 599.08,-56.08 594.76,-46.41 589.67,-51.22"/>
</g>
<!-- Node8 -->
<g id="node8" class="node">
<title>Node8</title>
<g id="a_node8"><a xlink:href="_options_8cpp.html" target="_top" xlink:title=" ">
<polygon fill="none" stroke="black" points="615.5,-0.5 615.5,-19.5 701.5,-19.5 701.5,-0.5 615.5,-0.5"/>
<text text-anchor="middle" x="658.5" y="-7.5" font-family="Helvetica,sans-Serif" font-size="10.00">src/Options.cpp</text>
</a>
</g>
</g>
<!-- Node1&#45;&gt;Node8 -->
<g id="edge7" class="edge">
<title>Node1&#45;&gt;Node8</title>
<path fill="none" stroke="midnightblue" d="M622.88,-48.72C631.87,-39.2 642.86,-27.56 650.24,-19.75"/>
<polygon fill="midnightblue" stroke="midnightblue" points="620.24,-46.41 615.92,-56.08 625.33,-51.22 620.24,-46.41"/>
</g>
<!-- Node9 -->
<g id="node9" class="node">
<title>Node9</title>
<g id="a_node9"><a xlink:href="_parser_8cpp.html" target="_top" xlink:title=" ">
<polygon fill="none" stroke="black" points="719.5,-0.5 719.5,-19.5 799.5,-19.5 799.5,-0.5 719.5,-0.5"/>
<text text-anchor="middle" x="759.5" y="-7.5" font-family="Helvetica,sans-Serif" font-size="10.00">src/Parser.cpp</text>
</a>
</g>
</g>
<!-- Node1&#45;&gt;Node9 -->
<g id="edge8" class="edge">
<title>Node1&#45;&gt;Node9</title>
<path fill="none" stroke="midnightblue" d="M641.17,-53.04C669.77,-42.88 710.11,-28.55 735.53,-19.52"/>
<polygon fill="midnightblue" stroke="midnightblue" points="639.84,-49.8 631.58,-56.44 642.18,-56.39 639.84,-49.8"/>
</g>
<!-- Node10 -->
<g id="node10" class="node">
<title>Node10</title>
<g id="a_node10"><a xlink:href="_tokenizer_8cpp.html" target="_top" xlink:title=" ">
<polygon fill="none" stroke="black" points="817.5,-0.5 817.5,-19.5 911.5,-19.5 911.5,-0.5 817.5,-0.5"/>
<text text-anchor="middle" x="864.5" y="-7.5" font-family="Helvetica,sans-Serif" font-size="10.00">src/Tokenizer.cpp</text>
</a>
</g>
</g>
<!-- Node1&#45;&gt;Node10 -->
<g id="edge9" class="edge">
<title>Node1&#45;&gt;Node10</title>
<path fill="none" stroke="midnightblue" d="M658.21,-54.35C706.78,-44.14 779.12,-28.94 823.97,-19.52"/>
<polygon fill="midnightblue" stroke="midnightblue" points="657.29,-50.96 648.22,-56.44 658.73,-57.81 657.29,-50.96"/>
</g>
<!-- Node11 -->
<g id="node11" class="node">
<title>Node11</title>
<g id="a_node11"><a xlink:href="_types_8cpp.html" target="_top" xlink:title=" ">
<polygon fill="none" stroke="black" points="929.5,-0.5 929.5,-19.5 1007.5,-19.5 1007.5,-0.5 929.5,-0.5"/>
<text text-anchor="middle" x="968.5" y="-7.5" font-family="Helvetica,sans-Serif" font-size="10.00">src/Types.cpp</text>
</a>
</g>
</g>
<!-- Node1&#45;&gt;Node11 -->
<g id="edge10" class="edge">
<title>Node1&#45;&gt;Node11</title>
<path fill="none" stroke="midnightblue" d="M663.28,-57.71C725.96,-49.35 830.72,-34.86 920.5,-20 923.43,-19.52 926.45,-18.99 929.49,-18.46"/>
<polygon fill="midnightblue" stroke="midnightblue" points="662.66,-54.26 653.21,-59.05 663.58,-61.2 662.66,-54.26"/>
</g>
<!-- Node12 -->
<g id="node12" class="node">
<title>Node12</title>
<g id="a_node12"><a xlink:href="compiler__cli_8cpp.html" target="_top" xlink:title=" ">
<polygon fill="none" stroke="black" points="1025.5,-0.5 1025.5,-19.5 1129.5,-19.5 1129.5,-0.5 1025.5,-0.5"/>
<text text-anchor="middle" x="1077.5" y="-7.5" font-family="Helvetica,sans-Serif" font-size="10.00">src/compiler_cli.cpp</text>
</a>
</g>
</g>
<!-- Node1&#45;&gt;Node12 -->
<g id="edge11" class="edge">
<title>Node1&#45;&gt;Node12</title>
<path fill="none" stroke="midnightblue" d="M663.45,-59.5C742.3,-51.61 890.55,-36.21 1016.5,-20 1019.37,-19.63 1022.31,-19.24 1025.27,-18.83"/>
<polygon fill="midnightblue" stroke="midnightblue" points="662.87,-56.05 653.26,-60.52 663.56,-63.01 662.87,-56.05"/>
</g>
<!-- Node13 -->
<g id="node13" class="node">
<title>Node13</title>
<g id="a_node13"><a xlink:href="pch_8cpp.html" target="_top" xlink:title=" ">
<polygon fill="none" stroke="black" points="1147.5,-0.5 1147.5,-19.5 1215.5,-19.5 1215.5,-0.5 1147.5,-0.5"/>
<text text-anchor="middle" x="1181.5" y="-7.5" font-family="Helvetica,sans-Serif" font-size="10.00">src/pch.cpp</text>
</a>
</g>
</g>
<!-- Node1&#45;&gt;Node13 -->
<g id="edge12" class="edge">
<title>Node1&#45;&gt;Node13</title>
<path fill="none" stroke="midnightblue" d="M663.34,-62.51C760.39,-57.68 966.27,-45.23 1138.5,-20 1141.37,-19.58 1144.33,-19.09 1147.3,-18.55"/>
<polygon fill="midnightblue" stroke="midnightblue" points="662.99,-59.02 653.17,-63.01 663.33,-66.01 662.99,-59.02"/>
</g>
</g>
</svg>
