<?xml version="1.0" encoding="UTF-8" standalone="no"?>
<!DOCTYPE svg PUBLIC "-//W3C//DTD SVG 1.1//EN"
 "http://www.w3.org/Graphics/SVG/1.1/DTD/svg11.dtd">
<!-- Generated by graphviz version 3.0.0 (20220226.1711)
 -->
<!-- Title: slljit::GlobalDefinition Pages: 1 -->
<svg width="215pt" height="95pt"
 viewBox="0.00 0.00 215.00 95.00" xmlns="http://www.w3.org/2000/svg" xmlns:xlink="http://www.w3.org/1999/xlink">
<g id="graph0" class="graph" transform="scale(1 1) rotate(0) translate(4 91)">
<title>slljit::GlobalDefinition</title>
<!-- Node1 -->
<g id="node1" class="node">
<title>Node1</title>
<g id="a_node1"><a xlink:title=" ">
<polygon fill="#bfbfbf" stroke="black" points="49,-0.5 49,-19.5 156,-19.5 156,-0.5 49,-0.5"/>
<text text-anchor="middle" x="102.5" y="-7.5" font-family="Helvetica,sans-Serif" font-size="10.00">slljit::GlobalDefinition</text>
</a>
</g>
</g>
<!-- Node2 -->
<g id="node2" class="node">
<title>Node2</title>
<g id="a_node2"><a xlink:title=" ">
<polygon fill="none" stroke="black" points="0,-67.5 0,-86.5 41,-86.5 41,-67.5 0,-67.5"/>
<text text-anchor="middle" x="20.5" y="-74.5" font-family="Helvetica,sans-Serif" font-size="10.00">string</text>
</a>
</g>
</g>
<!-- Node2&#45;&gt;Node1 -->
<g id="edge1" class="edge">
<title>Node2&#45;&gt;Node1</title>
<path fill="none" stroke="#9a32cd" stroke-dasharray="5,2" d="M39.78,-60.71C55.94,-47.91 78.42,-30.09 91.62,-19.63"/>
<polygon fill="#9a32cd" stroke="#9a32cd" points="37.22,-58.28 31.56,-67.23 41.57,-63.76 37.22,-58.28"/>
<text text-anchor="middle" x="80.5" y="-41" font-family="Helvetica,sans-Serif" font-size="10.00"> name</text>
</g>
<!-- Node3 -->
<g id="node3" class="node">
<title>Node3</title>
<g id="a_node3"><a xlink:title=" ">
<polygon fill="none" stroke="black" points="59,-67.5 59,-86.5 146,-86.5 146,-67.5 59,-67.5"/>
<text text-anchor="middle" x="102.5" y="-74.5" font-family="Helvetica,sans-Serif" font-size="10.00">LayoutVarTypes</text>
</a>
</g>
</g>
<!-- Node3&#45;&gt;Node1 -->
<g id="edge2" class="edge">
<title>Node3&#45;&gt;Node1</title>
<path fill="none" stroke="#9a32cd" stroke-dasharray="5,2" d="M102.5,-57.04C102.5,-44.67 102.5,-29.12 102.5,-19.63"/>
<polygon fill="#9a32cd" stroke="#9a32cd" points="99,-57.23 102.5,-67.23 106,-57.23 99,-57.23"/>
<text text-anchor="middle" x="113.5" y="-41" font-family="Helvetica,sans-Serif" font-size="10.00"> type</text>
</g>
<!-- Node4 -->
<g id="node4" class="node">
<title>Node4</title>
<g id="a_node4"><a xlink:title=" ">
<polygon fill="none" stroke="black" points="164,-67.5 164,-86.5 207,-86.5 207,-67.5 164,-67.5"/>
<text text-anchor="middle" x="185.5" y="-74.5" font-family="Helvetica,sans-Serif" font-size="10.00">size_t</text>
</a>
</g>
</g>
<!-- Node4&#45;&gt;Node1 -->
<g id="edge3" class="edge">
<title>Node4&#45;&gt;Node1</title>
<path fill="none" stroke="#9a32cd" stroke-dasharray="5,2" d="M166.43,-61.07C150.05,-48.24 127,-30.19 113.52,-19.63"/>
<polygon fill="#9a32cd" stroke="#9a32cd" points="164.28,-63.82 174.31,-67.23 168.59,-58.31 164.28,-63.82"/>
<text text-anchor="middle" x="162" y="-41" font-family="Helvetica,sans-Serif" font-size="10.00"> offset</text>
</g>
</g>
</svg>
