<?xml version="1.0" encoding="UTF-8" standalone="no"?>
<!DOCTYPE svg PUBLIC "-//W3C//DTD SVG 1.1//EN"
 "http://www.w3.org/Graphics/SVG/1.1/DTD/svg11.dtd">
<!-- Generated by graphviz version 3.0.0 (20220226.1711)
 -->
<!-- Title: slljit::ConstantGlobalDefinition Pages: 1 -->
<svg width="396pt" height="95pt"
 viewBox="0.00 0.00 396.00 95.00" xmlns="http://www.w3.org/2000/svg" xmlns:xlink="http://www.w3.org/1999/xlink">
<g id="graph0" class="graph" transform="scale(1 1) rotate(0) translate(4 91)">
<title>slljit::ConstantGlobalDefinition</title>
<!-- Node1 -->
<g id="node1" class="node">
<title>Node1</title>
<g id="a_node1"><a xlink:title=" ">
<polygon fill="#bfbfbf" stroke="black" points="81.5,-0.5 81.5,-19.5 227.5,-19.5 227.5,-0.5 81.5,-0.5"/>
<text text-anchor="middle" x="154.5" y="-7.5" font-family="Helvetica,sans-Serif" font-size="10.00">slljit::ConstantGlobalDefinition</text>
</a>
</g>
</g>
<!-- Node2 -->
<g id="node2" class="node">
<title>Node2</title>
<g id="a_node2"><a xlink:title=" ">
<polygon fill="none" stroke="black" points="0,-67.5 0,-86.5 45,-86.5 45,-67.5 0,-67.5"/>
<text text-anchor="middle" x="22.5" y="-74.5" font-family="Helvetica,sans-Serif" font-size="10.00">double</text>
</a>
</g>
</g>
<!-- Node2&#45;&gt;Node1 -->
<g id="edge1" class="edge">
<title>Node2&#45;&gt;Node1</title>
<path fill="none" stroke="#9a32cd" stroke-dasharray="5,2" d="M36.39,-59.6C43.52,-52.08 52.75,-43.62 62.5,-38 76.92,-29.69 94.12,-23.75 109.72,-19.6"/>
<polygon fill="#9a32cd" stroke="#9a32cd" points="33.64,-57.43 29.55,-67.2 38.84,-62.11 33.64,-57.43"/>
<text text-anchor="middle" x="78.5" y="-41" font-family="Helvetica,sans-Serif" font-size="10.00"> valueD</text>
</g>
<!-- Node3 -->
<g id="node3" class="node">
<title>Node3</title>
<g id="a_node3"><a xlink:title=" ">
<polygon fill="none" stroke="black" points="63.5,-67.5 63.5,-86.5 109.5,-86.5 109.5,-67.5 63.5,-67.5"/>
<text text-anchor="middle" x="86.5" y="-74.5" font-family="Helvetica,sans-Serif" font-size="10.00">int64_t</text>
</a>
</g>
</g>
<!-- Node3&#45;&gt;Node1 -->
<g id="edge2" class="edge">
<title>Node3&#45;&gt;Node1</title>
<path fill="none" stroke="#9a32cd" stroke-dasharray="5,2" d="M93.05,-57.51C96.08,-50.8 100.2,-43.51 105.5,-38 113.04,-30.16 123.36,-24.01 132.58,-19.57"/>
<polygon fill="#9a32cd" stroke="#9a32cd" points="89.62,-56.67 89.17,-67.25 96.12,-59.25 89.62,-56.67"/>
<text text-anchor="middle" x="128" y="-41" font-family="Helvetica,sans-Serif" font-size="10.00"> valueSI64</text>
</g>
<!-- Node4 -->
<g id="node4" class="node">
<title>Node4</title>
<g id="a_node4"><a xlink:title=" ">
<polygon fill="none" stroke="black" points="129,-67.5 129,-86.5 180,-86.5 180,-67.5 129,-67.5"/>
<text text-anchor="middle" x="154.5" y="-74.5" font-family="Helvetica,sans-Serif" font-size="10.00">uint64_t</text>
</a>
</g>
</g>
<!-- Node4&#45;&gt;Node1 -->
<g id="edge3" class="edge">
<title>Node4&#45;&gt;Node1</title>
<path fill="none" stroke="#9a32cd" stroke-dasharray="5,2" d="M154.5,-57.04C154.5,-44.67 154.5,-29.12 154.5,-19.63"/>
<polygon fill="#9a32cd" stroke="#9a32cd" points="151,-57.23 154.5,-67.23 158,-57.23 151,-57.23"/>
<text text-anchor="middle" x="177" y="-41" font-family="Helvetica,sans-Serif" font-size="10.00"> valueUI64</text>
</g>
<!-- Node5 -->
<g id="node5" class="node">
<title>Node5</title>
<g id="a_node5"><a xlink:title=" ">
<polygon fill="none" stroke="black" points="198,-67.5 198,-86.5 283,-86.5 283,-67.5 198,-67.5"/>
<text text-anchor="middle" x="240.5" y="-74.5" font-family="Helvetica,sans-Serif" font-size="10.00">anonymous:@1</text>
</a>
</g>
</g>
<!-- Node5&#45;&gt;Node1 -->
<g id="edge4" class="edge">
<title>Node5&#45;&gt;Node1</title>
<path fill="none" stroke="#9a32cd" stroke-dasharray="5,2" d="M226.61,-59.69C220.04,-52.53 211.82,-44.34 203.5,-38 194.08,-30.82 182.5,-24.35 172.97,-19.54"/>
<polygon fill="#9a32cd" stroke="#9a32cd" points="224.22,-62.27 233.47,-67.43 229.46,-57.63 224.22,-62.27"/>
<text text-anchor="middle" x="225" y="-41" font-family="Helvetica,sans-Serif" font-size="10.00"> @1</text>
</g>
<!-- Node6 -->
<g id="node6" class="node">
<title>Node6</title>
<g id="a_node6"><a xlink:title=" ">
<polygon fill="none" stroke="black" points="301,-67.5 301,-86.5 388,-86.5 388,-67.5 301,-67.5"/>
<text text-anchor="middle" x="344.5" y="-74.5" font-family="Helvetica,sans-Serif" font-size="10.00">LayoutVarTypes</text>
</a>
</g>
</g>
<!-- Node6&#45;&gt;Node1 -->
<g id="edge5" class="edge">
<title>Node6&#45;&gt;Node1</title>
<path fill="none" stroke="#9a32cd" stroke-dasharray="5,2" d="M311.75,-63.94C290.85,-56.33 263.16,-46.38 238.5,-38 219.65,-31.59 198.28,-24.73 181.81,-19.53"/>
<polygon fill="#9a32cd" stroke="#9a32cd" points="310.82,-67.33 321.42,-67.48 313.23,-60.76 310.82,-67.33"/>
<text text-anchor="middle" x="278.5" y="-41" font-family="Helvetica,sans-Serif" font-size="10.00"> type</text>
</g>
</g>
</svg>
